<?xml version="1.0" encoding="utf-8" standalone="no"?>
<!DOCTYPE svg PUBLIC "-//W3C//DTD SVG 1.1//EN"
  "http://www.w3.org/Graphics/SVG/1.1/DTD/svg11.dtd">
<svg xmlns:xlink="http://www.w3.org/1999/xlink" width="460.8pt" height="345.6pt" viewBox="0 0 460.8 345.6" xmlns="http://www.w3.org/2000/svg" version="1.1">
 <metadata>
  <rdf:RDF xmlns:dc="http://purl.org/dc/elements/1.1/" xmlns:cc="http://creativecommons.org/ns#" xmlns:rdf="http://www.w3.org/1999/02/22-rdf-syntax-ns#">
   <cc:Work>
    <dc:type rdf:resource="http://purl.org/dc/dcmitype/StillImage"/>
    <dc:date>2022-07-22T14:44:31.716037</dc:date>
    <dc:format>image/svg+xml</dc:format>
    <dc:creator>
     <cc:Agent>
      <dc:title>Matplotlib v3.5.0, https://matplotlib.org/</dc:title>
     </cc:Agent>
    </dc:creator>
   </cc:Work>
  </rdf:RDF>
 </metadata>
 <defs>
  <style type="text/css">*{stroke-linejoin: round; stroke-linecap: butt}</style>
 </defs>
 <g id="figure_1">
  <g id="patch_1">
   <path d="M 0 345.6 
L 460.8 345.6 
L 460.8 0 
L 0 0 
z
" style="fill: #ffffff"/>
  </g>
  <g id="axes_1">
   <g id="patch_2">
    <path d="M 173.577201 177.138789 
L 188.033537 166.467843 
L 174.298685 201.337002 
L 173.577201 177.138789 
z
" clip-path="url(#pf741865a0b)" style="fill: #ffedd9; stroke: #ffedd9; stroke-linejoin: miter"/>
   </g>
   <g id="patch_3">
    <path d="M 188.033537 166.467843 
L 203.243275 155.222793 
L 219.349302 143.296082 
L 248.249601 121.936696 
L 266.540756 136.29271 
L 258.287961 153.755573 
L 261.112137 165.332456 
L 265.306089 172.008102 
L 269.381496 178.506724 
L 249.16503 193.054012 
L 242.257336 198.023926 
L 232.154874 205.536389 
L 214.809812 206.308986 
L 203.738416 214.033303 
L 185.46209 227.119304 
L 174.603424 212.310087 
L 174.298685 201.337002 
L 188.033537 166.467843 
z
" clip-path="url(#pf741865a0b)" style="fill: #ffedd9; stroke: #ffedd9; stroke-linejoin: miter"/>
   </g>
   <g id="patch_4">
    <path d="M 266.540756 136.29271 
L 271.853572 140.482806 
L 279.803658 158.48215 
L 285.365591 171.271655 
L 277.848007 172.234717 
L 269.381496 178.506724 
L 265.306089 172.008102 
L 261.112137 165.332456 
L 258.287961 153.755573 
L 266.540756 136.29271 
z
" clip-path="url(#pf741865a0b)" style="fill: #ffedd9; stroke: #ffedd9; stroke-linejoin: miter"/>
   </g>
   <g id="patch_5">
    <path d="M 269.381496 178.506724 
L 277.848007 172.234717 
L 285.365591 171.271655 
L 298.742799 201.853074 
z
" clip-path="url(#pf741865a0b)" style="fill: #ffedd9; stroke: #ffedd9; stroke-linejoin: miter"/>
   </g>
   <g id="patch_6">
    <path d="M 269.381496 178.506724 
L 298.742799 201.853074 
L 293.85743 202.773426 
L 274.253233 203.646871 
L 261.766318 204.208977 
L 255.098342 204.49309 
L 232.154874 205.536389 
L 242.257336 198.023926 
L 245.71594 195.254724 
L 249.16503 193.054012 
z
" clip-path="url(#pf741865a0b)" style="fill: #ffedd9; stroke: #ffedd9; stroke-linejoin: miter"/>
   </g>
   <g id="patch_7">
    <path d="M 232.154874 205.536389 
L 255.098342 204.49309 
L 242.174312 213.931122 
z
" clip-path="url(#pf741865a0b)" style="fill: #ffedd9; stroke: #ffedd9; stroke-linejoin: miter"/>
   </g>
   <g id="patch_8">
    <path d="M 173.577201 177.138789 
L 188.033537 166.467843 
L 174.298685 201.337002 
L 173.577201 177.138789 
L 173.577201 177.138789 
z
" clip-path="url(#pf741865a0b)" style="fill: #ffedd9; stroke: #ffedd9; stroke-linejoin: miter"/>
   </g>
   <g id="patch_9">
    <path d="M 188.033537 166.467843 
L 203.243275 155.222793 
L 219.349302 143.296082 
L 248.249601 121.936696 
L 266.540756 136.29271 
L 258.287961 153.755573 
L 261.112137 165.332456 
L 265.306089 172.008102 
L 269.381496 178.506724 
L 249.16503 193.054012 
L 242.257336 198.023926 
L 232.154874 205.536389 
L 214.809812 206.308986 
L 203.738416 214.033303 
L 185.46209 227.119304 
L 174.603424 212.310087 
L 174.298685 201.337002 
L 188.033537 166.467843 
L 188.033537 166.467843 
z
" clip-path="url(#pf741865a0b)" style="fill: #ffedd9; stroke: #ffedd9; stroke-linejoin: miter"/>
   </g>
   <g id="patch_10">
    <path d="M 266.540756 136.29271 
L 271.853572 140.482806 
L 279.803658 158.48215 
L 285.365591 171.271655 
L 277.848007 172.234717 
L 269.381496 178.506724 
L 265.306089 172.008102 
L 261.112137 165.332456 
L 258.287961 153.755573 
L 266.540756 136.29271 
L 266.540756 136.29271 
z
" clip-path="url(#pf741865a0b)" style="fill: #ffedd9; stroke: #ffedd9; stroke-linejoin: miter"/>
   </g>
   <g id="patch_11">
    <path d="M 269.381496 178.506724 
L 277.848007 172.234717 
L 285.365591 171.271655 
L 298.742799 201.853074 
L 269.381496 178.506724 
z
" clip-path="url(#pf741865a0b)" style="fill: #ffedd9; stroke: #ffedd9; stroke-linejoin: miter"/>
   </g>
   <g id="patch_12">
    <path d="M 269.381496 178.506724 
L 298.742799 201.853074 
L 293.85743 202.773426 
L 274.253233 203.646871 
L 261.766318 204.208977 
L 255.098342 204.49309 
L 232.154874 205.536389 
L 242.257336 198.023926 
L 245.71594 195.254724 
L 249.16503 193.054012 
L 269.381496 178.506724 
z
" clip-path="url(#pf741865a0b)" style="fill: #ffedd9; stroke: #ffedd9; stroke-linejoin: miter"/>
   </g>
   <g id="patch_13">
    <path d="M 232.154874 205.536389 
L 255.098342 204.49309 
L 242.174312 213.931122 
L 232.154874 205.536389 
z
" clip-path="url(#pf741865a0b)" style="fill: #ffedd9; stroke: #ffedd9; stroke-linejoin: miter"/>
   </g>
   <g id="line2d_1">
    <path d="M 173.577201 177.138789 
L 188.033537 166.467843 
L 174.298685 201.337002 
L 173.577201 177.138789 
L 173.577201 177.138789 
" clip-path="url(#pf741865a0b)" style="fill: none; stroke: #ffc380; stroke-width: 0.5; stroke-linecap: square"/>
   </g>
   <g id="line2d_2">
    <path d="M 188.033537 166.467843 
L 203.243275 155.222793 
L 219.349302 143.296082 
L 248.249601 121.936696 
L 266.540756 136.29271 
L 258.287961 153.755573 
L 261.112137 165.332456 
L 265.306089 172.008102 
L 269.381496 178.506724 
L 249.16503 193.054012 
L 242.257336 198.023926 
L 232.154874 205.536389 
L 214.809812 206.308986 
L 203.738416 214.033303 
L 185.46209 227.119304 
L 174.603424 212.310087 
L 174.298685 201.337002 
L 188.033537 166.467843 
L 188.033537 166.467843 
" clip-path="url(#pf741865a0b)" style="fill: none; stroke: #ffc380; stroke-width: 0.5; stroke-linecap: square"/>
   </g>
   <g id="line2d_3">
    <path d="M 266.540756 136.29271 
L 271.853572 140.482806 
L 279.803658 158.48215 
L 285.365591 171.271655 
L 277.848007 172.234717 
L 269.381496 178.506724 
L 265.306089 172.008102 
L 261.112137 165.332456 
L 258.287961 153.755573 
L 266.540756 136.29271 
L 266.540756 136.29271 
" clip-path="url(#pf741865a0b)" style="fill: none; stroke: #ffc380; stroke-width: 0.5; stroke-linecap: square"/>
   </g>
   <g id="line2d_4">
    <path d="M 269.381496 178.506724 
L 277.848007 172.234717 
L 285.365591 171.271655 
L 298.742799 201.853074 
L 269.381496 178.506724 
" clip-path="url(#pf741865a0b)" style="fill: none; stroke: #ffc380; stroke-width: 0.5; stroke-linecap: square"/>
   </g>
   <g id="line2d_5">
    <path d="M 269.381496 178.506724 
L 298.742799 201.853074 
L 293.85743 202.773426 
L 274.253233 203.646871 
L 261.766318 204.208977 
L 255.098342 204.49309 
L 232.154874 205.536389 
L 242.257336 198.023926 
L 245.71594 195.254724 
L 249.16503 193.054012 
L 269.381496 178.506724 
" clip-path="url(#pf741865a0b)" style="fill: none; stroke: #ffc380; stroke-width: 0.5; stroke-linecap: square"/>
   </g>
   <g id="line2d_6">
    <path d="M 232.154874 205.536389 
L 255.098342 204.49309 
L 242.174312 213.931122 
L 232.154874 205.536389 
" clip-path="url(#pf741865a0b)" style="fill: none; stroke: #ffc380; stroke-width: 0.5; stroke-linecap: square"/>
   </g>
   <g id="line2d_7">
    <path d="M 167.721791 143.540083 
L 185.253315 143.921261 
L 195.98979 142.31592 
L 210.354744 131.970226 
L 232.807028 110.431595 
L 248.249601 121.936696 
L 219.349302 143.296082 
L 214.23269 147.223211 
L 206.218704 152.978253 
L 203.243275 155.222793 
L 188.033537 166.467843 
L 173.577201 177.138789 
L 174.298685 201.337002 
L 174.603424 212.310087 
L 160.570404 230.780503 
L 159.75453 226.089003 
L 158.5424 224.915563 
L 156.147372 221.849066 
L 153.068314 218.576008 
L 148.331712 218.928977 
L 145.969844 213.153347 
L 152.582082 207.733923 
L 156.103231 205.338699 
L 169.637897 196.623306 
L 165.566648 193.754085 
L 161.829514 195.699365 
L 161.413599 186.693586 
L 162.607513 185.755922 
L 174.134467 171.028929 
L 174.248045 166.29216 
L 174.432989 158.581863 
L 167.721791 143.540083 
" clip-path="url(#pf741865a0b)" style="fill: none; stroke: #8f8f8f; stroke-width: 0.2; stroke-linecap: square"/>
   </g>
   <g id="line2d_8">
    <path d="M 174.603424 212.310087 
L 185.46209 227.119304 
L 160.660689 245.000936 
L 160.994912 235.461705 
L 161.085063 233.665151 
L 160.570404 230.780503 
L 174.603424 212.310087 
" clip-path="url(#pf741865a0b)" style="fill: none; stroke: #8f8f8f; stroke-width: 0.2; stroke-linecap: square"/>
   </g>
   <g id="line2d_9">
    <path d="M 173.577201 177.138789 
L 174.298685 201.337002 
L 188.033537 166.467843 
L 173.577201 177.138789 
" clip-path="url(#pf741865a0b)" style="fill: none; stroke: #8f8f8f; stroke-width: 0.2; stroke-linecap: square"/>
   </g>
   <g id="line2d_10">
    <path d="M 188.033537 166.467843 
L 203.243275 155.222793 
L 206.218704 152.978253 
L 214.23269 147.223211 
L 219.349302 143.296082 
L 248.249601 121.936696 
L 250.81892 123.832668 
L 266.540756 136.29271 
L 271.853572 140.482806 
L 279.803658 158.48215 
L 285.365591 171.271655 
L 277.848007 172.234717 
L 269.381496 178.506724 
L 249.16503 193.054012 
L 245.71594 195.254724 
L 242.257336 198.023926 
L 232.154874 205.536389 
L 223.920123 194.349752 
L 215.145867 182.41519 
L 192.692504 198.977997 
L 174.603424 212.310087 
L 174.298685 201.337002 
L 188.033537 166.467843 
" clip-path="url(#pf741865a0b)" style="fill: none; stroke: #8f8f8f; stroke-width: 0.2; stroke-linecap: square"/>
   </g>
   <g id="line2d_11">
    <path d="M 298.742799 201.853074 
L 313.569206 223.411217 
L 317.494996 229.148983 
L 322.71369 233.567883 
L 310.166303 239.109788 
L 315.018192 246.336218 
L 299.69208 255.729057 
L 290.099159 261.613791 
L 289.725544 261.854426 
L 278.904028 267.992784 
L 267.883343 274.213626 
L 269.875157 278.343069 
L 252.922244 278.404832 
L 226.443895 278.598481 
L 224.915535 274.875781 
L 222.414863 268.786278 
L 215.237163 251.380537 
L 241.369567 230.071364 
L 232.992656 220.59176 
L 242.174312 213.931122 
L 255.098342 204.49309 
L 261.766318 204.208977 
L 274.253233 203.646871 
L 293.85743 202.773426 
L 298.742799 201.853074 
" clip-path="url(#pf741865a0b)" style="fill: none; stroke: #8f8f8f; stroke-width: 0.2; stroke-linecap: square"/>
   </g>
   <g id="line2d_12">
    <path d="M 255.098342 204.49309 
L 242.174312 213.931122 
L 232.992656 220.59176 
L 241.369567 230.071364 
L 215.237163 251.380537 
L 207.95065 257.342593 
L 200.211965 258.618222 
L 175.103857 256.045249 
L 166.756698 260.3414 
L 163.689752 261.925152 
L 160.197542 257.823111 
L 160.660689 245.000936 
L 185.46209 227.119304 
L 203.738416 214.033303 
L 214.809812 206.308986 
L 232.154874 205.536389 
L 255.098342 204.49309 
" clip-path="url(#pf741865a0b)" style="fill: none; stroke: #8f8f8f; stroke-width: 0.2; stroke-linecap: square"/>
   </g>
   <g id="line2d_13">
    <path d="M 256.158177 62.768233 
L 275.842859 61.235002 
L 312.08814 58.550339 
L 312.08814 79.303898 
L 356.888936 77.430791 
L 368.75389 76.943357 
L 378.670455 105.890741 
L 378.696865 108.138723 
L 337.114485 129.053096 
L 296.408788 119.506495 
L 266.540756 136.29271 
L 250.81892 123.832668 
L 248.249601 121.936696 
L 232.807028 110.431595 
L 243.668061 97.256009 
L 256.158177 62.768233 
" clip-path="url(#pf741865a0b)" style="fill: none; stroke: #8f8f8f; stroke-width: 0.2; stroke-linecap: square"/>
   </g>
   <g id="line2d_14">
    <path d="M 266.540756 136.29271 
L 296.408788 119.506495 
L 337.114485 129.053096 
L 279.803658 158.48215 
L 271.853572 140.482806 
L 266.540756 136.29271 
" clip-path="url(#pf741865a0b)" style="fill: none; stroke: #8f8f8f; stroke-width: 0.2; stroke-linecap: square"/>
   </g>
   <g id="line2d_15">
    <path d="M 232.154874 205.536389 
L 242.174312 213.931122 
L 232.992656 220.59176 
L 241.369567 230.071364 
L 215.237163 251.380537 
L 207.95065 257.342593 
L 200.211965 258.618222 
L 175.103857 256.045249 
L 166.756698 260.3414 
L 163.689752 261.925152 
L 160.197542 257.823111 
L 160.660689 245.000936 
L 160.994912 235.461705 
L 161.085063 233.665151 
L 160.570404 230.780503 
L 174.603424 212.310087 
L 185.46209 227.119304 
L 203.738416 214.033303 
L 214.809812 206.308986 
L 232.154874 205.536389 
" clip-path="url(#pf741865a0b)" style="fill: none; stroke: #8f8f8f; stroke-width: 0.2; stroke-linecap: square"/>
   </g>
   <g id="line2d_16">
    <path d="M 215.145867 182.41519 
L 223.920123 194.349752 
L 232.154874 205.536389 
L 214.809812 206.308986 
L 203.738416 214.033303 
L 185.46209 227.119304 
L 174.603424 212.310087 
L 192.692504 198.977997 
L 215.145867 182.41519 
" clip-path="url(#pf741865a0b)" style="fill: none; stroke: #8f8f8f; stroke-width: 0.2; stroke-linecap: square"/>
   </g>
   <g id="line2d_17">
    <path d="M 378.696865 108.138723 
L 378.828862 119.378458 
L 379.011481 134.940716 
L 380.796779 155.014234 
L 381.769192 165.966112 
L 382.546487 174.84498 
L 382.695154 176.399471 
L 376.351134 186.883447 
L 373.096145 192.279126 
L 370.004996 197.325382 
L 364.514631 206.472714 
L 358.770755 216.031539 
L 352.204999 222.92743 
L 348.418288 226.89438 
L 335.868543 227.788995 
L 317.494996 229.148983 
L 313.569206 223.411217 
L 352.485391 200.655617 
L 331.727376 182.98872 
L 298.742799 201.853074 
L 285.365591 171.271655 
L 279.803658 158.48215 
L 337.114485 129.053096 
L 378.696865 108.138723 
" clip-path="url(#pf741865a0b)" style="fill: none; stroke: #8f8f8f; stroke-width: 0.2; stroke-linecap: square"/>
   </g>
   <g id="line2d_18">
    <path d="M 331.727376 182.98872 
L 352.485391 200.655617 
L 313.569206 223.411217 
L 298.742799 201.853074 
L 331.727376 182.98872 
" clip-path="url(#pf741865a0b)" style="fill: none; stroke: #8f8f8f; stroke-width: 0.2; stroke-linecap: square"/>
   </g>
   <g id="line2d_19">
    <path d="M 378.696865 108.138723 
L 378.828862 119.378458 
L 379.011481 134.940716 
L 380.796779 155.014234 
L 381.769192 165.966112 
L 382.546487 174.84498 
L 382.695154 176.399471 
L 376.351134 186.883447 
L 373.096145 192.279126 
L 370.004996 197.325382 
L 364.514631 206.472714 
L 358.770755 216.031539 
L 352.204999 222.92743 
L 348.418288 226.89438 
L 335.868543 227.788995 
L 322.71369 233.567883 
L 317.494996 229.148983 
L 313.569206 223.411217 
L 352.485391 200.655617 
L 331.727376 182.98872 
L 298.742799 201.853074 
L 285.365591 171.271655 
L 279.803658 158.48215 
L 337.114485 129.053096 
L 378.696865 108.138723 
" clip-path="url(#pf741865a0b)" style="fill: none; stroke: #8f8f8f; stroke-width: 0.2; stroke-linecap: square"/>
   </g>
   <g id="line2d_20">
    <path d="M 331.727376 182.98872 
L 352.485391 200.655617 
L 313.569206 223.411217 
L 298.742799 201.853074 
L 331.727376 182.98872 
" clip-path="url(#pf741865a0b)" style="fill: none; stroke: #8f8f8f; stroke-width: 0.2; stroke-linecap: square"/>
   </g>
   <g id="line2d_21">
    <path d="M 296.408788 119.506495 
L 337.114485 129.053096 
L 279.803658 158.48215 
L 271.853572 140.482806 
L 266.540756 136.29271 
L 296.408788 119.506495 
" clip-path="url(#pf741865a0b)" style="fill: none; stroke: #8f8f8f; stroke-width: 0.2; stroke-linecap: square"/>
   </g>
   <g id="line2d_22">
    <path d="M 266.540756 136.29271 
L 271.853572 140.482806 
L 279.803658 158.48215 
L 285.365591 171.271655 
L 298.742799 201.853074 
L 269.381496 178.506724 
L 265.306089 172.008102 
L 261.112137 165.332456 
L 258.287961 153.755573 
L 260.635323 148.796948 
L 266.540756 136.29271 
" clip-path="url(#pf741865a0b)" style="fill: none; stroke: #8f8f8f; stroke-width: 0.2; stroke-linecap: square"/>
   </g>
   <g id="line2d_23">
    <path d="M 298.742799 201.853074 
L 313.569206 223.411217 
L 317.494996 229.148983 
L 322.71369 233.567883 
L 310.166303 239.109788 
L 315.018192 246.336218 
L 299.69208 255.729057 
L 276.88309 210.268313 
L 261.766318 204.208977 
L 274.253233 203.646871 
L 293.85743 202.773426 
L 298.742799 201.853074 
" clip-path="url(#pf741865a0b)" style="fill: none; stroke: #8f8f8f; stroke-width: 0.2; stroke-linecap: square"/>
   </g>
   <g id="line2d_24">
    <path d="M 261.766318 204.208977 
L 276.88309 210.268313 
L 299.69208 255.729057 
L 290.099159 261.613791 
L 289.725544 261.854426 
L 278.904028 267.992784 
L 246.914538 217.894 
L 242.174312 213.931122 
L 255.098342 204.49309 
L 261.766318 204.208977 
" clip-path="url(#pf741865a0b)" style="fill: none; stroke: #8f8f8f; stroke-width: 0.2; stroke-linecap: square"/>
   </g>
   <g id="line2d_25">
    <path d="M 173.577201 177.138789 
L 188.033537 166.467843 
L 174.298685 201.337002 
L 173.577201 177.138789 
L 173.577201 177.138789 
L 173.577201 177.138789 
" clip-path="url(#pf741865a0b)" style="fill: none; stroke: #ffc380; stroke-width: 0.5; stroke-linecap: square"/>
   </g>
   <g id="line2d_26">
    <path d="M 188.033537 166.467843 
L 203.243275 155.222793 
L 219.349302 143.296082 
L 248.249601 121.936696 
L 266.540756 136.29271 
L 258.287961 153.755573 
L 261.112137 165.332456 
L 265.306089 172.008102 
L 269.381496 178.506724 
L 249.16503 193.054012 
L 242.257336 198.023926 
L 232.154874 205.536389 
L 214.809812 206.308986 
L 203.738416 214.033303 
L 185.46209 227.119304 
L 174.603424 212.310087 
L 174.298685 201.337002 
L 188.033537 166.467843 
L 188.033537 166.467843 
L 188.033537 166.467843 
" clip-path="url(#pf741865a0b)" style="fill: none; stroke: #ffc380; stroke-width: 0.5; stroke-linecap: square"/>
   </g>
   <g id="line2d_27">
    <path d="M 266.540756 136.29271 
L 271.853572 140.482806 
L 279.803658 158.48215 
L 285.365591 171.271655 
L 277.848007 172.234717 
L 269.381496 178.506724 
L 265.306089 172.008102 
L 261.112137 165.332456 
L 258.287961 153.755573 
L 266.540756 136.29271 
L 266.540756 136.29271 
L 266.540756 136.29271 
" clip-path="url(#pf741865a0b)" style="fill: none; stroke: #ffc380; stroke-width: 0.5; stroke-linecap: square"/>
   </g>
   <g id="line2d_28">
    <path d="M 269.381496 178.506724 
L 277.848007 172.234717 
L 285.365591 171.271655 
L 298.742799 201.853074 
L 269.381496 178.506724 
L 269.381496 178.506724 
" clip-path="url(#pf741865a0b)" style="fill: none; stroke: #ffc380; stroke-width: 0.5; stroke-linecap: square"/>
   </g>
   <g id="line2d_29">
    <path d="M 269.381496 178.506724 
L 298.742799 201.853074 
L 293.85743 202.773426 
L 274.253233 203.646871 
L 261.766318 204.208977 
L 255.098342 204.49309 
L 232.154874 205.536389 
L 242.257336 198.023926 
L 245.71594 195.254724 
L 249.16503 193.054012 
L 269.381496 178.506724 
L 269.381496 178.506724 
" clip-path="url(#pf741865a0b)" style="fill: none; stroke: #ffc380; stroke-width: 0.5; stroke-linecap: square"/>
   </g>
   <g id="line2d_30">
    <path d="M 232.154874 205.536389 
L 255.098342 204.49309 
L 242.174312 213.931122 
L 232.154874 205.536389 
L 232.154874 205.536389 
" clip-path="url(#pf741865a0b)" style="fill: none; stroke: #ffc380; stroke-width: 0.5; stroke-linecap: square"/>
   </g>
   <g id="text_1">
    <!-- BOT1 -->
    <g style="opacity: 0.5" transform="translate(189.28508 165.720193)scale(0.0579 -0.0579)">
     <defs>
      <path id="DejaVuSans-42" d="M 1259 2228 
L 1259 519 
L 2272 519 
Q 2781 519 3026 730 
Q 3272 941 3272 1375 
Q 3272 1813 3026 2020 
Q 2781 2228 2272 2228 
L 1259 2228 
z
M 1259 4147 
L 1259 2741 
L 2194 2741 
Q 2656 2741 2882 2914 
Q 3109 3088 3109 3444 
Q 3109 3797 2882 3972 
Q 2656 4147 2194 4147 
L 1259 4147 
z
M 628 4666 
L 2241 4666 
Q 2963 4666 3353 4366 
Q 3744 4066 3744 3513 
Q 3744 3084 3544 2831 
Q 3344 2578 2956 2516 
Q 3422 2416 3680 2098 
Q 3938 1781 3938 1306 
Q 3938 681 3513 340 
Q 3088 0 2303 0 
L 628 0 
L 628 4666 
z
" transform="scale(0.015625)"/>
      <path id="DejaVuSans-4f" d="M 2522 4238 
Q 1834 4238 1429 3725 
Q 1025 3213 1025 2328 
Q 1025 1447 1429 934 
Q 1834 422 2522 422 
Q 3209 422 3611 934 
Q 4013 1447 4013 2328 
Q 4013 3213 3611 3725 
Q 3209 4238 2522 4238 
z
M 2522 4750 
Q 3503 4750 4090 4092 
Q 4678 3434 4678 2328 
Q 4678 1225 4090 567 
Q 3503 -91 2522 -91 
Q 1538 -91 948 565 
Q 359 1222 359 2328 
Q 359 3434 948 4092 
Q 1538 4750 2522 4750 
z
" transform="scale(0.015625)"/>
      <path id="DejaVuSans-54" d="M -19 4666 
L 3928 4666 
L 3928 4134 
L 2272 4134 
L 2272 0 
L 1638 0 
L 1638 4134 
L -19 4134 
L -19 4666 
z
" transform="scale(0.015625)"/>
      <path id="DejaVuSans-31" d="M 794 531 
L 1825 531 
L 1825 4091 
L 703 3866 
L 703 4441 
L 1819 4666 
L 2450 4666 
L 2450 531 
L 3481 531 
L 3481 0 
L 794 0 
L 794 531 
z
" transform="scale(0.015625)"/>
     </defs>
     <use xlink:href="#DejaVuSans-42"/>
     <use xlink:href="#DejaVuSans-4f" x="66.853516"/>
     <use xlink:href="#DejaVuSans-54" x="145.564453"/>
     <use xlink:href="#DejaVuSans-31" x="206.648438"/>
    </g>
    <!-- 245 -->
    <g style="opacity: 0.5" transform="translate(191.583891 172.203727)scale(0.0579 -0.0579)">
     <defs>
      <path id="DejaVuSans-32" d="M 1228 531 
L 3431 531 
L 3431 0 
L 469 0 
L 469 531 
Q 828 903 1448 1529 
Q 2069 2156 2228 2338 
Q 2531 2678 2651 2914 
Q 2772 3150 2772 3378 
Q 2772 3750 2511 3984 
Q 2250 4219 1831 4219 
Q 1534 4219 1204 4116 
Q 875 4013 500 3803 
L 500 4441 
Q 881 4594 1212 4672 
Q 1544 4750 1819 4750 
Q 2544 4750 2975 4387 
Q 3406 4025 3406 3419 
Q 3406 3131 3298 2873 
Q 3191 2616 2906 2266 
Q 2828 2175 2409 1742 
Q 1991 1309 1228 531 
z
" transform="scale(0.015625)"/>
      <path id="DejaVuSans-34" d="M 2419 4116 
L 825 1625 
L 2419 1625 
L 2419 4116 
z
M 2253 4666 
L 3047 4666 
L 3047 1625 
L 3713 1625 
L 3713 1100 
L 3047 1100 
L 3047 0 
L 2419 0 
L 2419 1100 
L 313 1100 
L 313 1709 
L 2253 4666 
z
" transform="scale(0.015625)"/>
      <path id="DejaVuSans-35" d="M 691 4666 
L 3169 4666 
L 3169 4134 
L 1269 4134 
L 1269 2991 
Q 1406 3038 1543 3061 
Q 1681 3084 1819 3084 
Q 2600 3084 3056 2656 
Q 3513 2228 3513 1497 
Q 3513 744 3044 326 
Q 2575 -91 1722 -91 
Q 1428 -91 1123 -41 
Q 819 9 494 109 
L 494 744 
Q 775 591 1075 516 
Q 1375 441 1709 441 
Q 2250 441 2565 725 
Q 2881 1009 2881 1497 
Q 2881 1984 2565 2268 
Q 2250 2553 1709 2553 
Q 1456 2553 1204 2497 
Q 953 2441 691 2322 
L 691 4666 
z
" transform="scale(0.015625)"/>
     </defs>
     <use xlink:href="#DejaVuSans-32"/>
     <use xlink:href="#DejaVuSans-34" x="63.623047"/>
     <use xlink:href="#DejaVuSans-35" x="127.246094"/>
    </g>
    <!-- GND -->
    <g style="opacity: 0.5" transform="translate(190.471578 178.68726)scale(0.0579 -0.0579)">
     <defs>
      <path id="DejaVuSans-47" d="M 3809 666 
L 3809 1919 
L 2778 1919 
L 2778 2438 
L 4434 2438 
L 4434 434 
Q 4069 175 3628 42 
Q 3188 -91 2688 -91 
Q 1594 -91 976 548 
Q 359 1188 359 2328 
Q 359 3472 976 4111 
Q 1594 4750 2688 4750 
Q 3144 4750 3555 4637 
Q 3966 4525 4313 4306 
L 4313 3634 
Q 3963 3931 3569 4081 
Q 3175 4231 2741 4231 
Q 1884 4231 1454 3753 
Q 1025 3275 1025 2328 
Q 1025 1384 1454 906 
Q 1884 428 2741 428 
Q 3075 428 3337 486 
Q 3600 544 3809 666 
z
" transform="scale(0.015625)"/>
      <path id="DejaVuSans-4e" d="M 628 4666 
L 1478 4666 
L 3547 763 
L 3547 4666 
L 4159 4666 
L 4159 0 
L 3309 0 
L 1241 3903 
L 1241 0 
L 628 0 
L 628 4666 
z
" transform="scale(0.015625)"/>
      <path id="DejaVuSans-44" d="M 1259 4147 
L 1259 519 
L 2022 519 
Q 2988 519 3436 956 
Q 3884 1394 3884 2338 
Q 3884 3275 3436 3711 
Q 2988 4147 2022 4147 
L 1259 4147 
z
M 628 4666 
L 1925 4666 
Q 3281 4666 3915 4102 
Q 4550 3538 4550 2338 
Q 4550 1131 3912 565 
Q 3275 0 1925 0 
L 628 0 
L 628 4666 
z
" transform="scale(0.015625)"/>
     </defs>
     <use xlink:href="#DejaVuSans-47"/>
     <use xlink:href="#DejaVuSans-4e" x="77.490234"/>
     <use xlink:href="#DejaVuSans-44" x="152.294922"/>
    </g>
   </g>
   <g id="text_2">
    <!-- BOT5 -->
    <g style="opacity: 0.5" transform="translate(165.191605 223.769656)scale(0.0579 -0.0579)">
     <use xlink:href="#DejaVuSans-42"/>
     <use xlink:href="#DejaVuSans-4f" x="66.853516"/>
     <use xlink:href="#DejaVuSans-54" x="145.564453"/>
     <use xlink:href="#DejaVuSans-35" x="206.648438"/>
    </g>
    <!-- 105 -->
    <g style="opacity: 0.5" transform="translate(167.490416 230.25319)scale(0.0579 -0.0579)">
     <defs>
      <path id="DejaVuSans-30" d="M 2034 4250 
Q 1547 4250 1301 3770 
Q 1056 3291 1056 2328 
Q 1056 1369 1301 889 
Q 1547 409 2034 409 
Q 2525 409 2770 889 
Q 3016 1369 3016 2328 
Q 3016 3291 2770 3770 
Q 2525 4250 2034 4250 
z
M 2034 4750 
Q 2819 4750 3233 4129 
Q 3647 3509 3647 2328 
Q 3647 1150 3233 529 
Q 2819 -91 2034 -91 
Q 1250 -91 836 529 
Q 422 1150 422 2328 
Q 422 3509 836 4129 
Q 1250 4750 2034 4750 
z
" transform="scale(0.015625)"/>
     </defs>
     <use xlink:href="#DejaVuSans-31"/>
     <use xlink:href="#DejaVuSans-30" x="63.623047"/>
     <use xlink:href="#DejaVuSans-35" x="127.246094"/>
    </g>
    <!-- GND -->
    <g style="opacity: 0.5" transform="translate(166.378103 236.736723)scale(0.0579 -0.0579)">
     <use xlink:href="#DejaVuSans-47"/>
     <use xlink:href="#DejaVuSans-4e" x="77.490234"/>
     <use xlink:href="#DejaVuSans-44" x="152.294922"/>
    </g>
   </g>
   <g id="text_3">
    <!-- BOT6 -->
    <g style="opacity: 0.5" transform="translate(172.980727 179.016567)scale(0.0579 -0.0579)">
     <defs>
      <path id="DejaVuSans-36" d="M 2113 2584 
Q 1688 2584 1439 2293 
Q 1191 2003 1191 1497 
Q 1191 994 1439 701 
Q 1688 409 2113 409 
Q 2538 409 2786 701 
Q 3034 994 3034 1497 
Q 3034 2003 2786 2293 
Q 2538 2584 2113 2584 
z
M 3366 4563 
L 3366 3988 
Q 3128 4100 2886 4159 
Q 2644 4219 2406 4219 
Q 1781 4219 1451 3797 
Q 1122 3375 1075 2522 
Q 1259 2794 1537 2939 
Q 1816 3084 2150 3084 
Q 2853 3084 3261 2657 
Q 3669 2231 3669 1497 
Q 3669 778 3244 343 
Q 2819 -91 2113 -91 
Q 1303 -91 875 529 
Q 447 1150 447 2328 
Q 447 3434 972 4092 
Q 1497 4750 2381 4750 
Q 2619 4750 2861 4703 
Q 3103 4656 3366 4563 
z
" transform="scale(0.015625)"/>
     </defs>
     <use xlink:href="#DejaVuSans-42"/>
     <use xlink:href="#DejaVuSans-4f" x="66.853516"/>
     <use xlink:href="#DejaVuSans-54" x="145.564453"/>
     <use xlink:href="#DejaVuSans-36" x="206.648438"/>
    </g>
    <!-- 245 -->
    <g style="opacity: 0.5" transform="translate(175.279538 185.500101)scale(0.0579 -0.0579)">
     <use xlink:href="#DejaVuSans-32"/>
     <use xlink:href="#DejaVuSans-34" x="63.623047"/>
     <use xlink:href="#DejaVuSans-35" x="127.246094"/>
    </g>
    <!-- 75 -->
    <g style="opacity: 0.5" transform="translate(177.121481 191.983634)scale(0.0579 -0.0579)">
     <defs>
      <path id="DejaVuSans-37" d="M 525 4666 
L 3525 4666 
L 3525 4397 
L 1831 0 
L 1172 0 
L 2766 4134 
L 525 4134 
L 525 4666 
z
" transform="scale(0.015625)"/>
     </defs>
     <use xlink:href="#DejaVuSans-37"/>
     <use xlink:href="#DejaVuSans-35" x="63.623047"/>
    </g>
   </g>
   <g id="text_4">
    <!-- BOT7 -->
    <g style="opacity: 0.5" transform="translate(222.007496 162.237536)scale(0.0579 -0.0579)">
     <use xlink:href="#DejaVuSans-42"/>
     <use xlink:href="#DejaVuSans-4f" x="66.853516"/>
     <use xlink:href="#DejaVuSans-54" x="145.564453"/>
     <use xlink:href="#DejaVuSans-37" x="206.648438"/>
    </g>
    <!-- 245 -->
    <g style="opacity: 0.5" transform="translate(224.306307 168.72107)scale(0.0579 -0.0579)">
     <use xlink:href="#DejaVuSans-32"/>
     <use xlink:href="#DejaVuSans-34" x="63.623047"/>
     <use xlink:href="#DejaVuSans-35" x="127.246094"/>
    </g>
    <!-- 155 -->
    <g style="opacity: 0.5" transform="translate(224.306307 175.204603)scale(0.0579 -0.0579)">
     <use xlink:href="#DejaVuSans-31"/>
     <use xlink:href="#DejaVuSans-35" x="63.623047"/>
     <use xlink:href="#DejaVuSans-35" x="127.246094"/>
    </g>
   </g>
   <g id="text_5">
    <!-- DKA1 -->
    <g style="opacity: 0.5" transform="translate(261.076147 235.339922)scale(0.0579 -0.0579)">
     <defs>
      <path id="DejaVuSans-4b" d="M 628 4666 
L 1259 4666 
L 1259 2694 
L 3353 4666 
L 4166 4666 
L 1850 2491 
L 4331 0 
L 3500 0 
L 1259 2247 
L 1259 0 
L 628 0 
L 628 4666 
z
" transform="scale(0.015625)"/>
      <path id="DejaVuSans-41" d="M 2188 4044 
L 1331 1722 
L 3047 1722 
L 2188 4044 
z
M 1831 4666 
L 2547 4666 
L 4325 0 
L 3669 0 
L 3244 1197 
L 1141 1197 
L 716 0 
L 50 0 
L 1831 4666 
z
" transform="scale(0.015625)"/>
     </defs>
     <use xlink:href="#DejaVuSans-44"/>
     <use xlink:href="#DejaVuSans-4b" x="77.001953"/>
     <use xlink:href="#DejaVuSans-41" x="140.828125"/>
     <use xlink:href="#DejaVuSans-31" x="209.236328"/>
    </g>
    <!-- 145 -->
    <g style="opacity: 0.5" transform="translate(263.449595 241.823455)scale(0.0579 -0.0579)">
     <use xlink:href="#DejaVuSans-31"/>
     <use xlink:href="#DejaVuSans-34" x="63.623047"/>
     <use xlink:href="#DejaVuSans-35" x="127.246094"/>
    </g>
    <!-- GND -->
    <g style="opacity: 0.5" transform="translate(262.337282 248.306989)scale(0.0579 -0.0579)">
     <use xlink:href="#DejaVuSans-47"/>
     <use xlink:href="#DejaVuSans-4e" x="77.490234"/>
     <use xlink:href="#DejaVuSans-44" x="152.294922"/>
    </g>
   </g>
   <g id="text_6">
    <!-- DKA3 -->
    <g style="opacity: 0.5" transform="translate(199.748663 228.323266)scale(0.0579 -0.0579)">
     <defs>
      <path id="DejaVuSans-33" d="M 2597 2516 
Q 3050 2419 3304 2112 
Q 3559 1806 3559 1356 
Q 3559 666 3084 287 
Q 2609 -91 1734 -91 
Q 1441 -91 1130 -33 
Q 819 25 488 141 
L 488 750 
Q 750 597 1062 519 
Q 1375 441 1716 441 
Q 2309 441 2620 675 
Q 2931 909 2931 1356 
Q 2931 1769 2642 2001 
Q 2353 2234 1838 2234 
L 1294 2234 
L 1294 2753 
L 1863 2753 
Q 2328 2753 2575 2939 
Q 2822 3125 2822 3475 
Q 2822 3834 2567 4026 
Q 2313 4219 1838 4219 
Q 1578 4219 1281 4162 
Q 984 4106 628 3988 
L 628 4550 
Q 988 4650 1302 4700 
Q 1616 4750 1894 4750 
Q 2613 4750 3031 4423 
Q 3450 4097 3450 3541 
Q 3450 3153 3228 2886 
Q 3006 2619 2597 2516 
z
" transform="scale(0.015625)"/>
     </defs>
     <use xlink:href="#DejaVuSans-44"/>
     <use xlink:href="#DejaVuSans-4b" x="77.001953"/>
     <use xlink:href="#DejaVuSans-41" x="140.828125"/>
     <use xlink:href="#DejaVuSans-33" x="209.236328"/>
    </g>
    <!-- 105 -->
    <g style="opacity: 0.5" transform="translate(202.122111 234.806799)scale(0.0579 -0.0579)">
     <use xlink:href="#DejaVuSans-31"/>
     <use xlink:href="#DejaVuSans-30" x="63.623047"/>
     <use xlink:href="#DejaVuSans-35" x="127.246094"/>
    </g>
    <!-- GND -->
    <g style="opacity: 0.5" transform="translate(201.009797 241.290333)scale(0.0579 -0.0579)">
     <use xlink:href="#DejaVuSans-47"/>
     <use xlink:href="#DejaVuSans-4e" x="77.490234"/>
     <use xlink:href="#DejaVuSans-44" x="152.294922"/>
    </g>
   </g>
   <g id="text_7">
    <!-- HMM1 -->
    <g style="opacity: 0.5" transform="translate(296.737188 92.535669)scale(0.0579 -0.0579)">
     <defs>
      <path id="DejaVuSans-48" d="M 628 4666 
L 1259 4666 
L 1259 2753 
L 3553 2753 
L 3553 4666 
L 4184 4666 
L 4184 0 
L 3553 0 
L 3553 2222 
L 1259 2222 
L 1259 0 
L 628 0 
L 628 4666 
z
" transform="scale(0.015625)"/>
      <path id="DejaVuSans-4d" d="M 628 4666 
L 1569 4666 
L 2759 1491 
L 3956 4666 
L 4897 4666 
L 4897 0 
L 4281 0 
L 4281 4097 
L 3078 897 
L 2444 897 
L 1241 4097 
L 1241 0 
L 628 0 
L 628 4666 
z
" transform="scale(0.015625)"/>
     </defs>
     <use xlink:href="#DejaVuSans-48"/>
     <use xlink:href="#DejaVuSans-4d" x="75.195312"/>
     <use xlink:href="#DejaVuSans-4d" x="161.474609"/>
     <use xlink:href="#DejaVuSans-31" x="247.753906"/>
    </g>
    <!-- 245 -->
    <g style="opacity: 0.5" transform="translate(300.226115 99.019203)scale(0.0579 -0.0579)">
     <use xlink:href="#DejaVuSans-32"/>
     <use xlink:href="#DejaVuSans-34" x="63.623047"/>
     <use xlink:href="#DejaVuSans-35" x="127.246094"/>
    </g>
    <!-- GND -->
    <g style="opacity: 0.5" transform="translate(299.113802 105.502736)scale(0.0579 -0.0579)">
     <use xlink:href="#DejaVuSans-47"/>
     <use xlink:href="#DejaVuSans-4e" x="77.490234"/>
     <use xlink:href="#DejaVuSans-44" x="152.294922"/>
    </g>
   </g>
   <g id="text_8">
    <!-- HMM3 -->
    <g style="opacity: 0.5" transform="translate(292.812862 134.108467)scale(0.0579 -0.0579)">
     <use xlink:href="#DejaVuSans-48"/>
     <use xlink:href="#DejaVuSans-4d" x="75.195312"/>
     <use xlink:href="#DejaVuSans-4d" x="161.474609"/>
     <use xlink:href="#DejaVuSans-33" x="247.753906"/>
    </g>
    <!-- 245 -->
    <g style="opacity: 0.5" transform="translate(296.30179 140.592)scale(0.0579 -0.0579)">
     <use xlink:href="#DejaVuSans-32"/>
     <use xlink:href="#DejaVuSans-34" x="63.623047"/>
     <use xlink:href="#DejaVuSans-35" x="127.246094"/>
    </g>
    <!-- 75 -->
    <g style="opacity: 0.5" transform="translate(298.143733 147.075534)scale(0.0579 -0.0579)">
     <use xlink:href="#DejaVuSans-37"/>
     <use xlink:href="#DejaVuSans-35" x="63.623047"/>
    </g>
   </g>
   <g id="text_9">
    <!-- NOR1 -->
    <g style="opacity: 0.5" transform="translate(192.887681 228.844915)scale(0.0579 -0.0579)">
     <defs>
      <path id="DejaVuSans-52" d="M 2841 2188 
Q 3044 2119 3236 1894 
Q 3428 1669 3622 1275 
L 4263 0 
L 3584 0 
L 2988 1197 
Q 2756 1666 2539 1819 
Q 2322 1972 1947 1972 
L 1259 1972 
L 1259 0 
L 628 0 
L 628 4666 
L 2053 4666 
Q 2853 4666 3247 4331 
Q 3641 3997 3641 3322 
Q 3641 2881 3436 2590 
Q 3231 2300 2841 2188 
z
M 1259 4147 
L 1259 2491 
L 2053 2491 
Q 2509 2491 2742 2702 
Q 2975 2913 2975 3322 
Q 2975 3731 2742 3939 
Q 2509 4147 2053 4147 
L 1259 4147 
z
" transform="scale(0.015625)"/>
     </defs>
     <use xlink:href="#DejaVuSans-4e"/>
     <use xlink:href="#DejaVuSans-4f" x="74.804688"/>
     <use xlink:href="#DejaVuSans-52" x="153.515625"/>
     <use xlink:href="#DejaVuSans-31" x="222.998047"/>
    </g>
    <!-- 245 -->
    <g style="opacity: 0.5" transform="translate(195.660096 235.328449)scale(0.0579 -0.0579)">
     <use xlink:href="#DejaVuSans-32"/>
     <use xlink:href="#DejaVuSans-34" x="63.623047"/>
     <use xlink:href="#DejaVuSans-35" x="127.246094"/>
    </g>
    <!-- 105 -->
    <g style="opacity: 0.5" transform="translate(195.660096 241.811982)scale(0.0579 -0.0579)">
     <use xlink:href="#DejaVuSans-31"/>
     <use xlink:href="#DejaVuSans-30" x="63.623047"/>
     <use xlink:href="#DejaVuSans-35" x="127.246094"/>
    </g>
   </g>
   <g id="text_10">
    <!-- NOR2 -->
    <g style="opacity: 0.5" transform="translate(195.080903 199.881392)scale(0.0579 -0.0579)">
     <use xlink:href="#DejaVuSans-4e"/>
     <use xlink:href="#DejaVuSans-4f" x="74.804688"/>
     <use xlink:href="#DejaVuSans-52" x="153.515625"/>
     <use xlink:href="#DejaVuSans-32" x="222.998047"/>
    </g>
    <!-- 245 -->
    <g style="opacity: 0.5" transform="translate(197.853318 206.364925)scale(0.0579 -0.0579)">
     <use xlink:href="#DejaVuSans-32"/>
     <use xlink:href="#DejaVuSans-34" x="63.623047"/>
     <use xlink:href="#DejaVuSans-35" x="127.246094"/>
    </g>
    <!-- 155 -->
    <g style="opacity: 0.5" transform="translate(197.853318 212.848459)scale(0.0579 -0.0579)">
     <use xlink:href="#DejaVuSans-31"/>
     <use xlink:href="#DejaVuSans-35" x="63.623047"/>
     <use xlink:href="#DejaVuSans-35" x="127.246094"/>
    </g>
   </g>
   <g id="text_11">
    <!-- PADH1 -->
    <g style="opacity: 0.5" transform="translate(321.459783 163.757998)scale(0.0579 -0.0579)">
     <defs>
      <path id="DejaVuSans-50" d="M 1259 4147 
L 1259 2394 
L 2053 2394 
Q 2494 2394 2734 2622 
Q 2975 2850 2975 3272 
Q 2975 3691 2734 3919 
Q 2494 4147 2053 4147 
L 1259 4147 
z
M 628 4666 
L 2053 4666 
Q 2838 4666 3239 4311 
Q 3641 3956 3641 3272 
Q 3641 2581 3239 2228 
Q 2838 1875 2053 1875 
L 1259 1875 
L 1259 0 
L 628 0 
L 628 4666 
z
" transform="scale(0.015625)"/>
     </defs>
     <use xlink:href="#DejaVuSans-50"/>
     <use xlink:href="#DejaVuSans-41" x="53.927734"/>
     <use xlink:href="#DejaVuSans-44" x="122.335938"/>
     <use xlink:href="#DejaVuSans-48" x="199.337891"/>
     <use xlink:href="#DejaVuSans-31" x="274.533203"/>
    </g>
    <!-- 245 -->
    <g style="opacity: 0.5" transform="translate(325.723575 170.241531)scale(0.0579 -0.0579)">
     <use xlink:href="#DejaVuSans-32"/>
     <use xlink:href="#DejaVuSans-34" x="63.623047"/>
     <use xlink:href="#DejaVuSans-35" x="127.246094"/>
    </g>
    <!-- 135 -->
    <g style="opacity: 0.5" transform="translate(325.723575 176.725065)scale(0.0579 -0.0579)">
     <use xlink:href="#DejaVuSans-31"/>
     <use xlink:href="#DejaVuSans-33" x="63.623047"/>
     <use xlink:href="#DejaVuSans-35" x="127.246094"/>
    </g>
   </g>
   <g id="text_12">
    <!-- PADH2 -->
    <g style="opacity: 0.5" transform="translate(315.824472 198.314113)scale(0.0579 -0.0579)">
     <use xlink:href="#DejaVuSans-50"/>
     <use xlink:href="#DejaVuSans-41" x="53.927734"/>
     <use xlink:href="#DejaVuSans-44" x="122.335938"/>
     <use xlink:href="#DejaVuSans-48" x="199.337891"/>
     <use xlink:href="#DejaVuSans-32" x="274.533203"/>
    </g>
    <!-- 245 -->
    <g style="opacity: 0.5" transform="translate(320.088264 204.797647)scale(0.0579 -0.0579)">
     <use xlink:href="#DejaVuSans-32"/>
     <use xlink:href="#DejaVuSans-34" x="63.623047"/>
     <use xlink:href="#DejaVuSans-35" x="127.246094"/>
    </g>
    <!-- 115 -->
    <g style="opacity: 0.5" transform="translate(320.088264 211.28118)scale(0.0579 -0.0579)">
     <use xlink:href="#DejaVuSans-31"/>
     <use xlink:href="#DejaVuSans-31" x="63.623047"/>
     <use xlink:href="#DejaVuSans-35" x="127.246094"/>
    </g>
   </g>
   <g id="text_13">
    <!-- PADL1 -->
    <g style="opacity: 0.5" transform="translate(322.023855 165.967447)scale(0.0579 -0.0579)">
     <defs>
      <path id="DejaVuSans-4c" d="M 628 4666 
L 1259 4666 
L 1259 531 
L 3531 531 
L 3531 0 
L 628 0 
L 628 4666 
z
" transform="scale(0.015625)"/>
     </defs>
     <use xlink:href="#DejaVuSans-50"/>
     <use xlink:href="#DejaVuSans-41" x="53.927734"/>
     <use xlink:href="#DejaVuSans-44" x="122.335938"/>
     <use xlink:href="#DejaVuSans-4c" x="199.337891"/>
     <use xlink:href="#DejaVuSans-31" x="255.050781"/>
    </g>
    <!-- 135 -->
    <g style="opacity: 0.5" transform="translate(325.723575 172.450981)scale(0.0579 -0.0579)">
     <use xlink:href="#DejaVuSans-31"/>
     <use xlink:href="#DejaVuSans-33" x="63.623047"/>
     <use xlink:href="#DejaVuSans-35" x="127.246094"/>
    </g>
    <!-- GND -->
    <g style="opacity: 0.5" transform="translate(324.611262 178.934514)scale(0.0579 -0.0579)">
     <use xlink:href="#DejaVuSans-47"/>
     <use xlink:href="#DejaVuSans-4e" x="77.490234"/>
     <use xlink:href="#DejaVuSans-44" x="152.294922"/>
    </g>
   </g>
   <g id="text_14">
    <!-- PADL2 -->
    <g style="opacity: 0.5" transform="translate(316.388544 198.314113)scale(0.0579 -0.0579)">
     <use xlink:href="#DejaVuSans-50"/>
     <use xlink:href="#DejaVuSans-41" x="53.927734"/>
     <use xlink:href="#DejaVuSans-44" x="122.335938"/>
     <use xlink:href="#DejaVuSans-4c" x="199.337891"/>
     <use xlink:href="#DejaVuSans-32" x="255.050781"/>
    </g>
    <!-- 115 -->
    <g style="opacity: 0.5" transform="translate(320.088264 204.797647)scale(0.0579 -0.0579)">
     <use xlink:href="#DejaVuSans-31"/>
     <use xlink:href="#DejaVuSans-31" x="63.623047"/>
     <use xlink:href="#DejaVuSans-35" x="127.246094"/>
    </g>
    <!-- GND -->
    <g style="opacity: 0.5" transform="translate(318.975951 211.28118)scale(0.0579 -0.0579)">
     <use xlink:href="#DejaVuSans-47"/>
     <use xlink:href="#DejaVuSans-4e" x="77.490234"/>
     <use xlink:href="#DejaVuSans-44" x="152.294922"/>
    </g>
   </g>
   <g id="text_15">
    <!-- PADL3 -->
    <g style="opacity: 0.5" transform="translate(292.60207 134.108467)scale(0.0579 -0.0579)">
     <use xlink:href="#DejaVuSans-50"/>
     <use xlink:href="#DejaVuSans-41" x="53.927734"/>
     <use xlink:href="#DejaVuSans-44" x="122.335938"/>
     <use xlink:href="#DejaVuSans-4c" x="199.337891"/>
     <use xlink:href="#DejaVuSans-33" x="255.050781"/>
    </g>
    <!-- 75 -->
    <g style="opacity: 0.5" transform="translate(298.143733 140.592)scale(0.0579 -0.0579)">
     <use xlink:href="#DejaVuSans-37"/>
     <use xlink:href="#DejaVuSans-35" x="63.623047"/>
    </g>
    <!-- GND -->
    <g style="opacity: 0.5" transform="translate(295.189476 147.075534)scale(0.0579 -0.0579)">
     <use xlink:href="#DejaVuSans-47"/>
     <use xlink:href="#DejaVuSans-4e" x="77.490234"/>
     <use xlink:href="#DejaVuSans-44" x="152.294922"/>
    </g>
   </g>
   <g id="text_16">
    <!-- PADL4 -->
    <g style="opacity: 0.5" transform="translate(269.289829 164.187037)scale(0.0579 -0.0579)">
     <use xlink:href="#DejaVuSans-50"/>
     <use xlink:href="#DejaVuSans-41" x="53.927734"/>
     <use xlink:href="#DejaVuSans-44" x="122.335938"/>
     <use xlink:href="#DejaVuSans-4c" x="199.337891"/>
     <use xlink:href="#DejaVuSans-34" x="255.050781"/>
    </g>
    <!-- 65 -->
    <g style="opacity: 0.5" transform="translate(274.831493 170.67057)scale(0.0579 -0.0579)">
     <use xlink:href="#DejaVuSans-36"/>
     <use xlink:href="#DejaVuSans-35" x="63.623047"/>
    </g>
    <!-- GND -->
    <g style="opacity: 0.5" transform="translate(271.877236 177.154104)scale(0.0579 -0.0579)">
     <use xlink:href="#DejaVuSans-47"/>
     <use xlink:href="#DejaVuSans-4e" x="77.490234"/>
     <use xlink:href="#DejaVuSans-44" x="152.294922"/>
    </g>
   </g>
   <g id="text_17">
    <!-- SIG4 -->
    <g style="opacity: 0.5" transform="translate(285.46299 223.90521)scale(0.0579 -0.0579)">
     <defs>
      <path id="DejaVuSans-53" d="M 3425 4513 
L 3425 3897 
Q 3066 4069 2747 4153 
Q 2428 4238 2131 4238 
Q 1616 4238 1336 4038 
Q 1056 3838 1056 3469 
Q 1056 3159 1242 3001 
Q 1428 2844 1947 2747 
L 2328 2669 
Q 3034 2534 3370 2195 
Q 3706 1856 3706 1288 
Q 3706 609 3251 259 
Q 2797 -91 1919 -91 
Q 1588 -91 1214 -16 
Q 841 59 441 206 
L 441 856 
Q 825 641 1194 531 
Q 1563 422 1919 422 
Q 2459 422 2753 634 
Q 3047 847 3047 1241 
Q 3047 1584 2836 1778 
Q 2625 1972 2144 2069 
L 1759 2144 
Q 1053 2284 737 2584 
Q 422 2884 422 3419 
Q 422 4038 858 4394 
Q 1294 4750 2059 4750 
Q 2388 4750 2728 4690 
Q 3069 4631 3425 4513 
z
" transform="scale(0.015625)"/>
      <path id="DejaVuSans-49" d="M 628 4666 
L 1259 4666 
L 1259 0 
L 628 0 
L 628 4666 
z
" transform="scale(0.015625)"/>
     </defs>
     <use xlink:href="#DejaVuSans-53"/>
     <use xlink:href="#DejaVuSans-49" x="63.476562"/>
     <use xlink:href="#DejaVuSans-47" x="92.96875"/>
     <use xlink:href="#DejaVuSans-34" x="170.458984"/>
    </g>
    <!-- 245 -->
    <g style="opacity: 0.5" transform="translate(286.714173 230.388743)scale(0.0579 -0.0579)">
     <use xlink:href="#DejaVuSans-32"/>
     <use xlink:href="#DejaVuSans-34" x="63.623047"/>
     <use xlink:href="#DejaVuSans-35" x="127.246094"/>
    </g>
    <!-- 145 -->
    <g style="opacity: 0.5" transform="translate(286.714173 236.872277)scale(0.0579 -0.0579)">
     <use xlink:href="#DejaVuSans-31"/>
     <use xlink:href="#DejaVuSans-34" x="63.623047"/>
     <use xlink:href="#DejaVuSans-35" x="127.246094"/>
    </g>
   </g>
   <g id="text_18">
    <!-- TAU2 -->
    <g style="opacity: 0.5" transform="translate(263.448264 231.215025)scale(0.0579 -0.0579)">
     <defs>
      <path id="DejaVuSans-55" d="M 556 4666 
L 1191 4666 
L 1191 1831 
Q 1191 1081 1462 751 
Q 1734 422 2344 422 
Q 2950 422 3222 751 
Q 3494 1081 3494 1831 
L 3494 4666 
L 4128 4666 
L 4128 1753 
Q 4128 841 3676 375 
Q 3225 -91 2344 -91 
Q 1459 -91 1007 375 
Q 556 841 556 1753 
L 556 4666 
z
" transform="scale(0.015625)"/>
     </defs>
     <use xlink:href="#DejaVuSans-54"/>
     <use xlink:href="#DejaVuSans-41" x="53.333984"/>
     <use xlink:href="#DejaVuSans-55" x="121.742188"/>
     <use xlink:href="#DejaVuSans-32" x="194.935547"/>
    </g>
    <!-- 245 -->
    <g style="opacity: 0.5" transform="translate(265.407365 237.698559)scale(0.0579 -0.0579)">
     <use xlink:href="#DejaVuSans-32"/>
     <use xlink:href="#DejaVuSans-34" x="63.623047"/>
     <use xlink:href="#DejaVuSans-35" x="127.246094"/>
    </g>
    <!-- 145 -->
    <g style="opacity: 0.5" transform="translate(265.407365 244.182092)scale(0.0579 -0.0579)">
     <use xlink:href="#DejaVuSans-31"/>
     <use xlink:href="#DejaVuSans-34" x="63.623047"/>
     <use xlink:href="#DejaVuSans-35" x="127.246094"/>
    </g>
   </g>
   <g id="text_19">
    <!-- DUS1 -->
    <g transform="translate(172.777624 179.016567)scale(0.0579 -0.0579)">
     <use xlink:href="#DejaVuSans-44"/>
     <use xlink:href="#DejaVuSans-55" x="77.001953"/>
     <use xlink:href="#DejaVuSans-53" x="150.195312"/>
     <use xlink:href="#DejaVuSans-31" x="213.671875"/>
    </g>
    <!-- 75 -->
    <g transform="translate(177.121481 185.500101)scale(0.0579 -0.0579)">
     <use xlink:href="#DejaVuSans-37"/>
     <use xlink:href="#DejaVuSans-35" x="63.623047"/>
    </g>
    <!-- GND -->
    <g transform="translate(174.167224 191.983634)scale(0.0579 -0.0579)">
     <use xlink:href="#DejaVuSans-47"/>
     <use xlink:href="#DejaVuSans-4e" x="77.490234"/>
     <use xlink:href="#DejaVuSans-44" x="152.294922"/>
    </g>
   </g>
   <g id="text_20">
    <!-- DUS2 -->
    <g transform="translate(213.812346 169.642145)scale(0.0579 -0.0579)">
     <use xlink:href="#DejaVuSans-44"/>
     <use xlink:href="#DejaVuSans-55" x="77.001953"/>
     <use xlink:href="#DejaVuSans-53" x="150.195312"/>
     <use xlink:href="#DejaVuSans-32" x="213.671875"/>
    </g>
    <!-- 155 -->
    <g transform="translate(216.314259 176.125678)scale(0.0579 -0.0579)">
     <use xlink:href="#DejaVuSans-31"/>
     <use xlink:href="#DejaVuSans-35" x="63.623047"/>
     <use xlink:href="#DejaVuSans-35" x="127.246094"/>
    </g>
    <!-- GND -->
    <g transform="translate(215.201946 182.609212)scale(0.0579 -0.0579)">
     <use xlink:href="#DejaVuSans-47"/>
     <use xlink:href="#DejaVuSans-4e" x="77.490234"/>
     <use xlink:href="#DejaVuSans-44" x="152.294922"/>
    </g>
   </g>
   <g id="text_21">
    <!-- DUS3 -->
    <g transform="translate(263.799031 152.513862)scale(0.0579 -0.0579)">
     <use xlink:href="#DejaVuSans-44"/>
     <use xlink:href="#DejaVuSans-55" x="77.001953"/>
     <use xlink:href="#DejaVuSans-53" x="150.195312"/>
     <use xlink:href="#DejaVuSans-33" x="213.671875"/>
    </g>
    <!-- 155 -->
    <g transform="translate(266.300945 158.997395)scale(0.0579 -0.0579)">
     <use xlink:href="#DejaVuSans-31"/>
     <use xlink:href="#DejaVuSans-35" x="63.623047"/>
     <use xlink:href="#DejaVuSans-35" x="127.246094"/>
    </g>
    <!-- 65 -->
    <g transform="translate(268.142889 165.480929)scale(0.0579 -0.0579)">
     <use xlink:href="#DejaVuSans-36"/>
     <use xlink:href="#DejaVuSans-35" x="63.623047"/>
    </g>
   </g>
   <g id="text_22">
    <!-- DUS4 -->
    <g transform="translate(276.034403 181.676509)scale(0.0579 -0.0579)">
     <use xlink:href="#DejaVuSans-44"/>
     <use xlink:href="#DejaVuSans-55" x="77.001953"/>
     <use xlink:href="#DejaVuSans-53" x="150.195312"/>
     <use xlink:href="#DejaVuSans-34" x="213.671875"/>
    </g>
    <!-- 245 -->
    <g transform="translate(278.536316 188.160042)scale(0.0579 -0.0579)">
     <use xlink:href="#DejaVuSans-32"/>
     <use xlink:href="#DejaVuSans-34" x="63.623047"/>
     <use xlink:href="#DejaVuSans-35" x="127.246094"/>
    </g>
    <!-- 65 -->
    <g transform="translate(280.37826 194.643576)scale(0.0579 -0.0579)">
     <use xlink:href="#DejaVuSans-36"/>
     <use xlink:href="#DejaVuSans-35" x="63.623047"/>
    </g>
   </g>
   <g id="text_23">
    <!-- DUS5 -->
    <g transform="translate(257.421092 187.135701)scale(0.0579 -0.0579)">
     <use xlink:href="#DejaVuSans-44"/>
     <use xlink:href="#DejaVuSans-55" x="77.001953"/>
     <use xlink:href="#DejaVuSans-53" x="150.195312"/>
     <use xlink:href="#DejaVuSans-35" x="213.671875"/>
    </g>
    <!-- 245 -->
    <g transform="translate(259.923005 193.619234)scale(0.0579 -0.0579)">
     <use xlink:href="#DejaVuSans-32"/>
     <use xlink:href="#DejaVuSans-34" x="63.623047"/>
     <use xlink:href="#DejaVuSans-35" x="127.246094"/>
    </g>
    <!-- GND -->
    <g transform="translate(258.810692 200.102768)scale(0.0579 -0.0579)">
     <use xlink:href="#DejaVuSans-47"/>
     <use xlink:href="#DejaVuSans-4e" x="77.490234"/>
     <use xlink:href="#DejaVuSans-44" x="152.294922"/>
    </g>
   </g>
   <g id="text_24">
    <!-- DUS6 -->
    <g transform="translate(235.598864 204.326251)scale(0.0579 -0.0579)">
     <use xlink:href="#DejaVuSans-44"/>
     <use xlink:href="#DejaVuSans-55" x="77.001953"/>
     <use xlink:href="#DejaVuSans-53" x="150.195312"/>
     <use xlink:href="#DejaVuSans-36" x="213.671875"/>
    </g>
    <!-- 245 -->
    <g transform="translate(238.100777 210.809784)scale(0.0579 -0.0579)">
     <use xlink:href="#DejaVuSans-32"/>
     <use xlink:href="#DejaVuSans-34" x="63.623047"/>
     <use xlink:href="#DejaVuSans-35" x="127.246094"/>
    </g>
    <!-- 105 -->
    <g transform="translate(238.100777 217.293318)scale(0.0579 -0.0579)">
     <use xlink:href="#DejaVuSans-31"/>
     <use xlink:href="#DejaVuSans-30" x="63.623047"/>
     <use xlink:href="#DejaVuSans-35" x="127.246094"/>
    </g>
   </g>
  </g>
 </g>
 <defs>
  <clipPath id="pf741865a0b">
   <rect x="77.825518" y="41.472" width="316.668964" height="266.112"/>
  </clipPath>
 </defs>
</svg>
