<?xml version="1.0" encoding="utf-8" standalone="no"?>
<!DOCTYPE svg PUBLIC "-//W3C//DTD SVG 1.1//EN"
  "http://www.w3.org/Graphics/SVG/1.1/DTD/svg11.dtd">
<svg xmlns:xlink="http://www.w3.org/1999/xlink" width="460.8pt" height="345.6pt" viewBox="0 0 460.8 345.6" xmlns="http://www.w3.org/2000/svg" version="1.1">
 <metadata>
  <rdf:RDF xmlns:dc="http://purl.org/dc/elements/1.1/" xmlns:cc="http://creativecommons.org/ns#" xmlns:rdf="http://www.w3.org/1999/02/22-rdf-syntax-ns#">
   <cc:Work>
    <dc:type rdf:resource="http://purl.org/dc/dcmitype/StillImage"/>
    <dc:date>2022-07-22T15:19:11.176636</dc:date>
    <dc:format>image/svg+xml</dc:format>
    <dc:creator>
     <cc:Agent>
      <dc:title>Matplotlib v3.5.0, https://matplotlib.org/</dc:title>
     </cc:Agent>
    </dc:creator>
   </cc:Work>
  </rdf:RDF>
 </metadata>
 <defs>
  <style type="text/css">*{stroke-linejoin: round; stroke-linecap: butt}</style>
 </defs>
 <g id="figure_1">
  <g id="patch_1">
   <path d="M 0 345.6 
L 460.8 345.6 
L 460.8 0 
L 0 0 
z
" style="fill: #ffffff"/>
  </g>
  <g id="axes_1">
   <g id="patch_2">
    <path d="M 198.27611 132.761071 
L 217.39997 131.271522 
L 252.612613 128.663345 
L 252.612613 148.82563 
L 296.137022 147.005888 
L 307.66394 146.532341 
L 317.297979 174.655006 
L 317.323636 176.838942 
L 276.92595 197.157459 
L 237.37997 187.882843 
L 208.362887 204.190815 
L 193.08897 192.085763 
L 190.592851 190.243807 
L 175.590242 179.066489 
L 186.141841 166.26628 
z
" clip-path="url(#p5bc4fbc151)" style="fill: #ffedd9; stroke: #ffedd9; stroke-linejoin: miter"/>
   </g>
   <g id="patch_3">
    <path d="M 168.791264 173.086282 
L 183.200871 133.799799 
L 198.27611 132.761071 
L 186.141841 166.26628 
L 175.590242 179.066489 
z
" clip-path="url(#p5bc4fbc151)" style="fill: #ffedd9; stroke: #ffedd9; stroke-linejoin: miter"/>
   </g>
   <g id="patch_4">
    <path d="M 208.362887 204.190815 
L 237.37997 187.882843 
L 276.92595 197.157459 
L 221.247925 225.748071 
L 213.524339 208.261533 
z
" clip-path="url(#p5bc4fbc151)" style="fill: #ffedd9; stroke: #ffedd9; stroke-linejoin: miter"/>
   </g>
   <g id="patch_5">
    <path d="M 154.996364 157.230956 
L 183.200871 133.799799 
L 168.791264 173.086282 
L 162.432059 170.22999 
L 165.219879 163.0159 
z
" clip-path="url(#p5bc4fbc151)" style="fill: #ffedd9; stroke: #ffedd9; stroke-linejoin: miter"/>
   </g>
   <g id="patch_6">
    <path d="M 217.39997 131.271522 
L 242.014668 123.545056 
L 282.002432 123.307929 
L 290.718611 127.353782 
L 296.137022 147.005888 
L 252.612613 148.82563 
L 252.612613 128.663345 
z
" clip-path="url(#p5bc4fbc151)" style="fill: #ffedd9; stroke: #ffedd9; stroke-linejoin: miter"/>
   </g>
   <g id="patch_7">
    <path d="M 198.27611 132.761071 
L 217.39997 131.271522 
L 252.612613 128.663345 
L 252.612613 148.82563 
L 296.137022 147.005888 
L 307.66394 146.532341 
L 317.297979 174.655006 
L 317.323636 176.838942 
L 276.92595 197.157459 
L 237.37997 187.882843 
L 208.362887 204.190815 
L 193.08897 192.085763 
L 190.592851 190.243807 
L 175.590242 179.066489 
L 186.141841 166.26628 
L 198.27611 132.761071 
z
" clip-path="url(#p5bc4fbc151)" style="fill: #ffedd9; stroke: #ffedd9; stroke-linejoin: miter"/>
   </g>
   <g id="patch_8">
    <path d="M 168.791264 173.086282 
L 183.200871 133.799799 
L 198.27611 132.761071 
L 186.141841 166.26628 
L 175.590242 179.066489 
L 168.791264 173.086282 
z
" clip-path="url(#p5bc4fbc151)" style="fill: #ffedd9; stroke: #ffedd9; stroke-linejoin: miter"/>
   </g>
   <g id="patch_9">
    <path d="M 208.362887 204.190815 
L 237.37997 187.882843 
L 276.92595 197.157459 
L 221.247925 225.748071 
L 213.524339 208.261533 
L 208.362887 204.190815 
z
" clip-path="url(#p5bc4fbc151)" style="fill: #ffedd9; stroke: #ffedd9; stroke-linejoin: miter"/>
   </g>
   <g id="patch_10">
    <path d="M 154.996364 157.230956 
L 183.200871 133.799799 
L 168.791264 173.086282 
L 162.432059 170.22999 
L 165.219879 163.0159 
L 154.996364 157.230956 
z
" clip-path="url(#p5bc4fbc151)" style="fill: #ffedd9; stroke: #ffedd9; stroke-linejoin: miter"/>
   </g>
   <g id="patch_11">
    <path d="M 217.39997 131.271522 
L 242.014668 123.545056 
L 282.002432 123.307929 
L 290.718611 127.353782 
L 296.137022 147.005888 
L 252.612613 148.82563 
L 252.612613 128.663345 
L 217.39997 131.271522 
z
" clip-path="url(#p5bc4fbc151)" style="fill: #ffedd9; stroke: #ffedd9; stroke-linejoin: miter"/>
   </g>
   <g id="line2d_1">
    <path d="M 198.27611 132.761071 
L 217.39997 131.271522 
L 252.612613 128.663345 
L 252.612613 148.82563 
L 296.137022 147.005888 
L 307.66394 146.532341 
L 317.297979 174.655006 
L 317.323636 176.838942 
L 276.92595 197.157459 
L 237.37997 187.882843 
L 208.362887 204.190815 
L 193.08897 192.085763 
L 190.592851 190.243807 
L 175.590242 179.066489 
L 186.141841 166.26628 
L 198.27611 132.761071 
" clip-path="url(#p5bc4fbc151)" style="fill: none; stroke: #ffc380; stroke-width: 0.5; stroke-linecap: square"/>
   </g>
   <g id="line2d_2">
    <path d="M 168.791264 173.086282 
L 183.200871 133.799799 
L 198.27611 132.761071 
L 186.141841 166.26628 
L 175.590242 179.066489 
L 168.791264 173.086282 
" clip-path="url(#p5bc4fbc151)" style="fill: none; stroke: #ffc380; stroke-width: 0.5; stroke-linecap: square"/>
   </g>
   <g id="line2d_3">
    <path d="M 208.362887 204.190815 
L 237.37997 187.882843 
L 276.92595 197.157459 
L 221.247925 225.748071 
L 213.524339 208.261533 
L 208.362887 204.190815 
" clip-path="url(#p5bc4fbc151)" style="fill: none; stroke: #ffc380; stroke-width: 0.5; stroke-linecap: square"/>
   </g>
   <g id="line2d_4">
    <path d="M 154.996364 157.230956 
L 183.200871 133.799799 
L 168.791264 173.086282 
L 162.432059 170.22999 
L 165.219879 163.0159 
L 154.996364 157.230956 
" clip-path="url(#p5bc4fbc151)" style="fill: none; stroke: #ffc380; stroke-width: 0.5; stroke-linecap: square"/>
   </g>
   <g id="line2d_5">
    <path d="M 217.39997 131.271522 
L 242.014668 123.545056 
L 282.002432 123.307929 
L 290.718611 127.353782 
L 296.137022 147.005888 
L 252.612613 148.82563 
L 252.612613 128.663345 
L 217.39997 131.271522 
" clip-path="url(#p5bc4fbc151)" style="fill: none; stroke: #ffc380; stroke-width: 0.5; stroke-linecap: square"/>
   </g>
   <g id="line2d_6">
    <path d="M 112.359301 211.231708 
L 129.391347 211.602026 
L 139.821937 210.042421 
L 153.77763 199.991479 
L 175.590242 179.066489 
L 190.592851 190.243807 
L 162.51593 210.994658 
L 157.545092 214.809902 
L 149.759427 220.400981 
L 146.868768 222.581574 
L 132.09236 233.506249 
L 118.047889 243.873177 
L 118.748817 267.381977 
L 119.044875 278.042435 
L 105.41166 295.986624 
L 104.61903 291.428785 
L 103.441434 290.288777 
L 101.114641 287.309646 
L 98.123306 284.129838 
L 93.521651 284.472751 
L 91.227073 278.86167 
L 97.650927 273.596647 
L 101.071758 271.269664 
L 114.220817 262.802574 
L 110.265559 260.015099 
L 106.634897 261.904958 
L 106.230832 253.155755 
L 107.39073 252.244805 
L 118.589279 237.937389 
L 118.699621 233.335571 
L 118.879295 225.844943 
L 112.359301 211.231708 
" clip-path="url(#p5bc4fbc151)" style="fill: none; stroke: #8f8f8f; stroke-width: 0.2; stroke-linecap: square"/>
   </g>
   <g id="line2d_7">
    <path d="M 162.432059 170.22999 
L 168.791264 173.086282 
L 175.590242 179.066489 
L 153.77763 199.991479 
L 139.821937 210.042421 
L 129.391347 211.602026 
L 112.359301 211.231708 
L 110.088546 206.131991 
L 105.353804 200.562839 
L 104.81674 197.254306 
L 133.56979 182.453112 
L 131.351611 177.531206 
L 140.317378 178.527864 
L 162.432059 170.22999 
" clip-path="url(#p5bc4fbc151)" style="fill: none; stroke: #8f8f8f; stroke-width: 0.2; stroke-linecap: square"/>
   </g>
   <g id="line2d_8">
    <path d="M 132.09236 233.506249 
L 146.868768 222.581574 
L 149.759427 220.400981 
L 157.545092 214.809902 
L 162.51593 210.994658 
L 190.592851 190.243807 
L 193.08897 192.085763 
L 208.362887 204.190815 
L 213.524339 208.261533 
L 221.247925 225.748071 
L 226.651396 238.173199 
L 219.347991 239.108824 
L 211.122693 245.202139 
L 191.4822 259.334971 
L 188.131375 261.472985 
L 184.771308 264.16329 
L 174.956668 271.461722 
L 166.956527 260.593795 
L 158.432252 248.999252 
L 136.618592 265.09018 
L 119.044875 278.042435 
L 118.748817 267.381977 
L 132.09236 233.506249 
" clip-path="url(#p5bc4fbc151)" style="fill: none; stroke: #8f8f8f; stroke-width: 0.2; stroke-linecap: square"/>
   </g>
   <g id="line2d_9">
    <path d="M 132.09236 233.506249 
L 146.868768 222.581574 
L 162.51593 210.994658 
L 190.592851 190.243807 
L 208.362887 204.190815 
L 200.345216 221.156155 
L 203.08893 232.40321 
L 207.163396 238.888665 
L 211.122693 245.202139 
L 191.4822 259.334971 
L 184.771308 264.16329 
L 174.956668 271.461722 
L 158.105771 272.212307 
L 147.349803 279.716556 
L 129.594174 292.429734 
L 119.044875 278.042435 
L 118.748817 267.381977 
L 132.09236 233.506249 
L 132.09236 233.506249 
" clip-path="url(#p5bc4fbc151)" style="fill: none; stroke: #8f8f8f; stroke-width: 0.2; stroke-linecap: square"/>
   </g>
   <g id="line2d_10">
    <path d="M 208.362887 204.190815 
L 213.524339 208.261533 
L 221.247925 225.748071 
L 226.651396 238.173199 
L 219.347991 239.108824 
L 211.122693 245.202139 
L 207.163396 238.888665 
L 203.08893 232.40321 
L 200.345216 221.156155 
L 208.362887 204.190815 
L 208.362887 204.190815 
" clip-path="url(#p5bc4fbc151)" style="fill: none; stroke: #8f8f8f; stroke-width: 0.2; stroke-linecap: square"/>
   </g>
   <g id="line2d_11">
    <path d="M 375.498789 138.13415 
L 378.671943 169.558215 
L 378.213004 175.787003 
L 377.927814 177.843828 
L 349.470153 202.479606 
L 332.653343 202.680752 
L 317.629289 202.877339 
L 317.451873 187.758454 
L 317.323636 176.838942 
L 317.297979 174.655006 
L 307.66394 146.532341 
L 326.858026 145.70048 
L 375.498789 138.13415 
" clip-path="url(#p5bc4fbc151)" style="fill: none; stroke: #8f8f8f; stroke-width: 0.2; stroke-linecap: square"/>
   </g>
   <g id="line2d_12">
    <path d="M 294.431838 73.552154 
L 316.903145 77.195759 
L 290.718611 127.353782 
L 282.002432 123.307929 
L 242.014668 123.545056 
L 217.39997 131.271522 
L 198.27611 132.761071 
L 183.200871 133.799799 
L 183.488271 114.444807 
L 183.837296 79.09019 
L 220.721911 77.418334 
L 245.568298 76.130274 
L 294.431838 73.552154 
" clip-path="url(#p5bc4fbc151)" style="fill: none; stroke: #8f8f8f; stroke-width: 0.2; stroke-linecap: square"/>
   </g>
   <g id="line2d_13">
    <path d="M 316.903145 77.195759 
L 332.276693 79.679132 
L 360.630712 101.372084 
L 375.66567 101.050907 
L 372.464829 117.360009 
L 333.843568 128.628688 
L 326.858026 145.70048 
L 307.66394 146.532341 
L 296.137022 147.005888 
L 290.718611 127.353782 
L 316.903145 77.195759 
" clip-path="url(#p5bc4fbc151)" style="fill: none; stroke: #8f8f8f; stroke-width: 0.2; stroke-linecap: square"/>
   </g>
   <g id="line2d_14">
    <path d="M 282.002432 123.307929 
L 290.718611 127.353782 
L 296.137022 147.005888 
L 252.612613 148.82563 
L 252.612613 128.663345 
L 217.39997 131.271522 
L 242.014668 123.545056 
L 282.002432 123.307929 
" clip-path="url(#p5bc4fbc151)" style="fill: none; stroke: #8f8f8f; stroke-width: 0.2; stroke-linecap: square"/>
   </g>
   <g id="line2d_15">
    <path d="M 417.48132 33.346119 
L 461.8 36.150489 
M 461.8 170.70836 
L 399.73776 175.254023 
L 378.213004 175.787003 
L 327.278797 176.712995 
L 317.323636 176.838942 
L 317.318505 176.402156 
L 317.297979 174.655006 
L 307.66394 146.532341 
L 296.137022 147.005888 
L 290.718611 127.353782 
L 316.903145 77.195759 
L 332.276693 79.679132 
L 356.619523 77.011152 
L 380.137057 75.563313 
L 382.457902 60.376915 
L 383.506407 50.936161 
L 383.939858 50.421125 
L 389.915175 46.235504 
L 392.1865 40.123317 
L 397.51909 35.272598 
L 405.21623 28.667045 
L 417.48132 33.346119 
" clip-path="url(#p5bc4fbc151)" style="fill: none; stroke: #8f8f8f; stroke-width: 0.2; stroke-linecap: square"/>
   </g>
   <g id="line2d_16">
    <path d="M 104.81674 197.254306 
L 100.222314 180.903101 
L 87.324911 167.779274 
L 68.027577 159.700036 
L 129.663586 109.995767 
L 158.525043 136.017767 
L 183.200871 133.799799 
L 154.996364 157.230956 
L 165.219879 163.0159 
L 162.432059 170.22999 
L 140.317378 178.527864 
L 131.351611 177.531206 
L 133.56979 182.453112 
L 104.81674 197.254306 
" clip-path="url(#p5bc4fbc151)" style="fill: none; stroke: #8f8f8f; stroke-width: 0.2; stroke-linecap: square"/>
   </g>
   <g id="line2d_17">
    <path d="M 104.81674 197.254306 
L 100.222314 180.903101 
L 87.324911 167.779274 
L 68.027577 159.700036 
L 129.663586 109.995767 
L 158.525043 136.017767 
L 183.200871 133.799799 
L 154.996364 157.230956 
L 165.219879 163.0159 
L 162.432059 170.22999 
L 140.317378 178.527864 
L 131.351611 177.531206 
L 133.56979 182.453112 
L 104.81674 197.254306 
" clip-path="url(#p5bc4fbc151)" style="fill: none; stroke: #8f8f8f; stroke-width: 0.2; stroke-linecap: square"/>
   </g>
   <g id="line2d_18">
    <path d="M 317.323636 176.838942 
L 317.451873 187.758454 
L 317.629289 202.877339 
L 319.363724 222.378957 
L 320.308432 233.018813 
L 321.063582 241.644719 
L 321.208013 243.154923 
L 315.044736 253.340207 
L 311.882483 258.582161 
L 308.879401 263.484649 
L 303.545458 272.371371 
L 297.965227 281.657862 
L 291.586531 288.357287 
L 287.907705 292.211217 
L 275.715506 293.080345 
L 257.865426 294.401587 
L 254.051482 288.827291 
L 291.858935 266.720004 
L 271.692321 249.556442 
L 239.647484 267.883345 
L 226.651396 238.173199 
L 221.247925 225.748071 
L 276.92595 197.157459 
L 317.323636 176.838942 
" clip-path="url(#p5bc4fbc151)" style="fill: none; stroke: #8f8f8f; stroke-width: 0.2; stroke-linecap: square"/>
   </g>
   <g id="line2d_19">
    <path d="M 317.323636 176.838942 
L 317.451873 187.758454 
L 317.629289 202.877339 
L 319.363724 222.378957 
L 320.308432 233.018813 
L 321.063582 241.644719 
L 321.208013 243.154923 
L 315.044736 253.340207 
L 311.882483 258.582161 
L 308.879401 263.484649 
L 303.545458 272.371371 
L 297.965227 281.657862 
L 291.586531 288.357287 
L 287.907705 292.211217 
L 275.715506 293.080345 
L 262.935437 298.694591 
L 257.865426 294.401587 
L 254.051482 288.827291 
L 291.858935 266.720004 
L 271.692321 249.556442 
L 239.647484 267.883345 
L 226.651396 238.173199 
L 221.247925 225.748071 
L 276.92595 197.157459 
L 317.323636 176.838942 
" clip-path="url(#p5bc4fbc151)" style="fill: none; stroke: #8f8f8f; stroke-width: 0.2; stroke-linecap: square"/>
   </g>
   <g id="line2d_20">
    <path d="M 237.37997 187.882843 
L 276.92595 197.157459 
L 221.247925 225.748071 
L 213.524339 208.261533 
L 208.362887 204.190815 
L 237.37997 187.882843 
" clip-path="url(#p5bc4fbc151)" style="fill: none; stroke: #8f8f8f; stroke-width: 0.2; stroke-linecap: square"/>
   </g>
   <g id="line2d_21">
    <path d="M 208.362887 204.190815 
L 213.524339 208.261533 
L 221.247925 225.748071 
L 226.651396 238.173199 
L 239.647484 267.883345 
L 211.122693 245.202139 
L 207.163396 238.888665 
L 203.08893 232.40321 
L 200.345216 221.156155 
L 202.625701 216.338803 
L 208.362887 204.190815 
" clip-path="url(#p5bc4fbc151)" style="fill: none; stroke: #8f8f8f; stroke-width: 0.2; stroke-linecap: square"/>
   </g>
   <g id="line2d_22">
    <path d="M 183.200871 133.799799 
L 168.791264 173.086282 
L 162.432059 170.22999 
L 165.219879 163.0159 
L 154.996364 157.230956 
L 183.200871 133.799799 
" clip-path="url(#p5bc4fbc151)" style="fill: none; stroke: #8f8f8f; stroke-width: 0.2; stroke-linecap: square"/>
   </g>
   <g id="line2d_23">
    <path d="M 183.200871 133.799799 
L 198.27611 132.761071 
L 186.141841 166.26628 
L 175.590242 179.066489 
L 153.77763 199.991479 
L 139.821937 210.042421 
L 129.391347 211.602026 
L 112.359301 211.231708 
L 110.088546 206.131991 
L 105.353804 200.562839 
L 104.81674 197.254306 
L 133.56979 182.453112 
L 131.351611 177.531206 
L 140.317378 178.527864 
L 162.432059 170.22999 
L 165.219879 163.0159 
L 154.996364 157.230956 
L 183.200871 133.799799 
" clip-path="url(#p5bc4fbc151)" style="fill: none; stroke: #8f8f8f; stroke-width: 0.2; stroke-linecap: square"/>
   </g>
   <g id="line2d_24">
    <path d="M 198.27611 132.761071 
L 217.39997 131.271522 
L 252.612613 128.663345 
L 252.612613 148.82563 
L 296.137022 147.005888 
L 307.66394 146.532341 
L 317.297979 174.655006 
L 317.323636 176.838942 
L 276.92595 197.157459 
L 237.37997 187.882843 
L 208.362887 204.190815 
L 193.08897 192.085763 
L 190.592851 190.243807 
L 175.590242 179.066489 
L 186.141841 166.26628 
L 198.27611 132.761071 
L 198.27611 132.761071 
" clip-path="url(#p5bc4fbc151)" style="fill: none; stroke: #ffc380; stroke-width: 0.5; stroke-linecap: square"/>
   </g>
   <g id="line2d_25">
    <path d="M 168.791264 173.086282 
L 183.200871 133.799799 
L 198.27611 132.761071 
L 186.141841 166.26628 
L 175.590242 179.066489 
L 168.791264 173.086282 
L 168.791264 173.086282 
" clip-path="url(#p5bc4fbc151)" style="fill: none; stroke: #ffc380; stroke-width: 0.5; stroke-linecap: square"/>
   </g>
   <g id="line2d_26">
    <path d="M 208.362887 204.190815 
L 237.37997 187.882843 
L 276.92595 197.157459 
L 221.247925 225.748071 
L 213.524339 208.261533 
L 208.362887 204.190815 
L 208.362887 204.190815 
" clip-path="url(#p5bc4fbc151)" style="fill: none; stroke: #ffc380; stroke-width: 0.5; stroke-linecap: square"/>
   </g>
   <g id="line2d_27">
    <path d="M 154.996364 157.230956 
L 183.200871 133.799799 
L 168.791264 173.086282 
L 162.432059 170.22999 
L 165.219879 163.0159 
L 154.996364 157.230956 
L 154.996364 157.230956 
" clip-path="url(#p5bc4fbc151)" style="fill: none; stroke: #ffc380; stroke-width: 0.5; stroke-linecap: square"/>
   </g>
   <g id="line2d_28">
    <path d="M 217.39997 131.271522 
L 242.014668 123.545056 
L 282.002432 123.307929 
L 290.718611 127.353782 
L 296.137022 147.005888 
L 252.612613 148.82563 
L 252.612613 128.663345 
L 217.39997 131.271522 
L 217.39997 131.271522 
" clip-path="url(#p5bc4fbc151)" style="fill: none; stroke: #ffc380; stroke-width: 0.5; stroke-linecap: square"/>
   </g>
   <g id="text_1">
    <!-- BOT1 -->
    <g style="opacity: 0.5" transform="translate(133.08532 232.640701)scale(0.0579 -0.0579)">
     <defs>
      <path id="DejaVuSans-42" d="M 1259 2228 
L 1259 519 
L 2272 519 
Q 2781 519 3026 730 
Q 3272 941 3272 1375 
Q 3272 1813 3026 2020 
Q 2781 2228 2272 2228 
L 1259 2228 
z
M 1259 4147 
L 1259 2741 
L 2194 2741 
Q 2656 2741 2882 2914 
Q 3109 3088 3109 3444 
Q 3109 3797 2882 3972 
Q 2656 4147 2194 4147 
L 1259 4147 
z
M 628 4666 
L 2241 4666 
Q 2963 4666 3353 4366 
Q 3744 4066 3744 3513 
Q 3744 3084 3544 2831 
Q 3344 2578 2956 2516 
Q 3422 2416 3680 2098 
Q 3938 1781 3938 1306 
Q 3938 681 3513 340 
Q 3088 0 2303 0 
L 628 0 
L 628 4666 
z
" transform="scale(0.015625)"/>
      <path id="DejaVuSans-4f" d="M 2522 4238 
Q 1834 4238 1429 3725 
Q 1025 3213 1025 2328 
Q 1025 1447 1429 934 
Q 1834 422 2522 422 
Q 3209 422 3611 934 
Q 4013 1447 4013 2328 
Q 4013 3213 3611 3725 
Q 3209 4238 2522 4238 
z
M 2522 4750 
Q 3503 4750 4090 4092 
Q 4678 3434 4678 2328 
Q 4678 1225 4090 567 
Q 3503 -91 2522 -91 
Q 1538 -91 948 565 
Q 359 1222 359 2328 
Q 359 3434 948 4092 
Q 1538 4750 2522 4750 
z
" transform="scale(0.015625)"/>
      <path id="DejaVuSans-54" d="M -19 4666 
L 3928 4666 
L 3928 4134 
L 2272 4134 
L 2272 0 
L 1638 0 
L 1638 4134 
L -19 4134 
L -19 4666 
z
" transform="scale(0.015625)"/>
      <path id="DejaVuSans-31" d="M 794 531 
L 1825 531 
L 1825 4091 
L 703 3866 
L 703 4441 
L 1819 4666 
L 2450 4666 
L 2450 531 
L 3481 531 
L 3481 0 
L 794 0 
L 794 531 
z
" transform="scale(0.015625)"/>
     </defs>
     <use xlink:href="#DejaVuSans-42"/>
     <use xlink:href="#DejaVuSans-4f" x="66.853516"/>
     <use xlink:href="#DejaVuSans-54" x="145.564453"/>
     <use xlink:href="#DejaVuSans-31" x="206.648438"/>
    </g>
    <!-- 245 -->
    <g style="opacity: 0.5" transform="translate(135.384131 239.124235)scale(0.0579 -0.0579)">
     <defs>
      <path id="DejaVuSans-32" d="M 1228 531 
L 3431 531 
L 3431 0 
L 469 0 
L 469 531 
Q 828 903 1448 1529 
Q 2069 2156 2228 2338 
Q 2531 2678 2651 2914 
Q 2772 3150 2772 3378 
Q 2772 3750 2511 3984 
Q 2250 4219 1831 4219 
Q 1534 4219 1204 4116 
Q 875 4013 500 3803 
L 500 4441 
Q 881 4594 1212 4672 
Q 1544 4750 1819 4750 
Q 2544 4750 2975 4387 
Q 3406 4025 3406 3419 
Q 3406 3131 3298 2873 
Q 3191 2616 2906 2266 
Q 2828 2175 2409 1742 
Q 1991 1309 1228 531 
z
" transform="scale(0.015625)"/>
      <path id="DejaVuSans-34" d="M 2419 4116 
L 825 1625 
L 2419 1625 
L 2419 4116 
z
M 2253 4666 
L 3047 4666 
L 3047 1625 
L 3713 1625 
L 3713 1100 
L 3047 1100 
L 3047 0 
L 2419 0 
L 2419 1100 
L 313 1100 
L 313 1709 
L 2253 4666 
z
" transform="scale(0.015625)"/>
      <path id="DejaVuSans-35" d="M 691 4666 
L 3169 4666 
L 3169 4134 
L 1269 4134 
L 1269 2991 
Q 1406 3038 1543 3061 
Q 1681 3084 1819 3084 
Q 2600 3084 3056 2656 
Q 3513 2228 3513 1497 
Q 3513 744 3044 326 
Q 2575 -91 1722 -91 
Q 1428 -91 1123 -41 
Q 819 9 494 109 
L 494 744 
Q 775 591 1075 516 
Q 1375 441 1709 441 
Q 2250 441 2565 725 
Q 2881 1009 2881 1497 
Q 2881 1984 2565 2268 
Q 2250 2553 1709 2553 
Q 1456 2553 1204 2497 
Q 953 2441 691 2322 
L 691 4666 
z
" transform="scale(0.015625)"/>
     </defs>
     <use xlink:href="#DejaVuSans-32"/>
     <use xlink:href="#DejaVuSans-34" x="63.623047"/>
     <use xlink:href="#DejaVuSans-35" x="127.246094"/>
    </g>
    <!-- GND -->
    <g style="opacity: 0.5" transform="translate(134.271818 245.607768)scale(0.0579 -0.0579)">
     <defs>
      <path id="DejaVuSans-47" d="M 3809 666 
L 3809 1919 
L 2778 1919 
L 2778 2438 
L 4434 2438 
L 4434 434 
Q 4069 175 3628 42 
Q 3188 -91 2688 -91 
Q 1594 -91 976 548 
Q 359 1188 359 2328 
Q 359 3472 976 4111 
Q 1594 4750 2688 4750 
Q 3144 4750 3555 4637 
Q 3966 4525 4313 4306 
L 4313 3634 
Q 3963 3931 3569 4081 
Q 3175 4231 2741 4231 
Q 1884 4231 1454 3753 
Q 1025 3275 1025 2328 
Q 1025 1384 1454 906 
Q 1884 428 2741 428 
Q 3075 428 3337 486 
Q 3600 544 3809 666 
z
" transform="scale(0.015625)"/>
      <path id="DejaVuSans-4e" d="M 628 4666 
L 1478 4666 
L 3547 763 
L 3547 4666 
L 4159 4666 
L 4159 0 
L 3309 0 
L 1241 3903 
L 1241 0 
L 628 0 
L 628 4666 
z
" transform="scale(0.015625)"/>
      <path id="DejaVuSans-44" d="M 1259 4147 
L 1259 519 
L 2022 519 
Q 2988 519 3436 956 
Q 3884 1394 3884 2338 
Q 3884 3275 3436 3711 
Q 2988 4147 2022 4147 
L 1259 4147 
z
M 628 4666 
L 1925 4666 
Q 3281 4666 3915 4102 
Q 4550 3538 4550 2338 
Q 4550 1131 3912 565 
Q 3275 0 1925 0 
L 628 0 
L 628 4666 
z
" transform="scale(0.015625)"/>
     </defs>
     <use xlink:href="#DejaVuSans-47"/>
     <use xlink:href="#DejaVuSans-4e" x="77.490234"/>
     <use xlink:href="#DejaVuSans-44" x="152.294922"/>
    </g>
   </g>
   <g id="text_2">
    <!-- BOT2 -->
    <g style="opacity: 0.5" transform="translate(132.378849 186.030153)scale(0.0579 -0.0579)">
     <use xlink:href="#DejaVuSans-42"/>
     <use xlink:href="#DejaVuSans-4f" x="66.853516"/>
     <use xlink:href="#DejaVuSans-54" x="145.564453"/>
     <use xlink:href="#DejaVuSans-32" x="206.648438"/>
    </g>
    <!-- 205 -->
    <g style="opacity: 0.5" transform="translate(134.67766 192.513686)scale(0.0579 -0.0579)">
     <defs>
      <path id="DejaVuSans-30" d="M 2034 4250 
Q 1547 4250 1301 3770 
Q 1056 3291 1056 2328 
Q 1056 1369 1301 889 
Q 1547 409 2034 409 
Q 2525 409 2770 889 
Q 3016 1369 3016 2328 
Q 3016 3291 2770 3770 
Q 2525 4250 2034 4250 
z
M 2034 4750 
Q 2819 4750 3233 4129 
Q 3647 3509 3647 2328 
Q 3647 1150 3233 529 
Q 2819 -91 2034 -91 
Q 1250 -91 836 529 
Q 422 1150 422 2328 
Q 422 3509 836 4129 
Q 1250 4750 2034 4750 
z
" transform="scale(0.015625)"/>
     </defs>
     <use xlink:href="#DejaVuSans-32"/>
     <use xlink:href="#DejaVuSans-30" x="63.623047"/>
     <use xlink:href="#DejaVuSans-35" x="127.246094"/>
    </g>
    <!-- GND -->
    <g style="opacity: 0.5" transform="translate(133.565346 198.99722)scale(0.0579 -0.0579)">
     <use xlink:href="#DejaVuSans-47"/>
     <use xlink:href="#DejaVuSans-4e" x="77.490234"/>
     <use xlink:href="#DejaVuSans-44" x="152.294922"/>
    </g>
   </g>
   <g id="text_3">
    <!-- BOT7 -->
    <g style="opacity: 0.5" transform="translate(164.875465 229.257266)scale(0.0579 -0.0579)">
     <defs>
      <path id="DejaVuSans-37" d="M 525 4666 
L 3525 4666 
L 3525 4397 
L 1831 0 
L 1172 0 
L 2766 4134 
L 525 4134 
L 525 4666 
z
" transform="scale(0.015625)"/>
     </defs>
     <use xlink:href="#DejaVuSans-42"/>
     <use xlink:href="#DejaVuSans-4f" x="66.853516"/>
     <use xlink:href="#DejaVuSans-54" x="145.564453"/>
     <use xlink:href="#DejaVuSans-37" x="206.648438"/>
    </g>
    <!-- 245 -->
    <g style="opacity: 0.5" transform="translate(167.174276 235.740799)scale(0.0579 -0.0579)">
     <use xlink:href="#DejaVuSans-32"/>
     <use xlink:href="#DejaVuSans-34" x="63.623047"/>
     <use xlink:href="#DejaVuSans-35" x="127.246094"/>
    </g>
    <!-- 155 -->
    <g style="opacity: 0.5" transform="translate(167.174276 242.224333)scale(0.0579 -0.0579)">
     <use xlink:href="#DejaVuSans-31"/>
     <use xlink:href="#DejaVuSans-35" x="63.623047"/>
     <use xlink:href="#DejaVuSans-35" x="127.246094"/>
    </g>
   </g>
   <g id="text_4">
    <!-- DUS2 -->
    <g style="opacity: 0.5" transform="translate(156.908011 236.450915)scale(0.0579 -0.0579)">
     <defs>
      <path id="DejaVuSans-55" d="M 556 4666 
L 1191 4666 
L 1191 1831 
Q 1191 1081 1462 751 
Q 1734 422 2344 422 
Q 2950 422 3222 751 
Q 3494 1081 3494 1831 
L 3494 4666 
L 4128 4666 
L 4128 1753 
Q 4128 841 3676 375 
Q 3225 -91 2344 -91 
Q 1459 -91 1007 375 
Q 556 841 556 1753 
L 556 4666 
z
" transform="scale(0.015625)"/>
      <path id="DejaVuSans-53" d="M 3425 4513 
L 3425 3897 
Q 3066 4069 2747 4153 
Q 2428 4238 2131 4238 
Q 1616 4238 1336 4038 
Q 1056 3838 1056 3469 
Q 1056 3159 1242 3001 
Q 1428 2844 1947 2747 
L 2328 2669 
Q 3034 2534 3370 2195 
Q 3706 1856 3706 1288 
Q 3706 609 3251 259 
Q 2797 -91 1919 -91 
Q 1588 -91 1214 -16 
Q 841 59 441 206 
L 441 856 
Q 825 641 1194 531 
Q 1563 422 1919 422 
Q 2459 422 2753 634 
Q 3047 847 3047 1241 
Q 3047 1584 2836 1778 
Q 2625 1972 2144 2069 
L 1759 2144 
Q 1053 2284 737 2584 
Q 422 2884 422 3419 
Q 422 4038 858 4394 
Q 1294 4750 2059 4750 
Q 2388 4750 2728 4690 
Q 3069 4631 3425 4513 
z
" transform="scale(0.015625)"/>
     </defs>
     <use xlink:href="#DejaVuSans-44"/>
     <use xlink:href="#DejaVuSans-55" x="77.001953"/>
     <use xlink:href="#DejaVuSans-53" x="150.195312"/>
     <use xlink:href="#DejaVuSans-32" x="213.671875"/>
    </g>
    <!-- 155 -->
    <g style="opacity: 0.5" transform="translate(159.409924 242.934448)scale(0.0579 -0.0579)">
     <use xlink:href="#DejaVuSans-31"/>
     <use xlink:href="#DejaVuSans-35" x="63.623047"/>
     <use xlink:href="#DejaVuSans-35" x="127.246094"/>
    </g>
    <!-- GND -->
    <g style="opacity: 0.5" transform="translate(158.297611 249.417982)scale(0.0579 -0.0579)">
     <use xlink:href="#DejaVuSans-47"/>
     <use xlink:href="#DejaVuSans-4e" x="77.490234"/>
     <use xlink:href="#DejaVuSans-44" x="152.294922"/>
    </g>
   </g>
   <g id="text_5">
    <!-- DUS3 -->
    <g style="opacity: 0.5" transform="translate(205.470562 219.810622)scale(0.0579 -0.0579)">
     <defs>
      <path id="DejaVuSans-33" d="M 2597 2516 
Q 3050 2419 3304 2112 
Q 3559 1806 3559 1356 
Q 3559 666 3084 287 
Q 2609 -91 1734 -91 
Q 1441 -91 1130 -33 
Q 819 25 488 141 
L 488 750 
Q 750 597 1062 519 
Q 1375 441 1716 441 
Q 2309 441 2620 675 
Q 2931 909 2931 1356 
Q 2931 1769 2642 2001 
Q 2353 2234 1838 2234 
L 1294 2234 
L 1294 2753 
L 1863 2753 
Q 2328 2753 2575 2939 
Q 2822 3125 2822 3475 
Q 2822 3834 2567 4026 
Q 2313 4219 1838 4219 
Q 1578 4219 1281 4162 
Q 984 4106 628 3988 
L 628 4550 
Q 988 4650 1302 4700 
Q 1616 4750 1894 4750 
Q 2613 4750 3031 4423 
Q 3450 4097 3450 3541 
Q 3450 3153 3228 2886 
Q 3006 2619 2597 2516 
z
" transform="scale(0.015625)"/>
     </defs>
     <use xlink:href="#DejaVuSans-44"/>
     <use xlink:href="#DejaVuSans-55" x="77.001953"/>
     <use xlink:href="#DejaVuSans-53" x="150.195312"/>
     <use xlink:href="#DejaVuSans-33" x="213.671875"/>
    </g>
    <!-- 155 -->
    <g style="opacity: 0.5" transform="translate(207.972475 226.294155)scale(0.0579 -0.0579)">
     <use xlink:href="#DejaVuSans-31"/>
     <use xlink:href="#DejaVuSans-35" x="63.623047"/>
     <use xlink:href="#DejaVuSans-35" x="127.246094"/>
    </g>
    <!-- 65 -->
    <g style="opacity: 0.5" transform="translate(209.814419 232.777688)scale(0.0579 -0.0579)">
     <defs>
      <path id="DejaVuSans-36" d="M 2113 2584 
Q 1688 2584 1439 2293 
Q 1191 2003 1191 1497 
Q 1191 994 1439 701 
Q 1688 409 2113 409 
Q 2538 409 2786 701 
Q 3034 994 3034 1497 
Q 3034 2003 2786 2293 
Q 2538 2584 2113 2584 
z
M 3366 4563 
L 3366 3988 
Q 3128 4100 2886 4159 
Q 2644 4219 2406 4219 
Q 1781 4219 1451 3797 
Q 1122 3375 1075 2522 
Q 1259 2794 1537 2939 
Q 1816 3084 2150 3084 
Q 2853 3084 3261 2657 
Q 3669 2231 3669 1497 
Q 3669 778 3244 343 
Q 2819 -91 2113 -91 
Q 1303 -91 875 529 
Q 447 1150 447 2328 
Q 447 3434 972 4092 
Q 1497 4750 2381 4750 
Q 2619 4750 2861 4703 
Q 3103 4656 3366 4563 
z
" transform="scale(0.015625)"/>
     </defs>
     <use xlink:href="#DejaVuSans-36"/>
     <use xlink:href="#DejaVuSans-35" x="63.623047"/>
    </g>
   </g>
   <g id="text_6">
    <!-- EDWWDST2 -->
    <g style="opacity: 0.5" transform="translate(325.707473 165.619889)scale(0.0579 -0.0579)">
     <defs>
      <path id="DejaVuSans-45" d="M 628 4666 
L 3578 4666 
L 3578 4134 
L 1259 4134 
L 1259 2753 
L 3481 2753 
L 3481 2222 
L 1259 2222 
L 1259 531 
L 3634 531 
L 3634 0 
L 628 0 
L 628 4666 
z
" transform="scale(0.015625)"/>
      <path id="DejaVuSans-57" d="M 213 4666 
L 850 4666 
L 1831 722 
L 2809 4666 
L 3519 4666 
L 4500 722 
L 5478 4666 
L 6119 4666 
L 4947 0 
L 4153 0 
L 3169 4050 
L 2175 0 
L 1381 0 
L 213 4666 
z
" transform="scale(0.015625)"/>
     </defs>
     <use xlink:href="#DejaVuSans-45"/>
     <use xlink:href="#DejaVuSans-44" x="63.183594"/>
     <use xlink:href="#DejaVuSans-57" x="140.185547"/>
     <use xlink:href="#DejaVuSans-57" x="239.0625"/>
     <use xlink:href="#DejaVuSans-44" x="337.939453"/>
     <use xlink:href="#DejaVuSans-53" x="414.941406"/>
     <use xlink:href="#DejaVuSans-54" x="478.417969"/>
     <use xlink:href="#DejaVuSans-32" x="539.501953"/>
    </g>
    <!-- 245 -->
    <g style="opacity: 0.5" transform="translate(337.64211 172.103423)scale(0.0579 -0.0579)">
     <use xlink:href="#DejaVuSans-32"/>
     <use xlink:href="#DejaVuSans-34" x="63.623047"/>
     <use xlink:href="#DejaVuSans-35" x="127.246094"/>
    </g>
    <!-- 105 -->
    <g style="opacity: 0.5" transform="translate(337.64211 178.586956)scale(0.0579 -0.0579)">
     <use xlink:href="#DejaVuSans-31"/>
     <use xlink:href="#DejaVuSans-30" x="63.623047"/>
     <use xlink:href="#DejaVuSans-35" x="127.246094"/>
    </g>
   </g>
   <g id="text_7">
    <!-- EDWWEMS1 -->
    <g style="opacity: 0.5" transform="translate(232.26178 98.790121)scale(0.0579 -0.0579)">
     <defs>
      <path id="DejaVuSans-4d" d="M 628 4666 
L 1569 4666 
L 2759 1491 
L 3956 4666 
L 4897 4666 
L 4897 0 
L 4281 0 
L 4281 4097 
L 3078 897 
L 2444 897 
L 1241 4097 
L 1241 0 
L 628 0 
L 628 4666 
z
" transform="scale(0.015625)"/>
     </defs>
     <use xlink:href="#DejaVuSans-45"/>
     <use xlink:href="#DejaVuSans-44" x="63.183594"/>
     <use xlink:href="#DejaVuSans-57" x="140.185547"/>
     <use xlink:href="#DejaVuSans-57" x="239.0625"/>
     <use xlink:href="#DejaVuSans-45" x="337.939453"/>
     <use xlink:href="#DejaVuSans-4d" x="401.123047"/>
     <use xlink:href="#DejaVuSans-53" x="487.402344"/>
     <use xlink:href="#DejaVuSans-31" x="550.878906"/>
    </g>
    <!-- 245 -->
    <g style="opacity: 0.5" transform="translate(244.526177 105.273654)scale(0.0579 -0.0579)">
     <use xlink:href="#DejaVuSans-32"/>
     <use xlink:href="#DejaVuSans-34" x="63.623047"/>
     <use xlink:href="#DejaVuSans-35" x="127.246094"/>
    </g>
    <!-- GND -->
    <g style="opacity: 0.5" transform="translate(243.413863 111.757188)scale(0.0579 -0.0579)">
     <use xlink:href="#DejaVuSans-47"/>
     <use xlink:href="#DejaVuSans-4e" x="77.490234"/>
     <use xlink:href="#DejaVuSans-44" x="152.294922"/>
    </g>
   </g>
   <g id="text_8">
    <!-- EDWWEMS2 -->
    <g style="opacity: 0.5" transform="translate(315.401913 107.214968)scale(0.0579 -0.0579)">
     <use xlink:href="#DejaVuSans-45"/>
     <use xlink:href="#DejaVuSans-44" x="63.183594"/>
     <use xlink:href="#DejaVuSans-57" x="140.185547"/>
     <use xlink:href="#DejaVuSans-57" x="239.0625"/>
     <use xlink:href="#DejaVuSans-45" x="337.939453"/>
     <use xlink:href="#DejaVuSans-4d" x="401.123047"/>
     <use xlink:href="#DejaVuSans-53" x="487.402344"/>
     <use xlink:href="#DejaVuSans-32" x="550.878906"/>
    </g>
    <!-- 245 -->
    <g style="opacity: 0.5" transform="translate(327.666309 113.698502)scale(0.0579 -0.0579)">
     <use xlink:href="#DejaVuSans-32"/>
     <use xlink:href="#DejaVuSans-34" x="63.623047"/>
     <use xlink:href="#DejaVuSans-35" x="127.246094"/>
    </g>
    <!-- 105 -->
    <g style="opacity: 0.5" transform="translate(327.666309 120.182035)scale(0.0579 -0.0579)">
     <use xlink:href="#DejaVuSans-31"/>
     <use xlink:href="#DejaVuSans-30" x="63.623047"/>
     <use xlink:href="#DejaVuSans-35" x="127.246094"/>
    </g>
   </g>
   <g id="text_9">
    <!-- EDWWEMS4 -->
    <g style="opacity: 0.5" transform="translate(238.978268 131.180924)scale(0.0579 -0.0579)">
     <use xlink:href="#DejaVuSans-45"/>
     <use xlink:href="#DejaVuSans-44" x="63.183594"/>
     <use xlink:href="#DejaVuSans-57" x="140.185547"/>
     <use xlink:href="#DejaVuSans-57" x="239.0625"/>
     <use xlink:href="#DejaVuSans-45" x="337.939453"/>
     <use xlink:href="#DejaVuSans-4d" x="401.123047"/>
     <use xlink:href="#DejaVuSans-53" x="487.402344"/>
     <use xlink:href="#DejaVuSans-34" x="550.878906"/>
    </g>
    <!-- 245 -->
    <g style="opacity: 0.5" transform="translate(251.242665 137.664458)scale(0.0579 -0.0579)">
     <use xlink:href="#DejaVuSans-32"/>
     <use xlink:href="#DejaVuSans-34" x="63.623047"/>
     <use xlink:href="#DejaVuSans-35" x="127.246094"/>
    </g>
    <!-- 65 -->
    <g style="opacity: 0.5" transform="translate(253.084608 144.147991)scale(0.0579 -0.0579)">
     <use xlink:href="#DejaVuSans-36"/>
     <use xlink:href="#DejaVuSans-35" x="63.623047"/>
    </g>
   </g>
   <g id="text_10">
    <!-- EDWWHAN -->
    <g style="opacity: 0.5" transform="translate(372.066136 97.867138)scale(0.0579 -0.0579)">
     <defs>
      <path id="DejaVuSans-48" d="M 628 4666 
L 1259 4666 
L 1259 2753 
L 3553 2753 
L 3553 4666 
L 4184 4666 
L 4184 0 
L 3553 0 
L 3553 2222 
L 1259 2222 
L 1259 0 
L 628 0 
L 628 4666 
z
" transform="scale(0.015625)"/>
      <path id="DejaVuSans-41" d="M 2188 4044 
L 1331 1722 
L 3047 1722 
L 2188 4044 
z
M 1831 4666 
L 2547 4666 
L 4325 0 
L 3669 0 
L 3244 1197 
L 1141 1197 
L 716 0 
L 50 0 
L 1831 4666 
z
" transform="scale(0.015625)"/>
     </defs>
     <use xlink:href="#DejaVuSans-45"/>
     <use xlink:href="#DejaVuSans-44" x="63.183594"/>
     <use xlink:href="#DejaVuSans-57" x="140.185547"/>
     <use xlink:href="#DejaVuSans-57" x="239.0625"/>
     <use xlink:href="#DejaVuSans-48" x="337.939453"/>
     <use xlink:href="#DejaVuSans-41" x="413.134766"/>
     <use xlink:href="#DejaVuSans-4e" x="481.542969"/>
    </g>
    <!-- 105 -->
    <g style="opacity: 0.5" transform="translate(382.646909 104.350671)scale(0.0579 -0.0579)">
     <use xlink:href="#DejaVuSans-31"/>
     <use xlink:href="#DejaVuSans-30" x="63.623047"/>
     <use xlink:href="#DejaVuSans-35" x="127.246094"/>
    </g>
    <!-- GND -->
    <g style="opacity: 0.5" transform="translate(381.534596 110.834205)scale(0.0579 -0.0579)">
     <use xlink:href="#DejaVuSans-47"/>
     <use xlink:href="#DejaVuSans-4e" x="77.490234"/>
     <use xlink:href="#DejaVuSans-44" x="152.294922"/>
    </g>
   </g>
   <g id="text_11">
    <!-- EHAA CTA E2 -->
    <g style="opacity: 0.5" transform="translate(106.51039 148.739181)scale(0.0579 -0.0579)">
     <defs>
      <path id="DejaVuSans-20" transform="scale(0.015625)"/>
      <path id="DejaVuSans-43" d="M 4122 4306 
L 4122 3641 
Q 3803 3938 3442 4084 
Q 3081 4231 2675 4231 
Q 1875 4231 1450 3742 
Q 1025 3253 1025 2328 
Q 1025 1406 1450 917 
Q 1875 428 2675 428 
Q 3081 428 3442 575 
Q 3803 722 4122 1019 
L 4122 359 
Q 3791 134 3420 21 
Q 3050 -91 2638 -91 
Q 1578 -91 968 557 
Q 359 1206 359 2328 
Q 359 3453 968 4101 
Q 1578 4750 2638 4750 
Q 3056 4750 3426 4639 
Q 3797 4528 4122 4306 
z
" transform="scale(0.015625)"/>
     </defs>
     <use xlink:href="#DejaVuSans-45"/>
     <use xlink:href="#DejaVuSans-48" x="63.183594"/>
     <use xlink:href="#DejaVuSans-41" x="138.378906"/>
     <use xlink:href="#DejaVuSans-41" x="209.537109"/>
     <use xlink:href="#DejaVuSans-20" x="277.945312"/>
     <use xlink:href="#DejaVuSans-43" x="309.732422"/>
     <use xlink:href="#DejaVuSans-54" x="379.556641"/>
     <use xlink:href="#DejaVuSans-41" x="432.890625"/>
     <use xlink:href="#DejaVuSans-20" x="501.298828"/>
     <use xlink:href="#DejaVuSans-45" x="533.085938"/>
     <use xlink:href="#DejaVuSans-32" x="596.269531"/>
    </g>
    <!-- 245 -->
    <g style="opacity: 0.5" transform="translate(120.088393 155.222715)scale(0.0579 -0.0579)">
     <use xlink:href="#DejaVuSans-32"/>
     <use xlink:href="#DejaVuSans-34" x="63.623047"/>
     <use xlink:href="#DejaVuSans-35" x="127.246094"/>
    </g>
    <!-- 95 -->
    <g style="opacity: 0.5" transform="translate(121.930336 161.706248)scale(0.0579 -0.0579)">
     <defs>
      <path id="DejaVuSans-39" d="M 703 97 
L 703 672 
Q 941 559 1184 500 
Q 1428 441 1663 441 
Q 2288 441 2617 861 
Q 2947 1281 2994 2138 
Q 2813 1869 2534 1725 
Q 2256 1581 1919 1581 
Q 1219 1581 811 2004 
Q 403 2428 403 3163 
Q 403 3881 828 4315 
Q 1253 4750 1959 4750 
Q 2769 4750 3195 4129 
Q 3622 3509 3622 2328 
Q 3622 1225 3098 567 
Q 2575 -91 1691 -91 
Q 1453 -91 1209 -44 
Q 966 3 703 97 
z
M 1959 2075 
Q 2384 2075 2632 2365 
Q 2881 2656 2881 3163 
Q 2881 3666 2632 3958 
Q 2384 4250 1959 4250 
Q 1534 4250 1286 3958 
Q 1038 3666 1038 3163 
Q 1038 2656 1286 2365 
Q 1534 2075 1959 2075 
z
" transform="scale(0.015625)"/>
     </defs>
     <use xlink:href="#DejaVuSans-39"/>
     <use xlink:href="#DejaVuSans-35" x="63.623047"/>
    </g>
   </g>
   <g id="text_12">
    <!-- EHMC TMA E -->
    <g style="opacity: 0.5" transform="translate(107.172622 148.739181)scale(0.0579 -0.0579)">
     <use xlink:href="#DejaVuSans-45"/>
     <use xlink:href="#DejaVuSans-48" x="63.183594"/>
     <use xlink:href="#DejaVuSans-4d" x="138.378906"/>
     <use xlink:href="#DejaVuSans-43" x="224.658203"/>
     <use xlink:href="#DejaVuSans-20" x="294.482422"/>
     <use xlink:href="#DejaVuSans-54" x="326.269531"/>
     <use xlink:href="#DejaVuSans-4d" x="387.353516"/>
     <use xlink:href="#DejaVuSans-41" x="473.632812"/>
     <use xlink:href="#DejaVuSans-20" x="542.041016"/>
     <use xlink:href="#DejaVuSans-45" x="573.828125"/>
    </g>
    <!-- 95 -->
    <g style="opacity: 0.5" transform="translate(121.930336 155.222715)scale(0.0579 -0.0579)">
     <use xlink:href="#DejaVuSans-39"/>
     <use xlink:href="#DejaVuSans-35" x="63.623047"/>
    </g>
    <!-- 15 -->
    <g style="opacity: 0.5" transform="translate(121.930336 161.706248)scale(0.0579 -0.0579)">
     <use xlink:href="#DejaVuSans-31"/>
     <use xlink:href="#DejaVuSans-35" x="63.623047"/>
    </g>
   </g>
   <g id="text_13">
    <!-- PADH1 -->
    <g style="opacity: 0.5" transform="translate(261.438346 230.734409)scale(0.0579 -0.0579)">
     <defs>
      <path id="DejaVuSans-50" d="M 1259 4147 
L 1259 2394 
L 2053 2394 
Q 2494 2394 2734 2622 
Q 2975 2850 2975 3272 
Q 2975 3691 2734 3919 
Q 2494 4147 2053 4147 
L 1259 4147 
z
M 628 4666 
L 2053 4666 
Q 2838 4666 3239 4311 
Q 3641 3956 3641 3272 
Q 3641 2581 3239 2228 
Q 2838 1875 2053 1875 
L 1259 1875 
L 1259 0 
L 628 0 
L 628 4666 
z
" transform="scale(0.015625)"/>
     </defs>
     <use xlink:href="#DejaVuSans-50"/>
     <use xlink:href="#DejaVuSans-41" x="53.927734"/>
     <use xlink:href="#DejaVuSans-44" x="122.335938"/>
     <use xlink:href="#DejaVuSans-48" x="199.337891"/>
     <use xlink:href="#DejaVuSans-31" x="274.533203"/>
    </g>
    <!-- 245 -->
    <g style="opacity: 0.5" transform="translate(265.702138 237.217942)scale(0.0579 -0.0579)">
     <use xlink:href="#DejaVuSans-32"/>
     <use xlink:href="#DejaVuSans-34" x="63.623047"/>
     <use xlink:href="#DejaVuSans-35" x="127.246094"/>
    </g>
    <!-- 135 -->
    <g style="opacity: 0.5" transform="translate(265.702138 243.701476)scale(0.0579 -0.0579)">
     <use xlink:href="#DejaVuSans-31"/>
     <use xlink:href="#DejaVuSans-33" x="63.623047"/>
     <use xlink:href="#DejaVuSans-35" x="127.246094"/>
    </g>
   </g>
   <g id="text_14">
    <!-- PADL1 -->
    <g style="opacity: 0.5" transform="translate(262.002418 232.880911)scale(0.0579 -0.0579)">
     <defs>
      <path id="DejaVuSans-4c" d="M 628 4666 
L 1259 4666 
L 1259 531 
L 3531 531 
L 3531 0 
L 628 0 
L 628 4666 
z
" transform="scale(0.015625)"/>
     </defs>
     <use xlink:href="#DejaVuSans-50"/>
     <use xlink:href="#DejaVuSans-41" x="53.927734"/>
     <use xlink:href="#DejaVuSans-44" x="122.335938"/>
     <use xlink:href="#DejaVuSans-4c" x="199.337891"/>
     <use xlink:href="#DejaVuSans-31" x="255.050781"/>
    </g>
    <!-- 135 -->
    <g style="opacity: 0.5" transform="translate(265.702138 239.364444)scale(0.0579 -0.0579)">
     <use xlink:href="#DejaVuSans-31"/>
     <use xlink:href="#DejaVuSans-33" x="63.623047"/>
     <use xlink:href="#DejaVuSans-35" x="127.246094"/>
    </g>
    <!-- GND -->
    <g style="opacity: 0.5" transform="translate(264.589825 245.847978)scale(0.0579 -0.0579)">
     <use xlink:href="#DejaVuSans-47"/>
     <use xlink:href="#DejaVuSans-4e" x="77.490234"/>
     <use xlink:href="#DejaVuSans-44" x="152.294922"/>
    </g>
   </g>
   <g id="text_15">
    <!-- PADL3 -->
    <g style="opacity: 0.5" transform="translate(233.418868 201.929602)scale(0.0579 -0.0579)">
     <use xlink:href="#DejaVuSans-50"/>
     <use xlink:href="#DejaVuSans-41" x="53.927734"/>
     <use xlink:href="#DejaVuSans-44" x="122.335938"/>
     <use xlink:href="#DejaVuSans-4c" x="199.337891"/>
     <use xlink:href="#DejaVuSans-33" x="255.050781"/>
    </g>
    <!-- 75 -->
    <g style="opacity: 0.5" transform="translate(238.960531 208.413135)scale(0.0579 -0.0579)">
     <use xlink:href="#DejaVuSans-37"/>
     <use xlink:href="#DejaVuSans-35" x="63.623047"/>
    </g>
    <!-- GND -->
    <g style="opacity: 0.5" transform="translate(236.006274 214.896669)scale(0.0579 -0.0579)">
     <use xlink:href="#DejaVuSans-47"/>
     <use xlink:href="#DejaVuSans-4e" x="77.490234"/>
     <use xlink:href="#DejaVuSans-44" x="152.294922"/>
    </g>
   </g>
   <g id="text_16">
    <!-- PADL4 -->
    <g style="opacity: 0.5" transform="translate(210.770799 231.151225)scale(0.0579 -0.0579)">
     <use xlink:href="#DejaVuSans-50"/>
     <use xlink:href="#DejaVuSans-41" x="53.927734"/>
     <use xlink:href="#DejaVuSans-44" x="122.335938"/>
     <use xlink:href="#DejaVuSans-4c" x="199.337891"/>
     <use xlink:href="#DejaVuSans-34" x="255.050781"/>
    </g>
    <!-- 65 -->
    <g style="opacity: 0.5" transform="translate(216.312463 237.634758)scale(0.0579 -0.0579)">
     <use xlink:href="#DejaVuSans-36"/>
     <use xlink:href="#DejaVuSans-35" x="63.623047"/>
    </g>
    <!-- GND -->
    <g style="opacity: 0.5" transform="translate(213.358206 244.118291)scale(0.0579 -0.0579)">
     <use xlink:href="#DejaVuSans-47"/>
     <use xlink:href="#DejaVuSans-4e" x="77.490234"/>
     <use xlink:href="#DejaVuSans-44" x="152.294922"/>
    </g>
   </g>
   <g id="text_17">
    <!-- SONEB AREA -->
    <g style="opacity: 0.5" transform="translate(150.278856 148.557185)scale(0.0579 -0.0579)">
     <defs>
      <path id="DejaVuSans-52" d="M 2841 2188 
Q 3044 2119 3236 1894 
Q 3428 1669 3622 1275 
L 4263 0 
L 3584 0 
L 2988 1197 
Q 2756 1666 2539 1819 
Q 2322 1972 1947 1972 
L 1259 1972 
L 1259 0 
L 628 0 
L 628 4666 
L 2053 4666 
Q 2853 4666 3247 4331 
Q 3641 3997 3641 3322 
Q 3641 2881 3436 2590 
Q 3231 2300 2841 2188 
z
M 1259 4147 
L 1259 2491 
L 2053 2491 
Q 2509 2491 2742 2702 
Q 2975 2913 2975 3322 
Q 2975 3731 2742 3939 
Q 2509 4147 2053 4147 
L 1259 4147 
z
" transform="scale(0.015625)"/>
     </defs>
     <use xlink:href="#DejaVuSans-53"/>
     <use xlink:href="#DejaVuSans-4f" x="63.476562"/>
     <use xlink:href="#DejaVuSans-4e" x="142.1875"/>
     <use xlink:href="#DejaVuSans-45" x="216.992188"/>
     <use xlink:href="#DejaVuSans-42" x="280.175781"/>
     <use xlink:href="#DejaVuSans-20" x="348.779297"/>
     <use xlink:href="#DejaVuSans-41" x="380.566406"/>
     <use xlink:href="#DejaVuSans-52" x="448.974609"/>
     <use xlink:href="#DejaVuSans-45" x="518.457031"/>
     <use xlink:href="#DejaVuSans-41" x="581.640625"/>
    </g>
    <!-- 205 -->
    <g style="opacity: 0.5" transform="translate(163.572786 155.040719)scale(0.0579 -0.0579)">
     <use xlink:href="#DejaVuSans-32"/>
     <use xlink:href="#DejaVuSans-30" x="63.623047"/>
     <use xlink:href="#DejaVuSans-35" x="127.246094"/>
    </g>
    <!-- 105 -->
    <g style="opacity: 0.5" transform="translate(163.572786 161.524252)scale(0.0579 -0.0579)">
     <use xlink:href="#DejaVuSans-31"/>
     <use xlink:href="#DejaVuSans-30" x="63.623047"/>
     <use xlink:href="#DejaVuSans-35" x="127.246094"/>
    </g>
   </g>
   <g id="text_18">
    <!-- TEBRO AREA -->
    <g style="opacity: 0.5" transform="translate(132.950573 167.295693)scale(0.0579 -0.0579)">
     <use xlink:href="#DejaVuSans-54"/>
     <use xlink:href="#DejaVuSans-45" x="61.083984"/>
     <use xlink:href="#DejaVuSans-42" x="124.267578"/>
     <use xlink:href="#DejaVuSans-52" x="192.871094"/>
     <use xlink:href="#DejaVuSans-4f" x="262.353516"/>
     <use xlink:href="#DejaVuSans-20" x="341.064453"/>
     <use xlink:href="#DejaVuSans-41" x="372.851562"/>
     <use xlink:href="#DejaVuSans-52" x="441.259766"/>
     <use xlink:href="#DejaVuSans-45" x="510.742188"/>
     <use xlink:href="#DejaVuSans-41" x="573.925781"/>
    </g>
    <!-- 245 -->
    <g style="opacity: 0.5" transform="translate(146.020594 173.779226)scale(0.0579 -0.0579)">
     <use xlink:href="#DejaVuSans-32"/>
     <use xlink:href="#DejaVuSans-34" x="63.623047"/>
     <use xlink:href="#DejaVuSans-35" x="127.246094"/>
    </g>
    <!-- 205 -->
    <g style="opacity: 0.5" transform="translate(146.020594 180.26276)scale(0.0579 -0.0579)">
     <use xlink:href="#DejaVuSans-32"/>
     <use xlink:href="#DejaVuSans-30" x="63.623047"/>
     <use xlink:href="#DejaVuSans-35" x="127.246094"/>
    </g>
   </g>
   <g id="text_19">
    <!-- HMM1 -->
    <g transform="translate(237.44218 161.541225)scale(0.0579 -0.0579)">
     <use xlink:href="#DejaVuSans-48"/>
     <use xlink:href="#DejaVuSans-4d" x="75.195312"/>
     <use xlink:href="#DejaVuSans-4d" x="161.474609"/>
     <use xlink:href="#DejaVuSans-31" x="247.753906"/>
    </g>
    <!-- 245 -->
    <g transform="translate(240.931108 168.024758)scale(0.0579 -0.0579)">
     <use xlink:href="#DejaVuSans-32"/>
     <use xlink:href="#DejaVuSans-34" x="63.623047"/>
     <use xlink:href="#DejaVuSans-35" x="127.246094"/>
    </g>
    <!-- GND -->
    <g transform="translate(239.818794 174.508292)scale(0.0579 -0.0579)">
     <use xlink:href="#DejaVuSans-47"/>
     <use xlink:href="#DejaVuSans-4e" x="77.490234"/>
     <use xlink:href="#DejaVuSans-44" x="152.294922"/>
    </g>
   </g>
   <g id="text_20">
    <!-- HMM2 -->
    <g transform="translate(174.518928 151.027925)scale(0.0579 -0.0579)">
     <use xlink:href="#DejaVuSans-48"/>
     <use xlink:href="#DejaVuSans-4d" x="75.195312"/>
     <use xlink:href="#DejaVuSans-4d" x="161.474609"/>
     <use xlink:href="#DejaVuSans-32" x="247.753906"/>
    </g>
    <!-- 205 -->
    <g transform="translate(178.007856 157.511458)scale(0.0579 -0.0579)">
     <use xlink:href="#DejaVuSans-32"/>
     <use xlink:href="#DejaVuSans-30" x="63.623047"/>
     <use xlink:href="#DejaVuSans-35" x="127.246094"/>
    </g>
    <!-- GND -->
    <g transform="translate(176.895542 163.994992)scale(0.0579 -0.0579)">
     <use xlink:href="#DejaVuSans-47"/>
     <use xlink:href="#DejaVuSans-4e" x="77.490234"/>
     <use xlink:href="#DejaVuSans-44" x="152.294922"/>
    </g>
   </g>
   <g id="text_21">
    <!-- HMM3 -->
    <g transform="translate(233.62966 201.929602)scale(0.0579 -0.0579)">
     <use xlink:href="#DejaVuSans-48"/>
     <use xlink:href="#DejaVuSans-4d" x="75.195312"/>
     <use xlink:href="#DejaVuSans-4d" x="161.474609"/>
     <use xlink:href="#DejaVuSans-33" x="247.753906"/>
    </g>
    <!-- 245 -->
    <g transform="translate(237.118587 208.413135)scale(0.0579 -0.0579)">
     <use xlink:href="#DejaVuSans-32"/>
     <use xlink:href="#DejaVuSans-34" x="63.623047"/>
     <use xlink:href="#DejaVuSans-35" x="127.246094"/>
    </g>
    <!-- 75 -->
    <g transform="translate(238.960531 214.896669)scale(0.0579 -0.0579)">
     <use xlink:href="#DejaVuSans-37"/>
     <use xlink:href="#DejaVuSans-35" x="63.623047"/>
    </g>
   </g>
   <g id="text_22">
    <!-- HMM4 -->
    <g transform="translate(160.083859 148.557185)scale(0.0579 -0.0579)">
     <use xlink:href="#DejaVuSans-48"/>
     <use xlink:href="#DejaVuSans-4d" x="75.195312"/>
     <use xlink:href="#DejaVuSans-4d" x="161.474609"/>
     <use xlink:href="#DejaVuSans-34" x="247.753906"/>
    </g>
    <!-- 105 -->
    <g transform="translate(163.572786 155.040719)scale(0.0579 -0.0579)">
     <use xlink:href="#DejaVuSans-31"/>
     <use xlink:href="#DejaVuSans-30" x="63.623047"/>
     <use xlink:href="#DejaVuSans-35" x="127.246094"/>
    </g>
    <!-- GND -->
    <g transform="translate(162.460473 161.524252)scale(0.0579 -0.0579)">
     <use xlink:href="#DejaVuSans-47"/>
     <use xlink:href="#DejaVuSans-4e" x="77.490234"/>
     <use xlink:href="#DejaVuSans-44" x="152.294922"/>
    </g>
   </g>
   <g id="text_23">
    <!-- HMM5 -->
    <g transform="translate(247.753737 131.180924)scale(0.0579 -0.0579)">
     <use xlink:href="#DejaVuSans-48"/>
     <use xlink:href="#DejaVuSans-4d" x="75.195312"/>
     <use xlink:href="#DejaVuSans-4d" x="161.474609"/>
     <use xlink:href="#DejaVuSans-35" x="247.753906"/>
    </g>
    <!-- 65 -->
    <g transform="translate(253.084608 137.664458)scale(0.0579 -0.0579)">
     <use xlink:href="#DejaVuSans-36"/>
     <use xlink:href="#DejaVuSans-35" x="63.623047"/>
    </g>
    <!-- GND -->
    <g transform="translate(250.130351 144.147991)scale(0.0579 -0.0579)">
     <use xlink:href="#DejaVuSans-47"/>
     <use xlink:href="#DejaVuSans-4e" x="77.490234"/>
     <use xlink:href="#DejaVuSans-44" x="152.294922"/>
    </g>
   </g>
  </g>
 </g>
 <defs>
  <clipPath id="p5bc4fbc151">
   <rect x="57.6" y="61.843845" width="357.12" height="225.368311"/>
  </clipPath>
 </defs>
</svg>
