<?xml version="1.0" encoding="utf-8" standalone="no"?>
<!DOCTYPE svg PUBLIC "-//W3C//DTD SVG 1.1//EN"
  "http://www.w3.org/Graphics/SVG/1.1/DTD/svg11.dtd">
<svg xmlns:xlink="http://www.w3.org/1999/xlink" width="460.8pt" height="345.6pt" viewBox="0 0 460.8 345.6" xmlns="http://www.w3.org/2000/svg" version="1.1">
 <metadata>
  <rdf:RDF xmlns:dc="http://purl.org/dc/elements/1.1/" xmlns:cc="http://creativecommons.org/ns#" xmlns:rdf="http://www.w3.org/1999/02/22-rdf-syntax-ns#">
   <cc:Work>
    <dc:type rdf:resource="http://purl.org/dc/dcmitype/StillImage"/>
    <dc:date>2022-04-26T16:03:43.103085</dc:date>
    <dc:format>image/svg+xml</dc:format>
    <dc:creator>
     <cc:Agent>
      <dc:title>Matplotlib v3.5.0, https://matplotlib.org/</dc:title>
     </cc:Agent>
    </dc:creator>
   </cc:Work>
  </rdf:RDF>
 </metadata>
 <defs>
  <style type="text/css">*{stroke-linejoin: round; stroke-linecap: butt}</style>
 </defs>
 <g id="figure_1">
  <g id="patch_1">
   <path d="M 0 345.6 
L 460.8 345.6 
L 460.8 0 
L 0 0 
z
" style="fill: #ffffff"/>
  </g>
  <g id="axes_1">
   <g id="patch_2">
    <path d="M 232.776161 114.048 
L 268.477473 138.608544 
L 280.76731 148.124015 
L 302.644264 165.096476 
L 268.912258 188.446069 
L 256.470092 157.881153 
L 211.057436 158.667202 
L 206.407349 209.937597 
L 183.105919 195.031047 
L 175.02785 189.840396 
L 169.675736 172.130518 
L 185.411763 168.907312 
L 186.231379 159.128408 
L 189.598625 119.604171 
L 192.439863 118.026645 
L 203.108817 116.962912 
z
" clip-path="url(#p04109a5b35)" style="fill: #ffedd9; stroke: #ffedd9; stroke-linejoin: miter"/>
   </g>
   <g id="patch_3">
    <path d="M 256.470092 157.881153 
L 268.912258 188.446069 
L 259.672853 206.887588 
L 253.288713 219.602591 
L 251.110354 224.036802 
L 245.591415 235.008 
L 206.407349 209.937597 
L 211.057436 158.667202 
z
" clip-path="url(#p04109a5b35)" style="fill: #ffedd9; stroke: #ffedd9; stroke-linejoin: miter"/>
   </g>
   <g id="patch_4">
    <path d="M 232.776161 114.048 
L 268.477473 138.608544 
L 280.76731 148.124015 
L 302.644264 165.096476 
L 268.912258 188.446069 
L 256.470092 157.881153 
L 211.057436 158.667202 
L 206.407349 209.937597 
L 183.105919 195.031047 
L 175.02785 189.840396 
L 169.675736 172.130518 
L 185.411763 168.907312 
L 186.231379 159.128408 
L 189.598625 119.604171 
L 192.439863 118.026645 
L 203.108817 116.962912 
L 232.776161 114.048 
z
" clip-path="url(#p04109a5b35)" style="fill: #ffedd9; stroke: #ffedd9; stroke-linejoin: miter"/>
   </g>
   <g id="patch_5">
    <path d="M 256.470092 157.881153 
L 268.912258 188.446069 
L 259.672853 206.887588 
L 253.288713 219.602591 
L 251.110354 224.036802 
L 245.591415 235.008 
L 206.407349 209.937597 
L 211.057436 158.667202 
L 256.470092 157.881153 
z
" clip-path="url(#p04109a5b35)" style="fill: #ffedd9; stroke: #ffedd9; stroke-linejoin: miter"/>
   </g>
   <g id="line2d_1">
    <path d="M 232.776161 114.048 
L 268.477473 138.608544 
L 280.76731 148.124015 
L 302.644264 165.096476 
L 268.912258 188.446069 
L 256.470092 157.881153 
L 211.057436 158.667202 
L 206.407349 209.937597 
L 183.105919 195.031047 
L 175.02785 189.840396 
L 169.675736 172.130518 
L 185.411763 168.907312 
L 186.231379 159.128408 
L 189.598625 119.604171 
L 192.439863 118.026645 
L 203.108817 116.962912 
L 232.776161 114.048 
" clip-path="url(#p04109a5b35)" style="fill: none; stroke: #ffc380; stroke-width: 0.5; stroke-linecap: square"/>
   </g>
   <g id="line2d_2">
    <path d="M 256.470092 157.881153 
L 268.912258 188.446069 
L 259.672853 206.887588 
L 253.288713 219.602591 
L 251.110354 224.036802 
L 245.591415 235.008 
L 206.407349 209.937597 
L 211.057436 158.667202 
L 256.470092 157.881153 
" clip-path="url(#p04109a5b35)" style="fill: none; stroke: #ffc380; stroke-width: 0.5; stroke-linecap: square"/>
   </g>
   <g id="line2d_3">
    <path d="M 102.920079 164.650867 
L 109.659552 165.034557 
L 125.143245 173.279837 
L 147.815729 176.643927 
L 169.675736 172.130518 
L 175.02785 189.840396 
L 183.105919 195.031047 
L 206.407349 209.937597 
L 198.779785 294.631188 
L 174.348873 294.951944 
L 152.387513 294.816567 
L 113.387932 294.893386 
L 101.743258 298.117896 
L 74.867057 306.363252 
L 31.721677 308.990251 
L 32.811502 306.096434 
L 32.621498 302.898789 
L 33.995307 301.258736 
L 35.074033 300.360878 
L 35.353467 299.160245 
L 35.032047 297.392946 
L 36.347336 295.540564 
L 38.548724 292.246935 
L 40.069701 288.481521 
L 42.354069 286.792338 
L 43.399267 283.28384 
L 45.07858 276.286564 
L 45.143291 274.50728 
L 45.588113 272.897765 
L 49.814806 270.652926 
L 50.962586 268.083221 
L 49.525733 260.30585 
L 50.075793 257.070317 
L 53.297911 248.183944 
L 53.50273 243.290722 
L 54.695714 241.920923 
L 56.82404 240.426422 
L 57.687336 237.096802 
L 57.465954 235.145416 
L 57.788896 232.016535 
L 57.111201 228.281851 
L 57.706371 225.890347 
L 60.427964 221.461684 
L 61.483063 218.070231 
L 66.783898 214.560179 
L 75.057232 204.412188 
L 75.115143 200.012003 
L 76.010536 198.643569 
L 77.290809 198.381594 
L 79.378806 198.802164 
L 80.956799 197.660981 
L 81.347452 194.90978 
L 82.358803 193.975155 
L 84.122297 193.836657 
L 85.677564 193.766694 
L 87.998603 192.101634 
L 89.819998 189.006835 
L 91.258308 182.612719 
L 93.973225 175.974576 
L 97.40433 170.921475 
L 99.391572 166.88773 
L 103.472754 165.123949 
L 102.920079 164.650867 
" clip-path="url(#p04109a5b35)" style="fill: none; stroke: #8f8f8f; stroke-width: 0.2; stroke-linecap: square"/>
   </g>
   <g id="line2d_4">
    <path d="M 206.407349 209.937597 
L 245.591415 235.008 
L 245.958383 252.913162 
L 246.795027 293.78944 
L 198.779785 294.631188 
L 206.407349 209.937597 
" clip-path="url(#p04109a5b35)" style="fill: none; stroke: #8f8f8f; stroke-width: 0.2; stroke-linecap: square"/>
   </g>
   <g id="line2d_5">
    <path d="M 330.14749 103.428237 
L 353.813472 126.040921 
L 342.622652 137.413631 
L 319.469097 153.435352 
L 302.644264 165.096476 
L 280.76731 148.124015 
L 268.477473 138.608544 
L 232.776161 114.048 
L 254.276798 110.799342 
L 274.177587 113.864346 
L 304.178111 104.793899 
L 330.14749 103.428237 
" clip-path="url(#p04109a5b35)" style="fill: none; stroke: #8f8f8f; stroke-width: 0.2; stroke-linecap: square"/>
   </g>
   <g id="line2d_6">
    <path d="M 262.220241 53.946652 
L 279.740504 66.728067 
L 330.14749 103.428237 
L 304.178111 104.793899 
L 274.177587 113.864346 
L 254.276798 110.799342 
L 232.776161 114.048 
L 256.563695 65.519085 
L 262.220241 53.946652 
" clip-path="url(#p04109a5b35)" style="fill: none; stroke: #8f8f8f; stroke-width: 0.2; stroke-linecap: square"/>
   </g>
   <g id="line2d_7">
    <path d="M 319.469097 153.435352 
L 390.9698 214.977018 
L 385.356299 221.618453 
L 379.105667 234.796966 
L 397.745135 252.059854 
L 402.929716 256.971341 
L 405.07799 311.213816 
L 388.378289 319.598726 
L 341.785213 279.893976 
L 286.796492 270.750032 
L 310.764503 214.181803 
L 310.517083 172.293312 
L 302.644264 165.096476 
L 319.469097 153.435352 
L 390.9698 214.977018 
L 385.356299 221.618453 
L 379.105667 234.796966 
L 397.745135 252.059854 
L 402.929716 256.971341 
L 403.846938 280.114154 
L 291.049647 260.687313 
L 310.764503 214.181803 
L 310.517083 172.293312 
L 302.644264 165.096476 
L 319.469097 153.435352 
L 390.9698 214.977018 
L 385.356299 221.618453 
L 379.105667 234.796966 
L 397.745135 252.059854 
L 402.929716 256.971341 
L 403.846938 280.114154 
L 245.958383 252.913162 
L 245.591415 235.008 
L 268.912258 188.446069 
L 319.469097 153.435352 
L 390.9698 214.977018 
L 397.391955 207.846864 
L 420.654969 206.446461 
L 435.440324 206.081049 
L 461.8 204.878187 
M 461.8 321.049841 
L 434.387483 326.62185 
L 430.267022 294.782947 
L 430.311535 285.226634 
L 403.846938 280.114154 
L 245.958383 252.913162 
L 245.591415 235.008 
L 268.912258 188.446069 
L 319.469097 153.435352 
L 390.9698 214.977018 
L 397.391955 207.846864 
L 420.654969 206.446461 
L 435.440324 206.081049 
L 461.8 204.878187 
M 461.8 321.049841 
L 434.387483 326.62185 
L 430.267022 294.782947 
L 430.311535 285.226634 
L 403.846938 280.114154 
L 245.958383 252.913162 
L 245.591415 235.008 
L 268.912258 188.446069 
L 319.469097 153.435352 
L 390.9698 214.977018 
L 397.391955 207.846864 
L 420.654969 206.446461 
L 435.440324 206.081049 
L 461.8 204.878187 
M 461.8 321.049841 
L 434.387483 326.62185 
L 430.267022 294.782947 
L 430.311535 285.226634 
L 403.846938 280.114154 
L 245.958383 252.913162 
L 245.591415 235.008 
L 268.912258 188.446069 
L 319.469097 153.435352 
L 319.469097 153.435352 
" clip-path="url(#p04109a5b35)" style="fill: none; stroke: #8f8f8f; stroke-width: 0.2; stroke-linecap: square"/>
   </g>
   <g id="line2d_8">
    <path d="M 237.79567 35.255741 
L 244.031451 40.011657 
L 256.563695 65.519085 
L 232.776161 114.048 
L 203.108817 116.962912 
L 192.087347 87.145914 
L 193.05429 74.696447 
L 195.401498 44.862066 
L 195.618683 39.794202 
L 197.804855 39.399656 
L 206.402128 37.862981 
L 213.230687 37.296969 
L 237.79567 35.255741 
" clip-path="url(#p04109a5b35)" style="fill: none; stroke: #8f8f8f; stroke-width: 0.2; stroke-linecap: square"/>
   </g>
   <g id="line2d_9">
    <path d="M 192.087347 87.145914 
L 203.108817 116.962912 
L 192.439863 118.026645 
L 189.598625 119.604171 
L 192.087347 87.145914 
" clip-path="url(#p04109a5b35)" style="fill: none; stroke: #8f8f8f; stroke-width: 0.2; stroke-linecap: square"/>
   </g>
   <g id="line2d_10">
    <path d="M 189.598625 119.604171 
L 186.231379 159.128408 
L 185.411763 168.907312 
L 169.675736 172.130518 
L 147.815729 176.643927 
L 125.143245 173.279837 
L 109.659552 165.034557 
L 115.68746 159.040303 
L 118.38783 147.316182 
L 120.355385 121.442446 
L 153.548371 122.194493 
L 183.707896 122.894541 
L 189.598625 119.604171 
" clip-path="url(#p04109a5b35)" style="fill: none; stroke: #8f8f8f; stroke-width: 0.2; stroke-linecap: square"/>
   </g>
   <g id="line2d_11">
    <path d="M 192.087347 87.145914 
L 203.108817 116.962912 
L 192.439863 118.026645 
L 189.598625 119.604171 
L 192.087347 87.145914 
" clip-path="url(#p04109a5b35)" style="fill: none; stroke: #8f8f8f; stroke-width: 0.2; stroke-linecap: square"/>
   </g>
   <g id="line2d_12">
    <path d="M 179.580053 42.638836 
L 189.076701 65.256775 
L 193.05429 74.696447 
L 192.087347 87.145914 
L 189.598625 119.604171 
L 183.707896 122.894541 
L 153.548371 122.194493 
L 158.448562 66.393979 
L 160.290637 46.07285 
L 179.580053 42.638836 
" clip-path="url(#p04109a5b35)" style="fill: none; stroke: #8f8f8f; stroke-width: 0.2; stroke-linecap: square"/>
   </g>
   <g id="line2d_13">
    <path d="M 179.580053 42.638836 
L 189.076701 65.256775 
L 193.05429 74.696447 
L 192.087347 87.145914 
L 189.598625 119.604171 
L 183.707896 122.894541 
L 153.548371 122.194493 
L 158.448562 66.393979 
L 160.290637 46.07285 
L 179.580053 42.638836 
" clip-path="url(#p04109a5b35)" style="fill: none; stroke: #8f8f8f; stroke-width: 0.2; stroke-linecap: square"/>
   </g>
   <g id="line2d_14">
    <path d="M 302.644264 165.096476 
L 310.517083 172.293312 
L 310.764503 214.181803 
L 305.3775 226.821358 
L 301.977177 234.923554 
L 291.049647 260.687313 
L 286.796492 270.750032 
L 249.030733 292.476758 
L 246.795027 293.78944 
L 198.779785 294.631188 
L 174.348873 294.951944 
L 152.387513 294.816567 
L 113.387932 294.893386 
L 101.743258 298.117896 
L 74.867057 306.363252 
L 124.955211 192.272695 
L 164.443433 222.429337 
L 170.94627 221.091745 
L 179.505237 219.407061 
L 262.284147 193.032359 
L 268.912258 188.446069 
L 302.644264 165.096476 
" clip-path="url(#p04109a5b35)" style="fill: none; stroke: #8f8f8f; stroke-width: 0.2; stroke-linecap: square"/>
   </g>
   <g id="line2d_15">
    <path d="M 232.776161 114.048 
L 268.477473 138.608544 
L 280.76731 148.124015 
L 302.644264 165.096476 
L 268.912258 188.446069 
L 262.284147 193.032359 
L 179.505237 219.407061 
L 170.94627 221.091745 
L 164.443433 222.429337 
L 124.955211 192.272695 
L 125.143245 173.279837 
L 125.838154 160.072189 
L 118.38783 147.316182 
L 120.355385 121.442446 
L 153.548371 122.194493 
L 183.707896 122.894541 
L 189.598625 119.604171 
L 192.439863 118.026645 
L 203.108817 116.962912 
L 232.776161 114.048 
" clip-path="url(#p04109a5b35)" style="fill: none; stroke: #8f8f8f; stroke-width: 0.2; stroke-linecap: square"/>
   </g>
   <g id="line2d_16">
    <path d="M 256.470092 157.881153 
L 268.912258 188.446069 
L 259.672853 206.887588 
L 253.288713 219.602591 
L 251.110354 224.036802 
L 245.591415 235.008 
L 245.958383 252.913162 
L 246.795027 293.78944 
L 198.779785 294.631188 
L 206.407349 209.937597 
L 211.057436 158.667202 
L 256.470092 157.881153 
" clip-path="url(#p04109a5b35)" style="fill: none; stroke: #8f8f8f; stroke-width: 0.2; stroke-linecap: square"/>
   </g>
   <g id="line2d_17">
    <path d="M 232.776161 114.048 
L 268.477473 138.608544 
L 280.76731 148.124015 
L 302.644264 165.096476 
L 268.912258 188.446069 
L 256.470092 157.881153 
L 211.057436 158.667202 
L 206.407349 209.937597 
L 183.105919 195.031047 
L 175.02785 189.840396 
L 169.675736 172.130518 
L 185.411763 168.907312 
L 186.231379 159.128408 
L 189.598625 119.604171 
L 192.439863 118.026645 
L 203.108817 116.962912 
L 232.776161 114.048 
L 232.776161 114.048 
" clip-path="url(#p04109a5b35)" style="fill: none; stroke: #ffc380; stroke-width: 0.5; stroke-linecap: square"/>
   </g>
   <g id="line2d_18">
    <path d="M 256.470092 157.881153 
L 268.912258 188.446069 
L 259.672853 206.887588 
L 253.288713 219.602591 
L 251.110354 224.036802 
L 245.591415 235.008 
L 206.407349 209.937597 
L 211.057436 158.667202 
L 256.470092 157.881153 
L 256.470092 157.881153 
" clip-path="url(#p04109a5b35)" style="fill: none; stroke: #ffc380; stroke-width: 0.5; stroke-linecap: square"/>
   </g>
   <g id="text_1">
    <!-- BAD1 -->
    <g style="opacity: 0.5" transform="translate(111.026817 231.934703)scale(0.0579 -0.0579)">
     <defs>
      <path id="DejaVuSans-42" d="M 1259 2228 
L 1259 519 
L 2272 519 
Q 2781 519 3026 730 
Q 3272 941 3272 1375 
Q 3272 1813 3026 2020 
Q 2781 2228 2272 2228 
L 1259 2228 
z
M 1259 4147 
L 1259 2741 
L 2194 2741 
Q 2656 2741 2882 2914 
Q 3109 3088 3109 3444 
Q 3109 3797 2882 3972 
Q 2656 4147 2194 4147 
L 1259 4147 
z
M 628 4666 
L 2241 4666 
Q 2963 4666 3353 4366 
Q 3744 4066 3744 3513 
Q 3744 3084 3544 2831 
Q 3344 2578 2956 2516 
Q 3422 2416 3680 2098 
Q 3938 1781 3938 1306 
Q 3938 681 3513 340 
Q 3088 0 2303 0 
L 628 0 
L 628 4666 
z
" transform="scale(0.015625)"/>
      <path id="DejaVuSans-41" d="M 2188 4044 
L 1331 1722 
L 3047 1722 
L 2188 4044 
z
M 1831 4666 
L 2547 4666 
L 4325 0 
L 3669 0 
L 3244 1197 
L 1141 1197 
L 716 0 
L 50 0 
L 1831 4666 
z
" transform="scale(0.015625)"/>
      <path id="DejaVuSans-44" d="M 1259 4147 
L 1259 519 
L 2022 519 
Q 2988 519 3436 956 
Q 3884 1394 3884 2338 
Q 3884 3275 3436 3711 
Q 2988 4147 2022 4147 
L 1259 4147 
z
M 628 4666 
L 1925 4666 
Q 3281 4666 3915 4102 
Q 4550 3538 4550 2338 
Q 4550 1131 3912 565 
Q 3275 0 1925 0 
L 628 0 
L 628 4666 
z
" transform="scale(0.015625)"/>
      <path id="DejaVuSans-31" d="M 794 531 
L 1825 531 
L 1825 4091 
L 703 3866 
L 703 4441 
L 1819 4666 
L 2450 4666 
L 2450 531 
L 3481 531 
L 3481 0 
L 794 0 
L 794 531 
z
" transform="scale(0.015625)"/>
     </defs>
     <use xlink:href="#DejaVuSans-42"/>
     <use xlink:href="#DejaVuSans-41" x="68.603516"/>
     <use xlink:href="#DejaVuSans-44" x="137.011719"/>
     <use xlink:href="#DejaVuSans-31" x="214.013672"/>
    </g>
    <!-- 245 -->
    <g style="opacity: 0.5" transform="translate(113.538682 238.418237)scale(0.0579 -0.0579)">
     <defs>
      <path id="DejaVuSans-32" d="M 1228 531 
L 3431 531 
L 3431 0 
L 469 0 
L 469 531 
Q 828 903 1448 1529 
Q 2069 2156 2228 2338 
Q 2531 2678 2651 2914 
Q 2772 3150 2772 3378 
Q 2772 3750 2511 3984 
Q 2250 4219 1831 4219 
Q 1534 4219 1204 4116 
Q 875 4013 500 3803 
L 500 4441 
Q 881 4594 1212 4672 
Q 1544 4750 1819 4750 
Q 2544 4750 2975 4387 
Q 3406 4025 3406 3419 
Q 3406 3131 3298 2873 
Q 3191 2616 2906 2266 
Q 2828 2175 2409 1742 
Q 1991 1309 1228 531 
z
" transform="scale(0.015625)"/>
      <path id="DejaVuSans-34" d="M 2419 4116 
L 825 1625 
L 2419 1625 
L 2419 4116 
z
M 2253 4666 
L 3047 4666 
L 3047 1625 
L 3713 1625 
L 3713 1100 
L 3047 1100 
L 3047 0 
L 2419 0 
L 2419 1100 
L 313 1100 
L 313 1709 
L 2253 4666 
z
" transform="scale(0.015625)"/>
      <path id="DejaVuSans-35" d="M 691 4666 
L 3169 4666 
L 3169 4134 
L 1269 4134 
L 1269 2991 
Q 1406 3038 1543 3061 
Q 1681 3084 1819 3084 
Q 2600 3084 3056 2656 
Q 3513 2228 3513 1497 
Q 3513 744 3044 326 
Q 2575 -91 1722 -91 
Q 1428 -91 1123 -41 
Q 819 9 494 109 
L 494 744 
Q 775 591 1075 516 
Q 1375 441 1709 441 
Q 2250 441 2565 725 
Q 2881 1009 2881 1497 
Q 2881 1984 2565 2268 
Q 2250 2553 1709 2553 
Q 1456 2553 1204 2497 
Q 953 2441 691 2322 
L 691 4666 
z
" transform="scale(0.015625)"/>
     </defs>
     <use xlink:href="#DejaVuSans-32"/>
     <use xlink:href="#DejaVuSans-34" x="63.623047"/>
     <use xlink:href="#DejaVuSans-35" x="127.246094"/>
    </g>
    <!-- 145 -->
    <g style="opacity: 0.5" transform="translate(113.538682 244.90177)scale(0.0579 -0.0579)">
     <use xlink:href="#DejaVuSans-31"/>
     <use xlink:href="#DejaVuSans-34" x="63.623047"/>
     <use xlink:href="#DejaVuSans-35" x="127.246094"/>
    </g>
   </g>
   <g id="text_2">
    <!-- BAD2 -->
    <g style="opacity: 0.5" transform="translate(214.74971 247.398537)scale(0.0579 -0.0579)">
     <use xlink:href="#DejaVuSans-42"/>
     <use xlink:href="#DejaVuSans-41" x="68.603516"/>
     <use xlink:href="#DejaVuSans-44" x="137.011719"/>
     <use xlink:href="#DejaVuSans-32" x="214.013672"/>
    </g>
    <!-- 235 -->
    <g style="opacity: 0.5" transform="translate(217.261575 253.882071)scale(0.0579 -0.0579)">
     <defs>
      <path id="DejaVuSans-33" d="M 2597 2516 
Q 3050 2419 3304 2112 
Q 3559 1806 3559 1356 
Q 3559 666 3084 287 
Q 2609 -91 1734 -91 
Q 1441 -91 1130 -33 
Q 819 25 488 141 
L 488 750 
Q 750 597 1062 519 
Q 1375 441 1716 441 
Q 2309 441 2620 675 
Q 2931 909 2931 1356 
Q 2931 1769 2642 2001 
Q 2353 2234 1838 2234 
L 1294 2234 
L 1294 2753 
L 1863 2753 
Q 2328 2753 2575 2939 
Q 2822 3125 2822 3475 
Q 2822 3834 2567 4026 
Q 2313 4219 1838 4219 
Q 1578 4219 1281 4162 
Q 984 4106 628 3988 
L 628 4550 
Q 988 4650 1302 4700 
Q 1616 4750 1894 4750 
Q 2613 4750 3031 4423 
Q 3450 4097 3450 3541 
Q 3450 3153 3228 2886 
Q 3006 2619 2597 2516 
z
" transform="scale(0.015625)"/>
     </defs>
     <use xlink:href="#DejaVuSans-32"/>
     <use xlink:href="#DejaVuSans-33" x="63.623047"/>
     <use xlink:href="#DejaVuSans-35" x="127.246094"/>
    </g>
    <!-- 145 -->
    <g style="opacity: 0.5" transform="translate(217.261575 260.365604)scale(0.0579 -0.0579)">
     <use xlink:href="#DejaVuSans-31"/>
     <use xlink:href="#DejaVuSans-34" x="63.623047"/>
     <use xlink:href="#DejaVuSans-35" x="127.246094"/>
    </g>
   </g>
   <g id="text_3">
    <!-- DKB2 -->
    <g style="opacity: 0.5" transform="translate(285.338995 129.376501)scale(0.0579 -0.0579)">
     <defs>
      <path id="DejaVuSans-4b" d="M 628 4666 
L 1259 4666 
L 1259 2694 
L 3353 4666 
L 4166 4666 
L 1850 2491 
L 4331 0 
L 3500 0 
L 1259 2247 
L 1259 0 
L 628 0 
L 628 4666 
z
" transform="scale(0.015625)"/>
     </defs>
     <use xlink:href="#DejaVuSans-44"/>
     <use xlink:href="#DejaVuSans-4b" x="77.001953"/>
     <use xlink:href="#DejaVuSans-42" x="142.578125"/>
     <use xlink:href="#DejaVuSans-32" x="211.181641"/>
    </g>
    <!-- 245 -->
    <g style="opacity: 0.5" transform="translate(287.768986 135.860035)scale(0.0579 -0.0579)">
     <use xlink:href="#DejaVuSans-32"/>
     <use xlink:href="#DejaVuSans-34" x="63.623047"/>
     <use xlink:href="#DejaVuSans-35" x="127.246094"/>
    </g>
    <!-- 105 -->
    <g style="opacity: 0.5" transform="translate(287.768986 142.343568)scale(0.0579 -0.0579)">
     <defs>
      <path id="DejaVuSans-30" d="M 2034 4250 
Q 1547 4250 1301 3770 
Q 1056 3291 1056 2328 
Q 1056 1369 1301 889 
Q 1547 409 2034 409 
Q 2525 409 2770 889 
Q 3016 1369 3016 2328 
Q 3016 3291 2770 3770 
Q 2525 4250 2034 4250 
z
M 2034 4750 
Q 2819 4750 3233 4129 
Q 3647 3509 3647 2328 
Q 3647 1150 3233 529 
Q 2819 -91 2034 -91 
Q 1250 -91 836 529 
Q 422 1150 422 2328 
Q 422 3509 836 4129 
Q 1250 4750 2034 4750 
z
" transform="scale(0.015625)"/>
     </defs>
     <use xlink:href="#DejaVuSans-31"/>
     <use xlink:href="#DejaVuSans-30" x="63.623047"/>
     <use xlink:href="#DejaVuSans-35" x="127.246094"/>
    </g>
   </g>
   <g id="text_4">
    <!-- DKB3 -->
    <g style="opacity: 0.5" transform="translate(273.506004 79.111471)scale(0.0579 -0.0579)">
     <use xlink:href="#DejaVuSans-44"/>
     <use xlink:href="#DejaVuSans-4b" x="77.001953"/>
     <use xlink:href="#DejaVuSans-42" x="142.578125"/>
     <use xlink:href="#DejaVuSans-33" x="211.181641"/>
    </g>
    <!-- 245 -->
    <g style="opacity: 0.5" transform="translate(275.935995 85.595004)scale(0.0579 -0.0579)">
     <use xlink:href="#DejaVuSans-32"/>
     <use xlink:href="#DejaVuSans-34" x="63.623047"/>
     <use xlink:href="#DejaVuSans-35" x="127.246094"/>
    </g>
    <!-- 85 -->
    <g style="opacity: 0.5" transform="translate(277.777938 92.078538)scale(0.0579 -0.0579)">
     <defs>
      <path id="DejaVuSans-38" d="M 2034 2216 
Q 1584 2216 1326 1975 
Q 1069 1734 1069 1313 
Q 1069 891 1326 650 
Q 1584 409 2034 409 
Q 2484 409 2743 651 
Q 3003 894 3003 1313 
Q 3003 1734 2745 1975 
Q 2488 2216 2034 2216 
z
M 1403 2484 
Q 997 2584 770 2862 
Q 544 3141 544 3541 
Q 544 4100 942 4425 
Q 1341 4750 2034 4750 
Q 2731 4750 3128 4425 
Q 3525 4100 3525 3541 
Q 3525 3141 3298 2862 
Q 3072 2584 2669 2484 
Q 3125 2378 3379 2068 
Q 3634 1759 3634 1313 
Q 3634 634 3220 271 
Q 2806 -91 2034 -91 
Q 1263 -91 848 271 
Q 434 634 434 1313 
Q 434 1759 690 2068 
Q 947 2378 1403 2484 
z
M 1172 3481 
Q 1172 3119 1398 2916 
Q 1625 2713 2034 2713 
Q 2441 2713 2670 2916 
Q 2900 3119 2900 3481 
Q 2900 3844 2670 4047 
Q 2441 4250 2034 4250 
Q 1625 4250 1398 4047 
Q 1172 3844 1172 3481 
z
" transform="scale(0.015625)"/>
     </defs>
     <use xlink:href="#DejaVuSans-38"/>
     <use xlink:href="#DejaVuSans-35" x="63.623047"/>
    </g>
   </g>
   <g id="text_5">
    <!-- EDMMNDG -->
    <g style="opacity: 0.5" transform="translate(369.079786 235.142746)scale(0.0579 -0.0579)">
     <defs>
      <path id="DejaVuSans-45" d="M 628 4666 
L 3578 4666 
L 3578 4134 
L 1259 4134 
L 1259 2753 
L 3481 2753 
L 3481 2222 
L 1259 2222 
L 1259 531 
L 3634 531 
L 3634 0 
L 628 0 
L 628 4666 
z
" transform="scale(0.015625)"/>
      <path id="DejaVuSans-4d" d="M 628 4666 
L 1569 4666 
L 2759 1491 
L 3956 4666 
L 4897 4666 
L 4897 0 
L 4281 0 
L 4281 4097 
L 3078 897 
L 2444 897 
L 1241 4097 
L 1241 0 
L 628 0 
L 628 4666 
z
" transform="scale(0.015625)"/>
      <path id="DejaVuSans-4e" d="M 628 4666 
L 1478 4666 
L 3547 763 
L 3547 4666 
L 4159 4666 
L 4159 0 
L 3309 0 
L 1241 3903 
L 1241 0 
L 628 0 
L 628 4666 
z
" transform="scale(0.015625)"/>
      <path id="DejaVuSans-47" d="M 3809 666 
L 3809 1919 
L 2778 1919 
L 2778 2438 
L 4434 2438 
L 4434 434 
Q 4069 175 3628 42 
Q 3188 -91 2688 -91 
Q 1594 -91 976 548 
Q 359 1188 359 2328 
Q 359 3472 976 4111 
Q 1594 4750 2688 4750 
Q 3144 4750 3555 4637 
Q 3966 4525 4313 4306 
L 4313 3634 
Q 3963 3931 3569 4081 
Q 3175 4231 2741 4231 
Q 1884 4231 1454 3753 
Q 1025 3275 1025 2328 
Q 1025 1384 1454 906 
Q 1884 428 2741 428 
Q 3075 428 3337 486 
Q 3600 544 3809 666 
z
" transform="scale(0.015625)"/>
     </defs>
     <use xlink:href="#DejaVuSans-45"/>
     <use xlink:href="#DejaVuSans-44" x="63.183594"/>
     <use xlink:href="#DejaVuSans-4d" x="140.185547"/>
     <use xlink:href="#DejaVuSans-4d" x="226.464844"/>
     <use xlink:href="#DejaVuSans-4e" x="312.744141"/>
     <use xlink:href="#DejaVuSans-44" x="387.548828"/>
     <use xlink:href="#DejaVuSans-47" x="464.550781"/>
    </g>
    <!-- 105 -->
    <g style="opacity: 0.5" transform="translate(379.246212 241.626279)scale(0.0579 -0.0579)">
     <use xlink:href="#DejaVuSans-31"/>
     <use xlink:href="#DejaVuSans-30" x="63.623047"/>
     <use xlink:href="#DejaVuSans-35" x="127.246094"/>
    </g>
    <!-- GND -->
    <g style="opacity: 0.5" transform="translate(378.133898 248.109812)scale(0.0579 -0.0579)">
     <use xlink:href="#DejaVuSans-47"/>
     <use xlink:href="#DejaVuSans-4e" x="77.490234"/>
     <use xlink:href="#DejaVuSans-44" x="152.294922"/>
    </g>
   </g>
   <g id="text_6">
    <!-- KNG1 -->
    <g style="opacity: 0.5" transform="translate(216.176096 71.223472)scale(0.0579 -0.0579)">
     <use xlink:href="#DejaVuSans-4b"/>
     <use xlink:href="#DejaVuSans-4e" x="65.576172"/>
     <use xlink:href="#DejaVuSans-47" x="140.380859"/>
     <use xlink:href="#DejaVuSans-31" x="217.871094"/>
    </g>
    <!-- 245 -->
    <g style="opacity: 0.5" transform="translate(218.799689 77.707005)scale(0.0579 -0.0579)">
     <use xlink:href="#DejaVuSans-32"/>
     <use xlink:href="#DejaVuSans-34" x="63.623047"/>
     <use xlink:href="#DejaVuSans-35" x="127.246094"/>
    </g>
    <!-- GND -->
    <g style="opacity: 0.5" transform="translate(217.687376 84.190538)scale(0.0579 -0.0579)">
     <use xlink:href="#DejaVuSans-47"/>
     <use xlink:href="#DejaVuSans-4e" x="77.490234"/>
     <use xlink:href="#DejaVuSans-44" x="152.294922"/>
    </g>
   </g>
   <g id="text_7">
    <!-- KNG7 -->
    <g style="opacity: 0.5" transform="translate(188.204296 98.489187)scale(0.0579 -0.0579)">
     <defs>
      <path id="DejaVuSans-37" d="M 525 4666 
L 3525 4666 
L 3525 4397 
L 1831 0 
L 1172 0 
L 2766 4134 
L 525 4134 
L 525 4666 
z
" transform="scale(0.015625)"/>
     </defs>
     <use xlink:href="#DejaVuSans-4b"/>
     <use xlink:href="#DejaVuSans-4e" x="65.576172"/>
     <use xlink:href="#DejaVuSans-47" x="140.380859"/>
     <use xlink:href="#DejaVuSans-37" x="217.871094"/>
    </g>
    <!-- 215 -->
    <g style="opacity: 0.5" transform="translate(190.82789 104.972721)scale(0.0579 -0.0579)">
     <use xlink:href="#DejaVuSans-32"/>
     <use xlink:href="#DejaVuSans-31" x="63.623047"/>
     <use xlink:href="#DejaVuSans-35" x="127.246094"/>
    </g>
    <!-- GND -->
    <g style="opacity: 0.5" transform="translate(189.715576 111.456254)scale(0.0579 -0.0579)">
     <use xlink:href="#DejaVuSans-47"/>
     <use xlink:href="#DejaVuSans-4e" x="77.490234"/>
     <use xlink:href="#DejaVuSans-44" x="152.294922"/>
    </g>
   </g>
   <g id="text_8">
    <!-- NKRH2 -->
    <g style="opacity: 0.5" transform="translate(139.534133 143.238194)scale(0.0579 -0.0579)">
     <defs>
      <path id="DejaVuSans-52" d="M 2841 2188 
Q 3044 2119 3236 1894 
Q 3428 1669 3622 1275 
L 4263 0 
L 3584 0 
L 2988 1197 
Q 2756 1666 2539 1819 
Q 2322 1972 1947 1972 
L 1259 1972 
L 1259 0 
L 628 0 
L 628 4666 
L 2053 4666 
Q 2853 4666 3247 4331 
Q 3641 3997 3641 3322 
Q 3641 2881 3436 2590 
Q 3231 2300 2841 2188 
z
M 1259 4147 
L 1259 2491 
L 2053 2491 
Q 2509 2491 2742 2702 
Q 2975 2913 2975 3322 
Q 2975 3731 2742 3939 
Q 2509 4147 2053 4147 
L 1259 4147 
z
" transform="scale(0.015625)"/>
      <path id="DejaVuSans-48" d="M 628 4666 
L 1259 4666 
L 1259 2753 
L 3553 2753 
L 3553 4666 
L 4184 4666 
L 4184 0 
L 3553 0 
L 3553 2222 
L 1259 2222 
L 1259 0 
L 628 0 
L 628 4666 
z
" transform="scale(0.015625)"/>
     </defs>
     <use xlink:href="#DejaVuSans-4e"/>
     <use xlink:href="#DejaVuSans-4b" x="74.804688"/>
     <use xlink:href="#DejaVuSans-52" x="140.380859"/>
     <use xlink:href="#DejaVuSans-48" x="209.863281"/>
     <use xlink:href="#DejaVuSans-32" x="285.058594"/>
    </g>
    <!-- 245 -->
    <g style="opacity: 0.5" transform="translate(144.103257 149.721727)scale(0.0579 -0.0579)">
     <use xlink:href="#DejaVuSans-32"/>
     <use xlink:href="#DejaVuSans-34" x="63.623047"/>
     <use xlink:href="#DejaVuSans-35" x="127.246094"/>
    </g>
    <!-- 145 -->
    <g style="opacity: 0.5" transform="translate(144.103257 156.205261)scale(0.0579 -0.0579)">
     <use xlink:href="#DejaVuSans-31"/>
     <use xlink:href="#DejaVuSans-34" x="63.623047"/>
     <use xlink:href="#DejaVuSans-35" x="127.246094"/>
    </g>
   </g>
   <g id="text_9">
    <!-- NKRH4 -->
    <g style="opacity: 0.5" transform="translate(186.258765 98.489187)scale(0.0579 -0.0579)">
     <use xlink:href="#DejaVuSans-4e"/>
     <use xlink:href="#DejaVuSans-4b" x="74.804688"/>
     <use xlink:href="#DejaVuSans-52" x="140.380859"/>
     <use xlink:href="#DejaVuSans-48" x="209.863281"/>
     <use xlink:href="#DejaVuSans-34" x="285.058594"/>
    </g>
    <!-- 245 -->
    <g style="opacity: 0.5" transform="translate(190.82789 104.972721)scale(0.0579 -0.0579)">
     <use xlink:href="#DejaVuSans-32"/>
     <use xlink:href="#DejaVuSans-34" x="63.623047"/>
     <use xlink:href="#DejaVuSans-35" x="127.246094"/>
    </g>
    <!-- 215 -->
    <g style="opacity: 0.5" transform="translate(190.82789 111.456254)scale(0.0579 -0.0579)">
     <use xlink:href="#DejaVuSans-32"/>
     <use xlink:href="#DejaVuSans-31" x="63.623047"/>
     <use xlink:href="#DejaVuSans-35" x="127.246094"/>
    </g>
   </g>
   <g id="text_10">
    <!-- NKRH5 -->
    <g style="opacity: 0.5" transform="translate(163.206375 77.880833)scale(0.0579 -0.0579)">
     <use xlink:href="#DejaVuSans-4e"/>
     <use xlink:href="#DejaVuSans-4b" x="74.804688"/>
     <use xlink:href="#DejaVuSans-52" x="140.380859"/>
     <use xlink:href="#DejaVuSans-48" x="209.863281"/>
     <use xlink:href="#DejaVuSans-35" x="285.058594"/>
    </g>
    <!-- 245 -->
    <g style="opacity: 0.5" transform="translate(167.775499 84.364367)scale(0.0579 -0.0579)">
     <use xlink:href="#DejaVuSans-32"/>
     <use xlink:href="#DejaVuSans-34" x="63.623047"/>
     <use xlink:href="#DejaVuSans-35" x="127.246094"/>
    </g>
    <!-- 115 -->
    <g style="opacity: 0.5" transform="translate(167.775499 90.8479)scale(0.0579 -0.0579)">
     <use xlink:href="#DejaVuSans-31"/>
     <use xlink:href="#DejaVuSans-31" x="63.623047"/>
     <use xlink:href="#DejaVuSans-35" x="127.246094"/>
    </g>
   </g>
   <g id="text_11">
    <!-- NKRL2 -->
    <g style="opacity: 0.5" transform="translate(163.770448 77.880833)scale(0.0579 -0.0579)">
     <defs>
      <path id="DejaVuSans-4c" d="M 628 4666 
L 1259 4666 
L 1259 531 
L 3531 531 
L 3531 0 
L 628 0 
L 628 4666 
z
" transform="scale(0.015625)"/>
     </defs>
     <use xlink:href="#DejaVuSans-4e"/>
     <use xlink:href="#DejaVuSans-4b" x="74.804688"/>
     <use xlink:href="#DejaVuSans-52" x="140.380859"/>
     <use xlink:href="#DejaVuSans-4c" x="209.863281"/>
     <use xlink:href="#DejaVuSans-32" x="265.576172"/>
    </g>
    <!-- 115 -->
    <g style="opacity: 0.5" transform="translate(167.775499 84.364367)scale(0.0579 -0.0579)">
     <use xlink:href="#DejaVuSans-31"/>
     <use xlink:href="#DejaVuSans-31" x="63.623047"/>
     <use xlink:href="#DejaVuSans-35" x="127.246094"/>
    </g>
    <!-- GND -->
    <g style="opacity: 0.5" transform="translate(166.663186 90.8479)scale(0.0579 -0.0579)">
     <use xlink:href="#DejaVuSans-47"/>
     <use xlink:href="#DejaVuSans-4e" x="77.490234"/>
     <use xlink:href="#DejaVuSans-44" x="152.294922"/>
    </g>
   </g>
   <g id="text_12">
    <!-- REU1 -->
    <g style="opacity: 0.5" transform="translate(185.014208 230.844009)scale(0.0579 -0.0579)">
     <defs>
      <path id="DejaVuSans-55" d="M 556 4666 
L 1191 4666 
L 1191 1831 
Q 1191 1081 1462 751 
Q 1734 422 2344 422 
Q 2950 422 3222 751 
Q 3494 1081 3494 1831 
L 3494 4666 
L 4128 4666 
L 4128 1753 
Q 4128 841 3676 375 
Q 3225 -91 2344 -91 
Q 1459 -91 1007 375 
Q 556 841 556 1753 
L 556 4666 
z
" transform="scale(0.015625)"/>
     </defs>
     <use xlink:href="#DejaVuSans-52"/>
     <use xlink:href="#DejaVuSans-45" x="69.482422"/>
     <use xlink:href="#DejaVuSans-55" x="132.666016"/>
     <use xlink:href="#DejaVuSans-31" x="205.859375"/>
    </g>
    <!-- 145 -->
    <g style="opacity: 0.5" transform="translate(187.289949 237.327542)scale(0.0579 -0.0579)">
     <use xlink:href="#DejaVuSans-31"/>
     <use xlink:href="#DejaVuSans-34" x="63.623047"/>
     <use xlink:href="#DejaVuSans-35" x="127.246094"/>
    </g>
    <!-- GND -->
    <g style="opacity: 0.5" transform="translate(186.177636 243.811076)scale(0.0579 -0.0579)">
     <use xlink:href="#DejaVuSans-47"/>
     <use xlink:href="#DejaVuSans-4e" x="77.490234"/>
     <use xlink:href="#DejaVuSans-44" x="152.294922"/>
    </g>
   </g>
   <g id="text_13">
    <!-- STG1 -->
    <g style="opacity: 0.5" transform="translate(202.824846 163.352813)scale(0.0579 -0.0579)">
     <defs>
      <path id="DejaVuSans-53" d="M 3425 4513 
L 3425 3897 
Q 3066 4069 2747 4153 
Q 2428 4238 2131 4238 
Q 1616 4238 1336 4038 
Q 1056 3838 1056 3469 
Q 1056 3159 1242 3001 
Q 1428 2844 1947 2747 
L 2328 2669 
Q 3034 2534 3370 2195 
Q 3706 1856 3706 1288 
Q 3706 609 3251 259 
Q 2797 -91 1919 -91 
Q 1588 -91 1214 -16 
Q 841 59 441 206 
L 441 856 
Q 825 641 1194 531 
Q 1563 422 1919 422 
Q 2459 422 2753 634 
Q 3047 847 3047 1241 
Q 3047 1584 2836 1778 
Q 2625 1972 2144 2069 
L 1759 2144 
Q 1053 2284 737 2584 
Q 422 2884 422 3419 
Q 422 4038 858 4394 
Q 1294 4750 2059 4750 
Q 2388 4750 2728 4690 
Q 3069 4631 3425 4513 
z
" transform="scale(0.015625)"/>
      <path id="DejaVuSans-54" d="M -19 4666 
L 3928 4666 
L 3928 4134 
L 2272 4134 
L 2272 0 
L 1638 0 
L 1638 4134 
L -19 4134 
L -19 4666 
z
" transform="scale(0.015625)"/>
     </defs>
     <use xlink:href="#DejaVuSans-53"/>
     <use xlink:href="#DejaVuSans-54" x="63.476562"/>
     <use xlink:href="#DejaVuSans-47" x="124.560547"/>
     <use xlink:href="#DejaVuSans-31" x="202.050781"/>
    </g>
    <!-- 145 -->
    <g style="opacity: 0.5" transform="translate(204.990216 169.836347)scale(0.0579 -0.0579)">
     <use xlink:href="#DejaVuSans-31"/>
     <use xlink:href="#DejaVuSans-34" x="63.623047"/>
     <use xlink:href="#DejaVuSans-35" x="127.246094"/>
    </g>
    <!-- GND -->
    <g style="opacity: 0.5" transform="translate(203.877902 176.31988)scale(0.0579 -0.0579)">
     <use xlink:href="#DejaVuSans-47"/>
     <use xlink:href="#DejaVuSans-4e" x="77.490234"/>
     <use xlink:href="#DejaVuSans-44" x="152.294922"/>
    </g>
   </g>
   <g id="text_14">
    <!-- TGO133 -->
    <g style="opacity: 0.5" transform="translate(222.029898 221.370315)scale(0.0579 -0.0579)">
     <defs>
      <path id="DejaVuSans-4f" d="M 2522 4238 
Q 1834 4238 1429 3725 
Q 1025 3213 1025 2328 
Q 1025 1447 1429 934 
Q 1834 422 2522 422 
Q 3209 422 3611 934 
Q 4013 1447 4013 2328 
Q 4013 3213 3611 3725 
Q 3209 4238 2522 4238 
z
M 2522 4750 
Q 3503 4750 4090 4092 
Q 4678 3434 4678 2328 
Q 4678 1225 4090 567 
Q 3503 -91 2522 -91 
Q 1538 -91 948 565 
Q 359 1222 359 2328 
Q 359 3434 948 4092 
Q 1538 4750 2522 4750 
z
" transform="scale(0.015625)"/>
     </defs>
     <use xlink:href="#DejaVuSans-54"/>
     <use xlink:href="#DejaVuSans-47" x="61.083984"/>
     <use xlink:href="#DejaVuSans-4f" x="138.574219"/>
     <use xlink:href="#DejaVuSans-31" x="217.285156"/>
     <use xlink:href="#DejaVuSans-33" x="280.908203"/>
     <use xlink:href="#DejaVuSans-33" x="344.53125"/>
    </g>
    <!-- 245 -->
    <g style="opacity: 0.5" transform="translate(228.32019 227.853849)scale(0.0579 -0.0579)">
     <use xlink:href="#DejaVuSans-32"/>
     <use xlink:href="#DejaVuSans-34" x="63.623047"/>
     <use xlink:href="#DejaVuSans-35" x="127.246094"/>
    </g>
    <!-- 235 -->
    <g style="opacity: 0.5" transform="translate(228.32019 234.337382)scale(0.0579 -0.0579)">
     <use xlink:href="#DejaVuSans-32"/>
     <use xlink:href="#DejaVuSans-33" x="63.623047"/>
     <use xlink:href="#DejaVuSans-35" x="127.246094"/>
    </g>
   </g>
   <g id="text_15">
    <!-- LBU1 -->
    <g transform="translate(228.599979 157.106943)scale(0.0579 -0.0579)">
     <use xlink:href="#DejaVuSans-4c"/>
     <use xlink:href="#DejaVuSans-42" x="55.712891"/>
     <use xlink:href="#DejaVuSans-55" x="124.316406"/>
     <use xlink:href="#DejaVuSans-31" x="197.509766"/>
    </g>
    <!-- 245 -->
    <g transform="translate(230.634169 163.590477)scale(0.0579 -0.0579)">
     <use xlink:href="#DejaVuSans-32"/>
     <use xlink:href="#DejaVuSans-34" x="63.623047"/>
     <use xlink:href="#DejaVuSans-35" x="127.246094"/>
    </g>
    <!-- 145 -->
    <g transform="translate(230.634169 170.07401)scale(0.0579 -0.0579)">
     <use xlink:href="#DejaVuSans-31"/>
     <use xlink:href="#DejaVuSans-34" x="63.623047"/>
     <use xlink:href="#DejaVuSans-35" x="127.246094"/>
    </g>
   </g>
   <g id="text_16">
    <!-- LBU2 -->
    <g transform="translate(230.099783 191.558721)scale(0.0579 -0.0579)">
     <use xlink:href="#DejaVuSans-4c"/>
     <use xlink:href="#DejaVuSans-42" x="55.712891"/>
     <use xlink:href="#DejaVuSans-55" x="124.316406"/>
     <use xlink:href="#DejaVuSans-32" x="197.509766"/>
    </g>
    <!-- 235 -->
    <g transform="translate(232.133973 198.042254)scale(0.0579 -0.0579)">
     <use xlink:href="#DejaVuSans-32"/>
     <use xlink:href="#DejaVuSans-33" x="63.623047"/>
     <use xlink:href="#DejaVuSans-35" x="127.246094"/>
    </g>
    <!-- 145 -->
    <g transform="translate(232.133973 204.525788)scale(0.0579 -0.0579)">
     <use xlink:href="#DejaVuSans-31"/>
     <use xlink:href="#DejaVuSans-34" x="63.623047"/>
     <use xlink:href="#DejaVuSans-35" x="127.246094"/>
    </g>
   </g>
  </g>
 </g>
 <defs>
  <clipPath id="p04109a5b35">
   <rect x="89.89462" y="41.472" width="292.530761" height="266.112"/>
  </clipPath>
 </defs>
</svg>
