<?xml version="1.0" encoding="utf-8" standalone="no"?>
<!DOCTYPE svg PUBLIC "-//W3C//DTD SVG 1.1//EN"
  "http://www.w3.org/Graphics/SVG/1.1/DTD/svg11.dtd">
<svg xmlns:xlink="http://www.w3.org/1999/xlink" width="460.8pt" height="345.6pt" viewBox="0 0 460.8 345.6" xmlns="http://www.w3.org/2000/svg" version="1.1">
 <metadata>
  <rdf:RDF xmlns:dc="http://purl.org/dc/elements/1.1/" xmlns:cc="http://creativecommons.org/ns#" xmlns:rdf="http://www.w3.org/1999/02/22-rdf-syntax-ns#">
   <cc:Work>
    <dc:type rdf:resource="http://purl.org/dc/dcmitype/StillImage"/>
    <dc:date>2022-07-22T18:55:35.106741</dc:date>
    <dc:format>image/svg+xml</dc:format>
    <dc:creator>
     <cc:Agent>
      <dc:title>Matplotlib v3.5.0, https://matplotlib.org/</dc:title>
     </cc:Agent>
    </dc:creator>
   </cc:Work>
  </rdf:RDF>
 </metadata>
 <defs>
  <style type="text/css">*{stroke-linejoin: round; stroke-linecap: butt}</style>
 </defs>
 <g id="figure_1">
  <g id="patch_1">
   <path d="M 0 345.6 
L 460.8 345.6 
L 460.8 0 
L 0 0 
z
" style="fill: #ffffff"/>
  </g>
  <g id="axes_1">
   <g id="patch_2">
    <path d="M 245.517605 144.523631 
L 254.355933 151.928778 
L 246.256627 157.804248 
L 253.646054 166.166379 
L 230.594183 184.963589 
L 224.166617 190.222828 
L 217.340182 191.348083 
L 195.191863 189.078417 
L 187.828682 192.86813 
L 185.123272 194.265186 
L 182.04273 190.646701 
L 182.451281 179.336027 
L 182.746106 170.921297 
L 182.825629 169.336525 
L 182.371639 166.791924 
L 194.750422 150.498834 
L 204.329049 163.562314 
L 220.450929 152.018914 
L 230.217209 145.205153 
z
" clip-path="url(#p6e3c4fc46b)" style="fill: #ffedd9; stroke: #ffedd9; stroke-linejoin: miter"/>
   </g>
   <g id="patch_3">
    <path d="M 230.51365 124.128 
L 238.253581 134.655695 
L 245.517605 144.523631 
L 230.217209 145.205153 
L 220.450929 152.018914 
L 204.329049 163.562314 
L 194.750422 150.498834 
L 210.707129 138.738354 
z
" clip-path="url(#p6e3c4fc46b)" style="fill: #ffedd9; stroke: #ffedd9; stroke-linejoin: miter"/>
   </g>
   <g id="patch_4">
    <path d="M 254.355933 151.928778 
L 258.537373 155.424505 
L 286.755886 199.617555 
L 277.034338 205.105073 
L 278.791354 208.74773 
L 263.83688 208.802213 
L 240.479846 208.973034 
L 239.131652 205.689172 
L 236.925764 200.317511 
L 230.594183 184.963589 
L 253.646054 166.166379 
L 246.256627 157.804248 
z
" clip-path="url(#p6e3c4fc46b)" style="fill: #ffedd9; stroke: #ffedd9; stroke-linejoin: miter"/>
   </g>
   <g id="patch_5">
    <path d="M 286.755886 199.617555 
L 288.061514 201.637885 
L 296.259723 220.586463 
L 285.698874 224.928 
L 281.640189 214.959252 
L 263.83688 208.802213 
L 278.791354 208.74773 
L 277.034338 205.105073 
z
" clip-path="url(#p6e3c4fc46b)" style="fill: #ffedd9; stroke: #ffedd9; stroke-linejoin: miter"/>
   </g>
   <g id="patch_6">
    <path d="M 281.678114 191.655804 
L 286.755886 199.617555 
L 288.061514 201.637885 
L 296.259723 220.586463 
L 285.698874 224.928 
L 281.640189 214.959252 
L 263.83688 208.802213 
L 240.479846 208.973034 
L 235.630089 208.961362 
L 233.294888 209.412854 
L 246.308367 201.092609 
L 255.323803 198.673992 
z
" clip-path="url(#p6e3c4fc46b)" style="fill: #ffedd9; stroke: #ffedd9; stroke-linejoin: miter"/>
   </g>
   <g id="patch_7">
    <path d="M 230.594183 184.963589 
L 236.925764 200.317511 
L 239.131652 205.689172 
L 240.479846 208.973034 
L 235.630089 208.961362 
L 233.294888 209.412854 
L 219.921102 212.843994 
L 202.969409 219.093885 
L 185.123272 194.265186 
L 187.828682 192.86813 
L 195.191863 189.078417 
L 217.340182 191.348083 
L 224.166617 190.222828 
z
" clip-path="url(#p6e3c4fc46b)" style="fill: #ffedd9; stroke: #ffedd9; stroke-linejoin: miter"/>
   </g>
   <g id="patch_8">
    <path d="M 182.746106 170.921297 
L 182.451281 179.336027 
L 178.567082 180.973516 
L 178.840722 179.393939 
L 178.060027 178.274541 
L 176.627189 176.313477 
L 176.060277 175.168995 
L 178.426544 171.051873 
z
" clip-path="url(#p6e3c4fc46b)" style="fill: #ffedd9; stroke: #ffedd9; stroke-linejoin: miter"/>
   </g>
   <g id="patch_9">
    <path d="M 233.294888 209.412854 
L 237.569824 198.710463 
L 255.323803 198.673992 
L 246.308367 201.092609 
z
" clip-path="url(#p6e3c4fc46b)" style="fill: #ffedd9; stroke: #ffedd9; stroke-linejoin: miter"/>
   </g>
   <g id="patch_10">
    <path d="M 245.517605 144.523631 
L 254.355933 151.928778 
L 246.256627 157.804248 
L 253.646054 166.166379 
L 230.594183 184.963589 
L 224.166617 190.222828 
L 217.340182 191.348083 
L 195.191863 189.078417 
L 187.828682 192.86813 
L 185.123272 194.265186 
L 182.04273 190.646701 
L 182.451281 179.336027 
L 182.746106 170.921297 
L 182.825629 169.336525 
L 182.371639 166.791924 
L 194.750422 150.498834 
L 204.329049 163.562314 
L 220.450929 152.018914 
L 230.217209 145.205153 
L 245.517605 144.523631 
z
" clip-path="url(#p6e3c4fc46b)" style="fill: #ffedd9; stroke: #ffedd9; stroke-linejoin: miter"/>
   </g>
   <g id="patch_11">
    <path d="M 230.51365 124.128 
L 238.253581 134.655695 
L 245.517605 144.523631 
L 230.217209 145.205153 
L 220.450929 152.018914 
L 204.329049 163.562314 
L 194.750422 150.498834 
L 210.707129 138.738354 
L 230.51365 124.128 
z
" clip-path="url(#p6e3c4fc46b)" style="fill: #ffedd9; stroke: #ffedd9; stroke-linejoin: miter"/>
   </g>
   <g id="patch_12">
    <path d="M 254.355933 151.928778 
L 258.537373 155.424505 
L 286.755886 199.617555 
L 277.034338 205.105073 
L 278.791354 208.74773 
L 263.83688 208.802213 
L 240.479846 208.973034 
L 239.131652 205.689172 
L 236.925764 200.317511 
L 230.594183 184.963589 
L 253.646054 166.166379 
L 246.256627 157.804248 
L 254.355933 151.928778 
z
" clip-path="url(#p6e3c4fc46b)" style="fill: #ffedd9; stroke: #ffedd9; stroke-linejoin: miter"/>
   </g>
   <g id="patch_13">
    <path d="M 286.755886 199.617555 
L 288.061514 201.637885 
L 296.259723 220.586463 
L 285.698874 224.928 
L 281.640189 214.959252 
L 263.83688 208.802213 
L 278.791354 208.74773 
L 277.034338 205.105073 
L 286.755886 199.617555 
z
" clip-path="url(#p6e3c4fc46b)" style="fill: #ffedd9; stroke: #ffedd9; stroke-linejoin: miter"/>
   </g>
   <g id="patch_14">
    <path d="M 281.678114 191.655804 
L 286.755886 199.617555 
L 288.061514 201.637885 
L 296.259723 220.586463 
L 285.698874 224.928 
L 281.640189 214.959252 
L 263.83688 208.802213 
L 240.479846 208.973034 
L 235.630089 208.961362 
L 233.294888 209.412854 
L 246.308367 201.092609 
L 255.323803 198.673992 
L 281.678114 191.655804 
z
" clip-path="url(#p6e3c4fc46b)" style="fill: #ffedd9; stroke: #ffedd9; stroke-linejoin: miter"/>
   </g>
   <g id="patch_15">
    <path d="M 230.594183 184.963589 
L 236.925764 200.317511 
L 239.131652 205.689172 
L 240.479846 208.973034 
L 235.630089 208.961362 
L 233.294888 209.412854 
L 219.921102 212.843994 
L 202.969409 219.093885 
L 185.123272 194.265186 
L 187.828682 192.86813 
L 195.191863 189.078417 
L 217.340182 191.348083 
L 224.166617 190.222828 
L 230.594183 184.963589 
z
" clip-path="url(#p6e3c4fc46b)" style="fill: #ffedd9; stroke: #ffedd9; stroke-linejoin: miter"/>
   </g>
   <g id="patch_16">
    <path d="M 182.746106 170.921297 
L 182.451281 179.336027 
L 178.567082 180.973516 
L 178.840722 179.393939 
L 178.060027 178.274541 
L 176.627189 176.313477 
L 176.060277 175.168995 
L 178.426544 171.051873 
L 182.746106 170.921297 
z
" clip-path="url(#p6e3c4fc46b)" style="fill: #ffedd9; stroke: #ffedd9; stroke-linejoin: miter"/>
   </g>
   <g id="patch_17">
    <path d="M 233.294888 209.412854 
L 237.569824 198.710463 
L 255.323803 198.673992 
L 246.308367 201.092609 
L 233.294888 209.412854 
z
" clip-path="url(#p6e3c4fc46b)" style="fill: #ffedd9; stroke: #ffedd9; stroke-linejoin: miter"/>
   </g>
   <g id="line2d_1">
    <path d="M 245.517605 144.523631 
L 254.355933 151.928778 
L 246.256627 157.804248 
L 253.646054 166.166379 
L 230.594183 184.963589 
L 224.166617 190.222828 
L 217.340182 191.348083 
L 195.191863 189.078417 
L 187.828682 192.86813 
L 185.123272 194.265186 
L 182.04273 190.646701 
L 182.451281 179.336027 
L 182.746106 170.921297 
L 182.825629 169.336525 
L 182.371639 166.791924 
L 194.750422 150.498834 
L 204.329049 163.562314 
L 220.450929 152.018914 
L 230.217209 145.205153 
L 245.517605 144.523631 
" clip-path="url(#p6e3c4fc46b)" style="fill: none; stroke: #ffc380; stroke-width: 0.5; stroke-linecap: square"/>
   </g>
   <g id="line2d_2">
    <path d="M 230.51365 124.128 
L 238.253581 134.655695 
L 245.517605 144.523631 
L 230.217209 145.205153 
L 220.450929 152.018914 
L 204.329049 163.562314 
L 194.750422 150.498834 
L 210.707129 138.738354 
L 230.51365 124.128 
" clip-path="url(#p6e3c4fc46b)" style="fill: none; stroke: #ffc380; stroke-width: 0.5; stroke-linecap: square"/>
   </g>
   <g id="line2d_3">
    <path d="M 254.355933 151.928778 
L 258.537373 155.424505 
L 286.755886 199.617555 
L 277.034338 205.105073 
L 278.791354 208.74773 
L 263.83688 208.802213 
L 240.479846 208.973034 
L 239.131652 205.689172 
L 236.925764 200.317511 
L 230.594183 184.963589 
L 253.646054 166.166379 
L 246.256627 157.804248 
L 254.355933 151.928778 
" clip-path="url(#p6e3c4fc46b)" style="fill: none; stroke: #ffc380; stroke-width: 0.5; stroke-linecap: square"/>
   </g>
   <g id="line2d_4">
    <path d="M 286.755886 199.617555 
L 288.061514 201.637885 
L 296.259723 220.586463 
L 285.698874 224.928 
L 281.640189 214.959252 
L 263.83688 208.802213 
L 278.791354 208.74773 
L 277.034338 205.105073 
L 286.755886 199.617555 
" clip-path="url(#p6e3c4fc46b)" style="fill: none; stroke: #ffc380; stroke-width: 0.5; stroke-linecap: square"/>
   </g>
   <g id="line2d_5">
    <path d="M 281.678114 191.655804 
L 286.755886 199.617555 
L 288.061514 201.637885 
L 296.259723 220.586463 
L 285.698874 224.928 
L 281.640189 214.959252 
L 263.83688 208.802213 
L 240.479846 208.973034 
L 235.630089 208.961362 
L 233.294888 209.412854 
L 246.308367 201.092609 
L 255.323803 198.673992 
L 281.678114 191.655804 
" clip-path="url(#p6e3c4fc46b)" style="fill: none; stroke: #ffc380; stroke-width: 0.5; stroke-linecap: square"/>
   </g>
   <g id="line2d_6">
    <path d="M 230.594183 184.963589 
L 236.925764 200.317511 
L 239.131652 205.689172 
L 240.479846 208.973034 
L 235.630089 208.961362 
L 233.294888 209.412854 
L 219.921102 212.843994 
L 202.969409 219.093885 
L 185.123272 194.265186 
L 187.828682 192.86813 
L 195.191863 189.078417 
L 217.340182 191.348083 
L 224.166617 190.222828 
L 230.594183 184.963589 
" clip-path="url(#p6e3c4fc46b)" style="fill: none; stroke: #ffc380; stroke-width: 0.5; stroke-linecap: square"/>
   </g>
   <g id="line2d_7">
    <path d="M 182.746106 170.921297 
L 182.451281 179.336027 
L 178.567082 180.973516 
L 178.840722 179.393939 
L 178.060027 178.274541 
L 176.627189 176.313477 
L 176.060277 175.168995 
L 178.426544 171.051873 
L 182.746106 170.921297 
" clip-path="url(#p6e3c4fc46b)" style="fill: none; stroke: #ffc380; stroke-width: 0.5; stroke-linecap: square"/>
   </g>
   <g id="line2d_8">
    <path d="M 233.294888 209.412854 
L 237.569824 198.710463 
L 255.323803 198.673992 
L 246.308367 201.092609 
L 233.294888 209.412854 
" clip-path="url(#p6e3c4fc46b)" style="fill: none; stroke: #ffc380; stroke-width: 0.5; stroke-linecap: square"/>
   </g>
   <g id="line2d_9">
    <path d="M 188.680008 89.835559 
L 204.144885 90.171804 
L 213.615724 88.755703 
L 226.287313 79.629578 
L 246.092881 60.629958 
L 259.715056 70.778818 
L 234.221576 89.620321 
L 229.708119 93.084514 
L 222.638837 98.161141 
L 220.014156 100.141091 
L 206.597369 110.060554 
L 193.845171 119.47359 
L 194.481605 140.819275 
L 194.750422 150.498834 
L 182.371639 166.791924 
L 181.651942 162.653466 
L 180.5827 161.618353 
L 178.470002 158.913341 
L 175.753909 156.026116 
L 171.575665 156.337477 
L 169.492219 151.242688 
L 175.324995 146.462116 
L 178.431064 144.349245 
L 190.370239 136.661237 
L 186.778917 134.130246 
L 183.482323 135.846213 
L 183.115437 127.902051 
L 184.16861 127.07492 
L 194.336746 114.083972 
L 194.436935 109.905581 
L 194.600078 103.104188 
L 188.680008 89.835559 
" clip-path="url(#p6e3c4fc46b)" style="fill: none; stroke: #8f8f8f; stroke-width: 0.2; stroke-linecap: square"/>
   </g>
   <g id="line2d_10">
    <path d="M 206.597369 110.060554 
L 220.014156 100.141091 
L 222.638837 98.161141 
L 229.708119 93.084514 
L 234.221576 89.620321 
L 259.715056 70.778818 
L 261.9815 72.45129 
L 275.850018 83.44252 
L 280.53655 87.13868 
L 287.549466 103.016229 
L 292.455748 114.298084 
L 285.82435 115.147619 
L 278.355886 120.68027 
L 260.522573 133.512699 
L 257.480068 135.453987 
L 254.429171 137.89675 
L 245.517605 144.523631 
L 238.253581 134.655695 
L 230.51365 124.128 
L 210.707129 138.738354 
L 194.750422 150.498834 
L 194.481605 140.819275 
L 206.597369 110.060554 
" clip-path="url(#p6e3c4fc46b)" style="fill: none; stroke: #8f8f8f; stroke-width: 0.2; stroke-linecap: square"/>
   </g>
   <g id="line2d_11">
    <path d="M 304.256027 141.274511 
L 317.33467 160.291343 
L 320.797681 165.352731 
L 325.401186 169.250723 
L 314.332908 174.139338 
L 318.612847 180.513903 
L 305.093405 188.799498 
L 296.631314 193.990529 
L 296.301742 194.202798 
L 286.755886 199.617555 
L 277.034338 205.105073 
L 278.791354 208.74773 
L 263.83688 208.802213 
L 240.479846 208.973034 
L 239.131652 205.689172 
L 236.925764 200.317511 
L 230.594183 184.963589 
L 253.646054 166.166379 
L 246.256627 157.804248 
L 254.355933 151.928778 
L 265.756456 143.603318 
L 271.638399 143.352697 
L 282.653335 142.856853 
L 299.946554 142.086371 
L 304.256027 141.274511 
" clip-path="url(#p6e3c4fc46b)" style="fill: none; stroke: #8f8f8f; stroke-width: 0.2; stroke-linecap: square"/>
   </g>
   <g id="line2d_12">
    <path d="M 230.594183 184.963589 
L 236.925764 200.317511 
L 239.131652 205.689172 
L 240.479846 208.973034 
L 235.630089 208.961362 
L 233.294888 209.412854 
L 219.921102 212.843994 
L 202.969409 219.093885 
L 185.123272 194.265186 
L 187.828682 192.86813 
L 195.191863 189.078417 
L 217.340182 191.348083 
L 224.166617 190.222828 
L 230.594183 184.963589 
" clip-path="url(#p6e3c4fc46b)" style="fill: none; stroke: #8f8f8f; stroke-width: 0.2; stroke-linecap: square"/>
   </g>
   <g id="line2d_13">
    <path d="M 265.756456 143.603318 
L 254.355933 151.928778 
L 246.256627 157.804248 
L 253.646054 166.166379 
L 230.594183 184.963589 
L 224.166617 190.222828 
L 217.340182 191.348083 
L 195.191863 189.078417 
L 187.828682 192.86813 
L 185.123272 194.265186 
L 182.04273 190.646701 
L 182.451281 179.336027 
L 204.329049 163.562314 
L 220.450929 152.018914 
L 230.217209 145.205153 
L 245.517605 144.523631 
L 265.756456 143.603318 
" clip-path="url(#p6e3c4fc46b)" style="fill: none; stroke: #8f8f8f; stroke-width: 0.2; stroke-linecap: square"/>
   </g>
   <g id="line2d_14">
    <path d="M 206.597369 110.060554 
L 220.014156 100.141091 
L 234.221576 89.620321 
L 259.715056 70.778818 
L 275.850018 83.44252 
L 268.570077 98.846829 
L 271.061334 109.059009 
L 274.760896 114.947718 
L 278.355886 120.68027 
L 260.522573 133.512699 
L 254.429171 137.89675 
L 245.517605 144.523631 
L 230.217209 145.205153 
L 220.450929 152.018914 
L 204.329049 163.562314 
L 194.750422 150.498834 
L 194.481605 140.819275 
L 206.597369 110.060554 
L 206.597369 110.060554 
" clip-path="url(#p6e3c4fc46b)" style="fill: none; stroke: #8f8f8f; stroke-width: 0.2; stroke-linecap: square"/>
   </g>
   <g id="line2d_15">
    <path d="M 245.517605 144.523631 
L 265.756456 143.603318 
L 254.355933 151.928778 
L 245.517605 144.523631 
" clip-path="url(#p6e3c4fc46b)" style="fill: none; stroke: #8f8f8f; stroke-width: 0.2; stroke-linecap: square"/>
   </g>
   <g id="line2d_16">
    <path d="M 115.366864 108.613698 
L 119.31567 113.898434 
L 119.825937 115.994571 
L 119.372746 117.351126 
L 121.294353 118.005291 
L 121.570516 117.771591 
L 123.918091 116.76167 
L 126.724915 118.760073 
L 125.448364 122.773261 
L 126.240244 123.566176 
L 129.132513 123.367894 
L 136.439084 123.111979 
L 138.849218 123.562817 
L 140.303098 121.842566 
L 143.214389 119.89693 
L 145.464758 120.522417 
L 147.527507 123.369124 
L 148.143954 124.946347 
L 148.082605 127.386431 
L 148.202206 128.397737 
L 158.310411 133.482289 
L 162.701457 133.158912 
L 163.036578 133.473584 
L 163.306834 134.672041 
L 166.485575 135.254511 
L 168.470831 137.418216 
L 167.433502 138.853142 
L 162.266603 147.002188 
L 162.208972 148.282362 
L 161.614544 148.905431 
L 161.728552 149.580342 
L 162.521142 150.672397 
L 161.895046 153.613267 
L 160.514671 155.434334 
L 158.711619 157.210692 
L 158.628768 158.032244 
L 159.064948 158.228727 
L 160.030918 158.075032 
L 160.423 159.094136 
L 159.42961 160.772851 
L 158.885778 162.832027 
L 157.853649 163.160535 
L 155.715011 166.030241 
L 154.420952 166.509561 
L 153.624926 166.359359 
L 153.203625 167.489736 
L 152.276454 169.630509 
L 152.394435 170.162915 
L 152.903317 171.596835 
L 152.986341 172.293547 
L 152.187062 173.479957 
L 149.403881 180.542377 
L 164.249223 185.944067 
L 178.567082 180.973516 
L 182.451281 179.336027 
L 182.04273 190.646701 
L 185.123272 194.265186 
L 172.05724 202.677155 
L 199.882658 227.630191 
L 191.340254 235.48872 
L 191.314951 235.732217 
L 190.353452 249.836511 
L 184.958047 249.704786 
L 184.965649 249.399841 
L 184.100564 248.798447 
L 183.476342 247.958874 
L 183.912026 246.962894 
L 183.57802 246.25267 
L 183.983298 245.683113 
L 183.101739 244.989573 
L 181.212724 244.72782 
L 181.048587 245.791602 
L 180.743013 246.271969 
L 180.169378 246.531796 
L 179.73957 246.520663 
L 179.224784 246.019051 
L 178.006108 245.529449 
L 177.645424 245.123265 
L 177.506649 243.715918 
L 177.199871 243.494209 
L 176.828077 243.514879 
L 175.126781 244.29341 
L 173.623082 244.252844 
L 172.748852 244.778349 
L 172.848996 246.123781 
L 173.041031 246.251075 
L 172.635332 246.789304 
L 172.323819 248.886398 
L 169.401296 249.873778 
L 168.50617 250.398044 
L 167.974656 251.207065 
L 167.892811 252.028718 
L 167.285137 253.445875 
L 167.417537 254.304091 
L 167.267651 254.757613 
L 166.806358 255.141282 
L 166.161441 255.092449 
L 165.181596 255.796889 
L 164.927491 256.46099 
L 164.992674 256.920622 
L 165.769201 257.858349 
L 165.797059 258.255868 
L 164.944947 259.269102 
L 164.953172 259.666066 
L 164.373189 260.748047 
L 162.544278 261.610671 
L 162.278898 261.969159 
L 162.532016 263.38036 
L 162.788709 263.998179 
L 163.522143 264.416156 
L 163.074244 265.654428 
L 162.177651 266.116667 
L 161.745336 266.134572 
L 161.461867 266.431464 
L 161.583989 266.953847 
L 161.161381 267.307691 
L 160.343858 267.070029 
L 159.691188 267.233863 
L 159.22829 267.616885 
L 158.604385 268.788565 
L 158.851864 269.711497 
L 158.454474 270.523675 
L 157.933239 270.874341 
L 157.852031 272.275788 
L 155.808143 274.228552 
L 156.825247 275.052753 
L 157.725205 275.201824 
L 158.439329 275.650399 
L 159.12308 276.464198 
L 159.322973 277.019454 
L 158.742233 277.368462 
L 157.392636 277.114572 
L 157.049412 277.40947 
L 157.509695 278.460918 
L 156.826725 278.928744 
L 156.804734 279.660545 
L 156.567365 280.355351 
L 155.984241 280.765046 
L 156.642258 281.792011 
L 156.543822 283.101382 
L 156.785846 283.566443 
L 156.467295 284.991279 
L 156.840782 285.673921 
L 159.492602 285.935914 
L 139.944352 297.319011 
L 123.581304 297.576784 
L 121.632484 295.765858 
L 114.670263 292.911859 
L 111.322651 290.646836 
L 102.600405 283.280846 
L 93.411638 282.903152 
L 93.657715 276.103727 
L 94.844659 262.808904 
L 73.63473 262.793474 
L 67.625119 265.263164 
L 115.366864 108.613698 
L 115.366864 108.613698 
" clip-path="url(#p6e3c4fc46b)" style="fill: none; stroke: #8f8f8f; stroke-width: 0.2; stroke-linecap: square"/>
   </g>
   <g id="line2d_17">
    <path d="M 204.207153 304.45691 
L 209.940548 285.505954 
L 198.606083 278.097204 
L 188.901469 271.1604 
L 189.048703 269.119602 
L 189.621742 260.772945 
L 190.353452 249.836511 
L 190.742177 244.201006 
L 191.314951 235.732217 
L 191.340254 235.48872 
L 199.882658 227.630191 
L 202.969409 219.093885 
L 185.123272 194.265186 
L 182.04273 190.646701 
L 182.451281 179.336027 
L 178.567082 180.973516 
L 178.840722 179.393939 
L 178.060027 178.274541 
L 176.627189 176.313477 
L 176.060277 175.168995 
L 178.426544 171.051873 
L 182.746106 170.921297 
L 182.825629 169.336525 
L 182.371639 166.791924 
L 181.651942 162.653466 
L 180.5827 161.618353 
L 178.470002 158.913341 
L 175.753909 156.026116 
L 171.575665 156.337477 
L 169.492219 151.242688 
L 175.324995 146.462116 
L 178.431064 144.349245 
L 190.370239 136.661237 
L 186.778917 134.130246 
L 183.482323 135.846213 
L 183.115437 127.902051 
L 184.16861 127.07492 
L 175.280087 126.562367 
L 148.143954 124.946347 
L 147.527507 123.369124 
L 145.464758 120.522417 
L 143.214389 119.89693 
L 140.303098 121.842566 
L 138.849218 123.562817 
L 136.439084 123.111979 
L 129.132513 123.367894 
L 126.240244 123.566176 
L 125.448364 122.773261 
L 126.724915 118.760073 
L 123.918091 116.76167 
L 121.570516 117.771591 
L 121.294353 118.005291 
L 119.372746 117.351126 
L 119.825937 115.994571 
L 119.31567 113.898434 
L 115.366864 108.613698 
L 67.625119 265.263164 
L 73.63473 262.793474 
L 94.844659 262.808904 
L 93.657715 276.103727 
L 93.411638 282.903152 
L 102.600405 283.280846 
L 111.322651 290.646836 
L 114.670263 292.911859 
L 121.632484 295.765858 
L 123.581304 297.576784 
L 125.223585 300.810748 
L 129.102721 303.481941 
L 129.899239 304.456118 
L 132.487515 306.255253 
L 133.904027 309.966803 
L 134.577779 312.279107 
L 134.42845 315.509681 
L 155.72857 313.535331 
L 160.462596 312.820696 
L 161.015975 313.538702 
L 161.668916 313.557599 
L 162.518142 315.016411 
L 169.654962 320.47823 
L 173.28484 323.49295 
L 177.280951 322.377313 
L 181.548874 321.418161 
L 186.555644 319.344592 
L 189.478442 318.102449 
L 198.227415 322.970434 
L 201.261805 322.944767 
L 201.856391 322.957472 
L 206.613116 323.056735 
L 207.656867 324.389869 
L 212.613073 324.487803 
L 210.177509 318.277373 
L 204.207153 304.45691 
" clip-path="url(#p6e3c4fc46b)" style="fill: none; stroke: #8f8f8f; stroke-width: 0.2; stroke-linecap: square"/>
   </g>
   <g id="line2d_18">
    <path d="M 158.310411 133.482289 
L 163.507109 136.936652 
L 163.338557 139.501857 
L 162.875907 146.718592 
L 162.521142 150.672397 
L 161.895046 153.613267 
L 160.514671 155.434334 
L 158.711619 157.210692 
L 158.628768 158.032244 
L 159.064948 158.228727 
L 160.030918 158.075032 
L 160.423 159.094136 
L 159.42961 160.772851 
L 158.885778 162.832027 
L 157.853649 163.160535 
L 155.715011 166.030241 
L 154.420952 166.509561 
L 153.624926 166.359359 
L 153.203625 167.489736 
L 152.276454 169.630509 
L 152.394435 170.162915 
L 152.903317 171.596835 
L 152.986341 172.293547 
L 152.187062 173.479957 
L 156.272667 176.362754 
L 158.510868 177.624943 
L 159.519914 178.722341 
L 163.677257 180.433723 
L 164.870626 180.560345 
L 169.450781 181.08909 
L 171.18376 181.260044 
L 177.017942 181.145676 
L 178.567082 180.973516 
L 182.825629 169.336525 
L 182.371639 166.791924 
L 181.651942 162.653466 
L 178.431064 144.349245 
L 176.590571 133.691094 
L 162.701457 133.158912 
L 158.310411 133.482289 
" clip-path="url(#p6e3c4fc46b)" style="fill: none; stroke: #8f8f8f; stroke-width: 0.2; stroke-linecap: square"/>
   </g>
   <g id="line2d_19">
    <path d="M 148.143954 124.946347 
L 148.082605 127.386431 
L 148.202206 128.397737 
L 154.713373 131.660469 
L 158.310411 133.482289 
L 162.701457 133.158912 
L 163.036578 133.473584 
L 163.306834 134.672041 
L 166.485575 135.254511 
L 168.470831 137.418216 
L 167.433502 138.853142 
L 162.266603 147.002188 
L 162.208972 148.282362 
L 161.614544 148.905431 
L 161.728552 149.580342 
L 162.521142 150.672397 
L 161.895046 153.613267 
L 160.514671 155.434334 
L 158.711619 157.210692 
L 158.628768 158.032244 
L 159.064948 158.228727 
L 160.030918 158.075032 
L 160.423 159.094136 
L 159.42961 160.772851 
L 158.885778 162.832027 
L 157.853649 163.160535 
L 155.715011 166.030241 
L 154.420952 166.509561 
L 153.624926 166.359359 
L 153.203625 167.489736 
L 152.276454 169.630509 
L 152.394435 170.162915 
L 152.903317 171.596835 
L 152.986341 172.293547 
L 153.316678 172.822869 
L 156.471897 174.294974 
L 156.63306 174.696739 
L 156.294141 175.052513 
L 156.272667 176.362754 
L 156.490133 178.690951 
L 159.519914 178.722341 
L 163.677257 180.433723 
L 164.870626 180.560345 
L 166.207928 179.713642 
L 167.587162 179.420207 
L 171.18376 181.260044 
L 172.250859 180.375846 
L 177.022045 180.993202 
L 177.330768 180.999975 
L 178.567082 180.973516 
L 178.840722 179.393939 
L 178.060027 178.274541 
L 176.627189 176.313477 
L 176.060277 175.168995 
L 179.122277 173.877325 
L 179.062019 173.235487 
L 178.8254 172.710107 
L 178.426544 171.051873 
L 182.825629 169.336525 
L 182.371639 166.791924 
L 181.651942 162.653466 
L 180.5827 161.618353 
L 175.753909 156.026116 
L 171.575665 156.337477 
L 169.492219 151.242688 
L 175.324995 146.462116 
L 178.431064 144.349245 
L 175.280087 126.562367 
L 148.143954 124.946347 
" clip-path="url(#p6e3c4fc46b)" style="fill: none; stroke: #8f8f8f; stroke-width: 0.2; stroke-linecap: square"/>
   </g>
   <g id="line2d_20">
    <path d="M 235.630089 208.961362 
L 240.479846 208.973034 
L 263.83688 208.802213 
L 281.640189 214.959252 
L 285.698874 224.928 
L 290.678481 237.155051 
L 293.553637 244.244418 
L 293.933422 260.777557 
L 266.01261 251.222367 
L 258.256443 250.593835 
L 243.371731 249.524614 
L 240.519217 234.475988 
L 235.630089 208.961362 
" clip-path="url(#p6e3c4fc46b)" style="fill: none; stroke: #8f8f8f; stroke-width: 0.2; stroke-linecap: square"/>
   </g>
   <g id="line2d_21">
    <path d="M 263.83688 208.802213 
L 278.791354 208.74773 
L 281.640189 214.959252 
L 263.83688 208.802213 
" clip-path="url(#p6e3c4fc46b)" style="fill: none; stroke: #8f8f8f; stroke-width: 0.2; stroke-linecap: square"/>
   </g>
   <g id="line2d_22">
    <path d="M 199.882658 227.630191 
L 202.969409 219.093885 
L 219.921102 212.843994 
L 233.294888 209.412854 
L 235.630089 208.961362 
L 240.519217 234.475988 
L 243.371731 249.524614 
L 236.322973 248.934389 
L 190.353452 249.836511 
L 190.742177 244.201006 
L 191.314951 235.732217 
L 191.340254 235.48872 
L 199.882658 227.630191 
" clip-path="url(#p6e3c4fc46b)" style="fill: none; stroke: #8f8f8f; stroke-width: 0.2; stroke-linecap: square"/>
   </g>
   <g id="line2d_23">
    <path d="M 271.638399 143.352697 
L 284.973179 148.697747 
L 305.093405 188.799498 
L 296.631314 193.990529 
L 296.301742 194.202798 
L 286.755886 199.617555 
L 258.537373 155.424505 
L 254.355933 151.928778 
L 265.756456 143.603318 
L 271.638399 143.352697 
" clip-path="url(#p6e3c4fc46b)" style="fill: none; stroke: #8f8f8f; stroke-width: 0.2; stroke-linecap: square"/>
   </g>
   <g id="line2d_24">
    <path d="M 286.755886 199.617555 
L 288.061514 201.637885 
L 296.259723 220.586463 
L 285.698874 224.928 
L 281.640189 214.959252 
L 278.791354 208.74773 
L 277.034338 205.105073 
L 286.755886 199.617555 
" clip-path="url(#p6e3c4fc46b)" style="fill: none; stroke: #8f8f8f; stroke-width: 0.2; stroke-linecap: square"/>
   </g>
   <g id="line2d_25">
    <path d="M 182.825629 169.336525 
L 182.746106 170.921297 
L 182.451281 179.336027 
L 178.567082 180.973516 
L 178.840722 179.393939 
L 178.060027 178.274541 
L 176.627189 176.313477 
L 176.060277 175.168995 
L 179.122277 173.877325 
L 179.062019 173.235487 
L 178.8254 172.710107 
L 178.426544 171.051873 
L 182.825629 169.336525 
" clip-path="url(#p6e3c4fc46b)" style="fill: none; stroke: #8f8f8f; stroke-width: 0.2; stroke-linecap: square"/>
   </g>
   <g id="line2d_26">
    <path d="M 245.517605 144.523631 
L 254.355933 151.928778 
L 246.256627 157.804248 
L 253.646054 166.166379 
L 230.594183 184.963589 
L 224.166617 190.222828 
L 217.340182 191.348083 
L 195.191863 189.078417 
L 187.828682 192.86813 
L 185.123272 194.265186 
L 182.04273 190.646701 
L 182.451281 179.336027 
L 182.746106 170.921297 
L 182.825629 169.336525 
L 182.371639 166.791924 
L 194.750422 150.498834 
L 204.329049 163.562314 
L 220.450929 152.018914 
L 230.217209 145.205153 
L 245.517605 144.523631 
L 245.517605 144.523631 
" clip-path="url(#p6e3c4fc46b)" style="fill: none; stroke: #ffc380; stroke-width: 0.5; stroke-linecap: square"/>
   </g>
   <g id="line2d_27">
    <path d="M 230.51365 124.128 
L 238.253581 134.655695 
L 245.517605 144.523631 
L 230.217209 145.205153 
L 220.450929 152.018914 
L 204.329049 163.562314 
L 194.750422 150.498834 
L 210.707129 138.738354 
L 230.51365 124.128 
L 230.51365 124.128 
" clip-path="url(#p6e3c4fc46b)" style="fill: none; stroke: #ffc380; stroke-width: 0.5; stroke-linecap: square"/>
   </g>
   <g id="line2d_28">
    <path d="M 254.355933 151.928778 
L 258.537373 155.424505 
L 286.755886 199.617555 
L 277.034338 205.105073 
L 278.791354 208.74773 
L 263.83688 208.802213 
L 240.479846 208.973034 
L 239.131652 205.689172 
L 236.925764 200.317511 
L 230.594183 184.963589 
L 253.646054 166.166379 
L 246.256627 157.804248 
L 254.355933 151.928778 
L 254.355933 151.928778 
" clip-path="url(#p6e3c4fc46b)" style="fill: none; stroke: #ffc380; stroke-width: 0.5; stroke-linecap: square"/>
   </g>
   <g id="line2d_29">
    <path d="M 286.755886 199.617555 
L 288.061514 201.637885 
L 296.259723 220.586463 
L 285.698874 224.928 
L 281.640189 214.959252 
L 263.83688 208.802213 
L 278.791354 208.74773 
L 277.034338 205.105073 
L 286.755886 199.617555 
L 286.755886 199.617555 
" clip-path="url(#p6e3c4fc46b)" style="fill: none; stroke: #ffc380; stroke-width: 0.5; stroke-linecap: square"/>
   </g>
   <g id="line2d_30">
    <path d="M 281.678114 191.655804 
L 286.755886 199.617555 
L 288.061514 201.637885 
L 296.259723 220.586463 
L 285.698874 224.928 
L 281.640189 214.959252 
L 263.83688 208.802213 
L 240.479846 208.973034 
L 235.630089 208.961362 
L 233.294888 209.412854 
L 246.308367 201.092609 
L 255.323803 198.673992 
L 281.678114 191.655804 
L 281.678114 191.655804 
" clip-path="url(#p6e3c4fc46b)" style="fill: none; stroke: #ffc380; stroke-width: 0.5; stroke-linecap: square"/>
   </g>
   <g id="line2d_31">
    <path d="M 230.594183 184.963589 
L 236.925764 200.317511 
L 239.131652 205.689172 
L 240.479846 208.973034 
L 235.630089 208.961362 
L 233.294888 209.412854 
L 219.921102 212.843994 
L 202.969409 219.093885 
L 185.123272 194.265186 
L 187.828682 192.86813 
L 195.191863 189.078417 
L 217.340182 191.348083 
L 224.166617 190.222828 
L 230.594183 184.963589 
L 230.594183 184.963589 
" clip-path="url(#p6e3c4fc46b)" style="fill: none; stroke: #ffc380; stroke-width: 0.5; stroke-linecap: square"/>
   </g>
   <g id="line2d_32">
    <path d="M 182.746106 170.921297 
L 182.451281 179.336027 
L 178.567082 180.973516 
L 178.840722 179.393939 
L 178.060027 178.274541 
L 176.627189 176.313477 
L 176.060277 175.168995 
L 178.426544 171.051873 
L 182.746106 170.921297 
L 182.746106 170.921297 
" clip-path="url(#p6e3c4fc46b)" style="fill: none; stroke: #ffc380; stroke-width: 0.5; stroke-linecap: square"/>
   </g>
   <g id="line2d_33">
    <path d="M 233.294888 209.412854 
L 237.569824 198.710463 
L 255.323803 198.673992 
L 246.308367 201.092609 
L 233.294888 209.412854 
L 233.294888 209.412854 
" clip-path="url(#p6e3c4fc46b)" style="fill: none; stroke: #ffc380; stroke-width: 0.5; stroke-linecap: square"/>
   </g>
   <g id="text_1">
    <!-- BOT1 -->
    <g style="opacity: 0.5" transform="translate(206.778995 108.825086)scale(0.0579 -0.0579)">
     <defs>
      <path id="DejaVuSans-42" d="M 1259 2228 
L 1259 519 
L 2272 519 
Q 2781 519 3026 730 
Q 3272 941 3272 1375 
Q 3272 1813 3026 2020 
Q 2781 2228 2272 2228 
L 1259 2228 
z
M 1259 4147 
L 1259 2741 
L 2194 2741 
Q 2656 2741 2882 2914 
Q 3109 3088 3109 3444 
Q 3109 3797 2882 3972 
Q 2656 4147 2194 4147 
L 1259 4147 
z
M 628 4666 
L 2241 4666 
Q 2963 4666 3353 4366 
Q 3744 4066 3744 3513 
Q 3744 3084 3544 2831 
Q 3344 2578 2956 2516 
Q 3422 2416 3680 2098 
Q 3938 1781 3938 1306 
Q 3938 681 3513 340 
Q 3088 0 2303 0 
L 628 0 
L 628 4666 
z
" transform="scale(0.015625)"/>
      <path id="DejaVuSans-4f" d="M 2522 4238 
Q 1834 4238 1429 3725 
Q 1025 3213 1025 2328 
Q 1025 1447 1429 934 
Q 1834 422 2522 422 
Q 3209 422 3611 934 
Q 4013 1447 4013 2328 
Q 4013 3213 3611 3725 
Q 3209 4238 2522 4238 
z
M 2522 4750 
Q 3503 4750 4090 4092 
Q 4678 3434 4678 2328 
Q 4678 1225 4090 567 
Q 3503 -91 2522 -91 
Q 1538 -91 948 565 
Q 359 1222 359 2328 
Q 359 3434 948 4092 
Q 1538 4750 2522 4750 
z
" transform="scale(0.015625)"/>
      <path id="DejaVuSans-54" d="M -19 4666 
L 3928 4666 
L 3928 4134 
L 2272 4134 
L 2272 0 
L 1638 0 
L 1638 4134 
L -19 4134 
L -19 4666 
z
" transform="scale(0.015625)"/>
      <path id="DejaVuSans-31" d="M 794 531 
L 1825 531 
L 1825 4091 
L 703 3866 
L 703 4441 
L 1819 4666 
L 2450 4666 
L 2450 531 
L 3481 531 
L 3481 0 
L 794 0 
L 794 531 
z
" transform="scale(0.015625)"/>
     </defs>
     <use xlink:href="#DejaVuSans-42"/>
     <use xlink:href="#DejaVuSans-4f" x="66.853516"/>
     <use xlink:href="#DejaVuSans-54" x="145.564453"/>
     <use xlink:href="#DejaVuSans-31" x="206.648438"/>
    </g>
    <!-- 245 -->
    <g style="opacity: 0.5" transform="translate(209.077806 115.308619)scale(0.0579 -0.0579)">
     <defs>
      <path id="DejaVuSans-32" d="M 1228 531 
L 3431 531 
L 3431 0 
L 469 0 
L 469 531 
Q 828 903 1448 1529 
Q 2069 2156 2228 2338 
Q 2531 2678 2651 2914 
Q 2772 3150 2772 3378 
Q 2772 3750 2511 3984 
Q 2250 4219 1831 4219 
Q 1534 4219 1204 4116 
Q 875 4013 500 3803 
L 500 4441 
Q 881 4594 1212 4672 
Q 1544 4750 1819 4750 
Q 2544 4750 2975 4387 
Q 3406 4025 3406 3419 
Q 3406 3131 3298 2873 
Q 3191 2616 2906 2266 
Q 2828 2175 2409 1742 
Q 1991 1309 1228 531 
z
" transform="scale(0.015625)"/>
      <path id="DejaVuSans-34" d="M 2419 4116 
L 825 1625 
L 2419 1625 
L 2419 4116 
z
M 2253 4666 
L 3047 4666 
L 3047 1625 
L 3713 1625 
L 3713 1100 
L 3047 1100 
L 3047 0 
L 2419 0 
L 2419 1100 
L 313 1100 
L 313 1709 
L 2253 4666 
z
" transform="scale(0.015625)"/>
      <path id="DejaVuSans-35" d="M 691 4666 
L 3169 4666 
L 3169 4134 
L 1269 4134 
L 1269 2991 
Q 1406 3038 1543 3061 
Q 1681 3084 1819 3084 
Q 2600 3084 3056 2656 
Q 3513 2228 3513 1497 
Q 3513 744 3044 326 
Q 2575 -91 1722 -91 
Q 1428 -91 1123 -41 
Q 819 9 494 109 
L 494 744 
Q 775 591 1075 516 
Q 1375 441 1709 441 
Q 2250 441 2565 725 
Q 2881 1009 2881 1497 
Q 2881 1984 2565 2268 
Q 2250 2553 1709 2553 
Q 1456 2553 1204 2497 
Q 953 2441 691 2322 
L 691 4666 
z
" transform="scale(0.015625)"/>
     </defs>
     <use xlink:href="#DejaVuSans-32"/>
     <use xlink:href="#DejaVuSans-34" x="63.623047"/>
     <use xlink:href="#DejaVuSans-35" x="127.246094"/>
    </g>
    <!-- GND -->
    <g style="opacity: 0.5" transform="translate(207.965493 121.792153)scale(0.0579 -0.0579)">
     <defs>
      <path id="DejaVuSans-47" d="M 3809 666 
L 3809 1919 
L 2778 1919 
L 2778 2438 
L 4434 2438 
L 4434 434 
Q 4069 175 3628 42 
Q 3188 -91 2688 -91 
Q 1594 -91 976 548 
Q 359 1188 359 2328 
Q 359 3472 976 4111 
Q 1594 4750 2688 4750 
Q 3144 4750 3555 4637 
Q 3966 4525 4313 4306 
L 4313 3634 
Q 3963 3931 3569 4081 
Q 3175 4231 2741 4231 
Q 1884 4231 1454 3753 
Q 1025 3275 1025 2328 
Q 1025 1384 1454 906 
Q 1884 428 2741 428 
Q 3075 428 3337 486 
Q 3600 544 3809 666 
z
" transform="scale(0.015625)"/>
      <path id="DejaVuSans-4e" d="M 628 4666 
L 1478 4666 
L 3547 763 
L 3547 4666 
L 4159 4666 
L 4159 0 
L 3309 0 
L 1241 3903 
L 1241 0 
L 628 0 
L 628 4666 
z
" transform="scale(0.015625)"/>
      <path id="DejaVuSans-44" d="M 1259 4147 
L 1259 519 
L 2022 519 
Q 2988 519 3436 956 
Q 3884 1394 3884 2338 
Q 3884 3275 3436 3711 
Q 2988 4147 2022 4147 
L 1259 4147 
z
M 628 4666 
L 1925 4666 
Q 3281 4666 3915 4102 
Q 4550 3538 4550 2338 
Q 4550 1131 3912 565 
Q 3275 0 1925 0 
L 628 0 
L 628 4666 
z
" transform="scale(0.015625)"/>
     </defs>
     <use xlink:href="#DejaVuSans-47"/>
     <use xlink:href="#DejaVuSans-4e" x="77.490234"/>
     <use xlink:href="#DejaVuSans-44" x="152.294922"/>
    </g>
   </g>
   <g id="text_2">
    <!-- BOT7 -->
    <g style="opacity: 0.5" transform="translate(235.644034 105.75297)scale(0.0579 -0.0579)">
     <defs>
      <path id="DejaVuSans-37" d="M 525 4666 
L 3525 4666 
L 3525 4397 
L 1831 0 
L 1172 0 
L 2766 4134 
L 525 4134 
L 525 4666 
z
" transform="scale(0.015625)"/>
     </defs>
     <use xlink:href="#DejaVuSans-42"/>
     <use xlink:href="#DejaVuSans-4f" x="66.853516"/>
     <use xlink:href="#DejaVuSans-54" x="145.564453"/>
     <use xlink:href="#DejaVuSans-37" x="206.648438"/>
    </g>
    <!-- 245 -->
    <g style="opacity: 0.5" transform="translate(237.942845 112.236504)scale(0.0579 -0.0579)">
     <use xlink:href="#DejaVuSans-32"/>
     <use xlink:href="#DejaVuSans-34" x="63.623047"/>
     <use xlink:href="#DejaVuSans-35" x="127.246094"/>
    </g>
    <!-- 155 -->
    <g style="opacity: 0.5" transform="translate(237.942845 118.720037)scale(0.0579 -0.0579)">
     <use xlink:href="#DejaVuSans-31"/>
     <use xlink:href="#DejaVuSans-35" x="63.623047"/>
     <use xlink:href="#DejaVuSans-35" x="127.246094"/>
    </g>
   </g>
   <g id="text_3">
    <!-- DKA1 -->
    <g style="opacity: 0.5" transform="translate(270.098406 170.237917)scale(0.0579 -0.0579)">
     <defs>
      <path id="DejaVuSans-4b" d="M 628 4666 
L 1259 4666 
L 1259 2694 
L 3353 4666 
L 4166 4666 
L 1850 2491 
L 4331 0 
L 3500 0 
L 1259 2247 
L 1259 0 
L 628 0 
L 628 4666 
z
" transform="scale(0.015625)"/>
      <path id="DejaVuSans-41" d="M 2188 4044 
L 1331 1722 
L 3047 1722 
L 2188 4044 
z
M 1831 4666 
L 2547 4666 
L 4325 0 
L 3669 0 
L 3244 1197 
L 1141 1197 
L 716 0 
L 50 0 
L 1831 4666 
z
" transform="scale(0.015625)"/>
     </defs>
     <use xlink:href="#DejaVuSans-44"/>
     <use xlink:href="#DejaVuSans-4b" x="77.001953"/>
     <use xlink:href="#DejaVuSans-41" x="140.828125"/>
     <use xlink:href="#DejaVuSans-31" x="209.236328"/>
    </g>
    <!-- 145 -->
    <g style="opacity: 0.5" transform="translate(272.471854 176.721451)scale(0.0579 -0.0579)">
     <use xlink:href="#DejaVuSans-31"/>
     <use xlink:href="#DejaVuSans-34" x="63.623047"/>
     <use xlink:href="#DejaVuSans-35" x="127.246094"/>
    </g>
    <!-- GND -->
    <g style="opacity: 0.5" transform="translate(271.35954 183.204984)scale(0.0579 -0.0579)">
     <use xlink:href="#DejaVuSans-47"/>
     <use xlink:href="#DejaVuSans-4e" x="77.490234"/>
     <use xlink:href="#DejaVuSans-44" x="152.294922"/>
    </g>
   </g>
   <g id="text_4">
    <!-- DKA2 -->
    <g style="opacity: 0.5" transform="translate(204.90228 197.142882)scale(0.0579 -0.0579)">
     <use xlink:href="#DejaVuSans-44"/>
     <use xlink:href="#DejaVuSans-4b" x="77.001953"/>
     <use xlink:href="#DejaVuSans-41" x="140.828125"/>
     <use xlink:href="#DejaVuSans-32" x="209.236328"/>
    </g>
    <!-- 195 -->
    <g style="opacity: 0.5" transform="translate(207.275728 203.626415)scale(0.0579 -0.0579)">
     <defs>
      <path id="DejaVuSans-39" d="M 703 97 
L 703 672 
Q 941 559 1184 500 
Q 1428 441 1663 441 
Q 2288 441 2617 861 
Q 2947 1281 2994 2138 
Q 2813 1869 2534 1725 
Q 2256 1581 1919 1581 
Q 1219 1581 811 2004 
Q 403 2428 403 3163 
Q 403 3881 828 4315 
Q 1253 4750 1959 4750 
Q 2769 4750 3195 4129 
Q 3622 3509 3622 2328 
Q 3622 1225 3098 567 
Q 2575 -91 1691 -91 
Q 1453 -91 1209 -44 
Q 966 3 703 97 
z
M 1959 2075 
Q 2384 2075 2632 2365 
Q 2881 2656 2881 3163 
Q 2881 3666 2632 3958 
Q 2384 4250 1959 4250 
Q 1534 4250 1286 3958 
Q 1038 3666 1038 3163 
Q 1038 2656 1286 2365 
Q 1534 2075 1959 2075 
z
" transform="scale(0.015625)"/>
     </defs>
     <use xlink:href="#DejaVuSans-31"/>
     <use xlink:href="#DejaVuSans-39" x="63.623047"/>
     <use xlink:href="#DejaVuSans-35" x="127.246094"/>
    </g>
    <!-- GND -->
    <g style="opacity: 0.5" transform="translate(206.163415 210.109949)scale(0.0579 -0.0579)">
     <use xlink:href="#DejaVuSans-47"/>
     <use xlink:href="#DejaVuSans-4e" x="77.490234"/>
     <use xlink:href="#DejaVuSans-44" x="152.294922"/>
    </g>
   </g>
   <g id="text_5">
    <!-- DKA3 -->
    <g style="opacity: 0.5" transform="translate(216.000314 164.048397)scale(0.0579 -0.0579)">
     <defs>
      <path id="DejaVuSans-33" d="M 2597 2516 
Q 3050 2419 3304 2112 
Q 3559 1806 3559 1356 
Q 3559 666 3084 287 
Q 2609 -91 1734 -91 
Q 1441 -91 1130 -33 
Q 819 25 488 141 
L 488 750 
Q 750 597 1062 519 
Q 1375 441 1716 441 
Q 2309 441 2620 675 
Q 2931 909 2931 1356 
Q 2931 1769 2642 2001 
Q 2353 2234 1838 2234 
L 1294 2234 
L 1294 2753 
L 1863 2753 
Q 2328 2753 2575 2939 
Q 2822 3125 2822 3475 
Q 2822 3834 2567 4026 
Q 2313 4219 1838 4219 
Q 1578 4219 1281 4162 
Q 984 4106 628 3988 
L 628 4550 
Q 988 4650 1302 4700 
Q 1616 4750 1894 4750 
Q 2613 4750 3031 4423 
Q 3450 4097 3450 3541 
Q 3450 3153 3228 2886 
Q 3006 2619 2597 2516 
z
" transform="scale(0.015625)"/>
     </defs>
     <use xlink:href="#DejaVuSans-44"/>
     <use xlink:href="#DejaVuSans-4b" x="77.001953"/>
     <use xlink:href="#DejaVuSans-41" x="140.828125"/>
     <use xlink:href="#DejaVuSans-33" x="209.236328"/>
    </g>
    <!-- 105 -->
    <g style="opacity: 0.5" transform="translate(218.373762 170.53193)scale(0.0579 -0.0579)">
     <defs>
      <path id="DejaVuSans-30" d="M 2034 4250 
Q 1547 4250 1301 3770 
Q 1056 3291 1056 2328 
Q 1056 1369 1301 889 
Q 1547 409 2034 409 
Q 2525 409 2770 889 
Q 3016 1369 3016 2328 
Q 3016 3291 2770 3770 
Q 2525 4250 2034 4250 
z
M 2034 4750 
Q 2819 4750 3233 4129 
Q 3647 3509 3647 2328 
Q 3647 1150 3233 529 
Q 2819 -91 2034 -91 
Q 1250 -91 836 529 
Q 422 1150 422 2328 
Q 422 3509 836 4129 
Q 1250 4750 2034 4750 
z
" transform="scale(0.015625)"/>
     </defs>
     <use xlink:href="#DejaVuSans-31"/>
     <use xlink:href="#DejaVuSans-30" x="63.623047"/>
     <use xlink:href="#DejaVuSans-35" x="127.246094"/>
    </g>
    <!-- GND -->
    <g style="opacity: 0.5" transform="translate(217.261449 177.015464)scale(0.0579 -0.0579)">
     <use xlink:href="#DejaVuSans-47"/>
     <use xlink:href="#DejaVuSans-4e" x="77.490234"/>
     <use xlink:href="#DejaVuSans-44" x="152.294922"/>
    </g>
   </g>
   <g id="text_6">
    <!-- DUS2 -->
    <g style="opacity: 0.5" transform="translate(228.391001 112.28471)scale(0.0579 -0.0579)">
     <defs>
      <path id="DejaVuSans-55" d="M 556 4666 
L 1191 4666 
L 1191 1831 
Q 1191 1081 1462 751 
Q 1734 422 2344 422 
Q 2950 422 3222 751 
Q 3494 1081 3494 1831 
L 3494 4666 
L 4128 4666 
L 4128 1753 
Q 4128 841 3676 375 
Q 3225 -91 2344 -91 
Q 1459 -91 1007 375 
Q 556 841 556 1753 
L 556 4666 
z
" transform="scale(0.015625)"/>
      <path id="DejaVuSans-53" d="M 3425 4513 
L 3425 3897 
Q 3066 4069 2747 4153 
Q 2428 4238 2131 4238 
Q 1616 4238 1336 4038 
Q 1056 3838 1056 3469 
Q 1056 3159 1242 3001 
Q 1428 2844 1947 2747 
L 2328 2669 
Q 3034 2534 3370 2195 
Q 3706 1856 3706 1288 
Q 3706 609 3251 259 
Q 2797 -91 1919 -91 
Q 1588 -91 1214 -16 
Q 841 59 441 206 
L 441 856 
Q 825 641 1194 531 
Q 1563 422 1919 422 
Q 2459 422 2753 634 
Q 3047 847 3047 1241 
Q 3047 1584 2836 1778 
Q 2625 1972 2144 2069 
L 1759 2144 
Q 1053 2284 737 2584 
Q 422 2884 422 3419 
Q 422 4038 858 4394 
Q 1294 4750 2059 4750 
Q 2388 4750 2728 4690 
Q 3069 4631 3425 4513 
z
" transform="scale(0.015625)"/>
     </defs>
     <use xlink:href="#DejaVuSans-44"/>
     <use xlink:href="#DejaVuSans-55" x="77.001953"/>
     <use xlink:href="#DejaVuSans-53" x="150.195312"/>
     <use xlink:href="#DejaVuSans-32" x="213.671875"/>
    </g>
    <!-- 155 -->
    <g style="opacity: 0.5" transform="translate(230.892915 118.768244)scale(0.0579 -0.0579)">
     <use xlink:href="#DejaVuSans-31"/>
     <use xlink:href="#DejaVuSans-35" x="63.623047"/>
     <use xlink:href="#DejaVuSans-35" x="127.246094"/>
    </g>
    <!-- GND -->
    <g style="opacity: 0.5" transform="translate(229.780601 125.251777)scale(0.0579 -0.0579)">
     <use xlink:href="#DejaVuSans-47"/>
     <use xlink:href="#DejaVuSans-4e" x="77.490234"/>
     <use xlink:href="#DejaVuSans-44" x="152.294922"/>
    </g>
   </g>
   <g id="text_7">
    <!-- DUS6 -->
    <g style="opacity: 0.5" transform="translate(247.609286 142.880193)scale(0.0579 -0.0579)">
     <defs>
      <path id="DejaVuSans-36" d="M 2113 2584 
Q 1688 2584 1439 2293 
Q 1191 2003 1191 1497 
Q 1191 994 1439 701 
Q 1688 409 2113 409 
Q 2538 409 2786 701 
Q 3034 994 3034 1497 
Q 3034 2003 2786 2293 
Q 2538 2584 2113 2584 
z
M 3366 4563 
L 3366 3988 
Q 3128 4100 2886 4159 
Q 2644 4219 2406 4219 
Q 1781 4219 1451 3797 
Q 1122 3375 1075 2522 
Q 1259 2794 1537 2939 
Q 1816 3084 2150 3084 
Q 2853 3084 3261 2657 
Q 3669 2231 3669 1497 
Q 3669 778 3244 343 
Q 2819 -91 2113 -91 
Q 1303 -91 875 529 
Q 447 1150 447 2328 
Q 447 3434 972 4092 
Q 1497 4750 2381 4750 
Q 2619 4750 2861 4703 
Q 3103 4656 3366 4563 
z
" transform="scale(0.015625)"/>
     </defs>
     <use xlink:href="#DejaVuSans-44"/>
     <use xlink:href="#DejaVuSans-55" x="77.001953"/>
     <use xlink:href="#DejaVuSans-53" x="150.195312"/>
     <use xlink:href="#DejaVuSans-36" x="213.671875"/>
    </g>
    <!-- 245 -->
    <g style="opacity: 0.5" transform="translate(250.111199 149.363726)scale(0.0579 -0.0579)">
     <use xlink:href="#DejaVuSans-32"/>
     <use xlink:href="#DejaVuSans-34" x="63.623047"/>
     <use xlink:href="#DejaVuSans-35" x="127.246094"/>
    </g>
    <!-- 105 -->
    <g style="opacity: 0.5" transform="translate(250.111199 155.84726)scale(0.0579 -0.0579)">
     <use xlink:href="#DejaVuSans-31"/>
     <use xlink:href="#DejaVuSans-30" x="63.623047"/>
     <use xlink:href="#DejaVuSans-35" x="127.246094"/>
    </g>
   </g>
   <g id="text_8">
    <!-- EBBU_E_CTR MEDIUM -->
    <g style="opacity: 0.5" transform="translate(102.36078 198.082387)scale(0.0579 -0.0579)">
     <defs>
      <path id="DejaVuSans-45" d="M 628 4666 
L 3578 4666 
L 3578 4134 
L 1259 4134 
L 1259 2753 
L 3481 2753 
L 3481 2222 
L 1259 2222 
L 1259 531 
L 3634 531 
L 3634 0 
L 628 0 
L 628 4666 
z
" transform="scale(0.015625)"/>
      <path id="DejaVuSans-5f" d="M 3263 -1063 
L 3263 -1509 
L -63 -1509 
L -63 -1063 
L 3263 -1063 
z
" transform="scale(0.015625)"/>
      <path id="DejaVuSans-43" d="M 4122 4306 
L 4122 3641 
Q 3803 3938 3442 4084 
Q 3081 4231 2675 4231 
Q 1875 4231 1450 3742 
Q 1025 3253 1025 2328 
Q 1025 1406 1450 917 
Q 1875 428 2675 428 
Q 3081 428 3442 575 
Q 3803 722 4122 1019 
L 4122 359 
Q 3791 134 3420 21 
Q 3050 -91 2638 -91 
Q 1578 -91 968 557 
Q 359 1206 359 2328 
Q 359 3453 968 4101 
Q 1578 4750 2638 4750 
Q 3056 4750 3426 4639 
Q 3797 4528 4122 4306 
z
" transform="scale(0.015625)"/>
      <path id="DejaVuSans-52" d="M 2841 2188 
Q 3044 2119 3236 1894 
Q 3428 1669 3622 1275 
L 4263 0 
L 3584 0 
L 2988 1197 
Q 2756 1666 2539 1819 
Q 2322 1972 1947 1972 
L 1259 1972 
L 1259 0 
L 628 0 
L 628 4666 
L 2053 4666 
Q 2853 4666 3247 4331 
Q 3641 3997 3641 3322 
Q 3641 2881 3436 2590 
Q 3231 2300 2841 2188 
z
M 1259 4147 
L 1259 2491 
L 2053 2491 
Q 2509 2491 2742 2702 
Q 2975 2913 2975 3322 
Q 2975 3731 2742 3939 
Q 2509 4147 2053 4147 
L 1259 4147 
z
" transform="scale(0.015625)"/>
      <path id="DejaVuSans-20" transform="scale(0.015625)"/>
      <path id="DejaVuSans-4d" d="M 628 4666 
L 1569 4666 
L 2759 1491 
L 3956 4666 
L 4897 4666 
L 4897 0 
L 4281 0 
L 4281 4097 
L 3078 897 
L 2444 897 
L 1241 4097 
L 1241 0 
L 628 0 
L 628 4666 
z
" transform="scale(0.015625)"/>
      <path id="DejaVuSans-49" d="M 628 4666 
L 1259 4666 
L 1259 0 
L 628 0 
L 628 4666 
z
" transform="scale(0.015625)"/>
     </defs>
     <use xlink:href="#DejaVuSans-45"/>
     <use xlink:href="#DejaVuSans-42" x="63.183594"/>
     <use xlink:href="#DejaVuSans-42" x="131.787109"/>
     <use xlink:href="#DejaVuSans-55" x="200.390625"/>
     <use xlink:href="#DejaVuSans-5f" x="273.583984"/>
     <use xlink:href="#DejaVuSans-45" x="323.583984"/>
     <use xlink:href="#DejaVuSans-5f" x="386.767578"/>
     <use xlink:href="#DejaVuSans-43" x="436.767578"/>
     <use xlink:href="#DejaVuSans-54" x="506.591797"/>
     <use xlink:href="#DejaVuSans-52" x="567.675781"/>
     <use xlink:href="#DejaVuSans-20" x="637.158203"/>
     <use xlink:href="#DejaVuSans-4d" x="668.945312"/>
     <use xlink:href="#DejaVuSans-45" x="755.224609"/>
     <use xlink:href="#DejaVuSans-44" x="818.408203"/>
     <use xlink:href="#DejaVuSans-49" x="895.410156"/>
     <use xlink:href="#DejaVuSans-55" x="924.902344"/>
     <use xlink:href="#DejaVuSans-4d" x="998.095703"/>
    </g>
    <!-- 195 -->
    <g style="opacity: 0.5" transform="translate(128.228057 204.726954)scale(0.0579 -0.0579)">
     <use xlink:href="#DejaVuSans-31"/>
     <use xlink:href="#DejaVuSans-39" x="63.623047"/>
     <use xlink:href="#DejaVuSans-35" x="127.246094"/>
    </g>
    <!-- 95 -->
    <g style="opacity: 0.5" transform="translate(130.070001 211.210488)scale(0.0579 -0.0579)">
     <use xlink:href="#DejaVuSans-39"/>
     <use xlink:href="#DejaVuSans-35" x="63.623047"/>
    </g>
   </g>
   <g id="text_9">
    <!-- EBBU_E_CTR UPPER -->
    <g style="opacity: 0.5" transform="translate(111.302085 211.533263)scale(0.0579 -0.0579)">
     <defs>
      <path id="DejaVuSans-50" d="M 1259 4147 
L 1259 2394 
L 2053 2394 
Q 2494 2394 2734 2622 
Q 2975 2850 2975 3272 
Q 2975 3691 2734 3919 
Q 2494 4147 2053 4147 
L 1259 4147 
z
M 628 4666 
L 2053 4666 
Q 2838 4666 3239 4311 
Q 3641 3956 3641 3272 
Q 3641 2581 3239 2228 
Q 2838 1875 2053 1875 
L 1259 1875 
L 1259 0 
L 628 0 
L 628 4666 
z
" transform="scale(0.015625)"/>
     </defs>
     <use xlink:href="#DejaVuSans-45"/>
     <use xlink:href="#DejaVuSans-42" x="63.183594"/>
     <use xlink:href="#DejaVuSans-42" x="131.787109"/>
     <use xlink:href="#DejaVuSans-55" x="200.390625"/>
     <use xlink:href="#DejaVuSans-5f" x="273.583984"/>
     <use xlink:href="#DejaVuSans-45" x="323.583984"/>
     <use xlink:href="#DejaVuSans-5f" x="386.767578"/>
     <use xlink:href="#DejaVuSans-43" x="436.767578"/>
     <use xlink:href="#DejaVuSans-54" x="506.591797"/>
     <use xlink:href="#DejaVuSans-52" x="567.675781"/>
     <use xlink:href="#DejaVuSans-20" x="637.158203"/>
     <use xlink:href="#DejaVuSans-55" x="668.945312"/>
     <use xlink:href="#DejaVuSans-50" x="742.138672"/>
     <use xlink:href="#DejaVuSans-50" x="802.441406"/>
     <use xlink:href="#DejaVuSans-45" x="862.744141"/>
     <use xlink:href="#DejaVuSans-52" x="925.927734"/>
    </g>
    <!-- 245 -->
    <g style="opacity: 0.5" transform="translate(134.593265 218.177831)scale(0.0579 -0.0579)">
     <use xlink:href="#DejaVuSans-32"/>
     <use xlink:href="#DejaVuSans-34" x="63.623047"/>
     <use xlink:href="#DejaVuSans-35" x="127.246094"/>
    </g>
    <!-- 195 -->
    <g style="opacity: 0.5" transform="translate(134.593265 224.661364)scale(0.0579 -0.0579)">
     <use xlink:href="#DejaVuSans-31"/>
     <use xlink:href="#DejaVuSans-39" x="63.623047"/>
     <use xlink:href="#DejaVuSans-35" x="127.246094"/>
    </g>
   </g>
   <g id="text_10">
    <!-- EHBK TMA1 -->
    <g style="opacity: 0.5" transform="translate(150.606783 152.323622)scale(0.0579 -0.0579)">
     <defs>
      <path id="DejaVuSans-48" d="M 628 4666 
L 1259 4666 
L 1259 2753 
L 3553 2753 
L 3553 4666 
L 4184 4666 
L 4184 0 
L 3553 0 
L 3553 2222 
L 1259 2222 
L 1259 0 
L 628 0 
L 628 4666 
z
" transform="scale(0.015625)"/>
     </defs>
     <use xlink:href="#DejaVuSans-45"/>
     <use xlink:href="#DejaVuSans-48" x="63.183594"/>
     <use xlink:href="#DejaVuSans-42" x="138.378906"/>
     <use xlink:href="#DejaVuSans-4b" x="206.982422"/>
     <use xlink:href="#DejaVuSans-20" x="272.558594"/>
     <use xlink:href="#DejaVuSans-54" x="304.345703"/>
     <use xlink:href="#DejaVuSans-4d" x="365.429688"/>
     <use xlink:href="#DejaVuSans-41" x="451.708984"/>
     <use xlink:href="#DejaVuSans-31" x="520.117188"/>
    </g>
    <!-- 95 -->
    <g style="opacity: 0.5" transform="translate(163.822458 158.807156)scale(0.0579 -0.0579)">
     <use xlink:href="#DejaVuSans-39"/>
     <use xlink:href="#DejaVuSans-35" x="63.623047"/>
    </g>
    <!-- 15 -->
    <g style="opacity: 0.5" transform="translate(163.822458 165.290689)scale(0.0579 -0.0579)">
     <use xlink:href="#DejaVuSans-31"/>
     <use xlink:href="#DejaVuSans-35" x="63.623047"/>
    </g>
   </g>
   <g id="text_11">
    <!-- EHBK TMA2 -->
    <g style="opacity: 0.5" transform="translate(148.554555 148.21734)scale(0.0579 -0.0579)">
     <use xlink:href="#DejaVuSans-45"/>
     <use xlink:href="#DejaVuSans-48" x="63.183594"/>
     <use xlink:href="#DejaVuSans-42" x="138.378906"/>
     <use xlink:href="#DejaVuSans-4b" x="206.982422"/>
     <use xlink:href="#DejaVuSans-20" x="272.558594"/>
     <use xlink:href="#DejaVuSans-54" x="304.345703"/>
     <use xlink:href="#DejaVuSans-4d" x="365.429688"/>
     <use xlink:href="#DejaVuSans-41" x="451.708984"/>
     <use xlink:href="#DejaVuSans-32" x="520.117188"/>
    </g>
    <!-- 195 -->
    <g style="opacity: 0.5" transform="translate(159.928286 154.700874)scale(0.0579 -0.0579)">
     <use xlink:href="#DejaVuSans-31"/>
     <use xlink:href="#DejaVuSans-39" x="63.623047"/>
     <use xlink:href="#DejaVuSans-35" x="127.246094"/>
    </g>
    <!-- 95 -->
    <g style="opacity: 0.5" transform="translate(161.77023 161.184407)scale(0.0579 -0.0579)">
     <use xlink:href="#DejaVuSans-39"/>
     <use xlink:href="#DejaVuSans-35" x="63.623047"/>
    </g>
   </g>
   <g id="text_12">
    <!-- RUD1 -->
    <g style="opacity: 0.5" transform="translate(256.580311 229.90403)scale(0.0579 -0.0579)">
     <use xlink:href="#DejaVuSans-52"/>
     <use xlink:href="#DejaVuSans-55" x="69.482422"/>
     <use xlink:href="#DejaVuSans-44" x="142.675781"/>
     <use xlink:href="#DejaVuSans-31" x="219.677734"/>
    </g>
    <!-- 245 -->
    <g style="opacity: 0.5" transform="translate(259.255924 236.387563)scale(0.0579 -0.0579)">
     <use xlink:href="#DejaVuSans-32"/>
     <use xlink:href="#DejaVuSans-34" x="63.623047"/>
     <use xlink:href="#DejaVuSans-35" x="127.246094"/>
    </g>
    <!-- 105 -->
    <g style="opacity: 0.5" transform="translate(259.255924 242.871097)scale(0.0579 -0.0579)">
     <use xlink:href="#DejaVuSans-31"/>
     <use xlink:href="#DejaVuSans-30" x="63.623047"/>
     <use xlink:href="#DejaVuSans-35" x="127.246094"/>
    </g>
   </g>
   <g id="text_13">
    <!-- RUD2 -->
    <g style="opacity: 0.5" transform="translate(264.53709 206.967635)scale(0.0579 -0.0579)">
     <use xlink:href="#DejaVuSans-52"/>
     <use xlink:href="#DejaVuSans-55" x="69.482422"/>
     <use xlink:href="#DejaVuSans-44" x="142.675781"/>
     <use xlink:href="#DejaVuSans-32" x="219.677734"/>
    </g>
    <!-- 205 -->
    <g style="opacity: 0.5" transform="translate(267.212703 213.451169)scale(0.0579 -0.0579)">
     <use xlink:href="#DejaVuSans-32"/>
     <use xlink:href="#DejaVuSans-30" x="63.623047"/>
     <use xlink:href="#DejaVuSans-35" x="127.246094"/>
    </g>
    <!-- 105 -->
    <g style="opacity: 0.5" transform="translate(267.212703 219.934702)scale(0.0579 -0.0579)">
     <use xlink:href="#DejaVuSans-31"/>
     <use xlink:href="#DejaVuSans-30" x="63.623047"/>
     <use xlink:href="#DejaVuSans-35" x="127.246094"/>
    </g>
   </g>
   <g id="text_14">
    <!-- RUD5 -->
    <g style="opacity: 0.5" transform="translate(208.661147 224.513081)scale(0.0579 -0.0579)">
     <use xlink:href="#DejaVuSans-52"/>
     <use xlink:href="#DejaVuSans-55" x="69.482422"/>
     <use xlink:href="#DejaVuSans-44" x="142.675781"/>
     <use xlink:href="#DejaVuSans-35" x="219.677734"/>
    </g>
    <!-- 245 -->
    <g style="opacity: 0.5" transform="translate(211.33676 230.996614)scale(0.0579 -0.0579)">
     <use xlink:href="#DejaVuSans-32"/>
     <use xlink:href="#DejaVuSans-34" x="63.623047"/>
     <use xlink:href="#DejaVuSans-35" x="127.246094"/>
    </g>
    <!-- 165 -->
    <g style="opacity: 0.5" transform="translate(211.33676 237.480148)scale(0.0579 -0.0579)">
     <use xlink:href="#DejaVuSans-31"/>
     <use xlink:href="#DejaVuSans-36" x="63.623047"/>
     <use xlink:href="#DejaVuSans-35" x="127.246094"/>
    </g>
   </g>
   <g id="text_15">
    <!-- TAU2 -->
    <g style="opacity: 0.5" transform="translate(272.239737 166.59927)scale(0.0579 -0.0579)">
     <use xlink:href="#DejaVuSans-54"/>
     <use xlink:href="#DejaVuSans-41" x="53.333984"/>
     <use xlink:href="#DejaVuSans-55" x="121.742188"/>
     <use xlink:href="#DejaVuSans-32" x="194.935547"/>
    </g>
    <!-- 245 -->
    <g style="opacity: 0.5" transform="translate(274.198838 173.082804)scale(0.0579 -0.0579)">
     <use xlink:href="#DejaVuSans-32"/>
     <use xlink:href="#DejaVuSans-34" x="63.623047"/>
     <use xlink:href="#DejaVuSans-35" x="127.246094"/>
    </g>
    <!-- 145 -->
    <g style="opacity: 0.5" transform="translate(274.198838 179.566337)scale(0.0579 -0.0579)">
     <use xlink:href="#DejaVuSans-31"/>
     <use xlink:href="#DejaVuSans-34" x="63.623047"/>
     <use xlink:href="#DejaVuSans-35" x="127.246094"/>
    </g>
   </g>
   <g id="text_16">
    <!-- TAU6 -->
    <g style="opacity: 0.5" transform="translate(279.162098 207.386922)scale(0.0579 -0.0579)">
     <use xlink:href="#DejaVuSans-54"/>
     <use xlink:href="#DejaVuSans-41" x="53.333984"/>
     <use xlink:href="#DejaVuSans-55" x="121.742188"/>
     <use xlink:href="#DejaVuSans-36" x="194.935547"/>
    </g>
    <!-- 205 -->
    <g style="opacity: 0.5" transform="translate(281.121199 213.870456)scale(0.0579 -0.0579)">
     <use xlink:href="#DejaVuSans-32"/>
     <use xlink:href="#DejaVuSans-30" x="63.623047"/>
     <use xlink:href="#DejaVuSans-35" x="127.246094"/>
    </g>
    <!-- GND -->
    <g style="opacity: 0.5" transform="translate(280.008886 220.353989)scale(0.0579 -0.0579)">
     <use xlink:href="#DejaVuSans-47"/>
     <use xlink:href="#DejaVuSans-4e" x="77.490234"/>
     <use xlink:href="#DejaVuSans-44" x="152.294922"/>
    </g>
   </g>
   <g id="text_17">
    <!-- VAALS B -->
    <g style="opacity: 0.5" transform="translate(167.249575 170.269165)scale(0.0579 -0.0579)">
     <defs>
      <path id="DejaVuSans-56" d="M 1831 0 
L 50 4666 
L 709 4666 
L 2188 738 
L 3669 4666 
L 4325 4666 
L 2547 0 
L 1831 0 
z
" transform="scale(0.015625)"/>
      <path id="DejaVuSans-4c" d="M 628 4666 
L 1259 4666 
L 1259 531 
L 3531 531 
L 3531 0 
L 628 0 
L 628 4666 
z
" transform="scale(0.015625)"/>
     </defs>
     <use xlink:href="#DejaVuSans-56"/>
     <use xlink:href="#DejaVuSans-41" x="62.033203"/>
     <use xlink:href="#DejaVuSans-41" x="133.191406"/>
     <use xlink:href="#DejaVuSans-4c" x="201.599609"/>
     <use xlink:href="#DejaVuSans-53" x="257.3125"/>
     <use xlink:href="#DejaVuSans-20" x="320.789062"/>
     <use xlink:href="#DejaVuSans-42" x="352.576172"/>
    </g>
    <!-- 195 -->
    <g style="opacity: 0.5" transform="translate(173.917122 176.752698)scale(0.0579 -0.0579)">
     <use xlink:href="#DejaVuSans-31"/>
     <use xlink:href="#DejaVuSans-39" x="63.623047"/>
     <use xlink:href="#DejaVuSans-35" x="127.246094"/>
    </g>
    <!-- 95 -->
    <g style="opacity: 0.5" transform="translate(175.759066 183.236232)scale(0.0579 -0.0579)">
     <use xlink:href="#DejaVuSans-39"/>
     <use xlink:href="#DejaVuSans-35" x="63.623047"/>
    </g>
   </g>
   <g id="text_18">
    <!-- NOR1 -->
    <g transform="translate(209.901086 164.508553)scale(0.0579 -0.0579)">
     <use xlink:href="#DejaVuSans-4e"/>
     <use xlink:href="#DejaVuSans-4f" x="74.804688"/>
     <use xlink:href="#DejaVuSans-52" x="153.515625"/>
     <use xlink:href="#DejaVuSans-31" x="222.998047"/>
    </g>
    <!-- 245 -->
    <g transform="translate(212.673501 170.992087)scale(0.0579 -0.0579)">
     <use xlink:href="#DejaVuSans-32"/>
     <use xlink:href="#DejaVuSans-34" x="63.623047"/>
     <use xlink:href="#DejaVuSans-35" x="127.246094"/>
    </g>
    <!-- 105 -->
    <g transform="translate(212.673501 177.47562)scale(0.0579 -0.0579)">
     <use xlink:href="#DejaVuSans-31"/>
     <use xlink:href="#DejaVuSans-30" x="63.623047"/>
     <use xlink:href="#DejaVuSans-35" x="127.246094"/>
    </g>
   </g>
   <g id="text_19">
    <!-- NOR2 -->
    <g transform="translate(211.835767 138.959302)scale(0.0579 -0.0579)">
     <use xlink:href="#DejaVuSans-4e"/>
     <use xlink:href="#DejaVuSans-4f" x="74.804688"/>
     <use xlink:href="#DejaVuSans-52" x="153.515625"/>
     <use xlink:href="#DejaVuSans-32" x="222.998047"/>
    </g>
    <!-- 245 -->
    <g transform="translate(214.608182 145.442835)scale(0.0579 -0.0579)">
     <use xlink:href="#DejaVuSans-32"/>
     <use xlink:href="#DejaVuSans-34" x="63.623047"/>
     <use xlink:href="#DejaVuSans-35" x="127.246094"/>
    </g>
    <!-- 155 -->
    <g transform="translate(214.608182 151.926368)scale(0.0579 -0.0579)">
     <use xlink:href="#DejaVuSans-31"/>
     <use xlink:href="#DejaVuSans-35" x="63.623047"/>
     <use xlink:href="#DejaVuSans-35" x="127.246094"/>
    </g>
   </g>
   <g id="text_20">
    <!-- NOR3 -->
    <g transform="translate(250.376788 175.56505)scale(0.0579 -0.0579)">
     <use xlink:href="#DejaVuSans-4e"/>
     <use xlink:href="#DejaVuSans-4f" x="74.804688"/>
     <use xlink:href="#DejaVuSans-52" x="153.515625"/>
     <use xlink:href="#DejaVuSans-33" x="222.998047"/>
    </g>
    <!-- 245 -->
    <g transform="translate(253.149203 182.048584)scale(0.0579 -0.0579)">
     <use xlink:href="#DejaVuSans-32"/>
     <use xlink:href="#DejaVuSans-34" x="63.623047"/>
     <use xlink:href="#DejaVuSans-35" x="127.246094"/>
    </g>
    <!-- 145 -->
    <g transform="translate(253.149203 188.532117)scale(0.0579 -0.0579)">
     <use xlink:href="#DejaVuSans-31"/>
     <use xlink:href="#DejaVuSans-34" x="63.623047"/>
     <use xlink:href="#DejaVuSans-35" x="127.246094"/>
    </g>
   </g>
   <g id="text_21">
    <!-- NOR4 -->
    <g transform="translate(271.750055 207.386922)scale(0.0579 -0.0579)">
     <use xlink:href="#DejaVuSans-4e"/>
     <use xlink:href="#DejaVuSans-4f" x="74.804688"/>
     <use xlink:href="#DejaVuSans-52" x="153.515625"/>
     <use xlink:href="#DejaVuSans-34" x="222.998047"/>
    </g>
    <!-- 245 -->
    <g transform="translate(274.52247 213.870456)scale(0.0579 -0.0579)">
     <use xlink:href="#DejaVuSans-32"/>
     <use xlink:href="#DejaVuSans-34" x="63.623047"/>
     <use xlink:href="#DejaVuSans-35" x="127.246094"/>
    </g>
    <!-- 205 -->
    <g transform="translate(274.52247 220.353989)scale(0.0579 -0.0579)">
     <use xlink:href="#DejaVuSans-32"/>
     <use xlink:href="#DejaVuSans-30" x="63.623047"/>
     <use xlink:href="#DejaVuSans-35" x="127.246094"/>
    </g>
   </g>
   <g id="text_22">
    <!-- NOR5 -->
    <g transform="translate(256.479059 203.406047)scale(0.0579 -0.0579)">
     <use xlink:href="#DejaVuSans-4e"/>
     <use xlink:href="#DejaVuSans-4f" x="74.804688"/>
     <use xlink:href="#DejaVuSans-52" x="153.515625"/>
     <use xlink:href="#DejaVuSans-35" x="222.998047"/>
    </g>
    <!-- 265 -->
    <g transform="translate(259.251474 209.88958)scale(0.0579 -0.0579)">
     <use xlink:href="#DejaVuSans-32"/>
     <use xlink:href="#DejaVuSans-36" x="63.623047"/>
     <use xlink:href="#DejaVuSans-35" x="127.246094"/>
    </g>
    <!-- 245 -->
    <g transform="translate(259.251474 216.373114)scale(0.0579 -0.0579)">
     <use xlink:href="#DejaVuSans-32"/>
     <use xlink:href="#DejaVuSans-34" x="63.623047"/>
     <use xlink:href="#DejaVuSans-35" x="127.246094"/>
    </g>
   </g>
   <g id="text_23">
    <!-- NOR6 -->
    <g transform="translate(204.503313 197.142882)scale(0.0579 -0.0579)">
     <use xlink:href="#DejaVuSans-4e"/>
     <use xlink:href="#DejaVuSans-4f" x="74.804688"/>
     <use xlink:href="#DejaVuSans-52" x="153.515625"/>
     <use xlink:href="#DejaVuSans-36" x="222.998047"/>
    </g>
    <!-- 245 -->
    <g transform="translate(207.275728 203.626415)scale(0.0579 -0.0579)">
     <use xlink:href="#DejaVuSans-32"/>
     <use xlink:href="#DejaVuSans-34" x="63.623047"/>
     <use xlink:href="#DejaVuSans-35" x="127.246094"/>
    </g>
    <!-- 195 -->
    <g transform="translate(207.275728 210.109949)scale(0.0579 -0.0579)">
     <use xlink:href="#DejaVuSans-31"/>
     <use xlink:href="#DejaVuSans-39" x="63.623047"/>
     <use xlink:href="#DejaVuSans-35" x="127.246094"/>
    </g>
   </g>
   <g id="text_24">
    <!-- NOR7 -->
    <g transform="translate(171.104945 171.061551)scale(0.0579 -0.0579)">
     <use xlink:href="#DejaVuSans-4e"/>
     <use xlink:href="#DejaVuSans-4f" x="74.804688"/>
     <use xlink:href="#DejaVuSans-52" x="153.515625"/>
     <use xlink:href="#DejaVuSans-37" x="222.998047"/>
    </g>
    <!-- 245 -->
    <g transform="translate(173.87736 177.545085)scale(0.0579 -0.0579)">
     <use xlink:href="#DejaVuSans-32"/>
     <use xlink:href="#DejaVuSans-34" x="63.623047"/>
     <use xlink:href="#DejaVuSans-35" x="127.246094"/>
    </g>
    <!-- 195 -->
    <g transform="translate(173.87736 184.028618)scale(0.0579 -0.0579)">
     <use xlink:href="#DejaVuSans-31"/>
     <use xlink:href="#DejaVuSans-39" x="63.623047"/>
     <use xlink:href="#DejaVuSans-35" x="127.246094"/>
    </g>
   </g>
   <g id="text_25">
    <!-- NOR8 -->
    <g transform="translate(236.011099 199.157568)scale(0.0579 -0.0579)">
     <defs>
      <path id="DejaVuSans-38" d="M 2034 2216 
Q 1584 2216 1326 1975 
Q 1069 1734 1069 1313 
Q 1069 891 1326 650 
Q 1584 409 2034 409 
Q 2484 409 2743 651 
Q 3003 894 3003 1313 
Q 3003 1734 2745 1975 
Q 2488 2216 2034 2216 
z
M 1403 2484 
Q 997 2584 770 2862 
Q 544 3141 544 3541 
Q 544 4100 942 4425 
Q 1341 4750 2034 4750 
Q 2731 4750 3128 4425 
Q 3525 4100 3525 3541 
Q 3525 3141 3298 2862 
Q 3072 2584 2669 2484 
Q 3125 2378 3379 2068 
Q 3634 1759 3634 1313 
Q 3634 634 3220 271 
Q 2806 -91 2034 -91 
Q 1263 -91 848 271 
Q 434 634 434 1313 
Q 434 1759 690 2068 
Q 947 2378 1403 2484 
z
M 1172 3481 
Q 1172 3119 1398 2916 
Q 1625 2713 2034 2713 
Q 2441 2713 2670 2916 
Q 2900 3119 2900 3481 
Q 2900 3844 2670 4047 
Q 2441 4250 2034 4250 
Q 1625 4250 1398 4047 
Q 1172 3844 1172 3481 
z
" transform="scale(0.015625)"/>
     </defs>
     <use xlink:href="#DejaVuSans-4e"/>
     <use xlink:href="#DejaVuSans-4f" x="74.804688"/>
     <use xlink:href="#DejaVuSans-52" x="153.515625"/>
     <use xlink:href="#DejaVuSans-38" x="222.998047"/>
    </g>
    <!-- 255 -->
    <g transform="translate(238.783514 205.641101)scale(0.0579 -0.0579)">
     <use xlink:href="#DejaVuSans-32"/>
     <use xlink:href="#DejaVuSans-35" x="63.623047"/>
     <use xlink:href="#DejaVuSans-35" x="127.246094"/>
    </g>
    <!-- 245 -->
    <g transform="translate(238.783514 212.124634)scale(0.0579 -0.0579)">
     <use xlink:href="#DejaVuSans-32"/>
     <use xlink:href="#DejaVuSans-34" x="63.623047"/>
     <use xlink:href="#DejaVuSans-35" x="127.246094"/>
    </g>
   </g>
  </g>
 </g>
 <defs>
  <clipPath id="p6e3c4fc46b">
   <rect x="77.496732" y="41.472" width="317.326537" height="266.112"/>
  </clipPath>
 </defs>
</svg>
