<?xml version="1.0" encoding="utf-8" standalone="no"?>
<!DOCTYPE svg PUBLIC "-//W3C//DTD SVG 1.1//EN"
  "http://www.w3.org/Graphics/SVG/1.1/DTD/svg11.dtd">
<svg xmlns:xlink="http://www.w3.org/1999/xlink" width="460.8pt" height="345.6pt" viewBox="0 0 460.8 345.6" xmlns="http://www.w3.org/2000/svg" version="1.1">
 <metadata>
  <rdf:RDF xmlns:dc="http://purl.org/dc/elements/1.1/" xmlns:cc="http://creativecommons.org/ns#" xmlns:rdf="http://www.w3.org/1999/02/22-rdf-syntax-ns#">
   <cc:Work>
    <dc:type rdf:resource="http://purl.org/dc/dcmitype/StillImage"/>
    <dc:date>2022-07-25T02:10:25.528389</dc:date>
    <dc:format>image/svg+xml</dc:format>
    <dc:creator>
     <cc:Agent>
      <dc:title>Matplotlib v3.5.0, https://matplotlib.org/</dc:title>
     </cc:Agent>
    </dc:creator>
   </cc:Work>
  </rdf:RDF>
 </metadata>
 <defs>
  <style type="text/css">*{stroke-linejoin: round; stroke-linecap: butt}</style>
 </defs>
 <g id="figure_1">
  <g id="patch_1">
   <path d="M 0 345.6 
L 460.8 345.6 
L 460.8 0 
L 0 0 
z
" style="fill: #ffffff"/>
  </g>
  <g id="axes_1">
   <g id="patch_2">
    <path d="M 281.00515 120.768 
L 281.118301 130.402891 
L 281.274844 143.743123 
L 282.805232 160.950482 
L 283.638801 170.338617 
L 284.305112 177.949733 
L 284.432551 179.282269 
L 278.99435 188.269311 
L 276.204119 192.894578 
L 273.554333 197.220315 
L 268.847899 205.061563 
L 263.924151 213.255549 
L 258.295874 219.166823 
L 255.049842 222.56736 
L 244.291988 223.334239 
L 233.015424 228.288 
L 228.541872 224.500044 
L 225.176618 219.581534 
L 258.536231 200.075048 
L 240.742109 184.930685 
L 212.467171 201.101528 
L 201.000002 174.886619 
L 196.232219 163.923238 
L 245.36003 138.696155 
z
" clip-path="url(#p1a313c61e6)" style="fill: #ffedd9; stroke: #ffedd9; stroke-linejoin: miter"/>
   </g>
   <g id="patch_3">
    <path d="M 240.742109 184.930685 
L 258.536231 200.075048 
L 225.176618 219.581534 
L 212.467171 201.101528 
z
" clip-path="url(#p1a313c61e6)" style="fill: #ffedd9; stroke: #ffedd9; stroke-linejoin: miter"/>
   </g>
   <g id="patch_4">
    <path d="M 210.466418 130.512647 
L 245.36003 138.696155 
L 196.232219 163.923238 
L 189.417271 148.493896 
L 184.863035 144.902075 
z
" clip-path="url(#p1a313c61e6)" style="fill: #ffedd9; stroke: #ffedd9; stroke-linejoin: miter"/>
   </g>
   <g id="patch_5">
    <path d="M 184.863035 144.902075 
L 189.417271 148.493896 
L 196.232219 163.923238 
L 201.000002 174.886619 
L 212.467171 201.101528 
L 187.298165 181.088642 
L 183.804657 175.517914 
L 180.209531 169.795436 
L 177.788599 159.871536 
L 179.800797 155.620919 
z
" clip-path="url(#p1a313c61e6)" style="fill: #ffedd9; stroke: #ffedd9; stroke-linejoin: miter"/>
   </g>
   <g id="patch_6">
    <path d="M 281.118301 130.402891 
L 289.913273 129.817293 
L 294.346731 129.518009 
L 294.531401 143.569663 
L 283.638801 170.338617 
L 282.805232 160.950482 
L 281.274844 143.743123 
z
" clip-path="url(#p1a313c61e6)" style="fill: #ffedd9; stroke: #ffedd9; stroke-linejoin: miter"/>
   </g>
   <g id="patch_7">
    <path d="M 281.00515 120.768 
L 281.118301 130.402891 
L 281.274844 143.743123 
L 282.805232 160.950482 
L 283.638801 170.338617 
L 284.305112 177.949733 
L 284.432551 179.282269 
L 278.99435 188.269311 
L 276.204119 192.894578 
L 273.554333 197.220315 
L 268.847899 205.061563 
L 263.924151 213.255549 
L 258.295874 219.166823 
L 255.049842 222.56736 
L 244.291988 223.334239 
L 233.015424 228.288 
L 228.541872 224.500044 
L 225.176618 219.581534 
L 258.536231 200.075048 
L 240.742109 184.930685 
L 212.467171 201.101528 
L 201.000002 174.886619 
L 196.232219 163.923238 
L 245.36003 138.696155 
L 281.00515 120.768 
z
" clip-path="url(#p1a313c61e6)" style="fill: #ffedd9; stroke: #ffedd9; stroke-linejoin: miter"/>
   </g>
   <g id="patch_8">
    <path d="M 240.742109 184.930685 
L 258.536231 200.075048 
L 225.176618 219.581534 
L 212.467171 201.101528 
L 240.742109 184.930685 
z
" clip-path="url(#p1a313c61e6)" style="fill: #ffedd9; stroke: #ffedd9; stroke-linejoin: miter"/>
   </g>
   <g id="patch_9">
    <path d="M 210.466418 130.512647 
L 245.36003 138.696155 
L 196.232219 163.923238 
L 189.417271 148.493896 
L 184.863035 144.902075 
L 210.466418 130.512647 
z
" clip-path="url(#p1a313c61e6)" style="fill: #ffedd9; stroke: #ffedd9; stroke-linejoin: miter"/>
   </g>
   <g id="patch_10">
    <path d="M 184.863035 144.902075 
L 189.417271 148.493896 
L 196.232219 163.923238 
L 201.000002 174.886619 
L 212.467171 201.101528 
L 187.298165 181.088642 
L 183.804657 175.517914 
L 180.209531 169.795436 
L 177.788599 159.871536 
L 179.800797 155.620919 
L 184.863035 144.902075 
z
" clip-path="url(#p1a313c61e6)" style="fill: #ffedd9; stroke: #ffedd9; stroke-linejoin: miter"/>
   </g>
   <g id="patch_11">
    <path d="M 281.118301 130.402891 
L 289.913273 129.817293 
L 294.346731 129.518009 
L 294.531401 143.569663 
L 283.638801 170.338617 
L 282.805232 160.950482 
L 281.274844 143.743123 
L 281.118301 130.402891 
z
" clip-path="url(#p1a313c61e6)" style="fill: #ffedd9; stroke: #ffedd9; stroke-linejoin: miter"/>
   </g>
   <g id="line2d_1">
    <path d="M 281.00515 120.768 
L 281.118301 130.402891 
L 281.274844 143.743123 
L 282.805232 160.950482 
L 283.638801 170.338617 
L 284.305112 177.949733 
L 284.432551 179.282269 
L 278.99435 188.269311 
L 276.204119 192.894578 
L 273.554333 197.220315 
L 268.847899 205.061563 
L 263.924151 213.255549 
L 258.295874 219.166823 
L 255.049842 222.56736 
L 244.291988 223.334239 
L 233.015424 228.288 
L 228.541872 224.500044 
L 225.176618 219.581534 
L 258.536231 200.075048 
L 240.742109 184.930685 
L 212.467171 201.101528 
L 201.000002 174.886619 
L 196.232219 163.923238 
L 245.36003 138.696155 
L 281.00515 120.768 
" clip-path="url(#p1a313c61e6)" style="fill: none; stroke: #ffc380; stroke-width: 0.5; stroke-linecap: square"/>
   </g>
   <g id="line2d_2">
    <path d="M 240.742109 184.930685 
L 258.536231 200.075048 
L 225.176618 219.581534 
L 212.467171 201.101528 
L 240.742109 184.930685 
" clip-path="url(#p1a313c61e6)" style="fill: none; stroke: #ffc380; stroke-width: 0.5; stroke-linecap: square"/>
   </g>
   <g id="line2d_3">
    <path d="M 210.466418 130.512647 
L 245.36003 138.696155 
L 196.232219 163.923238 
L 189.417271 148.493896 
L 184.863035 144.902075 
L 210.466418 130.512647 
" clip-path="url(#p1a313c61e6)" style="fill: none; stroke: #ffc380; stroke-width: 0.5; stroke-linecap: square"/>
   </g>
   <g id="line2d_4">
    <path d="M 184.863035 144.902075 
L 189.417271 148.493896 
L 196.232219 163.923238 
L 201.000002 174.886619 
L 212.467171 201.101528 
L 187.298165 181.088642 
L 183.804657 175.517914 
L 180.209531 169.795436 
L 177.788599 159.871536 
L 179.800797 155.620919 
L 184.863035 144.902075 
" clip-path="url(#p1a313c61e6)" style="fill: none; stroke: #ffc380; stroke-width: 0.5; stroke-linecap: square"/>
   </g>
   <g id="line2d_5">
    <path d="M 281.118301 130.402891 
L 289.913273 129.817293 
L 294.346731 129.518009 
L 294.531401 143.569663 
L 283.638801 170.338617 
L 282.805232 160.950482 
L 281.274844 143.743123 
L 281.118301 130.402891 
" clip-path="url(#p1a313c61e6)" style="fill: none; stroke: #ffc380; stroke-width: 0.5; stroke-linecap: square"/>
   </g>
   <g id="line2d_6">
    <path d="M 212.467171 201.101528 
L 225.176618 219.581534 
L 228.541872 224.500044 
L 233.015424 228.288 
L 222.259592 233.038615 
L 226.418713 239.233233 
L 213.280911 247.284933 
L 205.057697 252.329427 
L 204.737428 252.535704 
L 195.461041 257.797608 
L 186.013922 263.130219 
L 187.72134 266.670047 
L 173.189015 266.722992 
L 150.491327 266.888991 
L 149.181191 263.697829 
L 147.037572 258.477805 
L 140.884726 243.557309 
L 163.285866 225.290725 
L 156.105035 217.164647 
L 163.975706 211.455036 
L 175.054404 203.364596 
L 180.770305 203.121049 
L 191.474301 202.639202 
L 208.27935 201.89047 
L 212.467171 201.101528 
" clip-path="url(#p1a313c61e6)" style="fill: none; stroke: #8f8f8f; stroke-width: 0.2; stroke-linecap: square"/>
   </g>
   <g id="line2d_7">
    <path d="M 117.565317 170.768709 
L 130.603362 161.129262 
L 144.409721 150.905483 
L 169.183547 132.595856 
L 184.863035 144.902075 
L 177.788599 159.871536 
L 180.209531 169.795436 
L 183.804657 175.517914 
L 187.298165 181.088642 
L 169.968268 193.558824 
L 164.046876 197.819118 
L 155.386875 204.258929 
L 140.518393 204.921212 
L 131.027806 211.542628 
L 115.361029 222.760169 
L 106.052797 210.065458 
L 105.791569 200.659143 
L 117.565317 170.768709 
L 117.565317 170.768709 
" clip-path="url(#p1a313c61e6)" style="fill: none; stroke: #8f8f8f; stroke-width: 0.2; stroke-linecap: square"/>
   </g>
   <g id="line2d_8">
    <path d="M 184.863035 144.902075 
L 189.417271 148.493896 
L 196.232219 163.923238 
L 201.000002 174.886619 
L 194.555802 175.712172 
L 187.298165 181.088642 
L 183.804657 175.517914 
L 180.209531 169.795436 
L 177.788599 159.871536 
L 184.863035 144.902075 
L 184.863035 144.902075 
" clip-path="url(#p1a313c61e6)" style="fill: none; stroke: #8f8f8f; stroke-width: 0.2; stroke-linecap: square"/>
   </g>
   <g id="line2d_9">
    <path d="M 187.298165 181.088642 
L 194.555802 175.712172 
L 201.000002 174.886619 
L 212.467171 201.101528 
L 187.298165 181.088642 
" clip-path="url(#p1a313c61e6)" style="fill: none; stroke: #8f8f8f; stroke-width: 0.2; stroke-linecap: square"/>
   </g>
   <g id="line2d_10">
    <path d="M 187.298165 181.088642 
L 212.467171 201.101528 
L 208.27935 201.89047 
L 191.474301 202.639202 
L 180.770305 203.121049 
L 175.054404 203.364596 
L 155.386875 204.258929 
L 164.046876 197.819118 
L 167.008819 195.692077 
L 169.968268 193.558824 
L 187.298165 181.088642 
" clip-path="url(#p1a313c61e6)" style="fill: none; stroke: #8f8f8f; stroke-width: 0.2; stroke-linecap: square"/>
   </g>
   <g id="line2d_11">
    <path d="M 332.336315 86.616615 
L 335.136165 114.343811 
L 334.731217 119.839816 
L 334.479579 121.654667 
L 309.369805 143.39218 
L 294.531401 143.569663 
L 281.274844 143.743123 
L 281.118301 130.402891 
L 281.00515 120.768 
L 280.982511 118.840992 
L 272.481864 94.026804 
L 289.417871 93.292808 
L 332.336315 86.616615 
" clip-path="url(#p1a313c61e6)" style="fill: none; stroke: #8f8f8f; stroke-width: 0.2; stroke-linecap: square"/>
   </g>
   <g id="line2d_12">
    <path d="M 334.479579 121.654667 
L 329.471219 178.524828 
L 325.063869 178.617088 
L 301.692966 179.040552 
L 284.432551 179.282269 
L 284.305112 177.949733 
L 283.638801 170.338617 
L 282.805232 160.950482 
L 281.274844 143.743123 
L 294.531401 143.569663 
L 309.369805 143.39218 
L 334.479579 121.654667 
" clip-path="url(#p1a313c61e6)" style="fill: none; stroke: #8f8f8f; stroke-width: 0.2; stroke-linecap: square"/>
   </g>
   <g id="line2d_13">
    <path d="M 290.979498 188.091783 
L 300.340743 188.637989 
L 302.96036 188.80439 
L 322.073661 195.074408 
L 325.236672 196.13753 
L 321.854942 196.235099 
L 299.15009 197.016798 
L 283.833296 197.136473 
L 276.204119 192.894578 
L 278.99435 188.269311 
L 290.979498 188.091783 
" clip-path="url(#p1a313c61e6)" style="fill: none; stroke: #8f8f8f; stroke-width: 0.2; stroke-linecap: square"/>
   </g>
   <g id="line2d_14">
    <path d="M 334.731217 119.839816 
L 334.479579 121.654667 
L 309.369805 143.39218 
L 294.531401 143.569663 
L 294.346731 129.518009 
L 289.913273 129.817293 
L 281.118301 130.402891 
L 281.00515 120.768 
L 289.78914 120.65687 
L 334.731217 119.839816 
" clip-path="url(#p1a313c61e6)" style="fill: none; stroke: #8f8f8f; stroke-width: 0.2; stroke-linecap: square"/>
   </g>
   <g id="line2d_15">
    <path d="M 334.479579 121.654667 
L 329.471219 178.524828 
L 325.063869 178.617088 
L 301.692966 179.040552 
L 284.432551 179.282269 
L 284.305112 177.949733 
L 283.638801 170.338617 
L 294.531401 143.569663 
L 309.369805 143.39218 
L 334.479579 121.654667 
" clip-path="url(#p1a313c61e6)" style="fill: none; stroke: #8f8f8f; stroke-width: 0.2; stroke-linecap: square"/>
   </g>
   <g id="line2d_16">
    <path d="M 294.531401 143.569663 
L 283.638801 170.338617 
L 282.805232 160.950482 
L 281.274844 143.743123 
L 294.531401 143.569663 
" clip-path="url(#p1a313c61e6)" style="fill: none; stroke: #8f8f8f; stroke-width: 0.2; stroke-linecap: square"/>
   </g>
   <g id="line2d_17">
    <path d="M 361.208926 177.714565 
L 361.388509 186.844432 
L 340.001145 200.973676 
L 325.236672 196.13753 
L 322.073661 195.074408 
L 302.96036 188.80439 
L 300.340743 188.637989 
L 290.979498 188.091783 
L 278.99435 188.269311 
L 284.432551 179.282269 
L 301.692966 179.040552 
L 325.063869 178.617088 
L 329.471219 178.524828 
L 352.988427 177.966002 
L 361.208926 177.714565 
" clip-path="url(#p1a313c61e6)" style="fill: none; stroke: #8f8f8f; stroke-width: 0.2; stroke-linecap: square"/>
   </g>
   <g id="line2d_18">
    <path d="M 299.15009 197.016798 
L 297.585565 230.896253 
L 296.115379 262.874757 
L 295.681527 272.129921 
L 284.777532 275.533478 
L 274.028404 278.82288 
L 272.539117 273.264716 
L 257.901465 246.410588 
L 247.958992 228.208842 
L 244.291988 223.334239 
L 255.049842 222.56736 
L 258.295874 219.166823 
L 263.924151 213.255549 
L 268.847899 205.061563 
L 273.554333 197.220315 
L 276.204119 192.894578 
L 283.833296 197.136473 
L 299.15009 197.016798 
" clip-path="url(#p1a313c61e6)" style="fill: none; stroke: #8f8f8f; stroke-width: 0.2; stroke-linecap: square"/>
   </g>
   <g id="line2d_19">
    <path d="M 301.692966 179.040552 
L 300.340743 188.637989 
L 299.15009 197.016798 
L 283.833296 197.136473 
L 276.204119 192.894578 
L 278.99435 188.269311 
L 284.432551 179.282269 
L 301.692966 179.040552 
" clip-path="url(#p1a313c61e6)" style="fill: none; stroke: #8f8f8f; stroke-width: 0.2; stroke-linecap: square"/>
   </g>
   <g id="line2d_20">
    <path d="M 290.979498 188.091783 
L 300.340743 188.637989 
L 299.15009 197.016798 
L 283.833296 197.136473 
L 276.204119 192.894578 
L 278.99435 188.269311 
L 290.979498 188.091783 
" clip-path="url(#p1a313c61e6)" style="fill: none; stroke: #8f8f8f; stroke-width: 0.2; stroke-linecap: square"/>
   </g>
   <g id="line2d_21">
    <path d="M 175.962912 81.875649 
L 192.836955 80.561337 
L 223.907023 78.259998 
L 223.907023 96.050301 
L 262.311024 94.444641 
L 272.481864 94.026804 
L 280.982511 118.840992 
L 281.00515 120.768 
L 245.36003 138.696155 
L 210.466418 130.512647 
L 184.863035 144.902075 
L 171.384862 134.32784 
L 169.183547 132.595856 
L 155.945912 122.733489 
L 165.256173 111.439154 
L 175.962912 81.875649 
" clip-path="url(#p1a313c61e6)" style="fill: none; stroke: #8f8f8f; stroke-width: 0.2; stroke-linecap: square"/>
   </g>
   <g id="line2d_22">
    <path d="M 184.863035 144.902075 
L 210.466418 130.512647 
L 245.36003 138.696155 
L 196.232219 163.923238 
L 189.417271 148.493896 
L 184.863035 144.902075 
" clip-path="url(#p1a313c61e6)" style="fill: none; stroke: #8f8f8f; stroke-width: 0.2; stroke-linecap: square"/>
   </g>
   <g id="line2d_23">
    <path d="M 281.00515 120.768 
L 281.118301 130.402891 
L 281.274844 143.743123 
L 282.805232 160.950482 
L 283.638801 170.338617 
L 284.305112 177.949733 
L 284.432551 179.282269 
L 278.99435 188.269311 
L 276.204119 192.894578 
L 273.554333 197.220315 
L 268.847899 205.061563 
L 263.924151 213.255549 
L 258.295874 219.166823 
L 255.049842 222.56736 
L 244.291988 223.334239 
L 228.541872 224.500044 
L 225.176618 219.581534 
L 258.536231 200.075048 
L 240.742109 184.930685 
L 212.467171 201.101528 
L 201.000002 174.886619 
L 196.232219 163.923238 
L 245.36003 138.696155 
L 281.00515 120.768 
" clip-path="url(#p1a313c61e6)" style="fill: none; stroke: #8f8f8f; stroke-width: 0.2; stroke-linecap: square"/>
   </g>
   <g id="line2d_24">
    <path d="M 240.742109 184.930685 
L 258.536231 200.075048 
L 225.176618 219.581534 
L 212.467171 201.101528 
L 240.742109 184.930685 
" clip-path="url(#p1a313c61e6)" style="fill: none; stroke: #8f8f8f; stroke-width: 0.2; stroke-linecap: square"/>
   </g>
   <g id="line2d_25">
    <path d="M 244.291988 223.334239 
L 247.958992 228.208842 
L 257.901465 246.410588 
L 251.60167 268.324294 
L 244.457723 268.654772 
L 240.477128 262.178127 
L 226.418713 239.233233 
L 222.259592 233.038615 
L 233.015424 228.288 
L 244.291988 223.334239 
" clip-path="url(#p1a313c61e6)" style="fill: none; stroke: #8f8f8f; stroke-width: 0.2; stroke-linecap: square"/>
   </g>
   <g id="line2d_26">
    <path d="M 244.291988 223.334239 
L 233.015424 228.288 
L 228.541872 224.500044 
L 244.291988 223.334239 
" clip-path="url(#p1a313c61e6)" style="fill: none; stroke: #8f8f8f; stroke-width: 0.2; stroke-linecap: square"/>
   </g>
   <g id="line2d_27">
    <path d="M 281.00515 120.768 
L 281.118301 130.402891 
L 281.274844 143.743123 
L 282.805232 160.950482 
L 283.638801 170.338617 
L 284.305112 177.949733 
L 284.432551 179.282269 
L 278.99435 188.269311 
L 276.204119 192.894578 
L 273.554333 197.220315 
L 268.847899 205.061563 
L 263.924151 213.255549 
L 258.295874 219.166823 
L 255.049842 222.56736 
L 244.291988 223.334239 
L 233.015424 228.288 
L 228.541872 224.500044 
L 225.176618 219.581534 
L 258.536231 200.075048 
L 240.742109 184.930685 
L 212.467171 201.101528 
L 201.000002 174.886619 
L 196.232219 163.923238 
L 245.36003 138.696155 
L 281.00515 120.768 
L 281.00515 120.768 
" clip-path="url(#p1a313c61e6)" style="fill: none; stroke: #ffc380; stroke-width: 0.5; stroke-linecap: square"/>
   </g>
   <g id="line2d_28">
    <path d="M 240.742109 184.930685 
L 258.536231 200.075048 
L 225.176618 219.581534 
L 212.467171 201.101528 
L 240.742109 184.930685 
L 240.742109 184.930685 
" clip-path="url(#p1a313c61e6)" style="fill: none; stroke: #ffc380; stroke-width: 0.5; stroke-linecap: square"/>
   </g>
   <g id="line2d_29">
    <path d="M 210.466418 130.512647 
L 245.36003 138.696155 
L 196.232219 163.923238 
L 189.417271 148.493896 
L 184.863035 144.902075 
L 210.466418 130.512647 
L 210.466418 130.512647 
" clip-path="url(#p1a313c61e6)" style="fill: none; stroke: #ffc380; stroke-width: 0.5; stroke-linecap: square"/>
   </g>
   <g id="line2d_30">
    <path d="M 184.863035 144.902075 
L 189.417271 148.493896 
L 196.232219 163.923238 
L 201.000002 174.886619 
L 212.467171 201.101528 
L 187.298165 181.088642 
L 183.804657 175.517914 
L 180.209531 169.795436 
L 177.788599 159.871536 
L 179.800797 155.620919 
L 184.863035 144.902075 
L 184.863035 144.902075 
" clip-path="url(#p1a313c61e6)" style="fill: none; stroke: #ffc380; stroke-width: 0.5; stroke-linecap: square"/>
   </g>
   <g id="line2d_31">
    <path d="M 281.118301 130.402891 
L 289.913273 129.817293 
L 294.346731 129.518009 
L 294.531401 143.569663 
L 283.638801 170.338617 
L 282.805232 160.950482 
L 281.274844 143.743123 
L 281.118301 130.402891 
L 281.118301 130.402891 
" clip-path="url(#p1a313c61e6)" style="fill: none; stroke: #ffc380; stroke-width: 0.5; stroke-linecap: square"/>
   </g>
   <g id="text_1">
    <!-- DKA1 -->
    <g style="opacity: 0.5" transform="translate(179.050796 229.109404)scale(0.0579 -0.0579)">
     <defs>
      <path id="DejaVuSans-44" d="M 1259 4147 
L 1259 519 
L 2022 519 
Q 2988 519 3436 956 
Q 3884 1394 3884 2338 
Q 3884 3275 3436 3711 
Q 2988 4147 2022 4147 
L 1259 4147 
z
M 628 4666 
L 1925 4666 
Q 3281 4666 3915 4102 
Q 4550 3538 4550 2338 
Q 4550 1131 3912 565 
Q 3275 0 1925 0 
L 628 0 
L 628 4666 
z
" transform="scale(0.015625)"/>
      <path id="DejaVuSans-4b" d="M 628 4666 
L 1259 4666 
L 1259 2694 
L 3353 4666 
L 4166 4666 
L 1850 2491 
L 4331 0 
L 3500 0 
L 1259 2247 
L 1259 0 
L 628 0 
L 628 4666 
z
" transform="scale(0.015625)"/>
      <path id="DejaVuSans-41" d="M 2188 4044 
L 1331 1722 
L 3047 1722 
L 2188 4044 
z
M 1831 4666 
L 2547 4666 
L 4325 0 
L 3669 0 
L 3244 1197 
L 1141 1197 
L 716 0 
L 50 0 
L 1831 4666 
z
" transform="scale(0.015625)"/>
      <path id="DejaVuSans-31" d="M 794 531 
L 1825 531 
L 1825 4091 
L 703 3866 
L 703 4441 
L 1819 4666 
L 2450 4666 
L 2450 531 
L 3481 531 
L 3481 0 
L 794 0 
L 794 531 
z
" transform="scale(0.015625)"/>
     </defs>
     <use xlink:href="#DejaVuSans-44"/>
     <use xlink:href="#DejaVuSans-4b" x="77.001953"/>
     <use xlink:href="#DejaVuSans-41" x="140.828125"/>
     <use xlink:href="#DejaVuSans-31" x="209.236328"/>
    </g>
    <!-- 145 -->
    <g style="opacity: 0.5" transform="translate(181.424244 235.592938)scale(0.0579 -0.0579)">
     <defs>
      <path id="DejaVuSans-34" d="M 2419 4116 
L 825 1625 
L 2419 1625 
L 2419 4116 
z
M 2253 4666 
L 3047 4666 
L 3047 1625 
L 3713 1625 
L 3713 1100 
L 3047 1100 
L 3047 0 
L 2419 0 
L 2419 1100 
L 313 1100 
L 313 1709 
L 2253 4666 
z
" transform="scale(0.015625)"/>
      <path id="DejaVuSans-35" d="M 691 4666 
L 3169 4666 
L 3169 4134 
L 1269 4134 
L 1269 2991 
Q 1406 3038 1543 3061 
Q 1681 3084 1819 3084 
Q 2600 3084 3056 2656 
Q 3513 2228 3513 1497 
Q 3513 744 3044 326 
Q 2575 -91 1722 -91 
Q 1428 -91 1123 -41 
Q 819 9 494 109 
L 494 744 
Q 775 591 1075 516 
Q 1375 441 1709 441 
Q 2250 441 2565 725 
Q 2881 1009 2881 1497 
Q 2881 1984 2565 2268 
Q 2250 2553 1709 2553 
Q 1456 2553 1204 2497 
Q 953 2441 691 2322 
L 691 4666 
z
" transform="scale(0.015625)"/>
     </defs>
     <use xlink:href="#DejaVuSans-31"/>
     <use xlink:href="#DejaVuSans-34" x="63.623047"/>
     <use xlink:href="#DejaVuSans-35" x="127.246094"/>
    </g>
    <!-- GND -->
    <g style="opacity: 0.5" transform="translate(180.311931 242.076471)scale(0.0579 -0.0579)">
     <defs>
      <path id="DejaVuSans-47" d="M 3809 666 
L 3809 1919 
L 2778 1919 
L 2778 2438 
L 4434 2438 
L 4434 434 
Q 4069 175 3628 42 
Q 3188 -91 2688 -91 
Q 1594 -91 976 548 
Q 359 1188 359 2328 
Q 359 3472 976 4111 
Q 1594 4750 2688 4750 
Q 3144 4750 3555 4637 
Q 3966 4525 4313 4306 
L 4313 3634 
Q 3963 3931 3569 4081 
Q 3175 4231 2741 4231 
Q 1884 4231 1454 3753 
Q 1025 3275 1025 2328 
Q 1025 1384 1454 906 
Q 1884 428 2741 428 
Q 3075 428 3337 486 
Q 3600 544 3809 666 
z
" transform="scale(0.015625)"/>
      <path id="DejaVuSans-4e" d="M 628 4666 
L 1478 4666 
L 3547 763 
L 3547 4666 
L 4159 4666 
L 4159 0 
L 3309 0 
L 1241 3903 
L 1241 0 
L 628 0 
L 628 4666 
z
" transform="scale(0.015625)"/>
     </defs>
     <use xlink:href="#DejaVuSans-47"/>
     <use xlink:href="#DejaVuSans-4e" x="77.490234"/>
     <use xlink:href="#DejaVuSans-44" x="152.294922"/>
    </g>
   </g>
   <g id="text_2">
    <!-- DUS2 -->
    <g style="opacity: 0.5" transform="translate(138.517122 172.792157)scale(0.0579 -0.0579)">
     <defs>
      <path id="DejaVuSans-55" d="M 556 4666 
L 1191 4666 
L 1191 1831 
Q 1191 1081 1462 751 
Q 1734 422 2344 422 
Q 2950 422 3222 751 
Q 3494 1081 3494 1831 
L 3494 4666 
L 4128 4666 
L 4128 1753 
Q 4128 841 3676 375 
Q 3225 -91 2344 -91 
Q 1459 -91 1007 375 
Q 556 841 556 1753 
L 556 4666 
z
" transform="scale(0.015625)"/>
      <path id="DejaVuSans-53" d="M 3425 4513 
L 3425 3897 
Q 3066 4069 2747 4153 
Q 2428 4238 2131 4238 
Q 1616 4238 1336 4038 
Q 1056 3838 1056 3469 
Q 1056 3159 1242 3001 
Q 1428 2844 1947 2747 
L 2328 2669 
Q 3034 2534 3370 2195 
Q 3706 1856 3706 1288 
Q 3706 609 3251 259 
Q 2797 -91 1919 -91 
Q 1588 -91 1214 -16 
Q 841 59 441 206 
L 441 856 
Q 825 641 1194 531 
Q 1563 422 1919 422 
Q 2459 422 2753 634 
Q 3047 847 3047 1241 
Q 3047 1584 2836 1778 
Q 2625 1972 2144 2069 
L 1759 2144 
Q 1053 2284 737 2584 
Q 422 2884 422 3419 
Q 422 4038 858 4394 
Q 1294 4750 2059 4750 
Q 2388 4750 2728 4690 
Q 3069 4631 3425 4513 
z
" transform="scale(0.015625)"/>
      <path id="DejaVuSans-32" d="M 1228 531 
L 3431 531 
L 3431 0 
L 469 0 
L 469 531 
Q 828 903 1448 1529 
Q 2069 2156 2228 2338 
Q 2531 2678 2651 2914 
Q 2772 3150 2772 3378 
Q 2772 3750 2511 3984 
Q 2250 4219 1831 4219 
Q 1534 4219 1204 4116 
Q 875 4013 500 3803 
L 500 4441 
Q 881 4594 1212 4672 
Q 1544 4750 1819 4750 
Q 2544 4750 2975 4387 
Q 3406 4025 3406 3419 
Q 3406 3131 3298 2873 
Q 3191 2616 2906 2266 
Q 2828 2175 2409 1742 
Q 1991 1309 1228 531 
z
" transform="scale(0.015625)"/>
     </defs>
     <use xlink:href="#DejaVuSans-44"/>
     <use xlink:href="#DejaVuSans-55" x="77.001953"/>
     <use xlink:href="#DejaVuSans-53" x="150.195312"/>
     <use xlink:href="#DejaVuSans-32" x="213.671875"/>
    </g>
    <!-- 155 -->
    <g style="opacity: 0.5" transform="translate(141.019036 179.275691)scale(0.0579 -0.0579)">
     <use xlink:href="#DejaVuSans-31"/>
     <use xlink:href="#DejaVuSans-35" x="63.623047"/>
     <use xlink:href="#DejaVuSans-35" x="127.246094"/>
    </g>
    <!-- GND -->
    <g style="opacity: 0.5" transform="translate(139.906722 185.759224)scale(0.0579 -0.0579)">
     <use xlink:href="#DejaVuSans-47"/>
     <use xlink:href="#DejaVuSans-4e" x="77.490234"/>
     <use xlink:href="#DejaVuSans-44" x="152.294922"/>
    </g>
   </g>
   <g id="text_3">
    <!-- DUS3 -->
    <g style="opacity: 0.5" transform="translate(181.366556 158.109503)scale(0.0579 -0.0579)">
     <defs>
      <path id="DejaVuSans-33" d="M 2597 2516 
Q 3050 2419 3304 2112 
Q 3559 1806 3559 1356 
Q 3559 666 3084 287 
Q 2609 -91 1734 -91 
Q 1441 -91 1130 -33 
Q 819 25 488 141 
L 488 750 
Q 750 597 1062 519 
Q 1375 441 1716 441 
Q 2309 441 2620 675 
Q 2931 909 2931 1356 
Q 2931 1769 2642 2001 
Q 2353 2234 1838 2234 
L 1294 2234 
L 1294 2753 
L 1863 2753 
Q 2328 2753 2575 2939 
Q 2822 3125 2822 3475 
Q 2822 3834 2567 4026 
Q 2313 4219 1838 4219 
Q 1578 4219 1281 4162 
Q 984 4106 628 3988 
L 628 4550 
Q 988 4650 1302 4700 
Q 1616 4750 1894 4750 
Q 2613 4750 3031 4423 
Q 3450 4097 3450 3541 
Q 3450 3153 3228 2886 
Q 3006 2619 2597 2516 
z
" transform="scale(0.015625)"/>
     </defs>
     <use xlink:href="#DejaVuSans-44"/>
     <use xlink:href="#DejaVuSans-55" x="77.001953"/>
     <use xlink:href="#DejaVuSans-53" x="150.195312"/>
     <use xlink:href="#DejaVuSans-33" x="213.671875"/>
    </g>
    <!-- 155 -->
    <g style="opacity: 0.5" transform="translate(183.868469 164.593037)scale(0.0579 -0.0579)">
     <use xlink:href="#DejaVuSans-31"/>
     <use xlink:href="#DejaVuSans-35" x="63.623047"/>
     <use xlink:href="#DejaVuSans-35" x="127.246094"/>
    </g>
    <!-- 65 -->
    <g style="opacity: 0.5" transform="translate(185.710413 171.07657)scale(0.0579 -0.0579)">
     <defs>
      <path id="DejaVuSans-36" d="M 2113 2584 
Q 1688 2584 1439 2293 
Q 1191 2003 1191 1497 
Q 1191 994 1439 701 
Q 1688 409 2113 409 
Q 2538 409 2786 701 
Q 3034 994 3034 1497 
Q 3034 2003 2786 2293 
Q 2538 2584 2113 2584 
z
M 3366 4563 
L 3366 3988 
Q 3128 4100 2886 4159 
Q 2644 4219 2406 4219 
Q 1781 4219 1451 3797 
Q 1122 3375 1075 2522 
Q 1259 2794 1537 2939 
Q 1816 3084 2150 3084 
Q 2853 3084 3261 2657 
Q 3669 2231 3669 1497 
Q 3669 778 3244 343 
Q 2819 -91 2113 -91 
Q 1303 -91 875 529 
Q 447 1150 447 2328 
Q 447 3434 972 4092 
Q 1497 4750 2381 4750 
Q 2619 4750 2861 4703 
Q 3103 4656 3366 4563 
z
" transform="scale(0.015625)"/>
     </defs>
     <use xlink:href="#DejaVuSans-36"/>
     <use xlink:href="#DejaVuSans-35" x="63.623047"/>
    </g>
   </g>
   <g id="text_4">
    <!-- DUS4 -->
    <g style="opacity: 0.5" transform="translate(191.854923 183.108218)scale(0.0579 -0.0579)">
     <use xlink:href="#DejaVuSans-44"/>
     <use xlink:href="#DejaVuSans-55" x="77.001953"/>
     <use xlink:href="#DejaVuSans-53" x="150.195312"/>
     <use xlink:href="#DejaVuSans-34" x="213.671875"/>
    </g>
    <!-- 245 -->
    <g style="opacity: 0.5" transform="translate(194.356837 189.591752)scale(0.0579 -0.0579)">
     <use xlink:href="#DejaVuSans-32"/>
     <use xlink:href="#DejaVuSans-34" x="63.623047"/>
     <use xlink:href="#DejaVuSans-35" x="127.246094"/>
    </g>
    <!-- 65 -->
    <g style="opacity: 0.5" transform="translate(196.19878 196.075285)scale(0.0579 -0.0579)">
     <use xlink:href="#DejaVuSans-36"/>
     <use xlink:href="#DejaVuSans-35" x="63.623047"/>
    </g>
   </g>
   <g id="text_5">
    <!-- DUS5 -->
    <g style="opacity: 0.5" transform="translate(175.899278 187.78793)scale(0.0579 -0.0579)">
     <use xlink:href="#DejaVuSans-44"/>
     <use xlink:href="#DejaVuSans-55" x="77.001953"/>
     <use xlink:href="#DejaVuSans-53" x="150.195312"/>
     <use xlink:href="#DejaVuSans-35" x="213.671875"/>
    </g>
    <!-- 245 -->
    <g style="opacity: 0.5" transform="translate(178.401192 194.271464)scale(0.0579 -0.0579)">
     <use xlink:href="#DejaVuSans-32"/>
     <use xlink:href="#DejaVuSans-34" x="63.623047"/>
     <use xlink:href="#DejaVuSans-35" x="127.246094"/>
    </g>
    <!-- GND -->
    <g style="opacity: 0.5" transform="translate(177.288878 200.754997)scale(0.0579 -0.0579)">
     <use xlink:href="#DejaVuSans-47"/>
     <use xlink:href="#DejaVuSans-4e" x="77.490234"/>
     <use xlink:href="#DejaVuSans-44" x="152.294922"/>
    </g>
   </g>
   <g id="text_6">
    <!-- EDWWDST2 -->
    <g style="opacity: 0.5" transform="translate(286.348546 110.294013)scale(0.0579 -0.0579)">
     <defs>
      <path id="DejaVuSans-45" d="M 628 4666 
L 3578 4666 
L 3578 4134 
L 1259 4134 
L 1259 2753 
L 3481 2753 
L 3481 2222 
L 1259 2222 
L 1259 531 
L 3634 531 
L 3634 0 
L 628 0 
L 628 4666 
z
" transform="scale(0.015625)"/>
      <path id="DejaVuSans-57" d="M 213 4666 
L 850 4666 
L 1831 722 
L 2809 4666 
L 3519 4666 
L 4500 722 
L 5478 4666 
L 6119 4666 
L 4947 0 
L 4153 0 
L 3169 4050 
L 2175 0 
L 1381 0 
L 213 4666 
z
" transform="scale(0.015625)"/>
      <path id="DejaVuSans-54" d="M -19 4666 
L 3928 4666 
L 3928 4134 
L 2272 4134 
L 2272 0 
L 1638 0 
L 1638 4134 
L -19 4134 
L -19 4666 
z
" transform="scale(0.015625)"/>
     </defs>
     <use xlink:href="#DejaVuSans-45"/>
     <use xlink:href="#DejaVuSans-44" x="63.183594"/>
     <use xlink:href="#DejaVuSans-57" x="140.185547"/>
     <use xlink:href="#DejaVuSans-57" x="239.0625"/>
     <use xlink:href="#DejaVuSans-44" x="337.939453"/>
     <use xlink:href="#DejaVuSans-53" x="414.941406"/>
     <use xlink:href="#DejaVuSans-54" x="478.417969"/>
     <use xlink:href="#DejaVuSans-32" x="539.501953"/>
    </g>
    <!-- 245 -->
    <g style="opacity: 0.5" transform="translate(298.283183 116.777547)scale(0.0579 -0.0579)">
     <use xlink:href="#DejaVuSans-32"/>
     <use xlink:href="#DejaVuSans-34" x="63.623047"/>
     <use xlink:href="#DejaVuSans-35" x="127.246094"/>
    </g>
    <!-- 105 -->
    <g style="opacity: 0.5" transform="translate(298.283183 123.26108)scale(0.0579 -0.0579)">
     <defs>
      <path id="DejaVuSans-30" d="M 2034 4250 
Q 1547 4250 1301 3770 
Q 1056 3291 1056 2328 
Q 1056 1369 1301 889 
Q 1547 409 2034 409 
Q 2525 409 2770 889 
Q 3016 1369 3016 2328 
Q 3016 3291 2770 3770 
Q 2525 4250 2034 4250 
z
M 2034 4750 
Q 2819 4750 3233 4129 
Q 3647 3509 3647 2328 
Q 3647 1150 3233 529 
Q 2819 -91 2034 -91 
Q 1250 -91 836 529 
Q 422 1150 422 2328 
Q 422 3509 836 4129 
Q 1250 4750 2034 4750 
z
" transform="scale(0.015625)"/>
     </defs>
     <use xlink:href="#DejaVuSans-31"/>
     <use xlink:href="#DejaVuSans-30" x="63.623047"/>
     <use xlink:href="#DejaVuSans-35" x="127.246094"/>
    </g>
   </g>
   <g id="text_7">
    <!-- EDWWDST3 -->
    <g style="opacity: 0.5" transform="translate(290.416743 145.582613)scale(0.0579 -0.0579)">
     <use xlink:href="#DejaVuSans-45"/>
     <use xlink:href="#DejaVuSans-44" x="63.183594"/>
     <use xlink:href="#DejaVuSans-57" x="140.185547"/>
     <use xlink:href="#DejaVuSans-57" x="239.0625"/>
     <use xlink:href="#DejaVuSans-44" x="337.939453"/>
     <use xlink:href="#DejaVuSans-53" x="414.941406"/>
     <use xlink:href="#DejaVuSans-54" x="478.417969"/>
     <use xlink:href="#DejaVuSans-33" x="539.501953"/>
    </g>
    <!-- 245 -->
    <g style="opacity: 0.5" transform="translate(302.35138 152.066146)scale(0.0579 -0.0579)">
     <use xlink:href="#DejaVuSans-32"/>
     <use xlink:href="#DejaVuSans-34" x="63.623047"/>
     <use xlink:href="#DejaVuSans-35" x="127.246094"/>
    </g>
    <!-- 155 -->
    <g style="opacity: 0.5" transform="translate(302.35138 158.54968)scale(0.0579 -0.0579)">
     <use xlink:href="#DejaVuSans-31"/>
     <use xlink:href="#DejaVuSans-35" x="63.623047"/>
     <use xlink:href="#DejaVuSans-35" x="127.246094"/>
    </g>
   </g>
   <g id="text_8">
    <!-- EDWWHRZ11 -->
    <g style="opacity: 0.5" transform="translate(281.081439 187.728273)scale(0.0579 -0.0579)">
     <defs>
      <path id="DejaVuSans-48" d="M 628 4666 
L 1259 4666 
L 1259 2753 
L 3553 2753 
L 3553 4666 
L 4184 4666 
L 4184 0 
L 3553 0 
L 3553 2222 
L 1259 2222 
L 1259 0 
L 628 0 
L 628 4666 
z
" transform="scale(0.015625)"/>
      <path id="DejaVuSans-52" d="M 2841 2188 
Q 3044 2119 3236 1894 
Q 3428 1669 3622 1275 
L 4263 0 
L 3584 0 
L 2988 1197 
Q 2756 1666 2539 1819 
Q 2322 1972 1947 1972 
L 1259 1972 
L 1259 0 
L 628 0 
L 628 4666 
L 2053 4666 
Q 2853 4666 3247 4331 
Q 3641 3997 3641 3322 
Q 3641 2881 3436 2590 
Q 3231 2300 2841 2188 
z
M 1259 4147 
L 1259 2491 
L 2053 2491 
Q 2509 2491 2742 2702 
Q 2975 2913 2975 3322 
Q 2975 3731 2742 3939 
Q 2509 4147 2053 4147 
L 1259 4147 
z
" transform="scale(0.015625)"/>
      <path id="DejaVuSans-5a" d="M 359 4666 
L 4025 4666 
L 4025 4184 
L 1075 531 
L 4097 531 
L 4097 0 
L 288 0 
L 288 481 
L 3238 4134 
L 359 4134 
L 359 4666 
z
" transform="scale(0.015625)"/>
     </defs>
     <use xlink:href="#DejaVuSans-45"/>
     <use xlink:href="#DejaVuSans-44" x="63.183594"/>
     <use xlink:href="#DejaVuSans-57" x="140.185547"/>
     <use xlink:href="#DejaVuSans-57" x="239.0625"/>
     <use xlink:href="#DejaVuSans-48" x="337.939453"/>
     <use xlink:href="#DejaVuSans-52" x="413.134766"/>
     <use xlink:href="#DejaVuSans-5a" x="482.617188"/>
     <use xlink:href="#DejaVuSans-31" x="551.123047"/>
     <use xlink:href="#DejaVuSans-31" x="614.746094"/>
    </g>
    <!-- 105 -->
    <g style="opacity: 0.5" transform="translate(295.194564 194.211806)scale(0.0579 -0.0579)">
     <use xlink:href="#DejaVuSans-31"/>
     <use xlink:href="#DejaVuSans-30" x="63.623047"/>
     <use xlink:href="#DejaVuSans-35" x="127.246094"/>
    </g>
    <!-- 65 -->
    <g style="opacity: 0.5" transform="translate(297.036508 200.69534)scale(0.0579 -0.0579)">
     <use xlink:href="#DejaVuSans-36"/>
     <use xlink:href="#DejaVuSans-35" x="63.623047"/>
    </g>
   </g>
   <g id="text_9">
    <!-- EDWWHRZ5 -->
    <g style="opacity: 0.5" transform="translate(290.071171 126.818884)scale(0.0579 -0.0579)">
     <use xlink:href="#DejaVuSans-45"/>
     <use xlink:href="#DejaVuSans-44" x="63.183594"/>
     <use xlink:href="#DejaVuSans-57" x="140.185547"/>
     <use xlink:href="#DejaVuSans-57" x="239.0625"/>
     <use xlink:href="#DejaVuSans-48" x="337.939453"/>
     <use xlink:href="#DejaVuSans-52" x="413.134766"/>
     <use xlink:href="#DejaVuSans-5a" x="482.617188"/>
     <use xlink:href="#DejaVuSans-35" x="551.123047"/>
    </g>
    <!-- 105 -->
    <g style="opacity: 0.5" transform="translate(302.342352 133.302417)scale(0.0579 -0.0579)">
     <use xlink:href="#DejaVuSans-31"/>
     <use xlink:href="#DejaVuSans-30" x="63.623047"/>
     <use xlink:href="#DejaVuSans-35" x="127.246094"/>
    </g>
    <!-- GND -->
    <g style="opacity: 0.5" transform="translate(301.230039 139.785951)scale(0.0579 -0.0579)">
     <use xlink:href="#DejaVuSans-47"/>
     <use xlink:href="#DejaVuSans-4e" x="77.490234"/>
     <use xlink:href="#DejaVuSans-44" x="152.294922"/>
    </g>
   </g>
   <g id="text_10">
    <!-- EDWWHRZ6 -->
    <g style="opacity: 0.5" transform="translate(291.262177 145.582613)scale(0.0579 -0.0579)">
     <use xlink:href="#DejaVuSans-45"/>
     <use xlink:href="#DejaVuSans-44" x="63.183594"/>
     <use xlink:href="#DejaVuSans-57" x="140.185547"/>
     <use xlink:href="#DejaVuSans-57" x="239.0625"/>
     <use xlink:href="#DejaVuSans-48" x="337.939453"/>
     <use xlink:href="#DejaVuSans-52" x="413.134766"/>
     <use xlink:href="#DejaVuSans-5a" x="482.617188"/>
     <use xlink:href="#DejaVuSans-36" x="551.123047"/>
    </g>
    <!-- 155 -->
    <g style="opacity: 0.5" transform="translate(303.533359 152.066146)scale(0.0579 -0.0579)">
     <use xlink:href="#DejaVuSans-31"/>
     <use xlink:href="#DejaVuSans-35" x="63.623047"/>
     <use xlink:href="#DejaVuSans-35" x="127.246094"/>
    </g>
    <!-- GND -->
    <g style="opacity: 0.5" transform="translate(302.421045 158.54968)scale(0.0579 -0.0579)">
     <use xlink:href="#DejaVuSans-47"/>
     <use xlink:href="#DejaVuSans-4e" x="77.490234"/>
     <use xlink:href="#DejaVuSans-44" x="152.294922"/>
    </g>
   </g>
   <g id="text_11">
    <!-- EDWWHRZ8 -->
    <g style="opacity: 0.5" transform="translate(270.10611 152.068285)scale(0.0579 -0.0579)">
     <defs>
      <path id="DejaVuSans-38" d="M 2034 2216 
Q 1584 2216 1326 1975 
Q 1069 1734 1069 1313 
Q 1069 891 1326 650 
Q 1584 409 2034 409 
Q 2484 409 2743 651 
Q 3003 894 3003 1313 
Q 3003 1734 2745 1975 
Q 2488 2216 2034 2216 
z
M 1403 2484 
Q 997 2584 770 2862 
Q 544 3141 544 3541 
Q 544 4100 942 4425 
Q 1341 4750 2034 4750 
Q 2731 4750 3128 4425 
Q 3525 4100 3525 3541 
Q 3525 3141 3298 2862 
Q 3072 2584 2669 2484 
Q 3125 2378 3379 2068 
Q 3634 1759 3634 1313 
Q 3634 634 3220 271 
Q 2806 -91 2034 -91 
Q 1263 -91 848 271 
Q 434 634 434 1313 
Q 434 1759 690 2068 
Q 947 2378 1403 2484 
z
M 1172 3481 
Q 1172 3119 1398 2916 
Q 1625 2713 2034 2713 
Q 2441 2713 2670 2916 
Q 2900 3119 2900 3481 
Q 2900 3844 2670 4047 
Q 2441 4250 2034 4250 
Q 1625 4250 1398 4047 
Q 1172 3844 1172 3481 
z
" transform="scale(0.015625)"/>
     </defs>
     <use xlink:href="#DejaVuSans-45"/>
     <use xlink:href="#DejaVuSans-44" x="63.183594"/>
     <use xlink:href="#DejaVuSans-57" x="140.185547"/>
     <use xlink:href="#DejaVuSans-57" x="239.0625"/>
     <use xlink:href="#DejaVuSans-48" x="337.939453"/>
     <use xlink:href="#DejaVuSans-52" x="413.134766"/>
     <use xlink:href="#DejaVuSans-5a" x="482.617188"/>
     <use xlink:href="#DejaVuSans-38" x="551.123047"/>
    </g>
    <!-- 155 -->
    <g style="opacity: 0.5" transform="translate(282.377291 158.551818)scale(0.0579 -0.0579)">
     <use xlink:href="#DejaVuSans-31"/>
     <use xlink:href="#DejaVuSans-35" x="63.623047"/>
     <use xlink:href="#DejaVuSans-35" x="127.246094"/>
    </g>
    <!-- 75 -->
    <g style="opacity: 0.5" transform="translate(284.219235 165.035352)scale(0.0579 -0.0579)">
     <defs>
      <path id="DejaVuSans-37" d="M 525 4666 
L 3525 4666 
L 3525 4397 
L 1831 0 
L 1172 0 
L 2766 4134 
L 525 4134 
L 525 4666 
z
" transform="scale(0.015625)"/>
     </defs>
     <use xlink:href="#DejaVuSans-37"/>
     <use xlink:href="#DejaVuSans-35" x="63.623047"/>
    </g>
   </g>
   <g id="text_12">
    <!-- EDWWHRZ9 -->
    <g style="opacity: 0.5" transform="translate(302.394417 184.458265)scale(0.0579 -0.0579)">
     <defs>
      <path id="DejaVuSans-39" d="M 703 97 
L 703 672 
Q 941 559 1184 500 
Q 1428 441 1663 441 
Q 2288 441 2617 861 
Q 2947 1281 2994 2138 
Q 2813 1869 2534 1725 
Q 2256 1581 1919 1581 
Q 1219 1581 811 2004 
Q 403 2428 403 3163 
Q 403 3881 828 4315 
Q 1253 4750 1959 4750 
Q 2769 4750 3195 4129 
Q 3622 3509 3622 2328 
Q 3622 1225 3098 567 
Q 2575 -91 1691 -91 
Q 1453 -91 1209 -44 
Q 966 3 703 97 
z
M 1959 2075 
Q 2384 2075 2632 2365 
Q 2881 2656 2881 3163 
Q 2881 3666 2632 3958 
Q 2384 4250 1959 4250 
Q 1534 4250 1286 3958 
Q 1038 3666 1038 3163 
Q 1038 2656 1286 2365 
Q 1534 2075 1959 2075 
z
" transform="scale(0.015625)"/>
     </defs>
     <use xlink:href="#DejaVuSans-45"/>
     <use xlink:href="#DejaVuSans-44" x="63.183594"/>
     <use xlink:href="#DejaVuSans-57" x="140.185547"/>
     <use xlink:href="#DejaVuSans-57" x="239.0625"/>
     <use xlink:href="#DejaVuSans-48" x="337.939453"/>
     <use xlink:href="#DejaVuSans-52" x="413.134766"/>
     <use xlink:href="#DejaVuSans-5a" x="482.617188"/>
     <use xlink:href="#DejaVuSans-39" x="551.123047"/>
    </g>
    <!-- 105 -->
    <g style="opacity: 0.5" transform="translate(314.665598 190.941798)scale(0.0579 -0.0579)">
     <use xlink:href="#DejaVuSans-31"/>
     <use xlink:href="#DejaVuSans-30" x="63.623047"/>
     <use xlink:href="#DejaVuSans-35" x="127.246094"/>
    </g>
    <!-- GND -->
    <g style="opacity: 0.5" transform="translate(313.553285 197.425332)scale(0.0579 -0.0579)">
     <use xlink:href="#DejaVuSans-47"/>
     <use xlink:href="#DejaVuSans-4e" x="77.490234"/>
     <use xlink:href="#DejaVuSans-44" x="152.294922"/>
    </g>
   </g>
   <g id="text_13">
    <!-- GIN1 -->
    <g style="opacity: 0.5" transform="translate(264.616076 230.972874)scale(0.0579 -0.0579)">
     <defs>
      <path id="DejaVuSans-49" d="M 628 4666 
L 1259 4666 
L 1259 0 
L 628 0 
L 628 4666 
z
" transform="scale(0.015625)"/>
     </defs>
     <use xlink:href="#DejaVuSans-47"/>
     <use xlink:href="#DejaVuSans-49" x="77.490234"/>
     <use xlink:href="#DejaVuSans-4e" x="106.982422"/>
     <use xlink:href="#DejaVuSans-31" x="181.787109"/>
    </g>
    <!-- 205 -->
    <g style="opacity: 0.5" transform="translate(266.195208 237.456407)scale(0.0579 -0.0579)">
     <use xlink:href="#DejaVuSans-32"/>
     <use xlink:href="#DejaVuSans-30" x="63.623047"/>
     <use xlink:href="#DejaVuSans-35" x="127.246094"/>
    </g>
    <!-- GND -->
    <g style="opacity: 0.5" transform="translate(265.082894 243.939941)scale(0.0579 -0.0579)">
     <use xlink:href="#DejaVuSans-47"/>
     <use xlink:href="#DejaVuSans-4e" x="77.490234"/>
     <use xlink:href="#DejaVuSans-44" x="152.294922"/>
    </g>
   </g>
   <g id="text_14">
    <!-- GIN6 -->
    <g style="opacity: 0.5" transform="translate(281.843579 183.202657)scale(0.0579 -0.0579)">
     <use xlink:href="#DejaVuSans-47"/>
     <use xlink:href="#DejaVuSans-49" x="77.490234"/>
     <use xlink:href="#DejaVuSans-4e" x="106.982422"/>
     <use xlink:href="#DejaVuSans-36" x="181.787109"/>
    </g>
    <!-- 205 -->
    <g style="opacity: 0.5" transform="translate(283.422711 189.686191)scale(0.0579 -0.0579)">
     <use xlink:href="#DejaVuSans-32"/>
     <use xlink:href="#DejaVuSans-30" x="63.623047"/>
     <use xlink:href="#DejaVuSans-35" x="127.246094"/>
    </g>
    <!-- 105 -->
    <g style="opacity: 0.5" transform="translate(283.422711 196.169724)scale(0.0579 -0.0579)">
     <use xlink:href="#DejaVuSans-31"/>
     <use xlink:href="#DejaVuSans-30" x="63.623047"/>
     <use xlink:href="#DejaVuSans-35" x="127.246094"/>
    </g>
   </g>
   <g id="text_15">
    <!-- GIN9 -->
    <g style="opacity: 0.5" transform="translate(281.167468 187.728273)scale(0.0579 -0.0579)">
     <use xlink:href="#DejaVuSans-47"/>
     <use xlink:href="#DejaVuSans-49" x="77.490234"/>
     <use xlink:href="#DejaVuSans-4e" x="106.982422"/>
     <use xlink:href="#DejaVuSans-39" x="181.787109"/>
    </g>
    <!-- 65 -->
    <g style="opacity: 0.5" transform="translate(284.588543 194.211806)scale(0.0579 -0.0579)">
     <use xlink:href="#DejaVuSans-36"/>
     <use xlink:href="#DejaVuSans-35" x="63.623047"/>
    </g>
    <!-- GND -->
    <g style="opacity: 0.5" transform="translate(281.634286 200.69534)scale(0.0579 -0.0579)">
     <use xlink:href="#DejaVuSans-47"/>
     <use xlink:href="#DejaVuSans-4e" x="77.490234"/>
     <use xlink:href="#DejaVuSans-44" x="152.294922"/>
    </g>
   </g>
   <g id="text_16">
    <!-- HMM1 -->
    <g style="opacity: 0.5" transform="translate(209.460772 106.695181)scale(0.0579 -0.0579)">
     <defs>
      <path id="DejaVuSans-4d" d="M 628 4666 
L 1569 4666 
L 2759 1491 
L 3956 4666 
L 4897 4666 
L 4897 0 
L 4281 0 
L 4281 4097 
L 3078 897 
L 2444 897 
L 1241 4097 
L 1241 0 
L 628 0 
L 628 4666 
z
" transform="scale(0.015625)"/>
     </defs>
     <use xlink:href="#DejaVuSans-48"/>
     <use xlink:href="#DejaVuSans-4d" x="75.195312"/>
     <use xlink:href="#DejaVuSans-4d" x="161.474609"/>
     <use xlink:href="#DejaVuSans-31" x="247.753906"/>
    </g>
    <!-- 245 -->
    <g style="opacity: 0.5" transform="translate(212.9497 113.178715)scale(0.0579 -0.0579)">
     <use xlink:href="#DejaVuSans-32"/>
     <use xlink:href="#DejaVuSans-34" x="63.623047"/>
     <use xlink:href="#DejaVuSans-35" x="127.246094"/>
    </g>
    <!-- GND -->
    <g style="opacity: 0.5" transform="translate(211.837386 119.662248)scale(0.0579 -0.0579)">
     <use xlink:href="#DejaVuSans-47"/>
     <use xlink:href="#DejaVuSans-4e" x="77.490234"/>
     <use xlink:href="#DejaVuSans-44" x="152.294922"/>
    </g>
   </g>
   <g id="text_17">
    <!-- HMM3 -->
    <g style="opacity: 0.5" transform="translate(206.096774 142.332087)scale(0.0579 -0.0579)">
     <use xlink:href="#DejaVuSans-48"/>
     <use xlink:href="#DejaVuSans-4d" x="75.195312"/>
     <use xlink:href="#DejaVuSans-4d" x="161.474609"/>
     <use xlink:href="#DejaVuSans-33" x="247.753906"/>
    </g>
    <!-- 245 -->
    <g style="opacity: 0.5" transform="translate(209.585701 148.815621)scale(0.0579 -0.0579)">
     <use xlink:href="#DejaVuSans-32"/>
     <use xlink:href="#DejaVuSans-34" x="63.623047"/>
     <use xlink:href="#DejaVuSans-35" x="127.246094"/>
    </g>
    <!-- 75 -->
    <g style="opacity: 0.5" transform="translate(211.427645 155.299154)scale(0.0579 -0.0579)">
     <use xlink:href="#DejaVuSans-37"/>
     <use xlink:href="#DejaVuSans-35" x="63.623047"/>
    </g>
   </g>
   <g id="text_18">
    <!-- PADH1 -->
    <g style="opacity: 0.5" transform="translate(230.542762 167.748167)scale(0.0579 -0.0579)">
     <defs>
      <path id="DejaVuSans-50" d="M 1259 4147 
L 1259 2394 
L 2053 2394 
Q 2494 2394 2734 2622 
Q 2975 2850 2975 3272 
Q 2975 3691 2734 3919 
Q 2494 4147 2053 4147 
L 1259 4147 
z
M 628 4666 
L 2053 4666 
Q 2838 4666 3239 4311 
Q 3641 3956 3641 3272 
Q 3641 2581 3239 2228 
Q 2838 1875 2053 1875 
L 1259 1875 
L 1259 0 
L 628 0 
L 628 4666 
z
" transform="scale(0.015625)"/>
     </defs>
     <use xlink:href="#DejaVuSans-50"/>
     <use xlink:href="#DejaVuSans-41" x="53.927734"/>
     <use xlink:href="#DejaVuSans-44" x="122.335938"/>
     <use xlink:href="#DejaVuSans-48" x="199.337891"/>
     <use xlink:href="#DejaVuSans-31" x="274.533203"/>
    </g>
    <!-- 245 -->
    <g style="opacity: 0.5" transform="translate(234.806554 174.2317)scale(0.0579 -0.0579)">
     <use xlink:href="#DejaVuSans-32"/>
     <use xlink:href="#DejaVuSans-34" x="63.623047"/>
     <use xlink:href="#DejaVuSans-35" x="127.246094"/>
    </g>
    <!-- 135 -->
    <g style="opacity: 0.5" transform="translate(234.806554 180.715234)scale(0.0579 -0.0579)">
     <use xlink:href="#DejaVuSans-31"/>
     <use xlink:href="#DejaVuSans-33" x="63.623047"/>
     <use xlink:href="#DejaVuSans-35" x="127.246094"/>
    </g>
   </g>
   <g id="text_19">
    <!-- PADH2 -->
    <g style="opacity: 0.5" transform="translate(225.712078 197.370254)scale(0.0579 -0.0579)">
     <use xlink:href="#DejaVuSans-50"/>
     <use xlink:href="#DejaVuSans-41" x="53.927734"/>
     <use xlink:href="#DejaVuSans-44" x="122.335938"/>
     <use xlink:href="#DejaVuSans-48" x="199.337891"/>
     <use xlink:href="#DejaVuSans-32" x="274.533203"/>
    </g>
    <!-- 245 -->
    <g style="opacity: 0.5" transform="translate(229.97587 203.853788)scale(0.0579 -0.0579)">
     <use xlink:href="#DejaVuSans-32"/>
     <use xlink:href="#DejaVuSans-34" x="63.623047"/>
     <use xlink:href="#DejaVuSans-35" x="127.246094"/>
    </g>
    <!-- 115 -->
    <g style="opacity: 0.5" transform="translate(229.97587 210.337321)scale(0.0579 -0.0579)">
     <use xlink:href="#DejaVuSans-31"/>
     <use xlink:href="#DejaVuSans-31" x="63.623047"/>
     <use xlink:href="#DejaVuSans-35" x="127.246094"/>
    </g>
   </g>
   <g id="text_20">
    <!-- SIG1 -->
    <g style="opacity: 0.5" transform="translate(233.303515 241.10865)scale(0.0579 -0.0579)">
     <use xlink:href="#DejaVuSans-53"/>
     <use xlink:href="#DejaVuSans-49" x="63.476562"/>
     <use xlink:href="#DejaVuSans-47" x="92.96875"/>
     <use xlink:href="#DejaVuSans-31" x="170.458984"/>
    </g>
    <!-- 245 -->
    <g style="opacity: 0.5" transform="translate(234.554697 247.592184)scale(0.0579 -0.0579)">
     <use xlink:href="#DejaVuSans-32"/>
     <use xlink:href="#DejaVuSans-34" x="63.623047"/>
     <use xlink:href="#DejaVuSans-35" x="127.246094"/>
    </g>
    <!-- GND -->
    <g style="opacity: 0.5" transform="translate(233.442384 254.075717)scale(0.0579 -0.0579)">
     <use xlink:href="#DejaVuSans-47"/>
     <use xlink:href="#DejaVuSans-4e" x="77.490234"/>
     <use xlink:href="#DejaVuSans-44" x="152.294922"/>
    </g>
   </g>
   <g id="text_21">
    <!-- SIG3 -->
    <g style="opacity: 0.5" transform="translate(229.639916 220.925264)scale(0.0579 -0.0579)">
     <use xlink:href="#DejaVuSans-53"/>
     <use xlink:href="#DejaVuSans-49" x="63.476562"/>
     <use xlink:href="#DejaVuSans-47" x="92.96875"/>
     <use xlink:href="#DejaVuSans-33" x="170.458984"/>
    </g>
    <!-- 245 -->
    <g style="opacity: 0.5" transform="translate(230.891098 227.408798)scale(0.0579 -0.0579)">
     <use xlink:href="#DejaVuSans-32"/>
     <use xlink:href="#DejaVuSans-34" x="63.623047"/>
     <use xlink:href="#DejaVuSans-35" x="127.246094"/>
    </g>
    <!-- 135 -->
    <g style="opacity: 0.5" transform="translate(230.891098 233.892331)scale(0.0579 -0.0579)">
     <use xlink:href="#DejaVuSans-31"/>
     <use xlink:href="#DejaVuSans-33" x="63.623047"/>
     <use xlink:href="#DejaVuSans-35" x="127.246094"/>
    </g>
   </g>
   <g id="text_22">
    <!-- PADL1 -->
    <g transform="translate(231.106834 169.642145)scale(0.0579 -0.0579)">
     <defs>
      <path id="DejaVuSans-4c" d="M 628 4666 
L 1259 4666 
L 1259 531 
L 3531 531 
L 3531 0 
L 628 0 
L 628 4666 
z
" transform="scale(0.015625)"/>
     </defs>
     <use xlink:href="#DejaVuSans-50"/>
     <use xlink:href="#DejaVuSans-41" x="53.927734"/>
     <use xlink:href="#DejaVuSans-44" x="122.335938"/>
     <use xlink:href="#DejaVuSans-4c" x="199.337891"/>
     <use xlink:href="#DejaVuSans-31" x="255.050781"/>
    </g>
    <!-- 135 -->
    <g transform="translate(234.806554 176.125678)scale(0.0579 -0.0579)">
     <use xlink:href="#DejaVuSans-31"/>
     <use xlink:href="#DejaVuSans-33" x="63.623047"/>
     <use xlink:href="#DejaVuSans-35" x="127.246094"/>
    </g>
    <!-- GND -->
    <g transform="translate(233.694241 182.609212)scale(0.0579 -0.0579)">
     <use xlink:href="#DejaVuSans-47"/>
     <use xlink:href="#DejaVuSans-4e" x="77.490234"/>
     <use xlink:href="#DejaVuSans-44" x="152.294922"/>
    </g>
   </g>
   <g id="text_23">
    <!-- PADL2 -->
    <g transform="translate(226.27615 197.370254)scale(0.0579 -0.0579)">
     <use xlink:href="#DejaVuSans-50"/>
     <use xlink:href="#DejaVuSans-41" x="53.927734"/>
     <use xlink:href="#DejaVuSans-44" x="122.335938"/>
     <use xlink:href="#DejaVuSans-4c" x="199.337891"/>
     <use xlink:href="#DejaVuSans-32" x="255.050781"/>
    </g>
    <!-- 115 -->
    <g transform="translate(229.97587 203.853788)scale(0.0579 -0.0579)">
     <use xlink:href="#DejaVuSans-31"/>
     <use xlink:href="#DejaVuSans-31" x="63.623047"/>
     <use xlink:href="#DejaVuSans-35" x="127.246094"/>
    </g>
    <!-- GND -->
    <g transform="translate(228.863556 210.337321)scale(0.0579 -0.0579)">
     <use xlink:href="#DejaVuSans-47"/>
     <use xlink:href="#DejaVuSans-4e" x="77.490234"/>
     <use xlink:href="#DejaVuSans-44" x="152.294922"/>
    </g>
   </g>
   <g id="text_24">
    <!-- PADL3 -->
    <g transform="translate(205.885982 142.332087)scale(0.0579 -0.0579)">
     <use xlink:href="#DejaVuSans-50"/>
     <use xlink:href="#DejaVuSans-41" x="53.927734"/>
     <use xlink:href="#DejaVuSans-44" x="122.335938"/>
     <use xlink:href="#DejaVuSans-4c" x="199.337891"/>
     <use xlink:href="#DejaVuSans-33" x="255.050781"/>
    </g>
    <!-- 75 -->
    <g transform="translate(211.427645 148.815621)scale(0.0579 -0.0579)">
     <use xlink:href="#DejaVuSans-37"/>
     <use xlink:href="#DejaVuSans-35" x="63.623047"/>
    </g>
    <!-- GND -->
    <g transform="translate(208.473388 155.299154)scale(0.0579 -0.0579)">
     <use xlink:href="#DejaVuSans-47"/>
     <use xlink:href="#DejaVuSans-4e" x="77.490234"/>
     <use xlink:href="#DejaVuSans-44" x="152.294922"/>
    </g>
   </g>
   <g id="text_25">
    <!-- PADL4 -->
    <g transform="translate(185.902334 168.115946)scale(0.0579 -0.0579)">
     <use xlink:href="#DejaVuSans-50"/>
     <use xlink:href="#DejaVuSans-41" x="53.927734"/>
     <use xlink:href="#DejaVuSans-44" x="122.335938"/>
     <use xlink:href="#DejaVuSans-4c" x="199.337891"/>
     <use xlink:href="#DejaVuSans-34" x="255.050781"/>
    </g>
    <!-- 65 -->
    <g transform="translate(191.443998 174.59948)scale(0.0579 -0.0579)">
     <use xlink:href="#DejaVuSans-36"/>
     <use xlink:href="#DejaVuSans-35" x="63.623047"/>
    </g>
    <!-- GND -->
    <g transform="translate(188.489741 181.083013)scale(0.0579 -0.0579)">
     <use xlink:href="#DejaVuSans-47"/>
     <use xlink:href="#DejaVuSans-4e" x="77.490234"/>
     <use xlink:href="#DejaVuSans-44" x="152.294922"/>
    </g>
   </g>
   <g id="text_26">
    <!-- PADL5 -->
    <g transform="translate(278.5993 145.042458)scale(0.0579 -0.0579)">
     <use xlink:href="#DejaVuSans-50"/>
     <use xlink:href="#DejaVuSans-41" x="53.927734"/>
     <use xlink:href="#DejaVuSans-44" x="122.335938"/>
     <use xlink:href="#DejaVuSans-4c" x="199.337891"/>
     <use xlink:href="#DejaVuSans-35" x="255.050781"/>
    </g>
    <!-- 75 -->
    <g transform="translate(284.140963 151.525991)scale(0.0579 -0.0579)">
     <use xlink:href="#DejaVuSans-37"/>
     <use xlink:href="#DejaVuSans-35" x="63.623047"/>
    </g>
    <!-- GND -->
    <g transform="translate(281.186706 158.009525)scale(0.0579 -0.0579)">
     <use xlink:href="#DejaVuSans-47"/>
     <use xlink:href="#DejaVuSans-4e" x="77.490234"/>
     <use xlink:href="#DejaVuSans-44" x="152.294922"/>
    </g>
   </g>
  </g>
 </g>
 <defs>
  <clipPath id="p1a313c61e6">
   <rect x="91.690783" y="41.472" width="288.938434" height="266.112"/>
  </clipPath>
 </defs>
</svg>
