<?xml version="1.0" encoding="UTF-8" standalone="no"?>
<svg
   width="460.8pt"
   height="345.6pt"
   viewBox="0 0 460.8 345.6"
   version="1.1"
   id="svg203311"
   sodipodi:docname="REU.svg"
   inkscape:version="1.2 (dc2aedaf03, 2022-05-15)"
   xmlns:inkscape="http://www.inkscape.org/namespaces/inkscape"
   xmlns:sodipodi="http://sodipodi.sourceforge.net/DTD/sodipodi-0.dtd"
   xmlns:xlink="http://www.w3.org/1999/xlink"
   xmlns="http://www.w3.org/2000/svg"
   xmlns:svg="http://www.w3.org/2000/svg"
   xmlns:rdf="http://www.w3.org/1999/02/22-rdf-syntax-ns#"
   xmlns:cc="http://creativecommons.org/ns#"
   xmlns:dc="http://purl.org/dc/elements/1.1/">
  <sodipodi:namedview
     id="namedview203313"
     pagecolor="#505050"
     bordercolor="#eeeeee"
     borderopacity="1"
     inkscape:showpageshadow="0"
     inkscape:pageopacity="0"
     inkscape:pagecheckerboard="0"
     inkscape:deskcolor="#505050"
     inkscape:document-units="pt"
     showgrid="false"
     inkscape:zoom="2.5687863"
     inkscape:cx="309.09539"
     inkscape:cy="305.2025"
     inkscape:window-width="1920"
     inkscape:window-height="1017"
     inkscape:window-x="-8"
     inkscape:window-y="-8"
     inkscape:window-maximized="1"
     inkscape:current-layer="axes_1" />
  <metadata
     id="metadata202669">
    <rdf:RDF>
      <cc:Work>
        <dc:type
           rdf:resource="http://purl.org/dc/dcmitype/StillImage" />
        <dc:date>2022-04-26T15:24:26.766841</dc:date>
        <dc:format>image/svg+xml</dc:format>
        <dc:creator>
          <cc:Agent>
            <dc:title>Matplotlib v3.5.0, https://matplotlib.org/</dc:title>
          </cc:Agent>
        </dc:creator>
      </cc:Work>
    </rdf:RDF>
  </metadata>
  <defs
     id="defs202673">
    <style
       type="text/css"
       id="style202671">*{stroke-linejoin: round; stroke-linecap: butt}</style>
  </defs>
  <g
     id="figure_1">
    <g
       id="patch_1">
      <path
         d="M 0 345.6  L 460.8 345.6  L 460.8 0  L 0 0  z "
         style="fill: #ffffff"
         id="path202675" />
    </g>
    <g
       id="axes_1">
      <g
         id="patch_2">
        <path
           d="M 345.359798 114.922327  L 351.902436 120.903195  L 352.108052 155.71426  L 347.63123 166.218252  L 344.805421 172.95151  L 335.724193 194.362258  L 332.189645 202.724792  L 300.804741 220.780599  L 298.946778 221.871491  L 259.044129 222.571019  L 238.741034 222.83758  L 220.490237 222.725076  L 188.079976 222.788916  L 178.402771 225.468617  L 156.067539 232.320848  L 197.692862 137.506886  L 230.509204 162.568301  L 235.91333 161.456707  L 243.026185 160.056664  L 311.818876 138.138199  L 317.327109 134.326802  z "
           clip-path="url(#p0affe3cc1a)"
           style="fill: #ffedd9; stroke: #ffedd9; stroke-linejoin: miter"
           id="path202678" />
      </g>
      <g
         id="patch_3">
        <path
           d="M 156.067539 232.320848  L 120.211948 234.503992  L 121.117637 232.099112  L 120.959736 229.441736  L 122.101428 228.078785  L 122.997894 227.332628  L 123.230115 226.334852  L 122.963002 224.866154  L 124.056061 223.326748  L 125.885505 220.589606  L 127.1495 217.460392  L 129.047905 216.056611  L 129.916507 213.140904  L 131.312085 207.325879  L 131.365863 205.847221  L 131.735528 204.509647  L 135.248084 202.644094  L 136.201937 200.508563  L 135.007853 194.045247  L 135.464976 191.356385  L 138.142689 183.971442  L 138.312901 179.904973  L 139.304321 178.766613  L 141.073047 177.524621  L 141.790482 174.75757  L 141.606505 173.135887  L 141.874883 170.535658  L 141.31169 167.431982  L 141.806301 165.444543  L 144.068057 161.764141  L 144.944888 158.945704  L 149.3501 156.028706  L 156.225582 147.595306  L 156.273709 143.938571  L 157.017818 142.801346  L 158.081777 142.583634  L 159.816989 142.933145  L 161.128366 141.984775  L 161.453015 139.698413  L 162.29349 138.921701  L 163.759026 138.806604  L 165.051517 138.748462  L 166.980396 137.364728  L 168.49405 134.792822  L 169.689345 129.479048  L 171.945553 123.962477  L 174.796943 119.763142  L 176.448423 116.410933  L 179.840054 114.945159  L 179.380758 114.552008  L 184.981539 114.87087  L 197.849126 121.723038  L 197.692862 137.506886  z "
           clip-path="url(#p0affe3cc1a)"
           style="fill: #ffedd9; stroke: #ffedd9; stroke-linejoin: miter"
           id="path202681" />
      </g>
      <g
         id="patch_4">
        <path
           d="M 345.359798 114.922327  L 351.902436 120.903195  L 352.108052 155.71426  L 347.63123 166.218252  L 344.805421 172.95151  L 335.724193 194.362258  L 332.189645 202.724792  L 300.804741 220.780599  L 298.946778 221.871491  L 259.044129 222.571019  L 238.741034 222.83758  L 220.490237 222.725076  L 188.079976 222.788916  L 178.402771 225.468617  L 156.067539 232.320848  L 197.692862 137.506886  L 230.509204 162.568301  L 235.91333 161.456707  L 243.026185 160.056664  L 311.818876 138.138199  L 317.327109 134.326802  L 345.359798 114.922327  z "
           clip-path="url(#p0affe3cc1a)"
           style="fill: #ffedd9; stroke: #ffedd9; stroke-linejoin: miter"
           id="path202684" />
      </g>
      <g
         id="patch_5">
        <path
           d="M 156.067539 232.320848  L 120.211948 234.503992  L 121.117637 232.099112  L 120.959736 229.441736  L 122.101428 228.078785  L 122.997894 227.332628  L 123.230115 226.334852  L 122.963002 224.866154  L 124.056061 223.326748  L 125.885505 220.589606  L 127.1495 217.460392  L 129.047905 216.056611  L 129.916507 213.140904  L 131.312085 207.325879  L 131.365863 205.847221  L 131.735528 204.509647  L 135.248084 202.644094  L 136.201937 200.508563  L 135.007853 194.045247  L 135.464976 191.356385  L 138.142689 183.971442  L 138.312901 179.904973  L 139.304321 178.766613  L 141.073047 177.524621  L 141.790482 174.75757  L 141.606505 173.135887  L 141.874883 170.535658  L 141.31169 167.431982  L 141.806301 165.444543  L 144.068057 161.764141  L 144.944888 158.945704  L 149.3501 156.028706  L 156.225582 147.595306  L 156.273709 143.938571  L 157.017818 142.801346  L 158.081777 142.583634  L 159.816989 142.933145  L 161.128366 141.984775  L 161.453015 139.698413  L 162.29349 138.921701  L 163.759026 138.806604  L 165.051517 138.748462  L 166.980396 137.364728  L 168.49405 134.792822  L 169.689345 129.479048  L 171.945553 123.962477  L 174.796943 119.763142  L 176.448423 116.410933  L 179.840054 114.945159  L 179.380758 114.552008  L 184.981539 114.87087  L 197.849126 121.723038  L 197.692862 137.506886  L 156.067539 232.320848  z "
           clip-path="url(#p0affe3cc1a)"
           style="fill: #ffedd9; stroke: #ffedd9; stroke-linejoin: miter"
           id="path202687" />
      </g>
      <g
         id="line2d_1">
        <path
           d="M 345.359798 114.922327  L 351.902436 120.903195  L 352.108052 155.71426  L 347.63123 166.218252  L 344.805421 172.95151  L 335.724193 194.362258  L 332.189645 202.724792  L 300.804741 220.780599  L 298.946778 221.871491  L 259.044129 222.571019  L 238.741034 222.83758  L 220.490237 222.725076  L 188.079976 222.788916  L 178.402771 225.468617  L 156.067539 232.320848  L 197.692862 137.506886  L 230.509204 162.568301  L 235.91333 161.456707  L 243.026185 160.056664  L 311.818876 138.138199  L 317.327109 134.326802  L 345.359798 114.922327  "
           clip-path="url(#p0affe3cc1a)"
           style="fill: none; stroke: #ffc380; stroke-width: 0.5; stroke-linecap: square"
           id="path202690" />
      </g>
      <g
         id="line2d_2">
        <path
           d="M 156.067539 232.320848  L 120.211948 234.503992  L 121.117637 232.099112  L 120.959736 229.441736  L 122.101428 228.078785  L 122.997894 227.332628  L 123.230115 226.334852  L 122.963002 224.866154  L 124.056061 223.326748  L 125.885505 220.589606  L 127.1495 217.460392  L 129.047905 216.056611  L 129.916507 213.140904  L 131.312085 207.325879  L 131.365863 205.847221  L 131.735528 204.509647  L 135.248084 202.644094  L 136.201937 200.508563  L 135.007853 194.045247  L 135.464976 191.356385  L 138.142689 183.971442  L 138.312901 179.904973  L 139.304321 178.766613  L 141.073047 177.524621  L 141.790482 174.75757  L 141.606505 173.135887  L 141.874883 170.535658  L 141.31169 167.431982  L 141.806301 165.444543  L 144.068057 161.764141  L 144.944888 158.945704  L 149.3501 156.028706  L 156.225582 147.595306  L 156.273709 143.938571  L 157.017818 142.801346  L 158.081777 142.583634  L 159.816989 142.933145  L 161.128366 141.984775  L 161.453015 139.698413  L 162.29349 138.921701  L 163.759026 138.806604  L 165.051517 138.748462  L 166.980396 137.364728  L 168.49405 134.792822  L 169.689345 129.479048  L 171.945553 123.962477  L 174.796943 119.763142  L 176.448423 116.410933  L 179.840054 114.945159  L 179.380758 114.552008  L 184.981539 114.87087  L 197.849126 121.723038  L 197.692862 137.506886  L 156.067539 232.320848  "
           clip-path="url(#p0affe3cc1a)"
           style="fill: none; stroke: #ffc380; stroke-width: 0.5; stroke-linecap: square"
           id="path202693" />
      </g>
      <g
         id="line2d_3">
        <path
           d="M 368.216114 63.673476  L 387.883522 82.465549  L 378.583488 91.916741  L 359.341928 105.231452  L 345.359798 114.922327  L 327.179146 100.817511  L 316.965785 92.909763  L 287.296522 72.498937  L 305.164438 69.799168  L 321.702814 72.346313  L 346.634488 64.808397  L 368.216114 63.673476  "
           clip-path="url(#p0affe3cc1a)"
           style="fill: none; stroke: #8f8f8f; stroke-width: 0.2; stroke-linecap: square"
           id="path202696" />
      </g>
      <g
         id="line2d_4">
        <path
           d="M 430.486452 236.351867  L 440.466317 251.49062  L 454.84385 249.156579  L 432.875093 296.83879  L 408.4553 305.885412  L 397.466933 309.957574  L 383.255859 313.02533  L 337.08812 308.866975  L 317.417135 307.161165  L 338.242023 289.619784  L 338.292838 268.145495  L 332.170295 268.677744  L 325.590673 257.634118  L 299.71138 259.301292  L 299.481237 248.02692  L 298.946778 221.871491  L 300.804741 220.780599  L 332.189645 202.724792  L 335.724193 194.362258  L 429.463397 210.506764  L 429.902232 221.58842  L 454.84385 249.156579  L 432.875093 296.83879  L 408.4553 305.885412  L 397.466933 309.957574  L 383.255859 313.02533  L 337.08812 308.866975  L 317.417135 307.161165  L 299.959782 271.477958  L 299.8678 266.968039  L 299.71138 259.301292  L 299.481237 248.02692  L 298.946778 221.871491  L 298.251492 187.901618  L 335.724193 194.362258  L 429.463397 210.506764  L 451.456569 214.755446  L 451.419577 222.697137  L 452.582919 231.67896  L 454.84385 249.156579  L 432.875093 296.83879  L 408.4553 305.885412  L 397.466933 309.957574  L 383.255859 313.02533  L 337.08812 308.866975  L 317.417135 307.161165  L 299.959782 271.477958  L 299.8678 266.968039  L 299.71138 259.301292  L 299.481237 248.02692  L 298.946778 221.871491  L 298.251492 187.901618  L 335.724193 194.362258  L 429.463397 210.506764  L 451.456569 214.755446  L 451.419577 222.697137  L 452.582919 231.67896  L 430.486452 236.351867  L 440.466317 251.49062  L 454.84385 249.156579  L 432.875093 296.83879  L 408.4553 305.885412  L 397.466933 309.957574  L 383.255859 313.02533  L 337.08812 308.866975  L 317.417135 307.161165  L 338.242023 289.619784  L 338.292838 268.145495  L 332.170295 268.677744  L 325.590673 257.634118  L 299.71138 259.301292  L 299.481237 248.02692  L 298.946778 221.871491  L 298.251492 187.901618  L 335.724193 194.362258  L 429.463397 210.506764  L 429.902232 221.58842  L 454.84385 249.156579  L 432.875093 296.83879  L 408.4553 305.885412  L 397.466933 309.957574  L 383.255859 313.02533  L 337.08812 308.866975  L 317.417135 307.161165  L 338.242023 289.619784  L 338.292838 268.145495  L 332.170295 268.677744  L 325.590673 257.634118  L 299.71138 259.301292  L 299.481237 248.02692  L 298.946778 221.871491  L 298.251492 187.901618  L 335.724193 194.362258  L 429.463397 210.506764  L 451.456569 214.755446  L 451.419577 222.697137  L 452.582919 231.67896  L 454.84385 249.156579  L 432.875093 296.83879  L 408.4553 305.885412  L 397.466933 309.957574  L 383.255859 313.02533  L 337.08812 308.866975  L 317.417135 307.161165  L 299.959782 271.477958  L 299.8678 266.968039  L 299.71138 259.301292  L 299.481237 248.02692  L 298.946778 221.871491  L 298.251492 187.901618  L 335.724193 194.362258  L 429.463397 210.506764  L 451.456569 214.755446  L 451.419577 222.697137  L 452.582919 231.67896  L 430.486452 236.351867  "
           clip-path="url(#p0affe3cc1a)"
           style="fill: none; stroke: #8f8f8f; stroke-width: 0.2; stroke-linecap: square"
           id="path202699" />
      </g>
      <g
         id="line2d_5">
        <path
           d="M 359.341928 105.231452  L 418.761964 156.375116  L 414.096912 161.894423  L 408.902379 172.846311  L 428.701147 191.274132  L 430.486452 236.351867  L 416.608311 243.320073  L 377.887542 210.323787  L 332.189645 202.724792  L 352.108052 155.71426  L 351.902436 120.903195  L 345.359798 114.922327  L 359.341928 105.231452  L 418.761964 156.375116  L 414.096912 161.894423  L 408.902379 172.846311  L 428.701147 191.274132  L 429.463397 210.506764  L 335.724193 194.362258  L 352.108052 155.71426  L 351.902436 120.903195  L 345.359798 114.922327  L 359.341928 105.231452  L 418.761964 156.375116  L 414.096912 161.894423  L 408.902379 172.846311  L 428.701147 191.274132  L 429.463397 210.506764  L 298.251492 187.901618  L 297.946526 173.021689  L 317.327109 134.326802  L 359.341928 105.231452  L 418.761964 156.375116  L 424.099039 150.449664  L 443.431564 149.285871  L 455.718805 148.982199  L 461.8 148.706926  M 461.8 247.742636  L 454.84385 249.156579  L 451.419577 222.697137  L 451.456569 214.755446  L 429.463397 210.506764  L 298.251492 187.901618  L 297.946526 173.021689  L 317.327109 134.326802  L 359.341928 105.231452  L 418.761964 156.375116  L 424.099039 150.449664  L 443.431564 149.285871  L 455.718805 148.982199  L 461.8 148.706926  M 461.8 247.742636  L 454.84385 249.156579  L 451.419577 222.697137  L 451.456569 214.755446  L 429.463397 210.506764  L 298.251492 187.901618  L 297.946526 173.021689  L 317.327109 134.326802  L 359.341928 105.231452  L 418.761964 156.375116  L 424.099039 150.449664  L 443.431564 149.285871  L 455.718805 148.982199  L 461.8 148.706926  M 461.8 247.742636  L 454.84385 249.156579  L 451.419577 222.697137  L 451.456569 214.755446  L 429.463397 210.506764  L 298.251492 187.901618  L 297.946526 173.021689  L 317.327109 134.326802  L 359.341928 105.231452  L 359.341928 105.231452  "
           clip-path="url(#p0affe3cc1a)"
           style="fill: none; stroke: #8f8f8f; stroke-width: 0.2; stroke-linecap: square"
           id="path202702" />
      </g>
      <g
         id="line2d_6">
        <path
           d="M 102.489431 215.738267  L 129.047905 216.056611  L 127.1495 217.460392  L 125.885505 220.589606  L 122.963002 224.866154  L 123.230115 226.334852  L 122.997894 227.332628  L 122.101428 228.078785  L 120.959736 229.441736  L 121.117637 232.099112  L 120.211948 234.503992  L 120.346343 234.71523  L 120.475838 235.798416  L 120.513055 237.219352  L 120.77791 238.37095  L 120.502407 239.113601  L 120.544973 239.587418  L 120.408526 239.721959  L 120.315394 240.195013  L 120.358718 240.533529  L 120.177398 240.600158  L 120.26519 241.074235  L 120.543083 241.53585  L 121.046334 242.161076  L 122.020259 243.722454  L 123.393367 245.015162  L 123.851867 245.639951  L 124.57536 247.605613  L 124.991945 249.434379  L 124.516276 250.352118  L 123.801635 251.904569  L 123.15549 252.428941  L 121.915171 253.870194  L 121.245512 255.314392  L 121.231538 256.207381  L 121.232876 259.265477  L 121.194284 259.684739  L 120.682704 260.317886  L 119.297219 261.419611  L 118.986408 261.810224  L 118.8255 262.945937  L 118.954719 264.13747  L 119.349551 264.93812  L 119.480844 265.791368  L 119.390874 267.225209  L 119.104944 267.981335  L 117.834196 270.869664  L 117.571879 272.180684  L 116.372395 275.082746  L 116.491353 276.436683  L 116.687194 277.128021  L 117.814851 280.20663  L 118.189499 281.480879  L 118.01241 282.183506  L 117.633246 283.182632  L 117.193192 283.694211  L 115.940004 284.647312  L 114.645099 286.371273  L 114.769658 286.832173  L 115.026809 287.772063  L 113.484047 295.355394  L 105.725847 302.818454  L 102.74462 322.405146  L 98.867629 330.582039  L 71.435587 331.314546  L 73.25996 333.93143  L 72.679937 335.24699  L 71.69902 336.158597  L 68.299152 336.475887  L 69.023104 337.73051  L 68.236766 339.752197  L 67.023857 340.392088  L 64.046322 340.986246  L 30.976504 334.894178  L 6.806004 307.334125  L 15.451817 257.885984  L 29.928363 261.725362  L 50.837187 267.555154  L 51.188071 245.193017  L 77.249163 213.452861  L 119.449112 266.748928  L 140.776271 274.386427  L 136.259519 286.822001  L 136.74282 301.746825  L 137.243573 305.134235  L 102.74462 322.405146  L 105.725847 302.818454  L 113.484047 295.355394  L 115.026809 287.772063  L 114.645099 286.371273  L 114.921507 285.872341  L 115.940004 284.647312  L 117.193192 283.694211  L 117.633246 283.182632  L 118.189499 281.480879  L 116.491353 276.436683  L 116.372395 275.082746  L 116.677507 274.259172  L 117.571879 272.180684  L 117.834196 270.869664  L 119.390874 267.225209  L 102.489431 215.738267  L 102.489431 215.738267  "
           clip-path="url(#p0affe3cc1a)"
           style="fill: none; stroke: #8f8f8f; stroke-width: 0.2; stroke-linecap: square"
           id="path202705" />
      </g>
      <g
         id="line2d_7">
        <path
           d="M 69.777012 105.380837  L 55.981619 89.284834  L 51.519783 86.597752  L 48.175382 87.167483  L 46.214721 82.511796  L 45.20026 80.089176  L 43.853368 79.956217  L 42.257112 74.424254  L 41.016173 74.454916  L 41.932205 71.612931  L 40.318138 71.150143  L 38.961738 69.38522  L 34.798499 65.603072  L 35.244004 64.572589  L 32.659248 61.775971  L 33.522501 60.679529  L 34.823339 61.864295  L 36.087094 59.574605  L 34.287014 59.483026  L 34.084177 57.083964  L 32.03796 55.98435  L 31.659749 55.300554  L 30.683778 54.723544  L 30.430123 53.430967  L 31.364638 52.851875  L 32.25344 52.48037  L 31.124163 51.381432  L 30.749249 50.547303  L 29.190738 50.253749  L 27.490542 48.491191  L 26.105125 48.12517  L 25.57616 47.701059  L -1 47.868008  M -1 225.918061  L 33.69753 240.08414  L 55.083475 240.441418  L 76.256984 214.756429  L 77.249163 213.452861  L 81.666491 208.054417  L 91.694674 195.682829  L 95.240217 195.679437  L 97.072981 197.312486  L 98.8287 199.282607  L 100.682487 201.591365  L 102.491606 203.410654  L 104.754109 204.932416  L 107.196947 205.891039  L 111.436434 196.789284  L 129.186176 197.792374  L 131.208566 197.913702  L 136.201937 200.508563  L 135.007853 194.045247  L 135.464976 191.356385  L 138.142689 183.971442  L 138.312901 179.904973  L 139.304321 178.766613  L 141.073047 177.524621  L 141.790482 174.75757  L 141.606505 173.135887  L 141.874883 170.535658  L 141.31169 167.431982  L 141.806301 165.444543  L 144.068057 161.764141  L 144.944888 158.945704  L 149.3501 156.028706  L 156.225582 147.595306  L 156.273709 143.938571  L 157.017818 142.801346  L 158.081777 142.583634  L 159.816989 142.933145  L 161.128366 141.984775  L 161.453015 139.698413  L 162.29349 138.921701  L 163.759026 138.806604  L 165.051517 138.748462  L 166.980396 137.364728  L 168.49405 134.792822  L 169.689345 129.479048  L 171.945553 123.962477  L 174.796943 119.763142  L 176.448423 116.410933  L 179.840054 114.945159  L 179.380758 114.552008  L 178.999714 113.497988  L 176.667493 114.706239  L 176.487982 113.311848  L 174.337054 113.16867  L 174.285803 113.514871  L 173.507121 113.147214  L 172.761264 113.594443  L 171.276459 113.165555  L 170.211556 112.283604  L 168.848732 112.16699  L 168.46075 111.742176  L 166.955697 111.747875  L 164.996144 110.559463  L 163.641546 108.480655  L 161.118711 107.872408  L 160.896584 107.517373  L 160.370033 107.694105  L 160.16121 107.043692  L 158.674983 106.510556  L 156.987694 106.847678  L 154.406869 102.837711  L 153.218375 102.712395  L 151.358329 104.821925  L 147.341898 105.818994  L 144.474547 104.15809  L 140.805775 101.736266  L 135.392454 104.320688  L 126.46237 102.952065  L 126.446551 100.244942  L 117.334783 96.569085  L 113.876809 91.368394  L 115.472651 89.242403  L 114.265204 87.865454  L 104.519025 104.890633  L 92.134636 119.020566  L 79.217675 111.21258  L 69.777012 105.380837  "
           clip-path="url(#p0affe3cc1a)"
           style="fill: none; stroke: #8f8f8f; stroke-width: 0.2; stroke-linecap: square"
           id="path202708" />
      </g>
      <g
         id="line2d_8">
        <path
           d="M 156.067539 232.320848  L 120.211948 234.503992  L 121.117637 232.099112  L 120.959736 229.441736  L 122.101428 228.078785  L 122.997894 227.332628  L 123.230115 226.334852  L 122.963002 224.866154  L 124.056061 223.326748  L 125.885505 220.589606  L 127.1495 217.460392  L 129.047905 216.056611  L 129.916507 213.140904  L 131.312085 207.325879  L 131.365863 205.847221  L 131.735528 204.509647  L 135.248084 202.644094  L 136.201937 200.508563  L 135.007853 194.045247  L 135.464976 191.356385  L 138.142689 183.971442  L 138.312901 179.904973  L 139.304321 178.766613  L 141.073047 177.524621  L 141.790482 174.75757  L 141.606505 173.135887  L 141.874883 170.535658  L 141.31169 167.431982  L 141.31169 167.431982  L 141.806301 165.444543  L 144.068057 161.764141  L 144.944888 158.945704  L 149.3501 156.028706  L 156.225582 147.595306  L 156.273709 143.938571  L 157.017818 142.801346  L 158.081777 142.583634  L 159.816989 142.933145  L 161.128366 141.984775  L 161.453015 139.698413  L 162.29349 138.921701  L 163.759026 138.806604  L 165.051517 138.748462  L 166.980396 137.364728  L 168.49405 134.792822  L 169.689345 129.479048  L 171.945553 123.962477  L 174.796943 119.763142  L 176.448423 116.410933  L 179.840054 114.945159  L 179.380758 114.552008  L 184.981539 114.87087  L 197.849126 121.723038  L 197.692862 137.506886  L 156.067539 232.320848  "
           clip-path="url(#p0affe3cc1a)"
           style="fill: none; stroke: #8f8f8f; stroke-width: 0.2; stroke-linecap: square"
           id="path202711" />
      </g>
      <g
         id="line2d_9">
        <path
           d="M 238.741034 222.83758  L 259.044129 222.571019  L 298.946778 221.871491  L 299.481237 248.02692  L 299.71138 259.301292  L 299.8678 266.968039  L 299.959782 271.477958  L 317.417135 307.161165  L 335.599279 333.388663  L 341.10847 341.371697  L 344.705342 346.6  M 247.952159 346.6  L 248.413978 346.061965  L 255.091181 343.529694  L 258.214889 333.522254  L 260.469771 332.66274  L 267.29649 329.924662  L 276.441661 326.584764  L 279.42112 316.640626  L 281.124623 310.595783  L 282.635684 305.136383  L 283.812263 300.437674  L 283.449438 281.645218  L 271.398459 280.277499  L 250.888871 278.095088  L 249.396059 257.249827  L 238.741034 222.83758  L 259.044129 222.571019  L 298.946778 221.871491  L 299.481237 248.02692  L 299.71138 259.301292  L 299.8678 266.968039  L 299.959782 271.477958  L 317.417135 307.161165  L 335.599279 333.388663  L 341.10847 341.371697  L 344.705342 346.6  M 243.524008 346.6  L 242.829684 340.03989  L 228.9784 323.78139  L 223.904416 309.918175  L 216.487604 306.647291  L 220.835692 302.224088  L 299.71138 259.301292  L 325.590673 257.634118  L 332.170295 268.677744  L 338.292838 268.145495  L 338.242023 289.619784  L 317.417135 307.161165  L 299.959782 271.477958  L 299.8678 266.968039  L 238.741034 222.83758  "
           clip-path="url(#p0affe3cc1a)"
           style="fill: none; stroke: #8f8f8f; stroke-width: 0.2; stroke-linecap: square"
           id="path202714" />
      </g>
      <g
         id="line2d_10">
        <path
           d="M 178.402771 225.468617  L 177.060517 250.301191  L 176.712658 256.466968  L 160.730053 264.59226  L 140.776271 274.386427  L 156.067539 232.320848  L 136.259519 286.822001  L 119.449112 266.748928  L 140.776271 274.386427  L 119.449112 266.748928  L 119.480844 265.791368  L 119.349551 264.93812  L 118.954719 264.13747  L 118.876093 263.60928  L 118.8255 262.945937  L 118.873328 262.526738  L 118.986408 261.810224  L 119.297219 261.419611  L 119.689272 261.097106  L 120.682704 260.317886  L 121.194284 259.684739  L 121.232876 259.265477  L 121.287368 258.151691  L 121.231538 256.207381  L 121.270556 255.706937  L 121.245512 255.314392  L 121.365005 255.017359  L 121.640074 254.450547  L 121.915171 253.870194  L 123.15549 252.428941  L 123.801635 251.904569  L 124.14029 251.243272  L 124.516276 250.352118  L 124.79097 249.771657  L 124.991945 249.434379  L 124.886001 248.879081  L 124.57536 247.605613  L 124.191095 246.588849  L 123.851867 245.639951  L 123.393367 245.015162  L 122.020259 243.722454  L 121.046334 242.161076  L 120.543083 241.53585  L 120.44538 241.21056  L 120.399379 241.34561  L 120.26519 241.074235  L 120.221101 240.871022  L 120.175481 240.938418  L 120.177398 240.600158  L 120.358718 240.533529  L 120.315394 240.195013  L 120.31654 239.992057  L 120.408526 239.721959  L 120.544973 239.587418  L 120.502407 239.113601  L 120.731178 238.641305  L 120.686334 238.5734  L 120.77791 238.37095  L 120.779043 238.167995  L 120.688605 238.16749  L 120.645281 237.828978  L 120.513055 237.219352  L 120.475838 235.798416  L 120.38963 235.053742  L 120.346343 234.71523  L 120.211948 234.503992  L 156.067539 232.320848  L 140.776271 274.386427  L 188.079976 222.788916  L 220.490237 222.725076  L 238.741034 222.83758  L 220.835692 302.224088  L 216.487604 306.647291  L 188.782306 306.537693  L 183.251692 306.288828  L 176.514386 288.266036  L 174.915474 286.202467  L 167.43696 283.736537  L 139.434386 297.718484  L 136.618043 296.584866  L 136.259519 286.822001  L 119.449112 266.748928  L 140.776271 274.386427  L 156.067539 232.320848  L 178.402771 225.468617  L 176.712658 256.466968  L 175.234699 280.555885  L 174.915474 286.202467  L 167.43696 283.736537  L 139.434386 297.718484  L 136.618043 296.584866  L 136.259519 286.822001  L 140.776271 274.386427  L 160.730053 264.59226  L 178.402771 225.468617  "
           clip-path="url(#p0affe3cc1a)"
           style="fill: none; stroke: #8f8f8f; stroke-width: 0.2; stroke-linecap: square"
           id="path202717" />
      </g>
      <g
         id="line2d_11">
        <path
           d="M 188.079976 222.788916  L 220.490237 222.725076  L 238.741034 222.83758  L 249.396059 257.249827  L 250.888871 278.095088  L 250.438136 307.761388  L 243.120141 307.064129  L 233.702483 300.637718  L 212.564441 298.683455  L 209.306287 298.241646  L 206.282955 298.728987  L 203.124343 299.410215  L 200.526637 300.606567  L 177.060517 250.301191  L 178.402771 225.468617  L 188.079976 222.788916  "
           clip-path="url(#p0affe3cc1a)"
           style="fill: none; stroke: #8f8f8f; stroke-width: 0.2; stroke-linecap: square"
           id="path202720" />
      </g>
      <g
         id="line2d_12">
        <path
           d="M 238.741034 222.83758  L 259.044129 222.571019  L 298.946778 221.871491  L 299.481237 248.02692  L 299.71138 259.301292  L 325.590673 257.634118  L 332.170295 268.677744  L 338.292838 268.145495  L 338.242023 289.619784  L 337.08812 308.866975  L 335.599279 333.388663  L 310.569256 324.11267  L 312.327228 326.265587  L 276.441661 326.584764  L 279.42112 316.640626  L 281.124623 310.595783  L 282.635684 305.136383  L 283.812263 300.437674  L 283.449438 281.645218  L 271.398459 280.277499  L 250.888871 278.095088  L 249.396059 257.249827  L 238.741034 222.83758  "
           clip-path="url(#p0affe3cc1a)"
           style="fill: none; stroke: #8f8f8f; stroke-width: 0.2; stroke-linecap: square"
           id="path202723" />
      </g>
      <g
         id="line2d_13">
        <path
           d="M 189.085398 78.554633  L 193.870217 78.644026  L 192.235097 100.146169  L 189.990978 109.889397  L 184.981539 114.87087  L 179.380758 114.552008  L 178.999714 113.497988  L 176.667493 114.706239  L 176.487982 113.311848  L 174.337054 113.16867  L 174.285803 113.514871  L 173.507121 113.147214  L 172.761264 113.594443  L 171.276459 113.165555  L 170.211556 112.283604  L 168.848732 112.16699  L 168.46075 111.742176  L 166.955697 111.747875  L 164.996144 110.559463  L 179.014404 99.25935  L 189.085398 78.554633  "
           clip-path="url(#p0affe3cc1a)"
           style="fill: none; stroke: #8f8f8f; stroke-width: 0.2; stroke-linecap: square"
           id="path202726" />
      </g>
      <g
         id="line2d_14">
        <path
           d="M 287.296522 72.498937  L 316.965785 92.909763  L 327.179146 100.817511  L 345.359798 114.922327  L 317.327109 134.326802  L 311.818876 138.138199  L 243.026185 160.056664  L 235.91333 161.456707  L 230.509204 162.568301  L 197.692862 137.506886  L 197.849126 121.723038  L 198.426624 110.746938  L 192.235097 100.146169  L 193.870217 78.644026  L 221.454958 79.269009  L 246.518768 79.850778  L 251.414207 77.116345  L 253.775393 75.805355  L 262.641734 74.921349  L 287.296522 72.498937  "
           clip-path="url(#p0affe3cc1a)"
           style="fill: none; stroke: #8f8f8f; stroke-width: 0.2; stroke-linecap: square"
           id="path202729" />
      </g>
      <g
         id="line2d_15">
        <path
           d="M 192.235097 100.146169  L 198.426624 110.746938  L 197.849126 121.723038  L 184.981539 114.87087  L 189.990978 109.889397  L 192.235097 100.146169  "
           clip-path="url(#p0affe3cc1a)"
           style="fill: none; stroke: #8f8f8f; stroke-width: 0.2; stroke-linecap: square"
           id="path202732" />
      </g>
      <g
         id="line2d_16">
        <path
           d="M 368.216114 63.673476  L 370.240768 73.385568  L 378.583488 91.916741  L 359.341928 105.231452  L 345.359798 114.922327  L 327.179146 100.817511  L 316.965785 92.909763  L 287.296522 72.498937  L 305.164438 69.799168  L 321.702814 72.346313  L 346.634488 64.808397  L 368.216114 63.673476  "
           clip-path="url(#p0affe3cc1a)"
           style="fill: none; stroke: #8f8f8f; stroke-width: 0.2; stroke-linecap: square"
           id="path202735" />
      </g>
      <g
         id="line2d_17">
        <path
           d="M 345.359798 114.922327  L 351.902436 120.903195  L 352.108052 155.71426  L 347.63123 166.218252  L 344.805421 172.95151  L 335.724193 194.362258  L 332.189645 202.724792  L 300.804741 220.780599  L 298.946778 221.871491  L 259.044129 222.571019  L 238.741034 222.83758  L 220.490237 222.725076  L 188.079976 222.788916  L 178.402771 225.468617  L 156.067539 232.320848  L 197.692862 137.506886  L 230.509204 162.568301  L 235.91333 161.456707  L 243.026185 160.056664  L 311.818876 138.138199  L 317.327109 134.326802  L 345.359798 114.922327  L 345.359798 114.922327  "
           clip-path="url(#p0affe3cc1a)"
           style="fill: none; stroke: #ffc380; stroke-width: 0.5; stroke-linecap: square"
           id="path202738" />
      </g>
      <g
         id="line2d_18">
        <path
           d="M 156.067539 232.320848  L 120.211948 234.503992  L 121.117637 232.099112  L 120.959736 229.441736  L 122.101428 228.078785  L 122.997894 227.332628  L 123.230115 226.334852  L 122.963002 224.866154  L 124.056061 223.326748  L 125.885505 220.589606  L 127.1495 217.460392  L 129.047905 216.056611  L 129.916507 213.140904  L 131.312085 207.325879  L 131.365863 205.847221  L 131.735528 204.509647  L 135.248084 202.644094  L 136.201937 200.508563  L 135.007853 194.045247  L 135.464976 191.356385  L 138.142689 183.971442  L 138.312901 179.904973  L 139.304321 178.766613  L 141.073047 177.524621  L 141.790482 174.75757  L 141.606505 173.135887  L 141.874883 170.535658  L 141.31169 167.431982  L 141.806301 165.444543  L 144.068057 161.764141  L 144.944888 158.945704  L 149.3501 156.028706  L 156.225582 147.595306  L 156.273709 143.938571  L 157.017818 142.801346  L 158.081777 142.583634  L 159.816989 142.933145  L 161.128366 141.984775  L 161.453015 139.698413  L 162.29349 138.921701  L 163.759026 138.806604  L 165.051517 138.748462  L 166.980396 137.364728  L 168.49405 134.792822  L 169.689345 129.479048  L 171.945553 123.962477  L 174.796943 119.763142  L 176.448423 116.410933  L 179.840054 114.945159  L 179.380758 114.552008  L 184.981539 114.87087  L 197.849126 121.723038  L 197.692862 137.506886  L 156.067539 232.320848  L 156.067539 232.320848  "
           clip-path="url(#p0affe3cc1a)"
           style="fill: none; stroke: #ffc380; stroke-width: 0.5; stroke-linecap: square"
           id="path202741" />
      </g>
      <g
         id="text_1"
         transform="translate(16.51613,-1.651613)">
        <!-- DKB2 -->
        <g
           style="opacity:0.5"
           transform="matrix(0.0579,0,0,-0.0579,329.6342,84.412046)"
           id="g202758">
          <defs
             id="defs202748">
            <path
               id="DejaVuSans-44"
               d="M 1259,4147 V 519 h 763 q 966,0 1414,437 448,438 448,1382 0,937 -448,1373 -448,436 -1414,436 z m -631,519 h 1297 q 1356,0 1990,-564 635,-564 635,-1764 Q 4550,1131 3912,565 3275,0 1925,0 H 628 Z"
               transform="scale(0.015625)" />
            <path
               id="DejaVuSans-4b"
               d="m 628,4666 h 631 V 2694 l 2094,1972 h 813 L 1850,2491 4331,0 H 3500 L 1259,2247 V 0 H 628 Z"
               transform="scale(0.015625)" />
            <path
               id="DejaVuSans-42"
               d="M 1259,2228 V 519 h 1013 q 509,0 754,211 246,211 246,645 0,438 -246,645 -245,208 -754,208 z m 0,1919 V 2741 h 935 q 462,0 688,173 227,174 227,530 0,353 -227,528 -226,175 -688,175 z m -631,519 h 1613 q 722,0 1112,-300 391,-300 391,-853 0,-429 -200,-682 -200,-253 -588,-315 466,-100 724,-418 258,-317 258,-792 0,-625 -425,-966 Q 3088,0 2303,0 H 628 Z"
               transform="scale(0.015625)" />
            <path
               id="DejaVuSans-32"
               d="M 1228,531 H 3431 V 0 H 469 v 531 q 359,372 979,998 621,627 780,809 303,340 423,576 121,236 121,464 0,372 -261,606 -261,235 -680,235 -297,0 -627,-103 -329,-103 -704,-313 v 638 q 381,153 712,231 332,78 607,78 725,0 1156,-363 431,-362 431,-968 0,-288 -108,-546 -107,-257 -392,-607 -78,-91 -497,-524 Q 1991,1309 1228,531 Z"
               transform="scale(0.015625)" />
          </defs>
          <use
             xlink:href="#DejaVuSans-44"
             id="use202750" />
          <use
             xlink:href="#DejaVuSans-4b"
             x="77.001953"
             id="use202752" />
          <use
             xlink:href="#DejaVuSans-42"
             x="142.57812"
             id="use202754" />
          <use
             xlink:href="#DejaVuSans-32"
             x="211.18164"
             id="use202756" />
        </g>
        <!-- 245 -->
        <g
           style="opacity:0.5"
           transform="matrix(0.0579,0,0,-0.0579,332.06419,90.89558)"
           id="g202770">
          <defs
             id="defs202762">
            <path
               id="DejaVuSans-34"
               d="M 2419,4116 825,1625 h 1594 z m -166,550 h 794 V 1625 h 666 V 1100 H 3047 V 0 H 2419 V 1100 H 313 v 609 z"
               transform="scale(0.015625)" />
            <path
               id="DejaVuSans-35"
               d="M 691,4666 H 3169 V 4134 H 1269 V 2991 q 137,47 274,70 138,23 276,23 781,0 1237,-428 457,-428 457,-1159 Q 3513,744 3044,326 2575,-91 1722,-91 1428,-91 1123,-41 819,9 494,109 v 635 q 281,-153 581,-228 300,-75 634,-75 541,0 856,284 316,284 316,772 0,487 -316,771 -315,285 -856,285 -253,0 -505,-56 -251,-56 -513,-175 z"
               transform="scale(0.015625)" />
          </defs>
          <use
             xlink:href="#DejaVuSans-32"
             id="use202764" />
          <use
             xlink:href="#DejaVuSans-34"
             x="63.623047"
             id="use202766" />
          <use
             xlink:href="#DejaVuSans-35"
             x="127.24609"
             id="use202768" />
        </g>
        <!-- 105 -->
        <g
           style="opacity:0.5"
           transform="matrix(0.0579,0,0,-0.0579,332.06419,97.379113)"
           id="g202782">
          <defs
             id="defs202774">
            <path
               id="DejaVuSans-31"
               d="M 794,531 H 1825 V 4091 L 703,3866 v 575 l 1116,225 h 631 V 531 H 3481 V 0 H 794 Z"
               transform="scale(0.015625)" />
            <path
               id="DejaVuSans-30"
               d="m 2034,4250 q -487,0 -733,-480 -245,-479 -245,-1442 0,-959 245,-1439 246,-480 733,-480 491,0 736,480 246,480 246,1439 0,963 -246,1442 -245,480 -736,480 z m 0,500 q 785,0 1199,-621 414,-620 414,-1801 0,-1178 -414,-1799 -414,-620 -1199,-620 -784,0 -1198,620 -414,621 -414,1799 0,1181 414,1801 414,621 1198,621 z"
               transform="scale(0.015625)" />
          </defs>
          <use
             xlink:href="#DejaVuSans-31"
             id="use202776" />
          <use
             xlink:href="#DejaVuSans-30"
             x="63.623047"
             id="use202778" />
          <use
             xlink:href="#DejaVuSans-35"
             x="127.24609"
             id="use202780" />
        </g>
      </g>
      <g
         id="text_2"
         transform="translate(-25.6,-11.767742)">
        <!-- EDMMFUE -->
        <g
           style="opacity:0.5"
           transform="matrix(0.0579,0,0,-0.0579,361.88042,245.57762)"
           id="g202805">
          <defs
             id="defs202789">
            <path
               id="DejaVuSans-45"
               d="M 628,4666 H 3578 V 4134 H 1259 V 2753 H 3481 V 2222 H 1259 V 531 H 3634 V 0 H 628 Z"
               transform="scale(0.015625)" />
            <path
               id="DejaVuSans-4d"
               d="m 628,4666 h 941 L 2759,1491 3956,4666 h 941 V 0 H 4281 V 4097 L 3078,897 H 2444 L 1241,4097 V 0 H 628 Z"
               transform="scale(0.015625)" />
            <path
               id="DejaVuSans-46"
               d="M 628,4666 H 3309 V 4134 H 1259 V 2759 H 3109 V 2228 H 1259 V 0 H 628 Z"
               transform="scale(0.015625)" />
            <path
               id="DejaVuSans-55"
               d="m 556,4666 h 635 V 1831 q 0,-750 271,-1080 272,-329 882,-329 606,0 878,329 272,330 272,1080 v 2835 h 634 V 1753 Q 4128,841 3676,375 3225,-91 2344,-91 1459,-91 1007,375 556,841 556,1753 Z"
               transform="scale(0.015625)" />
          </defs>
          <use
             xlink:href="#DejaVuSans-45"
             id="use202791" />
          <use
             xlink:href="#DejaVuSans-44"
             x="63.183594"
             id="use202793" />
          <use
             xlink:href="#DejaVuSans-4d"
             x="140.18555"
             id="use202795" />
          <use
             xlink:href="#DejaVuSans-4d"
             x="226.46484"
             id="use202797" />
          <use
             xlink:href="#DejaVuSans-46"
             x="312.74414"
             id="use202799" />
          <use
             xlink:href="#DejaVuSans-55"
             x="370.26367"
             id="use202801" />
          <use
             xlink:href="#DejaVuSans-45"
             x="443.45703"
             id="use202803" />
        </g>
        <!-- 145 -->
        <g
           style="opacity:0.5"
           transform="matrix(0.0579,0,0,-0.0579,371.02184,252.06115)"
           id="g202813">
          <use
             xlink:href="#DejaVuSans-31"
             id="use202807" />
          <use
             xlink:href="#DejaVuSans-34"
             x="63.623047"
             id="use202809" />
          <use
             xlink:href="#DejaVuSans-35"
             x="127.24609"
             id="use202811" />
        </g>
        <!-- 105 -->
        <g
           style="opacity:0.5"
           transform="matrix(0.0579,0,0,-0.0579,371.02184,258.54469)"
           id="g202821">
          <use
             xlink:href="#DejaVuSans-31"
             id="use202815" />
          <use
             xlink:href="#DejaVuSans-30"
             x="63.623047"
             id="use202817" />
          <use
             xlink:href="#DejaVuSans-35"
             x="127.24609"
             id="use202819" />
        </g>
      </g>
      <g
         id="text_3"
         transform="translate(-30.656501,-14.306368)">
        <!-- EDMMNDG -->
        <g
           style="opacity:0.5"
           transform="matrix(0.0579,0,0,-0.0579,397.91911,172.30816)"
           id="g202842">
          <defs
             id="defs202826">
            <path
               id="DejaVuSans-4e"
               d="m 628,4666 h 850 L 3547,763 v 3903 h 612 V 0 H 3309 L 1241,3903 V 0 H 628 Z"
               transform="scale(0.015625)" />
            <path
               id="DejaVuSans-47"
               d="M 3809,666 V 1919 H 2778 v 519 H 4434 V 434 Q 4069,175 3628,42 3188,-91 2688,-91 1594,-91 976,548 359,1188 359,2328 q 0,1144 617,1783 618,639 1712,639 456,0 867,-113 411,-112 758,-331 v -672 q -350,297 -744,447 -394,150 -828,150 -857,0 -1287,-478 -429,-478 -429,-1425 0,-944 429,-1422 430,-478 1287,-478 334,0 596,58 263,58 472,180 z"
               transform="scale(0.015625)" />
          </defs>
          <use
             xlink:href="#DejaVuSans-45"
             id="use202828" />
          <use
             xlink:href="#DejaVuSans-44"
             x="63.183594"
             id="use202830" />
          <use
             xlink:href="#DejaVuSans-4d"
             x="140.18555"
             id="use202832" />
          <use
             xlink:href="#DejaVuSans-4d"
             x="226.46484"
             id="use202834" />
          <use
             xlink:href="#DejaVuSans-4e"
             x="312.74414"
             id="use202836" />
          <use
             xlink:href="#DejaVuSans-44"
             x="387.54883"
             id="use202838" />
          <use
             xlink:href="#DejaVuSans-47"
             x="464.55078"
             id="use202840" />
        </g>
        <!-- 105 -->
        <g
           style="opacity:0.5"
           transform="matrix(0.0579,0,0,-0.0579,408.08554,178.79169)"
           id="g202850">
          <use
             xlink:href="#DejaVuSans-31"
             id="use202844" />
          <use
             xlink:href="#DejaVuSans-30"
             x="63.623047"
             id="use202846" />
          <use
             xlink:href="#DejaVuSans-35"
             x="127.24609"
             id="use202848" />
        </g>
        <!-- GND -->
        <g
           style="opacity:0.5"
           transform="matrix(0.0579,0,0,-0.0579,406.97323,185.27523)"
           id="g202858">
          <use
             xlink:href="#DejaVuSans-47"
             id="use202852" />
          <use
             xlink:href="#DejaVuSans-4e"
             x="77.490234"
             id="use202854" />
          <use
             xlink:href="#DejaVuSans-44"
             x="152.29492"
             id="use202856" />
        </g>
      </g>
      <g
         id="text_4">
        <!-- LFSB-APP -->
        <g
           style="opacity: 0.5"
           transform="translate(60.288677 272.333698)scale(0.0579 -0.0579)"
           id="g202884">
          <defs
             id="defs202866">
            <path
               id="DejaVuSans-4c"
               d="M 628 4666  L 1259 4666  L 1259 531  L 3531 531  L 3531 0  L 628 0  L 628 4666  z "
               transform="scale(0.015625)" />
            <path
               id="DejaVuSans-53"
               d="M 3425 4513  L 3425 3897  Q 3066 4069 2747 4153  Q 2428 4238 2131 4238  Q 1616 4238 1336 4038  Q 1056 3838 1056 3469  Q 1056 3159 1242 3001  Q 1428 2844 1947 2747  L 2328 2669  Q 3034 2534 3370 2195  Q 3706 1856 3706 1288  Q 3706 609 3251 259  Q 2797 -91 1919 -91  Q 1588 -91 1214 -16  Q 841 59 441 206  L 441 856  Q 825 641 1194 531  Q 1563 422 1919 422  Q 2459 422 2753 634  Q 3047 847 3047 1241  Q 3047 1584 2836 1778  Q 2625 1972 2144 2069  L 1759 2144  Q 1053 2284 737 2584  Q 422 2884 422 3419  Q 422 4038 858 4394  Q 1294 4750 2059 4750  Q 2388 4750 2728 4690  Q 3069 4631 3425 4513  z "
               transform="scale(0.015625)" />
            <path
               id="DejaVuSans-2d"
               d="M 313 2009  L 1997 2009  L 1997 1497  L 313 1497  L 313 2009  z "
               transform="scale(0.015625)" />
            <path
               id="DejaVuSans-41"
               d="M 2188 4044  L 1331 1722  L 3047 1722  L 2188 4044  z M 1831 4666  L 2547 4666  L 4325 0  L 3669 0  L 3244 1197  L 1141 1197  L 716 0  L 50 0  L 1831 4666  z "
               transform="scale(0.015625)" />
            <path
               id="DejaVuSans-50"
               d="M 1259 4147  L 1259 2394  L 2053 2394  Q 2494 2394 2734 2622  Q 2975 2850 2975 3272  Q 2975 3691 2734 3919  Q 2494 4147 2053 4147  L 1259 4147  z M 628 4666  L 2053 4666  Q 2838 4666 3239 4311  Q 3641 3956 3641 3272  Q 3641 2581 3239 2228  Q 2838 1875 2053 1875  L 1259 1875  L 1259 0  L 628 0  L 628 4666  z "
               transform="scale(0.015625)" />
          </defs>
          <use
             xlink:href="#DejaVuSans-4c"
             id="use202868" />
          <use
             xlink:href="#DejaVuSans-46"
             x="55.712891"
             id="use202870" />
          <use
             xlink:href="#DejaVuSans-53"
             x="111.482422"
             id="use202872" />
          <use
             xlink:href="#DejaVuSans-42"
             x="174.958984"
             id="use202874" />
          <use
             xlink:href="#DejaVuSans-2d"
             x="243.5625"
             id="use202876" />
          <use
             xlink:href="#DejaVuSans-41"
             x="277.396484"
             id="use202878" />
          <use
             xlink:href="#DejaVuSans-50"
             x="345.804688"
             id="use202880" />
          <use
             xlink:href="#DejaVuSans-50"
             x="406.107422"
             id="use202882" />
        </g>
        <!-- 145 -->
        <g
           style="opacity: 0.5"
           transform="translate(68.265306 278.817231)scale(0.0579 -0.0579)"
           id="g202892">
          <use
             xlink:href="#DejaVuSans-31"
             id="use202886" />
          <use
             xlink:href="#DejaVuSans-34"
             x="63.623047"
             id="use202888" />
          <use
             xlink:href="#DejaVuSans-35"
             x="127.246094"
             id="use202890" />
        </g>
        <!-- 20 -->
        <g
           style="opacity: 0.5"
           transform="translate(70.10725 285.300765)scale(0.0579 -0.0579)"
           id="g202898">
          <use
             xlink:href="#DejaVuSans-32"
             id="use202894" />
          <use
             xlink:href="#DejaVuSans-30"
             x="63.623047"
             id="use202896" />
        </g>
      </g>
      <g
         id="text_5">
        <!-- LFST_SIV -->
        <g
           style="opacity: 0.5"
           transform="translate(14.391307 139.053751)scale(0.0579 -0.0579)"
           id="g202923">
          <defs
             id="defs202905">
            <path
               id="DejaVuSans-54"
               d="M -19 4666  L 3928 4666  L 3928 4134  L 2272 4134  L 2272 0  L 1638 0  L 1638 4134  L -19 4134  L -19 4666  z "
               transform="scale(0.015625)" />
            <path
               id="DejaVuSans-5f"
               d="M 3263 -1063  L 3263 -1509  L -63 -1509  L -63 -1063  L 3263 -1063  z "
               transform="scale(0.015625)" />
            <path
               id="DejaVuSans-49"
               d="M 628 4666  L 1259 4666  L 1259 0  L 628 0  L 628 4666  z "
               transform="scale(0.015625)" />
            <path
               id="DejaVuSans-56"
               d="M 1831 0  L 50 4666  L 709 4666  L 2188 738  L 3669 4666  L 4325 4666  L 2547 0  L 1831 0  z "
               transform="scale(0.015625)" />
          </defs>
          <use
             xlink:href="#DejaVuSans-4c"
             id="use202907" />
          <use
             xlink:href="#DejaVuSans-46"
             x="55.712891"
             id="use202909" />
          <use
             xlink:href="#DejaVuSans-53"
             x="111.482422"
             id="use202911" />
          <use
             xlink:href="#DejaVuSans-54"
             x="174.958984"
             id="use202913" />
          <use
             xlink:href="#DejaVuSans-5f"
             x="236.042969"
             id="use202915" />
          <use
             xlink:href="#DejaVuSans-53"
             x="286.042969"
             id="use202917" />
          <use
             xlink:href="#DejaVuSans-49"
             x="349.519531"
             id="use202919" />
          <use
             xlink:href="#DejaVuSans-56"
             x="379.011719"
             id="use202921" />
        </g>
        <!-- 145 -->
        <g
           style="opacity: 0.5"
           transform="translate(21.818792 145.698319)scale(0.0579 -0.0579)"
           id="g202931">
          <use
             xlink:href="#DejaVuSans-31"
             id="use202925" />
          <use
             xlink:href="#DejaVuSans-34"
             x="63.623047"
             id="use202927" />
          <use
             xlink:href="#DejaVuSans-35"
             x="127.246094"
             id="use202929" />
        </g>
        <!-- GND -->
        <g
           style="opacity: 0.5"
           transform="translate(20.706478 152.181852)scale(0.0579 -0.0579)"
           id="g202939">
          <use
             xlink:href="#DejaVuSans-47"
             id="use202933" />
          <use
             xlink:href="#DejaVuSans-4e"
             x="77.490234"
             id="use202935" />
          <use
             xlink:href="#DejaVuSans-44"
             x="152.294922"
             id="use202937" />
        </g>
      </g>
      <g
         id="text_6"
         transform="matrix(0.791544,0,0,0.791544,20.329283,-7.7978067)">
        <!-- LFST_TMA_0.2 -->
        <g
           style="opacity:0.5"
           transform="matrix(0.0579,0,0,-0.0579,138.45161,169.51051)"
           id="g202969">
          <defs
             id="defs202943">
            <path
               id="DejaVuSans-2e"
               d="m 684,794 h 660 V 0 H 684 Z"
               transform="scale(0.015625)" />
          </defs>
          <use
             xlink:href="#DejaVuSans-4c"
             id="use202945" />
          <use
             xlink:href="#DejaVuSans-46"
             x="55.712891"
             id="use202947" />
          <use
             xlink:href="#DejaVuSans-53"
             x="111.48242"
             id="use202949" />
          <use
             xlink:href="#DejaVuSans-54"
             x="174.95898"
             id="use202951" />
          <use
             xlink:href="#DejaVuSans-5f"
             x="236.04297"
             id="use202953" />
          <use
             xlink:href="#DejaVuSans-54"
             x="286.04297"
             id="use202955" />
          <use
             xlink:href="#DejaVuSans-4d"
             x="347.12695"
             id="use202957" />
          <use
             xlink:href="#DejaVuSans-41"
             x="433.40625"
             id="use202959" />
          <use
             xlink:href="#DejaVuSans-5f"
             x="501.81445"
             id="use202961" />
          <use
             xlink:href="#DejaVuSans-30"
             x="551.81445"
             id="use202963" />
          <use
             xlink:href="#DejaVuSans-2e"
             x="615.4375"
             id="use202965" />
          <use
             xlink:href="#DejaVuSans-32"
             x="647.22461"
             id="use202967" />
        </g>
        <!-- 95 -->
        <g
           style="opacity:0.5"
           transform="matrix(0.0579,0,0,-0.0579,155.34665,176.15508)"
           id="g202978">
          <defs
             id="defs202972">
            <path
               id="DejaVuSans-39"
               d="m 703,97 v 575 q 238,-113 481,-172 244,-59 479,-59 625,0 954,420 330,420 377,1277 -181,-269 -460,-413 -278,-144 -615,-144 -700,0 -1108,423 -408,424 -408,1159 0,718 425,1152 425,435 1131,435 810,0 1236,-621 427,-620 427,-1801 Q 3622,1225 3098,567 2575,-91 1691,-91 1453,-91 1209,-44 966,3 703,97 Z m 1256,1978 q 425,0 673,290 249,291 249,798 0,503 -249,795 -248,292 -673,292 -425,0 -673,-292 -248,-292 -248,-795 0,-507 248,-798 248,-290 673,-290 z"
               transform="scale(0.015625)" />
          </defs>
          <use
             xlink:href="#DejaVuSans-39"
             id="use202974" />
          <use
             xlink:href="#DejaVuSans-35"
             x="63.623047"
             id="use202976" />
        </g>
        <!-- GND -->
        <g
           style="opacity:0.5"
           transform="matrix(0.0579,0,0,-0.0579,152.39239,182.63861)"
           id="g202986">
          <use
             xlink:href="#DejaVuSans-47"
             id="use202980" />
          <use
             xlink:href="#DejaVuSans-4e"
             x="77.490234"
             id="use202982" />
          <use
             xlink:href="#DejaVuSans-44"
             x="152.29492"
             id="use202984" />
        </g>
      </g>
      <g
         id="text_7">
        <!-- LSASZE -->
        <g
           style="opacity: 0.5"
           transform="translate(275.271306 287.796045)scale(0.0579 -0.0579)"
           id="g203004">
          <defs
             id="defs202990">
            <path
               id="DejaVuSans-5a"
               d="M 359 4666  L 4025 4666  L 4025 4184  L 1075 531  L 4097 531  L 4097 0  L 288 0  L 288 481  L 3238 4134  L 359 4134  L 359 4666  z "
               transform="scale(0.015625)" />
          </defs>
          <use
             xlink:href="#DejaVuSans-4c"
             id="use202992" />
          <use
             xlink:href="#DejaVuSans-53"
             x="55.712891"
             id="use202994" />
          <use
             xlink:href="#DejaVuSans-41"
             x="121.064453"
             id="use202996" />
          <use
             xlink:href="#DejaVuSans-53"
             x="189.472656"
             id="use202998" />
          <use
             xlink:href="#DejaVuSans-5a"
             x="252.949219"
             id="use203000" />
          <use
             xlink:href="#DejaVuSans-45"
             x="321.455078"
             id="use203002" />
        </g>
        <!-- 125 -->
        <g
           style="opacity: 0.5"
           transform="translate(280.881273 294.279579)scale(0.0579 -0.0579)"
           id="g203012">
          <use
             xlink:href="#DejaVuSans-31"
             id="use203006" />
          <use
             xlink:href="#DejaVuSans-32"
             x="63.623047"
             id="use203008" />
          <use
             xlink:href="#DejaVuSans-35"
             x="127.246094"
             id="use203010" />
        </g>
        <!-- 105 -->
        <g
           style="opacity: 0.5"
           transform="translate(280.881273 300.763112)scale(0.0579 -0.0579)"
           id="g203020">
          <use
             xlink:href="#DejaVuSans-31"
             id="use203014" />
          <use
             xlink:href="#DejaVuSans-30"
             x="63.623047"
             id="use203016" />
          <use
             xlink:href="#DejaVuSans-35"
             x="127.246094"
             id="use203018" />
        </g>
      </g>
      <g
         id="text_8"
         transform="translate(-12.2626,-0.58393335)">
        <!-- LSASZN -->
        <g
           style="opacity:0.5"
           transform="matrix(0.0579,0,0,-0.0579,167.31092,259.80033)"
           id="g203035">
          <use
             xlink:href="#DejaVuSans-4c"
             id="use203023" />
          <use
             xlink:href="#DejaVuSans-53"
             x="55.712891"
             id="use203025" />
          <use
             xlink:href="#DejaVuSans-41"
             x="121.06445"
             id="use203027" />
          <use
             xlink:href="#DejaVuSans-53"
             x="189.47266"
             id="use203029" />
          <use
             xlink:href="#DejaVuSans-5a"
             x="252.94922"
             id="use203031" />
          <use
             xlink:href="#DejaVuSans-4e"
             x="321.45508"
             id="use203033" />
        </g>
        <!-- 125 -->
        <g
           style="opacity:0.5"
           transform="matrix(0.0579,0,0,-0.0579,173.25744,266.28386)"
           id="g203043">
          <use
             xlink:href="#DejaVuSans-31"
             id="use203037" />
          <use
             xlink:href="#DejaVuSans-32"
             x="63.623047"
             id="use203039" />
          <use
             xlink:href="#DejaVuSans-35"
             x="127.24609"
             id="use203041" />
        </g>
        <!-- GND -->
        <g
           style="opacity:0.5"
           transform="matrix(0.0579,0,0,-0.0579,172.14512,272.7674)"
           id="g203051">
          <use
             xlink:href="#DejaVuSans-47"
             id="use203045" />
          <use
             xlink:href="#DejaVuSans-4e"
             x="77.490234"
             id="use203047" />
          <use
             xlink:href="#DejaVuSans-44"
             x="152.29492"
             id="use203049" />
        </g>
      </g>
      <g
         id="text_9">
        <!-- LSZH-APE-LDG34 -->
        <g
           style="opacity: 0.5"
           transform="translate(189.015271 260.357377)scale(0.0579 -0.0579)"
           id="g203086">
          <defs
             id="defs203056">
            <path
               id="DejaVuSans-48"
               d="M 628 4666  L 1259 4666  L 1259 2753  L 3553 2753  L 3553 4666  L 4184 4666  L 4184 0  L 3553 0  L 3553 2222  L 1259 2222  L 1259 0  L 628 0  L 628 4666  z "
               transform="scale(0.015625)" />
            <path
               id="DejaVuSans-33"
               d="M 2597 2516  Q 3050 2419 3304 2112  Q 3559 1806 3559 1356  Q 3559 666 3084 287  Q 2609 -91 1734 -91  Q 1441 -91 1130 -33  Q 819 25 488 141  L 488 750  Q 750 597 1062 519  Q 1375 441 1716 441  Q 2309 441 2620 675  Q 2931 909 2931 1356  Q 2931 1769 2642 2001  Q 2353 2234 1838 2234  L 1294 2234  L 1294 2753  L 1863 2753  Q 2328 2753 2575 2939  Q 2822 3125 2822 3475  Q 2822 3834 2567 4026  Q 2313 4219 1838 4219  Q 1578 4219 1281 4162  Q 984 4106 628 3988  L 628 4550  Q 988 4650 1302 4700  Q 1616 4750 1894 4750  Q 2613 4750 3031 4423  Q 3450 4097 3450 3541  Q 3450 3153 3228 2886  Q 3006 2619 2597 2516  z "
               transform="scale(0.015625)" />
          </defs>
          <use
             xlink:href="#DejaVuSans-4c"
             id="use203058" />
          <use
             xlink:href="#DejaVuSans-53"
             x="55.712891"
             id="use203060" />
          <use
             xlink:href="#DejaVuSans-5a"
             x="119.189453"
             id="use203062" />
          <use
             xlink:href="#DejaVuSans-48"
             x="187.695312"
             id="use203064" />
          <use
             xlink:href="#DejaVuSans-2d"
             x="262.890625"
             id="use203066" />
          <use
             xlink:href="#DejaVuSans-41"
             x="296.724609"
             id="use203068" />
          <use
             xlink:href="#DejaVuSans-50"
             x="365.132812"
             id="use203070" />
          <use
             xlink:href="#DejaVuSans-45"
             x="425.435547"
             id="use203072" />
          <use
             xlink:href="#DejaVuSans-2d"
             x="488.619141"
             id="use203074" />
          <use
             xlink:href="#DejaVuSans-4c"
             x="524.703125"
             id="use203076" />
          <use
             xlink:href="#DejaVuSans-44"
             x="580.416016"
             id="use203078" />
          <use
             xlink:href="#DejaVuSans-47"
             x="657.417969"
             id="use203080" />
          <use
             xlink:href="#DejaVuSans-33"
             x="734.908203"
             id="use203082" />
          <use
             xlink:href="#DejaVuSans-34"
             x="798.53125"
             id="use203084" />
        </g>
        <!-- 125 -->
        <g
           style="opacity: 0.5"
           transform="translate(208.448863 266.84091)scale(0.0579 -0.0579)"
           id="g203094">
          <use
             xlink:href="#DejaVuSans-31"
             id="use203088" />
          <use
             xlink:href="#DejaVuSans-32"
             x="63.623047"
             id="use203090" />
          <use
             xlink:href="#DejaVuSans-35"
             x="127.246094"
             id="use203092" />
        </g>
        <!-- GND -->
        <g
           style="opacity: 0.5"
           transform="translate(207.33655 273.324444)scale(0.0579 -0.0579)"
           id="g203102">
          <use
             xlink:href="#DejaVuSans-47"
             id="use203096" />
          <use
             xlink:href="#DejaVuSans-4e"
             x="77.490234"
             id="use203098" />
          <use
             xlink:href="#DejaVuSans-44"
             x="152.294922"
             id="use203100" />
        </g>
      </g>
      <g
         id="text_10">
        <!-- LSZH-ARFA -->
        <g
           style="opacity: 0.5"
           transform="translate(272.553272 272.744221)scale(0.0579 -0.0579)"
           id="g203126">
          <defs
             id="defs203106">
            <path
               id="DejaVuSans-52"
               d="M 2841 2188  Q 3044 2119 3236 1894  Q 3428 1669 3622 1275  L 4263 0  L 3584 0  L 2988 1197  Q 2756 1666 2539 1819  Q 2322 1972 1947 1972  L 1259 1972  L 1259 0  L 628 0  L 628 4666  L 2053 4666  Q 2853 4666 3247 4331  Q 3641 3997 3641 3322  Q 3641 2881 3436 2590  Q 3231 2300 2841 2188  z M 1259 4147  L 1259 2491  L 2053 2491  Q 2509 2491 2742 2702  Q 2975 2913 2975 3322  Q 2975 3731 2742 3939  Q 2509 4147 2053 4147  L 1259 4147  z "
               transform="scale(0.015625)" />
          </defs>
          <use
             xlink:href="#DejaVuSans-4c"
             id="use203108" />
          <use
             xlink:href="#DejaVuSans-53"
             x="55.712891"
             id="use203110" />
          <use
             xlink:href="#DejaVuSans-5a"
             x="119.189453"
             id="use203112" />
          <use
             xlink:href="#DejaVuSans-48"
             x="187.695312"
             id="use203114" />
          <use
             xlink:href="#DejaVuSans-2d"
             x="262.890625"
             id="use203116" />
          <use
             xlink:href="#DejaVuSans-41"
             x="296.724609"
             id="use203118" />
          <use
             xlink:href="#DejaVuSans-52"
             x="365.132812"
             id="use203120" />
          <use
             xlink:href="#DejaVuSans-46"
             x="434.615234"
             id="use203122" />
          <use
             xlink:href="#DejaVuSans-41"
             x="483.009766"
             id="use203124" />
        </g>
        <!-- 105 -->
        <g
           style="opacity: 0.5"
           transform="translate(282.991104 279.227755)scale(0.0579 -0.0579)"
           id="g203134">
          <use
             xlink:href="#DejaVuSans-31"
             id="use203128" />
          <use
             xlink:href="#DejaVuSans-30"
             x="63.623047"
             id="use203130" />
          <use
             xlink:href="#DejaVuSans-35"
             x="127.246094"
             id="use203132" />
        </g>
        <!-- GND -->
        <g
           style="opacity: 0.5"
           transform="translate(281.878791 285.711288)scale(0.0579 -0.0579)"
           id="g203142">
          <use
             xlink:href="#DejaVuSans-47"
             id="use203136" />
          <use
             xlink:href="#DejaVuSans-4e"
             x="77.490234"
             id="use203138" />
          <use
             xlink:href="#DejaVuSans-44"
             x="152.294922"
             id="use203140" />
        </g>
      </g>
      <g
         id="text_11"
         transform="matrix(0.74641972,0,0,0.74641972,50.592868,28.638326)">
        <!-- PFA4 -->
        <g
           style="opacity:0.5"
           transform="matrix(0.0579,0,0,-0.0579,172.46437,91.826896)"
           id="g203153">
          <use
             xlink:href="#DejaVuSans-50"
             id="use203145" />
          <use
             xlink:href="#DejaVuSans-46"
             x="60.302734"
             id="use203147" />
          <use
             xlink:href="#DejaVuSans-41"
             x="108.69727"
             id="use203149" />
          <use
             xlink:href="#DejaVuSans-34"
             x="177.10547"
             id="use203151" />
        </g>
        <!-- 245 -->
        <g
           style="opacity:0.5"
           transform="matrix(0.0579,0,0,-0.0579,173.90735,98.310429)"
           id="g203161">
          <use
             xlink:href="#DejaVuSans-32"
             id="use203155" />
          <use
             xlink:href="#DejaVuSans-34"
             x="63.623047"
             id="use203157" />
          <use
             xlink:href="#DejaVuSans-35"
             x="127.24609"
             id="use203159" />
        </g>
        <!-- 95 -->
        <g
           style="opacity:0.5"
           transform="matrix(0.0579,0,0,-0.0579,175.74929,104.79396)"
           id="g203167">
          <use
             xlink:href="#DejaVuSans-39"
             id="use203163" />
          <use
             xlink:href="#DejaVuSans-35"
             x="63.623047"
             id="use203165" />
        </g>
      </g>
      <g
         id="text_12"
         transform="matrix(1.1514816,0,0,1.1514816,-60.048291,-11.157706)">
        <!-- STG1 -->
        <g
           style="opacity:0.5"
           transform="matrix(0.0579,0,0,-0.0579,261.10625,112.64776)"
           id="g203178">
          <use
             xlink:href="#DejaVuSans-53"
             id="use203170" />
          <use
             xlink:href="#DejaVuSans-54"
             x="63.476562"
             id="use203172" />
          <use
             xlink:href="#DejaVuSans-47"
             x="124.56055"
             id="use203174" />
          <use
             xlink:href="#DejaVuSans-31"
             x="202.05078"
             id="use203176" />
        </g>
        <!-- 145 -->
        <g
           style="opacity:0.5"
           transform="matrix(0.0579,0,0,-0.0579,263.27162,119.1313)"
           id="g203186">
          <use
             xlink:href="#DejaVuSans-31"
             id="use203180" />
          <use
             xlink:href="#DejaVuSans-34"
             x="63.623047"
             id="use203182" />
          <use
             xlink:href="#DejaVuSans-35"
             x="127.24609"
             id="use203184" />
        </g>
        <!-- GND -->
        <g
           style="opacity:0.5"
           transform="matrix(0.0579,0,0,-0.0579,262.1593,125.61483)"
           id="g203194">
          <use
             xlink:href="#DejaVuSans-47"
             id="use203188" />
          <use
             xlink:href="#DejaVuSans-4e"
             x="77.490234"
             id="use203190" />
          <use
             xlink:href="#DejaVuSans-44"
             x="152.29492"
             id="use203192" />
        </g>
      </g>
      <g
         id="text_13"
         transform="matrix(0.45848083,0,0,0.45848083,105.32421,61.810056)">
        <!-- STG3 -->
        <g
           style="opacity:0.5"
           transform="matrix(0.0579,0,0,-0.0579,184.01288,106.04875)"
           id="g203205">
          <use
             xlink:href="#DejaVuSans-53"
             id="use203197" />
          <use
             xlink:href="#DejaVuSans-54"
             x="63.476562"
             id="use203199" />
          <use
             xlink:href="#DejaVuSans-47"
             x="124.56055"
             id="use203201" />
          <use
             xlink:href="#DejaVuSans-33"
             x="202.05078"
             id="use203203" />
        </g>
        <!-- 145 -->
        <g
           style="opacity:0.5"
           transform="matrix(0.0579,0,0,-0.0579,186.17825,112.53228)"
           id="g203213">
          <use
             xlink:href="#DejaVuSans-31"
             id="use203207" />
          <use
             xlink:href="#DejaVuSans-34"
             x="63.623047"
             id="use203209" />
          <use
             xlink:href="#DejaVuSans-35"
             x="127.24609"
             id="use203211" />
        </g>
        <!-- 75 -->
        <g
           style="opacity:0.5"
           transform="matrix(0.0579,0,0,-0.0579,188.02019,119.01582)"
           id="g203222">
          <defs
             id="defs203216">
            <path
               id="DejaVuSans-37"
               d="M 525,4666 H 3525 V 4397 L 1831,0 H 1172 L 2766,4134 H 525 Z"
               transform="scale(0.015625)" />
          </defs>
          <use
             xlink:href="#DejaVuSans-37"
             id="use203218" />
          <use
             xlink:href="#DejaVuSans-35"
             x="63.623047"
             id="use203220" />
        </g>
      </g>
      <g
         id="text_14"
         transform="matrix(1.0119015,0,0,1.0119015,-4.4948539,-2.3986489)">
        <!-- STG5 -->
        <g
           style="opacity:0.5"
           transform="matrix(0.0579,0,0,-0.0579,325.2488,84.412046)"
           id="g203233">
          <use
             xlink:href="#DejaVuSans-53"
             id="use203225" />
          <use
             xlink:href="#DejaVuSans-54"
             x="63.476562"
             id="use203227" />
          <use
             xlink:href="#DejaVuSans-47"
             x="124.56055"
             id="use203229" />
          <use
             xlink:href="#DejaVuSans-35"
             x="202.05078"
             id="use203231" />
        </g>
        <!-- 105 -->
        <g
           style="opacity:0.5"
           transform="matrix(0.0579,0,0,-0.0579,327.41417,90.89558)"
           id="g203241">
          <use
             xlink:href="#DejaVuSans-31"
             id="use203235" />
          <use
             xlink:href="#DejaVuSans-30"
             x="63.623047"
             id="use203237" />
          <use
             xlink:href="#DejaVuSans-35"
             x="127.24609"
             id="use203239" />
        </g>
        <!-- GND -->
        <g
           style="opacity:0.5"
           transform="matrix(0.0579,0,0,-0.0579,326.30186,97.379113)"
           id="g203249">
          <use
             xlink:href="#DejaVuSans-47"
             id="use203243" />
          <use
             xlink:href="#DejaVuSans-4e"
             x="77.490234"
             id="use203245" />
          <use
             xlink:href="#DejaVuSans-44"
             x="152.29492"
             id="use203247" />
        </g>
      </g>
      <g
         id="text_15"
         transform="matrix(1.0338107,0,0,1.0338107,2.4564487,3.1966516)">
        <!-- REU1 -->
        <g
           transform="matrix(0.0579,0,0,-0.0579,246.28622,168.73573)"
           id="g203260">
          <use
             xlink:href="#DejaVuSans-52"
             id="use203252" />
          <use
             xlink:href="#DejaVuSans-45"
             x="69.482422"
             id="use203254" />
          <use
             xlink:href="#DejaVuSans-55"
             x="132.66602"
             id="use203256" />
          <use
             xlink:href="#DejaVuSans-31"
             x="205.85938"
             id="use203258" />
        </g>
        <!-- 145 -->
        <g
           transform="matrix(0.0579,0,0,-0.0579,248.56196,175.21927)"
           id="g203268">
          <use
             xlink:href="#DejaVuSans-31"
             id="use203262" />
          <use
             xlink:href="#DejaVuSans-34"
             x="63.623047"
             id="use203264" />
          <use
             xlink:href="#DejaVuSans-35"
             x="127.24609"
             id="use203266" />
        </g>
        <!-- GND -->
        <g
           transform="matrix(0.0579,0,0,-0.0579,247.44965,181.7028)"
           id="g203276">
          <use
             xlink:href="#DejaVuSans-47"
             id="use203270" />
          <use
             xlink:href="#DejaVuSans-4e"
             x="77.490234"
             id="use203272" />
          <use
             xlink:href="#DejaVuSans-44"
             x="152.29492"
             id="use203274" />
        </g>
      </g>
      <g
         id="text_16"
         transform="translate(12.522706,-13.021123)">
        <!-- REU2 -->
        <g
           transform="matrix(0.0579,0,0,-0.0579,151.22896,169.64214)"
           id="g203287">
          <use
             xlink:href="#DejaVuSans-52"
             id="use203279" />
          <use
             xlink:href="#DejaVuSans-45"
             x="69.482422"
             id="use203281" />
          <use
             xlink:href="#DejaVuSans-55"
             x="132.66602"
             id="use203283" />
          <use
             xlink:href="#DejaVuSans-32"
             x="205.85938"
             id="use203285" />
        </g>
        <!-- 145 -->
        <g
           transform="matrix(0.0579,0,0,-0.0579,153.50471,176.12568)"
           id="g203295">
          <use
             xlink:href="#DejaVuSans-31"
             id="use203289" />
          <use
             xlink:href="#DejaVuSans-34"
             x="63.623047"
             id="use203291" />
          <use
             xlink:href="#DejaVuSans-35"
             x="127.24609"
             id="use203293" />
        </g>
        <!-- 95 -->
        <g
           transform="matrix(0.0579,0,0,-0.0579,155.34665,182.60921)"
           id="g203301">
          <use
             xlink:href="#DejaVuSans-39"
             id="use203297" />
          <use
             xlink:href="#DejaVuSans-35"
             x="63.623047"
             id="use203299" />
        </g>
      </g>
    </g>
  </g>
  <defs
     id="defs203309">
    <clipPath
       id="p0affe3cc1a">
      <rect
         x="57.6"
         y="82.164972"
         width="357.12"
         height="184.726057"
         id="rect203306" />
    </clipPath>
  </defs>
</svg>
