<?xml version="1.0" encoding="utf-8" standalone="no"?>
<!DOCTYPE svg PUBLIC "-//W3C//DTD SVG 1.1//EN"
  "http://www.w3.org/Graphics/SVG/1.1/DTD/svg11.dtd">
<svg xmlns:xlink="http://www.w3.org/1999/xlink" width="460.8pt" height="345.6pt" viewBox="0 0 460.8 345.6" xmlns="http://www.w3.org/2000/svg" version="1.1">
 <metadata>
  <rdf:RDF xmlns:dc="http://purl.org/dc/elements/1.1/" xmlns:cc="http://creativecommons.org/ns#" xmlns:rdf="http://www.w3.org/1999/02/22-rdf-syntax-ns#">
   <cc:Work>
    <dc:type rdf:resource="http://purl.org/dc/dcmitype/StillImage"/>
    <dc:date>2023-02-03T13:57:25.969228</dc:date>
    <dc:format>image/svg+xml</dc:format>
    <dc:creator>
     <cc:Agent>
      <dc:title>Matplotlib v3.5.0, https://matplotlib.org/</dc:title>
     </cc:Agent>
    </dc:creator>
   </cc:Work>
  </rdf:RDF>
 </metadata>
 <defs>
  <style type="text/css">*{stroke-linejoin: round; stroke-linecap: butt}</style>
 </defs>
 <g id="figure_1">
  <g id="patch_1">
   <path d="M 0 345.6 
L 460.8 345.6 
L 460.8 0 
L 0 0 
z
" style="fill: #ffffff"/>
  </g>
  <g id="axes_1">
   <g id="patch_2">
    <path d="M 163.179889 53.568 
L 255.925467 87.129551 
L 260.00369 93.445446 
L 276.197636 117.761411 
L 314.093031 174.603249 
L 337.35689 209.521292 
L 297.531564 255.201808 
L 285.988122 266.932872 
L 262.105001 283.459435 
L 244.750019 295.488 
L 222.183725 277.980738 
L 134.96311 227.893578 
L 142.809366 195.774307 
L 167.014849 70.568942 
z
" clip-path="url(#p682c95400f)" style="fill: #f5f5f5; stroke: #f5f5f5; stroke-linejoin: miter"/>
   </g>
   <g id="patch_3">
    <path d="M 163.179889 53.568 
L 255.925467 87.129551 
L 260.00369 93.445446 
L 276.197636 117.761411 
L 314.093031 174.603249 
L 286.406672 199.708077 
L 270.956545 219.156967 
L 282.754192 238.101049 
L 297.531564 255.201808 
L 285.988122 266.932872 
L 262.105001 283.459435 
L 244.750019 295.488 
L 222.183725 277.980738 
L 134.96311 227.893578 
L 142.809366 195.774307 
L 167.014849 70.568942 
z
" clip-path="url(#p682c95400f)" style="fill: #f5f5f5; stroke: #f5f5f5; stroke-linejoin: miter"/>
   </g>
   <g id="patch_4">
    <path d="M 163.179889 53.568 
L 255.925467 87.129551 
L 260.00369 93.445446 
L 276.197636 117.761411 
L 314.093031 174.603249 
L 337.35689 209.521292 
L 297.531564 255.201808 
L 285.988122 266.932872 
L 262.105001 283.459435 
L 244.750019 295.488 
L 222.183725 277.980738 
L 134.96311 227.893578 
L 142.809366 195.774307 
L 167.014849 70.568942 
z
" clip-path="url(#p682c95400f)" style="fill: #f5f5f5; stroke: #f5f5f5; stroke-linejoin: miter"/>
   </g>
   <g id="patch_5">
    <path d="M 163.179889 53.568 
L 255.925467 87.129551 
L 260.00369 93.445446 
L 276.197636 117.761411 
L 314.093031 174.603249 
L 337.35689 209.521292 
L 297.531564 255.201808 
L 285.988122 266.932872 
L 262.105001 283.459435 
L 244.750019 295.488 
L 222.183725 277.980738 
L 134.96311 227.893578 
L 142.809366 195.774307 
L 167.014849 70.568942 
z
" clip-path="url(#p682c95400f)" style="fill: #f5f5f5; stroke: #f5f5f5; stroke-linejoin: miter"/>
   </g>
   <g id="patch_6">
    <path d="M 163.179889 53.568 
L 255.925467 87.129551 
L 260.00369 93.445446 
L 276.197636 117.761411 
L 314.093031 174.603249 
L 337.35689 209.521292 
L 297.531564 255.201808 
L 285.988122 266.932872 
L 262.105001 283.459435 
L 244.750019 295.488 
L 222.183725 277.980738 
L 134.96311 227.893578 
L 142.809366 195.774307 
L 167.014849 70.568942 
z
" clip-path="url(#p682c95400f)" style="fill: #f5f5f5; stroke: #f5f5f5; stroke-linejoin: miter"/>
   </g>
   <g id="patch_7">
    <path d="M 163.179889 53.568 
L 255.925467 87.129551 
L 260.00369 93.445446 
L 276.197636 117.761411 
L 314.093031 174.603249 
L 337.35689 209.521292 
L 297.531564 255.201808 
L 285.988122 266.932872 
L 262.105001 283.459435 
L 244.750019 295.488 
L 222.183725 277.980738 
L 134.96311 227.893578 
L 142.809366 195.774307 
L 167.014849 70.568942 
L 163.179889 53.568 
z
" clip-path="url(#p682c95400f)" style="fill: #f5f5f5; stroke: #f5f5f5; stroke-linejoin: miter"/>
   </g>
   <g id="patch_8">
    <path d="M 163.179889 53.568 
L 255.925467 87.129551 
L 260.00369 93.445446 
L 276.197636 117.761411 
L 314.093031 174.603249 
L 286.406672 199.708077 
L 270.956545 219.156967 
L 282.754192 238.101049 
L 297.531564 255.201808 
L 285.988122 266.932872 
L 262.105001 283.459435 
L 244.750019 295.488 
L 222.183725 277.980738 
L 134.96311 227.893578 
L 142.809366 195.774307 
L 167.014849 70.568942 
L 163.179889 53.568 
z
" clip-path="url(#p682c95400f)" style="fill: #f5f5f5; stroke: #f5f5f5; stroke-linejoin: miter"/>
   </g>
   <g id="patch_9">
    <path d="M 163.179889 53.568 
L 255.925467 87.129551 
L 260.00369 93.445446 
L 276.197636 117.761411 
L 314.093031 174.603249 
L 337.35689 209.521292 
L 297.531564 255.201808 
L 285.988122 266.932872 
L 262.105001 283.459435 
L 244.750019 295.488 
L 222.183725 277.980738 
L 134.96311 227.893578 
L 142.809366 195.774307 
L 167.014849 70.568942 
L 163.179889 53.568 
z
" clip-path="url(#p682c95400f)" style="fill: #f5f5f5; stroke: #f5f5f5; stroke-linejoin: miter"/>
   </g>
   <g id="patch_10">
    <path d="M 163.179889 53.568 
L 255.925467 87.129551 
L 260.00369 93.445446 
L 276.197636 117.761411 
L 314.093031 174.603249 
L 337.35689 209.521292 
L 297.531564 255.201808 
L 285.988122 266.932872 
L 262.105001 283.459435 
L 244.750019 295.488 
L 222.183725 277.980738 
L 134.96311 227.893578 
L 142.809366 195.774307 
L 167.014849 70.568942 
L 163.179889 53.568 
z
" clip-path="url(#p682c95400f)" style="fill: #f5f5f5; stroke: #f5f5f5; stroke-linejoin: miter"/>
   </g>
   <g id="patch_11">
    <path d="M 163.179889 53.568 
L 255.925467 87.129551 
L 260.00369 93.445446 
L 276.197636 117.761411 
L 314.093031 174.603249 
L 337.35689 209.521292 
L 297.531564 255.201808 
L 285.988122 266.932872 
L 262.105001 283.459435 
L 244.750019 295.488 
L 222.183725 277.980738 
L 134.96311 227.893578 
L 142.809366 195.774307 
L 167.014849 70.568942 
L 163.179889 53.568 
z
" clip-path="url(#p682c95400f)" style="fill: #f5f5f5; stroke: #f5f5f5; stroke-linejoin: miter"/>
   </g>
   <g id="line2d_1">
    <path d="M 163.179889 53.568 
L 255.925467 87.129551 
L 260.00369 93.445446 
L 276.197636 117.761411 
L 314.093031 174.603249 
L 337.35689 209.521292 
L 297.531564 255.201808 
L 285.988122 266.932872 
L 262.105001 283.459435 
L 244.750019 295.488 
L 222.183725 277.980738 
L 134.96311 227.893578 
L 142.809366 195.774307 
L 167.014849 70.568942 
L 163.179889 53.568 
" clip-path="url(#p682c95400f)" style="fill: none; stroke: #808080; stroke-width: 0.5; stroke-linecap: square"/>
   </g>
   <g id="line2d_2">
    <path d="M 163.179889 53.568 
L 255.925467 87.129551 
L 260.00369 93.445446 
L 276.197636 117.761411 
L 314.093031 174.603249 
L 286.406672 199.708077 
L 270.956545 219.156967 
L 282.754192 238.101049 
L 297.531564 255.201808 
L 285.988122 266.932872 
L 262.105001 283.459435 
L 244.750019 295.488 
L 222.183725 277.980738 
L 134.96311 227.893578 
L 142.809366 195.774307 
L 167.014849 70.568942 
L 163.179889 53.568 
" clip-path="url(#p682c95400f)" style="fill: none; stroke: #808080; stroke-width: 0.5; stroke-linecap: square"/>
   </g>
   <g id="line2d_3">
    <path d="M 163.179889 53.568 
L 255.925467 87.129551 
L 260.00369 93.445446 
L 276.197636 117.761411 
L 314.093031 174.603249 
L 337.35689 209.521292 
L 297.531564 255.201808 
L 285.988122 266.932872 
L 262.105001 283.459435 
L 244.750019 295.488 
L 222.183725 277.980738 
L 134.96311 227.893578 
L 142.809366 195.774307 
L 167.014849 70.568942 
L 163.179889 53.568 
" clip-path="url(#p682c95400f)" style="fill: none; stroke: #808080; stroke-width: 0.5; stroke-linecap: square"/>
   </g>
   <g id="line2d_4">
    <path d="M 163.179889 53.568 
L 255.925467 87.129551 
L 260.00369 93.445446 
L 276.197636 117.761411 
L 314.093031 174.603249 
L 337.35689 209.521292 
L 297.531564 255.201808 
L 285.988122 266.932872 
L 262.105001 283.459435 
L 244.750019 295.488 
L 222.183725 277.980738 
L 134.96311 227.893578 
L 142.809366 195.774307 
L 167.014849 70.568942 
L 163.179889 53.568 
" clip-path="url(#p682c95400f)" style="fill: none; stroke: #808080; stroke-width: 0.5; stroke-linecap: square"/>
   </g>
   <g id="line2d_5">
    <path d="M 163.179889 53.568 
L 255.925467 87.129551 
L 260.00369 93.445446 
L 276.197636 117.761411 
L 314.093031 174.603249 
L 337.35689 209.521292 
L 297.531564 255.201808 
L 285.988122 266.932872 
L 262.105001 283.459435 
L 244.750019 295.488 
L 222.183725 277.980738 
L 134.96311 227.893578 
L 142.809366 195.774307 
L 167.014849 70.568942 
L 163.179889 53.568 
" clip-path="url(#p682c95400f)" style="fill: none; stroke: #808080; stroke-width: 0.5; stroke-linecap: square"/>
   </g>
   <g id="line2d_6">
    <path d="M 368.870763 0.915965 
L 372.432454 107.842195 
L 452.960712 190.442593 
L 430.396101 206.529146 
L 337.35689 209.521292 
L 314.093031 174.603249 
L 276.197636 117.761411 
L 260.00369 93.445446 
L 255.925467 87.129551 
L 259.361623 80.30494 
L 261.414959 76.228269 
L 275.895351 47.39059 
L 280.107717 39.082993 
L 282.806249 33.671296 
L 284.13338 31.665913 
L 301.180821 6.560427 
L 368.870763 0.915965 
L 372.432454 107.842195 
L 452.960712 190.442593 
L 430.396101 206.529146 
L 337.35689 209.521292 
L 280.338167 115.058571 
L 259.361623 80.30494 
L 261.414959 76.228269 
L 275.895351 47.39059 
L 280.107717 39.082993 
L 282.806249 33.671296 
L 284.13338 31.665913 
L 301.180821 6.560427 
L 368.870763 0.915965 
" clip-path="url(#p682c95400f)" style="fill: none; stroke: #8f8f8f; stroke-width: 0.2; stroke-linecap: square"/>
   </g>
   <g id="line2d_7">
    <path clip-path="url(#p682c95400f)" style="fill: none; stroke: #8f8f8f; stroke-width: 0.2; stroke-linecap: square"/>
   </g>
   <g id="line2d_8">
    <path d="M 461.8 0.104014 
L 459.823078 -1 
M 391.897564 -1 
L 368.870763 0.915965 
L 301.180821 6.560427 
L 296.730011 -1 
M 461.8 0.104014 
L 459.823078 -1 
M 391.897564 -1 
L 368.870763 0.915965 
L 301.180821 6.560427 
L 299.428168 -1 
M 461.8 0.104014 
L 459.823078 -1 
M 391.897564 -1 
L 368.870763 0.915965 
L 301.180821 6.560427 
L 296.730011 -1 
" clip-path="url(#p682c95400f)" style="fill: none; stroke: #8f8f8f; stroke-width: 0.2; stroke-linecap: square"/>
   </g>
   <g id="line2d_9">
    <path clip-path="url(#p682c95400f)" style="fill: none; stroke: #8f8f8f; stroke-width: 0.2; stroke-linecap: square"/>
   </g>
   <g id="line2d_10">
    <path clip-path="url(#p682c95400f)" style="fill: none; stroke: #8f8f8f; stroke-width: 0.2; stroke-linecap: square"/>
   </g>
   <g id="line2d_11">
    <path clip-path="url(#p682c95400f)" style="fill: none; stroke: #8f8f8f; stroke-width: 0.2; stroke-linecap: square"/>
   </g>
   <g id="line2d_12">
    <path d="M 445.913805 346.6 
L 368.828765 321.602695 
L 307.301849 264.802782 
L 297.531564 255.201808 
L 337.35689 209.521292 
L 430.396101 206.529146 
L 452.960712 190.442593 
L 461.8 184.124158 
" clip-path="url(#p682c95400f)" style="fill: none; stroke: #8f8f8f; stroke-width: 0.2; stroke-linecap: square"/>
   </g>
   <g id="line2d_13">
    <path d="M 445.913805 346.6 
L 368.828765 321.602695 
L 307.301849 264.802782 
L 297.531564 255.201808 
L 337.35689 209.521292 
L 430.396101 206.529146 
L 452.960712 190.442593 
L 461.8 184.124158 
" clip-path="url(#p682c95400f)" style="fill: none; stroke: #8f8f8f; stroke-width: 0.2; stroke-linecap: square"/>
   </g>
   <g id="line2d_14">
    <path d="M 445.913805 346.6 
L 368.828765 321.602695 
L 307.301849 264.802782 
L 297.531564 255.201808 
L 337.35689 209.521292 
L 430.396101 206.529146 
L 452.960712 190.442593 
L 461.8 184.124158 
" clip-path="url(#p682c95400f)" style="fill: none; stroke: #8f8f8f; stroke-width: 0.2; stroke-linecap: square"/>
   </g>
   <g id="line2d_15">
    <path d="M 301.180821 6.560427 
L 369.253057 29.947393 
L 461.8 61.73992 
M 461.8 184.124158 
L 452.960712 190.442593 
L 430.396101 206.529146 
L 337.35689 209.521292 
L 314.093031 174.603249 
L 276.197636 117.761411 
L 260.00369 93.445446 
L 255.925467 87.129551 
L 259.361623 80.30494 
L 261.414959 76.228269 
L 275.895351 47.39059 
L 280.107717 39.082993 
L 282.806249 33.671296 
L 284.13338 31.665913 
L 301.180821 6.560427 
" clip-path="url(#p682c95400f)" style="fill: none; stroke: #8f8f8f; stroke-width: 0.2; stroke-linecap: square"/>
   </g>
   <g id="line2d_16">
    <path d="M 301.180821 6.560427 
L 369.253057 29.947393 
L 461.8 61.73992 
M 461.8 184.124158 
L 452.960712 190.442593 
L 430.396101 206.529146 
L 337.35689 209.521292 
L 314.093031 174.603249 
L 276.197636 117.761411 
L 260.00369 93.445446 
L 255.925467 87.129551 
L 259.361623 80.30494 
L 261.414959 76.228269 
L 275.895351 47.39059 
L 280.107717 39.082993 
L 282.806249 33.671296 
L 284.13338 31.665913 
L 301.180821 6.560427 
" clip-path="url(#p682c95400f)" style="fill: none; stroke: #8f8f8f; stroke-width: 0.2; stroke-linecap: square"/>
   </g>
   <g id="line2d_17">
    <path d="M 297.531564 255.201808 
L 307.301849 264.802782 
L 368.828765 321.602695 
L 445.913805 346.6 
M 196.405788 346.6 
L 200.424584 338.595945 
L 209.955122 319.573336 
L 244.750019 295.488 
L 262.105001 283.459435 
L 285.988122 266.932872 
L 297.531564 255.201808 
" clip-path="url(#p682c95400f)" style="fill: none; stroke: #8f8f8f; stroke-width: 0.2; stroke-linecap: square"/>
   </g>
   <g id="line2d_18">
    <path d="M 297.531564 255.201808 
L 307.301849 264.802782 
L 368.828765 321.602695 
L 445.913805 346.6 
M 196.405788 346.6 
L 200.424584 338.595945 
L 209.955122 319.573336 
L 244.750019 295.488 
L 262.105001 283.459435 
L 285.988122 266.932872 
L 297.531564 255.201808 
" clip-path="url(#p682c95400f)" style="fill: none; stroke: #8f8f8f; stroke-width: 0.2; stroke-linecap: square"/>
   </g>
   <g id="line2d_19">
    <path d="M 297.531564 255.201808 
L 307.301849 264.802782 
L 368.828765 321.602695 
L 445.913805 346.6 
M 196.405788 346.6 
L 200.424584 338.595945 
L 209.955122 319.573336 
L 244.750019 295.488 
L 262.105001 283.459435 
L 285.988122 266.932872 
L 297.531564 255.201808 
" clip-path="url(#p682c95400f)" style="fill: none; stroke: #8f8f8f; stroke-width: 0.2; stroke-linecap: square"/>
   </g>
   <g id="line2d_20">
    <path d="M 459.823078 -1 
L 461.8 0.104014 
M 461.8 61.73992 
L 369.253057 29.947393 
L 301.180821 6.560427 
L 296.730011 -1 
" clip-path="url(#p682c95400f)" style="fill: none; stroke: #8f8f8f; stroke-width: 0.2; stroke-linecap: square"/>
   </g>
   <g id="line2d_21">
    <path clip-path="url(#p682c95400f)" style="fill: none; stroke: #8f8f8f; stroke-width: 0.2; stroke-linecap: square"/>
   </g>
   <g id="line2d_22">
    <path clip-path="url(#p682c95400f)" style="fill: none; stroke: #8f8f8f; stroke-width: 0.2; stroke-linecap: square"/>
   </g>
   <g id="line2d_23">
    <path clip-path="url(#p682c95400f)" style="fill: none; stroke: #8f8f8f; stroke-width: 0.2; stroke-linecap: square"/>
   </g>
   <g id="line2d_24">
    <path clip-path="url(#p682c95400f)" style="fill: none; stroke: #8f8f8f; stroke-width: 0.2; stroke-linecap: square"/>
   </g>
   <g id="line2d_25">
    <path clip-path="url(#p682c95400f)" style="fill: none; stroke: #8f8f8f; stroke-width: 0.2; stroke-linecap: square"/>
   </g>
   <g id="line2d_26">
    <path clip-path="url(#p682c95400f)" style="fill: none; stroke: #8f8f8f; stroke-width: 0.2; stroke-linecap: square"/>
   </g>
   <g id="line2d_27">
    <path clip-path="url(#p682c95400f)" style="fill: none; stroke: #8f8f8f; stroke-width: 0.2; stroke-linecap: square"/>
   </g>
   <g id="line2d_28">
    <path clip-path="url(#p682c95400f)" style="fill: none; stroke: #8f8f8f; stroke-width: 0.2; stroke-linecap: square"/>
   </g>
   <g id="line2d_29">
    <path clip-path="url(#p682c95400f)" style="fill: none; stroke: #8f8f8f; stroke-width: 0.2; stroke-linecap: square"/>
   </g>
   <g id="line2d_30">
    <path clip-path="url(#p682c95400f)" style="fill: none; stroke: #8f8f8f; stroke-width: 0.2; stroke-linecap: square"/>
   </g>
   <g id="line2d_31">
    <path clip-path="url(#p682c95400f)" style="fill: none; stroke: #8f8f8f; stroke-width: 0.2; stroke-linecap: square"/>
   </g>
   <g id="line2d_32">
    <path clip-path="url(#p682c95400f)" style="fill: none; stroke: #8f8f8f; stroke-width: 0.2; stroke-linecap: square"/>
   </g>
   <g id="line2d_33">
    <path clip-path="url(#p682c95400f)" style="fill: none; stroke: #8f8f8f; stroke-width: 0.2; stroke-linecap: square"/>
   </g>
   <g id="line2d_34">
    <path clip-path="url(#p682c95400f)" style="fill: none; stroke: #8f8f8f; stroke-width: 0.2; stroke-linecap: square"/>
   </g>
   <g id="line2d_35">
    <path d="M 153.741486 -1 
L 152.444344 5.994243 
L 163.179889 53.568 
L 167.014849 70.568942 
L 142.809366 195.774307 
L 66.880782 138.043702 
L 3.885898 19.473219 
L -1 16.65704 
" clip-path="url(#p682c95400f)" style="fill: none; stroke: #8f8f8f; stroke-width: 0.2; stroke-linecap: square"/>
   </g>
   <g id="line2d_36">
    <path clip-path="url(#p682c95400f)" style="fill: none; stroke: #8f8f8f; stroke-width: 0.2; stroke-linecap: square"/>
   </g>
   <g id="line2d_37">
    <path d="M 153.741486 -1 
L 152.444344 5.994243 
L 163.179889 53.568 
L 167.014849 70.568942 
L 142.809366 195.774307 
L 66.880782 138.043702 
L 3.885898 19.473219 
L -1 16.65704 
" clip-path="url(#p682c95400f)" style="fill: none; stroke: #8f8f8f; stroke-width: 0.2; stroke-linecap: square"/>
   </g>
   <g id="line2d_38">
    <path d="M 153.741486 -1 
L 152.444344 5.994243 
L 163.179889 53.568 
L 167.014849 70.568942 
L 142.809366 195.774307 
L 66.880782 138.043702 
L 3.885898 19.473219 
L -1 16.65704 
" clip-path="url(#p682c95400f)" style="fill: none; stroke: #8f8f8f; stroke-width: 0.2; stroke-linecap: square"/>
   </g>
   <g id="line2d_39">
    <path d="M 153.741486 -1 
L 152.444344 5.994243 
L 163.179889 53.568 
L 167.014849 70.568942 
L 142.809366 195.774307 
L 66.880782 138.043702 
L 3.885898 19.473219 
L -1 16.65704 
" clip-path="url(#p682c95400f)" style="fill: none; stroke: #8f8f8f; stroke-width: 0.2; stroke-linecap: square"/>
   </g>
   <g id="line2d_40">
    <path d="M 296.730011 -1 
L 301.180821 6.560427 
L 284.13338 31.665913 
L 282.806249 33.671296 
L 280.107717 39.082993 
L 275.895351 47.39059 
L 261.414959 76.228269 
L 259.361623 80.30494 
L 255.925467 87.129551 
L 163.179889 53.568 
L 152.444344 5.994243 
L 153.741486 -1 
" clip-path="url(#p682c95400f)" style="fill: none; stroke: #8f8f8f; stroke-width: 0.2; stroke-linecap: square"/>
   </g>
   <g id="line2d_41">
    <path clip-path="url(#p682c95400f)" style="fill: none; stroke: #8f8f8f; stroke-width: 0.2; stroke-linecap: square"/>
   </g>
   <g id="line2d_42">
    <path d="M 296.730011 -1 
L 301.180821 6.560427 
L 284.13338 31.665913 
L 282.806249 33.671296 
L 280.107717 39.082993 
L 275.895351 47.39059 
L 261.414959 76.228269 
L 259.361623 80.30494 
L 255.925467 87.129551 
L 163.179889 53.568 
L 152.444344 5.994243 
L 153.741486 -1 
" clip-path="url(#p682c95400f)" style="fill: none; stroke: #8f8f8f; stroke-width: 0.2; stroke-linecap: square"/>
   </g>
   <g id="line2d_43">
    <path d="M 296.730011 -1 
L 301.180821 6.560427 
L 284.13338 31.665913 
L 282.806249 33.671296 
L 280.107717 39.082993 
L 275.895351 47.39059 
L 261.414959 76.228269 
L 259.361623 80.30494 
L 255.925467 87.129551 
L 163.179889 53.568 
L 152.444344 5.994243 
L 153.741486 -1 
" clip-path="url(#p682c95400f)" style="fill: none; stroke: #8f8f8f; stroke-width: 0.2; stroke-linecap: square"/>
   </g>
   <g id="line2d_44">
    <path clip-path="url(#p682c95400f)" style="fill: none; stroke: #8f8f8f; stroke-width: 0.2; stroke-linecap: square"/>
   </g>
   <g id="line2d_45">
    <path clip-path="url(#p682c95400f)" style="fill: none; stroke: #8f8f8f; stroke-width: 0.2; stroke-linecap: square"/>
   </g>
   <g id="line2d_46">
    <path clip-path="url(#p682c95400f)" style="fill: none; stroke: #8f8f8f; stroke-width: 0.2; stroke-linecap: square"/>
   </g>
   <g id="line2d_47">
    <path d="M -1 284.418242 
L 3.908058 283.145844 
L 6.01235 280.367337 
L 7.589974 280.761848 
L 10.769746 285.626674 
L 12.905934 285.249412 
L 14.79696 285.945177 
L 15.098241 286.571561 
L 15.631571 286.549522 
L 15.934541 287.013285 
L 19.001006 287.675161 
L 23.188429 291.729272 
L 25.055718 291.894333 
L 25.434963 292.324391 
L 27.174368 292.378431 
L 28.548064 293.535194 
L 30.303362 293.879267 
L 31.222146 293.654135 
L 32.256398 294.075513 
L 32.289271 293.570731 
L 34.898853 293.876693 
L 35.310495 295.434013 
L 38.076666 294.101771 
L 39.287253 295.62133 
L 35.012719 297.577274 
L 32.831947 301.818166 
L 29.398263 307.089389 
L 26.561292 313.86536 
L 25.095088 320.193924 
L 23.086319 323.411968 
L 20.747057 325.390901 
L 17.445441 325.372391 
L 16.428818 326.518634 
L 15.918998 329.279314 
L 14.345195 330.572701 
L 12.248043 330.235412 
L 10.732275 330.471988 
L 10.002978 331.662371 
L 9.856783 336.272113 
L 1.44023 346.6 
L 1.44023 346.6 
" clip-path="url(#p682c95400f)" style="fill: none; stroke: #8f8f8f; stroke-width: 0.2; stroke-linecap: square"/>
   </g>
   <g id="line2d_48">
    <path d="M -1 284.418242 
L 3.908058 283.145844 
L 6.01235 280.367337 
L 7.589974 280.761848 
L 10.769746 285.626674 
L 12.905934 285.249412 
L 14.79696 285.945177 
L 15.098241 286.571561 
L 15.631571 286.549522 
L 15.934541 287.013285 
L 19.001006 287.675161 
L 23.188429 291.729272 
L 25.055718 291.894333 
L 25.434963 292.324391 
L 27.174368 292.378431 
L 28.548064 293.535194 
L 30.303362 293.879267 
L 31.222146 293.654135 
L 32.256398 294.075513 
L 32.289271 293.570731 
L 34.898853 293.876693 
L 35.310495 295.434013 
L 38.076666 294.101771 
L 39.287253 295.62133 
L 35.012719 297.577274 
L 32.831947 301.818166 
L 29.398263 307.089389 
L 26.561292 313.86536 
L 25.095088 320.193924 
L 23.086319 323.411968 
L 20.747057 325.390901 
L 17.445441 325.372391 
L 16.428818 326.518634 
L 15.918998 329.279314 
L 14.345195 330.572701 
L 12.248043 330.235412 
L 10.732275 330.471988 
L 10.002978 331.662371 
L 9.856783 336.272113 
L 1.44023 346.6 
L 1.44023 346.6 
" clip-path="url(#p682c95400f)" style="fill: none; stroke: #8f8f8f; stroke-width: 0.2; stroke-linecap: square"/>
   </g>
   <g id="line2d_49">
    <path d="M 0 0 
" clip-path="url(#p682c95400f)" style="fill: none; stroke: #8f8f8f; stroke-width: 0.2; stroke-linecap: square"/>
   </g>
   <g id="line2d_50">
    <path clip-path="url(#p682c95400f)" style="fill: none; stroke: #8f8f8f; stroke-width: 0.2; stroke-linecap: square"/>
   </g>
   <g id="line2d_51">
    <path clip-path="url(#p682c95400f)" style="fill: none; stroke: #8f8f8f; stroke-width: 0.2; stroke-linecap: square"/>
   </g>
   <g id="line2d_52">
    <path d="M -1 16.65704 
L 3.885898 19.473219 
L 66.880782 138.043702 
L 36.621016 165.656381 
L -1 271.9709 
" clip-path="url(#p682c95400f)" style="fill: none; stroke: #8f8f8f; stroke-width: 0.2; stroke-linecap: square"/>
   </g>
   <g id="line2d_53">
    <path d="M -1 16.65704 
L 3.885898 19.473219 
L 66.880782 138.043702 
L 36.621016 165.656381 
L -1 271.9709 
" clip-path="url(#p682c95400f)" style="fill: none; stroke: #8f8f8f; stroke-width: 0.2; stroke-linecap: square"/>
   </g>
   <g id="line2d_54">
    <path d="M -1 16.65704 
L 3.885898 19.473219 
L 66.880782 138.043702 
L 36.621016 165.656381 
L -1 271.9709 
" clip-path="url(#p682c95400f)" style="fill: none; stroke: #8f8f8f; stroke-width: 0.2; stroke-linecap: square"/>
   </g>
   <g id="line2d_55">
    <path d="M -1 16.65704 
L 3.885898 19.473219 
L 66.880782 138.043702 
L 36.621016 165.656381 
L -1 271.9709 
" clip-path="url(#p682c95400f)" style="fill: none; stroke: #8f8f8f; stroke-width: 0.2; stroke-linecap: square"/>
   </g>
   <g id="line2d_56">
    <path d="M -1 16.65704 
L 3.885898 19.473219 
L 66.880782 138.043702 
L 36.621016 165.656381 
L -1 271.9709 
" clip-path="url(#p682c95400f)" style="fill: none; stroke: #8f8f8f; stroke-width: 0.2; stroke-linecap: square"/>
   </g>
   <g id="line2d_57">
    <path clip-path="url(#p682c95400f)" style="fill: none; stroke: #8f8f8f; stroke-width: 0.2; stroke-linecap: square"/>
   </g>
   <g id="line2d_58">
    <path d="M 66.880782 138.043702 
L 142.809366 195.774307 
L 134.96311 227.893578 
L 104.041527 345.744578 
L 103.913301 346.6 
M 1.44023 346.6 
L 9.856783 336.272113 
L 10.002978 331.662371 
L 10.732275 330.471988 
L 12.248043 330.235412 
L 14.345195 330.572701 
L 15.918998 329.279314 
L 16.428818 326.518634 
L 17.445441 325.372391 
L 19.231425 325.357184 
L 20.747057 325.390901 
L 23.086319 323.411968 
L 25.095088 320.193924 
L 26.561292 313.86536 
L 29.398263 307.089389 
L 32.831947 301.818166 
L 35.012719 297.577274 
L 39.287253 295.62133 
L 38.732546 295.02835 
L 38.076666 294.101771 
L 35.310495 295.434013 
L 34.898853 293.876693 
L 32.289271 293.570731 
L 32.256398 294.075513 
L 31.222146 293.654135 
L 30.303362 293.879267 
L 28.548064 293.535194 
L 27.174368 292.378431 
L 25.434963 292.324391 
L 25.055718 291.894333 
L 23.188429 291.729272 
L 19.001006 287.675161 
L 15.934541 287.013285 
L 15.631571 286.549522 
L 15.098241 286.571561 
L 14.79696 285.945177 
L 12.905934 285.249412 
L 10.769746 285.626674 
L 7.589974 280.761848 
L 6.01235 280.367337 
L 3.908058 283.145844 
L -1 284.418242 
M -1 271.9709 
L 36.621016 165.656381 
L 66.880782 138.043702 
" clip-path="url(#p682c95400f)" style="fill: none; stroke: #8f8f8f; stroke-width: 0.2; stroke-linecap: square"/>
   </g>
   <g id="line2d_59">
    <path d="M 66.880782 138.043702 
L 142.809366 195.774307 
L 134.96311 227.893578 
L 104.041527 345.744578 
L 103.913301 346.6 
M 1.44023 346.6 
L 9.856783 336.272113 
L 10.002978 331.662371 
L 10.732275 330.471988 
L 12.248043 330.235412 
L 14.345195 330.572701 
L 15.918998 329.279314 
L 16.428818 326.518634 
L 17.445441 325.372391 
L 19.231425 325.357184 
L 20.747057 325.390901 
L 23.086319 323.411968 
L 25.095088 320.193924 
L 26.561292 313.86536 
L 29.398263 307.089389 
L 32.831947 301.818166 
L 35.012719 297.577274 
L 39.287253 295.62133 
L 38.732546 295.02835 
L 38.076666 294.101771 
L 35.310495 295.434013 
L 34.898853 293.876693 
L 32.289271 293.570731 
L 32.256398 294.075513 
L 31.222146 293.654135 
L 30.303362 293.879267 
L 28.548064 293.535194 
L 27.174368 292.378431 
L 25.434963 292.324391 
L 25.055718 291.894333 
L 23.188429 291.729272 
L 19.001006 287.675161 
L 15.934541 287.013285 
L 15.631571 286.549522 
L 15.098241 286.571561 
L 14.79696 285.945177 
L 12.905934 285.249412 
L 10.769746 285.626674 
L 7.589974 280.761848 
L 6.01235 280.367337 
L 3.908058 283.145844 
L -1 284.418242 
M -1 271.9709 
L 36.621016 165.656381 
L 66.880782 138.043702 
" clip-path="url(#p682c95400f)" style="fill: none; stroke: #8f8f8f; stroke-width: 0.2; stroke-linecap: square"/>
   </g>
   <g id="line2d_60">
    <path d="M 66.880782 138.043702 
L 142.809366 195.774307 
L 134.96311 227.893578 
L 104.041527 345.744578 
L 103.913301 346.6 
M 1.44023 346.6 
L 9.856783 336.272113 
L 10.002978 331.662371 
L 10.732275 330.471988 
L 12.248043 330.235412 
L 14.345195 330.572701 
L 15.918998 329.279314 
L 16.428818 326.518634 
L 17.445441 325.372391 
L 19.231425 325.357184 
L 20.747057 325.390901 
L 23.086319 323.411968 
L 25.095088 320.193924 
L 26.561292 313.86536 
L 29.398263 307.089389 
L 32.831947 301.818166 
L 35.012719 297.577274 
L 39.287253 295.62133 
L 38.732546 295.02835 
L 38.076666 294.101771 
L 35.310495 295.434013 
L 34.898853 293.876693 
L 32.289271 293.570731 
L 32.256398 294.075513 
L 31.222146 293.654135 
L 30.303362 293.879267 
L 28.548064 293.535194 
L 27.174368 292.378431 
L 25.434963 292.324391 
L 25.055718 291.894333 
L 23.188429 291.729272 
L 19.001006 287.675161 
L 15.934541 287.013285 
L 15.631571 286.549522 
L 15.098241 286.571561 
L 14.79696 285.945177 
L 12.905934 285.249412 
L 10.769746 285.626674 
L 7.589974 280.761848 
L 6.01235 280.367337 
L 3.908058 283.145844 
L -1 284.418242 
M -1 271.9709 
L 36.621016 165.656381 
L 66.880782 138.043702 
" clip-path="url(#p682c95400f)" style="fill: none; stroke: #8f8f8f; stroke-width: 0.2; stroke-linecap: square"/>
   </g>
   <g id="line2d_61">
    <path d="M 134.96311 227.893578 
L 222.183725 277.980738 
L 244.750019 295.488 
L 209.955122 319.573336 
L 200.424584 338.595945 
L 196.405788 346.6 
M 103.913301 346.6 
L 104.041527 345.744578 
L 134.96311 227.893578 
" clip-path="url(#p682c95400f)" style="fill: none; stroke: #8f8f8f; stroke-width: 0.2; stroke-linecap: square"/>
   </g>
   <g id="line2d_62">
    <path d="M 134.96311 227.893578 
L 222.183725 277.980738 
L 244.750019 295.488 
L 209.955122 319.573336 
L 200.424584 338.595945 
L 196.405788 346.6 
M 103.913301 346.6 
L 104.041527 345.744578 
L 134.96311 227.893578 
" clip-path="url(#p682c95400f)" style="fill: none; stroke: #8f8f8f; stroke-width: 0.2; stroke-linecap: square"/>
   </g>
   <g id="line2d_63">
    <path d="M 134.96311 227.893578 
L 222.183725 277.980738 
L 244.750019 295.488 
L 209.955122 319.573336 
L 200.424584 338.595945 
L 196.405788 346.6 
M 103.913301 346.6 
L 104.041527 345.744578 
L 134.96311 227.893578 
" clip-path="url(#p682c95400f)" style="fill: none; stroke: #8f8f8f; stroke-width: 0.2; stroke-linecap: square"/>
   </g>
   <g id="line2d_64">
    <path clip-path="url(#p682c95400f)" style="fill: none; stroke: #8f8f8f; stroke-width: 0.2; stroke-linecap: square"/>
   </g>
   <g id="line2d_65">
    <path clip-path="url(#p682c95400f)" style="fill: none; stroke: #8f8f8f; stroke-width: 0.2; stroke-linecap: square"/>
   </g>
   <g id="line2d_66">
    <path clip-path="url(#p682c95400f)" style="fill: none; stroke: #8f8f8f; stroke-width: 0.2; stroke-linecap: square"/>
   </g>
   <g id="line2d_67">
    <path clip-path="url(#p682c95400f)" style="fill: none; stroke: #8f8f8f; stroke-width: 0.2; stroke-linecap: square"/>
   </g>
   <g id="line2d_68">
    <path clip-path="url(#p682c95400f)" style="fill: none; stroke: #8f8f8f; stroke-width: 0.2; stroke-linecap: square"/>
   </g>
   <g id="line2d_69">
    <path clip-path="url(#p682c95400f)" style="fill: none; stroke: #8f8f8f; stroke-width: 0.2; stroke-linecap: square"/>
   </g>
   <g id="line2d_70">
    <path clip-path="url(#p682c95400f)" style="fill: none; stroke: #8f8f8f; stroke-width: 0.2; stroke-linecap: square"/>
   </g>
   <g id="line2d_71">
    <path clip-path="url(#p682c95400f)" style="fill: none; stroke: #8f8f8f; stroke-width: 0.2; stroke-linecap: square"/>
   </g>
   <g id="line2d_72">
    <path clip-path="url(#p682c95400f)" style="fill: none; stroke: #8f8f8f; stroke-width: 0.2; stroke-linecap: square"/>
   </g>
   <g id="line2d_73">
    <path d="M 163.179889 53.568 
L 255.925467 87.129551 
L 260.00369 93.445446 
L 276.197636 117.761411 
L 314.093031 174.603249 
L 337.35689 209.521292 
L 297.531564 255.201808 
L 285.988122 266.932872 
L 262.105001 283.459435 
L 244.750019 295.488 
L 222.183725 277.980738 
L 134.96311 227.893578 
L 142.809366 195.774307 
L 167.014849 70.568942 
L 163.179889 53.568 
L 163.179889 53.568 
" clip-path="url(#p682c95400f)" style="fill: none; stroke: #808080; stroke-width: 0.5; stroke-linecap: square"/>
   </g>
   <g id="line2d_74">
    <path d="M 163.179889 53.568 
L 255.925467 87.129551 
L 260.00369 93.445446 
L 276.197636 117.761411 
L 314.093031 174.603249 
L 286.406672 199.708077 
L 270.956545 219.156967 
L 282.754192 238.101049 
L 297.531564 255.201808 
L 285.988122 266.932872 
L 262.105001 283.459435 
L 244.750019 295.488 
L 222.183725 277.980738 
L 134.96311 227.893578 
L 142.809366 195.774307 
L 167.014849 70.568942 
L 163.179889 53.568 
L 163.179889 53.568 
" clip-path="url(#p682c95400f)" style="fill: none; stroke: #808080; stroke-width: 0.5; stroke-linecap: square"/>
   </g>
   <g id="line2d_75">
    <path d="M 163.179889 53.568 
L 255.925467 87.129551 
L 260.00369 93.445446 
L 276.197636 117.761411 
L 314.093031 174.603249 
L 337.35689 209.521292 
L 297.531564 255.201808 
L 285.988122 266.932872 
L 262.105001 283.459435 
L 244.750019 295.488 
L 222.183725 277.980738 
L 134.96311 227.893578 
L 142.809366 195.774307 
L 167.014849 70.568942 
L 163.179889 53.568 
L 163.179889 53.568 
" clip-path="url(#p682c95400f)" style="fill: none; stroke: #808080; stroke-width: 0.5; stroke-linecap: square"/>
   </g>
   <g id="line2d_76">
    <path d="M 163.179889 53.568 
L 255.925467 87.129551 
L 260.00369 93.445446 
L 276.197636 117.761411 
L 314.093031 174.603249 
L 337.35689 209.521292 
L 297.531564 255.201808 
L 285.988122 266.932872 
L 262.105001 283.459435 
L 244.750019 295.488 
L 222.183725 277.980738 
L 134.96311 227.893578 
L 142.809366 195.774307 
L 167.014849 70.568942 
L 163.179889 53.568 
L 163.179889 53.568 
" clip-path="url(#p682c95400f)" style="fill: none; stroke: #808080; stroke-width: 0.5; stroke-linecap: square"/>
   </g>
   <g id="line2d_77">
    <path d="M 163.179889 53.568 
L 255.925467 87.129551 
L 260.00369 93.445446 
L 276.197636 117.761411 
L 314.093031 174.603249 
L 337.35689 209.521292 
L 297.531564 255.201808 
L 285.988122 266.932872 
L 262.105001 283.459435 
L 244.750019 295.488 
L 222.183725 277.980738 
L 134.96311 227.893578 
L 142.809366 195.774307 
L 167.014849 70.568942 
L 163.179889 53.568 
L 163.179889 53.568 
" clip-path="url(#p682c95400f)" style="fill: none; stroke: #808080; stroke-width: 0.5; stroke-linecap: square"/>
   </g>
   <g id="text_1">
    <!-- WUR141 -->
    <g transform="translate(223.641387 169.642145)scale(0.0579 -0.0579)">
     <defs>
      <path id="DejaVuSans-57" d="M 213 4666 
L 850 4666 
L 1831 722 
L 2809 4666 
L 3519 4666 
L 4500 722 
L 5478 4666 
L 6119 4666 
L 4947 0 
L 4153 0 
L 3169 4050 
L 2175 0 
L 1381 0 
L 213 4666 
z
" transform="scale(0.015625)"/>
      <path id="DejaVuSans-55" d="M 556 4666 
L 1191 4666 
L 1191 1831 
Q 1191 1081 1462 751 
Q 1734 422 2344 422 
Q 2950 422 3222 751 
Q 3494 1081 3494 1831 
L 3494 4666 
L 4128 4666 
L 4128 1753 
Q 4128 841 3676 375 
Q 3225 -91 2344 -91 
Q 1459 -91 1007 375 
Q 556 841 556 1753 
L 556 4666 
z
" transform="scale(0.015625)"/>
      <path id="DejaVuSans-52" d="M 2841 2188 
Q 3044 2119 3236 1894 
Q 3428 1669 3622 1275 
L 4263 0 
L 3584 0 
L 2988 1197 
Q 2756 1666 2539 1819 
Q 2322 1972 1947 1972 
L 1259 1972 
L 1259 0 
L 628 0 
L 628 4666 
L 2053 4666 
Q 2853 4666 3247 4331 
Q 3641 3997 3641 3322 
Q 3641 2881 3436 2590 
Q 3231 2300 2841 2188 
z
M 1259 4147 
L 1259 2491 
L 2053 2491 
Q 2509 2491 2742 2702 
Q 2975 2913 2975 3322 
Q 2975 3731 2742 3939 
Q 2509 4147 2053 4147 
L 1259 4147 
z
" transform="scale(0.015625)"/>
      <path id="DejaVuSans-31" d="M 794 531 
L 1825 531 
L 1825 4091 
L 703 3866 
L 703 4441 
L 1819 4666 
L 2450 4666 
L 2450 531 
L 3481 531 
L 3481 0 
L 794 0 
L 794 531 
z
" transform="scale(0.015625)"/>
      <path id="DejaVuSans-34" d="M 2419 4116 
L 825 1625 
L 2419 1625 
L 2419 4116 
z
M 2253 4666 
L 3047 4666 
L 3047 1625 
L 3713 1625 
L 3713 1100 
L 3047 1100 
L 3047 0 
L 2419 0 
L 2419 1100 
L 313 1100 
L 313 1709 
L 2253 4666 
z
" transform="scale(0.015625)"/>
     </defs>
     <use xlink:href="#DejaVuSans-57"/>
     <use xlink:href="#DejaVuSans-55" x="98.876953"/>
     <use xlink:href="#DejaVuSans-52" x="172.070312"/>
     <use xlink:href="#DejaVuSans-31" x="241.552734"/>
     <use xlink:href="#DejaVuSans-34" x="305.175781"/>
     <use xlink:href="#DejaVuSans-31" x="368.798828"/>
    </g>
    <!-- 325 -->
    <g transform="translate(230.634169 176.125678)scale(0.0579 -0.0579)">
     <defs>
      <path id="DejaVuSans-33" d="M 2597 2516 
Q 3050 2419 3304 2112 
Q 3559 1806 3559 1356 
Q 3559 666 3084 287 
Q 2609 -91 1734 -91 
Q 1441 -91 1130 -33 
Q 819 25 488 141 
L 488 750 
Q 750 597 1062 519 
Q 1375 441 1716 441 
Q 2309 441 2620 675 
Q 2931 909 2931 1356 
Q 2931 1769 2642 2001 
Q 2353 2234 1838 2234 
L 1294 2234 
L 1294 2753 
L 1863 2753 
Q 2328 2753 2575 2939 
Q 2822 3125 2822 3475 
Q 2822 3834 2567 4026 
Q 2313 4219 1838 4219 
Q 1578 4219 1281 4162 
Q 984 4106 628 3988 
L 628 4550 
Q 988 4650 1302 4700 
Q 1616 4750 1894 4750 
Q 2613 4750 3031 4423 
Q 3450 4097 3450 3541 
Q 3450 3153 3228 2886 
Q 3006 2619 2597 2516 
z
" transform="scale(0.015625)"/>
      <path id="DejaVuSans-32" d="M 1228 531 
L 3431 531 
L 3431 0 
L 469 0 
L 469 531 
Q 828 903 1448 1529 
Q 2069 2156 2228 2338 
Q 2531 2678 2651 2914 
Q 2772 3150 2772 3378 
Q 2772 3750 2511 3984 
Q 2250 4219 1831 4219 
Q 1534 4219 1204 4116 
Q 875 4013 500 3803 
L 500 4441 
Q 881 4594 1212 4672 
Q 1544 4750 1819 4750 
Q 2544 4750 2975 4387 
Q 3406 4025 3406 3419 
Q 3406 3131 3298 2873 
Q 3191 2616 2906 2266 
Q 2828 2175 2409 1742 
Q 1991 1309 1228 531 
z
" transform="scale(0.015625)"/>
      <path id="DejaVuSans-35" d="M 691 4666 
L 3169 4666 
L 3169 4134 
L 1269 4134 
L 1269 2991 
Q 1406 3038 1543 3061 
Q 1681 3084 1819 3084 
Q 2600 3084 3056 2656 
Q 3513 2228 3513 1497 
Q 3513 744 3044 326 
Q 2575 -91 1722 -91 
Q 1428 -91 1123 -41 
Q 819 9 494 109 
L 494 744 
Q 775 591 1075 516 
Q 1375 441 1709 441 
Q 2250 441 2565 725 
Q 2881 1009 2881 1497 
Q 2881 1984 2565 2268 
Q 2250 2553 1709 2553 
Q 1456 2553 1204 2497 
Q 953 2441 691 2322 
L 691 4666 
z
" transform="scale(0.015625)"/>
     </defs>
     <use xlink:href="#DejaVuSans-33"/>
     <use xlink:href="#DejaVuSans-32" x="63.623047"/>
     <use xlink:href="#DejaVuSans-35" x="127.246094"/>
    </g>
    <!-- 305 -->
    <g transform="translate(230.634169 182.609212)scale(0.0579 -0.0579)">
     <defs>
      <path id="DejaVuSans-30" d="M 2034 4250 
Q 1547 4250 1301 3770 
Q 1056 3291 1056 2328 
Q 1056 1369 1301 889 
Q 1547 409 2034 409 
Q 2525 409 2770 889 
Q 3016 1369 3016 2328 
Q 3016 3291 2770 3770 
Q 2525 4250 2034 4250 
z
M 2034 4750 
Q 2819 4750 3233 4129 
Q 3647 3509 3647 2328 
Q 3647 1150 3233 529 
Q 2819 -91 2034 -91 
Q 1250 -91 836 529 
Q 422 1150 422 2328 
Q 422 3509 836 4129 
Q 1250 4750 2034 4750 
z
" transform="scale(0.015625)"/>
     </defs>
     <use xlink:href="#DejaVuSans-33"/>
     <use xlink:href="#DejaVuSans-30" x="63.623047"/>
     <use xlink:href="#DejaVuSans-35" x="127.246094"/>
    </g>
   </g>
   <g id="text_2">
    <!-- WUR142 -->
    <g transform="translate(212.009457 169.642145)scale(0.0579 -0.0579)">
     <use xlink:href="#DejaVuSans-57"/>
     <use xlink:href="#DejaVuSans-55" x="98.876953"/>
     <use xlink:href="#DejaVuSans-52" x="172.070312"/>
     <use xlink:href="#DejaVuSans-31" x="241.552734"/>
     <use xlink:href="#DejaVuSans-34" x="305.175781"/>
     <use xlink:href="#DejaVuSans-32" x="368.798828"/>
    </g>
    <!-- 305 -->
    <g transform="translate(219.002239 176.125678)scale(0.0579 -0.0579)">
     <use xlink:href="#DejaVuSans-33"/>
     <use xlink:href="#DejaVuSans-30" x="63.623047"/>
     <use xlink:href="#DejaVuSans-35" x="127.246094"/>
    </g>
    <!-- 245 -->
    <g transform="translate(219.002239 182.609212)scale(0.0579 -0.0579)">
     <use xlink:href="#DejaVuSans-32"/>
     <use xlink:href="#DejaVuSans-34" x="63.623047"/>
     <use xlink:href="#DejaVuSans-35" x="127.246094"/>
    </g>
   </g>
   <g id="text_3">
    <!-- WUR24 -->
    <g transform="translate(225.48333 169.642145)scale(0.0579 -0.0579)">
     <use xlink:href="#DejaVuSans-57"/>
     <use xlink:href="#DejaVuSans-55" x="98.876953"/>
     <use xlink:href="#DejaVuSans-52" x="172.070312"/>
     <use xlink:href="#DejaVuSans-32" x="241.552734"/>
     <use xlink:href="#DejaVuSans-34" x="305.175781"/>
    </g>
    <!-- 355 -->
    <g transform="translate(230.634169 176.125678)scale(0.0579 -0.0579)">
     <use xlink:href="#DejaVuSans-33"/>
     <use xlink:href="#DejaVuSans-35" x="63.623047"/>
     <use xlink:href="#DejaVuSans-35" x="127.246094"/>
    </g>
    <!-- 325 -->
    <g transform="translate(230.634169 182.609212)scale(0.0579 -0.0579)">
     <use xlink:href="#DejaVuSans-33"/>
     <use xlink:href="#DejaVuSans-32" x="63.623047"/>
     <use xlink:href="#DejaVuSans-35" x="127.246094"/>
    </g>
   </g>
   <g id="text_4">
    <!-- WUR34 -->
    <g transform="translate(225.48333 169.642145)scale(0.0579 -0.0579)">
     <use xlink:href="#DejaVuSans-57"/>
     <use xlink:href="#DejaVuSans-55" x="98.876953"/>
     <use xlink:href="#DejaVuSans-52" x="172.070312"/>
     <use xlink:href="#DejaVuSans-33" x="241.552734"/>
     <use xlink:href="#DejaVuSans-34" x="305.175781"/>
    </g>
    <!-- 375 -->
    <g transform="translate(230.634169 176.125678)scale(0.0579 -0.0579)">
     <defs>
      <path id="DejaVuSans-37" d="M 525 4666 
L 3525 4666 
L 3525 4397 
L 1831 0 
L 1172 0 
L 2766 4134 
L 525 4134 
L 525 4666 
z
" transform="scale(0.015625)"/>
     </defs>
     <use xlink:href="#DejaVuSans-33"/>
     <use xlink:href="#DejaVuSans-37" x="63.623047"/>
     <use xlink:href="#DejaVuSans-35" x="127.246094"/>
    </g>
    <!-- 355 -->
    <g transform="translate(230.634169 182.609212)scale(0.0579 -0.0579)">
     <use xlink:href="#DejaVuSans-33"/>
     <use xlink:href="#DejaVuSans-35" x="63.623047"/>
     <use xlink:href="#DejaVuSans-35" x="127.246094"/>
    </g>
   </g>
   <g id="text_5">
    <!-- WUR44 -->
    <g transform="translate(225.48333 169.642145)scale(0.0579 -0.0579)">
     <use xlink:href="#DejaVuSans-57"/>
     <use xlink:href="#DejaVuSans-55" x="98.876953"/>
     <use xlink:href="#DejaVuSans-52" x="172.070312"/>
     <use xlink:href="#DejaVuSans-34" x="241.552734"/>
     <use xlink:href="#DejaVuSans-34" x="305.175781"/>
    </g>
    <!-- 660 -->
    <g transform="translate(230.634169 176.125678)scale(0.0579 -0.0579)">
     <defs>
      <path id="DejaVuSans-36" d="M 2113 2584 
Q 1688 2584 1439 2293 
Q 1191 2003 1191 1497 
Q 1191 994 1439 701 
Q 1688 409 2113 409 
Q 2538 409 2786 701 
Q 3034 994 3034 1497 
Q 3034 2003 2786 2293 
Q 2538 2584 2113 2584 
z
M 3366 4563 
L 3366 3988 
Q 3128 4100 2886 4159 
Q 2644 4219 2406 4219 
Q 1781 4219 1451 3797 
Q 1122 3375 1075 2522 
Q 1259 2794 1537 2939 
Q 1816 3084 2150 3084 
Q 2853 3084 3261 2657 
Q 3669 2231 3669 1497 
Q 3669 778 3244 343 
Q 2819 -91 2113 -91 
Q 1303 -91 875 529 
Q 447 1150 447 2328 
Q 447 3434 972 4092 
Q 1497 4750 2381 4750 
Q 2619 4750 2861 4703 
Q 3103 4656 3366 4563 
z
" transform="scale(0.015625)"/>
     </defs>
     <use xlink:href="#DejaVuSans-36"/>
     <use xlink:href="#DejaVuSans-36" x="63.623047"/>
     <use xlink:href="#DejaVuSans-30" x="127.246094"/>
    </g>
    <!-- 375 -->
    <g transform="translate(230.634169 182.609212)scale(0.0579 -0.0579)">
     <use xlink:href="#DejaVuSans-33"/>
     <use xlink:href="#DejaVuSans-37" x="63.623047"/>
     <use xlink:href="#DejaVuSans-35" x="127.246094"/>
    </g>
   </g>
   <g id="text_6">
    <!-- WUR141 -->
    <g transform="translate(223.641387 169.642145)scale(0.0579 -0.0579)">
     <use xlink:href="#DejaVuSans-57"/>
     <use xlink:href="#DejaVuSans-55" x="98.876953"/>
     <use xlink:href="#DejaVuSans-52" x="172.070312"/>
     <use xlink:href="#DejaVuSans-31" x="241.552734"/>
     <use xlink:href="#DejaVuSans-34" x="305.175781"/>
     <use xlink:href="#DejaVuSans-31" x="368.798828"/>
    </g>
    <!-- 325 -->
    <g transform="translate(230.634169 176.125678)scale(0.0579 -0.0579)">
     <use xlink:href="#DejaVuSans-33"/>
     <use xlink:href="#DejaVuSans-32" x="63.623047"/>
     <use xlink:href="#DejaVuSans-35" x="127.246094"/>
    </g>
    <!-- 305 -->
    <g transform="translate(230.634169 182.609212)scale(0.0579 -0.0579)">
     <use xlink:href="#DejaVuSans-33"/>
     <use xlink:href="#DejaVuSans-30" x="63.623047"/>
     <use xlink:href="#DejaVuSans-35" x="127.246094"/>
    </g>
   </g>
   <g id="text_7">
    <!-- WUR142 -->
    <g transform="translate(212.009457 169.642145)scale(0.0579 -0.0579)">
     <use xlink:href="#DejaVuSans-57"/>
     <use xlink:href="#DejaVuSans-55" x="98.876953"/>
     <use xlink:href="#DejaVuSans-52" x="172.070312"/>
     <use xlink:href="#DejaVuSans-31" x="241.552734"/>
     <use xlink:href="#DejaVuSans-34" x="305.175781"/>
     <use xlink:href="#DejaVuSans-32" x="368.798828"/>
    </g>
    <!-- 305 -->
    <g transform="translate(219.002239 176.125678)scale(0.0579 -0.0579)">
     <use xlink:href="#DejaVuSans-33"/>
     <use xlink:href="#DejaVuSans-30" x="63.623047"/>
     <use xlink:href="#DejaVuSans-35" x="127.246094"/>
    </g>
    <!-- 245 -->
    <g transform="translate(219.002239 182.609212)scale(0.0579 -0.0579)">
     <use xlink:href="#DejaVuSans-32"/>
     <use xlink:href="#DejaVuSans-34" x="63.623047"/>
     <use xlink:href="#DejaVuSans-35" x="127.246094"/>
    </g>
   </g>
   <g id="text_8">
    <!-- WUR24 -->
    <g transform="translate(225.48333 169.642145)scale(0.0579 -0.0579)">
     <use xlink:href="#DejaVuSans-57"/>
     <use xlink:href="#DejaVuSans-55" x="98.876953"/>
     <use xlink:href="#DejaVuSans-52" x="172.070312"/>
     <use xlink:href="#DejaVuSans-32" x="241.552734"/>
     <use xlink:href="#DejaVuSans-34" x="305.175781"/>
    </g>
    <!-- 355 -->
    <g transform="translate(230.634169 176.125678)scale(0.0579 -0.0579)">
     <use xlink:href="#DejaVuSans-33"/>
     <use xlink:href="#DejaVuSans-35" x="63.623047"/>
     <use xlink:href="#DejaVuSans-35" x="127.246094"/>
    </g>
    <!-- 325 -->
    <g transform="translate(230.634169 182.609212)scale(0.0579 -0.0579)">
     <use xlink:href="#DejaVuSans-33"/>
     <use xlink:href="#DejaVuSans-32" x="63.623047"/>
     <use xlink:href="#DejaVuSans-35" x="127.246094"/>
    </g>
   </g>
   <g id="text_9">
    <!-- WUR34 -->
    <g transform="translate(225.48333 169.642145)scale(0.0579 -0.0579)">
     <use xlink:href="#DejaVuSans-57"/>
     <use xlink:href="#DejaVuSans-55" x="98.876953"/>
     <use xlink:href="#DejaVuSans-52" x="172.070312"/>
     <use xlink:href="#DejaVuSans-33" x="241.552734"/>
     <use xlink:href="#DejaVuSans-34" x="305.175781"/>
    </g>
    <!-- 375 -->
    <g transform="translate(230.634169 176.125678)scale(0.0579 -0.0579)">
     <use xlink:href="#DejaVuSans-33"/>
     <use xlink:href="#DejaVuSans-37" x="63.623047"/>
     <use xlink:href="#DejaVuSans-35" x="127.246094"/>
    </g>
    <!-- 355 -->
    <g transform="translate(230.634169 182.609212)scale(0.0579 -0.0579)">
     <use xlink:href="#DejaVuSans-33"/>
     <use xlink:href="#DejaVuSans-35" x="63.623047"/>
     <use xlink:href="#DejaVuSans-35" x="127.246094"/>
    </g>
   </g>
   <g id="text_10">
    <!-- WUR44 -->
    <g transform="translate(225.48333 169.642145)scale(0.0579 -0.0579)">
     <use xlink:href="#DejaVuSans-57"/>
     <use xlink:href="#DejaVuSans-55" x="98.876953"/>
     <use xlink:href="#DejaVuSans-52" x="172.070312"/>
     <use xlink:href="#DejaVuSans-34" x="241.552734"/>
     <use xlink:href="#DejaVuSans-34" x="305.175781"/>
    </g>
    <!-- 660 -->
    <g transform="translate(230.634169 176.125678)scale(0.0579 -0.0579)">
     <use xlink:href="#DejaVuSans-36"/>
     <use xlink:href="#DejaVuSans-36" x="63.623047"/>
     <use xlink:href="#DejaVuSans-30" x="127.246094"/>
    </g>
    <!-- 375 -->
    <g transform="translate(230.634169 182.609212)scale(0.0579 -0.0579)">
     <use xlink:href="#DejaVuSans-33"/>
     <use xlink:href="#DejaVuSans-37" x="63.623047"/>
     <use xlink:href="#DejaVuSans-35" x="127.246094"/>
    </g>
   </g>
  </g>
 </g>
 <defs>
  <clipPath id="p682c95400f">
   <rect x="124.843421" y="41.472" width="222.633158" height="266.112"/>
  </clipPath>
 </defs>
</svg>
