<?xml version="1.0" encoding="utf-8" standalone="no"?>
<!DOCTYPE svg PUBLIC "-//W3C//DTD SVG 1.1//EN"
  "http://www.w3.org/Graphics/SVG/1.1/DTD/svg11.dtd">
<svg xmlns:xlink="http://www.w3.org/1999/xlink" width="460.8pt" height="345.6pt" viewBox="0 0 460.8 345.6" xmlns="http://www.w3.org/2000/svg" version="1.1">
 <metadata>
  <rdf:RDF xmlns:dc="http://purl.org/dc/elements/1.1/" xmlns:cc="http://creativecommons.org/ns#" xmlns:rdf="http://www.w3.org/1999/02/22-rdf-syntax-ns#">
   <cc:Work>
    <dc:type rdf:resource="http://purl.org/dc/dcmitype/StillImage"/>
    <dc:date>2022-04-26T16:13:01.146917</dc:date>
    <dc:format>image/svg+xml</dc:format>
    <dc:creator>
     <cc:Agent>
      <dc:title>Matplotlib v3.5.0, https://matplotlib.org/</dc:title>
     </cc:Agent>
    </dc:creator>
   </cc:Work>
  </rdf:RDF>
 </metadata>
 <defs>
  <style type="text/css">*{stroke-linejoin: round; stroke-linecap: butt}</style>
 </defs>
 <g id="figure_1">
  <g id="patch_1">
   <path d="M 0 345.6 
L 460.8 345.6 
L 460.8 0 
L 0 0 
z
" style="fill: #ffffff"/>
  </g>
  <g id="axes_1">
   <g id="patch_2">
    <path d="M 208.733576 120.057703 
L 213.820215 120.347294 
L 225.506579 126.570445 
L 242.618706 129.109502 
L 259.117614 125.702992 
L 263.157138 139.069578 
L 269.254086 142.987237 
L 286.840912 154.238002 
L 281.083984 218.16075 
L 262.644678 218.402842 
L 246.069274 218.300666 
L 216.634221 218.358645 
L 207.845367 220.792354 
L 187.560472 227.015562 
L 154.996364 228.998297 
L 155.818912 226.81418 
L 155.675506 224.400747 
L 156.712393 223.162913 
L 157.526564 222.485252 
L 157.737468 221.57907 
L 157.494875 220.245196 
L 158.487593 218.847105 
L 160.149098 216.361228 
L 161.29706 213.51927 
L 163.021194 212.244354 
L 163.81006 209.596305 
L 165.077527 204.315089 
L 165.126368 202.972169 
L 165.462099 201.757382 
L 168.652208 200.063084 
L 169.518498 198.123591 
L 168.434029 192.253596 
L 168.849189 189.811567 
L 171.281092 183.10455 
L 171.43568 179.411376 
L 172.336089 178.377516 
L 173.942449 177.249536 
L 174.594024 174.736495 
L 174.426936 173.263681 
L 174.670677 170.902148 
L 174.159185 168.083384 
L 174.608391 166.278389 
L 176.662522 162.935842 
L 177.458861 160.376132 
L 181.459682 157.72691 
L 187.704007 150.067682 
L 187.747716 146.746629 
L 188.423516 145.713799 
L 189.389806 145.516073 
L 190.965728 145.833499 
L 192.156723 144.972188 
L 192.45157 142.895711 
L 193.21489 142.1903 
L 194.545893 142.085768 
L 195.719735 142.032963 
L 197.471547 140.776254 
L 198.84625 138.440445 
L 199.931819 133.614466 
L 201.980911 128.604307 
L 204.570548 124.790464 
L 206.070425 121.745982 
L 209.150709 120.414763 
z
" clip-path="url(#pd9a09156e2)" style="fill: #ffedd9; stroke: #ffedd9; stroke-linejoin: miter"/>
   </g>
   <g id="patch_3">
    <path d="M 286.840912 154.238002 
L 316.415206 173.159966 
L 316.692177 186.673942 
L 317.323636 217.525438 
L 281.083984 218.16075 
z
" clip-path="url(#pd9a09156e2)" style="fill: #ffedd9; stroke: #ffedd9; stroke-linejoin: miter"/>
   </g>
   <g id="patch_4">
    <path d="M 208.733576 120.057703 
L 213.820215 120.347294 
L 225.506579 126.570445 
L 242.618706 129.109502 
L 259.117614 125.702992 
L 263.157138 139.069578 
L 269.254086 142.987237 
L 286.840912 154.238002 
L 281.083984 218.16075 
L 262.644678 218.402842 
L 246.069274 218.300666 
L 216.634221 218.358645 
L 207.845367 220.792354 
L 187.560472 227.015562 
L 154.996364 228.998297 
L 155.818912 226.81418 
L 155.675506 224.400747 
L 156.712393 223.162913 
L 157.526564 222.485252 
L 157.737468 221.57907 
L 157.494875 220.245196 
L 158.487593 218.847105 
L 160.149098 216.361228 
L 161.29706 213.51927 
L 163.021194 212.244354 
L 163.81006 209.596305 
L 165.077527 204.315089 
L 165.126368 202.972169 
L 165.462099 201.757382 
L 168.652208 200.063084 
L 169.518498 198.123591 
L 168.434029 192.253596 
L 168.849189 189.811567 
L 171.281092 183.10455 
L 171.43568 179.411376 
L 172.336089 178.377516 
L 173.942449 177.249536 
L 174.594024 174.736495 
L 174.426936 173.263681 
L 174.670677 170.902148 
L 174.159185 168.083384 
L 174.608391 166.278389 
L 176.662522 162.935842 
L 177.458861 160.376132 
L 181.459682 157.72691 
L 187.704007 150.067682 
L 187.747716 146.746629 
L 188.423516 145.713799 
L 189.389806 145.516073 
L 190.965728 145.833499 
L 192.156723 144.972188 
L 192.45157 142.895711 
L 193.21489 142.1903 
L 194.545893 142.085768 
L 195.719735 142.032963 
L 197.471547 140.776254 
L 198.84625 138.440445 
L 199.931819 133.614466 
L 201.980911 128.604307 
L 204.570548 124.790464 
L 206.070425 121.745982 
L 209.150709 120.414763 
L 208.733576 120.057703 
z
" clip-path="url(#pd9a09156e2)" style="fill: #ffedd9; stroke: #ffedd9; stroke-linejoin: miter"/>
   </g>
   <g id="patch_5">
    <path d="M 286.840912 154.238002 
L 316.415206 173.159966 
L 316.692177 186.673942 
L 317.323636 217.525438 
L 281.083984 218.16075 
L 286.840912 154.238002 
z
" clip-path="url(#pd9a09156e2)" style="fill: #ffedd9; stroke: #ffedd9; stroke-linejoin: miter"/>
   </g>
   <g id="line2d_1">
    <path d="M 208.733576 120.057703 
L 213.820215 120.347294 
L 225.506579 126.570445 
L 242.618706 129.109502 
L 259.117614 125.702992 
L 263.157138 139.069578 
L 269.254086 142.987237 
L 286.840912 154.238002 
L 281.083984 218.16075 
L 262.644678 218.402842 
L 246.069274 218.300666 
L 216.634221 218.358645 
L 207.845367 220.792354 
L 187.560472 227.015562 
L 154.996364 228.998297 
L 155.818912 226.81418 
L 155.675506 224.400747 
L 156.712393 223.162913 
L 157.526564 222.485252 
L 157.737468 221.57907 
L 157.494875 220.245196 
L 158.487593 218.847105 
L 160.149098 216.361228 
L 161.29706 213.51927 
L 163.021194 212.244354 
L 163.81006 209.596305 
L 165.077527 204.315089 
L 165.126368 202.972169 
L 165.462099 201.757382 
L 168.652208 200.063084 
L 169.518498 198.123591 
L 168.434029 192.253596 
L 168.849189 189.811567 
L 171.281092 183.10455 
L 171.43568 179.411376 
L 172.336089 178.377516 
L 173.942449 177.249536 
L 174.594024 174.736495 
L 174.426936 173.263681 
L 174.670677 170.902148 
L 174.159185 168.083384 
L 174.608391 166.278389 
L 176.662522 162.935842 
L 177.458861 160.376132 
L 181.459682 157.72691 
L 187.704007 150.067682 
L 187.747716 146.746629 
L 188.423516 145.713799 
L 189.389806 145.516073 
L 190.965728 145.833499 
L 192.156723 144.972188 
L 192.45157 142.895711 
L 193.21489 142.1903 
L 194.545893 142.085768 
L 195.719735 142.032963 
L 197.471547 140.776254 
L 198.84625 138.440445 
L 199.931819 133.614466 
L 201.980911 128.604307 
L 204.570548 124.790464 
L 206.070425 121.745982 
L 209.150709 120.414763 
L 208.733576 120.057703 
" clip-path="url(#pd9a09156e2)" style="fill: none; stroke: #ffc380; stroke-width: 0.5; stroke-linecap: square"/>
   </g>
   <g id="line2d_2">
    <path d="M 286.840912 154.238002 
L 316.415206 173.159966 
L 316.692177 186.673942 
L 317.323636 217.525438 
L 281.083984 218.16075 
L 286.840912 154.238002 
" clip-path="url(#pd9a09156e2)" style="fill: none; stroke: #ffc380; stroke-width: 0.5; stroke-linecap: square"/>
   </g>
   <g id="line2d_3">
    <path d="M 436.78819 230.67654 
L 445.85192 244.425581 
L 458.909619 242.305801 
L 438.957557 285.610865 
L 416.779461 293.827023 
L 406.799807 297.525367 
L 393.893286 300.311508 
L 351.963667 296.534883 
L 334.098446 294.985663 
L 353.011644 279.054551 
L 353.057794 259.551566 
L 347.49729 260.034956 
L 341.521667 250.005116 
L 318.01805 251.519246 
L 317.809033 241.279843 
L 317.323636 217.525438 
L 319.011042 216.534688 
L 347.514865 200.136374 
L 350.724947 192.541507 
L 435.859049 207.203974 
L 436.2576 217.268353 
L 458.909619 242.305801 
L 438.957557 285.610865 
L 416.779461 293.827023 
L 406.799807 297.525367 
L 393.893286 300.311508 
L 351.963667 296.534883 
L 334.098446 294.985663 
L 318.243649 262.578115 
L 318.16011 258.482199 
L 318.01805 251.519246 
L 317.809033 241.279843 
L 317.323636 217.525438 
L 316.692177 186.673942 
L 350.724947 192.541507 
L 435.859049 207.203974 
L 455.833285 211.062634 
L 455.799689 218.275291 
L 456.856238 226.432598 
L 458.909619 242.305801 
L 438.957557 285.610865 
L 416.779461 293.827023 
L 406.799807 297.525367 
L 393.893286 300.311508 
L 351.963667 296.534883 
L 334.098446 294.985663 
L 318.243649 262.578115 
L 318.16011 258.482199 
L 318.01805 251.519246 
L 317.809033 241.279843 
L 317.323636 217.525438 
L 316.692177 186.673942 
L 350.724947 192.541507 
L 435.859049 207.203974 
L 455.833285 211.062634 
L 455.799689 218.275291 
L 456.856238 226.432598 
L 436.78819 230.67654 
L 445.85192 244.425581 
L 458.909619 242.305801 
L 438.957557 285.610865 
L 416.779461 293.827023 
L 406.799807 297.525367 
L 393.893286 300.311508 
L 351.963667 296.534883 
L 334.098446 294.985663 
L 353.011644 279.054551 
L 353.057794 259.551566 
L 347.49729 260.034956 
L 341.521667 250.005116 
L 318.01805 251.519246 
L 317.809033 241.279843 
L 317.323636 217.525438 
L 316.692177 186.673942 
L 350.724947 192.541507 
L 435.859049 207.203974 
L 436.2576 217.268353 
L 458.909619 242.305801 
L 438.957557 285.610865 
L 416.779461 293.827023 
L 406.799807 297.525367 
L 393.893286 300.311508 
L 351.963667 296.534883 
L 334.098446 294.985663 
L 353.011644 279.054551 
L 353.057794 259.551566 
L 347.49729 260.034956 
L 341.521667 250.005116 
L 318.01805 251.519246 
L 317.809033 241.279843 
L 317.323636 217.525438 
L 316.692177 186.673942 
L 350.724947 192.541507 
L 435.859049 207.203974 
L 455.833285 211.062634 
L 455.799689 218.275291 
L 456.856238 226.432598 
L 458.909619 242.305801 
L 438.957557 285.610865 
L 416.779461 293.827023 
L 406.799807 297.525367 
L 393.893286 300.311508 
L 351.963667 296.534883 
L 334.098446 294.985663 
L 318.243649 262.578115 
L 318.16011 258.482199 
L 318.01805 251.519246 
L 317.809033 241.279843 
L 317.323636 217.525438 
L 316.692177 186.673942 
L 350.724947 192.541507 
L 435.859049 207.203974 
L 455.833285 211.062634 
L 455.799689 218.275291 
L 456.856238 226.432598 
L 436.78819 230.67654 
" clip-path="url(#pd9a09156e2)" style="fill: none; stroke: #8f8f8f; stroke-width: 0.2; stroke-linecap: square"/>
   </g>
   <g id="line2d_4">
    <path d="M 372.174614 111.592758 
L 426.13999 158.04152 
L 421.903182 163.054164 
L 417.185498 173.000687 
L 435.166773 189.736865 
L 436.78819 230.67654 
L 424.184039 237.005077 
L 389.017771 207.037794 
L 347.514865 200.136374 
L 365.604795 157.44133 
L 365.418054 125.825862 
L 359.476019 120.394028 
L 372.174614 111.592758 
L 426.13999 158.04152 
L 421.903182 163.054164 
L 417.185498 173.000687 
L 435.166773 189.736865 
L 435.859049 207.203974 
L 350.724947 192.541507 
L 365.604795 157.44133 
L 365.418054 125.825862 
L 359.476019 120.394028 
L 372.174614 111.592758 
L 426.13999 158.04152 
L 421.903182 163.054164 
L 417.185498 173.000687 
L 435.166773 189.736865 
L 435.859049 207.203974 
L 316.692177 186.673942 
L 316.415206 173.159966 
L 334.016684 138.017205 
L 372.174614 111.592758 
L 426.13999 158.04152 
L 430.987131 152.660015 
L 448.544963 151.603056 
L 461.8 151.232394 
M 461.8 241.718287 
L 458.909619 242.305801 
L 455.799689 218.275291 
L 455.833285 211.062634 
L 435.859049 207.203974 
L 316.692177 186.673942 
L 316.415206 173.159966 
L 334.016684 138.017205 
L 372.174614 111.592758 
L 426.13999 158.04152 
L 430.987131 152.660015 
L 448.544963 151.603056 
L 461.8 151.232394 
M 461.8 241.718287 
L 458.909619 242.305801 
L 455.799689 218.275291 
L 455.833285 211.062634 
L 435.859049 207.203974 
L 316.692177 186.673942 
L 316.415206 173.159966 
L 334.016684 138.017205 
L 372.174614 111.592758 
L 426.13999 158.04152 
L 430.987131 152.660015 
L 448.544963 151.603056 
L 461.8 151.232394 
M 461.8 241.718287 
L 458.909619 242.305801 
L 455.799689 218.275291 
L 455.833285 211.062634 
L 435.859049 207.203974 
L 316.692177 186.673942 
L 316.415206 173.159966 
L 334.016684 138.017205 
L 372.174614 111.592758 
L 372.174614 111.592758 
" clip-path="url(#pd9a09156e2)" style="fill: none; stroke: #8f8f8f; stroke-width: 0.2; stroke-linecap: square"/>
   </g>
   <g id="line2d_5">
    <path d="M 306.742854 81.865033 
L 333.688529 100.40218 
L 342.964321 107.58401 
L 359.476019 120.394028 
L 334.016684 138.017205 
L 324.625921 114.94824 
L 290.350579 115.541513 
L 286.840912 154.238002 
L 269.254086 142.987237 
L 263.157138 139.069578 
L 259.117614 125.702992 
L 270.994429 123.270268 
L 271.613037 115.88961 
L 274.154475 86.058571 
L 276.298909 84.867928 
L 284.351334 84.065072 
L 306.742854 81.865033 
" clip-path="url(#pd9a09156e2)" style="fill: none; stroke: #8f8f8f; stroke-width: 0.2; stroke-linecap: square"/>
   </g>
   <g id="line2d_6">
    <path d="M 324.625921 114.94824 
L 334.016684 138.017205 
L 327.043215 151.935998 
L 322.224766 161.532686 
L 320.580643 164.879421 
L 316.415206 173.159966 
L 286.840912 154.238002 
L 290.350579 115.541513 
L 324.625921 114.94824 
" clip-path="url(#pd9a09156e2)" style="fill: none; stroke: #8f8f8f; stroke-width: 0.2; stroke-linecap: square"/>
   </g>
   <g id="line2d_7">
    <path d="M -1 77.583852 
L 16.336568 67.742952 
L 30.591877 58.340068 
L 35.062805 57.091871 
L 39.837842 56.018753 
L 48.7096 52.309068 
L 58.498124 57.755466 
L 62.558295 57.740964 
L 67.880213 57.852022 
L 69.047982 59.343559 
L 69.528389 59.728737 
L 70.786627 60.061159 
L 72.330748 61.661916 
L 73.74619 61.928523 
L 74.086687 62.68608 
L 75.112299 63.684137 
L 74.305087 64.021538 
L 73.456359 64.547471 
L 73.686729 65.721392 
L 74.573108 66.245433 
L 74.916599 66.866457 
L 76.774977 67.865129 
L 76.959194 70.043961 
L 78.59403 70.127133 
L 77.446285 72.206634 
L 76.264863 71.130627 
L 75.480854 72.126418 
L 77.828334 74.666311 
L 77.423726 75.602197 
L 81.204787 79.03715 
L 82.436671 80.640057 
L 83.90257 81.060361 
L 83.070627 83.641457 
L 84.19765 83.61361 
L 85.647373 88.637747 
L 86.870623 88.758502 
L 89.572633 95.187032 
L 92.610023 94.669601 
L 96.662271 97.110014 
L 98.626892 94.26451 
L 97.051635 89.518948 
L 105.282469 88.500843 
L 112.880474 92.25296 
L 113.954638 101.820019 
L 117.337011 99.898572 
L 116.645461 97.727716 
L 118.578239 96.904526 
L 122.804447 101.230963 
L 133.536933 101.951688 
L 139.090786 98.478495 
L 139.473079 95.122487 
L 145.808338 93.779688 
L 149.595521 95.82093 
L 150.692126 97.071478 
L 149.242779 99.002306 
L 152.383317 103.725582 
L 160.65864 107.064002 
L 160.673008 109.522615 
L 168.783325 110.765601 
L 173.699712 108.418424 
L 177.031697 110.61793 
L 179.63583 112.126365 
L 183.28356 111.220826 
L 184.972856 109.304947 
L 186.052249 109.418759 
L 188.396158 113.060618 
L 189.928557 112.754443 
L 191.278351 113.238638 
L 191.468004 113.829345 
L 191.946218 113.668836 
L 192.147954 113.991279 
L 194.439198 114.54369 
L 195.669446 116.431667 
L 197.449115 117.510985 
L 198.816007 117.505809 
L 199.168372 117.891626 
L 200.406092 117.997535 
L 201.373239 118.798525 
L 202.721741 119.188041 
L 203.39913 118.781867 
L 204.10633 119.115773 
L 204.152876 118.801353 
L 206.106352 118.931388 
L 206.269384 120.197776 
L 208.387511 119.10044 
L 208.733576 120.057703 
L 209.150709 120.414763 
L 206.070425 121.745982 
L 204.570548 124.790464 
L 201.980911 128.604307 
L 199.931819 133.614466 
L 198.84625 138.440445 
L 197.471547 140.776254 
L 195.719735 142.032963 
L 193.21489 142.1903 
L 192.45157 142.895711 
L 192.156723 144.972188 
L 190.965728 145.833499 
L 189.389806 145.516073 
L 188.423516 145.713799 
L 187.747716 146.746629 
L 187.704007 150.067682 
L 181.459682 157.72691 
L 177.458861 160.376132 
L 176.662522 162.935842 
L 174.608391 166.278389 
L 174.159185 168.083384 
L 174.670677 170.902148 
L 174.426936 173.263681 
L 174.594024 174.736495 
L 173.942449 177.249536 
L 172.336089 178.377516 
L 171.43568 179.411376 
L 171.281092 183.10455 
L 168.849189 189.811567 
L 168.434029 192.253596 
L 169.518498 198.123591 
L 168.652208 200.063084 
L 165.462099 201.757382 
L 165.126368 202.972169 
L 165.077527 204.315089 
L 163.81006 209.596305 
L 163.021194 212.244354 
L 161.29706 213.51927 
L 160.149098 216.361228 
L 157.494875 220.245196 
L 157.737468 221.57907 
L 157.526564 222.485252 
L 156.712393 223.162913 
L 155.675506 224.400747 
L 155.818912 226.81418 
L 154.996364 228.998297 
L 155.118421 229.190144 
L 155.236029 230.173895 
L 155.389918 232.018054 
L 155.467929 232.755811 
L 155.260159 233.184751 
L 155.298817 233.615073 
L 155.174896 233.737263 
L 155.090314 234.166892 
L 155.129661 234.474332 
L 154.964985 234.534845 
L 155.044718 234.965402 
L 155.297101 235.384642 
L 155.754154 235.952473 
L 156.638675 237.37052 
L 157.885734 238.544559 
L 158.302144 239.111994 
L 159.241346 242.053776 
L 159.337565 242.5581 
L 158.905562 243.391592 
L 158.256523 244.80153 
L 157.669694 245.277766 
L 156.543233 246.586714 
L 155.935048 247.898337 
L 155.922357 248.709351 
L 155.923572 251.486719 
L 155.888523 251.867494 
L 155.423905 252.442518 
L 154.165605 253.443107 
L 153.883326 253.797863 
L 153.737189 254.829319 
L 153.854546 255.911471 
L 154.213133 256.638623 
L 154.332373 257.413545 
L 154.250663 258.715761 
L 153.99098 259.402476 
L 152.836885 262.025661 
L 152.598649 263.216332 
L 151.509275 265.851989 
L 151.617313 267.081637 
L 151.795176 267.709512 
L 152.819316 270.50551 
L 153.159572 271.662784 
L 152.998739 272.300911 
L 152.654382 273.20832 
L 152.254724 273.672936 
L 151.116577 274.538545 
L 149.940542 276.104248 
L 150.053667 276.522839 
L 150.287211 277.376448 
L 148.886073 284.263642 
L 141.840062 291.041606 
L 139.132507 308.830272 
L 135.611417 316.25654 
L 110.697591 316.921805 
L 112.354489 319.298463 
L 111.827711 320.493257 
L 110.93684 321.32118 
L 107.849075 321.609343 
L 108.50657 322.748794 
L 107.792416 324.584894 
L 106.69085 325.166044 
L 103.986648 325.705659 
L 102.972373 325.60747 
L 102.000151 326.285894 
L 103.023543 328.344817 
L 102.507679 330.23263 
L 103.298002 331.728947 
L 102.138582 332.233095 
L 101.875281 332.912085 
L 101.226968 332.944034 
L 100.76203 333.440536 
L 100.765722 333.854477 
L 100.488342 334.200947 
L 99.173395 334.844441 
L 99.186197 335.019812 
L 96.88085 336.802881 
L 96.225939 337.976217 
L 96.335089 338.58536 
L 95.780484 338.67313 
L 95.396612 339.296483 
L 93.572774 340.266639 
L 93.824892 341.019385 
L 95.061819 340.997322 
L 94.282432 342.214054 
L 93.476887 342.486709 
L 93.417151 342.888104 
L 92.358671 343.455602 
L 92.148394 343.943813 
L 91.636575 344.11454 
L 91.235351 344.746623 
L 90.69883 344.64812 
L 90.547683 345.073683 
L 88.217682 345.96957 
L 88.023827 346.234565 
L 87.132384 346.351721 
L 86.748637 346.6 
M 15.018532 346.6 
L 6.339274 302.176976 
L -1 295.056391 
M -1 206.889563 
L 4.850561 205.809835 
L -1 198.670772 
L -1 198.670772 
" clip-path="url(#pd9a09156e2)" style="fill: none; stroke: #8f8f8f; stroke-width: 0.2; stroke-linecap: square"/>
   </g>
   <g id="line2d_8">
    <path d="M 115.97749 209.879624 
L 119.989315 204.976749 
L 129.096927 193.740851 
L 132.316996 193.737771 
L 133.981515 195.220908 
L 135.576062 197.010176 
L 137.259675 199.106994 
L 138.902719 200.759275 
L 140.957528 202.141342 
L 143.176118 203.011965 
L 147.026427 194.745735 
L 163.146772 195.656743 
L 164.98351 195.766934 
L 169.518498 198.123591 
L 168.652208 200.063084 
L 165.462099 201.757382 
L 165.126368 202.972169 
L 165.077527 204.315089 
L 163.81006 209.596305 
L 163.021194 212.244354 
L 138.900744 211.955233 
L 115.97749 209.879624 
" clip-path="url(#pd9a09156e2)" style="fill: none; stroke: #8f8f8f; stroke-width: 0.2; stroke-linecap: square"/>
   </g>
   <g id="line2d_9">
    <path d="M 138.900744 211.955233 
L 163.021194 212.244354 
L 161.29706 213.51927 
L 160.149098 216.361228 
L 158.487593 218.847105 
L 157.494875 220.245196 
L 157.737468 221.57907 
L 157.526564 222.485252 
L 156.712393 223.162913 
L 155.675506 224.400747 
L 155.818912 226.81418 
L 154.996364 228.998297 
L 155.118421 229.190144 
L 155.157735 229.49758 
L 155.236029 230.173895 
L 155.269829 231.464391 
L 155.389918 232.018054 
L 155.429265 232.325491 
L 155.5114 232.32595 
L 155.510371 232.510275 
L 155.427202 232.69414 
L 155.467929 232.755811 
L 155.260159 233.184751 
L 155.298817 233.615073 
L 155.174896 233.737263 
L 155.091355 233.982566 
L 155.090314 234.166892 
L 155.129661 234.474332 
L 154.964985 234.534845 
L 154.963244 234.842054 
L 155.004676 234.780845 
L 155.044718 234.965402 
L 155.166589 235.211865 
L 155.208367 235.089213 
L 155.297101 235.384642 
L 155.754154 235.952473 
L 156.638675 237.37052 
L 157.885734 238.544559 
L 158.302144 239.111994 
L 158.610232 239.973784 
L 158.959221 240.897211 
L 159.241346 242.053776 
L 159.337565 242.5581 
L 159.155039 242.864416 
L 158.905562 243.391592 
L 158.56409 244.200939 
L 158.256523 244.80153 
L 157.669694 245.277766 
L 156.543233 246.586714 
L 156.29339 247.113792 
L 156.043572 247.628571 
L 155.935048 247.898337 
L 155.957794 248.254847 
L 155.922357 248.709351 
L 155.973062 250.475177 
L 155.923572 251.486719 
L 155.888523 251.867494 
L 155.423905 252.442518 
L 154.521669 253.150207 
L 154.165605 253.443107 
L 153.883326 253.797863 
L 153.780627 254.448601 
L 153.737189 254.829319 
L 153.783138 255.431768 
L 153.854546 255.911471 
L 154.213133 256.638623 
L 154.332373 257.413545 
L 154.303555 258.283202 
L 154.250663 258.715761 
L 153.99098 259.402476 
L 153.331108 260.787342 
L 152.836885 262.025661 
L 152.598649 263.216332 
L 151.786378 265.104018 
L 151.509275 265.851989 
L 151.617313 267.081637 
L 151.795176 267.709512 
L 152.372744 269.18781 
L 152.819316 270.50551 
L 153.005301 271.194853 
L 153.159572 271.662784 
L 152.998739 272.300911 
L 152.654382 273.20832 
L 152.254724 273.672936 
L 151.116577 274.538545 
L 150.191576 275.651117 
L 150.107928 275.798065 
L 149.940542 276.104248 
L 150.046495 276.35073 
L 150.053667 276.522839 
L 150.287211 277.376448 
L 148.886073 284.263642 
L 141.840062 291.041606 
L 139.132507 308.830272 
L 135.611417 316.25654 
L 110.697591 316.921805 
L 112.354489 319.298463 
L 111.827711 320.493257 
L 110.93684 321.32118 
L 107.849075 321.609343 
L 108.50657 322.748794 
L 107.792416 324.584894 
L 106.69085 325.166044 
L 103.986648 325.705659 
L 73.952583 320.172832 
L 52.000895 295.142746 
L 53.079393 289.019025 
L 53.821963 285.148781 
L 59.853037 250.233861 
L 73.00066 253.720791 
L 91.990089 259.015417 
L 92.242319 242.938532 
L 92.300188 239.252207 
L 92.308762 238.706087 
L 95.846575 234.390677 
L 115.076392 211.063527 
L 115.97749 209.879624 
L 138.900744 211.955233 
" clip-path="url(#pd9a09156e2)" style="fill: none; stroke: #8f8f8f; stroke-width: 0.2; stroke-linecap: square"/>
   </g>
   <g id="line2d_10">
    <path d="M 149.595521 95.82093 
L 145.808338 93.779688 
L 139.473079 95.122487 
L 139.090786 98.478495 
L 133.536933 101.951688 
L 122.804447 101.230963 
L 118.578239 96.904526 
L 116.645461 97.727716 
L 117.337011 99.898572 
L 113.954638 101.820019 
L 112.880474 92.25296 
L 105.282469 88.500843 
L 97.051635 89.518948 
L 98.626892 94.26451 
L 96.662271 97.110014 
L 92.610023 94.669601 
L 89.572633 95.187032 
L 86.870623 88.758502 
L 85.647373 88.637747 
L 84.19765 83.61361 
L 83.070627 83.641457 
L 83.90257 81.060361 
L 82.436671 80.640057 
L 81.204787 79.03715 
L 77.423726 75.602197 
L 77.828334 74.666311 
L 75.480854 72.126418 
L 76.264863 71.130627 
L 77.446285 72.206634 
L 78.59403 70.127133 
L 76.959194 70.043961 
L 76.774977 67.865129 
L 74.916599 66.866457 
L 74.573108 66.245433 
L 73.686729 65.721392 
L 73.456359 64.547471 
L 74.305087 64.021538 
L 75.112299 63.684137 
L 74.086687 62.68608 
L 73.74619 61.928523 
L 72.330748 61.661916 
L 70.786627 60.061159 
L 69.528389 59.728737 
L 69.047982 59.343559 
L 34.221921 59.562333 
L -1 77.856776 
M -1 198.670772 
L 4.850561 205.809835 
L -1 206.889563 
M -1 295.056391 
L 6.339274 302.176976 
L 15.018532 346.6 
M 86.748637 346.6 
L 87.132384 346.351721 
L 88.023827 346.234565 
L 88.217682 345.96957 
L 90.547683 345.073683 
L 90.69883 344.64812 
L 91.235351 344.746623 
L 91.636575 344.11454 
L 92.148394 343.943813 
L 92.358671 343.455602 
L 92.587441 343.244295 
L 93.417151 342.888104 
L 93.476887 342.486709 
L 94.282432 342.214054 
L 95.061819 340.997322 
L 93.824892 341.019385 
L 93.572774 340.266639 
L 95.396612 339.296483 
L 95.780484 338.67313 
L 96.335089 338.58536 
L 96.225939 337.976217 
L 96.88085 336.802881 
L 99.186197 335.019812 
L 99.173395 334.844441 
L 100.488342 334.200947 
L 100.765722 333.854477 
L 100.76203 333.440536 
L 101.226968 332.944034 
L 101.875281 332.912085 
L 102.138582 332.233095 
L 103.298002 331.728947 
L 102.507679 330.23263 
L 103.023543 328.344817 
L 102.000151 326.285894 
L 102.972373 325.60747 
L 103.986648 325.705659 
L 73.952583 320.172832 
L 52.000895 295.142746 
L 59.853037 250.233861 
L 73.00066 253.720791 
L 91.990089 259.015417 
L 92.308762 238.706087 
L 129.096927 193.740851 
L 132.316996 193.737771 
L 133.981515 195.220908 
L 135.576062 197.010176 
L 137.259675 199.106994 
L 138.902719 200.759275 
L 140.957528 202.141342 
L 143.176118 203.011965 
L 147.026427 194.745735 
L 164.98351 195.766934 
L 169.518498 198.123591 
L 168.434029 192.253596 
L 168.849189 189.811567 
L 171.281092 183.10455 
L 171.43568 179.411376 
L 172.336089 178.377516 
L 173.942449 177.249536 
L 174.594024 174.736495 
L 174.426936 173.263681 
L 174.670677 170.902148 
L 174.159185 168.083384 
L 174.608391 166.278389 
L 176.662522 162.935842 
L 177.458861 160.376132 
L 181.459682 157.72691 
L 187.704007 150.067682 
L 187.747716 146.746629 
L 188.423516 145.713799 
L 189.389806 145.516073 
L 190.965728 145.833499 
L 192.156723 144.972188 
L 192.45157 142.895711 
L 193.21489 142.1903 
L 195.719735 142.032963 
L 197.471547 140.776254 
L 198.84625 138.440445 
L 199.931819 133.614466 
L 201.980911 128.604307 
L 204.570548 124.790464 
L 206.070425 121.745982 
L 209.150709 120.414763 
L 208.733576 120.057703 
L 208.387511 119.10044 
L 206.269384 120.197776 
L 206.106352 118.931388 
L 204.152876 118.801353 
L 204.10633 119.115773 
L 203.39913 118.781867 
L 202.721741 119.188041 
L 201.373239 118.798525 
L 200.406092 117.997535 
L 199.168372 117.891626 
L 198.816007 117.505809 
L 197.449115 117.510985 
L 195.669446 116.431667 
L 194.439198 114.54369 
L 192.147954 113.991279 
L 191.946218 113.668836 
L 191.468004 113.829345 
L 191.278351 113.238638 
L 189.928557 112.754443 
L 188.396158 113.060618 
L 186.052249 109.418759 
L 184.972856 109.304947 
L 183.28356 111.220826 
L 179.63583 112.126365 
L 177.031697 110.61793 
L 173.699712 108.418424 
L 168.783325 110.765601 
L 160.673008 109.522615 
L 160.65864 107.064002 
L 152.383317 103.725582 
L 149.242779 99.002306 
L 150.692126 97.071478 
L 149.595521 95.82093 
L 149.595521 95.82093 
" clip-path="url(#pd9a09156e2)" style="fill: none; stroke: #8f8f8f; stroke-width: 0.2; stroke-linecap: square"/>
   </g>
   <g id="line2d_11">
    <path d="M 187.560472 227.015562 
L 154.996364 228.998297 
L 155.818912 226.81418 
L 155.675506 224.400747 
L 156.712393 223.162913 
L 157.526564 222.485252 
L 157.737468 221.57907 
L 157.494875 220.245196 
L 158.487593 218.847105 
L 160.149098 216.361228 
L 161.29706 213.51927 
L 163.021194 212.244354 
L 163.81006 209.596305 
L 165.077527 204.315089 
L 165.126368 202.972169 
L 165.462099 201.757382 
L 168.652208 200.063084 
L 169.518498 198.123591 
L 168.434029 192.253596 
L 168.849189 189.811567 
L 171.281092 183.10455 
L 171.43568 179.411376 
L 172.336089 178.377516 
L 173.942449 177.249536 
L 174.594024 174.736495 
L 174.426936 173.263681 
L 174.670677 170.902148 
L 174.159185 168.083384 
L 174.159185 168.083384 
L 174.608391 166.278389 
L 176.662522 162.935842 
L 177.458861 160.376132 
L 181.459682 157.72691 
L 187.704007 150.067682 
L 187.747716 146.746629 
L 188.423516 145.713799 
L 189.389806 145.516073 
L 190.965728 145.833499 
L 192.156723 144.972188 
L 192.45157 142.895711 
L 193.21489 142.1903 
L 194.545893 142.085768 
L 195.719735 142.032963 
L 197.471547 140.776254 
L 198.84625 138.440445 
L 199.931819 133.614466 
L 201.980911 128.604307 
L 204.570548 124.790464 
L 206.070425 121.745982 
L 209.150709 120.414763 
L 208.733576 120.057703 
L 213.820215 120.347294 
L 225.506579 126.570445 
L 225.36466 140.905362 
L 187.560472 227.015562 
" clip-path="url(#pd9a09156e2)" style="fill: none; stroke: #8f8f8f; stroke-width: 0.2; stroke-linecap: square"/>
   </g>
   <g id="line2d_12">
    <path d="M 262.644678 218.402842 
L 281.083984 218.16075 
L 317.323636 217.525438 
L 317.809033 241.279843 
L 318.01805 251.519246 
L 318.16011 258.482199 
L 318.243649 262.578115 
L 334.098446 294.985663 
L 350.6115 318.805521 
L 355.614956 326.055726 
L 369.436092 346.145705 
L 324.122088 341.070545 
L 314.840415 339.90622 
L 267.430048 334.975118 
L 266.357998 324.846176 
L 253.778238 310.08018 
L 249.170038 297.489585 
L 242.434076 294.518962 
L 246.383017 290.501802 
L 262.644678 218.402842 
L 281.083984 218.16075 
L 317.323636 217.525438 
L 317.809033 241.279843 
L 318.01805 251.519246 
L 318.16011 258.482199 
L 318.243649 262.578115 
L 334.098446 294.985663 
L 350.6115 318.805521 
L 355.614956 326.055726 
L 369.436092 346.145705 
L 324.122088 341.070545 
L 314.840415 339.90622 
L 267.430048 334.975118 
L 271.429663 330.315436 
L 277.49391 328.015623 
L 280.330866 318.926848 
L 282.378754 318.146237 
L 288.578792 315.659509 
L 296.884452 312.626209 
L 299.590401 303.594926 
L 301.137526 298.104989 
L 302.509873 293.146753 
L 303.578445 288.879377 
L 303.248926 271.812037 
L 292.304207 270.569873 
L 273.677365 268.587804 
L 272.32159 249.656103 
L 318.01805 251.519246 
L 341.521667 250.005116 
L 347.49729 260.034956 
L 353.057794 259.551566 
L 353.011644 279.054551 
L 334.098446 294.985663 
L 318.243649 262.578115 
L 318.16011 258.482199 
L 262.644678 218.402842 
" clip-path="url(#pd9a09156e2)" style="fill: none; stroke: #8f8f8f; stroke-width: 0.2; stroke-linecap: square"/>
   </g>
   <g id="line2d_13">
    <path d="M 154.303555 258.283202 
L 154.332373 257.413545 
L 154.213133 256.638623 
L 153.854546 255.911471 
L 153.783138 255.431768 
L 153.737189 254.829319 
L 153.780627 254.448601 
L 153.883326 253.797863 
L 154.165605 253.443107 
L 154.521669 253.150207 
L 155.423905 252.442518 
L 155.888523 251.867494 
L 155.923572 251.486719 
L 155.973062 250.475177 
L 155.922357 248.709351 
L 155.957794 248.254847 
L 155.935048 247.898337 
L 156.043572 247.628571 
L 156.29339 247.113792 
L 156.543233 246.586714 
L 157.669694 245.277766 
L 158.256523 244.80153 
L 158.56409 244.200939 
L 158.905562 243.391592 
L 159.155039 242.864416 
L 159.337565 242.5581 
L 159.241346 242.053776 
L 158.959221 240.897211 
L 158.610232 239.973784 
L 158.302144 239.111994 
L 157.885734 238.544559 
L 156.638675 237.37052 
L 155.754154 235.952473 
L 155.297101 235.384642 
L 155.208367 235.089213 
L 155.166589 235.211865 
L 155.044718 234.965402 
L 155.004676 234.780845 
L 154.963244 234.842054 
L 154.964985 234.534845 
L 155.129661 234.474332 
L 155.090314 234.166892 
L 155.091355 233.982566 
L 155.174896 233.737263 
L 155.298817 233.615073 
L 155.260159 233.184751 
L 155.467929 232.755811 
L 155.427202 232.69414 
L 155.510371 232.510275 
L 155.5114 232.32595 
L 155.429265 232.325491 
L 155.389918 232.018054 
L 155.269829 231.464391 
L 155.236029 230.173895 
L 155.157735 229.49758 
L 155.118421 229.190144 
L 154.996364 228.998297 
L 187.560472 227.015562 
L 173.672916 265.219592 
L 207.845367 220.792354 
L 206.62633 243.345339 
L 206.310404 248.945109 
L 191.794974 256.324513 
L 173.672916 265.219592 
L 187.560472 227.015562 
L 169.570795 276.5136 
L 154.303555 258.283202 
L 173.672916 265.219592 
L 216.634221 218.358645 
L 246.069274 218.300666 
L 262.644678 218.402842 
L 246.383017 290.501802 
L 242.434076 294.518962 
L 217.272078 294.419425 
L 212.249165 294.193406 
L 206.130333 277.825076 
L 204.678198 275.950939 
L 197.886199 273.711377 
L 172.454214 286.409804 
L 169.896407 285.380251 
L 169.570795 276.5136 
L 154.303555 258.283202 
L 173.672916 265.219592 
L 187.560472 227.015562 
L 207.845367 220.792354 
L 206.310404 248.945109 
L 204.968119 270.822703 
L 204.678198 275.950939 
L 197.886199 273.711377 
L 172.454214 286.409804 
L 169.896407 285.380251 
L 169.570795 276.5136 
L 173.672916 265.219592 
L 191.794974 256.324513 
L 154.303555 258.283202 
" clip-path="url(#pd9a09156e2)" style="fill: none; stroke: #8f8f8f; stroke-width: 0.2; stroke-linecap: square"/>
   </g>
   <g id="line2d_14">
    <path d="M 274.154475 86.058571 
L 271.613037 115.88961 
L 270.994429 123.270268 
L 259.117614 125.702992 
L 242.618706 129.109502 
L 225.506579 126.570445 
L 213.820215 120.347294 
L 218.369796 115.823112 
L 220.407909 106.974296 
L 221.892927 87.446014 
L 246.945435 88.013624 
L 269.70843 88.541988 
L 274.154475 86.058571 
" clip-path="url(#pd9a09156e2)" style="fill: none; stroke: #8f8f8f; stroke-width: 0.2; stroke-linecap: square"/>
   </g>
   <g id="line2d_15">
    <path d="M 217.547347 87.364826 
L 221.892927 87.446014 
L 220.407909 106.974296 
L 218.369796 115.823112 
L 213.820215 120.347294 
L 208.733576 120.057703 
L 208.387511 119.10044 
L 206.269384 120.197776 
L 206.106352 118.931388 
L 204.152876 118.801353 
L 204.10633 119.115773 
L 203.39913 118.781867 
L 202.721741 119.188041 
L 201.373239 118.798525 
L 200.406092 117.997535 
L 199.168372 117.891626 
L 198.816007 117.505809 
L 197.449115 117.510985 
L 195.669446 116.431667 
L 208.400853 106.168886 
L 217.547347 87.364826 
" clip-path="url(#pd9a09156e2)" style="fill: none; stroke: #8f8f8f; stroke-width: 0.2; stroke-linecap: square"/>
   </g>
   <g id="line2d_16">
    <path d="M 359.476019 120.394028 
L 365.418054 125.825862 
L 365.604795 157.44133 
L 361.538938 166.981073 
L 358.972533 173.096229 
L 350.724947 192.541507 
L 347.514865 200.136374 
L 319.011042 216.534688 
L 317.323636 217.525438 
L 281.083984 218.16075 
L 262.644678 218.402842 
L 246.069274 218.300666 
L 216.634221 218.358645 
L 207.845367 220.792354 
L 187.560472 227.015562 
L 225.36466 140.905362 
L 255.168517 163.666181 
L 260.076553 162.65663 
L 266.53646 161.385109 
L 329.014097 141.478721 
L 334.016684 138.017205 
L 359.476019 120.394028 
" clip-path="url(#pd9a09156e2)" style="fill: none; stroke: #8f8f8f; stroke-width: 0.2; stroke-linecap: square"/>
   </g>
   <g id="line2d_17">
    <path d="M 187.560472 227.015562 
L 154.996364 228.998297 
L 155.818912 226.81418 
L 155.675506 224.400747 
L 156.712393 223.162913 
L 157.526564 222.485252 
L 157.737468 221.57907 
L 157.494875 220.245196 
L 158.487593 218.847105 
L 160.149098 216.361228 
L 161.29706 213.51927 
L 163.021194 212.244354 
L 163.81006 209.596305 
L 165.077527 204.315089 
L 165.126368 202.972169 
L 165.462099 201.757382 
L 168.652208 200.063084 
L 169.518498 198.123591 
L 168.434029 192.253596 
L 168.849189 189.811567 
L 171.281092 183.10455 
L 171.43568 179.411376 
L 172.336089 178.377516 
L 173.942449 177.249536 
L 174.594024 174.736495 
L 174.426936 173.263681 
L 174.670677 170.902148 
L 174.159185 168.083384 
L 174.608391 166.278389 
L 176.662522 162.935842 
L 177.458861 160.376132 
L 181.459682 157.72691 
L 187.704007 150.067682 
L 187.747716 146.746629 
L 188.423516 145.713799 
L 189.389806 145.516073 
L 190.965728 145.833499 
L 192.156723 144.972188 
L 192.45157 142.895711 
L 193.21489 142.1903 
L 194.545893 142.085768 
L 195.719735 142.032963 
L 197.471547 140.776254 
L 198.84625 138.440445 
L 199.931819 133.614466 
L 201.980911 128.604307 
L 204.570548 124.790464 
L 206.070425 121.745982 
L 209.150709 120.414763 
L 208.733576 120.057703 
L 213.820215 120.347294 
L 225.506579 126.570445 
L 225.36466 140.905362 
L 187.560472 227.015562 
" clip-path="url(#pd9a09156e2)" style="fill: none; stroke: #8f8f8f; stroke-width: 0.2; stroke-linecap: square"/>
   </g>
   <g id="line2d_18">
    <path d="M 306.742854 81.865033 
L 333.688529 100.40218 
L 342.964321 107.58401 
L 359.476019 120.394028 
L 334.016684 138.017205 
L 329.014097 141.478721 
L 266.53646 161.385109 
L 260.076553 162.65663 
L 255.168517 163.666181 
L 225.36466 140.905362 
L 225.506579 126.570445 
L 226.031064 116.601932 
L 220.407909 106.974296 
L 221.892927 87.446014 
L 246.945435 88.013624 
L 269.70843 88.541988 
L 274.154475 86.058571 
L 276.298909 84.867928 
L 284.351334 84.065072 
L 306.742854 81.865033 
" clip-path="url(#pd9a09156e2)" style="fill: none; stroke: #8f8f8f; stroke-width: 0.2; stroke-linecap: square"/>
   </g>
   <g id="line2d_19">
    <path d="M 324.625921 114.94824 
L 334.016684 138.017205 
L 327.043215 151.935998 
L 322.224766 161.532686 
L 320.580643 164.879421 
L 316.415206 173.159966 
L 316.692177 186.673942 
L 317.323636 217.525438 
L 281.083984 218.16075 
L 286.840912 154.238002 
L 290.350579 115.541513 
L 324.625921 114.94824 
" clip-path="url(#pd9a09156e2)" style="fill: none; stroke: #8f8f8f; stroke-width: 0.2; stroke-linecap: square"/>
   </g>
   <g id="line2d_20">
    <path d="M 208.733576 120.057703 
L 213.820215 120.347294 
L 225.506579 126.570445 
L 242.618706 129.109502 
L 259.117614 125.702992 
L 263.157138 139.069578 
L 269.254086 142.987237 
L 286.840912 154.238002 
L 281.083984 218.16075 
L 262.644678 218.402842 
L 246.069274 218.300666 
L 216.634221 218.358645 
L 207.845367 220.792354 
L 187.560472 227.015562 
L 154.996364 228.998297 
L 155.818912 226.81418 
L 155.675506 224.400747 
L 156.712393 223.162913 
L 157.526564 222.485252 
L 157.737468 221.57907 
L 157.494875 220.245196 
L 158.487593 218.847105 
L 160.149098 216.361228 
L 161.29706 213.51927 
L 163.021194 212.244354 
L 163.81006 209.596305 
L 165.077527 204.315089 
L 165.126368 202.972169 
L 165.462099 201.757382 
L 168.652208 200.063084 
L 169.518498 198.123591 
L 168.434029 192.253596 
L 168.849189 189.811567 
L 171.281092 183.10455 
L 171.43568 179.411376 
L 172.336089 178.377516 
L 173.942449 177.249536 
L 174.594024 174.736495 
L 174.426936 173.263681 
L 174.670677 170.902148 
L 174.159185 168.083384 
L 174.608391 166.278389 
L 176.662522 162.935842 
L 177.458861 160.376132 
L 181.459682 157.72691 
L 187.704007 150.067682 
L 187.747716 146.746629 
L 188.423516 145.713799 
L 189.389806 145.516073 
L 190.965728 145.833499 
L 192.156723 144.972188 
L 192.45157 142.895711 
L 193.21489 142.1903 
L 194.545893 142.085768 
L 195.719735 142.032963 
L 197.471547 140.776254 
L 198.84625 138.440445 
L 199.931819 133.614466 
L 201.980911 128.604307 
L 204.570548 124.790464 
L 206.070425 121.745982 
L 209.150709 120.414763 
L 208.733576 120.057703 
L 208.733576 120.057703 
" clip-path="url(#pd9a09156e2)" style="fill: none; stroke: #ffc380; stroke-width: 0.5; stroke-linecap: square"/>
   </g>
   <g id="line2d_21">
    <path d="M 286.840912 154.238002 
L 316.415206 173.159966 
L 316.692177 186.673942 
L 317.323636 217.525438 
L 281.083984 218.16075 
L 286.840912 154.238002 
L 286.840912 154.238002 
" clip-path="url(#pd9a09156e2)" style="fill: none; stroke: #ffc380; stroke-width: 0.5; stroke-linecap: square"/>
   </g>
   <g id="text_1">
    <!-- EDMMFUE -->
    <g style="opacity: 0.5" transform="translate(373.133652 238.60687)scale(0.0579 -0.0579)">
     <defs>
      <path id="DejaVuSans-45" d="M 628 4666 
L 3578 4666 
L 3578 4134 
L 1259 4134 
L 1259 2753 
L 3481 2753 
L 3481 2222 
L 1259 2222 
L 1259 531 
L 3634 531 
L 3634 0 
L 628 0 
L 628 4666 
z
" transform="scale(0.015625)"/>
      <path id="DejaVuSans-44" d="M 1259 4147 
L 1259 519 
L 2022 519 
Q 2988 519 3436 956 
Q 3884 1394 3884 2338 
Q 3884 3275 3436 3711 
Q 2988 4147 2022 4147 
L 1259 4147 
z
M 628 4666 
L 1925 4666 
Q 3281 4666 3915 4102 
Q 4550 3538 4550 2338 
Q 4550 1131 3912 565 
Q 3275 0 1925 0 
L 628 0 
L 628 4666 
z
" transform="scale(0.015625)"/>
      <path id="DejaVuSans-4d" d="M 628 4666 
L 1569 4666 
L 2759 1491 
L 3956 4666 
L 4897 4666 
L 4897 0 
L 4281 0 
L 4281 4097 
L 3078 897 
L 2444 897 
L 1241 4097 
L 1241 0 
L 628 0 
L 628 4666 
z
" transform="scale(0.015625)"/>
      <path id="DejaVuSans-46" d="M 628 4666 
L 3309 4666 
L 3309 4134 
L 1259 4134 
L 1259 2759 
L 3109 2759 
L 3109 2228 
L 1259 2228 
L 1259 0 
L 628 0 
L 628 4666 
z
" transform="scale(0.015625)"/>
      <path id="DejaVuSans-55" d="M 556 4666 
L 1191 4666 
L 1191 1831 
Q 1191 1081 1462 751 
Q 1734 422 2344 422 
Q 2950 422 3222 751 
Q 3494 1081 3494 1831 
L 3494 4666 
L 4128 4666 
L 4128 1753 
Q 4128 841 3676 375 
Q 3225 -91 2344 -91 
Q 1459 -91 1007 375 
Q 556 841 556 1753 
L 556 4666 
z
" transform="scale(0.015625)"/>
     </defs>
     <use xlink:href="#DejaVuSans-45"/>
     <use xlink:href="#DejaVuSans-44" x="63.183594"/>
     <use xlink:href="#DejaVuSans-4d" x="140.185547"/>
     <use xlink:href="#DejaVuSans-4d" x="226.464844"/>
     <use xlink:href="#DejaVuSans-46" x="312.744141"/>
     <use xlink:href="#DejaVuSans-55" x="370.263672"/>
     <use xlink:href="#DejaVuSans-45" x="443.457031"/>
    </g>
    <!-- 145 -->
    <g style="opacity: 0.5" transform="translate(382.275067 245.090403)scale(0.0579 -0.0579)">
     <defs>
      <path id="DejaVuSans-31" d="M 794 531 
L 1825 531 
L 1825 4091 
L 703 3866 
L 703 4441 
L 1819 4666 
L 2450 4666 
L 2450 531 
L 3481 531 
L 3481 0 
L 794 0 
L 794 531 
z
" transform="scale(0.015625)"/>
      <path id="DejaVuSans-34" d="M 2419 4116 
L 825 1625 
L 2419 1625 
L 2419 4116 
z
M 2253 4666 
L 3047 4666 
L 3047 1625 
L 3713 1625 
L 3713 1100 
L 3047 1100 
L 3047 0 
L 2419 0 
L 2419 1100 
L 313 1100 
L 313 1709 
L 2253 4666 
z
" transform="scale(0.015625)"/>
      <path id="DejaVuSans-35" d="M 691 4666 
L 3169 4666 
L 3169 4134 
L 1269 4134 
L 1269 2991 
Q 1406 3038 1543 3061 
Q 1681 3084 1819 3084 
Q 2600 3084 3056 2656 
Q 3513 2228 3513 1497 
Q 3513 744 3044 326 
Q 2575 -91 1722 -91 
Q 1428 -91 1123 -41 
Q 819 9 494 109 
L 494 744 
Q 775 591 1075 516 
Q 1375 441 1709 441 
Q 2250 441 2565 725 
Q 2881 1009 2881 1497 
Q 2881 1984 2565 2268 
Q 2250 2553 1709 2553 
Q 1456 2553 1204 2497 
Q 953 2441 691 2322 
L 691 4666 
z
" transform="scale(0.015625)"/>
     </defs>
     <use xlink:href="#DejaVuSans-31"/>
     <use xlink:href="#DejaVuSans-34" x="63.623047"/>
     <use xlink:href="#DejaVuSans-35" x="127.246094"/>
    </g>
    <!-- 105 -->
    <g style="opacity: 0.5" transform="translate(382.275067 251.573937)scale(0.0579 -0.0579)">
     <defs>
      <path id="DejaVuSans-30" d="M 2034 4250 
Q 1547 4250 1301 3770 
Q 1056 3291 1056 2328 
Q 1056 1369 1301 889 
Q 1547 409 2034 409 
Q 2525 409 2770 889 
Q 3016 1369 3016 2328 
Q 3016 3291 2770 3770 
Q 2525 4250 2034 4250 
z
M 2034 4750 
Q 2819 4750 3233 4129 
Q 3647 3509 3647 2328 
Q 3647 1150 3233 529 
Q 2819 -91 2034 -91 
Q 1250 -91 836 529 
Q 422 1150 422 2328 
Q 422 3509 836 4129 
Q 1250 4750 2034 4750 
z
" transform="scale(0.015625)"/>
     </defs>
     <use xlink:href="#DejaVuSans-31"/>
     <use xlink:href="#DejaVuSans-30" x="63.623047"/>
     <use xlink:href="#DejaVuSans-35" x="127.246094"/>
    </g>
   </g>
   <g id="text_2">
    <!-- EDMMNDG -->
    <g style="opacity: 0.5" transform="translate(405.769956 172.063424)scale(0.0579 -0.0579)">
     <defs>
      <path id="DejaVuSans-4e" d="M 628 4666 
L 1478 4666 
L 3547 763 
L 3547 4666 
L 4159 4666 
L 4159 0 
L 3309 0 
L 1241 3903 
L 1241 0 
L 628 0 
L 628 4666 
z
" transform="scale(0.015625)"/>
      <path id="DejaVuSans-47" d="M 3809 666 
L 3809 1919 
L 2778 1919 
L 2778 2438 
L 4434 2438 
L 4434 434 
Q 4069 175 3628 42 
Q 3188 -91 2688 -91 
Q 1594 -91 976 548 
Q 359 1188 359 2328 
Q 359 3472 976 4111 
Q 1594 4750 2688 4750 
Q 3144 4750 3555 4637 
Q 3966 4525 4313 4306 
L 4313 3634 
Q 3963 3931 3569 4081 
Q 3175 4231 2741 4231 
Q 1884 4231 1454 3753 
Q 1025 3275 1025 2328 
Q 1025 1384 1454 906 
Q 1884 428 2741 428 
Q 3075 428 3337 486 
Q 3600 544 3809 666 
z
" transform="scale(0.015625)"/>
     </defs>
     <use xlink:href="#DejaVuSans-45"/>
     <use xlink:href="#DejaVuSans-44" x="63.183594"/>
     <use xlink:href="#DejaVuSans-4d" x="140.185547"/>
     <use xlink:href="#DejaVuSans-4d" x="226.464844"/>
     <use xlink:href="#DejaVuSans-4e" x="312.744141"/>
     <use xlink:href="#DejaVuSans-44" x="387.548828"/>
     <use xlink:href="#DejaVuSans-47" x="464.550781"/>
    </g>
    <!-- 105 -->
    <g style="opacity: 0.5" transform="translate(415.936382 178.546958)scale(0.0579 -0.0579)">
     <use xlink:href="#DejaVuSans-31"/>
     <use xlink:href="#DejaVuSans-30" x="63.623047"/>
     <use xlink:href="#DejaVuSans-35" x="127.246094"/>
    </g>
    <!-- GND -->
    <g style="opacity: 0.5" transform="translate(414.824069 185.030491)scale(0.0579 -0.0579)">
     <use xlink:href="#DejaVuSans-47"/>
     <use xlink:href="#DejaVuSans-4e" x="77.490234"/>
     <use xlink:href="#DejaVuSans-44" x="152.294922"/>
    </g>
   </g>
   <g id="text_3">
    <!-- LBU1 -->
    <g style="opacity: 0.5" transform="translate(301.736796 113.165662)scale(0.0579 -0.0579)">
     <defs>
      <path id="DejaVuSans-4c" d="M 628 4666 
L 1259 4666 
L 1259 531 
L 3531 531 
L 3531 0 
L 628 0 
L 628 4666 
z
" transform="scale(0.015625)"/>
      <path id="DejaVuSans-42" d="M 1259 2228 
L 1259 519 
L 2272 519 
Q 2781 519 3026 730 
Q 3272 941 3272 1375 
Q 3272 1813 3026 2020 
Q 2781 2228 2272 2228 
L 1259 2228 
z
M 1259 4147 
L 1259 2741 
L 2194 2741 
Q 2656 2741 2882 2914 
Q 3109 3088 3109 3444 
Q 3109 3797 2882 3972 
Q 2656 4147 2194 4147 
L 1259 4147 
z
M 628 4666 
L 2241 4666 
Q 2963 4666 3353 4366 
Q 3744 4066 3744 3513 
Q 3744 3084 3544 2831 
Q 3344 2578 2956 2516 
Q 3422 2416 3680 2098 
Q 3938 1781 3938 1306 
Q 3938 681 3513 340 
Q 3088 0 2303 0 
L 628 0 
L 628 4666 
z
" transform="scale(0.015625)"/>
     </defs>
     <use xlink:href="#DejaVuSans-4c"/>
     <use xlink:href="#DejaVuSans-42" x="55.712891"/>
     <use xlink:href="#DejaVuSans-55" x="124.316406"/>
     <use xlink:href="#DejaVuSans-31" x="197.509766"/>
    </g>
    <!-- 245 -->
    <g style="opacity: 0.5" transform="translate(303.770985 119.649196)scale(0.0579 -0.0579)">
     <defs>
      <path id="DejaVuSans-32" d="M 1228 531 
L 3431 531 
L 3431 0 
L 469 0 
L 469 531 
Q 828 903 1448 1529 
Q 2069 2156 2228 2338 
Q 2531 2678 2651 2914 
Q 2772 3150 2772 3378 
Q 2772 3750 2511 3984 
Q 2250 4219 1831 4219 
Q 1534 4219 1204 4116 
Q 875 4013 500 3803 
L 500 4441 
Q 881 4594 1212 4672 
Q 1544 4750 1819 4750 
Q 2544 4750 2975 4387 
Q 3406 4025 3406 3419 
Q 3406 3131 3298 2873 
Q 3191 2616 2906 2266 
Q 2828 2175 2409 1742 
Q 1991 1309 1228 531 
z
" transform="scale(0.015625)"/>
     </defs>
     <use xlink:href="#DejaVuSans-32"/>
     <use xlink:href="#DejaVuSans-34" x="63.623047"/>
     <use xlink:href="#DejaVuSans-35" x="127.246094"/>
    </g>
    <!-- 145 -->
    <g style="opacity: 0.5" transform="translate(303.770985 126.132729)scale(0.0579 -0.0579)">
     <use xlink:href="#DejaVuSans-31"/>
     <use xlink:href="#DejaVuSans-34" x="63.623047"/>
     <use xlink:href="#DejaVuSans-35" x="127.246094"/>
    </g>
   </g>
   <g id="text_4">
    <!-- LBU2 -->
    <g style="opacity: 0.5" transform="translate(302.868777 139.168248)scale(0.0579 -0.0579)">
     <use xlink:href="#DejaVuSans-4c"/>
     <use xlink:href="#DejaVuSans-42" x="55.712891"/>
     <use xlink:href="#DejaVuSans-55" x="124.316406"/>
     <use xlink:href="#DejaVuSans-32" x="197.509766"/>
    </g>
    <!-- 235 -->
    <g style="opacity: 0.5" transform="translate(304.902967 145.651781)scale(0.0579 -0.0579)">
     <defs>
      <path id="DejaVuSans-33" d="M 2597 2516 
Q 3050 2419 3304 2112 
Q 3559 1806 3559 1356 
Q 3559 666 3084 287 
Q 2609 -91 1734 -91 
Q 1441 -91 1130 -33 
Q 819 25 488 141 
L 488 750 
Q 750 597 1062 519 
Q 1375 441 1716 441 
Q 2309 441 2620 675 
Q 2931 909 2931 1356 
Q 2931 1769 2642 2001 
Q 2353 2234 1838 2234 
L 1294 2234 
L 1294 2753 
L 1863 2753 
Q 2328 2753 2575 2939 
Q 2822 3125 2822 3475 
Q 2822 3834 2567 4026 
Q 2313 4219 1838 4219 
Q 1578 4219 1281 4162 
Q 984 4106 628 3988 
L 628 4550 
Q 988 4650 1302 4700 
Q 1616 4750 1894 4750 
Q 2613 4750 3031 4423 
Q 3450 4097 3450 3541 
Q 3450 3153 3228 2886 
Q 3006 2619 2597 2516 
z
" transform="scale(0.015625)"/>
     </defs>
     <use xlink:href="#DejaVuSans-32"/>
     <use xlink:href="#DejaVuSans-33" x="63.623047"/>
     <use xlink:href="#DejaVuSans-35" x="127.246094"/>
    </g>
    <!-- 145 -->
    <g style="opacity: 0.5" transform="translate(304.902967 152.135315)scale(0.0579 -0.0579)">
     <use xlink:href="#DejaVuSans-31"/>
     <use xlink:href="#DejaVuSans-34" x="63.623047"/>
     <use xlink:href="#DejaVuSans-35" x="127.246094"/>
    </g>
   </g>
   <g id="text_5">
    <!-- LFEE-L_UIR1 -->
    <g style="opacity: 0.5" transform="translate(52.786072 203.111782)scale(0.0579 -0.0579)">
     <defs>
      <path id="DejaVuSans-2d" d="M 313 2009 
L 1997 2009 
L 1997 1497 
L 313 1497 
L 313 2009 
z
" transform="scale(0.015625)"/>
      <path id="DejaVuSans-5f" d="M 3263 -1063 
L 3263 -1509 
L -63 -1509 
L -63 -1063 
L 3263 -1063 
z
" transform="scale(0.015625)"/>
      <path id="DejaVuSans-49" d="M 628 4666 
L 1259 4666 
L 1259 0 
L 628 0 
L 628 4666 
z
" transform="scale(0.015625)"/>
      <path id="DejaVuSans-52" d="M 2841 2188 
Q 3044 2119 3236 1894 
Q 3428 1669 3622 1275 
L 4263 0 
L 3584 0 
L 2988 1197 
Q 2756 1666 2539 1819 
Q 2322 1972 1947 1972 
L 1259 1972 
L 1259 0 
L 628 0 
L 628 4666 
L 2053 4666 
Q 2853 4666 3247 4331 
Q 3641 3997 3641 3322 
Q 3641 2881 3436 2590 
Q 3231 2300 2841 2188 
z
M 1259 4147 
L 1259 2491 
L 2053 2491 
Q 2509 2491 2742 2702 
Q 2975 2913 2975 3322 
Q 2975 3731 2742 3939 
Q 2509 4147 2053 4147 
L 1259 4147 
z
" transform="scale(0.015625)"/>
     </defs>
     <use xlink:href="#DejaVuSans-4c"/>
     <use xlink:href="#DejaVuSans-46" x="55.712891"/>
     <use xlink:href="#DejaVuSans-45" x="113.232422"/>
     <use xlink:href="#DejaVuSans-45" x="176.416016"/>
     <use xlink:href="#DejaVuSans-2d" x="239.599609"/>
     <use xlink:href="#DejaVuSans-4c" x="275.683594"/>
     <use xlink:href="#DejaVuSans-5f" x="331.396484"/>
     <use xlink:href="#DejaVuSans-55" x="381.396484"/>
     <use xlink:href="#DejaVuSans-49" x="454.589844"/>
     <use xlink:href="#DejaVuSans-52" x="484.082031"/>
     <use xlink:href="#DejaVuSans-31" x="553.564453"/>
    </g>
    <!-- 245 -->
    <g style="opacity: 0.5" transform="translate(65.128272 209.75635)scale(0.0579 -0.0579)">
     <use xlink:href="#DejaVuSans-32"/>
     <use xlink:href="#DejaVuSans-34" x="63.623047"/>
     <use xlink:href="#DejaVuSans-35" x="127.246094"/>
    </g>
    <!-- 195 -->
    <g style="opacity: 0.5" transform="translate(65.128272 216.239884)scale(0.0579 -0.0579)">
     <defs>
      <path id="DejaVuSans-39" d="M 703 97 
L 703 672 
Q 941 559 1184 500 
Q 1428 441 1663 441 
Q 2288 441 2617 861 
Q 2947 1281 2994 2138 
Q 2813 1869 2534 1725 
Q 2256 1581 1919 1581 
Q 1219 1581 811 2004 
Q 403 2428 403 3163 
Q 403 3881 828 4315 
Q 1253 4750 1959 4750 
Q 2769 4750 3195 4129 
Q 3622 3509 3622 2328 
Q 3622 1225 3098 567 
Q 2575 -91 1691 -91 
Q 1453 -91 1209 -44 
Q 966 3 703 97 
z
M 1959 2075 
Q 2384 2075 2632 2365 
Q 2881 2656 2881 3163 
Q 2881 3666 2632 3958 
Q 2384 4250 1959 4250 
Q 1534 4250 1286 3958 
Q 1038 3666 1038 3163 
Q 1038 2656 1286 2365 
Q 1534 2075 1959 2075 
z
" transform="scale(0.015625)"/>
     </defs>
     <use xlink:href="#DejaVuSans-31"/>
     <use xlink:href="#DejaVuSans-39" x="63.623047"/>
     <use xlink:href="#DejaVuSans-35" x="127.246094"/>
    </g>
   </g>
   <g id="text_6">
    <!-- LFEE_FIR_S -->
    <g style="opacity: 0.5" transform="translate(126.547755 197.973575)scale(0.0579 -0.0579)">
     <defs>
      <path id="DejaVuSans-53" d="M 3425 4513 
L 3425 3897 
Q 3066 4069 2747 4153 
Q 2428 4238 2131 4238 
Q 1616 4238 1336 4038 
Q 1056 3838 1056 3469 
Q 1056 3159 1242 3001 
Q 1428 2844 1947 2747 
L 2328 2669 
Q 3034 2534 3370 2195 
Q 3706 1856 3706 1288 
Q 3706 609 3251 259 
Q 2797 -91 1919 -91 
Q 1588 -91 1214 -16 
Q 841 59 441 206 
L 441 856 
Q 825 641 1194 531 
Q 1563 422 1919 422 
Q 2459 422 2753 634 
Q 3047 847 3047 1241 
Q 3047 1584 2836 1778 
Q 2625 1972 2144 2069 
L 1759 2144 
Q 1053 2284 737 2584 
Q 422 2884 422 3419 
Q 422 4038 858 4394 
Q 1294 4750 2059 4750 
Q 2388 4750 2728 4690 
Q 3069 4631 3425 4513 
z
" transform="scale(0.015625)"/>
     </defs>
     <use xlink:href="#DejaVuSans-4c"/>
     <use xlink:href="#DejaVuSans-46" x="55.712891"/>
     <use xlink:href="#DejaVuSans-45" x="113.232422"/>
     <use xlink:href="#DejaVuSans-45" x="176.416016"/>
     <use xlink:href="#DejaVuSans-5f" x="239.599609"/>
     <use xlink:href="#DejaVuSans-46" x="289.599609"/>
     <use xlink:href="#DejaVuSans-49" x="347.119141"/>
     <use xlink:href="#DejaVuSans-52" x="376.611328"/>
     <use xlink:href="#DejaVuSans-5f" x="446.09375"/>
     <use xlink:href="#DejaVuSans-53" x="496.09375"/>
    </g>
    <!-- 195 -->
    <g style="opacity: 0.5" transform="translate(137.222163 204.618143)scale(0.0579 -0.0579)">
     <use xlink:href="#DejaVuSans-31"/>
     <use xlink:href="#DejaVuSans-39" x="63.623047"/>
     <use xlink:href="#DejaVuSans-35" x="127.246094"/>
    </g>
    <!-- 145 -->
    <g style="opacity: 0.5" transform="translate(137.222163 211.101677)scale(0.0579 -0.0579)">
     <use xlink:href="#DejaVuSans-31"/>
     <use xlink:href="#DejaVuSans-34" x="63.623047"/>
     <use xlink:href="#DejaVuSans-35" x="127.246094"/>
    </g>
   </g>
   <g id="text_7">
    <!-- LFEE_FIR_SB -->
    <g style="opacity: 0.5" transform="translate(89.324564 262.775154)scale(0.0579 -0.0579)">
     <use xlink:href="#DejaVuSans-4c"/>
     <use xlink:href="#DejaVuSans-46" x="55.712891"/>
     <use xlink:href="#DejaVuSans-45" x="113.232422"/>
     <use xlink:href="#DejaVuSans-45" x="176.416016"/>
     <use xlink:href="#DejaVuSans-5f" x="239.599609"/>
     <use xlink:href="#DejaVuSans-46" x="289.599609"/>
     <use xlink:href="#DejaVuSans-49" x="347.119141"/>
     <use xlink:href="#DejaVuSans-52" x="376.611328"/>
     <use xlink:href="#DejaVuSans-5f" x="446.09375"/>
     <use xlink:href="#DejaVuSans-53" x="496.09375"/>
     <use xlink:href="#DejaVuSans-42" x="559.570312"/>
    </g>
    <!-- 195 -->
    <g style="opacity: 0.5" transform="translate(101.985213 269.419722)scale(0.0579 -0.0579)">
     <use xlink:href="#DejaVuSans-31"/>
     <use xlink:href="#DejaVuSans-39" x="63.623047"/>
     <use xlink:href="#DejaVuSans-35" x="127.246094"/>
    </g>
    <!-- 145 -->
    <g style="opacity: 0.5" transform="translate(101.985213 275.903255)scale(0.0579 -0.0579)">
     <use xlink:href="#DejaVuSans-31"/>
     <use xlink:href="#DejaVuSans-34" x="63.623047"/>
     <use xlink:href="#DejaVuSans-35" x="127.246094"/>
    </g>
   </g>
   <g id="text_8">
    <!-- LFEE_FIR_SIV -->
    <g style="opacity: 0.5" transform="translate(46.811688 206.65843)scale(0.0579 -0.0579)">
     <defs>
      <path id="DejaVuSans-56" d="M 1831 0 
L 50 4666 
L 709 4666 
L 2188 738 
L 3669 4666 
L 4325 4666 
L 2547 0 
L 1831 0 
z
" transform="scale(0.015625)"/>
     </defs>
     <use xlink:href="#DejaVuSans-4c"/>
     <use xlink:href="#DejaVuSans-46" x="55.712891"/>
     <use xlink:href="#DejaVuSans-45" x="113.232422"/>
     <use xlink:href="#DejaVuSans-45" x="176.416016"/>
     <use xlink:href="#DejaVuSans-5f" x="239.599609"/>
     <use xlink:href="#DejaVuSans-46" x="289.599609"/>
     <use xlink:href="#DejaVuSans-49" x="347.119141"/>
     <use xlink:href="#DejaVuSans-52" x="376.611328"/>
     <use xlink:href="#DejaVuSans-5f" x="446.09375"/>
     <use xlink:href="#DejaVuSans-53" x="496.09375"/>
     <use xlink:href="#DejaVuSans-49" x="559.570312"/>
     <use xlink:href="#DejaVuSans-56" x="589.0625"/>
    </g>
    <!-- 195 -->
    <g style="opacity: 0.5" transform="translate(60.320482 213.302998)scale(0.0579 -0.0579)">
     <use xlink:href="#DejaVuSans-31"/>
     <use xlink:href="#DejaVuSans-39" x="63.623047"/>
     <use xlink:href="#DejaVuSans-35" x="127.246094"/>
    </g>
    <!-- 145 -->
    <g style="opacity: 0.5" transform="translate(60.320482 219.786531)scale(0.0579 -0.0579)">
     <use xlink:href="#DejaVuSans-31"/>
     <use xlink:href="#DejaVuSans-34" x="63.623047"/>
     <use xlink:href="#DejaVuSans-35" x="127.246094"/>
    </g>
   </g>
   <g id="text_9">
    <!-- LFST_TMA_0.2 -->
    <g style="opacity: 0.5" transform="translate(169.672545 169.510513)scale(0.0579 -0.0579)">
     <defs>
      <path id="DejaVuSans-54" d="M -19 4666 
L 3928 4666 
L 3928 4134 
L 2272 4134 
L 2272 0 
L 1638 0 
L 1638 4134 
L -19 4134 
L -19 4666 
z
" transform="scale(0.015625)"/>
      <path id="DejaVuSans-41" d="M 2188 4044 
L 1331 1722 
L 3047 1722 
L 2188 4044 
z
M 1831 4666 
L 2547 4666 
L 4325 0 
L 3669 0 
L 3244 1197 
L 1141 1197 
L 716 0 
L 50 0 
L 1831 4666 
z
" transform="scale(0.015625)"/>
      <path id="DejaVuSans-2e" d="M 684 794 
L 1344 794 
L 1344 0 
L 684 0 
L 684 794 
z
" transform="scale(0.015625)"/>
     </defs>
     <use xlink:href="#DejaVuSans-4c"/>
     <use xlink:href="#DejaVuSans-46" x="55.712891"/>
     <use xlink:href="#DejaVuSans-53" x="111.482422"/>
     <use xlink:href="#DejaVuSans-54" x="174.958984"/>
     <use xlink:href="#DejaVuSans-5f" x="236.042969"/>
     <use xlink:href="#DejaVuSans-54" x="286.042969"/>
     <use xlink:href="#DejaVuSans-4d" x="347.126953"/>
     <use xlink:href="#DejaVuSans-41" x="433.40625"/>
     <use xlink:href="#DejaVuSans-5f" x="501.814453"/>
     <use xlink:href="#DejaVuSans-30" x="551.814453"/>
     <use xlink:href="#DejaVuSans-2e" x="615.4375"/>
     <use xlink:href="#DejaVuSans-32" x="647.224609"/>
    </g>
    <!-- 95 -->
    <g style="opacity: 0.5" transform="translate(186.567584 176.15508)scale(0.0579 -0.0579)">
     <use xlink:href="#DejaVuSans-39"/>
     <use xlink:href="#DejaVuSans-35" x="63.623047"/>
    </g>
    <!-- GND -->
    <g style="opacity: 0.5" transform="translate(183.613327 182.638614)scale(0.0579 -0.0579)">
     <use xlink:href="#DejaVuSans-47"/>
     <use xlink:href="#DejaVuSans-4e" x="77.490234"/>
     <use xlink:href="#DejaVuSans-44" x="152.294922"/>
    </g>
   </g>
   <g id="text_10">
    <!-- LSASZE -->
    <g style="opacity: 0.5" transform="translate(294.799285 276.949716)scale(0.0579 -0.0579)">
     <defs>
      <path id="DejaVuSans-5a" d="M 359 4666 
L 4025 4666 
L 4025 4184 
L 1075 531 
L 4097 531 
L 4097 0 
L 288 0 
L 288 481 
L 3238 4134 
L 359 4134 
L 359 4666 
z
" transform="scale(0.015625)"/>
     </defs>
     <use xlink:href="#DejaVuSans-4c"/>
     <use xlink:href="#DejaVuSans-53" x="55.712891"/>
     <use xlink:href="#DejaVuSans-41" x="121.064453"/>
     <use xlink:href="#DejaVuSans-53" x="189.472656"/>
     <use xlink:href="#DejaVuSans-5a" x="252.949219"/>
     <use xlink:href="#DejaVuSans-45" x="321.455078"/>
    </g>
    <!-- 245 -->
    <g style="opacity: 0.5" transform="translate(300.409253 283.433249)scale(0.0579 -0.0579)">
     <use xlink:href="#DejaVuSans-32"/>
     <use xlink:href="#DejaVuSans-34" x="63.623047"/>
     <use xlink:href="#DejaVuSans-35" x="127.246094"/>
    </g>
    <!-- 125 -->
    <g style="opacity: 0.5" transform="translate(300.409253 289.916783)scale(0.0579 -0.0579)">
     <use xlink:href="#DejaVuSans-31"/>
     <use xlink:href="#DejaVuSans-32" x="63.623047"/>
     <use xlink:href="#DejaVuSans-35" x="127.246094"/>
    </g>
   </g>
   <g id="text_11">
    <!-- LSASZN -->
    <g style="opacity: 0.5" transform="translate(196.718592 251.523959)scale(0.0579 -0.0579)">
     <use xlink:href="#DejaVuSans-4c"/>
     <use xlink:href="#DejaVuSans-53" x="55.712891"/>
     <use xlink:href="#DejaVuSans-41" x="121.064453"/>
     <use xlink:href="#DejaVuSans-53" x="189.472656"/>
     <use xlink:href="#DejaVuSans-5a" x="252.949219"/>
     <use xlink:href="#DejaVuSans-4e" x="321.455078"/>
    </g>
    <!-- 245 -->
    <g style="opacity: 0.5" transform="translate(202.665103 258.007492)scale(0.0579 -0.0579)">
     <use xlink:href="#DejaVuSans-32"/>
     <use xlink:href="#DejaVuSans-34" x="63.623047"/>
     <use xlink:href="#DejaVuSans-35" x="127.246094"/>
    </g>
    <!-- 145 -->
    <g style="opacity: 0.5" transform="translate(202.665103 264.491026)scale(0.0579 -0.0579)">
     <use xlink:href="#DejaVuSans-31"/>
     <use xlink:href="#DejaVuSans-34" x="63.623047"/>
     <use xlink:href="#DejaVuSans-35" x="127.246094"/>
    </g>
   </g>
   <g id="text_12">
    <!-- NKRH2 -->
    <g style="opacity: 0.5" transform="translate(233.89239 102.698181)scale(0.0579 -0.0579)">
     <defs>
      <path id="DejaVuSans-4b" d="M 628 4666 
L 1259 4666 
L 1259 2694 
L 3353 4666 
L 4166 4666 
L 1850 2491 
L 4331 0 
L 3500 0 
L 1259 2247 
L 1259 0 
L 628 0 
L 628 4666 
z
" transform="scale(0.015625)"/>
      <path id="DejaVuSans-48" d="M 628 4666 
L 1259 4666 
L 1259 2753 
L 3553 2753 
L 3553 4666 
L 4184 4666 
L 4184 0 
L 3553 0 
L 3553 2222 
L 1259 2222 
L 1259 0 
L 628 0 
L 628 4666 
z
" transform="scale(0.015625)"/>
     </defs>
     <use xlink:href="#DejaVuSans-4e"/>
     <use xlink:href="#DejaVuSans-4b" x="74.804688"/>
     <use xlink:href="#DejaVuSans-52" x="140.380859"/>
     <use xlink:href="#DejaVuSans-48" x="209.863281"/>
     <use xlink:href="#DejaVuSans-32" x="285.058594"/>
    </g>
    <!-- 245 -->
    <g style="opacity: 0.5" transform="translate(238.461514 109.181715)scale(0.0579 -0.0579)">
     <use xlink:href="#DejaVuSans-32"/>
     <use xlink:href="#DejaVuSans-34" x="63.623047"/>
     <use xlink:href="#DejaVuSans-35" x="127.246094"/>
    </g>
    <!-- 145 -->
    <g style="opacity: 0.5" transform="translate(238.461514 115.665248)scale(0.0579 -0.0579)">
     <use xlink:href="#DejaVuSans-31"/>
     <use xlink:href="#DejaVuSans-34" x="63.623047"/>
     <use xlink:href="#DejaVuSans-35" x="127.246094"/>
    </g>
   </g>
   <g id="text_13">
    <!-- PFA4 -->
    <g style="opacity: 0.5" transform="translate(201.812379 98.970205)scale(0.0579 -0.0579)">
     <defs>
      <path id="DejaVuSans-50" d="M 1259 4147 
L 1259 2394 
L 2053 2394 
Q 2494 2394 2734 2622 
Q 2975 2850 2975 3272 
Q 2975 3691 2734 3919 
Q 2494 4147 2053 4147 
L 1259 4147 
z
M 628 4666 
L 2053 4666 
Q 2838 4666 3239 4311 
Q 3641 3956 3641 3272 
Q 3641 2581 3239 2228 
Q 2838 1875 2053 1875 
L 1259 1875 
L 1259 0 
L 628 0 
L 628 4666 
z
" transform="scale(0.015625)"/>
     </defs>
     <use xlink:href="#DejaVuSans-50"/>
     <use xlink:href="#DejaVuSans-46" x="60.302734"/>
     <use xlink:href="#DejaVuSans-41" x="108.697266"/>
     <use xlink:href="#DejaVuSans-34" x="177.105469"/>
    </g>
    <!-- 245 -->
    <g style="opacity: 0.5" transform="translate(203.255355 105.453738)scale(0.0579 -0.0579)">
     <use xlink:href="#DejaVuSans-32"/>
     <use xlink:href="#DejaVuSans-34" x="63.623047"/>
     <use xlink:href="#DejaVuSans-35" x="127.246094"/>
    </g>
    <!-- 95 -->
    <g style="opacity: 0.5" transform="translate(205.097299 111.937272)scale(0.0579 -0.0579)">
     <use xlink:href="#DejaVuSans-39"/>
     <use xlink:href="#DejaVuSans-35" x="63.623047"/>
    </g>
   </g>
   <g id="text_14">
    <!-- REU1 -->
    <g style="opacity: 0.5" transform="translate(268.781061 168.818939)scale(0.0579 -0.0579)">
     <use xlink:href="#DejaVuSans-52"/>
     <use xlink:href="#DejaVuSans-45" x="69.482422"/>
     <use xlink:href="#DejaVuSans-55" x="132.666016"/>
     <use xlink:href="#DejaVuSans-31" x="205.859375"/>
    </g>
    <!-- 145 -->
    <g style="opacity: 0.5" transform="translate(271.056802 175.302473)scale(0.0579 -0.0579)">
     <use xlink:href="#DejaVuSans-31"/>
     <use xlink:href="#DejaVuSans-34" x="63.623047"/>
     <use xlink:href="#DejaVuSans-35" x="127.246094"/>
    </g>
    <!-- GND -->
    <g style="opacity: 0.5" transform="translate(269.944489 181.786006)scale(0.0579 -0.0579)">
     <use xlink:href="#DejaVuSans-47"/>
     <use xlink:href="#DejaVuSans-4e" x="77.490234"/>
     <use xlink:href="#DejaVuSans-44" x="152.294922"/>
    </g>
   </g>
   <g id="text_15">
    <!-- REU2 -->
    <g style="opacity: 0.5" transform="translate(182.449899 169.642145)scale(0.0579 -0.0579)">
     <use xlink:href="#DejaVuSans-52"/>
     <use xlink:href="#DejaVuSans-45" x="69.482422"/>
     <use xlink:href="#DejaVuSans-55" x="132.666016"/>
     <use xlink:href="#DejaVuSans-32" x="205.859375"/>
    </g>
    <!-- 145 -->
    <g style="opacity: 0.5" transform="translate(184.72564 176.125678)scale(0.0579 -0.0579)">
     <use xlink:href="#DejaVuSans-31"/>
     <use xlink:href="#DejaVuSans-34" x="63.623047"/>
     <use xlink:href="#DejaVuSans-35" x="127.246094"/>
    </g>
    <!-- 95 -->
    <g style="opacity: 0.5" transform="translate(186.567584 182.609212)scale(0.0579 -0.0579)">
     <use xlink:href="#DejaVuSans-39"/>
     <use xlink:href="#DejaVuSans-35" x="63.623047"/>
    </g>
   </g>
   <g id="text_16">
    <!-- STG1 -->
    <g style="opacity: 0.5" transform="translate(282.250763 117.879752)scale(0.0579 -0.0579)">
     <use xlink:href="#DejaVuSans-53"/>
     <use xlink:href="#DejaVuSans-54" x="63.476562"/>
     <use xlink:href="#DejaVuSans-47" x="124.560547"/>
     <use xlink:href="#DejaVuSans-31" x="202.050781"/>
    </g>
    <!-- 145 -->
    <g style="opacity: 0.5" transform="translate(284.416133 124.363285)scale(0.0579 -0.0579)">
     <use xlink:href="#DejaVuSans-31"/>
     <use xlink:href="#DejaVuSans-34" x="63.623047"/>
     <use xlink:href="#DejaVuSans-35" x="127.246094"/>
    </g>
    <!-- GND -->
    <g style="opacity: 0.5" transform="translate(283.30382 130.846819)scale(0.0579 -0.0579)">
     <use xlink:href="#DejaVuSans-47"/>
     <use xlink:href="#DejaVuSans-4e" x="77.490234"/>
     <use xlink:href="#DejaVuSans-44" x="152.294922"/>
    </g>
   </g>
   <g id="text_17">
    <!-- TGO133 -->
    <g style="opacity: 0.5" transform="translate(295.734211 161.66864)scale(0.0579 -0.0579)">
     <defs>
      <path id="DejaVuSans-4f" d="M 2522 4238 
Q 1834 4238 1429 3725 
Q 1025 3213 1025 2328 
Q 1025 1447 1429 934 
Q 1834 422 2522 422 
Q 3209 422 3611 934 
Q 4013 1447 4013 2328 
Q 4013 3213 3611 3725 
Q 3209 4238 2522 4238 
z
M 2522 4750 
Q 3503 4750 4090 4092 
Q 4678 3434 4678 2328 
Q 4678 1225 4090 567 
Q 3503 -91 2522 -91 
Q 1538 -91 948 565 
Q 359 1222 359 2328 
Q 359 3434 948 4092 
Q 1538 4750 2522 4750 
z
" transform="scale(0.015625)"/>
     </defs>
     <use xlink:href="#DejaVuSans-54"/>
     <use xlink:href="#DejaVuSans-47" x="61.083984"/>
     <use xlink:href="#DejaVuSans-4f" x="138.574219"/>
     <use xlink:href="#DejaVuSans-31" x="217.285156"/>
     <use xlink:href="#DejaVuSans-33" x="280.908203"/>
     <use xlink:href="#DejaVuSans-33" x="344.53125"/>
    </g>
    <!-- 245 -->
    <g style="opacity: 0.5" transform="translate(302.024503 168.152173)scale(0.0579 -0.0579)">
     <use xlink:href="#DejaVuSans-32"/>
     <use xlink:href="#DejaVuSans-34" x="63.623047"/>
     <use xlink:href="#DejaVuSans-35" x="127.246094"/>
    </g>
    <!-- 235 -->
    <g style="opacity: 0.5" transform="translate(302.024503 174.635707)scale(0.0579 -0.0579)">
     <use xlink:href="#DejaVuSans-32"/>
     <use xlink:href="#DejaVuSans-33" x="63.623047"/>
     <use xlink:href="#DejaVuSans-35" x="127.246094"/>
    </g>
   </g>
   <g id="text_18">
    <!-- BAD1 -->
    <g transform="translate(212.880942 169.642145)scale(0.0579 -0.0579)">
     <use xlink:href="#DejaVuSans-42"/>
     <use xlink:href="#DejaVuSans-41" x="68.603516"/>
     <use xlink:href="#DejaVuSans-44" x="137.011719"/>
     <use xlink:href="#DejaVuSans-31" x="214.013672"/>
    </g>
    <!-- 245 -->
    <g transform="translate(215.392807 176.125678)scale(0.0579 -0.0579)">
     <use xlink:href="#DejaVuSans-32"/>
     <use xlink:href="#DejaVuSans-34" x="63.623047"/>
     <use xlink:href="#DejaVuSans-35" x="127.246094"/>
    </g>
    <!-- 145 -->
    <g transform="translate(215.392807 182.609212)scale(0.0579 -0.0579)">
     <use xlink:href="#DejaVuSans-31"/>
     <use xlink:href="#DejaVuSans-34" x="63.623047"/>
     <use xlink:href="#DejaVuSans-35" x="127.246094"/>
    </g>
   </g>
   <g id="text_19">
    <!-- BAD2 -->
    <g transform="translate(291.166114 181.313521)scale(0.0579 -0.0579)">
     <use xlink:href="#DejaVuSans-42"/>
     <use xlink:href="#DejaVuSans-41" x="68.603516"/>
     <use xlink:href="#DejaVuSans-44" x="137.011719"/>
     <use xlink:href="#DejaVuSans-32" x="214.013672"/>
    </g>
    <!-- 235 -->
    <g transform="translate(293.677979 187.797054)scale(0.0579 -0.0579)">
     <use xlink:href="#DejaVuSans-32"/>
     <use xlink:href="#DejaVuSans-33" x="63.623047"/>
     <use xlink:href="#DejaVuSans-35" x="127.246094"/>
    </g>
    <!-- 145 -->
    <g transform="translate(293.677979 194.280588)scale(0.0579 -0.0579)">
     <use xlink:href="#DejaVuSans-31"/>
     <use xlink:href="#DejaVuSans-34" x="63.623047"/>
     <use xlink:href="#DejaVuSans-35" x="127.246094"/>
    </g>
   </g>
  </g>
 </g>
 <defs>
  <clipPath id="pd9a09156e2">
   <rect x="57.6" y="54.693346" width="357.12" height="239.669307"/>
  </clipPath>
 </defs>
</svg>
