<?xml version="1.0" encoding="utf-8" standalone="no"?>
<!DOCTYPE svg PUBLIC "-//W3C//DTD SVG 1.1//EN"
  "http://www.w3.org/Graphics/SVG/1.1/DTD/svg11.dtd">
<svg xmlns:xlink="http://www.w3.org/1999/xlink" width="460.8pt" height="345.6pt" viewBox="0 0 460.8 345.6" xmlns="http://www.w3.org/2000/svg" version="1.1">
 <metadata>
  <rdf:RDF xmlns:dc="http://purl.org/dc/elements/1.1/" xmlns:cc="http://creativecommons.org/ns#" xmlns:rdf="http://www.w3.org/1999/02/22-rdf-syntax-ns#">
   <cc:Work>
    <dc:type rdf:resource="http://purl.org/dc/dcmitype/StillImage"/>
    <dc:date>2022-07-22T15:05:42.919392</dc:date>
    <dc:format>image/svg+xml</dc:format>
    <dc:creator>
     <cc:Agent>
      <dc:title>Matplotlib v3.5.0, https://matplotlib.org/</dc:title>
     </cc:Agent>
    </dc:creator>
   </cc:Work>
  </rdf:RDF>
 </metadata>
 <defs>
  <style type="text/css">*{stroke-linejoin: round; stroke-linecap: butt}</style>
 </defs>
 <g id="figure_1">
  <g id="patch_1">
   <path d="M 0 345.6 
L 460.8 345.6 
L 460.8 0 
L 0 0 
z
" style="fill: #ffffff"/>
  </g>
  <g id="axes_1">
   <g id="patch_2">
    <path d="M 201.056959 152.835945 
L 213.892456 153.11502 
L 221.753039 151.939688 
L 232.27017 144.365211 
L 248.708343 128.595958 
L 260.014439 137.019281 
L 238.855428 152.657302 
L 235.109362 155.532503 
L 229.242017 159.745989 
L 227.063592 161.389302 
L 215.927963 169.622232 
L 205.343928 177.434838 
L 205.872154 195.151273 
L 206.095265 203.185087 
L 195.821156 216.707983 
L 195.223824 213.273157 
L 194.336377 212.414036 
L 192.582886 210.168938 
L 190.32859 207.772606 
L 186.860743 208.031029 
L 185.131529 203.80247 
L 189.972601 199.834703 
L 192.550568 198.081068 
L 202.459813 191.700196 
L 199.479097 189.59953 
L 196.742999 191.023744 
L 196.438491 184.43027 
L 197.312601 183.74377 
L 205.751924 172.961577 
L 205.835078 169.493608 
L 205.970483 163.848605 
z
" clip-path="url(#p8828699087)" style="fill: #ffedd9; stroke: #ffedd9; stroke-linejoin: miter"/>
   </g>
   <g id="patch_3">
    <path d="M 238.792223 121.936696 
L 243.584574 124.089222 
L 248.708343 128.595958 
L 232.27017 144.365211 
L 221.753039 151.939688 
L 213.892456 153.11502 
L 201.056959 152.835945 
L 199.345698 148.992754 
L 195.777556 144.795793 
L 195.37282 142.302454 
L 217.041367 131.148146 
L 215.369728 127.438955 
L 222.126408 128.190045 
z
" clip-path="url(#p8828699087)" style="fill: #ffedd9; stroke: #ffedd9; stroke-linejoin: miter"/>
   </g>
   <g id="patch_4">
    <path d="M 195.777556 144.795793 
L 199.345698 148.992754 
L 201.056959 152.835945 
L 205.970483 163.848605 
L 205.835078 169.493608 
L 205.751924 172.961577 
L 197.312601 183.74377 
L 189.935329 183.318362 
L 194.908972 175.727283 
z
" clip-path="url(#p8828699087)" style="fill: #ffedd9; stroke: #ffedd9; stroke-linejoin: miter"/>
   </g>
   <g id="patch_5">
    <path d="M 189.935329 183.318362 
L 197.312601 183.74377 
L 196.438491 184.43027 
L 196.742999 191.023744 
L 199.479097 189.59953 
L 202.459813 191.700196 
L 192.550568 198.081068 
L 191.023001 189.235044 
z
" clip-path="url(#p8828699087)" style="fill: #ffedd9; stroke: #ffedd9; stroke-linejoin: miter"/>
   </g>
   <g id="patch_6">
    <path d="M 206.095265 203.185087 
L 214.045308 214.02748 
L 195.887257 227.119304 
L 196.131955 220.135269 
L 196.197958 218.819944 
L 195.821156 216.707983 
z
" clip-path="url(#p8828699087)" style="fill: #ffedd9; stroke: #ffedd9; stroke-linejoin: miter"/>
   </g>
   <g id="patch_7">
    <path d="M 205.343928 177.434838 
L 205.872154 195.151273 
L 215.927963 169.622232 
z
" clip-path="url(#p8828699087)" style="fill: #ffedd9; stroke: #ffedd9; stroke-linejoin: miter"/>
   </g>
   <g id="patch_8">
    <path d="M 215.927963 169.622232 
L 227.063592 161.389302 
L 229.242017 159.745989 
L 235.109362 155.532503 
L 238.855428 152.657302 
L 260.014439 137.019281 
L 261.895536 138.407395 
L 273.406092 147.529867 
L 277.295807 150.597596 
L 283.116368 163.775601 
L 287.188471 173.139286 
L 281.684561 173.844381 
L 275.485905 178.436356 
L 260.68466 189.086981 
L 258.159449 190.698206 
L 255.627274 192.725643 
L 248.230876 198.225804 
L 242.201901 190.035641 
L 235.777934 181.297893 
L 219.33897 193.424156 
L 206.095265 203.185087 
L 205.872154 195.151273 
z
" clip-path="url(#p8828699087)" style="fill: #ffedd9; stroke: #ffedd9; stroke-linejoin: miter"/>
   </g>
   <g id="patch_9">
    <path d="M 201.056959 152.835945 
L 213.892456 153.11502 
L 221.753039 151.939688 
L 232.27017 144.365211 
L 248.708343 128.595958 
L 260.014439 137.019281 
L 238.855428 152.657302 
L 235.109362 155.532503 
L 229.242017 159.745989 
L 227.063592 161.389302 
L 215.927963 169.622232 
L 205.343928 177.434838 
L 205.872154 195.151273 
L 206.095265 203.185087 
L 195.821156 216.707983 
L 195.223824 213.273157 
L 194.336377 212.414036 
L 192.582886 210.168938 
L 190.32859 207.772606 
L 186.860743 208.031029 
L 185.131529 203.80247 
L 189.972601 199.834703 
L 192.550568 198.081068 
L 202.459813 191.700196 
L 199.479097 189.59953 
L 196.742999 191.023744 
L 196.438491 184.43027 
L 197.312601 183.74377 
L 205.751924 172.961577 
L 205.835078 169.493608 
L 205.970483 163.848605 
L 201.056959 152.835945 
z
" clip-path="url(#p8828699087)" style="fill: #ffedd9; stroke: #ffedd9; stroke-linejoin: miter"/>
   </g>
   <g id="patch_10">
    <path d="M 238.792223 121.936696 
L 243.584574 124.089222 
L 248.708343 128.595958 
L 232.27017 144.365211 
L 221.753039 151.939688 
L 213.892456 153.11502 
L 201.056959 152.835945 
L 199.345698 148.992754 
L 195.777556 144.795793 
L 195.37282 142.302454 
L 217.041367 131.148146 
L 215.369728 127.438955 
L 222.126408 128.190045 
L 238.792223 121.936696 
z
" clip-path="url(#p8828699087)" style="fill: #ffedd9; stroke: #ffedd9; stroke-linejoin: miter"/>
   </g>
   <g id="patch_11">
    <path d="M 195.777556 144.795793 
L 199.345698 148.992754 
L 201.056959 152.835945 
L 205.970483 163.848605 
L 205.835078 169.493608 
L 205.751924 172.961577 
L 197.312601 183.74377 
L 189.935329 183.318362 
L 194.908972 175.727283 
L 195.777556 144.795793 
z
" clip-path="url(#p8828699087)" style="fill: #ffedd9; stroke: #ffedd9; stroke-linejoin: miter"/>
   </g>
   <g id="patch_12">
    <path d="M 189.935329 183.318362 
L 197.312601 183.74377 
L 196.438491 184.43027 
L 196.742999 191.023744 
L 199.479097 189.59953 
L 202.459813 191.700196 
L 192.550568 198.081068 
L 191.023001 189.235044 
L 189.935329 183.318362 
z
" clip-path="url(#p8828699087)" style="fill: #ffedd9; stroke: #ffedd9; stroke-linejoin: miter"/>
   </g>
   <g id="patch_13">
    <path d="M 206.095265 203.185087 
L 214.045308 214.02748 
L 195.887257 227.119304 
L 196.131955 220.135269 
L 196.197958 218.819944 
L 195.821156 216.707983 
L 206.095265 203.185087 
z
" clip-path="url(#p8828699087)" style="fill: #ffedd9; stroke: #ffedd9; stroke-linejoin: miter"/>
   </g>
   <g id="patch_14">
    <path d="M 205.343928 177.434838 
L 205.872154 195.151273 
L 215.927963 169.622232 
L 205.343928 177.434838 
z
" clip-path="url(#p8828699087)" style="fill: #ffedd9; stroke: #ffedd9; stroke-linejoin: miter"/>
   </g>
   <g id="patch_15">
    <path d="M 215.927963 169.622232 
L 227.063592 161.389302 
L 229.242017 159.745989 
L 235.109362 155.532503 
L 238.855428 152.657302 
L 260.014439 137.019281 
L 261.895536 138.407395 
L 273.406092 147.529867 
L 277.295807 150.597596 
L 283.116368 163.775601 
L 287.188471 173.139286 
L 281.684561 173.844381 
L 275.485905 178.436356 
L 260.68466 189.086981 
L 258.159449 190.698206 
L 255.627274 192.725643 
L 248.230876 198.225804 
L 242.201901 190.035641 
L 235.777934 181.297893 
L 219.33897 193.424156 
L 206.095265 203.185087 
L 205.872154 195.151273 
L 215.927963 169.622232 
z
" clip-path="url(#p8828699087)" style="fill: #ffedd9; stroke: #ffedd9; stroke-linejoin: miter"/>
   </g>
   <g id="line2d_1">
    <path d="M 201.056959 152.835945 
L 213.892456 153.11502 
L 221.753039 151.939688 
L 232.27017 144.365211 
L 248.708343 128.595958 
L 260.014439 137.019281 
L 238.855428 152.657302 
L 235.109362 155.532503 
L 229.242017 159.745989 
L 227.063592 161.389302 
L 215.927963 169.622232 
L 205.343928 177.434838 
L 205.872154 195.151273 
L 206.095265 203.185087 
L 195.821156 216.707983 
L 195.223824 213.273157 
L 194.336377 212.414036 
L 192.582886 210.168938 
L 190.32859 207.772606 
L 186.860743 208.031029 
L 185.131529 203.80247 
L 189.972601 199.834703 
L 192.550568 198.081068 
L 202.459813 191.700196 
L 199.479097 189.59953 
L 196.742999 191.023744 
L 196.438491 184.43027 
L 197.312601 183.74377 
L 205.751924 172.961577 
L 205.835078 169.493608 
L 205.970483 163.848605 
L 201.056959 152.835945 
" clip-path="url(#p8828699087)" style="fill: none; stroke: #ffc380; stroke-width: 0.5; stroke-linecap: square"/>
   </g>
   <g id="line2d_2">
    <path d="M 238.792223 121.936696 
L 243.584574 124.089222 
L 248.708343 128.595958 
L 232.27017 144.365211 
L 221.753039 151.939688 
L 213.892456 153.11502 
L 201.056959 152.835945 
L 199.345698 148.992754 
L 195.777556 144.795793 
L 195.37282 142.302454 
L 217.041367 131.148146 
L 215.369728 127.438955 
L 222.126408 128.190045 
L 238.792223 121.936696 
" clip-path="url(#p8828699087)" style="fill: none; stroke: #ffc380; stroke-width: 0.5; stroke-linecap: square"/>
   </g>
   <g id="line2d_3">
    <path d="M 195.777556 144.795793 
L 199.345698 148.992754 
L 201.056959 152.835945 
L 205.970483 163.848605 
L 205.835078 169.493608 
L 205.751924 172.961577 
L 197.312601 183.74377 
L 189.935329 183.318362 
L 194.908972 175.727283 
L 195.777556 144.795793 
" clip-path="url(#p8828699087)" style="fill: none; stroke: #ffc380; stroke-width: 0.5; stroke-linecap: square"/>
   </g>
   <g id="line2d_4">
    <path d="M 189.935329 183.318362 
L 197.312601 183.74377 
L 196.438491 184.43027 
L 196.742999 191.023744 
L 199.479097 189.59953 
L 202.459813 191.700196 
L 192.550568 198.081068 
L 191.023001 189.235044 
L 189.935329 183.318362 
" clip-path="url(#p8828699087)" style="fill: none; stroke: #ffc380; stroke-width: 0.5; stroke-linecap: square"/>
   </g>
   <g id="line2d_5">
    <path d="M 206.095265 203.185087 
L 214.045308 214.02748 
L 195.887257 227.119304 
L 196.131955 220.135269 
L 196.197958 218.819944 
L 195.821156 216.707983 
L 206.095265 203.185087 
" clip-path="url(#p8828699087)" style="fill: none; stroke: #ffc380; stroke-width: 0.5; stroke-linecap: square"/>
   </g>
   <g id="line2d_6">
    <path d="M 205.343928 177.434838 
L 205.872154 195.151273 
L 215.927963 169.622232 
L 205.343928 177.434838 
" clip-path="url(#p8828699087)" style="fill: none; stroke: #ffc380; stroke-width: 0.5; stroke-linecap: square"/>
   </g>
   <g id="line2d_7">
    <path d="M 215.927963 169.622232 
L 227.063592 161.389302 
L 229.242017 159.745989 
L 235.109362 155.532503 
L 238.855428 152.657302 
L 260.014439 137.019281 
L 261.895536 138.407395 
L 273.406092 147.529867 
L 277.295807 150.597596 
L 283.116368 163.775601 
L 287.188471 173.139286 
L 281.684561 173.844381 
L 275.485905 178.436356 
L 260.68466 189.086981 
L 258.159449 190.698206 
L 255.627274 192.725643 
L 248.230876 198.225804 
L 242.201901 190.035641 
L 235.777934 181.297893 
L 219.33897 193.424156 
L 206.095265 203.185087 
L 205.872154 195.151273 
L 215.927963 169.622232 
" clip-path="url(#p8828699087)" style="fill: none; stroke: #ffc380; stroke-width: 0.5; stroke-linecap: square"/>
   </g>
   <g id="line2d_8">
    <path d="M 265.028664 197.461966 
L 255.566489 204.371909 
L 248.844248 209.248415 
L 254.977305 216.188795 
L 235.844775 231.790053 
L 230.510041 236.155102 
L 224.844254 237.089038 
L 206.461651 235.205267 
L 200.350378 238.350643 
L 198.104949 239.510168 
L 195.548169 236.506907 
L 195.887257 227.119304 
L 214.045308 214.02748 
L 227.426104 204.446719 
L 235.531895 198.791452 
L 248.230876 198.225804 
L 265.028664 197.461966 
" clip-path="url(#p8828699087)" style="fill: none; stroke: #8f8f8f; stroke-width: 0.2; stroke-linecap: square"/>
   </g>
   <g id="line2d_9">
    <path d="M 215.927963 169.622232 
L 227.063592 161.389302 
L 238.855428 152.657302 
L 260.014439 137.019281 
L 273.406092 147.529867 
L 267.363906 160.315094 
L 269.431593 168.790972 
L 272.502145 173.678467 
L 275.485905 178.436356 
L 260.68466 189.086981 
L 255.627274 192.725643 
L 248.230876 198.225804 
L 235.531895 198.791452 
L 227.426104 204.446719 
L 214.045308 214.02748 
L 206.095265 203.185087 
L 205.872154 195.151273 
L 215.927963 169.622232 
L 215.927963 169.622232 
" clip-path="url(#p8828699087)" style="fill: none; stroke: #8f8f8f; stroke-width: 0.2; stroke-linecap: square"/>
   </g>
   <g id="line2d_10">
    <path d="M 273.406092 147.529867 
L 277.295807 150.597596 
L 283.116368 163.775601 
L 287.188471 173.139286 
L 281.684561 173.844381 
L 275.485905 178.436356 
L 272.502145 173.678467 
L 269.431593 168.790972 
L 267.363906 160.315094 
L 273.406092 147.529867 
L 273.406092 147.529867 
" clip-path="url(#p8828699087)" style="fill: none; stroke: #8f8f8f; stroke-width: 0.2; stroke-linecap: square"/>
   </g>
   <g id="line2d_11">
    <path d="M 275.485905 178.436356 
L 281.684561 173.844381 
L 287.188471 173.139286 
L 296.982435 195.529109 
L 275.485905 178.436356 
" clip-path="url(#p8828699087)" style="fill: none; stroke: #8f8f8f; stroke-width: 0.2; stroke-linecap: square"/>
   </g>
   <g id="line2d_12">
    <path d="M 275.485905 178.436356 
L 296.982435 195.529109 
L 293.40567 196.202934 
L 279.05269 196.842416 
L 269.910543 197.253956 
L 265.028664 197.461966 
L 248.230876 198.225804 
L 255.627274 192.725643 
L 258.159449 190.698206 
L 260.68466 189.086981 
L 275.485905 178.436356 
" clip-path="url(#p8828699087)" style="fill: none; stroke: #8f8f8f; stroke-width: 0.2; stroke-linecap: square"/>
   </g>
   <g id="line2d_13">
    <path d="M 213.944137 330.966801 
L 218.702726 315.237937 
L 209.295376 309.088843 
L 201.240767 303.331453 
L 201.362968 301.637636 
L 201.838577 294.7101 
L 202.44588 285.633108 
L 202.768513 280.955766 
L 203.243902 273.926864 
L 203.264903 273.724767 
L 210.354905 267.202365 
L 212.916838 260.117425 
L 198.104949 239.510168 
L 195.548169 236.506907 
L 195.887257 227.119304 
L 192.66346 228.478383 
L 192.890575 227.16737 
L 192.242616 226.238295 
L 191.053392 224.610656 
L 190.582869 223.660762 
L 192.546817 220.243644 
L 196.131955 220.135269 
L 196.197958 218.819944 
L 195.821156 216.707983 
L 195.223824 213.273157 
L 194.336377 212.414036 
L 192.582886 210.168938 
L 190.32859 207.772606 
L 186.860743 208.031029 
L 185.131529 203.80247 
L 189.972601 199.834703 
L 192.550568 198.081068 
L 202.459813 191.700196 
L 199.479097 189.59953 
L 196.742999 191.023744 
L 196.438491 184.43027 
L 197.312601 183.74377 
L 189.935329 183.318362 
L 167.412953 181.977103 
L 166.901316 180.668043 
L 165.189281 178.305341 
L 163.321526 177.786201 
L 160.90522 179.401035 
L 159.698533 180.828804 
L 157.698176 180.454619 
L 151.633888 180.667023 
L 149.23337 180.831592 
L 148.576128 180.173491 
L 149.635636 176.842635 
L 147.306036 175.184006 
L 145.357602 176.022218 
L 145.128393 176.216184 
L 143.533503 175.673241 
L 143.909641 174.547331 
L 143.486131 172.807586 
L 140.208712 168.421374 
L 100.584145 298.43688 
L 105.571986 296.387093 
L 123.175747 296.3999 
L 122.19061 307.434302 
L 121.986372 313.07767 
L 129.61284 313.391148 
L 136.852107 319.504753 
L 139.630549 321.38467 
L 145.409034 323.753425 
L 147.02651 325.256453 
L 148.389567 327.940569 
L 151.609161 330.157599 
L 152.270254 330.966144 
L 154.418464 332.459384 
L 155.594137 335.539888 
L 156.153336 337.459047 
L 156.029396 340.140351 
L 173.708012 338.501685 
L 177.637147 337.908553 
L 178.096439 338.504482 
L 178.638365 338.520166 
L 179.343204 339.730947 
L 185.266602 344.264134 
L 188.079106 346.6 
M 188.874928 346.6 
L 191.596 345.840329 
L 195.138279 345.044255 
L 199.293786 343.32324 
L 201.719642 342.292289 
L 208.981091 346.332606 
L 211.499565 346.311303 
L 211.993059 346.321848 
L 215.941033 346.404234 
L 216.094303 346.6 
M 220.53183 346.6 
L 218.899398 342.437472 
L 213.944137 330.966801 
" clip-path="url(#p8828699087)" style="fill: none; stroke: #8f8f8f; stroke-width: 0.2; stroke-linecap: square"/>
   </g>
   <g id="line2d_14">
    <path d="M 195.37282 142.302454 
L 191.910421 129.980044 
L 182.190826 120.089815 
L 167.648188 114.001231 
L 214.097618 76.543664 
L 235.847861 96.154068 
L 254.443779 94.482588 
L 233.188618 112.140511 
L 240.893148 116.500095 
L 238.792223 121.936696 
L 222.126408 128.190045 
L 215.369728 127.438955 
L 217.041367 131.148146 
L 195.37282 142.302454 
" clip-path="url(#p8828699087)" style="fill: none; stroke: #8f8f8f; stroke-width: 0.2; stroke-linecap: square"/>
   </g>
   <g id="line2d_15">
    <path d="M 125.585168 158.361443 
L 139.820029 126.221286 
L 143.410433 123.583478 
L 152.6012 116.858843 
L 154.899333 115.301451 
L 167.648188 114.001231 
L 182.190826 120.089815 
L 191.910421 129.980044 
L 195.37282 142.302454 
L 195.777556 144.795793 
L 194.908972 175.727283 
L 189.935329 183.318362 
L 167.412953 181.977103 
L 166.901316 180.668043 
L 165.189281 178.305341 
L 163.321526 177.786201 
L 160.90522 179.401035 
L 159.698533 180.828804 
L 157.698176 180.454619 
L 151.633888 180.667023 
L 149.23337 180.831592 
L 148.576128 180.173491 
L 149.635636 176.842635 
L 147.306036 175.184006 
L 145.357602 176.022218 
L 145.128393 176.216184 
L 143.533503 175.673241 
L 143.909641 174.547331 
L 143.486131 172.807586 
L 140.208712 168.421374 
L 142.23818 165.054367 
L 141.357672 162.536001 
L 140.962151 161.354525 
L 138.70027 160.276091 
L 138.513664 159.812383 
L 137.414017 160.858048 
L 137.019372 161.247653 
L 136.650583 163.336493 
L 131.666719 168.074571 
L 130.85664 166.266412 
L 126.392548 166.026592 
L 126.352606 162.906847 
L 127.391149 160.416353 
L 127.506246 159.939624 
L 195.777556 144.795793 
L 199.345698 148.992754 
L 201.056959 152.835945 
L 205.970483 163.848605 
L 205.835078 169.493608 
L 205.751924 172.961577 
L 197.312601 183.74377 
L 189.935329 183.318362 
L 194.908972 175.727283 
L 195.777556 144.795793 
L 199.345698 148.992754 
L 201.056959 152.835945 
L 205.970483 163.848605 
L 205.835078 169.493608 
L 205.751924 172.961577 
L 197.312601 183.74377 
L 189.935329 183.318362 
L 194.908972 175.727283 
L 125.585168 158.361443 
" clip-path="url(#p8828699087)" style="fill: none; stroke: #8f8f8f; stroke-width: 0.2; stroke-linecap: square"/>
   </g>
   <g id="line2d_16">
    <path d="M 195.37282 142.302454 
L 191.910421 129.980044 
L 182.190826 120.089815 
L 167.648188 114.001231 
L 214.097618 76.543664 
L 235.847861 96.154068 
L 254.443779 94.482588 
L 233.188618 112.140511 
L 240.893148 116.500095 
L 238.792223 121.936696 
L 222.126408 128.190045 
L 215.369728 127.438955 
L 217.041367 131.148146 
L 195.37282 142.302454 
" clip-path="url(#p8828699087)" style="fill: none; stroke: #8f8f8f; stroke-width: 0.2; stroke-linecap: square"/>
   </g>
   <g id="line2d_17">
    <path d="M 265.804609 93.699794 
L 280.216516 92.577257 
L 306.753068 90.611712 
L 306.753068 105.806185 
L 339.553439 104.434811 
L 348.240225 104.077942 
L 355.50052 125.271426 
L 355.519856 126.917259 
L 325.07581 142.229469 
L 295.273617 135.240039 
L 273.406092 147.529867 
L 261.895536 138.407395 
L 260.014439 137.019281 
L 248.708343 128.595958 
L 256.660119 118.94961 
L 265.804609 93.699794 
" clip-path="url(#p8828699087)" style="fill: none; stroke: #8f8f8f; stroke-width: 0.2; stroke-linecap: square"/>
   </g>
   <g id="line2d_18">
    <path d="M 243.584574 124.089222 
L 254.443779 94.482588 
L 265.804609 93.699794 
L 256.660119 118.94961 
L 248.708343 128.595958 
L 243.584574 124.089222 
" clip-path="url(#p8828699087)" style="fill: none; stroke: #8f8f8f; stroke-width: 0.2; stroke-linecap: square"/>
   </g>
   <g id="line2d_19">
    <path d="M 273.406092 147.529867 
L 295.273617 135.240039 
L 325.07581 142.229469 
L 283.116368 163.775601 
L 277.295807 150.597596 
L 273.406092 147.529867 
" clip-path="url(#p8828699087)" style="fill: none; stroke: #8f8f8f; stroke-width: 0.2; stroke-linecap: square"/>
   </g>
   <g id="line2d_20">
    <path d="M 235.777934 181.297893 
L 242.201901 190.035641 
L 248.230876 198.225804 
L 235.531895 198.791452 
L 227.426104 204.446719 
L 214.045308 214.02748 
L 206.095265 203.185087 
L 219.33897 193.424156 
L 235.777934 181.297893 
" clip-path="url(#p8828699087)" style="fill: none; stroke: #8f8f8f; stroke-width: 0.2; stroke-linecap: square"/>
   </g>
   <g id="line2d_21">
    <path d="M 355.519856 126.917259 
L 355.616496 135.146298 
L 355.750198 146.540021 
L 357.057283 161.236609 
L 357.769223 169.254895 
L 358.338311 175.755454 
L 358.447155 176.893556 
L 353.802456 184.569274 
L 351.419355 188.519656 
L 349.156207 192.214213 
L 345.136501 198.911324 
L 340.931191 205.909704 
L 336.12415 210.958448 
L 333.351755 213.862804 
L 324.163608 214.517786 
L 310.711633 215.513485 
L 307.837413 211.312648 
L 336.329436 194.652405 
L 321.131702 181.717796 
L 296.982435 195.529109 
L 287.188471 173.139286 
L 283.116368 163.775601 
L 325.07581 142.229469 
L 355.519856 126.917259 
" clip-path="url(#p8828699087)" style="fill: none; stroke: #8f8f8f; stroke-width: 0.2; stroke-linecap: square"/>
   </g>
   <g id="line2d_22">
    <path d="M 273.406092 147.529867 
L 277.295807 150.597596 
L 283.116368 163.775601 
L 287.188471 173.139286 
L 296.982435 195.529109 
L 275.485905 178.436356 
L 272.502145 173.678467 
L 269.431593 168.790972 
L 267.363906 160.315094 
L 269.082499 156.684696 
L 273.406092 147.529867 
" clip-path="url(#p8828699087)" style="fill: none; stroke: #8f8f8f; stroke-width: 0.2; stroke-linecap: square"/>
   </g>
   <g id="line2d_23">
    <path d="M 254.443779 94.482588 
L 265.804609 93.699794 
L 256.660119 118.94961 
L 248.708343 128.595958 
L 232.27017 144.365211 
L 221.753039 151.939688 
L 213.892456 153.11502 
L 201.056959 152.835945 
L 199.345698 148.992754 
L 195.777556 144.795793 
L 195.37282 142.302454 
L 217.041367 131.148146 
L 215.369728 127.438955 
L 222.126408 128.190045 
L 238.792223 121.936696 
L 240.893148 116.500095 
L 233.188618 112.140511 
L 254.443779 94.482588 
" clip-path="url(#p8828699087)" style="fill: none; stroke: #8f8f8f; stroke-width: 0.2; stroke-linecap: square"/>
   </g>
   <g id="line2d_24">
    <path d="M 201.056959 152.835945 
L 213.892456 153.11502 
L 221.753039 151.939688 
L 232.27017 144.365211 
L 248.708343 128.595958 
L 260.014439 137.019281 
L 238.855428 152.657302 
L 235.109362 155.532503 
L 229.242017 159.745989 
L 227.063592 161.389302 
L 215.927963 169.622232 
L 205.343928 177.434838 
L 205.872154 195.151273 
L 206.095265 203.185087 
L 195.821156 216.707983 
L 195.223824 213.273157 
L 194.336377 212.414036 
L 192.582886 210.168938 
L 190.32859 207.772606 
L 186.860743 208.031029 
L 185.131529 203.80247 
L 189.972601 199.834703 
L 192.550568 198.081068 
L 202.459813 191.700196 
L 199.479097 189.59953 
L 196.742999 191.023744 
L 196.438491 184.43027 
L 197.312601 183.74377 
L 205.751924 172.961577 
L 205.835078 169.493608 
L 205.970483 163.848605 
L 201.056959 152.835945 
L 201.056959 152.835945 
" clip-path="url(#p8828699087)" style="fill: none; stroke: #ffc380; stroke-width: 0.5; stroke-linecap: square"/>
   </g>
   <g id="line2d_25">
    <path d="M 238.792223 121.936696 
L 243.584574 124.089222 
L 248.708343 128.595958 
L 232.27017 144.365211 
L 221.753039 151.939688 
L 213.892456 153.11502 
L 201.056959 152.835945 
L 199.345698 148.992754 
L 195.777556 144.795793 
L 195.37282 142.302454 
L 217.041367 131.148146 
L 215.369728 127.438955 
L 222.126408 128.190045 
L 238.792223 121.936696 
L 238.792223 121.936696 
" clip-path="url(#p8828699087)" style="fill: none; stroke: #ffc380; stroke-width: 0.5; stroke-linecap: square"/>
   </g>
   <g id="line2d_26">
    <path d="M 195.777556 144.795793 
L 199.345698 148.992754 
L 201.056959 152.835945 
L 205.970483 163.848605 
L 205.835078 169.493608 
L 205.751924 172.961577 
L 197.312601 183.74377 
L 189.935329 183.318362 
L 194.908972 175.727283 
L 195.777556 144.795793 
L 195.777556 144.795793 
" clip-path="url(#p8828699087)" style="fill: none; stroke: #ffc380; stroke-width: 0.5; stroke-linecap: square"/>
   </g>
   <g id="line2d_27">
    <path d="M 189.935329 183.318362 
L 197.312601 183.74377 
L 196.438491 184.43027 
L 196.742999 191.023744 
L 199.479097 189.59953 
L 202.459813 191.700196 
L 192.550568 198.081068 
L 191.023001 189.235044 
L 189.935329 183.318362 
L 189.935329 183.318362 
" clip-path="url(#p8828699087)" style="fill: none; stroke: #ffc380; stroke-width: 0.5; stroke-linecap: square"/>
   </g>
   <g id="line2d_28">
    <path d="M 206.095265 203.185087 
L 214.045308 214.02748 
L 195.887257 227.119304 
L 196.131955 220.135269 
L 196.197958 218.819944 
L 195.821156 216.707983 
L 206.095265 203.185087 
L 206.095265 203.185087 
" clip-path="url(#p8828699087)" style="fill: none; stroke: #ffc380; stroke-width: 0.5; stroke-linecap: square"/>
   </g>
   <g id="line2d_29">
    <path d="M 205.343928 177.434838 
L 205.872154 195.151273 
L 215.927963 169.622232 
L 205.343928 177.434838 
L 205.343928 177.434838 
" clip-path="url(#p8828699087)" style="fill: none; stroke: #ffc380; stroke-width: 0.5; stroke-linecap: square"/>
   </g>
   <g id="line2d_30">
    <path d="M 215.927963 169.622232 
L 227.063592 161.389302 
L 229.242017 159.745989 
L 235.109362 155.532503 
L 238.855428 152.657302 
L 260.014439 137.019281 
L 261.895536 138.407395 
L 273.406092 147.529867 
L 277.295807 150.597596 
L 283.116368 163.775601 
L 287.188471 173.139286 
L 281.684561 173.844381 
L 275.485905 178.436356 
L 260.68466 189.086981 
L 258.159449 190.698206 
L 255.627274 192.725643 
L 248.230876 198.225804 
L 242.201901 190.035641 
L 235.777934 181.297893 
L 219.33897 193.424156 
L 206.095265 203.185087 
L 205.872154 195.151273 
L 215.927963 169.622232 
L 215.927963 169.622232 
" clip-path="url(#p8828699087)" style="fill: none; stroke: #ffc380; stroke-width: 0.5; stroke-linecap: square"/>
   </g>
   <g id="text_1">
    <!-- DKA3 -->
    <g style="opacity: 0.5" transform="translate(222.389138 213.600212)scale(0.0579 -0.0579)">
     <defs>
      <path id="DejaVuSans-44" d="M 1259 4147 
L 1259 519 
L 2022 519 
Q 2988 519 3436 956 
Q 3884 1394 3884 2338 
Q 3884 3275 3436 3711 
Q 2988 4147 2022 4147 
L 1259 4147 
z
M 628 4666 
L 1925 4666 
Q 3281 4666 3915 4102 
Q 4550 3538 4550 2338 
Q 4550 1131 3912 565 
Q 3275 0 1925 0 
L 628 0 
L 628 4666 
z
" transform="scale(0.015625)"/>
      <path id="DejaVuSans-4b" d="M 628 4666 
L 1259 4666 
L 1259 2694 
L 3353 4666 
L 4166 4666 
L 1850 2491 
L 4331 0 
L 3500 0 
L 1259 2247 
L 1259 0 
L 628 0 
L 628 4666 
z
" transform="scale(0.015625)"/>
      <path id="DejaVuSans-41" d="M 2188 4044 
L 1331 1722 
L 3047 1722 
L 2188 4044 
z
M 1831 4666 
L 2547 4666 
L 4325 0 
L 3669 0 
L 3244 1197 
L 1141 1197 
L 716 0 
L 50 0 
L 1831 4666 
z
" transform="scale(0.015625)"/>
      <path id="DejaVuSans-33" d="M 2597 2516 
Q 3050 2419 3304 2112 
Q 3559 1806 3559 1356 
Q 3559 666 3084 287 
Q 2609 -91 1734 -91 
Q 1441 -91 1130 -33 
Q 819 25 488 141 
L 488 750 
Q 750 597 1062 519 
Q 1375 441 1716 441 
Q 2309 441 2620 675 
Q 2931 909 2931 1356 
Q 2931 1769 2642 2001 
Q 2353 2234 1838 2234 
L 1294 2234 
L 1294 2753 
L 1863 2753 
Q 2328 2753 2575 2939 
Q 2822 3125 2822 3475 
Q 2822 3834 2567 4026 
Q 2313 4219 1838 4219 
Q 1578 4219 1281 4162 
Q 984 4106 628 3988 
L 628 4550 
Q 988 4650 1302 4700 
Q 1616 4750 1894 4750 
Q 2613 4750 3031 4423 
Q 3450 4097 3450 3541 
Q 3450 3153 3228 2886 
Q 3006 2619 2597 2516 
z
" transform="scale(0.015625)"/>
     </defs>
     <use xlink:href="#DejaVuSans-44"/>
     <use xlink:href="#DejaVuSans-4b" x="77.001953"/>
     <use xlink:href="#DejaVuSans-41" x="140.828125"/>
     <use xlink:href="#DejaVuSans-33" x="209.236328"/>
    </g>
    <!-- 105 -->
    <g style="opacity: 0.5" transform="translate(224.762585 220.083745)scale(0.0579 -0.0579)">
     <defs>
      <path id="DejaVuSans-31" d="M 794 531 
L 1825 531 
L 1825 4091 
L 703 3866 
L 703 4441 
L 1819 4666 
L 2450 4666 
L 2450 531 
L 3481 531 
L 3481 0 
L 794 0 
L 794 531 
z
" transform="scale(0.015625)"/>
      <path id="DejaVuSans-30" d="M 2034 4250 
Q 1547 4250 1301 3770 
Q 1056 3291 1056 2328 
Q 1056 1369 1301 889 
Q 1547 409 2034 409 
Q 2525 409 2770 889 
Q 3016 1369 3016 2328 
Q 3016 3291 2770 3770 
Q 2525 4250 2034 4250 
z
M 2034 4750 
Q 2819 4750 3233 4129 
Q 3647 3509 3647 2328 
Q 3647 1150 3233 529 
Q 2819 -91 2034 -91 
Q 1250 -91 836 529 
Q 422 1150 422 2328 
Q 422 3509 836 4129 
Q 1250 4750 2034 4750 
z
" transform="scale(0.015625)"/>
      <path id="DejaVuSans-35" d="M 691 4666 
L 3169 4666 
L 3169 4134 
L 1269 4134 
L 1269 2991 
Q 1406 3038 1543 3061 
Q 1681 3084 1819 3084 
Q 2600 3084 3056 2656 
Q 3513 2228 3513 1497 
Q 3513 744 3044 326 
Q 2575 -91 1722 -91 
Q 1428 -91 1123 -41 
Q 819 9 494 109 
L 494 744 
Q 775 591 1075 516 
Q 1375 441 1709 441 
Q 2250 441 2565 725 
Q 2881 1009 2881 1497 
Q 2881 1984 2565 2268 
Q 2250 2553 1709 2553 
Q 1456 2553 1204 2497 
Q 953 2441 691 2322 
L 691 4666 
z
" transform="scale(0.015625)"/>
     </defs>
     <use xlink:href="#DejaVuSans-31"/>
     <use xlink:href="#DejaVuSans-30" x="63.623047"/>
     <use xlink:href="#DejaVuSans-35" x="127.246094"/>
    </g>
    <!-- GND -->
    <g style="opacity: 0.5" transform="translate(223.650272 226.567278)scale(0.0579 -0.0579)">
     <defs>
      <path id="DejaVuSans-47" d="M 3809 666 
L 3809 1919 
L 2778 1919 
L 2778 2438 
L 4434 2438 
L 4434 434 
Q 4069 175 3628 42 
Q 3188 -91 2688 -91 
Q 1594 -91 976 548 
Q 359 1188 359 2328 
Q 359 3472 976 4111 
Q 1594 4750 2688 4750 
Q 3144 4750 3555 4637 
Q 3966 4525 4313 4306 
L 4313 3634 
Q 3963 3931 3569 4081 
Q 3175 4231 2741 4231 
Q 1884 4231 1454 3753 
Q 1025 3275 1025 2328 
Q 1025 1384 1454 906 
Q 1884 428 2741 428 
Q 3075 428 3337 486 
Q 3600 544 3809 666 
z
" transform="scale(0.015625)"/>
      <path id="DejaVuSans-4e" d="M 628 4666 
L 1478 4666 
L 3547 763 
L 3547 4666 
L 4159 4666 
L 4159 0 
L 3309 0 
L 1241 3903 
L 1241 0 
L 628 0 
L 628 4666 
z
" transform="scale(0.015625)"/>
     </defs>
     <use xlink:href="#DejaVuSans-47"/>
     <use xlink:href="#DejaVuSans-4e" x="77.490234"/>
     <use xlink:href="#DejaVuSans-44" x="152.294922"/>
    </g>
   </g>
   <g id="text_2">
    <!-- DUS2 -->
    <g style="opacity: 0.5" transform="translate(232.651285 170.637525)scale(0.0579 -0.0579)">
     <defs>
      <path id="DejaVuSans-55" d="M 556 4666 
L 1191 4666 
L 1191 1831 
Q 1191 1081 1462 751 
Q 1734 422 2344 422 
Q 2950 422 3222 751 
Q 3494 1081 3494 1831 
L 3494 4666 
L 4128 4666 
L 4128 1753 
Q 4128 841 3676 375 
Q 3225 -91 2344 -91 
Q 1459 -91 1007 375 
Q 556 841 556 1753 
L 556 4666 
z
" transform="scale(0.015625)"/>
      <path id="DejaVuSans-53" d="M 3425 4513 
L 3425 3897 
Q 3066 4069 2747 4153 
Q 2428 4238 2131 4238 
Q 1616 4238 1336 4038 
Q 1056 3838 1056 3469 
Q 1056 3159 1242 3001 
Q 1428 2844 1947 2747 
L 2328 2669 
Q 3034 2534 3370 2195 
Q 3706 1856 3706 1288 
Q 3706 609 3251 259 
Q 2797 -91 1919 -91 
Q 1588 -91 1214 -16 
Q 841 59 441 206 
L 441 856 
Q 825 641 1194 531 
Q 1563 422 1919 422 
Q 2459 422 2753 634 
Q 3047 847 3047 1241 
Q 3047 1584 2836 1778 
Q 2625 1972 2144 2069 
L 1759 2144 
Q 1053 2284 737 2584 
Q 422 2884 422 3419 
Q 422 4038 858 4394 
Q 1294 4750 2059 4750 
Q 2388 4750 2728 4690 
Q 3069 4631 3425 4513 
z
" transform="scale(0.015625)"/>
      <path id="DejaVuSans-32" d="M 1228 531 
L 3431 531 
L 3431 0 
L 469 0 
L 469 531 
Q 828 903 1448 1529 
Q 2069 2156 2228 2338 
Q 2531 2678 2651 2914 
Q 2772 3150 2772 3378 
Q 2772 3750 2511 3984 
Q 2250 4219 1831 4219 
Q 1534 4219 1204 4116 
Q 875 4013 500 3803 
L 500 4441 
Q 881 4594 1212 4672 
Q 1544 4750 1819 4750 
Q 2544 4750 2975 4387 
Q 3406 4025 3406 3419 
Q 3406 3131 3298 2873 
Q 3191 2616 2906 2266 
Q 2828 2175 2409 1742 
Q 1991 1309 1228 531 
z
" transform="scale(0.015625)"/>
     </defs>
     <use xlink:href="#DejaVuSans-44"/>
     <use xlink:href="#DejaVuSans-55" x="77.001953"/>
     <use xlink:href="#DejaVuSans-53" x="150.195312"/>
     <use xlink:href="#DejaVuSans-32" x="213.671875"/>
    </g>
    <!-- 155 -->
    <g style="opacity: 0.5" transform="translate(235.153198 177.121059)scale(0.0579 -0.0579)">
     <use xlink:href="#DejaVuSans-31"/>
     <use xlink:href="#DejaVuSans-35" x="63.623047"/>
     <use xlink:href="#DejaVuSans-35" x="127.246094"/>
    </g>
    <!-- GND -->
    <g style="opacity: 0.5" transform="translate(234.040885 183.604592)scale(0.0579 -0.0579)">
     <use xlink:href="#DejaVuSans-47"/>
     <use xlink:href="#DejaVuSans-4e" x="77.490234"/>
     <use xlink:href="#DejaVuSans-44" x="152.294922"/>
    </g>
   </g>
   <g id="text_3">
    <!-- DUS3 -->
    <g style="opacity: 0.5" transform="translate(269.248444 158.097256)scale(0.0579 -0.0579)">
     <use xlink:href="#DejaVuSans-44"/>
     <use xlink:href="#DejaVuSans-55" x="77.001953"/>
     <use xlink:href="#DejaVuSans-53" x="150.195312"/>
     <use xlink:href="#DejaVuSans-33" x="213.671875"/>
    </g>
    <!-- 155 -->
    <g style="opacity: 0.5" transform="translate(271.750357 164.580789)scale(0.0579 -0.0579)">
     <use xlink:href="#DejaVuSans-31"/>
     <use xlink:href="#DejaVuSans-35" x="63.623047"/>
     <use xlink:href="#DejaVuSans-35" x="127.246094"/>
    </g>
    <!-- 65 -->
    <g style="opacity: 0.5" transform="translate(273.592301 171.064323)scale(0.0579 -0.0579)">
     <defs>
      <path id="DejaVuSans-36" d="M 2113 2584 
Q 1688 2584 1439 2293 
Q 1191 2003 1191 1497 
Q 1191 994 1439 701 
Q 1688 409 2113 409 
Q 2538 409 2786 701 
Q 3034 994 3034 1497 
Q 3034 2003 2786 2293 
Q 2538 2584 2113 2584 
z
M 3366 4563 
L 3366 3988 
Q 3128 4100 2886 4159 
Q 2644 4219 2406 4219 
Q 1781 4219 1451 3797 
Q 1122 3375 1075 2522 
Q 1259 2794 1537 2939 
Q 1816 3084 2150 3084 
Q 2853 3084 3261 2657 
Q 3669 2231 3669 1497 
Q 3669 778 3244 343 
Q 2819 -91 2113 -91 
Q 1303 -91 875 529 
Q 447 1150 447 2328 
Q 447 3434 972 4092 
Q 1497 4750 2381 4750 
Q 2619 4750 2861 4703 
Q 3103 4656 3366 4563 
z
" transform="scale(0.015625)"/>
     </defs>
     <use xlink:href="#DejaVuSans-36"/>
     <use xlink:href="#DejaVuSans-35" x="63.623047"/>
    </g>
   </g>
   <g id="text_4">
    <!-- DUS4 -->
    <g style="opacity: 0.5" transform="translate(278.206426 179.448342)scale(0.0579 -0.0579)">
     <defs>
      <path id="DejaVuSans-34" d="M 2419 4116 
L 825 1625 
L 2419 1625 
L 2419 4116 
z
M 2253 4666 
L 3047 4666 
L 3047 1625 
L 3713 1625 
L 3713 1100 
L 3047 1100 
L 3047 0 
L 2419 0 
L 2419 1100 
L 313 1100 
L 313 1709 
L 2253 4666 
z
" transform="scale(0.015625)"/>
     </defs>
     <use xlink:href="#DejaVuSans-44"/>
     <use xlink:href="#DejaVuSans-55" x="77.001953"/>
     <use xlink:href="#DejaVuSans-53" x="150.195312"/>
     <use xlink:href="#DejaVuSans-34" x="213.671875"/>
    </g>
    <!-- 245 -->
    <g style="opacity: 0.5" transform="translate(280.708339 185.931876)scale(0.0579 -0.0579)">
     <use xlink:href="#DejaVuSans-32"/>
     <use xlink:href="#DejaVuSans-34" x="63.623047"/>
     <use xlink:href="#DejaVuSans-35" x="127.246094"/>
    </g>
    <!-- 65 -->
    <g style="opacity: 0.5" transform="translate(282.550283 192.415409)scale(0.0579 -0.0579)">
     <use xlink:href="#DejaVuSans-36"/>
     <use xlink:href="#DejaVuSans-35" x="63.623047"/>
    </g>
   </g>
   <g id="text_5">
    <!-- DUS5 -->
    <g style="opacity: 0.5" transform="translate(264.578911 183.445225)scale(0.0579 -0.0579)">
     <use xlink:href="#DejaVuSans-44"/>
     <use xlink:href="#DejaVuSans-55" x="77.001953"/>
     <use xlink:href="#DejaVuSans-53" x="150.195312"/>
     <use xlink:href="#DejaVuSans-35" x="213.671875"/>
    </g>
    <!-- 245 -->
    <g style="opacity: 0.5" transform="translate(267.080824 189.928758)scale(0.0579 -0.0579)">
     <use xlink:href="#DejaVuSans-32"/>
     <use xlink:href="#DejaVuSans-34" x="63.623047"/>
     <use xlink:href="#DejaVuSans-35" x="127.246094"/>
    </g>
    <!-- GND -->
    <g style="opacity: 0.5" transform="translate(265.968511 196.412292)scale(0.0579 -0.0579)">
     <use xlink:href="#DejaVuSans-47"/>
     <use xlink:href="#DejaVuSans-4e" x="77.490234"/>
     <use xlink:href="#DejaVuSans-44" x="152.294922"/>
    </g>
   </g>
   <g id="text_6">
    <!-- EBBU_E_CTR UPPER -->
    <g style="opacity: 0.5" transform="translate(131.935492 252.989194)scale(0.0579 -0.0579)">
     <defs>
      <path id="DejaVuSans-45" d="M 628 4666 
L 3578 4666 
L 3578 4134 
L 1259 4134 
L 1259 2753 
L 3481 2753 
L 3481 2222 
L 1259 2222 
L 1259 531 
L 3634 531 
L 3634 0 
L 628 0 
L 628 4666 
z
" transform="scale(0.015625)"/>
      <path id="DejaVuSans-42" d="M 1259 2228 
L 1259 519 
L 2272 519 
Q 2781 519 3026 730 
Q 3272 941 3272 1375 
Q 3272 1813 3026 2020 
Q 2781 2228 2272 2228 
L 1259 2228 
z
M 1259 4147 
L 1259 2741 
L 2194 2741 
Q 2656 2741 2882 2914 
Q 3109 3088 3109 3444 
Q 3109 3797 2882 3972 
Q 2656 4147 2194 4147 
L 1259 4147 
z
M 628 4666 
L 2241 4666 
Q 2963 4666 3353 4366 
Q 3744 4066 3744 3513 
Q 3744 3084 3544 2831 
Q 3344 2578 2956 2516 
Q 3422 2416 3680 2098 
Q 3938 1781 3938 1306 
Q 3938 681 3513 340 
Q 3088 0 2303 0 
L 628 0 
L 628 4666 
z
" transform="scale(0.015625)"/>
      <path id="DejaVuSans-5f" d="M 3263 -1063 
L 3263 -1509 
L -63 -1509 
L -63 -1063 
L 3263 -1063 
z
" transform="scale(0.015625)"/>
      <path id="DejaVuSans-43" d="M 4122 4306 
L 4122 3641 
Q 3803 3938 3442 4084 
Q 3081 4231 2675 4231 
Q 1875 4231 1450 3742 
Q 1025 3253 1025 2328 
Q 1025 1406 1450 917 
Q 1875 428 2675 428 
Q 3081 428 3442 575 
Q 3803 722 4122 1019 
L 4122 359 
Q 3791 134 3420 21 
Q 3050 -91 2638 -91 
Q 1578 -91 968 557 
Q 359 1206 359 2328 
Q 359 3453 968 4101 
Q 1578 4750 2638 4750 
Q 3056 4750 3426 4639 
Q 3797 4528 4122 4306 
z
" transform="scale(0.015625)"/>
      <path id="DejaVuSans-54" d="M -19 4666 
L 3928 4666 
L 3928 4134 
L 2272 4134 
L 2272 0 
L 1638 0 
L 1638 4134 
L -19 4134 
L -19 4666 
z
" transform="scale(0.015625)"/>
      <path id="DejaVuSans-52" d="M 2841 2188 
Q 3044 2119 3236 1894 
Q 3428 1669 3622 1275 
L 4263 0 
L 3584 0 
L 2988 1197 
Q 2756 1666 2539 1819 
Q 2322 1972 1947 1972 
L 1259 1972 
L 1259 0 
L 628 0 
L 628 4666 
L 2053 4666 
Q 2853 4666 3247 4331 
Q 3641 3997 3641 3322 
Q 3641 2881 3436 2590 
Q 3231 2300 2841 2188 
z
M 1259 4147 
L 1259 2491 
L 2053 2491 
Q 2509 2491 2742 2702 
Q 2975 2913 2975 3322 
Q 2975 3731 2742 3939 
Q 2509 4147 2053 4147 
L 1259 4147 
z
" transform="scale(0.015625)"/>
      <path id="DejaVuSans-20" transform="scale(0.015625)"/>
      <path id="DejaVuSans-50" d="M 1259 4147 
L 1259 2394 
L 2053 2394 
Q 2494 2394 2734 2622 
Q 2975 2850 2975 3272 
Q 2975 3691 2734 3919 
Q 2494 4147 2053 4147 
L 1259 4147 
z
M 628 4666 
L 2053 4666 
Q 2838 4666 3239 4311 
Q 3641 3956 3641 3272 
Q 3641 2581 3239 2228 
Q 2838 1875 2053 1875 
L 1259 1875 
L 1259 0 
L 628 0 
L 628 4666 
z
" transform="scale(0.015625)"/>
     </defs>
     <use xlink:href="#DejaVuSans-45"/>
     <use xlink:href="#DejaVuSans-42" x="63.183594"/>
     <use xlink:href="#DejaVuSans-42" x="131.787109"/>
     <use xlink:href="#DejaVuSans-55" x="200.390625"/>
     <use xlink:href="#DejaVuSans-5f" x="273.583984"/>
     <use xlink:href="#DejaVuSans-45" x="323.583984"/>
     <use xlink:href="#DejaVuSans-5f" x="386.767578"/>
     <use xlink:href="#DejaVuSans-43" x="436.767578"/>
     <use xlink:href="#DejaVuSans-54" x="506.591797"/>
     <use xlink:href="#DejaVuSans-52" x="567.675781"/>
     <use xlink:href="#DejaVuSans-20" x="637.158203"/>
     <use xlink:href="#DejaVuSans-55" x="668.945312"/>
     <use xlink:href="#DejaVuSans-50" x="742.138672"/>
     <use xlink:href="#DejaVuSans-50" x="802.441406"/>
     <use xlink:href="#DejaVuSans-45" x="862.744141"/>
     <use xlink:href="#DejaVuSans-52" x="925.927734"/>
    </g>
    <!-- 245 -->
    <g style="opacity: 0.5" transform="translate(155.226672 259.633761)scale(0.0579 -0.0579)">
     <use xlink:href="#DejaVuSans-32"/>
     <use xlink:href="#DejaVuSans-34" x="63.623047"/>
     <use xlink:href="#DejaVuSans-35" x="127.246094"/>
    </g>
    <!-- 195 -->
    <g style="opacity: 0.5" transform="translate(155.226672 266.117295)scale(0.0579 -0.0579)">
     <defs>
      <path id="DejaVuSans-39" d="M 703 97 
L 703 672 
Q 941 559 1184 500 
Q 1428 441 1663 441 
Q 2288 441 2617 861 
Q 2947 1281 2994 2138 
Q 2813 1869 2534 1725 
Q 2256 1581 1919 1581 
Q 1219 1581 811 2004 
Q 403 2428 403 3163 
Q 403 3881 828 4315 
Q 1253 4750 1959 4750 
Q 2769 4750 3195 4129 
Q 3622 3509 3622 2328 
Q 3622 1225 3098 567 
Q 2575 -91 1691 -91 
Q 1453 -91 1209 -44 
Q 966 3 703 97 
z
M 1959 2075 
Q 2384 2075 2632 2365 
Q 2881 2656 2881 3163 
Q 2881 3666 2632 3958 
Q 2384 4250 1959 4250 
Q 1534 4250 1286 3958 
Q 1038 3666 1038 3163 
Q 1038 2656 1286 2365 
Q 1534 2075 1959 2075 
z
" transform="scale(0.015625)"/>
     </defs>
     <use xlink:href="#DejaVuSans-31"/>
     <use xlink:href="#DejaVuSans-39" x="63.623047"/>
     <use xlink:href="#DejaVuSans-35" x="127.246094"/>
    </g>
   </g>
   <g id="text_7">
    <!-- EHAA CTA E2 -->
    <g style="opacity: 0.5" transform="translate(191.94215 104.537203)scale(0.0579 -0.0579)">
     <defs>
      <path id="DejaVuSans-48" d="M 628 4666 
L 1259 4666 
L 1259 2753 
L 3553 2753 
L 3553 4666 
L 4184 4666 
L 4184 0 
L 3553 0 
L 3553 2222 
L 1259 2222 
L 1259 0 
L 628 0 
L 628 4666 
z
" transform="scale(0.015625)"/>
     </defs>
     <use xlink:href="#DejaVuSans-45"/>
     <use xlink:href="#DejaVuSans-48" x="63.183594"/>
     <use xlink:href="#DejaVuSans-41" x="138.378906"/>
     <use xlink:href="#DejaVuSans-41" x="209.537109"/>
     <use xlink:href="#DejaVuSans-20" x="277.945312"/>
     <use xlink:href="#DejaVuSans-43" x="309.732422"/>
     <use xlink:href="#DejaVuSans-54" x="379.556641"/>
     <use xlink:href="#DejaVuSans-41" x="432.890625"/>
     <use xlink:href="#DejaVuSans-20" x="501.298828"/>
     <use xlink:href="#DejaVuSans-45" x="533.085938"/>
     <use xlink:href="#DejaVuSans-32" x="596.269531"/>
    </g>
    <!-- 245 -->
    <g style="opacity: 0.5" transform="translate(205.520152 111.020737)scale(0.0579 -0.0579)">
     <use xlink:href="#DejaVuSans-32"/>
     <use xlink:href="#DejaVuSans-34" x="63.623047"/>
     <use xlink:href="#DejaVuSans-35" x="127.246094"/>
    </g>
    <!-- 95 -->
    <g style="opacity: 0.5" transform="translate(207.362096 117.50427)scale(0.0579 -0.0579)">
     <use xlink:href="#DejaVuSans-39"/>
     <use xlink:href="#DejaVuSans-35" x="63.623047"/>
    </g>
   </g>
   <g id="text_8">
    <!-- EHMC TMA D -->
    <g style="opacity: 0.5" transform="translate(146.936351 143.986645)scale(0.0579 -0.0579)">
     <defs>
      <path id="DejaVuSans-4d" d="M 628 4666 
L 1569 4666 
L 2759 1491 
L 3956 4666 
L 4897 4666 
L 4897 0 
L 4281 0 
L 4281 4097 
L 3078 897 
L 2444 897 
L 1241 4097 
L 1241 0 
L 628 0 
L 628 4666 
z
" transform="scale(0.015625)"/>
     </defs>
     <use xlink:href="#DejaVuSans-45"/>
     <use xlink:href="#DejaVuSans-48" x="63.183594"/>
     <use xlink:href="#DejaVuSans-4d" x="138.378906"/>
     <use xlink:href="#DejaVuSans-43" x="224.658203"/>
     <use xlink:href="#DejaVuSans-20" x="294.482422"/>
     <use xlink:href="#DejaVuSans-54" x="326.269531"/>
     <use xlink:href="#DejaVuSans-4d" x="387.353516"/>
     <use xlink:href="#DejaVuSans-41" x="473.632812"/>
     <use xlink:href="#DejaVuSans-20" x="542.041016"/>
     <use xlink:href="#DejaVuSans-44" x="573.828125"/>
    </g>
    <!-- 245 -->
    <g style="opacity: 0.5" transform="translate(160.251994 150.470179)scale(0.0579 -0.0579)">
     <use xlink:href="#DejaVuSans-32"/>
     <use xlink:href="#DejaVuSans-34" x="63.623047"/>
     <use xlink:href="#DejaVuSans-35" x="127.246094"/>
    </g>
    <!-- 15 -->
    <g style="opacity: 0.5" transform="translate(162.093938 156.953712)scale(0.0579 -0.0579)">
     <use xlink:href="#DejaVuSans-31"/>
     <use xlink:href="#DejaVuSans-35" x="63.623047"/>
    </g>
   </g>
   <g id="text_9">
    <!-- EHMC TMA E -->
    <g style="opacity: 0.5" transform="translate(192.604381 104.537203)scale(0.0579 -0.0579)">
     <use xlink:href="#DejaVuSans-45"/>
     <use xlink:href="#DejaVuSans-48" x="63.183594"/>
     <use xlink:href="#DejaVuSans-4d" x="138.378906"/>
     <use xlink:href="#DejaVuSans-43" x="224.658203"/>
     <use xlink:href="#DejaVuSans-20" x="294.482422"/>
     <use xlink:href="#DejaVuSans-54" x="326.269531"/>
     <use xlink:href="#DejaVuSans-4d" x="387.353516"/>
     <use xlink:href="#DejaVuSans-41" x="473.632812"/>
     <use xlink:href="#DejaVuSans-20" x="542.041016"/>
     <use xlink:href="#DejaVuSans-45" x="573.828125"/>
    </g>
    <!-- 95 -->
    <g style="opacity: 0.5" transform="translate(207.362096 111.020737)scale(0.0579 -0.0579)">
     <use xlink:href="#DejaVuSans-39"/>
     <use xlink:href="#DejaVuSans-35" x="63.623047"/>
    </g>
    <!-- 15 -->
    <g style="opacity: 0.5" transform="translate(207.362096 117.50427)scale(0.0579 -0.0579)">
     <use xlink:href="#DejaVuSans-31"/>
     <use xlink:href="#DejaVuSans-35" x="63.623047"/>
    </g>
   </g>
   <g id="text_10">
    <!-- HMM1 -->
    <g style="opacity: 0.5" transform="translate(293.099341 114.184934)scale(0.0579 -0.0579)">
     <use xlink:href="#DejaVuSans-48"/>
     <use xlink:href="#DejaVuSans-4d" x="75.195312"/>
     <use xlink:href="#DejaVuSans-4d" x="161.474609"/>
     <use xlink:href="#DejaVuSans-31" x="247.753906"/>
    </g>
    <!-- 245 -->
    <g style="opacity: 0.5" transform="translate(296.588268 120.668468)scale(0.0579 -0.0579)">
     <use xlink:href="#DejaVuSans-32"/>
     <use xlink:href="#DejaVuSans-34" x="63.623047"/>
     <use xlink:href="#DejaVuSans-35" x="127.246094"/>
    </g>
    <!-- GND -->
    <g style="opacity: 0.5" transform="translate(295.475955 127.152001)scale(0.0579 -0.0579)">
     <use xlink:href="#DejaVuSans-47"/>
     <use xlink:href="#DejaVuSans-4e" x="77.490234"/>
     <use xlink:href="#DejaVuSans-44" x="152.294922"/>
    </g>
   </g>
   <g id="text_11">
    <!-- HMM2 -->
    <g style="opacity: 0.5" transform="translate(245.679833 106.26202)scale(0.0579 -0.0579)">
     <use xlink:href="#DejaVuSans-48"/>
     <use xlink:href="#DejaVuSans-4d" x="75.195312"/>
     <use xlink:href="#DejaVuSans-4d" x="161.474609"/>
     <use xlink:href="#DejaVuSans-32" x="247.753906"/>
    </g>
    <!-- 205 -->
    <g style="opacity: 0.5" transform="translate(249.168761 112.745554)scale(0.0579 -0.0579)">
     <use xlink:href="#DejaVuSans-32"/>
     <use xlink:href="#DejaVuSans-30" x="63.623047"/>
     <use xlink:href="#DejaVuSans-35" x="127.246094"/>
    </g>
    <!-- GND -->
    <g style="opacity: 0.5" transform="translate(248.056447 119.229087)scale(0.0579 -0.0579)">
     <use xlink:href="#DejaVuSans-47"/>
     <use xlink:href="#DejaVuSans-4e" x="77.490234"/>
     <use xlink:href="#DejaVuSans-44" x="152.294922"/>
    </g>
   </g>
   <g id="text_12">
    <!-- HMM3 -->
    <g style="opacity: 0.5" transform="translate(290.226192 144.621965)scale(0.0579 -0.0579)">
     <use xlink:href="#DejaVuSans-48"/>
     <use xlink:href="#DejaVuSans-4d" x="75.195312"/>
     <use xlink:href="#DejaVuSans-4d" x="161.474609"/>
     <use xlink:href="#DejaVuSans-33" x="247.753906"/>
    </g>
    <!-- 245 -->
    <g style="opacity: 0.5" transform="translate(293.715119 151.105498)scale(0.0579 -0.0579)">
     <use xlink:href="#DejaVuSans-32"/>
     <use xlink:href="#DejaVuSans-34" x="63.623047"/>
     <use xlink:href="#DejaVuSans-35" x="127.246094"/>
    </g>
    <!-- 75 -->
    <g style="opacity: 0.5" transform="translate(295.557063 157.589032)scale(0.0579 -0.0579)">
     <defs>
      <path id="DejaVuSans-37" d="M 525 4666 
L 3525 4666 
L 3525 4397 
L 1831 0 
L 1172 0 
L 2766 4134 
L 525 4134 
L 525 4666 
z
" transform="scale(0.015625)"/>
     </defs>
     <use xlink:href="#DejaVuSans-37"/>
     <use xlink:href="#DejaVuSans-35" x="63.623047"/>
    </g>
   </g>
   <g id="text_13">
    <!-- NOR2 -->
    <g style="opacity: 0.5" transform="translate(218.864825 192.776831)scale(0.0579 -0.0579)">
     <defs>
      <path id="DejaVuSans-4f" d="M 2522 4238 
Q 1834 4238 1429 3725 
Q 1025 3213 1025 2328 
Q 1025 1447 1429 934 
Q 1834 422 2522 422 
Q 3209 422 3611 934 
Q 4013 1447 4013 2328 
Q 4013 3213 3611 3725 
Q 3209 4238 2522 4238 
z
M 2522 4750 
Q 3503 4750 4090 4092 
Q 4678 3434 4678 2328 
Q 4678 1225 4090 567 
Q 3503 -91 2522 -91 
Q 1538 -91 948 565 
Q 359 1222 359 2328 
Q 359 3434 948 4092 
Q 1538 4750 2522 4750 
z
" transform="scale(0.015625)"/>
     </defs>
     <use xlink:href="#DejaVuSans-4e"/>
     <use xlink:href="#DejaVuSans-4f" x="74.804688"/>
     <use xlink:href="#DejaVuSans-52" x="153.515625"/>
     <use xlink:href="#DejaVuSans-32" x="222.998047"/>
    </g>
    <!-- 245 -->
    <g style="opacity: 0.5" transform="translate(221.63724 199.260365)scale(0.0579 -0.0579)">
     <use xlink:href="#DejaVuSans-32"/>
     <use xlink:href="#DejaVuSans-34" x="63.623047"/>
     <use xlink:href="#DejaVuSans-35" x="127.246094"/>
    </g>
    <!-- 155 -->
    <g style="opacity: 0.5" transform="translate(221.63724 205.743898)scale(0.0579 -0.0579)">
     <use xlink:href="#DejaVuSans-31"/>
     <use xlink:href="#DejaVuSans-35" x="63.623047"/>
     <use xlink:href="#DejaVuSans-35" x="127.246094"/>
    </g>
   </g>
   <g id="text_14">
    <!-- PADH1 -->
    <g style="opacity: 0.5" transform="translate(310.992138 166.329517)scale(0.0579 -0.0579)">
     <use xlink:href="#DejaVuSans-50"/>
     <use xlink:href="#DejaVuSans-41" x="53.927734"/>
     <use xlink:href="#DejaVuSans-44" x="122.335938"/>
     <use xlink:href="#DejaVuSans-48" x="199.337891"/>
     <use xlink:href="#DejaVuSans-31" x="274.533203"/>
    </g>
    <!-- 245 -->
    <g style="opacity: 0.5" transform="translate(315.255931 172.81305)scale(0.0579 -0.0579)">
     <use xlink:href="#DejaVuSans-32"/>
     <use xlink:href="#DejaVuSans-34" x="63.623047"/>
     <use xlink:href="#DejaVuSans-35" x="127.246094"/>
    </g>
    <!-- 135 -->
    <g style="opacity: 0.5" transform="translate(315.255931 179.296584)scale(0.0579 -0.0579)">
     <use xlink:href="#DejaVuSans-31"/>
     <use xlink:href="#DejaVuSans-33" x="63.623047"/>
     <use xlink:href="#DejaVuSans-35" x="127.246094"/>
    </g>
   </g>
   <g id="text_15">
    <!-- PADL4 -->
    <g style="opacity: 0.5" transform="translate(272.94762 166.643633)scale(0.0579 -0.0579)">
     <defs>
      <path id="DejaVuSans-4c" d="M 628 4666 
L 1259 4666 
L 1259 531 
L 3531 531 
L 3531 0 
L 628 0 
L 628 4666 
z
" transform="scale(0.015625)"/>
     </defs>
     <use xlink:href="#DejaVuSans-50"/>
     <use xlink:href="#DejaVuSans-41" x="53.927734"/>
     <use xlink:href="#DejaVuSans-44" x="122.335938"/>
     <use xlink:href="#DejaVuSans-4c" x="199.337891"/>
     <use xlink:href="#DejaVuSans-34" x="255.050781"/>
    </g>
    <!-- 65 -->
    <g style="opacity: 0.5" transform="translate(278.489283 173.127166)scale(0.0579 -0.0579)">
     <use xlink:href="#DejaVuSans-36"/>
     <use xlink:href="#DejaVuSans-35" x="63.623047"/>
    </g>
    <!-- GND -->
    <g style="opacity: 0.5" transform="translate(275.535026 179.610699)scale(0.0579 -0.0579)">
     <use xlink:href="#DejaVuSans-47"/>
     <use xlink:href="#DejaVuSans-4e" x="77.490234"/>
     <use xlink:href="#DejaVuSans-44" x="152.294922"/>
    </g>
   </g>
   <g id="text_16">
    <!-- TEBRO AREA -->
    <g style="opacity: 0.5" transform="translate(211.992863 118.521551)scale(0.0579 -0.0579)">
     <use xlink:href="#DejaVuSans-54"/>
     <use xlink:href="#DejaVuSans-45" x="61.083984"/>
     <use xlink:href="#DejaVuSans-42" x="124.267578"/>
     <use xlink:href="#DejaVuSans-52" x="192.871094"/>
     <use xlink:href="#DejaVuSans-4f" x="262.353516"/>
     <use xlink:href="#DejaVuSans-20" x="341.064453"/>
     <use xlink:href="#DejaVuSans-41" x="372.851562"/>
     <use xlink:href="#DejaVuSans-52" x="441.259766"/>
     <use xlink:href="#DejaVuSans-45" x="510.742188"/>
     <use xlink:href="#DejaVuSans-41" x="573.925781"/>
    </g>
    <!-- 245 -->
    <g style="opacity: 0.5" transform="translate(225.062883 125.005085)scale(0.0579 -0.0579)">
     <use xlink:href="#DejaVuSans-32"/>
     <use xlink:href="#DejaVuSans-34" x="63.623047"/>
     <use xlink:href="#DejaVuSans-35" x="127.246094"/>
    </g>
    <!-- 205 -->
    <g style="opacity: 0.5" transform="translate(225.062883 131.488618)scale(0.0579 -0.0579)">
     <use xlink:href="#DejaVuSans-32"/>
     <use xlink:href="#DejaVuSans-30" x="63.623047"/>
     <use xlink:href="#DejaVuSans-35" x="127.246094"/>
    </g>
   </g>
   <g id="text_17">
    <!-- BOT1 -->
    <g transform="translate(214.748342 167.766115)scale(0.0579 -0.0579)">
     <use xlink:href="#DejaVuSans-42"/>
     <use xlink:href="#DejaVuSans-4f" x="66.853516"/>
     <use xlink:href="#DejaVuSans-54" x="145.564453"/>
     <use xlink:href="#DejaVuSans-31" x="206.648438"/>
    </g>
    <!-- 245 -->
    <g transform="translate(217.047153 174.249648)scale(0.0579 -0.0579)">
     <use xlink:href="#DejaVuSans-32"/>
     <use xlink:href="#DejaVuSans-34" x="63.623047"/>
     <use xlink:href="#DejaVuSans-35" x="127.246094"/>
    </g>
    <!-- GND -->
    <g transform="translate(215.93484 180.733182)scale(0.0579 -0.0579)">
     <use xlink:href="#DejaVuSans-47"/>
     <use xlink:href="#DejaVuSans-4e" x="77.490234"/>
     <use xlink:href="#DejaVuSans-44" x="152.294922"/>
    </g>
   </g>
   <g id="text_18">
    <!-- BOT2 -->
    <g transform="translate(214.215939 132.640002)scale(0.0579 -0.0579)">
     <use xlink:href="#DejaVuSans-42"/>
     <use xlink:href="#DejaVuSans-4f" x="66.853516"/>
     <use xlink:href="#DejaVuSans-54" x="145.564453"/>
     <use xlink:href="#DejaVuSans-32" x="206.648438"/>
    </g>
    <!-- 205 -->
    <g transform="translate(216.51475 139.123536)scale(0.0579 -0.0579)">
     <use xlink:href="#DejaVuSans-32"/>
     <use xlink:href="#DejaVuSans-30" x="63.623047"/>
     <use xlink:href="#DejaVuSans-35" x="127.246094"/>
    </g>
    <!-- GND -->
    <g transform="translate(215.402437 145.607069)scale(0.0579 -0.0579)">
     <use xlink:href="#DejaVuSans-47"/>
     <use xlink:href="#DejaVuSans-4e" x="77.490234"/>
     <use xlink:href="#DejaVuSans-44" x="152.294922"/>
    </g>
   </g>
   <g id="text_19">
    <!-- BOT3 -->
    <g transform="translate(190.128264 159.383926)scale(0.0579 -0.0579)">
     <use xlink:href="#DejaVuSans-42"/>
     <use xlink:href="#DejaVuSans-4f" x="66.853516"/>
     <use xlink:href="#DejaVuSans-54" x="145.564453"/>
     <use xlink:href="#DejaVuSans-33" x="206.648438"/>
    </g>
    <!-- 195 -->
    <g transform="translate(192.427075 165.86746)scale(0.0579 -0.0579)">
     <use xlink:href="#DejaVuSans-31"/>
     <use xlink:href="#DejaVuSans-39" x="63.623047"/>
     <use xlink:href="#DejaVuSans-35" x="127.246094"/>
    </g>
    <!-- 30 -->
    <g transform="translate(194.269018 172.350993)scale(0.0579 -0.0579)">
     <use xlink:href="#DejaVuSans-33"/>
     <use xlink:href="#DejaVuSans-30" x="63.623047"/>
    </g>
   </g>
   <g id="text_20">
    <!-- BOT4 -->
    <g transform="translate(188.372929 185.81386)scale(0.0579 -0.0579)">
     <use xlink:href="#DejaVuSans-42"/>
     <use xlink:href="#DejaVuSans-4f" x="66.853516"/>
     <use xlink:href="#DejaVuSans-54" x="145.564453"/>
     <use xlink:href="#DejaVuSans-34" x="206.648438"/>
    </g>
    <!-- 195 -->
    <g transform="translate(190.67174 192.297393)scale(0.0579 -0.0579)">
     <use xlink:href="#DejaVuSans-31"/>
     <use xlink:href="#DejaVuSans-39" x="63.623047"/>
     <use xlink:href="#DejaVuSans-35" x="127.246094"/>
    </g>
    <!-- 15 -->
    <g transform="translate(192.513683 198.780927)scale(0.0579 -0.0579)">
     <use xlink:href="#DejaVuSans-31"/>
     <use xlink:href="#DejaVuSans-35" x="63.623047"/>
    </g>
   </g>
   <g id="text_21">
    <!-- BOT5 -->
    <g transform="translate(197.10859 210.266341)scale(0.0579 -0.0579)">
     <use xlink:href="#DejaVuSans-42"/>
     <use xlink:href="#DejaVuSans-4f" x="66.853516"/>
     <use xlink:href="#DejaVuSans-54" x="145.564453"/>
     <use xlink:href="#DejaVuSans-35" x="206.648438"/>
    </g>
    <!-- 105 -->
    <g transform="translate(199.407401 216.749874)scale(0.0579 -0.0579)">
     <use xlink:href="#DejaVuSans-31"/>
     <use xlink:href="#DejaVuSans-30" x="63.623047"/>
     <use xlink:href="#DejaVuSans-35" x="127.246094"/>
    </g>
    <!-- GND -->
    <g transform="translate(198.295088 223.233407)scale(0.0579 -0.0579)">
     <use xlink:href="#DejaVuSans-47"/>
     <use xlink:href="#DejaVuSans-4e" x="77.490234"/>
     <use xlink:href="#DejaVuSans-44" x="152.294922"/>
    </g>
   </g>
   <g id="text_22">
    <!-- BOT6 -->
    <g transform="translate(202.811303 177.500897)scale(0.0579 -0.0579)">
     <use xlink:href="#DejaVuSans-42"/>
     <use xlink:href="#DejaVuSans-4f" x="66.853516"/>
     <use xlink:href="#DejaVuSans-54" x="145.564453"/>
     <use xlink:href="#DejaVuSans-36" x="206.648438"/>
    </g>
    <!-- 245 -->
    <g transform="translate(205.110114 183.984431)scale(0.0579 -0.0579)">
     <use xlink:href="#DejaVuSans-32"/>
     <use xlink:href="#DejaVuSans-34" x="63.623047"/>
     <use xlink:href="#DejaVuSans-35" x="127.246094"/>
    </g>
    <!-- 75 -->
    <g transform="translate(206.952058 190.467964)scale(0.0579 -0.0579)">
     <use xlink:href="#DejaVuSans-37"/>
     <use xlink:href="#DejaVuSans-35" x="63.623047"/>
    </g>
   </g>
   <g id="text_23">
    <!-- BOT7 -->
    <g transform="translate(238.70567 165.216329)scale(0.0579 -0.0579)">
     <use xlink:href="#DejaVuSans-42"/>
     <use xlink:href="#DejaVuSans-4f" x="66.853516"/>
     <use xlink:href="#DejaVuSans-54" x="145.564453"/>
     <use xlink:href="#DejaVuSans-37" x="206.648438"/>
    </g>
    <!-- 245 -->
    <g transform="translate(241.004481 171.699862)scale(0.0579 -0.0579)">
     <use xlink:href="#DejaVuSans-32"/>
     <use xlink:href="#DejaVuSans-34" x="63.623047"/>
     <use xlink:href="#DejaVuSans-35" x="127.246094"/>
    </g>
    <!-- 155 -->
    <g transform="translate(241.004481 178.183396)scale(0.0579 -0.0579)">
     <use xlink:href="#DejaVuSans-31"/>
     <use xlink:href="#DejaVuSans-35" x="63.623047"/>
     <use xlink:href="#DejaVuSans-35" x="127.246094"/>
    </g>
   </g>
  </g>
 </g>
 <defs>
  <clipPath id="p8828699087">
   <rect x="107.057969" y="41.472" width="258.204063" height="266.112"/>
  </clipPath>
 </defs>
</svg>
