<?xml version="1.0" encoding="utf-8" standalone="no"?>
<!DOCTYPE svg PUBLIC "-//W3C//DTD SVG 1.1//EN"
  "http://www.w3.org/Graphics/SVG/1.1/DTD/svg11.dtd">
<svg xmlns:xlink="http://www.w3.org/1999/xlink" width="460.8pt" height="345.6pt" viewBox="0 0 460.8 345.6" xmlns="http://www.w3.org/2000/svg" version="1.1">
 <metadata>
  <rdf:RDF xmlns:dc="http://purl.org/dc/elements/1.1/" xmlns:cc="http://creativecommons.org/ns#" xmlns:rdf="http://www.w3.org/1999/02/22-rdf-syntax-ns#">
   <cc:Work>
    <dc:type rdf:resource="http://purl.org/dc/dcmitype/StillImage"/>
    <dc:date>2022-04-26T16:19:45.750146</dc:date>
    <dc:format>image/svg+xml</dc:format>
    <dc:creator>
     <cc:Agent>
      <dc:title>Matplotlib v3.5.0, https://matplotlib.org/</dc:title>
     </cc:Agent>
    </dc:creator>
   </cc:Work>
  </rdf:RDF>
 </metadata>
 <defs>
  <style type="text/css">*{stroke-linejoin: round; stroke-linecap: butt}</style>
 </defs>
 <g id="figure_1">
  <g id="patch_1">
   <path d="M 0 345.6 
L 460.8 345.6 
L 460.8 0 
L 0 0 
z
" style="fill: #ffffff"/>
  </g>
  <g id="axes_1">
   <g id="patch_2">
    <path d="M 260.544405 93.888 
L 260.816328 100.023915 
L 261.640557 116.873723 
L 262.831493 141.068193 
L 263.129544 147.116829 
L 271.406059 196.188225 
L 246.56883 197.49435 
L 217.876197 206.169366 
L 198.842996 203.237983 
L 178.279692 206.345013 
L 201.030193 159.931746 
L 189.0443 135.53633 
L 198.830473 131.734191 
L 201.376605 126.918674 
L 201.560631 104.334288 
L 200.148098 96.06102 
L 206.679906 95.823842 
z
" clip-path="url(#p1c0ee9a476)" style="fill: #ffedd9; stroke: #ffedd9; stroke-linejoin: miter"/>
   </g>
   <g id="patch_3">
    <path d="M 271.406059 196.188225 
L 294.040308 217.815095 
L 283.337358 228.692006 
L 261.193196 244.01525 
L 245.101852 255.168 
L 224.178637 238.935463 
L 212.424583 229.834826 
L 178.279692 206.345013 
L 198.842996 203.237983 
L 217.876197 206.169366 
L 246.56883 197.49435 
z
" clip-path="url(#p1c0ee9a476)" style="fill: #ffedd9; stroke: #ffedd9; stroke-linejoin: miter"/>
   </g>
   <g id="patch_4">
    <path d="M 206.440139 148.863821 
L 223.196596 161.088022 
L 271.406059 196.188225 
L 246.56883 197.49435 
L 217.876197 206.169366 
L 198.842996 203.237983 
L 178.279692 206.345013 
L 201.030193 159.931746 
z
" clip-path="url(#p1c0ee9a476)" style="fill: #ffedd9; stroke: #ffedd9; stroke-linejoin: miter"/>
   </g>
   <g id="patch_5">
    <path d="M 260.544405 93.888 
L 260.816328 100.023915 
L 261.640557 116.873723 
L 262.831493 141.068193 
L 263.129544 147.116829 
L 271.406059 196.188225 
L 246.56883 197.49435 
L 217.876197 206.169366 
L 198.842996 203.237983 
L 178.279692 206.345013 
L 201.030193 159.931746 
L 189.0443 135.53633 
L 198.830473 131.734191 
L 201.376605 126.918674 
L 201.560631 104.334288 
L 200.148098 96.06102 
L 206.679906 95.823842 
L 260.544405 93.888 
z
" clip-path="url(#p1c0ee9a476)" style="fill: #ffedd9; stroke: #ffedd9; stroke-linejoin: miter"/>
   </g>
   <g id="patch_6">
    <path d="M 271.406059 196.188225 
L 294.040308 217.815095 
L 283.337358 228.692006 
L 261.193196 244.01525 
L 245.101852 255.168 
L 224.178637 238.935463 
L 212.424583 229.834826 
L 178.279692 206.345013 
L 198.842996 203.237983 
L 217.876197 206.169366 
L 246.56883 197.49435 
L 271.406059 196.188225 
z
" clip-path="url(#p1c0ee9a476)" style="fill: #ffedd9; stroke: #ffedd9; stroke-linejoin: miter"/>
   </g>
   <g id="patch_7">
    <path d="M 206.440139 148.863821 
L 223.196596 161.088022 
L 271.406059 196.188225 
L 246.56883 197.49435 
L 217.876197 206.169366 
L 198.842996 203.237983 
L 178.279692 206.345013 
L 201.030193 159.931746 
L 206.440139 148.863821 
z
" clip-path="url(#p1c0ee9a476)" style="fill: #ffedd9; stroke: #ffedd9; stroke-linejoin: miter"/>
   </g>
   <g id="line2d_1">
    <path d="M 260.544405 93.888 
L 260.816328 100.023915 
L 261.640557 116.873723 
L 262.831493 141.068193 
L 263.129544 147.116829 
L 271.406059 196.188225 
L 246.56883 197.49435 
L 217.876197 206.169366 
L 198.842996 203.237983 
L 178.279692 206.345013 
L 201.030193 159.931746 
L 189.0443 135.53633 
L 198.830473 131.734191 
L 201.376605 126.918674 
L 201.560631 104.334288 
L 200.148098 96.06102 
L 206.679906 95.823842 
L 260.544405 93.888 
" clip-path="url(#p1c0ee9a476)" style="fill: none; stroke: #ffc380; stroke-width: 0.5; stroke-linecap: square"/>
   </g>
   <g id="line2d_2">
    <path d="M 271.406059 196.188225 
L 294.040308 217.815095 
L 283.337358 228.692006 
L 261.193196 244.01525 
L 245.101852 255.168 
L 224.178637 238.935463 
L 212.424583 229.834826 
L 178.279692 206.345013 
L 198.842996 203.237983 
L 217.876197 206.169366 
L 246.56883 197.49435 
L 271.406059 196.188225 
" clip-path="url(#p1c0ee9a476)" style="fill: none; stroke: #ffc380; stroke-width: 0.5; stroke-linecap: square"/>
   </g>
   <g id="line2d_3">
    <path d="M 206.440139 148.863821 
L 223.196596 161.088022 
L 271.406059 196.188225 
L 246.56883 197.49435 
L 217.876197 206.169366 
L 198.842996 203.237983 
L 178.279692 206.345013 
L 201.030193 159.931746 
L 206.440139 148.863821 
" clip-path="url(#p1c0ee9a476)" style="fill: none; stroke: #ffc380; stroke-width: 0.5; stroke-linecap: square"/>
   </g>
   <g id="line2d_4">
    <path d="M 95.956596 84.677182 
L 174.072326 54.996532 
L 192.070677 48.182409 
L 200.148098 96.06102 
L 201.560631 104.334288 
L 185.279037 127.82865 
L 151.749358 120.051779 
L 149.890332 129.509837 
L 103.274105 103.550861 
L 95.956596 84.677182 
" clip-path="url(#p1c0ee9a476)" style="fill: none; stroke: #8f8f8f; stroke-width: 0.2; stroke-linecap: square"/>
   </g>
   <g id="line2d_5">
    <path d="M 461.8 174.23853 
L 440.462969 200.238346 
L 439.186586 208.105817 
L 434.378603 213.560415 
L 349.712671 222.017943 
L 303.099206 226.717011 
L 294.040308 217.815095 
L 271.406059 196.188225 
L 263.129544 147.116829 
L 262.831493 141.068193 
L 261.640557 116.873723 
L 260.816328 100.023915 
L 260.544405 93.888 
L 259.244884 67.836414 
L 258.649567 55.652684 
L 260.553397 51.87284 
L 273.979454 25.134869 
L 277.885112 17.432158 
L 280.38716 12.414493 
L 281.617662 10.555124 
L 289.463967 -1 
M 461.8 140.867522 
L 438.152468 157.771078 
L 417.230814 172.68635 
L 330.965902 175.460634 
L 278.098783 87.87586 
L 258.649567 55.652684 
L 260.553397 51.87284 
L 273.979454 25.134869 
L 277.885112 17.432158 
L 280.38716 12.414493 
L 281.617662 10.555124 
L 289.463967 -1 
" clip-path="url(#p1c0ee9a476)" style="fill: none; stroke: #8f8f8f; stroke-width: 0.2; stroke-linecap: square"/>
   </g>
   <g id="line2d_6">
    <path d="M 183.080372 130.987751 
L 189.0443 135.53633 
L 201.030193 159.931746 
L 178.279692 206.345013 
L 149.905714 209.132848 
L 139.364731 180.61574 
L 140.28952 168.709015 
L 142.5344 140.175282 
L 142.742117 135.328355 
L 144.832981 134.951009 
L 153.055451 133.481327 
L 159.586315 132.93999 
L 183.080372 130.987751 
" clip-path="url(#p1c0ee9a476)" style="fill: none; stroke: #8f8f8f; stroke-width: 0.2; stroke-linecap: square"/>
   </g>
   <g id="line2d_7">
    <path d="M 260.544405 93.888 
L 260.816328 100.023915 
L 230.745625 123.037465 
L 221.768898 149.011042 
L 223.196596 161.088022 
L 206.440139 148.863821 
L 189.0443 135.53633 
L 198.830473 131.734191 
L 201.376605 126.918674 
L 208.037851 103.837845 
L 206.679906 95.823842 
L 260.544405 93.888 
" clip-path="url(#p1c0ee9a476)" style="fill: none; stroke: #8f8f8f; stroke-width: 0.2; stroke-linecap: square"/>
   </g>
   <g id="line2d_8">
    <path d="M 260.816328 100.023915 
L 261.640557 116.873723 
L 262.831493 141.068193 
L 263.129544 147.116829 
L 271.406059 196.188225 
L 223.196596 161.088022 
L 221.768898 149.011042 
L 230.745625 123.037465 
L 260.816328 100.023915 
" clip-path="url(#p1c0ee9a476)" style="fill: none; stroke: #8f8f8f; stroke-width: 0.2; stroke-linecap: square"/>
   </g>
   <g id="line2d_9">
    <path d="M 206.679906 95.823842 
L 208.037851 103.837845 
L 201.376605 126.918674 
L 201.560631 104.334288 
L 200.148098 96.06102 
L 206.679906 95.823842 
" clip-path="url(#p1c0ee9a476)" style="fill: none; stroke: #8f8f8f; stroke-width: 0.2; stroke-linecap: square"/>
   </g>
   <g id="line2d_10">
    <path d="M 178.279692 206.345013 
L 212.424583 229.834826 
L 224.178637 238.935463 
L 245.101852 255.168 
L 212.840414 277.499653 
L 200.940672 248.267233 
L 157.507808 249.019014 
L 153.060445 298.054245 
L 130.774855 283.797555 
L 123.048954 278.833194 
L 117.930169 261.895388 
L 132.980174 258.8127 
L 133.764058 249.460114 
L 136.984507 211.65896 
L 139.701879 210.150207 
L 149.905714 209.132848 
L 178.279692 206.345013 
" clip-path="url(#p1c0ee9a476)" style="fill: none; stroke: #8f8f8f; stroke-width: 0.2; stroke-linecap: square"/>
   </g>
   <g id="line2d_11">
    <path d="M 201.560631 104.334288 
L 201.376605 126.918674 
L 198.830473 131.734191 
L 189.0443 135.53633 
L 183.080372 130.987751 
L 185.279037 127.82865 
L 201.560631 104.334288 
" clip-path="url(#p1c0ee9a476)" style="fill: none; stroke: #8f8f8f; stroke-width: 0.2; stroke-linecap: square"/>
   </g>
   <g id="line2d_12">
    <path d="M 178.279692 206.345013 
L 212.424583 229.834826 
L 224.178637 238.935463 
L 245.101852 255.168 
L 212.840414 277.499653 
L 206.50126 281.886001 
L 127.331147 307.110882 
L 119.145313 308.722121 
L 112.925971 310.0014 
L 75.159262 281.159455 
L 75.339098 262.994603 
L 76.003712 250.36275 
L 68.87819 238.162849 
L 70.759969 213.417094 
L 102.505885 214.136355 
L 131.350588 214.805884 
L 136.984507 211.65896 
L 139.701879 210.150207 
L 149.905714 209.132848 
L 178.279692 206.345013 
" clip-path="url(#p1c0ee9a476)" style="fill: none; stroke: #8f8f8f; stroke-width: 0.2; stroke-linecap: square"/>
   </g>
   <g id="line2d_13">
    <path d="M 271.406059 196.188225 
L 273.736133 207.365393 
L 283.337358 228.692006 
L 261.193196 244.01525 
L 245.101852 255.168 
L 224.178637 238.935463 
L 212.424583 229.834826 
L 178.279692 206.345013 
L 198.842996 203.237983 
L 217.876197 206.169366 
L 246.56883 197.49435 
L 271.406059 196.188225 
" clip-path="url(#p1c0ee9a476)" style="fill: none; stroke: #8f8f8f; stroke-width: 0.2; stroke-linecap: square"/>
   </g>
   <g id="line2d_14">
    <path d="M 271.406059 196.188225 
L 294.040308 217.815095 
L 283.337358 228.692006 
L 273.736133 207.365393 
L 271.406059 196.188225 
" clip-path="url(#p1c0ee9a476)" style="fill: none; stroke: #8f8f8f; stroke-width: 0.2; stroke-linecap: square"/>
   </g>
   <g id="line2d_15">
    <path d="M 260.544405 93.888 
L 260.816328 100.023915 
L 261.640557 116.873723 
L 262.831493 141.068193 
L 263.129544 147.116829 
L 271.406059 196.188225 
L 246.56883 197.49435 
L 217.876197 206.169366 
L 198.842996 203.237983 
L 178.279692 206.345013 
L 201.030193 159.931746 
L 189.0443 135.53633 
L 198.830473 131.734191 
L 201.376605 126.918674 
L 201.560631 104.334288 
L 200.148098 96.06102 
L 206.679906 95.823842 
L 260.544405 93.888 
L 260.544405 93.888 
" clip-path="url(#p1c0ee9a476)" style="fill: none; stroke: #ffc380; stroke-width: 0.5; stroke-linecap: square"/>
   </g>
   <g id="line2d_16">
    <path d="M 271.406059 196.188225 
L 294.040308 217.815095 
L 283.337358 228.692006 
L 261.193196 244.01525 
L 245.101852 255.168 
L 224.178637 238.935463 
L 212.424583 229.834826 
L 178.279692 206.345013 
L 198.842996 203.237983 
L 217.876197 206.169366 
L 246.56883 197.49435 
L 271.406059 196.188225 
L 271.406059 196.188225 
" clip-path="url(#p1c0ee9a476)" style="fill: none; stroke: #ffc380; stroke-width: 0.5; stroke-linecap: square"/>
   </g>
   <g id="line2d_17">
    <path d="M 206.440139 148.863821 
L 223.196596 161.088022 
L 271.406059 196.188225 
L 246.56883 197.49435 
L 217.876197 206.169366 
L 198.842996 203.237983 
L 178.279692 206.345013 
L 201.030193 159.931746 
L 206.440139 148.863821 
L 206.440139 148.863821 
" clip-path="url(#p1c0ee9a476)" style="fill: none; stroke: #ffc380; stroke-width: 0.5; stroke-linecap: square"/>
   </g>
   <g id="text_1">
    <!-- ADF6 -->
    <g style="opacity: 0.5" transform="translate(141.042081 83.960267)scale(0.0579 -0.0579)">
     <defs>
      <path id="DejaVuSans-41" d="M 2188 4044 
L 1331 1722 
L 3047 1722 
L 2188 4044 
z
M 1831 4666 
L 2547 4666 
L 4325 0 
L 3669 0 
L 3244 1197 
L 1141 1197 
L 716 0 
L 50 0 
L 1831 4666 
z
" transform="scale(0.015625)"/>
      <path id="DejaVuSans-44" d="M 1259 4147 
L 1259 519 
L 2022 519 
Q 2988 519 3436 956 
Q 3884 1394 3884 2338 
Q 3884 3275 3436 3711 
Q 2988 4147 2022 4147 
L 1259 4147 
z
M 628 4666 
L 1925 4666 
Q 3281 4666 3915 4102 
Q 4550 3538 4550 2338 
Q 4550 1131 3912 565 
Q 3275 0 1925 0 
L 628 0 
L 628 4666 
z
" transform="scale(0.015625)"/>
      <path id="DejaVuSans-46" d="M 628 4666 
L 3309 4666 
L 3309 4134 
L 1259 4134 
L 1259 2759 
L 3109 2759 
L 3109 2228 
L 1259 2228 
L 1259 0 
L 628 0 
L 628 4666 
z
" transform="scale(0.015625)"/>
      <path id="DejaVuSans-36" d="M 2113 2584 
Q 1688 2584 1439 2293 
Q 1191 2003 1191 1497 
Q 1191 994 1439 701 
Q 1688 409 2113 409 
Q 2538 409 2786 701 
Q 3034 994 3034 1497 
Q 3034 2003 2786 2293 
Q 2538 2584 2113 2584 
z
M 3366 4563 
L 3366 3988 
Q 3128 4100 2886 4159 
Q 2644 4219 2406 4219 
Q 1781 4219 1451 3797 
Q 1122 3375 1075 2522 
Q 1259 2794 1537 2939 
Q 1816 3084 2150 3084 
Q 2853 3084 3261 2657 
Q 3669 2231 3669 1497 
Q 3669 778 3244 343 
Q 2819 -91 2113 -91 
Q 1303 -91 875 529 
Q 447 1150 447 2328 
Q 447 3434 972 4092 
Q 1497 4750 2381 4750 
Q 2619 4750 2861 4703 
Q 3103 4656 3366 4563 
z
" transform="scale(0.015625)"/>
     </defs>
     <use xlink:href="#DejaVuSans-41"/>
     <use xlink:href="#DejaVuSans-44" x="68.408203"/>
     <use xlink:href="#DejaVuSans-46" x="145.410156"/>
     <use xlink:href="#DejaVuSans-36" x="202.929688"/>
    </g>
    <!-- 135 -->
    <g style="opacity: 0.5" transform="translate(143.232782 90.443801)scale(0.0579 -0.0579)">
     <defs>
      <path id="DejaVuSans-31" d="M 794 531 
L 1825 531 
L 1825 4091 
L 703 3866 
L 703 4441 
L 1819 4666 
L 2450 4666 
L 2450 531 
L 3481 531 
L 3481 0 
L 794 0 
L 794 531 
z
" transform="scale(0.015625)"/>
      <path id="DejaVuSans-33" d="M 2597 2516 
Q 3050 2419 3304 2112 
Q 3559 1806 3559 1356 
Q 3559 666 3084 287 
Q 2609 -91 1734 -91 
Q 1441 -91 1130 -33 
Q 819 25 488 141 
L 488 750 
Q 750 597 1062 519 
Q 1375 441 1716 441 
Q 2309 441 2620 675 
Q 2931 909 2931 1356 
Q 2931 1769 2642 2001 
Q 2353 2234 1838 2234 
L 1294 2234 
L 1294 2753 
L 1863 2753 
Q 2328 2753 2575 2939 
Q 2822 3125 2822 3475 
Q 2822 3834 2567 4026 
Q 2313 4219 1838 4219 
Q 1578 4219 1281 4162 
Q 984 4106 628 3988 
L 628 4550 
Q 988 4650 1302 4700 
Q 1616 4750 1894 4750 
Q 2613 4750 3031 4423 
Q 3450 4097 3450 3541 
Q 3450 3153 3228 2886 
Q 3006 2619 2597 2516 
z
" transform="scale(0.015625)"/>
      <path id="DejaVuSans-35" d="M 691 4666 
L 3169 4666 
L 3169 4134 
L 1269 4134 
L 1269 2991 
Q 1406 3038 1543 3061 
Q 1681 3084 1819 3084 
Q 2600 3084 3056 2656 
Q 3513 2228 3513 1497 
Q 3513 744 3044 326 
Q 2575 -91 1722 -91 
Q 1428 -91 1123 -41 
Q 819 9 494 109 
L 494 744 
Q 775 591 1075 516 
Q 1375 441 1709 441 
Q 2250 441 2565 725 
Q 2881 1009 2881 1497 
Q 2881 1984 2565 2268 
Q 2250 2553 1709 2553 
Q 1456 2553 1204 2497 
Q 953 2441 691 2322 
L 691 4666 
z
" transform="scale(0.015625)"/>
     </defs>
     <use xlink:href="#DejaVuSans-31"/>
     <use xlink:href="#DejaVuSans-33" x="63.623047"/>
     <use xlink:href="#DejaVuSans-35" x="127.246094"/>
    </g>
    <!-- GND -->
    <g style="opacity: 0.5" transform="translate(142.120469 96.927334)scale(0.0579 -0.0579)">
     <defs>
      <path id="DejaVuSans-47" d="M 3809 666 
L 3809 1919 
L 2778 1919 
L 2778 2438 
L 4434 2438 
L 4434 434 
Q 4069 175 3628 42 
Q 3188 -91 2688 -91 
Q 1594 -91 976 548 
Q 359 1188 359 2328 
Q 359 3472 976 4111 
Q 1594 4750 2688 4750 
Q 3144 4750 3555 4637 
Q 3966 4525 4313 4306 
L 4313 3634 
Q 3963 3931 3569 4081 
Q 3175 4231 2741 4231 
Q 1884 4231 1454 3753 
Q 1025 3275 1025 2328 
Q 1025 1384 1454 906 
Q 1884 428 2741 428 
Q 3075 428 3337 486 
Q 3600 544 3809 666 
z
" transform="scale(0.015625)"/>
      <path id="DejaVuSans-4e" d="M 628 4666 
L 1478 4666 
L 3547 763 
L 3547 4666 
L 4159 4666 
L 4159 0 
L 3309 0 
L 1241 3903 
L 1241 0 
L 628 0 
L 628 4666 
z
" transform="scale(0.015625)"/>
     </defs>
     <use xlink:href="#DejaVuSans-47"/>
     <use xlink:href="#DejaVuSans-4e" x="77.490234"/>
     <use xlink:href="#DejaVuSans-44" x="152.294922"/>
    </g>
   </g>
   <g id="text_2">
    <!-- EDMMFRKL -->
    <g style="opacity: 0.5" transform="translate(363.875387 96.329117)scale(0.0579 -0.0579)">
     <defs>
      <path id="DejaVuSans-45" d="M 628 4666 
L 3578 4666 
L 3578 4134 
L 1259 4134 
L 1259 2753 
L 3481 2753 
L 3481 2222 
L 1259 2222 
L 1259 531 
L 3634 531 
L 3634 0 
L 628 0 
L 628 4666 
z
" transform="scale(0.015625)"/>
      <path id="DejaVuSans-4d" d="M 628 4666 
L 1569 4666 
L 2759 1491 
L 3956 4666 
L 4897 4666 
L 4897 0 
L 4281 0 
L 4281 4097 
L 3078 897 
L 2444 897 
L 1241 4097 
L 1241 0 
L 628 0 
L 628 4666 
z
" transform="scale(0.015625)"/>
      <path id="DejaVuSans-52" d="M 2841 2188 
Q 3044 2119 3236 1894 
Q 3428 1669 3622 1275 
L 4263 0 
L 3584 0 
L 2988 1197 
Q 2756 1666 2539 1819 
Q 2322 1972 1947 1972 
L 1259 1972 
L 1259 0 
L 628 0 
L 628 4666 
L 2053 4666 
Q 2853 4666 3247 4331 
Q 3641 3997 3641 3322 
Q 3641 2881 3436 2590 
Q 3231 2300 2841 2188 
z
M 1259 4147 
L 1259 2491 
L 2053 2491 
Q 2509 2491 2742 2702 
Q 2975 2913 2975 3322 
Q 2975 3731 2742 3939 
Q 2509 4147 2053 4147 
L 1259 4147 
z
" transform="scale(0.015625)"/>
      <path id="DejaVuSans-4b" d="M 628 4666 
L 1259 4666 
L 1259 2694 
L 3353 4666 
L 4166 4666 
L 1850 2491 
L 4331 0 
L 3500 0 
L 1259 2247 
L 1259 0 
L 628 0 
L 628 4666 
z
" transform="scale(0.015625)"/>
      <path id="DejaVuSans-4c" d="M 628 4666 
L 1259 4666 
L 1259 531 
L 3531 531 
L 3531 0 
L 628 0 
L 628 4666 
z
" transform="scale(0.015625)"/>
     </defs>
     <use xlink:href="#DejaVuSans-45"/>
     <use xlink:href="#DejaVuSans-44" x="63.183594"/>
     <use xlink:href="#DejaVuSans-4d" x="140.185547"/>
     <use xlink:href="#DejaVuSans-4d" x="226.464844"/>
     <use xlink:href="#DejaVuSans-46" x="312.744141"/>
     <use xlink:href="#DejaVuSans-52" x="370.263672"/>
     <use xlink:href="#DejaVuSans-4b" x="439.746094"/>
     <use xlink:href="#DejaVuSans-4c" x="505.322266"/>
    </g>
    <!-- 135 -->
    <g style="opacity: 0.5" transform="translate(374.591863 102.81265)scale(0.0579 -0.0579)">
     <use xlink:href="#DejaVuSans-31"/>
     <use xlink:href="#DejaVuSans-33" x="63.623047"/>
     <use xlink:href="#DejaVuSans-35" x="127.246094"/>
    </g>
    <!-- GND -->
    <g style="opacity: 0.5" transform="translate(373.47955 109.296184)scale(0.0579 -0.0579)">
     <use xlink:href="#DejaVuSans-47"/>
     <use xlink:href="#DejaVuSans-4e" x="77.490234"/>
     <use xlink:href="#DejaVuSans-44" x="152.294922"/>
    </g>
   </g>
   <g id="text_3">
    <!-- KNG1 -->
    <g style="opacity: 0.5" transform="translate(162.048037 165.174445)scale(0.0579 -0.0579)">
     <use xlink:href="#DejaVuSans-4b"/>
     <use xlink:href="#DejaVuSans-4e" x="65.576172"/>
     <use xlink:href="#DejaVuSans-47" x="140.380859"/>
     <use xlink:href="#DejaVuSans-31" x="217.871094"/>
    </g>
    <!-- 245 -->
    <g style="opacity: 0.5" transform="translate(164.671631 171.657978)scale(0.0579 -0.0579)">
     <defs>
      <path id="DejaVuSans-32" d="M 1228 531 
L 3431 531 
L 3431 0 
L 469 0 
L 469 531 
Q 828 903 1448 1529 
Q 2069 2156 2228 2338 
Q 2531 2678 2651 2914 
Q 2772 3150 2772 3378 
Q 2772 3750 2511 3984 
Q 2250 4219 1831 4219 
Q 1534 4219 1204 4116 
Q 875 4013 500 3803 
L 500 4441 
Q 881 4594 1212 4672 
Q 1544 4750 1819 4750 
Q 2544 4750 2975 4387 
Q 3406 4025 3406 3419 
Q 3406 3131 3298 2873 
Q 3191 2616 2906 2266 
Q 2828 2175 2409 1742 
Q 1991 1309 1228 531 
z
" transform="scale(0.015625)"/>
      <path id="DejaVuSans-34" d="M 2419 4116 
L 825 1625 
L 2419 1625 
L 2419 4116 
z
M 2253 4666 
L 3047 4666 
L 3047 1625 
L 3713 1625 
L 3713 1100 
L 3047 1100 
L 3047 0 
L 2419 0 
L 2419 1100 
L 313 1100 
L 313 1709 
L 2253 4666 
z
" transform="scale(0.015625)"/>
     </defs>
     <use xlink:href="#DejaVuSans-32"/>
     <use xlink:href="#DejaVuSans-34" x="63.623047"/>
     <use xlink:href="#DejaVuSans-35" x="127.246094"/>
    </g>
    <!-- GND -->
    <g style="opacity: 0.5" transform="translate(163.559318 178.141511)scale(0.0579 -0.0579)">
     <use xlink:href="#DejaVuSans-47"/>
     <use xlink:href="#DejaVuSans-4e" x="77.490234"/>
     <use xlink:href="#DejaVuSans-44" x="152.294922"/>
    </g>
   </g>
   <g id="text_4">
    <!-- KTG2 -->
    <g style="opacity: 0.5" transform="translate(217.402862 122.602156)scale(0.0579 -0.0579)">
     <defs>
      <path id="DejaVuSans-54" d="M -19 4666 
L 3928 4666 
L 3928 4134 
L 2272 4134 
L 2272 0 
L 1638 0 
L 1638 4134 
L -19 4134 
L -19 4666 
z
" transform="scale(0.015625)"/>
     </defs>
     <use xlink:href="#DejaVuSans-4b"/>
     <use xlink:href="#DejaVuSans-54" x="57.826172"/>
     <use xlink:href="#DejaVuSans-47" x="118.910156"/>
     <use xlink:href="#DejaVuSans-32" x="196.400391"/>
    </g>
    <!-- 195 -->
    <g style="opacity: 0.5" transform="translate(219.404483 129.085689)scale(0.0579 -0.0579)">
     <defs>
      <path id="DejaVuSans-39" d="M 703 97 
L 703 672 
Q 941 559 1184 500 
Q 1428 441 1663 441 
Q 2288 441 2617 861 
Q 2947 1281 2994 2138 
Q 2813 1869 2534 1725 
Q 2256 1581 1919 1581 
Q 1219 1581 811 2004 
Q 403 2428 403 3163 
Q 403 3881 828 4315 
Q 1253 4750 1959 4750 
Q 2769 4750 3195 4129 
Q 3622 3509 3622 2328 
Q 3622 1225 3098 567 
Q 2575 -91 1691 -91 
Q 1453 -91 1209 -44 
Q 966 3 703 97 
z
M 1959 2075 
Q 2384 2075 2632 2365 
Q 2881 2656 2881 3163 
Q 2881 3666 2632 3958 
Q 2384 4250 1959 4250 
Q 1534 4250 1286 3958 
Q 1038 3666 1038 3163 
Q 1038 2656 1286 2365 
Q 1534 2075 1959 2075 
z
" transform="scale(0.015625)"/>
     </defs>
     <use xlink:href="#DejaVuSans-31"/>
     <use xlink:href="#DejaVuSans-39" x="63.623047"/>
     <use xlink:href="#DejaVuSans-35" x="127.246094"/>
    </g>
    <!-- 85 -->
    <g style="opacity: 0.5" transform="translate(221.246427 135.569222)scale(0.0579 -0.0579)">
     <defs>
      <path id="DejaVuSans-38" d="M 2034 2216 
Q 1584 2216 1326 1975 
Q 1069 1734 1069 1313 
Q 1069 891 1326 650 
Q 1584 409 2034 409 
Q 2484 409 2743 651 
Q 3003 894 3003 1313 
Q 3003 1734 2745 1975 
Q 2488 2216 2034 2216 
z
M 1403 2484 
Q 997 2584 770 2862 
Q 544 3141 544 3541 
Q 544 4100 942 4425 
Q 1341 4750 2034 4750 
Q 2731 4750 3128 4425 
Q 3525 4100 3525 3541 
Q 3525 3141 3298 2862 
Q 3072 2584 2669 2484 
Q 3125 2378 3379 2068 
Q 3634 1759 3634 1313 
Q 3634 634 3220 271 
Q 2806 -91 2034 -91 
Q 1263 -91 848 271 
Q 434 634 434 1313 
Q 434 1759 690 2068 
Q 947 2378 1403 2484 
z
M 1172 3481 
Q 1172 3119 1398 2916 
Q 1625 2713 2034 2713 
Q 2441 2713 2670 2916 
Q 2900 3119 2900 3481 
Q 2900 3844 2670 4047 
Q 2441 4250 2034 4250 
Q 1625 4250 1398 4047 
Q 1172 3844 1172 3481 
z
" transform="scale(0.015625)"/>
     </defs>
     <use xlink:href="#DejaVuSans-38"/>
     <use xlink:href="#DejaVuSans-35" x="63.623047"/>
    </g>
   </g>
   <g id="text_5">
    <!-- KTG4 -->
    <g style="opacity: 0.5" transform="translate(239.060026 143.220215)scale(0.0579 -0.0579)">
     <use xlink:href="#DejaVuSans-4b"/>
     <use xlink:href="#DejaVuSans-54" x="57.826172"/>
     <use xlink:href="#DejaVuSans-47" x="118.910156"/>
     <use xlink:href="#DejaVuSans-34" x="196.400391"/>
    </g>
    <!-- 135 -->
    <g style="opacity: 0.5" transform="translate(241.061647 149.703748)scale(0.0579 -0.0579)">
     <use xlink:href="#DejaVuSans-31"/>
     <use xlink:href="#DejaVuSans-33" x="63.623047"/>
     <use xlink:href="#DejaVuSans-35" x="127.246094"/>
    </g>
    <!-- 85 -->
    <g style="opacity: 0.5" transform="translate(242.903591 156.187282)scale(0.0579 -0.0579)">
     <use xlink:href="#DejaVuSans-38"/>
     <use xlink:href="#DejaVuSans-35" x="63.623047"/>
    </g>
   </g>
   <g id="text_6">
    <!-- KTG5 -->
    <g style="opacity: 0.5" transform="translate(196.565522 106.485402)scale(0.0579 -0.0579)">
     <use xlink:href="#DejaVuSans-4b"/>
     <use xlink:href="#DejaVuSans-54" x="57.826172"/>
     <use xlink:href="#DejaVuSans-47" x="118.910156"/>
     <use xlink:href="#DejaVuSans-35" x="196.400391"/>
    </g>
    <!-- 195 -->
    <g style="opacity: 0.5" transform="translate(198.567144 112.968936)scale(0.0579 -0.0579)">
     <use xlink:href="#DejaVuSans-31"/>
     <use xlink:href="#DejaVuSans-39" x="63.623047"/>
     <use xlink:href="#DejaVuSans-35" x="127.246094"/>
    </g>
    <!-- 85 -->
    <g style="opacity: 0.5" transform="translate(200.409087 119.452469)scale(0.0579 -0.0579)">
     <use xlink:href="#DejaVuSans-38"/>
     <use xlink:href="#DejaVuSans-35" x="63.623047"/>
    </g>
   </g>
   <g id="text_7">
    <!-- LBU1 -->
    <g style="opacity: 0.5" transform="translate(173.955989 247.313774)scale(0.0579 -0.0579)">
     <defs>
      <path id="DejaVuSans-42" d="M 1259 2228 
L 1259 519 
L 2272 519 
Q 2781 519 3026 730 
Q 3272 941 3272 1375 
Q 3272 1813 3026 2020 
Q 2781 2228 2272 2228 
L 1259 2228 
z
M 1259 4147 
L 1259 2741 
L 2194 2741 
Q 2656 2741 2882 2914 
Q 3109 3088 3109 3444 
Q 3109 3797 2882 3972 
Q 2656 4147 2194 4147 
L 1259 4147 
z
M 628 4666 
L 2241 4666 
Q 2963 4666 3353 4366 
Q 3744 4066 3744 3513 
Q 3744 3084 3544 2831 
Q 3344 2578 2956 2516 
Q 3422 2416 3680 2098 
Q 3938 1781 3938 1306 
Q 3938 681 3513 340 
Q 3088 0 2303 0 
L 628 0 
L 628 4666 
z
" transform="scale(0.015625)"/>
      <path id="DejaVuSans-55" d="M 556 4666 
L 1191 4666 
L 1191 1831 
Q 1191 1081 1462 751 
Q 1734 422 2344 422 
Q 2950 422 3222 751 
Q 3494 1081 3494 1831 
L 3494 4666 
L 4128 4666 
L 4128 1753 
Q 4128 841 3676 375 
Q 3225 -91 2344 -91 
Q 1459 -91 1007 375 
Q 556 841 556 1753 
L 556 4666 
z
" transform="scale(0.015625)"/>
     </defs>
     <use xlink:href="#DejaVuSans-4c"/>
     <use xlink:href="#DejaVuSans-42" x="55.712891"/>
     <use xlink:href="#DejaVuSans-55" x="124.316406"/>
     <use xlink:href="#DejaVuSans-31" x="197.509766"/>
    </g>
    <!-- 245 -->
    <g style="opacity: 0.5" transform="translate(175.990179 253.797307)scale(0.0579 -0.0579)">
     <use xlink:href="#DejaVuSans-32"/>
     <use xlink:href="#DejaVuSans-34" x="63.623047"/>
     <use xlink:href="#DejaVuSans-35" x="127.246094"/>
    </g>
    <!-- 145 -->
    <g style="opacity: 0.5" transform="translate(175.990179 260.280841)scale(0.0579 -0.0579)">
     <use xlink:href="#DejaVuSans-31"/>
     <use xlink:href="#DejaVuSans-34" x="63.623047"/>
     <use xlink:href="#DejaVuSans-35" x="127.246094"/>
    </g>
   </g>
   <g id="text_8">
    <!-- PSA2 -->
    <g style="opacity: 0.5" transform="translate(184.860448 115.049453)scale(0.0579 -0.0579)">
     <defs>
      <path id="DejaVuSans-50" d="M 1259 4147 
L 1259 2394 
L 2053 2394 
Q 2494 2394 2734 2622 
Q 2975 2850 2975 3272 
Q 2975 3691 2734 3919 
Q 2494 4147 2053 4147 
L 1259 4147 
z
M 628 4666 
L 2053 4666 
Q 2838 4666 3239 4311 
Q 3641 3956 3641 3272 
Q 3641 2581 3239 2228 
Q 2838 1875 2053 1875 
L 1259 1875 
L 1259 0 
L 628 0 
L 628 4666 
z
" transform="scale(0.015625)"/>
      <path id="DejaVuSans-53" d="M 3425 4513 
L 3425 3897 
Q 3066 4069 2747 4153 
Q 2428 4238 2131 4238 
Q 1616 4238 1336 4038 
Q 1056 3838 1056 3469 
Q 1056 3159 1242 3001 
Q 1428 2844 1947 2747 
L 2328 2669 
Q 3034 2534 3370 2195 
Q 3706 1856 3706 1288 
Q 3706 609 3251 259 
Q 2797 -91 1919 -91 
Q 1588 -91 1214 -16 
Q 841 59 441 206 
L 441 856 
Q 825 641 1194 531 
Q 1563 422 1919 422 
Q 2459 422 2753 634 
Q 3047 847 3047 1241 
Q 3047 1584 2836 1778 
Q 2625 1972 2144 2069 
L 1759 2144 
Q 1053 2284 737 2584 
Q 422 2884 422 3419 
Q 422 4038 858 4394 
Q 1294 4750 2059 4750 
Q 2388 4750 2728 4690 
Q 3069 4631 3425 4513 
z
" transform="scale(0.015625)"/>
     </defs>
     <use xlink:href="#DejaVuSans-50"/>
     <use xlink:href="#DejaVuSans-53" x="60.302734"/>
     <use xlink:href="#DejaVuSans-41" x="125.654297"/>
     <use xlink:href="#DejaVuSans-32" x="194.0625"/>
    </g>
    <!-- 195 -->
    <g style="opacity: 0.5" transform="translate(186.79467 121.532987)scale(0.0579 -0.0579)">
     <use xlink:href="#DejaVuSans-31"/>
     <use xlink:href="#DejaVuSans-39" x="63.623047"/>
     <use xlink:href="#DejaVuSans-35" x="127.246094"/>
    </g>
    <!-- GND -->
    <g style="opacity: 0.5" transform="translate(185.682357 128.01652)scale(0.0579 -0.0579)">
     <use xlink:href="#DejaVuSans-47"/>
     <use xlink:href="#DejaVuSans-4e" x="77.490234"/>
     <use xlink:href="#DejaVuSans-44" x="152.294922"/>
    </g>
   </g>
   <g id="text_9">
    <!-- STG1 -->
    <g style="opacity: 0.5" transform="translate(149.29882 253.287351)scale(0.0579 -0.0579)">
     <use xlink:href="#DejaVuSans-53"/>
     <use xlink:href="#DejaVuSans-54" x="63.476562"/>
     <use xlink:href="#DejaVuSans-47" x="124.560547"/>
     <use xlink:href="#DejaVuSans-31" x="202.050781"/>
    </g>
    <!-- 145 -->
    <g style="opacity: 0.5" transform="translate(151.46419 259.770885)scale(0.0579 -0.0579)">
     <use xlink:href="#DejaVuSans-31"/>
     <use xlink:href="#DejaVuSans-34" x="63.623047"/>
     <use xlink:href="#DejaVuSans-35" x="127.246094"/>
    </g>
    <!-- GND -->
    <g style="opacity: 0.5" transform="translate(150.351877 266.254418)scale(0.0579 -0.0579)">
     <use xlink:href="#DejaVuSans-47"/>
     <use xlink:href="#DejaVuSans-4e" x="77.490234"/>
     <use xlink:href="#DejaVuSans-44" x="152.294922"/>
    </g>
   </g>
   <g id="text_10">
    <!-- STG5 -->
    <g style="opacity: 0.5" transform="translate(223.117324 220.792257)scale(0.0579 -0.0579)">
     <use xlink:href="#DejaVuSans-53"/>
     <use xlink:href="#DejaVuSans-54" x="63.476562"/>
     <use xlink:href="#DejaVuSans-47" x="124.560547"/>
     <use xlink:href="#DejaVuSans-35" x="202.050781"/>
    </g>
    <!-- 105 -->
    <g style="opacity: 0.5" transform="translate(225.282694 227.275791)scale(0.0579 -0.0579)">
     <defs>
      <path id="DejaVuSans-30" d="M 2034 4250 
Q 1547 4250 1301 3770 
Q 1056 3291 1056 2328 
Q 1056 1369 1301 889 
Q 1547 409 2034 409 
Q 2525 409 2770 889 
Q 3016 1369 3016 2328 
Q 3016 3291 2770 3770 
Q 2525 4250 2034 4250 
z
M 2034 4750 
Q 2819 4750 3233 4129 
Q 3647 3509 3647 2328 
Q 3647 1150 3233 529 
Q 2819 -91 2034 -91 
Q 1250 -91 836 529 
Q 422 1150 422 2328 
Q 422 3509 836 4129 
Q 1250 4750 2034 4750 
z
" transform="scale(0.015625)"/>
     </defs>
     <use xlink:href="#DejaVuSans-31"/>
     <use xlink:href="#DejaVuSans-30" x="63.623047"/>
     <use xlink:href="#DejaVuSans-35" x="127.246094"/>
    </g>
    <!-- GND -->
    <g style="opacity: 0.5" transform="translate(224.170381 233.759324)scale(0.0579 -0.0579)">
     <use xlink:href="#DejaVuSans-47"/>
     <use xlink:href="#DejaVuSans-4e" x="77.490234"/>
     <use xlink:href="#DejaVuSans-44" x="152.294922"/>
    </g>
   </g>
   <g id="text_11">
    <!-- STG7 -->
    <g style="opacity: 0.5" transform="translate(275.031982 207.55426)scale(0.0579 -0.0579)">
     <defs>
      <path id="DejaVuSans-37" d="M 525 4666 
L 3525 4666 
L 3525 4397 
L 1831 0 
L 1172 0 
L 2766 4134 
L 525 4134 
L 525 4666 
z
" transform="scale(0.015625)"/>
     </defs>
     <use xlink:href="#DejaVuSans-53"/>
     <use xlink:href="#DejaVuSans-54" x="63.476562"/>
     <use xlink:href="#DejaVuSans-47" x="124.560547"/>
     <use xlink:href="#DejaVuSans-37" x="202.050781"/>
    </g>
    <!-- 105 -->
    <g style="opacity: 0.5" transform="translate(277.197352 214.037794)scale(0.0579 -0.0579)">
     <use xlink:href="#DejaVuSans-31"/>
     <use xlink:href="#DejaVuSans-30" x="63.623047"/>
     <use xlink:href="#DejaVuSans-35" x="127.246094"/>
    </g>
    <!-- GND -->
    <g style="opacity: 0.5" transform="translate(276.085039 220.521327)scale(0.0579 -0.0579)">
     <use xlink:href="#DejaVuSans-47"/>
     <use xlink:href="#DejaVuSans-4e" x="77.490234"/>
     <use xlink:href="#DejaVuSans-44" x="152.294922"/>
    </g>
   </g>
   <g id="text_12">
    <!-- DKB1 -->
    <g transform="translate(216.887054 145.230651)scale(0.0579 -0.0579)">
     <use xlink:href="#DejaVuSans-44"/>
     <use xlink:href="#DejaVuSans-4b" x="77.001953"/>
     <use xlink:href="#DejaVuSans-42" x="142.578125"/>
     <use xlink:href="#DejaVuSans-31" x="211.181641"/>
    </g>
    <!-- 85 -->
    <g transform="translate(221.158988 151.714185)scale(0.0579 -0.0579)">
     <use xlink:href="#DejaVuSans-38"/>
     <use xlink:href="#DejaVuSans-35" x="63.623047"/>
    </g>
    <!-- GND -->
    <g transform="translate(218.204731 158.197718)scale(0.0579 -0.0579)">
     <use xlink:href="#DejaVuSans-47"/>
     <use xlink:href="#DejaVuSans-4e" x="77.490234"/>
     <use xlink:href="#DejaVuSans-44" x="152.294922"/>
    </g>
   </g>
   <g id="text_13">
    <!-- DKB2 -->
    <g transform="translate(228.204178 220.792257)scale(0.0579 -0.0579)">
     <use xlink:href="#DejaVuSans-44"/>
     <use xlink:href="#DejaVuSans-4b" x="77.001953"/>
     <use xlink:href="#DejaVuSans-42" x="142.578125"/>
     <use xlink:href="#DejaVuSans-32" x="211.181641"/>
    </g>
    <!-- 245 -->
    <g transform="translate(230.634169 227.275791)scale(0.0579 -0.0579)">
     <use xlink:href="#DejaVuSans-32"/>
     <use xlink:href="#DejaVuSans-34" x="63.623047"/>
     <use xlink:href="#DejaVuSans-35" x="127.246094"/>
    </g>
    <!-- 105 -->
    <g transform="translate(230.634169 233.759324)scale(0.0579 -0.0579)">
     <use xlink:href="#DejaVuSans-31"/>
     <use xlink:href="#DejaVuSans-30" x="63.623047"/>
     <use xlink:href="#DejaVuSans-35" x="127.246094"/>
    </g>
   </g>
   <g id="text_14">
    <!-- DKB3 -->
    <g transform="translate(216.887054 172.718562)scale(0.0579 -0.0579)">
     <use xlink:href="#DejaVuSans-44"/>
     <use xlink:href="#DejaVuSans-4b" x="77.001953"/>
     <use xlink:href="#DejaVuSans-42" x="142.578125"/>
     <use xlink:href="#DejaVuSans-33" x="211.181641"/>
    </g>
    <!-- 245 -->
    <g transform="translate(219.317044 179.202095)scale(0.0579 -0.0579)">
     <use xlink:href="#DejaVuSans-32"/>
     <use xlink:href="#DejaVuSans-34" x="63.623047"/>
     <use xlink:href="#DejaVuSans-35" x="127.246094"/>
    </g>
    <!-- 85 -->
    <g transform="translate(221.158988 185.685629)scale(0.0579 -0.0579)">
     <use xlink:href="#DejaVuSans-38"/>
     <use xlink:href="#DejaVuSans-35" x="63.623047"/>
    </g>
   </g>
  </g>
 </g>
 <defs>
  <clipPath id="p1c0ee9a476">
   <rect x="140.657492" y="41.472" width="191.005015" height="266.112"/>
  </clipPath>
 </defs>
</svg>
