<?xml version="1.0" encoding="utf-8" standalone="no"?>
<!DOCTYPE svg PUBLIC "-//W3C//DTD SVG 1.1//EN"
  "http://www.w3.org/Graphics/SVG/1.1/DTD/svg11.dtd">
<svg xmlns:xlink="http://www.w3.org/1999/xlink" width="460.8pt" height="345.6pt" viewBox="0 0 460.8 345.6" xmlns="http://www.w3.org/2000/svg" version="1.1">
 <metadata>
  <rdf:RDF xmlns:dc="http://purl.org/dc/elements/1.1/" xmlns:cc="http://creativecommons.org/ns#" xmlns:rdf="http://www.w3.org/1999/02/22-rdf-syntax-ns#">
   <cc:Work>
    <dc:type rdf:resource="http://purl.org/dc/dcmitype/StillImage"/>
    <dc:date>2022-04-24T18:34:18.367635</dc:date>
    <dc:format>image/svg+xml</dc:format>
    <dc:creator>
     <cc:Agent>
      <dc:title>Matplotlib v3.5.0, https://matplotlib.org/</dc:title>
     </cc:Agent>
    </dc:creator>
   </cc:Work>
  </rdf:RDF>
 </metadata>
 <defs>
  <style type="text/css">*{stroke-linejoin: round; stroke-linecap: butt}</style>
 </defs>
 <g id="figure_1">
  <g id="patch_1">
   <path d="M 0 345.6 
L 460.8 345.6 
L 460.8 0 
L 0 0 
z
" style="fill: #ffffff"/>
  </g>
  <g id="axes_1">
   <g id="patch_2">
    <path d="M 204.573333 76.72914 
L 233.209337 102.196693 
L 328.028805 86.631893 
L 350.343096 82.944612 
L 377.216077 110.435108 
L 322.161406 181.542876 
L 133.25967 294.83664 
L 124.695525 257.921883 
L 115.73412 219.278536 
L 109.787415 193.8014 
L 95.112393 194.160999 
L 122.483435 159.063176 
L 136.764023 140.748097 
L 174.844188 104.785983 
L 195.544272 85.310001 
L 204.573333 76.72914 
L 260.970847 53.568 
L 360.992289 78.409569 
L 390.110179 93.804889 
L 377.216077 110.435108 
L 322.161406 181.542876 
L 133.25967 294.83664 
L 116.257907 295.488 
L 102.875003 272.737351 
L 90.004608 250.885785 
L 82.209821 245.733191 
L 95.112393 194.160999 
L 122.483435 159.063176 
L 136.764023 140.748097 
L 174.844188 104.785983 
L 195.544272 85.310001 
z
" clip-path="url(#p27c25b0e31)" style="fill: #ffedd9; stroke: #ffedd9; stroke-linejoin: miter"/>
   </g>
   <g id="patch_3">
    <path d="M 204.573333 76.72914 
L 233.209337 102.196693 
L 328.028805 86.631893 
L 350.343096 82.944612 
L 377.216077 110.435108 
L 322.161406 181.542876 
L 133.25967 294.83664 
L 124.695525 257.921883 
L 115.73412 219.278536 
L 109.787415 193.8014 
L 95.112393 194.160999 
L 122.483435 159.063176 
L 136.764023 140.748097 
L 174.844188 104.785983 
L 195.544272 85.310001 
L 204.573333 76.72914 
L 260.970847 53.568 
L 360.992289 78.409569 
L 390.110179 93.804889 
L 377.216077 110.435108 
L 322.161406 181.542876 
L 133.25967 294.83664 
L 116.257907 295.488 
L 102.875003 272.737351 
L 90.004608 250.885785 
L 82.209821 245.733191 
L 95.112393 194.160999 
L 122.483435 159.063176 
L 136.764023 140.748097 
L 174.844188 104.785983 
L 195.544272 85.310001 
L 204.573333 76.72914 
z
" clip-path="url(#p27c25b0e31)" style="fill: #ffedd9; stroke: #ffedd9; stroke-linejoin: miter"/>
   </g>
   <g id="line2d_1">
    <path d="M 204.573333 76.72914 
L 233.209337 102.196693 
L 328.028805 86.631893 
L 350.343096 82.944612 
L 377.216077 110.435108 
L 322.161406 181.542876 
L 133.25967 294.83664 
L 124.695525 257.921883 
L 115.73412 219.278536 
L 109.787415 193.8014 
L 95.112393 194.160999 
L 122.483435 159.063176 
L 136.764023 140.748097 
L 174.844188 104.785983 
L 195.544272 85.310001 
L 204.573333 76.72914 
L 260.970847 53.568 
L 360.992289 78.409569 
L 390.110179 93.804889 
L 377.216077 110.435108 
L 322.161406 181.542876 
L 133.25967 294.83664 
L 116.257907 295.488 
L 102.875003 272.737351 
L 90.004608 250.885785 
L 82.209821 245.733191 
L 95.112393 194.160999 
L 122.483435 159.063176 
L 136.764023 140.748097 
L 174.844188 104.785983 
L 195.544272 85.310001 
L 204.573333 76.72914 
" clip-path="url(#p27c25b0e31)" style="fill: none; stroke: #ffc380; stroke-width: 0.5; stroke-linecap: square"/>
   </g>
   <g id="line2d_2">
    <path clip-path="url(#p27c25b0e31)" style="fill: none; stroke: #8f8f8f; stroke-width: 0.2; stroke-linecap: square"/>
   </g>
   <g id="line2d_3">
    <path clip-path="url(#p27c25b0e31)" style="fill: none; stroke: #8f8f8f; stroke-width: 0.2; stroke-linecap: square"/>
   </g>
   <g id="line2d_4">
    <path clip-path="url(#p27c25b0e31)" style="fill: none; stroke: #8f8f8f; stroke-width: 0.2; stroke-linecap: square"/>
   </g>
   <g id="line2d_5">
    <path d="M 122.483435 159.063176 
L 95.112393 194.160999 
L 49.395577 195.595833 
L 48.805981 163.303968 
L 122.483435 159.063176 
" clip-path="url(#p27c25b0e31)" style="fill: none; stroke: #8f8f8f; stroke-width: 0.2; stroke-linecap: square"/>
   </g>
   <g id="line2d_6">
    <path d="M 36.330106 318.038501 
L 52.165635 346.6 
M -1 334.91177 
L 36.330106 318.038501 
" clip-path="url(#p27c25b0e31)" style="fill: none; stroke: #8f8f8f; stroke-width: 0.2; stroke-linecap: square"/>
   </g>
   <g id="line2d_7">
    <path clip-path="url(#p27c25b0e31)" style="fill: none; stroke: #8f8f8f; stroke-width: 0.2; stroke-linecap: square"/>
   </g>
   <g id="line2d_8">
    <path clip-path="url(#p27c25b0e31)" style="fill: none; stroke: #8f8f8f; stroke-width: 0.2; stroke-linecap: square"/>
   </g>
   <g id="line2d_9">
    <path d="M 95.112393 194.160999 
L 109.787415 193.8014 
L 115.73412 219.278536 
L 124.695525 257.921883 
L 85.591849 284.512248 
L 51.452358 307.773562 
L 50.368725 248.835039 
L 49.77105 214.684634 
L 49.395577 195.595833 
L 95.112393 194.160999 
" clip-path="url(#p27c25b0e31)" style="fill: none; stroke: #8f8f8f; stroke-width: 0.2; stroke-linecap: square"/>
   </g>
   <g id="line2d_10">
    <path d="M 122.483435 159.063176 
L 95.112393 194.160999 
L 49.395577 195.595833 
L 48.805981 163.303968 
L 122.483435 159.063176 
" clip-path="url(#p27c25b0e31)" style="fill: none; stroke: #8f8f8f; stroke-width: 0.2; stroke-linecap: square"/>
   </g>
   <g id="line2d_11">
    <path clip-path="url(#p27c25b0e31)" style="fill: none; stroke: #8f8f8f; stroke-width: 0.2; stroke-linecap: square"/>
   </g>
   <g id="line2d_12">
    <path clip-path="url(#p27c25b0e31)" style="fill: none; stroke: #8f8f8f; stroke-width: 0.2; stroke-linecap: square"/>
   </g>
   <g id="line2d_13">
    <path clip-path="url(#p27c25b0e31)" style="fill: none; stroke: #8f8f8f; stroke-width: 0.2; stroke-linecap: square"/>
   </g>
   <g id="line2d_14">
    <path d="M 36.330106 318.038501 
L 52.165635 346.6 
M -1 334.91177 
L 36.330106 318.038501 
" clip-path="url(#p27c25b0e31)" style="fill: none; stroke: #8f8f8f; stroke-width: 0.2; stroke-linecap: square"/>
   </g>
   <g id="line2d_15">
    <path d="M 95.112393 194.160999 
L 109.787415 193.8014 
L 71.569684 238.861801 
L 62.840504 249.164013 
L 85.591849 284.512248 
L 51.452358 307.773562 
L 50.368725 248.835039 
L 49.77105 214.684634 
L 49.395577 195.595833 
L 95.112393 194.160999 
" clip-path="url(#p27c25b0e31)" style="fill: none; stroke: #8f8f8f; stroke-width: 0.2; stroke-linecap: square"/>
   </g>
   <g id="line2d_16">
    <path d="M 109.787415 193.8014 
L 115.73412 219.278536 
L 124.695525 257.921883 
L 85.591849 284.512248 
L 62.840504 249.164013 
L 71.569684 238.861801 
L 109.787415 193.8014 
" clip-path="url(#p27c25b0e31)" style="fill: none; stroke: #8f8f8f; stroke-width: 0.2; stroke-linecap: square"/>
   </g>
   <g id="line2d_17">
    <path clip-path="url(#p27c25b0e31)" style="fill: none; stroke: #8f8f8f; stroke-width: 0.2; stroke-linecap: square"/>
   </g>
   <g id="line2d_18">
    <path clip-path="url(#p27c25b0e31)" style="fill: none; stroke: #8f8f8f; stroke-width: 0.2; stroke-linecap: square"/>
   </g>
   <g id="line2d_19">
    <path clip-path="url(#p27c25b0e31)" style="fill: none; stroke: #8f8f8f; stroke-width: 0.2; stroke-linecap: square"/>
   </g>
   <g id="line2d_20">
    <path clip-path="url(#p27c25b0e31)" style="fill: none; stroke: #8f8f8f; stroke-width: 0.2; stroke-linecap: square"/>
   </g>
   <g id="line2d_21">
    <path clip-path="url(#p27c25b0e31)" style="fill: none; stroke: #8f8f8f; stroke-width: 0.2; stroke-linecap: square"/>
   </g>
   <g id="line2d_22">
    <path clip-path="url(#p27c25b0e31)" style="fill: none; stroke: #8f8f8f; stroke-width: 0.2; stroke-linecap: square"/>
   </g>
   <g id="line2d_23">
    <path clip-path="url(#p27c25b0e31)" style="fill: none; stroke: #8f8f8f; stroke-width: 0.2; stroke-linecap: square"/>
   </g>
   <g id="line2d_24">
    <path clip-path="url(#p27c25b0e31)" style="fill: none; stroke: #8f8f8f; stroke-width: 0.2; stroke-linecap: square"/>
   </g>
   <g id="line2d_25">
    <path clip-path="url(#p27c25b0e31)" style="fill: none; stroke: #8f8f8f; stroke-width: 0.2; stroke-linecap: square"/>
   </g>
   <g id="line2d_26">
    <path clip-path="url(#p27c25b0e31)" style="fill: none; stroke: #8f8f8f; stroke-width: 0.2; stroke-linecap: square"/>
   </g>
   <g id="line2d_27">
    <path clip-path="url(#p27c25b0e31)" style="fill: none; stroke: #8f8f8f; stroke-width: 0.2; stroke-linecap: square"/>
   </g>
   <g id="line2d_28">
    <path clip-path="url(#p27c25b0e31)" style="fill: none; stroke: #8f8f8f; stroke-width: 0.2; stroke-linecap: square"/>
   </g>
   <g id="line2d_29">
    <path d="M 204.573333 76.72914 
L 233.209337 102.196693 
L 328.028805 86.631893 
L 350.343096 82.944612 
L 377.216077 110.435108 
L 322.161406 181.542876 
L 133.25967 294.83664 
L 124.695525 257.921883 
L 115.73412 219.278536 
L 109.787415 193.8014 
L 95.112393 194.160999 
L 122.483435 159.063176 
L 136.764023 140.748097 
L 174.844188 104.785983 
L 195.544272 85.310001 
L 204.573333 76.72914 
L 260.970847 53.568 
L 360.992289 78.409569 
L 390.110179 93.804889 
L 377.216077 110.435108 
L 322.161406 181.542876 
L 133.25967 294.83664 
L 116.257907 295.488 
L 102.875003 272.737351 
L 90.004608 250.885785 
L 82.209821 245.733191 
L 95.112393 194.160999 
L 122.483435 159.063176 
L 136.764023 140.748097 
L 174.844188 104.785983 
L 195.544272 85.310001 
L 204.573333 76.72914 
L 204.573333 76.72914 
" clip-path="url(#p27c25b0e31)" style="fill: none; stroke: #ffc380; stroke-width: 0.5; stroke-linecap: square"/>
   </g>
  </g>
 </g>
 <defs>
  <clipPath id="p27c25b0e31">
   <rect x="66.814803" y="41.472" width="338.690394" height="266.112"/>
  </clipPath>
 </defs>
</svg>
