<?xml version="1.0" encoding="utf-8" standalone="no"?>
<!DOCTYPE svg PUBLIC "-//W3C//DTD SVG 1.1//EN"
  "http://www.w3.org/Graphics/SVG/1.1/DTD/svg11.dtd">
<svg xmlns:xlink="http://www.w3.org/1999/xlink" width="460.8pt" height="345.6pt" viewBox="0 0 460.8 345.6" xmlns="http://www.w3.org/2000/svg" version="1.1">
 <metadata>
  <rdf:RDF xmlns:dc="http://purl.org/dc/elements/1.1/" xmlns:cc="http://creativecommons.org/ns#" xmlns:rdf="http://www.w3.org/1999/02/22-rdf-syntax-ns#">
   <cc:Work>
    <dc:type rdf:resource="http://purl.org/dc/dcmitype/StillImage"/>
    <dc:date>2022-04-24T16:05:26.859831</dc:date>
    <dc:format>image/svg+xml</dc:format>
    <dc:creator>
     <cc:Agent>
      <dc:title>Matplotlib v3.5.0, https://matplotlib.org/</dc:title>
     </cc:Agent>
    </dc:creator>
   </cc:Work>
  </rdf:RDF>
 </metadata>
 <defs>
  <style type="text/css">*{stroke-linejoin: round; stroke-linecap: butt}</style>
 </defs>
 <g id="figure_1">
  <g id="patch_1">
   <path d="M 0 345.6 
L 460.8 345.6 
L 460.8 0 
L 0 0 
z
" style="fill: #ffffff"/>
  </g>
  <g id="axes_1">
   <g id="patch_2">
    <path d="M 319.781828 89.604839 
L 359.489957 114.433339 
L 392.955916 101.871731 
L 396.2547 101.6433 
L 395.146862 121.956812 
L 394.676276 130.341589 
L 305.2359 288.57337 
L 278.838982 273.831981 
L 249.95706 276.226163 
L 180.41984 282.012068 
L 99.330218 288.77389 
L 89.160731 244.90571 
L 259.465805 142.765288 
L 309.100553 78.657811 
L 396.2547 101.6433 
L 394.676276 130.341589 
L 305.2359 288.57337 
L 278.838982 273.831981 
L 249.95706 276.226163 
L 180.41984 282.012068 
L 99.330218 288.77389 
L 80.465571 256.729203 
L 73.832727 245.492946 
L 89.160731 244.90571 
L 259.465805 142.765288 
L 309.100553 78.657811 
L 320.725279 63.664774 
L 360.613915 84.770737 
L 398.487273 60.28211 
L 319.781828 89.604839 
L 359.489957 114.433339 
L 392.955916 101.871731 
L 396.2547 101.6433 
L 394.676276 130.341589 
L 305.2359 288.57337 
L 278.838982 273.831981 
L 249.95706 276.226163 
L 180.41984 282.012068 
L 99.330218 288.77389 
L 80.465571 256.729203 
L 73.832727 245.492946 
L 89.160731 244.90571 
L 259.465805 142.765288 
L 309.100553 78.657811 
z
" clip-path="url(#p92aba4e564)" style="fill: #ffedd9; stroke: #ffedd9; stroke-linejoin: miter"/>
   </g>
   <g id="patch_3">
    <path d="M 319.781828 89.604839 
L 359.489957 114.433339 
L 392.955916 101.871731 
L 396.2547 101.6433 
L 395.146862 121.956812 
L 394.676276 130.341589 
L 305.2359 288.57337 
L 278.838982 273.831981 
L 249.95706 276.226163 
L 180.41984 282.012068 
L 99.330218 288.77389 
L 89.160731 244.90571 
L 259.465805 142.765288 
L 309.100553 78.657811 
L 396.2547 101.6433 
L 394.676276 130.341589 
L 305.2359 288.57337 
L 278.838982 273.831981 
L 249.95706 276.226163 
L 180.41984 282.012068 
L 99.330218 288.77389 
L 80.465571 256.729203 
L 73.832727 245.492946 
L 89.160731 244.90571 
L 259.465805 142.765288 
L 309.100553 78.657811 
L 320.725279 63.664774 
L 360.613915 84.770737 
L 398.487273 60.28211 
L 319.781828 89.604839 
L 359.489957 114.433339 
L 392.955916 101.871731 
L 396.2547 101.6433 
L 394.676276 130.341589 
L 305.2359 288.57337 
L 278.838982 273.831981 
L 249.95706 276.226163 
L 180.41984 282.012068 
L 99.330218 288.77389 
L 80.465571 256.729203 
L 73.832727 245.492946 
L 89.160731 244.90571 
L 259.465805 142.765288 
L 309.100553 78.657811 
L 319.781828 89.604839 
z
" clip-path="url(#p92aba4e564)" style="fill: #ffedd9; stroke: #ffedd9; stroke-linejoin: miter"/>
   </g>
   <g id="line2d_1">
    <path d="M 319.781828 89.604839 
L 359.489957 114.433339 
L 392.955916 101.871731 
L 396.2547 101.6433 
L 395.146862 121.956812 
L 394.676276 130.341589 
L 305.2359 288.57337 
L 278.838982 273.831981 
L 249.95706 276.226163 
L 180.41984 282.012068 
L 99.330218 288.77389 
L 89.160731 244.90571 
L 259.465805 142.765288 
L 309.100553 78.657811 
L 396.2547 101.6433 
L 394.676276 130.341589 
L 305.2359 288.57337 
L 278.838982 273.831981 
L 249.95706 276.226163 
L 180.41984 282.012068 
L 99.330218 288.77389 
L 80.465571 256.729203 
L 73.832727 245.492946 
L 89.160731 244.90571 
L 259.465805 142.765288 
L 309.100553 78.657811 
L 320.725279 63.664774 
L 360.613915 84.770737 
L 398.487273 60.28211 
L 319.781828 89.604839 
L 359.489957 114.433339 
L 392.955916 101.871731 
L 396.2547 101.6433 
L 394.676276 130.341589 
L 305.2359 288.57337 
L 278.838982 273.831981 
L 249.95706 276.226163 
L 180.41984 282.012068 
L 99.330218 288.77389 
L 80.465571 256.729203 
L 73.832727 245.492946 
L 89.160731 244.90571 
L 259.465805 142.765288 
L 309.100553 78.657811 
L 319.781828 89.604839 
" clip-path="url(#p92aba4e564)" style="fill: none; stroke: #ffc380; stroke-width: 0.5; stroke-linecap: square"/>
   </g>
   <g id="line2d_2">
    <path clip-path="url(#p92aba4e564)" style="fill: none; stroke: #8f8f8f; stroke-width: 0.2; stroke-linecap: square"/>
   </g>
   <g id="line2d_3">
    <path clip-path="url(#p92aba4e564)" style="fill: none; stroke: #8f8f8f; stroke-width: 0.2; stroke-linecap: square"/>
   </g>
   <g id="line2d_4">
    <path clip-path="url(#p92aba4e564)" style="fill: none; stroke: #8f8f8f; stroke-width: 0.2; stroke-linecap: square"/>
   </g>
   <g id="line2d_5">
    <path d="M 79.445375 122.49863 
L 54.768909 154.141205 
L 13.55274 155.434785 
L 13.021188 126.321931 
L 79.445375 122.49863 
" clip-path="url(#p92aba4e564)" style="fill: none; stroke: #8f8f8f; stroke-width: 0.2; stroke-linecap: square"/>
   </g>
   <g id="line2d_6">
    <path d="M 1.773515 265.823435 
L 35.59294 326.821297 
L 7.945085 346.6 
M -1 267.077069 
L 1.773515 265.823435 
" clip-path="url(#p92aba4e564)" style="fill: none; stroke: #8f8f8f; stroke-width: 0.2; stroke-linecap: square"/>
   </g>
   <g id="line2d_7">
    <path clip-path="url(#p92aba4e564)" style="fill: none; stroke: #8f8f8f; stroke-width: 0.2; stroke-linecap: square"/>
   </g>
   <g id="line2d_8">
    <path clip-path="url(#p92aba4e564)" style="fill: none; stroke: #8f8f8f; stroke-width: 0.2; stroke-linecap: square"/>
   </g>
   <g id="line2d_9">
    <path d="M 54.768909 154.141205 
L 67.999231 153.817007 
L 73.360505 176.786016 
L 81.439694 211.625071 
L 46.185627 235.597715 
L 15.407039 256.569041 
L 14.430086 203.432792 
L 13.891249 172.644366 
L 13.55274 155.434785 
L 54.768909 154.141205 
" clip-path="url(#p92aba4e564)" style="fill: none; stroke: #8f8f8f; stroke-width: 0.2; stroke-linecap: square"/>
   </g>
   <g id="line2d_10">
    <path d="M 79.445375 122.49863 
L 54.768909 154.141205 
L 13.55274 155.434785 
L 13.021188 126.321931 
L 79.445375 122.49863 
" clip-path="url(#p92aba4e564)" style="fill: none; stroke: #8f8f8f; stroke-width: 0.2; stroke-linecap: square"/>
   </g>
   <g id="line2d_11">
    <path clip-path="url(#p92aba4e564)" style="fill: none; stroke: #8f8f8f; stroke-width: 0.2; stroke-linecap: square"/>
   </g>
   <g id="line2d_12">
    <path clip-path="url(#p92aba4e564)" style="fill: none; stroke: #8f8f8f; stroke-width: 0.2; stroke-linecap: square"/>
   </g>
   <g id="line2d_13">
    <path clip-path="url(#p92aba4e564)" style="fill: none; stroke: #8f8f8f; stroke-width: 0.2; stroke-linecap: square"/>
   </g>
   <g id="line2d_14">
    <path d="M 1.773515 265.823435 
L 35.59294 326.821297 
L 7.945085 346.6 
M -1 267.077069 
L 1.773515 265.823435 
" clip-path="url(#p92aba4e564)" style="fill: none; stroke: #8f8f8f; stroke-width: 0.2; stroke-linecap: square"/>
   </g>
   <g id="line2d_15">
    <path d="M 54.768909 154.141205 
L 67.999231 153.817007 
L 33.54389 194.441382 
L 25.674066 203.72938 
L 46.185627 235.597715 
L 15.407039 256.569041 
L 14.430086 203.432792 
L 13.891249 172.644366 
L 13.55274 155.434785 
L 54.768909 154.141205 
" clip-path="url(#p92aba4e564)" style="fill: none; stroke: #8f8f8f; stroke-width: 0.2; stroke-linecap: square"/>
   </g>
   <g id="line2d_16">
    <path d="M 67.999231 153.817007 
L 73.360505 176.786016 
L 81.439694 211.625071 
L 46.185627 235.597715 
L 25.674066 203.72938 
L 33.54389 194.441382 
L 67.999231 153.817007 
" clip-path="url(#p92aba4e564)" style="fill: none; stroke: #8f8f8f; stroke-width: 0.2; stroke-linecap: square"/>
   </g>
   <g id="line2d_17">
    <path clip-path="url(#p92aba4e564)" style="fill: none; stroke: #8f8f8f; stroke-width: 0.2; stroke-linecap: square"/>
   </g>
   <g id="line2d_18">
    <path clip-path="url(#p92aba4e564)" style="fill: none; stroke: #8f8f8f; stroke-width: 0.2; stroke-linecap: square"/>
   </g>
   <g id="line2d_19">
    <path clip-path="url(#p92aba4e564)" style="fill: none; stroke: #8f8f8f; stroke-width: 0.2; stroke-linecap: square"/>
   </g>
   <g id="line2d_20">
    <path clip-path="url(#p92aba4e564)" style="fill: none; stroke: #8f8f8f; stroke-width: 0.2; stroke-linecap: square"/>
   </g>
   <g id="line2d_21">
    <path clip-path="url(#p92aba4e564)" style="fill: none; stroke: #8f8f8f; stroke-width: 0.2; stroke-linecap: square"/>
   </g>
   <g id="line2d_22">
    <path clip-path="url(#p92aba4e564)" style="fill: none; stroke: #8f8f8f; stroke-width: 0.2; stroke-linecap: square"/>
   </g>
   <g id="line2d_23">
    <path clip-path="url(#p92aba4e564)" style="fill: none; stroke: #8f8f8f; stroke-width: 0.2; stroke-linecap: square"/>
   </g>
   <g id="line2d_24">
    <path clip-path="url(#p92aba4e564)" style="fill: none; stroke: #8f8f8f; stroke-width: 0.2; stroke-linecap: square"/>
   </g>
   <g id="line2d_25">
    <path clip-path="url(#p92aba4e564)" style="fill: none; stroke: #8f8f8f; stroke-width: 0.2; stroke-linecap: square"/>
   </g>
   <g id="line2d_26">
    <path clip-path="url(#p92aba4e564)" style="fill: none; stroke: #8f8f8f; stroke-width: 0.2; stroke-linecap: square"/>
   </g>
   <g id="line2d_27">
    <path clip-path="url(#p92aba4e564)" style="fill: none; stroke: #8f8f8f; stroke-width: 0.2; stroke-linecap: square"/>
   </g>
   <g id="line2d_28">
    <path clip-path="url(#p92aba4e564)" style="fill: none; stroke: #8f8f8f; stroke-width: 0.2; stroke-linecap: square"/>
   </g>
   <g id="line2d_29">
    <path d="M 319.781828 89.604839 
L 359.489957 114.433339 
L 392.955916 101.871731 
L 396.2547 101.6433 
L 395.146862 121.956812 
L 394.676276 130.341589 
L 305.2359 288.57337 
L 278.838982 273.831981 
L 249.95706 276.226163 
L 180.41984 282.012068 
L 99.330218 288.77389 
L 89.160731 244.90571 
L 259.465805 142.765288 
L 309.100553 78.657811 
L 396.2547 101.6433 
L 394.676276 130.341589 
L 305.2359 288.57337 
L 278.838982 273.831981 
L 249.95706 276.226163 
L 180.41984 282.012068 
L 99.330218 288.77389 
L 80.465571 256.729203 
L 73.832727 245.492946 
L 89.160731 244.90571 
L 259.465805 142.765288 
L 309.100553 78.657811 
L 320.725279 63.664774 
L 360.613915 84.770737 
L 398.487273 60.28211 
L 319.781828 89.604839 
L 359.489957 114.433339 
L 392.955916 101.871731 
L 396.2547 101.6433 
L 394.676276 130.341589 
L 305.2359 288.57337 
L 278.838982 273.831981 
L 249.95706 276.226163 
L 180.41984 282.012068 
L 99.330218 288.77389 
L 80.465571 256.729203 
L 73.832727 245.492946 
L 89.160731 244.90571 
L 259.465805 142.765288 
L 309.100553 78.657811 
L 319.781828 89.604839 
L 319.781828 89.604839 
" clip-path="url(#p92aba4e564)" style="fill: none; stroke: #ffc380; stroke-width: 0.5; stroke-linecap: square"/>
   </g>
   <g id="text_1">
    <!-- EDMMGER -->
    <g transform="translate(221.021864 169.642145)scale(0.0579 -0.0579)">
     <defs>
      <path id="DejaVuSans-45" d="M 628 4666 
L 3578 4666 
L 3578 4134 
L 1259 4134 
L 1259 2753 
L 3481 2753 
L 3481 2222 
L 1259 2222 
L 1259 531 
L 3634 531 
L 3634 0 
L 628 0 
L 628 4666 
z
" transform="scale(0.015625)"/>
      <path id="DejaVuSans-44" d="M 1259 4147 
L 1259 519 
L 2022 519 
Q 2988 519 3436 956 
Q 3884 1394 3884 2338 
Q 3884 3275 3436 3711 
Q 2988 4147 2022 4147 
L 1259 4147 
z
M 628 4666 
L 1925 4666 
Q 3281 4666 3915 4102 
Q 4550 3538 4550 2338 
Q 4550 1131 3912 565 
Q 3275 0 1925 0 
L 628 0 
L 628 4666 
z
" transform="scale(0.015625)"/>
      <path id="DejaVuSans-4d" d="M 628 4666 
L 1569 4666 
L 2759 1491 
L 3956 4666 
L 4897 4666 
L 4897 0 
L 4281 0 
L 4281 4097 
L 3078 897 
L 2444 897 
L 1241 4097 
L 1241 0 
L 628 0 
L 628 4666 
z
" transform="scale(0.015625)"/>
      <path id="DejaVuSans-47" d="M 3809 666 
L 3809 1919 
L 2778 1919 
L 2778 2438 
L 4434 2438 
L 4434 434 
Q 4069 175 3628 42 
Q 3188 -91 2688 -91 
Q 1594 -91 976 548 
Q 359 1188 359 2328 
Q 359 3472 976 4111 
Q 1594 4750 2688 4750 
Q 3144 4750 3555 4637 
Q 3966 4525 4313 4306 
L 4313 3634 
Q 3963 3931 3569 4081 
Q 3175 4231 2741 4231 
Q 1884 4231 1454 3753 
Q 1025 3275 1025 2328 
Q 1025 1384 1454 906 
Q 1884 428 2741 428 
Q 3075 428 3337 486 
Q 3600 544 3809 666 
z
" transform="scale(0.015625)"/>
      <path id="DejaVuSans-52" d="M 2841 2188 
Q 3044 2119 3236 1894 
Q 3428 1669 3622 1275 
L 4263 0 
L 3584 0 
L 2988 1197 
Q 2756 1666 2539 1819 
Q 2322 1972 1947 1972 
L 1259 1972 
L 1259 0 
L 628 0 
L 628 4666 
L 2053 4666 
Q 2853 4666 3247 4331 
Q 3641 3997 3641 3322 
Q 3641 2881 3436 2590 
Q 3231 2300 2841 2188 
z
M 1259 4147 
L 1259 2491 
L 2053 2491 
Q 2509 2491 2742 2702 
Q 2975 2913 2975 3322 
Q 2975 3731 2742 3939 
Q 2509 4147 2053 4147 
L 1259 4147 
z
" transform="scale(0.015625)"/>
     </defs>
     <use xlink:href="#DejaVuSans-45"/>
     <use xlink:href="#DejaVuSans-44" x="63.183594"/>
     <use xlink:href="#DejaVuSans-4d" x="140.185547"/>
     <use xlink:href="#DejaVuSans-4d" x="226.464844"/>
     <use xlink:href="#DejaVuSans-47" x="312.744141"/>
     <use xlink:href="#DejaVuSans-45" x="390.234375"/>
     <use xlink:href="#DejaVuSans-52" x="453.417969"/>
    </g>
    <!-- 245 -->
    <g transform="translate(230.634169 176.125678)scale(0.0579 -0.0579)">
     <defs>
      <path id="DejaVuSans-32" d="M 1228 531 
L 3431 531 
L 3431 0 
L 469 0 
L 469 531 
Q 828 903 1448 1529 
Q 2069 2156 2228 2338 
Q 2531 2678 2651 2914 
Q 2772 3150 2772 3378 
Q 2772 3750 2511 3984 
Q 2250 4219 1831 4219 
Q 1534 4219 1204 4116 
Q 875 4013 500 3803 
L 500 4441 
Q 881 4594 1212 4672 
Q 1544 4750 1819 4750 
Q 2544 4750 2975 4387 
Q 3406 4025 3406 3419 
Q 3406 3131 3298 2873 
Q 3191 2616 2906 2266 
Q 2828 2175 2409 1742 
Q 1991 1309 1228 531 
z
" transform="scale(0.015625)"/>
      <path id="DejaVuSans-34" d="M 2419 4116 
L 825 1625 
L 2419 1625 
L 2419 4116 
z
M 2253 4666 
L 3047 4666 
L 3047 1625 
L 3713 1625 
L 3713 1100 
L 3047 1100 
L 3047 0 
L 2419 0 
L 2419 1100 
L 313 1100 
L 313 1709 
L 2253 4666 
z
" transform="scale(0.015625)"/>
      <path id="DejaVuSans-35" d="M 691 4666 
L 3169 4666 
L 3169 4134 
L 1269 4134 
L 1269 2991 
Q 1406 3038 1543 3061 
Q 1681 3084 1819 3084 
Q 2600 3084 3056 2656 
Q 3513 2228 3513 1497 
Q 3513 744 3044 326 
Q 2575 -91 1722 -91 
Q 1428 -91 1123 -41 
Q 819 9 494 109 
L 494 744 
Q 775 591 1075 516 
Q 1375 441 1709 441 
Q 2250 441 2565 725 
Q 2881 1009 2881 1497 
Q 2881 1984 2565 2268 
Q 2250 2553 1709 2553 
Q 1456 2553 1204 2497 
Q 953 2441 691 2322 
L 691 4666 
z
" transform="scale(0.015625)"/>
     </defs>
     <use xlink:href="#DejaVuSans-32"/>
     <use xlink:href="#DejaVuSans-34" x="63.623047"/>
     <use xlink:href="#DejaVuSans-35" x="127.246094"/>
    </g>
    <!-- 195 -->
    <g transform="translate(230.634169 182.609212)scale(0.0579 -0.0579)">
     <defs>
      <path id="DejaVuSans-31" d="M 794 531 
L 1825 531 
L 1825 4091 
L 703 3866 
L 703 4441 
L 1819 4666 
L 2450 4666 
L 2450 531 
L 3481 531 
L 3481 0 
L 794 0 
L 794 531 
z
" transform="scale(0.015625)"/>
      <path id="DejaVuSans-39" d="M 703 97 
L 703 672 
Q 941 559 1184 500 
Q 1428 441 1663 441 
Q 2288 441 2617 861 
Q 2947 1281 2994 2138 
Q 2813 1869 2534 1725 
Q 2256 1581 1919 1581 
Q 1219 1581 811 2004 
Q 403 2428 403 3163 
Q 403 3881 828 4315 
Q 1253 4750 1959 4750 
Q 2769 4750 3195 4129 
Q 3622 3509 3622 2328 
Q 3622 1225 3098 567 
Q 2575 -91 1691 -91 
Q 1453 -91 1209 -44 
Q 966 3 703 97 
z
M 1959 2075 
Q 2384 2075 2632 2365 
Q 2881 2656 2881 3163 
Q 2881 3666 2632 3958 
Q 2384 4250 1959 4250 
Q 1534 4250 1286 3958 
Q 1038 3666 1038 3163 
Q 1038 2656 1286 2365 
Q 1534 2075 1959 2075 
z
" transform="scale(0.015625)"/>
     </defs>
     <use xlink:href="#DejaVuSans-31"/>
     <use xlink:href="#DejaVuSans-39" x="63.623047"/>
     <use xlink:href="#DejaVuSans-35" x="127.246094"/>
    </g>
   </g>
  </g>
 </g>
 <defs>
  <clipPath id="p92aba4e564">
   <rect x="57.6" y="48.857521" width="357.12" height="251.340958"/>
  </clipPath>
 </defs>
</svg>
