<?xml version="1.0" encoding="utf-8" standalone="no"?>
<!DOCTYPE svg PUBLIC "-//W3C//DTD SVG 1.1//EN"
  "http://www.w3.org/Graphics/SVG/1.1/DTD/svg11.dtd">
<svg xmlns:xlink="http://www.w3.org/1999/xlink" width="460.8pt" height="345.6pt" viewBox="0 0 460.8 345.6" xmlns="http://www.w3.org/2000/svg" version="1.1">
 <metadata>
  <rdf:RDF xmlns:dc="http://purl.org/dc/elements/1.1/" xmlns:cc="http://creativecommons.org/ns#" xmlns:rdf="http://www.w3.org/1999/02/22-rdf-syntax-ns#">
   <cc:Work>
    <dc:type rdf:resource="http://purl.org/dc/dcmitype/StillImage"/>
    <dc:date>2022-04-24T12:49:27.192346</dc:date>
    <dc:format>image/svg+xml</dc:format>
    <dc:creator>
     <cc:Agent>
      <dc:title>Matplotlib v3.5.0, https://matplotlib.org/</dc:title>
     </cc:Agent>
    </dc:creator>
   </cc:Work>
  </rdf:RDF>
 </metadata>
 <defs>
  <style type="text/css">*{stroke-linejoin: round; stroke-linecap: butt}</style>
 </defs>
 <g id="figure_1">
  <g id="patch_1">
   <path d="M 0 345.6 
L 460.8 345.6 
L 460.8 0 
L 0 0 
z
" style="fill: #ffffff"/>
  </g>
  <g id="axes_1">
   <g id="patch_2">
    <path d="M 171.663529 144.584631 
L 233.646246 148.201168 
L 250.991265 149.302945 
L 377.544327 190.818016 
L 398.487273 197.857163 
L 376.096149 198.503184 
L 225.762689 203.678975 
L 124.347068 204.471369 
L 73.832727 176.384917 
L 92.307417 145.76008 
z
" clip-path="url(#pd7fdf2df15)" style="fill: #ffedd9; stroke: #ffedd9; stroke-linejoin: miter"/>
   </g>
   <g id="patch_3">
    <path d="M -417.044932 893.263492 
L -403.962705 889.195665 
L -367.024076 932.102055 
L -296.944768 905.339134 
L -330.434754 866.440622 
L -182.048633 820.446517 
L -92.88617 919.78636 
L -12.646987 889.237659 
L -8.904987 998.916855 
L -53.035076 1015.716408 
L -50.888833 1113.045119 
L -125.249878 1141.315267 
L -412.879781 1071.085448 
L -414.601287 999.642574 
L -417.044932 893.263492 
L -403.962705 889.195665 
L -367.024076 932.102055 
L -296.944768 905.339134 
L -330.434754 866.440622 
L -182.048633 820.446517 
L -92.88617 919.78636 
L -12.646987 889.237659 
L -8.904987 998.916855 
L -53.035076 1015.716408 
L -50.888833 1113.045119 
L -125.249878 1141.315267 
L -412.879781 1071.085448 
L -414.601287 999.642574 
z
" clip-path="url(#pd7fdf2df15)" style="fill: #ffffff; stroke: #ffffff; stroke-linejoin: miter"/>
   </g>
   <g id="patch_4">
    <path d="M -412.879781 1071.085448 
L -282.297379 1102.970113 
L -407.891669 1150.783971 
L -411.049313 1149.005022 
L -412.879781 1071.085448 
L -282.297379 1102.970113 
L -407.891669 1150.783971 
L -411.049313 1149.005022 
z
" clip-path="url(#pd7fdf2df15)" style="fill: #ffffff; stroke: #ffffff; stroke-linejoin: miter"/>
   </g>
   <g id="patch_5">
    <path d="M 130.59905 723.553934 
L 202.796622 701.018293 
L 343.325117 657.508898 
L 360.056553 750.635542 
L 378.150255 851.581076 
L -8.904987 998.916855 
L -27.931721 895.043223 
L 146.28272 828.563716 
z
" clip-path="url(#pd7fdf2df15)" style="fill: #ffffff; stroke: #ffffff; stroke-linejoin: miter"/>
   </g>
   <g id="patch_6">
    <path d="M -407.891669 1150.783971 
L -282.297379 1102.970113 
L -125.62955 1141.316903 
L -303.124729 1209.129107 
L -407.891669 1150.783971 
L -282.297379 1102.970113 
L -125.62955 1141.316903 
L -303.124729 1209.129107 
z
" clip-path="url(#pd7fdf2df15)" style="fill: #ffffff; stroke: #ffffff; stroke-linejoin: miter"/>
   </g>
   <g id="patch_7">
    <path d="M -53.035076 1015.716408 
L -8.904987 998.916855 
L 378.150255 851.581076 
L 360.056553 750.635542 
L 443.470034 723.83332 
L 459.834223 820.655762 
L 496.492905 1037.948721 
L 502.903564 1075.496234 
L 429.010951 1182.123376 
L 276.839385 1146.828715 
L 268.402358 1189.753297 
L 56.83862 1071.940722 
L -50.888833 1113.045119 
L -53.035076 1015.716408 
L -8.904987 998.916855 
L 378.150255 851.581076 
L 360.056553 750.635542 
L 443.470034 723.83332 
L 459.834223 820.655762 
L 496.492905 1037.948721 
L 502.903564 1075.496234 
L 429.010951 1182.123376 
L 276.839385 1146.828715 
L 268.402358 1189.753297 
L 56.83862 1071.940722 
L -50.888833 1113.045119 
z
" clip-path="url(#pd7fdf2df15)" style="fill: #ffffff; stroke: #ffffff; stroke-linejoin: miter"/>
   </g>
   <g id="patch_8">
    <path d="M 130.59905 723.553934 
L 202.796622 701.018293 
L 343.325117 657.508898 
L 395.235296 663.187869 
L 439.898606 702.903931 
L 443.470034 723.83332 
L 360.056553 750.635542 
L 378.150255 851.581076 
L -8.904987 998.916855 
L -27.931721 895.043223 
L 146.28272 828.563716 
z
" clip-path="url(#pd7fdf2df15)" style="fill: #ffffff; stroke: #ffffff; stroke-linejoin: miter"/>
   </g>
   <g id="patch_9">
    <path d="M 343.325117 657.508898 
L 395.235296 663.187869 
L 439.898606 702.903931 
L 443.470034 723.83332 
L 360.056553 750.635542 
L 343.325117 657.508898 
L 395.235296 663.187869 
L 439.898606 702.903931 
L 443.470034 723.83332 
L 360.056553 750.635542 
z
" clip-path="url(#pd7fdf2df15)" style="fill: #ffffff; stroke: #ffffff; stroke-linejoin: miter"/>
   </g>
   <g id="patch_10">
    <path d="M -53.035076 1015.716408 
L -8.904987 998.916855 
L 23.628735 986.284151 
L 56.83862 1071.940722 
L -50.888833 1113.045119 
L -53.035076 1015.716408 
L -8.904987 998.916855 
L 23.628735 986.284151 
L 56.83862 1071.940722 
L -50.888833 1113.045119 
z
" clip-path="url(#pd7fdf2df15)" style="fill: #ffffff; stroke: #ffffff; stroke-linejoin: miter"/>
   </g>
   <g id="patch_11">
    <path d="M -1058.598543 90.451268 
L -1054.50354 227.795688 
L -976.547152 29.885024 
z
" clip-path="url(#pd7fdf2df15)" style="fill: #ffffff; stroke: #ffffff; stroke-linejoin: miter"/>
   </g>
   <g id="patch_12">
    <path d="M 770.596346 1028.086656 
L 771.830447 1055.93398 
L 775.571138 1132.405381 
L 780.976099 1242.209905 
L 782.328778 1269.66112 
L 819.891028 1492.367428 
L 707.169402 1498.295165 
L 576.950357 1537.665976 
L 490.569811 1524.362148 
L 397.245026 1538.463138 
L 500.496218 1327.820518 
L 446.099274 1217.104018 
L 490.512976 1199.848341 
L 502.068376 1177.993529 
L 502.903564 1075.496234 
L 496.492905 1037.948721 
L 526.136954 1036.872306 
z
" clip-path="url(#pd7fdf2df15)" style="fill: #ffffff; stroke: #ffffff; stroke-linejoin: miter"/>
   </g>
   <g id="patch_13">
    <path d="M 525.048791 1277.589689 
L 601.096528 1333.068174 
L 819.891028 1492.367428 
L 707.169402 1498.295165 
L 576.950357 1537.665976 
L 490.569811 1524.362148 
L 397.245026 1538.463138 
L 500.496218 1327.820518 
z
" clip-path="url(#pd7fdf2df15)" style="fill: #ffffff; stroke: #ffffff; stroke-linejoin: miter"/>
   </g>
   <g id="patch_14">
    <path d="M -1058.598543 90.451268 
L -976.547152 29.885024 
L -1054.50354 227.795688 
z
" clip-path="url(#pd7fdf2df15)" style="fill: #ffffff; stroke: #ffffff; stroke-linejoin: miter"/>
   </g>
   <g id="patch_15">
    <path d="M -917.637177 67.031493 
L -805.378382 220.604857 
L -992.135676 357.225554 
L -1050.877742 277.752263 
L -1030.490038 175.149871 
z
" clip-path="url(#pd7fdf2df15)" style="fill: #ffffff; stroke: #ffffff; stroke-linejoin: miter"/>
   </g>
   <g id="patch_16">
    <path d="M -1058.598543 90.451268 
L -976.547152 29.885024 
L -1054.50354 227.795688 
z
" clip-path="url(#pd7fdf2df15)" style="fill: #ffffff; stroke: #ffffff; stroke-linejoin: miter"/>
   </g>
   <g id="patch_17">
    <path d="M -678.252909 -107.165257 
L -564.399145 44.02776 
L -723.288422 161.962929 
L -833.107424 6.554957 
z
" clip-path="url(#pd7fdf2df15)" style="fill: #ffffff; stroke: #ffffff; stroke-linejoin: miter"/>
   </g>
   <g id="patch_18">
    <path d="M -1326.639082 437.944124 
L -1300.351094 456.49289 
L -1285.949847 464.614188 
L -1279.457351 471.675169 
L -1252.707782 482.686704 
L -1245.029296 483.501422 
L -1215.559229 486.903524 
L -1204.408736 488.003491 
L -1166.869891 487.267614 
L -1156.902265 486.159885 
L -1249.027583 518.141879 
L -1344.546887 483.385814 
z
" clip-path="url(#pd7fdf2df15)" style="fill: #ffffff; stroke: #ffffff; stroke-linejoin: miter"/>
   </g>
   <g id="patch_19">
    <path d="M -1563.551067 20.575526 
L -1538.143286 54.579076 
L -1534.860078 68.066233 
L -1537.776043 76.794709 
L -1525.411857 81.003802 
L -1523.634943 79.500106 
L -1508.529958 73.001977 
L -1490.470027 85.860286 
L -1498.683732 111.682323 
L -1493.588541 116.784168 
L -1474.978832 115.508366 
L -1427.966205 113.861734 
L -1412.458693 116.762559 
L -1403.104002 105.693954 
L -1384.371899 93.175163 
L -1369.89236 97.199731 
L -1356.620025 115.516277 
L -1352.653626 125.664599 
L -1353.048361 141.364815 
L -1352.278813 147.871857 
L -1341.651264 153.9161 
L -1310.384048 168.86523 
L -1287.239652 180.587357 
L -1253.802563 202.813744 
L -1254.887081 219.319028 
L -1257.863907 265.753626 
L -1260.14657 291.193573 
L -1264.175053 310.115997 
L -1273.056793 321.833276 
L -1284.658159 333.262886 
L -1285.191245 338.548996 
L -1282.384733 339.81322 
L -1276.169398 338.824305 
L -1273.646633 345.381519 
L -1280.038392 356.182863 
L -1283.537565 369.432208 
L -1290.178588 371.545925 
L -1303.939218 390.010457 
L -1312.265574 393.094543 
L -1317.387437 392.128101 
L -1320.098216 399.401281 
L -1326.063906 413.175644 
L -1325.304779 416.601301 
L -1322.03048 425.827563 
L -1321.496281 430.310416 
L -1326.639082 437.944124 
L -1344.546887 483.385814 
L -1249.027583 518.141879 
L -1156.902265 486.159885 
L -1129.501521 411.284063 
L -1130.0132 421.480955 
L -1131.910187 475.623804 
L -1134.538924 548.400007 
L -1114.717808 571.682407 
L -999.890515 731.437558 
L -1019.75158 786.362663 
L -1074.71592 836.926756 
L -1074.878725 838.493486 
L -1078.564125 892.984163 
L -1081.065295 929.244661 
L -1115.780915 928.397103 
L -1115.732004 926.435 
L -1121.298219 922.565452 
L -1125.314645 917.163392 
L -1122.511328 910.754964 
L -1124.660417 906.185172 
L -1122.052741 902.520476 
L -1126.47323 898.286032 
L -1127.724949 898.058038 
L -1139.879427 896.373844 
L -1140.935534 903.218529 
L -1142.901689 906.309354 
L -1146.59262 907.981151 
L -1149.358135 907.909524 
L -1152.670417 904.682 
L -1160.511739 901.53176 
L -1162.832485 898.91825 
L -1163.725407 889.862965 
L -1165.573669 888.439749 
L -1165.699302 888.436427 
L -1168.091535 888.569423 
L -1179.038175 893.57872 
L -1188.713421 893.317705 
L -1194.338469 896.698957 
L -1193.694115 905.355864 
L -1192.458504 906.174911 
L -1195.06889 909.638038 
L -1197.073256 923.131358 
L -1215.877635 929.48445 
L -1221.637138 932.857734 
L -1225.05705 938.063211 
L -1225.583665 943.349967 
L -1227.877954 948.783242 
L -1229.493624 952.468371 
L -1228.641719 957.990387 
L -1229.606132 960.908482 
L -1232.574227 963.37712 
L -1236.72381 963.062912 
L -1243.028425 967.595486 
L -1244.663412 971.86851 
L -1244.244004 974.825919 
L -1239.2476 980.859526 
L -1239.068355 983.417284 
L -1244.55109 989.936731 
L -1244.498172 992.490909 
L -1248.229951 999.452696 
L -1259.9977 1005.003074 
L -1261.705234 1007.309689 
L -1260.787578 1014.798184 
L -1260.076598 1016.38977 
L -1258.424963 1020.365005 
L -1253.705829 1023.054388 
L -1256.587743 1031.021797 
L -1262.35669 1033.995978 
L -1265.138331 1034.111181 
L -1266.962252 1036.021475 
L -1266.176487 1039.382637 
L -1268.89567 1041.659379 
L -1274.155853 1040.13019 
L -1278.355323 1041.184342 
L -1281.333745 1043.648821 
L -1285.348136 1051.187756 
L -1283.75578 1057.126171 
L -1286.312704 1062.351963 
L -1289.666487 1064.608251 
L -1290.188999 1073.625574 
L -1292.010462 1075.338369 
L -1296.670597 1078.929465 
L -1303.339975 1086.190235 
L -1296.795631 1091.493382 
L -1291.005036 1092.452548 
L -1286.410155 1095.338813 
L -1282.010696 1100.575035 
L -1280.724526 1104.147718 
L -1284.461176 1106.393336 
L -1293.144882 1104.759731 
L -1295.353286 1106.657197 
L -1292.391689 1113.422518 
L -1296.786124 1116.432648 
L -1296.927617 1121.141274 
L -1298.45492 1125.611862 
L -1302.206913 1128.24796 
L -1297.973034 1134.855755 
L -1298.6064 1143.280631 
L -1297.049152 1146.272974 
L -1299.098799 1155.440785 
L -1296.695673 1159.833103 
L -1279.633086 1161.518844 
L -1405.412279 1234.761037 
L -1509.046733 1236.479248 
L -1510.696946 1236.419631 
L -1523.236228 1224.767599 
L -1568.033203 1206.404129 
L -1589.572722 1191.830306 
L -1645.694219 1144.435355 
L -1704.817451 1142.005162 
L -1703.234119 1098.25566 
L -1695.596974 1012.712857 
L -1832.067901 1012.613575 
L -1870.735504 1028.50429 
z
" clip-path="url(#pd7fdf2df15)" style="fill: #ffffff; stroke: #ffffff; stroke-linejoin: miter"/>
   </g>
   <g id="patch_20">
    <path d="M -1870.735504 1028.50429 
L -1856.630034 752.965518 
L -1681.107758 727.240948 
L -1672.406669 725.390618 
L -1664.568578 725.32367 
L -1655.808168 727.186958 
L -1647.805649 729.099387 
L -1640.055966 730.99367 
L -1632.109147 734.503183 
L -1627.875573 736.701896 
L -1624.48412 737.640205 
L -1617.816099 741.896234 
L -1611.520918 746.994527 
L -1604.908497 750.840884 
L -1599.791532 758.278971 
L -1594.142095 763.650732 
L -1589.619495 769.951732 
L -1585.516725 778.473239 
L -1583.271031 784.83551 
L -1561.035996 798.8288 
L -1538.625842 811.371194 
L -1514.763627 821.435143 
L -1490.135961 830.036 
L -1465.419179 836.576742 
L -1440.207288 840.664903 
L -1415.315002 843.792186 
L -1383.919576 844.056051 
L -1306.349249 764.045774 
L -1327.224547 702.714962 
L -1171.438326 657.184775 
L -1091.921415 627.223977 
L -1057.451449 609.400185 
L -999.890515 731.437558 
L -1019.75158 786.362663 
L -1074.71592 836.926756 
L -1074.878725 838.493486 
L -1078.564125 892.984163 
L -1081.065295 929.244661 
L -1115.780915 928.397103 
L -1115.732004 926.435 
L -1121.298219 922.565452 
L -1125.314645 917.163392 
L -1122.511328 910.754964 
L -1124.660417 906.185172 
L -1122.052741 902.520476 
L -1126.47323 898.286032 
L -1127.724949 898.058038 
L -1139.879427 896.373844 
L -1140.935534 903.218529 
L -1142.901689 906.309354 
L -1146.59262 907.981151 
L -1149.358135 907.909524 
L -1152.670417 904.682 
L -1160.511739 901.53176 
L -1162.832485 898.91825 
L -1163.725407 889.862965 
L -1165.573669 888.439749 
L -1168.091535 888.569423 
L -1179.038175 893.57872 
L -1188.713421 893.317705 
L -1194.338469 896.698957 
L -1193.694115 905.355864 
L -1192.458504 906.174911 
L -1195.06889 909.638038 
L -1197.073256 923.131358 
L -1215.877635 929.48445 
L -1221.637138 932.857734 
L -1225.05705 938.063211 
L -1225.583665 943.349967 
L -1227.877954 948.783242 
L -1229.493624 952.468371 
L -1228.641719 957.990387 
L -1229.606132 960.908482 
L -1232.574227 963.37712 
L -1236.72381 963.062912 
L -1243.028425 967.595486 
L -1244.663412 971.86851 
L -1244.244004 974.825919 
L -1239.2476 980.859526 
L -1239.068355 983.417284 
L -1244.55109 989.936731 
L -1244.498172 992.490909 
L -1248.229951 999.452696 
L -1259.9977 1005.003074 
L -1261.705234 1007.309689 
L -1260.787578 1014.798184 
L -1260.076598 1016.38977 
L -1258.424963 1020.365005 
L -1253.705829 1023.054388 
L -1256.587743 1031.021797 
L -1262.35669 1033.995978 
L -1265.138331 1034.111181 
L -1266.962252 1036.021475 
L -1266.176487 1039.382637 
L -1268.89567 1041.659379 
L -1274.155853 1040.13019 
L -1278.355323 1041.184342 
L -1281.333745 1043.648821 
L -1285.348136 1051.187756 
L -1283.75578 1057.126171 
L -1286.312704 1062.351963 
L -1289.666487 1064.608251 
L -1290.188999 1073.625574 
L -1292.010462 1075.338369 
L -1296.670597 1078.929465 
L -1303.339975 1086.190235 
L -1296.795631 1091.493382 
L -1291.005036 1092.452548 
L -1286.410155 1095.338813 
L -1282.010696 1100.575035 
L -1280.724526 1104.147718 
L -1284.461176 1106.393336 
L -1293.144882 1104.759731 
L -1295.353286 1106.657197 
L -1292.391689 1113.422518 
L -1296.786124 1116.432648 
L -1296.927617 1121.141274 
L -1298.45492 1125.611862 
L -1302.206913 1128.24796 
L -1297.973034 1134.855755 
L -1298.6064 1143.280631 
L -1297.049152 1146.272974 
L -1299.098799 1155.440785 
L -1296.695673 1159.833103 
L -1279.633086 1161.518844 
L -1405.412279 1234.761037 
L -1509.046733 1236.479248 
L -1510.696946 1236.419631 
L -1523.236228 1224.767599 
L -1568.033203 1206.404129 
L -1589.572722 1191.830306 
L -1645.694219 1144.435355 
L -1704.817451 1142.005162 
L -1703.234119 1098.25566 
L -1695.596974 1012.712857 
L -1832.067901 1012.613575 
z
" clip-path="url(#pd7fdf2df15)" style="fill: #ffffff; stroke: #ffffff; stroke-linejoin: miter"/>
   </g>
   <g id="patch_21">
    <path d="M -1563.551067 20.575526 
L -1538.143286 54.579076 
L -1534.860078 68.066233 
L -1537.776043 76.794709 
L -1525.411857 81.003802 
L -1523.634943 79.500106 
L -1508.529958 73.001977 
L -1490.470027 85.860286 
L -1498.683732 111.682323 
L -1493.588541 116.784168 
L -1474.978832 115.508366 
L -1427.966205 113.861734 
L -1412.458693 116.762559 
L -1403.104002 105.693954 
L -1384.371899 93.175163 
L -1369.89236 97.199731 
L -1356.620025 115.516277 
L -1352.653626 125.664599 
L -1353.048361 141.364815 
L -1352.278813 147.871857 
L -1310.384048 168.86523 
L -1287.239652 180.587357 
L -1258.986367 178.506654 
L -1256.8301 180.531347 
L -1255.091191 188.242573 
L -1234.638236 191.990356 
L -1221.864515 205.912273 
L -1228.538998 215.145007 
L -1261.784345 267.578364 
L -1262.155161 275.815386 
L -1265.979888 279.824393 
L -1265.246323 284.166966 
L -1260.14657 291.193573 
L -1264.175053 310.115997 
L -1273.056793 321.833276 
L -1284.658159 333.262886 
L -1285.191245 338.548996 
L -1282.384733 339.81322 
L -1276.169398 338.824305 
L -1273.646633 345.381519 
L -1280.038392 356.182863 
L -1283.537565 369.432208 
L -1290.178588 371.545925 
L -1303.939218 390.010457 
L -1312.265574 393.094543 
L -1317.387437 392.128101 
L -1320.098216 399.401281 
L -1326.063906 413.175644 
L -1325.304779 416.601301 
L -1322.03048 425.827563 
L -1321.496281 430.310416 
L -1326.639082 437.944124 
L -1344.546887 483.385814 
L -1249.027583 518.141879 
L -1156.902265 486.159885 
L -1131.910187 475.623804 
L -1134.538924 548.400007 
L -1114.717808 571.682407 
L -1198.788508 625.807485 
L -1019.75158 786.362663 
L -1074.71592 836.926756 
L -1074.878725 838.493486 
L -1078.564125 892.984163 
L -1081.065295 929.244661 
L -1115.780915 928.397103 
L -1115.732004 926.435 
L -1121.298219 922.565452 
L -1125.314645 917.163392 
L -1122.511328 910.754964 
L -1124.660417 906.185172 
L -1122.052741 902.520476 
L -1126.47323 898.286032 
L -1127.724949 898.058038 
L -1139.879427 896.373844 
L -1140.935534 903.218529 
L -1142.901689 906.309354 
L -1146.59262 907.981151 
L -1149.358135 907.909524 
L -1152.670417 904.682 
L -1160.511739 901.53176 
L -1162.832485 898.91825 
L -1163.725407 889.862965 
L -1165.573669 888.439749 
L -1165.699302 888.436427 
L -1168.091535 888.569423 
L -1179.038175 893.57872 
L -1188.713421 893.317705 
L -1194.338469 896.698957 
L -1193.694115 905.355864 
L -1192.458504 906.174911 
L -1195.06889 909.638038 
L -1197.073256 923.131358 
L -1215.877635 929.48445 
L -1221.637138 932.857734 
L -1225.05705 938.063211 
L -1225.583665 943.349967 
L -1227.877954 948.783242 
L -1229.493624 952.468371 
L -1228.641719 957.990387 
L -1229.606132 960.908482 
L -1232.574227 963.37712 
L -1236.72381 963.062912 
L -1243.028425 967.595486 
L -1244.663412 971.86851 
L -1244.244004 974.825919 
L -1239.2476 980.859526 
L -1239.068355 983.417284 
L -1244.55109 989.936731 
L -1244.498172 992.490909 
L -1248.229951 999.452696 
L -1259.9977 1005.003074 
L -1261.705234 1007.309689 
L -1260.787578 1014.798184 
L -1260.076598 1016.38977 
L -1258.424963 1020.365005 
L -1253.705829 1023.054388 
L -1256.587743 1031.021797 
L -1262.35669 1033.995978 
L -1265.138331 1034.111181 
L -1266.962252 1036.021475 
L -1266.176487 1039.382637 
L -1268.89567 1041.659379 
L -1274.155853 1040.13019 
L -1278.355323 1041.184342 
L -1281.333745 1043.648821 
L -1285.348136 1051.187756 
L -1283.75578 1057.126171 
L -1286.312704 1062.351963 
L -1289.666487 1064.608251 
L -1290.188999 1073.625574 
L -1292.010462 1075.338369 
L -1296.670597 1078.929465 
L -1303.339975 1086.190235 
L -1296.795631 1091.493382 
L -1291.005036 1092.452548 
L -1286.410155 1095.338813 
L -1282.010696 1100.575035 
L -1280.724526 1104.147718 
L -1284.461176 1106.393336 
L -1293.144882 1104.759731 
L -1295.353286 1106.657197 
L -1292.391689 1113.422518 
L -1296.786124 1116.432648 
L -1296.927617 1121.141274 
L -1298.45492 1125.611862 
L -1302.206913 1128.24796 
L -1297.973034 1134.855755 
L -1298.6064 1143.280631 
L -1297.049152 1146.272974 
L -1299.098799 1155.440785 
L -1296.695673 1159.833103 
L -1279.633086 1161.518844 
L -1405.412279 1234.761037 
L -1509.046733 1236.479248 
L -1510.696946 1236.419631 
L -1523.236228 1224.767599 
L -1568.033203 1206.404129 
L -1589.572722 1191.830306 
L -1645.694219 1144.435355 
L -1704.817451 1142.005162 
L -1703.234119 1098.25566 
L -1695.596974 1012.712857 
L -1832.067901 1012.613575 
L -1870.735504 1028.50429 
z
" clip-path="url(#pd7fdf2df15)" style="fill: #ffffff; stroke: #ffffff; stroke-linejoin: miter"/>
   </g>
   <g id="patch_22">
    <path d="M 23.113554 1971.553391 
L 340.338828 1873.234702 
L 389.305905 2001.918588 
L 63.229426 2100.747019 
z
" clip-path="url(#pd7fdf2df15)" style="fill: #ffffff; stroke: #ffffff; stroke-linejoin: miter"/>
   </g>
   <g id="patch_23">
    <path d="M 231.919935 1886.737272 
L 540.079156 1786.717351 
L 598.318797 1950.253889 
L 296.457681 2038.874012 
z
" clip-path="url(#pd7fdf2df15)" style="fill: #ffffff; stroke: #ffffff; stroke-linejoin: miter"/>
   </g>
   <g id="patch_24">
    <path d="M -417.044932 893.263492 
L -403.962705 889.195665 
L -330.434754 866.440622 
L -182.048633 820.446517 
L -137.22395 806.362423 
L -108.444102 797.599331 
L -27.931721 895.043223 
L -8.904987 998.916855 
L -53.035076 1015.716408 
L -282.297379 1102.970113 
L -407.891669 1150.783971 
L -411.049313 1149.005022 
L -412.879781 1071.085448 
L -414.601287 999.642574 
z
" clip-path="url(#pd7fdf2df15)" style="fill: #ffffff; stroke: #ffffff; stroke-linejoin: miter"/>
   </g>
   <g id="patch_25">
    <path d="M -8.904987 998.916855 
L 23.628735 986.284151 
L 378.150255 851.581076 
L 459.834223 820.655762 
L 443.470034 723.83332 
L 360.056553 750.635542 
L 343.325117 657.508898 
L 202.796622 701.018293 
L 130.59905 723.553934 
L 59.42688 745.333738 
L 2.029044 763.31911 
L -39.435555 812.304104 
L -12.646987 889.237659 
z
" clip-path="url(#pd7fdf2df15)" style="fill: #ffffff; stroke: #ffffff; stroke-linejoin: miter"/>
   </g>
   <g id="patch_26">
    <path d="M 631.723459 2218.63756 
L 870.405251 2258.327391 
L 1072.64525 2430.668203 
L 896.924087 2518.550013 
L 857.999521 2538.063156 
L 663.600658 2560.33229 
L 631.62239 2563.112249 
L 597.256783 2505.430984 
L 554.13465 2359.947031 
L 467.798952 2312.9437 
L 631.723459 2218.63756 
L 870.405251 2258.327391 
L 1072.64525 2430.668203 
L 896.924087 2518.550013 
L 857.999521 2538.063156 
L 663.600658 2560.33229 
L 631.62239 2563.112249 
L 597.256783 2505.430984 
L 462.08829 2514.138696 
L 460.886242 2455.252237 
L 458.094742 2318.64147 
L 467.798952 2312.9437 
z
" clip-path="url(#pd7fdf2df15)" style="fill: #ffffff; stroke: #ffffff; stroke-linejoin: miter"/>
   </g>
   <g id="patch_27">
    <path d="M 193.958666 -243.244282 
L 195.181404 -150.205412 
L 107.407035 -149.0569 
L 106.370529 -237.385295 
L 164.603839 -241.262658 
z
" clip-path="url(#pd7fdf2df15)" style="fill: #ffffff; stroke: #ffffff; stroke-linejoin: miter"/>
   </g>
   <g id="patch_28">
    <path d="M 195.181404 -150.205412 
L 123.059276 27.037295 
L 117.540049 -35.123461 
L 107.407035 -149.0569 
z
" clip-path="url(#pd7fdf2df15)" style="fill: #ffffff; stroke: #ffffff; stroke-linejoin: miter"/>
   </g>
   <g id="patch_29">
    <path d="M -1135.898299 -181.908099 
L -1162.740109 -277.43602 
L -1238.090036 -354.108773 
L -1350.829997 -401.309749 
L -990.73667 -691.694801 
L -822.120657 -539.667619 
L -677.958161 -552.625557 
L -842.736105 -415.734748 
L -783.007715 -381.937626 
L -799.29487 -339.791063 
L -928.494491 -291.312762 
L -980.874797 -297.135492 
L -967.915626 -268.380461 
z
" clip-path="url(#pd7fdf2df15)" style="fill: #ffffff; stroke: #ffffff; stroke-linejoin: miter"/>
   </g>
   <g id="patch_30">
    <path d="M -1287.239652 180.587357 
L -1253.802563 202.813744 
L -1254.887081 219.319028 
L -1257.863907 265.753626 
L -1260.14657 291.193573 
L -1264.175053 310.115997 
L -1273.056793 321.833276 
L -1284.658159 333.262886 
L -1285.191245 338.548996 
L -1282.384733 339.81322 
L -1276.169398 338.824305 
L -1273.646633 345.381519 
L -1280.038392 356.182863 
L -1283.537565 369.432208 
L -1290.178588 371.545925 
L -1303.939218 390.010457 
L -1312.265574 393.094543 
L -1317.387437 392.128101 
L -1320.098216 399.401281 
L -1326.063906 413.175644 
L -1325.304779 416.601301 
L -1322.03048 425.827563 
L -1321.496281 430.310416 
L -1326.639082 437.944124 
L -1300.351094 456.49289 
L -1285.949847 464.614188 
L -1279.457351 471.675169 
L -1252.707782 482.686704 
L -1245.029296 483.501422 
L -1215.559229 486.903524 
L -1204.408736 488.003491 
L -1166.869891 487.267614 
L -1156.902265 486.159885 
L -1129.501521 411.284063 
L -1132.422627 394.911351 
L -1137.053371 368.283295 
L -1157.777444 250.508551 
L -1169.619718 181.930869 
L -1258.986367 178.506654 
z
" clip-path="url(#pd7fdf2df15)" style="fill: #ffffff; stroke: #ffffff; stroke-linejoin: miter"/>
   </g>
   <g id="patch_31">
    <path d="M -1352.653626 125.664599 
L -1353.048361 141.364815 
L -1352.278813 147.871857 
L -1310.384048 168.86523 
L -1287.239652 180.587357 
L -1258.986367 178.506654 
L -1256.8301 180.531347 
L -1255.091191 188.242573 
L -1234.638236 191.990356 
L -1221.864515 205.912273 
L -1228.538998 215.145007 
L -1261.784345 267.578364 
L -1262.155161 275.815386 
L -1265.979888 279.824393 
L -1265.246323 284.166966 
L -1260.14657 291.193573 
L -1264.175053 310.115997 
L -1273.056793 321.833276 
L -1284.658159 333.262886 
L -1285.191245 338.548996 
L -1282.384733 339.81322 
L -1276.169398 338.824305 
L -1273.646633 345.381519 
L -1280.038392 356.182863 
L -1283.537565 369.432208 
L -1290.178588 371.545925 
L -1303.939218 390.010457 
L -1312.265574 393.094543 
L -1317.387437 392.128101 
L -1320.098216 399.401281 
L -1326.063906 413.175644 
L -1325.304779 416.601301 
L -1322.03048 425.827563 
L -1321.496281 430.310416 
L -1319.370799 433.71623 
L -1299.069192 443.188182 
L -1298.032217 445.773258 
L -1300.212925 448.062415 
L -1300.351094 456.49289 
L -1298.951852 471.473196 
L -1279.457351 471.675169 
L -1252.707782 482.686704 
L -1245.029296 483.501422 
L -1236.424701 478.05349 
L -1227.550305 476.165443 
L -1204.408736 488.003491 
L -1197.542703 482.314303 
L -1166.843491 486.286557 
L -1164.857075 486.330134 
L -1156.902265 486.159885 
L -1155.141589 475.996426 
L -1160.164806 468.793888 
L -1169.384112 456.175827 
L -1173.031787 448.811889 
L -1153.329977 440.50091 
L -1153.717698 436.371133 
L -1155.240175 432.990681 
L -1157.806527 422.321118 
L -1129.501521 411.284063 
L -1132.422627 394.911351 
L -1137.053371 368.283295 
L -1143.933189 361.623075 
L -1175.003051 325.640976 
L -1201.887099 327.644363 
L -1215.292608 294.862992 
L -1177.762809 264.103384 
L -1157.777444 250.508551 
L -1178.051758 136.062543 
z
" clip-path="url(#pd7fdf2df15)" style="fill: #ffffff; stroke: #ffffff; stroke-linejoin: miter"/>
   </g>
   <g id="patch_32">
    <path d="M -1352.653626 125.664599 
L -1178.051758 136.062543 
L -1169.619718 181.930869 
L -1258.986367 178.506654 
L -1287.239652 180.587357 
L -1310.384048 168.86523 
L -1341.651264 153.9161 
L -1352.278813 147.871857 
L -1353.048361 141.364815 
z
" clip-path="url(#pd7fdf2df15)" style="fill: #ffffff; stroke: #ffffff; stroke-linejoin: miter"/>
   </g>
   <g id="patch_33">
    <path d="M -1135.898299 -181.908099 
L -1162.740109 -277.43602 
L -1238.090036 -354.108773 
L -1350.829997 -401.309749 
L -990.73667 -691.694801 
L -822.120657 -539.667619 
L -677.958161 -552.625557 
L -842.736105 -415.734748 
L -783.007715 -381.937626 
L -799.29487 -339.791063 
L -928.494491 -291.312762 
L -980.874797 -297.135492 
L -967.915626 -268.380461 
z
" clip-path="url(#pd7fdf2df15)" style="fill: #ffffff; stroke: #ffffff; stroke-linejoin: miter"/>
   </g>
   <g id="patch_34">
    <path d="M -1090.407778 1066.448842 
L -1089.460434 1053.317746 
L -1085.773334 999.612895 
L -937.735196 1129.05988 
L -929.893003 1135.886152 
L -928.637289 1175.955384 
L -925.008228 1271.862092 
L -925.236635 1276.918353 
L -991.926508 1280.688383 
L -955.036153 1158.752357 
L -1027.965439 1111.08228 
z
" clip-path="url(#pd7fdf2df15)" style="fill: #ffffff; stroke: #ffffff; stroke-linejoin: miter"/>
   </g>
   <g id="patch_35">
    <path d="M -1090.407778 1066.448842 
L -1027.965439 1111.08228 
L -955.036153 1158.752357 
L -928.637289 1175.955384 
L -929.893003 1135.886152 
L -937.735196 1129.05988 
L -1085.773334 999.612895 
z
" clip-path="url(#pd7fdf2df15)" style="fill: #ffffff; stroke: #ffffff; stroke-linejoin: miter"/>
   </g>
   <g id="patch_36">
    <path d="M -955.036153 1158.752357 
L -928.637289 1175.955384 
L -925.008228 1271.862092 
L -925.236635 1276.918353 
L -922.842265 1351.950405 
L -953.511477 1369.61331 
L -991.926508 1280.688383 
z
" clip-path="url(#pd7fdf2df15)" style="fill: #ffffff; stroke: #ffffff; stroke-linejoin: miter"/>
   </g>
   <g id="patch_37">
    <path d="M -922.842265 1351.950405 
L -919.504253 1452.51942 
L -937.840339 1409.57304 
L -953.511477 1369.61331 
z
" clip-path="url(#pd7fdf2df15)" style="fill: #ffffff; stroke: #ffffff; stroke-linejoin: miter"/>
   </g>
   <g id="patch_38">
    <path d="M -530.955229 -141.383241 
L -361.430006 -236.65858 
L -130.392276 -182.473902 
L -455.67754 -15.440239 
L -500.800705 -117.601063 
z
" clip-path="url(#pd7fdf2df15)" style="fill: #ffffff; stroke: #ffffff; stroke-linejoin: miter"/>
   </g>
   <g id="patch_39">
    <path d="M 446.099274 1217.104018 
L 525.048791 1277.589689 
L 500.496218 1327.820518 
z
" clip-path="url(#pd7fdf2df15)" style="fill: #ffffff; stroke: #ffffff; stroke-linejoin: miter"/>
   </g>
   <g id="patch_40">
    <path d="M 770.596346 1028.086656 
L 771.830447 1055.93398 
L 635.35715 1160.378995 
L 594.617047 1278.257841 
L 601.096528 1333.068174 
L 525.048791 1277.589689 
L 446.099274 1217.104018 
L 490.512976 1199.848341 
L 502.068376 1177.993529 
L 532.299871 1073.24317 
L 526.136954 1036.872306 
z
" clip-path="url(#pd7fdf2df15)" style="fill: #ffffff; stroke: #ffffff; stroke-linejoin: miter"/>
   </g>
   <g id="patch_41">
    <path d="M 771.830447 1055.93398 
L 775.571138 1132.405381 
L 780.976099 1242.209905 
L 782.328778 1269.66112 
L 819.891028 1492.367428 
L 601.096528 1333.068174 
L 594.617047 1278.257841 
L 635.35715 1160.378995 
z
" clip-path="url(#pd7fdf2df15)" style="fill: #ffffff; stroke: #ffffff; stroke-linejoin: miter"/>
   </g>
   <g id="patch_42">
    <path d="M 526.136954 1036.872306 
L 532.299871 1073.24317 
L 502.068376 1177.993529 
L 502.903564 1075.496234 
L 496.492905 1037.948721 
z
" clip-path="url(#pd7fdf2df15)" style="fill: #ffffff; stroke: #ffffff; stroke-linejoin: miter"/>
   </g>
   <g id="patch_43">
    <path d="M -810.921198 1626.136495 
L -799.622729 1609.772104 
L -808.68198 1582.480536 
L -761.346737 1576.625453 
L -717.650873 1598.203746 
L -711.473393 1653.223575 
L -692.021481 1642.173398 
L -695.998562 1629.68888 
L -684.883222 1624.954745 
L -660.578442 1649.835936 
L -598.856284 1653.9808 
L -566.916267 1634.006584 
L -564.717711 1614.7063 
L -528.283854 1606.983909 
L -506.503896 1618.72302 
L -557.408547 1707.646156 
L -622.092666 1781.447314 
L -689.558428 1740.665915 
L -738.867358 1710.206508 
z
" clip-path="url(#pd7fdf2df15)" style="fill: #ffffff; stroke: #ffffff; stroke-linejoin: miter"/>
   </g>
   <g id="patch_44">
    <path d="M -166.402968 1758.107869 
L -137.149886 1759.773297 
L -69.942006 1795.562425 
L -66.925712 1738.233849 
L -99.264281 1682.865647 
L -168.316449 1678.23376 
L -241.534336 1737.254664 
L -231.299518 1743.461781 
L -223.438569 1743.432013 
L -221.412129 1745.650834 
L -214.294046 1746.259912 
L -208.732017 1750.866378 
L -200.976827 1753.106474 
L -197.081188 1750.770578 
L -193.014103 1752.690865 
L -192.746419 1750.882646 
L -181.512044 1751.630472 
L -180.574452 1758.913425 
L -168.393176 1752.602685 
z
" clip-path="url(#pd7fdf2df15)" style="fill: #ffffff; stroke: #ffffff; stroke-linejoin: miter"/>
   </g>
   <g id="patch_45">
    <path d="M -288.168765 2373.218846 
L -475.443835 2384.621489 
L -470.713386 2372.060708 
L -471.538108 2358.181138 
L -465.575011 2351.062394 
L -460.892739 2347.165188 
L -459.679837 2341.95377 
L -461.07498 2334.282704 
L -455.365892 2326.242329 
L -445.810637 2311.946139 
L -439.208747 2295.602136 
L -429.293309 2288.27014 
L -424.756568 2273.041295 
L -417.467411 2242.669207 
L -417.186529 2234.946117 
L -415.255751 2227.959923 
L -396.909543 2218.216069 
L -391.927536 2207.062111 
L -398.16428 2173.303974 
L -395.776712 2159.259951 
L -381.790918 2120.688123 
L -380.901891 2099.448804 
L -375.723671 2093.503112 
L -366.485547 2087.016141 
L -362.738362 2072.563729 
L -363.699281 2064.093624 
L -362.297532 2050.51253 
L -365.239108 2034.301915 
L -365.239108 2034.301915 
L -362.655737 2023.921449 
L -350.842503 2004.698577 
L -346.262784 1989.977774 
L -323.254198 1974.742185 
L -287.343303 1930.69423 
L -287.091933 1911.594969 
L -283.205427 1905.655198 
L -277.648327 1904.518081 
L -268.585252 1906.343591 
L -261.73588 1901.390218 
L -260.040228 1889.448469 
L -255.650399 1885.391673 
L -247.99585 1884.790516 
L -241.245121 1884.486837 
L -231.170514 1877.259544 
L -223.264643 1863.826388 
L -217.021572 1836.072347 
L -205.237315 1807.259096 
L -190.344403 1785.325813 
L -181.71866 1767.817105 
L -164.00405 1760.161312 
L -166.402968 1758.107869 
L -137.149886 1759.773297 
L -69.942006 1795.562425 
L -70.758176 1878.002044 
z
" clip-path="url(#pd7fdf2df15)" style="fill: #ffffff; stroke: #ffffff; stroke-linejoin: miter"/>
   </g>
   <g id="patch_46">
    <path d="M 467.798952 2312.9437 
L 554.13465 2359.947031 
L 597.256783 2505.430984 
L 462.08829 2514.138696 
L 460.886242 2455.252237 
L 458.094742 2318.64147 
z
" clip-path="url(#pd7fdf2df15)" style="fill: #ffffff; stroke: #ffffff; stroke-linejoin: miter"/>
   </g>
   <g id="patch_47">
    <path d="M 82.617329 1243.412986 
L 74.621691 1331.618044 
L 53.352121 1573.823473 
L -90.723991 1570.559165 
L -67.18576 1263.478696 
L -72.300577 1257.621265 
L -47.932828 1255.311484 
z
" clip-path="url(#pd7fdf2df15)" style="fill: #ffffff; stroke: #ffffff; stroke-linejoin: miter"/>
   </g>
   <g id="patch_48">
    <path d="M 82.617329 1243.412986 
L 74.621691 1331.618044 
L 53.352121 1573.823473 
L -90.723991 1570.559165 
L -67.18576 1263.478696 
L -72.300577 1257.621265 
L -47.932828 1255.311484 
z
" clip-path="url(#pd7fdf2df15)" style="fill: #ffffff; stroke: #ffffff; stroke-linejoin: miter"/>
   </g>
   <g id="patch_49">
    <path d="M -361.430006 -236.65858 
L -130.392276 -182.473902 
L -455.67754 -15.440239 
L -500.800705 -117.601063 
L -530.955229 -141.383241 
z
" clip-path="url(#pd7fdf2df15)" style="fill: #ffffff; stroke: #ffffff; stroke-linejoin: miter"/>
   </g>
   <g id="patch_50">
    <path d="M 106.370529 -237.385295 
L 164.603839 -241.262658 
L 193.958666 -243.244282 
L 195.181404 -150.205412 
L 123.059276 27.037295 
L 117.540049 -35.123461 
L 107.407035 -149.0569 
z
" clip-path="url(#pd7fdf2df15)" style="fill: #ffffff; stroke: #ffffff; stroke-linejoin: miter"/>
   </g>
   <g id="patch_51">
    <path d="M -115.715278 1570.092258 
L -90.723991 1570.559165 
L -99.264281 1682.865647 
L -110.985398 1733.754885 
L -137.149886 1759.773297 
L -166.402968 1758.107869 
L -168.393176 1752.602685 
L -180.574452 1758.913425 
L -181.512044 1751.630472 
L -192.746419 1750.882646 
L -193.014103 1752.690865 
L -197.081188 1750.770578 
L -200.976827 1753.106474 
L -208.732017 1750.866378 
L -214.294046 1746.259912 
L -221.412129 1745.650834 
L -223.438569 1743.432013 
L -231.299518 1743.461781 
L -241.534336 1737.254664 
L -168.316449 1678.23376 
z
" clip-path="url(#pd7fdf2df15)" style="fill: #ffffff; stroke: #ffffff; stroke-linejoin: miter"/>
   </g>
   <g id="patch_52">
    <path d="M -506.503896 1618.72302 
L -557.408547 1707.646156 
L -622.092666 1781.447314 
L -738.867358 1710.206508 
L -810.921198 1626.136495 
L -799.622729 1609.772104 
L -808.68198 1582.480536 
L -761.346737 1576.625453 
L -717.650873 1598.203746 
L -711.473393 1653.223575 
L -692.021481 1642.173398 
L -695.998562 1629.68888 
L -684.883222 1624.954745 
L -660.578442 1649.835936 
L -598.856284 1653.9808 
L -566.916267 1634.006584 
L -564.717711 1614.7063 
L -528.283854 1606.983909 
z
" clip-path="url(#pd7fdf2df15)" style="fill: #ffffff; stroke: #ffffff; stroke-linejoin: miter"/>
   </g>
   <g id="patch_53">
    <path d="M -925.236635 1276.918353 
L -922.842265 1351.950405 
L -919.504253 1452.51942 
L -937.840339 1409.57304 
L -953.511477 1369.61331 
L -991.926508 1280.688383 
z
" clip-path="url(#pd7fdf2df15)" style="fill: #ffffff; stroke: #ffffff; stroke-linejoin: miter"/>
   </g>
   <g id="patch_54">
    <path d="M -288.168765 2373.218846 
L -475.443835 2384.621489 
L -470.713386 2372.060708 
L -471.538108 2358.181138 
L -465.575011 2351.062394 
L -460.892739 2347.165188 
L -459.679837 2341.95377 
L -461.07498 2334.282704 
L -455.365892 2326.242329 
L -445.810637 2311.946139 
L -439.208747 2295.602136 
L -429.293309 2288.27014 
L -424.756568 2273.041295 
L -417.467411 2242.669207 
L -417.186529 2234.946117 
L -415.255751 2227.959923 
L -396.909543 2218.216069 
L -391.927536 2207.062111 
L -398.16428 2173.303974 
L -395.776712 2159.259951 
L -381.790918 2120.688123 
L -380.901891 2099.448804 
L -375.723671 2093.503112 
L -366.485547 2087.016141 
L -362.738362 2072.563729 
L -363.699281 2064.093624 
L -362.297532 2050.51253 
L -365.239108 2034.301915 
L -362.655737 2023.921449 
L -350.842503 2004.698577 
L -346.262784 1989.977774 
L -323.254198 1974.742185 
L -287.343303 1930.69423 
L -287.091933 1911.594969 
L -283.205427 1905.655198 
L -277.648327 1904.518081 
L -268.585252 1906.343591 
L -261.73588 1901.390218 
L -260.040228 1889.448469 
L -255.650399 1885.391673 
L -247.99585 1884.790516 
L -241.245121 1884.486837 
L -231.170514 1877.259544 
L -223.264643 1863.826388 
L -217.021572 1836.072347 
L -205.237315 1807.259096 
L -190.344403 1785.325813 
L -181.71866 1767.817105 
L -164.00405 1760.161312 
L -166.402968 1758.107869 
L -137.149886 1759.773297 
L -69.942006 1795.562425 
L -70.758176 1878.002044 
z
" clip-path="url(#pd7fdf2df15)" style="fill: #ffffff; stroke: #ffffff; stroke-linejoin: miter"/>
   </g>
   <g id="patch_55">
    <path d="M -255.8066 483.202605 
L -162.722972 635.125432 
L -238.737177 672.576735 
L -342.794672 536.514557 
z
" clip-path="url(#pd7fdf2df15)" style="fill: #ffffff; stroke: #ffffff; stroke-linejoin: miter"/>
   </g>
   <g id="patch_56">
    <path d="M -115.715278 1570.092258 
L -90.723991 1570.559165 
L -99.264281 1682.865647 
L -168.316449 1678.23376 
z
" clip-path="url(#pd7fdf2df15)" style="fill: #ffffff; stroke: #ffffff; stroke-linejoin: miter"/>
   </g>
   <g id="patch_57">
    <path d="M -99.264281 1682.865647 
L -66.925712 1738.233849 
L -69.942006 1795.562425 
L -137.149886 1759.773297 
L -110.985398 1733.754885 
z
" clip-path="url(#pd7fdf2df15)" style="fill: #ffffff; stroke: #ffffff; stroke-linejoin: miter"/>
   </g>
   <g id="patch_58">
    <path d="M -99.264281 1682.865647 
L -110.985398 1733.754885 
L -137.149886 1759.773297 
L -166.402968 1758.107869 
L -168.393176 1752.602685 
L -180.574452 1758.913425 
L -181.512044 1751.630472 
L -192.746419 1750.882646 
L -193.014103 1752.690865 
L -197.081188 1750.770578 
L -200.976827 1753.106474 
L -208.732017 1750.866378 
L -214.294046 1746.259912 
L -221.412129 1745.650834 
L -223.438569 1743.432013 
L -231.299518 1743.461781 
L -241.534336 1737.254664 
L -168.316449 1678.23376 
z
" clip-path="url(#pd7fdf2df15)" style="fill: #ffffff; stroke: #ffffff; stroke-linejoin: miter"/>
   </g>
   <g id="patch_59">
    <path d="M -255.8066 483.202605 
L -162.722972 635.125432 
L -238.737177 672.576735 
L -342.794672 536.514557 
z
" clip-path="url(#pd7fdf2df15)" style="fill: #ffffff; stroke: #ffffff; stroke-linejoin: miter"/>
   </g>
   <g id="patch_60">
    <path d="M -1129.501521 411.284063 
L -1130.0132 421.480955 
L -1131.910187 475.623804 
L -1156.902265 486.159885 
L -1155.141589 475.996426 
L -1160.164806 468.793888 
L -1169.384112 456.175827 
L -1173.031787 448.811889 
L -1153.329977 440.50091 
L -1153.717698 436.371133 
L -1155.240175 432.990681 
L -1157.806527 422.321118 
z
" clip-path="url(#pd7fdf2df15)" style="fill: #ffffff; stroke: #ffffff; stroke-linejoin: miter"/>
   </g>
   <g id="patch_61">
    <path d="M 171.663529 144.584631 
L 233.646246 148.201168 
L 250.991265 149.302945 
L 377.544327 190.818016 
L 398.487273 197.857163 
L 376.096149 198.503184 
L 225.762689 203.678975 
L 124.347068 204.471369 
L 73.832727 176.384917 
L 92.307417 145.76008 
L 171.663529 144.584631 
z
" clip-path="url(#pd7fdf2df15)" style="fill: #ffedd9; stroke: #ffedd9; stroke-linejoin: miter"/>
   </g>
   <g id="line2d_1">
    <path d="M 171.663529 144.584631 
L 233.646246 148.201168 
L 250.991265 149.302945 
L 377.544327 190.818016 
L 398.487273 197.857163 
L 376.096149 198.503184 
L 225.762689 203.678975 
L 124.347068 204.471369 
L 73.832727 176.384917 
L 92.307417 145.76008 
L 171.663529 144.584631 
" clip-path="url(#pd7fdf2df15)" style="fill: none; stroke: #000000; stroke-width: 0.5; stroke-linecap: square"/>
   </g>
   <g id="line2d_2">
    <path clip-path="url(#pd7fdf2df15)" style="fill: none; stroke: #8f8f8f; stroke-width: 0.5; stroke-linecap: square"/>
   </g>
   <g id="line2d_3">
    <path clip-path="url(#pd7fdf2df15)" style="fill: none; stroke: #8f8f8f; stroke-width: 0.5; stroke-linecap: square"/>
   </g>
   <g id="line2d_4">
    <path clip-path="url(#pd7fdf2df15)" style="fill: none; stroke: #8f8f8f; stroke-width: 0.5; stroke-linecap: square"/>
   </g>
   <g id="line2d_5">
    <path clip-path="url(#pd7fdf2df15)" style="fill: none; stroke: #8f8f8f; stroke-width: 0.5; stroke-linecap: square"/>
   </g>
   <g id="line2d_6">
    <path clip-path="url(#pd7fdf2df15)" style="fill: none; stroke: #8f8f8f; stroke-width: 0.5; stroke-linecap: square"/>
   </g>
   <g id="line2d_7">
    <path clip-path="url(#pd7fdf2df15)" style="fill: none; stroke: #8f8f8f; stroke-width: 0.5; stroke-linecap: square"/>
   </g>
   <g id="line2d_8">
    <path clip-path="url(#pd7fdf2df15)" style="fill: none; stroke: #8f8f8f; stroke-width: 0.5; stroke-linecap: square"/>
   </g>
   <g id="line2d_9">
    <path clip-path="url(#pd7fdf2df15)" style="fill: none; stroke: #8f8f8f; stroke-width: 0.5; stroke-linecap: square"/>
   </g>
   <g id="line2d_10">
    <path clip-path="url(#pd7fdf2df15)" style="fill: none; stroke: #8f8f8f; stroke-width: 0.5; stroke-linecap: square"/>
   </g>
   <g id="line2d_11">
    <path clip-path="url(#pd7fdf2df15)" style="fill: none; stroke: #8f8f8f; stroke-width: 0.5; stroke-linecap: square"/>
   </g>
   <g id="line2d_12">
    <path clip-path="url(#pd7fdf2df15)" style="fill: none; stroke: #8f8f8f; stroke-width: 0.5; stroke-linecap: square"/>
   </g>
   <g id="line2d_13">
    <path clip-path="url(#pd7fdf2df15)" style="fill: none; stroke: #8f8f8f; stroke-width: 0.5; stroke-linecap: square"/>
   </g>
   <g id="line2d_14">
    <path clip-path="url(#pd7fdf2df15)" style="fill: none; stroke: #8f8f8f; stroke-width: 0.5; stroke-linecap: square"/>
   </g>
   <g id="line2d_15">
    <path clip-path="url(#pd7fdf2df15)" style="fill: none; stroke: #8f8f8f; stroke-width: 0.5; stroke-linecap: square"/>
   </g>
   <g id="line2d_16">
    <path clip-path="url(#pd7fdf2df15)" style="fill: none; stroke: #8f8f8f; stroke-width: 0.5; stroke-linecap: square"/>
   </g>
   <g id="line2d_17">
    <path clip-path="url(#pd7fdf2df15)" style="fill: none; stroke: #8f8f8f; stroke-width: 0.5; stroke-linecap: square"/>
   </g>
   <g id="line2d_18">
    <path d="M 0 0 
" clip-path="url(#pd7fdf2df15)" style="fill: none; stroke: #8f8f8f; stroke-width: 0.5; stroke-linecap: square"/>
   </g>
   <g id="line2d_19">
    <path d="M 0 0 
" clip-path="url(#pd7fdf2df15)" style="fill: none; stroke: #8f8f8f; stroke-width: 0.5; stroke-linecap: square"/>
   </g>
   <g id="line2d_20">
    <path d="M 0 0 
" clip-path="url(#pd7fdf2df15)" style="fill: none; stroke: #8f8f8f; stroke-width: 0.5; stroke-linecap: square"/>
   </g>
   <g id="line2d_21">
    <path clip-path="url(#pd7fdf2df15)" style="fill: none; stroke: #8f8f8f; stroke-width: 0.5; stroke-linecap: square"/>
   </g>
   <g id="line2d_22">
    <path clip-path="url(#pd7fdf2df15)" style="fill: none; stroke: #8f8f8f; stroke-width: 0.5; stroke-linecap: square"/>
   </g>
   <g id="line2d_23">
    <path clip-path="url(#pd7fdf2df15)" style="fill: none; stroke: #8f8f8f; stroke-width: 0.5; stroke-linecap: square"/>
   </g>
   <g id="line2d_24">
    <path clip-path="url(#pd7fdf2df15)" style="fill: none; stroke: #8f8f8f; stroke-width: 0.5; stroke-linecap: square"/>
   </g>
   <g id="line2d_25">
    <path clip-path="url(#pd7fdf2df15)" style="fill: none; stroke: #8f8f8f; stroke-width: 0.5; stroke-linecap: square"/>
   </g>
   <g id="line2d_26">
    <path clip-path="url(#pd7fdf2df15)" style="fill: none; stroke: #8f8f8f; stroke-width: 0.5; stroke-linecap: square"/>
   </g>
   <g id="line2d_27">
    <path d="M 134.467979 -1 
L 123.059276 27.037295 
L 120.569857 -1 
" clip-path="url(#pd7fdf2df15)" style="fill: none; stroke: #8f8f8f; stroke-width: 0.5; stroke-linecap: square"/>
   </g>
   <g id="line2d_28">
    <path clip-path="url(#pd7fdf2df15)" style="fill: none; stroke: #8f8f8f; stroke-width: 0.5; stroke-linecap: square"/>
   </g>
   <g id="line2d_29">
    <path clip-path="url(#pd7fdf2df15)" style="fill: none; stroke: #8f8f8f; stroke-width: 0.5; stroke-linecap: square"/>
   </g>
   <g id="line2d_30">
    <path clip-path="url(#pd7fdf2df15)" style="fill: none; stroke: #8f8f8f; stroke-width: 0.5; stroke-linecap: square"/>
   </g>
   <g id="line2d_31">
    <path clip-path="url(#pd7fdf2df15)" style="fill: none; stroke: #8f8f8f; stroke-width: 0.5; stroke-linecap: square"/>
   </g>
   <g id="line2d_32">
    <path clip-path="url(#pd7fdf2df15)" style="fill: none; stroke: #8f8f8f; stroke-width: 0.5; stroke-linecap: square"/>
   </g>
   <g id="line2d_33">
    <path clip-path="url(#pd7fdf2df15)" style="fill: none; stroke: #8f8f8f; stroke-width: 0.5; stroke-linecap: square"/>
   </g>
   <g id="line2d_34">
    <path clip-path="url(#pd7fdf2df15)" style="fill: none; stroke: #8f8f8f; stroke-width: 0.5; stroke-linecap: square"/>
   </g>
   <g id="line2d_35">
    <path clip-path="url(#pd7fdf2df15)" style="fill: none; stroke: #8f8f8f; stroke-width: 0.5; stroke-linecap: square"/>
   </g>
   <g id="line2d_36">
    <path clip-path="url(#pd7fdf2df15)" style="fill: none; stroke: #8f8f8f; stroke-width: 0.5; stroke-linecap: square"/>
   </g>
   <g id="line2d_37">
    <path clip-path="url(#pd7fdf2df15)" style="fill: none; stroke: #8f8f8f; stroke-width: 0.5; stroke-linecap: square"/>
   </g>
   <g id="line2d_38">
    <path clip-path="url(#pd7fdf2df15)" style="fill: none; stroke: #8f8f8f; stroke-width: 0.5; stroke-linecap: square"/>
   </g>
   <g id="line2d_39">
    <path clip-path="url(#pd7fdf2df15)" style="fill: none; stroke: #8f8f8f; stroke-width: 0.5; stroke-linecap: square"/>
   </g>
   <g id="line2d_40">
    <path clip-path="url(#pd7fdf2df15)" style="fill: none; stroke: #8f8f8f; stroke-width: 0.5; stroke-linecap: square"/>
   </g>
   <g id="line2d_41">
    <path clip-path="url(#pd7fdf2df15)" style="fill: none; stroke: #8f8f8f; stroke-width: 0.5; stroke-linecap: square"/>
   </g>
   <g id="line2d_42">
    <path clip-path="url(#pd7fdf2df15)" style="fill: none; stroke: #8f8f8f; stroke-width: 0.5; stroke-linecap: square"/>
   </g>
   <g id="line2d_43">
    <path clip-path="url(#pd7fdf2df15)" style="fill: none; stroke: #8f8f8f; stroke-width: 0.5; stroke-linecap: square"/>
   </g>
   <g id="line2d_44">
    <path clip-path="url(#pd7fdf2df15)" style="fill: none; stroke: #8f8f8f; stroke-width: 0.5; stroke-linecap: square"/>
   </g>
   <g id="line2d_45">
    <path clip-path="url(#pd7fdf2df15)" style="fill: none; stroke: #8f8f8f; stroke-width: 0.5; stroke-linecap: square"/>
   </g>
   <g id="line2d_46">
    <path clip-path="url(#pd7fdf2df15)" style="fill: none; stroke: #8f8f8f; stroke-width: 0.5; stroke-linecap: square"/>
   </g>
   <g id="line2d_47">
    <path clip-path="url(#pd7fdf2df15)" style="fill: none; stroke: #8f8f8f; stroke-width: 0.5; stroke-linecap: square"/>
   </g>
   <g id="line2d_48">
    <path clip-path="url(#pd7fdf2df15)" style="fill: none; stroke: #8f8f8f; stroke-width: 0.5; stroke-linecap: square"/>
   </g>
   <g id="line2d_49">
    <path d="M 134.467979 -1 
L 123.059276 27.037295 
L 120.569857 -1 
" clip-path="url(#pd7fdf2df15)" style="fill: none; stroke: #8f8f8f; stroke-width: 0.5; stroke-linecap: square"/>
   </g>
   <g id="line2d_50">
    <path clip-path="url(#pd7fdf2df15)" style="fill: none; stroke: #8f8f8f; stroke-width: 0.5; stroke-linecap: square"/>
   </g>
   <g id="line2d_51">
    <path clip-path="url(#pd7fdf2df15)" style="fill: none; stroke: #8f8f8f; stroke-width: 0.5; stroke-linecap: square"/>
   </g>
   <g id="line2d_52">
    <path clip-path="url(#pd7fdf2df15)" style="fill: none; stroke: #8f8f8f; stroke-width: 0.5; stroke-linecap: square"/>
   </g>
   <g id="line2d_53">
    <path clip-path="url(#pd7fdf2df15)" style="fill: none; stroke: #8f8f8f; stroke-width: 0.5; stroke-linecap: square"/>
   </g>
   <g id="line2d_54">
    <path clip-path="url(#pd7fdf2df15)" style="fill: none; stroke: #8f8f8f; stroke-width: 0.5; stroke-linecap: square"/>
   </g>
   <g id="line2d_55">
    <path clip-path="url(#pd7fdf2df15)" style="fill: none; stroke: #8f8f8f; stroke-width: 0.5; stroke-linecap: square"/>
   </g>
   <g id="line2d_56">
    <path clip-path="url(#pd7fdf2df15)" style="fill: none; stroke: #8f8f8f; stroke-width: 0.5; stroke-linecap: square"/>
   </g>
   <g id="line2d_57">
    <path clip-path="url(#pd7fdf2df15)" style="fill: none; stroke: #8f8f8f; stroke-width: 0.5; stroke-linecap: square"/>
   </g>
   <g id="line2d_58">
    <path clip-path="url(#pd7fdf2df15)" style="fill: none; stroke: #8f8f8f; stroke-width: 0.5; stroke-linecap: square"/>
   </g>
   <g id="line2d_59">
    <path clip-path="url(#pd7fdf2df15)" style="fill: none; stroke: #8f8f8f; stroke-width: 0.5; stroke-linecap: square"/>
   </g>
   <g id="line2d_60">
    <path d="M 171.663529 144.584631 
L 233.646246 148.201168 
L 250.991265 149.302945 
L 377.544327 190.818016 
L 398.487273 197.857163 
L 376.096149 198.503184 
L 225.762689 203.678975 
L 124.347068 204.471369 
L 73.832727 176.384917 
L 92.307417 145.76008 
L 171.663529 144.584631 
L 171.663529 144.584631 
" clip-path="url(#pd7fdf2df15)" style="fill: none; stroke: #000000; stroke-width: 0.5; stroke-linecap: square"/>
   </g>
  </g>
 </g>
 <defs>
  <clipPath id="pd7fdf2df15">
   <rect x="57.6" y="141.590295" width="357.12" height="65.875411"/>
  </clipPath>
 </defs>
</svg>
