<?xml version="1.0" encoding="utf-8" standalone="no"?>
<!DOCTYPE svg PUBLIC "-//W3C//DTD SVG 1.1//EN"
  "http://www.w3.org/Graphics/SVG/1.1/DTD/svg11.dtd">
<svg xmlns:xlink="http://www.w3.org/1999/xlink" width="460.8pt" height="345.6pt" viewBox="0 0 460.8 345.6" xmlns="http://www.w3.org/2000/svg" version="1.1">
 <metadata>
  <rdf:RDF xmlns:dc="http://purl.org/dc/elements/1.1/" xmlns:cc="http://creativecommons.org/ns#" xmlns:rdf="http://www.w3.org/1999/02/22-rdf-syntax-ns#">
   <cc:Work>
    <dc:type rdf:resource="http://purl.org/dc/dcmitype/StillImage"/>
    <dc:date>2022-04-24T16:14:11.060275</dc:date>
    <dc:format>image/svg+xml</dc:format>
    <dc:creator>
     <cc:Agent>
      <dc:title>Matplotlib v3.5.0, https://matplotlib.org/</dc:title>
     </cc:Agent>
    </dc:creator>
   </cc:Work>
  </rdf:RDF>
 </metadata>
 <defs>
  <style type="text/css">*{stroke-linejoin: round; stroke-linecap: butt}</style>
 </defs>
 <g id="figure_1">
  <g id="patch_1">
   <path d="M 0 345.6 
L 460.8 345.6 
L 460.8 0 
L 0 0 
z
" style="fill: #ffffff"/>
  </g>
  <g id="axes_1">
   <g id="patch_2">
    <path d="M 298.556868 53.568 
L 304.680893 114.214826 
L 303.795163 126.236064 
L 303.244762 130.205632 
L 248.322943 177.751412 
L 215.867367 178.139614 
L 186.871716 178.519017 
L 186.529314 149.340348 
L 186.281823 128.266253 
L 186.232305 124.051369 
L 167.639107 69.776075 
L 204.682703 68.170627 
z
" clip-path="url(#pcd6ef168ac)" style="fill: #ffedd9; stroke: #ffedd9; stroke-linejoin: miter"/>
   </g>
   <g id="patch_3">
    <path d="M 303.244762 130.205632 
L 292.290133 254.595948 
L 282.650076 254.797745 
L 231.531634 255.723976 
L 193.77847 256.252676 
L 193.499726 253.338062 
L 192.042325 236.690506 
L 190.219087 216.156134 
L 186.871716 178.519017 
L 215.867367 178.139614 
L 248.322943 177.751412 
z
" clip-path="url(#pcd6ef168ac)" style="fill: #ffedd9; stroke: #ffedd9; stroke-linejoin: miter"/>
   </g>
   <g id="patch_4">
    <path d="M 193.77847 256.252676 
L 231.531634 255.723976 
L 200.712675 275.619003 
L 180.522466 288.69875 
L 169.984885 295.488 
L 175.780678 286.026452 
L 181.883663 275.909751 
z
" clip-path="url(#pcd6ef168ac)" style="fill: #ffedd9; stroke: #ffedd9; stroke-linejoin: miter"/>
   </g>
   <g id="patch_5">
    <path d="M 298.556868 53.568 
L 304.680893 114.214826 
L 303.795163 126.236064 
L 303.244762 130.205632 
L 248.322943 177.751412 
L 215.867367 178.139614 
L 186.871716 178.519017 
L 186.529314 149.340348 
L 186.281823 128.266253 
L 186.232305 124.051369 
L 167.639107 69.776075 
L 204.682703 68.170627 
L 298.556868 53.568 
z
" clip-path="url(#pcd6ef168ac)" style="fill: #ffedd9; stroke: #ffedd9; stroke-linejoin: miter"/>
   </g>
   <g id="patch_6">
    <path d="M 303.244762 130.205632 
L 292.290133 254.595948 
L 282.650076 254.797745 
L 231.531634 255.723976 
L 193.77847 256.252676 
L 193.499726 253.338062 
L 192.042325 236.690506 
L 190.219087 216.156134 
L 186.871716 178.519017 
L 215.867367 178.139614 
L 248.322943 177.751412 
L 303.244762 130.205632 
z
" clip-path="url(#pcd6ef168ac)" style="fill: #ffedd9; stroke: #ffedd9; stroke-linejoin: miter"/>
   </g>
   <g id="patch_7">
    <path d="M 193.77847 256.252676 
L 231.531634 255.723976 
L 200.712675 275.619003 
L 180.522466 288.69875 
L 169.984885 295.488 
L 175.780678 286.026452 
L 181.883663 275.909751 
L 193.77847 256.252676 
z
" clip-path="url(#pcd6ef168ac)" style="fill: #ffedd9; stroke: #ffedd9; stroke-linejoin: miter"/>
   </g>
   <g id="line2d_1">
    <path d="M 298.556868 53.568 
L 304.680893 114.214826 
L 303.795163 126.236064 
L 303.244762 130.205632 
L 248.322943 177.751412 
L 215.867367 178.139614 
L 186.871716 178.519017 
L 186.529314 149.340348 
L 186.281823 128.266253 
L 186.232305 124.051369 
L 167.639107 69.776075 
L 204.682703 68.170627 
L 298.556868 53.568 
" clip-path="url(#pcd6ef168ac)" style="fill: none; stroke: #ffc380; stroke-width: 0.5; stroke-linecap: square"/>
   </g>
   <g id="line2d_2">
    <path d="M 303.244762 130.205632 
L 292.290133 254.595948 
L 282.650076 254.797745 
L 231.531634 255.723976 
L 193.77847 256.252676 
L 193.499726 253.338062 
L 192.042325 236.690506 
L 190.219087 216.156134 
L 186.871716 178.519017 
L 215.867367 178.139614 
L 248.322943 177.751412 
L 303.244762 130.205632 
" clip-path="url(#pcd6ef168ac)" style="fill: none; stroke: #ffc380; stroke-width: 0.5; stroke-linecap: square"/>
   </g>
   <g id="line2d_3">
    <path d="M 193.77847 256.252676 
L 231.531634 255.723976 
L 200.712675 275.619003 
L 180.522466 288.69875 
L 169.984885 295.488 
L 175.780678 286.026452 
L 181.883663 275.909751 
L 193.77847 256.252676 
" clip-path="url(#pcd6ef168ac)" style="fill: none; stroke: #ffc380; stroke-width: 0.5; stroke-linecap: square"/>
   </g>
   <g id="line2d_4">
    <path clip-path="url(#pcd6ef168ac)" style="fill: none; stroke: #8f8f8f; stroke-width: 0.2; stroke-linecap: square"/>
   </g>
   <g id="line2d_5">
    <path clip-path="url(#pcd6ef168ac)" style="fill: none; stroke: #8f8f8f; stroke-width: 0.2; stroke-linecap: square"/>
   </g>
   <g id="line2d_6">
    <path clip-path="url(#pcd6ef168ac)" style="fill: none; stroke: #8f8f8f; stroke-width: 0.2; stroke-linecap: square"/>
   </g>
   <g id="line2d_7">
    <path clip-path="url(#pcd6ef168ac)" style="fill: none; stroke: #8f8f8f; stroke-width: 0.2; stroke-linecap: square"/>
   </g>
   <g id="line2d_8">
    <path clip-path="url(#pcd6ef168ac)" style="fill: none; stroke: #8f8f8f; stroke-width: 0.2; stroke-linecap: square"/>
   </g>
   <g id="line2d_9">
    <path clip-path="url(#pcd6ef168ac)" style="fill: none; stroke: #8f8f8f; stroke-width: 0.2; stroke-linecap: square"/>
   </g>
   <g id="line2d_10">
    <path clip-path="url(#pcd6ef168ac)" style="fill: none; stroke: #8f8f8f; stroke-width: 0.2; stroke-linecap: square"/>
   </g>
   <g id="line2d_11">
    <path clip-path="url(#pcd6ef168ac)" style="fill: none; stroke: #8f8f8f; stroke-width: 0.2; stroke-linecap: square"/>
   </g>
   <g id="line2d_12">
    <path clip-path="url(#pcd6ef168ac)" style="fill: none; stroke: #8f8f8f; stroke-width: 0.2; stroke-linecap: square"/>
   </g>
   <g id="line2d_13">
    <path clip-path="url(#pcd6ef168ac)" style="fill: none; stroke: #8f8f8f; stroke-width: 0.2; stroke-linecap: square"/>
   </g>
   <g id="line2d_14">
    <path clip-path="url(#pcd6ef168ac)" style="fill: none; stroke: #8f8f8f; stroke-width: 0.2; stroke-linecap: square"/>
   </g>
   <g id="line2d_15">
    <path clip-path="url(#pcd6ef168ac)" style="fill: none; stroke: #8f8f8f; stroke-width: 0.2; stroke-linecap: square"/>
   </g>
   <g id="line2d_16">
    <path clip-path="url(#pcd6ef168ac)" style="fill: none; stroke: #8f8f8f; stroke-width: 0.2; stroke-linecap: square"/>
   </g>
   <g id="line2d_17">
    <path clip-path="url(#pcd6ef168ac)" style="fill: none; stroke: #8f8f8f; stroke-width: 0.2; stroke-linecap: square"/>
   </g>
   <g id="line2d_18">
    <path clip-path="url(#pcd6ef168ac)" style="fill: none; stroke: #8f8f8f; stroke-width: 0.2; stroke-linecap: square"/>
   </g>
   <g id="line2d_19">
    <path clip-path="url(#pcd6ef168ac)" style="fill: none; stroke: #8f8f8f; stroke-width: 0.2; stroke-linecap: square"/>
   </g>
   <g id="line2d_20">
    <path clip-path="url(#pcd6ef168ac)" style="fill: none; stroke: #8f8f8f; stroke-width: 0.2; stroke-linecap: square"/>
   </g>
   <g id="line2d_21">
    <path clip-path="url(#pcd6ef168ac)" style="fill: none; stroke: #8f8f8f; stroke-width: 0.2; stroke-linecap: square"/>
   </g>
   <g id="line2d_22">
    <path d="M -1 218.445747 
L 0.860654 222.658349 
L 11.289076 246.638207 
L -1 248.212536 
" clip-path="url(#pcd6ef168ac)" style="fill: none; stroke: #8f8f8f; stroke-width: 0.2; stroke-linecap: square"/>
   </g>
   <g id="line2d_23">
    <path d="M 36.370855 303.977256 
L 64.169829 344.397993 
L 65.676446 346.6 
M -1 306.959795 
L 27.210965 305.702884 
L 36.370855 303.977256 
" clip-path="url(#pcd6ef168ac)" style="fill: none; stroke: #8f8f8f; stroke-width: 0.2; stroke-linecap: square"/>
   </g>
   <g id="line2d_24">
    <path clip-path="url(#pcd6ef168ac)" style="fill: none; stroke: #8f8f8f; stroke-width: 0.2; stroke-linecap: square"/>
   </g>
   <g id="line2d_25">
    <path clip-path="url(#pcd6ef168ac)" style="fill: none; stroke: #8f8f8f; stroke-width: 0.2; stroke-linecap: square"/>
   </g>
   <g id="line2d_26">
    <path clip-path="url(#pcd6ef168ac)" style="fill: none; stroke: #8f8f8f; stroke-width: 0.2; stroke-linecap: square"/>
   </g>
   <g id="line2d_27">
    <path clip-path="url(#pcd6ef168ac)" style="fill: none; stroke: #8f8f8f; stroke-width: 0.2; stroke-linecap: square"/>
   </g>
   <g id="line2d_28">
    <path d="M -1 218.445747 
L 0.860654 222.658349 
L 11.289076 246.638207 
L -1 248.212536 
" clip-path="url(#pcd6ef168ac)" style="fill: none; stroke: #8f8f8f; stroke-width: 0.2; stroke-linecap: square"/>
   </g>
   <g id="line2d_29">
    <path clip-path="url(#pcd6ef168ac)" style="fill: none; stroke: #8f8f8f; stroke-width: 0.2; stroke-linecap: square"/>
   </g>
   <g id="line2d_30">
    <path clip-path="url(#pcd6ef168ac)" style="fill: none; stroke: #8f8f8f; stroke-width: 0.2; stroke-linecap: square"/>
   </g>
   <g id="line2d_31">
    <path clip-path="url(#pcd6ef168ac)" style="fill: none; stroke: #8f8f8f; stroke-width: 0.2; stroke-linecap: square"/>
   </g>
   <g id="line2d_32">
    <path clip-path="url(#pcd6ef168ac)" style="fill: none; stroke: #8f8f8f; stroke-width: 0.2; stroke-linecap: square"/>
   </g>
   <g id="line2d_33">
    <path clip-path="url(#pcd6ef168ac)" style="fill: none; stroke: #8f8f8f; stroke-width: 0.2; stroke-linecap: square"/>
   </g>
   <g id="line2d_34">
    <path clip-path="url(#pcd6ef168ac)" style="fill: none; stroke: #8f8f8f; stroke-width: 0.2; stroke-linecap: square"/>
   </g>
   <g id="line2d_35">
    <path d="M -1 218.445747 
L 0.860654 222.658349 
L 11.289076 246.638207 
L -1 248.212536 
" clip-path="url(#pcd6ef168ac)" style="fill: none; stroke: #8f8f8f; stroke-width: 0.2; stroke-linecap: square"/>
   </g>
   <g id="line2d_36">
    <path clip-path="url(#pcd6ef168ac)" style="fill: none; stroke: #8f8f8f; stroke-width: 0.2; stroke-linecap: square"/>
   </g>
   <g id="line2d_37">
    <path clip-path="url(#pcd6ef168ac)" style="fill: none; stroke: #8f8f8f; stroke-width: 0.2; stroke-linecap: square"/>
   </g>
   <g id="line2d_38">
    <path clip-path="url(#pcd6ef168ac)" style="fill: none; stroke: #8f8f8f; stroke-width: 0.2; stroke-linecap: square"/>
   </g>
   <g id="line2d_39">
    <path d="M 0 0 
" clip-path="url(#pcd6ef168ac)" style="fill: none; stroke: #8f8f8f; stroke-width: 0.2; stroke-linecap: square"/>
   </g>
   <g id="line2d_40">
    <path clip-path="url(#pcd6ef168ac)" style="fill: none; stroke: #8f8f8f; stroke-width: 0.2; stroke-linecap: square"/>
   </g>
   <g id="line2d_41">
    <path clip-path="url(#pcd6ef168ac)" style="fill: none; stroke: #8f8f8f; stroke-width: 0.2; stroke-linecap: square"/>
   </g>
   <g id="line2d_42">
    <path clip-path="url(#pcd6ef168ac)" style="fill: none; stroke: #8f8f8f; stroke-width: 0.2; stroke-linecap: square"/>
   </g>
   <g id="line2d_43">
    <path clip-path="url(#pcd6ef168ac)" style="fill: none; stroke: #8f8f8f; stroke-width: 0.2; stroke-linecap: square"/>
   </g>
   <g id="line2d_44">
    <path clip-path="url(#pcd6ef168ac)" style="fill: none; stroke: #8f8f8f; stroke-width: 0.2; stroke-linecap: square"/>
   </g>
   <g id="line2d_45">
    <path d="M 447.112268 346.6 
L 440.48297 318.025177 
L 431.108126 277.599001 
L 424.887067 250.946465 
L 409.535006 251.322655 
L 438.168823 214.605577 
L 453.108253 195.445524 
L 461.8 187.237219 
M 425.347514 346.6 
L 417.655748 333.524163 
L 404.191571 310.664465 
L 396.037168 305.274154 
L 409.535006 251.322655 
L 438.168823 214.605577 
L 453.108253 195.445524 
L 461.8 187.237219 
" clip-path="url(#pcd6ef168ac)" style="fill: none; stroke: #8f8f8f; stroke-width: 0.2; stroke-linecap: square"/>
   </g>
   <g id="line2d_46">
    <path d="M 0 0 
" clip-path="url(#pcd6ef168ac)" style="fill: none; stroke: #8f8f8f; stroke-width: 0.2; stroke-linecap: square"/>
   </g>
   <g id="line2d_47">
    <path d="M 461.8 263.997944 
L 431.108126 277.599001 
L 384.906143 298.085748 
L 424.887067 250.946465 
L 409.535006 251.322655 
L 438.168823 214.605577 
L 453.108253 195.445524 
L 461.8 187.237219 
M 461.8 263.997944 
L 431.108126 277.599001 
L 424.887067 250.946465 
L 409.535006 251.322655 
L 438.168823 214.605577 
L 453.108253 195.445524 
L 461.8 187.237219 
M 461.8 263.997944 
L 431.108126 277.599001 
L 424.887067 250.946465 
L 409.535006 251.322655 
L 438.168823 214.605577 
L 453.108253 195.445524 
L 461.8 187.237219 
" clip-path="url(#pcd6ef168ac)" style="fill: none; stroke: #8f8f8f; stroke-width: 0.2; stroke-linecap: square"/>
   </g>
   <g id="line2d_48">
    <path d="M 400.061768 346.6 
L 399.575228 345.842301 
L 375.774239 308.863258 
L 384.906143 298.085748 
L 431.108126 277.599001 
L 461.8 263.997944 
M 447.112268 346.6 
L 440.48297 318.025177 
L 431.108126 277.599001 
L 461.8 263.997944 
" clip-path="url(#pcd6ef168ac)" style="fill: none; stroke: #8f8f8f; stroke-width: 0.2; stroke-linecap: square"/>
   </g>
   <g id="line2d_49">
    <path d="M 438.168823 214.605577 
L 409.535006 251.322655 
L 361.709023 252.823685 
L 361.092227 219.04202 
L 438.168823 214.605577 
" clip-path="url(#pcd6ef168ac)" style="fill: none; stroke: #8f8f8f; stroke-width: 0.2; stroke-linecap: square"/>
   </g>
   <g id="line2d_50">
    <path d="M 303.244762 130.205632 
L 292.290133 254.595948 
L 282.650076 254.797745 
L 231.531634 255.723976 
L 193.77847 256.252676 
L 193.499726 253.338062 
L 192.042325 236.690506 
L 215.867367 178.139614 
L 248.322943 177.751412 
L 303.244762 130.205632 
" clip-path="url(#pcd6ef168ac)" style="fill: none; stroke: #8f8f8f; stroke-width: 0.2; stroke-linecap: square"/>
   </g>
   <g id="line2d_51">
    <path d="M 215.867367 178.139614 
L 192.042325 236.690506 
L 190.219087 216.156134 
L 186.871716 178.519017 
L 215.867367 178.139614 
" clip-path="url(#pcd6ef168ac)" style="fill: none; stroke: #8f8f8f; stroke-width: 0.2; stroke-linecap: square"/>
   </g>
   <g id="line2d_52">
    <path clip-path="url(#pcd6ef168ac)" style="fill: none; stroke: #8f8f8f; stroke-width: 0.2; stroke-linecap: square"/>
   </g>
   <g id="line2d_53">
    <path clip-path="url(#pcd6ef168ac)" style="fill: none; stroke: #8f8f8f; stroke-width: 0.2; stroke-linecap: square"/>
   </g>
   <g id="line2d_54">
    <path clip-path="url(#pcd6ef168ac)" style="fill: none; stroke: #8f8f8f; stroke-width: 0.2; stroke-linecap: square"/>
   </g>
   <g id="line2d_55">
    <path clip-path="url(#pcd6ef168ac)" style="fill: none; stroke: #8f8f8f; stroke-width: 0.2; stroke-linecap: square"/>
   </g>
   <g id="line2d_56">
    <path clip-path="url(#pcd6ef168ac)" style="fill: none; stroke: #8f8f8f; stroke-width: 0.2; stroke-linecap: square"/>
   </g>
   <g id="line2d_57">
    <path clip-path="url(#pcd6ef168ac)" style="fill: none; stroke: #8f8f8f; stroke-width: 0.2; stroke-linecap: square"/>
   </g>
   <g id="line2d_58">
    <path clip-path="url(#pcd6ef168ac)" style="fill: none; stroke: #8f8f8f; stroke-width: 0.2; stroke-linecap: square"/>
   </g>
   <g id="line2d_59">
    <path clip-path="url(#pcd6ef168ac)" style="fill: none; stroke: #8f8f8f; stroke-width: 0.2; stroke-linecap: square"/>
   </g>
   <g id="line2d_60">
    <path clip-path="url(#pcd6ef168ac)" style="fill: none; stroke: #8f8f8f; stroke-width: 0.2; stroke-linecap: square"/>
   </g>
   <g id="line2d_61">
    <path clip-path="url(#pcd6ef168ac)" style="fill: none; stroke: #8f8f8f; stroke-width: 0.2; stroke-linecap: square"/>
   </g>
   <g id="line2d_62">
    <path clip-path="url(#pcd6ef168ac)" style="fill: none; stroke: #8f8f8f; stroke-width: 0.2; stroke-linecap: square"/>
   </g>
   <g id="line2d_63">
    <path clip-path="url(#pcd6ef168ac)" style="fill: none; stroke: #8f8f8f; stroke-width: 0.2; stroke-linecap: square"/>
   </g>
   <g id="line2d_64">
    <path clip-path="url(#pcd6ef168ac)" style="fill: none; stroke: #8f8f8f; stroke-width: 0.2; stroke-linecap: square"/>
   </g>
   <g id="line2d_65">
    <path d="M 440.48297 318.025177 
L 447.112268 346.6 
M 398.463189 346.6 
L 399.575228 345.842301 
L 440.48297 318.025177 
" clip-path="url(#pcd6ef168ac)" style="fill: none; stroke: #8f8f8f; stroke-width: 0.2; stroke-linecap: square"/>
   </g>
   <g id="line2d_66">
    <path d="M 409.535006 251.322655 
L 424.887067 250.946465 
L 431.108126 277.599001 
L 440.48297 318.025177 
L 399.575228 345.842301 
L 398.463189 346.6 
M 363.427217 346.6 
L 362.727068 308.519106 
L 362.101819 272.793157 
L 361.709023 252.823685 
L 409.535006 251.322655 
" clip-path="url(#pcd6ef168ac)" style="fill: none; stroke: #8f8f8f; stroke-width: 0.2; stroke-linecap: square"/>
   </g>
   <g id="line2d_67">
    <path d="M 438.168823 214.605577 
L 409.535006 251.322655 
L 361.709023 252.823685 
L 361.092227 219.04202 
L 438.168823 214.605577 
" clip-path="url(#pcd6ef168ac)" style="fill: none; stroke: #8f8f8f; stroke-width: 0.2; stroke-linecap: square"/>
   </g>
   <g id="line2d_68">
    <path d="M 225.969681 295.042853 
L 223.588815 346.6 
M 133.642708 346.6 
L 136.610538 343.490908 
L 148.921091 330.561364 
L 159.69065 312.638915 
L 169.984885 295.488 
L 175.780678 286.026452 
L 192.467738 295.304615 
L 225.969681 295.042853 
" clip-path="url(#pcd6ef168ac)" style="fill: none; stroke: #8f8f8f; stroke-width: 0.2; stroke-linecap: square"/>
   </g>
   <g id="line2d_69">
    <path d="M 282.650076 254.797745 
L 276.109687 290.794326 
L 275.631291 293.333067 
L 272.380043 310.193542 
L 249.23251 328.191877 
L 237.238249 346.6 
M 223.588815 346.6 
L 225.969681 295.042853 
L 228.573959 276.716147 
L 231.531634 255.723976 
L 282.650076 254.797745 
" clip-path="url(#pcd6ef168ac)" style="fill: none; stroke: #8f8f8f; stroke-width: 0.2; stroke-linecap: square"/>
   </g>
   <g id="line2d_70">
    <path d="M 231.531634 255.723976 
L 228.573959 276.716147 
L 225.969681 295.042853 
L 223.588815 346.6 
M 133.642708 346.6 
L 136.610538 343.490908 
L 148.921091 330.561364 
L 159.69065 312.638915 
L 169.984885 295.488 
L 180.522466 288.69875 
L 200.712675 275.619003 
L 231.531634 255.723976 
" clip-path="url(#pcd6ef168ac)" style="fill: none; stroke: #8f8f8f; stroke-width: 0.2; stroke-linecap: square"/>
   </g>
   <g id="line2d_71">
    <path clip-path="url(#pcd6ef168ac)" style="fill: none; stroke: #8f8f8f; stroke-width: 0.2; stroke-linecap: square"/>
   </g>
   <g id="line2d_72">
    <path clip-path="url(#pcd6ef168ac)" style="fill: none; stroke: #8f8f8f; stroke-width: 0.2; stroke-linecap: square"/>
   </g>
   <g id="line2d_73">
    <path d="M 231.531634 255.723976 
L 228.573959 276.716147 
L 225.969681 295.042853 
L 192.467738 295.304615 
L 175.780678 286.026452 
L 181.883663 275.909751 
L 193.77847 256.252676 
L 231.531634 255.723976 
" clip-path="url(#pcd6ef168ac)" style="fill: none; stroke: #8f8f8f; stroke-width: 0.2; stroke-linecap: square"/>
   </g>
   <g id="line2d_74">
    <path clip-path="url(#pcd6ef168ac)" style="fill: none; stroke: #8f8f8f; stroke-width: 0.2; stroke-linecap: square"/>
   </g>
   <g id="line2d_75">
    <path clip-path="url(#pcd6ef168ac)" style="fill: none; stroke: #8f8f8f; stroke-width: 0.2; stroke-linecap: square"/>
   </g>
   <g id="line2d_76">
    <path clip-path="url(#pcd6ef168ac)" style="fill: none; stroke: #8f8f8f; stroke-width: 0.2; stroke-linecap: square"/>
   </g>
   <g id="line2d_77">
    <path clip-path="url(#pcd6ef168ac)" style="fill: none; stroke: #8f8f8f; stroke-width: 0.2; stroke-linecap: square"/>
   </g>
   <g id="line2d_78">
    <path clip-path="url(#pcd6ef168ac)" style="fill: none; stroke: #8f8f8f; stroke-width: 0.2; stroke-linecap: square"/>
   </g>
   <g id="line2d_79">
    <path d="M 440.48297 318.025177 
L 447.112268 346.6 
M 400.061768 346.6 
L 399.575228 345.842301 
L 440.48297 318.025177 
" clip-path="url(#pcd6ef168ac)" style="fill: none; stroke: #8f8f8f; stroke-width: 0.2; stroke-linecap: square"/>
   </g>
   <g id="line2d_80">
    <path clip-path="url(#pcd6ef168ac)" style="fill: none; stroke: #8f8f8f; stroke-width: 0.2; stroke-linecap: square"/>
   </g>
   <g id="line2d_81">
    <path d="M 275.631291 293.333067 
L 272.380043 310.193542 
L 249.23251 328.191877 
L 237.238249 346.6 
M 223.588815 346.6 
L 225.969681 295.042853 
L 275.631291 293.333067 
" clip-path="url(#pcd6ef168ac)" style="fill: none; stroke: #8f8f8f; stroke-width: 0.2; stroke-linecap: square"/>
   </g>
   <g id="line2d_82">
    <path d="M 409.535006 251.322655 
L 424.887067 250.946465 
L 384.906143 298.085748 
L 375.774239 308.863258 
L 399.575228 345.842301 
L 398.463189 346.6 
M 363.427217 346.6 
L 362.727068 308.519106 
L 362.101819 272.793157 
L 361.709023 252.823685 
L 409.535006 251.322655 
" clip-path="url(#pcd6ef168ac)" style="fill: none; stroke: #8f8f8f; stroke-width: 0.2; stroke-linecap: square"/>
   </g>
   <g id="line2d_83">
    <path d="M 399.575228 345.842301 
L 400.061768 346.6 
M 398.463189 346.6 
L 399.575228 345.842301 
" clip-path="url(#pcd6ef168ac)" style="fill: none; stroke: #8f8f8f; stroke-width: 0.2; stroke-linecap: square"/>
   </g>
   <g id="line2d_84">
    <path d="M 282.650076 254.797745 
L 276.109687 290.794326 
L 275.631291 293.333067 
L 225.969681 295.042853 
L 228.573959 276.716147 
L 231.531634 255.723976 
L 282.650076 254.797745 
" clip-path="url(#pcd6ef168ac)" style="fill: none; stroke: #8f8f8f; stroke-width: 0.2; stroke-linecap: square"/>
   </g>
   <g id="line2d_85">
    <path d="M 424.887067 250.946465 
L 431.108126 277.599001 
L 440.48297 318.025177 
L 399.575228 345.842301 
L 375.774239 308.863258 
L 384.906143 298.085748 
L 424.887067 250.946465 
" clip-path="url(#pcd6ef168ac)" style="fill: none; stroke: #8f8f8f; stroke-width: 0.2; stroke-linecap: square"/>
   </g>
   <g id="line2d_86">
    <path clip-path="url(#pcd6ef168ac)" style="fill: none; stroke: #8f8f8f; stroke-width: 0.2; stroke-linecap: square"/>
   </g>
   <g id="line2d_87">
    <path clip-path="url(#pcd6ef168ac)" style="fill: none; stroke: #8f8f8f; stroke-width: 0.2; stroke-linecap: square"/>
   </g>
   <g id="line2d_88">
    <path clip-path="url(#pcd6ef168ac)" style="fill: none; stroke: #8f8f8f; stroke-width: 0.2; stroke-linecap: square"/>
   </g>
   <g id="line2d_89">
    <path clip-path="url(#pcd6ef168ac)" style="fill: none; stroke: #8f8f8f; stroke-width: 0.2; stroke-linecap: square"/>
   </g>
   <g id="line2d_90">
    <path clip-path="url(#pcd6ef168ac)" style="fill: none; stroke: #8f8f8f; stroke-width: 0.2; stroke-linecap: square"/>
   </g>
   <g id="line2d_91">
    <path clip-path="url(#pcd6ef168ac)" style="fill: none; stroke: #8f8f8f; stroke-width: 0.2; stroke-linecap: square"/>
   </g>
   <g id="line2d_92">
    <path clip-path="url(#pcd6ef168ac)" style="fill: none; stroke: #8f8f8f; stroke-width: 0.2; stroke-linecap: square"/>
   </g>
   <g id="line2d_93">
    <path clip-path="url(#pcd6ef168ac)" style="fill: none; stroke: #8f8f8f; stroke-width: 0.2; stroke-linecap: square"/>
   </g>
   <g id="line2d_94">
    <path clip-path="url(#pcd6ef168ac)" style="fill: none; stroke: #8f8f8f; stroke-width: 0.2; stroke-linecap: square"/>
   </g>
   <g id="line2d_95">
    <path clip-path="url(#pcd6ef168ac)" style="fill: none; stroke: #8f8f8f; stroke-width: 0.2; stroke-linecap: square"/>
   </g>
   <g id="line2d_96">
    <path clip-path="url(#pcd6ef168ac)" style="fill: none; stroke: #8f8f8f; stroke-width: 0.2; stroke-linecap: square"/>
   </g>
   <g id="line2d_97">
    <path clip-path="url(#pcd6ef168ac)" style="fill: none; stroke: #8f8f8f; stroke-width: 0.2; stroke-linecap: square"/>
   </g>
   <g id="line2d_98">
    <path clip-path="url(#pcd6ef168ac)" style="fill: none; stroke: #8f8f8f; stroke-width: 0.2; stroke-linecap: square"/>
   </g>
   <g id="line2d_99">
    <path clip-path="url(#pcd6ef168ac)" style="fill: none; stroke: #8f8f8f; stroke-width: 0.2; stroke-linecap: square"/>
   </g>
   <g id="line2d_100">
    <path clip-path="url(#pcd6ef168ac)" style="fill: none; stroke: #8f8f8f; stroke-width: 0.2; stroke-linecap: square"/>
   </g>
   <g id="line2d_101">
    <path clip-path="url(#pcd6ef168ac)" style="fill: none; stroke: #8f8f8f; stroke-width: 0.2; stroke-linecap: square"/>
   </g>
   <g id="line2d_102">
    <path clip-path="url(#pcd6ef168ac)" style="fill: none; stroke: #8f8f8f; stroke-width: 0.2; stroke-linecap: square"/>
   </g>
   <g id="line2d_103">
    <path d="M 0 0 
" clip-path="url(#pcd6ef168ac)" style="fill: none; stroke: #8f8f8f; stroke-width: 0.2; stroke-linecap: square"/>
   </g>
   <g id="line2d_104">
    <path clip-path="url(#pcd6ef168ac)" style="fill: none; stroke: #8f8f8f; stroke-width: 0.2; stroke-linecap: square"/>
   </g>
   <g id="line2d_105">
    <path clip-path="url(#pcd6ef168ac)" style="fill: none; stroke: #8f8f8f; stroke-width: 0.2; stroke-linecap: square"/>
   </g>
   <g id="line2d_106">
    <path d="M 0 0 
" clip-path="url(#pcd6ef168ac)" style="fill: none; stroke: #8f8f8f; stroke-width: 0.2; stroke-linecap: square"/>
   </g>
   <g id="line2d_107">
    <path d="M 0 0 
" clip-path="url(#pcd6ef168ac)" style="fill: none; stroke: #8f8f8f; stroke-width: 0.2; stroke-linecap: square"/>
   </g>
   <g id="line2d_108">
    <path clip-path="url(#pcd6ef168ac)" style="fill: none; stroke: #8f8f8f; stroke-width: 0.2; stroke-linecap: square"/>
   </g>
   <g id="line2d_109">
    <path clip-path="url(#pcd6ef168ac)" style="fill: none; stroke: #8f8f8f; stroke-width: 0.2; stroke-linecap: square"/>
   </g>
   <g id="line2d_110">
    <path clip-path="url(#pcd6ef168ac)" style="fill: none; stroke: #8f8f8f; stroke-width: 0.2; stroke-linecap: square"/>
   </g>
   <g id="line2d_111">
    <path clip-path="url(#pcd6ef168ac)" style="fill: none; stroke: #8f8f8f; stroke-width: 0.2; stroke-linecap: square"/>
   </g>
   <g id="line2d_112">
    <path clip-path="url(#pcd6ef168ac)" style="fill: none; stroke: #8f8f8f; stroke-width: 0.2; stroke-linecap: square"/>
   </g>
   <g id="line2d_113">
    <path clip-path="url(#pcd6ef168ac)" style="fill: none; stroke: #8f8f8f; stroke-width: 0.2; stroke-linecap: square"/>
   </g>
   <g id="line2d_114">
    <path clip-path="url(#pcd6ef168ac)" style="fill: none; stroke: #8f8f8f; stroke-width: 0.2; stroke-linecap: square"/>
   </g>
   <g id="line2d_115">
    <path clip-path="url(#pcd6ef168ac)" style="fill: none; stroke: #8f8f8f; stroke-width: 0.2; stroke-linecap: square"/>
   </g>
   <g id="line2d_116">
    <path clip-path="url(#pcd6ef168ac)" style="fill: none; stroke: #8f8f8f; stroke-width: 0.2; stroke-linecap: square"/>
   </g>
   <g id="line2d_117">
    <path clip-path="url(#pcd6ef168ac)" style="fill: none; stroke: #8f8f8f; stroke-width: 0.2; stroke-linecap: square"/>
   </g>
   <g id="line2d_118">
    <path clip-path="url(#pcd6ef168ac)" style="fill: none; stroke: #8f8f8f; stroke-width: 0.2; stroke-linecap: square"/>
   </g>
   <g id="line2d_119">
    <path clip-path="url(#pcd6ef168ac)" style="fill: none; stroke: #8f8f8f; stroke-width: 0.2; stroke-linecap: square"/>
   </g>
   <g id="line2d_120">
    <path clip-path="url(#pcd6ef168ac)" style="fill: none; stroke: #8f8f8f; stroke-width: 0.2; stroke-linecap: square"/>
   </g>
   <g id="line2d_121">
    <path clip-path="url(#pcd6ef168ac)" style="fill: none; stroke: #8f8f8f; stroke-width: 0.2; stroke-linecap: square"/>
   </g>
   <g id="line2d_122">
    <path clip-path="url(#pcd6ef168ac)" style="fill: none; stroke: #8f8f8f; stroke-width: 0.2; stroke-linecap: square"/>
   </g>
   <g id="line2d_123">
    <path clip-path="url(#pcd6ef168ac)" style="fill: none; stroke: #8f8f8f; stroke-width: 0.2; stroke-linecap: square"/>
   </g>
   <g id="line2d_124">
    <path clip-path="url(#pcd6ef168ac)" style="fill: none; stroke: #8f8f8f; stroke-width: 0.2; stroke-linecap: square"/>
   </g>
   <g id="line2d_125">
    <path clip-path="url(#pcd6ef168ac)" style="fill: none; stroke: #8f8f8f; stroke-width: 0.2; stroke-linecap: square"/>
   </g>
   <g id="line2d_126">
    <path clip-path="url(#pcd6ef168ac)" style="fill: none; stroke: #8f8f8f; stroke-width: 0.2; stroke-linecap: square"/>
   </g>
   <g id="line2d_127">
    <path clip-path="url(#pcd6ef168ac)" style="fill: none; stroke: #8f8f8f; stroke-width: 0.2; stroke-linecap: square"/>
   </g>
   <g id="line2d_128">
    <path clip-path="url(#pcd6ef168ac)" style="fill: none; stroke: #8f8f8f; stroke-width: 0.2; stroke-linecap: square"/>
   </g>
   <g id="line2d_129">
    <path clip-path="url(#pcd6ef168ac)" style="fill: none; stroke: #8f8f8f; stroke-width: 0.2; stroke-linecap: square"/>
   </g>
   <g id="line2d_130">
    <path clip-path="url(#pcd6ef168ac)" style="fill: none; stroke: #8f8f8f; stroke-width: 0.2; stroke-linecap: square"/>
   </g>
   <g id="line2d_131">
    <path d="M 186.281823 128.266253 
L 186.529314 149.340348 
L 186.871716 178.519017 
L 190.219087 216.156134 
L 192.042325 236.690506 
L 193.499726 253.338062 
L 193.77847 256.252676 
L 181.883663 275.909751 
L 175.780678 286.026452 
L 169.984885 295.488 
L 159.69065 312.638915 
L 148.921091 330.561364 
L 136.610538 343.490908 
L 133.642708 346.6 
M 65.676446 346.6 
L 64.169829 344.397993 
L 137.136262 301.732068 
L 98.215738 268.607278 
L 36.370855 303.977256 
L 11.289076 246.638207 
L 0.860654 222.658349 
L 108.316373 167.479944 
L 186.281823 128.266253 
" clip-path="url(#pcd6ef168ac)" style="fill: none; stroke: #8f8f8f; stroke-width: 0.2; stroke-linecap: square"/>
   </g>
   <g id="line2d_132">
    <path d="M 98.215738 268.607278 
L 137.136262 301.732068 
L 64.169829 344.397993 
L 36.370855 303.977256 
L 98.215738 268.607278 
" clip-path="url(#pcd6ef168ac)" style="fill: none; stroke: #8f8f8f; stroke-width: 0.2; stroke-linecap: square"/>
   </g>
   <g id="line2d_133">
    <path d="M 186.281823 128.266253 
L 186.529314 149.340348 
L 186.871716 178.519017 
L 190.219087 216.156134 
L 192.042325 236.690506 
L 193.499726 253.338062 
L 193.77847 256.252676 
L 181.883663 275.909751 
L 175.780678 286.026452 
L 169.984885 295.488 
L 159.69065 312.638915 
L 148.921091 330.561364 
L 136.610538 343.490908 
L 133.642708 346.6 
M 65.676446 346.6 
L 64.169829 344.397993 
L 137.136262 301.732068 
L 98.215738 268.607278 
L 36.370855 303.977256 
L 11.289076 246.638207 
L 0.860654 222.658349 
L 108.316373 167.479944 
L 186.281823 128.266253 
" clip-path="url(#pcd6ef168ac)" style="fill: none; stroke: #8f8f8f; stroke-width: 0.2; stroke-linecap: square"/>
   </g>
   <g id="line2d_134">
    <path d="M 98.215738 268.607278 
L 137.136262 301.732068 
L 64.169829 344.397993 
L 36.370855 303.977256 
L 98.215738 268.607278 
" clip-path="url(#pcd6ef168ac)" style="fill: none; stroke: #8f8f8f; stroke-width: 0.2; stroke-linecap: square"/>
   </g>
   <g id="line2d_135">
    <path clip-path="url(#pcd6ef168ac)" style="fill: none; stroke: #8f8f8f; stroke-width: 0.2; stroke-linecap: square"/>
   </g>
   <g id="line2d_136">
    <path clip-path="url(#pcd6ef168ac)" style="fill: none; stroke: #8f8f8f; stroke-width: 0.2; stroke-linecap: square"/>
   </g>
   <g id="line2d_137">
    <path clip-path="url(#pcd6ef168ac)" style="fill: none; stroke: #8f8f8f; stroke-width: 0.2; stroke-linecap: square"/>
   </g>
   <g id="line2d_138">
    <path clip-path="url(#pcd6ef168ac)" style="fill: none; stroke: #8f8f8f; stroke-width: 0.2; stroke-linecap: square"/>
   </g>
   <g id="line2d_139">
    <path clip-path="url(#pcd6ef168ac)" style="fill: none; stroke: #8f8f8f; stroke-width: 0.2; stroke-linecap: square"/>
   </g>
   <g id="line2d_140">
    <path clip-path="url(#pcd6ef168ac)" style="fill: none; stroke: #8f8f8f; stroke-width: 0.2; stroke-linecap: square"/>
   </g>
   <g id="line2d_141">
    <path clip-path="url(#pcd6ef168ac)" style="fill: none; stroke: #8f8f8f; stroke-width: 0.2; stroke-linecap: square"/>
   </g>
   <g id="line2d_142">
    <path clip-path="url(#pcd6ef168ac)" style="fill: none; stroke: #8f8f8f; stroke-width: 0.2; stroke-linecap: square"/>
   </g>
   <g id="line2d_143">
    <path clip-path="url(#pcd6ef168ac)" style="fill: none; stroke: #8f8f8f; stroke-width: 0.2; stroke-linecap: square"/>
   </g>
   <g id="line2d_144">
    <path clip-path="url(#pcd6ef168ac)" style="fill: none; stroke: #8f8f8f; stroke-width: 0.2; stroke-linecap: square"/>
   </g>
   <g id="line2d_145">
    <path d="M 36.370855 303.977256 
L 64.169829 344.397993 
L 65.676446 346.6 
M 8.853356 346.6 
L -1 326.961214 
M -1 306.959795 
L 27.210965 305.702884 
L 36.370855 303.977256 
" clip-path="url(#pcd6ef168ac)" style="fill: none; stroke: #8f8f8f; stroke-width: 0.2; stroke-linecap: square"/>
   </g>
   <g id="line2d_146">
    <path clip-path="url(#pcd6ef168ac)" style="fill: none; stroke: #8f8f8f; stroke-width: 0.2; stroke-linecap: square"/>
   </g>
   <g id="line2d_147">
    <path clip-path="url(#pcd6ef168ac)" style="fill: none; stroke: #8f8f8f; stroke-width: 0.2; stroke-linecap: square"/>
   </g>
   <g id="line2d_148">
    <path clip-path="url(#pcd6ef168ac)" style="fill: none; stroke: #8f8f8f; stroke-width: 0.2; stroke-linecap: square"/>
   </g>
   <g id="line2d_149">
    <path clip-path="url(#pcd6ef168ac)" style="fill: none; stroke: #8f8f8f; stroke-width: 0.2; stroke-linecap: square"/>
   </g>
   <g id="line2d_150">
    <path clip-path="url(#pcd6ef168ac)" style="fill: none; stroke: #8f8f8f; stroke-width: 0.2; stroke-linecap: square"/>
   </g>
   <g id="line2d_151">
    <path d="M -1 326.961214 
L 8.853356 346.6 
" clip-path="url(#pcd6ef168ac)" style="fill: none; stroke: #8f8f8f; stroke-width: 0.2; stroke-linecap: square"/>
   </g>
   <g id="line2d_152">
    <path clip-path="url(#pcd6ef168ac)" style="fill: none; stroke: #8f8f8f; stroke-width: 0.2; stroke-linecap: square"/>
   </g>
   <g id="line2d_153">
    <path clip-path="url(#pcd6ef168ac)" style="fill: none; stroke: #8f8f8f; stroke-width: 0.2; stroke-linecap: square"/>
   </g>
   <g id="line2d_154">
    <path clip-path="url(#pcd6ef168ac)" style="fill: none; stroke: #8f8f8f; stroke-width: 0.2; stroke-linecap: square"/>
   </g>
   <g id="line2d_155">
    <path clip-path="url(#pcd6ef168ac)" style="fill: none; stroke: #8f8f8f; stroke-width: 0.2; stroke-linecap: square"/>
   </g>
   <g id="line2d_156">
    <path clip-path="url(#pcd6ef168ac)" style="fill: none; stroke: #8f8f8f; stroke-width: 0.2; stroke-linecap: square"/>
   </g>
   <g id="line2d_157">
    <path clip-path="url(#pcd6ef168ac)" style="fill: none; stroke: #8f8f8f; stroke-width: 0.2; stroke-linecap: square"/>
   </g>
   <g id="line2d_158">
    <path clip-path="url(#pcd6ef168ac)" style="fill: none; stroke: #8f8f8f; stroke-width: 0.2; stroke-linecap: square"/>
   </g>
   <g id="line2d_159">
    <path d="M 298.556868 53.568 
L 304.680893 114.214826 
L 303.795163 126.236064 
L 303.244762 130.205632 
L 248.322943 177.751412 
L 215.867367 178.139614 
L 186.871716 178.519017 
L 186.529314 149.340348 
L 186.281823 128.266253 
L 186.232305 124.051369 
L 167.639107 69.776075 
L 204.682703 68.170627 
L 298.556868 53.568 
L 298.556868 53.568 
" clip-path="url(#pcd6ef168ac)" style="fill: none; stroke: #ffc380; stroke-width: 0.5; stroke-linecap: square"/>
   </g>
   <g id="line2d_160">
    <path d="M 303.244762 130.205632 
L 292.290133 254.595948 
L 282.650076 254.797745 
L 231.531634 255.723976 
L 193.77847 256.252676 
L 193.499726 253.338062 
L 192.042325 236.690506 
L 190.219087 216.156134 
L 186.871716 178.519017 
L 215.867367 178.139614 
L 248.322943 177.751412 
L 303.244762 130.205632 
L 303.244762 130.205632 
" clip-path="url(#pcd6ef168ac)" style="fill: none; stroke: #ffc380; stroke-width: 0.5; stroke-linecap: square"/>
   </g>
   <g id="line2d_161">
    <path d="M 193.77847 256.252676 
L 231.531634 255.723976 
L 200.712675 275.619003 
L 180.522466 288.69875 
L 169.984885 295.488 
L 175.780678 286.026452 
L 181.883663 275.909751 
L 193.77847 256.252676 
L 193.77847 256.252676 
" clip-path="url(#pcd6ef168ac)" style="fill: none; stroke: #ffc380; stroke-width: 0.5; stroke-linecap: square"/>
   </g>
   <g id="text_1">
    <!-- EDWWDST2 -->
    <g transform="translate(218.699531 111.157653)scale(0.0579 -0.0579)">
     <defs>
      <path id="DejaVuSans-45" d="M 628 4666 
L 3578 4666 
L 3578 4134 
L 1259 4134 
L 1259 2753 
L 3481 2753 
L 3481 2222 
L 1259 2222 
L 1259 531 
L 3634 531 
L 3634 0 
L 628 0 
L 628 4666 
z
" transform="scale(0.015625)"/>
      <path id="DejaVuSans-44" d="M 1259 4147 
L 1259 519 
L 2022 519 
Q 2988 519 3436 956 
Q 3884 1394 3884 2338 
Q 3884 3275 3436 3711 
Q 2988 4147 2022 4147 
L 1259 4147 
z
M 628 4666 
L 1925 4666 
Q 3281 4666 3915 4102 
Q 4550 3538 4550 2338 
Q 4550 1131 3912 565 
Q 3275 0 1925 0 
L 628 0 
L 628 4666 
z
" transform="scale(0.015625)"/>
      <path id="DejaVuSans-57" d="M 213 4666 
L 850 4666 
L 1831 722 
L 2809 4666 
L 3519 4666 
L 4500 722 
L 5478 4666 
L 6119 4666 
L 4947 0 
L 4153 0 
L 3169 4050 
L 2175 0 
L 1381 0 
L 213 4666 
z
" transform="scale(0.015625)"/>
      <path id="DejaVuSans-53" d="M 3425 4513 
L 3425 3897 
Q 3066 4069 2747 4153 
Q 2428 4238 2131 4238 
Q 1616 4238 1336 4038 
Q 1056 3838 1056 3469 
Q 1056 3159 1242 3001 
Q 1428 2844 1947 2747 
L 2328 2669 
Q 3034 2534 3370 2195 
Q 3706 1856 3706 1288 
Q 3706 609 3251 259 
Q 2797 -91 1919 -91 
Q 1588 -91 1214 -16 
Q 841 59 441 206 
L 441 856 
Q 825 641 1194 531 
Q 1563 422 1919 422 
Q 2459 422 2753 634 
Q 3047 847 3047 1241 
Q 3047 1584 2836 1778 
Q 2625 1972 2144 2069 
L 1759 2144 
Q 1053 2284 737 2584 
Q 422 2884 422 3419 
Q 422 4038 858 4394 
Q 1294 4750 2059 4750 
Q 2388 4750 2728 4690 
Q 3069 4631 3425 4513 
z
" transform="scale(0.015625)"/>
      <path id="DejaVuSans-54" d="M -19 4666 
L 3928 4666 
L 3928 4134 
L 2272 4134 
L 2272 0 
L 1638 0 
L 1638 4134 
L -19 4134 
L -19 4666 
z
" transform="scale(0.015625)"/>
      <path id="DejaVuSans-32" d="M 1228 531 
L 3431 531 
L 3431 0 
L 469 0 
L 469 531 
Q 828 903 1448 1529 
Q 2069 2156 2228 2338 
Q 2531 2678 2651 2914 
Q 2772 3150 2772 3378 
Q 2772 3750 2511 3984 
Q 2250 4219 1831 4219 
Q 1534 4219 1204 4116 
Q 875 4013 500 3803 
L 500 4441 
Q 881 4594 1212 4672 
Q 1544 4750 1819 4750 
Q 2544 4750 2975 4387 
Q 3406 4025 3406 3419 
Q 3406 3131 3298 2873 
Q 3191 2616 2906 2266 
Q 2828 2175 2409 1742 
Q 1991 1309 1228 531 
z
" transform="scale(0.015625)"/>
     </defs>
     <use xlink:href="#DejaVuSans-45"/>
     <use xlink:href="#DejaVuSans-44" x="63.183594"/>
     <use xlink:href="#DejaVuSans-57" x="140.185547"/>
     <use xlink:href="#DejaVuSans-57" x="239.0625"/>
     <use xlink:href="#DejaVuSans-44" x="337.939453"/>
     <use xlink:href="#DejaVuSans-53" x="414.941406"/>
     <use xlink:href="#DejaVuSans-54" x="478.417969"/>
     <use xlink:href="#DejaVuSans-32" x="539.501953"/>
    </g>
    <!-- 245 -->
    <g transform="translate(230.634169 117.641187)scale(0.0579 -0.0579)">
     <defs>
      <path id="DejaVuSans-34" d="M 2419 4116 
L 825 1625 
L 2419 1625 
L 2419 4116 
z
M 2253 4666 
L 3047 4666 
L 3047 1625 
L 3713 1625 
L 3713 1100 
L 3047 1100 
L 3047 0 
L 2419 0 
L 2419 1100 
L 313 1100 
L 313 1709 
L 2253 4666 
z
" transform="scale(0.015625)"/>
      <path id="DejaVuSans-35" d="M 691 4666 
L 3169 4666 
L 3169 4134 
L 1269 4134 
L 1269 2991 
Q 1406 3038 1543 3061 
Q 1681 3084 1819 3084 
Q 2600 3084 3056 2656 
Q 3513 2228 3513 1497 
Q 3513 744 3044 326 
Q 2575 -91 1722 -91 
Q 1428 -91 1123 -41 
Q 819 9 494 109 
L 494 744 
Q 775 591 1075 516 
Q 1375 441 1709 441 
Q 2250 441 2565 725 
Q 2881 1009 2881 1497 
Q 2881 1984 2565 2268 
Q 2250 2553 1709 2553 
Q 1456 2553 1204 2497 
Q 953 2441 691 2322 
L 691 4666 
z
" transform="scale(0.015625)"/>
     </defs>
     <use xlink:href="#DejaVuSans-32"/>
     <use xlink:href="#DejaVuSans-34" x="63.623047"/>
     <use xlink:href="#DejaVuSans-35" x="127.246094"/>
    </g>
    <!-- 105 -->
    <g transform="translate(230.634169 124.12472)scale(0.0579 -0.0579)">
     <defs>
      <path id="DejaVuSans-31" d="M 794 531 
L 1825 531 
L 1825 4091 
L 703 3866 
L 703 4441 
L 1819 4666 
L 2450 4666 
L 2450 531 
L 3481 531 
L 3481 0 
L 794 0 
L 794 531 
z
" transform="scale(0.015625)"/>
      <path id="DejaVuSans-30" d="M 2034 4250 
Q 1547 4250 1301 3770 
Q 1056 3291 1056 2328 
Q 1056 1369 1301 889 
Q 1547 409 2034 409 
Q 2525 409 2770 889 
Q 3016 1369 3016 2328 
Q 3016 3291 2770 3770 
Q 2525 4250 2034 4250 
z
M 2034 4750 
Q 2819 4750 3233 4129 
Q 3647 3509 3647 2328 
Q 3647 1150 3233 529 
Q 2819 -91 2034 -91 
Q 1250 -91 836 529 
Q 422 1150 422 2328 
Q 422 3509 836 4129 
Q 1250 4750 2034 4750 
z
" transform="scale(0.015625)"/>
     </defs>
     <use xlink:href="#DejaVuSans-31"/>
     <use xlink:href="#DejaVuSans-30" x="63.623047"/>
     <use xlink:href="#DejaVuSans-35" x="127.246094"/>
    </g>
   </g>
   <g id="text_2">
    <!-- EDWWDST3 -->
    <g transform="translate(227.59777 188.343299)scale(0.0579 -0.0579)">
     <defs>
      <path id="DejaVuSans-33" d="M 2597 2516 
Q 3050 2419 3304 2112 
Q 3559 1806 3559 1356 
Q 3559 666 3084 287 
Q 2609 -91 1734 -91 
Q 1441 -91 1130 -33 
Q 819 25 488 141 
L 488 750 
Q 750 597 1062 519 
Q 1375 441 1716 441 
Q 2309 441 2620 675 
Q 2931 909 2931 1356 
Q 2931 1769 2642 2001 
Q 2353 2234 1838 2234 
L 1294 2234 
L 1294 2753 
L 1863 2753 
Q 2328 2753 2575 2939 
Q 2822 3125 2822 3475 
Q 2822 3834 2567 4026 
Q 2313 4219 1838 4219 
Q 1578 4219 1281 4162 
Q 984 4106 628 3988 
L 628 4550 
Q 988 4650 1302 4700 
Q 1616 4750 1894 4750 
Q 2613 4750 3031 4423 
Q 3450 4097 3450 3541 
Q 3450 3153 3228 2886 
Q 3006 2619 2597 2516 
z
" transform="scale(0.015625)"/>
     </defs>
     <use xlink:href="#DejaVuSans-45"/>
     <use xlink:href="#DejaVuSans-44" x="63.183594"/>
     <use xlink:href="#DejaVuSans-57" x="140.185547"/>
     <use xlink:href="#DejaVuSans-57" x="239.0625"/>
     <use xlink:href="#DejaVuSans-44" x="337.939453"/>
     <use xlink:href="#DejaVuSans-53" x="414.941406"/>
     <use xlink:href="#DejaVuSans-54" x="478.417969"/>
     <use xlink:href="#DejaVuSans-33" x="539.501953"/>
    </g>
    <!-- 245 -->
    <g transform="translate(239.532408 194.826832)scale(0.0579 -0.0579)">
     <use xlink:href="#DejaVuSans-32"/>
     <use xlink:href="#DejaVuSans-34" x="63.623047"/>
     <use xlink:href="#DejaVuSans-35" x="127.246094"/>
    </g>
    <!-- 155 -->
    <g transform="translate(239.532408 201.310366)scale(0.0579 -0.0579)">
     <use xlink:href="#DejaVuSans-31"/>
     <use xlink:href="#DejaVuSans-35" x="63.623047"/>
     <use xlink:href="#DejaVuSans-35" x="127.246094"/>
    </g>
   </g>
   <g id="text_3">
    <!-- EDWWDST4 -->
    <g transform="translate(183.297791 270.720133)scale(0.0579 -0.0579)">
     <use xlink:href="#DejaVuSans-45"/>
     <use xlink:href="#DejaVuSans-44" x="63.183594"/>
     <use xlink:href="#DejaVuSans-57" x="140.185547"/>
     <use xlink:href="#DejaVuSans-57" x="239.0625"/>
     <use xlink:href="#DejaVuSans-44" x="337.939453"/>
     <use xlink:href="#DejaVuSans-53" x="414.941406"/>
     <use xlink:href="#DejaVuSans-54" x="478.417969"/>
     <use xlink:href="#DejaVuSans-34" x="539.501953"/>
    </g>
    <!-- 245 -->
    <g transform="translate(195.232429 277.203666)scale(0.0579 -0.0579)">
     <use xlink:href="#DejaVuSans-32"/>
     <use xlink:href="#DejaVuSans-34" x="63.623047"/>
     <use xlink:href="#DejaVuSans-35" x="127.246094"/>
    </g>
    <!-- 205 -->
    <g transform="translate(195.232429 283.6872)scale(0.0579 -0.0579)">
     <use xlink:href="#DejaVuSans-32"/>
     <use xlink:href="#DejaVuSans-30" x="63.623047"/>
     <use xlink:href="#DejaVuSans-35" x="127.246094"/>
    </g>
   </g>
  </g>
 </g>
 <defs>
  <clipPath id="pcd6ef168ac">
   <rect x="160.787018" y="41.472" width="150.745964" height="266.112"/>
  </clipPath>
 </defs>
</svg>
