<?xml version="1.0" encoding="utf-8" standalone="no"?>
<!DOCTYPE svg PUBLIC "-//W3C//DTD SVG 1.1//EN"
  "http://www.w3.org/Graphics/SVG/1.1/DTD/svg11.dtd">
<svg xmlns:xlink="http://www.w3.org/1999/xlink" width="460.8pt" height="345.6pt" viewBox="0 0 460.8 345.6" xmlns="http://www.w3.org/2000/svg" version="1.1">
 <metadata>
  <rdf:RDF xmlns:dc="http://purl.org/dc/elements/1.1/" xmlns:cc="http://creativecommons.org/ns#" xmlns:rdf="http://www.w3.org/1999/02/22-rdf-syntax-ns#">
   <cc:Work>
    <dc:type rdf:resource="http://purl.org/dc/dcmitype/StillImage"/>
    <dc:date>2022-03-24T13:41:22.363051</dc:date>
    <dc:format>image/svg+xml</dc:format>
    <dc:creator>
     <cc:Agent>
      <dc:title>Matplotlib v3.5.0, https://matplotlib.org/</dc:title>
     </cc:Agent>
    </dc:creator>
   </cc:Work>
  </rdf:RDF>
 </metadata>
 <defs>
  <style type="text/css">*{stroke-linejoin: round; stroke-linecap: butt}</style>
 </defs>
 <g id="figure_1">
  <g id="patch_1">
   <path d="M 0 345.6 
L 460.8 345.6 
L 460.8 0 
L 0 0 
z
" style="fill: #ffffff"/>
  </g>
  <g id="axes_1">
   <g id="patch_2">
    <path d="M 290.269091 151.520803 
L 249.479055 152.801009 
L 234.143818 153.270061 
L 190.272764 154.312545 
L 182.050909 154.484654 
L 238.191755 179.498048 
L 278.756995 197.535197 
z
" clip-path="url(#p7e9f9e5ddc)" style="fill: #ffedd9; stroke: #ffedd9; stroke-linejoin: miter"/>
   </g>
   <g id="patch_3">
    <path d="M 414.620921 278.069614 
L 418.843558 404.838261 
L 514.315533 502.766904 
L 487.563583 521.838656 
L 377.258984 525.386058 
L 349.678025 483.988235 
L 304.750341 416.598197 
L 285.551267 387.769892 
L 280.716244 380.281949 
L 284.79005 372.190887 
L 287.224427 367.357704 
L 304.39196 333.168586 
L 309.386019 323.319339 
L 312.585321 316.903388 
L 314.15873 314.525863 
L 334.369682 284.761525 
L 414.620921 278.069614 
L 418.843558 404.838261 
L 514.315533 502.766904 
L 487.563583 521.838656 
L 377.258984 525.386058 
L 309.659234 413.393787 
L 284.79005 372.190887 
L 287.224427 367.357704 
L 304.39196 333.168586 
L 309.386019 323.319339 
L 312.585321 316.903388 
L 314.15873 314.525863 
L 334.369682 284.761525 
z
" clip-path="url(#p7e9f9e5ddc)" style="fill: #ffffff; stroke: #ffffff; stroke-linejoin: miter"/>
   </g>
   <g id="patch_4">
    <path d="M 428.579467 824.839653 
L 396.251091 895.006958 
L 360.315865 908.319619 
L 344.145807 914.312055 
L 323.233339 918.826447 
L 255.294672 912.707171 
L 226.34761 910.196967 
L 200.658042 857.686935 
L 200.522684 851.050312 
L 200.292503 839.768223 
L 199.953833 823.177291 
L 199.167343 784.687969 
L 198.144188 734.699213 
L 253.287571 744.206442 
L 391.230571 767.964076 
L 423.594876 774.216272 
L 423.54044 785.902958 
L 425.252368 799.120263 
L 428.579467 824.839653 
L 396.251091 895.006958 
L 360.315865 908.319619 
L 344.145807 914.312055 
L 323.233339 918.826447 
L 255.294672 912.707171 
L 226.34761 910.196967 
L 200.658042 857.686935 
L 200.522684 851.050312 
L 200.292503 839.768223 
L 199.953833 823.177291 
L 199.167343 784.687969 
L 198.144188 734.699213 
L 253.287571 744.206442 
L 391.230571 767.964076 
L 423.594876 774.216272 
L 423.54044 785.902958 
L 425.252368 799.120263 
L 392.73606 805.996732 
L 407.422044 828.274339 
L 428.579467 824.839653 
L 396.251091 895.006958 
L 360.315865 908.319619 
L 344.145807 914.312055 
L 323.233339 918.826447 
L 255.294672 912.707171 
L 226.34761 910.196967 
L 256.992712 884.383747 
L 257.067489 852.78301 
L 248.057791 853.566248 
L 238.375473 837.314873 
L 200.292503 839.768223 
L 199.953833 823.177291 
L 199.167343 784.687969 
L 201.901451 783.082654 
L 248.086266 756.512425 
L 253.287571 744.206442 
L 391.230571 767.964076 
L 391.876344 784.271414 
L 392.73606 805.996732 
L 407.422044 828.274339 
L 428.579467 824.839653 
L 396.251091 895.006958 
L 360.315865 908.319619 
L 344.145807 914.312055 
L 323.233339 918.826447 
L 255.294672 912.707171 
L 226.34761 910.196967 
L 256.992712 884.383747 
L 257.067489 852.78301 
L 248.057791 853.566248 
L 238.375473 837.314873 
L 200.292503 839.768223 
L 199.953833 823.177291 
L 199.167343 784.687969 
L 198.144188 734.699213 
L 253.287571 744.206442 
L 391.230571 767.964076 
L 391.876344 784.271414 
L 428.579467 824.839653 
L 396.251091 895.006958 
L 360.315865 908.319619 
L 344.145807 914.312055 
L 323.233339 918.826447 
L 255.294672 912.707171 
L 226.34761 910.196967 
L 256.992712 884.383747 
L 257.067489 852.78301 
L 248.057791 853.566248 
L 238.375473 837.314873 
L 200.292503 839.768223 
L 199.953833 823.177291 
L 199.167343 784.687969 
L 198.144188 734.699213 
L 253.287571 744.206442 
L 391.230571 767.964076 
L 423.594876 774.216272 
L 423.54044 785.902958 
L 425.252368 799.120263 
L 428.579467 824.839653 
L 396.251091 895.006958 
L 360.315865 908.319619 
L 344.145807 914.312055 
L 323.233339 918.826447 
L 255.294672 912.707171 
L 226.34761 910.196967 
L 200.658042 857.686935 
L 200.522684 851.050312 
L 200.292503 839.768223 
L 199.953833 823.177291 
L 199.167343 784.687969 
L 198.144188 734.699213 
L 253.287571 744.206442 
L 391.230571 767.964076 
L 423.594876 774.216272 
L 423.54044 785.902958 
L 425.252368 799.120263 
z
" clip-path="url(#p7e9f9e5ddc)" style="fill: #ffffff; stroke: #ffffff; stroke-linejoin: miter"/>
   </g>
   <g id="patch_5">
    <path d="M 628.224271 99.565672 
L 626.662167 127.967251 
L 538.146511 284.563078 
L 512.02251 269.974101 
L 483.439197 272.343529 
L 414.620921 278.069614 
L 334.369682 284.761525 
L 315.700076 253.048148 
L 309.135809 241.928062 
L 324.305336 241.346897 
L 492.849633 140.262502 
L 541.971208 76.81783 
L 553.475747 61.979805 
L 592.951975 82.867554 
L 630.433761 58.632115 
L 552.542049 87.651677 
L 591.839638 112.223476 
L 624.959593 99.791742 
L 628.224271 99.565672 
L 627.127887 119.669163 
L 626.662167 127.967251 
L 538.146511 284.563078 
L 512.02251 269.974101 
L 483.439197 272.343529 
L 414.620921 278.069614 
L 334.369682 284.761525 
L 324.305336 241.346897 
L 492.849633 140.262502 
L 541.971208 76.81783 
L 552.542049 87.651677 
L 591.839638 112.223476 
L 624.959593 99.791742 
L 628.224271 99.565672 
L 626.662167 127.967251 
L 538.146511 284.563078 
L 512.02251 269.974101 
L 483.439197 272.343529 
L 414.620921 278.069614 
L 334.369682 284.761525 
L 315.700076 253.048148 
L 309.135809 241.928062 
L 324.305336 241.346897 
L 492.849633 140.262502 
L 541.971208 76.81783 
z
" clip-path="url(#p7e9f9e5ddc)" style="fill: #ffffff; stroke: #ffffff; stroke-linejoin: miter"/>
   </g>
   <g id="patch_6">
    <path d="M 387.933715 46.744265 
L 413.483693 69.467247 
L 498.084718 55.579824 
L 517.994257 52.289912 
L 541.971208 76.81783 
L 492.849633 140.262502 
L 324.305336 241.346897 
L 309.135809 241.928062 
L 297.195145 221.62919 
L 285.711758 202.132509 
L 278.756995 197.535197 
L 290.269091 151.520803 
L 314.690428 120.20538 
L 327.432035 103.864068 
L 361.408401 71.777496 
L 379.877692 54.400389 
z
" clip-path="url(#p7e9f9e5ddc)" style="fill: #ffffff; stroke: #ffffff; stroke-linejoin: miter"/>
   </g>
   <g id="patch_7">
    <path d="M 330.043229 579.543557 
L 341.626597 590.926194 
L 429.867017 677.426896 
L 411.785588 677.873769 
L 383.336589 679.586361 
L 375.482755 688.306028 
L 288.04252 613.044982 
L 316.357658 593.451567 
L 330.043229 579.543557 
L 341.626597 590.926194 
L 429.867017 677.426896 
L 411.785588 677.873769 
L 383.336589 679.586361 
L 375.482755 688.306028 
L 288.04252 613.044982 
L 316.357658 593.451567 
L 330.043229 579.543557 
L 341.626597 590.926194 
L 429.867017 677.426896 
L 411.785588 677.873769 
L 383.336589 679.586361 
L 375.482755 688.306028 
L 288.04252 613.044982 
L 316.357658 593.451567 
L 330.043229 579.543557 
L 341.626597 590.926194 
L 429.867017 677.426896 
L 411.785588 677.873769 
L 383.336589 679.586361 
L 375.482755 688.306028 
L 288.04252 613.044982 
L 316.357658 593.451567 
z
" clip-path="url(#p7e9f9e5ddc)" style="fill: #ffffff; stroke: #ffffff; stroke-linejoin: miter"/>
   </g>
   <g id="patch_8">
    <path d="M 334.369682 284.761525 
L 415.074157 312.488435 
L 547.142609 357.857734 
L 546.057516 367.84095 
L 547.193459 371.504507 
L 548.85691 379.265947 
L 568.89956 463.704767 
L 583.611638 476.229246 
L 567.89758 473.962923 
L 556.205634 472.823327 
L 487.563583 521.838656 
L 377.258984 525.386058 
L 349.678025 483.988235 
L 304.750341 416.598197 
L 285.551267 387.769892 
L 280.716244 380.281949 
L 284.79005 372.190887 
L 287.224427 367.357704 
L 304.39196 333.168586 
L 309.386019 323.319339 
L 312.585321 316.903388 
L 314.15873 314.525863 
z
" clip-path="url(#p7e9f9e5ddc)" style="fill: #ffffff; stroke: #ffffff; stroke-linejoin: miter"/>
   </g>
   <g id="patch_9">
    <path d="M 438.253419 26.079139 
L 527.495815 48.243598 
L 553.475747 61.979805 
L 592.951975 82.867554 
L 591.839638 112.223476 
L 556.33569 153.613565 
L 512.02251 269.974101 
L 538.146511 284.563078 
L 595.42604 316.549615 
L 557.365471 340.240255 
L 549.037452 345.443597 
L 547.142609 357.857734 
L 415.074157 312.488435 
L 334.369682 284.761525 
L 315.700076 253.048148 
L 309.135809 241.928062 
L 297.195145 221.62919 
L 285.711758 202.132509 
L 278.756995 197.535197 
L 290.269091 151.520803 
L 314.690428 120.20538 
L 327.432035 103.864068 
L 361.408401 71.777496 
L 379.877692 54.400389 
L 387.933715 46.744265 
z
" clip-path="url(#p7e9f9e5ddc)" style="fill: #ffffff; stroke: #ffffff; stroke-linejoin: miter"/>
   </g>
   <g id="patch_10">
    <path d="M 182.050909 154.484654 
L 172.884236 204.00652 
L 158.032016 284.090274 
L 170.759767 340.492344 
L 175.306385 360.648169 
L 146.609064 509.08803 
L 56.590331 440.644294 
L -18.094582 300.070557 
L -48.752685 282.399558 
L -50.874998 271.99428 
L 24.327854 226.483637 
L 66.668575 200.864052 
L 85.960522 189.188739 
L 95.360641 183.117235 
L 138.452786 155.274622 
z
" clip-path="url(#p7e9f9e5ddc)" style="fill: #ffffff; stroke: #ffffff; stroke-linejoin: miter"/>
   </g>
   <g id="patch_11">
    <path d="M 44.548827 168.883663 
L 66.668575 200.864052 
L 24.327854 226.483637 
L -50.874998 271.99428 
L -62.463217 215.087125 
L 2.183893 187.159403 
z
" clip-path="url(#p7e9f9e5ddc)" style="fill: #ffffff; stroke: #ffffff; stroke-linejoin: miter"/>
   </g>
   <g id="patch_12">
    <path d="M 182.050909 154.484654 
L 172.884236 204.00652 
L 158.032016 284.090274 
L 170.759767 340.492344 
L 175.306385 360.648169 
L 146.609064 509.08803 
L 56.590331 440.644294 
L -18.094582 300.070557 
L -48.752685 282.399558 
L -50.874998 271.99428 
L 24.327854 226.483637 
L 66.668575 200.864052 
L 85.960522 189.188739 
L 95.360641 183.117235 
L 138.452786 155.274622 
z
" clip-path="url(#p7e9f9e5ddc)" style="fill: #ffffff; stroke: #ffffff; stroke-linejoin: miter"/>
   </g>
   <g id="patch_13">
    <path d="M 182.050909 154.484654 
L 172.884236 204.00652 
L 158.032016 284.090274 
L 170.759767 340.492344 
L 175.306385 360.648169 
L 146.609064 509.08803 
L 56.590331 440.644294 
L -18.094582 300.070557 
L -48.752685 282.399558 
L -50.874998 271.99428 
L 24.327854 226.483637 
L 66.668575 200.864052 
L 85.960522 189.188739 
L 95.360641 183.117235 
L 138.452786 155.274622 
z
" clip-path="url(#p7e9f9e5ddc)" style="fill: #ffffff; stroke: #ffffff; stroke-linejoin: miter"/>
   </g>
   <g id="patch_14">
    <path d="M 182.050909 154.484654 
L 172.884236 204.00652 
L 158.032016 284.090274 
L 170.759767 340.492344 
L 175.306385 360.648169 
L 146.609064 509.08803 
L 56.590331 440.644294 
L -18.094582 300.070557 
L -48.752685 282.399558 
L -50.874998 271.99428 
L 24.327854 226.483637 
L 66.668575 200.864052 
L 85.960522 189.188739 
L 95.360641 183.117235 
L 138.452786 155.274622 
z
" clip-path="url(#p7e9f9e5ddc)" style="fill: #ffffff; stroke: #ffffff; stroke-linejoin: miter"/>
   </g>
   <g id="patch_15">
    <path d="M 278.756995 197.535197 
L 285.711758 202.132509 
L 297.195145 221.62919 
L 309.135809 241.928062 
L 315.700076 253.048148 
L 334.369682 284.761525 
L 314.15873 314.525863 
L 312.585321 316.903388 
L 309.386019 323.319339 
L 304.39196 333.168586 
L 287.224427 367.357704 
L 284.79005 372.190887 
L 280.716244 380.281949 
L 170.759767 340.492344 
L 158.032016 284.090274 
L 172.884236 204.00652 
L 228.250358 203.04636 
L 269.242274 202.360332 
z
" clip-path="url(#p7e9f9e5ddc)" style="fill: #ffffff; stroke: #ffffff; stroke-linejoin: miter"/>
   </g>
   <g id="patch_16">
    <path d="M 182.050909 154.484654 
L 238.191755 179.498048 
L 278.756995 197.535197 
L 269.242274 202.360332 
L 228.250358 203.04636 
L 172.884236 204.00652 
z
" clip-path="url(#p7e9f9e5ddc)" style="fill: #ffffff; stroke: #ffffff; stroke-linejoin: miter"/>
   </g>
   <g id="patch_17">
    <path d="M 285.711758 202.132509 
L 297.195145 221.62919 
L 309.135809 241.928062 
L 315.700076 253.048148 
L 334.369682 284.761525 
L 314.15873 314.525863 
L 312.585321 316.903388 
L 309.386019 323.319339 
L 304.39196 333.168586 
L 287.224427 367.357704 
L 284.79005 372.190887 
L 280.716244 380.281949 
L 170.759767 340.492344 
L 158.032016 284.090274 
L 172.884236 204.00652 
L 182.050909 154.484654 
L 238.191755 179.498048 
L 278.756995 197.535197 
z
" clip-path="url(#p7e9f9e5ddc)" style="fill: #ffffff; stroke: #ffffff; stroke-linejoin: miter"/>
   </g>
   <g id="patch_18">
    <path d="M 285.711758 202.132509 
L 297.195145 221.62919 
L 309.135809 241.928062 
L 315.700076 253.048148 
L 334.369682 284.761525 
L 314.15873 314.525863 
L 312.585321 316.903388 
L 309.386019 323.319339 
L 304.39196 333.168586 
L 287.224427 367.357704 
L 284.79005 372.190887 
L 280.716244 380.281949 
L 170.759767 340.492344 
L 158.032016 284.090274 
L 172.884236 204.00652 
L 182.050909 154.484654 
L 238.191755 179.498048 
L 278.756995 197.535197 
z
" clip-path="url(#p7e9f9e5ddc)" style="fill: #ffffff; stroke: #ffffff; stroke-linejoin: miter"/>
   </g>
   <g id="patch_19">
    <path d="M -179.517897 443.719918 
L -168.636364 453.532404 
L -157.013301 469.86928 
L -160.25719 489.616272 
L -188.197189 507.43801 
L -197.536263 460.966218 
L -198.864059 457.731963 
z
" clip-path="url(#p7e9f9e5ddc)" style="fill: #ffffff; stroke: #ffffff; stroke-linejoin: miter"/>
   </g>
   <g id="patch_20">
    <path d="M -287.964161 547.599049 
L -275.266838 650.417598 
L -238.611585 654.111886 
L -232.577367 654.638841 
L -177.524572 576.100291 
L -174.236254 576.046579 
L -172.743412 579.611613 
L -169.858179 586.462742 
L -164.936688 585.624348 
L -158.370821 589.578554 
L -155.18754 584.967978 
L -157.739934 577.278731 
L -144.403493 575.629094 
L -132.092427 581.708658 
L -130.351957 597.210188 
L -124.871489 594.096862 
L -125.992009 590.579419 
L -122.860324 589.245603 
L -116.012588 596.25574 
L -98.622714 597.423532 
L -89.623792 591.795908 
L -89.004361 586.358161 
L -78.739325 584.18242 
L -72.602944 587.489849 
L -70.826112 589.516115 
L -73.174492 592.644641 
L -68.08587 600.297777 
L -54.677344 605.707027 
L -54.654064 609.690724 
L -41.512897 611.704737 
L -33.546863 607.901601 
L -28.148038 611.465465 
L -23.928555 613.909586 
L -18.01813 612.442339 
L -15.280958 609.338036 
L -13.532016 609.522445 
L -9.734174 615.423358 
L -7.251224 614.927262 
L -5.06415 615.711805 
L -4.756854 616.668929 
L -3.982002 616.408856 
L -3.655129 616.931312 
L 0.057379 617.826384 
L 4.934355 622.6343 
L 7.149134 622.625913 
L 7.720072 623.251053 
L 9.725552 623.422657 
L 11.292623 624.720504 
L 13.477604 625.351638 
L 14.575179 624.693512 
L 15.721057 625.234542 
L 15.796476 624.725087 
L 18.961698 624.935783 
L 19.22586 626.987714 
L 22.657866 625.209698 
L 23.218596 626.760753 
L 23.894478 627.339299 
L 18.903485 629.496276 
L 16.47323 634.429257 
L 12.277235 640.608837 
L 8.957087 648.72681 
L 7.198136 656.546356 
L 4.970701 660.331073 
L 2.132237 662.367323 
L 0.230257 662.452882 
L -1.92637 662.622255 
L -3.16318 663.765235 
L -3.64092 667.129756 
L -5.570693 668.525341 
L -8.124163 668.011014 
L -9.689845 668.33139 
L -10.784847 670.004888 
L -10.855669 675.385998 
L -20.973363 687.796264 
L -27.455904 692.088806 
L -28.746214 696.23631 
L -32.074527 701.652247 
L -32.802377 704.576885 
L -31.973605 709.144136 
L -32.36854 712.970533 
L -32.097806 715.356938 
L -33.153555 719.428825 
L -35.756345 721.256493 
L -37.215279 722.931658 
L -37.465758 728.915718 
L -41.406177 739.783115 
L -42.078861 743.73994 
L -40.321693 753.251107 
L -41.725346 756.393673 
L -46.894288 759.138949 
L -47.438274 761.107271 
L -47.517411 763.283208 
L -49.57109 771.840375 
L -50.849291 776.131016 
L -53.642911 778.196766 
L -55.502956 782.801597 
L -58.195096 786.829469 
L -59.8036 789.0948 
L -59.410526 791.25608 
L -59.752255 792.724368 
L -61.071458 793.822384 
L -62.751528 795.82805 
L -62.519167 799.738542 
L -63.851945 803.277472 
L -63.654174 803.588321 
L -63.590474 804.086461 
L -63.463614 805.182295 
L -63.408848 807.27329 
L -63.214268 808.170392 
L -63.150514 808.668533 
L -63.01743 808.669277 
L -63.019097 808.967938 
L -63.153856 809.265856 
L -63.087866 809.365782 
L -63.424517 810.060794 
L -63.361878 810.758045 
L -63.562667 810.956031 
L -63.698031 811.353496 
L -63.699717 811.652158 
L -63.635963 812.150305 
L -63.902787 812.248354 
L -63.905608 812.746125 
L -63.838475 812.646948 
L -63.773595 812.945987 
L -63.576128 813.345332 
L -63.508435 813.146598 
L -63.364659 813.625282 
L -62.624094 814.545341 
L -61.190904 816.843005 
L -59.170291 818.745304 
L -58.49558 819.66472 
L -57.996385 821.061081 
L -57.430916 822.557312 
L -56.973788 824.431298 
L -56.817885 825.248454 
L -57.113632 825.744778 
L -57.517861 826.598963 
L -58.071148 827.91035 
L -58.5695 828.88349 
L -59.520341 829.655136 
L -61.345548 831.776028 
L -61.75037 832.630053 
L -62.155151 833.464152 
L -62.330992 833.901254 
L -62.294137 834.478908 
L -62.351556 835.215342 
L -62.269397 838.076514 
L -62.349586 839.715518 
L -62.406377 840.332488 
L -63.159198 841.264202 
L -64.621094 842.410873 
L -65.198025 842.885458 
L -65.655402 843.46027 
L -65.821807 844.514664 
L -65.892188 845.131541 
L -65.817737 846.107691 
L -65.702035 846.884955 
L -65.121015 848.063162 
L -64.92781 849.318769 
L -64.974504 850.727876 
L -65.060205 851.428754 
L -65.480969 852.54144 
L -66.550163 854.785341 
L -67.350953 856.791793 
L -67.736968 858.72104 
L -69.053092 861.779663 
L -69.502083 862.991601 
L -69.327028 864.984003 
L -69.038837 866.00135 
L -68.103002 868.39664 
L -67.37942 870.531713 
L -67.078068 871.648657 
L -66.828103 872.406848 
L -67.0887 873.440806 
L -67.646663 874.911083 
L -68.29423 875.663902 
L -70.138373 877.066449 
L -71.637154 878.869154 
L -71.772689 879.107254 
L -72.043905 879.603363 
L -71.872229 880.002738 
L -71.860609 880.281606 
L -71.482196 881.664712 
L -73.752464 892.82405 
L -85.169133 903.806402 
L -89.556192 932.629422 
L -95.261422 944.662223 
L -135.629358 945.740153 
L -132.944681 949.591058 
L -133.798221 951.526985 
L -135.241701 952.868471 
L -140.244815 953.335382 
L -139.179474 955.181638 
L -140.33662 958.156675 
L -142.12149 959.098313 
L -146.503115 959.972653 
L -148.146548 959.813557 
L -149.721841 960.912809 
L -148.063637 964.248888 
L -148.899492 967.307716 
L -147.61893 969.732203 
L -149.497541 970.549074 
L -149.924169 971.649244 
L -150.974631 971.701011 
L -151.727972 972.505494 
L -151.72199 973.176204 
L -152.17143 973.73759 
L -154.30204 974.780245 
L -154.281297 975.064399 
L -158.016658 977.95351 
L -158.508865 978.854865 
L -159.077812 979.854669 
L -158.900955 980.841666 
L -159.799583 980.983879 
L -160.421573 981.9939 
L -163.376741 983.565846 
L -162.968234 984.785522 
L -160.964038 984.749773 
L -162.22688 986.721248 
L -163.532106 987.163031 
L -163.628898 987.813411 
L -164.973279 988.390549 
L -165.343955 988.732931 
L -165.684668 989.523981 
L -166.513969 989.800609 
L -167.164074 990.824776 
L -168.0334 990.66517 
L -168.278304 991.354711 
L -172.05361 992.80632 
L -172.367714 993.235692 
L -173.812121 993.42552 
L -175.645247 994.611526 
L -176.499172 995.681067 
L -177.425871 995.374198 
L -177.307071 995.958311 
L -177.070644 996.857017 
L -176.306259 998.136803 
L -176.603647 999.111414 
L -177.466871 999.368931 
L -179.349536 999.030596 
L -182.448277 1000.962389 
L -182.726767 1003.64826 
L -245.555139 1003.75796 
L -285.147429 1022.03448 
L -304.721401 921.84907 
L -364.260459 864.0841 
L -413.855179 817.811116 
L -382.853599 779.760889 
L -351.831327 773.954172 
L -307.133566 765.705149 
L -349.756123 713.695583 
L -424.918321 621.961751 
L -325.781607 563.14458 
L -288.52276 541.995032 
z
" clip-path="url(#p7e9f9e5ddc)" style="fill: #ffffff; stroke: #ffffff; stroke-linejoin: miter"/>
   </g>
   <g id="patch_21">
    <path d="M -325.781607 563.14458 
L -288.52276 541.995032 
L -287.964161 547.599049 
L -275.266838 650.417598 
L -238.611585 654.111886 
L -232.577367 654.638841 
L -177.524572 576.100291 
L -174.236254 576.046579 
L -172.743412 579.611613 
L -169.858179 586.462742 
L -164.936688 585.624348 
L -158.370821 589.578554 
L -155.18754 584.967978 
L -157.739934 577.278731 
L -144.403493 575.629094 
L -132.092427 581.708658 
L -130.351957 597.210188 
L -124.871489 594.096862 
L -125.992009 590.579419 
L -122.860324 589.245603 
L -116.012588 596.25574 
L -98.622714 597.423532 
L -89.623792 591.795908 
L -89.004361 586.358161 
L -78.739325 584.18242 
L -72.602944 587.489849 
L -70.826112 589.516115 
L -73.174492 592.644641 
L -68.08587 600.297777 
L -54.677344 605.707027 
L -54.654064 609.690724 
L -41.512897 611.704737 
L -33.546863 607.901601 
L -28.148038 611.465465 
L -23.928555 613.909586 
L -18.01813 612.442339 
L -15.280958 609.338036 
L -13.532016 609.522445 
L -9.734174 615.423358 
L -7.251224 614.927262 
L -5.06415 615.711805 
L -4.756854 616.668929 
L -3.982002 616.408856 
L -3.655129 616.931312 
L 0.057379 617.826384 
L 4.934355 622.6343 
L 7.149134 622.625913 
L 7.720072 623.251053 
L 9.725552 623.422657 
L 11.292623 624.720504 
L 13.477604 625.351638 
L 14.575179 624.693512 
L 15.721057 625.234542 
L 15.796476 624.725087 
L 18.961698 624.935783 
L 19.22586 626.987714 
L 22.657866 625.209698 
L 23.218596 626.760753 
L 23.894478 627.339299 
L 18.903485 629.496276 
L 16.47323 634.429257 
L 12.277235 640.608837 
L 8.957087 648.72681 
L 7.198136 656.546356 
L 4.970701 660.331073 
L 2.132237 662.367323 
L 0.230257 662.452882 
L -1.92637 662.622255 
L -3.16318 663.765235 
L -3.64092 667.129756 
L -5.570693 668.525341 
L -8.124163 668.011014 
L -9.689845 668.33139 
L -10.784847 670.004888 
L -10.855669 675.385998 
L -20.973363 687.796264 
L -27.455904 692.088806 
L -28.746214 696.23631 
L -32.074527 701.652247 
L -32.802377 704.576885 
L -31.973605 709.144136 
L -32.36854 712.970533 
L -32.097806 715.356938 
L -33.153555 719.428825 
L -35.756345 721.256493 
L -37.215279 722.931658 
L -37.465758 728.915718 
L -41.406177 739.783115 
L -42.078861 743.73994 
L -40.321693 753.251107 
L -41.725346 756.393673 
L -46.894288 759.138949 
L -47.438274 761.107271 
L -47.517411 763.283208 
L -49.57109 771.840375 
L -50.849291 776.131016 
L -53.642911 778.196766 
L -55.502956 782.801597 
L -58.195096 786.829469 
L -59.8036 789.0948 
L -59.410526 791.25608 
L -59.752255 792.724368 
L -61.071458 793.822384 
L -62.751528 795.82805 
L -62.519167 799.738542 
L -63.851945 803.277472 
L -63.654174 803.588321 
L -63.590474 804.086461 
L -63.463614 805.182295 
L -63.408848 807.27329 
L -63.214268 808.170392 
L -63.150514 808.668533 
L -63.01743 808.669277 
L -63.019097 808.967938 
L -63.153856 809.265856 
L -63.087866 809.365782 
L -63.424517 810.060794 
L -63.361878 810.758045 
L -63.562667 810.956031 
L -63.698031 811.353496 
L -63.699717 811.652158 
L -63.635963 812.150305 
L -63.902787 812.248354 
L -63.905608 812.746125 
L -63.838475 812.646948 
L -63.773595 812.945987 
L -63.576128 813.345332 
L -63.508435 813.146598 
L -63.364659 813.625282 
L -62.624094 814.545341 
L -61.190904 816.843005 
L -59.170291 818.745304 
L -58.49558 819.66472 
L -57.996385 821.061081 
L -57.430916 822.557312 
L -56.973788 824.431298 
L -56.817885 825.248454 
L -57.113632 825.744778 
L -57.517861 826.598963 
L -58.071148 827.91035 
L -58.5695 828.88349 
L -59.520341 829.655136 
L -61.345548 831.776028 
L -61.75037 832.630053 
L -62.155151 833.464152 
L -62.330992 833.901254 
L -62.294137 834.478908 
L -62.351556 835.215342 
L -62.269397 838.076514 
L -62.349586 839.715518 
L -62.406377 840.332488 
L -63.159198 841.264202 
L -64.621094 842.410873 
L -65.198025 842.885458 
L -65.655402 843.46027 
L -65.821807 844.514664 
L -65.892188 845.131541 
L -65.817737 846.107691 
L -65.702035 846.884955 
L -65.121015 848.063162 
L -64.92781 849.318769 
L -64.974504 850.727876 
L -65.060205 851.428754 
L -65.480969 852.54144 
L -66.550163 854.785341 
L -67.350953 856.791793 
L -67.736968 858.72104 
L -69.053092 861.779663 
L -69.502083 862.991601 
L -69.327028 864.984003 
L -69.038837 866.00135 
L -68.103002 868.39664 
L -67.37942 870.531713 
L -67.078068 871.648657 
L -66.828103 872.406848 
L -67.0887 873.440806 
L -67.646663 874.911083 
L -68.29423 875.663902 
L -70.138373 877.066449 
L -71.637154 878.869154 
L -71.772689 879.107254 
L -72.043905 879.603363 
L -71.872229 880.002738 
L -71.860609 880.281606 
L -71.482196 881.664712 
L -73.752464 892.82405 
L -85.169133 903.806402 
L -89.556192 932.629422 
L -95.261422 944.662223 
L -135.629358 945.740153 
L -132.944681 949.591058 
L -133.798221 951.526985 
L -135.241701 952.868471 
L -140.244815 953.335382 
L -139.179474 955.181638 
L -140.33662 958.156675 
L -142.12149 959.098313 
L -146.503115 959.972653 
L -148.146548 959.813557 
L -149.721841 960.912809 
L -148.063637 964.248888 
L -148.899492 967.307716 
L -147.61893 969.732203 
L -149.497541 970.549074 
L -149.924169 971.649244 
L -150.974631 971.701011 
L -151.727972 972.505494 
L -151.72199 973.176204 
L -152.17143 973.73759 
L -154.30204 974.780245 
L -154.281297 975.064399 
L -158.016658 977.95351 
L -158.508865 978.854865 
L -159.077812 979.854669 
L -158.900955 980.841666 
L -159.799583 980.983879 
L -160.421573 981.9939 
L -163.376741 983.565846 
L -162.968234 984.785522 
L -160.964038 984.749773 
L -162.22688 986.721248 
L -163.532106 987.163031 
L -163.628898 987.813411 
L -164.973279 988.390549 
L -165.343955 988.732931 
L -165.684668 989.523981 
L -166.513969 989.800609 
L -167.164074 990.824776 
L -168.0334 990.66517 
L -168.278304 991.354711 
L -172.05361 992.80632 
L -172.367714 993.235692 
L -173.812121 993.42552 
L -175.645247 994.611526 
L -176.499172 995.681067 
L -177.425871 995.374198 
L -177.307071 995.958311 
L -177.070644 996.857017 
L -176.306259 998.136803 
L -176.603647 999.111414 
L -177.466871 999.368931 
L -179.349536 999.030596 
L -182.448277 1000.962389 
L -182.726767 1003.64826 
L -245.555139 1003.75796 
L -285.147429 1022.03448 
L -304.721401 921.84907 
L -364.260459 864.0841 
L -413.855179 817.811116 
L -382.853599 779.760889 
L -351.831327 773.954172 
L -307.133566 765.705149 
L -349.756123 713.695583 
L -424.918321 621.961751 
z
" clip-path="url(#p7e9f9e5ddc)" style="fill: #ffffff; stroke: #ffffff; stroke-linejoin: miter"/>
   </g>
   <g id="patch_22">
    <path d="M -61.190904 816.843005 
L 32.887884 853.086148 
L 75.772969 852.828693 
L 108.075445 852.515221 
L 145.145543 840.688279 
L 200.292503 839.768223 
L 200.522684 851.050312 
L 200.658042 857.686935 
L 226.34761 910.196967 
L 253.103753 948.792342 
L 261.210865 960.539868 
L 283.605286 993.09171 
L 290.662329 997.430941 
L 317.905595 1013.943047 
L 323.439143 1018.912418 
L 322.854127 1021.599804 
L 332.05656 1025.789153 
L 329.216413 1036.733723 
L 329.981433 1042.245289 
L 327.473408 1053.179873 
L 324.26872 1055.660285 
L 327.328073 1061.73669 
L 321.328107 1066.727161 
L 324.08048 1070.990258 
L 319.280026 1076.69285 
L 322.119444 1086.594134 
L 328.154482 1085.035286 
L 334.405506 1090.130957 
L 332.916535 1100.847436 
L 329.617766 1106.941458 
L 325.003377 1102.928918 
L 322.107175 1105.013622 
L 316.10776 1102.651585 
L 313.982686 1105.154959 
L 312.413243 1103.593986 
L 307.933182 1103.784989 
L 307.505231 1100.757612 
L 304.820148 1098.630296 
L 301.882974 1099.542644 
L 300.592184 1095.836614 
L 302.508067 1092.050342 
L 299.831612 1087.15524 
L 296.793504 1090.29961 
L 293.650116 1089.630922 
L 285.054681 1093.5368 
L 281.053608 1092.605198 
L 280.253081 1098.887796 
L 274.09631 1107.5158 
L 273.674698 1119.317212 
L 273.644092 1125.362471 
L 275.961736 1126.45289 
L 277.013877 1129.309047 
L 278.955048 1128.997492 
L 279.148746 1129.84944 
L 282.081215 1130.108446 
L 286.016336 1128.154287 
L 287.853646 1128.701183 
L 288.485895 1131.653899 
L 290.087011 1131.270066 
L 291.152339 1132.831029 
L 290.238322 1136.648493 
L 287.957412 1137.052979 
L 285.922751 1138.656811 
L 286.406706 1142.219671 
L 283.606554 1143.956101 
L 283.160132 1147.747884 
L 285.062329 1151.987958 
L 287.908397 1153.504005 
L 287.755321 1154.148458 
L 289.871371 1155.291111 
L 291.487936 1159.865579 
L 292.916905 1160.688091 
L 293.449987 1163.004033 
L 290.001255 1165.982159 
L 289.173723 1168.445434 
L 287.189211 1168.999077 
L 281.654435 1168.951696 
L 278.844719 1170.575078 
L 275.309398 1168.823333 
L 277.667078 1164.72926 
L 276.644098 1161.533056 
L 269.683639 1157.741466 
L 266.100721 1150.135551 
L 267.942264 1144.245283 
L 266.716342 1144.354599 
L 263.474884 1142.199229 
L 262.763907 1139.299237 
L 259.186281 1140.41431 
L 258.951401 1141.313374 
L 258.290532 1141.987797 
L 255.658666 1139.033528 
L 250.275082 1142.422816 
L 245.414821 1143.329504 
L 244.509963 1144.614602 
L 241.500617 1146.637498 
L 239.307787 1147.19484 
L 237.978547 1148.623217 
L 236.613449 1148.259938 
L 233.194391 1145.563559 
L 230.349821 1147.501398 
L 230.902661 1149.446257 
L 229.947879 1150.446582 
L 230.006254 1150.953559 
L 230.996987 1151.619018 
L 231.049992 1153.977654 
L 229.998327 1154.547173 
L 229.419006 1157.159701 
L 227.94048 1157.563001 
L 225.97087 1156.86509 
L 224.441716 1154.953503 
L 219.806398 1158.726842 
L 216.440255 1158.477748 
L 215.049817 1157.123339 
L 211.738676 1157.244236 
L 206.879514 1155.042403 
L 204.746849 1154.139598 
L 201.991734 1150.082392 
L 199.398582 1143.643582 
L 194.172432 1141.115659 
L 195.362973 1138.942155 
L 193.297965 1132.922803 
L 193.939995 1126.230903 
L 194.10035 1120.657084 
L 192.296783 1120.42836 
L 192.518072 1119.653038 
L 194.020468 1119.705889 
L 194.263511 1114.687479 
L 190.24636 1117.105027 
L 188.793809 1121.111749 
L 186.967342 1123.054774 
L 184.240535 1122.257571 
L 181.274875 1117.494323 
L 182.009104 1115.916822 
L 180.560921 1115.382482 
L 179.556206 1115.960508 
L 176.084808 1116.130959 
L 169.353771 1117.868676 
L 168.298658 1120.875426 
L 168.818726 1124.638138 
L 167.411629 1126.710191 
L 164.800096 1127.631492 
L 164.886817 1130.42998 
L 169.182391 1133.872721 
L 169.529543 1136.790351 
L 169.122218 1137.683972 
L 170.010162 1140.05286 
L 169.070634 1142.246884 
L 170.052416 1145.044384 
L 171.629443 1145.675556 
L 172.140233 1148.225638 
L 171.180173 1149.220593 
L 171.757142 1150.480271 
L 172.282865 1151.527657 
L 171.549951 1153.451069 
L 170.158292 1154.188019 
L 170.220866 1155.11758 
L 170.21078 1157.328298 
L 168.839803 1159.003088 
L 168.006516 1160.248651 
L 166.956761 1160.905891 
L 166.440986 1163.315899 
L 165.765864 1163.571608 
L 165.44143 1167.866295 
L 165.139107 1170.473215 
L 163.684266 1170.496692 
L 161.70837 1171.46941 
L 161.87736 1172.463242 
L 161.447679 1174.352379 
L 161.112616 1174.966671 
L 159.130457 1175.606822 
L 158.517205 1178.052336 
L 158.223604 1178.887342 
L 158.583093 1179.822919 
L 158.246822 1180.381778 
L 158.140452 1180.93706 
L 147.326328 1183.258553 
L 137.274478 1185.558653 
L 136.624206 1185.678168 
L 126.987669 1187.796771 
L 87.334502 1196.691392 
L 84.25381 1195.500273 
L 83.063553 1193.385721 
L 78.182921 1193.471179 
L 77.607706 1191.140206 
L 75.729339 1189.923228 
L 75.522701 1188.498273 
L 76.550582 1187.038259 
L 74.59379 1186.887335 
L 74.008557 1185.563235 
L 73.051764 1185.791885 
L 71.968436 1184.471407 
L 71.99529 1182.921237 
L 71.025733 1181.378412 
L 69.834527 1180.944218 
L 69.711996 1179.893347 
L 67.940822 1178.688129 
L 67.082925 1176.535286 
L 66.877966 1174.5993 
L 65.264547 1173.890758 
L 64.578195 1174.338224 
L 62.694374 1173.243629 
L 57.988017 1171.628809 
L 57.464634 1169.41841 
L 54.520981 1167.722087 
L 55.278096 1166.157299 
L 56.421084 1165.430973 
L 52.255334 1158.271419 
L 53.865433 1157.431514 
L 54.611421 1154.059677 
L 55.924993 1153.760843 
L 57.395853 1151.233593 
L 57.034281 1147.356301 
L 57.999001 1145.692724 
L 56.822632 1140.554618 
L 58.342973 1139.027158 
L 57.102689 1137.49438 
L 57.76936 1135.792808 
L 56.574961 1134.264134 
L 56.555793 1131.066278 
L 57.264015 1129.479637 
L 54.826941 1125.664706 
L 53.500463 1125.698928 
L 49.613825 1126.052475 
L 43.95501 1128.336523 
L 38.084826 1133.422287 
L 35.75422 1133.038953 
L 33.183017 1136.98414 
L 35.942297 1137.860027 
L 37.141447 1141.073031 
L 36.727343 1142.962109 
L 32.954759 1144.604722 
L 32.239229 1145.581512 
L 31.219114 1144.847978 
L 29.098135 1146.250148 
L 29.912046 1148.222202 
L 24.071416 1152.392523 
L -7.648767 1115.489688 
L -33.574222 1116.588745 
L -74.194396 1064.501202 
L -84.367642 1051.315547 
L -88.749746 1045.360995 
L -105.012473 1024.746041 
L -105.609198 1023.965698 
L -110.866357 1017.329547 
L -118.646052 1007.454485 
L -147.61893 969.732203 
L -148.899492 967.307716 
L -148.063637 964.248888 
L -149.721841 960.912809 
L -148.146548 959.813557 
L -146.503115 959.972653 
L -142.12149 959.098313 
L -140.33662 958.156675 
L -139.179474 955.181638 
L -140.244815 953.335382 
L -135.241701 952.868471 
L -133.798221 951.526985 
L -132.944681 949.591058 
L -135.629358 945.740153 
L -95.261422 944.662223 
L -89.556192 932.629422 
L -85.169133 903.806402 
L -73.752464 892.82405 
L -71.482196 881.664712 
L -71.860609 880.281606 
L -71.872229 880.002738 
L -72.043905 879.603363 
L -71.772689 879.107254 
L -71.637154 878.869154 
L -70.138373 877.066449 
L -68.29423 875.663902 
L -67.646663 874.911083 
L -67.0887 873.440806 
L -66.828103 872.406848 
L -67.078068 871.648657 
L -67.37942 870.531713 
L -68.103002 868.39664 
L -69.038837 866.00135 
L -69.327028 864.984003 
L -69.502083 862.991601 
L -69.053092 861.779663 
L -67.736968 858.72104 
L -67.350953 856.791793 
L -66.550163 854.785341 
L -65.480969 852.54144 
L -65.060205 851.428754 
L -64.974504 850.727876 
L -64.92781 849.318769 
L -65.121015 848.063162 
L -65.702035 846.884955 
L -65.817737 846.107691 
L -65.892188 845.131541 
L -65.821807 844.514664 
L -65.655402 843.46027 
L -65.198025 842.885458 
L -64.621094 842.410873 
L -63.159198 841.264202 
L -62.406377 840.332488 
L -62.349586 839.715518 
L -62.269397 838.076514 
L -62.351556 835.215342 
L -62.294137 834.478908 
L -62.330992 833.901254 
L -62.155151 833.464152 
L -61.75037 832.630053 
L -61.345548 831.776028 
L -59.520341 829.655136 
L -58.5695 828.88349 
L -58.071148 827.91035 
L -57.517861 826.598963 
L -57.113632 825.744778 
L -56.817885 825.248454 
L -56.973788 824.431298 
L -57.430916 822.557312 
L -57.996385 821.061081 
L -58.49558 819.66472 
L -59.170291 818.745304 
L -61.190904 816.843005 
L 32.887884 853.086148 
L 75.772969 852.828693 
L 108.075445 852.515221 
L 145.145543 840.688279 
L 200.292503 839.768223 
L 200.522684 851.050312 
L 200.658042 857.686935 
L 226.34761 910.196967 
L 253.103753 948.792342 
L 261.210865 960.539868 
L 283.605286 993.09171 
L 290.662329 997.430941 
L 317.905595 1013.943047 
L 323.439143 1018.912418 
L 322.854127 1021.599804 
L 332.05656 1025.789153 
L 329.216413 1036.733723 
L 329.981433 1042.245289 
L 327.473408 1053.179873 
L 324.26872 1055.660285 
L 327.328073 1061.73669 
L 321.328107 1066.727161 
L 324.08048 1070.990258 
L 319.280026 1076.69285 
L 322.119444 1086.594134 
L 328.154482 1085.035286 
L 334.405506 1090.130957 
L 332.916535 1100.847436 
L 329.617766 1106.941458 
L 325.003377 1102.928918 
L 322.107175 1105.013622 
L 316.10776 1102.651585 
L 313.982686 1105.154959 
L 312.413243 1103.593986 
L 307.933182 1103.784989 
L 307.505231 1100.757612 
L 304.820148 1098.630296 
L 301.882974 1099.542644 
L 300.592184 1095.836614 
L 302.508067 1092.050342 
L 299.831612 1087.15524 
L 296.793504 1090.29961 
L 293.650116 1089.630922 
L 285.054681 1093.5368 
L 281.053608 1092.605198 
L 280.253081 1098.887796 
L 274.09631 1107.5158 
L 273.674698 1119.317212 
L 273.644092 1125.362471 
L 275.961736 1126.45289 
L 277.013877 1129.309047 
L 278.955048 1128.997492 
L 279.148746 1129.84944 
L 282.081215 1130.108446 
L 286.016336 1128.154287 
L 287.853646 1128.701183 
L 288.485895 1131.653899 
L 290.087011 1131.270066 
L 291.152339 1132.831029 
L 290.238322 1136.648493 
L 287.957412 1137.052979 
L 285.922751 1138.656811 
L 286.406706 1142.219671 
L 283.606554 1143.956101 
L 283.160132 1147.747884 
L 285.062329 1151.987958 
L 287.908397 1153.504005 
L 287.755321 1154.148458 
L 289.871371 1155.291111 
L 291.487936 1159.865579 
L 292.916905 1160.688091 
L 293.449987 1163.004033 
L 290.001255 1165.982159 
L 289.173723 1168.445434 
L 287.189211 1168.999077 
L 281.654435 1168.951696 
L 278.844719 1170.575078 
L 275.309398 1168.823333 
L 277.667078 1164.72926 
L 276.644098 1161.533056 
L 269.683639 1157.741466 
L 266.100721 1150.135551 
L 267.942264 1144.245283 
L 266.716342 1144.354599 
L 263.474884 1142.199229 
L 262.763907 1139.299237 
L 259.186281 1140.41431 
L 258.951401 1141.313374 
L 258.290532 1141.987797 
L 255.658666 1139.033528 
L 250.275082 1142.422816 
L 245.414821 1143.329504 
L 244.509963 1144.614602 
L 241.500617 1146.637498 
L 239.307787 1147.19484 
L 237.978547 1148.623217 
L 236.613449 1148.259938 
L 233.194391 1145.563559 
L 230.349821 1147.501398 
L 230.902661 1149.446257 
L 229.947879 1150.446582 
L 230.006254 1150.953559 
L 230.996987 1151.619018 
L 231.049992 1153.977654 
L 229.998327 1154.547173 
L 229.419006 1157.159701 
L 227.94048 1157.563001 
L 225.97087 1156.86509 
L 224.441716 1154.953503 
L 219.806398 1158.726842 
L 216.440255 1158.477748 
L 215.049817 1157.123339 
L 211.738676 1157.244236 
L 206.879514 1155.042403 
L 204.746849 1154.139598 
L 201.991734 1150.082392 
L 199.398582 1143.643582 
L 194.172432 1141.115659 
L 195.362973 1138.942155 
L 193.297965 1132.922803 
L 193.939995 1126.230903 
L 194.10035 1120.657084 
L 192.296783 1120.42836 
L 192.518072 1119.653038 
L 194.020468 1119.705889 
L 194.263511 1114.687479 
L 190.24636 1117.105027 
L 188.793809 1121.111749 
L 186.967342 1123.054774 
L 184.240535 1122.257571 
L 181.274875 1117.494323 
L 182.009104 1115.916822 
L 180.560921 1115.382482 
L 179.556206 1115.960508 
L 176.084808 1116.130959 
L 169.353771 1117.868676 
L 168.298658 1120.875426 
L 168.818726 1124.638138 
L 167.411629 1126.710191 
L 164.800096 1127.631492 
L 164.886817 1130.42998 
L 169.182391 1133.872721 
L 169.529543 1136.790351 
L 169.122218 1137.683972 
L 170.010162 1140.05286 
L 169.070634 1142.246884 
L 170.052416 1145.044384 
L 171.629443 1145.675556 
L 172.140233 1148.225638 
L 171.180173 1149.220593 
L 171.757142 1150.480271 
L 172.282865 1151.527657 
L 171.549951 1153.451069 
L 170.158292 1154.188019 
L 170.220866 1155.11758 
L 170.21078 1157.328298 
L 168.839803 1159.003088 
L 168.006516 1160.248651 
L 166.956761 1160.905891 
L 166.440986 1163.315899 
L 165.765864 1163.571608 
L 165.44143 1167.866295 
L 165.139107 1170.473215 
L 163.684266 1170.496692 
L 161.70837 1171.46941 
L 161.87736 1172.463242 
L 161.447679 1174.352379 
L 161.112616 1174.966671 
L 159.130457 1175.606822 
L 158.517205 1178.052336 
L 158.223604 1178.887342 
L 158.583093 1179.822919 
L 158.246822 1180.381778 
L 158.140452 1180.93706 
L 147.326328 1183.258553 
L 137.274478 1185.558653 
L 136.624206 1185.678168 
L 126.987669 1187.796771 
L 87.334502 1196.691392 
L 84.25381 1195.500273 
L 83.063553 1193.385721 
L 78.182921 1193.471179 
L 77.607706 1191.140206 
L 75.729339 1189.923228 
L 75.522701 1188.498273 
L 76.550582 1187.038259 
L 74.59379 1186.887335 
L 74.008557 1185.563235 
L 73.051764 1185.791885 
L 71.968436 1184.471407 
L 71.99529 1182.921237 
L 71.025733 1181.378412 
L 69.834527 1180.944218 
L 69.711996 1179.893347 
L 67.940822 1178.688129 
L 67.082925 1176.535286 
L 66.877966 1174.5993 
L 65.264547 1173.890758 
L 64.578195 1174.338224 
L 62.694374 1173.243629 
L 57.988017 1171.628809 
L 57.464634 1169.41841 
L 54.520981 1167.722087 
L 55.278096 1166.157299 
L 56.421084 1165.430973 
L 52.255334 1158.271419 
L 53.865433 1157.431514 
L 54.611421 1154.059677 
L 55.924993 1153.760843 
L 57.395853 1151.233593 
L 57.034281 1147.356301 
L 57.999001 1145.692724 
L 56.822632 1140.554618 
L 58.342973 1139.027158 
L 57.102689 1137.49438 
L 57.76936 1135.792808 
L 56.574961 1134.264134 
L 56.555793 1131.066278 
L 57.264015 1129.479637 
L 54.826941 1125.664706 
L 53.500463 1125.698928 
L 49.613825 1126.052475 
L 43.95501 1128.336523 
L 38.084826 1133.422287 
L 35.75422 1133.038953 
L 33.183017 1136.98414 
L 35.942297 1137.860027 
L 37.141447 1141.073031 
L 36.727343 1142.962109 
L 32.954759 1144.604722 
L 32.239229 1145.581512 
L 31.219114 1144.847978 
L 29.098135 1146.250148 
L 29.912046 1148.222202 
L 24.071416 1152.392523 
L -7.648767 1115.489688 
L -33.574222 1116.588745 
L -74.194396 1064.501202 
L -84.367642 1051.315547 
L -88.749746 1045.360995 
L -105.012473 1024.746041 
L -105.609198 1023.965698 
L -110.866357 1017.329547 
L -118.646052 1007.454485 
L -147.61893 969.732203 
L -148.899492 967.307716 
L -148.063637 964.248888 
L -149.721841 960.912809 
L -148.146548 959.813557 
L -146.503115 959.972653 
L -142.12149 959.098313 
L -140.33662 958.156675 
L -139.179474 955.181638 
L -140.244815 953.335382 
L -135.241701 952.868471 
L -133.798221 951.526985 
L -132.944681 949.591058 
L -135.629358 945.740153 
L -95.261422 944.662223 
L -89.556192 932.629422 
L -85.169133 903.806402 
L -73.752464 892.82405 
L -71.482196 881.664712 
L -71.860609 880.281606 
L -71.872229 880.002738 
L -72.043905 879.603363 
L -71.772689 879.107254 
L -71.637154 878.869154 
L -70.138373 877.066449 
L -68.29423 875.663902 
L -67.646663 874.911083 
L -67.0887 873.440806 
L -66.828103 872.406848 
L -67.078068 871.648657 
L -67.37942 870.531713 
L -68.103002 868.39664 
L -69.038837 866.00135 
L -69.327028 864.984003 
L -69.502083 862.991601 
L -69.053092 861.779663 
L -67.736968 858.72104 
L -67.350953 856.791793 
L -66.550163 854.785341 
L -65.480969 852.54144 
L -65.060205 851.428754 
L -64.974504 850.727876 
L -64.92781 849.318769 
L -65.121015 848.063162 
L -65.702035 846.884955 
L -65.817737 846.107691 
L -65.892188 845.131541 
L -65.821807 844.514664 
L -65.655402 843.46027 
L -65.198025 842.885458 
L -64.621094 842.410873 
L -63.159198 841.264202 
L -62.406377 840.332488 
L -62.349586 839.715518 
L -62.269397 838.076514 
L -62.351556 835.215342 
L -62.294137 834.478908 
L -62.330992 833.901254 
L -62.155151 833.464152 
L -61.75037 832.630053 
L -61.345548 831.776028 
L -59.520341 829.655136 
L -58.5695 828.88349 
L -58.071148 827.91035 
L -57.517861 826.598963 
L -57.113632 825.744778 
L -56.817885 825.248454 
L -56.973788 824.431298 
L -57.430916 822.557312 
L -57.996385 821.061081 
L -58.49558 819.66472 
L -59.170291 818.745304 
z
" clip-path="url(#p7e9f9e5ddc)" style="fill: #ffffff; stroke: #ffffff; stroke-linejoin: miter"/>
   </g>
   <g id="patch_23">
    <path d="M -68.926643 287.761637 
L -59.721524 302.194911 
L -57.354646 305.857419 
L -42.492716 340.207903 
L -61.637704 348.078357 
L -68.995396 330.006746 
L -101.269706 318.845102 
L -143.611956 319.154771 
L -152.403725 319.133612 
L -156.63704 319.952088 
L -133.04586 304.868928 
L -116.702437 300.484395 
z
" clip-path="url(#p7e9f9e5ddc)" style="fill: #ffffff; stroke: #ffffff; stroke-linejoin: miter"/>
   </g>
   <g id="patch_24">
    <path d="M -48.752685 282.399558 
L -18.094582 300.070557 
L 56.590331 440.644294 
L 20.715228 473.381088 
L -28.148038 611.465465 
L -33.546863 607.901601 
L -41.512897 611.704737 
L -54.654064 609.690724 
L -54.677344 605.707027 
L -68.08587 600.297777 
L -73.174492 592.644641 
L -70.826112 589.516115 
L -72.602944 587.489849 
L -78.739325 584.18242 
L -89.004361 586.358161 
L -89.623792 591.795908 
L -98.622714 597.423532 
L -116.012588 596.25574 
L -122.860324 589.245603 
L -125.992009 590.579419 
L -124.871489 594.096862 
L -130.351957 597.210188 
L -132.092427 581.708658 
L -144.403493 575.629094 
L -157.739934 577.278731 
L -155.18754 584.967978 
L -158.370821 589.578554 
L -164.936688 585.624348 
L -169.858179 586.462742 
L -172.743412 579.611613 
L -174.236254 576.046579 
L -188.197189 507.43801 
L -160.25719 489.616272 
L -157.013301 469.86928 
L -168.636364 453.532404 
L -179.517897 443.719918 
L -198.864059 457.731963 
L -187.907077 408.777935 
L -178.286876 365.652198 
L -135.473286 369.868744 
L -143.611956 319.154771 
L -101.269706 318.845102 
L -68.995396 330.006746 
L -61.637704 348.078357 
L -42.492716 340.207903 
L -57.354646 305.857419 
L -59.721524 302.194911 
L -68.926643 287.761637 
z
" clip-path="url(#p7e9f9e5ddc)" style="fill: #ffffff; stroke: #ffffff; stroke-linejoin: miter"/>
   </g>
   <g id="patch_25">
    <path d="M -48.752685 282.399558 
L -18.094582 300.070557 
L 56.590331 440.644294 
L 20.715228 473.381088 
L -28.148038 611.465465 
L -33.546863 607.901601 
L -41.512897 611.704737 
L -54.654064 609.690724 
L -54.677344 605.707027 
L -68.08587 600.297777 
L -73.174492 592.644641 
L -70.826112 589.516115 
L -72.602944 587.489849 
L -78.739325 584.18242 
L -89.004361 586.358161 
L -89.623792 591.795908 
L -98.622714 597.423532 
L -116.012588 596.25574 
L -122.860324 589.245603 
L -125.992009 590.579419 
L -124.871489 594.096862 
L -130.351957 597.210188 
L -132.092427 581.708658 
L -144.403493 575.629094 
L -157.739934 577.278731 
L -155.18754 584.967978 
L -158.370821 589.578554 
L -164.936688 585.624348 
L -169.858179 586.462742 
L -172.743412 579.611613 
L -174.236254 576.046579 
L -188.197189 507.43801 
L -197.536263 460.966218 
L -198.864059 457.731963 
L -187.907077 408.777935 
L -178.286876 365.652198 
L -156.63704 319.952088 
L -133.04586 304.868928 
L -116.702437 300.484395 
L -68.926643 287.761637 
z
" clip-path="url(#p7e9f9e5ddc)" style="fill: #ffffff; stroke: #ffffff; stroke-linejoin: miter"/>
   </g>
   <g id="patch_26">
    <path d="M -48.752685 282.399558 
L -18.094582 300.070557 
L 56.590331 440.644294 
L 20.715228 473.381088 
L -28.148038 611.465465 
L -33.546863 607.901601 
L -41.512897 611.704737 
L -54.654064 609.690724 
L -54.677344 605.707027 
L -68.08587 600.297777 
L -73.174492 592.644641 
L -70.826112 589.516115 
L -72.602944 587.489849 
L -78.739325 584.18242 
L -89.004361 586.358161 
L -89.623792 591.795908 
L -98.622714 597.423532 
L -116.012588 596.25574 
L -122.860324 589.245603 
L -125.992009 590.579419 
L -124.871489 594.096862 
L -130.351957 597.210188 
L -132.092427 581.708658 
L -144.403493 575.629094 
L -157.739934 577.278731 
L -155.18754 584.967978 
L -158.370821 589.578554 
L -164.936688 585.624348 
L -169.858179 586.462742 
L -172.743412 579.611613 
L -174.236254 576.046579 
L -188.197189 507.43801 
L -197.536263 460.966218 
L -198.864059 457.731963 
L -187.907077 408.777935 
L -178.286876 365.652198 
L -156.63704 319.952088 
L -133.04586 304.868928 
L -116.702437 300.484395 
L -68.926643 287.761637 
z
" clip-path="url(#p7e9f9e5ddc)" style="fill: #ffffff; stroke: #ffffff; stroke-linejoin: miter"/>
   </g>
   <g id="patch_27">
    <path d="M -48.752685 282.399558 
L -18.094582 300.070557 
L 56.590331 440.644294 
L 20.715228 473.381088 
L -28.148038 611.465465 
L -33.546863 607.901601 
L -41.512897 611.704737 
L -54.654064 609.690724 
L -54.677344 605.707027 
L -68.08587 600.297777 
L -73.174492 592.644641 
L -70.826112 589.516115 
L -72.602944 587.489849 
L -78.739325 584.18242 
L -89.004361 586.358161 
L -89.623792 591.795908 
L -98.622714 597.423532 
L -116.012588 596.25574 
L -122.860324 589.245603 
L -125.992009 590.579419 
L -124.871489 594.096862 
L -130.351957 597.210188 
L -132.092427 581.708658 
L -144.403493 575.629094 
L -157.739934 577.278731 
L -155.18754 584.967978 
L -158.370821 589.578554 
L -164.936688 585.624348 
L -169.858179 586.462742 
L -172.743412 579.611613 
L -174.236254 576.046579 
L -188.197189 507.43801 
L -197.536263 460.966218 
L -198.864059 457.731963 
L -187.907077 408.777935 
L -178.286876 365.652198 
L -156.63704 319.952088 
L -133.04586 304.868928 
L -116.702437 300.484395 
L -68.926643 287.761637 
z
" clip-path="url(#p7e9f9e5ddc)" style="fill: #ffffff; stroke: #ffffff; stroke-linejoin: miter"/>
   </g>
   <g id="patch_28">
    <path d="M -48.752685 282.399558 
L -18.094582 300.070557 
L 56.590331 440.644294 
L 20.715228 473.381088 
L -28.148038 611.465465 
L -33.546863 607.901601 
L -41.512897 611.704737 
L -54.654064 609.690724 
L -54.677344 605.707027 
L -68.08587 600.297777 
L -73.174492 592.644641 
L -70.826112 589.516115 
L -72.602944 587.489849 
L -78.739325 584.18242 
L -89.004361 586.358161 
L -89.623792 591.795908 
L -98.622714 597.423532 
L -116.012588 596.25574 
L -122.860324 589.245603 
L -125.992009 590.579419 
L -124.871489 594.096862 
L -130.351957 597.210188 
L -132.092427 581.708658 
L -144.403493 575.629094 
L -157.739934 577.278731 
L -155.18754 584.967978 
L -158.370821 589.578554 
L -164.936688 585.624348 
L -169.858179 586.462742 
L -172.743412 579.611613 
L -174.236254 576.046579 
L -188.197189 507.43801 
L -197.536263 460.966218 
L -198.864059 457.731963 
L -187.907077 408.777935 
L -178.286876 365.652198 
L -156.63704 319.952088 
L -133.04586 304.868928 
L -116.702437 300.484395 
L -68.926643 287.761637 
z
" clip-path="url(#p7e9f9e5ddc)" style="fill: #ffffff; stroke: #ffffff; stroke-linejoin: miter"/>
   </g>
   <g id="patch_29">
    <path d="M -152.403725 319.133612 
L -143.611956 319.154771 
L -135.473286 369.868744 
L -178.286876 365.652198 
L -156.63704 319.952088 
z
" clip-path="url(#p7e9f9e5ddc)" style="fill: #ffffff; stroke: #ffffff; stroke-linejoin: miter"/>
   </g>
   <g id="patch_30">
    <path d="M 56.590331 440.644294 
L 146.609064 509.08803 
L 137.30677 547.167709 
L 100.647036 686.888447 
L 75.772969 852.828693 
L 32.887884 853.086148 
L -61.190904 816.843005 
L -62.624094 814.545341 
L -63.364659 813.625282 
L -63.508435 813.146598 
L -63.576128 813.345332 
L -63.773595 812.945987 
L -63.838475 812.646948 
L -63.905608 812.746125 
L -63.902787 812.248354 
L -63.635963 812.150305 
L -63.699717 811.652158 
L -63.698031 811.353496 
L -63.562667 810.956031 
L -63.361878 810.758045 
L -63.424517 810.060794 
L -63.087866 809.365782 
L -63.153856 809.265856 
L -63.019097 808.967938 
L -63.01743 808.669277 
L -63.150514 808.668533 
L -63.214268 808.170392 
L -63.408848 807.27329 
L -63.463614 805.182295 
L -63.590474 804.086461 
L -63.654174 803.588321 
L -63.851945 803.277472 
L -62.519167 799.738542 
L -62.751528 795.82805 
L -61.071458 793.822384 
L -59.752255 792.724368 
L -59.410526 791.25608 
L -59.8036 789.0948 
L -58.195096 786.829469 
L -55.502956 782.801597 
L -53.642911 778.196766 
L -50.849291 776.131016 
L -49.57109 771.840375 
L -47.517411 763.283208 
L -47.438274 761.107271 
L -46.894288 759.138949 
L -41.725346 756.393673 
L -40.321693 753.251107 
L -42.078861 743.73994 
L -41.406177 739.783115 
L -37.465758 728.915718 
L -37.215279 722.931658 
L -35.756345 721.256493 
L -33.153555 719.428825 
L -32.097806 715.356938 
L -32.36854 712.970533 
L -31.973605 709.144136 
L -32.802377 704.576885 
L -32.074527 701.652247 
L -28.746214 696.23631 
L -27.455904 692.088806 
L -20.973363 687.796264 
L -10.855669 675.385998 
L -10.784847 670.004888 
L -9.689845 668.33139 
L -8.124163 668.011014 
L -5.570693 668.525341 
L -3.64092 667.129756 
L -3.16318 663.765235 
L -1.92637 662.622255 
L 0.230257 662.452882 
L 2.132237 662.367323 
L 4.970701 660.331073 
L 7.198136 656.546356 
L 8.957087 648.72681 
L 12.277235 640.608837 
L 16.47323 634.429257 
L 18.903485 629.496276 
L 23.894478 627.339299 
L 23.218596 626.760753 
L 22.657866 625.209698 
L 19.22586 626.987714 
L 18.961698 624.935783 
L 15.796476 624.725087 
L 15.721057 625.234542 
L 14.575179 624.693512 
L 13.477604 625.351638 
L 11.292623 624.720504 
L 9.725552 623.422657 
L 7.720072 623.251053 
L 7.149134 622.625913 
L 4.934355 622.6343 
L 0.057379 617.826384 
L -3.655129 616.931312 
L -3.982002 616.408856 
L -4.756854 616.668929 
L -5.06415 615.711805 
L -7.251224 614.927262 
L -9.734174 615.423358 
L -13.532016 609.522445 
L -15.280958 609.338036 
L -18.01813 612.442339 
L -23.928555 613.909586 
L -28.148038 611.465465 
L 20.715228 473.381088 
z
" clip-path="url(#p7e9f9e5ddc)" style="fill: #ffffff; stroke: #ffffff; stroke-linejoin: miter"/>
   </g>
   <g id="patch_31">
    <path d="M 56.590331 440.644294 
L 146.609064 509.08803 
L 137.30677 547.167709 
L 100.647036 686.888447 
L 75.772969 852.828693 
L 32.887884 853.086148 
L -61.190904 816.843005 
L -62.624094 814.545341 
L -63.364659 813.625282 
L -63.508435 813.146598 
L -63.576128 813.345332 
L -63.773595 812.945987 
L -63.838475 812.646948 
L -63.905608 812.746125 
L -63.902787 812.248354 
L -63.635963 812.150305 
L -63.699717 811.652158 
L -63.698031 811.353496 
L -63.562667 810.956031 
L -63.361878 810.758045 
L -63.424517 810.060794 
L -63.087866 809.365782 
L -63.153856 809.265856 
L -63.019097 808.967938 
L -63.01743 808.669277 
L -63.150514 808.668533 
L -63.214268 808.170392 
L -63.408848 807.27329 
L -63.463614 805.182295 
L -63.590474 804.086461 
L -63.654174 803.588321 
L -63.851945 803.277472 
L -62.519167 799.738542 
L -62.751528 795.82805 
L -61.071458 793.822384 
L -59.752255 792.724368 
L -59.410526 791.25608 
L -59.8036 789.0948 
L -58.195096 786.829469 
L -55.502956 782.801597 
L -53.642911 778.196766 
L -50.849291 776.131016 
L -49.57109 771.840375 
L -47.517411 763.283208 
L -47.438274 761.107271 
L -46.894288 759.138949 
L -41.725346 756.393673 
L -40.321693 753.251107 
L -42.078861 743.73994 
L -41.406177 739.783115 
L -37.465758 728.915718 
L -37.215279 722.931658 
L -35.756345 721.256493 
L -33.153555 719.428825 
L -32.097806 715.356938 
L -32.36854 712.970533 
L -31.973605 709.144136 
L -32.802377 704.576885 
L -32.074527 701.652247 
L -28.746214 696.23631 
L -27.455904 692.088806 
L -20.973363 687.796264 
L -10.855669 675.385998 
L -10.784847 670.004888 
L -9.689845 668.33139 
L -8.124163 668.011014 
L -5.570693 668.525341 
L -3.64092 667.129756 
L -3.16318 663.765235 
L -1.92637 662.622255 
L 0.230257 662.452882 
L 2.132237 662.367323 
L 4.970701 660.331073 
L 7.198136 656.546356 
L 8.957087 648.72681 
L 12.277235 640.608837 
L 16.47323 634.429257 
L 18.903485 629.496276 
L 23.894478 627.339299 
L 23.218596 626.760753 
L 22.657866 625.209698 
L 19.22586 626.987714 
L 18.961698 624.935783 
L 15.796476 624.725087 
L 15.721057 625.234542 
L 14.575179 624.693512 
L 13.477604 625.351638 
L 11.292623 624.720504 
L 9.725552 623.422657 
L 7.720072 623.251053 
L 7.149134 622.625913 
L 4.934355 622.6343 
L 0.057379 617.826384 
L -3.655129 616.931312 
L -3.982002 616.408856 
L -4.756854 616.668929 
L -5.06415 615.711805 
L -7.251224 614.927262 
L -9.734174 615.423358 
L -13.532016 609.522445 
L -15.280958 609.338036 
L -18.01813 612.442339 
L -23.928555 613.909586 
L -28.148038 611.465465 
L 20.715228 473.381088 
z
" clip-path="url(#p7e9f9e5ddc)" style="fill: #ffffff; stroke: #ffffff; stroke-linejoin: miter"/>
   </g>
   <g id="patch_32">
    <path d="M 56.590331 440.644294 
L 146.609064 509.08803 
L 137.30677 547.167709 
L 100.647036 686.888447 
L 75.772969 852.828693 
L 32.887884 853.086148 
L -61.190904 816.843005 
L -62.624094 814.545341 
L -63.364659 813.625282 
L -63.508435 813.146598 
L -63.576128 813.345332 
L -63.773595 812.945987 
L -63.838475 812.646948 
L -63.905608 812.746125 
L -63.902787 812.248354 
L -63.635963 812.150305 
L -63.699717 811.652158 
L -63.698031 811.353496 
L -63.562667 810.956031 
L -63.361878 810.758045 
L -63.424517 810.060794 
L -63.087866 809.365782 
L -63.153856 809.265856 
L -63.019097 808.967938 
L -63.01743 808.669277 
L -63.150514 808.668533 
L -63.214268 808.170392 
L -63.408848 807.27329 
L -63.463614 805.182295 
L -63.590474 804.086461 
L -63.654174 803.588321 
L -63.851945 803.277472 
L -62.519167 799.738542 
L -62.751528 795.82805 
L -61.071458 793.822384 
L -59.752255 792.724368 
L -59.410526 791.25608 
L -59.8036 789.0948 
L -58.195096 786.829469 
L -55.502956 782.801597 
L -53.642911 778.196766 
L -50.849291 776.131016 
L -49.57109 771.840375 
L -47.517411 763.283208 
L -47.438274 761.107271 
L -46.894288 759.138949 
L -41.725346 756.393673 
L -40.321693 753.251107 
L -42.078861 743.73994 
L -41.406177 739.783115 
L -37.465758 728.915718 
L -37.215279 722.931658 
L -35.756345 721.256493 
L -33.153555 719.428825 
L -32.097806 715.356938 
L -32.36854 712.970533 
L -31.973605 709.144136 
L -32.802377 704.576885 
L -32.074527 701.652247 
L -28.746214 696.23631 
L -27.455904 692.088806 
L -20.973363 687.796264 
L -10.855669 675.385998 
L -10.784847 670.004888 
L -9.689845 668.33139 
L -8.124163 668.011014 
L -5.570693 668.525341 
L -3.64092 667.129756 
L -3.16318 663.765235 
L -1.92637 662.622255 
L 0.230257 662.452882 
L 2.132237 662.367323 
L 4.970701 660.331073 
L 7.198136 656.546356 
L 8.957087 648.72681 
L 12.277235 640.608837 
L 16.47323 634.429257 
L 18.903485 629.496276 
L 23.894478 627.339299 
L 23.218596 626.760753 
L 22.657866 625.209698 
L 19.22586 626.987714 
L 18.961698 624.935783 
L 15.796476 624.725087 
L 15.721057 625.234542 
L 14.575179 624.693512 
L 13.477604 625.351638 
L 11.292623 624.720504 
L 9.725552 623.422657 
L 7.720072 623.251053 
L 7.149134 622.625913 
L 4.934355 622.6343 
L 0.057379 617.826384 
L -3.655129 616.931312 
L -3.982002 616.408856 
L -4.756854 616.668929 
L -5.06415 615.711805 
L -7.251224 614.927262 
L -9.734174 615.423358 
L -13.532016 609.522445 
L -15.280958 609.338036 
L -18.01813 612.442339 
L -23.928555 613.909586 
L -28.148038 611.465465 
L 20.715228 473.381088 
z
" clip-path="url(#p7e9f9e5ddc)" style="fill: #ffffff; stroke: #ffffff; stroke-linejoin: miter"/>
   </g>
   <g id="patch_33">
    <path d="M 137.30677 547.167709 
L 240.713009 606.549598 
L 267.466956 627.305701 
L 226.215131 655.860579 
L 214.916001 678.413235 
L 207.108656 693.962773 
L 204.444679 699.385495 
L 197.695411 712.802483 
L 198.144188 734.699213 
L 199.167343 784.687969 
L 199.953833 823.177291 
L 200.292503 839.768223 
L 145.145543 840.688279 
L 108.075445 852.515221 
L 75.772969 852.828693 
L 100.647036 686.888447 
z
" clip-path="url(#p7e9f9e5ddc)" style="fill: #ffffff; stroke: #ffffff; stroke-linejoin: miter"/>
   </g>
   <g id="patch_34">
    <path d="M 137.30677 547.167709 
L 240.713009 606.549598 
L 267.466956 627.305701 
L 226.215131 655.860579 
L 214.916001 678.413235 
L 207.108656 693.962773 
L 204.444679 699.385495 
L 197.695411 712.802483 
L 198.144188 734.699213 
L 199.167343 784.687969 
L 199.953833 823.177291 
L 200.292503 839.768223 
L 145.145543 840.688279 
L 108.075445 852.515221 
L 75.772969 852.828693 
L 100.647036 686.888447 
z
" clip-path="url(#p7e9f9e5ddc)" style="fill: #ffffff; stroke: #ffffff; stroke-linejoin: miter"/>
   </g>
   <g id="patch_35">
    <path d="M 137.30677 547.167709 
L 240.713009 606.549598 
L 267.466956 627.305701 
L 226.215131 655.860579 
L 214.916001 678.413235 
L 207.108656 693.962773 
L 204.444679 699.385495 
L 197.695411 712.802483 
L 198.144188 734.699213 
L 199.167343 784.687969 
L 199.953833 823.177291 
L 200.292503 839.768223 
L 145.145543 840.688279 
L 108.075445 852.515221 
L 75.772969 852.828693 
L 100.647036 686.888447 
z
" clip-path="url(#p7e9f9e5ddc)" style="fill: #ffffff; stroke: #ffffff; stroke-linejoin: miter"/>
   </g>
   <g id="patch_36">
    <path d="M 170.759767 340.492344 
L 280.716244 380.281949 
L 285.551267 387.769892 
L 304.750341 416.598197 
L 349.678025 483.988235 
L 377.258984 525.386058 
L 330.043229 579.543557 
L 316.357658 593.451567 
L 288.04252 613.044982 
L 267.466956 627.305701 
L 240.713009 606.549598 
L 137.30677 547.167709 
L 146.609064 509.08803 
L 175.306385 360.648169 
z
" clip-path="url(#p7e9f9e5ddc)" style="fill: #ffffff; stroke: #ffffff; stroke-linejoin: miter"/>
   </g>
   <g id="patch_37">
    <path d="M 170.759767 340.492344 
L 280.716244 380.281949 
L 285.551267 387.769892 
L 304.750341 416.598197 
L 349.678025 483.988235 
L 316.853879 513.751794 
L 298.536655 536.809836 
L 312.523603 559.269392 
L 330.043229 579.543557 
L 316.357658 593.451567 
L 288.04252 613.044982 
L 267.466956 627.305701 
L 240.713009 606.549598 
L 137.30677 547.167709 
L 146.609064 509.08803 
L 175.306385 360.648169 
z
" clip-path="url(#p7e9f9e5ddc)" style="fill: #ffffff; stroke: #ffffff; stroke-linejoin: miter"/>
   </g>
   <g id="patch_38">
    <path d="M 170.759767 340.492344 
L 280.716244 380.281949 
L 285.551267 387.769892 
L 304.750341 416.598197 
L 349.678025 483.988235 
L 377.258984 525.386058 
L 330.043229 579.543557 
L 316.357658 593.451567 
L 288.04252 613.044982 
L 267.466956 627.305701 
L 240.713009 606.549598 
L 137.30677 547.167709 
L 146.609064 509.08803 
L 175.306385 360.648169 
z
" clip-path="url(#p7e9f9e5ddc)" style="fill: #ffffff; stroke: #ffffff; stroke-linejoin: miter"/>
   </g>
   <g id="patch_39">
    <path d="M 170.759767 340.492344 
L 280.716244 380.281949 
L 285.551267 387.769892 
L 304.750341 416.598197 
L 349.678025 483.988235 
L 377.258984 525.386058 
L 330.043229 579.543557 
L 316.357658 593.451567 
L 288.04252 613.044982 
L 267.466956 627.305701 
L 240.713009 606.549598 
L 137.30677 547.167709 
L 146.609064 509.08803 
L 175.306385 360.648169 
z
" clip-path="url(#p7e9f9e5ddc)" style="fill: #ffffff; stroke: #ffffff; stroke-linejoin: miter"/>
   </g>
   <g id="patch_40">
    <path d="M 170.759767 340.492344 
L 280.716244 380.281949 
L 285.551267 387.769892 
L 304.750341 416.598197 
L 349.678025 483.988235 
L 377.258984 525.386058 
L 330.043229 579.543557 
L 316.357658 593.451567 
L 288.04252 613.044982 
L 267.466956 627.305701 
L 240.713009 606.549598 
L 137.30677 547.167709 
L 146.609064 509.08803 
L 175.306385 360.648169 
z
" clip-path="url(#p7e9f9e5ddc)" style="fill: #ffffff; stroke: #ffffff; stroke-linejoin: miter"/>
   </g>
   <g id="patch_41">
    <path d="M 134.645505 -148.37622 
L 74.215536 -48.362885 
L 70.481768 -34.721726 
L 56.124961 36.743982 
L 55.329644 55.112039 
L 53.805387 129.674038 
L 95.360641 183.117235 
L 85.960522 189.188739 
L 66.668575 200.864052 
L 24.327854 226.483637 
L 2.183893 187.159403 
L -19.417609 140.537425 
L -101.285478 62.518571 
L -155.095168 35.689428 
L -199.711818 13.326179 
L -146.103833 -57.549351 
L -107.044186 -108.97398 
L 35.506346 -132.405744 
z
" clip-path="url(#p7e9f9e5ddc)" style="fill: #ffffff; stroke: #ffffff; stroke-linejoin: miter"/>
   </g>
   <g id="patch_42">
    <path d="M 134.645505 -148.37622 
L 74.215536 -48.362885 
L 70.481768 -34.721726 
L 56.124961 36.743982 
L 55.329644 55.112039 
L 53.805387 129.674038 
L 95.360641 183.117235 
L 85.960522 189.188739 
L 66.668575 200.864052 
L 44.548827 168.883663 
L 2.183893 187.159403 
L -19.417609 140.537425 
L -101.285478 62.518571 
L -155.095168 35.689428 
L -199.711818 13.326179 
L -146.103833 -57.549351 
L -107.044186 -108.97398 
L 35.506346 -132.405744 
z
" clip-path="url(#p7e9f9e5ddc)" style="fill: #ffffff; stroke: #ffffff; stroke-linejoin: miter"/>
   </g>
   <g id="patch_43">
    <path d="M 134.645505 -148.37622 
L 74.215536 -48.362885 
L 70.481768 -34.721726 
L 56.124961 36.743982 
L 55.329644 55.112039 
L 53.805387 129.674038 
L 95.360641 183.117235 
L 85.960522 189.188739 
L 66.668575 200.864052 
L 24.327854 226.483637 
L 2.183893 187.159403 
L -19.417609 140.537425 
L -101.285478 62.518571 
L -155.095168 35.689428 
L -199.711818 13.326179 
L -146.103833 -57.549351 
L -107.044186 -108.97398 
L 35.506346 -132.405744 
z
" clip-path="url(#p7e9f9e5ddc)" style="fill: #ffffff; stroke: #ffffff; stroke-linejoin: miter"/>
   </g>
   <g id="patch_44">
    <path d="M -68.926643 287.761637 
L -116.702437 300.484395 
L -260.117761 206.762588 
L -256.095634 202.003052 
L -234.451981 188.066028 
L -240.962425 183.477779 
L -246.938578 186.58853 
L -247.60368 172.187142 
L -245.69446 170.687698 
L -227.261392 147.137362 
L -227.079767 139.562664 
L -226.784018 127.232918 
L -237.516078 103.179197 
L -241.253793 94.784946 
L -249.047287 85.617994 
L -249.931307 80.172072 
L -247.659737 75.971997 
L -199.711818 13.326179 
L -155.095168 35.689428 
L -101.285478 62.518571 
L -19.417609 140.537425 
L 2.183893 187.159403 
L 24.327854 226.483637 
L -50.874998 271.99428 
L -48.752685 282.399558 
z
" clip-path="url(#p7e9f9e5ddc)" style="fill: #ffffff; stroke: #ffffff; stroke-linejoin: miter"/>
   </g>
   <g id="patch_45">
    <path d="M -68.926643 287.761637 
L -116.702437 300.484395 
L -260.117761 206.762588 
L -256.095634 202.003052 
L -234.451981 188.066028 
L -240.962425 183.477779 
L -246.938578 186.58853 
L -247.60368 172.187142 
L -245.69446 170.687698 
L -227.261392 147.137362 
L -227.079767 139.562664 
L -226.784018 127.232918 
L -237.516078 103.179197 
L -241.253793 94.784946 
L -249.047287 85.617994 
L -249.931307 80.172072 
L -247.659737 75.971997 
L -199.711818 13.326179 
L -155.095168 35.689428 
L -101.285478 62.518571 
L -19.417609 140.537425 
L 2.183893 187.159403 
L -62.463217 215.087125 
L -50.874998 271.99428 
L -48.752685 282.399558 
z
" clip-path="url(#p7e9f9e5ddc)" style="fill: #ffffff; stroke: #ffffff; stroke-linejoin: miter"/>
   </g>
   <g id="patch_46">
    <path d="M -68.926643 287.761637 
L -116.702437 300.484395 
L -260.117761 206.762588 
L -256.095634 202.003052 
L -234.451981 188.066028 
L -240.962425 183.477779 
L -246.938578 186.58853 
L -247.60368 172.187142 
L -245.69446 170.687698 
L -227.261392 147.137362 
L -227.079767 139.562664 
L -226.784018 127.232918 
L -237.516078 103.179197 
L -241.253793 94.784946 
L -249.047287 85.617994 
L -249.931307 80.172072 
L -247.659737 75.971997 
L -199.711818 13.326179 
L -155.095168 35.689428 
L -101.285478 62.518571 
L -19.417609 140.537425 
L 2.183893 187.159403 
L 24.327854 226.483637 
L -50.874998 271.99428 
L -48.752685 282.399558 
z
" clip-path="url(#p7e9f9e5ddc)" style="fill: #ffffff; stroke: #ffffff; stroke-linejoin: miter"/>
   </g>
   <g id="patch_47">
    <path d="M 290.269091 151.520803 
L 249.479055 152.801009 
L 234.143818 153.270061 
L 190.272764 154.312545 
L 182.050909 154.484654 
L 238.191755 179.498048 
L 278.756995 197.535197 
L 290.269091 151.520803 
z
" clip-path="url(#p7e9f9e5ddc)" style="fill: #ffedd9; stroke: #ffedd9; stroke-linejoin: miter"/>
   </g>
   <g id="line2d_1">
    <path d="M 290.269091 151.520803 
L 249.479055 152.801009 
L 234.143818 153.270061 
L 190.272764 154.312545 
L 182.050909 154.484654 
L 238.191755 179.498048 
L 278.756995 197.535197 
L 290.269091 151.520803 
" clip-path="url(#p7e9f9e5ddc)" style="fill: none; stroke: #000000; stroke-width: 0.5; stroke-linecap: square"/>
   </g>
   <g id="line2d_2">
    <path d="M 414.620921 278.069614 
L 416.903654 346.6 
M 297.647585 346.6 
L 304.39196 333.168586 
L 309.386019 323.319339 
L 312.585321 316.903388 
L 314.15873 314.525863 
L 334.369682 284.761525 
L 414.620921 278.069614 
L 416.903654 346.6 
M 297.647585 346.6 
L 304.39196 333.168586 
L 309.386019 323.319339 
L 312.585321 316.903388 
L 314.15873 314.525863 
L 334.369682 284.761525 
L 414.620921 278.069614 
" clip-path="url(#p7e9f9e5ddc)" style="fill: none; stroke: #8f8f8f; stroke-width: 0.5; stroke-linecap: square"/>
   </g>
   <g id="line2d_3">
    <path clip-path="url(#p7e9f9e5ddc)" style="fill: none; stroke: #8f8f8f; stroke-width: 0.5; stroke-linecap: square"/>
   </g>
   <g id="line2d_4">
    <path d="M 461.8 274.144038 
L 414.620921 278.069614 
L 334.369682 284.761525 
L 315.700076 253.048148 
L 309.135809 241.928062 
L 324.305336 241.346897 
L 461.8 158.884511 
M 461.8 274.144038 
L 414.620921 278.069614 
L 334.369682 284.761525 
L 324.305336 241.346897 
L 461.8 158.884511 
M 461.8 274.144038 
L 414.620921 278.069614 
L 334.369682 284.761525 
L 315.700076 253.048148 
L 309.135809 241.928062 
L 324.305336 241.346897 
L 461.8 158.884511 
" clip-path="url(#p7e9f9e5ddc)" style="fill: none; stroke: #8f8f8f; stroke-width: 0.5; stroke-linecap: square"/>
   </g>
   <g id="line2d_5">
    <path d="M 387.933715 46.744265 
L 413.483693 69.467247 
L 461.8 61.536031 
M 461.8 158.884511 
L 324.305336 241.346897 
L 309.135809 241.928062 
L 297.195145 221.62919 
L 285.711758 202.132509 
L 278.756995 197.535197 
L 290.269091 151.520803 
L 314.690428 120.20538 
L 327.432035 103.864068 
L 361.408401 71.777496 
L 379.877692 54.400389 
L 387.933715 46.744265 
" clip-path="url(#p7e9f9e5ddc)" style="fill: none; stroke: #8f8f8f; stroke-width: 0.5; stroke-linecap: square"/>
   </g>
   <g id="line2d_6">
    <path clip-path="url(#p7e9f9e5ddc)" style="fill: none; stroke: #8f8f8f; stroke-width: 0.5; stroke-linecap: square"/>
   </g>
   <g id="line2d_7">
    <path d="M 334.369682 284.761525 
L 415.074157 312.488435 
L 461.8 328.540101 
M 297.647585 346.6 
L 304.39196 333.168586 
L 309.386019 323.319339 
L 312.585321 316.903388 
L 314.15873 314.525863 
L 334.369682 284.761525 
" clip-path="url(#p7e9f9e5ddc)" style="fill: none; stroke: #8f8f8f; stroke-width: 0.5; stroke-linecap: square"/>
   </g>
   <g id="line2d_8">
    <path d="M 438.253419 26.079139 
L 461.8 31.927226 
M 461.8 328.540101 
L 415.074157 312.488435 
L 334.369682 284.761525 
L 315.700076 253.048148 
L 309.135809 241.928062 
L 297.195145 221.62919 
L 285.711758 202.132509 
L 278.756995 197.535197 
L 290.269091 151.520803 
L 314.690428 120.20538 
L 327.432035 103.864068 
L 361.408401 71.777496 
L 379.877692 54.400389 
L 387.933715 46.744265 
L 438.253419 26.079139 
" clip-path="url(#p7e9f9e5ddc)" style="fill: none; stroke: #8f8f8f; stroke-width: 0.5; stroke-linecap: square"/>
   </g>
   <g id="line2d_9">
    <path d="M 182.050909 154.484654 
L 172.884236 204.00652 
L 158.032016 284.090274 
L 170.759767 340.492344 
L 172.137492 346.6 
M 6.625877 346.6 
L -1 332.246391 
M -1 241.811339 
L 24.327854 226.483637 
L 66.668575 200.864052 
L 85.960522 189.188739 
L 95.360641 183.117235 
L 138.452786 155.274622 
L 182.050909 154.484654 
" clip-path="url(#p7e9f9e5ddc)" style="fill: none; stroke: #8f8f8f; stroke-width: 0.5; stroke-linecap: square"/>
   </g>
   <g id="line2d_10">
    <path d="M 44.548827 168.883663 
L 66.668575 200.864052 
L 24.327854 226.483637 
L -1 241.811339 
M -1 188.534853 
L 2.183893 187.159403 
L 44.548827 168.883663 
" clip-path="url(#p7e9f9e5ddc)" style="fill: none; stroke: #8f8f8f; stroke-width: 0.5; stroke-linecap: square"/>
   </g>
   <g id="line2d_11">
    <path d="M 182.050909 154.484654 
L 172.884236 204.00652 
L 158.032016 284.090274 
L 170.759767 340.492344 
L 172.137492 346.6 
M 6.625877 346.6 
L -1 332.246391 
M -1 241.811339 
L 24.327854 226.483637 
L 66.668575 200.864052 
L 85.960522 189.188739 
L 95.360641 183.117235 
L 138.452786 155.274622 
L 182.050909 154.484654 
" clip-path="url(#p7e9f9e5ddc)" style="fill: none; stroke: #8f8f8f; stroke-width: 0.5; stroke-linecap: square"/>
   </g>
   <g id="line2d_12">
    <path d="M 182.050909 154.484654 
L 172.884236 204.00652 
L 158.032016 284.090274 
L 170.759767 340.492344 
L 172.137492 346.6 
M 6.625877 346.6 
L -1 332.246391 
M -1 241.811339 
L 24.327854 226.483637 
L 66.668575 200.864052 
L 85.960522 189.188739 
L 95.360641 183.117235 
L 138.452786 155.274622 
L 182.050909 154.484654 
" clip-path="url(#p7e9f9e5ddc)" style="fill: none; stroke: #8f8f8f; stroke-width: 0.5; stroke-linecap: square"/>
   </g>
   <g id="line2d_13">
    <path d="M 182.050909 154.484654 
L 172.884236 204.00652 
L 158.032016 284.090274 
L 170.759767 340.492344 
L 172.137492 346.6 
M 6.625877 346.6 
L -1 332.246391 
M -1 241.811339 
L 24.327854 226.483637 
L 66.668575 200.864052 
L 85.960522 189.188739 
L 95.360641 183.117235 
L 138.452786 155.274622 
L 182.050909 154.484654 
" clip-path="url(#p7e9f9e5ddc)" style="fill: none; stroke: #8f8f8f; stroke-width: 0.5; stroke-linecap: square"/>
   </g>
   <g id="line2d_14">
    <path d="M 278.756995 197.535197 
L 285.711758 202.132509 
L 297.195145 221.62919 
L 309.135809 241.928062 
L 315.700076 253.048148 
L 334.369682 284.761525 
L 314.15873 314.525863 
L 312.585321 316.903388 
L 309.386019 323.319339 
L 304.39196 333.168586 
L 297.647585 346.6 
M 187.637952 346.6 
L 170.759767 340.492344 
L 158.032016 284.090274 
L 172.884236 204.00652 
L 228.250358 203.04636 
L 269.242274 202.360332 
L 278.756995 197.535197 
" clip-path="url(#p7e9f9e5ddc)" style="fill: none; stroke: #8f8f8f; stroke-width: 0.5; stroke-linecap: square"/>
   </g>
   <g id="line2d_15">
    <path d="M 182.050909 154.484654 
L 238.191755 179.498048 
L 278.756995 197.535197 
L 269.242274 202.360332 
L 228.250358 203.04636 
L 172.884236 204.00652 
L 182.050909 154.484654 
" clip-path="url(#p7e9f9e5ddc)" style="fill: none; stroke: #8f8f8f; stroke-width: 0.5; stroke-linecap: square"/>
   </g>
   <g id="line2d_16">
    <path d="M 285.711758 202.132509 
L 297.195145 221.62919 
L 309.135809 241.928062 
L 315.700076 253.048148 
L 334.369682 284.761525 
L 314.15873 314.525863 
L 312.585321 316.903388 
L 309.386019 323.319339 
L 304.39196 333.168586 
L 297.647585 346.6 
M 187.637952 346.6 
L 170.759767 340.492344 
L 158.032016 284.090274 
L 172.884236 204.00652 
L 182.050909 154.484654 
L 238.191755 179.498048 
L 278.756995 197.535197 
L 285.711758 202.132509 
" clip-path="url(#p7e9f9e5ddc)" style="fill: none; stroke: #8f8f8f; stroke-width: 0.5; stroke-linecap: square"/>
   </g>
   <g id="line2d_17">
    <path d="M 285.711758 202.132509 
L 297.195145 221.62919 
L 309.135809 241.928062 
L 315.700076 253.048148 
L 334.369682 284.761525 
L 314.15873 314.525863 
L 312.585321 316.903388 
L 309.386019 323.319339 
L 304.39196 333.168586 
L 297.647585 346.6 
M 187.637952 346.6 
L 170.759767 340.492344 
L 158.032016 284.090274 
L 172.884236 204.00652 
L 182.050909 154.484654 
L 238.191755 179.498048 
L 278.756995 197.535197 
L 285.711758 202.132509 
" clip-path="url(#p7e9f9e5ddc)" style="fill: none; stroke: #8f8f8f; stroke-width: 0.5; stroke-linecap: square"/>
   </g>
   <g id="line2d_18">
    <path clip-path="url(#p7e9f9e5ddc)" style="fill: none; stroke: #8f8f8f; stroke-width: 0.5; stroke-linecap: square"/>
   </g>
   <g id="line2d_19">
    <path d="M 0 0 
" clip-path="url(#p7e9f9e5ddc)" style="fill: none; stroke: #8f8f8f; stroke-width: 0.5; stroke-linecap: square"/>
   </g>
   <g id="line2d_20">
    <path d="M 0 0 
" clip-path="url(#p7e9f9e5ddc)" style="fill: none; stroke: #8f8f8f; stroke-width: 0.5; stroke-linecap: square"/>
   </g>
   <g id="line2d_21">
    <path d="M 0 0 
" clip-path="url(#p7e9f9e5ddc)" style="fill: none; stroke: #8f8f8f; stroke-width: 0.5; stroke-linecap: square"/>
   </g>
   <g id="line2d_22">
    <path clip-path="url(#p7e9f9e5ddc)" style="fill: none; stroke: #8f8f8f; stroke-width: 0.5; stroke-linecap: square"/>
   </g>
   <g id="line2d_23">
    <path d="M -1 332.246391 
L 6.625877 346.6 
" clip-path="url(#p7e9f9e5ddc)" style="fill: none; stroke: #8f8f8f; stroke-width: 0.5; stroke-linecap: square"/>
   </g>
   <g id="line2d_24">
    <path d="M -1 332.246391 
L 6.625877 346.6 
" clip-path="url(#p7e9f9e5ddc)" style="fill: none; stroke: #8f8f8f; stroke-width: 0.5; stroke-linecap: square"/>
   </g>
   <g id="line2d_25">
    <path d="M -1 332.246391 
L 6.625877 346.6 
" clip-path="url(#p7e9f9e5ddc)" style="fill: none; stroke: #8f8f8f; stroke-width: 0.5; stroke-linecap: square"/>
   </g>
   <g id="line2d_26">
    <path d="M -1 332.246391 
L 6.625877 346.6 
" clip-path="url(#p7e9f9e5ddc)" style="fill: none; stroke: #8f8f8f; stroke-width: 0.5; stroke-linecap: square"/>
   </g>
   <g id="line2d_27">
    <path d="M -1 332.246391 
L 6.625877 346.6 
" clip-path="url(#p7e9f9e5ddc)" style="fill: none; stroke: #8f8f8f; stroke-width: 0.5; stroke-linecap: square"/>
   </g>
   <g id="line2d_28">
    <path clip-path="url(#p7e9f9e5ddc)" style="fill: none; stroke: #8f8f8f; stroke-width: 0.5; stroke-linecap: square"/>
   </g>
   <g id="line2d_29">
    <path clip-path="url(#p7e9f9e5ddc)" style="fill: none; stroke: #8f8f8f; stroke-width: 0.5; stroke-linecap: square"/>
   </g>
   <g id="line2d_30">
    <path clip-path="url(#p7e9f9e5ddc)" style="fill: none; stroke: #8f8f8f; stroke-width: 0.5; stroke-linecap: square"/>
   </g>
   <g id="line2d_31">
    <path clip-path="url(#p7e9f9e5ddc)" style="fill: none; stroke: #8f8f8f; stroke-width: 0.5; stroke-linecap: square"/>
   </g>
   <g id="line2d_32">
    <path clip-path="url(#p7e9f9e5ddc)" style="fill: none; stroke: #8f8f8f; stroke-width: 0.5; stroke-linecap: square"/>
   </g>
   <g id="line2d_33">
    <path clip-path="url(#p7e9f9e5ddc)" style="fill: none; stroke: #8f8f8f; stroke-width: 0.5; stroke-linecap: square"/>
   </g>
   <g id="line2d_34">
    <path clip-path="url(#p7e9f9e5ddc)" style="fill: none; stroke: #8f8f8f; stroke-width: 0.5; stroke-linecap: square"/>
   </g>
   <g id="line2d_35">
    <path d="M 170.759767 340.492344 
L 187.637952 346.6 
M 172.137492 346.6 
L 170.759767 340.492344 
" clip-path="url(#p7e9f9e5ddc)" style="fill: none; stroke: #8f8f8f; stroke-width: 0.5; stroke-linecap: square"/>
   </g>
   <g id="line2d_36">
    <path d="M 170.759767 340.492344 
L 187.637952 346.6 
M 172.137492 346.6 
L 170.759767 340.492344 
" clip-path="url(#p7e9f9e5ddc)" style="fill: none; stroke: #8f8f8f; stroke-width: 0.5; stroke-linecap: square"/>
   </g>
   <g id="line2d_37">
    <path d="M 170.759767 340.492344 
L 187.637952 346.6 
M 172.137492 346.6 
L 170.759767 340.492344 
" clip-path="url(#p7e9f9e5ddc)" style="fill: none; stroke: #8f8f8f; stroke-width: 0.5; stroke-linecap: square"/>
   </g>
   <g id="line2d_38">
    <path d="M 170.759767 340.492344 
L 187.637952 346.6 
M 172.137492 346.6 
L 170.759767 340.492344 
" clip-path="url(#p7e9f9e5ddc)" style="fill: none; stroke: #8f8f8f; stroke-width: 0.5; stroke-linecap: square"/>
   </g>
   <g id="line2d_39">
    <path d="M 170.759767 340.492344 
L 187.637952 346.6 
M 172.137492 346.6 
L 170.759767 340.492344 
" clip-path="url(#p7e9f9e5ddc)" style="fill: none; stroke: #8f8f8f; stroke-width: 0.5; stroke-linecap: square"/>
   </g>
   <g id="line2d_40">
    <path d="M 63.707382 -1 
L 56.124961 36.743982 
L 55.329644 55.112039 
L 53.805387 129.674038 
L 95.360641 183.117235 
L 85.960522 189.188739 
L 66.668575 200.864052 
L 24.327854 226.483637 
L 2.183893 187.159403 
L -1 180.287687 
" clip-path="url(#p7e9f9e5ddc)" style="fill: none; stroke: #8f8f8f; stroke-width: 0.5; stroke-linecap: square"/>
   </g>
   <g id="line2d_41">
    <path d="M 63.707382 -1 
L 56.124961 36.743982 
L 55.329644 55.112039 
L 53.805387 129.674038 
L 95.360641 183.117235 
L 85.960522 189.188739 
L 66.668575 200.864052 
L 44.548827 168.883663 
L 2.183893 187.159403 
L -1 180.287687 
" clip-path="url(#p7e9f9e5ddc)" style="fill: none; stroke: #8f8f8f; stroke-width: 0.5; stroke-linecap: square"/>
   </g>
   <g id="line2d_42">
    <path d="M 63.707382 -1 
L 56.124961 36.743982 
L 55.329644 55.112039 
L 53.805387 129.674038 
L 95.360641 183.117235 
L 85.960522 189.188739 
L 66.668575 200.864052 
L 24.327854 226.483637 
L 2.183893 187.159403 
L -1 180.287687 
" clip-path="url(#p7e9f9e5ddc)" style="fill: none; stroke: #8f8f8f; stroke-width: 0.5; stroke-linecap: square"/>
   </g>
   <g id="line2d_43">
    <path d="M -1 180.287687 
L 2.183893 187.159403 
L 24.327854 226.483637 
L -1 241.811339 
" clip-path="url(#p7e9f9e5ddc)" style="fill: none; stroke: #8f8f8f; stroke-width: 0.5; stroke-linecap: square"/>
   </g>
   <g id="line2d_44">
    <path d="M -1 180.287687 
L 2.183893 187.159403 
L -1 188.534853 
" clip-path="url(#p7e9f9e5ddc)" style="fill: none; stroke: #8f8f8f; stroke-width: 0.5; stroke-linecap: square"/>
   </g>
   <g id="line2d_45">
    <path d="M -1 180.287687 
L 2.183893 187.159403 
L 24.327854 226.483637 
L -1 241.811339 
" clip-path="url(#p7e9f9e5ddc)" style="fill: none; stroke: #8f8f8f; stroke-width: 0.5; stroke-linecap: square"/>
   </g>
   <g id="line2d_46">
    <path d="M 290.269091 151.520803 
L 249.479055 152.801009 
L 234.143818 153.270061 
L 190.272764 154.312545 
L 182.050909 154.484654 
L 238.191755 179.498048 
L 278.756995 197.535197 
L 290.269091 151.520803 
L 290.269091 151.520803 
" clip-path="url(#p7e9f9e5ddc)" style="fill: none; stroke: #000000; stroke-width: 0.5; stroke-linecap: square"/>
   </g>
   <g id="text_1">
    <!-- EDMMHAL1 -->
    <g transform="translate(393.697496 139.450308)scale(0.0579 -0.0579)">
     <defs>
      <path id="DejaVuSans-45" d="M 628 4666 
L 3578 4666 
L 3578 4134 
L 1259 4134 
L 1259 2753 
L 3481 2753 
L 3481 2222 
L 1259 2222 
L 1259 531 
L 3634 531 
L 3634 0 
L 628 0 
L 628 4666 
z
" transform="scale(0.015625)"/>
      <path id="DejaVuSans-44" d="M 1259 4147 
L 1259 519 
L 2022 519 
Q 2988 519 3436 956 
Q 3884 1394 3884 2338 
Q 3884 3275 3436 3711 
Q 2988 4147 2022 4147 
L 1259 4147 
z
M 628 4666 
L 1925 4666 
Q 3281 4666 3915 4102 
Q 4550 3538 4550 2338 
Q 4550 1131 3912 565 
Q 3275 0 1925 0 
L 628 0 
L 628 4666 
z
" transform="scale(0.015625)"/>
      <path id="DejaVuSans-4d" d="M 628 4666 
L 1569 4666 
L 2759 1491 
L 3956 4666 
L 4897 4666 
L 4897 0 
L 4281 0 
L 4281 4097 
L 3078 897 
L 2444 897 
L 1241 4097 
L 1241 0 
L 628 0 
L 628 4666 
z
" transform="scale(0.015625)"/>
      <path id="DejaVuSans-48" d="M 628 4666 
L 1259 4666 
L 1259 2753 
L 3553 2753 
L 3553 4666 
L 4184 4666 
L 4184 0 
L 3553 0 
L 3553 2222 
L 1259 2222 
L 1259 0 
L 628 0 
L 628 4666 
z
" transform="scale(0.015625)"/>
      <path id="DejaVuSans-41" d="M 2188 4044 
L 1331 1722 
L 3047 1722 
L 2188 4044 
z
M 1831 4666 
L 2547 4666 
L 4325 0 
L 3669 0 
L 3244 1197 
L 1141 1197 
L 716 0 
L 50 0 
L 1831 4666 
z
" transform="scale(0.015625)"/>
      <path id="DejaVuSans-4c" d="M 628 4666 
L 1259 4666 
L 1259 531 
L 3531 531 
L 3531 0 
L 628 0 
L 628 4666 
z
" transform="scale(0.015625)"/>
      <path id="DejaVuSans-31" d="M 794 531 
L 1825 531 
L 1825 4091 
L 703 3866 
L 703 4441 
L 1819 4666 
L 2450 4666 
L 2450 531 
L 3481 531 
L 3481 0 
L 794 0 
L 794 531 
z
" transform="scale(0.015625)"/>
     </defs>
     <use xlink:href="#DejaVuSans-45"/>
     <use xlink:href="#DejaVuSans-44" x="63.183594"/>
     <use xlink:href="#DejaVuSans-4d" x="140.185547"/>
     <use xlink:href="#DejaVuSans-4d" x="226.464844"/>
     <use xlink:href="#DejaVuSans-48" x="312.744141"/>
     <use xlink:href="#DejaVuSans-41" x="387.939453"/>
     <use xlink:href="#DejaVuSans-4c" x="456.347656"/>
     <use xlink:href="#DejaVuSans-31" x="512.060547"/>
    </g>
    <!-- 285 -->
    <g transform="translate(404.83827 145.933841)scale(0.0579 -0.0579)">
     <defs>
      <path id="DejaVuSans-32" d="M 1228 531 
L 3431 531 
L 3431 0 
L 469 0 
L 469 531 
Q 828 903 1448 1529 
Q 2069 2156 2228 2338 
Q 2531 2678 2651 2914 
Q 2772 3150 2772 3378 
Q 2772 3750 2511 3984 
Q 2250 4219 1831 4219 
Q 1534 4219 1204 4116 
Q 875 4013 500 3803 
L 500 4441 
Q 881 4594 1212 4672 
Q 1544 4750 1819 4750 
Q 2544 4750 2975 4387 
Q 3406 4025 3406 3419 
Q 3406 3131 3298 2873 
Q 3191 2616 2906 2266 
Q 2828 2175 2409 1742 
Q 1991 1309 1228 531 
z
" transform="scale(0.015625)"/>
      <path id="DejaVuSans-38" d="M 2034 2216 
Q 1584 2216 1326 1975 
Q 1069 1734 1069 1313 
Q 1069 891 1326 650 
Q 1584 409 2034 409 
Q 2484 409 2743 651 
Q 3003 894 3003 1313 
Q 3003 1734 2745 1975 
Q 2488 2216 2034 2216 
z
M 1403 2484 
Q 997 2584 770 2862 
Q 544 3141 544 3541 
Q 544 4100 942 4425 
Q 1341 4750 2034 4750 
Q 2731 4750 3128 4425 
Q 3525 4100 3525 3541 
Q 3525 3141 3298 2862 
Q 3072 2584 2669 2484 
Q 3125 2378 3379 2068 
Q 3634 1759 3634 1313 
Q 3634 634 3220 271 
Q 2806 -91 2034 -91 
Q 1263 -91 848 271 
Q 434 634 434 1313 
Q 434 1759 690 2068 
Q 947 2378 1403 2484 
z
M 1172 3481 
Q 1172 3119 1398 2916 
Q 1625 2713 2034 2713 
Q 2441 2713 2670 2916 
Q 2900 3119 2900 3481 
Q 2900 3844 2670 4047 
Q 2441 4250 2034 4250 
Q 1625 4250 1398 4047 
Q 1172 3844 1172 3481 
z
" transform="scale(0.015625)"/>
      <path id="DejaVuSans-35" d="M 691 4666 
L 3169 4666 
L 3169 4134 
L 1269 4134 
L 1269 2991 
Q 1406 3038 1543 3061 
Q 1681 3084 1819 3084 
Q 2600 3084 3056 2656 
Q 3513 2228 3513 1497 
Q 3513 744 3044 326 
Q 2575 -91 1722 -91 
Q 1428 -91 1123 -41 
Q 819 9 494 109 
L 494 744 
Q 775 591 1075 516 
Q 1375 441 1709 441 
Q 2250 441 2565 725 
Q 2881 1009 2881 1497 
Q 2881 1984 2565 2268 
Q 2250 2553 1709 2553 
Q 1456 2553 1204 2497 
Q 953 2441 691 2322 
L 691 4666 
z
" transform="scale(0.015625)"/>
     </defs>
     <use xlink:href="#DejaVuSans-32"/>
     <use xlink:href="#DejaVuSans-38" x="63.623047"/>
     <use xlink:href="#DejaVuSans-35" x="127.246094"/>
    </g>
    <!-- 245 -->
    <g transform="translate(404.83827 152.417375)scale(0.0579 -0.0579)">
     <defs>
      <path id="DejaVuSans-34" d="M 2419 4116 
L 825 1625 
L 2419 1625 
L 2419 4116 
z
M 2253 4666 
L 3047 4666 
L 3047 1625 
L 3713 1625 
L 3713 1100 
L 3047 1100 
L 3047 0 
L 2419 0 
L 2419 1100 
L 313 1100 
L 313 1709 
L 2253 4666 
z
" transform="scale(0.015625)"/>
     </defs>
     <use xlink:href="#DejaVuSans-32"/>
     <use xlink:href="#DejaVuSans-34" x="63.623047"/>
     <use xlink:href="#DejaVuSans-35" x="127.246094"/>
    </g>
   </g>
   <g id="text_2">
    <!-- EDUUSAL -->
    <g transform="translate(423.30996 187.082581)scale(0.0579 -0.0579)">
     <defs>
      <path id="DejaVuSans-55" d="M 556 4666 
L 1191 4666 
L 1191 1831 
Q 1191 1081 1462 751 
Q 1734 422 2344 422 
Q 2950 422 3222 751 
Q 3494 1081 3494 1831 
L 3494 4666 
L 4128 4666 
L 4128 1753 
Q 4128 841 3676 375 
Q 3225 -91 2344 -91 
Q 1459 -91 1007 375 
Q 556 841 556 1753 
L 556 4666 
z
" transform="scale(0.015625)"/>
      <path id="DejaVuSans-53" d="M 3425 4513 
L 3425 3897 
Q 3066 4069 2747 4153 
Q 2428 4238 2131 4238 
Q 1616 4238 1336 4038 
Q 1056 3838 1056 3469 
Q 1056 3159 1242 3001 
Q 1428 2844 1947 2747 
L 2328 2669 
Q 3034 2534 3370 2195 
Q 3706 1856 3706 1288 
Q 3706 609 3251 259 
Q 2797 -91 1919 -91 
Q 1588 -91 1214 -16 
Q 841 59 441 206 
L 441 856 
Q 825 641 1194 531 
Q 1563 422 1919 422 
Q 2459 422 2753 634 
Q 3047 847 3047 1241 
Q 3047 1584 2836 1778 
Q 2625 1972 2144 2069 
L 1759 2144 
Q 1053 2284 737 2584 
Q 422 2884 422 3419 
Q 422 4038 858 4394 
Q 1294 4750 2059 4750 
Q 2388 4750 2728 4690 
Q 3069 4631 3425 4513 
z
" transform="scale(0.015625)"/>
     </defs>
     <use xlink:href="#DejaVuSans-45"/>
     <use xlink:href="#DejaVuSans-44" x="63.183594"/>
     <use xlink:href="#DejaVuSans-55" x="140.185547"/>
     <use xlink:href="#DejaVuSans-55" x="213.378906"/>
     <use xlink:href="#DejaVuSans-53" x="286.572266"/>
     <use xlink:href="#DejaVuSans-41" x="351.923828"/>
     <use xlink:href="#DejaVuSans-4c" x="420.332031"/>
    </g>
    <!-- 999 -->
    <g transform="translate(431.565686 193.566115)scale(0.0579 -0.0579)">
     <defs>
      <path id="DejaVuSans-39" d="M 703 97 
L 703 672 
Q 941 559 1184 500 
Q 1428 441 1663 441 
Q 2288 441 2617 861 
Q 2947 1281 2994 2138 
Q 2813 1869 2534 1725 
Q 2256 1581 1919 1581 
Q 1219 1581 811 2004 
Q 403 2428 403 3163 
Q 403 3881 828 4315 
Q 1253 4750 1959 4750 
Q 2769 4750 3195 4129 
Q 3622 3509 3622 2328 
Q 3622 1225 3098 567 
Q 2575 -91 1691 -91 
Q 1453 -91 1209 -44 
Q 966 3 703 97 
z
M 1959 2075 
Q 2384 2075 2632 2365 
Q 2881 2656 2881 3163 
Q 2881 3666 2632 3958 
Q 2384 4250 1959 4250 
Q 1534 4250 1286 3958 
Q 1038 3666 1038 3163 
Q 1038 2656 1286 2365 
Q 1534 2075 1959 2075 
z
" transform="scale(0.015625)"/>
     </defs>
     <use xlink:href="#DejaVuSans-39"/>
     <use xlink:href="#DejaVuSans-39" x="63.623047"/>
     <use xlink:href="#DejaVuSans-39" x="127.246094"/>
    </g>
    <!-- 315 -->
    <g transform="translate(431.565686 200.049648)scale(0.0579 -0.0579)">
     <defs>
      <path id="DejaVuSans-33" d="M 2597 2516 
Q 3050 2419 3304 2112 
Q 3559 1806 3559 1356 
Q 3559 666 3084 287 
Q 2609 -91 1734 -91 
Q 1441 -91 1130 -33 
Q 819 25 488 141 
L 488 750 
Q 750 597 1062 519 
Q 1375 441 1716 441 
Q 2309 441 2620 675 
Q 2931 909 2931 1356 
Q 2931 1769 2642 2001 
Q 2353 2234 1838 2234 
L 1294 2234 
L 1294 2753 
L 1863 2753 
Q 2328 2753 2575 2939 
Q 2822 3125 2822 3475 
Q 2822 3834 2567 4026 
Q 2313 4219 1838 4219 
Q 1578 4219 1281 4162 
Q 984 4106 628 3988 
L 628 4550 
Q 988 4650 1302 4700 
Q 1616 4750 1894 4750 
Q 2613 4750 3031 4423 
Q 3450 4097 3450 3541 
Q 3450 3153 3228 2886 
Q 3006 2619 2597 2516 
z
" transform="scale(0.015625)"/>
     </defs>
     <use xlink:href="#DejaVuSans-33"/>
     <use xlink:href="#DejaVuSans-31" x="63.623047"/>
     <use xlink:href="#DejaVuSans-35" x="127.246094"/>
    </g>
   </g>
   <g id="text_3">
    <!-- FUL131 -->
    <g transform="translate(235.278104 284.022717)scale(0.0579 -0.0579)">
     <defs>
      <path id="DejaVuSans-46" d="M 628 4666 
L 3309 4666 
L 3309 4134 
L 1259 4134 
L 1259 2759 
L 3109 2759 
L 3109 2228 
L 1259 2228 
L 1259 0 
L 628 0 
L 628 4666 
z
" transform="scale(0.015625)"/>
     </defs>
     <use xlink:href="#DejaVuSans-46"/>
     <use xlink:href="#DejaVuSans-55" x="57.519531"/>
     <use xlink:href="#DejaVuSans-4c" x="130.712891"/>
     <use xlink:href="#DejaVuSans-31" x="186.425781"/>
     <use xlink:href="#DejaVuSans-33" x="250.048828"/>
     <use xlink:href="#DejaVuSans-31" x="313.671875"/>
    </g>
    <!-- 355 -->
    <g transform="translate(240.675018 290.506251)scale(0.0579 -0.0579)">
     <use xlink:href="#DejaVuSans-33"/>
     <use xlink:href="#DejaVuSans-35" x="63.623047"/>
     <use xlink:href="#DejaVuSans-35" x="127.246094"/>
    </g>
    <!-- 245 -->
    <g transform="translate(240.675018 296.989784)scale(0.0579 -0.0579)">
     <use xlink:href="#DejaVuSans-32"/>
     <use xlink:href="#DejaVuSans-34" x="63.623047"/>
     <use xlink:href="#DejaVuSans-35" x="127.246094"/>
    </g>
   </g>
   <g id="text_4">
    <!-- FUL132 -->
    <g transform="translate(214.897871 174.359732)scale(0.0579 -0.0579)">
     <use xlink:href="#DejaVuSans-46"/>
     <use xlink:href="#DejaVuSans-55" x="57.519531"/>
     <use xlink:href="#DejaVuSans-4c" x="130.712891"/>
     <use xlink:href="#DejaVuSans-31" x="186.425781"/>
     <use xlink:href="#DejaVuSans-33" x="250.048828"/>
     <use xlink:href="#DejaVuSans-32" x="313.671875"/>
    </g>
    <!-- 355 -->
    <g transform="translate(220.294784 180.843265)scale(0.0579 -0.0579)">
     <use xlink:href="#DejaVuSans-33"/>
     <use xlink:href="#DejaVuSans-35" x="63.623047"/>
     <use xlink:href="#DejaVuSans-35" x="127.246094"/>
    </g>
    <!-- 255 -->
    <g transform="translate(220.294784 187.326799)scale(0.0579 -0.0579)">
     <use xlink:href="#DejaVuSans-32"/>
     <use xlink:href="#DejaVuSans-35" x="63.623047"/>
     <use xlink:href="#DejaVuSans-35" x="127.246094"/>
    </g>
   </g>
   <g id="text_5">
    <!-- EDY -->
    <g transform="translate(230.492585 169.642145)scale(0.0579 -0.0579)">
     <defs>
      <path id="DejaVuSans-59" d="M -13 4666 
L 666 4666 
L 1959 2747 
L 3244 4666 
L 3922 4666 
L 2272 2222 
L 2272 0 
L 1638 0 
L 1638 2222 
L -13 4666 
z
" transform="scale(0.015625)"/>
     </defs>
     <use xlink:href="#DejaVuSans-45"/>
     <use xlink:href="#DejaVuSans-44" x="63.183594"/>
     <use xlink:href="#DejaVuSans-59" x="134.685547"/>
    </g>
    <!-- 660 -->
    <g transform="translate(230.634169 176.125678)scale(0.0579 -0.0579)">
     <defs>
      <path id="DejaVuSans-36" d="M 2113 2584 
Q 1688 2584 1439 2293 
Q 1191 2003 1191 1497 
Q 1191 994 1439 701 
Q 1688 409 2113 409 
Q 2538 409 2786 701 
Q 3034 994 3034 1497 
Q 3034 2003 2786 2293 
Q 2538 2584 2113 2584 
z
M 3366 4563 
L 3366 3988 
Q 3128 4100 2886 4159 
Q 2644 4219 2406 4219 
Q 1781 4219 1451 3797 
Q 1122 3375 1075 2522 
Q 1259 2794 1537 2939 
Q 1816 3084 2150 3084 
Q 2853 3084 3261 2657 
Q 3669 2231 3669 1497 
Q 3669 778 3244 343 
Q 2819 -91 2113 -91 
Q 1303 -91 875 529 
Q 447 1150 447 2328 
Q 447 3434 972 4092 
Q 1497 4750 2381 4750 
Q 2619 4750 2861 4703 
Q 3103 4656 3366 4563 
z
" transform="scale(0.015625)"/>
      <path id="DejaVuSans-30" d="M 2034 4250 
Q 1547 4250 1301 3770 
Q 1056 3291 1056 2328 
Q 1056 1369 1301 889 
Q 1547 409 2034 409 
Q 2525 409 2770 889 
Q 3016 1369 3016 2328 
Q 3016 3291 2770 3770 
Q 2525 4250 2034 4250 
z
M 2034 4750 
Q 2819 4750 3233 4129 
Q 3647 3509 3647 2328 
Q 3647 1150 3233 529 
Q 2819 -91 2034 -91 
Q 1250 -91 836 529 
Q 422 1150 422 2328 
Q 422 3509 836 4129 
Q 1250 4750 2034 4750 
z
" transform="scale(0.015625)"/>
     </defs>
     <use xlink:href="#DejaVuSans-36"/>
     <use xlink:href="#DejaVuSans-36" x="63.623047"/>
     <use xlink:href="#DejaVuSans-30" x="127.246094"/>
    </g>
    <!-- 255 -->
    <g transform="translate(230.634169 182.609212)scale(0.0579 -0.0579)">
     <use xlink:href="#DejaVuSans-32"/>
     <use xlink:href="#DejaVuSans-35" x="63.623047"/>
     <use xlink:href="#DejaVuSans-35" x="127.246094"/>
    </g>
   </g>
   <g id="text_6">
    <!-- FEDZA -->
    <g style="fill: #23a819" transform="translate(278.779653 212.221819)scale(0.05 -0.05)">
     <defs>
      <path id="DejaVuSans-5a" d="M 359 4666 
L 4025 4666 
L 4025 4184 
L 1075 531 
L 4097 531 
L 4097 0 
L 288 0 
L 288 481 
L 3238 4134 
L 359 4134 
L 359 4666 
z
" transform="scale(0.015625)"/>
     </defs>
     <use xlink:href="#DejaVuSans-46"/>
     <use xlink:href="#DejaVuSans-45" x="57.519531"/>
     <use xlink:href="#DejaVuSans-44" x="120.703125"/>
     <use xlink:href="#DejaVuSans-5a" x="197.705078"/>
     <use xlink:href="#DejaVuSans-41" x="266.210938"/>
    </g>
   </g>
   <g id="text_7">
    <!-- $\Delta$ -->
    <g style="fill: #23a819" transform="translate(285.419887 205.956401)scale(0.05 -0.05)">
     <defs>
      <path id="DejaVuSans-394" d="M 2188 4044 
L 906 525 
L 3472 525 
L 2188 4044 
z
M 50 0 
L 1831 4666 
L 2547 4666 
L 4325 0 
L 50 0 
z
" transform="scale(0.015625)"/>
     </defs>
     <use xlink:href="#DejaVuSans-394" transform="translate(0 0.09375)"/>
    </g>
   </g>
   <g id="text_8">
    <!-- BERXO -->
    <g style="fill: #23a819" transform="translate(219.747049 182.586785)scale(0.05 -0.05)">
     <defs>
      <path id="DejaVuSans-42" d="M 1259 2228 
L 1259 519 
L 2272 519 
Q 2781 519 3026 730 
Q 3272 941 3272 1375 
Q 3272 1813 3026 2020 
Q 2781 2228 2272 2228 
L 1259 2228 
z
M 1259 4147 
L 1259 2741 
L 2194 2741 
Q 2656 2741 2882 2914 
Q 3109 3088 3109 3444 
Q 3109 3797 2882 3972 
Q 2656 4147 2194 4147 
L 1259 4147 
z
M 628 4666 
L 2241 4666 
Q 2963 4666 3353 4366 
Q 3744 4066 3744 3513 
Q 3744 3084 3544 2831 
Q 3344 2578 2956 2516 
Q 3422 2416 3680 2098 
Q 3938 1781 3938 1306 
Q 3938 681 3513 340 
Q 3088 0 2303 0 
L 628 0 
L 628 4666 
z
" transform="scale(0.015625)"/>
      <path id="DejaVuSans-52" d="M 2841 2188 
Q 3044 2119 3236 1894 
Q 3428 1669 3622 1275 
L 4263 0 
L 3584 0 
L 2988 1197 
Q 2756 1666 2539 1819 
Q 2322 1972 1947 1972 
L 1259 1972 
L 1259 0 
L 628 0 
L 628 4666 
L 2053 4666 
Q 2853 4666 3247 4331 
Q 3641 3997 3641 3322 
Q 3641 2881 3436 2590 
Q 3231 2300 2841 2188 
z
M 1259 4147 
L 1259 2491 
L 2053 2491 
Q 2509 2491 2742 2702 
Q 2975 2913 2975 3322 
Q 2975 3731 2742 3939 
Q 2509 4147 2053 4147 
L 1259 4147 
z
" transform="scale(0.015625)"/>
      <path id="DejaVuSans-58" d="M 403 4666 
L 1081 4666 
L 2241 2931 
L 3406 4666 
L 4084 4666 
L 2584 2425 
L 4184 0 
L 3506 0 
L 2194 1984 
L 872 0 
L 191 0 
L 1856 2491 
L 403 4666 
z
" transform="scale(0.015625)"/>
      <path id="DejaVuSans-4f" d="M 2522 4238 
Q 1834 4238 1429 3725 
Q 1025 3213 1025 2328 
Q 1025 1447 1429 934 
Q 1834 422 2522 422 
Q 3209 422 3611 934 
Q 4013 1447 4013 2328 
Q 4013 3213 3611 3725 
Q 3209 4238 2522 4238 
z
M 2522 4750 
Q 3503 4750 4090 4092 
Q 4678 3434 4678 2328 
Q 4678 1225 4090 567 
Q 3503 -91 2522 -91 
Q 1538 -91 948 565 
Q 359 1222 359 2328 
Q 359 3434 948 4092 
Q 1538 4750 2522 4750 
z
" transform="scale(0.015625)"/>
     </defs>
     <use xlink:href="#DejaVuSans-42"/>
     <use xlink:href="#DejaVuSans-45" x="68.603516"/>
     <use xlink:href="#DejaVuSans-52" x="131.787109"/>
     <use xlink:href="#DejaVuSans-58" x="201.269531"/>
     <use xlink:href="#DejaVuSans-4f" x="263.400391"/>
    </g>
   </g>
   <g id="text_9">
    <!-- $\Delta$ -->
    <g style="fill: #23a819" transform="translate(226.575174 176.321368)scale(0.05 -0.05)">
     <use xlink:href="#DejaVuSans-394" transform="translate(0 0.09375)"/>
    </g>
   </g>
   <g id="text_10">
    <!-- ELNAT -->
    <g style="fill: #23a819" transform="translate(196.529244 187.068187)scale(0.05 -0.05)">
     <defs>
      <path id="DejaVuSans-4e" d="M 628 4666 
L 1478 4666 
L 3547 763 
L 3547 4666 
L 4159 4666 
L 4159 0 
L 3309 0 
L 1241 3903 
L 1241 0 
L 628 0 
L 628 4666 
z
" transform="scale(0.015625)"/>
      <path id="DejaVuSans-54" d="M -19 4666 
L 3928 4666 
L 3928 4134 
L 2272 4134 
L 2272 0 
L 1638 0 
L 1638 4134 
L -19 4134 
L -19 4666 
z
" transform="scale(0.015625)"/>
     </defs>
     <use xlink:href="#DejaVuSans-45"/>
     <use xlink:href="#DejaVuSans-4c" x="63.183594"/>
     <use xlink:href="#DejaVuSans-4e" x="118.896484"/>
     <use xlink:href="#DejaVuSans-41" x="193.701172"/>
     <use xlink:href="#DejaVuSans-54" x="254.359375"/>
    </g>
   </g>
   <g id="text_11">
    <!-- $\Delta$ -->
    <g style="fill: #23a819" transform="translate(202.690572 180.80277)scale(0.05 -0.05)">
     <use xlink:href="#DejaVuSans-394" transform="translate(0 0.09375)"/>
    </g>
   </g>
  </g>
 </g>
 <defs>
  <clipPath id="p7e9f9e5ddc">
   <rect x="57.6" y="98.604251" width="357.12" height="151.847499"/>
  </clipPath>
 </defs>
</svg>
