<?xml version="1.0" encoding="utf-8" standalone="no"?>
<!DOCTYPE svg PUBLIC "-//W3C//DTD SVG 1.1//EN"
  "http://www.w3.org/Graphics/SVG/1.1/DTD/svg11.dtd">
<svg xmlns:xlink="http://www.w3.org/1999/xlink" width="460.8pt" height="345.6pt" viewBox="0 0 460.8 345.6" xmlns="http://www.w3.org/2000/svg" version="1.1">
 <metadata>
  <rdf:RDF xmlns:dc="http://purl.org/dc/elements/1.1/" xmlns:cc="http://creativecommons.org/ns#" xmlns:rdf="http://www.w3.org/1999/02/22-rdf-syntax-ns#">
   <cc:Work>
    <dc:type rdf:resource="http://purl.org/dc/dcmitype/StillImage"/>
    <dc:date>2022-03-24T11:26:03.167211</dc:date>
    <dc:format>image/svg+xml</dc:format>
    <dc:creator>
     <cc:Agent>
      <dc:title>Matplotlib v3.5.0, https://matplotlib.org/</dc:title>
     </cc:Agent>
    </dc:creator>
   </cc:Work>
  </rdf:RDF>
 </metadata>
 <defs>
  <style type="text/css">*{stroke-linejoin: round; stroke-linecap: butt}</style>
 </defs>
 <g id="figure_1">
  <g id="patch_1">
   <path d="M 0 345.6 
L 460.8 345.6 
L 460.8 0 
L 0 0 
z
" style="fill: #ffffff"/>
  </g>
  <g id="axes_1">
   <g id="patch_2">
    <path d="M 75.313766 152.662076 
L 122.479968 137.595476 
L 238.569305 87.024691 
L 352.306825 59.110336 
L 379.609365 58.008993 
L 387.757578 127.452021 
L 388.315578 132.001675 
L 398.487273 144.53156 
L 390.659668 151.970604 
L 372.714051 168.855006 
L 339.70104 200.031804 
L 327.320706 215.909779 
L 303.591805 246.337293 
L 263.958318 247.5812 
L 249.057892 248.036953 
L 206.430746 249.049878 
L 198.442011 249.217108 
L 156.080057 249.984677 
L 114.209735 277.037849 
L 73.832727 225.109965 
L 303.591805 246.337293 
L 263.958318 247.5812 
L 249.057892 248.036953 
L 206.430746 249.049878 
L 198.442011 249.217108 
L 252.991055 273.521279 
L 292.406119 291.047007 
z
" clip-path="url(#pfcb4d263ee)" style="fill: #ffedd9; stroke: #ffedd9; stroke-linejoin: miter"/>
   </g>
   <g id="patch_3">
    <path d="M 424.417797 369.297974 
L 428.520707 492.472258 
L 521.285696 587.624259 
L 495.292263 606.155256 
L 388.11521 609.602076 
L 361.316274 569.378036 
L 317.662458 503.898755 
L 299.007748 475.88784 
L 294.309816 468.612208 
L 298.268115 460.750558 
L 300.633468 456.054414 
L 317.314238 422.834685 
L 322.166697 413.264701 
L 325.275286 407.030666 
L 326.804083 404.720553 
L 346.44198 375.800145 
L 424.417797 369.297974 
L 428.520707 492.472258 
L 521.285696 587.624259 
L 495.292263 606.155256 
L 388.11521 609.602076 
L 322.432165 500.785203 
L 298.268115 460.750558 
L 300.633468 456.054414 
L 317.314238 422.834685 
L 322.166697 413.264701 
L 325.275286 407.030666 
L 326.804083 404.720553 
L 346.44198 375.800145 
z
" clip-path="url(#pfcb4d263ee)" style="fill: #ffffff; stroke: #ffffff; stroke-linejoin: miter"/>
   </g>
   <g id="patch_4">
    <path d="M 437.980567 900.565047 
L 406.568821 968.742847 
L 371.652492 981.678045 
L 355.940916 987.500573 
L 335.621393 991.886965 
L 269.609041 985.941193 
L 241.482736 983.502163 
L 216.521562 932.480986 
L 216.390043 926.032536 
L 216.166388 915.070336 
L 215.837321 898.949819 
L 215.073131 861.551813 
L 214.078985 812.980424 
L 267.658848 822.218088 
L 401.690651 845.302103 
L 433.137307 851.377027 
L 433.084414 862.732352 
L 434.747803 875.574897 
L 437.980567 900.565047 
L 406.568821 968.742847 
L 371.652492 981.678045 
L 355.940916 987.500573 
L 335.621393 991.886965 
L 269.609041 985.941193 
L 241.482736 983.502163 
L 216.521562 932.480986 
L 216.390043 926.032536 
L 216.166388 915.070336 
L 215.837321 898.949819 
L 215.073131 861.551813 
L 214.078985 812.980424 
L 267.658848 822.218088 
L 401.690651 845.302103 
L 433.137307 851.377027 
L 433.084414 862.732352 
L 434.747803 875.574897 
L 403.153453 882.256393 
L 417.423035 903.902346 
L 437.980567 900.565047 
L 406.568821 968.742847 
L 371.652492 981.678045 
L 355.940916 987.500573 
L 335.621393 991.886965 
L 269.609041 985.941193 
L 241.482736 983.502163 
L 271.258935 958.420843 
L 271.331592 927.716105 
L 262.577352 928.477136 
L 253.169564 912.686548 
L 216.166388 915.070336 
L 215.837321 898.949819 
L 215.073131 861.551813 
L 217.729716 859.992014 
L 262.60502 834.17515 
L 267.658848 822.218088 
L 401.690651 845.302103 
L 402.318114 861.147068 
L 403.153453 882.256393 
L 417.423035 903.902346 
L 437.980567 900.565047 
L 406.568821 968.742847 
L 371.652492 981.678045 
L 355.940916 987.500573 
L 335.621393 991.886965 
L 269.609041 985.941193 
L 241.482736 983.502163 
L 271.258935 958.420843 
L 271.331592 927.716105 
L 262.577352 928.477136 
L 253.169564 912.686548 
L 216.166388 915.070336 
L 215.837321 898.949819 
L 215.073131 861.551813 
L 214.078985 812.980424 
L 267.658848 822.218088 
L 401.690651 845.302103 
L 402.318114 861.147068 
L 437.980567 900.565047 
L 406.568821 968.742847 
L 371.652492 981.678045 
L 355.940916 987.500573 
L 335.621393 991.886965 
L 269.609041 985.941193 
L 241.482736 983.502163 
L 271.258935 958.420843 
L 271.331592 927.716105 
L 262.577352 928.477136 
L 253.169564 912.686548 
L 216.166388 915.070336 
L 215.837321 898.949819 
L 215.073131 861.551813 
L 214.078985 812.980424 
L 267.658848 822.218088 
L 401.690651 845.302103 
L 433.137307 851.377027 
L 433.084414 862.732352 
L 434.747803 875.574897 
L 437.980567 900.565047 
L 406.568821 968.742847 
L 371.652492 981.678045 
L 355.940916 987.500573 
L 335.621393 991.886965 
L 269.609041 985.941193 
L 241.482736 983.502163 
L 216.521562 932.480986 
L 216.390043 926.032536 
L 216.166388 915.070336 
L 215.837321 898.949819 
L 215.073131 861.551813 
L 214.078985 812.980424 
L 267.658848 822.218088 
L 401.690651 845.302103 
L 433.137307 851.377027 
L 433.084414 862.732352 
L 434.747803 875.574897 
z
" clip-path="url(#pfcb4d263ee)" style="fill: #ffffff; stroke: #ffffff; stroke-linejoin: miter"/>
   </g>
   <g id="patch_5">
    <path d="M 631.964697 195.855284 
L 630.446884 223.451572 
L 544.440977 375.607325 
L 519.057689 361.431999 
L 491.284819 363.734245 
L 424.417797 369.297974 
L 346.44198 375.800145 
L 328.301727 344.98596 
L 321.923581 334.181169 
L 336.662996 333.616483 
L 500.428433 235.398207 
L 548.157229 173.752427 
L 559.335572 159.335116 
L 597.692502 179.63062 
L 634.11154 156.082345 
L 558.428348 184.279095 
L 596.611704 208.154192 
L 628.792585 196.074944 
L 631.964697 195.855284 
L 630.8994 215.388766 
L 630.446884 223.451572 
L 544.440977 375.607325 
L 519.057689 361.431999 
L 491.284819 363.734245 
L 424.417797 369.297974 
L 346.44198 375.800145 
L 336.662996 333.616483 
L 500.428433 235.398207 
L 548.157229 173.752427 
L 558.428348 184.279095 
L 596.611704 208.154192 
L 628.792585 196.074944 
L 631.964697 195.855284 
L 630.446884 223.451572 
L 544.440977 375.607325 
L 519.057689 361.431999 
L 491.284819 363.734245 
L 424.417797 369.297974 
L 346.44198 375.800145 
L 328.301727 344.98596 
L 321.923581 334.181169 
L 336.662996 333.616483 
L 500.428433 235.398207 
L 548.157229 173.752427 
z
" clip-path="url(#pfcb4d263ee)" style="fill: #ffffff; stroke: #ffffff; stroke-linejoin: miter"/>
   </g>
   <g id="patch_6">
    <path d="M 342.238198 662.224008 
L 353.493134 673.283905 
L 439.23161 757.33199 
L 421.662857 757.766192 
L 394.020492 759.430226 
L 386.389344 767.902658 
L 301.428365 694.775543 
L 328.940664 675.737674 
L 342.238198 662.224008 
L 353.493134 673.283905 
L 439.23161 757.33199 
L 421.662857 757.766192 
L 394.020492 759.430226 
L 386.389344 767.902658 
L 301.428365 694.775543 
L 328.940664 675.737674 
L 342.238198 662.224008 
L 353.493134 673.283905 
L 439.23161 757.33199 
L 421.662857 757.766192 
L 394.020492 759.430226 
L 386.389344 767.902658 
L 301.428365 694.775543 
L 328.940664 675.737674 
L 342.238198 662.224008 
L 353.493134 673.283905 
L 439.23161 757.33199 
L 421.662857 757.766192 
L 394.020492 759.430226 
L 386.389344 767.902658 
L 301.428365 694.775543 
L 328.940664 675.737674 
z
" clip-path="url(#pfcb4d263ee)" style="fill: #ffffff; stroke: #ffffff; stroke-linejoin: miter"/>
   </g>
   <g id="patch_7">
    <path d="M 346.44198 375.800145 
L 424.858182 402.740894 
L 553.182002 446.823803 
L 552.127675 456.523959 
L 553.23141 460.08364 
L 554.847696 467.625015 
L 574.322062 549.669679 
L 588.616999 561.839042 
L 573.348492 559.636978 
L 561.988056 558.529694 
L 495.292263 606.155256 
L 388.11521 609.602076 
L 361.316274 569.378036 
L 317.662458 503.898755 
L 299.007748 475.88784 
L 294.309816 468.612208 
L 298.268115 460.750558 
L 300.633468 456.054414 
L 317.314238 422.834685 
L 322.166697 413.264701 
L 325.275286 407.030666 
L 326.804083 404.720553 
z
" clip-path="url(#pfcb4d263ee)" style="fill: #ffffff; stroke: #ffffff; stroke-linejoin: miter"/>
   </g>
   <g id="patch_8">
    <path d="M 447.380226 124.452368 
L 534.092267 145.988382 
L 559.335572 159.335116 
L 597.692502 179.63062 
L 596.611704 208.154192 
L 562.114425 248.370718 
L 519.057689 361.431999 
L 544.440977 375.607325 
L 600.096418 406.686924 
L 563.115007 429.705846 
L 555.023119 434.761654 
L 553.182002 446.823803 
L 424.858182 402.740894 
L 346.44198 375.800145 
L 328.301727 344.98596 
L 321.923581 334.181169 
L 310.321479 314.457846 
L 299.163689 295.513969 
L 292.406119 291.047007 
L 303.591805 246.337293 
L 327.320706 215.909779 
L 339.70104 200.031804 
L 372.714051 168.855006 
L 390.659668 151.970604 
L 398.487273 144.53156 
z
" clip-path="url(#pfcb4d263ee)" style="fill: #ffffff; stroke: #ffffff; stroke-linejoin: miter"/>
   </g>
   <g id="patch_9">
    <path d="M -114.721662 -9.885594 
L -268.064984 -24.431739 
L -333.141184 18.59175 
L -442.575691 220.11869 
L -322.097365 260.339498 
L -265.570524 280.02944 
L -231.189531 300.012768 
L -227.281446 295.388182 
L -206.251471 281.846325 
L -212.57732 277.38817 
L -218.384027 280.41072 
L -219.03027 266.417665 
L -217.175184 264.960735 
L -199.264762 242.078139 
L -199.088286 234.718212 
L -198.800923 222.73806 
L -209.228689 199.366351 
L -212.860426 191.210109 
L -220.432946 182.303074 
L -221.291901 177.011565 
L -219.084738 172.930577 
L -172.496321 112.061001 
L -120.408322 43.195057 
L -82.456162 -6.771493 
z
" clip-path="url(#pfcb4d263ee)" style="fill: #ffffff; stroke: #ffffff; stroke-linejoin: miter"/>
   </g>
   <g id="patch_10">
    <path d="M 89.331396 -442.866148 
L 89.569846 -417.032909 
L 89.718751 -400.888413 
L 99.181592 -388.065006 
L 111.322649 -388.684333 
L 55.633896 -313.208829 
L 118.799456 -162.341935 
L 56.052532 -29.538879 
L -82.456162 -6.771493 
L -114.721662 -9.885594 
L -268.064984 -24.431739 
L -318.366494 -72.892451 
L -362.930108 -141.831089 
L -418.49649 -296.813246 
L -374.480553 -371.12211 
L -318.283909 -465.60315 
L -151.624569 -460.403931 
L -16.498154 -458.733098 
L 5.823584 -458.67625 
L 15.085738 -458.670901 
L 52.074569 -471.675175 
L 58.575764 -472.192342 
L 64.860746 -472.659618 
L 65.88567 -471.427944 
L 72.229609 -463.6653 
z
" clip-path="url(#pfcb4d263ee)" style="fill: #ffffff; stroke: #ffffff; stroke-linejoin: miter"/>
   </g>
   <g id="patch_11">
    <path d="M -322.097365 260.339498 
L -265.570524 280.02944 
L -231.189531 300.012768 
L -91.840565 391.077213 
L -123.112888 391.141453 
L -130.642873 409.992924 
L -151.678856 454.397266 
L -161.026288 496.300227 
L -216.980139 483.299191 
L -253.333327 474.630262 
L -327.46285 406.146875 
L -323.104334 289.827372 
z
" clip-path="url(#pfcb4d263ee)" style="fill: #ffffff; stroke: #ffffff; stroke-linejoin: miter"/>
   </g>
   <g id="patch_12">
    <path d="M -130.642873 409.992924 
L -123.112888 391.141453 
L -91.840565 391.077213 
L -107.720591 395.337428 
z
" clip-path="url(#pfcb4d263ee)" style="fill: #ffffff; stroke: #ffffff; stroke-linejoin: miter"/>
   </g>
   <g id="patch_13">
    <path d="M -327.46285 406.146875 
L -253.333327 474.630262 
L -216.980139 483.299191 
L -161.026288 496.300227 
L -171.672599 543.866227 
L -170.382451 547.008779 
L -161.308175 592.162922 
L -147.743084 658.826182 
L -150.938166 658.878371 
L -204.430009 735.190061 
L -210.293135 734.678047 
L -245.909075 731.088506 
L -258.246382 631.185246 
L -258.789142 625.740123 
L -260.226165 615.000771 
L -257.95684 593.402915 
L -258.931576 592.138201 
L -267.270214 593.396978 
L -304.788802 596.874651 
L -304.52577 591.184233 
L -305.712534 587.111281 
L -308.207615 580.573658 
L -312.766672 577.404616 
L -314.169681 575.688675 
L -321.002491 570.983565 
L -323.895249 565.287177 
L -327.327952 562.097364 
L -339.591389 557.070256 
L -345.48796 553.080586 
L -360.851552 540.105937 
L -377.036886 539.440658 
L -376.60344 527.463972 
L -374.512726 504.046124 
L -411.87245 504.018945 
L -422.457936 508.369122 
L -436.856733 505.42058 
L -463.572647 500.477473 
L -464.122165 500.395326 
z
" clip-path="url(#pfcb4d263ee)" style="fill: #ffffff; stroke: #ffffff; stroke-linejoin: miter"/>
   </g>
   <g id="patch_14">
    <path d="M 198.442011 249.217108 
L 189.535247 297.334845 
L 175.104143 375.147926 
L 187.471015 429.950788 
L 191.888719 449.53512 
L 164.005075 593.766158 
L 76.538707 527.263056 
L 3.97139 390.675109 
L -25.817442 373.505148 
L -27.879579 363.394899 
L 45.190992 319.174651 
L 86.331196 294.281477 
L 105.076145 282.937203 
L 114.209735 277.037849 
L 156.080057 249.984677 
z
" clip-path="url(#pfcb4d263ee)" style="fill: #ffffff; stroke: #ffffff; stroke-linejoin: miter"/>
   </g>
   <g id="patch_15">
    <path d="M 64.838625 263.207851 
L 86.331196 294.281477 
L 45.190992 319.174651 
L -27.879579 363.394899 
L -39.139229 308.101273 
L 23.674895 280.965406 
z
" clip-path="url(#pfcb4d263ee)" style="fill: #ffffff; stroke: #ffffff; stroke-linejoin: miter"/>
   </g>
   <g id="patch_16">
    <path d="M 198.442011 249.217108 
L 189.535247 297.334845 
L 175.104143 375.147926 
L 187.471015 429.950788 
L 191.888719 449.53512 
L 164.005075 593.766158 
L 76.538707 527.263056 
L 3.97139 390.675109 
L -25.817442 373.505148 
L -27.879579 363.394899 
L 45.190992 319.174651 
L 86.331196 294.281477 
L 105.076145 282.937203 
L 114.209735 277.037849 
L 156.080057 249.984677 
z
" clip-path="url(#pfcb4d263ee)" style="fill: #ffffff; stroke: #ffffff; stroke-linejoin: miter"/>
   </g>
   <g id="patch_17">
    <path d="M 198.442011 249.217108 
L 189.535247 297.334845 
L 175.104143 375.147926 
L 187.471015 429.950788 
L 191.888719 449.53512 
L 164.005075 593.766158 
L 76.538707 527.263056 
L 3.97139 390.675109 
L -25.817442 373.505148 
L -27.879579 363.394899 
L 45.190992 319.174651 
L 86.331196 294.281477 
L 105.076145 282.937203 
L 114.209735 277.037849 
L 156.080057 249.984677 
z
" clip-path="url(#pfcb4d263ee)" style="fill: #ffffff; stroke: #ffffff; stroke-linejoin: miter"/>
   </g>
   <g id="patch_18">
    <path d="M 198.442011 249.217108 
L 189.535247 297.334845 
L 175.104143 375.147926 
L 187.471015 429.950788 
L 191.888719 449.53512 
L 164.005075 593.766158 
L 76.538707 527.263056 
L 3.97139 390.675109 
L -25.817442 373.505148 
L -27.879579 363.394899 
L 45.190992 319.174651 
L 86.331196 294.281477 
L 105.076145 282.937203 
L 114.209735 277.037849 
L 156.080057 249.984677 
z
" clip-path="url(#pfcb4d263ee)" style="fill: #ffffff; stroke: #ffffff; stroke-linejoin: miter"/>
   </g>
   <g id="patch_19">
    <path d="M 292.406119 291.047007 
L 299.163689 295.513969 
L 310.321479 314.457846 
L 321.923581 334.181169 
L 328.301727 344.98596 
L 346.44198 375.800145 
L 326.804083 404.720553 
L 325.275286 407.030666 
L 322.166697 413.264701 
L 317.314238 422.834685 
L 300.633468 456.054414 
L 298.268115 460.750558 
L 294.309816 468.612208 
L 187.471015 429.950788 
L 175.104143 375.147926 
L 189.535247 297.334845 
L 243.331534 296.401909 
L 283.161176 295.735333 
z
" clip-path="url(#pfcb4d263ee)" style="fill: #ffffff; stroke: #ffffff; stroke-linejoin: miter"/>
   </g>
   <g id="patch_20">
    <path d="M 198.442011 249.217108 
L 252.991055 273.521279 
L 292.406119 291.047007 
L 283.161176 295.735333 
L 243.331534 296.401909 
L 189.535247 297.334845 
z
" clip-path="url(#pfcb4d263ee)" style="fill: #ffffff; stroke: #ffffff; stroke-linejoin: miter"/>
   </g>
   <g id="patch_21">
    <path d="M 299.163689 295.513969 
L 310.321479 314.457846 
L 321.923581 334.181169 
L 328.301727 344.98596 
L 346.44198 375.800145 
L 326.804083 404.720553 
L 325.275286 407.030666 
L 322.166697 413.264701 
L 317.314238 422.834685 
L 300.633468 456.054414 
L 298.268115 460.750558 
L 294.309816 468.612208 
L 187.471015 429.950788 
L 175.104143 375.147926 
L 189.535247 297.334845 
L 198.442011 249.217108 
L 252.991055 273.521279 
L 292.406119 291.047007 
z
" clip-path="url(#pfcb4d263ee)" style="fill: #ffffff; stroke: #ffffff; stroke-linejoin: miter"/>
   </g>
   <g id="patch_22">
    <path d="M 299.163689 295.513969 
L 310.321479 314.457846 
L 321.923581 334.181169 
L 328.301727 344.98596 
L 346.44198 375.800145 
L 326.804083 404.720553 
L 325.275286 407.030666 
L 322.166697 413.264701 
L 317.314238 422.834685 
L 300.633468 456.054414 
L 298.268115 460.750558 
L 294.309816 468.612208 
L 187.471015 429.950788 
L 175.104143 375.147926 
L 189.535247 297.334845 
L 198.442011 249.217108 
L 252.991055 273.521279 
L 292.406119 291.047007 
z
" clip-path="url(#pfcb4d263ee)" style="fill: #ffffff; stroke: #ffffff; stroke-linejoin: miter"/>
   </g>
   <g id="patch_23">
    <path d="M 303.591805 246.337293 
L 292.406119 291.047007 
L 283.161176 295.735333 
L 243.331534 296.401909 
L 252.991055 273.521279 
L 263.958318 247.5812 
z
" clip-path="url(#pfcb4d263ee)" style="fill: #ffffff; stroke: #ffffff; stroke-linejoin: miter"/>
   </g>
   <g id="patch_24">
    <path d="M 198.442011 249.217108 
L 206.430746 249.049878 
L 249.057892 248.036953 
L 263.958318 247.5812 
L 252.991055 273.521279 
L 243.331534 296.401909 
L 189.535247 297.334845 
z
" clip-path="url(#pfcb4d263ee)" style="fill: #ffffff; stroke: #ffffff; stroke-linejoin: miter"/>
   </g>
   <g id="patch_25">
    <path d="M -152.874973 530.251475 
L -142.301971 539.785741 
L -131.008466 555.659406 
L -134.160378 574.846497 
L -161.308175 592.162922 
L -170.382451 547.008779 
L -171.672599 543.866227 
z
" clip-path="url(#pfcb4d263ee)" style="fill: #ffffff; stroke: #ffffff; stroke-linejoin: miter"/>
   </g>
   <g id="patch_26">
    <path d="M -258.246382 631.185246 
L -245.909075 731.088506 
L -210.293135 734.678047 
L -204.430009 735.190061 
L -150.938166 658.878371 
L -147.743084 658.826182 
L -146.29257 662.290134 
L -143.489144 668.947009 
L -138.707196 668.132386 
L -132.327495 671.974476 
L -129.234472 667.494627 
L -131.714496 660.023399 
L -118.756193 658.420535 
L -106.794192 664.327721 
L -105.10307 679.389724 
L -99.777994 676.364673 
L -100.866743 672.946963 
L -97.823853 671.650965 
L -91.170276 678.462338 
L -74.27347 679.597019 
L -65.529701 674.128959 
L -64.927833 668.845392 
L -54.953849 666.731342 
L -48.991457 669.944993 
L -47.265004 671.913807 
L -49.546799 674.953628 
L -44.602459 682.389769 
L -31.574114 687.645647 
L -31.551494 691.516391 
L -18.782929 693.473299 
L -11.042761 689.777996 
L -5.797013 693.240811 
L -1.697168 695.615633 
L 4.045674 694.189987 
L 6.705237 691.173702 
L 8.40459 691.352883 
L 12.09475 697.086484 
L 14.507298 696.604454 
L 16.632361 697.366752 
L 16.930944 698.296737 
L 17.683826 698.044039 
L 18.001431 698.551681 
L 21.608675 699.421375 
L 26.347371 704.092968 
L 28.499352 704.084819 
L 29.054102 704.692234 
L 31.00272 704.858973 
L 32.525358 706.12002 
L 34.648387 706.733259 
L 35.714842 706.093794 
L 36.82823 706.619484 
L 36.90151 706.124473 
L 39.976987 706.329195 
L 40.233658 708.322947 
L 43.568355 706.595344 
L 44.113186 708.102421 
L 44.769904 708.664563 
L 39.920425 710.760382 
L 37.559076 715.553494 
L 33.482053 721.55786 
L 30.256043 729.445658 
L 28.546966 737.043491 
L 26.382687 740.720897 
L 23.624703 742.699412 
L 21.776651 742.782546 
L 19.681173 742.947116 
L 18.479432 744.057688 
L 18.015237 747.326812 
L 16.140181 748.682827 
L 13.65911 748.183083 
L 12.137821 748.494376 
L 11.073867 750.120423 
L 11.005053 755.348959 
L 1.174233 767.407347 
L -5.124504 771.57818 
L -6.378229 775.608087 
L -9.612171 780.870462 
L -10.319385 783.712176 
L -9.514111 788.149928 
L -9.897848 791.867833 
L -9.63479 794.186574 
L -10.660605 798.143008 
L -13.189596 799.918854 
L -14.607164 801.546523 
L -14.850541 807.360912 
L -18.679234 817.920178 
L -19.332845 821.764813 
L -17.6255 831.006303 
L -18.989354 834.059764 
L -24.011737 836.727202 
L -24.540299 838.639714 
L -24.617192 840.753956 
L -26.612642 849.068495 
L -27.854601 853.237481 
L -30.569011 855.244659 
L -32.376318 859.718926 
L -34.992125 863.632593 
L -36.555022 865.833693 
L -36.173093 867.933693 
L -36.505132 869.360349 
L -37.786932 870.427233 
L -39.419365 872.376031 
L -39.193593 876.175645 
L -40.488581 879.614233 
L -40.296418 879.916269 
L -40.234524 880.400285 
L -40.111261 881.465048 
L -40.058048 883.496755 
L -39.868985 884.368421 
L -39.807039 884.852438 
L -39.677728 884.853161 
L -39.679348 885.143354 
L -39.810286 885.432824 
L -39.746167 885.529917 
L -40.073272 886.205223 
L -40.01241 886.882705 
L -40.207506 887.075076 
L -40.339031 887.461272 
L -40.34067 887.751466 
L -40.278723 888.235489 
L -40.537982 888.330758 
L -40.540723 888.814415 
L -40.475494 888.71805 
L -40.412453 889.008611 
L -40.220585 889.396632 
L -40.154811 889.203533 
L -40.015112 889.668645 
L -39.295545 890.562617 
L -37.90299 892.795133 
L -35.93967 894.643495 
L -35.284089 895.536842 
L -34.799048 896.893611 
L -34.249613 898.347418 
L -33.805446 900.168269 
L -33.653963 900.962256 
L -33.941324 901.444508 
L -34.334092 902.274474 
L -34.871692 903.548678 
L -35.355913 904.494226 
L -36.279795 905.243993 
L -38.05325 907.30475 
L -38.446594 908.13456 
L -38.839897 908.945008 
L -39.010753 909.369717 
L -38.974943 909.930992 
L -39.030734 910.646546 
L -38.950905 913.426593 
L -39.02882 915.019126 
L -39.084001 915.618602 
L -39.815476 916.523899 
L -41.235922 917.638057 
L -41.796495 918.099186 
L -42.240904 918.6577 
L -42.40259 919.682197 
L -42.470976 920.281584 
L -42.398636 921.230056 
L -42.286214 921.985282 
L -41.721668 923.130082 
L -41.533941 924.350088 
L -41.579312 925.719242 
L -41.662583 926.400247 
L -42.071417 927.481384 
L -43.110294 929.661663 
L -43.888379 931.611225 
L -44.26345 933.48577 
L -45.542257 936.457669 
L -45.978517 937.635245 
L -45.808426 939.571155 
L -45.528405 940.559656 
L -44.619105 942.887031 
L -43.916039 944.961566 
L -43.623232 946.046841 
L -43.380354 946.783534 
L -43.633563 947.788176 
L -44.175705 949.216764 
L -44.804911 949.948239 
L -46.596766 951.311019 
L -48.053051 953.062609 
L -48.184742 953.293959 
L -48.448268 953.776001 
L -48.28146 954.164053 
L -48.27017 954.435014 
L -47.902486 955.778903 
L -50.108384 966.621832 
L -61.201347 977.292794 
L -65.464017 1005.298574 
L -71.007483 1016.9902 
L -110.230837 1018.037567 
L -107.622281 1021.779284 
L -108.45162 1023.660321 
L -109.854172 1024.963771 
L -114.715429 1025.417443 
L -113.680295 1027.21135 
L -114.804631 1030.102034 
L -116.538894 1031.016974 
L -120.796283 1031.866522 
L -122.393118 1031.711938 
L -123.923746 1032.780022 
L -122.312558 1036.021511 
L -123.124714 1038.99361 
L -121.880461 1041.349353 
L -123.705805 1042.143063 
L -124.120337 1043.212039 
L -125.141015 1043.262338 
L -125.872996 1044.044011 
L -125.867183 1044.695704 
L -126.30388 1045.241172 
L -128.37408 1046.254265 
L -128.353925 1046.530361 
L -131.983374 1049.337555 
L -132.461625 1050.213354 
L -133.01444 1051.18481 
L -132.842598 1052.143821 
L -133.715746 1052.282002 
L -134.320101 1053.263385 
L -137.191479 1054.790761 
L -136.794555 1055.975854 
L -134.847185 1055.941119 
L -136.074221 1057.856695 
L -137.342439 1058.285952 
L -137.436486 1058.917892 
L -138.742749 1059.478666 
L -139.102915 1059.81134 
L -139.433967 1060.57996 
L -140.239755 1060.848745 
L -140.871427 1061.843873 
L -141.716104 1061.688793 
L -141.954064 1062.358783 
L -145.622326 1063.769233 
L -145.927524 1064.18643 
L -147.330977 1064.370876 
L -149.112127 1065.523255 
L -149.94184 1066.56247 
L -150.842263 1066.264302 
L -150.726832 1066.831853 
L -150.497109 1067.705078 
L -149.754397 1068.948577 
L -150.043352 1069.895554 
L -150.882101 1070.145769 
L -152.711385 1069.817027 
L -155.722266 1071.694047 
L -155.99286 1074.303764 
L -217.039814 1074.410354 
L -255.509514 1092.168666 
L -274.528492 994.823885 
L -332.379395 938.696767 
L -380.567921 893.735795 
L -350.445351 856.764433 
L -320.302675 851.122358 
L -276.872263 843.107226 
L -318.286312 792.572325 
L -391.317381 703.439488 
L -294.991562 646.290003 
L -258.789142 625.740123 
z
" clip-path="url(#pfcb4d263ee)" style="fill: #ffffff; stroke: #ffffff; stroke-linejoin: miter"/>
   </g>
   <g id="patch_27">
    <path d="M -294.991562 646.290003 
L -258.789142 625.740123 
L -258.246382 631.185246 
L -245.909075 731.088506 
L -210.293135 734.678047 
L -204.430009 735.190061 
L -150.938166 658.878371 
L -147.743084 658.826182 
L -146.29257 662.290134 
L -143.489144 668.947009 
L -138.707196 668.132386 
L -132.327495 671.974476 
L -129.234472 667.494627 
L -131.714496 660.023399 
L -118.756193 658.420535 
L -106.794192 664.327721 
L -105.10307 679.389724 
L -99.777994 676.364673 
L -100.866743 672.946963 
L -97.823853 671.650965 
L -91.170276 678.462338 
L -74.27347 679.597019 
L -65.529701 674.128959 
L -64.927833 668.845392 
L -54.953849 666.731342 
L -48.991457 669.944993 
L -47.265004 671.913807 
L -49.546799 674.953628 
L -44.602459 682.389769 
L -31.574114 687.645647 
L -31.551494 691.516391 
L -18.782929 693.473299 
L -11.042761 689.777996 
L -5.797013 693.240811 
L -1.697168 695.615633 
L 4.045674 694.189987 
L 6.705237 691.173702 
L 8.40459 691.352883 
L 12.09475 697.086484 
L 14.507298 696.604454 
L 16.632361 697.366752 
L 16.930944 698.296737 
L 17.683826 698.044039 
L 18.001431 698.551681 
L 21.608675 699.421375 
L 26.347371 704.092968 
L 28.499352 704.084819 
L 29.054102 704.692234 
L 31.00272 704.858973 
L 32.525358 706.12002 
L 34.648387 706.733259 
L 35.714842 706.093794 
L 36.82823 706.619484 
L 36.90151 706.124473 
L 39.976987 706.329195 
L 40.233658 708.322947 
L 43.568355 706.595344 
L 44.113186 708.102421 
L 44.769904 708.664563 
L 39.920425 710.760382 
L 37.559076 715.553494 
L 33.482053 721.55786 
L 30.256043 729.445658 
L 28.546966 737.043491 
L 26.382687 740.720897 
L 23.624703 742.699412 
L 21.776651 742.782546 
L 19.681173 742.947116 
L 18.479432 744.057688 
L 18.015237 747.326812 
L 16.140181 748.682827 
L 13.65911 748.183083 
L 12.137821 748.494376 
L 11.073867 750.120423 
L 11.005053 755.348959 
L 1.174233 767.407347 
L -5.124504 771.57818 
L -6.378229 775.608087 
L -9.612171 780.870462 
L -10.319385 783.712176 
L -9.514111 788.149928 
L -9.897848 791.867833 
L -9.63479 794.186574 
L -10.660605 798.143008 
L -13.189596 799.918854 
L -14.607164 801.546523 
L -14.850541 807.360912 
L -18.679234 817.920178 
L -19.332845 821.764813 
L -17.6255 831.006303 
L -18.989354 834.059764 
L -24.011737 836.727202 
L -24.540299 838.639714 
L -24.617192 840.753956 
L -26.612642 849.068495 
L -27.854601 853.237481 
L -30.569011 855.244659 
L -32.376318 859.718926 
L -34.992125 863.632593 
L -36.555022 865.833693 
L -36.173093 867.933693 
L -36.505132 869.360349 
L -37.786932 870.427233 
L -39.419365 872.376031 
L -39.193593 876.175645 
L -40.488581 879.614233 
L -40.296418 879.916269 
L -40.234524 880.400285 
L -40.111261 881.465048 
L -40.058048 883.496755 
L -39.868985 884.368421 
L -39.807039 884.852438 
L -39.677728 884.853161 
L -39.679348 885.143354 
L -39.810286 885.432824 
L -39.746167 885.529917 
L -40.073272 886.205223 
L -40.01241 886.882705 
L -40.207506 887.075076 
L -40.339031 887.461272 
L -40.34067 887.751466 
L -40.278723 888.235489 
L -40.537982 888.330758 
L -40.540723 888.814415 
L -40.475494 888.71805 
L -40.412453 889.008611 
L -40.220585 889.396632 
L -40.154811 889.203533 
L -40.015112 889.668645 
L -39.295545 890.562617 
L -37.90299 892.795133 
L -35.93967 894.643495 
L -35.284089 895.536842 
L -34.799048 896.893611 
L -34.249613 898.347418 
L -33.805446 900.168269 
L -33.653963 900.962256 
L -33.941324 901.444508 
L -34.334092 902.274474 
L -34.871692 903.548678 
L -35.355913 904.494226 
L -36.279795 905.243993 
L -38.05325 907.30475 
L -38.446594 908.13456 
L -38.839897 908.945008 
L -39.010753 909.369717 
L -38.974943 909.930992 
L -39.030734 910.646546 
L -38.950905 913.426593 
L -39.02882 915.019126 
L -39.084001 915.618602 
L -39.815476 916.523899 
L -41.235922 917.638057 
L -41.796495 918.099186 
L -42.240904 918.6577 
L -42.40259 919.682197 
L -42.470976 920.281584 
L -42.398636 921.230056 
L -42.286214 921.985282 
L -41.721668 923.130082 
L -41.533941 924.350088 
L -41.579312 925.719242 
L -41.662583 926.400247 
L -42.071417 927.481384 
L -43.110294 929.661663 
L -43.888379 931.611225 
L -44.26345 933.48577 
L -45.542257 936.457669 
L -45.978517 937.635245 
L -45.808426 939.571155 
L -45.528405 940.559656 
L -44.619105 942.887031 
L -43.916039 944.961566 
L -43.623232 946.046841 
L -43.380354 946.783534 
L -43.633563 947.788176 
L -44.175705 949.216764 
L -44.804911 949.948239 
L -46.596766 951.311019 
L -48.053051 953.062609 
L -48.184742 953.293959 
L -48.448268 953.776001 
L -48.28146 954.164053 
L -48.27017 954.435014 
L -47.902486 955.778903 
L -50.108384 966.621832 
L -61.201347 977.292794 
L -65.464017 1005.298574 
L -71.007483 1016.9902 
L -110.230837 1018.037567 
L -107.622281 1021.779284 
L -108.45162 1023.660321 
L -109.854172 1024.963771 
L -114.715429 1025.417443 
L -113.680295 1027.21135 
L -114.804631 1030.102034 
L -116.538894 1031.016974 
L -120.796283 1031.866522 
L -122.393118 1031.711938 
L -123.923746 1032.780022 
L -122.312558 1036.021511 
L -123.124714 1038.99361 
L -121.880461 1041.349353 
L -123.705805 1042.143063 
L -124.120337 1043.212039 
L -125.141015 1043.262338 
L -125.872996 1044.044011 
L -125.867183 1044.695704 
L -126.30388 1045.241172 
L -128.37408 1046.254265 
L -128.353925 1046.530361 
L -131.983374 1049.337555 
L -132.461625 1050.213354 
L -133.01444 1051.18481 
L -132.842598 1052.143821 
L -133.715746 1052.282002 
L -134.320101 1053.263385 
L -137.191479 1054.790761 
L -136.794555 1055.975854 
L -134.847185 1055.941119 
L -136.074221 1057.856695 
L -137.342439 1058.285952 
L -137.436486 1058.917892 
L -138.742749 1059.478666 
L -139.102915 1059.81134 
L -139.433967 1060.57996 
L -140.239755 1060.848745 
L -140.871427 1061.843873 
L -141.716104 1061.688793 
L -141.954064 1062.358783 
L -145.622326 1063.769233 
L -145.927524 1064.18643 
L -147.330977 1064.370876 
L -149.112127 1065.523255 
L -149.94184 1066.56247 
L -150.842263 1066.264302 
L -150.726832 1066.831853 
L -150.497109 1067.705078 
L -149.754397 1068.948577 
L -150.043352 1069.895554 
L -150.882101 1070.145769 
L -152.711385 1069.817027 
L -155.722266 1071.694047 
L -155.99286 1074.303764 
L -217.039814 1074.410354 
L -255.509514 1092.168666 
L -274.528492 994.823885 
L -332.379395 938.696767 
L -380.567921 893.735795 
L -350.445351 856.764433 
L -320.302675 851.122358 
L -276.872263 843.107226 
L -318.286312 792.572325 
L -391.317381 703.439488 
z
" clip-path="url(#pfcb4d263ee)" style="fill: #ffffff; stroke: #ffffff; stroke-linejoin: miter"/>
   </g>
   <g id="patch_28">
    <path d="M -37.90299 892.795133 
L 53.508313 928.010648 
L 95.177447 927.760493 
L 126.564027 927.455909 
L 162.58305 915.964304 
L 216.166388 915.070336 
L 216.390043 926.032536 
L 216.521562 932.480986 
L 241.482736 983.502163 
L 267.480242 1021.003215 
L 275.357487 1032.417655 
L 297.116944 1064.046532 
L 303.973893 1068.262728 
L 330.444711 1084.306655 
L 335.821362 1089.135126 
L 335.252934 1091.746315 
L 344.194444 1095.81688 
L 341.434825 1106.451131 
L 342.178154 1111.806423 
L 339.741241 1122.430971 
L 336.627418 1124.841054 
L 339.600027 1130.74517 
L 333.770182 1135.594143 
L 336.444515 1139.736365 
L 331.780171 1145.277267 
L 334.539081 1154.897813 
L 340.403004 1153.383164 
L 346.476788 1158.334354 
L 345.030035 1168.746981 
L 341.824798 1174.668215 
L 337.341245 1170.769445 
L 334.527161 1172.795041 
L 328.697851 1170.499976 
L 326.633031 1172.932369 
L 325.108087 1171.415656 
L 320.755053 1171.601244 
L 320.339236 1168.659704 
L 317.730285 1166.592706 
L 314.876391 1167.479185 
L 313.622199 1163.878234 
L 315.48376 1160.199318 
L 312.883192 1155.44301 
L 309.931226 1158.498225 
L 306.876965 1157.848497 
L 298.525242 1161.643628 
L 294.637615 1160.738441 
L 293.859786 1166.842904 
L 287.877582 1175.226272 
L 287.467925 1186.69307 
L 287.438186 1192.566924 
L 289.690116 1193.626425 
L 290.712425 1196.4016 
L 292.598557 1196.098878 
L 292.786763 1196.92667 
L 295.636085 1197.178333 
L 299.459631 1195.279581 
L 301.244847 1195.81097 
L 301.859168 1198.679966 
L 303.414888 1198.307016 
L 304.450009 1199.823721 
L 303.561908 1203.532945 
L 301.345671 1203.925962 
L 299.368699 1205.48432 
L 299.838932 1208.946159 
L 297.118175 1210.633354 
L 296.684412 1214.317627 
L 298.532673 1218.437479 
L 301.298045 1219.910541 
L 301.14931 1220.536721 
L 303.205362 1221.646975 
L 304.776091 1226.09174 
L 306.164543 1226.89093 
L 306.68251 1229.141207 
L 303.331563 1232.034892 
L 302.527494 1234.428324 
L 300.599251 1234.966269 
L 295.221407 1234.920231 
L 292.491356 1236.497584 
L 289.056274 1234.795508 
L 291.347106 1230.817517 
L 290.353131 1227.711938 
L 283.590027 1224.027854 
L 280.108698 1216.637594 
L 281.898026 1210.914337 
L 280.706864 1211.020554 
L 277.557313 1208.926297 
L 276.866495 1206.10853 
L 273.390308 1207.191987 
L 273.162088 1208.065559 
L 272.519957 1208.720859 
L 269.962714 1205.850356 
L 264.731775 1209.143544 
L 260.00932 1210.024524 
L 259.130118 1211.273184 
L 256.206099 1213.238724 
L 254.075443 1213.780264 
L 252.783892 1215.168141 
L 251.4575 1214.815162 
L 248.135385 1212.195236 
L 245.371469 1214.07813 
L 245.908634 1215.967845 
L 244.980924 1216.939807 
L 245.037644 1217.432409 
L 246.000286 1218.079 
L 246.051788 1220.37076 
L 245.029941 1220.924131 
L 244.467046 1223.462584 
L 243.030442 1223.854449 
L 241.116677 1223.176326 
L 239.630881 1221.31894 
L 235.126991 1224.98529 
L 231.856291 1224.743259 
L 230.505278 1223.427253 
L 227.288019 1223.544722 
L 222.566633 1221.405319 
L 220.494437 1220.528112 
L 217.81744 1216.585943 
L 215.297813 1210.329697 
L 210.219844 1207.87345 
L 211.376629 1205.761572 
L 209.370171 1199.912892 
L 209.993997 1193.410732 
L 210.149805 1187.994952 
L 208.397376 1187.772713 
L 208.612391 1187.019374 
L 210.072189 1187.070726 
L 210.308341 1182.194608 
L 206.405091 1184.543608 
L 204.993725 1188.436726 
L 203.219045 1190.324658 
L 200.569553 1189.550059 
L 197.68798 1184.921867 
L 198.401392 1183.389094 
L 196.99427 1182.869904 
L 196.018042 1183.431541 
L 192.645071 1183.59716 
L 186.104884 1185.285606 
L 185.079687 1188.207103 
L 185.585009 1191.863128 
L 184.217809 1193.87643 
L 181.680323 1194.771609 
L 181.764585 1197.490749 
L 185.938364 1200.835876 
L 186.275672 1203.670781 
L 185.879897 1204.539064 
L 186.742664 1206.840786 
L 185.829775 1208.9726 
L 186.78372 1211.690781 
L 188.316032 1212.304057 
L 188.81234 1214.781835 
L 187.879501 1215.748578 
L 188.44011 1216.972541 
L 188.950927 1217.990229 
L 188.238794 1219.859105 
L 186.886594 1220.575159 
L 186.947394 1221.478365 
L 186.937594 1223.626401 
L 185.605489 1225.253704 
L 184.795829 1226.46395 
L 183.775839 1227.102555 
L 183.274688 1229.44423 
L 182.618707 1229.69269 
L 182.303473 1233.865605 
L 182.009722 1236.398609 
L 180.596131 1236.421421 
L 178.676258 1237.366559 
L 178.840457 1238.332213 
L 178.42296 1240.167785 
L 178.097397 1240.764659 
L 176.171439 1241.38666 
L 175.575575 1243.762834 
L 175.290299 1244.574165 
L 175.639595 1245.483215 
L 175.312859 1246.026228 
L 175.209505 1246.565766 
L 164.702002 1248.821436 
L 154.935159 1251.056319 
L 154.303324 1251.172445 
L 144.940019 1253.230979 
L 106.411167 1261.873404 
L 103.417824 1260.716057 
L 102.261315 1258.661461 
L 97.519067 1258.744496 
L 96.960161 1256.479615 
L 95.135053 1255.297143 
L 94.934275 1253.91259 
L 95.933011 1252.493973 
L 94.031702 1252.347328 
L 93.463062 1251.060772 
L 92.533397 1251.282938 
L 91.480786 1249.999901 
L 91.506879 1248.493684 
L 90.564812 1246.994604 
L 89.407382 1246.572721 
L 89.288324 1245.551646 
L 87.56737 1244.380601 
L 86.733797 1242.288798 
L 86.53465 1240.407705 
L 84.966978 1239.719253 
L 84.300086 1240.154032 
L 82.469678 1239.090473 
L 77.896764 1237.521438 
L 77.388221 1235.373713 
L 74.528032 1233.725486 
L 75.26368 1232.205066 
L 76.374259 1231.499334 
L 72.326624 1224.54278 
L 73.89107 1223.726689 
L 74.615907 1220.450457 
L 75.892234 1220.160096 
L 77.32139 1217.704503 
L 76.97007 1213.937147 
L 77.907437 1212.320738 
L 76.764422 1207.328316 
L 78.241656 1205.844165 
L 77.036538 1204.354848 
L 77.684307 1202.701522 
L 76.523773 1201.216191 
L 76.505149 1198.109007 
L 77.19329 1196.567353 
L 74.825317 1192.860589 
L 73.536449 1192.893841 
L 69.760011 1193.237364 
L 64.261645 1195.45665 
L 58.557903 1200.398213 
L 56.293377 1200.025749 
L 53.795078 1203.859075 
L 56.476122 1204.710127 
L 57.641272 1207.832031 
L 57.238909 1209.667546 
L 53.573292 1211.263585 
L 52.878051 1212.212679 
L 51.886859 1211.499944 
L 49.826018 1212.862357 
L 50.616851 1214.778496 
L 44.941825 1218.830573 
L 14.121028 1182.974071 
L -11.069344 1184.041966 
L -50.537786 1133.431298 
L -60.422582 1120.619505 
L -64.680437 1114.833787 
L -80.482055 1094.803344 
L -81.061861 1094.045126 
L -86.16996 1087.597135 
L -93.729071 1078.002068 
L -121.880461 1041.349353 
L -123.124714 1038.99361 
L -122.312558 1036.021511 
L -123.923746 1032.780022 
L -122.393118 1031.711938 
L -120.796283 1031.866522 
L -116.538894 1031.016974 
L -114.804631 1030.102034 
L -113.680295 1027.21135 
L -114.715429 1025.417443 
L -109.854172 1024.963771 
L -108.45162 1023.660321 
L -107.622281 1021.779284 
L -110.230837 1018.037567 
L -71.007483 1016.9902 
L -65.464017 1005.298574 
L -61.201347 977.292794 
L -50.108384 966.621832 
L -47.902486 955.778903 
L -48.27017 954.435014 
L -48.28146 954.164053 
L -48.448268 953.776001 
L -48.184742 953.293959 
L -48.053051 953.062609 
L -46.596766 951.311019 
L -44.804911 949.948239 
L -44.175705 949.216764 
L -43.633563 947.788176 
L -43.380354 946.783534 
L -43.623232 946.046841 
L -43.916039 944.961566 
L -44.619105 942.887031 
L -45.528405 940.559656 
L -45.808426 939.571155 
L -45.978517 937.635245 
L -45.542257 936.457669 
L -44.26345 933.48577 
L -43.888379 931.611225 
L -43.110294 929.661663 
L -42.071417 927.481384 
L -41.662583 926.400247 
L -41.579312 925.719242 
L -41.533941 924.350088 
L -41.721668 923.130082 
L -42.286214 921.985282 
L -42.398636 921.230056 
L -42.470976 920.281584 
L -42.40259 919.682197 
L -42.240904 918.6577 
L -41.796495 918.099186 
L -41.235922 917.638057 
L -39.815476 916.523899 
L -39.084001 915.618602 
L -39.02882 915.019126 
L -38.950905 913.426593 
L -39.030734 910.646546 
L -38.974943 909.930992 
L -39.010753 909.369717 
L -38.839897 908.945008 
L -38.446594 908.13456 
L -38.05325 907.30475 
L -36.279795 905.243993 
L -35.355913 904.494226 
L -34.871692 903.548678 
L -34.334092 902.274474 
L -33.941324 901.444508 
L -33.653963 900.962256 
L -33.805446 900.168269 
L -34.249613 898.347418 
L -34.799048 896.893611 
L -35.284089 895.536842 
L -35.93967 894.643495 
L -37.90299 892.795133 
L 53.508313 928.010648 
L 95.177447 927.760493 
L 126.564027 927.455909 
L 162.58305 915.964304 
L 216.166388 915.070336 
L 216.390043 926.032536 
L 216.521562 932.480986 
L 241.482736 983.502163 
L 267.480242 1021.003215 
L 275.357487 1032.417655 
L 297.116944 1064.046532 
L 303.973893 1068.262728 
L 330.444711 1084.306655 
L 335.821362 1089.135126 
L 335.252934 1091.746315 
L 344.194444 1095.81688 
L 341.434825 1106.451131 
L 342.178154 1111.806423 
L 339.741241 1122.430971 
L 336.627418 1124.841054 
L 339.600027 1130.74517 
L 333.770182 1135.594143 
L 336.444515 1139.736365 
L 331.780171 1145.277267 
L 334.539081 1154.897813 
L 340.403004 1153.383164 
L 346.476788 1158.334354 
L 345.030035 1168.746981 
L 341.824798 1174.668215 
L 337.341245 1170.769445 
L 334.527161 1172.795041 
L 328.697851 1170.499976 
L 326.633031 1172.932369 
L 325.108087 1171.415656 
L 320.755053 1171.601244 
L 320.339236 1168.659704 
L 317.730285 1166.592706 
L 314.876391 1167.479185 
L 313.622199 1163.878234 
L 315.48376 1160.199318 
L 312.883192 1155.44301 
L 309.931226 1158.498225 
L 306.876965 1157.848497 
L 298.525242 1161.643628 
L 294.637615 1160.738441 
L 293.859786 1166.842904 
L 287.877582 1175.226272 
L 287.467925 1186.69307 
L 287.438186 1192.566924 
L 289.690116 1193.626425 
L 290.712425 1196.4016 
L 292.598557 1196.098878 
L 292.786763 1196.92667 
L 295.636085 1197.178333 
L 299.459631 1195.279581 
L 301.244847 1195.81097 
L 301.859168 1198.679966 
L 303.414888 1198.307016 
L 304.450009 1199.823721 
L 303.561908 1203.532945 
L 301.345671 1203.925962 
L 299.368699 1205.48432 
L 299.838932 1208.946159 
L 297.118175 1210.633354 
L 296.684412 1214.317627 
L 298.532673 1218.437479 
L 301.298045 1219.910541 
L 301.14931 1220.536721 
L 303.205362 1221.646975 
L 304.776091 1226.09174 
L 306.164543 1226.89093 
L 306.68251 1229.141207 
L 303.331563 1232.034892 
L 302.527494 1234.428324 
L 300.599251 1234.966269 
L 295.221407 1234.920231 
L 292.491356 1236.497584 
L 289.056274 1234.795508 
L 291.347106 1230.817517 
L 290.353131 1227.711938 
L 283.590027 1224.027854 
L 280.108698 1216.637594 
L 281.898026 1210.914337 
L 280.706864 1211.020554 
L 277.557313 1208.926297 
L 276.866495 1206.10853 
L 273.390308 1207.191987 
L 273.162088 1208.065559 
L 272.519957 1208.720859 
L 269.962714 1205.850356 
L 264.731775 1209.143544 
L 260.00932 1210.024524 
L 259.130118 1211.273184 
L 256.206099 1213.238724 
L 254.075443 1213.780264 
L 252.783892 1215.168141 
L 251.4575 1214.815162 
L 248.135385 1212.195236 
L 245.371469 1214.07813 
L 245.908634 1215.967845 
L 244.980924 1216.939807 
L 245.037644 1217.432409 
L 246.000286 1218.079 
L 246.051788 1220.37076 
L 245.029941 1220.924131 
L 244.467046 1223.462584 
L 243.030442 1223.854449 
L 241.116677 1223.176326 
L 239.630881 1221.31894 
L 235.126991 1224.98529 
L 231.856291 1224.743259 
L 230.505278 1223.427253 
L 227.288019 1223.544722 
L 222.566633 1221.405319 
L 220.494437 1220.528112 
L 217.81744 1216.585943 
L 215.297813 1210.329697 
L 210.219844 1207.87345 
L 211.376629 1205.761572 
L 209.370171 1199.912892 
L 209.993997 1193.410732 
L 210.149805 1187.994952 
L 208.397376 1187.772713 
L 208.612391 1187.019374 
L 210.072189 1187.070726 
L 210.308341 1182.194608 
L 206.405091 1184.543608 
L 204.993725 1188.436726 
L 203.219045 1190.324658 
L 200.569553 1189.550059 
L 197.68798 1184.921867 
L 198.401392 1183.389094 
L 196.99427 1182.869904 
L 196.018042 1183.431541 
L 192.645071 1183.59716 
L 186.104884 1185.285606 
L 185.079687 1188.207103 
L 185.585009 1191.863128 
L 184.217809 1193.87643 
L 181.680323 1194.771609 
L 181.764585 1197.490749 
L 185.938364 1200.835876 
L 186.275672 1203.670781 
L 185.879897 1204.539064 
L 186.742664 1206.840786 
L 185.829775 1208.9726 
L 186.78372 1211.690781 
L 188.316032 1212.304057 
L 188.81234 1214.781835 
L 187.879501 1215.748578 
L 188.44011 1216.972541 
L 188.950927 1217.990229 
L 188.238794 1219.859105 
L 186.886594 1220.575159 
L 186.947394 1221.478365 
L 186.937594 1223.626401 
L 185.605489 1225.253704 
L 184.795829 1226.46395 
L 183.775839 1227.102555 
L 183.274688 1229.44423 
L 182.618707 1229.69269 
L 182.303473 1233.865605 
L 182.009722 1236.398609 
L 180.596131 1236.421421 
L 178.676258 1237.366559 
L 178.840457 1238.332213 
L 178.42296 1240.167785 
L 178.097397 1240.764659 
L 176.171439 1241.38666 
L 175.575575 1243.762834 
L 175.290299 1244.574165 
L 175.639595 1245.483215 
L 175.312859 1246.026228 
L 175.209505 1246.565766 
L 164.702002 1248.821436 
L 154.935159 1251.056319 
L 154.303324 1251.172445 
L 144.940019 1253.230979 
L 106.411167 1261.873404 
L 103.417824 1260.716057 
L 102.261315 1258.661461 
L 97.519067 1258.744496 
L 96.960161 1256.479615 
L 95.135053 1255.297143 
L 94.934275 1253.91259 
L 95.933011 1252.493973 
L 94.031702 1252.347328 
L 93.463062 1251.060772 
L 92.533397 1251.282938 
L 91.480786 1249.999901 
L 91.506879 1248.493684 
L 90.564812 1246.994604 
L 89.407382 1246.572721 
L 89.288324 1245.551646 
L 87.56737 1244.380601 
L 86.733797 1242.288798 
L 86.53465 1240.407705 
L 84.966978 1239.719253 
L 84.300086 1240.154032 
L 82.469678 1239.090473 
L 77.896764 1237.521438 
L 77.388221 1235.373713 
L 74.528032 1233.725486 
L 75.26368 1232.205066 
L 76.374259 1231.499334 
L 72.326624 1224.54278 
L 73.89107 1223.726689 
L 74.615907 1220.450457 
L 75.892234 1220.160096 
L 77.32139 1217.704503 
L 76.97007 1213.937147 
L 77.907437 1212.320738 
L 76.764422 1207.328316 
L 78.241656 1205.844165 
L 77.036538 1204.354848 
L 77.684307 1202.701522 
L 76.523773 1201.216191 
L 76.505149 1198.109007 
L 77.19329 1196.567353 
L 74.825317 1192.860589 
L 73.536449 1192.893841 
L 69.760011 1193.237364 
L 64.261645 1195.45665 
L 58.557903 1200.398213 
L 56.293377 1200.025749 
L 53.795078 1203.859075 
L 56.476122 1204.710127 
L 57.641272 1207.832031 
L 57.238909 1209.667546 
L 53.573292 1211.263585 
L 52.878051 1212.212679 
L 51.886859 1211.499944 
L 49.826018 1212.862357 
L 50.616851 1214.778496 
L 44.941825 1218.830573 
L 14.121028 1182.974071 
L -11.069344 1184.041966 
L -50.537786 1133.431298 
L -60.422582 1120.619505 
L -64.680437 1114.833787 
L -80.482055 1094.803344 
L -81.061861 1094.045126 
L -86.16996 1087.597135 
L -93.729071 1078.002068 
L -121.880461 1041.349353 
L -123.124714 1038.99361 
L -122.312558 1036.021511 
L -123.923746 1032.780022 
L -122.393118 1031.711938 
L -120.796283 1031.866522 
L -116.538894 1031.016974 
L -114.804631 1030.102034 
L -113.680295 1027.21135 
L -114.715429 1025.417443 
L -109.854172 1024.963771 
L -108.45162 1023.660321 
L -107.622281 1021.779284 
L -110.230837 1018.037567 
L -71.007483 1016.9902 
L -65.464017 1005.298574 
L -61.201347 977.292794 
L -50.108384 966.621832 
L -47.902486 955.778903 
L -48.27017 954.435014 
L -48.28146 954.164053 
L -48.448268 953.776001 
L -48.184742 953.293959 
L -48.053051 953.062609 
L -46.596766 951.311019 
L -44.804911 949.948239 
L -44.175705 949.216764 
L -43.633563 947.788176 
L -43.380354 946.783534 
L -43.623232 946.046841 
L -43.916039 944.961566 
L -44.619105 942.887031 
L -45.528405 940.559656 
L -45.808426 939.571155 
L -45.978517 937.635245 
L -45.542257 936.457669 
L -44.26345 933.48577 
L -43.888379 931.611225 
L -43.110294 929.661663 
L -42.071417 927.481384 
L -41.662583 926.400247 
L -41.579312 925.719242 
L -41.533941 924.350088 
L -41.721668 923.130082 
L -42.286214 921.985282 
L -42.398636 921.230056 
L -42.470976 920.281584 
L -42.40259 919.682197 
L -42.240904 918.6577 
L -41.796495 918.099186 
L -41.235922 917.638057 
L -39.815476 916.523899 
L -39.084001 915.618602 
L -39.02882 915.019126 
L -38.950905 913.426593 
L -39.030734 910.646546 
L -38.974943 909.930992 
L -39.010753 909.369717 
L -38.839897 908.945008 
L -38.446594 908.13456 
L -38.05325 907.30475 
L -36.279795 905.243993 
L -35.355913 904.494226 
L -34.871692 903.548678 
L -34.334092 902.274474 
L -33.941324 901.444508 
L -33.653963 900.962256 
L -33.805446 900.168269 
L -34.249613 898.347418 
L -34.799048 896.893611 
L -35.284089 895.536842 
L -35.93967 894.643495 
z
" clip-path="url(#pfcb4d263ee)" style="fill: #ffffff; stroke: #ffffff; stroke-linejoin: miter"/>
   </g>
   <g id="patch_29">
    <path d="M -45.419393 378.715192 
L -36.475273 392.739229 
L -34.175505 396.297891 
L -19.734966 429.674411 
L -38.337122 437.321709 
L -45.486196 419.762495 
L -76.845409 408.917325 
L -117.987099 409.218214 
L -126.529589 409.197655 
L -130.642873 409.992924 
L -107.720591 395.337428 
L -91.840565 391.077213 
z
" clip-path="url(#pfcb4d263ee)" style="fill: #ffffff; stroke: #ffffff; stroke-linejoin: miter"/>
   </g>
   <g id="patch_30">
    <path d="M -130.642873 409.992924 
L -123.112888 391.141453 
L -91.840565 391.077213 
L -107.720591 395.337428 
z
" clip-path="url(#pfcb4d263ee)" style="fill: #ffffff; stroke: #ffffff; stroke-linejoin: miter"/>
   </g>
   <g id="patch_31">
    <path d="M -25.817442 373.505148 
L 3.97139 390.675109 
L 76.538707 527.263056 
L 41.680797 559.07164 
L -5.797013 693.240811 
L -11.042761 689.777996 
L -18.782929 693.473299 
L -31.551494 691.516391 
L -31.574114 687.645647 
L -44.602459 682.389769 
L -49.546799 674.953628 
L -47.265004 671.913807 
L -48.991457 669.944993 
L -54.953849 666.731342 
L -64.927833 668.845392 
L -65.529701 674.128959 
L -74.27347 679.597019 
L -91.170276 678.462338 
L -97.823853 671.650965 
L -100.866743 672.946963 
L -99.777994 676.364673 
L -105.10307 679.389724 
L -106.794192 664.327721 
L -118.756193 658.420535 
L -131.714496 660.023399 
L -129.234472 667.494627 
L -132.327495 671.974476 
L -138.707196 668.132386 
L -143.489144 668.947009 
L -146.29257 662.290134 
L -147.743084 658.826182 
L -161.308175 592.162922 
L -134.160378 574.846497 
L -131.008466 555.659406 
L -142.301971 539.785741 
L -152.874973 530.251475 
L -171.672599 543.866227 
L -161.026288 496.300227 
L -151.678856 454.397266 
L -110.07919 458.494257 
L -117.987099 409.218214 
L -76.845409 408.917325 
L -45.486196 419.762495 
L -38.337122 437.321709 
L -19.734966 429.674411 
L -34.175505 396.297891 
L -36.475273 392.739229 
L -45.419393 378.715192 
z
" clip-path="url(#pfcb4d263ee)" style="fill: #ffffff; stroke: #ffffff; stroke-linejoin: miter"/>
   </g>
   <g id="patch_32">
    <path d="M -25.817442 373.505148 
L 3.97139 390.675109 
L 76.538707 527.263056 
L 41.680797 559.07164 
L -5.797013 693.240811 
L -11.042761 689.777996 
L -18.782929 693.473299 
L -31.551494 691.516391 
L -31.574114 687.645647 
L -44.602459 682.389769 
L -49.546799 674.953628 
L -47.265004 671.913807 
L -48.991457 669.944993 
L -54.953849 666.731342 
L -64.927833 668.845392 
L -65.529701 674.128959 
L -74.27347 679.597019 
L -91.170276 678.462338 
L -97.823853 671.650965 
L -100.866743 672.946963 
L -99.777994 676.364673 
L -105.10307 679.389724 
L -106.794192 664.327721 
L -118.756193 658.420535 
L -131.714496 660.023399 
L -129.234472 667.494627 
L -132.327495 671.974476 
L -138.707196 668.132386 
L -143.489144 668.947009 
L -146.29257 662.290134 
L -147.743084 658.826182 
L -161.308175 592.162922 
L -170.382451 547.008779 
L -171.672599 543.866227 
L -161.026288 496.300227 
L -151.678856 454.397266 
L -130.642873 409.992924 
L -107.720591 395.337428 
L -91.840565 391.077213 
L -45.419393 378.715192 
z
" clip-path="url(#pfcb4d263ee)" style="fill: #ffffff; stroke: #ffffff; stroke-linejoin: miter"/>
   </g>
   <g id="patch_33">
    <path d="M -25.817442 373.505148 
L 3.97139 390.675109 
L 76.538707 527.263056 
L 41.680797 559.07164 
L -5.797013 693.240811 
L -11.042761 689.777996 
L -18.782929 693.473299 
L -31.551494 691.516391 
L -31.574114 687.645647 
L -44.602459 682.389769 
L -49.546799 674.953628 
L -47.265004 671.913807 
L -48.991457 669.944993 
L -54.953849 666.731342 
L -64.927833 668.845392 
L -65.529701 674.128959 
L -74.27347 679.597019 
L -91.170276 678.462338 
L -97.823853 671.650965 
L -100.866743 672.946963 
L -99.777994 676.364673 
L -105.10307 679.389724 
L -106.794192 664.327721 
L -118.756193 658.420535 
L -131.714496 660.023399 
L -129.234472 667.494627 
L -132.327495 671.974476 
L -138.707196 668.132386 
L -143.489144 668.947009 
L -146.29257 662.290134 
L -147.743084 658.826182 
L -161.308175 592.162922 
L -170.382451 547.008779 
L -171.672599 543.866227 
L -161.026288 496.300227 
L -151.678856 454.397266 
L -130.642873 409.992924 
L -107.720591 395.337428 
L -91.840565 391.077213 
L -45.419393 378.715192 
z
" clip-path="url(#pfcb4d263ee)" style="fill: #ffffff; stroke: #ffffff; stroke-linejoin: miter"/>
   </g>
   <g id="patch_34">
    <path d="M -25.817442 373.505148 
L 3.97139 390.675109 
L 76.538707 527.263056 
L 41.680797 559.07164 
L -5.797013 693.240811 
L -11.042761 689.777996 
L -18.782929 693.473299 
L -31.551494 691.516391 
L -31.574114 687.645647 
L -44.602459 682.389769 
L -49.546799 674.953628 
L -47.265004 671.913807 
L -48.991457 669.944993 
L -54.953849 666.731342 
L -64.927833 668.845392 
L -65.529701 674.128959 
L -74.27347 679.597019 
L -91.170276 678.462338 
L -97.823853 671.650965 
L -100.866743 672.946963 
L -99.777994 676.364673 
L -105.10307 679.389724 
L -106.794192 664.327721 
L -118.756193 658.420535 
L -131.714496 660.023399 
L -129.234472 667.494627 
L -132.327495 671.974476 
L -138.707196 668.132386 
L -143.489144 668.947009 
L -146.29257 662.290134 
L -147.743084 658.826182 
L -161.308175 592.162922 
L -170.382451 547.008779 
L -171.672599 543.866227 
L -161.026288 496.300227 
L -151.678856 454.397266 
L -130.642873 409.992924 
L -107.720591 395.337428 
L -91.840565 391.077213 
L -45.419393 378.715192 
z
" clip-path="url(#pfcb4d263ee)" style="fill: #ffffff; stroke: #ffffff; stroke-linejoin: miter"/>
   </g>
   <g id="patch_35">
    <path d="M -25.817442 373.505148 
L 3.97139 390.675109 
L 76.538707 527.263056 
L 41.680797 559.07164 
L -5.797013 693.240811 
L -11.042761 689.777996 
L -18.782929 693.473299 
L -31.551494 691.516391 
L -31.574114 687.645647 
L -44.602459 682.389769 
L -49.546799 674.953628 
L -47.265004 671.913807 
L -48.991457 669.944993 
L -54.953849 666.731342 
L -64.927833 668.845392 
L -65.529701 674.128959 
L -74.27347 679.597019 
L -91.170276 678.462338 
L -97.823853 671.650965 
L -100.866743 672.946963 
L -99.777994 676.364673 
L -105.10307 679.389724 
L -106.794192 664.327721 
L -118.756193 658.420535 
L -131.714496 660.023399 
L -129.234472 667.494627 
L -132.327495 671.974476 
L -138.707196 668.132386 
L -143.489144 668.947009 
L -146.29257 662.290134 
L -147.743084 658.826182 
L -161.308175 592.162922 
L -170.382451 547.008779 
L -171.672599 543.866227 
L -161.026288 496.300227 
L -151.678856 454.397266 
L -130.642873 409.992924 
L -107.720591 395.337428 
L -91.840565 391.077213 
L -45.419393 378.715192 
z
" clip-path="url(#pfcb4d263ee)" style="fill: #ffffff; stroke: #ffffff; stroke-linejoin: miter"/>
   </g>
   <g id="patch_36">
    <path d="M -126.529589 409.197655 
L -117.987099 409.218214 
L -110.07919 458.494257 
L -151.678856 454.397266 
L -130.642873 409.992924 
z
" clip-path="url(#pfcb4d263ee)" style="fill: #ffffff; stroke: #ffffff; stroke-linejoin: miter"/>
   </g>
   <g id="patch_37">
    <path d="M 76.538707 527.263056 
L 164.005075 593.766158 
L 154.966535 630.766136 
L 119.346241 766.525271 
L 95.177447 927.760493 
L 53.508313 928.010648 
L -37.90299 892.795133 
L -39.295545 890.562617 
L -40.015112 889.668645 
L -40.154811 889.203533 
L -40.220585 889.396632 
L -40.412453 889.008611 
L -40.475494 888.71805 
L -40.540723 888.814415 
L -40.537982 888.330758 
L -40.278723 888.235489 
L -40.34067 887.751466 
L -40.339031 887.461272 
L -40.207506 887.075076 
L -40.01241 886.882705 
L -40.073272 886.205223 
L -39.746167 885.529917 
L -39.810286 885.432824 
L -39.679348 885.143354 
L -39.677728 884.853161 
L -39.807039 884.852438 
L -39.868985 884.368421 
L -40.058048 883.496755 
L -40.111261 881.465048 
L -40.234524 880.400285 
L -40.296418 879.916269 
L -40.488581 879.614233 
L -39.193593 876.175645 
L -39.419365 872.376031 
L -37.786932 870.427233 
L -36.505132 869.360349 
L -36.173093 867.933693 
L -36.555022 865.833693 
L -34.992125 863.632593 
L -32.376318 859.718926 
L -30.569011 855.244659 
L -27.854601 853.237481 
L -26.612642 849.068495 
L -24.617192 840.753956 
L -24.540299 838.639714 
L -24.011737 836.727202 
L -18.989354 834.059764 
L -17.6255 831.006303 
L -19.332845 821.764813 
L -18.679234 817.920178 
L -14.850541 807.360912 
L -14.607164 801.546523 
L -13.189596 799.918854 
L -10.660605 798.143008 
L -9.63479 794.186574 
L -9.897848 791.867833 
L -9.514111 788.149928 
L -10.319385 783.712176 
L -9.612171 780.870462 
L -6.378229 775.608087 
L -5.124504 771.57818 
L 1.174233 767.407347 
L 11.005053 755.348959 
L 11.073867 750.120423 
L 12.137821 748.494376 
L 13.65911 748.183083 
L 16.140181 748.682827 
L 18.015237 747.326812 
L 18.479432 744.057688 
L 19.681173 742.947116 
L 21.776651 742.782546 
L 23.624703 742.699412 
L 26.382687 740.720897 
L 28.546966 737.043491 
L 30.256043 729.445658 
L 33.482053 721.55786 
L 37.559076 715.553494 
L 39.920425 710.760382 
L 44.769904 708.664563 
L 44.113186 708.102421 
L 43.568355 706.595344 
L 40.233658 708.322947 
L 39.976987 706.329195 
L 36.90151 706.124473 
L 36.82823 706.619484 
L 35.714842 706.093794 
L 34.648387 706.733259 
L 32.525358 706.12002 
L 31.00272 704.858973 
L 29.054102 704.692234 
L 28.499352 704.084819 
L 26.347371 704.092968 
L 21.608675 699.421375 
L 18.001431 698.551681 
L 17.683826 698.044039 
L 16.930944 698.296737 
L 16.632361 697.366752 
L 14.507298 696.604454 
L 12.09475 697.086484 
L 8.40459 691.352883 
L 6.705237 691.173702 
L 4.045674 694.189987 
L -1.697168 695.615633 
L -5.797013 693.240811 
L 41.680797 559.07164 
z
" clip-path="url(#pfcb4d263ee)" style="fill: #ffffff; stroke: #ffffff; stroke-linejoin: miter"/>
   </g>
   <g id="patch_38">
    <path d="M 76.538707 527.263056 
L 164.005075 593.766158 
L 154.966535 630.766136 
L 119.346241 766.525271 
L 95.177447 927.760493 
L 53.508313 928.010648 
L -37.90299 892.795133 
L -39.295545 890.562617 
L -40.015112 889.668645 
L -40.154811 889.203533 
L -40.220585 889.396632 
L -40.412453 889.008611 
L -40.475494 888.71805 
L -40.540723 888.814415 
L -40.537982 888.330758 
L -40.278723 888.235489 
L -40.34067 887.751466 
L -40.339031 887.461272 
L -40.207506 887.075076 
L -40.01241 886.882705 
L -40.073272 886.205223 
L -39.746167 885.529917 
L -39.810286 885.432824 
L -39.679348 885.143354 
L -39.677728 884.853161 
L -39.807039 884.852438 
L -39.868985 884.368421 
L -40.058048 883.496755 
L -40.111261 881.465048 
L -40.234524 880.400285 
L -40.296418 879.916269 
L -40.488581 879.614233 
L -39.193593 876.175645 
L -39.419365 872.376031 
L -37.786932 870.427233 
L -36.505132 869.360349 
L -36.173093 867.933693 
L -36.555022 865.833693 
L -34.992125 863.632593 
L -32.376318 859.718926 
L -30.569011 855.244659 
L -27.854601 853.237481 
L -26.612642 849.068495 
L -24.617192 840.753956 
L -24.540299 838.639714 
L -24.011737 836.727202 
L -18.989354 834.059764 
L -17.6255 831.006303 
L -19.332845 821.764813 
L -18.679234 817.920178 
L -14.850541 807.360912 
L -14.607164 801.546523 
L -13.189596 799.918854 
L -10.660605 798.143008 
L -9.63479 794.186574 
L -9.897848 791.867833 
L -9.514111 788.149928 
L -10.319385 783.712176 
L -9.612171 780.870462 
L -6.378229 775.608087 
L -5.124504 771.57818 
L 1.174233 767.407347 
L 11.005053 755.348959 
L 11.073867 750.120423 
L 12.137821 748.494376 
L 13.65911 748.183083 
L 16.140181 748.682827 
L 18.015237 747.326812 
L 18.479432 744.057688 
L 19.681173 742.947116 
L 21.776651 742.782546 
L 23.624703 742.699412 
L 26.382687 740.720897 
L 28.546966 737.043491 
L 30.256043 729.445658 
L 33.482053 721.55786 
L 37.559076 715.553494 
L 39.920425 710.760382 
L 44.769904 708.664563 
L 44.113186 708.102421 
L 43.568355 706.595344 
L 40.233658 708.322947 
L 39.976987 706.329195 
L 36.90151 706.124473 
L 36.82823 706.619484 
L 35.714842 706.093794 
L 34.648387 706.733259 
L 32.525358 706.12002 
L 31.00272 704.858973 
L 29.054102 704.692234 
L 28.499352 704.084819 
L 26.347371 704.092968 
L 21.608675 699.421375 
L 18.001431 698.551681 
L 17.683826 698.044039 
L 16.930944 698.296737 
L 16.632361 697.366752 
L 14.507298 696.604454 
L 12.09475 697.086484 
L 8.40459 691.352883 
L 6.705237 691.173702 
L 4.045674 694.189987 
L -1.697168 695.615633 
L -5.797013 693.240811 
L 41.680797 559.07164 
z
" clip-path="url(#pfcb4d263ee)" style="fill: #ffffff; stroke: #ffffff; stroke-linejoin: miter"/>
   </g>
   <g id="patch_39">
    <path d="M 76.538707 527.263056 
L 164.005075 593.766158 
L 154.966535 630.766136 
L 119.346241 766.525271 
L 95.177447 927.760493 
L 53.508313 928.010648 
L -37.90299 892.795133 
L -39.295545 890.562617 
L -40.015112 889.668645 
L -40.154811 889.203533 
L -40.220585 889.396632 
L -40.412453 889.008611 
L -40.475494 888.71805 
L -40.540723 888.814415 
L -40.537982 888.330758 
L -40.278723 888.235489 
L -40.34067 887.751466 
L -40.339031 887.461272 
L -40.207506 887.075076 
L -40.01241 886.882705 
L -40.073272 886.205223 
L -39.746167 885.529917 
L -39.810286 885.432824 
L -39.679348 885.143354 
L -39.677728 884.853161 
L -39.807039 884.852438 
L -39.868985 884.368421 
L -40.058048 883.496755 
L -40.111261 881.465048 
L -40.234524 880.400285 
L -40.296418 879.916269 
L -40.488581 879.614233 
L -39.193593 876.175645 
L -39.419365 872.376031 
L -37.786932 870.427233 
L -36.505132 869.360349 
L -36.173093 867.933693 
L -36.555022 865.833693 
L -34.992125 863.632593 
L -32.376318 859.718926 
L -30.569011 855.244659 
L -27.854601 853.237481 
L -26.612642 849.068495 
L -24.617192 840.753956 
L -24.540299 838.639714 
L -24.011737 836.727202 
L -18.989354 834.059764 
L -17.6255 831.006303 
L -19.332845 821.764813 
L -18.679234 817.920178 
L -14.850541 807.360912 
L -14.607164 801.546523 
L -13.189596 799.918854 
L -10.660605 798.143008 
L -9.63479 794.186574 
L -9.897848 791.867833 
L -9.514111 788.149928 
L -10.319385 783.712176 
L -9.612171 780.870462 
L -6.378229 775.608087 
L -5.124504 771.57818 
L 1.174233 767.407347 
L 11.005053 755.348959 
L 11.073867 750.120423 
L 12.137821 748.494376 
L 13.65911 748.183083 
L 16.140181 748.682827 
L 18.015237 747.326812 
L 18.479432 744.057688 
L 19.681173 742.947116 
L 21.776651 742.782546 
L 23.624703 742.699412 
L 26.382687 740.720897 
L 28.546966 737.043491 
L 30.256043 729.445658 
L 33.482053 721.55786 
L 37.559076 715.553494 
L 39.920425 710.760382 
L 44.769904 708.664563 
L 44.113186 708.102421 
L 43.568355 706.595344 
L 40.233658 708.322947 
L 39.976987 706.329195 
L 36.90151 706.124473 
L 36.82823 706.619484 
L 35.714842 706.093794 
L 34.648387 706.733259 
L 32.525358 706.12002 
L 31.00272 704.858973 
L 29.054102 704.692234 
L 28.499352 704.084819 
L 26.347371 704.092968 
L 21.608675 699.421375 
L 18.001431 698.551681 
L 17.683826 698.044039 
L 16.930944 698.296737 
L 16.632361 697.366752 
L 14.507298 696.604454 
L 12.09475 697.086484 
L 8.40459 691.352883 
L 6.705237 691.173702 
L 4.045674 694.189987 
L -1.697168 695.615633 
L -5.797013 693.240811 
L 41.680797 559.07164 
z
" clip-path="url(#pfcb4d263ee)" style="fill: #ffffff; stroke: #ffffff; stroke-linejoin: miter"/>
   </g>
   <g id="patch_40">
    <path d="M 154.966535 630.766136 
L 255.440823 688.464327 
L 281.436195 708.631918 
L 241.354013 736.377159 
L 230.375255 758.290362 
L 222.789277 773.399013 
L 220.200834 778.667981 
L 213.642934 791.704547 
L 214.078985 812.980424 
L 215.073131 861.551813 
L 215.837321 898.949819 
L 216.166388 915.070336 
L 162.58305 915.964304 
L 126.564027 927.455909 
L 95.177447 927.760493 
L 119.346241 766.525271 
z
" clip-path="url(#pfcb4d263ee)" style="fill: #ffffff; stroke: #ffffff; stroke-linejoin: miter"/>
   </g>
   <g id="patch_41">
    <path d="M 154.966535 630.766136 
L 255.440823 688.464327 
L 281.436195 708.631918 
L 241.354013 736.377159 
L 230.375255 758.290362 
L 222.789277 773.399013 
L 220.200834 778.667981 
L 213.642934 791.704547 
L 214.078985 812.980424 
L 215.073131 861.551813 
L 215.837321 898.949819 
L 216.166388 915.070336 
L 162.58305 915.964304 
L 126.564027 927.455909 
L 95.177447 927.760493 
L 119.346241 766.525271 
z
" clip-path="url(#pfcb4d263ee)" style="fill: #ffffff; stroke: #ffffff; stroke-linejoin: miter"/>
   </g>
   <g id="patch_42">
    <path d="M 154.966535 630.766136 
L 255.440823 688.464327 
L 281.436195 708.631918 
L 241.354013 736.377159 
L 230.375255 758.290362 
L 222.789277 773.399013 
L 220.200834 778.667981 
L 213.642934 791.704547 
L 214.078985 812.980424 
L 215.073131 861.551813 
L 215.837321 898.949819 
L 216.166388 915.070336 
L 162.58305 915.964304 
L 126.564027 927.455909 
L 95.177447 927.760493 
L 119.346241 766.525271 
z
" clip-path="url(#pfcb4d263ee)" style="fill: #ffffff; stroke: #ffffff; stroke-linejoin: miter"/>
   </g>
   <g id="patch_43">
    <path d="M 187.471015 429.950788 
L 294.309816 468.612208 
L 299.007748 475.88784 
L 317.662458 503.898755 
L 361.316274 569.378036 
L 388.11521 609.602076 
L 342.238198 662.224008 
L 328.940664 675.737674 
L 301.428365 694.775543 
L 281.436195 708.631918 
L 255.440823 688.464327 
L 154.966535 630.766136 
L 164.005075 593.766158 
L 191.888719 449.53512 
z
" clip-path="url(#pfcb4d263ee)" style="fill: #ffffff; stroke: #ffffff; stroke-linejoin: miter"/>
   </g>
   <g id="patch_44">
    <path d="M 187.471015 429.950788 
L 294.309816 468.612208 
L 299.007748 475.88784 
L 317.662458 503.898755 
L 361.316274 569.378036 
L 329.422815 598.297687 
L 311.624952 620.701947 
L 325.215319 642.524691 
L 342.238198 662.224008 
L 328.940664 675.737674 
L 301.428365 694.775543 
L 281.436195 708.631918 
L 255.440823 688.464327 
L 154.966535 630.766136 
L 164.005075 593.766158 
L 191.888719 449.53512 
z
" clip-path="url(#pfcb4d263ee)" style="fill: #ffffff; stroke: #ffffff; stroke-linejoin: miter"/>
   </g>
   <g id="patch_45">
    <path d="M 187.471015 429.950788 
L 294.309816 468.612208 
L 299.007748 475.88784 
L 317.662458 503.898755 
L 361.316274 569.378036 
L 388.11521 609.602076 
L 342.238198 662.224008 
L 328.940664 675.737674 
L 301.428365 694.775543 
L 281.436195 708.631918 
L 255.440823 688.464327 
L 154.966535 630.766136 
L 164.005075 593.766158 
L 191.888719 449.53512 
z
" clip-path="url(#pfcb4d263ee)" style="fill: #ffffff; stroke: #ffffff; stroke-linejoin: miter"/>
   </g>
   <g id="patch_46">
    <path d="M 187.471015 429.950788 
L 294.309816 468.612208 
L 299.007748 475.88784 
L 317.662458 503.898755 
L 361.316274 569.378036 
L 388.11521 609.602076 
L 342.238198 662.224008 
L 328.940664 675.737674 
L 301.428365 694.775543 
L 281.436195 708.631918 
L 255.440823 688.464327 
L 154.966535 630.766136 
L 164.005075 593.766158 
L 191.888719 449.53512 
z
" clip-path="url(#pfcb4d263ee)" style="fill: #ffffff; stroke: #ffffff; stroke-linejoin: miter"/>
   </g>
   <g id="patch_47">
    <path d="M 187.471015 429.950788 
L 294.309816 468.612208 
L 299.007748 475.88784 
L 317.662458 503.898755 
L 361.316274 569.378036 
L 388.11521 609.602076 
L 342.238198 662.224008 
L 328.940664 675.737674 
L 301.428365 694.775543 
L 281.436195 708.631918 
L 255.440823 688.464327 
L 154.966535 630.766136 
L 164.005075 593.766158 
L 191.888719 449.53512 
z
" clip-path="url(#pfcb4d263ee)" style="fill: #ffffff; stroke: #ffffff; stroke-linejoin: miter"/>
   </g>
   <g id="patch_48">
    <path d="M 152.380727 -45.056533 
L 93.664173 52.121052 
L 90.036271 65.375433 
L 76.086532 134.814823 
L 75.313766 152.662076 
L 73.832727 225.109965 
L 114.209735 277.037849 
L 105.076145 282.937203 
L 86.331196 294.281477 
L 45.190992 319.174651 
L 23.674895 280.965406 
L 2.685876 235.665335 
L -76.860735 159.858606 
L -129.144719 133.790169 
L -172.496321 112.061001 
L -120.408322 43.195057 
L -82.456162 -6.771493 
L 56.052532 -29.538879 
z
" clip-path="url(#pfcb4d263ee)" style="fill: #ffffff; stroke: #ffffff; stroke-linejoin: miter"/>
   </g>
   <g id="patch_49">
    <path d="M 152.380727 -45.056533 
L 93.664173 52.121052 
L 90.036271 65.375433 
L 76.086532 134.814823 
L 75.313766 152.662076 
L 73.832727 225.109965 
L 114.209735 277.037849 
L 105.076145 282.937203 
L 86.331196 294.281477 
L 64.838625 263.207851 
L 23.674895 280.965406 
L 2.685876 235.665335 
L -76.860735 159.858606 
L -129.144719 133.790169 
L -172.496321 112.061001 
L -120.408322 43.195057 
L -82.456162 -6.771493 
L 56.052532 -29.538879 
z
" clip-path="url(#pfcb4d263ee)" style="fill: #ffffff; stroke: #ffffff; stroke-linejoin: miter"/>
   </g>
   <g id="patch_50">
    <path d="M 152.380727 -45.056533 
L 93.664173 52.121052 
L 90.036271 65.375433 
L 76.086532 134.814823 
L 75.313766 152.662076 
L 73.832727 225.109965 
L 114.209735 277.037849 
L 105.076145 282.937203 
L 86.331196 294.281477 
L 45.190992 319.174651 
L 23.674895 280.965406 
L 2.685876 235.665335 
L -76.860735 159.858606 
L -129.144719 133.790169 
L -172.496321 112.061001 
L -120.408322 43.195057 
L -82.456162 -6.771493 
L 56.052532 -29.538879 
z
" clip-path="url(#pfcb4d263ee)" style="fill: #ffffff; stroke: #ffffff; stroke-linejoin: miter"/>
   </g>
   <g id="patch_51">
    <path d="M -45.419393 378.715192 
L -91.840565 391.077213 
L -231.189531 300.012768 
L -227.281446 295.388182 
L -206.251471 281.846325 
L -212.57732 277.38817 
L -218.384027 280.41072 
L -219.03027 266.417665 
L -217.175184 264.960735 
L -199.264762 242.078139 
L -199.088286 234.718212 
L -198.800923 222.73806 
L -209.228689 199.366351 
L -212.860426 191.210109 
L -220.432946 182.303074 
L -221.291901 177.011565 
L -219.084738 172.930577 
L -172.496321 112.061001 
L -129.144719 133.790169 
L -76.860735 159.858606 
L 2.685876 235.665335 
L 23.674895 280.965406 
L 45.190992 319.174651 
L -27.879579 363.394899 
L -25.817442 373.505148 
z
" clip-path="url(#pfcb4d263ee)" style="fill: #ffffff; stroke: #ffffff; stroke-linejoin: miter"/>
   </g>
   <g id="patch_52">
    <path d="M -45.419393 378.715192 
L -91.840565 391.077213 
L -231.189531 300.012768 
L -227.281446 295.388182 
L -206.251471 281.846325 
L -212.57732 277.38817 
L -218.384027 280.41072 
L -219.03027 266.417665 
L -217.175184 264.960735 
L -199.264762 242.078139 
L -199.088286 234.718212 
L -198.800923 222.73806 
L -209.228689 199.366351 
L -212.860426 191.210109 
L -220.432946 182.303074 
L -221.291901 177.011565 
L -219.084738 172.930577 
L -172.496321 112.061001 
L -129.144719 133.790169 
L -76.860735 159.858606 
L 2.685876 235.665335 
L 23.674895 280.965406 
L -39.139229 308.101273 
L -27.879579 363.394899 
L -25.817442 373.505148 
z
" clip-path="url(#pfcb4d263ee)" style="fill: #ffffff; stroke: #ffffff; stroke-linejoin: miter"/>
   </g>
   <g id="patch_53">
    <path d="M -45.419393 378.715192 
L -91.840565 391.077213 
L -231.189531 300.012768 
L -227.281446 295.388182 
L -206.251471 281.846325 
L -212.57732 277.38817 
L -218.384027 280.41072 
L -219.03027 266.417665 
L -217.175184 264.960735 
L -199.264762 242.078139 
L -199.088286 234.718212 
L -198.800923 222.73806 
L -209.228689 199.366351 
L -212.860426 191.210109 
L -220.432946 182.303074 
L -221.291901 177.011565 
L -219.084738 172.930577 
L -172.496321 112.061001 
L -129.144719 133.790169 
L -76.860735 159.858606 
L 2.685876 235.665335 
L 23.674895 280.965406 
L 45.190992 319.174651 
L -27.879579 363.394899 
L -25.817442 373.505148 
z
" clip-path="url(#pfcb4d263ee)" style="fill: #ffffff; stroke: #ffffff; stroke-linejoin: miter"/>
   </g>
   <g id="patch_54">
    <path d="M 75.313766 152.662076 
L 122.479968 137.595476 
L 238.569305 87.024691 
L 352.306825 59.110336 
L 379.609365 58.008993 
L 387.757578 127.452021 
L 388.315578 132.001675 
L 398.487273 144.53156 
L 390.659668 151.970604 
L 372.714051 168.855006 
L 339.70104 200.031804 
L 327.320706 215.909779 
L 303.591805 246.337293 
L 263.958318 247.5812 
L 249.057892 248.036953 
L 206.430746 249.049878 
L 198.442011 249.217108 
L 156.080057 249.984677 
L 114.209735 277.037849 
L 73.832727 225.109965 
L 303.591805 246.337293 
L 263.958318 247.5812 
L 249.057892 248.036953 
L 206.430746 249.049878 
L 198.442011 249.217108 
L 252.991055 273.521279 
L 292.406119 291.047007 
L 75.313766 152.662076 
z
" clip-path="url(#pfcb4d263ee)" style="fill: #ffedd9; stroke: #ffedd9; stroke-linejoin: miter"/>
   </g>
   <g id="line2d_1">
    <path d="M 75.313766 152.662076 
L 122.479968 137.595476 
L 238.569305 87.024691 
L 352.306825 59.110336 
L 379.609365 58.008993 
L 387.757578 127.452021 
L 388.315578 132.001675 
L 398.487273 144.53156 
L 390.659668 151.970604 
L 372.714051 168.855006 
L 339.70104 200.031804 
L 327.320706 215.909779 
L 303.591805 246.337293 
L 263.958318 247.5812 
L 249.057892 248.036953 
L 206.430746 249.049878 
L 198.442011 249.217108 
L 156.080057 249.984677 
L 114.209735 277.037849 
L 73.832727 225.109965 
L 303.591805 246.337293 
L 263.958318 247.5812 
L 249.057892 248.036953 
L 206.430746 249.049878 
L 198.442011 249.217108 
L 252.991055 273.521279 
L 292.406119 291.047007 
L 75.313766 152.662076 
" clip-path="url(#pfcb4d263ee)" style="fill: none; stroke: #000000; stroke-width: 0.5; stroke-linecap: square"/>
   </g>
   <g id="line2d_2">
    <path clip-path="url(#pfcb4d263ee)" style="fill: none; stroke: #8f8f8f; stroke-width: 0.5; stroke-linecap: square"/>
   </g>
   <g id="line2d_3">
    <path clip-path="url(#pfcb4d263ee)" style="fill: none; stroke: #8f8f8f; stroke-width: 0.5; stroke-linecap: square"/>
   </g>
   <g id="line2d_4">
    <path d="M 329.251909 346.6 
L 328.301727 344.98596 
L 321.923581 334.181169 
L 336.662996 333.616483 
L 461.8 258.565599 
M 339.672825 346.6 
L 336.662996 333.616483 
L 461.8 258.565599 
M 329.251909 346.6 
L 328.301727 344.98596 
L 321.923581 334.181169 
L 336.662996 333.616483 
L 461.8 258.565599 
" clip-path="url(#pfcb4d263ee)" style="fill: none; stroke: #8f8f8f; stroke-width: 0.5; stroke-linecap: square"/>
   </g>
   <g id="line2d_5">
    <path clip-path="url(#pfcb4d263ee)" style="fill: none; stroke: #8f8f8f; stroke-width: 0.5; stroke-linecap: square"/>
   </g>
   <g id="line2d_6">
    <path clip-path="url(#pfcb4d263ee)" style="fill: none; stroke: #8f8f8f; stroke-width: 0.5; stroke-linecap: square"/>
   </g>
   <g id="line2d_7">
    <path d="M 447.380226 124.452368 
L 461.8 128.033698 
M 329.251909 346.6 
L 328.301727 344.98596 
L 321.923581 334.181169 
L 310.321479 314.457846 
L 299.163689 295.513969 
L 292.406119 291.047007 
L 303.591805 246.337293 
L 327.320706 215.909779 
L 339.70104 200.031804 
L 372.714051 168.855006 
L 390.659668 151.970604 
L 398.487273 144.53156 
L 447.380226 124.452368 
" clip-path="url(#pfcb4d263ee)" style="fill: none; stroke: #8f8f8f; stroke-width: 0.5; stroke-linecap: square"/>
   </g>
   <g id="line2d_8">
    <path clip-path="url(#pfcb4d263ee)" style="fill: none; stroke: #8f8f8f; stroke-width: 0.5; stroke-linecap: square"/>
   </g>
   <g id="line2d_9">
    <path clip-path="url(#pfcb4d263ee)" style="fill: none; stroke: #8f8f8f; stroke-width: 0.5; stroke-linecap: square"/>
   </g>
   <g id="line2d_10">
    <path clip-path="url(#pfcb4d263ee)" style="fill: none; stroke: #8f8f8f; stroke-width: 0.5; stroke-linecap: square"/>
   </g>
   <g id="line2d_11">
    <path clip-path="url(#pfcb4d263ee)" style="fill: none; stroke: #8f8f8f; stroke-width: 0.5; stroke-linecap: square"/>
   </g>
   <g id="line2d_12">
    <path clip-path="url(#pfcb4d263ee)" style="fill: none; stroke: #8f8f8f; stroke-width: 0.5; stroke-linecap: square"/>
   </g>
   <g id="line2d_13">
    <path d="M 198.442011 249.217108 
L 189.535247 297.334845 
L 180.398601 346.6 
M -0.127295 346.6 
L 45.190992 319.174651 
L 86.331196 294.281477 
L 105.076145 282.937203 
L 114.209735 277.037849 
L 156.080057 249.984677 
L 198.442011 249.217108 
" clip-path="url(#pfcb4d263ee)" style="fill: none; stroke: #8f8f8f; stroke-width: 0.5; stroke-linecap: square"/>
   </g>
   <g id="line2d_14">
    <path d="M 64.838625 263.207851 
L 86.331196 294.281477 
L 45.190992 319.174651 
L -0.127295 346.6 
M -1 291.625026 
L 23.674895 280.965406 
L 64.838625 263.207851 
" clip-path="url(#pfcb4d263ee)" style="fill: none; stroke: #8f8f8f; stroke-width: 0.5; stroke-linecap: square"/>
   </g>
   <g id="line2d_15">
    <path d="M 198.442011 249.217108 
L 189.535247 297.334845 
L 180.398601 346.6 
M -0.127295 346.6 
L 45.190992 319.174651 
L 86.331196 294.281477 
L 105.076145 282.937203 
L 114.209735 277.037849 
L 156.080057 249.984677 
L 198.442011 249.217108 
" clip-path="url(#pfcb4d263ee)" style="fill: none; stroke: #8f8f8f; stroke-width: 0.5; stroke-linecap: square"/>
   </g>
   <g id="line2d_16">
    <path d="M 198.442011 249.217108 
L 189.535247 297.334845 
L 180.398601 346.6 
M -0.127295 346.6 
L 45.190992 319.174651 
L 86.331196 294.281477 
L 105.076145 282.937203 
L 114.209735 277.037849 
L 156.080057 249.984677 
L 198.442011 249.217108 
" clip-path="url(#pfcb4d263ee)" style="fill: none; stroke: #8f8f8f; stroke-width: 0.5; stroke-linecap: square"/>
   </g>
   <g id="line2d_17">
    <path d="M 198.442011 249.217108 
L 189.535247 297.334845 
L 180.398601 346.6 
M -0.127295 346.6 
L 45.190992 319.174651 
L 86.331196 294.281477 
L 105.076145 282.937203 
L 114.209735 277.037849 
L 156.080057 249.984677 
L 198.442011 249.217108 
" clip-path="url(#pfcb4d263ee)" style="fill: none; stroke: #8f8f8f; stroke-width: 0.5; stroke-linecap: square"/>
   </g>
   <g id="line2d_18">
    <path d="M 292.406119 291.047007 
L 299.163689 295.513969 
L 310.321479 314.457846 
L 321.923581 334.181169 
L 328.301727 344.98596 
L 329.251909 346.6 
M 180.398601 346.6 
L 189.535247 297.334845 
L 243.331534 296.401909 
L 283.161176 295.735333 
L 292.406119 291.047007 
" clip-path="url(#pfcb4d263ee)" style="fill: none; stroke: #8f8f8f; stroke-width: 0.5; stroke-linecap: square"/>
   </g>
   <g id="line2d_19">
    <path d="M 198.442011 249.217108 
L 252.991055 273.521279 
L 292.406119 291.047007 
L 283.161176 295.735333 
L 243.331534 296.401909 
L 189.535247 297.334845 
L 198.442011 249.217108 
" clip-path="url(#pfcb4d263ee)" style="fill: none; stroke: #8f8f8f; stroke-width: 0.5; stroke-linecap: square"/>
   </g>
   <g id="line2d_20">
    <path d="M 299.163689 295.513969 
L 310.321479 314.457846 
L 321.923581 334.181169 
L 328.301727 344.98596 
L 329.251909 346.6 
M 180.398601 346.6 
L 189.535247 297.334845 
L 198.442011 249.217108 
L 252.991055 273.521279 
L 292.406119 291.047007 
L 299.163689 295.513969 
" clip-path="url(#pfcb4d263ee)" style="fill: none; stroke: #8f8f8f; stroke-width: 0.5; stroke-linecap: square"/>
   </g>
   <g id="line2d_21">
    <path d="M 299.163689 295.513969 
L 310.321479 314.457846 
L 321.923581 334.181169 
L 328.301727 344.98596 
L 329.251909 346.6 
M 180.398601 346.6 
L 189.535247 297.334845 
L 198.442011 249.217108 
L 252.991055 273.521279 
L 292.406119 291.047007 
L 299.163689 295.513969 
" clip-path="url(#pfcb4d263ee)" style="fill: none; stroke: #8f8f8f; stroke-width: 0.5; stroke-linecap: square"/>
   </g>
   <g id="line2d_22">
    <path d="M 303.591805 246.337293 
L 292.406119 291.047007 
L 283.161176 295.735333 
L 243.331534 296.401909 
L 252.991055 273.521279 
L 263.958318 247.5812 
L 303.591805 246.337293 
" clip-path="url(#pfcb4d263ee)" style="fill: none; stroke: #8f8f8f; stroke-width: 0.5; stroke-linecap: square"/>
   </g>
   <g id="line2d_23">
    <path d="M 198.442011 249.217108 
L 206.430746 249.049878 
L 249.057892 248.036953 
L 263.958318 247.5812 
L 252.991055 273.521279 
L 243.331534 296.401909 
L 189.535247 297.334845 
L 198.442011 249.217108 
" clip-path="url(#pfcb4d263ee)" style="fill: none; stroke: #8f8f8f; stroke-width: 0.5; stroke-linecap: square"/>
   </g>
   <g id="line2d_24">
    <path clip-path="url(#pfcb4d263ee)" style="fill: none; stroke: #8f8f8f; stroke-width: 0.5; stroke-linecap: square"/>
   </g>
   <g id="line2d_25">
    <path d="M 0 0 
" clip-path="url(#pfcb4d263ee)" style="fill: none; stroke: #8f8f8f; stroke-width: 0.5; stroke-linecap: square"/>
   </g>
   <g id="line2d_26">
    <path d="M 0 0 
" clip-path="url(#pfcb4d263ee)" style="fill: none; stroke: #8f8f8f; stroke-width: 0.5; stroke-linecap: square"/>
   </g>
   <g id="line2d_27">
    <path d="M 0 0 
" clip-path="url(#pfcb4d263ee)" style="fill: none; stroke: #8f8f8f; stroke-width: 0.5; stroke-linecap: square"/>
   </g>
   <g id="line2d_28">
    <path clip-path="url(#pfcb4d263ee)" style="fill: none; stroke: #8f8f8f; stroke-width: 0.5; stroke-linecap: square"/>
   </g>
   <g id="line2d_29">
    <path clip-path="url(#pfcb4d263ee)" style="fill: none; stroke: #8f8f8f; stroke-width: 0.5; stroke-linecap: square"/>
   </g>
   <g id="line2d_30">
    <path clip-path="url(#pfcb4d263ee)" style="fill: none; stroke: #8f8f8f; stroke-width: 0.5; stroke-linecap: square"/>
   </g>
   <g id="line2d_31">
    <path clip-path="url(#pfcb4d263ee)" style="fill: none; stroke: #8f8f8f; stroke-width: 0.5; stroke-linecap: square"/>
   </g>
   <g id="line2d_32">
    <path clip-path="url(#pfcb4d263ee)" style="fill: none; stroke: #8f8f8f; stroke-width: 0.5; stroke-linecap: square"/>
   </g>
   <g id="line2d_33">
    <path clip-path="url(#pfcb4d263ee)" style="fill: none; stroke: #8f8f8f; stroke-width: 0.5; stroke-linecap: square"/>
   </g>
   <g id="line2d_34">
    <path clip-path="url(#pfcb4d263ee)" style="fill: none; stroke: #8f8f8f; stroke-width: 0.5; stroke-linecap: square"/>
   </g>
   <g id="line2d_35">
    <path clip-path="url(#pfcb4d263ee)" style="fill: none; stroke: #8f8f8f; stroke-width: 0.5; stroke-linecap: square"/>
   </g>
   <g id="line2d_36">
    <path clip-path="url(#pfcb4d263ee)" style="fill: none; stroke: #8f8f8f; stroke-width: 0.5; stroke-linecap: square"/>
   </g>
   <g id="line2d_37">
    <path clip-path="url(#pfcb4d263ee)" style="fill: none; stroke: #8f8f8f; stroke-width: 0.5; stroke-linecap: square"/>
   </g>
   <g id="line2d_38">
    <path clip-path="url(#pfcb4d263ee)" style="fill: none; stroke: #8f8f8f; stroke-width: 0.5; stroke-linecap: square"/>
   </g>
   <g id="line2d_39">
    <path clip-path="url(#pfcb4d263ee)" style="fill: none; stroke: #8f8f8f; stroke-width: 0.5; stroke-linecap: square"/>
   </g>
   <g id="line2d_40">
    <path clip-path="url(#pfcb4d263ee)" style="fill: none; stroke: #8f8f8f; stroke-width: 0.5; stroke-linecap: square"/>
   </g>
   <g id="line2d_41">
    <path clip-path="url(#pfcb4d263ee)" style="fill: none; stroke: #8f8f8f; stroke-width: 0.5; stroke-linecap: square"/>
   </g>
   <g id="line2d_42">
    <path clip-path="url(#pfcb4d263ee)" style="fill: none; stroke: #8f8f8f; stroke-width: 0.5; stroke-linecap: square"/>
   </g>
   <g id="line2d_43">
    <path clip-path="url(#pfcb4d263ee)" style="fill: none; stroke: #8f8f8f; stroke-width: 0.5; stroke-linecap: square"/>
   </g>
   <g id="line2d_44">
    <path clip-path="url(#pfcb4d263ee)" style="fill: none; stroke: #8f8f8f; stroke-width: 0.5; stroke-linecap: square"/>
   </g>
   <g id="line2d_45">
    <path clip-path="url(#pfcb4d263ee)" style="fill: none; stroke: #8f8f8f; stroke-width: 0.5; stroke-linecap: square"/>
   </g>
   <g id="line2d_46">
    <path clip-path="url(#pfcb4d263ee)" style="fill: none; stroke: #8f8f8f; stroke-width: 0.5; stroke-linecap: square"/>
   </g>
   <g id="line2d_47">
    <path d="M 125.760928 -1 
L 93.664173 52.121052 
L 90.036271 65.375433 
L 76.086532 134.814823 
L 75.313766 152.662076 
L 73.832727 225.109965 
L 114.209735 277.037849 
L 105.076145 282.937203 
L 86.331196 294.281477 
L 45.190992 319.174651 
L 23.674895 280.965406 
L 2.685876 235.665335 
L -1 232.15275 
" clip-path="url(#pfcb4d263ee)" style="fill: none; stroke: #8f8f8f; stroke-width: 0.5; stroke-linecap: square"/>
   </g>
   <g id="line2d_48">
    <path d="M 125.760928 -1 
L 93.664173 52.121052 
L 90.036271 65.375433 
L 76.086532 134.814823 
L 75.313766 152.662076 
L 73.832727 225.109965 
L 114.209735 277.037849 
L 105.076145 282.937203 
L 86.331196 294.281477 
L 64.838625 263.207851 
L 23.674895 280.965406 
L 2.685876 235.665335 
L -1 232.15275 
" clip-path="url(#pfcb4d263ee)" style="fill: none; stroke: #8f8f8f; stroke-width: 0.5; stroke-linecap: square"/>
   </g>
   <g id="line2d_49">
    <path d="M 125.760928 -1 
L 93.664173 52.121052 
L 90.036271 65.375433 
L 76.086532 134.814823 
L 75.313766 152.662076 
L 73.832727 225.109965 
L 114.209735 277.037849 
L 105.076145 282.937203 
L 86.331196 294.281477 
L 45.190992 319.174651 
L 23.674895 280.965406 
L 2.685876 235.665335 
L -1 232.15275 
" clip-path="url(#pfcb4d263ee)" style="fill: none; stroke: #8f8f8f; stroke-width: 0.5; stroke-linecap: square"/>
   </g>
   <g id="line2d_50">
    <path d="M -1 232.15275 
L 2.685876 235.665335 
L 23.674895 280.965406 
L 45.190992 319.174651 
L -0.127295 346.6 
" clip-path="url(#pfcb4d263ee)" style="fill: none; stroke: #8f8f8f; stroke-width: 0.5; stroke-linecap: square"/>
   </g>
   <g id="line2d_51">
    <path d="M -1 232.15275 
L 2.685876 235.665335 
L 23.674895 280.965406 
L -1 291.625026 
" clip-path="url(#pfcb4d263ee)" style="fill: none; stroke: #8f8f8f; stroke-width: 0.5; stroke-linecap: square"/>
   </g>
   <g id="line2d_52">
    <path d="M -1 232.15275 
L 2.685876 235.665335 
L 23.674895 280.965406 
L 45.190992 319.174651 
L -0.127295 346.6 
" clip-path="url(#pfcb4d263ee)" style="fill: none; stroke: #8f8f8f; stroke-width: 0.5; stroke-linecap: square"/>
   </g>
   <g id="line2d_53">
    <path d="M 75.313766 152.662076 
L 122.479968 137.595476 
L 238.569305 87.024691 
L 352.306825 59.110336 
L 379.609365 58.008993 
L 387.757578 127.452021 
L 388.315578 132.001675 
L 398.487273 144.53156 
L 390.659668 151.970604 
L 372.714051 168.855006 
L 339.70104 200.031804 
L 327.320706 215.909779 
L 303.591805 246.337293 
L 263.958318 247.5812 
L 249.057892 248.036953 
L 206.430746 249.049878 
L 198.442011 249.217108 
L 156.080057 249.984677 
L 114.209735 277.037849 
L 73.832727 225.109965 
L 303.591805 246.337293 
L 263.958318 247.5812 
L 249.057892 248.036953 
L 206.430746 249.049878 
L 198.442011 249.217108 
L 252.991055 273.521279 
L 292.406119 291.047007 
L 75.313766 152.662076 
L 75.313766 152.662076 
" clip-path="url(#pfcb4d263ee)" style="fill: none; stroke: #000000; stroke-width: 0.5; stroke-linecap: square"/>
   </g>
   <g id="text_1">
    <!-- EDY -->
    <g transform="translate(230.492585 169.642145)scale(0.0579 -0.0579)">
     <defs>
      <path id="DejaVuSans-45" d="M 628 4666 
L 3578 4666 
L 3578 4134 
L 1259 4134 
L 1259 2753 
L 3481 2753 
L 3481 2222 
L 1259 2222 
L 1259 531 
L 3634 531 
L 3634 0 
L 628 0 
L 628 4666 
z
" transform="scale(0.015625)"/>
      <path id="DejaVuSans-44" d="M 1259 4147 
L 1259 519 
L 2022 519 
Q 2988 519 3436 956 
Q 3884 1394 3884 2338 
Q 3884 3275 3436 3711 
Q 2988 4147 2022 4147 
L 1259 4147 
z
M 628 4666 
L 1925 4666 
Q 3281 4666 3915 4102 
Q 4550 3538 4550 2338 
Q 4550 1131 3912 565 
Q 3275 0 1925 0 
L 628 0 
L 628 4666 
z
" transform="scale(0.015625)"/>
      <path id="DejaVuSans-59" d="M -13 4666 
L 666 4666 
L 1959 2747 
L 3244 4666 
L 3922 4666 
L 2272 2222 
L 2272 0 
L 1638 0 
L 1638 2222 
L -13 4666 
z
" transform="scale(0.015625)"/>
     </defs>
     <use xlink:href="#DejaVuSans-45"/>
     <use xlink:href="#DejaVuSans-44" x="63.183594"/>
     <use xlink:href="#DejaVuSans-59" x="134.685547"/>
    </g>
    <!-- 999 -->
    <g transform="translate(230.634169 176.125678)scale(0.0579 -0.0579)">
     <defs>
      <path id="DejaVuSans-39" d="M 703 97 
L 703 672 
Q 941 559 1184 500 
Q 1428 441 1663 441 
Q 2288 441 2617 861 
Q 2947 1281 2994 2138 
Q 2813 1869 2534 1725 
Q 2256 1581 1919 1581 
Q 1219 1581 811 2004 
Q 403 2428 403 3163 
Q 403 3881 828 4315 
Q 1253 4750 1959 4750 
Q 2769 4750 3195 4129 
Q 3622 3509 3622 2328 
Q 3622 1225 3098 567 
Q 2575 -91 1691 -91 
Q 1453 -91 1209 -44 
Q 966 3 703 97 
z
M 1959 2075 
Q 2384 2075 2632 2365 
Q 2881 2656 2881 3163 
Q 2881 3666 2632 3958 
Q 2384 4250 1959 4250 
Q 1534 4250 1286 3958 
Q 1038 3666 1038 3163 
Q 1038 2656 1286 2365 
Q 1534 2075 1959 2075 
z
" transform="scale(0.015625)"/>
     </defs>
     <use xlink:href="#DejaVuSans-39"/>
     <use xlink:href="#DejaVuSans-39" x="63.623047"/>
     <use xlink:href="#DejaVuSans-39" x="127.246094"/>
    </g>
    <!-- 245 -->
    <g transform="translate(230.634169 182.609212)scale(0.0579 -0.0579)">
     <defs>
      <path id="DejaVuSans-32" d="M 1228 531 
L 3431 531 
L 3431 0 
L 469 0 
L 469 531 
Q 828 903 1448 1529 
Q 2069 2156 2228 2338 
Q 2531 2678 2651 2914 
Q 2772 3150 2772 3378 
Q 2772 3750 2511 3984 
Q 2250 4219 1831 4219 
Q 1534 4219 1204 4116 
Q 875 4013 500 3803 
L 500 4441 
Q 881 4594 1212 4672 
Q 1544 4750 1819 4750 
Q 2544 4750 2975 4387 
Q 3406 4025 3406 3419 
Q 3406 3131 3298 2873 
Q 3191 2616 2906 2266 
Q 2828 2175 2409 1742 
Q 1991 1309 1228 531 
z
" transform="scale(0.015625)"/>
      <path id="DejaVuSans-34" d="M 2419 4116 
L 825 1625 
L 2419 1625 
L 2419 4116 
z
M 2253 4666 
L 3047 4666 
L 3047 1625 
L 3713 1625 
L 3713 1100 
L 3047 1100 
L 3047 0 
L 2419 0 
L 2419 1100 
L 313 1100 
L 313 1709 
L 2253 4666 
z
" transform="scale(0.015625)"/>
      <path id="DejaVuSans-35" d="M 691 4666 
L 3169 4666 
L 3169 4134 
L 1269 4134 
L 1269 2991 
Q 1406 3038 1543 3061 
Q 1681 3084 1819 3084 
Q 2600 3084 3056 2656 
Q 3513 2228 3513 1497 
Q 3513 744 3044 326 
Q 2575 -91 1722 -91 
Q 1428 -91 1123 -41 
Q 819 9 494 109 
L 494 744 
Q 775 591 1075 516 
Q 1375 441 1709 441 
Q 2250 441 2565 725 
Q 2881 1009 2881 1497 
Q 2881 1984 2565 2268 
Q 2250 2553 1709 2553 
Q 1456 2553 1204 2497 
Q 953 2441 691 2322 
L 691 4666 
z
" transform="scale(0.015625)"/>
     </defs>
     <use xlink:href="#DejaVuSans-32"/>
     <use xlink:href="#DejaVuSans-34" x="63.623047"/>
     <use xlink:href="#DejaVuSans-35" x="127.246094"/>
    </g>
   </g>
  </g>
 </g>
 <defs>
  <clipPath id="pfcb4d263ee">
   <rect x="57.6" y="46.357092" width="357.12" height="256.341816"/>
  </clipPath>
 </defs>
</svg>
