<?xml version="1.0" encoding="utf-8" standalone="no"?>
<!DOCTYPE svg PUBLIC "-//W3C//DTD SVG 1.1//EN"
  "http://www.w3.org/Graphics/SVG/1.1/DTD/svg11.dtd">
<svg xmlns:xlink="http://www.w3.org/1999/xlink" width="460.8pt" height="345.6pt" viewBox="0 0 460.8 345.6" xmlns="http://www.w3.org/2000/svg" version="1.1">
 <metadata>
  <rdf:RDF xmlns:dc="http://purl.org/dc/elements/1.1/" xmlns:cc="http://creativecommons.org/ns#" xmlns:rdf="http://www.w3.org/1999/02/22-rdf-syntax-ns#">
   <cc:Work>
    <dc:type rdf:resource="http://purl.org/dc/dcmitype/StillImage"/>
    <dc:date>2022-04-25T00:05:32.045020</dc:date>
    <dc:format>image/svg+xml</dc:format>
    <dc:creator>
     <cc:Agent>
      <dc:title>Matplotlib v3.5.0, https://matplotlib.org/</dc:title>
     </cc:Agent>
    </dc:creator>
   </cc:Work>
  </rdf:RDF>
 </metadata>
 <defs>
  <style type="text/css">*{stroke-linejoin: round; stroke-linecap: butt}</style>
 </defs>
 <g id="figure_1">
  <g id="patch_1">
   <path d="M 0 345.6 
L 460.8 345.6 
L 460.8 0 
L 0 0 
z
" style="fill: #ffffff"/>
  </g>
  <g id="axes_1">
   <g id="patch_2">
    <path d="M 170.350267 179.798955 
L 171.275023 165.977177 
L 171.766305 158.854864 
L 172.490194 148.151767 
L 172.522172 147.844029 
L 183.318306 137.912194 
L 187.219431 127.123766 
L 208.643465 119.224975 
L 225.545638 114.888602 
L 228.496932 114.317994 
L 234.675952 146.564109 
L 238.281042 165.582992 
L 240.980493 179.884061 
L 250.768334 231.705012 
L 201.882998 234.267488 
L 201.927862 233.274334 
L 201.215039 214.436271 
L 200.968391 206.565844 
L 199.428022 205.225023 
z
" clip-path="url(#p60fb5bf6d1)" style="fill: #ffedd9; stroke: #ffedd9; stroke-linejoin: miter"/>
   </g>
   <g id="patch_3">
    <path d="M 250.768334 231.705012 
L 240.980493 179.884061 
L 238.281042 165.582992 
L 234.675952 146.564109 
L 228.496932 114.317994 
L 234.626194 114.332745 
L 264.145482 114.116857 
L 283.045374 114.048 
L 286.645813 121.898299 
L 291.775295 134.497088 
L 298.068665 149.949985 
L 301.70237 158.90973 
L 302.182353 179.804784 
L 302.520492 193.837644 
L 302.880034 209.142661 
L 286.729328 226.635832 
L 265.781665 227.239139 
z
" clip-path="url(#p60fb5bf6d1)" style="fill: #ffedd9; stroke: #ffedd9; stroke-linejoin: miter"/>
   </g>
   <g id="patch_4">
    <path d="M 169.439966 192.926919 
L 169.626044 190.347699 
L 170.350267 179.798955 
L 199.428022 205.225023 
L 200.968391 206.565844 
L 201.215039 214.436271 
L 201.927862 233.274334 
L 201.882998 234.267488 
L 188.783727 235.008 
L 196.029756 211.05724 
L 181.704934 201.69385 
z
" clip-path="url(#p60fb5bf6d1)" style="fill: #ffedd9; stroke: #ffedd9; stroke-linejoin: miter"/>
   </g>
   <g id="patch_5">
    <path d="M 170.350267 179.798955 
L 171.275023 165.977177 
L 171.766305 158.854864 
L 172.490194 148.151767 
L 172.522172 147.844029 
L 183.318306 137.912194 
L 187.219431 127.123766 
L 208.643465 119.224975 
L 225.545638 114.888602 
L 228.496932 114.317994 
L 234.675952 146.564109 
L 238.281042 165.582992 
L 240.980493 179.884061 
L 250.768334 231.705012 
L 201.882998 234.267488 
L 201.927862 233.274334 
L 201.215039 214.436271 
L 200.968391 206.565844 
L 199.428022 205.225023 
L 170.350267 179.798955 
z
" clip-path="url(#p60fb5bf6d1)" style="fill: #ffedd9; stroke: #ffedd9; stroke-linejoin: miter"/>
   </g>
   <g id="patch_6">
    <path d="M 250.768334 231.705012 
L 240.980493 179.884061 
L 238.281042 165.582992 
L 234.675952 146.564109 
L 228.496932 114.317994 
L 234.626194 114.332745 
L 264.145482 114.116857 
L 283.045374 114.048 
L 286.645813 121.898299 
L 291.775295 134.497088 
L 298.068665 149.949985 
L 301.70237 158.90973 
L 302.182353 179.804784 
L 302.520492 193.837644 
L 302.880034 209.142661 
L 286.729328 226.635832 
L 265.781665 227.239139 
L 250.768334 231.705012 
z
" clip-path="url(#p60fb5bf6d1)" style="fill: #ffedd9; stroke: #ffedd9; stroke-linejoin: miter"/>
   </g>
   <g id="patch_7">
    <path d="M 169.439966 192.926919 
L 169.626044 190.347699 
L 170.350267 179.798955 
L 199.428022 205.225023 
L 200.968391 206.565844 
L 201.215039 214.436271 
L 201.927862 233.274334 
L 201.882998 234.267488 
L 188.783727 235.008 
L 196.029756 211.05724 
L 181.704934 201.69385 
L 169.439966 192.926919 
z
" clip-path="url(#p60fb5bf6d1)" style="fill: #ffedd9; stroke: #ffedd9; stroke-linejoin: miter"/>
   </g>
   <g id="line2d_1">
    <path d="M 170.350267 179.798955 
L 171.275023 165.977177 
L 171.766305 158.854864 
L 172.490194 148.151767 
L 172.522172 147.844029 
L 183.318306 137.912194 
L 187.219431 127.123766 
L 208.643465 119.224975 
L 225.545638 114.888602 
L 228.496932 114.317994 
L 234.675952 146.564109 
L 238.281042 165.582992 
L 240.980493 179.884061 
L 250.768334 231.705012 
L 201.882998 234.267488 
L 201.927862 233.274334 
L 201.215039 214.436271 
L 200.968391 206.565844 
L 199.428022 205.225023 
L 170.350267 179.798955 
" clip-path="url(#p60fb5bf6d1)" style="fill: none; stroke: #ffc380; stroke-width: 0.5; stroke-linecap: square"/>
   </g>
   <g id="line2d_2">
    <path d="M 250.768334 231.705012 
L 240.980493 179.884061 
L 238.281042 165.582992 
L 234.675952 146.564109 
L 228.496932 114.317994 
L 234.626194 114.332745 
L 264.145482 114.116857 
L 283.045374 114.048 
L 286.645813 121.898299 
L 291.775295 134.497088 
L 298.068665 149.949985 
L 301.70237 158.90973 
L 302.182353 179.804784 
L 302.520492 193.837644 
L 302.880034 209.142661 
L 286.729328 226.635832 
L 265.781665 227.239139 
L 250.768334 231.705012 
" clip-path="url(#p60fb5bf6d1)" style="fill: none; stroke: #ffc380; stroke-width: 0.5; stroke-linecap: square"/>
   </g>
   <g id="line2d_3">
    <path d="M 169.439966 192.926919 
L 169.626044 190.347699 
L 170.350267 179.798955 
L 199.428022 205.225023 
L 200.968391 206.565844 
L 201.215039 214.436271 
L 201.927862 233.274334 
L 201.882998 234.267488 
L 188.783727 235.008 
L 196.029756 211.05724 
L 181.704934 201.69385 
L 169.439966 192.926919 
" clip-path="url(#p60fb5bf6d1)" style="fill: none; stroke: #ffc380; stroke-width: 0.5; stroke-linecap: square"/>
   </g>
   <g id="line2d_4">
    <path d="M 347.860509 144.606969 
L 356.665004 141.840561 
L 362.317962 140.119308 
L 369.833987 137.765482 
L 384.017175 133.385963 
L 375.87267 143.00763 
L 381.134499 158.118973 
L 365.373862 164.119371 
L 347.860509 144.606969 
" clip-path="url(#p60fb5bf6d1)" style="fill: none; stroke: #8f8f8f; stroke-width: 0.2; stroke-linecap: square"/>
   </g>
   <g id="line2d_5">
    <path d="M 315.228356 28.773416 
L 331.75752 52.807432 
L 336.134172 59.204159 
L 341.952214 64.130552 
L 327.963806 70.308924 
L 333.372917 78.365282 
L 316.286658 88.836853 
L 305.592026 95.397427 
L 305.175503 95.665699 
L 293.111177 102.509024 
L 280.824807 109.444306 
L 283.045374 114.048 
L 264.145482 114.116857 
L 234.626194 114.332745 
L 232.922308 110.182507 
L 230.134443 103.393648 
L 222.132411 83.988923 
L 251.266024 60.232471 
L 241.927056 49.66417 
L 252.16319 42.238583 
L 266.571497 31.716629 
L 274.005265 31.399886 
L 287.926256 30.773224 
L 309.78192 29.799467 
L 315.228356 28.773416 
" clip-path="url(#p60fb5bf6d1)" style="fill: none; stroke: #8f8f8f; stroke-width: 0.2; stroke-linecap: square"/>
   </g>
   <g id="line2d_6">
    <path d="M 222.132411 83.988923 
L 230.134443 103.393648 
L 232.922308 110.182507 
L 234.626194 114.332745 
L 228.496932 114.317994 
L 225.545638 114.888602 
L 208.643465 119.224975 
L 187.219431 127.123766 
L 164.664973 95.744547 
L 168.084147 93.978907 
L 177.389945 89.18936 
L 205.381625 92.057828 
L 214.009069 90.635699 
L 222.132411 83.988923 
" clip-path="url(#p60fb5bf6d1)" style="fill: none; stroke: #8f8f8f; stroke-width: 0.2; stroke-linecap: square"/>
   </g>
   <g id="line2d_7">
    <path d="M 82.923649 -1 
L 83.996159 -0.63489 
L 84.507324 -1 
M 89.006843 -1 
L 90.859458 0.319024 
L 89.246116 5.391007 
L 90.246917 6.393115 
L 93.902249 6.142521 
L 103.136502 5.819088 
L 106.182499 6.388871 
L 108.019954 4.214767 
L 111.699327 1.755818 
L 114.543408 2.546326 
L 117.150369 6.144075 
L 117.929452 8.137415 
L 117.851918 11.221263 
L 118.003073 12.499381 
L 120.090544 13.686595 
L 126.232072 16.622914 
L 130.778111 18.925382 
L 137.345847 23.291105 
L 136.099753 40.650733 
L 135.308476 44.367489 
L 133.563918 46.669005 
L 131.28517 48.914017 
L 131.180461 49.952319 
L 131.731717 50.200638 
L 132.952538 50.006395 
L 133.448061 51.294368 
L 132.192587 53.415975 
L 131.505277 56.018421 
L 130.200843 56.433599 
L 127.49797 60.060415 
L 125.862502 60.666193 
L 124.856462 60.476364 
L 124.324009 61.904967 
L 123.152224 64.610537 
L 123.301332 65.283407 
L 123.944472 67.095636 
L 124.0494 67.976161 
L 123.039247 69.47558 
L 119.521783 78.401268 
L 138.283752 85.228079 
L 156.379072 78.946153 
L 161.761146 64.238992 
L 161.660641 66.241872 
L 160.771695 91.171402 
L 164.664973 95.744547 
L 187.219431 127.123766 
L 183.318306 137.912194 
L 172.522172 147.844029 
L 172.490194 148.151767 
L 171.275023 165.977177 
L 164.456157 165.810699 
L 164.465764 165.425301 
L 163.372444 164.665242 
L 162.583535 163.604165 
L 163.134164 162.345418 
L 162.712039 161.447816 
L 163.22424 160.727994 
L 162.355965 159.896261 
L 159.72271 159.520668 
L 159.515269 160.865106 
L 159.129075 161.472208 
L 158.4041 161.800583 
L 157.860895 161.786514 
L 157.210295 161.152562 
L 155.670097 160.533789 
L 155.214254 160.020442 
L 155.038866 158.241796 
L 154.651152 157.961595 
L 154.181268 157.987718 
L 152.031121 158.971647 
L 150.130703 158.920379 
L 149.025827 159.584527 
L 149.152391 161.284923 
L 149.395091 161.4458 
L 148.882357 162.12603 
L 148.488658 164.776398 
L 144.795089 166.024276 
L 143.663803 166.686859 
L 142.992061 167.709323 
L 142.888623 168.747751 
L 142.120626 170.538794 
L 142.287958 171.623432 
L 142.098527 172.196607 
L 141.515532 172.681498 
L 140.700468 172.619781 
L 139.462111 173.510073 
L 139.140966 174.349383 
L 139.223346 174.93028 
L 140.204743 176.115405 
L 140.239951 176.617802 
L 139.163028 177.898356 
L 139.173423 178.400049 
L 138.440424 179.767489 
L 136.128994 180.857698 
L 135.793599 181.310765 
L 136.113497 183.09428 
L 136.437912 183.875099 
L 137.364848 184.403349 
L 136.79878 185.968313 
L 135.66564 186.552504 
L 135.119268 186.575132 
L 134.761012 186.950354 
L 134.915353 187.610556 
L 134.381249 188.057755 
L 133.34804 187.75739 
L 132.523177 187.964448 
L 131.938153 188.448522 
L 131.149644 189.929325 
L 131.462415 191.095753 
L 130.960183 192.122207 
L 130.30143 192.565388 
L 130.198798 194.336577 
L 129.841025 194.673006 
L 128.925678 195.378371 
L 127.615674 196.804537 
L 128.901119 197.846185 
L 130.038512 198.034585 
L 130.941041 198.601507 
L 131.805186 199.630009 
L 132.057817 200.331758 
L 131.323861 200.772844 
L 129.618202 200.45197 
L 129.184425 200.824672 
L 129.766144 202.153521 
L 128.902986 202.744773 
L 128.875194 203.669645 
L 128.5752 204.547761 
L 127.838231 205.065545 
L 128.669852 206.363453 
L 128.545446 208.018273 
L 128.851322 208.606031 
L 128.448729 210.406779 
L 128.920753 211.269521 
L 132.272198 211.600635 
L 107.56656 225.986918 
L 86.886472 226.312701 
L 84.423497 224.024 
L 75.624444 220.417034 
L 71.393637 217.554434 
L 60.370213 208.245084 
L 48.757186 207.767744 
L 49.068185 199.174436 
L 50.568278 182.372059 
L 23.762563 182.352558 
L 16.167445 185.473823 
L 72.9987 -1 
L 72.9987 -1 
" clip-path="url(#p60fb5bf6d1)" style="fill: none; stroke: #8f8f8f; stroke-width: 0.2; stroke-linecap: square"/>
   </g>
   <g id="line2d_8">
    <path d="M 16.167445 185.473823 
L 18.938051 131.352304 
L 53.41426 126.299465 
L 55.123334 125.936022 
L 56.662898 125.922872 
L 61.477682 127.036578 
L 64.536315 128.342095 
L 65.846053 129.178067 
L 67.082556 130.179477 
L 68.381373 130.934981 
L 69.386451 132.395976 
L 70.496117 133.451101 
L 71.384449 134.688748 
L 72.190318 136.362548 
L 72.631419 137.61223 
L 76.99884 140.360802 
L 81.400659 142.824387 
L 86.087692 144.801155 
L 90.925075 146.490542 
L 95.779963 147.775279 
L 100.7321 148.578278 
L 105.621461 149.192542 
L 111.788172 149.24437 
L 127.02459 133.528695 
L 122.92425 121.482054 
L 153.523889 112.538982 
L 169.142656 106.654061 
L 175.913271 103.1531 
L 187.219431 127.123766 
L 183.318306 137.912194 
L 172.522172 147.844029 
L 172.490194 148.151767 
L 171.275023 165.977177 
L 164.456157 165.810699 
L 164.465764 165.425301 
L 163.372444 164.665242 
L 162.583535 163.604165 
L 163.134164 162.345418 
L 162.712039 161.447816 
L 163.22424 160.727994 
L 162.355965 159.896261 
L 159.72271 159.520668 
L 159.515269 160.865106 
L 159.129075 161.472208 
L 158.4041 161.800583 
L 157.860895 161.786514 
L 157.210295 161.152562 
L 155.670097 160.533789 
L 155.214254 160.020442 
L 155.038866 158.241796 
L 154.675829 157.962247 
L 154.181268 157.987718 
L 152.031121 158.971647 
L 150.130703 158.920379 
L 149.025827 159.584527 
L 149.152391 161.284923 
L 149.395091 161.4458 
L 148.882357 162.12603 
L 148.488658 164.776398 
L 144.795089 166.024276 
L 143.663803 166.686859 
L 142.992061 167.709323 
L 142.888623 168.747751 
L 142.120626 170.538794 
L 142.287958 171.623432 
L 142.098527 172.196607 
L 141.515532 172.681498 
L 140.700468 172.619781 
L 139.462111 173.510073 
L 139.140966 174.349383 
L 139.223346 174.93028 
L 140.204743 176.115405 
L 140.239951 176.617802 
L 139.163028 177.898356 
L 139.173423 178.400049 
L 138.440424 179.767489 
L 136.128994 180.857698 
L 135.793599 181.310765 
L 136.113497 183.09428 
L 136.437912 183.875099 
L 137.364848 184.403349 
L 136.79878 185.968313 
L 135.66564 186.552504 
L 135.119268 186.575132 
L 134.761012 186.950354 
L 134.915353 187.610556 
L 134.381249 188.057755 
L 133.34804 187.75739 
L 132.523177 187.964448 
L 131.938153 188.448522 
L 131.149644 189.929325 
L 131.462415 191.095753 
L 130.960183 192.122207 
L 130.30143 192.565388 
L 130.198798 194.336577 
L 129.841025 194.673006 
L 128.925678 195.378371 
L 127.615674 196.804537 
L 128.901119 197.846185 
L 130.038512 198.034585 
L 130.941041 198.601507 
L 131.805186 199.630009 
L 132.057817 200.331758 
L 131.323861 200.772844 
L 129.618202 200.45197 
L 129.184425 200.824672 
L 129.766144 202.153521 
L 128.902986 202.744773 
L 128.875194 203.669645 
L 128.5752 204.547761 
L 127.838231 205.065545 
L 128.669852 206.363453 
L 128.545446 208.018273 
L 128.851322 208.606031 
L 128.448729 210.406779 
L 128.920753 211.269521 
L 132.272198 211.600635 
L 107.56656 225.986918 
L 86.886472 226.312701 
L 84.423497 224.024 
L 75.624444 220.417034 
L 71.393637 217.554434 
L 60.370213 208.245084 
L 48.757186 207.767744 
L 49.068185 199.174436 
L 50.568278 182.372059 
L 23.762563 182.352558 
L 16.167445 185.473823 
L 16.167445 185.473823 
" clip-path="url(#p60fb5bf6d1)" style="fill: none; stroke: #8f8f8f; stroke-width: 0.2; stroke-linecap: square"/>
   </g>
   <g id="line2d_9">
    <path d="M 82.923649 -1 
L 83.996159 -0.63489 
L 84.507324 -1 
M 89.006843 -1 
L 90.859458 0.319024 
L 89.246116 5.391007 
L 90.246917 6.393115 
L 93.902249 6.142521 
L 103.136502 5.819088 
L 106.182499 6.388871 
L 108.019954 4.214767 
L 111.699327 1.755818 
L 114.543408 2.546326 
L 117.150369 6.144075 
L 117.929452 8.137415 
L 117.851918 11.221263 
L 118.003073 12.499381 
L 130.778111 18.925382 
L 136.327641 18.516689 
L 136.751177 18.914381 
L 137.092734 20.429025 
L 141.110118 21.165167 
L 143.619141 23.89972 
L 142.308135 25.71322 
L 135.77806 36.012217 
L 135.705224 37.630139 
L 134.953969 38.417591 
L 135.098056 39.270562 
L 136.099753 40.650733 
L 135.308476 44.367489 
L 133.563918 46.669005 
L 131.28517 48.914017 
L 131.180461 49.952319 
L 131.731717 50.200638 
L 132.952538 50.006395 
L 133.448061 51.294368 
L 132.192587 53.415975 
L 131.505277 56.018421 
L 130.200843 56.433599 
L 127.49797 60.060415 
L 125.862502 60.666193 
L 124.856462 60.476364 
L 124.324009 61.904967 
L 123.152224 64.610537 
L 123.301332 65.283407 
L 123.944472 67.095636 
L 124.0494 67.976161 
L 123.039247 69.47558 
L 119.521783 78.401268 
L 138.283752 85.228079 
L 156.379072 78.946153 
L 161.288034 76.876649 
L 160.771695 91.171402 
L 164.664973 95.744547 
L 148.151747 106.375833 
L 183.318306 137.912194 
L 172.522172 147.844029 
L 172.490194 148.151767 
L 171.275023 165.977177 
L 164.456157 165.810699 
L 164.465764 165.425301 
L 163.372444 164.665242 
L 162.583535 163.604165 
L 163.134164 162.345418 
L 162.712039 161.447816 
L 163.22424 160.727994 
L 162.355965 159.896261 
L 159.72271 159.520668 
L 159.515269 160.865106 
L 159.129075 161.472208 
L 158.4041 161.800583 
L 157.860895 161.786514 
L 157.210295 161.152562 
L 155.670097 160.533789 
L 155.214254 160.020442 
L 155.038866 158.241796 
L 154.651152 157.961595 
L 154.181268 157.987718 
L 152.031121 158.971647 
L 150.130703 158.920379 
L 149.025827 159.584527 
L 149.152391 161.284923 
L 149.395091 161.4458 
L 148.882357 162.12603 
L 148.488658 164.776398 
L 144.795089 166.024276 
L 143.663803 166.686859 
L 142.992061 167.709323 
L 142.888623 168.747751 
L 142.120626 170.538794 
L 142.287958 171.623432 
L 142.098527 172.196607 
L 141.515532 172.681498 
L 140.700468 172.619781 
L 139.462111 173.510073 
L 139.140966 174.349383 
L 139.223346 174.93028 
L 140.204743 176.115405 
L 140.239951 176.617802 
L 139.163028 177.898356 
L 139.173423 178.400049 
L 138.440424 179.767489 
L 136.128994 180.857698 
L 135.793599 181.310765 
L 136.113497 183.09428 
L 136.437912 183.875099 
L 137.364848 184.403349 
L 136.79878 185.968313 
L 135.66564 186.552504 
L 135.119268 186.575132 
L 134.761012 186.950354 
L 134.915353 187.610556 
L 134.381249 188.057755 
L 133.34804 187.75739 
L 132.523177 187.964448 
L 131.938153 188.448522 
L 131.149644 189.929325 
L 131.462415 191.095753 
L 130.960183 192.122207 
L 130.30143 192.565388 
L 130.198798 194.336577 
L 129.841025 194.673006 
L 128.925678 195.378371 
L 127.615674 196.804537 
L 128.901119 197.846185 
L 130.038512 198.034585 
L 130.941041 198.601507 
L 131.805186 199.630009 
L 132.057817 200.331758 
L 131.323861 200.772844 
L 129.618202 200.45197 
L 129.184425 200.824672 
L 129.766144 202.153521 
L 128.902986 202.744773 
L 128.875194 203.669645 
L 128.5752 204.547761 
L 127.838231 205.065545 
L 128.669852 206.363453 
L 128.545446 208.018273 
L 128.851322 208.606031 
L 128.448729 210.406779 
L 128.920753 211.269521 
L 132.272198 211.600635 
L 107.56656 225.986918 
L 86.886472 226.312701 
L 84.423497 224.024 
L 75.624444 220.417034 
L 71.393637 217.554434 
L 60.370213 208.245084 
L 48.757186 207.767744 
L 49.068185 199.174436 
L 50.568278 182.372059 
L 23.762563 182.352558 
L 16.167445 185.473823 
L 72.9987 -1 
L 72.9987 -1 
" clip-path="url(#p60fb5bf6d1)" style="fill: none; stroke: #8f8f8f; stroke-width: 0.2; stroke-linecap: square"/>
   </g>
   <g id="line2d_10">
    <path d="M 132.272198 211.600635 
L 165.925016 210.773383 
L 179.338868 203.029162 
L 181.704934 201.69385 
L 196.029756 211.05724 
L 188.783727 235.008 
L 182.284108 259.315997 
L 181.744786 258.764349 
L 180.099172 258.381041 
L 179.414969 257.594621 
L 179.154077 256.933266 
L 177.205925 256.658168 
L 176.903934 255.610173 
L 176.272714 255.827223 
L 175.542666 254.885101 
L 175.308182 254.185625 
L 175.427706 253.339997 
L 173.929459 253.151319 
L 173.811437 252.840095 
L 172.773698 252.237597 
L 172.200796 252.108556 
L 171.41686 252.437268 
L 170.992309 252.388729 
L 170.242418 252.33248 
L 169.049649 252.998313 
L 168.497167 253.06226 
L 165.806179 252.496096 
L 164.441488 253.002697 
L 164.006526 253.377669 
L 164.630928 254.472763 
L 163.872312 254.762678 
L 163.153243 255.477692 
L 162.378767 254.378737 
L 161.633495 254.128832 
L 160.953711 257.274169 
L 159.585742 257.856886 
L 158.225358 258.131006 
L 157.274502 258.068234 
L 155.170456 258.014194 
L 154.684556 258.387281 
L 154.20917 259.357224 
L 153.803752 260.446973 
L 153.109202 260.158896 
L 152.227429 259.364467 
L 151.041778 259.641753 
L 150.316227 259.583964 
L 150.415748 259.348262 
L 149.879614 259.032422 
L 149.383716 258.82637 
L 149.077949 259.011038 
L 148.406716 258.800224 
L 148.046492 258.212039 
L 147.651939 257.970014 
L 146.972467 256.216132 
L 147.194678 255.412225 
L 147.383425 253.990332 
L 146.184963 253.842152 
L 144.508105 252.870721 
L 142.935519 252.67311 
L 142.367346 252.387383 
L 140.677538 252.803086 
L 139.97455 252.860498 
L 139.556648 252.578754 
L 138.199641 252.73323 
L 137.238892 252.165927 
L 136.624582 250.87558 
L 136.417049 250.252523 
L 135.802626 249.849192 
L 135.371168 249.181088 
L 135.332243 248.794267 
L 135.725202 248.188464 
L 135.539529 247.681713 
L 135.885718 246.958848 
L 135.498916 246.484878 
L 135.02046 246.586787 
L 134.330765 247.068244 
L 133.80559 247.053004 
L 133.710803 246.008853 
L 133.510768 246.003033 
L 132.638782 245.013334 
L 132.131987 245.229918 
L 131.484212 245.133755 
L 130.881921 244.344597 
L 129.684461 243.383451 
L 128.60163 243.621214 
L 128.099039 244.53191 
L 128.145224 245.497578 
L 128.056384 245.631464 
L 126.235995 239.114421 
L 135.557187 228.011662 
L 135.752187 221.26762 
L 132.272198 211.600635 
" clip-path="url(#p60fb5bf6d1)" style="fill: none; stroke: #8f8f8f; stroke-width: 0.2; stroke-linecap: square"/>
   </g>
   <g id="line2d_11">
    <path d="M 132.272198 211.600635 
L 128.920753 211.269521 
L 128.448729 210.406779 
L 128.851322 208.606031 
L 128.545446 208.018273 
L 128.669852 206.363453 
L 127.838231 205.065545 
L 128.5752 204.547761 
L 128.875194 203.669645 
L 128.902986 202.744773 
L 129.766144 202.153521 
L 129.184425 200.824672 
L 129.618202 200.45197 
L 131.323861 200.772844 
L 132.057817 200.331758 
L 131.805186 199.630009 
L 130.941041 198.601507 
L 130.038512 198.034585 
L 128.901119 197.846185 
L 127.615674 196.804537 
L 128.925678 195.378371 
L 129.841025 194.673006 
L 130.198798 194.336577 
L 130.30143 192.565388 
L 130.960183 192.122207 
L 131.462415 191.095753 
L 131.149644 189.929325 
L 131.938153 188.448522 
L 132.523177 187.964448 
L 133.34804 187.75739 
L 134.381249 188.057755 
L 134.915353 187.610556 
L 134.761012 186.950354 
L 135.119268 186.575132 
L 135.66564 186.552504 
L 136.79878 185.968313 
L 137.364848 184.403349 
L 136.437912 183.875099 
L 136.113497 183.09428 
L 135.973846 182.78166 
L 135.793599 181.310765 
L 136.128994 180.857698 
L 138.440424 179.767489 
L 139.173423 178.400049 
L 139.163028 177.898356 
L 140.239951 176.617802 
L 140.204743 176.115405 
L 139.223346 174.93028 
L 139.140966 174.349383 
L 139.462111 173.510073 
L 140.700468 172.619781 
L 141.515532 172.681498 
L 142.098527 172.196607 
L 142.287958 171.623432 
L 142.120626 170.538794 
L 142.437977 169.814959 
L 142.888623 168.747751 
L 142.992061 167.709323 
L 143.663803 166.686859 
L 144.795089 166.024276 
L 148.488658 164.776398 
L 148.882357 162.12603 
L 149.395091 161.4458 
L 149.152391 161.284923 
L 149.025827 159.584527 
L 150.130703 158.920379 
L 152.031121 158.971647 
L 154.181268 157.987718 
L 154.651152 157.961595 
L 154.675829 157.962247 
L 155.038866 158.241796 
L 155.214254 160.020442 
L 155.670097 160.533789 
L 157.210295 161.152562 
L 157.860895 161.786514 
L 158.4041 161.800583 
L 159.129075 161.472208 
L 159.515269 160.865106 
L 159.72271 159.520668 
L 162.110101 159.851478 
L 162.355965 159.896261 
L 163.22424 160.727994 
L 162.712039 161.447816 
L 163.134164 162.345418 
L 162.583535 163.604165 
L 163.372444 164.665242 
L 164.465764 165.425301 
L 164.456157 165.810699 
L 169.626044 190.347699 
L 169.439966 192.926919 
L 179.338868 203.029162 
L 165.925016 210.773383 
L 132.272198 211.600635 
" clip-path="url(#p60fb5bf6d1)" style="fill: none; stroke: #8f8f8f; stroke-width: 0.2; stroke-linecap: square"/>
   </g>
   <g id="line2d_12">
    <path d="M 164.456157 165.810699 
L 171.275023 165.977177 
L 170.350267 179.798955 
L 169.626044 190.347699 
L 164.456157 165.810699 
" clip-path="url(#p60fb5bf6d1)" style="fill: none; stroke: #8f8f8f; stroke-width: 0.2; stroke-linecap: square"/>
   </g>
   <g id="line2d_13">
    <path d="M 181.704934 201.69385 
L 179.338868 203.029162 
L 169.439966 192.926919 
L 181.704934 201.69385 
" clip-path="url(#p60fb5bf6d1)" style="fill: none; stroke: #8f8f8f; stroke-width: 0.2; stroke-linecap: square"/>
   </g>
   <g id="line2d_14">
    <path d="M 169.439966 192.926919 
L 181.704934 201.69385 
L 196.029756 211.05724 
L 201.215039 214.436271 
L 200.968391 206.565844 
L 199.428022 205.225023 
L 170.350267 179.798955 
L 169.439966 192.926919 
" clip-path="url(#p60fb5bf6d1)" style="fill: none; stroke: #8f8f8f; stroke-width: 0.2; stroke-linecap: square"/>
   </g>
   <g id="line2d_15">
    <path d="M 196.029756 211.05724 
L 201.215039 214.436271 
L 201.927862 233.274334 
L 201.882998 234.267488 
L 202.353302 249.005336 
L 196.329234 252.474697 
L 188.783727 235.008 
L 196.029756 211.05724 
" clip-path="url(#p60fb5bf6d1)" style="fill: none; stroke: #8f8f8f; stroke-width: 0.2; stroke-linecap: square"/>
   </g>
   <g id="line2d_16">
    <path d="M 201.882998 234.267488 
L 250.768334 231.705012 
L 265.781665 227.239139 
L 286.729328 226.635832 
L 345.152067 232.695239 
L 347.35692 246.027597 
L 347.474029 272.240272 
L 360.889753 291.852913 
L 350.557794 313.094143 
L 336.176285 324.68707 
L 334.786586 322.554394 
L 332.198378 321.930386 
L 331.970495 321.566152 
L 331.4303 321.747464 
L 331.216066 321.080196 
L 329.691327 320.533245 
L 327.960316 320.879103 
L 325.312615 316.765227 
L 324.093324 316.636664 
L 322.18508 318.800858 
L 318.064573 319.823763 
L 315.122922 318.119821 
L 311.359082 315.635241 
L 305.805488 318.286632 
L 296.644003 316.882544 
L 296.627774 314.105274 
L 287.279897 310.334165 
L 283.732318 304.998712 
L 285.369512 302.817631 
L 284.130777 301.405001 
L 279.852743 299.099197 
L 272.696379 300.616034 
L 272.264537 304.40701 
L 265.990856 308.330359 
L 253.867347 307.516222 
L 249.093385 302.629041 
L 246.910102 303.558923 
L 247.691283 306.011141 
L 243.870525 308.181624 
L 242.65714 297.374591 
L 234.074367 293.136167 
L 224.776746 294.286227 
L 226.55617 299.646856 
L 224.336917 302.861161 
L 219.759462 300.10445 
L 216.3284 300.688944 
L 214.316934 295.912617 
L 213.276185 293.427221 
L 211.894391 293.290815 
L 210.256772 287.615506 
L 208.983677 287.646962 
L 209.923446 284.731334 
L 208.267554 284.256554 
L 206.876007 282.445897 
L 202.604888 278.565744 
L 203.061937 277.508559 
L 200.410203 274.639474 
L 201.295826 273.514619 
L 202.630371 274.730086 
L 203.926874 272.381064 
L 202.080148 272.287113 
L 201.872056 269.825885 
L 199.943983 268.932412 
L 199.772816 268.697776 
L 203.008957 268.759173 
L 202.353302 249.005336 
L 201.882998 234.267488 
" clip-path="url(#p60fb5bf6d1)" style="fill: none; stroke: #8f8f8f; stroke-width: 0.2; stroke-linecap: square"/>
   </g>
   <g id="line2d_17">
    <path d="M 302.880034 209.142661 
L 303.50026 209.492084 
L 324.078657 220.952277 
L 345.152067 232.695239 
L 286.729328 226.635832 
L 302.880034 209.142661 
" clip-path="url(#p60fb5bf6d1)" style="fill: none; stroke: #8f8f8f; stroke-width: 0.2; stroke-linecap: square"/>
   </g>
   <g id="line2d_18">
    <path d="M 201.882998 234.267488 
L 202.353302 249.005336 
L 203.008957 268.759173 
L 199.40737 260.323615 
L 196.329234 252.474697 
L 188.783727 235.008 
L 201.882998 234.267488 
" clip-path="url(#p60fb5bf6d1)" style="fill: none; stroke: #8f8f8f; stroke-width: 0.2; stroke-linecap: square"/>
   </g>
   <g id="line2d_19">
    <path d="M 316.286658 88.836853 
L 336.725705 115.562282 
L 351.656469 108.206071 
L 356.833399 116.629217 
L 363.137417 126.854558 
L 361.27738 133.416869 
L 356.665004 141.840561 
L 347.860509 144.606969 
L 318.714402 153.641163 
L 304.27199 158.110725 
L 301.70237 158.90973 
L 298.068665 149.949985 
L 291.775295 134.497088 
L 305.122398 129.010129 
L 294.761267 105.062375 
L 293.111177 102.509024 
L 305.175503 95.665699 
L 305.592026 95.397427 
L 316.286658 88.836853 
" clip-path="url(#p60fb5bf6d1)" style="fill: none; stroke: #8f8f8f; stroke-width: 0.2; stroke-linecap: square"/>
   </g>
   <g id="line2d_20">
    <path d="M 293.111177 102.509024 
L 294.761267 105.062375 
L 305.122398 129.010129 
L 291.775295 134.497088 
L 286.645813 121.898299 
L 283.045374 114.048 
L 280.824807 109.444306 
L 293.111177 102.509024 
" clip-path="url(#p60fb5bf6d1)" style="fill: none; stroke: #8f8f8f; stroke-width: 0.2; stroke-linecap: square"/>
   </g>
   <g id="line2d_21">
    <path d="M 170.350267 179.798955 
L 171.275023 165.977177 
L 171.766305 158.854864 
L 172.490194 148.151767 
L 172.522172 147.844029 
L 183.318306 137.912194 
L 187.219431 127.123766 
L 208.643465 119.224975 
L 225.545638 114.888602 
L 228.496932 114.317994 
L 234.675952 146.564109 
L 238.281042 165.582992 
L 240.980493 179.884061 
L 250.768334 231.705012 
L 201.882998 234.267488 
L 201.927862 233.274334 
L 201.215039 214.436271 
L 200.968391 206.565844 
L 199.428022 205.225023 
L 170.350267 179.798955 
L 170.350267 179.798955 
" clip-path="url(#p60fb5bf6d1)" style="fill: none; stroke: #ffc380; stroke-width: 0.5; stroke-linecap: square"/>
   </g>
   <g id="line2d_22">
    <path d="M 250.768334 231.705012 
L 240.980493 179.884061 
L 238.281042 165.582992 
L 234.675952 146.564109 
L 228.496932 114.317994 
L 234.626194 114.332745 
L 264.145482 114.116857 
L 283.045374 114.048 
L 286.645813 121.898299 
L 291.775295 134.497088 
L 298.068665 149.949985 
L 301.70237 158.90973 
L 302.182353 179.804784 
L 302.520492 193.837644 
L 302.880034 209.142661 
L 286.729328 226.635832 
L 265.781665 227.239139 
L 250.768334 231.705012 
L 250.768334 231.705012 
" clip-path="url(#p60fb5bf6d1)" style="fill: none; stroke: #ffc380; stroke-width: 0.5; stroke-linecap: square"/>
   </g>
   <g id="line2d_23">
    <path d="M 169.439966 192.926919 
L 169.626044 190.347699 
L 170.350267 179.798955 
L 199.428022 205.225023 
L 200.968391 206.565844 
L 201.215039 214.436271 
L 201.927862 233.274334 
L 201.882998 234.267488 
L 188.783727 235.008 
L 196.029756 211.05724 
L 181.704934 201.69385 
L 169.439966 192.926919 
L 169.439966 192.926919 
" clip-path="url(#p60fb5bf6d1)" style="fill: none; stroke: #ffc380; stroke-width: 0.5; stroke-linecap: square"/>
   </g>
   <g id="text_1">
    <!-- ADF8 -->
    <g style="opacity: 0.5" transform="translate(358.22231 143.866812)scale(0.0579 -0.0579)">
     <defs>
      <path id="DejaVuSans-41" d="M 2188 4044 
L 1331 1722 
L 3047 1722 
L 2188 4044 
z
M 1831 4666 
L 2547 4666 
L 4325 0 
L 3669 0 
L 3244 1197 
L 1141 1197 
L 716 0 
L 50 0 
L 1831 4666 
z
" transform="scale(0.015625)"/>
      <path id="DejaVuSans-44" d="M 1259 4147 
L 1259 519 
L 2022 519 
Q 2988 519 3436 956 
Q 3884 1394 3884 2338 
Q 3884 3275 3436 3711 
Q 2988 4147 2022 4147 
L 1259 4147 
z
M 628 4666 
L 1925 4666 
Q 3281 4666 3915 4102 
Q 4550 3538 4550 2338 
Q 4550 1131 3912 565 
Q 3275 0 1925 0 
L 628 0 
L 628 4666 
z
" transform="scale(0.015625)"/>
      <path id="DejaVuSans-46" d="M 628 4666 
L 3309 4666 
L 3309 4134 
L 1259 4134 
L 1259 2759 
L 3109 2759 
L 3109 2228 
L 1259 2228 
L 1259 0 
L 628 0 
L 628 4666 
z
" transform="scale(0.015625)"/>
      <path id="DejaVuSans-38" d="M 2034 2216 
Q 1584 2216 1326 1975 
Q 1069 1734 1069 1313 
Q 1069 891 1326 650 
Q 1584 409 2034 409 
Q 2484 409 2743 651 
Q 3003 894 3003 1313 
Q 3003 1734 2745 1975 
Q 2488 2216 2034 2216 
z
M 1403 2484 
Q 997 2584 770 2862 
Q 544 3141 544 3541 
Q 544 4100 942 4425 
Q 1341 4750 2034 4750 
Q 2731 4750 3128 4425 
Q 3525 4100 3525 3541 
Q 3525 3141 3298 2862 
Q 3072 2584 2669 2484 
Q 3125 2378 3379 2068 
Q 3634 1759 3634 1313 
Q 3634 634 3220 271 
Q 2806 -91 2034 -91 
Q 1263 -91 848 271 
Q 434 634 434 1313 
Q 434 1759 690 2068 
Q 947 2378 1403 2484 
z
M 1172 3481 
Q 1172 3119 1398 2916 
Q 1625 2713 2034 2713 
Q 2441 2713 2670 2916 
Q 2900 3119 2900 3481 
Q 2900 3844 2670 4047 
Q 2441 4250 2034 4250 
Q 1625 4250 1398 4047 
Q 1172 3844 1172 3481 
z
" transform="scale(0.015625)"/>
     </defs>
     <use xlink:href="#DejaVuSans-41"/>
     <use xlink:href="#DejaVuSans-44" x="68.408203"/>
     <use xlink:href="#DejaVuSans-46" x="145.410156"/>
     <use xlink:href="#DejaVuSans-38" x="202.929688"/>
    </g>
    <!-- 135 -->
    <g style="opacity: 0.5" transform="translate(360.413011 150.350345)scale(0.0579 -0.0579)">
     <defs>
      <path id="DejaVuSans-31" d="M 794 531 
L 1825 531 
L 1825 4091 
L 703 3866 
L 703 4441 
L 1819 4666 
L 2450 4666 
L 2450 531 
L 3481 531 
L 3481 0 
L 794 0 
L 794 531 
z
" transform="scale(0.015625)"/>
      <path id="DejaVuSans-33" d="M 2597 2516 
Q 3050 2419 3304 2112 
Q 3559 1806 3559 1356 
Q 3559 666 3084 287 
Q 2609 -91 1734 -91 
Q 1441 -91 1130 -33 
Q 819 25 488 141 
L 488 750 
Q 750 597 1062 519 
Q 1375 441 1716 441 
Q 2309 441 2620 675 
Q 2931 909 2931 1356 
Q 2931 1769 2642 2001 
Q 2353 2234 1838 2234 
L 1294 2234 
L 1294 2753 
L 1863 2753 
Q 2328 2753 2575 2939 
Q 2822 3125 2822 3475 
Q 2822 3834 2567 4026 
Q 2313 4219 1838 4219 
Q 1578 4219 1281 4162 
Q 984 4106 628 3988 
L 628 4550 
Q 988 4650 1302 4700 
Q 1616 4750 1894 4750 
Q 2613 4750 3031 4423 
Q 3450 4097 3450 3541 
Q 3450 3153 3228 2886 
Q 3006 2619 2597 2516 
z
" transform="scale(0.015625)"/>
      <path id="DejaVuSans-35" d="M 691 4666 
L 3169 4666 
L 3169 4134 
L 1269 4134 
L 1269 2991 
Q 1406 3038 1543 3061 
Q 1681 3084 1819 3084 
Q 2600 3084 3056 2656 
Q 3513 2228 3513 1497 
Q 3513 744 3044 326 
Q 2575 -91 1722 -91 
Q 1428 -91 1123 -41 
Q 819 9 494 109 
L 494 744 
Q 775 591 1075 516 
Q 1375 441 1709 441 
Q 2250 441 2565 725 
Q 2881 1009 2881 1497 
Q 2881 1984 2565 2268 
Q 2250 2553 1709 2553 
Q 1456 2553 1204 2497 
Q 953 2441 691 2322 
L 691 4666 
z
" transform="scale(0.015625)"/>
     </defs>
     <use xlink:href="#DejaVuSans-31"/>
     <use xlink:href="#DejaVuSans-33" x="63.623047"/>
     <use xlink:href="#DejaVuSans-35" x="127.246094"/>
    </g>
    <!-- GND -->
    <g style="opacity: 0.5" transform="translate(359.300697 156.833879)scale(0.0579 -0.0579)">
     <defs>
      <path id="DejaVuSans-47" d="M 3809 666 
L 3809 1919 
L 2778 1919 
L 2778 2438 
L 4434 2438 
L 4434 434 
Q 4069 175 3628 42 
Q 3188 -91 2688 -91 
Q 1594 -91 976 548 
Q 359 1188 359 2328 
Q 359 3472 976 4111 
Q 1594 4750 2688 4750 
Q 3144 4750 3555 4637 
Q 3966 4525 4313 4306 
L 4313 3634 
Q 3963 3931 3569 4081 
Q 3175 4231 2741 4231 
Q 1884 4231 1454 3753 
Q 1025 3275 1025 2328 
Q 1025 1384 1454 906 
Q 1884 428 2741 428 
Q 3075 428 3337 486 
Q 3600 544 3809 666 
z
" transform="scale(0.015625)"/>
      <path id="DejaVuSans-4e" d="M 628 4666 
L 1478 4666 
L 3547 763 
L 3547 4666 
L 4159 4666 
L 4159 0 
L 3309 0 
L 1241 3903 
L 1241 0 
L 628 0 
L 628 4666 
z
" transform="scale(0.015625)"/>
     </defs>
     <use xlink:href="#DejaVuSans-47"/>
     <use xlink:href="#DejaVuSans-4e" x="77.490234"/>
     <use xlink:href="#DejaVuSans-44" x="152.294922"/>
    </g>
   </g>
   <g id="text_2">
    <!-- DKA1 -->
    <g style="opacity: 0.5" transform="translate(274.143033 66.667225)scale(0.0579 -0.0579)">
     <defs>
      <path id="DejaVuSans-4b" d="M 628 4666 
L 1259 4666 
L 1259 2694 
L 3353 4666 
L 4166 4666 
L 1850 2491 
L 4331 0 
L 3500 0 
L 1259 2247 
L 1259 0 
L 628 0 
L 628 4666 
z
" transform="scale(0.015625)"/>
     </defs>
     <use xlink:href="#DejaVuSans-44"/>
     <use xlink:href="#DejaVuSans-4b" x="77.001953"/>
     <use xlink:href="#DejaVuSans-41" x="140.828125"/>
     <use xlink:href="#DejaVuSans-31" x="209.236328"/>
    </g>
    <!-- 145 -->
    <g style="opacity: 0.5" transform="translate(276.516481 73.150759)scale(0.0579 -0.0579)">
     <defs>
      <path id="DejaVuSans-34" d="M 2419 4116 
L 825 1625 
L 2419 1625 
L 2419 4116 
z
M 2253 4666 
L 3047 4666 
L 3047 1625 
L 3713 1625 
L 3713 1100 
L 3047 1100 
L 3047 0 
L 2419 0 
L 2419 1100 
L 313 1100 
L 313 1709 
L 2253 4666 
z
" transform="scale(0.015625)"/>
     </defs>
     <use xlink:href="#DejaVuSans-31"/>
     <use xlink:href="#DejaVuSans-34" x="63.623047"/>
     <use xlink:href="#DejaVuSans-35" x="127.246094"/>
    </g>
    <!-- GND -->
    <g style="opacity: 0.5" transform="translate(275.404168 79.634292)scale(0.0579 -0.0579)">
     <use xlink:href="#DejaVuSans-47"/>
     <use xlink:href="#DejaVuSans-4e" x="77.490234"/>
     <use xlink:href="#DejaVuSans-44" x="152.294922"/>
    </g>
   </g>
   <g id="text_3">
    <!-- DKA2 -->
    <g style="opacity: 0.5" transform="translate(191.746305 100.670489)scale(0.0579 -0.0579)">
     <defs>
      <path id="DejaVuSans-32" d="M 1228 531 
L 3431 531 
L 3431 0 
L 469 0 
L 469 531 
Q 828 903 1448 1529 
Q 2069 2156 2228 2338 
Q 2531 2678 2651 2914 
Q 2772 3150 2772 3378 
Q 2772 3750 2511 3984 
Q 2250 4219 1831 4219 
Q 1534 4219 1204 4116 
Q 875 4013 500 3803 
L 500 4441 
Q 881 4594 1212 4672 
Q 1544 4750 1819 4750 
Q 2544 4750 2975 4387 
Q 3406 4025 3406 3419 
Q 3406 3131 3298 2873 
Q 3191 2616 2906 2266 
Q 2828 2175 2409 1742 
Q 1991 1309 1228 531 
z
" transform="scale(0.015625)"/>
     </defs>
     <use xlink:href="#DejaVuSans-44"/>
     <use xlink:href="#DejaVuSans-4b" x="77.001953"/>
     <use xlink:href="#DejaVuSans-41" x="140.828125"/>
     <use xlink:href="#DejaVuSans-32" x="209.236328"/>
    </g>
    <!-- 195 -->
    <g style="opacity: 0.5" transform="translate(194.119752 107.154023)scale(0.0579 -0.0579)">
     <defs>
      <path id="DejaVuSans-39" d="M 703 97 
L 703 672 
Q 941 559 1184 500 
Q 1428 441 1663 441 
Q 2288 441 2617 861 
Q 2947 1281 2994 2138 
Q 2813 1869 2534 1725 
Q 2256 1581 1919 1581 
Q 1219 1581 811 2004 
Q 403 2428 403 3163 
Q 403 3881 828 4315 
Q 1253 4750 1959 4750 
Q 2769 4750 3195 4129 
Q 3622 3509 3622 2328 
Q 3622 1225 3098 567 
Q 2575 -91 1691 -91 
Q 1453 -91 1209 -44 
Q 966 3 703 97 
z
M 1959 2075 
Q 2384 2075 2632 2365 
Q 2881 2656 2881 3163 
Q 2881 3666 2632 3958 
Q 2384 4250 1959 4250 
Q 1534 4250 1286 3958 
Q 1038 3666 1038 3163 
Q 1038 2656 1286 2365 
Q 1534 2075 1959 2075 
z
" transform="scale(0.015625)"/>
     </defs>
     <use xlink:href="#DejaVuSans-31"/>
     <use xlink:href="#DejaVuSans-39" x="63.623047"/>
     <use xlink:href="#DejaVuSans-35" x="127.246094"/>
    </g>
    <!-- GND -->
    <g style="opacity: 0.5" transform="translate(193.007439 113.637556)scale(0.0579 -0.0579)">
     <use xlink:href="#DejaVuSans-47"/>
     <use xlink:href="#DejaVuSans-4e" x="77.490234"/>
     <use xlink:href="#DejaVuSans-44" x="152.294922"/>
    </g>
   </g>
   <g id="text_4">
    <!-- EBBU_E_CTR LOWER -->
    <g style="opacity: 0.5" transform="translate(71.836941 101.892591)scale(0.0579 -0.0579)">
     <defs>
      <path id="DejaVuSans-45" d="M 628 4666 
L 3578 4666 
L 3578 4134 
L 1259 4134 
L 1259 2753 
L 3481 2753 
L 3481 2222 
L 1259 2222 
L 1259 531 
L 3634 531 
L 3634 0 
L 628 0 
L 628 4666 
z
" transform="scale(0.015625)"/>
      <path id="DejaVuSans-42" d="M 1259 2228 
L 1259 519 
L 2272 519 
Q 2781 519 3026 730 
Q 3272 941 3272 1375 
Q 3272 1813 3026 2020 
Q 2781 2228 2272 2228 
L 1259 2228 
z
M 1259 4147 
L 1259 2741 
L 2194 2741 
Q 2656 2741 2882 2914 
Q 3109 3088 3109 3444 
Q 3109 3797 2882 3972 
Q 2656 4147 2194 4147 
L 1259 4147 
z
M 628 4666 
L 2241 4666 
Q 2963 4666 3353 4366 
Q 3744 4066 3744 3513 
Q 3744 3084 3544 2831 
Q 3344 2578 2956 2516 
Q 3422 2416 3680 2098 
Q 3938 1781 3938 1306 
Q 3938 681 3513 340 
Q 3088 0 2303 0 
L 628 0 
L 628 4666 
z
" transform="scale(0.015625)"/>
      <path id="DejaVuSans-55" d="M 556 4666 
L 1191 4666 
L 1191 1831 
Q 1191 1081 1462 751 
Q 1734 422 2344 422 
Q 2950 422 3222 751 
Q 3494 1081 3494 1831 
L 3494 4666 
L 4128 4666 
L 4128 1753 
Q 4128 841 3676 375 
Q 3225 -91 2344 -91 
Q 1459 -91 1007 375 
Q 556 841 556 1753 
L 556 4666 
z
" transform="scale(0.015625)"/>
      <path id="DejaVuSans-5f" d="M 3263 -1063 
L 3263 -1509 
L -63 -1509 
L -63 -1063 
L 3263 -1063 
z
" transform="scale(0.015625)"/>
      <path id="DejaVuSans-43" d="M 4122 4306 
L 4122 3641 
Q 3803 3938 3442 4084 
Q 3081 4231 2675 4231 
Q 1875 4231 1450 3742 
Q 1025 3253 1025 2328 
Q 1025 1406 1450 917 
Q 1875 428 2675 428 
Q 3081 428 3442 575 
Q 3803 722 4122 1019 
L 4122 359 
Q 3791 134 3420 21 
Q 3050 -91 2638 -91 
Q 1578 -91 968 557 
Q 359 1206 359 2328 
Q 359 3453 968 4101 
Q 1578 4750 2638 4750 
Q 3056 4750 3426 4639 
Q 3797 4528 4122 4306 
z
" transform="scale(0.015625)"/>
      <path id="DejaVuSans-54" d="M -19 4666 
L 3928 4666 
L 3928 4134 
L 2272 4134 
L 2272 0 
L 1638 0 
L 1638 4134 
L -19 4134 
L -19 4666 
z
" transform="scale(0.015625)"/>
      <path id="DejaVuSans-52" d="M 2841 2188 
Q 3044 2119 3236 1894 
Q 3428 1669 3622 1275 
L 4263 0 
L 3584 0 
L 2988 1197 
Q 2756 1666 2539 1819 
Q 2322 1972 1947 1972 
L 1259 1972 
L 1259 0 
L 628 0 
L 628 4666 
L 2053 4666 
Q 2853 4666 3247 4331 
Q 3641 3997 3641 3322 
Q 3641 2881 3436 2590 
Q 3231 2300 2841 2188 
z
M 1259 4147 
L 1259 2491 
L 2053 2491 
Q 2509 2491 2742 2702 
Q 2975 2913 2975 3322 
Q 2975 3731 2742 3939 
Q 2509 4147 2053 4147 
L 1259 4147 
z
" transform="scale(0.015625)"/>
      <path id="DejaVuSans-20" transform="scale(0.015625)"/>
      <path id="DejaVuSans-4c" d="M 628 4666 
L 1259 4666 
L 1259 531 
L 3531 531 
L 3531 0 
L 628 0 
L 628 4666 
z
" transform="scale(0.015625)"/>
      <path id="DejaVuSans-4f" d="M 2522 4238 
Q 1834 4238 1429 3725 
Q 1025 3213 1025 2328 
Q 1025 1447 1429 934 
Q 1834 422 2522 422 
Q 3209 422 3611 934 
Q 4013 1447 4013 2328 
Q 4013 3213 3611 3725 
Q 3209 4238 2522 4238 
z
M 2522 4750 
Q 3503 4750 4090 4092 
Q 4678 3434 4678 2328 
Q 4678 1225 4090 567 
Q 3503 -91 2522 -91 
Q 1538 -91 948 565 
Q 359 1222 359 2328 
Q 359 3434 948 4092 
Q 1538 4750 2522 4750 
z
" transform="scale(0.015625)"/>
      <path id="DejaVuSans-57" d="M 213 4666 
L 850 4666 
L 1831 722 
L 2809 4666 
L 3519 4666 
L 4500 722 
L 5478 4666 
L 6119 4666 
L 4947 0 
L 4153 0 
L 3169 4050 
L 2175 0 
L 1381 0 
L 213 4666 
z
" transform="scale(0.015625)"/>
     </defs>
     <use xlink:href="#DejaVuSans-45"/>
     <use xlink:href="#DejaVuSans-42" x="63.183594"/>
     <use xlink:href="#DejaVuSans-42" x="131.787109"/>
     <use xlink:href="#DejaVuSans-55" x="200.390625"/>
     <use xlink:href="#DejaVuSans-5f" x="273.583984"/>
     <use xlink:href="#DejaVuSans-45" x="323.583984"/>
     <use xlink:href="#DejaVuSans-5f" x="386.767578"/>
     <use xlink:href="#DejaVuSans-43" x="436.767578"/>
     <use xlink:href="#DejaVuSans-54" x="506.591797"/>
     <use xlink:href="#DejaVuSans-52" x="567.675781"/>
     <use xlink:href="#DejaVuSans-20" x="637.158203"/>
     <use xlink:href="#DejaVuSans-4c" x="668.945312"/>
     <use xlink:href="#DejaVuSans-4f" x="721.033203"/>
     <use xlink:href="#DejaVuSans-57" x="799.744141"/>
     <use xlink:href="#DejaVuSans-45" x="898.621094"/>
     <use xlink:href="#DejaVuSans-52" x="961.804688"/>
    </g>
    <!-- 95 -->
    <g style="opacity: 0.5" transform="translate(98.00955 108.537159)scale(0.0579 -0.0579)">
     <use xlink:href="#DejaVuSans-39"/>
     <use xlink:href="#DejaVuSans-35" x="63.623047"/>
    </g>
    <!-- 75 -->
    <g style="opacity: 0.5" transform="translate(98.00955 115.020692)scale(0.0579 -0.0579)">
     <defs>
      <path id="DejaVuSans-37" d="M 525 4666 
L 3525 4666 
L 3525 4397 
L 1831 0 
L 1172 0 
L 2766 4134 
L 525 4134 
L 525 4666 
z
" transform="scale(0.015625)"/>
     </defs>
     <use xlink:href="#DejaVuSans-37"/>
     <use xlink:href="#DejaVuSans-35" x="63.623047"/>
    </g>
   </g>
   <g id="text_5">
    <!-- EBBU_E_CTR LOWEST -->
    <g style="opacity: 0.5" transform="translate(70.242429 159.721268)scale(0.0579 -0.0579)">
     <defs>
      <path id="DejaVuSans-53" d="M 3425 4513 
L 3425 3897 
Q 3066 4069 2747 4153 
Q 2428 4238 2131 4238 
Q 1616 4238 1336 4038 
Q 1056 3838 1056 3469 
Q 1056 3159 1242 3001 
Q 1428 2844 1947 2747 
L 2328 2669 
Q 3034 2534 3370 2195 
Q 3706 1856 3706 1288 
Q 3706 609 3251 259 
Q 2797 -91 1919 -91 
Q 1588 -91 1214 -16 
Q 841 59 441 206 
L 441 856 
Q 825 641 1194 531 
Q 1563 422 1919 422 
Q 2459 422 2753 634 
Q 3047 847 3047 1241 
Q 3047 1584 2836 1778 
Q 2625 1972 2144 2069 
L 1759 2144 
Q 1053 2284 737 2584 
Q 422 2884 422 3419 
Q 422 4038 858 4394 
Q 1294 4750 2059 4750 
Q 2388 4750 2728 4690 
Q 3069 4631 3425 4513 
z
" transform="scale(0.015625)"/>
     </defs>
     <use xlink:href="#DejaVuSans-45"/>
     <use xlink:href="#DejaVuSans-42" x="63.183594"/>
     <use xlink:href="#DejaVuSans-42" x="131.787109"/>
     <use xlink:href="#DejaVuSans-55" x="200.390625"/>
     <use xlink:href="#DejaVuSans-5f" x="273.583984"/>
     <use xlink:href="#DejaVuSans-45" x="323.583984"/>
     <use xlink:href="#DejaVuSans-5f" x="386.767578"/>
     <use xlink:href="#DejaVuSans-43" x="436.767578"/>
     <use xlink:href="#DejaVuSans-54" x="506.591797"/>
     <use xlink:href="#DejaVuSans-52" x="567.675781"/>
     <use xlink:href="#DejaVuSans-20" x="637.158203"/>
     <use xlink:href="#DejaVuSans-4c" x="668.945312"/>
     <use xlink:href="#DejaVuSans-4f" x="721.033203"/>
     <use xlink:href="#DejaVuSans-57" x="799.744141"/>
     <use xlink:href="#DejaVuSans-45" x="898.621094"/>
     <use xlink:href="#DejaVuSans-53" x="961.804688"/>
     <use xlink:href="#DejaVuSans-54" x="1025.28125"/>
    </g>
    <!-- 75 -->
    <g style="opacity: 0.5" transform="translate(98.00955 166.365836)scale(0.0579 -0.0579)">
     <use xlink:href="#DejaVuSans-37"/>
     <use xlink:href="#DejaVuSans-35" x="63.623047"/>
    </g>
    <!-- 45 -->
    <g style="opacity: 0.5" transform="translate(98.00955 172.849369)scale(0.0579 -0.0579)">
     <use xlink:href="#DejaVuSans-34"/>
     <use xlink:href="#DejaVuSans-35" x="63.623047"/>
    </g>
   </g>
   <g id="text_6">
    <!-- EBBU_E_CTR MEDIUM -->
    <g style="opacity: 0.5" transform="translate(68.349767 101.892591)scale(0.0579 -0.0579)">
     <defs>
      <path id="DejaVuSans-4d" d="M 628 4666 
L 1569 4666 
L 2759 1491 
L 3956 4666 
L 4897 4666 
L 4897 0 
L 4281 0 
L 4281 4097 
L 3078 897 
L 2444 897 
L 1241 4097 
L 1241 0 
L 628 0 
L 628 4666 
z
" transform="scale(0.015625)"/>
      <path id="DejaVuSans-49" d="M 628 4666 
L 1259 4666 
L 1259 0 
L 628 0 
L 628 4666 
z
" transform="scale(0.015625)"/>
     </defs>
     <use xlink:href="#DejaVuSans-45"/>
     <use xlink:href="#DejaVuSans-42" x="63.183594"/>
     <use xlink:href="#DejaVuSans-42" x="131.787109"/>
     <use xlink:href="#DejaVuSans-55" x="200.390625"/>
     <use xlink:href="#DejaVuSans-5f" x="273.583984"/>
     <use xlink:href="#DejaVuSans-45" x="323.583984"/>
     <use xlink:href="#DejaVuSans-5f" x="386.767578"/>
     <use xlink:href="#DejaVuSans-43" x="436.767578"/>
     <use xlink:href="#DejaVuSans-54" x="506.591797"/>
     <use xlink:href="#DejaVuSans-52" x="567.675781"/>
     <use xlink:href="#DejaVuSans-20" x="637.158203"/>
     <use xlink:href="#DejaVuSans-4d" x="668.945312"/>
     <use xlink:href="#DejaVuSans-45" x="755.224609"/>
     <use xlink:href="#DejaVuSans-44" x="818.408203"/>
     <use xlink:href="#DejaVuSans-49" x="895.410156"/>
     <use xlink:href="#DejaVuSans-55" x="924.902344"/>
     <use xlink:href="#DejaVuSans-4d" x="998.095703"/>
    </g>
    <!-- 195 -->
    <g style="opacity: 0.5" transform="translate(94.217044 108.537159)scale(0.0579 -0.0579)">
     <use xlink:href="#DejaVuSans-31"/>
     <use xlink:href="#DejaVuSans-39" x="63.623047"/>
     <use xlink:href="#DejaVuSans-35" x="127.246094"/>
    </g>
    <!-- 95 -->
    <g style="opacity: 0.5" transform="translate(96.058988 115.020692)scale(0.0579 -0.0579)">
     <use xlink:href="#DejaVuSans-39"/>
     <use xlink:href="#DejaVuSans-35" x="63.623047"/>
    </g>
   </g>
   <g id="text_7">
    <!-- ELLX TMA1A AND 5 -->
    <g style="opacity: 0.5" transform="translate(133.048209 226.184556)scale(0.0579 -0.0579)">
     <defs>
      <path id="DejaVuSans-58" d="M 403 4666 
L 1081 4666 
L 2241 2931 
L 3406 4666 
L 4084 4666 
L 2584 2425 
L 4184 0 
L 3506 0 
L 2194 1984 
L 872 0 
L 191 0 
L 1856 2491 
L 403 4666 
z
" transform="scale(0.015625)"/>
     </defs>
     <use xlink:href="#DejaVuSans-45"/>
     <use xlink:href="#DejaVuSans-4c" x="63.183594"/>
     <use xlink:href="#DejaVuSans-4c" x="118.896484"/>
     <use xlink:href="#DejaVuSans-58" x="174.609375"/>
     <use xlink:href="#DejaVuSans-20" x="243.115234"/>
     <use xlink:href="#DejaVuSans-54" x="274.902344"/>
     <use xlink:href="#DejaVuSans-4d" x="335.986328"/>
     <use xlink:href="#DejaVuSans-41" x="422.265625"/>
     <use xlink:href="#DejaVuSans-31" x="490.673828"/>
     <use xlink:href="#DejaVuSans-41" x="554.296875"/>
     <use xlink:href="#DejaVuSans-20" x="622.705078"/>
     <use xlink:href="#DejaVuSans-41" x="654.492188"/>
     <use xlink:href="#DejaVuSans-4e" x="722.900391"/>
     <use xlink:href="#DejaVuSans-44" x="797.705078"/>
     <use xlink:href="#DejaVuSans-20" x="874.707031"/>
     <use xlink:href="#DejaVuSans-35" x="906.494141"/>
    </g>
    <!-- 165 -->
    <g style="opacity: 0.5" transform="translate(155.607044 232.66809)scale(0.0579 -0.0579)">
     <defs>
      <path id="DejaVuSans-36" d="M 2113 2584 
Q 1688 2584 1439 2293 
Q 1191 2003 1191 1497 
Q 1191 994 1439 701 
Q 1688 409 2113 409 
Q 2538 409 2786 701 
Q 3034 994 3034 1497 
Q 3034 2003 2786 2293 
Q 2538 2584 2113 2584 
z
M 3366 4563 
L 3366 3988 
Q 3128 4100 2886 4159 
Q 2644 4219 2406 4219 
Q 1781 4219 1451 3797 
Q 1122 3375 1075 2522 
Q 1259 2794 1537 2939 
Q 1816 3084 2150 3084 
Q 2853 3084 3261 2657 
Q 3669 2231 3669 1497 
Q 3669 778 3244 343 
Q 2819 -91 2113 -91 
Q 1303 -91 875 529 
Q 447 1150 447 2328 
Q 447 3434 972 4092 
Q 1497 4750 2381 4750 
Q 2619 4750 2861 4703 
Q 3103 4656 3366 4563 
z
" transform="scale(0.015625)"/>
     </defs>
     <use xlink:href="#DejaVuSans-31"/>
     <use xlink:href="#DejaVuSans-36" x="63.623047"/>
     <use xlink:href="#DejaVuSans-35" x="127.246094"/>
    </g>
    <!-- 25 -->
    <g style="opacity: 0.5" transform="translate(157.448988 239.151623)scale(0.0579 -0.0579)">
     <use xlink:href="#DejaVuSans-32"/>
     <use xlink:href="#DejaVuSans-35" x="63.623047"/>
    </g>
   </g>
   <g id="text_8">
    <!-- ELLX TMA1B -->
    <g style="opacity: 0.5" transform="translate(135.444135 179.89526)scale(0.0579 -0.0579)">
     <use xlink:href="#DejaVuSans-45"/>
     <use xlink:href="#DejaVuSans-4c" x="63.183594"/>
     <use xlink:href="#DejaVuSans-4c" x="118.896484"/>
     <use xlink:href="#DejaVuSans-58" x="174.609375"/>
     <use xlink:href="#DejaVuSans-20" x="243.115234"/>
     <use xlink:href="#DejaVuSans-54" x="274.902344"/>
     <use xlink:href="#DejaVuSans-4d" x="335.986328"/>
     <use xlink:href="#DejaVuSans-41" x="422.265625"/>
     <use xlink:href="#DejaVuSans-31" x="490.673828"/>
     <use xlink:href="#DejaVuSans-42" x="554.296875"/>
    </g>
    <!-- 165 -->
    <g style="opacity: 0.5" transform="translate(147.95144 186.378793)scale(0.0579 -0.0579)">
     <use xlink:href="#DejaVuSans-31"/>
     <use xlink:href="#DejaVuSans-36" x="63.623047"/>
     <use xlink:href="#DejaVuSans-35" x="127.246094"/>
    </g>
    <!-- 25 -->
    <g style="opacity: 0.5" transform="translate(149.793384 192.862327)scale(0.0579 -0.0579)">
     <use xlink:href="#DejaVuSans-32"/>
     <use xlink:href="#DejaVuSans-35" x="63.623047"/>
    </g>
   </g>
   <g id="text_9">
    <!-- ELLX TMA2A -->
    <g style="opacity: 0.5" transform="translate(149.838334 173.193344)scale(0.0579 -0.0579)">
     <use xlink:href="#DejaVuSans-45"/>
     <use xlink:href="#DejaVuSans-4c" x="63.183594"/>
     <use xlink:href="#DejaVuSans-4c" x="118.896484"/>
     <use xlink:href="#DejaVuSans-58" x="174.609375"/>
     <use xlink:href="#DejaVuSans-20" x="243.115234"/>
     <use xlink:href="#DejaVuSans-54" x="274.902344"/>
     <use xlink:href="#DejaVuSans-4d" x="335.986328"/>
     <use xlink:href="#DejaVuSans-41" x="422.265625"/>
     <use xlink:href="#DejaVuSans-32" x="490.673828"/>
     <use xlink:href="#DejaVuSans-41" x="554.296875"/>
    </g>
    <!-- 145 -->
    <g style="opacity: 0.5" transform="translate(162.339759 179.676877)scale(0.0579 -0.0579)">
     <use xlink:href="#DejaVuSans-31"/>
     <use xlink:href="#DejaVuSans-34" x="63.623047"/>
     <use xlink:href="#DejaVuSans-35" x="127.246094"/>
    </g>
    <!-- 25 -->
    <g style="opacity: 0.5" transform="translate(164.181702 186.160411)scale(0.0579 -0.0579)">
     <use xlink:href="#DejaVuSans-32"/>
     <use xlink:href="#DejaVuSans-35" x="63.623047"/>
    </g>
   </g>
   <g id="text_10">
    <!-- ELLX TMA2B -->
    <g style="opacity: 0.5" transform="translate(157.539314 193.092185)scale(0.0579 -0.0579)">
     <use xlink:href="#DejaVuSans-45"/>
     <use xlink:href="#DejaVuSans-4c" x="63.183594"/>
     <use xlink:href="#DejaVuSans-4c" x="118.896484"/>
     <use xlink:href="#DejaVuSans-58" x="174.609375"/>
     <use xlink:href="#DejaVuSans-20" x="243.115234"/>
     <use xlink:href="#DejaVuSans-54" x="274.902344"/>
     <use xlink:href="#DejaVuSans-4d" x="335.986328"/>
     <use xlink:href="#DejaVuSans-41" x="422.265625"/>
     <use xlink:href="#DejaVuSans-32" x="490.673828"/>
     <use xlink:href="#DejaVuSans-42" x="554.296875"/>
    </g>
    <!-- 145 -->
    <g style="opacity: 0.5" transform="translate(170.046619 199.575719)scale(0.0579 -0.0579)">
     <use xlink:href="#DejaVuSans-31"/>
     <use xlink:href="#DejaVuSans-34" x="63.623047"/>
     <use xlink:href="#DejaVuSans-35" x="127.246094"/>
    </g>
    <!-- 22 -->
    <g style="opacity: 0.5" transform="translate(171.888563 206.059252)scale(0.0579 -0.0579)">
     <use xlink:href="#DejaVuSans-32"/>
     <use xlink:href="#DejaVuSans-32" x="63.623047"/>
    </g>
   </g>
   <g id="text_11">
    <!-- ELLX TMA2C -->
    <g style="opacity: 0.5" transform="translate(167.259084 192.231757)scale(0.0579 -0.0579)">
     <use xlink:href="#DejaVuSans-45"/>
     <use xlink:href="#DejaVuSans-4c" x="63.183594"/>
     <use xlink:href="#DejaVuSans-4c" x="118.896484"/>
     <use xlink:href="#DejaVuSans-58" x="174.609375"/>
     <use xlink:href="#DejaVuSans-20" x="243.115234"/>
     <use xlink:href="#DejaVuSans-54" x="274.902344"/>
     <use xlink:href="#DejaVuSans-4d" x="335.986328"/>
     <use xlink:href="#DejaVuSans-41" x="422.265625"/>
     <use xlink:href="#DejaVuSans-32" x="490.673828"/>
     <use xlink:href="#DejaVuSans-43" x="554.296875"/>
    </g>
    <!-- 95 -->
    <g style="opacity: 0.5" transform="translate(181.643615 198.715291)scale(0.0579 -0.0579)">
     <use xlink:href="#DejaVuSans-39"/>
     <use xlink:href="#DejaVuSans-35" x="63.623047"/>
    </g>
    <!-- GND -->
    <g style="opacity: 0.5" transform="translate(178.689358 205.198824)scale(0.0579 -0.0579)">
     <use xlink:href="#DejaVuSans-47"/>
     <use xlink:href="#DejaVuSans-4e" x="77.490234"/>
     <use xlink:href="#DejaVuSans-44" x="152.294922"/>
    </g>
   </g>
   <g id="text_12">
    <!-- ELLX TMA2E1 -->
    <g style="opacity: 0.5" transform="translate(175.850398 226.880113)scale(0.0579 -0.0579)">
     <use xlink:href="#DejaVuSans-45"/>
     <use xlink:href="#DejaVuSans-4c" x="63.183594"/>
     <use xlink:href="#DejaVuSans-4c" x="118.896484"/>
     <use xlink:href="#DejaVuSans-58" x="174.609375"/>
     <use xlink:href="#DejaVuSans-20" x="243.115234"/>
     <use xlink:href="#DejaVuSans-54" x="274.902344"/>
     <use xlink:href="#DejaVuSans-4d" x="335.986328"/>
     <use xlink:href="#DejaVuSans-41" x="422.265625"/>
     <use xlink:href="#DejaVuSans-32" x="490.673828"/>
     <use xlink:href="#DejaVuSans-45" x="554.296875"/>
     <use xlink:href="#DejaVuSans-31" x="617.480469"/>
    </g>
    <!-- 95 -->
    <g style="opacity: 0.5" transform="translate(191.884627 233.363647)scale(0.0579 -0.0579)">
     <use xlink:href="#DejaVuSans-39"/>
     <use xlink:href="#DejaVuSans-35" x="63.623047"/>
    </g>
    <!-- 22 -->
    <g style="opacity: 0.5" transform="translate(191.884627 239.84718)scale(0.0579 -0.0579)">
     <use xlink:href="#DejaVuSans-32"/>
     <use xlink:href="#DejaVuSans-32" x="63.623047"/>
    </g>
   </g>
   <g id="text_13">
    <!-- PFA1 -->
    <g style="opacity: 0.5" transform="translate(273.362477 270.775596)scale(0.0579 -0.0579)">
     <defs>
      <path id="DejaVuSans-50" d="M 1259 4147 
L 1259 2394 
L 2053 2394 
Q 2494 2394 2734 2622 
Q 2975 2850 2975 3272 
Q 2975 3691 2734 3919 
Q 2494 4147 2053 4147 
L 1259 4147 
z
M 628 4666 
L 2053 4666 
Q 2838 4666 3239 4311 
Q 3641 3956 3641 3272 
Q 3641 2581 3239 2228 
Q 2838 1875 2053 1875 
L 1259 1875 
L 1259 0 
L 628 0 
L 628 4666 
z
" transform="scale(0.015625)"/>
     </defs>
     <use xlink:href="#DejaVuSans-50"/>
     <use xlink:href="#DejaVuSans-46" x="60.302734"/>
     <use xlink:href="#DejaVuSans-41" x="108.697266"/>
     <use xlink:href="#DejaVuSans-31" x="177.105469"/>
    </g>
    <!-- 245 -->
    <g style="opacity: 0.5" transform="translate(274.805453 277.259129)scale(0.0579 -0.0579)">
     <use xlink:href="#DejaVuSans-32"/>
     <use xlink:href="#DejaVuSans-34" x="63.623047"/>
     <use xlink:href="#DejaVuSans-35" x="127.246094"/>
    </g>
    <!-- GND -->
    <g style="opacity: 0.5" transform="translate(273.69314 283.742663)scale(0.0579 -0.0579)">
     <use xlink:href="#DejaVuSans-47"/>
     <use xlink:href="#DejaVuSans-4e" x="77.490234"/>
     <use xlink:href="#DejaVuSans-44" x="152.294922"/>
    </g>
   </g>
   <g id="text_14">
    <!-- PFA2 -->
    <g style="opacity: 0.5" transform="translate(308.97189 216.033095)scale(0.0579 -0.0579)">
     <use xlink:href="#DejaVuSans-50"/>
     <use xlink:href="#DejaVuSans-46" x="60.302734"/>
     <use xlink:href="#DejaVuSans-41" x="108.697266"/>
     <use xlink:href="#DejaVuSans-32" x="177.105469"/>
    </g>
    <!-- 105 -->
    <g style="opacity: 0.5" transform="translate(310.414866 222.516628)scale(0.0579 -0.0579)">
     <defs>
      <path id="DejaVuSans-30" d="M 2034 4250 
Q 1547 4250 1301 3770 
Q 1056 3291 1056 2328 
Q 1056 1369 1301 889 
Q 1547 409 2034 409 
Q 2525 409 2770 889 
Q 3016 1369 3016 2328 
Q 3016 3291 2770 3770 
Q 2525 4250 2034 4250 
z
M 2034 4750 
Q 2819 4750 3233 4129 
Q 3647 3509 3647 2328 
Q 3647 1150 3233 529 
Q 2819 -91 2034 -91 
Q 1250 -91 836 529 
Q 422 1150 422 2328 
Q 422 3509 836 4129 
Q 1250 4750 2034 4750 
z
" transform="scale(0.015625)"/>
     </defs>
     <use xlink:href="#DejaVuSans-31"/>
     <use xlink:href="#DejaVuSans-30" x="63.623047"/>
     <use xlink:href="#DejaVuSans-35" x="127.246094"/>
    </g>
    <!-- GND -->
    <g style="opacity: 0.5" transform="translate(309.302553 229.000162)scale(0.0579 -0.0579)">
     <use xlink:href="#DejaVuSans-47"/>
     <use xlink:href="#DejaVuSans-4e" x="77.490234"/>
     <use xlink:href="#DejaVuSans-44" x="152.294922"/>
    </g>
   </g>
   <g id="text_15">
    <!-- PFA6 -->
    <g style="opacity: 0.5" transform="translate(188.927534 246.627475)scale(0.0579 -0.0579)">
     <use xlink:href="#DejaVuSans-50"/>
     <use xlink:href="#DejaVuSans-46" x="60.302734"/>
     <use xlink:href="#DejaVuSans-41" x="108.697266"/>
     <use xlink:href="#DejaVuSans-36" x="177.105469"/>
    </g>
    <!-- 245 -->
    <g style="opacity: 0.5" transform="translate(190.37051 253.111009)scale(0.0579 -0.0579)">
     <use xlink:href="#DejaVuSans-32"/>
     <use xlink:href="#DejaVuSans-34" x="63.623047"/>
     <use xlink:href="#DejaVuSans-35" x="127.246094"/>
    </g>
    <!-- 95 -->
    <g style="opacity: 0.5" transform="translate(192.212454 259.594542)scale(0.0579 -0.0579)">
     <use xlink:href="#DejaVuSans-39"/>
     <use xlink:href="#DejaVuSans-35" x="63.623047"/>
    </g>
   </g>
   <g id="text_16">
    <!-- TAU1 -->
    <g style="opacity: 0.5" transform="translate(319.971424 118.987437)scale(0.0579 -0.0579)">
     <use xlink:href="#DejaVuSans-54"/>
     <use xlink:href="#DejaVuSans-41" x="53.333984"/>
     <use xlink:href="#DejaVuSans-55" x="121.742188"/>
     <use xlink:href="#DejaVuSans-31" x="194.935547"/>
    </g>
    <!-- 245 -->
    <g style="opacity: 0.5" transform="translate(321.930525 125.47097)scale(0.0579 -0.0579)">
     <use xlink:href="#DejaVuSans-32"/>
     <use xlink:href="#DejaVuSans-34" x="63.623047"/>
     <use xlink:href="#DejaVuSans-35" x="127.246094"/>
    </g>
    <!-- GND -->
    <g style="opacity: 0.5" transform="translate(320.818211 131.954503)scale(0.0579 -0.0579)">
     <use xlink:href="#DejaVuSans-47"/>
     <use xlink:href="#DejaVuSans-4e" x="77.490234"/>
     <use xlink:href="#DejaVuSans-44" x="152.294922"/>
    </g>
   </g>
   <g id="text_17">
    <!-- TAU6 -->
    <g style="opacity: 0.5" transform="translate(285.48867 113.617201)scale(0.0579 -0.0579)">
     <use xlink:href="#DejaVuSans-54"/>
     <use xlink:href="#DejaVuSans-41" x="53.333984"/>
     <use xlink:href="#DejaVuSans-55" x="121.742188"/>
     <use xlink:href="#DejaVuSans-36" x="194.935547"/>
    </g>
    <!-- 205 -->
    <g style="opacity: 0.5" transform="translate(287.447771 120.100734)scale(0.0579 -0.0579)">
     <use xlink:href="#DejaVuSans-32"/>
     <use xlink:href="#DejaVuSans-30" x="63.623047"/>
     <use xlink:href="#DejaVuSans-35" x="127.246094"/>
    </g>
    <!-- GND -->
    <g style="opacity: 0.5" transform="translate(286.335458 126.584268)scale(0.0579 -0.0579)">
     <use xlink:href="#DejaVuSans-47"/>
     <use xlink:href="#DejaVuSans-4e" x="77.490234"/>
     <use xlink:href="#DejaVuSans-44" x="152.294922"/>
    </g>
   </g>
   <g id="text_18">
    <!-- EIF1 -->
    <g transform="translate(204.368976 169.406886)scale(0.0579 -0.0579)">
     <use xlink:href="#DejaVuSans-45"/>
     <use xlink:href="#DejaVuSans-49" x="63.183594"/>
     <use xlink:href="#DejaVuSans-46" x="92.675781"/>
     <use xlink:href="#DejaVuSans-31" x="150.195312"/>
    </g>
    <!-- 165 -->
    <g transform="translate(205.033469 175.890419)scale(0.0579 -0.0579)">
     <use xlink:href="#DejaVuSans-31"/>
     <use xlink:href="#DejaVuSans-36" x="63.623047"/>
     <use xlink:href="#DejaVuSans-35" x="127.246094"/>
    </g>
    <!-- GND -->
    <g transform="translate(203.921156 182.373953)scale(0.0579 -0.0579)">
     <use xlink:href="#DejaVuSans-47"/>
     <use xlink:href="#DejaVuSans-4e" x="77.490234"/>
     <use xlink:href="#DejaVuSans-44" x="152.294922"/>
    </g>
   </g>
   <g id="text_19">
    <!-- EIF2 -->
    <g transform="translate(259.498159 167.990651)scale(0.0579 -0.0579)">
     <use xlink:href="#DejaVuSans-45"/>
     <use xlink:href="#DejaVuSans-49" x="63.183594"/>
     <use xlink:href="#DejaVuSans-46" x="92.675781"/>
     <use xlink:href="#DejaVuSans-32" x="150.195312"/>
    </g>
    <!-- 105 -->
    <g transform="translate(260.162652 174.474184)scale(0.0579 -0.0579)">
     <use xlink:href="#DejaVuSans-31"/>
     <use xlink:href="#DejaVuSans-30" x="63.623047"/>
     <use xlink:href="#DejaVuSans-35" x="127.246094"/>
    </g>
    <!-- GND -->
    <g transform="translate(259.050339 180.957717)scale(0.0579 -0.0579)">
     <use xlink:href="#DejaVuSans-47"/>
     <use xlink:href="#DejaVuSans-4e" x="77.490234"/>
     <use xlink:href="#DejaVuSans-44" x="152.294922"/>
    </g>
   </g>
   <g id="text_20">
    <!-- EIF3 -->
    <g transform="translate(179.49359 202.517622)scale(0.0579 -0.0579)">
     <use xlink:href="#DejaVuSans-45"/>
     <use xlink:href="#DejaVuSans-49" x="63.183594"/>
     <use xlink:href="#DejaVuSans-46" x="92.675781"/>
     <use xlink:href="#DejaVuSans-33" x="150.195312"/>
    </g>
    <!-- 165 -->
    <g transform="translate(180.158083 209.001156)scale(0.0579 -0.0579)">
     <use xlink:href="#DejaVuSans-31"/>
     <use xlink:href="#DejaVuSans-36" x="63.623047"/>
     <use xlink:href="#DejaVuSans-35" x="127.246094"/>
    </g>
    <!-- 95 -->
    <g transform="translate(182.000027 215.484689)scale(0.0579 -0.0579)">
     <use xlink:href="#DejaVuSans-39"/>
     <use xlink:href="#DejaVuSans-35" x="63.623047"/>
    </g>
   </g>
  </g>
 </g>
 <defs>
  <clipPath id="p60fb5bf6d1">
   <rect x="89.375925" y="41.472" width="293.568149" height="266.112"/>
  </clipPath>
 </defs>
</svg>
