<?xml version="1.0" encoding="utf-8" standalone="no"?>
<!DOCTYPE svg PUBLIC "-//W3C//DTD SVG 1.1//EN"
  "http://www.w3.org/Graphics/SVG/1.1/DTD/svg11.dtd">
<svg xmlns:xlink="http://www.w3.org/1999/xlink" width="460.8pt" height="345.6pt" viewBox="0 0 460.8 345.6" xmlns="http://www.w3.org/2000/svg" version="1.1">
 <metadata>
  <rdf:RDF xmlns:dc="http://purl.org/dc/elements/1.1/" xmlns:cc="http://creativecommons.org/ns#" xmlns:rdf="http://www.w3.org/1999/02/22-rdf-syntax-ns#">
   <cc:Work>
    <dc:type rdf:resource="http://purl.org/dc/dcmitype/StillImage"/>
    <dc:date>2022-03-23T14:54:07.647465</dc:date>
    <dc:format>image/svg+xml</dc:format>
    <dc:creator>
     <cc:Agent>
      <dc:title>Matplotlib v3.5.0, https://matplotlib.org/</dc:title>
     </cc:Agent>
    </dc:creator>
   </cc:Work>
  </rdf:RDF>
 </metadata>
 <defs>
  <style type="text/css">*{stroke-linejoin: round; stroke-linecap: butt}</style>
 </defs>
 <g id="figure_1">
  <g id="patch_1">
   <path d="M 0 345.6 
L 460.8 345.6 
L 460.8 0 
L 0 0 
z
" style="fill: #ffffff"/>
  </g>
  <g id="axes_1">
   <g id="patch_2">
    <path d="M 261.074833 121.074071 
L 266.397232 124.592341 
L 275.185332 139.51292 
L 284.323381 155.047406 
L 289.346937 163.557477 
L 303.634566 187.827349 
L 288.167363 210.605645 
L 286.963251 212.425137 
L 284.514864 217.335188 
L 280.692969 224.872701 
L 267.554859 251.037228 
L 265.69186 254.736006 
L 262.574223 260.928 
L 178.425832 230.477486 
L 168.685434 187.313648 
L 180.051663 126.026499 
L 222.422702 125.291699 
L 253.79333 124.766691 
z
" clip-path="url(#p2c52aadcc4)" style="fill: #ffedd9; stroke: #ffedd9; stroke-linejoin: miter"/>
   </g>
   <g id="patch_3">
    <path d="M 187.06681 88.128 
L 230.030735 107.270455 
L 261.074833 121.074071 
L 253.79333 124.766691 
L 222.422702 125.291699 
L 180.051663 126.026499 
z
" clip-path="url(#p2c52aadcc4)" style="fill: #ffedd9; stroke: #ffedd9; stroke-linejoin: miter"/>
   </g>
   <g id="patch_4">
    <path d="M 266.397232 124.592341 
L 275.185332 139.51292 
L 284.323381 155.047406 
L 289.346937 163.557477 
L 303.634566 187.827349 
L 288.167363 210.605645 
L 286.963251 212.425137 
L 284.514864 217.335188 
L 280.692969 224.872701 
L 267.554859 251.037228 
L 265.69186 254.736006 
L 262.574223 260.928 
L 178.425832 230.477486 
L 168.685434 187.313648 
L 180.051663 126.026499 
L 187.06681 88.128 
L 230.030735 107.270455 
L 261.074833 121.074071 
z
" clip-path="url(#p2c52aadcc4)" style="fill: #ffedd9; stroke: #ffedd9; stroke-linejoin: miter"/>
   </g>
   <g id="patch_5">
    <path d="M 266.397232 124.592341 
L 275.185332 139.51292 
L 284.323381 155.047406 
L 289.346937 163.557477 
L 303.634566 187.827349 
L 288.167363 210.605645 
L 286.963251 212.425137 
L 284.514864 217.335188 
L 280.692969 224.872701 
L 267.554859 251.037228 
L 265.69186 254.736006 
L 262.574223 260.928 
L 178.425832 230.477486 
L 168.685434 187.313648 
L 180.051663 126.026499 
L 187.06681 88.128 
L 230.030735 107.270455 
L 261.074833 121.074071 
z
" clip-path="url(#p2c52aadcc4)" style="fill: #ffedd9; stroke: #ffedd9; stroke-linejoin: miter"/>
   </g>
   <g id="patch_6">
    <path d="M 365.04989 182.706109 
L 368.281424 279.720656 
L 441.344998 354.664288 
L 420.872047 369.259674 
L 336.457241 371.97446 
L 315.34986 340.293195 
L 280.967234 288.720395 
L 266.27441 266.658434 
L 262.574223 260.928 
L 265.69186 254.736006 
L 267.554859 251.037228 
L 280.692969 224.872701 
L 284.514864 217.335188 
L 286.963251 212.425137 
L 288.167363 210.605645 
L 303.634566 187.827349 
L 365.04989 182.706109 
L 368.281424 279.720656 
L 441.344998 354.664288 
L 420.872047 369.259674 
L 336.457241 371.97446 
L 284.723952 286.268098 
L 265.69186 254.736006 
L 267.554859 251.037228 
L 280.692969 224.872701 
L 284.514864 217.335188 
L 286.963251 212.425137 
L 288.167363 210.605645 
L 303.634566 187.827349 
z
" clip-path="url(#p2c52aadcc4)" style="fill: #ffffff; stroke: #ffffff; stroke-linejoin: miter"/>
   </g>
   <g id="patch_7">
    <path d="M 375.7322 601.142756 
L 350.991676 654.840964 
L 323.490873 665.028986 
L 311.116119 669.614927 
L 295.112054 673.069737 
L 243.119396 668.386728 
L 220.966551 666.465699 
L 201.306628 626.280392 
L 201.203041 621.201463 
L 201.026886 612.567413 
L 200.767706 599.870569 
L 200.165814 570.415147 
L 199.382805 532.159342 
L 241.583385 539.435112 
L 347.149532 557.616548 
L 371.917551 562.40128 
L 371.875892 571.344963 
L 373.186011 581.46001 
L 375.7322 601.142756 
L 350.991676 654.840964 
L 323.490873 665.028986 
L 311.116119 669.614927 
L 295.112054 673.069737 
L 243.119396 668.386728 
L 220.966551 666.465699 
L 201.306628 626.280392 
L 201.203041 621.201463 
L 201.026886 612.567413 
L 200.767706 599.870569 
L 200.165814 570.415147 
L 199.382805 532.159342 
L 241.583385 539.435112 
L 347.149532 557.616548 
L 371.917551 562.40128 
L 371.875892 571.344963 
L 373.186011 581.46001 
L 348.301664 586.722491 
L 359.540674 603.77128 
L 375.7322 601.142756 
L 350.991676 654.840964 
L 323.490873 665.028986 
L 311.116119 669.614927 
L 295.112054 673.069737 
L 243.119396 668.386728 
L 220.966551 666.465699 
L 244.418885 646.711146 
L 244.476112 622.527476 
L 237.581096 623.126879 
L 230.171332 610.689894 
L 201.026886 612.567413 
L 200.767706 599.870569 
L 200.165814 570.415147 
L 202.258194 569.186618 
L 237.602888 548.852736 
L 241.583385 539.435112 
L 347.149532 557.616548 
L 347.643734 570.096361 
L 348.301664 586.722491 
L 359.540674 603.77128 
L 375.7322 601.142756 
L 350.991676 654.840964 
L 323.490873 665.028986 
L 311.116119 669.614927 
L 295.112054 673.069737 
L 243.119396 668.386728 
L 220.966551 666.465699 
L 244.418885 646.711146 
L 244.476112 622.527476 
L 237.581096 623.126879 
L 230.171332 610.689894 
L 201.026886 612.567413 
L 200.767706 599.870569 
L 200.165814 570.415147 
L 199.382805 532.159342 
L 241.583385 539.435112 
L 347.149532 557.616548 
L 347.643734 570.096361 
L 375.7322 601.142756 
L 350.991676 654.840964 
L 323.490873 665.028986 
L 311.116119 669.614927 
L 295.112054 673.069737 
L 243.119396 668.386728 
L 220.966551 666.465699 
L 244.418885 646.711146 
L 244.476112 622.527476 
L 237.581096 623.126879 
L 230.171332 610.689894 
L 201.026886 612.567413 
L 200.767706 599.870569 
L 200.165814 570.415147 
L 199.382805 532.159342 
L 241.583385 539.435112 
L 347.149532 557.616548 
L 371.917551 562.40128 
L 371.875892 571.344963 
L 373.186011 581.46001 
L 375.7322 601.142756 
L 350.991676 654.840964 
L 323.490873 665.028986 
L 311.116119 669.614927 
L 295.112054 673.069737 
L 243.119396 668.386728 
L 220.966551 666.465699 
L 201.306628 626.280392 
L 201.203041 621.201463 
L 201.026886 612.567413 
L 200.767706 599.870569 
L 200.165814 570.415147 
L 199.382805 532.159342 
L 241.583385 539.435112 
L 347.149532 557.616548 
L 371.917551 562.40128 
L 371.875892 571.344963 
L 373.186011 581.46001 
z
" clip-path="url(#p2c52aadcc4)" style="fill: #ffffff; stroke: #ffffff; stroke-linejoin: miter"/>
   </g>
   <g id="patch_8">
    <path d="M 528.518009 46.099153 
L 527.322548 67.834545 
L 459.582564 187.67548 
L 439.590175 176.510708 
L 417.715703 178.324004 
L 365.04989 182.706109 
L 303.634566 187.827349 
L 289.346937 163.557477 
L 284.323381 155.047406 
L 295.932441 154.602647 
L 424.917398 77.243955 
L 462.509559 28.690498 
L 471.313846 17.335133 
L 501.524537 33.32028 
L 530.208905 14.773185 
L 470.599299 36.981513 
L 500.673279 55.78602 
L 526.019589 46.272161 
L 528.518009 46.099153 
L 527.678959 61.484117 
L 527.322548 67.834545 
L 459.582564 187.67548 
L 439.590175 176.510708 
L 417.715703 178.324004 
L 365.04989 182.706109 
L 303.634566 187.827349 
L 295.932441 154.602647 
L 424.917398 77.243955 
L 462.509559 28.690498 
L 470.599299 36.981513 
L 500.673279 55.78602 
L 526.019589 46.272161 
L 528.518009 46.099153 
L 527.322548 67.834545 
L 459.582564 187.67548 
L 439.590175 176.510708 
L 417.715703 178.324004 
L 365.04989 182.706109 
L 303.634566 187.827349 
L 289.346937 163.557477 
L 284.323381 155.047406 
L 295.932441 154.602647 
L 424.917398 77.243955 
L 462.509559 28.690498 
z
" clip-path="url(#p2c52aadcc4)" style="fill: #ffffff; stroke: #ffffff; stroke-linejoin: miter"/>
   </g>
   <g id="patch_9">
    <path d="M 300.323582 413.420553 
L 309.188197 422.131551 
L 376.717547 488.329515 
L 362.880043 488.671502 
L 341.108361 489.982128 
L 335.097914 496.655186 
L 268.180936 439.058798 
L 289.850177 424.064189 
L 300.323582 413.420553 
L 309.188197 422.131551 
L 376.717547 488.329515 
L 362.880043 488.671502 
L 341.108361 489.982128 
L 335.097914 496.655186 
L 268.180936 439.058798 
L 289.850177 424.064189 
L 300.323582 413.420553 
L 309.188197 422.131551 
L 376.717547 488.329515 
L 362.880043 488.671502 
L 341.108361 489.982128 
L 335.097914 496.655186 
L 268.180936 439.058798 
L 289.850177 424.064189 
L 300.323582 413.420553 
L 309.188197 422.131551 
L 376.717547 488.329515 
L 362.880043 488.671502 
L 341.108361 489.982128 
L 335.097914 496.655186 
L 268.180936 439.058798 
L 289.850177 424.064189 
z
" clip-path="url(#p2c52aadcc4)" style="fill: #ffffff; stroke: #ffffff; stroke-linejoin: miter"/>
   </g>
   <g id="patch_10">
    <path d="M 303.634566 187.827349 
L 365.396746 209.046426 
L 466.467171 243.767013 
L 465.636762 251.407051 
L 466.506086 254.210728 
L 467.779105 260.150466 
L 483.117508 324.770496 
L 494.376488 334.355332 
L 482.350705 332.620942 
L 473.402997 331.748823 
L 420.872047 369.259674 
L 336.457241 371.97446 
L 315.34986 340.293195 
L 280.967234 288.720395 
L 266.27441 266.658434 
L 262.574223 260.928 
L 265.69186 254.736006 
L 267.554859 251.037228 
L 280.692969 224.872701 
L 284.514864 217.335188 
L 286.963251 212.425137 
L 288.167363 210.605645 
z
" clip-path="url(#p2c52aadcc4)" style="fill: #ffffff; stroke: #ffffff; stroke-linejoin: miter"/>
   </g>
   <g id="patch_11">
    <path d="M 383.135561 -10.139222 
L 451.431712 6.822976 
L 471.313846 17.335133 
L 501.524537 33.32028 
L 500.673279 55.78602 
L 473.502527 87.461366 
L 439.590175 176.510708 
L 459.582564 187.67548 
L 503.41791 212.154399 
L 474.290606 230.284566 
L 467.917272 234.266621 
L 466.467171 243.767013 
L 365.396746 209.046426 
L 303.634566 187.827349 
L 289.346937 163.557477 
L 284.323381 155.047406 
L 275.185332 139.51292 
L 266.397232 124.592341 
L 261.074833 121.074071 
L 269.884905 85.8598 
L 288.574265 61.894477 
L 298.325266 49.388664 
L 324.326978 24.83319 
L 338.461308 11.534695 
L 344.626487 5.675554 
z
" clip-path="url(#p2c52aadcc4)" style="fill: #ffffff; stroke: #ffffff; stroke-linejoin: miter"/>
   </g>
   <g id="patch_12">
    <path d="M -72.127073 214.758271 
L -66.196305 199.910473 
L -41.565594 199.859876 
L -54.073022 203.215307 
z
" clip-path="url(#p2c52aadcc4)" style="fill: #ffffff; stroke: #ffffff; stroke-linejoin: miter"/>
   </g>
   <g id="patch_13">
    <path d="M 187.06681 88.128 
L 180.051663 126.026499 
L 168.685434 187.313648 
L 178.425832 230.477486 
L 181.905305 245.902501 
L 159.943585 359.501771 
L 91.053312 307.122589 
L 33.897831 199.543171 
L 10.435547 186.019764 
L 8.811367 178.056728 
L 66.36322 143.22797 
L 98.766073 123.621605 
L 113.529973 114.686626 
L 120.723772 110.040176 
L 153.701682 88.732553 
z
" clip-path="url(#p2c52aadcc4)" style="fill: #ffffff; stroke: #ffffff; stroke-linejoin: miter"/>
   </g>
   <g id="patch_14">
    <path d="M 81.838092 99.147391 
L 98.766073 123.621605 
L 66.36322 143.22797 
L 8.811367 178.056728 
L -0.05696 134.506354 
L 49.416709 113.133599 
z
" clip-path="url(#p2c52aadcc4)" style="fill: #ffffff; stroke: #ffffff; stroke-linejoin: miter"/>
   </g>
   <g id="patch_15">
    <path d="M 187.06681 88.128 
L 180.051663 126.026499 
L 168.685434 187.313648 
L 178.425832 230.477486 
L 181.905305 245.902501 
L 159.943585 359.501771 
L 91.053312 307.122589 
L 33.897831 199.543171 
L 10.435547 186.019764 
L 8.811367 178.056728 
L 66.36322 143.22797 
L 98.766073 123.621605 
L 113.529973 114.686626 
L 120.723772 110.040176 
L 153.701682 88.732553 
z
" clip-path="url(#p2c52aadcc4)" style="fill: #ffffff; stroke: #ffffff; stroke-linejoin: miter"/>
   </g>
   <g id="patch_16">
    <path d="M 187.06681 88.128 
L 180.051663 126.026499 
L 168.685434 187.313648 
L 178.425832 230.477486 
L 181.905305 245.902501 
L 159.943585 359.501771 
L 91.053312 307.122589 
L 33.897831 199.543171 
L 10.435547 186.019764 
L 8.811367 178.056728 
L 66.36322 143.22797 
L 98.766073 123.621605 
L 113.529973 114.686626 
L 120.723772 110.040176 
L 153.701682 88.732553 
z
" clip-path="url(#p2c52aadcc4)" style="fill: #ffffff; stroke: #ffffff; stroke-linejoin: miter"/>
   </g>
   <g id="patch_17">
    <path d="M 187.06681 88.128 
L 180.051663 126.026499 
L 168.685434 187.313648 
L 178.425832 230.477486 
L 181.905305 245.902501 
L 159.943585 359.501771 
L 91.053312 307.122589 
L 33.897831 199.543171 
L 10.435547 186.019764 
L 8.811367 178.056728 
L 66.36322 143.22797 
L 98.766073 123.621605 
L 113.529973 114.686626 
L 120.723772 110.040176 
L 153.701682 88.732553 
z
" clip-path="url(#p2c52aadcc4)" style="fill: #ffffff; stroke: #ffffff; stroke-linejoin: miter"/>
   </g>
   <g id="patch_18">
    <path d="M 269.884905 85.8598 
L 261.074833 121.074071 
L 253.79333 124.766691 
L 222.422702 125.291699 
L 230.030735 107.270455 
L 238.668772 86.839526 
z
" clip-path="url(#p2c52aadcc4)" style="fill: #ffffff; stroke: #ffffff; stroke-linejoin: miter"/>
   </g>
   <g id="patch_19">
    <path d="M 187.06681 88.128 
L 193.358898 87.996287 
L 226.932897 87.198486 
L 238.668772 86.839526 
L 230.030735 107.270455 
L 222.422702 125.291699 
L 180.051663 126.026499 
z
" clip-path="url(#p2c52aadcc4)" style="fill: #ffffff; stroke: #ffffff; stroke-linejoin: miter"/>
   </g>
   <g id="patch_20">
    <path d="M -89.637523 309.476328 
L -81.310014 316.985708 
L -72.415021 329.488126 
L -74.897531 344.600265 
L -96.279683 358.239031 
L -103.426766 322.674718 
L -104.442912 320.199581 
z
" clip-path="url(#p2c52aadcc4)" style="fill: #ffffff; stroke: #ffffff; stroke-linejoin: miter"/>
   </g>
   <g id="patch_21">
    <path d="M -172.630167 388.973799 
L -162.913055 467.659618 
L -134.861224 470.486813 
L -130.243308 470.890086 
L -88.112055 410.785462 
L -85.595544 410.744357 
L -84.45309 413.472635 
L -82.245055 418.715724 
L -78.478696 418.074111 
L -73.453916 421.100218 
L -71.017789 417.571799 
L -72.971105 411.687309 
L -62.764885 410.424861 
L -53.343372 415.077479 
L -52.01141 426.940617 
L -47.817273 424.558026 
L -48.674794 421.866168 
L -46.278152 420.845414 
L -41.037661 426.210189 
L -27.729396 427.103887 
L -20.842628 422.797132 
L -20.368584 418.635689 
L -12.512874 416.97062 
L -7.816773 419.501757 
L -6.456985 421.052433 
L -8.254172 423.446658 
L -4.35991 429.303512 
L 5.901477 433.443148 
L 5.919292 436.491824 
L 15.976072 438.033124 
L 22.072384 435.122629 
L 26.20404 437.850012 
L 29.433161 439.720469 
L 33.956339 438.597602 
L 36.051064 436.221915 
L 37.389509 436.363042 
L 40.295953 440.878941 
L 42.196125 440.499284 
L 43.869867 441.099686 
L 44.105037 441.832161 
L 44.698022 441.633131 
L 44.948174 442.03296 
L 47.789312 442.717948 
L 51.521605 446.397389 
L 53.216549 446.390971 
L 53.653481 446.869383 
L 55.188251 447.00071 
L 56.387512 447.993936 
L 58.059652 448.476936 
L 58.899613 447.97328 
L 59.776541 448.387324 
L 59.834257 447.997444 
L 62.256565 448.158687 
L 62.458724 449.729005 
L 65.085198 448.368311 
L 65.514318 449.555315 
L 66.031563 449.998069 
L 62.212015 451.648778 
L 60.35217 455.42393 
L 57.141024 460.15309 
L 54.600154 466.365679 
L 53.25405 472.349885 
L 51.54942 475.246284 
L 49.377177 476.804602 
L 47.921614 476.87008 
L 46.271173 476.999699 
L 45.324657 477.874407 
L 44.959048 480.449236 
L 43.482216 481.51726 
L 41.528075 481.123652 
L 40.329877 481.368832 
L 39.491886 482.64954 
L 39.437686 486.76764 
L 31.694734 496.26507 
L 26.733723 499.550101 
L 25.746263 502.724137 
L 23.199145 506.86889 
L 22.64213 509.107081 
L 23.27638 512.602344 
L 22.974141 515.530641 
L 23.18133 517.356928 
L 22.373378 520.473095 
L 20.381493 521.871787 
L 19.264988 523.153772 
L 19.0733 527.733302 
L 16.057744 536.049992 
L 15.542946 539.078104 
L 16.887686 546.356888 
L 15.813487 548.761856 
L 11.857757 550.862783 
L 11.441451 552.369116 
L 11.380889 554.034336 
L 9.809232 560.583034 
L 8.83104 563.866612 
L 6.693116 565.447505 
L 5.269645 568.971528 
L 3.209382 572.054011 
L 1.978413 573.787642 
L 2.279228 575.441644 
L 2.017707 576.565307 
L 1.008136 577.405606 
L -0.277601 578.940519 
L -0.099778 581.933172 
L -1.119737 584.641473 
L -0.968386 584.879362 
L -0.919637 585.260583 
L -0.822552 586.099212 
L -0.78064 587.699425 
L -0.631731 588.385967 
L -0.582941 588.767188 
L -0.481093 588.767758 
L -0.482369 588.996319 
L -0.585498 589.224312 
L -0.534997 589.300784 
L -0.792632 589.832669 
L -0.744695 590.366267 
L -0.898357 590.517783 
L -1.001948 590.821959 
L -1.003239 591.050522 
L -0.954449 591.431747 
L -1.158646 591.506783 
L -1.160805 591.887721 
L -1.109429 591.811822 
L -1.059777 592.040674 
L -0.908658 592.346287 
L -0.856853 592.194198 
L -0.746823 592.56053 
L -0.180078 593.26464 
L 0.916726 595.023015 
L 2.463077 596.478822 
L 2.979425 597.18244 
L 3.361454 598.251059 
L 3.7942 599.396106 
L 4.144034 600.830246 
L 4.263346 601.455606 
L 4.037014 601.835437 
L 3.727662 602.489134 
L 3.304238 603.492724 
L 2.922856 604.237456 
L 2.195188 604.827987 
L 0.798379 606.451081 
L 0.488573 607.104656 
L 0.178799 607.742982 
L 0.04423 608.077491 
L 0.072435 608.519563 
L 0.028493 609.083147 
L 0.091368 611.272769 
L 0.03 612.527079 
L -0.013461 612.999239 
L -0.589586 613.712269 
L -1.708358 614.589802 
L -2.149877 614.952997 
L -2.499902 615.392894 
L -2.627249 616.199808 
L -2.681111 616.671898 
L -2.624135 617.418933 
L -2.535589 618.013764 
L -2.090942 618.915432 
L -1.943084 619.876333 
L -1.978819 620.954706 
L -2.044405 621.49108 
L -2.366411 622.342605 
L -3.184651 624.059836 
L -3.797487 625.59535 
L -4.0929 627.07178 
L -5.100114 629.412508 
L -5.443721 630.33999 
L -5.309754 631.864752 
L -5.089204 632.643315 
L -4.373021 634.476403 
L -3.819272 636.110348 
L -3.588651 636.965133 
L -3.397356 637.545367 
L -3.596788 638.336643 
L -4.02379 639.461828 
L -4.519366 640.037952 
L -5.930667 641.111305 
L -7.077666 642.490893 
L -7.181389 642.673109 
L -7.388947 643.052775 
L -7.257566 643.358412 
L -7.248673 643.571827 
L -6.959078 644.630301 
L -8.696488 653.17041 
L -17.433529 661.575074 
L -20.790894 683.632991 
L -25.157039 692.841551 
L -56.050143 693.666478 
L -53.995592 696.61353 
L -54.648795 698.095072 
L -55.753473 699.121696 
L -59.582298 699.479017 
L -58.767005 700.891935 
L -59.652555 703.168696 
L -61.018495 703.88932 
L -64.371701 704.558442 
L -65.6294 704.436689 
L -66.834953 705.277933 
L -65.56595 707.830995 
L -66.20562 710.17188 
L -65.225621 712.027311 
L -66.663299 712.652452 
L -66.989793 713.4944 
L -67.793699 713.534016 
L -68.370222 714.149677 
L -68.365644 714.662964 
L -68.709595 715.092586 
L -70.340126 715.890518 
L -70.324252 716.107977 
L -73.182879 718.31898 
L -73.559559 719.008776 
L -73.994967 719.773915 
L -73.859621 720.529251 
L -74.54733 720.638085 
L -75.023332 721.411042 
L -77.284887 722.614035 
L -76.972262 723.547438 
L -75.438474 723.520079 
L -76.404912 725.028826 
L -77.403786 725.366917 
L -77.47786 725.864646 
L -78.506699 726.306322 
L -78.790373 726.568343 
L -79.051116 727.173724 
L -79.685771 727.385425 
L -80.183289 728.169207 
L -80.848573 728.047063 
L -81.035995 728.574761 
L -83.925192 729.685659 
L -84.165573 730.014253 
L -85.27096 730.159526 
L -86.67383 731.067162 
L -87.327328 731.88567 
L -88.03652 731.650826 
L -87.945604 732.097841 
L -87.764669 732.78561 
L -87.179695 733.765016 
L -87.407282 734.510874 
L -88.067897 734.707948 
L -89.508678 734.449024 
L -91.880108 735.927403 
L -92.093233 737.982868 
L -140.175044 738.066821 
L -170.474555 752.053625 
L -185.454285 675.382915 
L -231.018821 631.176067 
L -268.973075 595.763899 
L -245.247932 566.64451 
L -221.506953 562.200698 
L -187.300286 555.887819 
L -219.918825 516.085513 
L -277.439566 445.882695 
L -201.571411 400.87061 
L -173.057656 384.685111 
z
" clip-path="url(#p2c52aadcc4)" style="fill: #ffffff; stroke: #ffffff; stroke-linejoin: miter"/>
   </g>
   <g id="patch_22">
    <path d="M -201.571411 400.87061 
L -173.057656 384.685111 
L -172.630167 388.973799 
L -162.913055 467.659618 
L -134.861224 470.486813 
L -130.243308 470.890086 
L -88.112055 410.785462 
L -85.595544 410.744357 
L -84.45309 413.472635 
L -82.245055 418.715724 
L -78.478696 418.074111 
L -73.453916 421.100218 
L -71.017789 417.571799 
L -72.971105 411.687309 
L -62.764885 410.424861 
L -53.343372 415.077479 
L -52.01141 426.940617 
L -47.817273 424.558026 
L -48.674794 421.866168 
L -46.278152 420.845414 
L -41.037661 426.210189 
L -27.729396 427.103887 
L -20.842628 422.797132 
L -20.368584 418.635689 
L -12.512874 416.97062 
L -7.816773 419.501757 
L -6.456985 421.052433 
L -8.254172 423.446658 
L -4.35991 429.303512 
L 5.901477 433.443148 
L 5.919292 436.491824 
L 15.976072 438.033124 
L 22.072384 435.122629 
L 26.20404 437.850012 
L 29.433161 439.720469 
L 33.956339 438.597602 
L 36.051064 436.221915 
L 37.389509 436.363042 
L 40.295953 440.878941 
L 42.196125 440.499284 
L 43.869867 441.099686 
L 44.105037 441.832161 
L 44.698022 441.633131 
L 44.948174 442.03296 
L 47.789312 442.717948 
L 51.521605 446.397389 
L 53.216549 446.390971 
L 53.653481 446.869383 
L 55.188251 447.00071 
L 56.387512 447.993936 
L 58.059652 448.476936 
L 58.899613 447.97328 
L 59.776541 448.387324 
L 59.834257 447.997444 
L 62.256565 448.158687 
L 62.458724 449.729005 
L 65.085198 448.368311 
L 65.514318 449.555315 
L 66.031563 449.998069 
L 62.212015 451.648778 
L 60.35217 455.42393 
L 57.141024 460.15309 
L 54.600154 466.365679 
L 53.25405 472.349885 
L 51.54942 475.246284 
L 49.377177 476.804602 
L 47.921614 476.87008 
L 46.271173 476.999699 
L 45.324657 477.874407 
L 44.959048 480.449236 
L 43.482216 481.51726 
L 41.528075 481.123652 
L 40.329877 481.368832 
L 39.491886 482.64954 
L 39.437686 486.76764 
L 31.694734 496.26507 
L 26.733723 499.550101 
L 25.746263 502.724137 
L 23.199145 506.86889 
L 22.64213 509.107081 
L 23.27638 512.602344 
L 22.974141 515.530641 
L 23.18133 517.356928 
L 22.373378 520.473095 
L 20.381493 521.871787 
L 19.264988 523.153772 
L 19.0733 527.733302 
L 16.057744 536.049992 
L 15.542946 539.078104 
L 16.887686 546.356888 
L 15.813487 548.761856 
L 11.857757 550.862783 
L 11.441451 552.369116 
L 11.380889 554.034336 
L 9.809232 560.583034 
L 8.83104 563.866612 
L 6.693116 565.447505 
L 5.269645 568.971528 
L 3.209382 572.054011 
L 1.978413 573.787642 
L 2.279228 575.441644 
L 2.017707 576.565307 
L 1.008136 577.405606 
L -0.277601 578.940519 
L -0.099778 581.933172 
L -1.119737 584.641473 
L -0.968386 584.879362 
L -0.919637 585.260583 
L -0.822552 586.099212 
L -0.78064 587.699425 
L -0.631731 588.385967 
L -0.582941 588.767188 
L -0.481093 588.767758 
L -0.482369 588.996319 
L -0.585498 589.224312 
L -0.534997 589.300784 
L -0.792632 589.832669 
L -0.744695 590.366267 
L -0.898357 590.517783 
L -1.001948 590.821959 
L -1.003239 591.050522 
L -0.954449 591.431747 
L -1.158646 591.506783 
L -1.160805 591.887721 
L -1.109429 591.811822 
L -1.059777 592.040674 
L -0.908658 592.346287 
L -0.856853 592.194198 
L -0.746823 592.56053 
L -0.180078 593.26464 
L 0.916726 595.023015 
L 2.463077 596.478822 
L 2.979425 597.18244 
L 3.361454 598.251059 
L 3.7942 599.396106 
L 4.144034 600.830246 
L 4.263346 601.455606 
L 4.037014 601.835437 
L 3.727662 602.489134 
L 3.304238 603.492724 
L 2.922856 604.237456 
L 2.195188 604.827987 
L 0.798379 606.451081 
L 0.488573 607.104656 
L 0.178799 607.742982 
L 0.04423 608.077491 
L 0.072435 608.519563 
L 0.028493 609.083147 
L 0.091368 611.272769 
L 0.03 612.527079 
L -0.013461 612.999239 
L -0.589586 613.712269 
L -1.708358 614.589802 
L -2.149877 614.952997 
L -2.499902 615.392894 
L -2.627249 616.199808 
L -2.681111 616.671898 
L -2.624135 617.418933 
L -2.535589 618.013764 
L -2.090942 618.915432 
L -1.943084 619.876333 
L -1.978819 620.954706 
L -2.044405 621.49108 
L -2.366411 622.342605 
L -3.184651 624.059836 
L -3.797487 625.59535 
L -4.0929 627.07178 
L -5.100114 629.412508 
L -5.443721 630.33999 
L -5.309754 631.864752 
L -5.089204 632.643315 
L -4.373021 634.476403 
L -3.819272 636.110348 
L -3.588651 636.965133 
L -3.397356 637.545367 
L -3.596788 638.336643 
L -4.02379 639.461828 
L -4.519366 640.037952 
L -5.930667 641.111305 
L -7.077666 642.490893 
L -7.181389 642.673109 
L -7.388947 643.052775 
L -7.257566 643.358412 
L -7.248673 643.571827 
L -6.959078 644.630301 
L -8.696488 653.17041 
L -17.433529 661.575074 
L -20.790894 683.632991 
L -25.157039 692.841551 
L -56.050143 693.666478 
L -53.995592 696.61353 
L -54.648795 698.095072 
L -55.753473 699.121696 
L -59.582298 699.479017 
L -58.767005 700.891935 
L -59.652555 703.168696 
L -61.018495 703.88932 
L -64.371701 704.558442 
L -65.6294 704.436689 
L -66.834953 705.277933 
L -65.56595 707.830995 
L -66.20562 710.17188 
L -65.225621 712.027311 
L -66.663299 712.652452 
L -66.989793 713.4944 
L -67.793699 713.534016 
L -68.370222 714.149677 
L -68.365644 714.662964 
L -68.709595 715.092586 
L -70.340126 715.890518 
L -70.324252 716.107977 
L -73.182879 718.31898 
L -73.559559 719.008776 
L -73.994967 719.773915 
L -73.859621 720.529251 
L -74.54733 720.638085 
L -75.023332 721.411042 
L -77.284887 722.614035 
L -76.972262 723.547438 
L -75.438474 723.520079 
L -76.404912 725.028826 
L -77.403786 725.366917 
L -77.47786 725.864646 
L -78.506699 726.306322 
L -78.790373 726.568343 
L -79.051116 727.173724 
L -79.685771 727.385425 
L -80.183289 728.169207 
L -80.848573 728.047063 
L -81.035995 728.574761 
L -83.925192 729.685659 
L -84.165573 730.014253 
L -85.27096 730.159526 
L -86.67383 731.067162 
L -87.327328 731.88567 
L -88.03652 731.650826 
L -87.945604 732.097841 
L -87.764669 732.78561 
L -87.179695 733.765016 
L -87.407282 734.510874 
L -88.067897 734.707948 
L -89.508678 734.449024 
L -91.880108 735.927403 
L -92.093233 737.982868 
L -140.175044 738.066821 
L -170.474555 752.053625 
L -185.454285 675.382915 
L -231.018821 631.176067 
L -268.973075 595.763899 
L -245.247932 566.64451 
L -221.506953 562.200698 
L -187.300286 555.887819 
L -219.918825 516.085513 
L -277.439566 445.882695 
z
" clip-path="url(#p2c52aadcc4)" style="fill: #ffffff; stroke: #ffffff; stroke-linejoin: miter"/>
   </g>
   <g id="patch_23">
    <path d="M 0.916726 595.023015 
L 72.91411 622.759464 
L 105.733559 622.562437 
L 130.454261 622.32254 
L 158.823569 613.271521 
L 201.026886 612.567413 
L 201.203041 621.201463 
L 201.306628 626.280392 
L 220.966551 666.465699 
L 241.442711 696.002283 
L 247.646988 704.992525 
L 264.785174 729.904066 
L 270.185845 733.224827 
L 291.034795 745.861347 
L 295.269553 749.664348 
L 294.821848 751.720973 
L 301.864361 754.927032 
L 299.69083 763.302782 
L 300.276291 767.520718 
L 298.356929 775.888826 
L 295.904419 777.787056 
L 298.245706 782.437257 
L 293.654002 786.256406 
L 295.760361 789.518903 
L 292.08663 793.883029 
L 294.259603 801.460365 
L 298.878146 800.267397 
L 303.661981 804.167053 
L 302.522489 812.368249 
L 299.997981 817.031931 
L 296.466643 813.961182 
L 294.250214 815.556582 
L 289.658933 813.748942 
L 288.032638 815.664745 
L 286.831562 814.47015 
L 283.403025 814.616323 
L 283.075519 812.299507 
L 281.020657 810.671498 
L 278.772872 811.369707 
L 277.785045 808.533525 
L 279.251248 805.635936 
L 277.202989 801.889773 
L 274.877961 804.296122 
L 272.472363 803.784383 
L 265.894378 806.773505 
L 262.832405 806.060561 
L 262.219771 810.868559 
L 257.508067 817.471468 
L 257.185412 826.50295 
L 257.16199 831.129315 
L 258.935655 831.9638 
L 259.740846 834.149583 
L 261.226402 833.911153 
L 261.374636 834.563139 
L 263.61882 834.761353 
L 266.630322 833.265859 
L 268.036393 833.684392 
L 268.520246 835.94407 
L 269.745561 835.650328 
L 270.560844 836.844914 
L 269.861357 839.766374 
L 268.115804 840.075923 
L 266.558702 841.303316 
L 266.929067 844.029931 
L 264.786144 845.3588 
L 264.444503 848.260607 
L 265.900231 851.505485 
L 268.078293 852.665698 
L 267.961147 853.15889 
L 269.580535 854.033349 
L 270.817672 857.534136 
L 271.911245 858.163594 
L 272.319207 859.935957 
L 269.679933 862.215082 
L 269.046632 864.100197 
L 267.527909 864.523893 
L 263.292211 864.487633 
L 261.141968 865.729988 
L 258.436428 864.389398 
L 260.240733 861.256253 
L 259.457859 858.810236 
L 254.131101 855.908577 
L 251.389137 850.08786 
L 252.798448 845.580107 
L 251.860264 845.663766 
L 249.379615 844.014287 
L 248.835513 841.794957 
L 246.097598 842.648309 
L 245.917847 843.336353 
L 245.412091 843.85248 
L 243.397956 841.591613 
L 239.277963 844.185395 
L 235.558462 844.879273 
L 234.865985 845.862743 
L 232.562968 847.410841 
L 230.884821 847.837369 
L 229.86757 848.930489 
L 228.822876 848.652476 
L 226.206311 846.588969 
L 224.029396 848.071974 
L 224.452478 849.560352 
L 223.721795 850.325889 
L 223.766468 850.713872 
L 224.524665 851.22314 
L 224.565228 853.028176 
L 223.760401 853.464023 
L 223.317054 855.463359 
L 222.185556 855.772 
L 220.678236 855.237896 
L 219.507993 853.774982 
L 215.960639 856.662673 
L 213.38457 856.472045 
L 212.320484 855.435532 
L 209.786506 855.528053 
L 206.067847 853.843016 
L 204.435744 853.15211 
L 202.327287 850.047178 
L 200.342779 845.119633 
L 196.343268 843.185043 
L 197.254375 841.521686 
L 195.674048 836.915147 
L 196.165387 831.793915 
L 196.288104 827.528338 
L 194.907855 827.353298 
L 195.077205 826.759953 
L 196.226972 826.800399 
L 196.41297 822.95987 
L 193.338691 824.80999 
L 192.227071 827.876288 
L 190.829298 829.363261 
L 188.742504 828.753172 
L 186.47292 825.107914 
L 187.034817 823.900672 
L 185.926539 823.491747 
L 185.157642 823.934104 
L 182.501023 824.064548 
L 177.34984 825.394402 
L 176.542374 827.695433 
L 176.940376 830.574991 
L 175.863542 832.160709 
L 173.864966 832.865769 
L 173.931333 835.007419 
L 177.218685 837.642108 
L 177.484356 839.874936 
L 177.172635 840.558814 
L 177.852168 842.371696 
L 177.133159 844.050756 
L 177.884505 846.19165 
L 179.091385 846.674678 
L 179.482286 848.626226 
L 178.747564 849.387653 
L 179.189111 850.35167 
L 179.591441 851.153222 
L 179.03055 852.625187 
L 177.96553 853.189166 
L 178.013417 853.900548 
L 178.005699 855.592385 
L 176.956506 856.874082 
L 176.318802 857.827296 
L 175.515437 858.330274 
L 175.12072 860.174625 
L 174.604057 860.370316 
L 174.355772 863.656989 
L 174.124407 865.652034 
L 173.011035 865.670001 
L 171.498905 866.41441 
L 171.628231 867.174978 
L 171.299401 868.620712 
L 171.042982 869.090822 
L 169.526059 869.580723 
L 169.056744 871.452245 
L 168.832055 872.091265 
L 169.107167 872.807251 
L 168.849823 873.23494 
L 168.76842 873.65989 
L 160.492498 875.436502 
L 152.799936 877.196741 
L 152.302291 877.288204 
L 144.927563 878.909547 
L 114.581463 885.716495 
L 112.223846 884.804945 
L 111.312956 883.186704 
L 107.577866 883.252103 
L 107.137661 881.468238 
L 105.700169 880.536899 
L 105.542032 879.446398 
L 106.328656 878.329066 
L 104.831147 878.213565 
L 104.383275 877.200248 
L 103.651052 877.375231 
L 102.821995 876.364685 
L 102.842545 875.178358 
L 102.100555 873.997652 
L 101.188939 873.665369 
L 101.095167 872.861149 
L 99.739709 871.938811 
L 99.083171 870.291265 
L 98.926318 868.809678 
L 97.691588 868.267439 
L 97.16633 868.60988 
L 95.724664 867.772199 
L 92.122945 866.536396 
L 91.722406 864.844804 
L 89.469663 863.546628 
L 90.049075 862.349114 
L 90.92379 861.793266 
L 87.735791 856.314144 
L 88.96798 855.671374 
L 89.538876 853.090947 
L 90.544137 852.862253 
L 91.669769 850.928179 
L 91.393062 847.960933 
L 92.131351 846.687817 
L 91.23109 842.755685 
L 92.394589 841.586738 
L 91.445414 840.413722 
L 91.95561 839.111529 
L 91.04155 837.941652 
L 91.026881 835.494371 
L 91.568875 834.280134 
L 89.703811 831.360611 
L 88.688673 831.386801 
L 85.714275 831.657367 
L 81.383651 833.405322 
L 76.891268 837.297396 
L 75.107683 837.004036 
L 73.139971 840.023241 
L 75.251616 840.693546 
L 76.169312 843.152421 
L 75.852402 844.59811 
L 72.965289 845.855182 
L 72.417702 846.602708 
L 71.63702 846.041343 
L 70.01386 847.114407 
L 70.636736 848.623597 
L 66.166971 851.815094 
L 41.891891 823.573791 
L 22.051446 824.414886 
L -9.034693 784.552905 
L -16.820158 774.462079 
L -20.17373 769.905131 
L -32.619403 754.128751 
L -33.076069 753.531563 
L -37.099311 748.452995 
L -43.053019 740.895727 
L -65.225621 712.027311 
L -66.20562 710.17188 
L -65.56595 707.830995 
L -66.834953 705.277933 
L -65.6294 704.436689 
L -64.371701 704.558442 
L -61.018495 703.88932 
L -59.652555 703.168696 
L -58.767005 700.891935 
L -59.582298 699.479017 
L -55.753473 699.121696 
L -54.648795 698.095072 
L -53.995592 696.61353 
L -56.050143 693.666478 
L -25.157039 692.841551 
L -20.790894 683.632991 
L -17.433529 661.575074 
L -8.696488 653.17041 
L -6.959078 644.630301 
L -7.248673 643.571827 
L -7.257566 643.358412 
L -7.388947 643.052775 
L -7.181389 642.673109 
L -7.077666 642.490893 
L -5.930667 641.111305 
L -4.519366 640.037952 
L -4.02379 639.461828 
L -3.596788 638.336643 
L -3.397356 637.545367 
L -3.588651 636.965133 
L -3.819272 636.110348 
L -4.373021 634.476403 
L -5.089204 632.643315 
L -5.309754 631.864752 
L -5.443721 630.33999 
L -5.100114 629.412508 
L -4.0929 627.07178 
L -3.797487 625.59535 
L -3.184651 624.059836 
L -2.366411 622.342605 
L -2.044405 621.49108 
L -1.978819 620.954706 
L -1.943084 619.876333 
L -2.090942 618.915432 
L -2.535589 618.013764 
L -2.624135 617.418933 
L -2.681111 616.671898 
L -2.627249 616.199808 
L -2.499902 615.392894 
L -2.149877 614.952997 
L -1.708358 614.589802 
L -0.589586 613.712269 
L -0.013461 612.999239 
L 0.03 612.527079 
L 0.091368 611.272769 
L 0.028493 609.083147 
L 0.072435 608.519563 
L 0.04423 608.077491 
L 0.178799 607.742982 
L 0.488573 607.104656 
L 0.798379 606.451081 
L 2.195188 604.827987 
L 2.922856 604.237456 
L 3.304238 603.492724 
L 3.727662 602.489134 
L 4.037014 601.835437 
L 4.263346 601.455606 
L 4.144034 600.830246 
L 3.7942 599.396106 
L 3.361454 598.251059 
L 2.979425 597.18244 
L 2.463077 596.478822 
L 0.916726 595.023015 
L 72.91411 622.759464 
L 105.733559 622.562437 
L 130.454261 622.32254 
L 158.823569 613.271521 
L 201.026886 612.567413 
L 201.203041 621.201463 
L 201.306628 626.280392 
L 220.966551 666.465699 
L 241.442711 696.002283 
L 247.646988 704.992525 
L 264.785174 729.904066 
L 270.185845 733.224827 
L 291.034795 745.861347 
L 295.269553 749.664348 
L 294.821848 751.720973 
L 301.864361 754.927032 
L 299.69083 763.302782 
L 300.276291 767.520718 
L 298.356929 775.888826 
L 295.904419 777.787056 
L 298.245706 782.437257 
L 293.654002 786.256406 
L 295.760361 789.518903 
L 292.08663 793.883029 
L 294.259603 801.460365 
L 298.878146 800.267397 
L 303.661981 804.167053 
L 302.522489 812.368249 
L 299.997981 817.031931 
L 296.466643 813.961182 
L 294.250214 815.556582 
L 289.658933 813.748942 
L 288.032638 815.664745 
L 286.831562 814.47015 
L 283.403025 814.616323 
L 283.075519 812.299507 
L 281.020657 810.671498 
L 278.772872 811.369707 
L 277.785045 808.533525 
L 279.251248 805.635936 
L 277.202989 801.889773 
L 274.877961 804.296122 
L 272.472363 803.784383 
L 265.894378 806.773505 
L 262.832405 806.060561 
L 262.219771 810.868559 
L 257.508067 817.471468 
L 257.185412 826.50295 
L 257.16199 831.129315 
L 258.935655 831.9638 
L 259.740846 834.149583 
L 261.226402 833.911153 
L 261.374636 834.563139 
L 263.61882 834.761353 
L 266.630322 833.265859 
L 268.036393 833.684392 
L 268.520246 835.94407 
L 269.745561 835.650328 
L 270.560844 836.844914 
L 269.861357 839.766374 
L 268.115804 840.075923 
L 266.558702 841.303316 
L 266.929067 844.029931 
L 264.786144 845.3588 
L 264.444503 848.260607 
L 265.900231 851.505485 
L 268.078293 852.665698 
L 267.961147 853.15889 
L 269.580535 854.033349 
L 270.817672 857.534136 
L 271.911245 858.163594 
L 272.319207 859.935957 
L 269.679933 862.215082 
L 269.046632 864.100197 
L 267.527909 864.523893 
L 263.292211 864.487633 
L 261.141968 865.729988 
L 258.436428 864.389398 
L 260.240733 861.256253 
L 259.457859 858.810236 
L 254.131101 855.908577 
L 251.389137 850.08786 
L 252.798448 845.580107 
L 251.860264 845.663766 
L 249.379615 844.014287 
L 248.835513 841.794957 
L 246.097598 842.648309 
L 245.917847 843.336353 
L 245.412091 843.85248 
L 243.397956 841.591613 
L 239.277963 844.185395 
L 235.558462 844.879273 
L 234.865985 845.862743 
L 232.562968 847.410841 
L 230.884821 847.837369 
L 229.86757 848.930489 
L 228.822876 848.652476 
L 226.206311 846.588969 
L 224.029396 848.071974 
L 224.452478 849.560352 
L 223.721795 850.325889 
L 223.766468 850.713872 
L 224.524665 851.22314 
L 224.565228 853.028176 
L 223.760401 853.464023 
L 223.317054 855.463359 
L 222.185556 855.772 
L 220.678236 855.237896 
L 219.507993 853.774982 
L 215.960639 856.662673 
L 213.38457 856.472045 
L 212.320484 855.435532 
L 209.786506 855.528053 
L 206.067847 853.843016 
L 204.435744 853.15211 
L 202.327287 850.047178 
L 200.342779 845.119633 
L 196.343268 843.185043 
L 197.254375 841.521686 
L 195.674048 836.915147 
L 196.165387 831.793915 
L 196.288104 827.528338 
L 194.907855 827.353298 
L 195.077205 826.759953 
L 196.226972 826.800399 
L 196.41297 822.95987 
L 193.338691 824.80999 
L 192.227071 827.876288 
L 190.829298 829.363261 
L 188.742504 828.753172 
L 186.47292 825.107914 
L 187.034817 823.900672 
L 185.926539 823.491747 
L 185.157642 823.934104 
L 182.501023 824.064548 
L 177.34984 825.394402 
L 176.542374 827.695433 
L 176.940376 830.574991 
L 175.863542 832.160709 
L 173.864966 832.865769 
L 173.931333 835.007419 
L 177.218685 837.642108 
L 177.484356 839.874936 
L 177.172635 840.558814 
L 177.852168 842.371696 
L 177.133159 844.050756 
L 177.884505 846.19165 
L 179.091385 846.674678 
L 179.482286 848.626226 
L 178.747564 849.387653 
L 179.189111 850.35167 
L 179.591441 851.153222 
L 179.03055 852.625187 
L 177.96553 853.189166 
L 178.013417 853.900548 
L 178.005699 855.592385 
L 176.956506 856.874082 
L 176.318802 857.827296 
L 175.515437 858.330274 
L 175.12072 860.174625 
L 174.604057 860.370316 
L 174.355772 863.656989 
L 174.124407 865.652034 
L 173.011035 865.670001 
L 171.498905 866.41441 
L 171.628231 867.174978 
L 171.299401 868.620712 
L 171.042982 869.090822 
L 169.526059 869.580723 
L 169.056744 871.452245 
L 168.832055 872.091265 
L 169.107167 872.807251 
L 168.849823 873.23494 
L 168.76842 873.65989 
L 160.492498 875.436502 
L 152.799936 877.196741 
L 152.302291 877.288204 
L 144.927563 878.909547 
L 114.581463 885.716495 
L 112.223846 884.804945 
L 111.312956 883.186704 
L 107.577866 883.252103 
L 107.137661 881.468238 
L 105.700169 880.536899 
L 105.542032 879.446398 
L 106.328656 878.329066 
L 104.831147 878.213565 
L 104.383275 877.200248 
L 103.651052 877.375231 
L 102.821995 876.364685 
L 102.842545 875.178358 
L 102.100555 873.997652 
L 101.188939 873.665369 
L 101.095167 872.861149 
L 99.739709 871.938811 
L 99.083171 870.291265 
L 98.926318 868.809678 
L 97.691588 868.267439 
L 97.16633 868.60988 
L 95.724664 867.772199 
L 92.122945 866.536396 
L 91.722406 864.844804 
L 89.469663 863.546628 
L 90.049075 862.349114 
L 90.92379 861.793266 
L 87.735791 856.314144 
L 88.96798 855.671374 
L 89.538876 853.090947 
L 90.544137 852.862253 
L 91.669769 850.928179 
L 91.393062 847.960933 
L 92.131351 846.687817 
L 91.23109 842.755685 
L 92.394589 841.586738 
L 91.445414 840.413722 
L 91.95561 839.111529 
L 91.04155 837.941652 
L 91.026881 835.494371 
L 91.568875 834.280134 
L 89.703811 831.360611 
L 88.688673 831.386801 
L 85.714275 831.657367 
L 81.383651 833.405322 
L 76.891268 837.297396 
L 75.107683 837.004036 
L 73.139971 840.023241 
L 75.251616 840.693546 
L 76.169312 843.152421 
L 75.852402 844.59811 
L 72.965289 845.855182 
L 72.417702 846.602708 
L 71.63702 846.041343 
L 70.01386 847.114407 
L 70.636736 848.623597 
L 66.166971 851.815094 
L 41.891891 823.573791 
L 22.051446 824.414886 
L -9.034693 784.552905 
L -16.820158 774.462079 
L -20.17373 769.905131 
L -32.619403 754.128751 
L -33.076069 753.531563 
L -37.099311 748.452995 
L -43.053019 740.895727 
L -65.225621 712.027311 
L -66.20562 710.17188 
L -65.56595 707.830995 
L -66.834953 705.277933 
L -65.6294 704.436689 
L -64.371701 704.558442 
L -61.018495 703.88932 
L -59.652555 703.168696 
L -58.767005 700.891935 
L -59.582298 699.479017 
L -55.753473 699.121696 
L -54.648795 698.095072 
L -53.995592 696.61353 
L -56.050143 693.666478 
L -25.157039 692.841551 
L -20.790894 683.632991 
L -17.433529 661.575074 
L -8.696488 653.17041 
L -6.959078 644.630301 
L -7.248673 643.571827 
L -7.257566 643.358412 
L -7.388947 643.052775 
L -7.181389 642.673109 
L -7.077666 642.490893 
L -5.930667 641.111305 
L -4.519366 640.037952 
L -4.02379 639.461828 
L -3.596788 638.336643 
L -3.397356 637.545367 
L -3.588651 636.965133 
L -3.819272 636.110348 
L -4.373021 634.476403 
L -5.089204 632.643315 
L -5.309754 631.864752 
L -5.443721 630.33999 
L -5.100114 629.412508 
L -4.0929 627.07178 
L -3.797487 625.59535 
L -3.184651 624.059836 
L -2.366411 622.342605 
L -2.044405 621.49108 
L -1.978819 620.954706 
L -1.943084 619.876333 
L -2.090942 618.915432 
L -2.535589 618.013764 
L -2.624135 617.418933 
L -2.681111 616.671898 
L -2.627249 616.199808 
L -2.499902 615.392894 
L -2.149877 614.952997 
L -1.708358 614.589802 
L -0.589586 613.712269 
L -0.013461 612.999239 
L 0.03 612.527079 
L 0.091368 611.272769 
L 0.028493 609.083147 
L 0.072435 608.519563 
L 0.04423 608.077491 
L 0.178799 607.742982 
L 0.488573 607.104656 
L 0.798379 606.451081 
L 2.195188 604.827987 
L 2.922856 604.237456 
L 3.304238 603.492724 
L 3.727662 602.489134 
L 4.037014 601.835437 
L 4.263346 601.455606 
L 4.144034 600.830246 
L 3.7942 599.396106 
L 3.361454 598.251059 
L 2.979425 597.18244 
L 2.463077 596.478822 
z
" clip-path="url(#p2c52aadcc4)" style="fill: #ffffff; stroke: #ffffff; stroke-linejoin: miter"/>
   </g>
   <g id="patch_24">
    <path d="M -5.003344 190.1233 
L 2.041225 201.168913 
L 3.852568 203.971787 
L 15.226228 230.259807 
L 0.574795 236.282972 
L -5.055959 222.452982 
L -29.755107 213.911108 
L -62.159131 214.148093 
L -68.887368 214.131901 
L -72.127073 214.758271 
L -54.073022 203.215307 
L -41.565594 199.859876 
z
" clip-path="url(#p2c52aadcc4)" style="fill: #ffffff; stroke: #ffffff; stroke-linejoin: miter"/>
   </g>
   <g id="patch_25">
    <path d="M -72.127073 214.758271 
L -66.196305 199.910473 
L -41.565594 199.859876 
L -54.073022 203.215307 
z
" clip-path="url(#p2c52aadcc4)" style="fill: #ffffff; stroke: #ffffff; stroke-linejoin: miter"/>
   </g>
   <g id="patch_26">
    <path d="M 10.435547 186.019764 
L 33.897831 199.543171 
L 91.053312 307.122589 
L 63.59852 332.17567 
L 26.20404 437.850012 
L 22.072384 435.122629 
L 15.976072 438.033124 
L 5.919292 436.491824 
L 5.901477 433.443148 
L -4.35991 429.303512 
L -8.254172 423.446658 
L -6.456985 421.052433 
L -7.816773 419.501757 
L -12.512874 416.97062 
L -20.368584 418.635689 
L -20.842628 422.797132 
L -27.729396 427.103887 
L -41.037661 426.210189 
L -46.278152 420.845414 
L -48.674794 421.866168 
L -47.817273 424.558026 
L -52.01141 426.940617 
L -53.343372 415.077479 
L -62.764885 410.424861 
L -72.971105 411.687309 
L -71.017789 417.571799 
L -73.453916 421.100218 
L -78.478696 418.074111 
L -82.245055 418.715724 
L -84.45309 413.472635 
L -85.595544 410.744357 
L -96.279683 358.239031 
L -74.897531 344.600265 
L -72.415021 329.488126 
L -81.310014 316.985708 
L -89.637523 309.476328 
L -104.442912 320.199581 
L -96.057663 282.735642 
L -88.695437 249.732025 
L -55.930703 252.958897 
L -62.159131 214.148093 
L -29.755107 213.911108 
L -5.055959 222.452982 
L 0.574795 236.282972 
L 15.226228 230.259807 
L 3.852568 203.971787 
L 2.041225 201.168913 
L -5.003344 190.1233 
z
" clip-path="url(#p2c52aadcc4)" style="fill: #ffffff; stroke: #ffffff; stroke-linejoin: miter"/>
   </g>
   <g id="patch_27">
    <path d="M 10.435547 186.019764 
L 33.897831 199.543171 
L 91.053312 307.122589 
L 63.59852 332.17567 
L 26.20404 437.850012 
L 22.072384 435.122629 
L 15.976072 438.033124 
L 5.919292 436.491824 
L 5.901477 433.443148 
L -4.35991 429.303512 
L -8.254172 423.446658 
L -6.456985 421.052433 
L -7.816773 419.501757 
L -12.512874 416.97062 
L -20.368584 418.635689 
L -20.842628 422.797132 
L -27.729396 427.103887 
L -41.037661 426.210189 
L -46.278152 420.845414 
L -48.674794 421.866168 
L -47.817273 424.558026 
L -52.01141 426.940617 
L -53.343372 415.077479 
L -62.764885 410.424861 
L -72.971105 411.687309 
L -71.017789 417.571799 
L -73.453916 421.100218 
L -78.478696 418.074111 
L -82.245055 418.715724 
L -84.45309 413.472635 
L -85.595544 410.744357 
L -96.279683 358.239031 
L -103.426766 322.674718 
L -104.442912 320.199581 
L -96.057663 282.735642 
L -88.695437 249.732025 
L -72.127073 214.758271 
L -54.073022 203.215307 
L -41.565594 199.859876 
L -5.003344 190.1233 
z
" clip-path="url(#p2c52aadcc4)" style="fill: #ffffff; stroke: #ffffff; stroke-linejoin: miter"/>
   </g>
   <g id="patch_28">
    <path d="M 10.435547 186.019764 
L 33.897831 199.543171 
L 91.053312 307.122589 
L 63.59852 332.17567 
L 26.20404 437.850012 
L 22.072384 435.122629 
L 15.976072 438.033124 
L 5.919292 436.491824 
L 5.901477 433.443148 
L -4.35991 429.303512 
L -8.254172 423.446658 
L -6.456985 421.052433 
L -7.816773 419.501757 
L -12.512874 416.97062 
L -20.368584 418.635689 
L -20.842628 422.797132 
L -27.729396 427.103887 
L -41.037661 426.210189 
L -46.278152 420.845414 
L -48.674794 421.866168 
L -47.817273 424.558026 
L -52.01141 426.940617 
L -53.343372 415.077479 
L -62.764885 410.424861 
L -72.971105 411.687309 
L -71.017789 417.571799 
L -73.453916 421.100218 
L -78.478696 418.074111 
L -82.245055 418.715724 
L -84.45309 413.472635 
L -85.595544 410.744357 
L -96.279683 358.239031 
L -103.426766 322.674718 
L -104.442912 320.199581 
L -96.057663 282.735642 
L -88.695437 249.732025 
L -72.127073 214.758271 
L -54.073022 203.215307 
L -41.565594 199.859876 
L -5.003344 190.1233 
z
" clip-path="url(#p2c52aadcc4)" style="fill: #ffffff; stroke: #ffffff; stroke-linejoin: miter"/>
   </g>
   <g id="patch_29">
    <path d="M 10.435547 186.019764 
L 33.897831 199.543171 
L 91.053312 307.122589 
L 63.59852 332.17567 
L 26.20404 437.850012 
L 22.072384 435.122629 
L 15.976072 438.033124 
L 5.919292 436.491824 
L 5.901477 433.443148 
L -4.35991 429.303512 
L -8.254172 423.446658 
L -6.456985 421.052433 
L -7.816773 419.501757 
L -12.512874 416.97062 
L -20.368584 418.635689 
L -20.842628 422.797132 
L -27.729396 427.103887 
L -41.037661 426.210189 
L -46.278152 420.845414 
L -48.674794 421.866168 
L -47.817273 424.558026 
L -52.01141 426.940617 
L -53.343372 415.077479 
L -62.764885 410.424861 
L -72.971105 411.687309 
L -71.017789 417.571799 
L -73.453916 421.100218 
L -78.478696 418.074111 
L -82.245055 418.715724 
L -84.45309 413.472635 
L -85.595544 410.744357 
L -96.279683 358.239031 
L -103.426766 322.674718 
L -104.442912 320.199581 
L -96.057663 282.735642 
L -88.695437 249.732025 
L -72.127073 214.758271 
L -54.073022 203.215307 
L -41.565594 199.859876 
L -5.003344 190.1233 
z
" clip-path="url(#p2c52aadcc4)" style="fill: #ffffff; stroke: #ffffff; stroke-linejoin: miter"/>
   </g>
   <g id="patch_30">
    <path d="M 10.435547 186.019764 
L 33.897831 199.543171 
L 91.053312 307.122589 
L 63.59852 332.17567 
L 26.20404 437.850012 
L 22.072384 435.122629 
L 15.976072 438.033124 
L 5.919292 436.491824 
L 5.901477 433.443148 
L -4.35991 429.303512 
L -8.254172 423.446658 
L -6.456985 421.052433 
L -7.816773 419.501757 
L -12.512874 416.97062 
L -20.368584 418.635689 
L -20.842628 422.797132 
L -27.729396 427.103887 
L -41.037661 426.210189 
L -46.278152 420.845414 
L -48.674794 421.866168 
L -47.817273 424.558026 
L -52.01141 426.940617 
L -53.343372 415.077479 
L -62.764885 410.424861 
L -72.971105 411.687309 
L -71.017789 417.571799 
L -73.453916 421.100218 
L -78.478696 418.074111 
L -82.245055 418.715724 
L -84.45309 413.472635 
L -85.595544 410.744357 
L -96.279683 358.239031 
L -103.426766 322.674718 
L -104.442912 320.199581 
L -96.057663 282.735642 
L -88.695437 249.732025 
L -72.127073 214.758271 
L -54.073022 203.215307 
L -41.565594 199.859876 
L -5.003344 190.1233 
z
" clip-path="url(#p2c52aadcc4)" style="fill: #ffffff; stroke: #ffffff; stroke-linejoin: miter"/>
   </g>
   <g id="patch_31">
    <path d="M -68.887368 214.131901 
L -62.159131 214.148093 
L -55.930703 252.958897 
L -88.695437 249.732025 
L -72.127073 214.758271 
z
" clip-path="url(#p2c52aadcc4)" style="fill: #ffffff; stroke: #ffffff; stroke-linejoin: miter"/>
   </g>
   <g id="patch_32">
    <path d="M 91.053312 307.122589 
L 159.943585 359.501771 
L 152.824649 388.6437 
L 124.769388 495.570328 
L 105.733559 622.562437 
L 72.91411 622.759464 
L 0.916726 595.023015 
L -0.180078 593.26464 
L -0.746823 592.56053 
L -0.856853 592.194198 
L -0.908658 592.346287 
L -1.059777 592.040674 
L -1.109429 591.811822 
L -1.160805 591.887721 
L -1.158646 591.506783 
L -0.954449 591.431747 
L -1.003239 591.050522 
L -1.001948 590.821959 
L -0.898357 590.517783 
L -0.744695 590.366267 
L -0.792632 589.832669 
L -0.534997 589.300784 
L -0.585498 589.224312 
L -0.482369 588.996319 
L -0.481093 588.767758 
L -0.582941 588.767188 
L -0.631731 588.385967 
L -0.78064 587.699425 
L -0.822552 586.099212 
L -0.919637 585.260583 
L -0.968386 584.879362 
L -1.119737 584.641473 
L -0.099778 581.933172 
L -0.277601 578.940519 
L 1.008136 577.405606 
L 2.017707 576.565307 
L 2.279228 575.441644 
L 1.978413 573.787642 
L 3.209382 572.054011 
L 5.269645 568.971528 
L 6.693116 565.447505 
L 8.83104 563.866612 
L 9.809232 560.583034 
L 11.380889 554.034336 
L 11.441451 552.369116 
L 11.857757 550.862783 
L 15.813487 548.761856 
L 16.887686 546.356888 
L 15.542946 539.078104 
L 16.057744 536.049992 
L 19.0733 527.733302 
L 19.264988 523.153772 
L 20.381493 521.871787 
L 22.373378 520.473095 
L 23.18133 517.356928 
L 22.974141 515.530641 
L 23.27638 512.602344 
L 22.64213 509.107081 
L 23.199145 506.86889 
L 25.746263 502.724137 
L 26.733723 499.550101 
L 31.694734 496.26507 
L 39.437686 486.76764 
L 39.491886 482.64954 
L 40.329877 481.368832 
L 41.528075 481.123652 
L 43.482216 481.51726 
L 44.959048 480.449236 
L 45.324657 477.874407 
L 46.271173 476.999699 
L 47.921614 476.87008 
L 49.377177 476.804602 
L 51.54942 475.246284 
L 53.25405 472.349885 
L 54.600154 466.365679 
L 57.141024 460.15309 
L 60.35217 455.42393 
L 62.212015 451.648778 
L 66.031563 449.998069 
L 65.514318 449.555315 
L 65.085198 448.368311 
L 62.458724 449.729005 
L 62.256565 448.158687 
L 59.834257 447.997444 
L 59.776541 448.387324 
L 58.899613 447.97328 
L 58.059652 448.476936 
L 56.387512 447.993936 
L 55.188251 447.00071 
L 53.653481 446.869383 
L 53.216549 446.390971 
L 51.521605 446.397389 
L 47.789312 442.717948 
L 44.948174 442.03296 
L 44.698022 441.633131 
L 44.105037 441.832161 
L 43.869867 441.099686 
L 42.196125 440.499284 
L 40.295953 440.878941 
L 37.389509 436.363042 
L 36.051064 436.221915 
L 33.956339 438.597602 
L 29.433161 439.720469 
L 26.20404 437.850012 
L 63.59852 332.17567 
z
" clip-path="url(#p2c52aadcc4)" style="fill: #ffffff; stroke: #ffffff; stroke-linejoin: miter"/>
   </g>
   <g id="patch_33">
    <path d="M 91.053312 307.122589 
L 159.943585 359.501771 
L 152.824649 388.6437 
L 124.769388 495.570328 
L 105.733559 622.562437 
L 72.91411 622.759464 
L 0.916726 595.023015 
L -0.180078 593.26464 
L -0.746823 592.56053 
L -0.856853 592.194198 
L -0.908658 592.346287 
L -1.059777 592.040674 
L -1.109429 591.811822 
L -1.160805 591.887721 
L -1.158646 591.506783 
L -0.954449 591.431747 
L -1.003239 591.050522 
L -1.001948 590.821959 
L -0.898357 590.517783 
L -0.744695 590.366267 
L -0.792632 589.832669 
L -0.534997 589.300784 
L -0.585498 589.224312 
L -0.482369 588.996319 
L -0.481093 588.767758 
L -0.582941 588.767188 
L -0.631731 588.385967 
L -0.78064 587.699425 
L -0.822552 586.099212 
L -0.919637 585.260583 
L -0.968386 584.879362 
L -1.119737 584.641473 
L -0.099778 581.933172 
L -0.277601 578.940519 
L 1.008136 577.405606 
L 2.017707 576.565307 
L 2.279228 575.441644 
L 1.978413 573.787642 
L 3.209382 572.054011 
L 5.269645 568.971528 
L 6.693116 565.447505 
L 8.83104 563.866612 
L 9.809232 560.583034 
L 11.380889 554.034336 
L 11.441451 552.369116 
L 11.857757 550.862783 
L 15.813487 548.761856 
L 16.887686 546.356888 
L 15.542946 539.078104 
L 16.057744 536.049992 
L 19.0733 527.733302 
L 19.264988 523.153772 
L 20.381493 521.871787 
L 22.373378 520.473095 
L 23.18133 517.356928 
L 22.974141 515.530641 
L 23.27638 512.602344 
L 22.64213 509.107081 
L 23.199145 506.86889 
L 25.746263 502.724137 
L 26.733723 499.550101 
L 31.694734 496.26507 
L 39.437686 486.76764 
L 39.491886 482.64954 
L 40.329877 481.368832 
L 41.528075 481.123652 
L 43.482216 481.51726 
L 44.959048 480.449236 
L 45.324657 477.874407 
L 46.271173 476.999699 
L 47.921614 476.87008 
L 49.377177 476.804602 
L 51.54942 475.246284 
L 53.25405 472.349885 
L 54.600154 466.365679 
L 57.141024 460.15309 
L 60.35217 455.42393 
L 62.212015 451.648778 
L 66.031563 449.998069 
L 65.514318 449.555315 
L 65.085198 448.368311 
L 62.458724 449.729005 
L 62.256565 448.158687 
L 59.834257 447.997444 
L 59.776541 448.387324 
L 58.899613 447.97328 
L 58.059652 448.476936 
L 56.387512 447.993936 
L 55.188251 447.00071 
L 53.653481 446.869383 
L 53.216549 446.390971 
L 51.521605 446.397389 
L 47.789312 442.717948 
L 44.948174 442.03296 
L 44.698022 441.633131 
L 44.105037 441.832161 
L 43.869867 441.099686 
L 42.196125 440.499284 
L 40.295953 440.878941 
L 37.389509 436.363042 
L 36.051064 436.221915 
L 33.956339 438.597602 
L 29.433161 439.720469 
L 26.20404 437.850012 
L 63.59852 332.17567 
z
" clip-path="url(#p2c52aadcc4)" style="fill: #ffffff; stroke: #ffffff; stroke-linejoin: miter"/>
   </g>
   <g id="patch_34">
    <path d="M 91.053312 307.122589 
L 159.943585 359.501771 
L 152.824649 388.6437 
L 124.769388 495.570328 
L 105.733559 622.562437 
L 72.91411 622.759464 
L 0.916726 595.023015 
L -0.180078 593.26464 
L -0.746823 592.56053 
L -0.856853 592.194198 
L -0.908658 592.346287 
L -1.059777 592.040674 
L -1.109429 591.811822 
L -1.160805 591.887721 
L -1.158646 591.506783 
L -0.954449 591.431747 
L -1.003239 591.050522 
L -1.001948 590.821959 
L -0.898357 590.517783 
L -0.744695 590.366267 
L -0.792632 589.832669 
L -0.534997 589.300784 
L -0.585498 589.224312 
L -0.482369 588.996319 
L -0.481093 588.767758 
L -0.582941 588.767188 
L -0.631731 588.385967 
L -0.78064 587.699425 
L -0.822552 586.099212 
L -0.919637 585.260583 
L -0.968386 584.879362 
L -1.119737 584.641473 
L -0.099778 581.933172 
L -0.277601 578.940519 
L 1.008136 577.405606 
L 2.017707 576.565307 
L 2.279228 575.441644 
L 1.978413 573.787642 
L 3.209382 572.054011 
L 5.269645 568.971528 
L 6.693116 565.447505 
L 8.83104 563.866612 
L 9.809232 560.583034 
L 11.380889 554.034336 
L 11.441451 552.369116 
L 11.857757 550.862783 
L 15.813487 548.761856 
L 16.887686 546.356888 
L 15.542946 539.078104 
L 16.057744 536.049992 
L 19.0733 527.733302 
L 19.264988 523.153772 
L 20.381493 521.871787 
L 22.373378 520.473095 
L 23.18133 517.356928 
L 22.974141 515.530641 
L 23.27638 512.602344 
L 22.64213 509.107081 
L 23.199145 506.86889 
L 25.746263 502.724137 
L 26.733723 499.550101 
L 31.694734 496.26507 
L 39.437686 486.76764 
L 39.491886 482.64954 
L 40.329877 481.368832 
L 41.528075 481.123652 
L 43.482216 481.51726 
L 44.959048 480.449236 
L 45.324657 477.874407 
L 46.271173 476.999699 
L 47.921614 476.87008 
L 49.377177 476.804602 
L 51.54942 475.246284 
L 53.25405 472.349885 
L 54.600154 466.365679 
L 57.141024 460.15309 
L 60.35217 455.42393 
L 62.212015 451.648778 
L 66.031563 449.998069 
L 65.514318 449.555315 
L 65.085198 448.368311 
L 62.458724 449.729005 
L 62.256565 448.158687 
L 59.834257 447.997444 
L 59.776541 448.387324 
L 58.899613 447.97328 
L 58.059652 448.476936 
L 56.387512 447.993936 
L 55.188251 447.00071 
L 53.653481 446.869383 
L 53.216549 446.390971 
L 51.521605 446.397389 
L 47.789312 442.717948 
L 44.948174 442.03296 
L 44.698022 441.633131 
L 44.105037 441.832161 
L 43.869867 441.099686 
L 42.196125 440.499284 
L 40.295953 440.878941 
L 37.389509 436.363042 
L 36.051064 436.221915 
L 33.956339 438.597602 
L 29.433161 439.720469 
L 26.20404 437.850012 
L 63.59852 332.17567 
z
" clip-path="url(#p2c52aadcc4)" style="fill: #ffffff; stroke: #ffffff; stroke-linejoin: miter"/>
   </g>
   <g id="patch_35">
    <path d="M 152.824649 388.6437 
L 231.960221 434.087957 
L 252.4347 449.972357 
L 220.865167 471.825068 
L 212.218076 489.084349 
L 206.243207 500.984226 
L 204.204497 505.134171 
L 199.039362 515.402034 
L 199.382805 532.159342 
L 200.165814 570.415147 
L 200.767706 599.870569 
L 201.026886 612.567413 
L 158.823569 613.271521 
L 130.454261 622.32254 
L 105.733559 622.562437 
L 124.769388 495.570328 
z
" clip-path="url(#p2c52aadcc4)" style="fill: #ffffff; stroke: #ffffff; stroke-linejoin: miter"/>
   </g>
   <g id="patch_36">
    <path d="M 152.824649 388.6437 
L 231.960221 434.087957 
L 252.4347 449.972357 
L 220.865167 471.825068 
L 212.218076 489.084349 
L 206.243207 500.984226 
L 204.204497 505.134171 
L 199.039362 515.402034 
L 199.382805 532.159342 
L 200.165814 570.415147 
L 200.767706 599.870569 
L 201.026886 612.567413 
L 158.823569 613.271521 
L 130.454261 622.32254 
L 105.733559 622.562437 
L 124.769388 495.570328 
z
" clip-path="url(#p2c52aadcc4)" style="fill: #ffffff; stroke: #ffffff; stroke-linejoin: miter"/>
   </g>
   <g id="patch_37">
    <path d="M 152.824649 388.6437 
L 231.960221 434.087957 
L 252.4347 449.972357 
L 220.865167 471.825068 
L 212.218076 489.084349 
L 206.243207 500.984226 
L 204.204497 505.134171 
L 199.039362 515.402034 
L 199.382805 532.159342 
L 200.165814 570.415147 
L 200.767706 599.870569 
L 201.026886 612.567413 
L 158.823569 613.271521 
L 130.454261 622.32254 
L 105.733559 622.562437 
L 124.769388 495.570328 
z
" clip-path="url(#p2c52aadcc4)" style="fill: #ffffff; stroke: #ffffff; stroke-linejoin: miter"/>
   </g>
   <g id="patch_38">
    <path d="M 178.425832 230.477486 
L 262.574223 260.928 
L 266.27441 266.658434 
L 280.967234 288.720395 
L 315.34986 340.293195 
L 336.457241 371.97446 
L 300.323582 413.420553 
L 289.850177 424.064189 
L 268.180936 439.058798 
L 252.4347 449.972357 
L 231.960221 434.087957 
L 152.824649 388.6437 
L 159.943585 359.501771 
L 181.905305 245.902501 
z
" clip-path="url(#p2c52aadcc4)" style="fill: #ffffff; stroke: #ffffff; stroke-linejoin: miter"/>
   </g>
   <g id="patch_39">
    <path d="M 178.425832 230.477486 
L 262.574223 260.928 
L 266.27441 266.658434 
L 280.967234 288.720395 
L 315.34986 340.293195 
L 290.229929 363.070895 
L 276.211974 380.716942 
L 286.91602 397.904974 
L 300.323582 413.420553 
L 289.850177 424.064189 
L 268.180936 439.058798 
L 252.4347 449.972357 
L 231.960221 434.087957 
L 152.824649 388.6437 
L 159.943585 359.501771 
L 181.905305 245.902501 
z
" clip-path="url(#p2c52aadcc4)" style="fill: #ffffff; stroke: #ffffff; stroke-linejoin: miter"/>
   </g>
   <g id="patch_40">
    <path d="M 178.425832 230.477486 
L 262.574223 260.928 
L 266.27441 266.658434 
L 280.967234 288.720395 
L 315.34986 340.293195 
L 336.457241 371.97446 
L 300.323582 413.420553 
L 289.850177 424.064189 
L 268.180936 439.058798 
L 252.4347 449.972357 
L 231.960221 434.087957 
L 152.824649 388.6437 
L 159.943585 359.501771 
L 181.905305 245.902501 
z
" clip-path="url(#p2c52aadcc4)" style="fill: #ffffff; stroke: #ffffff; stroke-linejoin: miter"/>
   </g>
   <g id="patch_41">
    <path d="M 178.425832 230.477486 
L 262.574223 260.928 
L 266.27441 266.658434 
L 280.967234 288.720395 
L 315.34986 340.293195 
L 336.457241 371.97446 
L 300.323582 413.420553 
L 289.850177 424.064189 
L 268.180936 439.058798 
L 252.4347 449.972357 
L 231.960221 434.087957 
L 152.824649 388.6437 
L 159.943585 359.501771 
L 181.905305 245.902501 
z
" clip-path="url(#p2c52aadcc4)" style="fill: #ffffff; stroke: #ffffff; stroke-linejoin: miter"/>
   </g>
   <g id="patch_42">
    <path d="M 178.425832 230.477486 
L 262.574223 260.928 
L 266.27441 266.658434 
L 280.967234 288.720395 
L 315.34986 340.293195 
L 336.457241 371.97446 
L 300.323582 413.420553 
L 289.850177 424.064189 
L 268.180936 439.058798 
L 252.4347 449.972357 
L 231.960221 434.087957 
L 152.824649 388.6437 
L 159.943585 359.501771 
L 181.905305 245.902501 
z
" clip-path="url(#p2c52aadcc4)" style="fill: #ffffff; stroke: #ffffff; stroke-linejoin: miter"/>
   </g>
   <g id="patch_43">
    <path d="M 150.788014 -143.647846 
L 104.541674 -67.108823 
L 101.684265 -56.669406 
L 90.69717 -1.977544 
L 90.088524 12.079313 
L 88.922028 69.140729 
L 120.723772 110.040176 
L 113.529973 114.686626 
L 98.766073 123.621605 
L 66.36322 143.22797 
L 49.416709 113.133599 
L 32.885335 77.45435 
L -29.767178 17.747444 
L -70.947097 -2.784582 
L -105.091692 -19.898912 
L -64.066135 -74.139117 
L -34.174249 -113.493777 
L 74.917988 -131.42583 
z
" clip-path="url(#p2c52aadcc4)" style="fill: #ffffff; stroke: #ffffff; stroke-linejoin: miter"/>
   </g>
   <g id="patch_44">
    <path d="M 150.788014 -143.647846 
L 104.541674 -67.108823 
L 101.684265 -56.669406 
L 90.69717 -1.977544 
L 90.088524 12.079313 
L 88.922028 69.140729 
L 120.723772 110.040176 
L 113.529973 114.686626 
L 98.766073 123.621605 
L 81.838092 99.147391 
L 49.416709 113.133599 
L 32.885335 77.45435 
L -29.767178 17.747444 
L -70.947097 -2.784582 
L -105.091692 -19.898912 
L -64.066135 -74.139117 
L -34.174249 -113.493777 
L 74.917988 -131.42583 
z
" clip-path="url(#p2c52aadcc4)" style="fill: #ffffff; stroke: #ffffff; stroke-linejoin: miter"/>
   </g>
   <g id="patch_45">
    <path d="M 150.788014 -143.647846 
L 104.541674 -67.108823 
L 101.684265 -56.669406 
L 90.69717 -1.977544 
L 90.088524 12.079313 
L 88.922028 69.140729 
L 120.723772 110.040176 
L 113.529973 114.686626 
L 98.766073 123.621605 
L 66.36322 143.22797 
L 49.416709 113.133599 
L 32.885335 77.45435 
L -29.767178 17.747444 
L -70.947097 -2.784582 
L -105.091692 -19.898912 
L -64.066135 -74.139117 
L -34.174249 -113.493777 
L 74.917988 -131.42583 
z
" clip-path="url(#p2c52aadcc4)" style="fill: #ffffff; stroke: #ffffff; stroke-linejoin: miter"/>
   </g>
   <g id="patch_46">
    <path d="M -5.003344 190.1233 
L -41.565594 199.859876 
L -151.319646 128.135685 
L -148.24156 124.493268 
L -131.677928 113.827429 
L -136.660294 110.316096 
L -141.233773 112.696717 
L -141.742767 101.675505 
L -140.281664 100.527998 
L -126.175055 82.505204 
L -126.03606 76.708378 
L -125.809726 67.272569 
L -134.022845 48.86454 
L -136.883274 42.440519 
L -142.847543 35.425159 
L -143.524073 31.25746 
L -141.785667 28.043192 
L -105.091692 -19.898912 
L -70.947097 -2.784582 
L -29.767178 17.747444 
L 32.885335 77.45435 
L 49.416709 113.133599 
L 66.36322 143.22797 
L 8.811367 178.056728 
L 10.435547 186.019764 
z
" clip-path="url(#p2c52aadcc4)" style="fill: #ffffff; stroke: #ffffff; stroke-linejoin: miter"/>
   </g>
   <g id="patch_47">
    <path d="M -5.003344 190.1233 
L -41.565594 199.859876 
L -151.319646 128.135685 
L -148.24156 124.493268 
L -131.677928 113.827429 
L -136.660294 110.316096 
L -141.233773 112.696717 
L -141.742767 101.675505 
L -140.281664 100.527998 
L -126.175055 82.505204 
L -126.03606 76.708378 
L -125.809726 67.272569 
L -134.022845 48.86454 
L -136.883274 42.440519 
L -142.847543 35.425159 
L -143.524073 31.25746 
L -141.785667 28.043192 
L -105.091692 -19.898912 
L -70.947097 -2.784582 
L -29.767178 17.747444 
L 32.885335 77.45435 
L 49.416709 113.133599 
L -0.05696 134.506354 
L 8.811367 178.056728 
L 10.435547 186.019764 
z
" clip-path="url(#p2c52aadcc4)" style="fill: #ffffff; stroke: #ffffff; stroke-linejoin: miter"/>
   </g>
   <g id="patch_48">
    <path d="M -5.003344 190.1233 
L -41.565594 199.859876 
L -151.319646 128.135685 
L -148.24156 124.493268 
L -131.677928 113.827429 
L -136.660294 110.316096 
L -141.233773 112.696717 
L -141.742767 101.675505 
L -140.281664 100.527998 
L -126.175055 82.505204 
L -126.03606 76.708378 
L -125.809726 67.272569 
L -134.022845 48.86454 
L -136.883274 42.440519 
L -142.847543 35.425159 
L -143.524073 31.25746 
L -141.785667 28.043192 
L -105.091692 -19.898912 
L -70.947097 -2.784582 
L -29.767178 17.747444 
L 32.885335 77.45435 
L 49.416709 113.133599 
L 66.36322 143.22797 
L 8.811367 178.056728 
L 10.435547 186.019764 
z
" clip-path="url(#p2c52aadcc4)" style="fill: #ffffff; stroke: #ffffff; stroke-linejoin: miter"/>
   </g>
   <g id="patch_49">
    <path d="M 261.074833 121.074071 
L 266.397232 124.592341 
L 275.185332 139.51292 
L 284.323381 155.047406 
L 289.346937 163.557477 
L 303.634566 187.827349 
L 288.167363 210.605645 
L 286.963251 212.425137 
L 284.514864 217.335188 
L 280.692969 224.872701 
L 267.554859 251.037228 
L 265.69186 254.736006 
L 262.574223 260.928 
L 178.425832 230.477486 
L 168.685434 187.313648 
L 180.051663 126.026499 
L 222.422702 125.291699 
L 253.79333 124.766691 
L 261.074833 121.074071 
z
" clip-path="url(#p2c52aadcc4)" style="fill: #ffedd9; stroke: #ffedd9; stroke-linejoin: miter"/>
   </g>
   <g id="patch_50">
    <path d="M 187.06681 88.128 
L 230.030735 107.270455 
L 261.074833 121.074071 
L 253.79333 124.766691 
L 222.422702 125.291699 
L 180.051663 126.026499 
L 187.06681 88.128 
z
" clip-path="url(#p2c52aadcc4)" style="fill: #ffedd9; stroke: #ffedd9; stroke-linejoin: miter"/>
   </g>
   <g id="patch_51">
    <path d="M 266.397232 124.592341 
L 275.185332 139.51292 
L 284.323381 155.047406 
L 289.346937 163.557477 
L 303.634566 187.827349 
L 288.167363 210.605645 
L 286.963251 212.425137 
L 284.514864 217.335188 
L 280.692969 224.872701 
L 267.554859 251.037228 
L 265.69186 254.736006 
L 262.574223 260.928 
L 178.425832 230.477486 
L 168.685434 187.313648 
L 180.051663 126.026499 
L 187.06681 88.128 
L 230.030735 107.270455 
L 261.074833 121.074071 
L 266.397232 124.592341 
z
" clip-path="url(#p2c52aadcc4)" style="fill: #ffedd9; stroke: #ffedd9; stroke-linejoin: miter"/>
   </g>
   <g id="patch_52">
    <path d="M 266.397232 124.592341 
L 275.185332 139.51292 
L 284.323381 155.047406 
L 289.346937 163.557477 
L 303.634566 187.827349 
L 288.167363 210.605645 
L 286.963251 212.425137 
L 284.514864 217.335188 
L 280.692969 224.872701 
L 267.554859 251.037228 
L 265.69186 254.736006 
L 262.574223 260.928 
L 178.425832 230.477486 
L 168.685434 187.313648 
L 180.051663 126.026499 
L 187.06681 88.128 
L 230.030735 107.270455 
L 261.074833 121.074071 
L 266.397232 124.592341 
z
" clip-path="url(#p2c52aadcc4)" style="fill: #ffedd9; stroke: #ffedd9; stroke-linejoin: miter"/>
   </g>
   <g id="line2d_1">
    <path d="M 261.074833 121.074071 
L 266.397232 124.592341 
L 275.185332 139.51292 
L 284.323381 155.047406 
L 289.346937 163.557477 
L 303.634566 187.827349 
L 288.167363 210.605645 
L 286.963251 212.425137 
L 284.514864 217.335188 
L 280.692969 224.872701 
L 267.554859 251.037228 
L 265.69186 254.736006 
L 262.574223 260.928 
L 178.425832 230.477486 
L 168.685434 187.313648 
L 180.051663 126.026499 
L 222.422702 125.291699 
L 253.79333 124.766691 
L 261.074833 121.074071 
" clip-path="url(#p2c52aadcc4)" style="fill: none; stroke: #000000; stroke-width: 0.5; stroke-linecap: square"/>
   </g>
   <g id="line2d_2">
    <path d="M 187.06681 88.128 
L 230.030735 107.270455 
L 261.074833 121.074071 
L 253.79333 124.766691 
L 222.422702 125.291699 
L 180.051663 126.026499 
L 187.06681 88.128 
" clip-path="url(#p2c52aadcc4)" style="fill: none; stroke: #000000; stroke-width: 0.5; stroke-linecap: square"/>
   </g>
   <g id="line2d_3">
    <path d="M 266.397232 124.592341 
L 275.185332 139.51292 
L 284.323381 155.047406 
L 289.346937 163.557477 
L 303.634566 187.827349 
L 288.167363 210.605645 
L 286.963251 212.425137 
L 284.514864 217.335188 
L 280.692969 224.872701 
L 267.554859 251.037228 
L 265.69186 254.736006 
L 262.574223 260.928 
L 178.425832 230.477486 
L 168.685434 187.313648 
L 180.051663 126.026499 
L 187.06681 88.128 
L 230.030735 107.270455 
L 261.074833 121.074071 
L 266.397232 124.592341 
" clip-path="url(#p2c52aadcc4)" style="fill: none; stroke: #000000; stroke-width: 0.5; stroke-linecap: square"/>
   </g>
   <g id="line2d_4">
    <path d="M 266.397232 124.592341 
L 275.185332 139.51292 
L 284.323381 155.047406 
L 289.346937 163.557477 
L 303.634566 187.827349 
L 288.167363 210.605645 
L 286.963251 212.425137 
L 284.514864 217.335188 
L 280.692969 224.872701 
L 267.554859 251.037228 
L 265.69186 254.736006 
L 262.574223 260.928 
L 178.425832 230.477486 
L 168.685434 187.313648 
L 180.051663 126.026499 
L 187.06681 88.128 
L 230.030735 107.270455 
L 261.074833 121.074071 
L 266.397232 124.592341 
" clip-path="url(#p2c52aadcc4)" style="fill: none; stroke: #000000; stroke-width: 0.5; stroke-linecap: square"/>
   </g>
   <g id="line2d_5">
    <path d="M 365.04989 182.706109 
L 368.281424 279.720656 
L 433.483013 346.6 
M 319.551716 346.6 
L 315.34986 340.293195 
L 280.967234 288.720395 
L 266.27441 266.658434 
L 262.574223 260.928 
L 265.69186 254.736006 
L 267.554859 251.037228 
L 280.692969 224.872701 
L 284.514864 217.335188 
L 286.963251 212.425137 
L 288.167363 210.605645 
L 303.634566 187.827349 
L 365.04989 182.706109 
L 368.281424 279.720656 
L 433.483013 346.6 
M 321.140942 346.6 
L 284.723952 286.268098 
L 265.69186 254.736006 
L 267.554859 251.037228 
L 280.692969 224.872701 
L 284.514864 217.335188 
L 286.963251 212.425137 
L 288.167363 210.605645 
L 303.634566 187.827349 
L 365.04989 182.706109 
" clip-path="url(#p2c52aadcc4)" style="fill: none; stroke: #8f8f8f; stroke-width: 0.5; stroke-linecap: square"/>
   </g>
   <g id="line2d_6">
    <path clip-path="url(#p2c52aadcc4)" style="fill: none; stroke: #8f8f8f; stroke-width: 0.5; stroke-linecap: square"/>
   </g>
   <g id="line2d_7">
    <path d="M 461.8 183.752544 
L 459.582564 187.67548 
L 439.590175 176.510708 
L 417.715703 178.324004 
L 365.04989 182.706109 
L 303.634566 187.827349 
L 289.346937 163.557477 
L 284.323381 155.047406 
L 295.932441 154.602647 
L 424.917398 77.243955 
L 461.8 29.606953 
M 461.8 183.752544 
L 459.582564 187.67548 
L 439.590175 176.510708 
L 417.715703 178.324004 
L 365.04989 182.706109 
L 303.634566 187.827349 
L 295.932441 154.602647 
L 424.917398 77.243955 
L 461.8 29.606953 
M 461.8 183.752544 
L 459.582564 187.67548 
L 439.590175 176.510708 
L 417.715703 178.324004 
L 365.04989 182.706109 
L 303.634566 187.827349 
L 289.346937 163.557477 
L 284.323381 155.047406 
L 295.932441 154.602647 
L 424.917398 77.243955 
L 461.8 29.606953 
" clip-path="url(#p2c52aadcc4)" style="fill: none; stroke: #8f8f8f; stroke-width: 0.5; stroke-linecap: square"/>
   </g>
   <g id="line2d_8">
    <path clip-path="url(#p2c52aadcc4)" style="fill: none; stroke: #8f8f8f; stroke-width: 0.5; stroke-linecap: square"/>
   </g>
   <g id="line2d_9">
    <path d="M 303.634566 187.827349 
L 365.396746 209.046426 
L 461.8 242.163706 
M 461.8 340.034192 
L 452.60511 346.6 
M 319.551716 346.6 
L 315.34986 340.293195 
L 280.967234 288.720395 
L 266.27441 266.658434 
L 262.574223 260.928 
L 265.69186 254.736006 
L 267.554859 251.037228 
L 280.692969 224.872701 
L 284.514864 217.335188 
L 286.963251 212.425137 
L 288.167363 210.605645 
L 303.634566 187.827349 
" clip-path="url(#p2c52aadcc4)" style="fill: none; stroke: #8f8f8f; stroke-width: 0.5; stroke-linecap: square"/>
   </g>
   <g id="line2d_10">
    <path d="M 419.933485 -1 
L 451.431712 6.822976 
L 461.8 12.304937 
M 461.8 118.190651 
L 439.590175 176.510708 
L 459.582564 187.67548 
L 461.8 188.913761 
M 461.8 242.163706 
L 365.396746 209.046426 
L 303.634566 187.827349 
L 289.346937 163.557477 
L 284.323381 155.047406 
L 275.185332 139.51292 
L 266.397232 124.592341 
L 261.074833 121.074071 
L 269.884905 85.8598 
L 288.574265 61.894477 
L 298.325266 49.388664 
L 324.326978 24.83319 
L 338.461308 11.534695 
L 344.626487 5.675554 
L 360.881501 -1 
" clip-path="url(#p2c52aadcc4)" style="fill: none; stroke: #8f8f8f; stroke-width: 0.5; stroke-linecap: square"/>
   </g>
   <g id="line2d_11">
    <path clip-path="url(#p2c52aadcc4)" style="fill: none; stroke: #8f8f8f; stroke-width: 0.5; stroke-linecap: square"/>
   </g>
   <g id="line2d_12">
    <path d="M 187.06681 88.128 
L 180.051663 126.026499 
L 168.685434 187.313648 
L 178.425832 230.477486 
L 181.905305 245.902501 
L 162.437836 346.6 
M 142.974887 346.6 
L 91.053312 307.122589 
L 33.897831 199.543171 
L 10.435547 186.019764 
L 8.811367 178.056728 
L 66.36322 143.22797 
L 98.766073 123.621605 
L 113.529973 114.686626 
L 120.723772 110.040176 
L 153.701682 88.732553 
L 187.06681 88.128 
" clip-path="url(#p2c52aadcc4)" style="fill: none; stroke: #8f8f8f; stroke-width: 0.5; stroke-linecap: square"/>
   </g>
   <g id="line2d_13">
    <path d="M 81.838092 99.147391 
L 98.766073 123.621605 
L 66.36322 143.22797 
L 8.811367 178.056728 
L -0.05696 134.506354 
L 49.416709 113.133599 
L 81.838092 99.147391 
" clip-path="url(#p2c52aadcc4)" style="fill: none; stroke: #8f8f8f; stroke-width: 0.5; stroke-linecap: square"/>
   </g>
   <g id="line2d_14">
    <path d="M 187.06681 88.128 
L 180.051663 126.026499 
L 168.685434 187.313648 
L 178.425832 230.477486 
L 181.905305 245.902501 
L 162.437836 346.6 
M 142.974887 346.6 
L 91.053312 307.122589 
L 33.897831 199.543171 
L 10.435547 186.019764 
L 8.811367 178.056728 
L 66.36322 143.22797 
L 98.766073 123.621605 
L 113.529973 114.686626 
L 120.723772 110.040176 
L 153.701682 88.732553 
L 187.06681 88.128 
" clip-path="url(#p2c52aadcc4)" style="fill: none; stroke: #8f8f8f; stroke-width: 0.5; stroke-linecap: square"/>
   </g>
   <g id="line2d_15">
    <path d="M 187.06681 88.128 
L 180.051663 126.026499 
L 168.685434 187.313648 
L 178.425832 230.477486 
L 181.905305 245.902501 
L 162.437836 346.6 
M 142.974887 346.6 
L 91.053312 307.122589 
L 33.897831 199.543171 
L 10.435547 186.019764 
L 8.811367 178.056728 
L 66.36322 143.22797 
L 98.766073 123.621605 
L 113.529973 114.686626 
L 120.723772 110.040176 
L 153.701682 88.732553 
L 187.06681 88.128 
" clip-path="url(#p2c52aadcc4)" style="fill: none; stroke: #8f8f8f; stroke-width: 0.5; stroke-linecap: square"/>
   </g>
   <g id="line2d_16">
    <path d="M 187.06681 88.128 
L 180.051663 126.026499 
L 168.685434 187.313648 
L 178.425832 230.477486 
L 181.905305 245.902501 
L 162.437836 346.6 
M 142.974887 346.6 
L 91.053312 307.122589 
L 33.897831 199.543171 
L 10.435547 186.019764 
L 8.811367 178.056728 
L 66.36322 143.22797 
L 98.766073 123.621605 
L 113.529973 114.686626 
L 120.723772 110.040176 
L 153.701682 88.732553 
L 187.06681 88.128 
" clip-path="url(#p2c52aadcc4)" style="fill: none; stroke: #8f8f8f; stroke-width: 0.5; stroke-linecap: square"/>
   </g>
   <g id="line2d_17">
    <path d="M 269.884905 85.8598 
L 261.074833 121.074071 
L 253.79333 124.766691 
L 222.422702 125.291699 
L 230.030735 107.270455 
L 238.668772 86.839526 
L 269.884905 85.8598 
" clip-path="url(#p2c52aadcc4)" style="fill: none; stroke: #8f8f8f; stroke-width: 0.5; stroke-linecap: square"/>
   </g>
   <g id="line2d_18">
    <path d="M 187.06681 88.128 
L 193.358898 87.996287 
L 226.932897 87.198486 
L 238.668772 86.839526 
L 230.030735 107.270455 
L 222.422702 125.291699 
L 180.051663 126.026499 
L 187.06681 88.128 
" clip-path="url(#p2c52aadcc4)" style="fill: none; stroke: #8f8f8f; stroke-width: 0.5; stroke-linecap: square"/>
   </g>
   <g id="line2d_19">
    <path clip-path="url(#p2c52aadcc4)" style="fill: none; stroke: #8f8f8f; stroke-width: 0.5; stroke-linecap: square"/>
   </g>
   <g id="line2d_20">
    <path d="M 0 0 
" clip-path="url(#p2c52aadcc4)" style="fill: none; stroke: #8f8f8f; stroke-width: 0.5; stroke-linecap: square"/>
   </g>
   <g id="line2d_21">
    <path d="M 0 0 
" clip-path="url(#p2c52aadcc4)" style="fill: none; stroke: #8f8f8f; stroke-width: 0.5; stroke-linecap: square"/>
   </g>
   <g id="line2d_22">
    <path d="M 0 0 
" clip-path="url(#p2c52aadcc4)" style="fill: none; stroke: #8f8f8f; stroke-width: 0.5; stroke-linecap: square"/>
   </g>
   <g id="line2d_23">
    <path d="M -1 196.400389 
L 2.041225 201.168913 
L 3.852568 203.971787 
L 15.226228 230.259807 
L 0.574795 236.282972 
L -1 232.415035 
" clip-path="url(#p2c52aadcc4)" style="fill: none; stroke: #8f8f8f; stroke-width: 0.5; stroke-linecap: square"/>
   </g>
   <g id="line2d_24">
    <path clip-path="url(#p2c52aadcc4)" style="fill: none; stroke: #8f8f8f; stroke-width: 0.5; stroke-linecap: square"/>
   </g>
   <g id="line2d_25">
    <path d="M 10.435547 186.019764 
L 33.897831 199.543171 
L 91.053312 307.122589 
L 63.59852 332.17567 
L 58.494251 346.6 
M -1 232.415035 
L 0.574795 236.282972 
L 15.226228 230.259807 
L 3.852568 203.971787 
L 2.041225 201.168913 
L -1 196.400389 
M -1 189.059242 
L 10.435547 186.019764 
" clip-path="url(#p2c52aadcc4)" style="fill: none; stroke: #8f8f8f; stroke-width: 0.5; stroke-linecap: square"/>
   </g>
   <g id="line2d_26">
    <path d="M 10.435547 186.019764 
L 33.897831 199.543171 
L 91.053312 307.122589 
L 63.59852 332.17567 
L 58.494251 346.6 
M -1 189.059242 
L 10.435547 186.019764 
" clip-path="url(#p2c52aadcc4)" style="fill: none; stroke: #8f8f8f; stroke-width: 0.5; stroke-linecap: square"/>
   </g>
   <g id="line2d_27">
    <path d="M 10.435547 186.019764 
L 33.897831 199.543171 
L 91.053312 307.122589 
L 63.59852 332.17567 
L 58.494251 346.6 
M -1 189.059242 
L 10.435547 186.019764 
" clip-path="url(#p2c52aadcc4)" style="fill: none; stroke: #8f8f8f; stroke-width: 0.5; stroke-linecap: square"/>
   </g>
   <g id="line2d_28">
    <path d="M 10.435547 186.019764 
L 33.897831 199.543171 
L 91.053312 307.122589 
L 63.59852 332.17567 
L 58.494251 346.6 
M -1 189.059242 
L 10.435547 186.019764 
" clip-path="url(#p2c52aadcc4)" style="fill: none; stroke: #8f8f8f; stroke-width: 0.5; stroke-linecap: square"/>
   </g>
   <g id="line2d_29">
    <path d="M 10.435547 186.019764 
L 33.897831 199.543171 
L 91.053312 307.122589 
L 63.59852 332.17567 
L 58.494251 346.6 
M -1 189.059242 
L 10.435547 186.019764 
" clip-path="url(#p2c52aadcc4)" style="fill: none; stroke: #8f8f8f; stroke-width: 0.5; stroke-linecap: square"/>
   </g>
   <g id="line2d_30">
    <path clip-path="url(#p2c52aadcc4)" style="fill: none; stroke: #8f8f8f; stroke-width: 0.5; stroke-linecap: square"/>
   </g>
   <g id="line2d_31">
    <path d="M 91.053312 307.122589 
L 142.974887 346.6 
M 58.494251 346.6 
L 63.59852 332.17567 
L 91.053312 307.122589 
" clip-path="url(#p2c52aadcc4)" style="fill: none; stroke: #8f8f8f; stroke-width: 0.5; stroke-linecap: square"/>
   </g>
   <g id="line2d_32">
    <path d="M 91.053312 307.122589 
L 142.974887 346.6 
M 58.494251 346.6 
L 63.59852 332.17567 
L 91.053312 307.122589 
" clip-path="url(#p2c52aadcc4)" style="fill: none; stroke: #8f8f8f; stroke-width: 0.5; stroke-linecap: square"/>
   </g>
   <g id="line2d_33">
    <path d="M 91.053312 307.122589 
L 142.974887 346.6 
M 58.494251 346.6 
L 63.59852 332.17567 
L 91.053312 307.122589 
" clip-path="url(#p2c52aadcc4)" style="fill: none; stroke: #8f8f8f; stroke-width: 0.5; stroke-linecap: square"/>
   </g>
   <g id="line2d_34">
    <path clip-path="url(#p2c52aadcc4)" style="fill: none; stroke: #8f8f8f; stroke-width: 0.5; stroke-linecap: square"/>
   </g>
   <g id="line2d_35">
    <path clip-path="url(#p2c52aadcc4)" style="fill: none; stroke: #8f8f8f; stroke-width: 0.5; stroke-linecap: square"/>
   </g>
   <g id="line2d_36">
    <path clip-path="url(#p2c52aadcc4)" style="fill: none; stroke: #8f8f8f; stroke-width: 0.5; stroke-linecap: square"/>
   </g>
   <g id="line2d_37">
    <path d="M 178.425832 230.477486 
L 262.574223 260.928 
L 266.27441 266.658434 
L 280.967234 288.720395 
L 315.34986 340.293195 
L 319.551716 346.6 
M 162.437836 346.6 
L 181.905305 245.902501 
L 178.425832 230.477486 
" clip-path="url(#p2c52aadcc4)" style="fill: none; stroke: #8f8f8f; stroke-width: 0.5; stroke-linecap: square"/>
   </g>
   <g id="line2d_38">
    <path d="M 178.425832 230.477486 
L 262.574223 260.928 
L 266.27441 266.658434 
L 280.967234 288.720395 
L 315.34986 340.293195 
L 308.394526 346.6 
M 162.437836 346.6 
L 181.905305 245.902501 
L 178.425832 230.477486 
" clip-path="url(#p2c52aadcc4)" style="fill: none; stroke: #8f8f8f; stroke-width: 0.5; stroke-linecap: square"/>
   </g>
   <g id="line2d_39">
    <path d="M 178.425832 230.477486 
L 262.574223 260.928 
L 266.27441 266.658434 
L 280.967234 288.720395 
L 315.34986 340.293195 
L 319.551716 346.6 
M 162.437836 346.6 
L 181.905305 245.902501 
L 178.425832 230.477486 
" clip-path="url(#p2c52aadcc4)" style="fill: none; stroke: #8f8f8f; stroke-width: 0.5; stroke-linecap: square"/>
   </g>
   <g id="line2d_40">
    <path d="M 178.425832 230.477486 
L 262.574223 260.928 
L 266.27441 266.658434 
L 280.967234 288.720395 
L 315.34986 340.293195 
L 319.551716 346.6 
M 162.437836 346.6 
L 181.905305 245.902501 
L 178.425832 230.477486 
" clip-path="url(#p2c52aadcc4)" style="fill: none; stroke: #8f8f8f; stroke-width: 0.5; stroke-linecap: square"/>
   </g>
   <g id="line2d_41">
    <path d="M 178.425832 230.477486 
L 262.574223 260.928 
L 266.27441 266.658434 
L 280.967234 288.720395 
L 315.34986 340.293195 
L 319.551716 346.6 
M 162.437836 346.6 
L 181.905305 245.902501 
L 178.425832 230.477486 
" clip-path="url(#p2c52aadcc4)" style="fill: none; stroke: #8f8f8f; stroke-width: 0.5; stroke-linecap: square"/>
   </g>
   <g id="line2d_42">
    <path d="M 90.654843 -1 
L 90.088524 12.079313 
L 88.922028 69.140729 
L 120.723772 110.040176 
L 113.529973 114.686626 
L 98.766073 123.621605 
L 66.36322 143.22797 
L 49.416709 113.133599 
L 32.885335 77.45435 
L -1 45.162134 
" clip-path="url(#p2c52aadcc4)" style="fill: none; stroke: #8f8f8f; stroke-width: 0.5; stroke-linecap: square"/>
   </g>
   <g id="line2d_43">
    <path d="M 90.654843 -1 
L 90.088524 12.079313 
L 88.922028 69.140729 
L 120.723772 110.040176 
L 113.529973 114.686626 
L 98.766073 123.621605 
L 81.838092 99.147391 
L 49.416709 113.133599 
L 32.885335 77.45435 
L -1 45.162134 
" clip-path="url(#p2c52aadcc4)" style="fill: none; stroke: #8f8f8f; stroke-width: 0.5; stroke-linecap: square"/>
   </g>
   <g id="line2d_44">
    <path d="M 90.654843 -1 
L 90.088524 12.079313 
L 88.922028 69.140729 
L 120.723772 110.040176 
L 113.529973 114.686626 
L 98.766073 123.621605 
L 66.36322 143.22797 
L 49.416709 113.133599 
L 32.885335 77.45435 
L -1 45.162134 
" clip-path="url(#p2c52aadcc4)" style="fill: none; stroke: #8f8f8f; stroke-width: 0.5; stroke-linecap: square"/>
   </g>
   <g id="line2d_45">
    <path d="M -1 45.162134 
L 32.885335 77.45435 
L 49.416709 113.133599 
L 66.36322 143.22797 
L 8.811367 178.056728 
L 10.435547 186.019764 
L -1 189.059242 
" clip-path="url(#p2c52aadcc4)" style="fill: none; stroke: #8f8f8f; stroke-width: 0.5; stroke-linecap: square"/>
   </g>
   <g id="line2d_46">
    <path d="M -1 45.162134 
L 32.885335 77.45435 
L 49.416709 113.133599 
L -0.05696 134.506354 
L 8.811367 178.056728 
L 10.435547 186.019764 
L -1 189.059242 
" clip-path="url(#p2c52aadcc4)" style="fill: none; stroke: #8f8f8f; stroke-width: 0.5; stroke-linecap: square"/>
   </g>
   <g id="line2d_47">
    <path d="M -1 45.162134 
L 32.885335 77.45435 
L 49.416709 113.133599 
L 66.36322 143.22797 
L 8.811367 178.056728 
L 10.435547 186.019764 
L -1 189.059242 
" clip-path="url(#p2c52aadcc4)" style="fill: none; stroke: #8f8f8f; stroke-width: 0.5; stroke-linecap: square"/>
   </g>
   <g id="line2d_48">
    <path d="M 261.074833 121.074071 
L 266.397232 124.592341 
L 275.185332 139.51292 
L 284.323381 155.047406 
L 289.346937 163.557477 
L 303.634566 187.827349 
L 288.167363 210.605645 
L 286.963251 212.425137 
L 284.514864 217.335188 
L 280.692969 224.872701 
L 267.554859 251.037228 
L 265.69186 254.736006 
L 262.574223 260.928 
L 178.425832 230.477486 
L 168.685434 187.313648 
L 180.051663 126.026499 
L 222.422702 125.291699 
L 253.79333 124.766691 
L 261.074833 121.074071 
L 261.074833 121.074071 
" clip-path="url(#p2c52aadcc4)" style="fill: none; stroke: #000000; stroke-width: 0.5; stroke-linecap: square"/>
   </g>
   <g id="line2d_49">
    <path d="M 187.06681 88.128 
L 230.030735 107.270455 
L 261.074833 121.074071 
L 253.79333 124.766691 
L 222.422702 125.291699 
L 180.051663 126.026499 
L 187.06681 88.128 
L 187.06681 88.128 
" clip-path="url(#p2c52aadcc4)" style="fill: none; stroke: #000000; stroke-width: 0.5; stroke-linecap: square"/>
   </g>
   <g id="line2d_50">
    <path d="M 266.397232 124.592341 
L 275.185332 139.51292 
L 284.323381 155.047406 
L 289.346937 163.557477 
L 303.634566 187.827349 
L 288.167363 210.605645 
L 286.963251 212.425137 
L 284.514864 217.335188 
L 280.692969 224.872701 
L 267.554859 251.037228 
L 265.69186 254.736006 
L 262.574223 260.928 
L 178.425832 230.477486 
L 168.685434 187.313648 
L 180.051663 126.026499 
L 187.06681 88.128 
L 230.030735 107.270455 
L 261.074833 121.074071 
L 266.397232 124.592341 
L 266.397232 124.592341 
" clip-path="url(#p2c52aadcc4)" style="fill: none; stroke: #000000; stroke-width: 0.5; stroke-linecap: square"/>
   </g>
   <g id="line2d_51">
    <path d="M 266.397232 124.592341 
L 275.185332 139.51292 
L 284.323381 155.047406 
L 289.346937 163.557477 
L 303.634566 187.827349 
L 288.167363 210.605645 
L 286.963251 212.425137 
L 284.514864 217.335188 
L 280.692969 224.872701 
L 267.554859 251.037228 
L 265.69186 254.736006 
L 262.574223 260.928 
L 178.425832 230.477486 
L 168.685434 187.313648 
L 180.051663 126.026499 
L 187.06681 88.128 
L 230.030735 107.270455 
L 261.074833 121.074071 
L 266.397232 124.592341 
L 266.397232 124.592341 
" clip-path="url(#p2c52aadcc4)" style="fill: none; stroke: #000000; stroke-width: 0.5; stroke-linecap: square"/>
   </g>
   <g id="text_1">
    <!-- FUL -->
    <g transform="translate(230.763087 186.11518)scale(0.0579 -0.0579)">
     <defs>
      <path id="DejaVuSans-46" d="M 628 4666 
L 3309 4666 
L 3309 4134 
L 1259 4134 
L 1259 2759 
L 3109 2759 
L 3109 2228 
L 1259 2228 
L 1259 0 
L 628 0 
L 628 4666 
z
" transform="scale(0.015625)"/>
      <path id="DejaVuSans-55" d="M 556 4666 
L 1191 4666 
L 1191 1831 
Q 1191 1081 1462 751 
Q 1734 422 2344 422 
Q 2950 422 3222 751 
Q 3494 1081 3494 1831 
L 3494 4666 
L 4128 4666 
L 4128 1753 
Q 4128 841 3676 375 
Q 3225 -91 2344 -91 
Q 1459 -91 1007 375 
Q 556 841 556 1753 
L 556 4666 
z
" transform="scale(0.015625)"/>
      <path id="DejaVuSans-4c" d="M 628 4666 
L 1259 4666 
L 1259 531 
L 3531 531 
L 3531 0 
L 628 0 
L 628 4666 
z
" transform="scale(0.015625)"/>
     </defs>
     <use xlink:href="#DejaVuSans-46"/>
     <use xlink:href="#DejaVuSans-55" x="57.519531"/>
     <use xlink:href="#DejaVuSans-4c" x="130.712891"/>
    </g>
    <!-- 355 -->
    <g transform="translate(230.634169 192.598714)scale(0.0579 -0.0579)">
     <defs>
      <path id="DejaVuSans-33" d="M 2597 2516 
Q 3050 2419 3304 2112 
Q 3559 1806 3559 1356 
Q 3559 666 3084 287 
Q 2609 -91 1734 -91 
Q 1441 -91 1130 -33 
Q 819 25 488 141 
L 488 750 
Q 750 597 1062 519 
Q 1375 441 1716 441 
Q 2309 441 2620 675 
Q 2931 909 2931 1356 
Q 2931 1769 2642 2001 
Q 2353 2234 1838 2234 
L 1294 2234 
L 1294 2753 
L 1863 2753 
Q 2328 2753 2575 2939 
Q 2822 3125 2822 3475 
Q 2822 3834 2567 4026 
Q 2313 4219 1838 4219 
Q 1578 4219 1281 4162 
Q 984 4106 628 3988 
L 628 4550 
Q 988 4650 1302 4700 
Q 1616 4750 1894 4750 
Q 2613 4750 3031 4423 
Q 3450 4097 3450 3541 
Q 3450 3153 3228 2886 
Q 3006 2619 2597 2516 
z
" transform="scale(0.015625)"/>
      <path id="DejaVuSans-35" d="M 691 4666 
L 3169 4666 
L 3169 4134 
L 1269 4134 
L 1269 2991 
Q 1406 3038 1543 3061 
Q 1681 3084 1819 3084 
Q 2600 3084 3056 2656 
Q 3513 2228 3513 1497 
Q 3513 744 3044 326 
Q 2575 -91 1722 -91 
Q 1428 -91 1123 -41 
Q 819 9 494 109 
L 494 744 
Q 775 591 1075 516 
Q 1375 441 1709 441 
Q 2250 441 2565 725 
Q 2881 1009 2881 1497 
Q 2881 1984 2565 2268 
Q 2250 2553 1709 2553 
Q 1456 2553 1204 2497 
Q 953 2441 691 2322 
L 691 4666 
z
" transform="scale(0.015625)"/>
     </defs>
     <use xlink:href="#DejaVuSans-33"/>
     <use xlink:href="#DejaVuSans-35" x="63.623047"/>
     <use xlink:href="#DejaVuSans-35" x="127.246094"/>
    </g>
    <!-- 245 -->
    <g transform="translate(230.634169 199.082247)scale(0.0579 -0.0579)">
     <defs>
      <path id="DejaVuSans-32" d="M 1228 531 
L 3431 531 
L 3431 0 
L 469 0 
L 469 531 
Q 828 903 1448 1529 
Q 2069 2156 2228 2338 
Q 2531 2678 2651 2914 
Q 2772 3150 2772 3378 
Q 2772 3750 2511 3984 
Q 2250 4219 1831 4219 
Q 1534 4219 1204 4116 
Q 875 4013 500 3803 
L 500 4441 
Q 881 4594 1212 4672 
Q 1544 4750 1819 4750 
Q 2544 4750 2975 4387 
Q 3406 4025 3406 3419 
Q 3406 3131 3298 2873 
Q 3191 2616 2906 2266 
Q 2828 2175 2409 1742 
Q 1991 1309 1228 531 
z
" transform="scale(0.015625)"/>
      <path id="DejaVuSans-34" d="M 2419 4116 
L 825 1625 
L 2419 1625 
L 2419 4116 
z
M 2253 4666 
L 3047 4666 
L 3047 1625 
L 3713 1625 
L 3713 1100 
L 3047 1100 
L 3047 0 
L 2419 0 
L 2419 1100 
L 313 1100 
L 313 1709 
L 2253 4666 
z
" transform="scale(0.015625)"/>
     </defs>
     <use xlink:href="#DejaVuSans-32"/>
     <use xlink:href="#DejaVuSans-34" x="63.623047"/>
     <use xlink:href="#DejaVuSans-35" x="127.246094"/>
    </g>
   </g>
   <g id="text_2">
    <!-- FUL -->
    <g transform="translate(215.166335 102.191394)scale(0.0579 -0.0579)">
     <use xlink:href="#DejaVuSans-46"/>
     <use xlink:href="#DejaVuSans-55" x="57.519531"/>
     <use xlink:href="#DejaVuSans-4c" x="130.712891"/>
    </g>
    <!-- 355 -->
    <g transform="translate(215.037417 108.674928)scale(0.0579 -0.0579)">
     <use xlink:href="#DejaVuSans-33"/>
     <use xlink:href="#DejaVuSans-35" x="63.623047"/>
     <use xlink:href="#DejaVuSans-35" x="127.246094"/>
    </g>
    <!-- 255 -->
    <g transform="translate(215.037417 115.158461)scale(0.0579 -0.0579)">
     <use xlink:href="#DejaVuSans-32"/>
     <use xlink:href="#DejaVuSans-35" x="63.623047"/>
     <use xlink:href="#DejaVuSans-35" x="127.246094"/>
    </g>
   </g>
   <g id="text_3">
    <!-- FUL -->
    <g transform="translate(230.763087 169.642145)scale(0.0579 -0.0579)">
     <use xlink:href="#DejaVuSans-46"/>
     <use xlink:href="#DejaVuSans-55" x="57.519531"/>
     <use xlink:href="#DejaVuSans-4c" x="130.712891"/>
    </g>
    <!-- 375 -->
    <g transform="translate(230.634169 176.125678)scale(0.0579 -0.0579)">
     <defs>
      <path id="DejaVuSans-37" d="M 525 4666 
L 3525 4666 
L 3525 4397 
L 1831 0 
L 1172 0 
L 2766 4134 
L 525 4134 
L 525 4666 
z
" transform="scale(0.015625)"/>
     </defs>
     <use xlink:href="#DejaVuSans-33"/>
     <use xlink:href="#DejaVuSans-37" x="63.623047"/>
     <use xlink:href="#DejaVuSans-35" x="127.246094"/>
    </g>
    <!-- 355 -->
    <g transform="translate(230.634169 182.609212)scale(0.0579 -0.0579)">
     <use xlink:href="#DejaVuSans-33"/>
     <use xlink:href="#DejaVuSans-35" x="63.623047"/>
     <use xlink:href="#DejaVuSans-35" x="127.246094"/>
    </g>
   </g>
   <g id="text_4">
    <!-- FUL -->
    <g transform="translate(230.763087 169.642145)scale(0.0579 -0.0579)">
     <use xlink:href="#DejaVuSans-46"/>
     <use xlink:href="#DejaVuSans-55" x="57.519531"/>
     <use xlink:href="#DejaVuSans-4c" x="130.712891"/>
    </g>
    <!-- 660 -->
    <g transform="translate(230.634169 176.125678)scale(0.0579 -0.0579)">
     <defs>
      <path id="DejaVuSans-36" d="M 2113 2584 
Q 1688 2584 1439 2293 
Q 1191 2003 1191 1497 
Q 1191 994 1439 701 
Q 1688 409 2113 409 
Q 2538 409 2786 701 
Q 3034 994 3034 1497 
Q 3034 2003 2786 2293 
Q 2538 2584 2113 2584 
z
M 3366 4563 
L 3366 3988 
Q 3128 4100 2886 4159 
Q 2644 4219 2406 4219 
Q 1781 4219 1451 3797 
Q 1122 3375 1075 2522 
Q 1259 2794 1537 2939 
Q 1816 3084 2150 3084 
Q 2853 3084 3261 2657 
Q 3669 2231 3669 1497 
Q 3669 778 3244 343 
Q 2819 -91 2113 -91 
Q 1303 -91 875 529 
Q 447 1150 447 2328 
Q 447 3434 972 4092 
Q 1497 4750 2381 4750 
Q 2619 4750 2861 4703 
Q 3103 4656 3366 4563 
z
" transform="scale(0.015625)"/>
      <path id="DejaVuSans-30" d="M 2034 4250 
Q 1547 4250 1301 3770 
Q 1056 3291 1056 2328 
Q 1056 1369 1301 889 
Q 1547 409 2034 409 
Q 2525 409 2770 889 
Q 3016 1369 3016 2328 
Q 3016 3291 2770 3770 
Q 2525 4250 2034 4250 
z
M 2034 4750 
Q 2819 4750 3233 4129 
Q 3647 3509 3647 2328 
Q 3647 1150 3233 529 
Q 2819 -91 2034 -91 
Q 1250 -91 836 529 
Q 422 1150 422 2328 
Q 422 3509 836 4129 
Q 1250 4750 2034 4750 
z
" transform="scale(0.015625)"/>
     </defs>
     <use xlink:href="#DejaVuSans-36"/>
     <use xlink:href="#DejaVuSans-36" x="63.623047"/>
     <use xlink:href="#DejaVuSans-30" x="127.246094"/>
    </g>
    <!-- 375 -->
    <g transform="translate(230.634169 182.609212)scale(0.0579 -0.0579)">
     <use xlink:href="#DejaVuSans-33"/>
     <use xlink:href="#DejaVuSans-37" x="63.623047"/>
     <use xlink:href="#DejaVuSans-35" x="127.246094"/>
    </g>
   </g>
  </g>
 </g>
 <defs>
  <clipPath id="p2c52aadcc4">
   <rect x="132.249169" y="41.472" width="207.821662" height="266.112"/>
  </clipPath>
 </defs>
</svg>
