<?xml version="1.0" encoding="utf-8" standalone="no"?>
<!DOCTYPE svg PUBLIC "-//W3C//DTD SVG 1.1//EN"
  "http://www.w3.org/Graphics/SVG/1.1/DTD/svg11.dtd">
<svg xmlns:xlink="http://www.w3.org/1999/xlink" width="460.8pt" height="345.6pt" viewBox="0 0 460.8 345.6" xmlns="http://www.w3.org/2000/svg" version="1.1">
 <metadata>
  <rdf:RDF xmlns:dc="http://purl.org/dc/elements/1.1/" xmlns:cc="http://creativecommons.org/ns#" xmlns:rdf="http://www.w3.org/1999/02/22-rdf-syntax-ns#">
   <cc:Work>
    <dc:type rdf:resource="http://purl.org/dc/dcmitype/StillImage"/>
    <dc:date>2022-07-22T19:03:34.662730</dc:date>
    <dc:format>image/svg+xml</dc:format>
    <dc:creator>
     <cc:Agent>
      <dc:title>Matplotlib v3.5.0, https://matplotlib.org/</dc:title>
     </cc:Agent>
    </dc:creator>
   </cc:Work>
  </rdf:RDF>
 </metadata>
 <defs>
  <style type="text/css">*{stroke-linejoin: round; stroke-linecap: butt}</style>
 </defs>
 <g id="figure_1">
  <g id="patch_1">
   <path d="M 0 345.6 
L 460.8 345.6 
L 460.8 0 
L 0 0 
z
" style="fill: #ffffff"/>
  </g>
  <g id="axes_1">
   <g id="patch_2">
    <path d="M 271.040767 99.6925 
L 278.492124 104.618077 
L 290.795465 125.506887 
L 303.588733 147.255169 
L 310.621712 159.169267 
L 330.624392 193.147089 
L 308.970308 225.036703 
L 307.284552 227.583991 
L 303.856809 234.458064 
L 298.506157 245.010581 
L 280.112803 281.64092 
L 277.504603 286.819209 
L 273.139913 295.488 
L 155.332165 252.857281 
L 141.695608 192.427908 
L 157.608328 106.625899 
L 216.927782 105.597179 
L 260.846662 104.862167 
z
" clip-path="url(#pb33a1e5b66)" style="fill: #ffedd9; stroke: #ffedd9; stroke-linejoin: miter"/>
   </g>
   <g id="patch_3">
    <path d="M 167.429533 53.568 
L 227.579029 80.367437 
L 271.040767 99.6925 
L 260.846662 104.862167 
L 216.927782 105.597179 
L 157.608328 106.625899 
z
" clip-path="url(#pb33a1e5b66)" style="fill: #ffedd9; stroke: #ffedd9; stroke-linejoin: miter"/>
   </g>
   <g id="patch_4">
    <path d="M 278.492124 104.618077 
L 290.795465 125.506887 
L 303.588733 147.255169 
L 310.621712 159.169267 
L 330.624392 193.147089 
L 308.970308 225.036703 
L 307.284552 227.583991 
L 303.856809 234.458064 
L 298.506157 245.010581 
L 280.112803 281.64092 
L 277.504603 286.819209 
L 273.139913 295.488 
L 155.332165 252.857281 
L 141.695608 192.427908 
L 157.608328 106.625899 
L 167.429533 53.568 
L 227.579029 80.367437 
L 271.040767 99.6925 
z
" clip-path="url(#pb33a1e5b66)" style="fill: #ffedd9; stroke: #ffedd9; stroke-linejoin: miter"/>
   </g>
   <g id="patch_5">
    <path d="M 278.492124 104.618077 
L 290.795465 125.506887 
L 303.588733 147.255169 
L 310.621712 159.169267 
L 330.624392 193.147089 
L 308.970308 225.036703 
L 307.284552 227.583991 
L 303.856809 234.458064 
L 298.506157 245.010581 
L 280.112803 281.64092 
L 277.504603 286.819209 
L 273.139913 295.488 
L 155.332165 252.857281 
L 141.695608 192.427908 
L 157.608328 106.625899 
L 167.429533 53.568 
L 227.579029 80.367437 
L 271.040767 99.6925 
z
" clip-path="url(#pb33a1e5b66)" style="fill: #ffedd9; stroke: #ffedd9; stroke-linejoin: miter"/>
   </g>
   <g id="patch_6">
    <path d="M 271.040767 99.6925 
L 278.492124 104.618077 
L 290.795465 125.506887 
L 303.588733 147.255169 
L 310.621712 159.169267 
L 330.624392 193.147089 
L 308.970308 225.036703 
L 307.284552 227.583991 
L 303.856809 234.458064 
L 298.506157 245.010581 
L 280.112803 281.64092 
L 277.504603 286.819209 
L 273.139913 295.488 
L 155.332165 252.857281 
L 141.695608 192.427908 
L 157.608328 106.625899 
L 216.927782 105.597179 
L 260.846662 104.862167 
L 271.040767 99.6925 
z
" clip-path="url(#pb33a1e5b66)" style="fill: #ffedd9; stroke: #ffedd9; stroke-linejoin: miter"/>
   </g>
   <g id="patch_7">
    <path d="M 167.429533 53.568 
L 227.579029 80.367437 
L 271.040767 99.6925 
L 260.846662 104.862167 
L 216.927782 105.597179 
L 157.608328 106.625899 
L 167.429533 53.568 
z
" clip-path="url(#pb33a1e5b66)" style="fill: #ffedd9; stroke: #ffedd9; stroke-linejoin: miter"/>
   </g>
   <g id="patch_8">
    <path d="M 278.492124 104.618077 
L 290.795465 125.506887 
L 303.588733 147.255169 
L 310.621712 159.169267 
L 330.624392 193.147089 
L 308.970308 225.036703 
L 307.284552 227.583991 
L 303.856809 234.458064 
L 298.506157 245.010581 
L 280.112803 281.64092 
L 277.504603 286.819209 
L 273.139913 295.488 
L 155.332165 252.857281 
L 141.695608 192.427908 
L 157.608328 106.625899 
L 167.429533 53.568 
L 227.579029 80.367437 
L 271.040767 99.6925 
L 278.492124 104.618077 
z
" clip-path="url(#pb33a1e5b66)" style="fill: #ffedd9; stroke: #ffedd9; stroke-linejoin: miter"/>
   </g>
   <g id="patch_9">
    <path d="M 278.492124 104.618077 
L 290.795465 125.506887 
L 303.588733 147.255169 
L 310.621712 159.169267 
L 330.624392 193.147089 
L 308.970308 225.036703 
L 307.284552 227.583991 
L 303.856809 234.458064 
L 298.506157 245.010581 
L 280.112803 281.64092 
L 277.504603 286.819209 
L 273.139913 295.488 
L 155.332165 252.857281 
L 141.695608 192.427908 
L 157.608328 106.625899 
L 167.429533 53.568 
L 227.579029 80.367437 
L 271.040767 99.6925 
L 278.492124 104.618077 
z
" clip-path="url(#pb33a1e5b66)" style="fill: #ffedd9; stroke: #ffedd9; stroke-linejoin: miter"/>
   </g>
   <g id="line2d_1">
    <path d="M 271.040767 99.6925 
L 278.492124 104.618077 
L 290.795465 125.506887 
L 303.588733 147.255169 
L 310.621712 159.169267 
L 330.624392 193.147089 
L 308.970308 225.036703 
L 307.284552 227.583991 
L 303.856809 234.458064 
L 298.506157 245.010581 
L 280.112803 281.64092 
L 277.504603 286.819209 
L 273.139913 295.488 
L 155.332165 252.857281 
L 141.695608 192.427908 
L 157.608328 106.625899 
L 216.927782 105.597179 
L 260.846662 104.862167 
L 271.040767 99.6925 
" clip-path="url(#pb33a1e5b66)" style="fill: none; stroke: #ffc380; stroke-width: 0.5; stroke-linecap: square"/>
   </g>
   <g id="line2d_2">
    <path d="M 167.429533 53.568 
L 227.579029 80.367437 
L 271.040767 99.6925 
L 260.846662 104.862167 
L 216.927782 105.597179 
L 157.608328 106.625899 
L 167.429533 53.568 
" clip-path="url(#pb33a1e5b66)" style="fill: none; stroke: #ffc380; stroke-width: 0.5; stroke-linecap: square"/>
   </g>
   <g id="line2d_3">
    <path d="M 278.492124 104.618077 
L 290.795465 125.506887 
L 303.588733 147.255169 
L 310.621712 159.169267 
L 330.624392 193.147089 
L 308.970308 225.036703 
L 307.284552 227.583991 
L 303.856809 234.458064 
L 298.506157 245.010581 
L 280.112803 281.64092 
L 277.504603 286.819209 
L 273.139913 295.488 
L 155.332165 252.857281 
L 141.695608 192.427908 
L 157.608328 106.625899 
L 167.429533 53.568 
L 227.579029 80.367437 
L 271.040767 99.6925 
L 278.492124 104.618077 
" clip-path="url(#pb33a1e5b66)" style="fill: none; stroke: #ffc380; stroke-width: 0.5; stroke-linecap: square"/>
   </g>
   <g id="line2d_4">
    <path d="M 278.492124 104.618077 
L 290.795465 125.506887 
L 303.588733 147.255169 
L 310.621712 159.169267 
L 330.624392 193.147089 
L 308.970308 225.036703 
L 307.284552 227.583991 
L 303.856809 234.458064 
L 298.506157 245.010581 
L 280.112803 281.64092 
L 277.504603 286.819209 
L 273.139913 295.488 
L 155.332165 252.857281 
L 141.695608 192.427908 
L 157.608328 106.625899 
L 167.429533 53.568 
L 227.579029 80.367437 
L 271.040767 99.6925 
L 278.492124 104.618077 
" clip-path="url(#pb33a1e5b66)" style="fill: none; stroke: #ffc380; stroke-width: 0.5; stroke-linecap: square"/>
   </g>
   <g id="line2d_5">
    <path d="M 167.429533 53.568 
L 157.608328 106.625899 
L 141.695608 192.427908 
L 155.332165 252.857281 
L 160.203427 274.452301 
L 146.255383 346.6 
M 25.806168 346.6 
L -1 296.144787 
M -1 130.37184 
L 43.808503 103.259047 
L 64.477962 90.750076 
L 74.549281 84.245047 
L 120.718354 54.414374 
L 167.429533 53.568 
" clip-path="url(#pb33a1e5b66)" style="fill: none; stroke: #8f8f8f; stroke-width: 0.2; stroke-linecap: square"/>
   </g>
   <g id="line2d_6">
    <path d="M 271.040767 99.6925 
L 278.492124 104.618077 
L 290.795465 125.506887 
L 303.588733 147.255169 
L 310.621712 159.169267 
L 330.624392 193.147089 
L 308.970308 225.036703 
L 307.284552 227.583991 
L 303.856809 234.458064 
L 298.506157 245.010581 
L 280.112803 281.64092 
L 277.504603 286.819209 
L 273.139913 295.488 
L 155.332165 252.857281 
L 141.695608 192.427908 
L 157.608328 106.625899 
L 216.927782 105.597179 
L 260.846662 104.862167 
L 271.040767 99.6925 
L 271.040767 99.6925 
" clip-path="url(#pb33a1e5b66)" style="fill: none; stroke: #ffc380; stroke-width: 0.5; stroke-linecap: square"/>
   </g>
   <g id="line2d_7">
    <path d="M 167.429533 53.568 
L 227.579029 80.367437 
L 271.040767 99.6925 
L 260.846662 104.862167 
L 216.927782 105.597179 
L 157.608328 106.625899 
L 167.429533 53.568 
L 167.429533 53.568 
" clip-path="url(#pb33a1e5b66)" style="fill: none; stroke: #ffc380; stroke-width: 0.5; stroke-linecap: square"/>
   </g>
   <g id="line2d_8">
    <path d="M 278.492124 104.618077 
L 290.795465 125.506887 
L 303.588733 147.255169 
L 310.621712 159.169267 
L 330.624392 193.147089 
L 308.970308 225.036703 
L 307.284552 227.583991 
L 303.856809 234.458064 
L 298.506157 245.010581 
L 280.112803 281.64092 
L 277.504603 286.819209 
L 273.139913 295.488 
L 155.332165 252.857281 
L 141.695608 192.427908 
L 157.608328 106.625899 
L 167.429533 53.568 
L 227.579029 80.367437 
L 271.040767 99.6925 
L 278.492124 104.618077 
L 278.492124 104.618077 
" clip-path="url(#pb33a1e5b66)" style="fill: none; stroke: #ffc380; stroke-width: 0.5; stroke-linecap: square"/>
   </g>
   <g id="line2d_9">
    <path d="M 278.492124 104.618077 
L 290.795465 125.506887 
L 303.588733 147.255169 
L 310.621712 159.169267 
L 330.624392 193.147089 
L 308.970308 225.036703 
L 307.284552 227.583991 
L 303.856809 234.458064 
L 298.506157 245.010581 
L 280.112803 281.64092 
L 277.504603 286.819209 
L 273.139913 295.488 
L 155.332165 252.857281 
L 141.695608 192.427908 
L 157.608328 106.625899 
L 167.429533 53.568 
L 227.579029 80.367437 
L 271.040767 99.6925 
L 278.492124 104.618077 
L 278.492124 104.618077 
" clip-path="url(#pb33a1e5b66)" style="fill: none; stroke: #ffc380; stroke-width: 0.5; stroke-linecap: square"/>
   </g>
   <g id="text_1">
    <!-- FFM141 -->
    <g style="opacity: 0.5" transform="translate(31.296896 238.643784)scale(0.0579 -0.0579)">
     <defs>
      <path id="DejaVuSans-46" d="M 628 4666 
L 3309 4666 
L 3309 4134 
L 1259 4134 
L 1259 2759 
L 3109 2759 
L 3109 2228 
L 1259 2228 
L 1259 0 
L 628 0 
L 628 4666 
z
" transform="scale(0.015625)"/>
      <path id="DejaVuSans-4d" d="M 628 4666 
L 1569 4666 
L 2759 1491 
L 3956 4666 
L 4897 4666 
L 4897 0 
L 4281 0 
L 4281 4097 
L 3078 897 
L 2444 897 
L 1241 4097 
L 1241 0 
L 628 0 
L 628 4666 
z
" transform="scale(0.015625)"/>
      <path id="DejaVuSans-31" d="M 794 531 
L 1825 531 
L 1825 4091 
L 703 3866 
L 703 4441 
L 1819 4666 
L 2450 4666 
L 2450 531 
L 3481 531 
L 3481 0 
L 794 0 
L 794 531 
z
" transform="scale(0.015625)"/>
      <path id="DejaVuSans-34" d="M 2419 4116 
L 825 1625 
L 2419 1625 
L 2419 4116 
z
M 2253 4666 
L 3047 4666 
L 3047 1625 
L 3713 1625 
L 3713 1100 
L 3047 1100 
L 3047 0 
L 2419 0 
L 2419 1100 
L 313 1100 
L 313 1709 
L 2253 4666 
z
" transform="scale(0.015625)"/>
     </defs>
     <use xlink:href="#DejaVuSans-46"/>
     <use xlink:href="#DejaVuSans-46" x="57.519531"/>
     <use xlink:href="#DejaVuSans-4d" x="115.039062"/>
     <use xlink:href="#DejaVuSans-31" x="201.318359"/>
     <use xlink:href="#DejaVuSans-34" x="264.941406"/>
     <use xlink:href="#DejaVuSans-31" x="328.564453"/>
    </g>
    <!-- 325 -->
    <g style="opacity: 0.5" transform="translate(37.124892 245.127318)scale(0.0579 -0.0579)">
     <defs>
      <path id="DejaVuSans-33" d="M 2597 2516 
Q 3050 2419 3304 2112 
Q 3559 1806 3559 1356 
Q 3559 666 3084 287 
Q 2609 -91 1734 -91 
Q 1441 -91 1130 -33 
Q 819 25 488 141 
L 488 750 
Q 750 597 1062 519 
Q 1375 441 1716 441 
Q 2309 441 2620 675 
Q 2931 909 2931 1356 
Q 2931 1769 2642 2001 
Q 2353 2234 1838 2234 
L 1294 2234 
L 1294 2753 
L 1863 2753 
Q 2328 2753 2575 2939 
Q 2822 3125 2822 3475 
Q 2822 3834 2567 4026 
Q 2313 4219 1838 4219 
Q 1578 4219 1281 4162 
Q 984 4106 628 3988 
L 628 4550 
Q 988 4650 1302 4700 
Q 1616 4750 1894 4750 
Q 2613 4750 3031 4423 
Q 3450 4097 3450 3541 
Q 3450 3153 3228 2886 
Q 3006 2619 2597 2516 
z
" transform="scale(0.015625)"/>
      <path id="DejaVuSans-32" d="M 1228 531 
L 3431 531 
L 3431 0 
L 469 0 
L 469 531 
Q 828 903 1448 1529 
Q 2069 2156 2228 2338 
Q 2531 2678 2651 2914 
Q 2772 3150 2772 3378 
Q 2772 3750 2511 3984 
Q 2250 4219 1831 4219 
Q 1534 4219 1204 4116 
Q 875 4013 500 3803 
L 500 4441 
Q 881 4594 1212 4672 
Q 1544 4750 1819 4750 
Q 2544 4750 2975 4387 
Q 3406 4025 3406 3419 
Q 3406 3131 3298 2873 
Q 3191 2616 2906 2266 
Q 2828 2175 2409 1742 
Q 1991 1309 1228 531 
z
" transform="scale(0.015625)"/>
      <path id="DejaVuSans-35" d="M 691 4666 
L 3169 4666 
L 3169 4134 
L 1269 4134 
L 1269 2991 
Q 1406 3038 1543 3061 
Q 1681 3084 1819 3084 
Q 2600 3084 3056 2656 
Q 3513 2228 3513 1497 
Q 3513 744 3044 326 
Q 2575 -91 1722 -91 
Q 1428 -91 1123 -41 
Q 819 9 494 109 
L 494 744 
Q 775 591 1075 516 
Q 1375 441 1709 441 
Q 2250 441 2565 725 
Q 2881 1009 2881 1497 
Q 2881 1984 2565 2268 
Q 2250 2553 1709 2553 
Q 1456 2553 1204 2497 
Q 953 2441 691 2322 
L 691 4666 
z
" transform="scale(0.015625)"/>
     </defs>
     <use xlink:href="#DejaVuSans-33"/>
     <use xlink:href="#DejaVuSans-32" x="63.623047"/>
     <use xlink:href="#DejaVuSans-35" x="127.246094"/>
    </g>
    <!-- 245 -->
    <g style="opacity: 0.5" transform="translate(37.124892 251.610851)scale(0.0579 -0.0579)">
     <use xlink:href="#DejaVuSans-32"/>
     <use xlink:href="#DejaVuSans-34" x="63.623047"/>
     <use xlink:href="#DejaVuSans-35" x="127.246094"/>
    </g>
   </g>
   <g id="text_2">
    <!-- FUL131 -->
    <g transform="translate(225.237255 192.704395)scale(0.0579 -0.0579)">
     <defs>
      <path id="DejaVuSans-55" d="M 556 4666 
L 1191 4666 
L 1191 1831 
Q 1191 1081 1462 751 
Q 1734 422 2344 422 
Q 2950 422 3222 751 
Q 3494 1081 3494 1831 
L 3494 4666 
L 4128 4666 
L 4128 1753 
Q 4128 841 3676 375 
Q 3225 -91 2344 -91 
Q 1459 -91 1007 375 
Q 556 841 556 1753 
L 556 4666 
z
" transform="scale(0.015625)"/>
      <path id="DejaVuSans-4c" d="M 628 4666 
L 1259 4666 
L 1259 531 
L 3531 531 
L 3531 0 
L 628 0 
L 628 4666 
z
" transform="scale(0.015625)"/>
     </defs>
     <use xlink:href="#DejaVuSans-46"/>
     <use xlink:href="#DejaVuSans-55" x="57.519531"/>
     <use xlink:href="#DejaVuSans-4c" x="130.712891"/>
     <use xlink:href="#DejaVuSans-31" x="186.425781"/>
     <use xlink:href="#DejaVuSans-33" x="250.048828"/>
     <use xlink:href="#DejaVuSans-31" x="313.671875"/>
    </g>
    <!-- 355 -->
    <g transform="translate(230.634169 199.187928)scale(0.0579 -0.0579)">
     <use xlink:href="#DejaVuSans-33"/>
     <use xlink:href="#DejaVuSans-35" x="63.623047"/>
     <use xlink:href="#DejaVuSans-35" x="127.246094"/>
    </g>
    <!-- 245 -->
    <g transform="translate(230.634169 205.671462)scale(0.0579 -0.0579)">
     <use xlink:href="#DejaVuSans-32"/>
     <use xlink:href="#DejaVuSans-34" x="63.623047"/>
     <use xlink:href="#DejaVuSans-35" x="127.246094"/>
    </g>
   </g>
   <g id="text_3">
    <!-- FUL132 -->
    <g transform="translate(203.401803 75.211094)scale(0.0579 -0.0579)">
     <use xlink:href="#DejaVuSans-46"/>
     <use xlink:href="#DejaVuSans-55" x="57.519531"/>
     <use xlink:href="#DejaVuSans-4c" x="130.712891"/>
     <use xlink:href="#DejaVuSans-31" x="186.425781"/>
     <use xlink:href="#DejaVuSans-33" x="250.048828"/>
     <use xlink:href="#DejaVuSans-32" x="313.671875"/>
    </g>
    <!-- 355 -->
    <g transform="translate(208.798716 81.694627)scale(0.0579 -0.0579)">
     <use xlink:href="#DejaVuSans-33"/>
     <use xlink:href="#DejaVuSans-35" x="63.623047"/>
     <use xlink:href="#DejaVuSans-35" x="127.246094"/>
    </g>
    <!-- 255 -->
    <g transform="translate(208.798716 88.178161)scale(0.0579 -0.0579)">
     <use xlink:href="#DejaVuSans-32"/>
     <use xlink:href="#DejaVuSans-35" x="63.623047"/>
     <use xlink:href="#DejaVuSans-35" x="127.246094"/>
    </g>
   </g>
   <g id="text_4">
    <!-- FUL23 -->
    <g transform="translate(227.079199 169.642145)scale(0.0579 -0.0579)">
     <use xlink:href="#DejaVuSans-46"/>
     <use xlink:href="#DejaVuSans-55" x="57.519531"/>
     <use xlink:href="#DejaVuSans-4c" x="130.712891"/>
     <use xlink:href="#DejaVuSans-32" x="186.425781"/>
     <use xlink:href="#DejaVuSans-33" x="250.048828"/>
    </g>
    <!-- 375 -->
    <g transform="translate(230.634169 176.125678)scale(0.0579 -0.0579)">
     <defs>
      <path id="DejaVuSans-37" d="M 525 4666 
L 3525 4666 
L 3525 4397 
L 1831 0 
L 1172 0 
L 2766 4134 
L 525 4134 
L 525 4666 
z
" transform="scale(0.015625)"/>
     </defs>
     <use xlink:href="#DejaVuSans-33"/>
     <use xlink:href="#DejaVuSans-37" x="63.623047"/>
     <use xlink:href="#DejaVuSans-35" x="127.246094"/>
    </g>
    <!-- 355 -->
    <g transform="translate(230.634169 182.609212)scale(0.0579 -0.0579)">
     <use xlink:href="#DejaVuSans-33"/>
     <use xlink:href="#DejaVuSans-35" x="63.623047"/>
     <use xlink:href="#DejaVuSans-35" x="127.246094"/>
    </g>
   </g>
   <g id="text_5">
    <!-- FUL33 -->
    <g transform="translate(227.079199 169.642145)scale(0.0579 -0.0579)">
     <use xlink:href="#DejaVuSans-46"/>
     <use xlink:href="#DejaVuSans-55" x="57.519531"/>
     <use xlink:href="#DejaVuSans-4c" x="130.712891"/>
     <use xlink:href="#DejaVuSans-33" x="186.425781"/>
     <use xlink:href="#DejaVuSans-33" x="250.048828"/>
    </g>
    <!-- 660 -->
    <g transform="translate(230.634169 176.125678)scale(0.0579 -0.0579)">
     <defs>
      <path id="DejaVuSans-36" d="M 2113 2584 
Q 1688 2584 1439 2293 
Q 1191 2003 1191 1497 
Q 1191 994 1439 701 
Q 1688 409 2113 409 
Q 2538 409 2786 701 
Q 3034 994 3034 1497 
Q 3034 2003 2786 2293 
Q 2538 2584 2113 2584 
z
M 3366 4563 
L 3366 3988 
Q 3128 4100 2886 4159 
Q 2644 4219 2406 4219 
Q 1781 4219 1451 3797 
Q 1122 3375 1075 2522 
Q 1259 2794 1537 2939 
Q 1816 3084 2150 3084 
Q 2853 3084 3261 2657 
Q 3669 2231 3669 1497 
Q 3669 778 3244 343 
Q 2819 -91 2113 -91 
Q 1303 -91 875 529 
Q 447 1150 447 2328 
Q 447 3434 972 4092 
Q 1497 4750 2381 4750 
Q 2619 4750 2861 4703 
Q 3103 4656 3366 4563 
z
" transform="scale(0.015625)"/>
      <path id="DejaVuSans-30" d="M 2034 4250 
Q 1547 4250 1301 3770 
Q 1056 3291 1056 2328 
Q 1056 1369 1301 889 
Q 1547 409 2034 409 
Q 2525 409 2770 889 
Q 3016 1369 3016 2328 
Q 3016 3291 2770 3770 
Q 2525 4250 2034 4250 
z
M 2034 4750 
Q 2819 4750 3233 4129 
Q 3647 3509 3647 2328 
Q 3647 1150 3233 529 
Q 2819 -91 2034 -91 
Q 1250 -91 836 529 
Q 422 1150 422 2328 
Q 422 3509 836 4129 
Q 1250 4750 2034 4750 
z
" transform="scale(0.015625)"/>
     </defs>
     <use xlink:href="#DejaVuSans-36"/>
     <use xlink:href="#DejaVuSans-36" x="63.623047"/>
     <use xlink:href="#DejaVuSans-30" x="127.246094"/>
    </g>
    <!-- 375 -->
    <g transform="translate(230.634169 182.609212)scale(0.0579 -0.0579)">
     <use xlink:href="#DejaVuSans-33"/>
     <use xlink:href="#DejaVuSans-37" x="63.623047"/>
     <use xlink:href="#DejaVuSans-35" x="127.246094"/>
    </g>
   </g>
  </g>
 </g>
 <defs>
  <clipPath id="pb33a1e5b66">
   <rect x="132.249169" y="41.472" width="207.821662" height="266.112"/>
  </clipPath>
 </defs>
</svg>
