<?xml version="1.0" encoding="utf-8" standalone="no"?>
<!DOCTYPE svg PUBLIC "-//W3C//DTD SVG 1.1//EN"
  "http://www.w3.org/Graphics/SVG/1.1/DTD/svg11.dtd">
<svg xmlns:xlink="http://www.w3.org/1999/xlink" width="460.8pt" height="345.6pt" viewBox="0 0 460.8 345.6" xmlns="http://www.w3.org/2000/svg" version="1.1">
 <metadata>
  <rdf:RDF xmlns:dc="http://purl.org/dc/elements/1.1/" xmlns:cc="http://creativecommons.org/ns#" xmlns:rdf="http://www.w3.org/1999/02/22-rdf-syntax-ns#">
   <cc:Work>
    <dc:type rdf:resource="http://purl.org/dc/dcmitype/StillImage"/>
    <dc:date>2022-04-24T18:47:31.136308</dc:date>
    <dc:format>image/svg+xml</dc:format>
    <dc:creator>
     <cc:Agent>
      <dc:title>Matplotlib v3.5.0, https://matplotlib.org/</dc:title>
     </cc:Agent>
    </dc:creator>
   </cc:Work>
  </rdf:RDF>
 </metadata>
 <defs>
  <style type="text/css">*{stroke-linejoin: round; stroke-linecap: butt}</style>
 </defs>
 <g id="figure_1">
  <g id="patch_1">
   <path d="M 0 345.6 
L 460.8 345.6 
L 460.8 0 
L 0 0 
z
" style="fill: #ffffff"/>
  </g>
  <g id="axes_1">
   <g id="patch_2">
    <path d="M 239.917587 182.364007 
L 256.037672 211.438739 
L 230.046167 230.032524 
L 221.536525 230.81153 
L 219.315955 217.673024 
L 218.831323 214.83297 
L 212.77065 209.443623 
L 205.726599 208.673004 
L 186.657316 214.577095 
L 187.047122 206.261543 
z
" clip-path="url(#pafe66379ee)" style="fill: #ffedd9; stroke: #ffedd9; stroke-linejoin: miter"/>
   </g>
   <g id="patch_3">
    <path d="M 205.726599 208.673004 
L 212.77065 209.443623 
L 218.831323 214.83297 
L 219.315955 217.673024 
L 207.997003 221.310003 
z
" clip-path="url(#pafe66379ee)" style="fill: #ffedd9; stroke: #ffedd9; stroke-linejoin: miter"/>
   </g>
   <g id="patch_4">
    <path d="M 205.726599 208.673004 
L 207.997003 221.310003 
L 219.315955 217.673024 
L 221.536525 230.81153 
L 210.452263 235.008 
L 194.910653 233.496848 
L 185.901848 230.91455 
L 186.657316 214.577095 
z
" clip-path="url(#pafe66379ee)" style="fill: #ffedd9; stroke: #ffedd9; stroke-linejoin: miter"/>
   </g>
   <g id="patch_5">
    <path d="M 277.890603 156.530266 
L 281.570848 172.393538 
L 286.418152 193.303379 
L 276.683926 207.638813 
L 275.926123 208.783904 
L 274.385239 211.874026 
L 256.037672 211.438739 
L 239.917587 182.364007 
L 246.416029 177.952884 
L 261.086694 167.956867 
z
" clip-path="url(#pafe66379ee)" style="fill: #ffedd9; stroke: #ffedd9; stroke-linejoin: miter"/>
   </g>
   <g id="patch_6">
    <path d="M 265.17793 129.130486 
L 271.484184 128.975956 
L 274.039645 139.924173 
L 277.890603 156.530266 
L 261.086694 167.956867 
L 246.416029 177.952884 
L 245.950362 152.625403 
L 245.693525 137.950048 
L 245.532174 129.747073 
z
" clip-path="url(#pafe66379ee)" style="fill: #ffedd9; stroke: #ffedd9; stroke-linejoin: miter"/>
   </g>
   <g id="patch_7">
    <path d="M 276.940008 114.048 
L 265.17793 129.130486 
L 245.532174 129.747073 
L 245.278809 115.870383 
z
" clip-path="url(#pafe66379ee)" style="fill: #ffedd9; stroke: #ffedd9; stroke-linejoin: miter"/>
   </g>
   <g id="patch_8">
    <path d="M 265.17793 129.130486 
L 259.633345 151.292455 
L 255.050758 153.616391 
L 235.307771 153.946803 
L 240.095858 142.605201 
L 245.532174 129.747073 
z
" clip-path="url(#pafe66379ee)" style="fill: #ffedd9; stroke: #ffedd9; stroke-linejoin: miter"/>
   </g>
   <g id="patch_9">
    <path d="M 239.917587 182.364007 
L 256.037672 211.438739 
L 230.046167 230.032524 
L 221.536525 230.81153 
L 219.315955 217.673024 
L 218.831323 214.83297 
L 212.77065 209.443623 
L 205.726599 208.673004 
L 186.657316 214.577095 
L 187.047122 206.261543 
L 239.917587 182.364007 
z
" clip-path="url(#pafe66379ee)" style="fill: #ffedd9; stroke: #ffedd9; stroke-linejoin: miter"/>
   </g>
   <g id="patch_10">
    <path d="M 205.726599 208.673004 
L 212.77065 209.443623 
L 218.831323 214.83297 
L 219.315955 217.673024 
L 207.997003 221.310003 
L 205.726599 208.673004 
z
" clip-path="url(#pafe66379ee)" style="fill: #ffedd9; stroke: #ffedd9; stroke-linejoin: miter"/>
   </g>
   <g id="patch_11">
    <path d="M 205.726599 208.673004 
L 207.997003 221.310003 
L 219.315955 217.673024 
L 221.536525 230.81153 
L 210.452263 235.008 
L 194.910653 233.496848 
L 185.901848 230.91455 
L 186.657316 214.577095 
L 205.726599 208.673004 
z
" clip-path="url(#pafe66379ee)" style="fill: #ffedd9; stroke: #ffedd9; stroke-linejoin: miter"/>
   </g>
   <g id="patch_12">
    <path d="M 277.890603 156.530266 
L 281.570848 172.393538 
L 286.418152 193.303379 
L 276.683926 207.638813 
L 275.926123 208.783904 
L 274.385239 211.874026 
L 256.037672 211.438739 
L 239.917587 182.364007 
L 246.416029 177.952884 
L 261.086694 167.956867 
L 277.890603 156.530266 
z
" clip-path="url(#pafe66379ee)" style="fill: #ffedd9; stroke: #ffedd9; stroke-linejoin: miter"/>
   </g>
   <g id="patch_13">
    <path d="M 265.17793 129.130486 
L 271.484184 128.975956 
L 274.039645 139.924173 
L 277.890603 156.530266 
L 261.086694 167.956867 
L 246.416029 177.952884 
L 245.950362 152.625403 
L 245.693525 137.950048 
L 245.532174 129.747073 
L 265.17793 129.130486 
z
" clip-path="url(#pafe66379ee)" style="fill: #ffedd9; stroke: #ffedd9; stroke-linejoin: miter"/>
   </g>
   <g id="patch_14">
    <path d="M 276.940008 114.048 
L 265.17793 129.130486 
L 245.532174 129.747073 
L 245.278809 115.870383 
L 276.940008 114.048 
z
" clip-path="url(#pafe66379ee)" style="fill: #ffedd9; stroke: #ffedd9; stroke-linejoin: miter"/>
   </g>
   <g id="patch_15">
    <path d="M 265.17793 129.130486 
L 259.633345 151.292455 
L 255.050758 153.616391 
L 235.307771 153.946803 
L 240.095858 142.605201 
L 245.532174 129.747073 
L 265.17793 129.130486 
z
" clip-path="url(#pafe66379ee)" style="fill: #ffedd9; stroke: #ffedd9; stroke-linejoin: miter"/>
   </g>
   <g id="line2d_1">
    <path d="M 239.917587 182.364007 
L 256.037672 211.438739 
L 230.046167 230.032524 
L 221.536525 230.81153 
L 219.315955 217.673024 
L 218.831323 214.83297 
L 212.77065 209.443623 
L 205.726599 208.673004 
L 186.657316 214.577095 
L 187.047122 206.261543 
L 239.917587 182.364007 
" clip-path="url(#pafe66379ee)" style="fill: none; stroke: #ffc380; stroke-width: 0.5; stroke-linecap: square"/>
   </g>
   <g id="line2d_2">
    <path d="M 205.726599 208.673004 
L 212.77065 209.443623 
L 218.831323 214.83297 
L 219.315955 217.673024 
L 207.997003 221.310003 
L 205.726599 208.673004 
" clip-path="url(#pafe66379ee)" style="fill: none; stroke: #ffc380; stroke-width: 0.5; stroke-linecap: square"/>
   </g>
   <g id="line2d_3">
    <path d="M 205.726599 208.673004 
L 207.997003 221.310003 
L 219.315955 217.673024 
L 221.536525 230.81153 
L 210.452263 235.008 
L 194.910653 233.496848 
L 185.901848 230.91455 
L 186.657316 214.577095 
L 205.726599 208.673004 
" clip-path="url(#pafe66379ee)" style="fill: none; stroke: #ffc380; stroke-width: 0.5; stroke-linecap: square"/>
   </g>
   <g id="line2d_4">
    <path d="M 277.890603 156.530266 
L 281.570848 172.393538 
L 286.418152 193.303379 
L 276.683926 207.638813 
L 275.926123 208.783904 
L 274.385239 211.874026 
L 256.037672 211.438739 
L 239.917587 182.364007 
L 246.416029 177.952884 
L 261.086694 167.956867 
L 277.890603 156.530266 
" clip-path="url(#pafe66379ee)" style="fill: none; stroke: #ffc380; stroke-width: 0.5; stroke-linecap: square"/>
   </g>
   <g id="line2d_5">
    <path d="M 265.17793 129.130486 
L 271.484184 128.975956 
L 274.039645 139.924173 
L 277.890603 156.530266 
L 261.086694 167.956867 
L 246.416029 177.952884 
L 245.950362 152.625403 
L 245.693525 137.950048 
L 245.532174 129.747073 
L 265.17793 129.130486 
" clip-path="url(#pafe66379ee)" style="fill: none; stroke: #ffc380; stroke-width: 0.5; stroke-linecap: square"/>
   </g>
   <g id="line2d_6">
    <path d="M 276.940008 114.048 
L 265.17793 129.130486 
L 245.532174 129.747073 
L 245.278809 115.870383 
L 276.940008 114.048 
" clip-path="url(#pafe66379ee)" style="fill: none; stroke: #ffc380; stroke-width: 0.5; stroke-linecap: square"/>
   </g>
   <g id="line2d_7">
    <path d="M 265.17793 129.130486 
L 259.633345 151.292455 
L 255.050758 153.616391 
L 235.307771 153.946803 
L 240.095858 142.605201 
L 245.532174 129.747073 
L 265.17793 129.130486 
" clip-path="url(#pafe66379ee)" style="fill: none; stroke: #ffc380; stroke-width: 0.5; stroke-linecap: square"/>
   </g>
   <g id="line2d_8">
    <path d="M 325.069654 190.080345 
L 327.103409 251.136085 
L 373.085693 298.301578 
L 360.201119 307.487129 
L 307.074979 309.195669 
L 274.516828 255.256693 
L 262.539053 235.41209 
L 263.711524 233.084278 
L 271.979945 216.617731 
L 274.385239 211.874026 
L 275.926123 208.783904 
L 276.683926 207.638813 
L 286.418152 193.303379 
L 325.069654 190.080345 
L 327.103409 251.136085 
L 373.085693 298.301578 
L 360.201119 307.487129 
L 307.074979 309.195669 
L 293.791128 289.257185 
L 272.152552 256.800037 
L 262.905678 242.915425 
L 260.57698 239.308998 
L 262.539053 235.41209 
L 263.711524 233.084278 
L 271.979945 216.617731 
L 274.385239 211.874026 
L 275.926123 208.783904 
L 276.683926 207.638813 
L 286.418152 193.303379 
L 325.069654 190.080345 
" clip-path="url(#pafe66379ee)" style="fill: none; stroke: #8f8f8f; stroke-width: 0.2; stroke-linecap: square"/>
   </g>
   <g id="line2d_9">
    <path d="M 286.418152 193.303379 
L 325.069654 190.080345 
L 358.214686 187.322484 
L 371.981302 186.181293 
L 384.563437 193.207801 
L 395.853942 199.506404 
L 412.151046 208.613516 
L 405.345101 212.831511 
L 396.668909 218.203213 
L 393.819888 220.023668 
L 389.808854 222.52976 
L 388.896239 228.508796 
L 388.373624 233.317025 
L 388.920729 235.081508 
L 389.721899 238.81966 
L 399.375065 279.488032 
L 406.460862 285.520213 
L 374.508613 324.454992 
L 373.722553 329.300165 
L 370.761563 332.659372 
L 318.620153 337.86793 
L 289.913308 340.761845 
L 284.334397 335.279612 
L 270.395122 321.96073 
L 265.298041 291.740172 
L 265.114487 288.015126 
L 264.38105 273.114991 
L 263.87345 262.738058 
L 263.705986 258.959262 
L 262.905678 242.915425 
L 262.539053 235.41209 
L 263.711524 233.084278 
L 271.979945 216.617731 
L 274.385239 211.874026 
L 275.926123 208.783904 
L 276.683926 207.638813 
L 286.418152 193.303379 
L 325.069654 190.080345 
L 358.214686 187.322484 
L 371.981302 186.181293 
L 384.563437 193.207801 
L 395.853942 199.506404 
L 412.151046 208.613516 
L 405.345101 212.831511 
L 396.668909 218.203213 
L 393.819888 220.023668 
L 389.808854 222.52976 
L 388.896239 228.508796 
L 388.373624 233.317025 
L 388.920729 235.081508 
L 389.721899 238.81966 
L 399.375065 279.488032 
L 406.460862 285.520213 
L 398.89248 284.428681 
L 393.261274 283.879816 
L 373.085693 298.301578 
L 360.201119 307.487129 
L 307.074979 309.195669 
L 274.516828 255.256693 
L 262.539053 235.41209 
L 263.711524 233.084278 
L 271.979945 216.617731 
L 274.385239 211.874026 
L 275.926123 208.783904 
L 276.683926 207.638813 
L 286.418152 193.303379 
" clip-path="url(#pafe66379ee)" style="fill: none; stroke: #8f8f8f; stroke-width: 0.2; stroke-linecap: square"/>
   </g>
   <g id="line2d_10">
    <path d="M 391.496777 98.36912 
L 410.423723 110.203666 
L 426.375328 104.216155 
L 427.947699 104.107272 
L 427.419646 113.789741 
L 427.195341 117.786359 
L 384.563437 193.207801 
L 371.981302 186.181293 
L 358.214686 187.322484 
L 325.069654 190.080345 
L 286.418152 193.303379 
L 281.570848 172.393538 
L 362.747045 123.708136 
L 386.40553 93.151201 
L 427.947699 104.107272 
L 427.195341 117.786359 
L 384.563437 193.207801 
L 371.981302 186.181293 
L 358.214686 187.322484 
L 325.069654 190.080345 
L 286.418152 193.303379 
L 277.426286 178.029226 
L 274.26473 172.673445 
L 281.570848 172.393538 
L 362.747045 123.708136 
L 386.40553 93.151201 
L 391.946475 86.004745 
L 410.95946 96.064937 
L 429.011858 84.392393 
L 391.496777 98.36912 
L 410.423723 110.203666 
L 426.375328 104.216155 
L 427.947699 104.107272 
L 427.195341 117.786359 
L 384.563437 193.207801 
L 371.981302 186.181293 
L 358.214686 187.322484 
L 325.069654 190.080345 
L 286.418152 193.303379 
L 277.426286 178.029226 
L 274.26473 172.673445 
L 281.570848 172.393538 
L 362.747045 123.708136 
L 386.40553 93.151201 
L 391.496777 98.36912 
" clip-path="url(#pafe66379ee)" style="fill: none; stroke: #8f8f8f; stroke-width: 0.2; stroke-linecap: square"/>
   </g>
   <g id="line2d_11">
    <path d="M 312.216263 78.666833 
L 324.52193 89.61093 
L 365.268426 82.922314 
L 374.857481 81.33779 
L 386.40553 93.151201 
L 362.747045 123.708136 
L 281.570848 172.393538 
L 277.890603 156.530266 
L 274.039645 139.924173 
L 271.484184 128.975956 
L 265.17793 129.130486 
L 276.940008 114.048 
L 283.076764 106.177514 
L 299.440843 90.723619 
L 308.33623 82.354261 
L 312.216263 78.666833 
L 336.451804 68.713863 
L 379.433728 79.388959 
L 391.946475 86.004745 
L 386.40553 93.151201 
L 362.747045 123.708136 
L 281.570848 172.393538 
L 274.26473 172.673445 
L 268.513733 162.896874 
L 262.982976 153.506664 
L 259.633345 151.292455 
L 265.17793 129.130486 
L 276.940008 114.048 
L 283.076764 106.177514 
L 299.440843 90.723619 
L 308.33623 82.354261 
L 312.216263 78.666833 
" clip-path="url(#pafe66379ee)" style="fill: none; stroke: #8f8f8f; stroke-width: 0.2; stroke-linecap: square"/>
   </g>
   <g id="line2d_12">
    <path d="M 374.857481 81.33779 
L 379.433728 79.388959 
L 391.946475 86.004745 
L 410.95946 96.064937 
L 426.375328 104.216155 
L 427.947699 104.107272 
L 427.419646 113.789741 
L 419.799344 109.768131 
L 308.927263 124.463779 
L 274.039645 139.924173 
L 255.060989 148.339632 
L 271.484184 128.975956 
L 265.17793 129.130486 
L 276.940008 114.048 
L 283.076764 106.177514 
L 299.440843 90.723619 
L 312.216263 78.666833 
L 324.52193 89.61093 
L 365.268426 82.922314 
L 374.857481 81.33779 
L 386.40553 93.151201 
L 391.496777 98.36912 
L 410.423723 110.203666 
L 426.375328 104.216155 
L 427.947699 104.107272 
L 427.419646 113.789741 
L 419.799344 109.768131 
L 308.927263 124.463779 
L 274.039645 139.924173 
L 271.484184 128.975956 
L 265.17793 129.130486 
L 276.940008 114.048 
L 283.076764 106.177514 
L 299.440843 90.723619 
L 312.216263 78.666833 
L 324.52193 89.61093 
L 374.857481 81.33779 
L 379.433728 79.388959 
L 391.946475 86.004745 
L 410.95946 96.064937 
L 426.375328 104.216155 
L 427.947699 104.107272 
L 427.419646 113.789741 
L 419.799344 109.768131 
L 308.927263 124.463779 
L 274.039645 139.924173 
L 271.484184 128.975956 
L 265.17793 129.130486 
L 276.940008 114.048 
L 283.076764 106.177514 
L 299.440843 90.723619 
L 312.216263 78.666833 
L 324.52193 89.61093 
L 374.857481 81.33779 
" clip-path="url(#pafe66379ee)" style="fill: none; stroke: #8f8f8f; stroke-width: 0.2; stroke-linecap: square"/>
   </g>
   <g id="line2d_13">
    <path d="M 276.940008 114.048 
L 265.17793 129.130486 
L 245.532174 129.747073 
L 245.278809 115.870383 
L 276.940008 114.048 
" clip-path="url(#pafe66379ee)" style="fill: none; stroke: #8f8f8f; stroke-width: 0.2; stroke-linecap: square"/>
   </g>
   <g id="line2d_14">
    <path d="M 298.639156 72.943079 
L 299.440843 90.723619 
L 283.076764 106.177514 
L 276.940008 114.048 
L 245.278809 115.870383 
L 245.532174 129.747073 
L 238.146245 129.972983 
L 217.016576 130.475076 
L 221.516472 79.378547 
L 221.742563 77.747944 
L 238.806875 77.325411 
L 298.639156 72.943079 
" clip-path="url(#pafe66379ee)" style="fill: none; stroke: #8f8f8f; stroke-width: 0.2; stroke-linecap: square"/>
   </g>
   <g id="line2d_15">
    <path d="M 189.77374 147.089685 
L 188.36805 177.529594 
L 187.047122 206.261543 
L 186.657316 214.577095 
L 176.860328 217.635112 
L 167.202484 220.590564 
L 165.864394 215.596682 
L 152.712801 191.468867 
L 143.779718 175.115018 
L 140.484999 170.735299 
L 150.150683 170.046276 
L 153.067169 166.990972 
L 158.124046 161.679828 
L 162.54792 154.317721 
L 166.776542 147.27254 
L 169.157314 143.385965 
L 176.011954 147.19721 
L 189.77374 147.089685 
" clip-path="url(#pafe66379ee)" style="fill: none; stroke: #8f8f8f; stroke-width: 0.2; stroke-linecap: square"/>
   </g>
   <g id="line2d_16">
    <path d="M 192.058456 130.938442 
L 190.843515 139.561518 
L 189.77374 147.089685 
L 188.36805 177.529594 
L 187.047122 206.261543 
L 186.657316 214.577095 
L 176.860328 217.635112 
L 167.202484 220.590564 
L 165.864394 215.596682 
L 152.712801 191.468867 
L 143.779718 175.115018 
L 140.484999 170.735299 
L 150.150683 170.046276 
L 153.067169 166.990972 
L 158.124046 161.679828 
L 162.54792 154.317721 
L 166.776542 147.27254 
L 171.105125 144.48368 
L 179.398774 139.110837 
L 192.058456 130.938442 
" clip-path="url(#pafe66379ee)" style="fill: none; stroke: #8f8f8f; stroke-width: 0.2; stroke-linecap: square"/>
   </g>
   <g id="line2d_17">
    <path d="M 186.657316 214.577095 
L 185.901848 230.91455 
L 194.910653 233.496848 
L 191.579274 237.250835 
L 186.303853 241.402767 
L 173.173391 243.059062 
L 167.202484 220.590564 
L 176.860328 217.635112 
L 186.657316 214.577095 
" clip-path="url(#pafe66379ee)" style="fill: none; stroke: #8f8f8f; stroke-width: 0.2; stroke-linecap: square"/>
   </g>
   <g id="line2d_18">
    <path d="M 255.715359 229.407746 
L 263.711524 233.084278 
L 262.539053 235.41209 
L 262.905678 242.915425 
L 263.705986 258.959262 
L 230.533601 260.151448 
L 226.510995 260.297514 
L 221.536525 230.81153 
L 230.046167 230.032524 
L 255.715359 229.407746 
" clip-path="url(#pafe66379ee)" style="fill: none; stroke: #8f8f8f; stroke-width: 0.2; stroke-linecap: square"/>
   </g>
   <g id="line2d_19">
    <path d="M 194.910653 233.496848 
L 210.452263 235.008 
L 221.536525 230.81153 
L 226.510995 260.297514 
L 214.499227 257.57026 
L 198.831432 258.310408 
L 189.764392 258.718675 
L 186.303853 241.402767 
L 191.579274 237.250835 
L 194.910653 233.496848 
" clip-path="url(#pafe66379ee)" style="fill: none; stroke: #8f8f8f; stroke-width: 0.2; stroke-linecap: square"/>
   </g>
   <g id="line2d_20">
    <path d="M 245.693525 137.950048 
L 245.950362 152.625403 
L 246.416029 177.952884 
L 239.917587 182.364007 
L 187.047122 206.261543 
L 188.36805 177.529594 
L 199.329547 160.706501 
L 208.837993 153.31322 
L 210.173527 146.387346 
L 213.211933 146.299683 
L 226.477471 150.644848 
L 245.693525 137.950048 
" clip-path="url(#pafe66379ee)" style="fill: none; stroke: #8f8f8f; stroke-width: 0.2; stroke-linecap: square"/>
   </g>
   <g id="line2d_21">
    <path d="M 277.890603 156.530266 
L 281.570848 172.393538 
L 286.418152 193.303379 
L 273.493424 187.278105 
L 261.086694 167.956867 
L 277.890603 156.530266 
" clip-path="url(#pafe66379ee)" style="fill: none; stroke: #8f8f8f; stroke-width: 0.2; stroke-linecap: square"/>
   </g>
   <g id="line2d_22">
    <path d="M 265.17793 129.130486 
L 271.484184 128.975956 
L 255.060989 148.339632 
L 251.309824 152.766772 
L 261.086694 167.956867 
L 246.416029 177.952884 
L 245.950362 152.625403 
L 245.693525 137.950048 
L 245.532174 129.747073 
L 265.17793 129.130486 
" clip-path="url(#pafe66379ee)" style="fill: none; stroke: #8f8f8f; stroke-width: 0.2; stroke-linecap: square"/>
   </g>
   <g id="line2d_23">
    <path d="M 261.086694 167.956867 
L 273.493424 187.278105 
L 286.418152 193.303379 
L 276.683926 207.638813 
L 275.926123 208.783904 
L 274.385239 211.874026 
L 256.037672 211.438739 
L 239.917587 182.364007 
L 246.416029 177.952884 
L 261.086694 167.956867 
" clip-path="url(#pafe66379ee)" style="fill: none; stroke: #8f8f8f; stroke-width: 0.2; stroke-linecap: square"/>
   </g>
   <g id="line2d_24">
    <path d="M 256.037672 211.438739 
L 274.385239 211.874026 
L 271.979945 216.617731 
L 263.711524 233.084278 
L 255.715359 229.407746 
L 230.046167 230.032524 
L 256.037672 211.438739 
" clip-path="url(#pafe66379ee)" style="fill: none; stroke: #8f8f8f; stroke-width: 0.2; stroke-linecap: square"/>
   </g>
   <g id="line2d_25">
    <path d="M 245.532174 129.747073 
L 245.693525 137.950048 
L 226.477471 150.644848 
L 213.211933 146.299683 
L 210.173527 146.387346 
L 210.37004 145.344492 
L 213.056674 130.557969 
L 217.016576 130.475076 
L 238.146245 129.972983 
L 245.532174 129.747073 
" clip-path="url(#pafe66379ee)" style="fill: none; stroke: #8f8f8f; stroke-width: 0.2; stroke-linecap: square"/>
   </g>
   <g id="line2d_26">
    <path d="M 271.484184 128.975956 
L 274.039645 139.924173 
L 277.890603 156.530266 
L 261.086694 167.956867 
L 251.309824 152.766772 
L 255.060989 148.339632 
L 271.484184 128.975956 
" clip-path="url(#pafe66379ee)" style="fill: none; stroke: #8f8f8f; stroke-width: 0.2; stroke-linecap: square"/>
   </g>
   <g id="line2d_27">
    <path d="M 239.917587 182.364007 
L 256.037672 211.438739 
L 230.046167 230.032524 
L 221.536525 230.81153 
L 219.315955 217.673024 
L 218.831323 214.83297 
L 212.77065 209.443623 
L 205.726599 208.673004 
L 186.657316 214.577095 
L 187.047122 206.261543 
L 239.917587 182.364007 
L 239.917587 182.364007 
" clip-path="url(#pafe66379ee)" style="fill: none; stroke: #ffc380; stroke-width: 0.5; stroke-linecap: square"/>
   </g>
   <g id="line2d_28">
    <path d="M 205.726599 208.673004 
L 212.77065 209.443623 
L 218.831323 214.83297 
L 219.315955 217.673024 
L 207.997003 221.310003 
L 205.726599 208.673004 
L 205.726599 208.673004 
" clip-path="url(#pafe66379ee)" style="fill: none; stroke: #ffc380; stroke-width: 0.5; stroke-linecap: square"/>
   </g>
   <g id="line2d_29">
    <path d="M 205.726599 208.673004 
L 207.997003 221.310003 
L 219.315955 217.673024 
L 221.536525 230.81153 
L 210.452263 235.008 
L 194.910653 233.496848 
L 185.901848 230.91455 
L 186.657316 214.577095 
L 205.726599 208.673004 
L 205.726599 208.673004 
" clip-path="url(#pafe66379ee)" style="fill: none; stroke: #ffc380; stroke-width: 0.5; stroke-linecap: square"/>
   </g>
   <g id="line2d_30">
    <path d="M 277.890603 156.530266 
L 281.570848 172.393538 
L 286.418152 193.303379 
L 276.683926 207.638813 
L 275.926123 208.783904 
L 274.385239 211.874026 
L 256.037672 211.438739 
L 239.917587 182.364007 
L 246.416029 177.952884 
L 261.086694 167.956867 
L 277.890603 156.530266 
L 277.890603 156.530266 
" clip-path="url(#pafe66379ee)" style="fill: none; stroke: #ffc380; stroke-width: 0.5; stroke-linecap: square"/>
   </g>
   <g id="line2d_31">
    <path d="M 265.17793 129.130486 
L 271.484184 128.975956 
L 274.039645 139.924173 
L 277.890603 156.530266 
L 261.086694 167.956867 
L 246.416029 177.952884 
L 245.950362 152.625403 
L 245.693525 137.950048 
L 245.532174 129.747073 
L 265.17793 129.130486 
L 265.17793 129.130486 
" clip-path="url(#pafe66379ee)" style="fill: none; stroke: #ffc380; stroke-width: 0.5; stroke-linecap: square"/>
   </g>
   <g id="line2d_32">
    <path d="M 276.940008 114.048 
L 265.17793 129.130486 
L 245.532174 129.747073 
L 245.278809 115.870383 
L 276.940008 114.048 
L 276.940008 114.048 
" clip-path="url(#pafe66379ee)" style="fill: none; stroke: #ffc380; stroke-width: 0.5; stroke-linecap: square"/>
   </g>
   <g id="line2d_33">
    <path d="M 265.17793 129.130486 
L 259.633345 151.292455 
L 255.050758 153.616391 
L 235.307771 153.946803 
L 240.095858 142.605201 
L 245.532174 129.747073 
L 265.17793 129.130486 
L 265.17793 129.130486 
" clip-path="url(#pafe66379ee)" style="fill: none; stroke: #ffc380; stroke-width: 0.5; stroke-linecap: square"/>
   </g>
   <g id="text_1">
    <!-- EDMMBBG -->
    <g style="opacity: 0.5" transform="translate(301.612231 244.752152)scale(0.0579 -0.0579)">
     <defs>
      <path id="DejaVuSans-45" d="M 628 4666 
L 3578 4666 
L 3578 4134 
L 1259 4134 
L 1259 2753 
L 3481 2753 
L 3481 2222 
L 1259 2222 
L 1259 531 
L 3634 531 
L 3634 0 
L 628 0 
L 628 4666 
z
" transform="scale(0.015625)"/>
      <path id="DejaVuSans-44" d="M 1259 4147 
L 1259 519 
L 2022 519 
Q 2988 519 3436 956 
Q 3884 1394 3884 2338 
Q 3884 3275 3436 3711 
Q 2988 4147 2022 4147 
L 1259 4147 
z
M 628 4666 
L 1925 4666 
Q 3281 4666 3915 4102 
Q 4550 3538 4550 2338 
Q 4550 1131 3912 565 
Q 3275 0 1925 0 
L 628 0 
L 628 4666 
z
" transform="scale(0.015625)"/>
      <path id="DejaVuSans-4d" d="M 628 4666 
L 1569 4666 
L 2759 1491 
L 3956 4666 
L 4897 4666 
L 4897 0 
L 4281 0 
L 4281 4097 
L 3078 897 
L 2444 897 
L 1241 4097 
L 1241 0 
L 628 0 
L 628 4666 
z
" transform="scale(0.015625)"/>
      <path id="DejaVuSans-42" d="M 1259 2228 
L 1259 519 
L 2272 519 
Q 2781 519 3026 730 
Q 3272 941 3272 1375 
Q 3272 1813 3026 2020 
Q 2781 2228 2272 2228 
L 1259 2228 
z
M 1259 4147 
L 1259 2741 
L 2194 2741 
Q 2656 2741 2882 2914 
Q 3109 3088 3109 3444 
Q 3109 3797 2882 3972 
Q 2656 4147 2194 4147 
L 1259 4147 
z
M 628 4666 
L 2241 4666 
Q 2963 4666 3353 4366 
Q 3744 4066 3744 3513 
Q 3744 3084 3544 2831 
Q 3344 2578 2956 2516 
Q 3422 2416 3680 2098 
Q 3938 1781 3938 1306 
Q 3938 681 3513 340 
Q 3088 0 2303 0 
L 628 0 
L 628 4666 
z
" transform="scale(0.015625)"/>
      <path id="DejaVuSans-47" d="M 3809 666 
L 3809 1919 
L 2778 1919 
L 2778 2438 
L 4434 2438 
L 4434 434 
Q 4069 175 3628 42 
Q 3188 -91 2688 -91 
Q 1594 -91 976 548 
Q 359 1188 359 2328 
Q 359 3472 976 4111 
Q 1594 4750 2688 4750 
Q 3144 4750 3555 4637 
Q 3966 4525 4313 4306 
L 4313 3634 
Q 3963 3931 3569 4081 
Q 3175 4231 2741 4231 
Q 1884 4231 1454 3753 
Q 1025 3275 1025 2328 
Q 1025 1384 1454 906 
Q 1884 428 2741 428 
Q 3075 428 3337 486 
Q 3600 544 3809 666 
z
" transform="scale(0.015625)"/>
     </defs>
     <use xlink:href="#DejaVuSans-45"/>
     <use xlink:href="#DejaVuSans-44" x="63.183594"/>
     <use xlink:href="#DejaVuSans-4d" x="140.185547"/>
     <use xlink:href="#DejaVuSans-4d" x="226.464844"/>
     <use xlink:href="#DejaVuSans-42" x="312.744141"/>
     <use xlink:href="#DejaVuSans-42" x="381.347656"/>
     <use xlink:href="#DejaVuSans-47" x="448.201172"/>
    </g>
    <!-- 245 -->
    <g style="opacity: 0.5" transform="translate(311.305505 251.235685)scale(0.0579 -0.0579)">
     <defs>
      <path id="DejaVuSans-32" d="M 1228 531 
L 3431 531 
L 3431 0 
L 469 0 
L 469 531 
Q 828 903 1448 1529 
Q 2069 2156 2228 2338 
Q 2531 2678 2651 2914 
Q 2772 3150 2772 3378 
Q 2772 3750 2511 3984 
Q 2250 4219 1831 4219 
Q 1534 4219 1204 4116 
Q 875 4013 500 3803 
L 500 4441 
Q 881 4594 1212 4672 
Q 1544 4750 1819 4750 
Q 2544 4750 2975 4387 
Q 3406 4025 3406 3419 
Q 3406 3131 3298 2873 
Q 3191 2616 2906 2266 
Q 2828 2175 2409 1742 
Q 1991 1309 1228 531 
z
" transform="scale(0.015625)"/>
      <path id="DejaVuSans-34" d="M 2419 4116 
L 825 1625 
L 2419 1625 
L 2419 4116 
z
M 2253 4666 
L 3047 4666 
L 3047 1625 
L 3713 1625 
L 3713 1100 
L 3047 1100 
L 3047 0 
L 2419 0 
L 2419 1100 
L 313 1100 
L 313 1709 
L 2253 4666 
z
" transform="scale(0.015625)"/>
      <path id="DejaVuSans-35" d="M 691 4666 
L 3169 4666 
L 3169 4134 
L 1269 4134 
L 1269 2991 
Q 1406 3038 1543 3061 
Q 1681 3084 1819 3084 
Q 2600 3084 3056 2656 
Q 3513 2228 3513 1497 
Q 3513 744 3044 326 
Q 2575 -91 1722 -91 
Q 1428 -91 1123 -41 
Q 819 9 494 109 
L 494 744 
Q 775 591 1075 516 
Q 1375 441 1709 441 
Q 2250 441 2565 725 
Q 2881 1009 2881 1497 
Q 2881 1984 2565 2268 
Q 2250 2553 1709 2553 
Q 1456 2553 1204 2497 
Q 953 2441 691 2322 
L 691 4666 
z
" transform="scale(0.015625)"/>
     </defs>
     <use xlink:href="#DejaVuSans-32"/>
     <use xlink:href="#DejaVuSans-34" x="63.623047"/>
     <use xlink:href="#DejaVuSans-35" x="127.246094"/>
    </g>
    <!-- 195 -->
    <g style="opacity: 0.5" transform="translate(311.305505 257.719219)scale(0.0579 -0.0579)">
     <defs>
      <path id="DejaVuSans-31" d="M 794 531 
L 1825 531 
L 1825 4091 
L 703 3866 
L 703 4441 
L 1819 4666 
L 2450 4666 
L 2450 531 
L 3481 531 
L 3481 0 
L 794 0 
L 794 531 
z
" transform="scale(0.015625)"/>
      <path id="DejaVuSans-39" d="M 703 97 
L 703 672 
Q 941 559 1184 500 
Q 1428 441 1663 441 
Q 2288 441 2617 861 
Q 2947 1281 2994 2138 
Q 2813 1869 2534 1725 
Q 2256 1581 1919 1581 
Q 1219 1581 811 2004 
Q 403 2428 403 3163 
Q 403 3881 828 4315 
Q 1253 4750 1959 4750 
Q 2769 4750 3195 4129 
Q 3622 3509 3622 2328 
Q 3622 1225 3098 567 
Q 2575 -91 1691 -91 
Q 1453 -91 1209 -44 
Q 966 3 703 97 
z
M 1959 2075 
Q 2384 2075 2632 2365 
Q 2881 2656 2881 3163 
Q 2881 3666 2632 3958 
Q 2384 4250 1959 4250 
Q 1534 4250 1286 3958 
Q 1038 3666 1038 3163 
Q 1038 2656 1286 2365 
Q 1534 2075 1959 2075 
z
" transform="scale(0.015625)"/>
     </defs>
     <use xlink:href="#DejaVuSans-31"/>
     <use xlink:href="#DejaVuSans-39" x="63.623047"/>
     <use xlink:href="#DejaVuSans-35" x="127.246094"/>
    </g>
   </g>
   <g id="text_2">
    <!-- EDMMFRKL -->
    <g style="opacity: 0.5" transform="translate(321.102742 258.585714)scale(0.0579 -0.0579)">
     <defs>
      <path id="DejaVuSans-46" d="M 628 4666 
L 3309 4666 
L 3309 4134 
L 1259 4134 
L 1259 2759 
L 3109 2759 
L 3109 2228 
L 1259 2228 
L 1259 0 
L 628 0 
L 628 4666 
z
" transform="scale(0.015625)"/>
      <path id="DejaVuSans-52" d="M 2841 2188 
Q 3044 2119 3236 1894 
Q 3428 1669 3622 1275 
L 4263 0 
L 3584 0 
L 2988 1197 
Q 2756 1666 2539 1819 
Q 2322 1972 1947 1972 
L 1259 1972 
L 1259 0 
L 628 0 
L 628 4666 
L 2053 4666 
Q 2853 4666 3247 4331 
Q 3641 3997 3641 3322 
Q 3641 2881 3436 2590 
Q 3231 2300 2841 2188 
z
M 1259 4147 
L 1259 2491 
L 2053 2491 
Q 2509 2491 2742 2702 
Q 2975 2913 2975 3322 
Q 2975 3731 2742 3939 
Q 2509 4147 2053 4147 
L 1259 4147 
z
" transform="scale(0.015625)"/>
      <path id="DejaVuSans-4b" d="M 628 4666 
L 1259 4666 
L 1259 2694 
L 3353 4666 
L 4166 4666 
L 1850 2491 
L 4331 0 
L 3500 0 
L 1259 2247 
L 1259 0 
L 628 0 
L 628 4666 
z
" transform="scale(0.015625)"/>
      <path id="DejaVuSans-4c" d="M 628 4666 
L 1259 4666 
L 1259 531 
L 3531 531 
L 3531 0 
L 628 0 
L 628 4666 
z
" transform="scale(0.015625)"/>
     </defs>
     <use xlink:href="#DejaVuSans-45"/>
     <use xlink:href="#DejaVuSans-44" x="63.183594"/>
     <use xlink:href="#DejaVuSans-4d" x="140.185547"/>
     <use xlink:href="#DejaVuSans-4d" x="226.464844"/>
     <use xlink:href="#DejaVuSans-46" x="312.744141"/>
     <use xlink:href="#DejaVuSans-52" x="370.263672"/>
     <use xlink:href="#DejaVuSans-4b" x="439.746094"/>
     <use xlink:href="#DejaVuSans-4c" x="505.322266"/>
    </g>
    <!-- 135 -->
    <g style="opacity: 0.5" transform="translate(331.819218 265.069247)scale(0.0579 -0.0579)">
     <defs>
      <path id="DejaVuSans-33" d="M 2597 2516 
Q 3050 2419 3304 2112 
Q 3559 1806 3559 1356 
Q 3559 666 3084 287 
Q 2609 -91 1734 -91 
Q 1441 -91 1130 -33 
Q 819 25 488 141 
L 488 750 
Q 750 597 1062 519 
Q 1375 441 1716 441 
Q 2309 441 2620 675 
Q 2931 909 2931 1356 
Q 2931 1769 2642 2001 
Q 2353 2234 1838 2234 
L 1294 2234 
L 1294 2753 
L 1863 2753 
Q 2328 2753 2575 2939 
Q 2822 3125 2822 3475 
Q 2822 3834 2567 4026 
Q 2313 4219 1838 4219 
Q 1578 4219 1281 4162 
Q 984 4106 628 3988 
L 628 4550 
Q 988 4650 1302 4700 
Q 1616 4750 1894 4750 
Q 2613 4750 3031 4423 
Q 3450 4097 3450 3541 
Q 3450 3153 3228 2886 
Q 3006 2619 2597 2516 
z
" transform="scale(0.015625)"/>
     </defs>
     <use xlink:href="#DejaVuSans-31"/>
     <use xlink:href="#DejaVuSans-33" x="63.623047"/>
     <use xlink:href="#DejaVuSans-35" x="127.246094"/>
    </g>
    <!-- GND -->
    <g style="opacity: 0.5" transform="translate(330.706905 271.552781)scale(0.0579 -0.0579)">
     <defs>
      <path id="DejaVuSans-4e" d="M 628 4666 
L 1478 4666 
L 3547 763 
L 3547 4666 
L 4159 4666 
L 4159 0 
L 3309 0 
L 1241 3903 
L 1241 0 
L 628 0 
L 628 4666 
z
" transform="scale(0.015625)"/>
     </defs>
     <use xlink:href="#DejaVuSans-47"/>
     <use xlink:href="#DejaVuSans-4e" x="77.490234"/>
     <use xlink:href="#DejaVuSans-44" x="152.294922"/>
    </g>
   </g>
   <g id="text_3">
    <!-- EDMMGER -->
    <g style="opacity: 0.5" transform="translate(336.500158 133.96203)scale(0.0579 -0.0579)">
     <use xlink:href="#DejaVuSans-45"/>
     <use xlink:href="#DejaVuSans-44" x="63.183594"/>
     <use xlink:href="#DejaVuSans-4d" x="140.185547"/>
     <use xlink:href="#DejaVuSans-4d" x="226.464844"/>
     <use xlink:href="#DejaVuSans-47" x="312.744141"/>
     <use xlink:href="#DejaVuSans-45" x="390.234375"/>
     <use xlink:href="#DejaVuSans-52" x="453.417969"/>
    </g>
    <!-- 245 -->
    <g style="opacity: 0.5" transform="translate(346.112463 140.445564)scale(0.0579 -0.0579)">
     <use xlink:href="#DejaVuSans-32"/>
     <use xlink:href="#DejaVuSans-34" x="63.623047"/>
     <use xlink:href="#DejaVuSans-35" x="127.246094"/>
    </g>
    <!-- 195 -->
    <g style="opacity: 0.5" transform="translate(346.112463 146.929097)scale(0.0579 -0.0579)">
     <use xlink:href="#DejaVuSans-31"/>
     <use xlink:href="#DejaVuSans-39" x="63.623047"/>
     <use xlink:href="#DejaVuSans-35" x="127.246094"/>
    </g>
   </g>
   <g id="text_4">
    <!-- EDMMHAL -->
    <g style="opacity: 0.5" transform="translate(310.965248 115.807799)scale(0.0579 -0.0579)">
     <defs>
      <path id="DejaVuSans-48" d="M 628 4666 
L 1259 4666 
L 1259 2753 
L 3553 2753 
L 3553 4666 
L 4184 4666 
L 4184 0 
L 3553 0 
L 3553 2222 
L 1259 2222 
L 1259 0 
L 628 0 
L 628 4666 
z
" transform="scale(0.015625)"/>
      <path id="DejaVuSans-41" d="M 2188 4044 
L 1331 1722 
L 3047 1722 
L 2188 4044 
z
M 1831 4666 
L 2547 4666 
L 4325 0 
L 3669 0 
L 3244 1197 
L 1141 1197 
L 716 0 
L 50 0 
L 1831 4666 
z
" transform="scale(0.015625)"/>
     </defs>
     <use xlink:href="#DejaVuSans-45"/>
     <use xlink:href="#DejaVuSans-44" x="63.183594"/>
     <use xlink:href="#DejaVuSans-4d" x="140.185547"/>
     <use xlink:href="#DejaVuSans-4d" x="226.464844"/>
     <use xlink:href="#DejaVuSans-48" x="312.744141"/>
     <use xlink:href="#DejaVuSans-41" x="387.939453"/>
     <use xlink:href="#DejaVuSans-4c" x="456.347656"/>
    </g>
    <!-- 245 -->
    <g style="opacity: 0.5" transform="translate(320.264079 122.291332)scale(0.0579 -0.0579)">
     <use xlink:href="#DejaVuSans-32"/>
     <use xlink:href="#DejaVuSans-34" x="63.623047"/>
     <use xlink:href="#DejaVuSans-35" x="127.246094"/>
    </g>
    <!-- 195 -->
    <g style="opacity: 0.5" transform="translate(320.264079 128.774866)scale(0.0579 -0.0579)">
     <use xlink:href="#DejaVuSans-31"/>
     <use xlink:href="#DejaVuSans-39" x="63.623047"/>
     <use xlink:href="#DejaVuSans-35" x="127.246094"/>
    </g>
   </g>
   <g id="text_5">
    <!-- EDMMTRLN -->
    <g style="opacity: 0.5" transform="translate(324.891568 108.617377)scale(0.0579 -0.0579)">
     <defs>
      <path id="DejaVuSans-54" d="M -19 4666 
L 3928 4666 
L 3928 4134 
L 2272 4134 
L 2272 0 
L 1638 0 
L 1638 4134 
L -19 4134 
L -19 4666 
z
" transform="scale(0.015625)"/>
     </defs>
     <use xlink:href="#DejaVuSans-45"/>
     <use xlink:href="#DejaVuSans-44" x="63.183594"/>
     <use xlink:href="#DejaVuSans-4d" x="140.185547"/>
     <use xlink:href="#DejaVuSans-4d" x="226.464844"/>
     <use xlink:href="#DejaVuSans-54" x="312.744141"/>
     <use xlink:href="#DejaVuSans-52" x="373.828125"/>
     <use xlink:href="#DejaVuSans-4c" x="443.310547"/>
     <use xlink:href="#DejaVuSans-4e" x="499.023438"/>
    </g>
    <!-- 145 -->
    <g style="opacity: 0.5" transform="translate(335.978513 115.100911)scale(0.0579 -0.0579)">
     <use xlink:href="#DejaVuSans-31"/>
     <use xlink:href="#DejaVuSans-34" x="63.623047"/>
     <use xlink:href="#DejaVuSans-35" x="127.246094"/>
    </g>
    <!-- GND -->
    <g style="opacity: 0.5" transform="translate(334.8662 121.584444)scale(0.0579 -0.0579)">
     <use xlink:href="#DejaVuSans-47"/>
     <use xlink:href="#DejaVuSans-4e" x="77.490234"/>
     <use xlink:href="#DejaVuSans-44" x="152.294922"/>
    </g>
   </g>
   <g id="text_6">
    <!-- EDWWHRZ10 -->
    <g style="opacity: 0.5" transform="translate(241.470452 117.011681)scale(0.0579 -0.0579)">
     <defs>
      <path id="DejaVuSans-57" d="M 213 4666 
L 850 4666 
L 1831 722 
L 2809 4666 
L 3519 4666 
L 4500 722 
L 5478 4666 
L 6119 4666 
L 4947 0 
L 4153 0 
L 3169 4050 
L 2175 0 
L 1381 0 
L 213 4666 
z
" transform="scale(0.015625)"/>
      <path id="DejaVuSans-5a" d="M 359 4666 
L 4025 4666 
L 4025 4184 
L 1075 531 
L 4097 531 
L 4097 0 
L 288 0 
L 288 481 
L 3238 4134 
L 359 4134 
L 359 4666 
z
" transform="scale(0.015625)"/>
      <path id="DejaVuSans-30" d="M 2034 4250 
Q 1547 4250 1301 3770 
Q 1056 3291 1056 2328 
Q 1056 1369 1301 889 
Q 1547 409 2034 409 
Q 2525 409 2770 889 
Q 3016 1369 3016 2328 
Q 3016 3291 2770 3770 
Q 2525 4250 2034 4250 
z
M 2034 4750 
Q 2819 4750 3233 4129 
Q 3647 3509 3647 2328 
Q 3647 1150 3233 529 
Q 2819 -91 2034 -91 
Q 1250 -91 836 529 
Q 422 1150 422 2328 
Q 422 3509 836 4129 
Q 1250 4750 2034 4750 
z
" transform="scale(0.015625)"/>
     </defs>
     <use xlink:href="#DejaVuSans-45"/>
     <use xlink:href="#DejaVuSans-44" x="63.183594"/>
     <use xlink:href="#DejaVuSans-57" x="140.185547"/>
     <use xlink:href="#DejaVuSans-57" x="239.0625"/>
     <use xlink:href="#DejaVuSans-48" x="337.939453"/>
     <use xlink:href="#DejaVuSans-52" x="413.134766"/>
     <use xlink:href="#DejaVuSans-5a" x="482.617188"/>
     <use xlink:href="#DejaVuSans-31" x="551.123047"/>
     <use xlink:href="#DejaVuSans-30" x="614.746094"/>
    </g>
    <!-- 235 -->
    <g style="opacity: 0.5" transform="translate(255.583577 123.495215)scale(0.0579 -0.0579)">
     <use xlink:href="#DejaVuSans-32"/>
     <use xlink:href="#DejaVuSans-33" x="63.623047"/>
     <use xlink:href="#DejaVuSans-35" x="127.246094"/>
    </g>
    <!-- GND -->
    <g style="opacity: 0.5" transform="translate(254.471264 129.978748)scale(0.0579 -0.0579)">
     <use xlink:href="#DejaVuSans-47"/>
     <use xlink:href="#DejaVuSans-4e" x="77.490234"/>
     <use xlink:href="#DejaVuSans-44" x="152.294922"/>
    </g>
   </g>
   <g id="text_7">
    <!-- EDWWHRZ4 -->
    <g style="opacity: 0.5" transform="translate(240.431697 96.823222)scale(0.0579 -0.0579)">
     <use xlink:href="#DejaVuSans-45"/>
     <use xlink:href="#DejaVuSans-44" x="63.183594"/>
     <use xlink:href="#DejaVuSans-57" x="140.185547"/>
     <use xlink:href="#DejaVuSans-57" x="239.0625"/>
     <use xlink:href="#DejaVuSans-48" x="337.939453"/>
     <use xlink:href="#DejaVuSans-52" x="413.134766"/>
     <use xlink:href="#DejaVuSans-5a" x="482.617188"/>
     <use xlink:href="#DejaVuSans-34" x="551.123047"/>
    </g>
    <!-- 245 -->
    <g style="opacity: 0.5" transform="translate(252.702878 103.306755)scale(0.0579 -0.0579)">
     <use xlink:href="#DejaVuSans-32"/>
     <use xlink:href="#DejaVuSans-34" x="63.623047"/>
     <use xlink:href="#DejaVuSans-35" x="127.246094"/>
    </g>
    <!-- GND -->
    <g style="opacity: 0.5" transform="translate(251.590565 109.790289)scale(0.0579 -0.0579)">
     <use xlink:href="#DejaVuSans-47"/>
     <use xlink:href="#DejaVuSans-4e" x="77.490234"/>
     <use xlink:href="#DejaVuSans-44" x="152.294922"/>
    </g>
   </g>
   <g id="text_8">
    <!-- GIN1 -->
    <g style="opacity: 0.5" transform="translate(158.024407 177.102409)scale(0.0579 -0.0579)">
     <defs>
      <path id="DejaVuSans-49" d="M 628 4666 
L 1259 4666 
L 1259 0 
L 628 0 
L 628 4666 
z
" transform="scale(0.015625)"/>
     </defs>
     <use xlink:href="#DejaVuSans-47"/>
     <use xlink:href="#DejaVuSans-49" x="77.490234"/>
     <use xlink:href="#DejaVuSans-4e" x="106.982422"/>
     <use xlink:href="#DejaVuSans-31" x="181.787109"/>
    </g>
    <!-- 205 -->
    <g style="opacity: 0.5" transform="translate(159.603539 183.585943)scale(0.0579 -0.0579)">
     <use xlink:href="#DejaVuSans-32"/>
     <use xlink:href="#DejaVuSans-30" x="63.623047"/>
     <use xlink:href="#DejaVuSans-35" x="127.246094"/>
    </g>
    <!-- GND -->
    <g style="opacity: 0.5" transform="translate(158.491225 190.069476)scale(0.0579 -0.0579)">
     <use xlink:href="#DejaVuSans-47"/>
     <use xlink:href="#DejaVuSans-4e" x="77.490234"/>
     <use xlink:href="#DejaVuSans-44" x="152.294922"/>
    </g>
   </g>
   <g id="text_9">
    <!-- GIN3 -->
    <g style="opacity: 0.5" transform="translate(159.166764 170.878648)scale(0.0579 -0.0579)">
     <use xlink:href="#DejaVuSans-47"/>
     <use xlink:href="#DejaVuSans-49" x="77.490234"/>
     <use xlink:href="#DejaVuSans-4e" x="106.982422"/>
     <use xlink:href="#DejaVuSans-33" x="181.787109"/>
    </g>
    <!-- 245 -->
    <g style="opacity: 0.5" transform="translate(160.745896 177.362181)scale(0.0579 -0.0579)">
     <use xlink:href="#DejaVuSans-32"/>
     <use xlink:href="#DejaVuSans-34" x="63.623047"/>
     <use xlink:href="#DejaVuSans-35" x="127.246094"/>
    </g>
    <!-- 205 -->
    <g style="opacity: 0.5" transform="translate(160.745896 183.845715)scale(0.0579 -0.0579)">
     <use xlink:href="#DejaVuSans-32"/>
     <use xlink:href="#DejaVuSans-30" x="63.623047"/>
     <use xlink:href="#DejaVuSans-35" x="127.246094"/>
    </g>
   </g>
   <g id="text_10">
    <!-- GIN4 -->
    <g style="opacity: 0.5" transform="translate(173.951606 223.932223)scale(0.0579 -0.0579)">
     <use xlink:href="#DejaVuSans-47"/>
     <use xlink:href="#DejaVuSans-49" x="77.490234"/>
     <use xlink:href="#DejaVuSans-4e" x="106.982422"/>
     <use xlink:href="#DejaVuSans-34" x="181.787109"/>
    </g>
    <!-- 245 -->
    <g style="opacity: 0.5" transform="translate(175.530738 230.415757)scale(0.0579 -0.0579)">
     <use xlink:href="#DejaVuSans-32"/>
     <use xlink:href="#DejaVuSans-34" x="63.623047"/>
     <use xlink:href="#DejaVuSans-35" x="127.246094"/>
    </g>
    <!-- 135 -->
    <g style="opacity: 0.5" transform="translate(175.530738 236.89929)scale(0.0579 -0.0579)">
     <use xlink:href="#DejaVuSans-31"/>
     <use xlink:href="#DejaVuSans-33" x="63.623047"/>
     <use xlink:href="#DejaVuSans-35" x="127.246094"/>
    </g>
   </g>
   <g id="text_11">
    <!-- HAB1 -->
    <g style="opacity: 0.5" transform="translate(234.638348 239.966775)scale(0.0579 -0.0579)">
     <use xlink:href="#DejaVuSans-48"/>
     <use xlink:href="#DejaVuSans-41" x="75.195312"/>
     <use xlink:href="#DejaVuSans-42" x="143.603516"/>
     <use xlink:href="#DejaVuSans-31" x="212.207031"/>
    </g>
    <!-- 245 -->
    <g style="opacity: 0.5" transform="translate(237.098194 246.450308)scale(0.0579 -0.0579)">
     <use xlink:href="#DejaVuSans-32"/>
     <use xlink:href="#DejaVuSans-34" x="63.623047"/>
     <use xlink:href="#DejaVuSans-35" x="127.246094"/>
    </g>
    <!-- GND -->
    <g style="opacity: 0.5" transform="translate(235.98588 252.933842)scale(0.0579 -0.0579)">
     <use xlink:href="#DejaVuSans-47"/>
     <use xlink:href="#DejaVuSans-4e" x="77.490234"/>
     <use xlink:href="#DejaVuSans-44" x="152.294922"/>
    </g>
   </g>
   <g id="text_12">
    <!-- HAB3 -->
    <g style="opacity: 0.5" transform="translate(198.421747 240.668667)scale(0.0579 -0.0579)">
     <use xlink:href="#DejaVuSans-48"/>
     <use xlink:href="#DejaVuSans-41" x="75.195312"/>
     <use xlink:href="#DejaVuSans-42" x="143.603516"/>
     <use xlink:href="#DejaVuSans-33" x="212.207031"/>
    </g>
    <!-- 245 -->
    <g style="opacity: 0.5" transform="translate(200.881593 247.1522)scale(0.0579 -0.0579)">
     <use xlink:href="#DejaVuSans-32"/>
     <use xlink:href="#DejaVuSans-34" x="63.623047"/>
     <use xlink:href="#DejaVuSans-35" x="127.246094"/>
    </g>
    <!-- 135 -->
    <g style="opacity: 0.5" transform="translate(200.881593 253.635734)scale(0.0579 -0.0579)">
     <use xlink:href="#DejaVuSans-31"/>
     <use xlink:href="#DejaVuSans-33" x="63.623047"/>
     <use xlink:href="#DejaVuSans-35" x="127.246094"/>
    </g>
   </g>
   <g id="text_13">
    <!-- HEF1 -->
    <g style="opacity: 0.5" transform="translate(209.218146 167.21994)scale(0.0579 -0.0579)">
     <use xlink:href="#DejaVuSans-48"/>
     <use xlink:href="#DejaVuSans-45" x="75.195312"/>
     <use xlink:href="#DejaVuSans-46" x="138.378906"/>
     <use xlink:href="#DejaVuSans-31" x="195.898438"/>
    </g>
    <!-- 245 -->
    <g style="opacity: 0.5" transform="translate(211.205744 173.703474)scale(0.0579 -0.0579)">
     <use xlink:href="#DejaVuSans-32"/>
     <use xlink:href="#DejaVuSans-34" x="63.623047"/>
     <use xlink:href="#DejaVuSans-35" x="127.246094"/>
    </g>
    <!-- GND -->
    <g style="opacity: 0.5" transform="translate(210.093431 180.187007)scale(0.0579 -0.0579)">
     <use xlink:href="#DejaVuSans-47"/>
     <use xlink:href="#DejaVuSans-4e" x="77.490234"/>
     <use xlink:href="#DejaVuSans-44" x="152.294922"/>
    </g>
   </g>
   <g id="text_14">
    <!-- HEF10 -->
    <g style="opacity: 0.5" transform="translate(264.397049 170.030967)scale(0.0579 -0.0579)">
     <use xlink:href="#DejaVuSans-48"/>
     <use xlink:href="#DejaVuSans-45" x="75.195312"/>
     <use xlink:href="#DejaVuSans-46" x="138.378906"/>
     <use xlink:href="#DejaVuSans-31" x="195.898438"/>
     <use xlink:href="#DejaVuSans-30" x="259.521484"/>
    </g>
    <!-- 175 -->
    <g style="opacity: 0.5" transform="translate(268.226591 176.514501)scale(0.0579 -0.0579)">
     <defs>
      <path id="DejaVuSans-37" d="M 525 4666 
L 3525 4666 
L 3525 4397 
L 1831 0 
L 1172 0 
L 2766 4134 
L 525 4134 
L 525 4666 
z
" transform="scale(0.015625)"/>
     </defs>
     <use xlink:href="#DejaVuSans-31"/>
     <use xlink:href="#DejaVuSans-37" x="63.623047"/>
     <use xlink:href="#DejaVuSans-35" x="127.246094"/>
    </g>
    <!-- 145 -->
    <g style="opacity: 0.5" transform="translate(268.226591 182.998034)scale(0.0579 -0.0579)">
     <use xlink:href="#DejaVuSans-31"/>
     <use xlink:href="#DejaVuSans-34" x="63.623047"/>
     <use xlink:href="#DejaVuSans-35" x="127.246094"/>
    </g>
   </g>
   <g id="text_15">
    <!-- HEF4 -->
    <g style="opacity: 0.5" transform="translate(250.99475 148.578565)scale(0.0579 -0.0579)">
     <use xlink:href="#DejaVuSans-48"/>
     <use xlink:href="#DejaVuSans-45" x="75.195312"/>
     <use xlink:href="#DejaVuSans-46" x="138.378906"/>
     <use xlink:href="#DejaVuSans-34" x="195.898438"/>
    </g>
    <!-- 215 -->
    <g style="opacity: 0.5" transform="translate(252.982348 155.062098)scale(0.0579 -0.0579)">
     <use xlink:href="#DejaVuSans-32"/>
     <use xlink:href="#DejaVuSans-31" x="63.623047"/>
     <use xlink:href="#DejaVuSans-35" x="127.246094"/>
    </g>
    <!-- GND -->
    <g style="opacity: 0.5" transform="translate(251.870035 161.545632)scale(0.0579 -0.0579)">
     <use xlink:href="#DejaVuSans-47"/>
     <use xlink:href="#DejaVuSans-4e" x="77.490234"/>
     <use xlink:href="#DejaVuSans-44" x="152.294922"/>
    </g>
   </g>
   <g id="text_16">
    <!-- HEF5 -->
    <g style="opacity: 0.5" transform="translate(255.65444 185.029591)scale(0.0579 -0.0579)">
     <use xlink:href="#DejaVuSans-48"/>
     <use xlink:href="#DejaVuSans-45" x="75.195312"/>
     <use xlink:href="#DejaVuSans-46" x="138.378906"/>
     <use xlink:href="#DejaVuSans-35" x="195.898438"/>
    </g>
    <!-- 175 -->
    <g style="opacity: 0.5" transform="translate(257.642038 191.513125)scale(0.0579 -0.0579)">
     <use xlink:href="#DejaVuSans-31"/>
     <use xlink:href="#DejaVuSans-37" x="63.623047"/>
     <use xlink:href="#DejaVuSans-35" x="127.246094"/>
    </g>
    <!-- GND -->
    <g style="opacity: 0.5" transform="translate(256.529725 197.996658)scale(0.0579 -0.0579)">
     <use xlink:href="#DejaVuSans-47"/>
     <use xlink:href="#DejaVuSans-4e" x="77.490234"/>
     <use xlink:href="#DejaVuSans-44" x="152.294922"/>
    </g>
   </g>
   <g id="text_17">
    <!-- HEF6 -->
    <g style="opacity: 0.5" transform="translate(244.702273 217.375653)scale(0.0579 -0.0579)">
     <defs>
      <path id="DejaVuSans-36" d="M 2113 2584 
Q 1688 2584 1439 2293 
Q 1191 2003 1191 1497 
Q 1191 994 1439 701 
Q 1688 409 2113 409 
Q 2538 409 2786 701 
Q 3034 994 3034 1497 
Q 3034 2003 2786 2293 
Q 2538 2584 2113 2584 
z
M 3366 4563 
L 3366 3988 
Q 3128 4100 2886 4159 
Q 2644 4219 2406 4219 
Q 1781 4219 1451 3797 
Q 1122 3375 1075 2522 
Q 1259 2794 1537 2939 
Q 1816 3084 2150 3084 
Q 2853 3084 3261 2657 
Q 3669 2231 3669 1497 
Q 3669 778 3244 343 
Q 2819 -91 2113 -91 
Q 1303 -91 875 529 
Q 447 1150 447 2328 
Q 447 3434 972 4092 
Q 1497 4750 2381 4750 
Q 2619 4750 2861 4703 
Q 3103 4656 3366 4563 
z
" transform="scale(0.015625)"/>
     </defs>
     <use xlink:href="#DejaVuSans-48"/>
     <use xlink:href="#DejaVuSans-45" x="75.195312"/>
     <use xlink:href="#DejaVuSans-46" x="138.378906"/>
     <use xlink:href="#DejaVuSans-36" x="195.898438"/>
    </g>
    <!-- 245 -->
    <g style="opacity: 0.5" transform="translate(246.689872 223.859187)scale(0.0579 -0.0579)">
     <use xlink:href="#DejaVuSans-32"/>
     <use xlink:href="#DejaVuSans-34" x="63.623047"/>
     <use xlink:href="#DejaVuSans-35" x="127.246094"/>
    </g>
    <!-- GND -->
    <g style="opacity: 0.5" transform="translate(245.577558 230.34272)scale(0.0579 -0.0579)">
     <use xlink:href="#DejaVuSans-47"/>
     <use xlink:href="#DejaVuSans-4e" x="77.490234"/>
     <use xlink:href="#DejaVuSans-44" x="152.294922"/>
    </g>
   </g>
   <g id="text_18">
    <!-- HEF8 -->
    <g style="opacity: 0.5" transform="translate(220.420096 135.310105)scale(0.0579 -0.0579)">
     <defs>
      <path id="DejaVuSans-38" d="M 2034 2216 
Q 1584 2216 1326 1975 
Q 1069 1734 1069 1313 
Q 1069 891 1326 650 
Q 1584 409 2034 409 
Q 2484 409 2743 651 
Q 3003 894 3003 1313 
Q 3003 1734 2745 1975 
Q 2488 2216 2034 2216 
z
M 1403 2484 
Q 997 2584 770 2862 
Q 544 3141 544 3541 
Q 544 4100 942 4425 
Q 1341 4750 2034 4750 
Q 2731 4750 3128 4425 
Q 3525 4100 3525 3541 
Q 3525 3141 3298 2862 
Q 3072 2584 2669 2484 
Q 3125 2378 3379 2068 
Q 3634 1759 3634 1313 
Q 3634 634 3220 271 
Q 2806 -91 2034 -91 
Q 1263 -91 848 271 
Q 434 634 434 1313 
Q 434 1759 690 2068 
Q 947 2378 1403 2484 
z
M 1172 3481 
Q 1172 3119 1398 2916 
Q 1625 2713 2034 2713 
Q 2441 2713 2670 2916 
Q 2900 3119 2900 3481 
Q 2900 3844 2670 4047 
Q 2441 4250 2034 4250 
Q 1625 4250 1398 4047 
Q 1172 3844 1172 3481 
z
" transform="scale(0.015625)"/>
     </defs>
     <use xlink:href="#DejaVuSans-48"/>
     <use xlink:href="#DejaVuSans-45" x="75.195312"/>
     <use xlink:href="#DejaVuSans-46" x="138.378906"/>
     <use xlink:href="#DejaVuSans-38" x="195.898438"/>
    </g>
    <!-- 245 -->
    <g style="opacity: 0.5" transform="translate(222.407695 141.793639)scale(0.0579 -0.0579)">
     <use xlink:href="#DejaVuSans-32"/>
     <use xlink:href="#DejaVuSans-34" x="63.623047"/>
     <use xlink:href="#DejaVuSans-35" x="127.246094"/>
    </g>
    <!-- 105 -->
    <g style="opacity: 0.5" transform="translate(222.407695 148.277172)scale(0.0579 -0.0579)">
     <use xlink:href="#DejaVuSans-31"/>
     <use xlink:href="#DejaVuSans-30" x="63.623047"/>
     <use xlink:href="#DejaVuSans-35" x="127.246094"/>
    </g>
   </g>
   <g id="text_19">
    <!-- HEF9 -->
    <g style="opacity: 0.5" transform="translate(257.086784 143.580556)scale(0.0579 -0.0579)">
     <use xlink:href="#DejaVuSans-48"/>
     <use xlink:href="#DejaVuSans-45" x="75.195312"/>
     <use xlink:href="#DejaVuSans-46" x="138.378906"/>
     <use xlink:href="#DejaVuSans-39" x="195.898438"/>
    </g>
    <!-- 215 -->
    <g style="opacity: 0.5" transform="translate(259.074383 150.06409)scale(0.0579 -0.0579)">
     <use xlink:href="#DejaVuSans-32"/>
     <use xlink:href="#DejaVuSans-31" x="63.623047"/>
     <use xlink:href="#DejaVuSans-35" x="127.246094"/>
    </g>
    <!-- 145 -->
    <g style="opacity: 0.5" transform="translate(259.074383 156.547623)scale(0.0579 -0.0579)">
     <use xlink:href="#DejaVuSans-31"/>
     <use xlink:href="#DejaVuSans-34" x="63.623047"/>
     <use xlink:href="#DejaVuSans-35" x="127.246094"/>
    </g>
   </g>
   <g id="text_20">
    <!-- GED1 -->
    <g transform="translate(213.203949 201.701913)scale(0.0579 -0.0579)">
     <use xlink:href="#DejaVuSans-47"/>
     <use xlink:href="#DejaVuSans-45" x="77.490234"/>
     <use xlink:href="#DejaVuSans-44" x="140.673828"/>
     <use xlink:href="#DejaVuSans-31" x="217.675781"/>
    </g>
    <!-- 215 -->
    <g transform="translate(215.821663 208.185447)scale(0.0579 -0.0579)">
     <use xlink:href="#DejaVuSans-32"/>
     <use xlink:href="#DejaVuSans-31" x="63.623047"/>
     <use xlink:href="#DejaVuSans-35" x="127.246094"/>
    </g>
    <!-- GND -->
    <g transform="translate(214.709349 214.66898)scale(0.0579 -0.0579)">
     <use xlink:href="#DejaVuSans-47"/>
     <use xlink:href="#DejaVuSans-4e" x="77.490234"/>
     <use xlink:href="#DejaVuSans-44" x="152.294922"/>
    </g>
   </g>
   <g id="text_21">
    <!-- GED2 -->
    <g transform="translate(204.377733 210.105648)scale(0.0579 -0.0579)">
     <use xlink:href="#DejaVuSans-47"/>
     <use xlink:href="#DejaVuSans-45" x="77.490234"/>
     <use xlink:href="#DejaVuSans-44" x="140.673828"/>
     <use xlink:href="#DejaVuSans-32" x="217.675781"/>
    </g>
    <!-- 215 -->
    <g transform="translate(206.995446 216.589182)scale(0.0579 -0.0579)">
     <use xlink:href="#DejaVuSans-32"/>
     <use xlink:href="#DejaVuSans-31" x="63.623047"/>
     <use xlink:href="#DejaVuSans-35" x="127.246094"/>
    </g>
    <!-- 105 -->
    <g transform="translate(206.995446 223.072715)scale(0.0579 -0.0579)">
     <use xlink:href="#DejaVuSans-31"/>
     <use xlink:href="#DejaVuSans-30" x="63.623047"/>
     <use xlink:href="#DejaVuSans-35" x="127.246094"/>
    </g>
   </g>
   <g id="text_22">
    <!-- GED3 -->
    <g transform="translate(195.575642 216.954647)scale(0.0579 -0.0579)">
     <use xlink:href="#DejaVuSans-47"/>
     <use xlink:href="#DejaVuSans-45" x="77.490234"/>
     <use xlink:href="#DejaVuSans-44" x="140.673828"/>
     <use xlink:href="#DejaVuSans-33" x="217.675781"/>
    </g>
    <!-- 215 -->
    <g transform="translate(198.193356 223.43818)scale(0.0579 -0.0579)">
     <use xlink:href="#DejaVuSans-32"/>
     <use xlink:href="#DejaVuSans-31" x="63.623047"/>
     <use xlink:href="#DejaVuSans-35" x="127.246094"/>
    </g>
    <!-- 135 -->
    <g transform="translate(198.193356 229.921714)scale(0.0579 -0.0579)">
     <use xlink:href="#DejaVuSans-31"/>
     <use xlink:href="#DejaVuSans-33" x="63.623047"/>
     <use xlink:href="#DejaVuSans-35" x="127.246094"/>
    </g>
   </g>
   <g id="text_23">
    <!-- GED4 -->
    <g transform="translate(255.024325 179.316291)scale(0.0579 -0.0579)">
     <use xlink:href="#DejaVuSans-47"/>
     <use xlink:href="#DejaVuSans-45" x="77.490234"/>
     <use xlink:href="#DejaVuSans-44" x="140.673828"/>
     <use xlink:href="#DejaVuSans-34" x="217.675781"/>
    </g>
    <!-- 245 -->
    <g transform="translate(257.642038 185.799824)scale(0.0579 -0.0579)">
     <use xlink:href="#DejaVuSans-32"/>
     <use xlink:href="#DejaVuSans-34" x="63.623047"/>
     <use xlink:href="#DejaVuSans-35" x="127.246094"/>
    </g>
    <!-- 175 -->
    <g transform="translate(257.642038 192.283358)scale(0.0579 -0.0579)">
     <use xlink:href="#DejaVuSans-31"/>
     <use xlink:href="#DejaVuSans-37" x="63.623047"/>
     <use xlink:href="#DejaVuSans-35" x="127.246094"/>
    </g>
   </g>
   <g id="text_24">
    <!-- GED5 -->
    <g transform="translate(253.567844 148.578565)scale(0.0579 -0.0579)">
     <use xlink:href="#DejaVuSans-47"/>
     <use xlink:href="#DejaVuSans-45" x="77.490234"/>
     <use xlink:href="#DejaVuSans-44" x="140.673828"/>
     <use xlink:href="#DejaVuSans-35" x="217.675781"/>
    </g>
    <!-- 245 -->
    <g transform="translate(256.185558 155.062098)scale(0.0579 -0.0579)">
     <use xlink:href="#DejaVuSans-32"/>
     <use xlink:href="#DejaVuSans-34" x="63.623047"/>
     <use xlink:href="#DejaVuSans-35" x="127.246094"/>
    </g>
    <!-- 215 -->
    <g transform="translate(256.185558 161.545632)scale(0.0579 -0.0579)">
     <use xlink:href="#DejaVuSans-32"/>
     <use xlink:href="#DejaVuSans-31" x="63.623047"/>
     <use xlink:href="#DejaVuSans-35" x="127.246094"/>
    </g>
   </g>
   <g id="text_25">
    <!-- GED6 -->
    <g transform="translate(252.965864 117.011681)scale(0.0579 -0.0579)">
     <use xlink:href="#DejaVuSans-47"/>
     <use xlink:href="#DejaVuSans-45" x="77.490234"/>
     <use xlink:href="#DejaVuSans-44" x="140.673828"/>
     <use xlink:href="#DejaVuSans-36" x="217.675781"/>
    </g>
    <!-- 245 -->
    <g transform="translate(255.583577 123.495215)scale(0.0579 -0.0579)">
     <use xlink:href="#DejaVuSans-32"/>
     <use xlink:href="#DejaVuSans-34" x="63.623047"/>
     <use xlink:href="#DejaVuSans-35" x="127.246094"/>
    </g>
    <!-- 235 -->
    <g transform="translate(255.583577 129.978748)scale(0.0579 -0.0579)">
     <use xlink:href="#DejaVuSans-32"/>
     <use xlink:href="#DejaVuSans-33" x="63.623047"/>
     <use xlink:href="#DejaVuSans-35" x="127.246094"/>
    </g>
   </g>
   <g id="text_26">
    <!-- GED7 -->
    <g transform="translate(242.099306 136.652789)scale(0.0579 -0.0579)">
     <use xlink:href="#DejaVuSans-47"/>
     <use xlink:href="#DejaVuSans-45" x="77.490234"/>
     <use xlink:href="#DejaVuSans-44" x="140.673828"/>
     <use xlink:href="#DejaVuSans-37" x="217.675781"/>
    </g>
    <!-- 255 -->
    <g transform="translate(244.717019 143.136323)scale(0.0579 -0.0579)">
     <use xlink:href="#DejaVuSans-32"/>
     <use xlink:href="#DejaVuSans-35" x="63.623047"/>
     <use xlink:href="#DejaVuSans-35" x="127.246094"/>
    </g>
    <!-- 245 -->
    <g transform="translate(244.717019 149.619856)scale(0.0579 -0.0579)">
     <use xlink:href="#DejaVuSans-32"/>
     <use xlink:href="#DejaVuSans-34" x="63.623047"/>
     <use xlink:href="#DejaVuSans-35" x="127.246094"/>
    </g>
   </g>
  </g>
 </g>
 <defs>
  <clipPath id="pafe66379ee">
   <rect x="125.592067" y="41.472" width="221.135867" height="266.112"/>
  </clipPath>
 </defs>
</svg>
