<?xml version="1.0" encoding="utf-8" standalone="no"?>
<!DOCTYPE svg PUBLIC "-//W3C//DTD SVG 1.1//EN"
  "http://www.w3.org/Graphics/SVG/1.1/DTD/svg11.dtd">
<svg xmlns:xlink="http://www.w3.org/1999/xlink" width="460.8pt" height="345.6pt" viewBox="0 0 460.8 345.6" xmlns="http://www.w3.org/2000/svg" version="1.1">
 <metadata>
  <rdf:RDF xmlns:dc="http://purl.org/dc/elements/1.1/" xmlns:cc="http://creativecommons.org/ns#" xmlns:rdf="http://www.w3.org/1999/02/22-rdf-syntax-ns#">
   <cc:Work>
    <dc:type rdf:resource="http://purl.org/dc/dcmitype/StillImage"/>
    <dc:date>2022-04-24T21:40:21.799616</dc:date>
    <dc:format>image/svg+xml</dc:format>
    <dc:creator>
     <cc:Agent>
      <dc:title>Matplotlib v3.5.0, https://matplotlib.org/</dc:title>
     </cc:Agent>
    </dc:creator>
   </cc:Work>
  </rdf:RDF>
 </metadata>
 <defs>
  <style type="text/css">*{stroke-linejoin: round; stroke-linecap: butt}</style>
 </defs>
 <g id="figure_1">
  <g id="patch_1">
   <path d="M 0 345.6 
L 460.8 345.6 
L 460.8 0 
L 0 0 
z
" style="fill: #ffffff"/>
  </g>
  <g id="axes_1">
   <g id="patch_2">
    <path d="M 249.658151 131.209366 
L 248.198922 162.808654 
L 246.827683 192.634928 
L 246.42303 201.267199 
L 236.252901 204.441687 
L 226.227214 207.509705 
L 224.83816 202.325619 
L 211.185656 177.278837 
L 201.912335 160.302112 
L 198.492129 155.755581 
L 208.525954 155.040315 
L 211.553521 151.868642 
L 216.803001 146.355211 
L 221.395369 138.712699 
L 225.785049 131.399186 
L 228.256498 127.364582 
L 235.372213 131.320987 
z
" clip-path="url(#p68d082c737)" style="fill: #ffedd9; stroke: #ffedd9; stroke-linejoin: miter"/>
   </g>
   <g id="patch_3">
    <path d="M 273.827871 114.048 
L 271.038911 129.397704 
L 270.834913 130.480277 
L 269.448512 137.66994 
L 259.577914 145.344812 
L 248.198922 162.808654 
L 249.658151 131.209366 
L 250.76867 123.394471 
L 252.029886 114.442964 
z
" clip-path="url(#p68d082c737)" style="fill: #ffedd9; stroke: #ffedd9; stroke-linejoin: miter"/>
   </g>
   <g id="patch_4">
    <path d="M 252.029886 114.442964 
L 250.76867 123.394471 
L 249.658151 131.209366 
L 248.198922 162.808654 
L 246.827683 192.634928 
L 246.42303 201.267199 
L 236.252901 204.441687 
L 226.227214 207.509705 
L 224.83816 202.325619 
L 211.185656 177.278837 
L 201.912335 160.302112 
L 198.492129 155.755581 
L 208.525954 155.040315 
L 211.553521 151.868642 
L 216.803001 146.355211 
L 221.395369 138.712699 
L 225.785049 131.399186 
L 230.278496 128.504106 
L 238.888029 122.926625 
z
" clip-path="url(#p68d082c737)" style="fill: #ffedd9; stroke: #ffedd9; stroke-linejoin: miter"/>
   </g>
   <g id="patch_5">
    <path d="M 246.42303 201.267199 
L 245.638789 218.226905 
L 254.990716 220.907556 
L 251.532453 224.804523 
L 246.056105 229.114592 
L 232.425538 230.83397 
L 226.227214 207.509705 
L 236.252901 204.441687 
z
" clip-path="url(#p68d082c737)" style="fill: #ffedd9; stroke: #ffedd9; stroke-linejoin: miter"/>
   </g>
   <g id="patch_6">
    <path d="M 211.185656 177.278837 
L 224.83816 202.325619 
L 226.227214 207.509705 
L 218.141853 210.043219 
L 207.970224 213.184039 
L 203.167705 205.35915 
L 198.64671 198.025935 
L 205.309852 197.717699 
z
" clip-path="url(#p68d082c737)" style="fill: #ffedd9; stroke: #ffedd9; stroke-linejoin: miter"/>
   </g>
   <g id="patch_7">
    <path d="M 252.029886 114.442964 
L 250.76867 123.394471 
L 249.658151 131.209366 
L 235.372213 131.320987 
L 228.256498 127.364582 
L 230.85894 123.050606 
L 235.931137 114.668413 
z
" clip-path="url(#p68d082c737)" style="fill: #ffedd9; stroke: #ffedd9; stroke-linejoin: miter"/>
   </g>
   <g id="patch_8">
    <path d="M 226.227214 207.509705 
L 232.425538 230.83397 
L 229.450062 234.183747 
L 221.376362 235.008 
L 207.970224 213.184039 
L 218.141853 210.043219 
z
" clip-path="url(#p68d082c737)" style="fill: #ffedd9; stroke: #ffedd9; stroke-linejoin: miter"/>
   </g>
   <g id="patch_9">
    <path d="M 203.167705 205.35915 
L 207.970224 213.184039 
L 202.580025 214.872112 
L 198.525944 216.106527 
L 201.83376 210.065383 
z
" clip-path="url(#p68d082c737)" style="fill: #ffedd9; stroke: #ffedd9; stroke-linejoin: miter"/>
   </g>
   <g id="patch_10">
    <path d="M 242.037459 122.885026 
L 250.76867 123.394471 
L 249.658151 131.209366 
L 235.372213 131.320987 
L 228.256498 127.364582 
L 230.85894 123.050606 
z
" clip-path="url(#p68d082c737)" style="fill: #ffedd9; stroke: #ffedd9; stroke-linejoin: miter"/>
   </g>
   <g id="patch_11">
    <path d="M 249.658151 131.209366 
L 248.198922 162.808654 
L 246.827683 192.634928 
L 246.42303 201.267199 
L 236.252901 204.441687 
L 226.227214 207.509705 
L 224.83816 202.325619 
L 211.185656 177.278837 
L 201.912335 160.302112 
L 198.492129 155.755581 
L 208.525954 155.040315 
L 211.553521 151.868642 
L 216.803001 146.355211 
L 221.395369 138.712699 
L 225.785049 131.399186 
L 228.256498 127.364582 
L 235.372213 131.320987 
L 249.658151 131.209366 
z
" clip-path="url(#p68d082c737)" style="fill: #ffedd9; stroke: #ffedd9; stroke-linejoin: miter"/>
   </g>
   <g id="patch_12">
    <path d="M 273.827871 114.048 
L 271.038911 129.397704 
L 270.834913 130.480277 
L 269.448512 137.66994 
L 259.577914 145.344812 
L 248.198922 162.808654 
L 249.658151 131.209366 
L 250.76867 123.394471 
L 252.029886 114.442964 
L 273.827871 114.048 
z
" clip-path="url(#p68d082c737)" style="fill: #ffedd9; stroke: #ffedd9; stroke-linejoin: miter"/>
   </g>
   <g id="patch_13">
    <path d="M 252.029886 114.442964 
L 250.76867 123.394471 
L 249.658151 131.209366 
L 248.198922 162.808654 
L 246.827683 192.634928 
L 246.42303 201.267199 
L 236.252901 204.441687 
L 226.227214 207.509705 
L 224.83816 202.325619 
L 211.185656 177.278837 
L 201.912335 160.302112 
L 198.492129 155.755581 
L 208.525954 155.040315 
L 211.553521 151.868642 
L 216.803001 146.355211 
L 221.395369 138.712699 
L 225.785049 131.399186 
L 230.278496 128.504106 
L 238.888029 122.926625 
L 252.029886 114.442964 
z
" clip-path="url(#p68d082c737)" style="fill: #ffedd9; stroke: #ffedd9; stroke-linejoin: miter"/>
   </g>
   <g id="patch_14">
    <path d="M 246.42303 201.267199 
L 245.638789 218.226905 
L 254.990716 220.907556 
L 251.532453 224.804523 
L 246.056105 229.114592 
L 232.425538 230.83397 
L 226.227214 207.509705 
L 236.252901 204.441687 
L 246.42303 201.267199 
z
" clip-path="url(#p68d082c737)" style="fill: #ffedd9; stroke: #ffedd9; stroke-linejoin: miter"/>
   </g>
   <g id="patch_15">
    <path d="M 211.185656 177.278837 
L 224.83816 202.325619 
L 226.227214 207.509705 
L 218.141853 210.043219 
L 207.970224 213.184039 
L 203.167705 205.35915 
L 198.64671 198.025935 
L 205.309852 197.717699 
L 211.185656 177.278837 
z
" clip-path="url(#p68d082c737)" style="fill: #ffedd9; stroke: #ffedd9; stroke-linejoin: miter"/>
   </g>
   <g id="patch_16">
    <path d="M 252.029886 114.442964 
L 250.76867 123.394471 
L 249.658151 131.209366 
L 235.372213 131.320987 
L 228.256498 127.364582 
L 230.85894 123.050606 
L 235.931137 114.668413 
L 252.029886 114.442964 
z
" clip-path="url(#p68d082c737)" style="fill: #ffedd9; stroke: #ffedd9; stroke-linejoin: miter"/>
   </g>
   <g id="patch_17">
    <path d="M 226.227214 207.509705 
L 232.425538 230.83397 
L 229.450062 234.183747 
L 221.376362 235.008 
L 207.970224 213.184039 
L 218.141853 210.043219 
L 226.227214 207.509705 
z
" clip-path="url(#p68d082c737)" style="fill: #ffedd9; stroke: #ffedd9; stroke-linejoin: miter"/>
   </g>
   <g id="patch_18">
    <path d="M 203.167705 205.35915 
L 207.970224 213.184039 
L 202.580025 214.872112 
L 198.525944 216.106527 
L 201.83376 210.065383 
L 203.167705 205.35915 
z
" clip-path="url(#p68d082c737)" style="fill: #ffedd9; stroke: #ffedd9; stroke-linejoin: miter"/>
   </g>
   <g id="patch_19">
    <path d="M 242.037459 122.885026 
L 250.76867 123.394471 
L 249.658151 131.209366 
L 235.372213 131.320987 
L 228.256498 127.364582 
L 230.85894 123.050606 
L 242.037459 122.885026 
z
" clip-path="url(#p68d082c737)" style="fill: #ffedd9; stroke: #ffedd9; stroke-linejoin: miter"/>
   </g>
   <g id="line2d_1">
    <path d="M 249.658151 131.209366 
L 248.198922 162.808654 
L 246.827683 192.634928 
L 246.42303 201.267199 
L 236.252901 204.441687 
L 226.227214 207.509705 
L 224.83816 202.325619 
L 211.185656 177.278837 
L 201.912335 160.302112 
L 198.492129 155.755581 
L 208.525954 155.040315 
L 211.553521 151.868642 
L 216.803001 146.355211 
L 221.395369 138.712699 
L 225.785049 131.399186 
L 228.256498 127.364582 
L 235.372213 131.320987 
L 249.658151 131.209366 
" clip-path="url(#p68d082c737)" style="fill: none; stroke: #ffc380; stroke-width: 0.5; stroke-linecap: square"/>
   </g>
   <g id="line2d_2">
    <path d="M 273.827871 114.048 
L 271.038911 129.397704 
L 270.834913 130.480277 
L 269.448512 137.66994 
L 259.577914 145.344812 
L 248.198922 162.808654 
L 249.658151 131.209366 
L 250.76867 123.394471 
L 252.029886 114.442964 
L 273.827871 114.048 
" clip-path="url(#p68d082c737)" style="fill: none; stroke: #ffc380; stroke-width: 0.5; stroke-linecap: square"/>
   </g>
   <g id="line2d_3">
    <path d="M 252.029886 114.442964 
L 250.76867 123.394471 
L 249.658151 131.209366 
L 248.198922 162.808654 
L 246.827683 192.634928 
L 246.42303 201.267199 
L 236.252901 204.441687 
L 226.227214 207.509705 
L 224.83816 202.325619 
L 211.185656 177.278837 
L 201.912335 160.302112 
L 198.492129 155.755581 
L 208.525954 155.040315 
L 211.553521 151.868642 
L 216.803001 146.355211 
L 221.395369 138.712699 
L 225.785049 131.399186 
L 230.278496 128.504106 
L 238.888029 122.926625 
L 252.029886 114.442964 
" clip-path="url(#p68d082c737)" style="fill: none; stroke: #ffc380; stroke-width: 0.5; stroke-linecap: square"/>
   </g>
   <g id="line2d_4">
    <path d="M 246.42303 201.267199 
L 245.638789 218.226905 
L 254.990716 220.907556 
L 251.532453 224.804523 
L 246.056105 229.114592 
L 232.425538 230.83397 
L 226.227214 207.509705 
L 236.252901 204.441687 
L 246.42303 201.267199 
" clip-path="url(#p68d082c737)" style="fill: none; stroke: #ffc380; stroke-width: 0.5; stroke-linecap: square"/>
   </g>
   <g id="line2d_5">
    <path d="M 211.185656 177.278837 
L 224.83816 202.325619 
L 226.227214 207.509705 
L 218.141853 210.043219 
L 207.970224 213.184039 
L 203.167705 205.35915 
L 198.64671 198.025935 
L 205.309852 197.717699 
L 211.185656 177.278837 
" clip-path="url(#p68d082c737)" style="fill: none; stroke: #ffc380; stroke-width: 0.5; stroke-linecap: square"/>
   </g>
   <g id="line2d_6">
    <path d="M 252.029886 114.442964 
L 250.76867 123.394471 
L 249.658151 131.209366 
L 235.372213 131.320987 
L 228.256498 127.364582 
L 230.85894 123.050606 
L 235.931137 114.668413 
L 252.029886 114.442964 
" clip-path="url(#p68d082c737)" style="fill: none; stroke: #ffc380; stroke-width: 0.5; stroke-linecap: square"/>
   </g>
   <g id="line2d_7">
    <path d="M 226.227214 207.509705 
L 232.425538 230.83397 
L 229.450062 234.183747 
L 221.376362 235.008 
L 207.970224 213.184039 
L 218.141853 210.043219 
L 226.227214 207.509705 
" clip-path="url(#p68d082c737)" style="fill: none; stroke: #ffc380; stroke-width: 0.5; stroke-linecap: square"/>
   </g>
   <g id="line2d_8">
    <path d="M 203.167705 205.35915 
L 207.970224 213.184039 
L 202.580025 214.872112 
L 198.525944 216.106527 
L 201.83376 210.065383 
L 203.167705 205.35915 
" clip-path="url(#p68d082c737)" style="fill: none; stroke: #ffc380; stroke-width: 0.5; stroke-linecap: square"/>
   </g>
   <g id="line2d_9">
    <path d="M 242.037459 122.885026 
L 250.76867 123.394471 
L 249.658151 131.209366 
L 235.372213 131.320987 
L 228.256498 127.364582 
L 230.85894 123.050606 
L 242.037459 122.885026 
" clip-path="url(#p68d082c737)" style="fill: none; stroke: #ffc380; stroke-width: 0.5; stroke-linecap: square"/>
   </g>
   <g id="line2d_10">
    <path d="M 282.609881 60.919285 
L 277.938596 113.96195 
L 273.827871 114.048 
L 252.029886 114.442964 
L 235.931137 114.668413 
L 235.812275 113.42556 
L 235.190808 106.32669 
L 234.413341 97.570399 
L 232.985951 81.521136 
L 245.350311 81.35935 
L 259.190055 81.193812 
L 282.609881 60.919285 
" clip-path="url(#p68d082c737)" style="fill: none; stroke: #8f8f8f; stroke-width: 0.2; stroke-linecap: square"/>
   </g>
   <g id="line2d_11">
    <path d="M 235.931137 114.668413 
L 252.029886 114.442964 
L 238.888029 122.926625 
L 230.278496 128.504106 
L 225.785049 131.399186 
L 228.256498 127.364582 
L 230.85894 123.050606 
L 235.931137 114.668413 
" clip-path="url(#p68d082c737)" style="fill: none; stroke: #8f8f8f; stroke-width: 0.2; stroke-linecap: square"/>
   </g>
   <g id="line2d_12">
    <path d="M 242.037459 122.885026 
L 250.76867 123.394471 
L 253.211981 123.549673 
L 271.038911 129.397704 
L 273.989045 130.389275 
L 270.834913 130.480277 
L 249.658151 131.209366 
L 235.372213 131.320987 
L 228.256498 127.364582 
L 230.85894 123.050606 
L 242.037459 122.885026 
" clip-path="url(#p68d082c737)" style="fill: none; stroke: #8f8f8f; stroke-width: 0.2; stroke-linecap: square"/>
   </g>
   <g id="line2d_13">
    <path d="M 282.609881 60.919285 
L 277.938596 113.96195 
L 273.827871 114.048 
L 252.029886 114.442964 
L 235.931137 114.668413 
L 235.812275 113.42556 
L 235.190808 106.32669 
L 245.350311 81.35935 
L 259.190055 81.193812 
L 282.609881 60.919285 
" clip-path="url(#p68d082c737)" style="fill: none; stroke: #8f8f8f; stroke-width: 0.2; stroke-linecap: square"/>
   </g>
   <g id="line2d_14">
    <path d="M 307.54028 113.206219 
L 307.707777 121.721625 
L 287.759833 134.899937 
L 273.989045 130.389275 
L 271.038911 129.397704 
L 253.211981 123.549673 
L 250.76867 123.394471 
L 242.037459 122.885026 
L 230.85894 123.050606 
L 235.931137 114.668413 
L 252.029886 114.442964 
L 273.827871 114.048 
L 277.938596 113.96195 
L 299.87304 113.440734 
L 307.54028 113.206219 
" clip-path="url(#p68d082c737)" style="fill: none; stroke: #8f8f8f; stroke-width: 0.2; stroke-linecap: square"/>
   </g>
   <g id="line2d_15">
    <path d="M 301.711848 167.827196 
L 318.445905 198.00931 
L 291.464451 217.311285 
L 282.630699 218.119962 
L 280.325553 204.481043 
L 279.822463 201.532819 
L 273.530954 195.938206 
L 266.218613 195.138236 
L 246.42303 201.267199 
L 246.827683 192.634928 
L 301.711848 167.827196 
" clip-path="url(#p68d082c737)" style="fill: none; stroke: #8f8f8f; stroke-width: 0.2; stroke-linecap: square"/>
   </g>
   <g id="line2d_16">
    <path d="M 266.218613 195.138236 
L 268.575491 208.256545 
L 280.325553 204.481043 
L 282.630699 218.119962 
L 271.124265 222.476264 
L 254.990716 220.907556 
L 245.638789 218.226905 
L 246.42303 201.267199 
L 266.218613 195.138236 
" clip-path="url(#p68d082c737)" style="fill: none; stroke: #8f8f8f; stroke-width: 0.2; stroke-linecap: square"/>
   </g>
   <g id="line2d_17">
    <path d="M 254.990716 220.907556 
L 271.124265 222.476264 
L 282.630699 218.119962 
L 287.794633 248.728991 
L 275.325368 245.897862 
L 259.060827 246.666201 
L 249.648447 247.090018 
L 246.056105 229.114592 
L 251.532453 224.804523 
L 254.990716 220.907556 
" clip-path="url(#p68d082c737)" style="fill: none; stroke: #8f8f8f; stroke-width: 0.2; stroke-linecap: square"/>
   </g>
   <g id="line2d_18">
    <path d="M 307.707777 121.721625 
L 307.974396 136.955926 
L 308.457799 163.248066 
L 301.711848 167.827196 
L 246.827683 192.634928 
L 248.198922 162.808654 
L 259.577914 145.344812 
L 269.448512 137.66994 
L 270.834913 130.480277 
L 273.989045 130.389275 
L 287.759833 134.899937 
L 307.707777 121.721625 
" clip-path="url(#p68d082c737)" style="fill: none; stroke: #8f8f8f; stroke-width: 0.2; stroke-linecap: square"/>
   </g>
   <g id="line2d_19">
    <path d="M 301.711848 167.827196 
L 318.445905 198.00931 
L 291.464451 217.311285 
L 282.630699 218.119962 
L 271.124265 222.476264 
L 254.990716 220.907556 
L 245.638789 218.226905 
L 246.42303 201.267199 
L 246.827683 192.634928 
L 301.711848 167.827196 
" clip-path="url(#p68d082c737)" style="fill: none; stroke: #8f8f8f; stroke-width: 0.2; stroke-linecap: square"/>
   </g>
   <g id="line2d_20">
    <path d="M 270.834913 130.480277 
L 269.448512 137.66994 
L 259.577914 145.344812 
L 248.198922 162.808654 
L 249.658151 131.209366 
L 270.834913 130.480277 
" clip-path="url(#p68d082c737)" style="fill: none; stroke: #8f8f8f; stroke-width: 0.2; stroke-linecap: square"/>
   </g>
   <g id="line2d_21">
    <path d="M 250.76867 123.394471 
L 253.211981 123.549673 
L 271.038911 129.397704 
L 273.989045 130.389275 
L 270.834913 130.480277 
L 249.658151 131.209366 
L 250.76867 123.394471 
" clip-path="url(#p68d082c737)" style="fill: none; stroke: #8f8f8f; stroke-width: 0.2; stroke-linecap: square"/>
   </g>
   <g id="line2d_22">
    <path d="M 273.827871 114.048 
L 271.038911 129.397704 
L 270.834913 130.480277 
L 249.658151 131.209366 
L 250.76867 123.394471 
L 252.029886 114.442964 
L 273.827871 114.048 
" clip-path="url(#p68d082c737)" style="fill: none; stroke: #8f8f8f; stroke-width: 0.2; stroke-linecap: square"/>
   </g>
   <g id="line2d_23">
    <path d="M 307.54028 113.206219 
L 307.707777 121.721625 
L 287.759833 134.899937 
L 273.989045 130.389275 
L 270.834913 130.480277 
L 271.038911 129.397704 
L 273.827871 114.048 
L 277.938596 113.96195 
L 299.87304 113.440734 
L 307.54028 113.206219 
" clip-path="url(#p68d082c737)" style="fill: none; stroke: #8f8f8f; stroke-width: 0.2; stroke-linecap: square"/>
   </g>
   <g id="line2d_24">
    <path d="M 246.056105 229.114592 
L 249.648447 247.090018 
L 228.690134 255.092594 
L 214.561635 260.469484 
L 210.687563 259.307464 
L 204.317616 257.271254 
L 201.229445 236.027126 
L 211.38679 235.997628 
L 221.376362 235.008 
L 229.450062 234.183747 
L 232.425538 230.83397 
L 246.056105 229.114592 
" clip-path="url(#p68d082c737)" style="fill: none; stroke: #8f8f8f; stroke-width: 0.2; stroke-linecap: square"/>
   </g>
   <g id="line2d_25">
    <path d="M 246.056105 229.114592 
L 249.648447 247.090018 
L 251.975666 254.078175 
L 251.62847 261.769839 
L 251.09471 273.832789 
L 250.961916 276.931453 
L 241.288147 275.572095 
L 229.493943 277.671768 
L 211.103961 279.347853 
L 207.671392 279.673221 
L 204.317616 257.271254 
L 201.229445 236.027126 
L 211.38679 235.997628 
L 221.376362 235.008 
L 229.450062 234.183747 
L 232.425538 230.83397 
L 246.056105 229.114592 
" clip-path="url(#p68d082c737)" style="fill: none; stroke: #8f8f8f; stroke-width: 0.2; stroke-linecap: square"/>
   </g>
   <g id="line2d_26">
    <path d="M 232.734408 60.092293 
L 232.839944 69.078733 
L 232.985951 81.521136 
L 234.413341 97.570399 
L 235.190808 106.32669 
L 235.812275 113.42556 
L 235.931137 114.668413 
L 230.85894 123.050606 
L 228.256498 127.364582 
L 225.785049 131.399186 
L 221.395369 138.712699 
L 216.803001 146.355211 
L 211.553521 151.868642 
L 208.525954 155.040315 
L 198.492129 155.755581 
L 183.802033 156.842925 
L 180.663269 152.255443 
L 211.777701 134.061789 
L 195.181165 119.936677 
L 168.809198 135.019185 
L 158.113796 110.5686 
L 153.666896 100.343081 
L 199.48829 76.813841 
L 232.734408 60.092293 
" clip-path="url(#p68d082c737)" style="fill: none; stroke: #8f8f8f; stroke-width: 0.2; stroke-linecap: square"/>
   </g>
   <g id="line2d_27">
    <path d="M 232.734408 60.092293 
L 232.839944 69.078733 
L 232.985951 81.521136 
L 234.413341 97.570399 
L 235.190808 106.32669 
L 235.812275 113.42556 
L 235.931137 114.668413 
L 230.85894 123.050606 
L 228.256498 127.364582 
L 225.785049 131.399186 
L 221.395369 138.712699 
L 216.803001 146.355211 
L 211.553521 151.868642 
L 208.525954 155.040315 
L 198.492129 155.755581 
L 187.974505 160.375942 
L 183.802033 156.842925 
L 180.663269 152.255443 
L 211.777701 134.061789 
L 195.181165 119.936677 
L 168.809198 135.019185 
L 158.113796 110.5686 
L 153.666896 100.343081 
L 199.48829 76.813841 
L 232.734408 60.092293 
" clip-path="url(#p68d082c737)" style="fill: none; stroke: #8f8f8f; stroke-width: 0.2; stroke-linecap: square"/>
   </g>
   <g id="line2d_28">
    <path d="M 198.492129 155.755581 
L 201.912335 160.302112 
L 211.185656 177.278837 
L 205.309852 197.717699 
L 198.64671 198.025935 
L 194.934018 191.985183 
L 181.821768 170.584535 
L 177.942565 164.80683 
L 187.974505 160.375942 
L 198.492129 155.755581 
" clip-path="url(#p68d082c737)" style="fill: none; stroke: #8f8f8f; stroke-width: 0.2; stroke-linecap: square"/>
   </g>
   <g id="line2d_29">
    <path d="M 211.185656 177.278837 
L 224.83816 202.325619 
L 226.227214 207.509705 
L 232.425538 230.83397 
L 229.450062 234.183747 
L 221.376362 235.008 
L 207.970224 213.184039 
L 203.167705 205.35915 
L 198.64671 198.025935 
L 205.309852 197.717699 
L 211.185656 177.278837 
" clip-path="url(#p68d082c737)" style="fill: none; stroke: #8f8f8f; stroke-width: 0.2; stroke-linecap: square"/>
   </g>
   <g id="line2d_30">
    <path d="M 169.568171 178.094337 
L 184.226257 197.260771 
L 194.934018 191.985183 
L 198.64671 198.025935 
L 203.167705 205.35915 
L 201.83376 210.065383 
L 198.525944 216.106527 
L 192.211703 218.090486 
L 171.309254 224.569458 
L 160.95172 227.774853 
L 159.108889 228.347868 
L 156.502937 221.922289 
L 151.989578 210.840075 
L 161.561599 206.905042 
L 154.131001 189.730647 
L 152.94762 187.899484 
L 161.599684 182.991718 
L 161.898398 182.799324 
L 169.568171 178.094337 
" clip-path="url(#p68d082c737)" style="fill: none; stroke: #8f8f8f; stroke-width: 0.2; stroke-linecap: square"/>
   </g>
   <g id="line2d_31">
    <path d="M 203.167705 205.35915 
L 207.970224 213.184039 
L 198.525944 216.106527 
L 201.83376 210.065383 
L 203.167705 205.35915 
" clip-path="url(#p68d082c737)" style="fill: none; stroke: #8f8f8f; stroke-width: 0.2; stroke-linecap: square"/>
   </g>
   <g id="line2d_32">
    <path d="M 207.970224 213.184039 
L 221.376362 235.008 
L 211.38679 235.997628 
L 201.229445 236.027126 
L 187.59784 236.069815 
L 179.603207 236.104369 
L 174.499977 234.166635 
L 159.108889 228.347868 
L 160.95172 227.774853 
L 171.309254 224.569458 
L 192.211703 218.090486 
L 198.525944 216.106527 
L 207.970224 213.184039 
" clip-path="url(#p68d082c737)" style="fill: none; stroke: #8f8f8f; stroke-width: 0.2; stroke-linecap: square"/>
   </g>
   <g id="line2d_33">
    <path d="M 249.658151 131.209366 
L 248.198922 162.808654 
L 246.827683 192.634928 
L 246.42303 201.267199 
L 236.252901 204.441687 
L 226.227214 207.509705 
L 224.83816 202.325619 
L 211.185656 177.278837 
L 201.912335 160.302112 
L 198.492129 155.755581 
L 208.525954 155.040315 
L 211.553521 151.868642 
L 216.803001 146.355211 
L 221.395369 138.712699 
L 225.785049 131.399186 
L 228.256498 127.364582 
L 235.372213 131.320987 
L 249.658151 131.209366 
L 249.658151 131.209366 
" clip-path="url(#p68d082c737)" style="fill: none; stroke: #ffc380; stroke-width: 0.5; stroke-linecap: square"/>
   </g>
   <g id="line2d_34">
    <path d="M 273.827871 114.048 
L 271.038911 129.397704 
L 270.834913 130.480277 
L 269.448512 137.66994 
L 259.577914 145.344812 
L 248.198922 162.808654 
L 249.658151 131.209366 
L 250.76867 123.394471 
L 252.029886 114.442964 
L 273.827871 114.048 
L 273.827871 114.048 
" clip-path="url(#p68d082c737)" style="fill: none; stroke: #ffc380; stroke-width: 0.5; stroke-linecap: square"/>
   </g>
   <g id="line2d_35">
    <path d="M 252.029886 114.442964 
L 250.76867 123.394471 
L 249.658151 131.209366 
L 248.198922 162.808654 
L 246.827683 192.634928 
L 246.42303 201.267199 
L 236.252901 204.441687 
L 226.227214 207.509705 
L 224.83816 202.325619 
L 211.185656 177.278837 
L 201.912335 160.302112 
L 198.492129 155.755581 
L 208.525954 155.040315 
L 211.553521 151.868642 
L 216.803001 146.355211 
L 221.395369 138.712699 
L 225.785049 131.399186 
L 230.278496 128.504106 
L 238.888029 122.926625 
L 252.029886 114.442964 
L 252.029886 114.442964 
" clip-path="url(#p68d082c737)" style="fill: none; stroke: #ffc380; stroke-width: 0.5; stroke-linecap: square"/>
   </g>
   <g id="line2d_36">
    <path d="M 246.42303 201.267199 
L 245.638789 218.226905 
L 254.990716 220.907556 
L 251.532453 224.804523 
L 246.056105 229.114592 
L 232.425538 230.83397 
L 226.227214 207.509705 
L 236.252901 204.441687 
L 246.42303 201.267199 
L 246.42303 201.267199 
" clip-path="url(#p68d082c737)" style="fill: none; stroke: #ffc380; stroke-width: 0.5; stroke-linecap: square"/>
   </g>
   <g id="line2d_37">
    <path d="M 211.185656 177.278837 
L 224.83816 202.325619 
L 226.227214 207.509705 
L 218.141853 210.043219 
L 207.970224 213.184039 
L 203.167705 205.35915 
L 198.64671 198.025935 
L 205.309852 197.717699 
L 211.185656 177.278837 
L 211.185656 177.278837 
" clip-path="url(#p68d082c737)" style="fill: none; stroke: #ffc380; stroke-width: 0.5; stroke-linecap: square"/>
   </g>
   <g id="line2d_38">
    <path d="M 252.029886 114.442964 
L 250.76867 123.394471 
L 249.658151 131.209366 
L 235.372213 131.320987 
L 228.256498 127.364582 
L 230.85894 123.050606 
L 235.931137 114.668413 
L 252.029886 114.442964 
L 252.029886 114.442964 
" clip-path="url(#p68d082c737)" style="fill: none; stroke: #ffc380; stroke-width: 0.5; stroke-linecap: square"/>
   </g>
   <g id="line2d_39">
    <path d="M 226.227214 207.509705 
L 232.425538 230.83397 
L 229.450062 234.183747 
L 221.376362 235.008 
L 207.970224 213.184039 
L 218.141853 210.043219 
L 226.227214 207.509705 
L 226.227214 207.509705 
" clip-path="url(#p68d082c737)" style="fill: none; stroke: #ffc380; stroke-width: 0.5; stroke-linecap: square"/>
   </g>
   <g id="line2d_40">
    <path d="M 203.167705 205.35915 
L 207.970224 213.184039 
L 202.580025 214.872112 
L 198.525944 216.106527 
L 201.83376 210.065383 
L 203.167705 205.35915 
L 203.167705 205.35915 
" clip-path="url(#p68d082c737)" style="fill: none; stroke: #ffc380; stroke-width: 0.5; stroke-linecap: square"/>
   </g>
   <g id="line2d_41">
    <path d="M 242.037459 122.885026 
L 250.76867 123.394471 
L 249.658151 131.209366 
L 235.372213 131.320987 
L 228.256498 127.364582 
L 230.85894 123.050606 
L 242.037459 122.885026 
L 242.037459 122.885026 
" clip-path="url(#p68d082c737)" style="fill: none; stroke: #ffc380; stroke-width: 0.5; stroke-linecap: square"/>
   </g>
   <g id="text_1">
    <!-- EDWWDST3 -->
    <g style="opacity: 0.5" transform="translate(240.337448 82.907994)scale(0.0579 -0.0579)">
     <defs>
      <path id="DejaVuSans-45" d="M 628 4666 
L 3578 4666 
L 3578 4134 
L 1259 4134 
L 1259 2753 
L 3481 2753 
L 3481 2222 
L 1259 2222 
L 1259 531 
L 3634 531 
L 3634 0 
L 628 0 
L 628 4666 
z
" transform="scale(0.015625)"/>
      <path id="DejaVuSans-44" d="M 1259 4147 
L 1259 519 
L 2022 519 
Q 2988 519 3436 956 
Q 3884 1394 3884 2338 
Q 3884 3275 3436 3711 
Q 2988 4147 2022 4147 
L 1259 4147 
z
M 628 4666 
L 1925 4666 
Q 3281 4666 3915 4102 
Q 4550 3538 4550 2338 
Q 4550 1131 3912 565 
Q 3275 0 1925 0 
L 628 0 
L 628 4666 
z
" transform="scale(0.015625)"/>
      <path id="DejaVuSans-57" d="M 213 4666 
L 850 4666 
L 1831 722 
L 2809 4666 
L 3519 4666 
L 4500 722 
L 5478 4666 
L 6119 4666 
L 4947 0 
L 4153 0 
L 3169 4050 
L 2175 0 
L 1381 0 
L 213 4666 
z
" transform="scale(0.015625)"/>
      <path id="DejaVuSans-53" d="M 3425 4513 
L 3425 3897 
Q 3066 4069 2747 4153 
Q 2428 4238 2131 4238 
Q 1616 4238 1336 4038 
Q 1056 3838 1056 3469 
Q 1056 3159 1242 3001 
Q 1428 2844 1947 2747 
L 2328 2669 
Q 3034 2534 3370 2195 
Q 3706 1856 3706 1288 
Q 3706 609 3251 259 
Q 2797 -91 1919 -91 
Q 1588 -91 1214 -16 
Q 841 59 441 206 
L 441 856 
Q 825 641 1194 531 
Q 1563 422 1919 422 
Q 2459 422 2753 634 
Q 3047 847 3047 1241 
Q 3047 1584 2836 1778 
Q 2625 1972 2144 2069 
L 1759 2144 
Q 1053 2284 737 2584 
Q 422 2884 422 3419 
Q 422 4038 858 4394 
Q 1294 4750 2059 4750 
Q 2388 4750 2728 4690 
Q 3069 4631 3425 4513 
z
" transform="scale(0.015625)"/>
      <path id="DejaVuSans-54" d="M -19 4666 
L 3928 4666 
L 3928 4134 
L 2272 4134 
L 2272 0 
L 1638 0 
L 1638 4134 
L -19 4134 
L -19 4666 
z
" transform="scale(0.015625)"/>
      <path id="DejaVuSans-33" d="M 2597 2516 
Q 3050 2419 3304 2112 
Q 3559 1806 3559 1356 
Q 3559 666 3084 287 
Q 2609 -91 1734 -91 
Q 1441 -91 1130 -33 
Q 819 25 488 141 
L 488 750 
Q 750 597 1062 519 
Q 1375 441 1716 441 
Q 2309 441 2620 675 
Q 2931 909 2931 1356 
Q 2931 1769 2642 2001 
Q 2353 2234 1838 2234 
L 1294 2234 
L 1294 2753 
L 1863 2753 
Q 2328 2753 2575 2939 
Q 2822 3125 2822 3475 
Q 2822 3834 2567 4026 
Q 2313 4219 1838 4219 
Q 1578 4219 1281 4162 
Q 984 4106 628 3988 
L 628 4550 
Q 988 4650 1302 4700 
Q 1616 4750 1894 4750 
Q 2613 4750 3031 4423 
Q 3450 4097 3450 3541 
Q 3450 3153 3228 2886 
Q 3006 2619 2597 2516 
z
" transform="scale(0.015625)"/>
     </defs>
     <use xlink:href="#DejaVuSans-45"/>
     <use xlink:href="#DejaVuSans-44" x="63.183594"/>
     <use xlink:href="#DejaVuSans-57" x="140.185547"/>
     <use xlink:href="#DejaVuSans-57" x="239.0625"/>
     <use xlink:href="#DejaVuSans-44" x="337.939453"/>
     <use xlink:href="#DejaVuSans-53" x="414.941406"/>
     <use xlink:href="#DejaVuSans-54" x="478.417969"/>
     <use xlink:href="#DejaVuSans-33" x="539.501953"/>
    </g>
    <!-- 245 -->
    <g style="opacity: 0.5" transform="translate(252.272085 89.391527)scale(0.0579 -0.0579)">
     <defs>
      <path id="DejaVuSans-32" d="M 1228 531 
L 3431 531 
L 3431 0 
L 469 0 
L 469 531 
Q 828 903 1448 1529 
Q 2069 2156 2228 2338 
Q 2531 2678 2651 2914 
Q 2772 3150 2772 3378 
Q 2772 3750 2511 3984 
Q 2250 4219 1831 4219 
Q 1534 4219 1204 4116 
Q 875 4013 500 3803 
L 500 4441 
Q 881 4594 1212 4672 
Q 1544 4750 1819 4750 
Q 2544 4750 2975 4387 
Q 3406 4025 3406 3419 
Q 3406 3131 3298 2873 
Q 3191 2616 2906 2266 
Q 2828 2175 2409 1742 
Q 1991 1309 1228 531 
z
" transform="scale(0.015625)"/>
      <path id="DejaVuSans-34" d="M 2419 4116 
L 825 1625 
L 2419 1625 
L 2419 4116 
z
M 2253 4666 
L 3047 4666 
L 3047 1625 
L 3713 1625 
L 3713 1100 
L 3047 1100 
L 3047 0 
L 2419 0 
L 2419 1100 
L 313 1100 
L 313 1709 
L 2253 4666 
z
" transform="scale(0.015625)"/>
      <path id="DejaVuSans-35" d="M 691 4666 
L 3169 4666 
L 3169 4134 
L 1269 4134 
L 1269 2991 
Q 1406 3038 1543 3061 
Q 1681 3084 1819 3084 
Q 2600 3084 3056 2656 
Q 3513 2228 3513 1497 
Q 3513 744 3044 326 
Q 2575 -91 1722 -91 
Q 1428 -91 1123 -41 
Q 819 9 494 109 
L 494 744 
Q 775 591 1075 516 
Q 1375 441 1709 441 
Q 2250 441 2565 725 
Q 2881 1009 2881 1497 
Q 2881 1984 2565 2268 
Q 2250 2553 1709 2553 
Q 1456 2553 1204 2497 
Q 953 2441 691 2322 
L 691 4666 
z
" transform="scale(0.015625)"/>
     </defs>
     <use xlink:href="#DejaVuSans-32"/>
     <use xlink:href="#DejaVuSans-34" x="63.623047"/>
     <use xlink:href="#DejaVuSans-35" x="127.246094"/>
    </g>
    <!-- 155 -->
    <g style="opacity: 0.5" transform="translate(252.272085 95.875061)scale(0.0579 -0.0579)">
     <defs>
      <path id="DejaVuSans-31" d="M 794 531 
L 1825 531 
L 1825 4091 
L 703 3866 
L 703 4441 
L 1819 4666 
L 2450 4666 
L 2450 531 
L 3481 531 
L 3481 0 
L 794 0 
L 794 531 
z
" transform="scale(0.015625)"/>
     </defs>
     <use xlink:href="#DejaVuSans-31"/>
     <use xlink:href="#DejaVuSans-35" x="63.623047"/>
     <use xlink:href="#DejaVuSans-35" x="127.246094"/>
    </g>
   </g>
   <g id="text_2">
    <!-- EDWWDST4 -->
    <g style="opacity: 0.5" transform="translate(221.446999 118.03522)scale(0.0579 -0.0579)">
     <use xlink:href="#DejaVuSans-45"/>
     <use xlink:href="#DejaVuSans-44" x="63.183594"/>
     <use xlink:href="#DejaVuSans-57" x="140.185547"/>
     <use xlink:href="#DejaVuSans-57" x="239.0625"/>
     <use xlink:href="#DejaVuSans-44" x="337.939453"/>
     <use xlink:href="#DejaVuSans-53" x="414.941406"/>
     <use xlink:href="#DejaVuSans-54" x="478.417969"/>
     <use xlink:href="#DejaVuSans-34" x="539.501953"/>
    </g>
    <!-- 245 -->
    <g style="opacity: 0.5" transform="translate(233.381636 124.518753)scale(0.0579 -0.0579)">
     <use xlink:href="#DejaVuSans-32"/>
     <use xlink:href="#DejaVuSans-34" x="63.623047"/>
     <use xlink:href="#DejaVuSans-35" x="127.246094"/>
    </g>
    <!-- 205 -->
    <g style="opacity: 0.5" transform="translate(233.381636 131.002287)scale(0.0579 -0.0579)">
     <defs>
      <path id="DejaVuSans-30" d="M 2034 4250 
Q 1547 4250 1301 3770 
Q 1056 3291 1056 2328 
Q 1056 1369 1301 889 
Q 1547 409 2034 409 
Q 2525 409 2770 889 
Q 3016 1369 3016 2328 
Q 3016 3291 2770 3770 
Q 2525 4250 2034 4250 
z
M 2034 4750 
Q 2819 4750 3233 4129 
Q 3647 3509 3647 2328 
Q 3647 1150 3233 529 
Q 2819 -91 2034 -91 
Q 1250 -91 836 529 
Q 422 1150 422 2328 
Q 422 3509 836 4129 
Q 1250 4750 2034 4750 
z
" transform="scale(0.015625)"/>
     </defs>
     <use xlink:href="#DejaVuSans-32"/>
     <use xlink:href="#DejaVuSans-30" x="63.623047"/>
     <use xlink:href="#DejaVuSans-35" x="127.246094"/>
    </g>
   </g>
   <g id="text_3">
    <!-- EDWWHRZ11 -->
    <g style="opacity: 0.5" transform="translate(231.483815 122.217151)scale(0.0579 -0.0579)">
     <defs>
      <path id="DejaVuSans-48" d="M 628 4666 
L 1259 4666 
L 1259 2753 
L 3553 2753 
L 3553 4666 
L 4184 4666 
L 4184 0 
L 3553 0 
L 3553 2222 
L 1259 2222 
L 1259 0 
L 628 0 
L 628 4666 
z
" transform="scale(0.015625)"/>
      <path id="DejaVuSans-52" d="M 2841 2188 
Q 3044 2119 3236 1894 
Q 3428 1669 3622 1275 
L 4263 0 
L 3584 0 
L 2988 1197 
Q 2756 1666 2539 1819 
Q 2322 1972 1947 1972 
L 1259 1972 
L 1259 0 
L 628 0 
L 628 4666 
L 2053 4666 
Q 2853 4666 3247 4331 
Q 3641 3997 3641 3322 
Q 3641 2881 3436 2590 
Q 3231 2300 2841 2188 
z
M 1259 4147 
L 1259 2491 
L 2053 2491 
Q 2509 2491 2742 2702 
Q 2975 2913 2975 3322 
Q 2975 3731 2742 3939 
Q 2509 4147 2053 4147 
L 1259 4147 
z
" transform="scale(0.015625)"/>
      <path id="DejaVuSans-5a" d="M 359 4666 
L 4025 4666 
L 4025 4184 
L 1075 531 
L 4097 531 
L 4097 0 
L 288 0 
L 288 481 
L 3238 4134 
L 359 4134 
L 359 4666 
z
" transform="scale(0.015625)"/>
     </defs>
     <use xlink:href="#DejaVuSans-45"/>
     <use xlink:href="#DejaVuSans-44" x="63.183594"/>
     <use xlink:href="#DejaVuSans-57" x="140.185547"/>
     <use xlink:href="#DejaVuSans-57" x="239.0625"/>
     <use xlink:href="#DejaVuSans-48" x="337.939453"/>
     <use xlink:href="#DejaVuSans-52" x="413.134766"/>
     <use xlink:href="#DejaVuSans-5a" x="482.617188"/>
     <use xlink:href="#DejaVuSans-31" x="551.123047"/>
     <use xlink:href="#DejaVuSans-31" x="614.746094"/>
    </g>
    <!-- 105 -->
    <g style="opacity: 0.5" transform="translate(245.59694 128.700685)scale(0.0579 -0.0579)">
     <use xlink:href="#DejaVuSans-31"/>
     <use xlink:href="#DejaVuSans-30" x="63.623047"/>
     <use xlink:href="#DejaVuSans-35" x="127.246094"/>
    </g>
    <!-- 65 -->
    <g style="opacity: 0.5" transform="translate(247.438884 135.184218)scale(0.0579 -0.0579)">
     <defs>
      <path id="DejaVuSans-36" d="M 2113 2584 
Q 1688 2584 1439 2293 
Q 1191 2003 1191 1497 
Q 1191 994 1439 701 
Q 1688 409 2113 409 
Q 2538 409 2786 701 
Q 3034 994 3034 1497 
Q 3034 2003 2786 2293 
Q 2538 2584 2113 2584 
z
M 3366 4563 
L 3366 3988 
Q 3128 4100 2886 4159 
Q 2644 4219 2406 4219 
Q 1781 4219 1451 3797 
Q 1122 3375 1075 2522 
Q 1259 2794 1537 2939 
Q 1816 3084 2150 3084 
Q 2853 3084 3261 2657 
Q 3669 2231 3669 1497 
Q 3669 778 3244 343 
Q 2819 -91 2113 -91 
Q 1303 -91 875 529 
Q 447 1150 447 2328 
Q 447 3434 972 4092 
Q 1497 4750 2381 4750 
Q 2619 4750 2861 4703 
Q 3103 4656 3366 4563 
z
" transform="scale(0.015625)"/>
     </defs>
     <use xlink:href="#DejaVuSans-36"/>
     <use xlink:href="#DejaVuSans-35" x="63.623047"/>
    </g>
   </g>
   <g id="text_4">
    <!-- EDWWHRZ6 -->
    <g style="opacity: 0.5" transform="translate(241.103332 82.907994)scale(0.0579 -0.0579)">
     <use xlink:href="#DejaVuSans-45"/>
     <use xlink:href="#DejaVuSans-44" x="63.183594"/>
     <use xlink:href="#DejaVuSans-57" x="140.185547"/>
     <use xlink:href="#DejaVuSans-57" x="239.0625"/>
     <use xlink:href="#DejaVuSans-48" x="337.939453"/>
     <use xlink:href="#DejaVuSans-52" x="413.134766"/>
     <use xlink:href="#DejaVuSans-5a" x="482.617188"/>
     <use xlink:href="#DejaVuSans-36" x="551.123047"/>
    </g>
    <!-- 155 -->
    <g style="opacity: 0.5" transform="translate(253.374514 89.391527)scale(0.0579 -0.0579)">
     <use xlink:href="#DejaVuSans-31"/>
     <use xlink:href="#DejaVuSans-35" x="63.623047"/>
     <use xlink:href="#DejaVuSans-35" x="127.246094"/>
    </g>
    <!-- GND -->
    <g style="opacity: 0.5" transform="translate(252.2622 95.875061)scale(0.0579 -0.0579)">
     <defs>
      <path id="DejaVuSans-47" d="M 3809 666 
L 3809 1919 
L 2778 1919 
L 2778 2438 
L 4434 2438 
L 4434 434 
Q 4069 175 3628 42 
Q 3188 -91 2688 -91 
Q 1594 -91 976 548 
Q 359 1188 359 2328 
Q 359 3472 976 4111 
Q 1594 4750 2688 4750 
Q 3144 4750 3555 4637 
Q 3966 4525 4313 4306 
L 4313 3634 
Q 3963 3931 3569 4081 
Q 3175 4231 2741 4231 
Q 1884 4231 1454 3753 
Q 1025 3275 1025 2328 
Q 1025 1384 1454 906 
Q 1884 428 2741 428 
Q 3075 428 3337 486 
Q 3600 544 3809 666 
z
" transform="scale(0.015625)"/>
      <path id="DejaVuSans-4e" d="M 628 4666 
L 1478 4666 
L 3547 763 
L 3547 4666 
L 4159 4666 
L 4159 0 
L 3309 0 
L 1241 3903 
L 1241 0 
L 628 0 
L 628 4666 
z
" transform="scale(0.015625)"/>
     </defs>
     <use xlink:href="#DejaVuSans-47"/>
     <use xlink:href="#DejaVuSans-4e" x="77.490234"/>
     <use xlink:href="#DejaVuSans-44" x="152.294922"/>
    </g>
   </g>
   <g id="text_5">
    <!-- EDWWHRZ9 -->
    <g style="opacity: 0.5" transform="translate(251.486346 119.167223)scale(0.0579 -0.0579)">
     <defs>
      <path id="DejaVuSans-39" d="M 703 97 
L 703 672 
Q 941 559 1184 500 
Q 1428 441 1663 441 
Q 2288 441 2617 861 
Q 2947 1281 2994 2138 
Q 2813 1869 2534 1725 
Q 2256 1581 1919 1581 
Q 1219 1581 811 2004 
Q 403 2428 403 3163 
Q 403 3881 828 4315 
Q 1253 4750 1959 4750 
Q 2769 4750 3195 4129 
Q 3622 3509 3622 2328 
Q 3622 1225 3098 567 
Q 2575 -91 1691 -91 
Q 1453 -91 1209 -44 
Q 966 3 703 97 
z
M 1959 2075 
Q 2384 2075 2632 2365 
Q 2881 2656 2881 3163 
Q 2881 3666 2632 3958 
Q 2384 4250 1959 4250 
Q 1534 4250 1286 3958 
Q 1038 3666 1038 3163 
Q 1038 2656 1286 2365 
Q 1534 2075 1959 2075 
z
" transform="scale(0.015625)"/>
     </defs>
     <use xlink:href="#DejaVuSans-45"/>
     <use xlink:href="#DejaVuSans-44" x="63.183594"/>
     <use xlink:href="#DejaVuSans-57" x="140.185547"/>
     <use xlink:href="#DejaVuSans-57" x="239.0625"/>
     <use xlink:href="#DejaVuSans-48" x="337.939453"/>
     <use xlink:href="#DejaVuSans-52" x="413.134766"/>
     <use xlink:href="#DejaVuSans-5a" x="482.617188"/>
     <use xlink:href="#DejaVuSans-39" x="551.123047"/>
    </g>
    <!-- 105 -->
    <g style="opacity: 0.5" transform="translate(263.757527 125.650756)scale(0.0579 -0.0579)">
     <use xlink:href="#DejaVuSans-31"/>
     <use xlink:href="#DejaVuSans-30" x="63.623047"/>
     <use xlink:href="#DejaVuSans-35" x="127.246094"/>
    </g>
    <!-- GND -->
    <g style="opacity: 0.5" transform="translate(262.645214 132.134289)scale(0.0579 -0.0579)">
     <use xlink:href="#DejaVuSans-47"/>
     <use xlink:href="#DejaVuSans-4e" x="77.490234"/>
     <use xlink:href="#DejaVuSans-44" x="152.294922"/>
    </g>
   </g>
   <g id="text_6">
    <!-- GED1 -->
    <g style="opacity: 0.5" transform="translate(274.290923 188.087724)scale(0.0579 -0.0579)">
     <use xlink:href="#DejaVuSans-47"/>
     <use xlink:href="#DejaVuSans-45" x="77.490234"/>
     <use xlink:href="#DejaVuSans-44" x="140.673828"/>
     <use xlink:href="#DejaVuSans-31" x="217.675781"/>
    </g>
    <!-- 215 -->
    <g style="opacity: 0.5" transform="translate(276.908637 194.571257)scale(0.0579 -0.0579)">
     <use xlink:href="#DejaVuSans-32"/>
     <use xlink:href="#DejaVuSans-31" x="63.623047"/>
     <use xlink:href="#DejaVuSans-35" x="127.246094"/>
    </g>
    <!-- GND -->
    <g style="opacity: 0.5" transform="translate(275.796323 201.054791)scale(0.0579 -0.0579)">
     <use xlink:href="#DejaVuSans-47"/>
     <use xlink:href="#DejaVuSans-4e" x="77.490234"/>
     <use xlink:href="#DejaVuSans-44" x="152.294922"/>
    </g>
   </g>
   <g id="text_7">
    <!-- GED3 -->
    <g style="opacity: 0.5" transform="translate(255.991199 203.921395)scale(0.0579 -0.0579)">
     <use xlink:href="#DejaVuSans-47"/>
     <use xlink:href="#DejaVuSans-45" x="77.490234"/>
     <use xlink:href="#DejaVuSans-44" x="140.673828"/>
     <use xlink:href="#DejaVuSans-33" x="217.675781"/>
    </g>
    <!-- 215 -->
    <g style="opacity: 0.5" transform="translate(258.608913 210.404928)scale(0.0579 -0.0579)">
     <use xlink:href="#DejaVuSans-32"/>
     <use xlink:href="#DejaVuSans-31" x="63.623047"/>
     <use xlink:href="#DejaVuSans-35" x="127.246094"/>
    </g>
    <!-- 135 -->
    <g style="opacity: 0.5" transform="translate(258.608913 216.888462)scale(0.0579 -0.0579)">
     <use xlink:href="#DejaVuSans-31"/>
     <use xlink:href="#DejaVuSans-33" x="63.623047"/>
     <use xlink:href="#DejaVuSans-35" x="127.246094"/>
    </g>
   </g>
   <g id="text_8">
    <!-- HAB3 -->
    <g style="opacity: 0.5" transform="translate(258.939692 228.538621)scale(0.0579 -0.0579)">
     <defs>
      <path id="DejaVuSans-41" d="M 2188 4044 
L 1331 1722 
L 3047 1722 
L 2188 4044 
z
M 1831 4666 
L 2547 4666 
L 4325 0 
L 3669 0 
L 3244 1197 
L 1141 1197 
L 716 0 
L 50 0 
L 1831 4666 
z
" transform="scale(0.015625)"/>
      <path id="DejaVuSans-42" d="M 1259 2228 
L 1259 519 
L 2272 519 
Q 2781 519 3026 730 
Q 3272 941 3272 1375 
Q 3272 1813 3026 2020 
Q 2781 2228 2272 2228 
L 1259 2228 
z
M 1259 4147 
L 1259 2741 
L 2194 2741 
Q 2656 2741 2882 2914 
Q 3109 3088 3109 3444 
Q 3109 3797 2882 3972 
Q 2656 4147 2194 4147 
L 1259 4147 
z
M 628 4666 
L 2241 4666 
Q 2963 4666 3353 4366 
Q 3744 4066 3744 3513 
Q 3744 3084 3544 2831 
Q 3344 2578 2956 2516 
Q 3422 2416 3680 2098 
Q 3938 1781 3938 1306 
Q 3938 681 3513 340 
Q 3088 0 2303 0 
L 628 0 
L 628 4666 
z
" transform="scale(0.015625)"/>
     </defs>
     <use xlink:href="#DejaVuSans-48"/>
     <use xlink:href="#DejaVuSans-41" x="75.195312"/>
     <use xlink:href="#DejaVuSans-42" x="143.603516"/>
     <use xlink:href="#DejaVuSans-33" x="212.207031"/>
    </g>
    <!-- 245 -->
    <g style="opacity: 0.5" transform="translate(261.399538 235.022154)scale(0.0579 -0.0579)">
     <use xlink:href="#DejaVuSans-32"/>
     <use xlink:href="#DejaVuSans-34" x="63.623047"/>
     <use xlink:href="#DejaVuSans-35" x="127.246094"/>
    </g>
    <!-- 135 -->
    <g style="opacity: 0.5" transform="translate(261.399538 241.505688)scale(0.0579 -0.0579)">
     <use xlink:href="#DejaVuSans-31"/>
     <use xlink:href="#DejaVuSans-33" x="63.623047"/>
     <use xlink:href="#DejaVuSans-35" x="127.246094"/>
    </g>
   </g>
   <g id="text_9">
    <!-- HEF1 -->
    <g style="opacity: 0.5" transform="translate(270.129311 152.292421)scale(0.0579 -0.0579)">
     <defs>
      <path id="DejaVuSans-46" d="M 628 4666 
L 3309 4666 
L 3309 4134 
L 1259 4134 
L 1259 2759 
L 3109 2759 
L 3109 2228 
L 1259 2228 
L 1259 0 
L 628 0 
L 628 4666 
z
" transform="scale(0.015625)"/>
     </defs>
     <use xlink:href="#DejaVuSans-48"/>
     <use xlink:href="#DejaVuSans-45" x="75.195312"/>
     <use xlink:href="#DejaVuSans-46" x="138.378906"/>
     <use xlink:href="#DejaVuSans-31" x="195.898438"/>
    </g>
    <!-- 245 -->
    <g style="opacity: 0.5" transform="translate(272.11691 158.775955)scale(0.0579 -0.0579)">
     <use xlink:href="#DejaVuSans-32"/>
     <use xlink:href="#DejaVuSans-34" x="63.623047"/>
     <use xlink:href="#DejaVuSans-35" x="127.246094"/>
    </g>
    <!-- GND -->
    <g style="opacity: 0.5" transform="translate(271.004596 165.259488)scale(0.0579 -0.0579)">
     <use xlink:href="#DejaVuSans-47"/>
     <use xlink:href="#DejaVuSans-4e" x="77.490234"/>
     <use xlink:href="#DejaVuSans-44" x="152.294922"/>
    </g>
   </g>
   <g id="text_10">
    <!-- HEF11 -->
    <g style="opacity: 0.5" transform="translate(272.686974 190.265875)scale(0.0579 -0.0579)">
     <use xlink:href="#DejaVuSans-48"/>
     <use xlink:href="#DejaVuSans-45" x="75.195312"/>
     <use xlink:href="#DejaVuSans-46" x="138.378906"/>
     <use xlink:href="#DejaVuSans-31" x="195.898438"/>
     <use xlink:href="#DejaVuSans-31" x="259.521484"/>
    </g>
    <!-- 245 -->
    <g style="opacity: 0.5" transform="translate(276.516516 196.749408)scale(0.0579 -0.0579)">
     <use xlink:href="#DejaVuSans-32"/>
     <use xlink:href="#DejaVuSans-34" x="63.623047"/>
     <use xlink:href="#DejaVuSans-35" x="127.246094"/>
    </g>
    <!-- 215 -->
    <g style="opacity: 0.5" transform="translate(276.516516 203.232942)scale(0.0579 -0.0579)">
     <use xlink:href="#DejaVuSans-32"/>
     <use xlink:href="#DejaVuSans-31" x="63.623047"/>
     <use xlink:href="#DejaVuSans-35" x="127.246094"/>
    </g>
   </g>
   <g id="text_11">
    <!-- HEF2 -->
    <g style="opacity: 0.5" transform="translate(252.003488 141.75861)scale(0.0579 -0.0579)">
     <use xlink:href="#DejaVuSans-48"/>
     <use xlink:href="#DejaVuSans-45" x="75.195312"/>
     <use xlink:href="#DejaVuSans-46" x="138.378906"/>
     <use xlink:href="#DejaVuSans-32" x="195.898438"/>
    </g>
    <!-- 195 -->
    <g style="opacity: 0.5" transform="translate(253.991086 148.242144)scale(0.0579 -0.0579)">
     <use xlink:href="#DejaVuSans-31"/>
     <use xlink:href="#DejaVuSans-39" x="63.623047"/>
     <use xlink:href="#DejaVuSans-35" x="127.246094"/>
    </g>
    <!-- GND -->
    <g style="opacity: 0.5" transform="translate(252.878773 154.725677)scale(0.0579 -0.0579)">
     <use xlink:href="#DejaVuSans-47"/>
     <use xlink:href="#DejaVuSans-4e" x="77.490234"/>
     <use xlink:href="#DejaVuSans-44" x="152.294922"/>
    </g>
   </g>
   <g id="text_12">
    <!-- HEF3 -->
    <g style="opacity: 0.5" transform="translate(254.310168 122.416063)scale(0.0579 -0.0579)">
     <use xlink:href="#DejaVuSans-48"/>
     <use xlink:href="#DejaVuSans-45" x="75.195312"/>
     <use xlink:href="#DejaVuSans-46" x="138.378906"/>
     <use xlink:href="#DejaVuSans-33" x="195.898438"/>
    </g>
    <!-- 65 -->
    <g style="opacity: 0.5" transform="translate(258.13971 128.899597)scale(0.0579 -0.0579)">
     <use xlink:href="#DejaVuSans-36"/>
     <use xlink:href="#DejaVuSans-35" x="63.623047"/>
    </g>
    <!-- GND -->
    <g style="opacity: 0.5" transform="translate(255.185453 135.38313)scale(0.0579 -0.0579)">
     <use xlink:href="#DejaVuSans-47"/>
     <use xlink:href="#DejaVuSans-4e" x="77.490234"/>
     <use xlink:href="#DejaVuSans-44" x="152.294922"/>
    </g>
   </g>
   <g id="text_13">
    <!-- HEF7 -->
    <g style="opacity: 0.5" transform="translate(254.229582 117.742828)scale(0.0579 -0.0579)">
     <defs>
      <path id="DejaVuSans-37" d="M 525 4666 
L 3525 4666 
L 3525 4397 
L 1831 0 
L 1172 0 
L 2766 4134 
L 525 4134 
L 525 4666 
z
" transform="scale(0.015625)"/>
     </defs>
     <use xlink:href="#DejaVuSans-48"/>
     <use xlink:href="#DejaVuSans-45" x="75.195312"/>
     <use xlink:href="#DejaVuSans-46" x="138.378906"/>
     <use xlink:href="#DejaVuSans-37" x="195.898438"/>
    </g>
    <!-- 195 -->
    <g style="opacity: 0.5" transform="translate(256.21718 124.226361)scale(0.0579 -0.0579)">
     <use xlink:href="#DejaVuSans-31"/>
     <use xlink:href="#DejaVuSans-39" x="63.623047"/>
     <use xlink:href="#DejaVuSans-35" x="127.246094"/>
    </g>
    <!-- 105 -->
    <g style="opacity: 0.5" transform="translate(256.21718 130.709895)scale(0.0579 -0.0579)">
     <use xlink:href="#DejaVuSans-31"/>
     <use xlink:href="#DejaVuSans-30" x="63.623047"/>
     <use xlink:href="#DejaVuSans-35" x="127.246094"/>
    </g>
   </g>
   <g id="text_14">
    <!-- HEF8 -->
    <g style="opacity: 0.5" transform="translate(281.757915 119.167223)scale(0.0579 -0.0579)">
     <defs>
      <path id="DejaVuSans-38" d="M 2034 2216 
Q 1584 2216 1326 1975 
Q 1069 1734 1069 1313 
Q 1069 891 1326 650 
Q 1584 409 2034 409 
Q 2484 409 2743 651 
Q 3003 894 3003 1313 
Q 3003 1734 2745 1975 
Q 2488 2216 2034 2216 
z
M 1403 2484 
Q 997 2584 770 2862 
Q 544 3141 544 3541 
Q 544 4100 942 4425 
Q 1341 4750 2034 4750 
Q 2731 4750 3128 4425 
Q 3525 4100 3525 3541 
Q 3525 3141 3298 2862 
Q 3072 2584 2669 2484 
Q 3125 2378 3379 2068 
Q 3634 1759 3634 1313 
Q 3634 634 3220 271 
Q 2806 -91 2034 -91 
Q 1263 -91 848 271 
Q 434 634 434 1313 
Q 434 1759 690 2068 
Q 947 2378 1403 2484 
z
M 1172 3481 
Q 1172 3119 1398 2916 
Q 1625 2713 2034 2713 
Q 2441 2713 2670 2916 
Q 2900 3119 2900 3481 
Q 2900 3844 2670 4047 
Q 2441 4250 2034 4250 
Q 1625 4250 1398 4047 
Q 1172 3844 1172 3481 
z
" transform="scale(0.015625)"/>
     </defs>
     <use xlink:href="#DejaVuSans-48"/>
     <use xlink:href="#DejaVuSans-45" x="75.195312"/>
     <use xlink:href="#DejaVuSans-46" x="138.378906"/>
     <use xlink:href="#DejaVuSans-38" x="195.898438"/>
    </g>
    <!-- 245 -->
    <g style="opacity: 0.5" transform="translate(283.745514 125.650756)scale(0.0579 -0.0579)">
     <use xlink:href="#DejaVuSans-32"/>
     <use xlink:href="#DejaVuSans-34" x="63.623047"/>
     <use xlink:href="#DejaVuSans-35" x="127.246094"/>
    </g>
    <!-- 105 -->
    <g style="opacity: 0.5" transform="translate(283.745514 132.134289)scale(0.0579 -0.0579)">
     <use xlink:href="#DejaVuSans-31"/>
     <use xlink:href="#DejaVuSans-30" x="63.623047"/>
     <use xlink:href="#DejaVuSans-35" x="127.246094"/>
    </g>
   </g>
   <g id="text_15">
    <!-- MAN2 -->
    <g style="opacity: 0.5" transform="translate(216.952977 239.906182)scale(0.0579 -0.0579)">
     <defs>
      <path id="DejaVuSans-4d" d="M 628 4666 
L 1569 4666 
L 2759 1491 
L 3956 4666 
L 4897 4666 
L 4897 0 
L 4281 0 
L 4281 4097 
L 3078 897 
L 2444 897 
L 1241 4097 
L 1241 0 
L 628 0 
L 628 4666 
z
" transform="scale(0.015625)"/>
     </defs>
     <use xlink:href="#DejaVuSans-4d"/>
     <use xlink:href="#DejaVuSans-41" x="86.279297"/>
     <use xlink:href="#DejaVuSans-4e" x="154.6875"/>
     <use xlink:href="#DejaVuSans-32" x="229.492188"/>
    </g>
    <!-- 175 -->
    <g style="opacity: 0.5" transform="translate(219.913115 246.389716)scale(0.0579 -0.0579)">
     <use xlink:href="#DejaVuSans-31"/>
     <use xlink:href="#DejaVuSans-37" x="63.623047"/>
     <use xlink:href="#DejaVuSans-35" x="127.246094"/>
    </g>
    <!-- 135 -->
    <g style="opacity: 0.5" transform="translate(219.913115 252.873249)scale(0.0579 -0.0579)">
     <use xlink:href="#DejaVuSans-31"/>
     <use xlink:href="#DejaVuSans-33" x="63.623047"/>
     <use xlink:href="#DejaVuSans-35" x="127.246094"/>
    </g>
   </g>
   <g id="text_16">
    <!-- MAN3 -->
    <g style="opacity: 0.5" transform="translate(218.116587 249.508051)scale(0.0579 -0.0579)">
     <use xlink:href="#DejaVuSans-4d"/>
     <use xlink:href="#DejaVuSans-41" x="86.279297"/>
     <use xlink:href="#DejaVuSans-4e" x="154.6875"/>
     <use xlink:href="#DejaVuSans-33" x="229.492188"/>
    </g>
    <!-- 245 -->
    <g style="opacity: 0.5" transform="translate(221.076725 255.991584)scale(0.0579 -0.0579)">
     <use xlink:href="#DejaVuSans-32"/>
     <use xlink:href="#DejaVuSans-34" x="63.623047"/>
     <use xlink:href="#DejaVuSans-35" x="127.246094"/>
    </g>
    <!-- 175 -->
    <g style="opacity: 0.5" transform="translate(221.076725 262.475118)scale(0.0579 -0.0579)">
     <use xlink:href="#DejaVuSans-31"/>
     <use xlink:href="#DejaVuSans-37" x="63.623047"/>
     <use xlink:href="#DejaVuSans-35" x="127.246094"/>
    </g>
   </g>
   <g id="text_17">
    <!-- PADH1 -->
    <g style="opacity: 0.5" transform="translate(185.009393 103.581754)scale(0.0579 -0.0579)">
     <defs>
      <path id="DejaVuSans-50" d="M 1259 4147 
L 1259 2394 
L 2053 2394 
Q 2494 2394 2734 2622 
Q 2975 2850 2975 3272 
Q 2975 3691 2734 3919 
Q 2494 4147 2053 4147 
L 1259 4147 
z
M 628 4666 
L 2053 4666 
Q 2838 4666 3239 4311 
Q 3641 3956 3641 3272 
Q 3641 2581 3239 2228 
Q 2838 1875 2053 1875 
L 1259 1875 
L 1259 0 
L 628 0 
L 628 4666 
z
" transform="scale(0.015625)"/>
     </defs>
     <use xlink:href="#DejaVuSans-50"/>
     <use xlink:href="#DejaVuSans-41" x="53.927734"/>
     <use xlink:href="#DejaVuSans-44" x="122.335938"/>
     <use xlink:href="#DejaVuSans-48" x="199.337891"/>
     <use xlink:href="#DejaVuSans-31" x="274.533203"/>
    </g>
    <!-- 245 -->
    <g style="opacity: 0.5" transform="translate(189.273186 110.065287)scale(0.0579 -0.0579)">
     <use xlink:href="#DejaVuSans-32"/>
     <use xlink:href="#DejaVuSans-34" x="63.623047"/>
     <use xlink:href="#DejaVuSans-35" x="127.246094"/>
    </g>
    <!-- 135 -->
    <g style="opacity: 0.5" transform="translate(189.273186 116.548821)scale(0.0579 -0.0579)">
     <use xlink:href="#DejaVuSans-31"/>
     <use xlink:href="#DejaVuSans-33" x="63.623047"/>
     <use xlink:href="#DejaVuSans-35" x="127.246094"/>
    </g>
   </g>
   <g id="text_18">
    <!-- PADL1 -->
    <g style="opacity: 0.5" transform="translate(185.573466 105.348262)scale(0.0579 -0.0579)">
     <defs>
      <path id="DejaVuSans-4c" d="M 628 4666 
L 1259 4666 
L 1259 531 
L 3531 531 
L 3531 0 
L 628 0 
L 628 4666 
z
" transform="scale(0.015625)"/>
     </defs>
     <use xlink:href="#DejaVuSans-50"/>
     <use xlink:href="#DejaVuSans-41" x="53.927734"/>
     <use xlink:href="#DejaVuSans-44" x="122.335938"/>
     <use xlink:href="#DejaVuSans-4c" x="199.337891"/>
     <use xlink:href="#DejaVuSans-31" x="255.050781"/>
    </g>
    <!-- 135 -->
    <g style="opacity: 0.5" transform="translate(189.273186 111.831796)scale(0.0579 -0.0579)">
     <use xlink:href="#DejaVuSans-31"/>
     <use xlink:href="#DejaVuSans-33" x="63.623047"/>
     <use xlink:href="#DejaVuSans-35" x="127.246094"/>
    </g>
    <!-- GND -->
    <g style="opacity: 0.5" transform="translate(188.160872 118.315329)scale(0.0579 -0.0579)">
     <use xlink:href="#DejaVuSans-47"/>
     <use xlink:href="#DejaVuSans-4e" x="77.490234"/>
     <use xlink:href="#DejaVuSans-44" x="152.294922"/>
    </g>
   </g>
   <g id="text_19">
    <!-- SIG1 -->
    <g style="opacity: 0.5" transform="translate(187.787097 172.004903)scale(0.0579 -0.0579)">
     <defs>
      <path id="DejaVuSans-49" d="M 628 4666 
L 1259 4666 
L 1259 0 
L 628 0 
L 628 4666 
z
" transform="scale(0.015625)"/>
     </defs>
     <use xlink:href="#DejaVuSans-53"/>
     <use xlink:href="#DejaVuSans-49" x="63.476562"/>
     <use xlink:href="#DejaVuSans-47" x="92.96875"/>
     <use xlink:href="#DejaVuSans-31" x="170.458984"/>
    </g>
    <!-- 245 -->
    <g style="opacity: 0.5" transform="translate(189.03828 178.488436)scale(0.0579 -0.0579)">
     <use xlink:href="#DejaVuSans-32"/>
     <use xlink:href="#DejaVuSans-34" x="63.623047"/>
     <use xlink:href="#DejaVuSans-35" x="127.246094"/>
    </g>
    <!-- GND -->
    <g style="opacity: 0.5" transform="translate(187.925966 184.97197)scale(0.0579 -0.0579)">
     <use xlink:href="#DejaVuSans-47"/>
     <use xlink:href="#DejaVuSans-4e" x="77.490234"/>
     <use xlink:href="#DejaVuSans-44" x="152.294922"/>
    </g>
   </g>
   <g id="text_20">
    <!-- SIG5 -->
    <g style="opacity: 0.5" transform="translate(208.75911 201.257563)scale(0.0579 -0.0579)">
     <use xlink:href="#DejaVuSans-53"/>
     <use xlink:href="#DejaVuSans-49" x="63.476562"/>
     <use xlink:href="#DejaVuSans-47" x="92.96875"/>
     <use xlink:href="#DejaVuSans-35" x="170.458984"/>
    </g>
    <!-- 245 -->
    <g style="opacity: 0.5" transform="translate(210.010292 207.741097)scale(0.0579 -0.0579)">
     <use xlink:href="#DejaVuSans-32"/>
     <use xlink:href="#DejaVuSans-34" x="63.623047"/>
     <use xlink:href="#DejaVuSans-35" x="127.246094"/>
    </g>
    <!-- 175 -->
    <g style="opacity: 0.5" transform="translate(210.010292 214.22463)scale(0.0579 -0.0579)">
     <use xlink:href="#DejaVuSans-31"/>
     <use xlink:href="#DejaVuSans-37" x="63.623047"/>
     <use xlink:href="#DejaVuSans-35" x="127.246094"/>
    </g>
   </g>
   <g id="text_21">
    <!-- TAU1 -->
    <g style="opacity: 0.5" transform="translate(170.09371 198.335247)scale(0.0579 -0.0579)">
     <defs>
      <path id="DejaVuSans-55" d="M 556 4666 
L 1191 4666 
L 1191 1831 
Q 1191 1081 1462 751 
Q 1734 422 2344 422 
Q 2950 422 3222 751 
Q 3494 1081 3494 1831 
L 3494 4666 
L 4128 4666 
L 4128 1753 
Q 4128 841 3676 375 
Q 3225 -91 2344 -91 
Q 1459 -91 1007 375 
Q 556 841 556 1753 
L 556 4666 
z
" transform="scale(0.015625)"/>
     </defs>
     <use xlink:href="#DejaVuSans-54"/>
     <use xlink:href="#DejaVuSans-41" x="53.333984"/>
     <use xlink:href="#DejaVuSans-55" x="121.742188"/>
     <use xlink:href="#DejaVuSans-31" x="194.935547"/>
    </g>
    <!-- 245 -->
    <g style="opacity: 0.5" transform="translate(172.05281 204.818781)scale(0.0579 -0.0579)">
     <use xlink:href="#DejaVuSans-32"/>
     <use xlink:href="#DejaVuSans-34" x="63.623047"/>
     <use xlink:href="#DejaVuSans-35" x="127.246094"/>
    </g>
    <!-- GND -->
    <g style="opacity: 0.5" transform="translate(170.940497 211.302314)scale(0.0579 -0.0579)">
     <use xlink:href="#DejaVuSans-47"/>
     <use xlink:href="#DejaVuSans-4e" x="77.490234"/>
     <use xlink:href="#DejaVuSans-44" x="152.294922"/>
    </g>
   </g>
   <g id="text_22">
    <!-- TAU4 -->
    <g style="opacity: 0.5" transform="translate(195.763152 205.846983)scale(0.0579 -0.0579)">
     <use xlink:href="#DejaVuSans-54"/>
     <use xlink:href="#DejaVuSans-41" x="53.333984"/>
     <use xlink:href="#DejaVuSans-55" x="121.742188"/>
     <use xlink:href="#DejaVuSans-34" x="194.935547"/>
    </g>
    <!-- 245 -->
    <g style="opacity: 0.5" transform="translate(197.722253 212.330517)scale(0.0579 -0.0579)">
     <use xlink:href="#DejaVuSans-32"/>
     <use xlink:href="#DejaVuSans-34" x="63.623047"/>
     <use xlink:href="#DejaVuSans-35" x="127.246094"/>
    </g>
    <!-- 135 -->
    <g style="opacity: 0.5" transform="translate(197.722253 218.81405)scale(0.0579 -0.0579)">
     <use xlink:href="#DejaVuSans-31"/>
     <use xlink:href="#DejaVuSans-33" x="63.623047"/>
     <use xlink:href="#DejaVuSans-35" x="127.246094"/>
    </g>
   </g>
   <g id="text_23">
    <!-- TAU5 -->
    <g style="opacity: 0.5" transform="translate(182.757693 219.758349)scale(0.0579 -0.0579)">
     <use xlink:href="#DejaVuSans-54"/>
     <use xlink:href="#DejaVuSans-41" x="53.333984"/>
     <use xlink:href="#DejaVuSans-55" x="121.742188"/>
     <use xlink:href="#DejaVuSans-35" x="194.935547"/>
    </g>
    <!-- 245 -->
    <g style="opacity: 0.5" transform="translate(184.716794 226.241882)scale(0.0579 -0.0579)">
     <use xlink:href="#DejaVuSans-32"/>
     <use xlink:href="#DejaVuSans-34" x="63.623047"/>
     <use xlink:href="#DejaVuSans-35" x="127.246094"/>
    </g>
    <!-- 135 -->
    <g style="opacity: 0.5" transform="translate(184.716794 232.725415)scale(0.0579 -0.0579)">
     <use xlink:href="#DejaVuSans-31"/>
     <use xlink:href="#DejaVuSans-33" x="63.623047"/>
     <use xlink:href="#DejaVuSans-35" x="127.246094"/>
    </g>
   </g>
   <g id="text_24">
    <!-- GIN1 -->
    <g transform="translate(216.970177 162.551288)scale(0.0579 -0.0579)">
     <use xlink:href="#DejaVuSans-47"/>
     <use xlink:href="#DejaVuSans-49" x="77.490234"/>
     <use xlink:href="#DejaVuSans-4e" x="106.982422"/>
     <use xlink:href="#DejaVuSans-31" x="181.787109"/>
    </g>
    <!-- 205 -->
    <g transform="translate(218.549309 169.034822)scale(0.0579 -0.0579)">
     <use xlink:href="#DejaVuSans-32"/>
     <use xlink:href="#DejaVuSans-30" x="63.623047"/>
     <use xlink:href="#DejaVuSans-35" x="127.246094"/>
    </g>
    <!-- GND -->
    <g transform="translate(217.436995 175.518355)scale(0.0579 -0.0579)">
     <use xlink:href="#DejaVuSans-47"/>
     <use xlink:href="#DejaVuSans-4e" x="77.490234"/>
     <use xlink:href="#DejaVuSans-44" x="152.294922"/>
    </g>
   </g>
   <g id="text_25">
    <!-- GIN2 -->
    <g transform="translate(253.908433 133.542472)scale(0.0579 -0.0579)">
     <use xlink:href="#DejaVuSans-47"/>
     <use xlink:href="#DejaVuSans-49" x="77.490234"/>
     <use xlink:href="#DejaVuSans-4e" x="106.982422"/>
     <use xlink:href="#DejaVuSans-32" x="181.787109"/>
    </g>
    <!-- 245 -->
    <g transform="translate(255.487565 140.026005)scale(0.0579 -0.0579)">
     <use xlink:href="#DejaVuSans-32"/>
     <use xlink:href="#DejaVuSans-34" x="63.623047"/>
     <use xlink:href="#DejaVuSans-35" x="127.246094"/>
    </g>
    <!-- 195 -->
    <g transform="translate(255.487565 146.509538)scale(0.0579 -0.0579)">
     <use xlink:href="#DejaVuSans-31"/>
     <use xlink:href="#DejaVuSans-39" x="63.623047"/>
     <use xlink:href="#DejaVuSans-35" x="127.246094"/>
    </g>
   </g>
   <g id="text_26">
    <!-- GIN3 -->
    <g transform="translate(218.156044 156.090479)scale(0.0579 -0.0579)">
     <use xlink:href="#DejaVuSans-47"/>
     <use xlink:href="#DejaVuSans-49" x="77.490234"/>
     <use xlink:href="#DejaVuSans-4e" x="106.982422"/>
     <use xlink:href="#DejaVuSans-33" x="181.787109"/>
    </g>
    <!-- 245 -->
    <g transform="translate(219.735176 162.574013)scale(0.0579 -0.0579)">
     <use xlink:href="#DejaVuSans-32"/>
     <use xlink:href="#DejaVuSans-34" x="63.623047"/>
     <use xlink:href="#DejaVuSans-35" x="127.246094"/>
    </g>
    <!-- 205 -->
    <g transform="translate(219.735176 169.057546)scale(0.0579 -0.0579)">
     <use xlink:href="#DejaVuSans-32"/>
     <use xlink:href="#DejaVuSans-30" x="63.623047"/>
     <use xlink:href="#DejaVuSans-35" x="127.246094"/>
    </g>
   </g>
   <g id="text_27">
    <!-- GIN4 -->
    <g transform="translate(233.504002 211.164729)scale(0.0579 -0.0579)">
     <use xlink:href="#DejaVuSans-47"/>
     <use xlink:href="#DejaVuSans-49" x="77.490234"/>
     <use xlink:href="#DejaVuSans-4e" x="106.982422"/>
     <use xlink:href="#DejaVuSans-34" x="181.787109"/>
    </g>
    <!-- 245 -->
    <g transform="translate(235.083134 217.648262)scale(0.0579 -0.0579)">
     <use xlink:href="#DejaVuSans-32"/>
     <use xlink:href="#DejaVuSans-34" x="63.623047"/>
     <use xlink:href="#DejaVuSans-35" x="127.246094"/>
    </g>
    <!-- 135 -->
    <g transform="translate(235.083134 224.131796)scale(0.0579 -0.0579)">
     <use xlink:href="#DejaVuSans-31"/>
     <use xlink:href="#DejaVuSans-33" x="63.623047"/>
     <use xlink:href="#DejaVuSans-35" x="127.246094"/>
    </g>
   </g>
   <g id="text_28">
    <!-- GIN5 -->
    <g transform="translate(205.331999 190.345583)scale(0.0579 -0.0579)">
     <use xlink:href="#DejaVuSans-47"/>
     <use xlink:href="#DejaVuSans-49" x="77.490234"/>
     <use xlink:href="#DejaVuSans-4e" x="106.982422"/>
     <use xlink:href="#DejaVuSans-35" x="181.787109"/>
    </g>
    <!-- 175 -->
    <g transform="translate(206.911131 196.829116)scale(0.0579 -0.0579)">
     <use xlink:href="#DejaVuSans-31"/>
     <use xlink:href="#DejaVuSans-37" x="63.623047"/>
     <use xlink:href="#DejaVuSans-35" x="127.246094"/>
    </g>
    <!-- GND -->
    <g transform="translate(205.798818 203.31265)scale(0.0579 -0.0579)">
     <use xlink:href="#DejaVuSans-47"/>
     <use xlink:href="#DejaVuSans-4e" x="77.490234"/>
     <use xlink:href="#DejaVuSans-44" x="152.294922"/>
    </g>
   </g>
   <g id="text_29">
    <!-- GIN6 -->
    <g transform="translate(233.038228 117.99612)scale(0.0579 -0.0579)">
     <use xlink:href="#DejaVuSans-47"/>
     <use xlink:href="#DejaVuSans-49" x="77.490234"/>
     <use xlink:href="#DejaVuSans-4e" x="106.982422"/>
     <use xlink:href="#DejaVuSans-36" x="181.787109"/>
    </g>
    <!-- 205 -->
    <g transform="translate(234.61736 124.479654)scale(0.0579 -0.0579)">
     <use xlink:href="#DejaVuSans-32"/>
     <use xlink:href="#DejaVuSans-30" x="63.623047"/>
     <use xlink:href="#DejaVuSans-35" x="127.246094"/>
    </g>
    <!-- 105 -->
    <g transform="translate(234.61736 130.963187)scale(0.0579 -0.0579)">
     <use xlink:href="#DejaVuSans-31"/>
     <use xlink:href="#DejaVuSans-30" x="63.623047"/>
     <use xlink:href="#DejaVuSans-35" x="127.246094"/>
    </g>
   </g>
   <g id="text_30">
    <!-- GIN7 -->
    <g transform="translate(213.092918 216.372997)scale(0.0579 -0.0579)">
     <use xlink:href="#DejaVuSans-47"/>
     <use xlink:href="#DejaVuSans-49" x="77.490234"/>
     <use xlink:href="#DejaVuSans-4e" x="106.982422"/>
     <use xlink:href="#DejaVuSans-37" x="181.787109"/>
    </g>
    <!-- 175 -->
    <g transform="translate(214.67205 222.856531)scale(0.0579 -0.0579)">
     <use xlink:href="#DejaVuSans-31"/>
     <use xlink:href="#DejaVuSans-37" x="63.623047"/>
     <use xlink:href="#DejaVuSans-35" x="127.246094"/>
    </g>
    <!-- 135 -->
    <g transform="translate(214.67205 229.340064)scale(0.0579 -0.0579)">
     <use xlink:href="#DejaVuSans-31"/>
     <use xlink:href="#DejaVuSans-33" x="63.623047"/>
     <use xlink:href="#DejaVuSans-35" x="127.246094"/>
    </g>
   </g>
   <g id="text_31">
    <!-- GIN8 -->
    <g transform="translate(196.143121 205.846983)scale(0.0579 -0.0579)">
     <use xlink:href="#DejaVuSans-47"/>
     <use xlink:href="#DejaVuSans-49" x="77.490234"/>
     <use xlink:href="#DejaVuSans-4e" x="106.982422"/>
     <use xlink:href="#DejaVuSans-38" x="181.787109"/>
    </g>
    <!-- 135 -->
    <g transform="translate(197.722253 212.330517)scale(0.0579 -0.0579)">
     <use xlink:href="#DejaVuSans-31"/>
     <use xlink:href="#DejaVuSans-33" x="63.623047"/>
     <use xlink:href="#DejaVuSans-35" x="127.246094"/>
    </g>
    <!-- GND -->
    <g transform="translate(196.60994 218.81405)scale(0.0579 -0.0579)">
     <use xlink:href="#DejaVuSans-47"/>
     <use xlink:href="#DejaVuSans-4e" x="77.490234"/>
     <use xlink:href="#DejaVuSans-44" x="152.294922"/>
    </g>
   </g>
   <g id="text_32">
    <!-- GIN9 -->
    <g transform="translate(232.407621 122.217151)scale(0.0579 -0.0579)">
     <use xlink:href="#DejaVuSans-47"/>
     <use xlink:href="#DejaVuSans-49" x="77.490234"/>
     <use xlink:href="#DejaVuSans-4e" x="106.982422"/>
     <use xlink:href="#DejaVuSans-39" x="181.787109"/>
    </g>
    <!-- 65 -->
    <g transform="translate(235.828697 128.700685)scale(0.0579 -0.0579)">
     <use xlink:href="#DejaVuSans-36"/>
     <use xlink:href="#DejaVuSans-35" x="63.623047"/>
    </g>
    <!-- GND -->
    <g transform="translate(232.87444 135.184218)scale(0.0579 -0.0579)">
     <use xlink:href="#DejaVuSans-47"/>
     <use xlink:href="#DejaVuSans-4e" x="77.490234"/>
     <use xlink:href="#DejaVuSans-44" x="152.294922"/>
    </g>
   </g>
  </g>
 </g>
 <defs>
  <clipPath id="p68d082c737">
   <rect x="153.290683" y="41.472" width="165.738634" height="266.112"/>
  </clipPath>
 </defs>
</svg>
