<?xml version="1.0" encoding="utf-8" standalone="no"?>
<!DOCTYPE svg PUBLIC "-//W3C//DTD SVG 1.1//EN"
  "http://www.w3.org/Graphics/SVG/1.1/DTD/svg11.dtd">
<svg xmlns:xlink="http://www.w3.org/1999/xlink" width="460.8pt" height="345.6pt" viewBox="0 0 460.8 345.6" xmlns="http://www.w3.org/2000/svg" version="1.1">
 <metadata>
  <rdf:RDF xmlns:dc="http://purl.org/dc/elements/1.1/" xmlns:cc="http://creativecommons.org/ns#" xmlns:rdf="http://www.w3.org/1999/02/22-rdf-syntax-ns#">
   <cc:Work>
    <dc:type rdf:resource="http://purl.org/dc/dcmitype/StillImage"/>
    <dc:date>2022-04-26T00:17:41.538033</dc:date>
    <dc:format>image/svg+xml</dc:format>
    <dc:creator>
     <cc:Agent>
      <dc:title>Matplotlib v3.5.0, https://matplotlib.org/</dc:title>
     </cc:Agent>
    </dc:creator>
   </cc:Work>
  </rdf:RDF>
 </metadata>
 <defs>
  <style type="text/css">*{stroke-linejoin: round; stroke-linecap: butt}</style>
 </defs>
 <g id="figure_1">
  <g id="patch_1">
   <path d="M 0 345.6 
L 460.8 345.6 
L 460.8 0 
L 0 0 
z
" style="fill: #ffffff"/>
  </g>
  <g id="axes_1">
   <g id="patch_2">
    <path d="M 279.309749 114.048 
L 292.944693 120.317169 
L 290.945411 124.28652 
L 291.570576 137.081098 
L 292.935249 164.438815 
L 236.370182 166.471713 
L 229.510893 166.720783 
L 221.028499 116.441713 
L 235.539016 115.113362 
z
" clip-path="url(#p5e454f2814)" style="fill: #ffedd9; stroke: #ffedd9; stroke-linejoin: miter"/>
   </g>
   <g id="patch_3">
    <path d="M 209.028601 162.070308 
L 229.510893 166.720783 
L 236.370182 166.471713 
L 292.935249 164.438815 
L 302.129007 164.105687 
L 293.220806 170.882363 
L 261.642468 195.049727 
L 252.215681 222.325525 
L 253.714958 235.008 
L 236.118394 222.170922 
L 217.850391 208.17524 
L 211.587453 203.398612 
L 170.103551 188.141968 
L 170.673863 175.50747 
L 166.851121 164.028569 
L 182.312106 163.332398 
z
" clip-path="url(#p5e454f2814)" style="fill: #ffedd9; stroke: #ffedd9; stroke-linejoin: miter"/>
   </g>
   <g id="patch_4">
    <path d="M 175.626451 121.020677 
L 202.127777 123.597472 
L 221.028499 116.441713 
L 229.510893 166.720783 
L 209.028601 162.070308 
L 182.312106 163.332398 
L 166.851121 164.028569 
L 160.95026 134.501736 
L 169.945832 127.421922 
z
" clip-path="url(#p5e454f2814)" style="fill: #ffedd9; stroke: #ffedd9; stroke-linejoin: miter"/>
   </g>
   <g id="patch_5">
    <path d="M 290.945411 124.28652 
L 311.36974 158.125248 
L 302.129007 164.105687 
L 292.935249 164.438815 
L 291.570576 137.081098 
z
" clip-path="url(#p5e454f2814)" style="fill: #ffedd9; stroke: #ffedd9; stroke-linejoin: miter"/>
   </g>
   <g id="patch_6">
    <path d="M 279.309749 114.048 
L 292.944693 120.317169 
L 290.945411 124.28652 
L 291.570576 137.081098 
L 292.935249 164.438815 
L 236.370182 166.471713 
L 229.510893 166.720783 
L 221.028499 116.441713 
L 235.539016 115.113362 
L 279.309749 114.048 
z
" clip-path="url(#p5e454f2814)" style="fill: #ffedd9; stroke: #ffedd9; stroke-linejoin: miter"/>
   </g>
   <g id="patch_7">
    <path d="M 209.028601 162.070308 
L 229.510893 166.720783 
L 236.370182 166.471713 
L 292.935249 164.438815 
L 302.129007 164.105687 
L 293.220806 170.882363 
L 261.642468 195.049727 
L 252.215681 222.325525 
L 253.714958 235.008 
L 236.118394 222.170922 
L 217.850391 208.17524 
L 211.587453 203.398612 
L 170.103551 188.141968 
L 170.673863 175.50747 
L 166.851121 164.028569 
L 182.312106 163.332398 
L 209.028601 162.070308 
z
" clip-path="url(#p5e454f2814)" style="fill: #ffedd9; stroke: #ffedd9; stroke-linejoin: miter"/>
   </g>
   <g id="patch_8">
    <path d="M 175.626451 121.020677 
L 202.127777 123.597472 
L 221.028499 116.441713 
L 229.510893 166.720783 
L 209.028601 162.070308 
L 182.312106 163.332398 
L 166.851121 164.028569 
L 160.95026 134.501736 
L 169.945832 127.421922 
L 175.626451 121.020677 
z
" clip-path="url(#p5e454f2814)" style="fill: #ffedd9; stroke: #ffedd9; stroke-linejoin: miter"/>
   </g>
   <g id="patch_9">
    <path d="M 290.945411 124.28652 
L 311.36974 158.125248 
L 302.129007 164.105687 
L 292.935249 164.438815 
L 291.570576 137.081098 
L 290.945411 124.28652 
z
" clip-path="url(#p5e454f2814)" style="fill: #ffedd9; stroke: #ffedd9; stroke-linejoin: miter"/>
   </g>
   <g id="line2d_1">
    <path d="M 279.309749 114.048 
L 292.944693 120.317169 
L 290.945411 124.28652 
L 291.570576 137.081098 
L 292.935249 164.438815 
L 236.370182 166.471713 
L 229.510893 166.720783 
L 221.028499 116.441713 
L 235.539016 115.113362 
L 279.309749 114.048 
" clip-path="url(#p5e454f2814)" style="fill: none; stroke: #ffc380; stroke-width: 0.5; stroke-linecap: square"/>
   </g>
   <g id="line2d_2">
    <path d="M 209.028601 162.070308 
L 229.510893 166.720783 
L 236.370182 166.471713 
L 292.935249 164.438815 
L 302.129007 164.105687 
L 293.220806 170.882363 
L 261.642468 195.049727 
L 252.215681 222.325525 
L 253.714958 235.008 
L 236.118394 222.170922 
L 217.850391 208.17524 
L 211.587453 203.398612 
L 170.103551 188.141968 
L 170.673863 175.50747 
L 166.851121 164.028569 
L 182.312106 163.332398 
L 209.028601 162.070308 
" clip-path="url(#p5e454f2814)" style="fill: none; stroke: #ffc380; stroke-width: 0.5; stroke-linecap: square"/>
   </g>
   <g id="line2d_3">
    <path d="M 175.626451 121.020677 
L 202.127777 123.597472 
L 221.028499 116.441713 
L 229.510893 166.720783 
L 209.028601 162.070308 
L 182.312106 163.332398 
L 166.851121 164.028569 
L 160.95026 134.501736 
L 169.945832 127.421922 
L 175.626451 121.020677 
" clip-path="url(#p5e454f2814)" style="fill: none; stroke: #ffc380; stroke-width: 0.5; stroke-linecap: square"/>
   </g>
   <g id="line2d_4">
    <path d="M 290.945411 124.28652 
L 311.36974 158.125248 
L 302.129007 164.105687 
L 292.935249 164.438815 
L 291.570576 137.081098 
L 290.945411 124.28652 
" clip-path="url(#p5e454f2814)" style="fill: none; stroke: #ffc380; stroke-width: 0.5; stroke-linecap: square"/>
   </g>
   <g id="line2d_5">
    <path d="M 72.504253 116.393296 
L 82.876165 113.1344 
L 89.535488 111.106722 
L 98.389549 108.333856 
L 115.097692 103.174677 
L 105.503265 114.509236 
L 111.701829 132.310768 
L 93.135413 139.379383 
L 72.504253 116.393296 
" clip-path="url(#p5e454f2814)" style="fill: none; stroke: #8f8f8f; stroke-width: 0.2; stroke-linecap: square"/>
   </g>
   <g id="line2d_6">
    <path d="M 292.935249 164.438815 
L 293.220806 170.882363 
L 294.086358 188.576958 
L 295.337004 213.984451 
L 295.649998 220.336343 
L 304.341467 271.867999 
L 278.25899 273.239609 
L 248.127814 282.349558 
L 228.140358 279.271206 
L 206.546085 282.534012 
L 230.437213 233.793753 
L 217.850391 208.17524 
L 228.127207 204.182476 
L 230.800992 199.125526 
L 230.994245 175.408841 
L 229.510893 166.720783 
L 236.370182 166.471713 
L 292.935249 164.438815 
" clip-path="url(#p5e454f2814)" style="fill: none; stroke: #8f8f8f; stroke-width: 0.2; stroke-linecap: square"/>
   </g>
   <g id="line2d_7">
    <path d="M 236.118394 222.170922 
L 253.714958 235.008 
L 304.341467 271.867999 
L 278.25899 273.239609 
L 248.127814 282.349558 
L 228.140358 279.271206 
L 206.546085 282.534012 
L 230.437213 233.793753 
L 236.118394 222.170922 
" clip-path="url(#p5e454f2814)" style="fill: none; stroke: #8f8f8f; stroke-width: 0.2; stroke-linecap: square"/>
   </g>
   <g id="line2d_8">
    <path d="M 397.571682 46.98749 
L 401.03961 151.098847 
L 461.8 213.422713 
M 461.8 244.106157 
L 457.477342 247.187826 
L 366.887423 250.101203 
L 311.36974 158.125248 
L 290.945411 124.28652 
L 292.944693 120.317169 
L 307.043883 92.238653 
L 311.145356 84.149756 
L 313.772848 78.880525 
L 315.065043 76.927934 
L 331.663703 52.48336 
L 397.571682 46.98749 
L 401.03961 151.098847 
L 461.8 213.422713 
M 461.8 244.106157 
L 457.477342 247.187826 
L 366.887423 250.101203 
L 344.235994 216.10239 
L 307.33821 160.756935 
L 291.570576 137.081098 
L 287.599714 130.93147 
L 290.945411 124.28652 
L 292.944693 120.317169 
L 307.043883 92.238653 
L 311.145356 84.149756 
L 313.772848 78.880525 
L 315.065043 76.927934 
L 331.663703 52.48336 
L 397.571682 46.98749 
" clip-path="url(#p5e454f2814)" style="fill: none; stroke: #8f8f8f; stroke-width: 0.2; stroke-linecap: square"/>
   </g>
   <g id="line2d_9">
    <path d="M 331.663703 52.48336 
L 397.571682 46.98749 
L 454.090106 42.284825 
L 461.8 41.645709 
M 461.8 291.478188 
L 386.574087 298.992725 
L 337.623593 303.927386 
L 328.110514 294.579162 
L 304.341467 271.867999 
L 295.649998 220.336343 
L 295.337004 213.984451 
L 294.086358 188.576958 
L 293.220806 170.882363 
L 292.935249 164.438815 
L 291.570576 137.081098 
L 290.945411 124.28652 
L 292.944693 120.317169 
L 307.043883 92.238653 
L 311.145356 84.149756 
L 313.772848 78.880525 
L 315.065043 76.927934 
L 331.663703 52.48336 
L 397.571682 46.98749 
L 454.090106 42.284825 
L 461.8 41.645709 
M 461.8 244.106157 
L 457.477342 247.187826 
L 366.887423 250.101203 
L 311.36974 158.125248 
L 290.945411 124.28652 
L 292.944693 120.317169 
L 307.043883 92.238653 
L 311.145356 84.149756 
L 313.772848 78.880525 
L 315.065043 76.927934 
L 331.663703 52.48336 
" clip-path="url(#p5e454f2814)" style="fill: none; stroke: #8f8f8f; stroke-width: 0.2; stroke-linecap: square"/>
   </g>
   <g id="line2d_10">
    <path d="M 252.371618 33.829702 
L 279.859352 83.407511 
L 235.539016 115.113362 
L 221.028499 116.441713 
L 217.242016 94.038123 
L 216.415629 89.195305 
L 206.081057 80.005469 
L 194.069644 78.691421 
L 161.552981 88.758991 
L 162.217672 74.579432 
L 252.371618 33.829702 
" clip-path="url(#p5e454f2814)" style="fill: none; stroke: #8f8f8f; stroke-width: 0.2; stroke-linecap: square"/>
   </g>
   <g id="line2d_11">
    <path d="M 194.069644 78.691421 
L 197.941104 100.239846 
L 217.242016 94.038123 
L 221.028499 116.441713 
L 202.127777 123.597472 
L 175.626451 121.020677 
L 160.264768 116.61738 
L 161.552981 88.758991 
L 194.069644 78.691421 
" clip-path="url(#p5e454f2814)" style="fill: none; stroke: #8f8f8f; stroke-width: 0.2; stroke-linecap: square"/>
   </g>
   <g id="line2d_12">
    <path d="M 161.552981 88.758991 
L 160.264768 116.61738 
L 175.626451 121.020677 
L 169.945832 127.421922 
L 160.95026 134.501736 
L 138.560389 137.326025 
L 128.378885 99.01307 
L 144.8473 93.973476 
L 161.552981 88.758991 
" clip-path="url(#p5e454f2814)" style="fill: none; stroke: #8f8f8f; stroke-width: 0.2; stroke-linecap: square"/>
   </g>
   <g id="line2d_13">
    <path d="M 252.371618 33.829702 
L 279.859352 83.407511 
L 235.539016 115.113362 
L 221.028499 116.441713 
L 202.127777 123.597472 
L 175.626451 121.020677 
L 160.264768 116.61738 
L 161.552981 88.758991 
L 162.217672 74.579432 
L 252.371618 33.829702 
" clip-path="url(#p5e454f2814)" style="fill: none; stroke: #8f8f8f; stroke-width: 0.2; stroke-linecap: square"/>
   </g>
   <g id="line2d_14">
    <path d="M 279.859352 83.407511 
L 311.145356 84.149756 
L 307.043883 92.238653 
L 292.944693 120.317169 
L 279.309749 114.048 
L 235.539016 115.113362 
L 279.859352 83.407511 
" clip-path="url(#p5e454f2814)" style="fill: none; stroke: #8f8f8f; stroke-width: 0.2; stroke-linecap: square"/>
   </g>
   <g id="line2d_15">
    <path d="M 211.587453 203.398612 
L 217.850391 208.17524 
L 230.437213 233.793753 
L 206.546085 282.534012 
L 176.749539 285.461618 
L 165.680071 255.514767 
L 166.651225 243.011083 
L 169.008655 213.046772 
L 169.226786 207.956838 
L 171.422478 207.560573 
L 180.057193 206.017206 
L 186.91549 205.448729 
L 211.587453 203.398612 
" clip-path="url(#p5e454f2814)" style="fill: none; stroke: #8f8f8f; stroke-width: 0.2; stroke-linecap: square"/>
   </g>
   <g id="line2d_16">
    <path d="M 178.685617 191.91435 
L 213.896352 200.081125 
L 211.587453 203.398612 
L 186.91549 205.448729 
L 180.057193 206.017206 
L 171.422478 207.560573 
L 176.733387 201.8466 
L 178.685617 191.91435 
" clip-path="url(#p5e454f2814)" style="fill: none; stroke: #8f8f8f; stroke-width: 0.2; stroke-linecap: square"/>
   </g>
   <g id="line2d_17">
    <path d="M 217.850391 208.17524 
L 236.118394 222.170922 
L 230.437213 233.793753 
L 217.850391 208.17524 
" clip-path="url(#p5e454f2814)" style="fill: none; stroke: #8f8f8f; stroke-width: 0.2; stroke-linecap: square"/>
   </g>
   <g id="line2d_18">
    <path d="M 311.36974 158.125248 
L 366.887423 250.101203 
L 328.110514 294.579162 
L 304.341467 271.867999 
L 253.714958 235.008 
L 252.215681 222.325525 
L 261.642468 195.049727 
L 293.220806 170.882363 
L 302.129007 164.105687 
L 311.36974 158.125248 
" clip-path="url(#p5e454f2814)" style="fill: none; stroke: #8f8f8f; stroke-width: 0.2; stroke-linecap: square"/>
   </g>
   <g id="line2d_19">
    <path d="M 292.935249 164.438815 
L 293.220806 170.882363 
L 261.642468 195.049727 
L 252.215681 222.325525 
L 253.714958 235.008 
L 236.118394 222.170922 
L 217.850391 208.17524 
L 228.127207 204.182476 
L 230.800992 199.125526 
L 237.79621 174.887508 
L 236.370182 166.471713 
L 292.935249 164.438815 
" clip-path="url(#p5e454f2814)" style="fill: none; stroke: #8f8f8f; stroke-width: 0.2; stroke-linecap: square"/>
   </g>
   <g id="line2d_20">
    <path d="M 236.370182 166.471713 
L 237.79621 174.887508 
L 230.800992 199.125526 
L 230.994245 175.408841 
L 229.510893 166.720783 
L 236.370182 166.471713 
" clip-path="url(#p5e454f2814)" style="fill: none; stroke: #8f8f8f; stroke-width: 0.2; stroke-linecap: square"/>
   </g>
   <g id="line2d_21">
    <path d="M 160.95026 134.501736 
L 166.851121 164.028569 
L 132.424533 177.173779 
L 109.216746 186.005977 
L 102.853109 184.097218 
L 92.389694 180.752494 
L 87.316996 145.856418 
L 104.001675 145.807963 
L 120.410768 144.182379 
L 133.672807 142.828442 
L 138.560389 137.326025 
L 160.95026 134.501736 
" clip-path="url(#p5e454f2814)" style="fill: none; stroke: #8f8f8f; stroke-width: 0.2; stroke-linecap: square"/>
   </g>
   <g id="line2d_22">
    <path d="M 160.95026 134.501736 
L 166.851121 164.028569 
L 170.673863 175.50747 
L 170.103551 188.141968 
L 169.226786 207.956838 
L 169.008655 213.046772 
L 153.118307 210.81386 
L 133.744886 214.26283 
L 103.537095 217.016004 
L 97.89868 217.550461 
L 92.389694 180.752494 
L 87.316996 145.856418 
L 104.001675 145.807963 
L 120.410768 144.182379 
L 133.672807 142.828442 
L 138.560389 137.326025 
L 160.95026 134.501736 
" clip-path="url(#p5e454f2814)" style="fill: none; stroke: #8f8f8f; stroke-width: 0.2; stroke-linecap: square"/>
   </g>
   <g id="line2d_23">
    <path d="M 166.851121 164.028569 
L 182.312106 163.332398 
L 209.028601 162.070308 
L 229.510893 166.720783 
L 230.994245 175.408841 
L 213.896352 200.081125 
L 211.587453 203.398612 
L 170.103551 188.141968 
L 170.673863 175.50747 
L 166.851121 164.028569 
" clip-path="url(#p5e454f2814)" style="fill: none; stroke: #8f8f8f; stroke-width: 0.2; stroke-linecap: square"/>
   </g>
   <g id="line2d_24">
    <path d="M 230.994245 175.408841 
L 230.800992 199.125526 
L 228.127207 204.182476 
L 217.850391 208.17524 
L 211.587453 203.398612 
L 213.896352 200.081125 
L 230.994245 175.408841 
" clip-path="url(#p5e454f2814)" style="fill: none; stroke: #8f8f8f; stroke-width: 0.2; stroke-linecap: square"/>
   </g>
   <g id="line2d_25">
    <path d="M 166.851121 164.028569 
L 170.673863 175.50747 
L 170.103551 188.141968 
L 161.130717 180.914257 
L 166.851121 164.028569 
" clip-path="url(#p5e454f2814)" style="fill: none; stroke: #8f8f8f; stroke-width: 0.2; stroke-linecap: square"/>
   </g>
   <g id="line2d_26">
    <path d="M 279.309749 114.048 
L 292.944693 120.317169 
L 290.945411 124.28652 
L 291.570576 137.081098 
L 292.935249 164.438815 
L 236.370182 166.471713 
L 229.510893 166.720783 
L 221.028499 116.441713 
L 235.539016 115.113362 
L 279.309749 114.048 
L 279.309749 114.048 
" clip-path="url(#p5e454f2814)" style="fill: none; stroke: #ffc380; stroke-width: 0.5; stroke-linecap: square"/>
   </g>
   <g id="line2d_27">
    <path d="M 209.028601 162.070308 
L 229.510893 166.720783 
L 236.370182 166.471713 
L 292.935249 164.438815 
L 302.129007 164.105687 
L 293.220806 170.882363 
L 261.642468 195.049727 
L 252.215681 222.325525 
L 253.714958 235.008 
L 236.118394 222.170922 
L 217.850391 208.17524 
L 211.587453 203.398612 
L 170.103551 188.141968 
L 170.673863 175.50747 
L 166.851121 164.028569 
L 182.312106 163.332398 
L 209.028601 162.070308 
L 209.028601 162.070308 
" clip-path="url(#p5e454f2814)" style="fill: none; stroke: #ffc380; stroke-width: 0.5; stroke-linecap: square"/>
   </g>
   <g id="line2d_28">
    <path d="M 175.626451 121.020677 
L 202.127777 123.597472 
L 221.028499 116.441713 
L 229.510893 166.720783 
L 209.028601 162.070308 
L 182.312106 163.332398 
L 166.851121 164.028569 
L 160.95026 134.501736 
L 169.945832 127.421922 
L 175.626451 121.020677 
L 175.626451 121.020677 
" clip-path="url(#p5e454f2814)" style="fill: none; stroke: #ffc380; stroke-width: 0.5; stroke-linecap: square"/>
   </g>
   <g id="line2d_29">
    <path d="M 290.945411 124.28652 
L 311.36974 158.125248 
L 302.129007 164.105687 
L 292.935249 164.438815 
L 291.570576 137.081098 
L 290.945411 124.28652 
L 290.945411 124.28652 
" clip-path="url(#p5e454f2814)" style="fill: none; stroke: #ffc380; stroke-width: 0.5; stroke-linecap: square"/>
   </g>
   <g id="text_1">
    <!-- ADF8 -->
    <g style="opacity: 0.5" transform="translate(86.084441 116.391175)scale(0.0579 -0.0579)">
     <defs>
      <path id="DejaVuSans-41" d="M 2188 4044 
L 1331 1722 
L 3047 1722 
L 2188 4044 
z
M 1831 4666 
L 2547 4666 
L 4325 0 
L 3669 0 
L 3244 1197 
L 1141 1197 
L 716 0 
L 50 0 
L 1831 4666 
z
" transform="scale(0.015625)"/>
      <path id="DejaVuSans-44" d="M 1259 4147 
L 1259 519 
L 2022 519 
Q 2988 519 3436 956 
Q 3884 1394 3884 2338 
Q 3884 3275 3436 3711 
Q 2988 4147 2022 4147 
L 1259 4147 
z
M 628 4666 
L 1925 4666 
Q 3281 4666 3915 4102 
Q 4550 3538 4550 2338 
Q 4550 1131 3912 565 
Q 3275 0 1925 0 
L 628 0 
L 628 4666 
z
" transform="scale(0.015625)"/>
      <path id="DejaVuSans-46" d="M 628 4666 
L 3309 4666 
L 3309 4134 
L 1259 4134 
L 1259 2759 
L 3109 2759 
L 3109 2228 
L 1259 2228 
L 1259 0 
L 628 0 
L 628 4666 
z
" transform="scale(0.015625)"/>
      <path id="DejaVuSans-38" d="M 2034 2216 
Q 1584 2216 1326 1975 
Q 1069 1734 1069 1313 
Q 1069 891 1326 650 
Q 1584 409 2034 409 
Q 2484 409 2743 651 
Q 3003 894 3003 1313 
Q 3003 1734 2745 1975 
Q 2488 2216 2034 2216 
z
M 1403 2484 
Q 997 2584 770 2862 
Q 544 3141 544 3541 
Q 544 4100 942 4425 
Q 1341 4750 2034 4750 
Q 2731 4750 3128 4425 
Q 3525 4100 3525 3541 
Q 3525 3141 3298 2862 
Q 3072 2584 2669 2484 
Q 3125 2378 3379 2068 
Q 3634 1759 3634 1313 
Q 3634 634 3220 271 
Q 2806 -91 2034 -91 
Q 1263 -91 848 271 
Q 434 634 434 1313 
Q 434 1759 690 2068 
Q 947 2378 1403 2484 
z
M 1172 3481 
Q 1172 3119 1398 2916 
Q 1625 2713 2034 2713 
Q 2441 2713 2670 2916 
Q 2900 3119 2900 3481 
Q 2900 3844 2670 4047 
Q 2441 4250 2034 4250 
Q 1625 4250 1398 4047 
Q 1172 3844 1172 3481 
z
" transform="scale(0.015625)"/>
     </defs>
     <use xlink:href="#DejaVuSans-41"/>
     <use xlink:href="#DejaVuSans-44" x="68.408203"/>
     <use xlink:href="#DejaVuSans-46" x="145.410156"/>
     <use xlink:href="#DejaVuSans-38" x="202.929688"/>
    </g>
    <!-- 135 -->
    <g style="opacity: 0.5" transform="translate(88.275142 122.874708)scale(0.0579 -0.0579)">
     <defs>
      <path id="DejaVuSans-31" d="M 794 531 
L 1825 531 
L 1825 4091 
L 703 3866 
L 703 4441 
L 1819 4666 
L 2450 4666 
L 2450 531 
L 3481 531 
L 3481 0 
L 794 0 
L 794 531 
z
" transform="scale(0.015625)"/>
      <path id="DejaVuSans-33" d="M 2597 2516 
Q 3050 2419 3304 2112 
Q 3559 1806 3559 1356 
Q 3559 666 3084 287 
Q 2609 -91 1734 -91 
Q 1441 -91 1130 -33 
Q 819 25 488 141 
L 488 750 
Q 750 597 1062 519 
Q 1375 441 1716 441 
Q 2309 441 2620 675 
Q 2931 909 2931 1356 
Q 2931 1769 2642 2001 
Q 2353 2234 1838 2234 
L 1294 2234 
L 1294 2753 
L 1863 2753 
Q 2328 2753 2575 2939 
Q 2822 3125 2822 3475 
Q 2822 3834 2567 4026 
Q 2313 4219 1838 4219 
Q 1578 4219 1281 4162 
Q 984 4106 628 3988 
L 628 4550 
Q 988 4650 1302 4700 
Q 1616 4750 1894 4750 
Q 2613 4750 3031 4423 
Q 3450 4097 3450 3541 
Q 3450 3153 3228 2886 
Q 3006 2619 2597 2516 
z
" transform="scale(0.015625)"/>
      <path id="DejaVuSans-35" d="M 691 4666 
L 3169 4666 
L 3169 4134 
L 1269 4134 
L 1269 2991 
Q 1406 3038 1543 3061 
Q 1681 3084 1819 3084 
Q 2600 3084 3056 2656 
Q 3513 2228 3513 1497 
Q 3513 744 3044 326 
Q 2575 -91 1722 -91 
Q 1428 -91 1123 -41 
Q 819 9 494 109 
L 494 744 
Q 775 591 1075 516 
Q 1375 441 1709 441 
Q 2250 441 2565 725 
Q 2881 1009 2881 1497 
Q 2881 1984 2565 2268 
Q 2250 2553 1709 2553 
Q 1456 2553 1204 2497 
Q 953 2441 691 2322 
L 691 4666 
z
" transform="scale(0.015625)"/>
     </defs>
     <use xlink:href="#DejaVuSans-31"/>
     <use xlink:href="#DejaVuSans-33" x="63.623047"/>
     <use xlink:href="#DejaVuSans-35" x="127.246094"/>
    </g>
    <!-- GND -->
    <g style="opacity: 0.5" transform="translate(87.162828 129.358241)scale(0.0579 -0.0579)">
     <defs>
      <path id="DejaVuSans-47" d="M 3809 666 
L 3809 1919 
L 2778 1919 
L 2778 2438 
L 4434 2438 
L 4434 434 
Q 4069 175 3628 42 
Q 3188 -91 2688 -91 
Q 1594 -91 976 548 
Q 359 1188 359 2328 
Q 359 3472 976 4111 
Q 1594 4750 2688 4750 
Q 3144 4750 3555 4637 
Q 3966 4525 4313 4306 
L 4313 3634 
Q 3963 3931 3569 4081 
Q 3175 4231 2741 4231 
Q 1884 4231 1454 3753 
Q 1025 3275 1025 2328 
Q 1025 1384 1454 906 
Q 1884 428 2741 428 
Q 3075 428 3337 486 
Q 3600 544 3809 666 
z
" transform="scale(0.015625)"/>
      <path id="DejaVuSans-4e" d="M 628 4666 
L 1478 4666 
L 3547 763 
L 3547 4666 
L 4159 4666 
L 4159 0 
L 3309 0 
L 1241 3903 
L 1241 0 
L 628 0 
L 628 4666 
z
" transform="scale(0.015625)"/>
     </defs>
     <use xlink:href="#DejaVuSans-47"/>
     <use xlink:href="#DejaVuSans-4e" x="77.490234"/>
     <use xlink:href="#DejaVuSans-44" x="152.294922"/>
    </g>
   </g>
   <g id="text_2">
    <!-- DKB1 -->
    <g style="opacity: 0.5" transform="translate(247.487954 218.600558)scale(0.0579 -0.0579)">
     <defs>
      <path id="DejaVuSans-4b" d="M 628 4666 
L 1259 4666 
L 1259 2694 
L 3353 4666 
L 4166 4666 
L 1850 2491 
L 4331 0 
L 3500 0 
L 1259 2247 
L 1259 0 
L 628 0 
L 628 4666 
z
" transform="scale(0.015625)"/>
      <path id="DejaVuSans-42" d="M 1259 2228 
L 1259 519 
L 2272 519 
Q 2781 519 3026 730 
Q 3272 941 3272 1375 
Q 3272 1813 3026 2020 
Q 2781 2228 2272 2228 
L 1259 2228 
z
M 1259 4147 
L 1259 2741 
L 2194 2741 
Q 2656 2741 2882 2914 
Q 3109 3088 3109 3444 
Q 3109 3797 2882 3972 
Q 2656 4147 2194 4147 
L 1259 4147 
z
M 628 4666 
L 2241 4666 
Q 2963 4666 3353 4366 
Q 3744 4066 3744 3513 
Q 3744 3084 3544 2831 
Q 3344 2578 2956 2516 
Q 3422 2416 3680 2098 
Q 3938 1781 3938 1306 
Q 3938 681 3513 340 
Q 3088 0 2303 0 
L 628 0 
L 628 4666 
z
" transform="scale(0.015625)"/>
     </defs>
     <use xlink:href="#DejaVuSans-44"/>
     <use xlink:href="#DejaVuSans-4b" x="77.001953"/>
     <use xlink:href="#DejaVuSans-42" x="142.578125"/>
     <use xlink:href="#DejaVuSans-31" x="211.181641"/>
    </g>
    <!-- 85 -->
    <g style="opacity: 0.5" transform="translate(251.759889 225.084092)scale(0.0579 -0.0579)">
     <use xlink:href="#DejaVuSans-38"/>
     <use xlink:href="#DejaVuSans-35" x="63.623047"/>
    </g>
    <!-- GND -->
    <g style="opacity: 0.5" transform="translate(248.805632 231.567625)scale(0.0579 -0.0579)">
     <use xlink:href="#DejaVuSans-47"/>
     <use xlink:href="#DejaVuSans-4e" x="77.490234"/>
     <use xlink:href="#DejaVuSans-44" x="152.294922"/>
    </g>
   </g>
   <g id="text_3">
    <!-- DKB3 -->
    <g style="opacity: 0.5" transform="translate(247.487954 247.466612)scale(0.0579 -0.0579)">
     <use xlink:href="#DejaVuSans-44"/>
     <use xlink:href="#DejaVuSans-4b" x="77.001953"/>
     <use xlink:href="#DejaVuSans-42" x="142.578125"/>
     <use xlink:href="#DejaVuSans-33" x="211.181641"/>
    </g>
    <!-- 245 -->
    <g style="opacity: 0.5" transform="translate(249.917945 253.950145)scale(0.0579 -0.0579)">
     <defs>
      <path id="DejaVuSans-32" d="M 1228 531 
L 3431 531 
L 3431 0 
L 469 0 
L 469 531 
Q 828 903 1448 1529 
Q 2069 2156 2228 2338 
Q 2531 2678 2651 2914 
Q 2772 3150 2772 3378 
Q 2772 3750 2511 3984 
Q 2250 4219 1831 4219 
Q 1534 4219 1204 4116 
Q 875 4013 500 3803 
L 500 4441 
Q 881 4594 1212 4672 
Q 1544 4750 1819 4750 
Q 2544 4750 2975 4387 
Q 3406 4025 3406 3419 
Q 3406 3131 3298 2873 
Q 3191 2616 2906 2266 
Q 2828 2175 2409 1742 
Q 1991 1309 1228 531 
z
" transform="scale(0.015625)"/>
      <path id="DejaVuSans-34" d="M 2419 4116 
L 825 1625 
L 2419 1625 
L 2419 4116 
z
M 2253 4666 
L 3047 4666 
L 3047 1625 
L 3713 1625 
L 3713 1100 
L 3047 1100 
L 3047 0 
L 2419 0 
L 2419 1100 
L 313 1100 
L 313 1709 
L 2253 4666 
z
" transform="scale(0.015625)"/>
     </defs>
     <use xlink:href="#DejaVuSans-32"/>
     <use xlink:href="#DejaVuSans-34" x="63.623047"/>
     <use xlink:href="#DejaVuSans-35" x="127.246094"/>
    </g>
    <!-- 85 -->
    <g style="opacity: 0.5" transform="translate(251.759889 260.433679)scale(0.0579 -0.0579)">
     <use xlink:href="#DejaVuSans-38"/>
     <use xlink:href="#DejaVuSans-35" x="63.623047"/>
    </g>
   </g>
   <g id="text_4">
    <!-- EDMMBBG -->
    <g style="opacity: 0.5" transform="translate(368.304717 143.658491)scale(0.0579 -0.0579)">
     <defs>
      <path id="DejaVuSans-45" d="M 628 4666 
L 3578 4666 
L 3578 4134 
L 1259 4134 
L 1259 2753 
L 3481 2753 
L 3481 2222 
L 1259 2222 
L 1259 531 
L 3634 531 
L 3634 0 
L 628 0 
L 628 4666 
z
" transform="scale(0.015625)"/>
      <path id="DejaVuSans-4d" d="M 628 4666 
L 1569 4666 
L 2759 1491 
L 3956 4666 
L 4897 4666 
L 4897 0 
L 4281 0 
L 4281 4097 
L 3078 897 
L 2444 897 
L 1241 4097 
L 1241 0 
L 628 0 
L 628 4666 
z
" transform="scale(0.015625)"/>
     </defs>
     <use xlink:href="#DejaVuSans-45"/>
     <use xlink:href="#DejaVuSans-44" x="63.183594"/>
     <use xlink:href="#DejaVuSans-4d" x="140.185547"/>
     <use xlink:href="#DejaVuSans-4d" x="226.464844"/>
     <use xlink:href="#DejaVuSans-42" x="312.744141"/>
     <use xlink:href="#DejaVuSans-42" x="381.347656"/>
     <use xlink:href="#DejaVuSans-47" x="448.201172"/>
    </g>
    <!-- 245 -->
    <g style="opacity: 0.5" transform="translate(377.997991 150.142025)scale(0.0579 -0.0579)">
     <use xlink:href="#DejaVuSans-32"/>
     <use xlink:href="#DejaVuSans-34" x="63.623047"/>
     <use xlink:href="#DejaVuSans-35" x="127.246094"/>
    </g>
    <!-- 195 -->
    <g style="opacity: 0.5" transform="translate(377.997991 156.625558)scale(0.0579 -0.0579)">
     <defs>
      <path id="DejaVuSans-39" d="M 703 97 
L 703 672 
Q 941 559 1184 500 
Q 1428 441 1663 441 
Q 2288 441 2617 861 
Q 2947 1281 2994 2138 
Q 2813 1869 2534 1725 
Q 2256 1581 1919 1581 
Q 1219 1581 811 2004 
Q 403 2428 403 3163 
Q 403 3881 828 4315 
Q 1253 4750 1959 4750 
Q 2769 4750 3195 4129 
Q 3622 3509 3622 2328 
Q 3622 1225 3098 567 
Q 2575 -91 1691 -91 
Q 1453 -91 1209 -44 
Q 966 3 703 97 
z
M 1959 2075 
Q 2384 2075 2632 2365 
Q 2881 2656 2881 3163 
Q 2881 3666 2632 3958 
Q 2384 4250 1959 4250 
Q 1534 4250 1286 3958 
Q 1038 3666 1038 3163 
Q 1038 2656 1286 2365 
Q 1534 2075 1959 2075 
z
" transform="scale(0.015625)"/>
     </defs>
     <use xlink:href="#DejaVuSans-31"/>
     <use xlink:href="#DejaVuSans-39" x="63.623047"/>
     <use xlink:href="#DejaVuSans-35" x="127.246094"/>
    </g>
   </g>
   <g id="text_5">
    <!-- EDMMFRKL -->
    <g style="opacity: 0.5" transform="translate(402.2612 167.24728)scale(0.0579 -0.0579)">
     <defs>
      <path id="DejaVuSans-52" d="M 2841 2188 
Q 3044 2119 3236 1894 
Q 3428 1669 3622 1275 
L 4263 0 
L 3584 0 
L 2988 1197 
Q 2756 1666 2539 1819 
Q 2322 1972 1947 1972 
L 1259 1972 
L 1259 0 
L 628 0 
L 628 4666 
L 2053 4666 
Q 2853 4666 3247 4331 
Q 3641 3997 3641 3322 
Q 3641 2881 3436 2590 
Q 3231 2300 2841 2188 
z
M 1259 4147 
L 1259 2491 
L 2053 2491 
Q 2509 2491 2742 2702 
Q 2975 2913 2975 3322 
Q 2975 3731 2742 3939 
Q 2509 4147 2053 4147 
L 1259 4147 
z
" transform="scale(0.015625)"/>
      <path id="DejaVuSans-4c" d="M 628 4666 
L 1259 4666 
L 1259 531 
L 3531 531 
L 3531 0 
L 628 0 
L 628 4666 
z
" transform="scale(0.015625)"/>
     </defs>
     <use xlink:href="#DejaVuSans-45"/>
     <use xlink:href="#DejaVuSans-44" x="63.183594"/>
     <use xlink:href="#DejaVuSans-4d" x="140.185547"/>
     <use xlink:href="#DejaVuSans-4d" x="226.464844"/>
     <use xlink:href="#DejaVuSans-46" x="312.744141"/>
     <use xlink:href="#DejaVuSans-52" x="370.263672"/>
     <use xlink:href="#DejaVuSans-4b" x="439.746094"/>
     <use xlink:href="#DejaVuSans-4c" x="505.322266"/>
    </g>
    <!-- 135 -->
    <g style="opacity: 0.5" transform="translate(412.977675 173.730813)scale(0.0579 -0.0579)">
     <use xlink:href="#DejaVuSans-31"/>
     <use xlink:href="#DejaVuSans-33" x="63.623047"/>
     <use xlink:href="#DejaVuSans-35" x="127.246094"/>
    </g>
    <!-- GND -->
    <g style="opacity: 0.5" transform="translate(411.865362 180.214346)scale(0.0579 -0.0579)">
     <use xlink:href="#DejaVuSans-47"/>
     <use xlink:href="#DejaVuSans-4e" x="77.490234"/>
     <use xlink:href="#DejaVuSans-44" x="152.294922"/>
    </g>
   </g>
   <g id="text_6">
    <!-- GED1 -->
    <g style="opacity: 0.5" transform="translate(212.562622 70.249852)scale(0.0579 -0.0579)">
     <use xlink:href="#DejaVuSans-47"/>
     <use xlink:href="#DejaVuSans-45" x="77.490234"/>
     <use xlink:href="#DejaVuSans-44" x="140.673828"/>
     <use xlink:href="#DejaVuSans-31" x="217.675781"/>
    </g>
    <!-- 215 -->
    <g style="opacity: 0.5" transform="translate(215.180335 76.733385)scale(0.0579 -0.0579)">
     <use xlink:href="#DejaVuSans-32"/>
     <use xlink:href="#DejaVuSans-31" x="63.623047"/>
     <use xlink:href="#DejaVuSans-35" x="127.246094"/>
    </g>
    <!-- GND -->
    <g style="opacity: 0.5" transform="translate(214.068022 83.216919)scale(0.0579 -0.0579)">
     <use xlink:href="#DejaVuSans-47"/>
     <use xlink:href="#DejaVuSans-4e" x="77.490234"/>
     <use xlink:href="#DejaVuSans-44" x="152.294922"/>
    </g>
   </g>
   <g id="text_7">
    <!-- GED3 -->
    <g style="opacity: 0.5" transform="translate(182.503089 96.258591)scale(0.0579 -0.0579)">
     <use xlink:href="#DejaVuSans-47"/>
     <use xlink:href="#DejaVuSans-45" x="77.490234"/>
     <use xlink:href="#DejaVuSans-44" x="140.673828"/>
     <use xlink:href="#DejaVuSans-33" x="217.675781"/>
    </g>
    <!-- 215 -->
    <g style="opacity: 0.5" transform="translate(185.120803 102.742124)scale(0.0579 -0.0579)">
     <use xlink:href="#DejaVuSans-32"/>
     <use xlink:href="#DejaVuSans-31" x="63.623047"/>
     <use xlink:href="#DejaVuSans-35" x="127.246094"/>
    </g>
    <!-- 135 -->
    <g style="opacity: 0.5" transform="translate(185.120803 109.225658)scale(0.0579 -0.0579)">
     <use xlink:href="#DejaVuSans-31"/>
     <use xlink:href="#DejaVuSans-33" x="63.623047"/>
     <use xlink:href="#DejaVuSans-35" x="127.246094"/>
    </g>
   </g>
   <g id="text_8">
    <!-- GIN4 -->
    <g style="opacity: 0.5" transform="translate(144.897705 108.156652)scale(0.0579 -0.0579)">
     <defs>
      <path id="DejaVuSans-49" d="M 628 4666 
L 1259 4666 
L 1259 0 
L 628 0 
L 628 4666 
z
" transform="scale(0.015625)"/>
     </defs>
     <use xlink:href="#DejaVuSans-47"/>
     <use xlink:href="#DejaVuSans-49" x="77.490234"/>
     <use xlink:href="#DejaVuSans-4e" x="106.982422"/>
     <use xlink:href="#DejaVuSans-34" x="181.787109"/>
    </g>
    <!-- 245 -->
    <g style="opacity: 0.5" transform="translate(146.476837 114.640186)scale(0.0579 -0.0579)">
     <use xlink:href="#DejaVuSans-32"/>
     <use xlink:href="#DejaVuSans-34" x="63.623047"/>
     <use xlink:href="#DejaVuSans-35" x="127.246094"/>
    </g>
    <!-- 135 -->
    <g style="opacity: 0.5" transform="translate(146.476837 121.123719)scale(0.0579 -0.0579)">
     <use xlink:href="#DejaVuSans-31"/>
     <use xlink:href="#DejaVuSans-33" x="63.623047"/>
     <use xlink:href="#DejaVuSans-35" x="127.246094"/>
    </g>
   </g>
   <g id="text_9">
    <!-- HEF11 -->
    <g style="opacity: 0.5" transform="translate(210.706687 73.827731)scale(0.0579 -0.0579)">
     <defs>
      <path id="DejaVuSans-48" d="M 628 4666 
L 1259 4666 
L 1259 2753 
L 3553 2753 
L 3553 4666 
L 4184 4666 
L 4184 0 
L 3553 0 
L 3553 2222 
L 1259 2222 
L 1259 0 
L 628 0 
L 628 4666 
z
" transform="scale(0.015625)"/>
     </defs>
     <use xlink:href="#DejaVuSans-48"/>
     <use xlink:href="#DejaVuSans-45" x="75.195312"/>
     <use xlink:href="#DejaVuSans-46" x="138.378906"/>
     <use xlink:href="#DejaVuSans-31" x="195.898438"/>
     <use xlink:href="#DejaVuSans-31" x="259.521484"/>
    </g>
    <!-- 245 -->
    <g style="opacity: 0.5" transform="translate(214.536229 80.311265)scale(0.0579 -0.0579)">
     <use xlink:href="#DejaVuSans-32"/>
     <use xlink:href="#DejaVuSans-34" x="63.623047"/>
     <use xlink:href="#DejaVuSans-35" x="127.246094"/>
    </g>
    <!-- 215 -->
    <g style="opacity: 0.5" transform="translate(214.536229 86.794798)scale(0.0579 -0.0579)">
     <use xlink:href="#DejaVuSans-32"/>
     <use xlink:href="#DejaVuSans-31" x="63.623047"/>
     <use xlink:href="#DejaVuSans-35" x="127.246094"/>
    </g>
   </g>
   <g id="text_10">
    <!-- HEF6 -->
    <g style="opacity: 0.5" transform="translate(265.828756 96.976485)scale(0.0579 -0.0579)">
     <defs>
      <path id="DejaVuSans-36" d="M 2113 2584 
Q 1688 2584 1439 2293 
Q 1191 2003 1191 1497 
Q 1191 994 1439 701 
Q 1688 409 2113 409 
Q 2538 409 2786 701 
Q 3034 994 3034 1497 
Q 3034 2003 2786 2293 
Q 2538 2584 2113 2584 
z
M 3366 4563 
L 3366 3988 
Q 3128 4100 2886 4159 
Q 2644 4219 2406 4219 
Q 1781 4219 1451 3797 
Q 1122 3375 1075 2522 
Q 1259 2794 1537 2939 
Q 1816 3084 2150 3084 
Q 2853 3084 3261 2657 
Q 3669 2231 3669 1497 
Q 3669 778 3244 343 
Q 2819 -91 2113 -91 
Q 1303 -91 875 529 
Q 447 1150 447 2328 
Q 447 3434 972 4092 
Q 1497 4750 2381 4750 
Q 2619 4750 2861 4703 
Q 3103 4656 3366 4563 
z
" transform="scale(0.015625)"/>
     </defs>
     <use xlink:href="#DejaVuSans-48"/>
     <use xlink:href="#DejaVuSans-45" x="75.195312"/>
     <use xlink:href="#DejaVuSans-46" x="138.378906"/>
     <use xlink:href="#DejaVuSans-36" x="195.898438"/>
    </g>
    <!-- 245 -->
    <g style="opacity: 0.5" transform="translate(267.816355 103.460018)scale(0.0579 -0.0579)">
     <use xlink:href="#DejaVuSans-32"/>
     <use xlink:href="#DejaVuSans-34" x="63.623047"/>
     <use xlink:href="#DejaVuSans-35" x="127.246094"/>
    </g>
    <!-- GND -->
    <g style="opacity: 0.5" transform="translate(266.704042 109.943551)scale(0.0579 -0.0579)">
     <use xlink:href="#DejaVuSans-47"/>
     <use xlink:href="#DejaVuSans-4e" x="77.490234"/>
     <use xlink:href="#DejaVuSans-44" x="152.294922"/>
    </g>
   </g>
   <g id="text_11">
    <!-- KNG1 -->
    <g style="opacity: 0.5" transform="translate(189.909217 239.54426)scale(0.0579 -0.0579)">
     <use xlink:href="#DejaVuSans-4b"/>
     <use xlink:href="#DejaVuSans-4e" x="65.576172"/>
     <use xlink:href="#DejaVuSans-47" x="140.380859"/>
     <use xlink:href="#DejaVuSans-31" x="217.871094"/>
    </g>
    <!-- 245 -->
    <g style="opacity: 0.5" transform="translate(192.532811 246.027794)scale(0.0579 -0.0579)">
     <use xlink:href="#DejaVuSans-32"/>
     <use xlink:href="#DejaVuSans-34" x="63.623047"/>
     <use xlink:href="#DejaVuSans-35" x="127.246094"/>
    </g>
    <!-- GND -->
    <g style="opacity: 0.5" transform="translate(191.420497 252.511327)scale(0.0579 -0.0579)">
     <use xlink:href="#DejaVuSans-47"/>
     <use xlink:href="#DejaVuSans-4e" x="77.490234"/>
     <use xlink:href="#DejaVuSans-44" x="152.294922"/>
    </g>
   </g>
   <g id="text_12">
    <!-- KNG2 -->
    <g style="opacity: 0.5" transform="translate(184.50999 194.851606)scale(0.0579 -0.0579)">
     <use xlink:href="#DejaVuSans-4b"/>
     <use xlink:href="#DejaVuSans-4e" x="65.576172"/>
     <use xlink:href="#DejaVuSans-47" x="140.380859"/>
     <use xlink:href="#DejaVuSans-32" x="217.871094"/>
    </g>
    <!-- 135 -->
    <g style="opacity: 0.5" transform="translate(187.133584 201.33514)scale(0.0579 -0.0579)">
     <use xlink:href="#DejaVuSans-31"/>
     <use xlink:href="#DejaVuSans-33" x="63.623047"/>
     <use xlink:href="#DejaVuSans-35" x="127.246094"/>
    </g>
    <!-- GND -->
    <g style="opacity: 0.5" transform="translate(186.021271 207.818673)scale(0.0579 -0.0579)">
     <use xlink:href="#DejaVuSans-47"/>
     <use xlink:href="#DejaVuSans-4e" x="77.490234"/>
     <use xlink:href="#DejaVuSans-44" x="152.294922"/>
    </g>
   </g>
   <g id="text_13">
    <!-- KNG3 -->
    <g style="opacity: 0.5" transform="translate(218.834968 216.098641)scale(0.0579 -0.0579)">
     <use xlink:href="#DejaVuSans-4b"/>
     <use xlink:href="#DejaVuSans-4e" x="65.576172"/>
     <use xlink:href="#DejaVuSans-47" x="140.380859"/>
     <use xlink:href="#DejaVuSans-33" x="217.871094"/>
    </g>
    <!-- 245 -->
    <g style="opacity: 0.5" transform="translate(221.458561 222.582175)scale(0.0579 -0.0579)">
     <use xlink:href="#DejaVuSans-32"/>
     <use xlink:href="#DejaVuSans-34" x="63.623047"/>
     <use xlink:href="#DejaVuSans-35" x="127.246094"/>
    </g>
    <!-- 85 -->
    <g style="opacity: 0.5" transform="translate(223.300505 229.065708)scale(0.0579 -0.0579)">
     <use xlink:href="#DejaVuSans-38"/>
     <use xlink:href="#DejaVuSans-35" x="63.623047"/>
    </g>
   </g>
   <g id="text_14">
    <!-- KTG1 -->
    <g style="opacity: 0.5" transform="translate(302.0241 221.46635)scale(0.0579 -0.0579)">
     <defs>
      <path id="DejaVuSans-54" d="M -19 4666 
L 3928 4666 
L 3928 4134 
L 2272 4134 
L 2272 0 
L 1638 0 
L 1638 4134 
L -19 4134 
L -19 4666 
z
" transform="scale(0.015625)"/>
     </defs>
     <use xlink:href="#DejaVuSans-4b"/>
     <use xlink:href="#DejaVuSans-54" x="57.826172"/>
     <use xlink:href="#DejaVuSans-47" x="118.910156"/>
     <use xlink:href="#DejaVuSans-31" x="196.400391"/>
    </g>
    <!-- 245 -->
    <g style="opacity: 0.5" transform="translate(304.025721 227.949883)scale(0.0579 -0.0579)">
     <use xlink:href="#DejaVuSans-32"/>
     <use xlink:href="#DejaVuSans-34" x="63.623047"/>
     <use xlink:href="#DejaVuSans-35" x="127.246094"/>
    </g>
    <!-- 135 -->
    <g style="opacity: 0.5" transform="translate(304.025721 234.433416)scale(0.0579 -0.0579)">
     <use xlink:href="#DejaVuSans-31"/>
     <use xlink:href="#DejaVuSans-33" x="63.623047"/>
     <use xlink:href="#DejaVuSans-35" x="127.246094"/>
    </g>
   </g>
   <g id="text_15">
    <!-- KTG2 -->
    <g style="opacity: 0.5" transform="translate(248.008146 194.837552)scale(0.0579 -0.0579)">
     <use xlink:href="#DejaVuSans-4b"/>
     <use xlink:href="#DejaVuSans-54" x="57.826172"/>
     <use xlink:href="#DejaVuSans-47" x="118.910156"/>
     <use xlink:href="#DejaVuSans-32" x="196.400391"/>
    </g>
    <!-- 195 -->
    <g style="opacity: 0.5" transform="translate(250.009767 201.321086)scale(0.0579 -0.0579)">
     <use xlink:href="#DejaVuSans-31"/>
     <use xlink:href="#DejaVuSans-39" x="63.623047"/>
     <use xlink:href="#DejaVuSans-35" x="127.246094"/>
    </g>
    <!-- 85 -->
    <g style="opacity: 0.5" transform="translate(251.851711 207.804619)scale(0.0579 -0.0579)">
     <use xlink:href="#DejaVuSans-38"/>
     <use xlink:href="#DejaVuSans-35" x="63.623047"/>
    </g>
   </g>
   <g id="text_16">
    <!-- KTG5 -->
    <g style="opacity: 0.5" transform="translate(226.126099 177.912764)scale(0.0579 -0.0579)">
     <use xlink:href="#DejaVuSans-4b"/>
     <use xlink:href="#DejaVuSans-54" x="57.826172"/>
     <use xlink:href="#DejaVuSans-47" x="118.910156"/>
     <use xlink:href="#DejaVuSans-35" x="196.400391"/>
    </g>
    <!-- 195 -->
    <g style="opacity: 0.5" transform="translate(228.12772 184.396298)scale(0.0579 -0.0579)">
     <use xlink:href="#DejaVuSans-31"/>
     <use xlink:href="#DejaVuSans-39" x="63.623047"/>
     <use xlink:href="#DejaVuSans-35" x="127.246094"/>
    </g>
    <!-- 85 -->
    <g style="opacity: 0.5" transform="translate(229.969664 190.879831)scale(0.0579 -0.0579)">
     <use xlink:href="#DejaVuSans-38"/>
     <use xlink:href="#DejaVuSans-35" x="63.623047"/>
    </g>
   </g>
   <g id="text_17">
    <!-- MAN2 -->
    <g style="opacity: 0.5" transform="translate(118.59809 155.368001)scale(0.0579 -0.0579)">
     <use xlink:href="#DejaVuSans-4d"/>
     <use xlink:href="#DejaVuSans-41" x="86.279297"/>
     <use xlink:href="#DejaVuSans-4e" x="154.6875"/>
     <use xlink:href="#DejaVuSans-32" x="229.492188"/>
    </g>
    <!-- 175 -->
    <g style="opacity: 0.5" transform="translate(121.558227 161.851534)scale(0.0579 -0.0579)">
     <defs>
      <path id="DejaVuSans-37" d="M 525 4666 
L 3525 4666 
L 3525 4397 
L 1831 0 
L 1172 0 
L 2766 4134 
L 525 4134 
L 525 4666 
z
" transform="scale(0.015625)"/>
     </defs>
     <use xlink:href="#DejaVuSans-31"/>
     <use xlink:href="#DejaVuSans-37" x="63.623047"/>
     <use xlink:href="#DejaVuSans-35" x="127.246094"/>
    </g>
    <!-- 135 -->
    <g style="opacity: 0.5" transform="translate(121.558227 168.335068)scale(0.0579 -0.0579)">
     <use xlink:href="#DejaVuSans-31"/>
     <use xlink:href="#DejaVuSans-33" x="63.623047"/>
     <use xlink:href="#DejaVuSans-35" x="127.246094"/>
    </g>
   </g>
   <g id="text_18">
    <!-- MAN3 -->
    <g style="opacity: 0.5" transform="translate(120.509461 171.140243)scale(0.0579 -0.0579)">
     <use xlink:href="#DejaVuSans-4d"/>
     <use xlink:href="#DejaVuSans-41" x="86.279297"/>
     <use xlink:href="#DejaVuSans-4e" x="154.6875"/>
     <use xlink:href="#DejaVuSans-33" x="229.492188"/>
    </g>
    <!-- 245 -->
    <g style="opacity: 0.5" transform="translate(123.469599 177.623776)scale(0.0579 -0.0579)">
     <use xlink:href="#DejaVuSans-32"/>
     <use xlink:href="#DejaVuSans-34" x="63.623047"/>
     <use xlink:href="#DejaVuSans-35" x="127.246094"/>
    </g>
    <!-- 175 -->
    <g style="opacity: 0.5" transform="translate(123.469599 184.10731)scale(0.0579 -0.0579)">
     <use xlink:href="#DejaVuSans-31"/>
     <use xlink:href="#DejaVuSans-37" x="63.623047"/>
     <use xlink:href="#DejaVuSans-35" x="127.246094"/>
    </g>
   </g>
   <g id="text_19">
    <!-- PSA1 -->
    <g style="opacity: 0.5" transform="translate(191.46263 177.848605)scale(0.0579 -0.0579)">
     <defs>
      <path id="DejaVuSans-50" d="M 1259 4147 
L 1259 2394 
L 2053 2394 
Q 2494 2394 2734 2622 
Q 2975 2850 2975 3272 
Q 2975 3691 2734 3919 
Q 2494 4147 2053 4147 
L 1259 4147 
z
M 628 4666 
L 2053 4666 
Q 2838 4666 3239 4311 
Q 3641 3956 3641 3272 
Q 3641 2581 3239 2228 
Q 2838 1875 2053 1875 
L 1259 1875 
L 1259 0 
L 628 0 
L 628 4666 
z
" transform="scale(0.015625)"/>
      <path id="DejaVuSans-53" d="M 3425 4513 
L 3425 3897 
Q 3066 4069 2747 4153 
Q 2428 4238 2131 4238 
Q 1616 4238 1336 4038 
Q 1056 3838 1056 3469 
Q 1056 3159 1242 3001 
Q 1428 2844 1947 2747 
L 2328 2669 
Q 3034 2534 3370 2195 
Q 3706 1856 3706 1288 
Q 3706 609 3251 259 
Q 2797 -91 1919 -91 
Q 1588 -91 1214 -16 
Q 841 59 441 206 
L 441 856 
Q 825 641 1194 531 
Q 1563 422 1919 422 
Q 2459 422 2753 634 
Q 3047 847 3047 1241 
Q 3047 1584 2836 1778 
Q 2625 1972 2144 2069 
L 1759 2144 
Q 1053 2284 737 2584 
Q 422 2884 422 3419 
Q 422 4038 858 4394 
Q 1294 4750 2059 4750 
Q 2388 4750 2728 4690 
Q 3069 4631 3425 4513 
z
" transform="scale(0.015625)"/>
     </defs>
     <use xlink:href="#DejaVuSans-50"/>
     <use xlink:href="#DejaVuSans-53" x="60.302734"/>
     <use xlink:href="#DejaVuSans-41" x="125.654297"/>
     <use xlink:href="#DejaVuSans-31" x="194.0625"/>
    </g>
    <!-- 195 -->
    <g style="opacity: 0.5" transform="translate(193.396852 184.332138)scale(0.0579 -0.0579)">
     <use xlink:href="#DejaVuSans-31"/>
     <use xlink:href="#DejaVuSans-39" x="63.623047"/>
     <use xlink:href="#DejaVuSans-35" x="127.246094"/>
    </g>
    <!-- 135 -->
    <g style="opacity: 0.5" transform="translate(193.396852 190.815672)scale(0.0579 -0.0579)">
     <use xlink:href="#DejaVuSans-31"/>
     <use xlink:href="#DejaVuSans-33" x="63.623047"/>
     <use xlink:href="#DejaVuSans-35" x="127.246094"/>
    </g>
   </g>
   <g id="text_20">
    <!-- PSA2 -->
    <g style="opacity: 0.5" transform="translate(213.830796 186.906185)scale(0.0579 -0.0579)">
     <use xlink:href="#DejaVuSans-50"/>
     <use xlink:href="#DejaVuSans-53" x="60.302734"/>
     <use xlink:href="#DejaVuSans-41" x="125.654297"/>
     <use xlink:href="#DejaVuSans-32" x="194.0625"/>
    </g>
    <!-- 195 -->
    <g style="opacity: 0.5" transform="translate(215.765018 193.389719)scale(0.0579 -0.0579)">
     <use xlink:href="#DejaVuSans-31"/>
     <use xlink:href="#DejaVuSans-39" x="63.623047"/>
     <use xlink:href="#DejaVuSans-35" x="127.246094"/>
    </g>
    <!-- GND -->
    <g style="opacity: 0.5" transform="translate(214.652705 199.873252)scale(0.0579 -0.0579)">
     <use xlink:href="#DejaVuSans-47"/>
     <use xlink:href="#DejaVuSans-4e" x="77.490234"/>
     <use xlink:href="#DejaVuSans-44" x="152.294922"/>
    </g>
   </g>
   <g id="text_21">
    <!-- PSA3 -->
    <g style="opacity: 0.5" transform="translate(158.442237 171.199413)scale(0.0579 -0.0579)">
     <use xlink:href="#DejaVuSans-50"/>
     <use xlink:href="#DejaVuSans-53" x="60.302734"/>
     <use xlink:href="#DejaVuSans-41" x="125.654297"/>
     <use xlink:href="#DejaVuSans-33" x="194.0625"/>
    </g>
    <!-- 175 -->
    <g style="opacity: 0.5" transform="translate(160.376459 177.682947)scale(0.0579 -0.0579)">
     <use xlink:href="#DejaVuSans-31"/>
     <use xlink:href="#DejaVuSans-37" x="63.623047"/>
     <use xlink:href="#DejaVuSans-35" x="127.246094"/>
    </g>
    <!-- 135 -->
    <g style="opacity: 0.5" transform="translate(160.376459 184.16648)scale(0.0579 -0.0579)">
     <use xlink:href="#DejaVuSans-31"/>
     <use xlink:href="#DejaVuSans-33" x="63.623047"/>
     <use xlink:href="#DejaVuSans-35" x="127.246094"/>
    </g>
   </g>
   <g id="text_22">
    <!-- HAB1 -->
    <g transform="translate(249.00092 135.498536)scale(0.0579 -0.0579)">
     <use xlink:href="#DejaVuSans-48"/>
     <use xlink:href="#DejaVuSans-41" x="75.195312"/>
     <use xlink:href="#DejaVuSans-42" x="143.603516"/>
     <use xlink:href="#DejaVuSans-31" x="212.207031"/>
    </g>
    <!-- 245 -->
    <g transform="translate(251.460765 141.982069)scale(0.0579 -0.0579)">
     <use xlink:href="#DejaVuSans-32"/>
     <use xlink:href="#DejaVuSans-34" x="63.623047"/>
     <use xlink:href="#DejaVuSans-35" x="127.246094"/>
    </g>
    <!-- GND -->
    <g transform="translate(250.348452 148.465603)scale(0.0579 -0.0579)">
     <use xlink:href="#DejaVuSans-47"/>
     <use xlink:href="#DejaVuSans-4e" x="77.490234"/>
     <use xlink:href="#DejaVuSans-44" x="152.294922"/>
    </g>
   </g>
   <g id="text_23">
    <!-- HAB2 -->
    <g transform="translate(226.504388 193.653299)scale(0.0579 -0.0579)">
     <use xlink:href="#DejaVuSans-48"/>
     <use xlink:href="#DejaVuSans-41" x="75.195312"/>
     <use xlink:href="#DejaVuSans-42" x="143.603516"/>
     <use xlink:href="#DejaVuSans-32" x="212.207031"/>
    </g>
    <!-- 245 -->
    <g transform="translate(228.964233 200.136832)scale(0.0579 -0.0579)">
     <use xlink:href="#DejaVuSans-32"/>
     <use xlink:href="#DejaVuSans-34" x="63.623047"/>
     <use xlink:href="#DejaVuSans-35" x="127.246094"/>
    </g>
    <!-- 195 -->
    <g transform="translate(228.964233 206.620366)scale(0.0579 -0.0579)">
     <use xlink:href="#DejaVuSans-31"/>
     <use xlink:href="#DejaVuSans-39" x="63.623047"/>
     <use xlink:href="#DejaVuSans-35" x="127.246094"/>
    </g>
   </g>
   <g id="text_24">
    <!-- HAB3 -->
    <g transform="translate(187.2449 136.695392)scale(0.0579 -0.0579)">
     <use xlink:href="#DejaVuSans-48"/>
     <use xlink:href="#DejaVuSans-41" x="75.195312"/>
     <use xlink:href="#DejaVuSans-42" x="143.603516"/>
     <use xlink:href="#DejaVuSans-33" x="212.207031"/>
    </g>
    <!-- 245 -->
    <g transform="translate(189.704746 143.178926)scale(0.0579 -0.0579)">
     <use xlink:href="#DejaVuSans-32"/>
     <use xlink:href="#DejaVuSans-34" x="63.623047"/>
     <use xlink:href="#DejaVuSans-35" x="127.246094"/>
    </g>
    <!-- 135 -->
    <g transform="translate(189.704746 149.662459)scale(0.0579 -0.0579)">
     <use xlink:href="#DejaVuSans-31"/>
     <use xlink:href="#DejaVuSans-33" x="63.623047"/>
     <use xlink:href="#DejaVuSans-35" x="127.246094"/>
    </g>
   </g>
   <g id="text_25">
    <!-- HAB4 -->
    <g transform="translate(293.171899 139.476812)scale(0.0579 -0.0579)">
     <use xlink:href="#DejaVuSans-48"/>
     <use xlink:href="#DejaVuSans-41" x="75.195312"/>
     <use xlink:href="#DejaVuSans-42" x="143.603516"/>
     <use xlink:href="#DejaVuSans-34" x="212.207031"/>
    </g>
    <!-- 245 -->
    <g transform="translate(295.631744 145.960345)scale(0.0579 -0.0579)">
     <use xlink:href="#DejaVuSans-32"/>
     <use xlink:href="#DejaVuSans-34" x="63.623047"/>
     <use xlink:href="#DejaVuSans-35" x="127.246094"/>
    </g>
    <!-- 135 -->
    <g transform="translate(295.631744 152.443879)scale(0.0579 -0.0579)">
     <use xlink:href="#DejaVuSans-31"/>
     <use xlink:href="#DejaVuSans-33" x="63.623047"/>
     <use xlink:href="#DejaVuSans-35" x="127.246094"/>
    </g>
   </g>
  </g>
 </g>
 <defs>
  <clipPath id="p5e454f2814">
   <rect x="70.698573" y="41.472" width="330.922854" height="266.112"/>
  </clipPath>
 </defs>
</svg>
