<?xml version="1.0" encoding="utf-8" standalone="no"?>
<!DOCTYPE svg PUBLIC "-//W3C//DTD SVG 1.1//EN"
  "http://www.w3.org/Graphics/SVG/1.1/DTD/svg11.dtd">
<svg xmlns:xlink="http://www.w3.org/1999/xlink" width="460.8pt" height="345.6pt" viewBox="0 0 460.8 345.6" xmlns="http://www.w3.org/2000/svg" version="1.1">
 <metadata>
  <rdf:RDF xmlns:dc="http://purl.org/dc/elements/1.1/" xmlns:cc="http://creativecommons.org/ns#" xmlns:rdf="http://www.w3.org/1999/02/22-rdf-syntax-ns#">
   <cc:Work>
    <dc:type rdf:resource="http://purl.org/dc/dcmitype/StillImage"/>
    <dc:date>2022-04-24T21:32:28.177496</dc:date>
    <dc:format>image/svg+xml</dc:format>
    <dc:creator>
     <cc:Agent>
      <dc:title>Matplotlib v3.5.0, https://matplotlib.org/</dc:title>
     </cc:Agent>
    </dc:creator>
   </cc:Work>
  </rdf:RDF>
 </metadata>
 <defs>
  <style type="text/css">*{stroke-linejoin: round; stroke-linecap: butt}</style>
 </defs>
 <g id="figure_1">
  <g id="patch_1">
   <path d="M 0 345.6 
L 460.8 345.6 
L 460.8 0 
L 0 0 
z
" style="fill: #ffffff"/>
  </g>
  <g id="axes_1">
   <g id="patch_2">
    <path d="M 247.035724 124.285529 
L 247.32872 141.026986 
L 247.859947 169.920253 
L 240.446607 174.952405 
L 180.132657 202.214409 
L 181.639555 169.43737 
L 194.14429 150.245799 
L 204.991403 141.81164 
L 206.514964 133.910691 
L 209.981139 133.810686 
L 225.114295 138.767595 
z
" clip-path="url(#pbf16c28671)" style="fill: #ffedd9; stroke: #ffedd9; stroke-linejoin: miter"/>
   </g>
   <g id="patch_3">
    <path d="M 283.765739 145.481605 
L 287.964115 163.578222 
L 293.493857 187.431901 
L 278.749493 180.558346 
L 264.596054 158.516925 
z
" clip-path="url(#pbf16c28671)" style="fill: #ffedd9; stroke: #ffedd9; stroke-linejoin: miter"/>
   </g>
   <g id="patch_4">
    <path d="M 240.446607 174.952405 
L 258.836194 208.120488 
L 229.185417 229.33204 
L 219.477727 230.220721 
L 206.832942 235.008 
L 189.103273 233.284097 
L 178.826143 230.338244 
L 179.687971 211.700685 
L 180.132657 202.214409 
z
" clip-path="url(#pbf16c28671)" style="fill: #ffedd9; stroke: #ffedd9; stroke-linejoin: miter"/>
   </g>
   <g id="patch_5">
    <path d="M 209.80402 115.85274 
L 214.321426 115.758176 
L 238.425883 115.185395 
L 246.851657 114.92768 
L 240.649977 129.596068 
L 235.187788 142.534423 
L 204.767495 143.061972 
z
" clip-path="url(#pbf16c28671)" style="fill: #ffedd9; stroke: #ffedd9; stroke-linejoin: miter"/>
   </g>
   <g id="patch_6">
    <path d="M 206.514964 133.910691 
L 204.991403 141.81164 
L 194.14429 150.245799 
L 181.639555 169.43737 
L 183.243148 134.71191 
z
" clip-path="url(#pbf16c28671)" style="fill: #ffedd9; stroke: #ffedd9; stroke-linejoin: miter"/>
   </g>
   <g id="patch_7">
    <path d="M 184.463533 126.123873 
L 187.148565 126.294429 
L 206.739144 132.721017 
L 209.981139 133.810686 
L 206.514964 133.910691 
L 183.243148 134.71191 
z
" clip-path="url(#pbf16c28671)" style="fill: #ffedd9; stroke: #ffedd9; stroke-linejoin: miter"/>
   </g>
   <g id="patch_8">
    <path d="M 269.263283 114.224285 
L 276.457378 114.048 
L 257.722007 136.137834 
L 253.442726 141.188258 
L 264.596054 158.516925 
L 247.859947 169.920253 
L 247.32872 141.026986 
L 247.035724 124.285529 
L 246.851657 114.92768 
z
" clip-path="url(#pbf16c28671)" style="fill: #ffedd9; stroke: #ffedd9; stroke-linejoin: miter"/>
   </g>
   <g id="patch_9">
    <path d="M 264.596054 158.516925 
L 278.749493 180.558346 
L 293.493857 187.431901 
L 282.389177 203.785582 
L 281.524685 205.091886 
L 279.766864 208.617058 
L 258.836194 208.120488 
L 240.446607 174.952405 
L 247.859947 169.920253 
z
" clip-path="url(#pbf16c28671)" style="fill: #ffedd9; stroke: #ffedd9; stroke-linejoin: miter"/>
   </g>
   <g id="patch_10">
    <path d="M 258.836194 208.120488 
L 279.766864 208.617058 
L 277.022935 214.028616 
L 267.590427 232.813443 
L 258.468504 228.619302 
L 229.185417 229.33204 
z
" clip-path="url(#pbf16c28671)" style="fill: #ffedd9; stroke: #ffedd9; stroke-linejoin: miter"/>
   </g>
   <g id="patch_11">
    <path d="M 209.80402 115.85274 
L 206.739144 132.721017 
L 206.514964 133.910691 
L 183.243148 134.71191 
L 184.463533 126.123873 
L 185.849522 116.286779 
z
" clip-path="url(#pbf16c28671)" style="fill: #ffedd9; stroke: #ffedd9; stroke-linejoin: miter"/>
   </g>
   <g id="patch_12">
    <path d="M 246.851657 114.92768 
L 247.035724 124.285529 
L 225.114295 138.767595 
L 209.981139 133.810686 
L 206.514964 133.910691 
L 206.739144 132.721017 
L 209.80402 115.85274 
L 214.321426 115.758176 
L 238.425883 115.185395 
z
" clip-path="url(#pbf16c28671)" style="fill: #ffedd9; stroke: #ffedd9; stroke-linejoin: miter"/>
   </g>
   <g id="patch_13">
    <path d="M 276.457378 114.048 
L 279.372614 126.537585 
L 283.765739 145.481605 
L 264.596054 158.516925 
L 253.442726 141.188258 
L 257.722007 136.137834 
z
" clip-path="url(#pbf16c28671)" style="fill: #ffedd9; stroke: #ffedd9; stroke-linejoin: miter"/>
   </g>
   <g id="patch_14">
    <path d="M 247.035724 124.285529 
L 247.32872 141.026986 
L 247.859947 169.920253 
L 240.446607 174.952405 
L 180.132657 202.214409 
L 181.639555 169.43737 
L 194.14429 150.245799 
L 204.991403 141.81164 
L 206.514964 133.910691 
L 209.981139 133.810686 
L 225.114295 138.767595 
L 247.035724 124.285529 
z
" clip-path="url(#pbf16c28671)" style="fill: #ffedd9; stroke: #ffedd9; stroke-linejoin: miter"/>
   </g>
   <g id="patch_15">
    <path d="M 283.765739 145.481605 
L 287.964115 163.578222 
L 293.493857 187.431901 
L 278.749493 180.558346 
L 264.596054 158.516925 
L 283.765739 145.481605 
z
" clip-path="url(#pbf16c28671)" style="fill: #ffedd9; stroke: #ffedd9; stroke-linejoin: miter"/>
   </g>
   <g id="patch_16">
    <path d="M 240.446607 174.952405 
L 258.836194 208.120488 
L 229.185417 229.33204 
L 219.477727 230.220721 
L 206.832942 235.008 
L 189.103273 233.284097 
L 178.826143 230.338244 
L 179.687971 211.700685 
L 180.132657 202.214409 
L 240.446607 174.952405 
z
" clip-path="url(#pbf16c28671)" style="fill: #ffedd9; stroke: #ffedd9; stroke-linejoin: miter"/>
   </g>
   <g id="patch_17">
    <path d="M 209.80402 115.85274 
L 214.321426 115.758176 
L 238.425883 115.185395 
L 246.851657 114.92768 
L 240.649977 129.596068 
L 235.187788 142.534423 
L 204.767495 143.061972 
L 209.80402 115.85274 
z
" clip-path="url(#pbf16c28671)" style="fill: #ffedd9; stroke: #ffedd9; stroke-linejoin: miter"/>
   </g>
   <g id="patch_18">
    <path d="M 206.514964 133.910691 
L 204.991403 141.81164 
L 194.14429 150.245799 
L 181.639555 169.43737 
L 183.243148 134.71191 
L 206.514964 133.910691 
z
" clip-path="url(#pbf16c28671)" style="fill: #ffedd9; stroke: #ffedd9; stroke-linejoin: miter"/>
   </g>
   <g id="patch_19">
    <path d="M 184.463533 126.123873 
L 187.148565 126.294429 
L 206.739144 132.721017 
L 209.981139 133.810686 
L 206.514964 133.910691 
L 183.243148 134.71191 
L 184.463533 126.123873 
z
" clip-path="url(#pbf16c28671)" style="fill: #ffedd9; stroke: #ffedd9; stroke-linejoin: miter"/>
   </g>
   <g id="patch_20">
    <path d="M 269.263283 114.224285 
L 276.457378 114.048 
L 257.722007 136.137834 
L 253.442726 141.188258 
L 264.596054 158.516925 
L 247.859947 169.920253 
L 247.32872 141.026986 
L 247.035724 124.285529 
L 246.851657 114.92768 
L 269.263283 114.224285 
z
" clip-path="url(#pbf16c28671)" style="fill: #ffedd9; stroke: #ffedd9; stroke-linejoin: miter"/>
   </g>
   <g id="patch_21">
    <path d="M 264.596054 158.516925 
L 278.749493 180.558346 
L 293.493857 187.431901 
L 282.389177 203.785582 
L 281.524685 205.091886 
L 279.766864 208.617058 
L 258.836194 208.120488 
L 240.446607 174.952405 
L 247.859947 169.920253 
L 264.596054 158.516925 
z
" clip-path="url(#pbf16c28671)" style="fill: #ffedd9; stroke: #ffedd9; stroke-linejoin: miter"/>
   </g>
   <g id="patch_22">
    <path d="M 258.836194 208.120488 
L 279.766864 208.617058 
L 277.022935 214.028616 
L 267.590427 232.813443 
L 258.468504 228.619302 
L 229.185417 229.33204 
L 258.836194 208.120488 
z
" clip-path="url(#pbf16c28671)" style="fill: #ffedd9; stroke: #ffedd9; stroke-linejoin: miter"/>
   </g>
   <g id="patch_23">
    <path d="M 209.80402 115.85274 
L 206.739144 132.721017 
L 206.514964 133.910691 
L 183.243148 134.71191 
L 184.463533 126.123873 
L 185.849522 116.286779 
L 209.80402 115.85274 
z
" clip-path="url(#pbf16c28671)" style="fill: #ffedd9; stroke: #ffedd9; stroke-linejoin: miter"/>
   </g>
   <g id="patch_24">
    <path d="M 246.851657 114.92768 
L 247.035724 124.285529 
L 225.114295 138.767595 
L 209.981139 133.810686 
L 206.514964 133.910691 
L 206.739144 132.721017 
L 209.80402 115.85274 
L 214.321426 115.758176 
L 238.425883 115.185395 
L 246.851657 114.92768 
z
" clip-path="url(#pbf16c28671)" style="fill: #ffedd9; stroke: #ffedd9; stroke-linejoin: miter"/>
   </g>
   <g id="patch_25">
    <path d="M 276.457378 114.048 
L 279.372614 126.537585 
L 283.765739 145.481605 
L 264.596054 158.516925 
L 253.442726 141.188258 
L 257.722007 136.137834 
L 276.457378 114.048 
z
" clip-path="url(#pbf16c28671)" style="fill: #ffedd9; stroke: #ffedd9; stroke-linejoin: miter"/>
   </g>
   <g id="line2d_1">
    <path d="M 247.035724 124.285529 
L 247.32872 141.026986 
L 247.859947 169.920253 
L 240.446607 174.952405 
L 180.132657 202.214409 
L 181.639555 169.43737 
L 194.14429 150.245799 
L 204.991403 141.81164 
L 206.514964 133.910691 
L 209.981139 133.810686 
L 225.114295 138.767595 
L 247.035724 124.285529 
" clip-path="url(#pbf16c28671)" style="fill: none; stroke: #ffc380; stroke-width: 0.5; stroke-linecap: square"/>
   </g>
   <g id="line2d_2">
    <path d="M 283.765739 145.481605 
L 287.964115 163.578222 
L 293.493857 187.431901 
L 278.749493 180.558346 
L 264.596054 158.516925 
L 283.765739 145.481605 
" clip-path="url(#pbf16c28671)" style="fill: none; stroke: #ffc380; stroke-width: 0.5; stroke-linecap: square"/>
   </g>
   <g id="line2d_3">
    <path d="M 240.446607 174.952405 
L 258.836194 208.120488 
L 229.185417 229.33204 
L 219.477727 230.220721 
L 206.832942 235.008 
L 189.103273 233.284097 
L 178.826143 230.338244 
L 179.687971 211.700685 
L 180.132657 202.214409 
L 240.446607 174.952405 
" clip-path="url(#pbf16c28671)" style="fill: none; stroke: #ffc380; stroke-width: 0.5; stroke-linecap: square"/>
   </g>
   <g id="line2d_4">
    <path d="M 209.80402 115.85274 
L 214.321426 115.758176 
L 238.425883 115.185395 
L 246.851657 114.92768 
L 240.649977 129.596068 
L 235.187788 142.534423 
L 204.767495 143.061972 
L 209.80402 115.85274 
" clip-path="url(#pbf16c28671)" style="fill: none; stroke: #ffc380; stroke-width: 0.5; stroke-linecap: square"/>
   </g>
   <g id="line2d_5">
    <path d="M 206.514964 133.910691 
L 204.991403 141.81164 
L 194.14429 150.245799 
L 181.639555 169.43737 
L 183.243148 134.71191 
L 206.514964 133.910691 
" clip-path="url(#pbf16c28671)" style="fill: none; stroke: #ffc380; stroke-width: 0.5; stroke-linecap: square"/>
   </g>
   <g id="line2d_6">
    <path d="M 184.463533 126.123873 
L 187.148565 126.294429 
L 206.739144 132.721017 
L 209.981139 133.810686 
L 206.514964 133.910691 
L 183.243148 134.71191 
L 184.463533 126.123873 
" clip-path="url(#pbf16c28671)" style="fill: none; stroke: #ffc380; stroke-width: 0.5; stroke-linecap: square"/>
   </g>
   <g id="line2d_7">
    <path d="M 269.263283 114.224285 
L 276.457378 114.048 
L 257.722007 136.137834 
L 253.442726 141.188258 
L 264.596054 158.516925 
L 247.859947 169.920253 
L 247.32872 141.026986 
L 247.035724 124.285529 
L 246.851657 114.92768 
L 269.263283 114.224285 
" clip-path="url(#pbf16c28671)" style="fill: none; stroke: #ffc380; stroke-width: 0.5; stroke-linecap: square"/>
   </g>
   <g id="line2d_8">
    <path d="M 264.596054 158.516925 
L 278.749493 180.558346 
L 293.493857 187.431901 
L 282.389177 203.785582 
L 281.524685 205.091886 
L 279.766864 208.617058 
L 258.836194 208.120488 
L 240.446607 174.952405 
L 247.859947 169.920253 
L 264.596054 158.516925 
" clip-path="url(#pbf16c28671)" style="fill: none; stroke: #ffc380; stroke-width: 0.5; stroke-linecap: square"/>
   </g>
   <g id="line2d_9">
    <path d="M 258.836194 208.120488 
L 279.766864 208.617058 
L 277.022935 214.028616 
L 267.590427 232.813443 
L 258.468504 228.619302 
L 229.185417 229.33204 
L 258.836194 208.120488 
" clip-path="url(#pbf16c28671)" style="fill: none; stroke: #ffc380; stroke-width: 0.5; stroke-linecap: square"/>
   </g>
   <g id="line2d_10">
    <path d="M 209.80402 115.85274 
L 206.739144 132.721017 
L 206.514964 133.910691 
L 183.243148 134.71191 
L 184.463533 126.123873 
L 185.849522 116.286779 
L 209.80402 115.85274 
" clip-path="url(#pbf16c28671)" style="fill: none; stroke: #ffc380; stroke-width: 0.5; stroke-linecap: square"/>
   </g>
   <g id="line2d_11">
    <path d="M 246.851657 114.92768 
L 247.035724 124.285529 
L 225.114295 138.767595 
L 209.981139 133.810686 
L 206.514964 133.910691 
L 206.739144 132.721017 
L 209.80402 115.85274 
L 214.321426 115.758176 
L 238.425883 115.185395 
L 246.851657 114.92768 
" clip-path="url(#pbf16c28671)" style="fill: none; stroke: #ffc380; stroke-width: 0.5; stroke-linecap: square"/>
   </g>
   <g id="line2d_12">
    <path d="M 276.457378 114.048 
L 279.372614 126.537585 
L 283.765739 145.481605 
L 264.596054 158.516925 
L 253.442726 141.188258 
L 257.722007 136.137834 
L 276.457378 114.048 
" clip-path="url(#pbf16c28671)" style="fill: none; stroke: #ffc380; stroke-width: 0.5; stroke-linecap: square"/>
   </g>
   <g id="line2d_13">
    <path d="M 337.586997 183.755106 
L 339.907078 253.406713 
L 392.363081 307.212504 
L 377.664522 317.691264 
L 317.058901 319.640344 
L 279.916979 258.107451 
L 266.252886 235.468981 
L 267.590427 232.813443 
L 277.022935 214.028616 
L 279.766864 208.617058 
L 281.524685 205.091886 
L 282.389177 203.785582 
L 293.493857 187.431901 
L 337.586997 183.755106 
L 339.907078 253.406713 
L 392.363081 307.212504 
L 377.664522 317.691264 
L 317.058901 319.640344 
L 301.904854 296.894776 
L 277.219843 259.868077 
L 266.671128 244.02869 
L 264.014579 239.914523 
L 266.252886 235.468981 
L 267.590427 232.813443 
L 277.022935 214.028616 
L 279.766864 208.617058 
L 281.524685 205.091886 
L 282.389177 203.785582 
L 293.493857 187.431901 
L 337.586997 183.755106 
" clip-path="url(#pbf16c28671)" style="fill: none; stroke: #8f8f8f; stroke-width: 0.2; stroke-linecap: square"/>
   </g>
   <g id="line2d_14">
    <path d="M 293.493857 187.431901 
L 337.586997 183.755106 
L 375.398425 180.608973 
L 391.103205 179.307117 
L 405.456743 187.322867 
L 418.336807 194.508233 
L 436.928336 204.89751 
L 429.164201 209.709345 
L 419.266511 215.837314 
L 416.016385 217.914066 
L 411.440648 220.772983 
L 410.399548 227.593791 
L 409.803356 233.078957 
L 410.427487 235.091857 
L 411.341451 239.356293 
L 422.35366 285.750252 
L 430.437046 292.631687 
L 393.986329 337.047985 
L 393.089602 342.575296 
L 389.711743 346.407437 
L 387.78405 346.6 
M 288.189899 346.6 
L 275.21499 334.202563 
L 269.400305 299.727336 
L 269.190908 295.477852 
L 268.354213 278.479969 
L 267.775149 266.642096 
L 267.584109 262.331294 
L 266.671128 244.02869 
L 266.252886 235.468981 
L 267.590427 232.813443 
L 277.022935 214.028616 
L 279.766864 208.617058 
L 281.524685 205.091886 
L 282.389177 203.785582 
L 293.493857 187.431901 
L 337.586997 183.755106 
L 375.398425 180.608973 
L 391.103205 179.307117 
L 405.456743 187.322867 
L 418.336807 194.508233 
L 436.928336 204.89751 
L 429.164201 209.709345 
L 419.266511 215.837314 
L 416.016385 217.914066 
L 411.440648 220.772983 
L 410.399548 227.593791 
L 409.803356 233.078957 
L 410.427487 235.091857 
L 411.341451 239.356293 
L 422.35366 285.750252 
L 430.437046 292.631687 
L 421.803133 291.386481 
L 415.379125 290.760343 
L 392.363081 307.212504 
L 377.664522 317.691264 
L 317.058901 319.640344 
L 279.916979 258.107451 
L 266.252886 235.468981 
L 267.590427 232.813443 
L 277.022935 214.028616 
L 279.766864 208.617058 
L 281.524685 205.091886 
L 282.389177 203.785582 
L 293.493857 187.431901 
" clip-path="url(#pbf16c28671)" style="fill: none; stroke: #8f8f8f; stroke-width: 0.2; stroke-linecap: square"/>
   </g>
   <g id="line2d_15">
    <path d="M 413.36621 79.132113 
L 434.957828 92.632811 
L 453.155215 85.802335 
L 454.948955 85.678123 
L 454.346559 96.72376 
L 454.090675 101.283051 
L 405.456743 187.322867 
L 391.103205 179.307117 
L 375.398425 180.608973 
L 337.586997 183.755106 
L 293.493857 187.431901 
L 287.964115 163.578222 
L 380.568883 108.038538 
L 407.55818 73.179577 
L 454.948955 85.678123 
L 454.090675 101.283051 
L 405.456743 187.322867 
L 391.103205 179.307117 
L 375.398425 180.608973 
L 337.586997 183.755106 
L 293.493857 187.431901 
L 283.236052 170.007343 
L 279.629389 163.897537 
L 287.964115 163.578222 
L 380.568883 108.038538 
L 407.55818 73.179577 
L 413.879219 65.026991 
L 435.568989 76.50353 
L 456.162935 63.18764 
L 413.36621 79.132113 
L 434.957828 92.632811 
L 453.155215 85.802335 
L 454.948955 85.678123 
L 454.090675 101.283051 
L 405.456743 187.322867 
L 391.103205 179.307117 
L 375.398425 180.608973 
L 337.586997 183.755106 
L 293.493857 187.431901 
L 283.236052 170.007343 
L 279.629389 163.897537 
L 287.964115 163.578222 
L 380.568883 108.038538 
L 407.55818 73.179577 
L 413.36621 79.132113 
" clip-path="url(#pbf16c28671)" style="fill: none; stroke: #8f8f8f; stroke-width: 0.2; stroke-linecap: square"/>
   </g>
   <g id="line2d_16">
    <path d="M 322.924012 56.655995 
L 336.96216 69.140882 
L 383.445242 61.510594 
L 394.384314 59.702988 
L 407.55818 73.179577 
L 380.568883 108.038538 
L 287.964115 163.578222 
L 283.765739 145.481605 
L 279.372614 126.537585 
L 276.457378 114.048 
L 269.263283 114.224285 
L 282.681312 97.018378 
L 289.682045 88.039829 
L 308.349977 70.410222 
L 318.497721 60.862566 
L 322.924012 56.655995 
L 350.571607 45.301774 
L 399.604838 57.479787 
L 413.879219 65.026991 
L 407.55818 73.179577 
L 380.568883 108.038538 
L 287.964115 163.578222 
L 279.629389 163.897537 
L 273.068726 152.74455 
L 266.759308 142.032318 
L 262.938091 139.506376 
L 269.263283 114.224285 
L 282.681312 97.018378 
L 289.682045 88.039829 
L 308.349977 70.410222 
L 318.497721 60.862566 
L 322.924012 56.655995 
" clip-path="url(#pbf16c28671)" style="fill: none; stroke: #8f8f8f; stroke-width: 0.2; stroke-linecap: square"/>
   </g>
   <g id="line2d_17">
    <path d="M 394.384314 59.702988 
L 399.604838 57.479787 
L 413.879219 65.026991 
L 435.568989 76.50353 
L 453.155215 85.802335 
L 454.948955 85.678123 
L 454.346559 96.72376 
L 445.653416 92.135958 
L 319.171963 108.900565 
L 279.372614 126.537585 
L 257.722007 136.137834 
L 276.457378 114.048 
L 269.263283 114.224285 
L 282.681312 97.018378 
L 289.682045 88.039829 
L 308.349977 70.410222 
L 322.924012 56.655995 
L 336.96216 69.140882 
L 383.445242 61.510594 
L 394.384314 59.702988 
L 407.55818 73.179577 
L 413.36621 79.132113 
L 434.957828 92.632811 
L 453.155215 85.802335 
L 454.948955 85.678123 
L 454.346559 96.72376 
L 445.653416 92.135958 
L 319.171963 108.900565 
L 279.372614 126.537585 
L 276.457378 114.048 
L 269.263283 114.224285 
L 282.681312 97.018378 
L 289.682045 88.039829 
L 308.349977 70.410222 
L 322.924012 56.655995 
L 336.96216 69.140882 
L 394.384314 59.702988 
L 399.604838 57.479787 
L 413.879219 65.026991 
L 435.568989 76.50353 
L 453.155215 85.802335 
L 454.948955 85.678123 
L 454.346559 96.72376 
L 445.653416 92.135958 
L 319.171963 108.900565 
L 279.372614 126.537585 
L 276.457378 114.048 
L 269.263283 114.224285 
L 282.681312 97.018378 
L 289.682045 88.039829 
L 308.349977 70.410222 
L 322.924012 56.655995 
L 336.96216 69.140882 
L 394.384314 59.702988 
" clip-path="url(#pbf16c28671)" style="fill: none; stroke: #8f8f8f; stroke-width: 0.2; stroke-linecap: square"/>
   </g>
   <g id="line2d_18">
    <path d="M 219.45485 57.467909 
L 214.321426 115.758176 
L 209.80402 115.85274 
L 185.849522 116.286779 
L 168.158097 116.534532 
L 168.027475 115.168721 
L 167.344526 107.367547 
L 166.490142 97.744981 
L 164.921538 80.107936 
L 178.509125 79.930145 
L 193.71806 79.74823 
L 219.45485 57.467909 
" clip-path="url(#pbf16c28671)" style="fill: none; stroke: #8f8f8f; stroke-width: 0.2; stroke-linecap: square"/>
   </g>
   <g id="line2d_19">
    <path d="M 282.681312 97.018378 
L 269.263283 114.224285 
L 246.851657 114.92768 
L 246.562621 99.09733 
L 282.681312 97.018378 
" clip-path="url(#pbf16c28671)" style="fill: none; stroke: #8f8f8f; stroke-width: 0.2; stroke-linecap: square"/>
   </g>
   <g id="line2d_20">
    <path d="M 174.868527 125.564028 
L 184.463533 126.123873 
L 187.148565 126.294429 
L 206.739144 132.721017 
L 209.981139 133.810686 
L 206.514964 133.910691 
L 183.243148 134.71191 
L 167.543878 134.834573 
L 159.724192 130.486754 
L 162.584098 125.745989 
L 174.868527 125.564028 
" clip-path="url(#pbf16c28671)" style="fill: none; stroke: #8f8f8f; stroke-width: 0.2; stroke-linecap: square"/>
   </g>
   <g id="line2d_21">
    <path d="M 307.435423 50.126409 
L 308.349977 70.410222 
L 289.682045 88.039829 
L 282.681312 97.018378 
L 246.562621 99.09733 
L 246.851657 114.92768 
L 238.425883 115.185395 
L 214.321426 115.758176 
L 219.45485 57.467909 
L 219.712772 55.607739 
L 239.179521 55.125718 
L 307.435423 50.126409 
" clip-path="url(#pbf16c28671)" style="fill: none; stroke: #8f8f8f; stroke-width: 0.2; stroke-linecap: square"/>
   </g>
   <g id="line2d_22">
    <path d="M 219.45485 57.467909 
L 214.321426 115.758176 
L 209.80402 115.85274 
L 185.849522 116.286779 
L 168.158097 116.534532 
L 168.027475 115.168721 
L 167.344526 107.367547 
L 178.509125 79.930145 
L 193.71806 79.74823 
L 219.45485 57.467909 
" clip-path="url(#pbf16c28671)" style="fill: none; stroke: #8f8f8f; stroke-width: 0.2; stroke-linecap: square"/>
   </g>
   <g id="line2d_23">
    <path d="M 246.851657 114.92768 
L 247.035724 124.285529 
L 225.114295 138.767595 
L 209.981139 133.810686 
L 206.739144 132.721017 
L 187.148565 126.294429 
L 184.463533 126.123873 
L 174.868527 125.564028 
L 162.584098 125.745989 
L 168.158097 116.534532 
L 185.849522 116.286779 
L 209.80402 115.85274 
L 214.321426 115.758176 
L 238.425883 115.185395 
L 246.851657 114.92768 
" clip-path="url(#pbf16c28671)" style="fill: none; stroke: #8f8f8f; stroke-width: 0.2; stroke-linecap: square"/>
   </g>
   <g id="line2d_24">
    <path d="M 240.446607 174.952405 
L 258.836194 208.120488 
L 229.185417 229.33204 
L 219.477727 230.220721 
L 216.944529 215.232481 
L 216.391667 211.992584 
L 209.477729 205.844486 
L 201.441965 204.965374 
L 179.687971 211.700685 
L 180.132657 202.214409 
L 240.446607 174.952405 
" clip-path="url(#pbf16c28671)" style="fill: none; stroke: #8f8f8f; stroke-width: 0.2; stroke-linecap: square"/>
   </g>
   <g id="line2d_25">
    <path d="M 201.441965 204.965374 
L 204.032013 219.3815 
L 216.944529 215.232481 
L 219.477727 230.220721 
L 206.832942 235.008 
L 189.103273 233.284097 
L 178.826143 230.338244 
L 179.687971 211.700685 
L 201.441965 204.965374 
" clip-path="url(#pbf16c28671)" style="fill: none; stroke: #8f8f8f; stroke-width: 0.2; stroke-linecap: square"/>
   </g>
   <g id="line2d_26">
    <path d="M 283.765739 145.481605 
L 287.964115 163.578222 
L 293.493857 187.431901 
L 282.389177 203.785582 
L 281.524685 205.091886 
L 279.766864 208.617058 
L 258.836194 208.120488 
L 240.446607 174.952405 
L 247.859947 169.920253 
L 264.596054 158.516925 
L 283.765739 145.481605 
" clip-path="url(#pbf16c28671)" style="fill: none; stroke: #8f8f8f; stroke-width: 0.2; stroke-linecap: square"/>
   </g>
   <g id="line2d_27">
    <path d="M 269.263283 114.224285 
L 276.457378 114.048 
L 279.372614 126.537585 
L 283.765739 145.481605 
L 264.596054 158.516925 
L 247.859947 169.920253 
L 247.32872 141.026986 
L 247.035724 124.285529 
L 246.851657 114.92768 
L 269.263283 114.224285 
" clip-path="url(#pbf16c28671)" style="fill: none; stroke: #8f8f8f; stroke-width: 0.2; stroke-linecap: square"/>
   </g>
   <g id="line2d_28">
    <path d="M 282.681312 97.018378 
L 269.263283 114.224285 
L 246.851657 114.92768 
L 246.562621 99.09733 
L 282.681312 97.018378 
" clip-path="url(#pbf16c28671)" style="fill: none; stroke: #8f8f8f; stroke-width: 0.2; stroke-linecap: square"/>
   </g>
   <g id="line2d_29">
    <path d="M 183.243148 134.71191 
L 181.639555 169.43737 
L 180.132657 202.214409 
L 179.687971 211.700685 
L 168.511693 215.189232 
L 157.494148 218.560774 
L 155.967672 212.863817 
L 140.964503 185.339113 
L 130.773756 166.682852 
L 127.015182 161.686525 
L 138.041671 160.900496 
L 141.36876 157.415044 
L 147.137581 151.356159 
L 152.18428 142.957561 
L 157.008238 134.920509 
L 159.724192 130.486754 
L 167.543878 134.834573 
L 183.243148 134.71191 
" clip-path="url(#pbf16c28671)" style="fill: none; stroke: #8f8f8f; stroke-width: 0.2; stroke-linecap: square"/>
   </g>
   <g id="line2d_30">
    <path d="M 209.80402 115.85274 
L 206.739144 132.721017 
L 206.514964 133.910691 
L 204.991403 141.81164 
L 194.14429 150.245799 
L 181.639555 169.43737 
L 183.243148 134.71191 
L 184.463533 126.123873 
L 185.849522 116.286779 
L 209.80402 115.85274 
" clip-path="url(#pbf16c28671)" style="fill: none; stroke: #8f8f8f; stroke-width: 0.2; stroke-linecap: square"/>
   </g>
   <g id="line2d_31">
    <path d="M 185.849522 116.286779 
L 184.463533 126.123873 
L 183.243148 134.71191 
L 181.639555 169.43737 
L 180.132657 202.214409 
L 179.687971 211.700685 
L 168.511693 215.189232 
L 157.494148 218.560774 
L 155.967672 212.863817 
L 140.964503 185.339113 
L 130.773756 166.682852 
L 127.015182 161.686525 
L 138.041671 160.900496 
L 141.36876 157.415044 
L 147.137581 151.356159 
L 152.18428 142.957561 
L 157.008238 134.920509 
L 161.94623 131.739013 
L 171.407519 125.609743 
L 185.849522 116.286779 
" clip-path="url(#pbf16c28671)" style="fill: none; stroke: #8f8f8f; stroke-width: 0.2; stroke-linecap: square"/>
   </g>
   <g id="line2d_32">
    <path d="M 179.687971 211.700685 
L 178.826143 230.338244 
L 189.103273 233.284097 
L 185.302878 237.566598 
L 179.284745 242.303069 
L 164.305682 244.192549 
L 157.494148 218.560774 
L 168.511693 215.189232 
L 179.687971 211.700685 
" clip-path="url(#pbf16c28671)" style="fill: none; stroke: #8f8f8f; stroke-width: 0.2; stroke-linecap: square"/>
   </g>
   <g id="line2d_33">
    <path d="M 185.849522 116.286779 
L 184.463533 126.123873 
L 183.243148 134.71191 
L 167.543878 134.834573 
L 159.724192 130.486754 
L 162.584098 125.745989 
L 168.158097 116.534532 
L 185.849522 116.286779 
" clip-path="url(#pbf16c28671)" style="fill: none; stroke: #8f8f8f; stroke-width: 0.2; stroke-linecap: square"/>
   </g>
   <g id="line2d_34">
    <path d="M 174.868527 125.564028 
L 184.463533 126.123873 
L 183.243148 134.71191 
L 167.543878 134.834573 
L 159.724192 130.486754 
L 162.584098 125.745989 
L 174.868527 125.564028 
" clip-path="url(#pbf16c28671)" style="fill: none; stroke: #8f8f8f; stroke-width: 0.2; stroke-linecap: square"/>
   </g>
   <g id="line2d_35">
    <path d="M 258.468504 228.619302 
L 267.590427 232.813443 
L 266.252886 235.468981 
L 266.671128 244.02869 
L 267.584109 262.331294 
L 229.741476 263.691324 
L 225.152539 263.857955 
L 219.477727 230.220721 
L 229.185417 229.33204 
L 258.468504 228.619302 
" clip-path="url(#pbf16c28671)" style="fill: none; stroke: #8f8f8f; stroke-width: 0.2; stroke-linecap: square"/>
   </g>
   <g id="line2d_36">
    <path d="M 189.103273 233.284097 
L 206.832942 235.008 
L 219.477727 230.220721 
L 225.152539 263.857955 
L 211.449667 260.746738 
L 193.576047 261.591089 
L 183.232483 262.056835 
L 179.284745 242.303069 
L 185.302878 237.566598 
L 189.103273 233.284097 
" clip-path="url(#pbf16c28671)" style="fill: none; stroke: #8f8f8f; stroke-width: 0.2; stroke-linecap: square"/>
   </g>
   <g id="line2d_37">
    <path d="M 247.035724 124.285529 
L 247.32872 141.026986 
L 247.859947 169.920253 
L 240.446607 174.952405 
L 180.132657 202.214409 
L 181.639555 169.43737 
L 194.14429 150.245799 
L 204.991403 141.81164 
L 206.514964 133.910691 
L 209.981139 133.810686 
L 225.114295 138.767595 
L 247.035724 124.285529 
L 247.035724 124.285529 
" clip-path="url(#pbf16c28671)" style="fill: none; stroke: #ffc380; stroke-width: 0.5; stroke-linecap: square"/>
   </g>
   <g id="line2d_38">
    <path d="M 283.765739 145.481605 
L 287.964115 163.578222 
L 293.493857 187.431901 
L 278.749493 180.558346 
L 264.596054 158.516925 
L 283.765739 145.481605 
L 283.765739 145.481605 
" clip-path="url(#pbf16c28671)" style="fill: none; stroke: #ffc380; stroke-width: 0.5; stroke-linecap: square"/>
   </g>
   <g id="line2d_39">
    <path d="M 240.446607 174.952405 
L 258.836194 208.120488 
L 229.185417 229.33204 
L 219.477727 230.220721 
L 206.832942 235.008 
L 189.103273 233.284097 
L 178.826143 230.338244 
L 179.687971 211.700685 
L 180.132657 202.214409 
L 240.446607 174.952405 
L 240.446607 174.952405 
" clip-path="url(#pbf16c28671)" style="fill: none; stroke: #ffc380; stroke-width: 0.5; stroke-linecap: square"/>
   </g>
   <g id="line2d_40">
    <path d="M 209.80402 115.85274 
L 214.321426 115.758176 
L 238.425883 115.185395 
L 246.851657 114.92768 
L 240.649977 129.596068 
L 235.187788 142.534423 
L 204.767495 143.061972 
L 209.80402 115.85274 
L 209.80402 115.85274 
" clip-path="url(#pbf16c28671)" style="fill: none; stroke: #ffc380; stroke-width: 0.5; stroke-linecap: square"/>
   </g>
   <g id="line2d_41">
    <path d="M 206.514964 133.910691 
L 204.991403 141.81164 
L 194.14429 150.245799 
L 181.639555 169.43737 
L 183.243148 134.71191 
L 206.514964 133.910691 
L 206.514964 133.910691 
" clip-path="url(#pbf16c28671)" style="fill: none; stroke: #ffc380; stroke-width: 0.5; stroke-linecap: square"/>
   </g>
   <g id="line2d_42">
    <path d="M 184.463533 126.123873 
L 187.148565 126.294429 
L 206.739144 132.721017 
L 209.981139 133.810686 
L 206.514964 133.910691 
L 183.243148 134.71191 
L 184.463533 126.123873 
L 184.463533 126.123873 
" clip-path="url(#pbf16c28671)" style="fill: none; stroke: #ffc380; stroke-width: 0.5; stroke-linecap: square"/>
   </g>
   <g id="line2d_43">
    <path d="M 269.263283 114.224285 
L 276.457378 114.048 
L 257.722007 136.137834 
L 253.442726 141.188258 
L 264.596054 158.516925 
L 247.859947 169.920253 
L 247.32872 141.026986 
L 247.035724 124.285529 
L 246.851657 114.92768 
L 269.263283 114.224285 
L 269.263283 114.224285 
" clip-path="url(#pbf16c28671)" style="fill: none; stroke: #ffc380; stroke-width: 0.5; stroke-linecap: square"/>
   </g>
   <g id="line2d_44">
    <path d="M 264.596054 158.516925 
L 278.749493 180.558346 
L 293.493857 187.431901 
L 282.389177 203.785582 
L 281.524685 205.091886 
L 279.766864 208.617058 
L 258.836194 208.120488 
L 240.446607 174.952405 
L 247.859947 169.920253 
L 264.596054 158.516925 
L 264.596054 158.516925 
" clip-path="url(#pbf16c28671)" style="fill: none; stroke: #ffc380; stroke-width: 0.5; stroke-linecap: square"/>
   </g>
   <g id="line2d_45">
    <path d="M 258.836194 208.120488 
L 279.766864 208.617058 
L 277.022935 214.028616 
L 267.590427 232.813443 
L 258.468504 228.619302 
L 229.185417 229.33204 
L 258.836194 208.120488 
L 258.836194 208.120488 
" clip-path="url(#pbf16c28671)" style="fill: none; stroke: #ffc380; stroke-width: 0.5; stroke-linecap: square"/>
   </g>
   <g id="line2d_46">
    <path d="M 209.80402 115.85274 
L 206.739144 132.721017 
L 206.514964 133.910691 
L 183.243148 134.71191 
L 184.463533 126.123873 
L 185.849522 116.286779 
L 209.80402 115.85274 
L 209.80402 115.85274 
" clip-path="url(#pbf16c28671)" style="fill: none; stroke: #ffc380; stroke-width: 0.5; stroke-linecap: square"/>
   </g>
   <g id="line2d_47">
    <path d="M 246.851657 114.92768 
L 247.035724 124.285529 
L 225.114295 138.767595 
L 209.981139 133.810686 
L 206.514964 133.910691 
L 206.739144 132.721017 
L 209.80402 115.85274 
L 214.321426 115.758176 
L 238.425883 115.185395 
L 246.851657 114.92768 
L 246.851657 114.92768 
" clip-path="url(#pbf16c28671)" style="fill: none; stroke: #ffc380; stroke-width: 0.5; stroke-linecap: square"/>
   </g>
   <g id="line2d_48">
    <path d="M 276.457378 114.048 
L 279.372614 126.537585 
L 283.765739 145.481605 
L 264.596054 158.516925 
L 253.442726 141.188258 
L 257.722007 136.137834 
L 276.457378 114.048 
L 276.457378 114.048 
" clip-path="url(#pbf16c28671)" style="fill: none; stroke: #ffc380; stroke-width: 0.5; stroke-linecap: square"/>
   </g>
   <g id="text_1">
    <!-- EDMMBBG -->
    <g style="opacity: 0.5" transform="translate(312.969724 246.81187)scale(0.0579 -0.0579)">
     <defs>
      <path id="DejaVuSans-45" d="M 628 4666 
L 3578 4666 
L 3578 4134 
L 1259 4134 
L 1259 2753 
L 3481 2753 
L 3481 2222 
L 1259 2222 
L 1259 531 
L 3634 531 
L 3634 0 
L 628 0 
L 628 4666 
z
" transform="scale(0.015625)"/>
      <path id="DejaVuSans-44" d="M 1259 4147 
L 1259 519 
L 2022 519 
Q 2988 519 3436 956 
Q 3884 1394 3884 2338 
Q 3884 3275 3436 3711 
Q 2988 4147 2022 4147 
L 1259 4147 
z
M 628 4666 
L 1925 4666 
Q 3281 4666 3915 4102 
Q 4550 3538 4550 2338 
Q 4550 1131 3912 565 
Q 3275 0 1925 0 
L 628 0 
L 628 4666 
z
" transform="scale(0.015625)"/>
      <path id="DejaVuSans-4d" d="M 628 4666 
L 1569 4666 
L 2759 1491 
L 3956 4666 
L 4897 4666 
L 4897 0 
L 4281 0 
L 4281 4097 
L 3078 897 
L 2444 897 
L 1241 4097 
L 1241 0 
L 628 0 
L 628 4666 
z
" transform="scale(0.015625)"/>
      <path id="DejaVuSans-42" d="M 1259 2228 
L 1259 519 
L 2272 519 
Q 2781 519 3026 730 
Q 3272 941 3272 1375 
Q 3272 1813 3026 2020 
Q 2781 2228 2272 2228 
L 1259 2228 
z
M 1259 4147 
L 1259 2741 
L 2194 2741 
Q 2656 2741 2882 2914 
Q 3109 3088 3109 3444 
Q 3109 3797 2882 3972 
Q 2656 4147 2194 4147 
L 1259 4147 
z
M 628 4666 
L 2241 4666 
Q 2963 4666 3353 4366 
Q 3744 4066 3744 3513 
Q 3744 3084 3544 2831 
Q 3344 2578 2956 2516 
Q 3422 2416 3680 2098 
Q 3938 1781 3938 1306 
Q 3938 681 3513 340 
Q 3088 0 2303 0 
L 628 0 
L 628 4666 
z
" transform="scale(0.015625)"/>
      <path id="DejaVuSans-47" d="M 3809 666 
L 3809 1919 
L 2778 1919 
L 2778 2438 
L 4434 2438 
L 4434 434 
Q 4069 175 3628 42 
Q 3188 -91 2688 -91 
Q 1594 -91 976 548 
Q 359 1188 359 2328 
Q 359 3472 976 4111 
Q 1594 4750 2688 4750 
Q 3144 4750 3555 4637 
Q 3966 4525 4313 4306 
L 4313 3634 
Q 3963 3931 3569 4081 
Q 3175 4231 2741 4231 
Q 1884 4231 1454 3753 
Q 1025 3275 1025 2328 
Q 1025 1384 1454 906 
Q 1884 428 2741 428 
Q 3075 428 3337 486 
Q 3600 544 3809 666 
z
" transform="scale(0.015625)"/>
     </defs>
     <use xlink:href="#DejaVuSans-45"/>
     <use xlink:href="#DejaVuSans-44" x="63.183594"/>
     <use xlink:href="#DejaVuSans-4d" x="140.185547"/>
     <use xlink:href="#DejaVuSans-4d" x="226.464844"/>
     <use xlink:href="#DejaVuSans-42" x="312.744141"/>
     <use xlink:href="#DejaVuSans-42" x="381.347656"/>
     <use xlink:href="#DejaVuSans-47" x="448.201172"/>
    </g>
    <!-- 245 -->
    <g style="opacity: 0.5" transform="translate(322.662998 253.295403)scale(0.0579 -0.0579)">
     <defs>
      <path id="DejaVuSans-32" d="M 1228 531 
L 3431 531 
L 3431 0 
L 469 0 
L 469 531 
Q 828 903 1448 1529 
Q 2069 2156 2228 2338 
Q 2531 2678 2651 2914 
Q 2772 3150 2772 3378 
Q 2772 3750 2511 3984 
Q 2250 4219 1831 4219 
Q 1534 4219 1204 4116 
Q 875 4013 500 3803 
L 500 4441 
Q 881 4594 1212 4672 
Q 1544 4750 1819 4750 
Q 2544 4750 2975 4387 
Q 3406 4025 3406 3419 
Q 3406 3131 3298 2873 
Q 3191 2616 2906 2266 
Q 2828 2175 2409 1742 
Q 1991 1309 1228 531 
z
" transform="scale(0.015625)"/>
      <path id="DejaVuSans-34" d="M 2419 4116 
L 825 1625 
L 2419 1625 
L 2419 4116 
z
M 2253 4666 
L 3047 4666 
L 3047 1625 
L 3713 1625 
L 3713 1100 
L 3047 1100 
L 3047 0 
L 2419 0 
L 2419 1100 
L 313 1100 
L 313 1709 
L 2253 4666 
z
" transform="scale(0.015625)"/>
      <path id="DejaVuSans-35" d="M 691 4666 
L 3169 4666 
L 3169 4134 
L 1269 4134 
L 1269 2991 
Q 1406 3038 1543 3061 
Q 1681 3084 1819 3084 
Q 2600 3084 3056 2656 
Q 3513 2228 3513 1497 
Q 3513 744 3044 326 
Q 2575 -91 1722 -91 
Q 1428 -91 1123 -41 
Q 819 9 494 109 
L 494 744 
Q 775 591 1075 516 
Q 1375 441 1709 441 
Q 2250 441 2565 725 
Q 2881 1009 2881 1497 
Q 2881 1984 2565 2268 
Q 2250 2553 1709 2553 
Q 1456 2553 1204 2497 
Q 953 2441 691 2322 
L 691 4666 
z
" transform="scale(0.015625)"/>
     </defs>
     <use xlink:href="#DejaVuSans-32"/>
     <use xlink:href="#DejaVuSans-34" x="63.623047"/>
     <use xlink:href="#DejaVuSans-35" x="127.246094"/>
    </g>
    <!-- 195 -->
    <g style="opacity: 0.5" transform="translate(322.662998 259.778937)scale(0.0579 -0.0579)">
     <defs>
      <path id="DejaVuSans-31" d="M 794 531 
L 1825 531 
L 1825 4091 
L 703 3866 
L 703 4441 
L 1819 4666 
L 2450 4666 
L 2450 531 
L 3481 531 
L 3481 0 
L 794 0 
L 794 531 
z
" transform="scale(0.015625)"/>
      <path id="DejaVuSans-39" d="M 703 97 
L 703 672 
Q 941 559 1184 500 
Q 1428 441 1663 441 
Q 2288 441 2617 861 
Q 2947 1281 2994 2138 
Q 2813 1869 2534 1725 
Q 2256 1581 1919 1581 
Q 1219 1581 811 2004 
Q 403 2428 403 3163 
Q 403 3881 828 4315 
Q 1253 4750 1959 4750 
Q 2769 4750 3195 4129 
Q 3622 3509 3622 2328 
Q 3622 1225 3098 567 
Q 2575 -91 1691 -91 
Q 1453 -91 1209 -44 
Q 966 3 703 97 
z
M 1959 2075 
Q 2384 2075 2632 2365 
Q 2881 2656 2881 3163 
Q 2881 3666 2632 3958 
Q 2384 4250 1959 4250 
Q 1534 4250 1286 3958 
Q 1038 3666 1038 3163 
Q 1038 2656 1286 2365 
Q 1534 2075 1959 2075 
z
" transform="scale(0.015625)"/>
     </defs>
     <use xlink:href="#DejaVuSans-31"/>
     <use xlink:href="#DejaVuSans-39" x="63.623047"/>
     <use xlink:href="#DejaVuSans-35" x="127.246094"/>
    </g>
   </g>
   <g id="text_2">
    <!-- EDMMFRKL -->
    <g style="opacity: 0.5" transform="translate(335.348304 262.593021)scale(0.0579 -0.0579)">
     <defs>
      <path id="DejaVuSans-46" d="M 628 4666 
L 3309 4666 
L 3309 4134 
L 1259 4134 
L 1259 2759 
L 3109 2759 
L 3109 2228 
L 1259 2228 
L 1259 0 
L 628 0 
L 628 4666 
z
" transform="scale(0.015625)"/>
      <path id="DejaVuSans-52" d="M 2841 2188 
Q 3044 2119 3236 1894 
Q 3428 1669 3622 1275 
L 4263 0 
L 3584 0 
L 2988 1197 
Q 2756 1666 2539 1819 
Q 2322 1972 1947 1972 
L 1259 1972 
L 1259 0 
L 628 0 
L 628 4666 
L 2053 4666 
Q 2853 4666 3247 4331 
Q 3641 3997 3641 3322 
Q 3641 2881 3436 2590 
Q 3231 2300 2841 2188 
z
M 1259 4147 
L 1259 2491 
L 2053 2491 
Q 2509 2491 2742 2702 
Q 2975 2913 2975 3322 
Q 2975 3731 2742 3939 
Q 2509 4147 2053 4147 
L 1259 4147 
z
" transform="scale(0.015625)"/>
      <path id="DejaVuSans-4b" d="M 628 4666 
L 1259 4666 
L 1259 2694 
L 3353 4666 
L 4166 4666 
L 1850 2491 
L 4331 0 
L 3500 0 
L 1259 2247 
L 1259 0 
L 628 0 
L 628 4666 
z
" transform="scale(0.015625)"/>
      <path id="DejaVuSans-4c" d="M 628 4666 
L 1259 4666 
L 1259 531 
L 3531 531 
L 3531 0 
L 628 0 
L 628 4666 
z
" transform="scale(0.015625)"/>
     </defs>
     <use xlink:href="#DejaVuSans-45"/>
     <use xlink:href="#DejaVuSans-44" x="63.183594"/>
     <use xlink:href="#DejaVuSans-4d" x="140.185547"/>
     <use xlink:href="#DejaVuSans-4d" x="226.464844"/>
     <use xlink:href="#DejaVuSans-46" x="312.744141"/>
     <use xlink:href="#DejaVuSans-52" x="370.263672"/>
     <use xlink:href="#DejaVuSans-4b" x="439.746094"/>
     <use xlink:href="#DejaVuSans-4c" x="505.322266"/>
    </g>
    <!-- 135 -->
    <g style="opacity: 0.5" transform="translate(346.06478 269.076554)scale(0.0579 -0.0579)">
     <defs>
      <path id="DejaVuSans-33" d="M 2597 2516 
Q 3050 2419 3304 2112 
Q 3559 1806 3559 1356 
Q 3559 666 3084 287 
Q 2609 -91 1734 -91 
Q 1441 -91 1130 -33 
Q 819 25 488 141 
L 488 750 
Q 750 597 1062 519 
Q 1375 441 1716 441 
Q 2309 441 2620 675 
Q 2931 909 2931 1356 
Q 2931 1769 2642 2001 
Q 2353 2234 1838 2234 
L 1294 2234 
L 1294 2753 
L 1863 2753 
Q 2328 2753 2575 2939 
Q 2822 3125 2822 3475 
Q 2822 3834 2567 4026 
Q 2313 4219 1838 4219 
Q 1578 4219 1281 4162 
Q 984 4106 628 3988 
L 628 4550 
Q 988 4650 1302 4700 
Q 1616 4750 1894 4750 
Q 2613 4750 3031 4423 
Q 3450 4097 3450 3541 
Q 3450 3153 3228 2886 
Q 3006 2619 2597 2516 
z
" transform="scale(0.015625)"/>
     </defs>
     <use xlink:href="#DejaVuSans-31"/>
     <use xlink:href="#DejaVuSans-33" x="63.623047"/>
     <use xlink:href="#DejaVuSans-35" x="127.246094"/>
    </g>
    <!-- GND -->
    <g style="opacity: 0.5" transform="translate(344.952466 275.560088)scale(0.0579 -0.0579)">
     <defs>
      <path id="DejaVuSans-4e" d="M 628 4666 
L 1478 4666 
L 3547 763 
L 3547 4666 
L 4159 4666 
L 4159 0 
L 3309 0 
L 1241 3903 
L 1241 0 
L 628 0 
L 628 4666 
z
" transform="scale(0.015625)"/>
     </defs>
     <use xlink:href="#DejaVuSans-47"/>
     <use xlink:href="#DejaVuSans-4e" x="77.490234"/>
     <use xlink:href="#DejaVuSans-44" x="152.294922"/>
    </g>
   </g>
   <g id="text_3">
    <!-- EDMMGER -->
    <g style="opacity: 0.5" transform="translate(352.758026 120.423916)scale(0.0579 -0.0579)">
     <use xlink:href="#DejaVuSans-45"/>
     <use xlink:href="#DejaVuSans-44" x="63.183594"/>
     <use xlink:href="#DejaVuSans-4d" x="140.185547"/>
     <use xlink:href="#DejaVuSans-4d" x="226.464844"/>
     <use xlink:href="#DejaVuSans-47" x="312.744141"/>
     <use xlink:href="#DejaVuSans-45" x="390.234375"/>
     <use xlink:href="#DejaVuSans-52" x="453.417969"/>
    </g>
    <!-- 245 -->
    <g style="opacity: 0.5" transform="translate(362.370331 126.907449)scale(0.0579 -0.0579)">
     <use xlink:href="#DejaVuSans-32"/>
     <use xlink:href="#DejaVuSans-34" x="63.623047"/>
     <use xlink:href="#DejaVuSans-35" x="127.246094"/>
    </g>
    <!-- 195 -->
    <g style="opacity: 0.5" transform="translate(362.370331 133.390982)scale(0.0579 -0.0579)">
     <use xlink:href="#DejaVuSans-31"/>
     <use xlink:href="#DejaVuSans-39" x="63.623047"/>
     <use xlink:href="#DejaVuSans-35" x="127.246094"/>
    </g>
   </g>
   <g id="text_4">
    <!-- EDMMHAL -->
    <g style="opacity: 0.5" transform="translate(323.583994 99.7138)scale(0.0579 -0.0579)">
     <defs>
      <path id="DejaVuSans-48" d="M 628 4666 
L 1259 4666 
L 1259 2753 
L 3553 2753 
L 3553 4666 
L 4184 4666 
L 4184 0 
L 3553 0 
L 3553 2222 
L 1259 2222 
L 1259 0 
L 628 0 
L 628 4666 
z
" transform="scale(0.015625)"/>
      <path id="DejaVuSans-41" d="M 2188 4044 
L 1331 1722 
L 3047 1722 
L 2188 4044 
z
M 1831 4666 
L 2547 4666 
L 4325 0 
L 3669 0 
L 3244 1197 
L 1141 1197 
L 716 0 
L 50 0 
L 1831 4666 
z
" transform="scale(0.015625)"/>
     </defs>
     <use xlink:href="#DejaVuSans-45"/>
     <use xlink:href="#DejaVuSans-44" x="63.183594"/>
     <use xlink:href="#DejaVuSans-4d" x="140.185547"/>
     <use xlink:href="#DejaVuSans-4d" x="226.464844"/>
     <use xlink:href="#DejaVuSans-48" x="312.744141"/>
     <use xlink:href="#DejaVuSans-41" x="387.939453"/>
     <use xlink:href="#DejaVuSans-4c" x="456.347656"/>
    </g>
    <!-- 245 -->
    <g style="opacity: 0.5" transform="translate(332.882824 106.197334)scale(0.0579 -0.0579)">
     <use xlink:href="#DejaVuSans-32"/>
     <use xlink:href="#DejaVuSans-34" x="63.623047"/>
     <use xlink:href="#DejaVuSans-35" x="127.246094"/>
    </g>
    <!-- 195 -->
    <g style="opacity: 0.5" transform="translate(332.882824 112.680867)scale(0.0579 -0.0579)">
     <use xlink:href="#DejaVuSans-31"/>
     <use xlink:href="#DejaVuSans-39" x="63.623047"/>
     <use xlink:href="#DejaVuSans-35" x="127.246094"/>
    </g>
   </g>
   <g id="text_5">
    <!-- EDMMTRLN -->
    <g style="opacity: 0.5" transform="translate(339.722705 91.511059)scale(0.0579 -0.0579)">
     <defs>
      <path id="DejaVuSans-54" d="M -19 4666 
L 3928 4666 
L 3928 4134 
L 2272 4134 
L 2272 0 
L 1638 0 
L 1638 4134 
L -19 4134 
L -19 4666 
z
" transform="scale(0.015625)"/>
     </defs>
     <use xlink:href="#DejaVuSans-45"/>
     <use xlink:href="#DejaVuSans-44" x="63.183594"/>
     <use xlink:href="#DejaVuSans-4d" x="140.185547"/>
     <use xlink:href="#DejaVuSans-4d" x="226.464844"/>
     <use xlink:href="#DejaVuSans-54" x="312.744141"/>
     <use xlink:href="#DejaVuSans-52" x="373.828125"/>
     <use xlink:href="#DejaVuSans-4c" x="443.310547"/>
     <use xlink:href="#DejaVuSans-4e" x="499.023438"/>
    </g>
    <!-- 145 -->
    <g style="opacity: 0.5" transform="translate(350.80965 97.994593)scale(0.0579 -0.0579)">
     <use xlink:href="#DejaVuSans-31"/>
     <use xlink:href="#DejaVuSans-34" x="63.623047"/>
     <use xlink:href="#DejaVuSans-35" x="127.246094"/>
    </g>
    <!-- GND -->
    <g style="opacity: 0.5" transform="translate(349.697337 104.478126)scale(0.0579 -0.0579)">
     <use xlink:href="#DejaVuSans-47"/>
     <use xlink:href="#DejaVuSans-4e" x="77.490234"/>
     <use xlink:href="#DejaVuSans-44" x="152.294922"/>
    </g>
   </g>
   <g id="text_6">
    <!-- EDWWDST3 -->
    <g style="opacity: 0.5" transform="translate(174.727725 82.115365)scale(0.0579 -0.0579)">
     <defs>
      <path id="DejaVuSans-57" d="M 213 4666 
L 850 4666 
L 1831 722 
L 2809 4666 
L 3519 4666 
L 4500 722 
L 5478 4666 
L 6119 4666 
L 4947 0 
L 4153 0 
L 3169 4050 
L 2175 0 
L 1381 0 
L 213 4666 
z
" transform="scale(0.015625)"/>
      <path id="DejaVuSans-53" d="M 3425 4513 
L 3425 3897 
Q 3066 4069 2747 4153 
Q 2428 4238 2131 4238 
Q 1616 4238 1336 4038 
Q 1056 3838 1056 3469 
Q 1056 3159 1242 3001 
Q 1428 2844 1947 2747 
L 2328 2669 
Q 3034 2534 3370 2195 
Q 3706 1856 3706 1288 
Q 3706 609 3251 259 
Q 2797 -91 1919 -91 
Q 1588 -91 1214 -16 
Q 841 59 441 206 
L 441 856 
Q 825 641 1194 531 
Q 1563 422 1919 422 
Q 2459 422 2753 634 
Q 3047 847 3047 1241 
Q 3047 1584 2836 1778 
Q 2625 1972 2144 2069 
L 1759 2144 
Q 1053 2284 737 2584 
Q 422 2884 422 3419 
Q 422 4038 858 4394 
Q 1294 4750 2059 4750 
Q 2388 4750 2728 4690 
Q 3069 4631 3425 4513 
z
" transform="scale(0.015625)"/>
     </defs>
     <use xlink:href="#DejaVuSans-45"/>
     <use xlink:href="#DejaVuSans-44" x="63.183594"/>
     <use xlink:href="#DejaVuSans-57" x="140.185547"/>
     <use xlink:href="#DejaVuSans-57" x="239.0625"/>
     <use xlink:href="#DejaVuSans-44" x="337.939453"/>
     <use xlink:href="#DejaVuSans-53" x="414.941406"/>
     <use xlink:href="#DejaVuSans-54" x="478.417969"/>
     <use xlink:href="#DejaVuSans-33" x="539.501953"/>
    </g>
    <!-- 245 -->
    <g style="opacity: 0.5" transform="translate(186.662363 88.598899)scale(0.0579 -0.0579)">
     <use xlink:href="#DejaVuSans-32"/>
     <use xlink:href="#DejaVuSans-34" x="63.623047"/>
     <use xlink:href="#DejaVuSans-35" x="127.246094"/>
    </g>
    <!-- 155 -->
    <g style="opacity: 0.5" transform="translate(186.662363 95.082432)scale(0.0579 -0.0579)">
     <use xlink:href="#DejaVuSans-31"/>
     <use xlink:href="#DejaVuSans-35" x="63.623047"/>
     <use xlink:href="#DejaVuSans-35" x="127.246094"/>
    </g>
   </g>
   <g id="text_7">
    <!-- EDWWHRZ10 -->
    <g style="opacity: 0.5" transform="translate(244.98301 101.087174)scale(0.0579 -0.0579)">
     <defs>
      <path id="DejaVuSans-5a" d="M 359 4666 
L 4025 4666 
L 4025 4184 
L 1075 531 
L 4097 531 
L 4097 0 
L 288 0 
L 288 481 
L 3238 4134 
L 359 4134 
L 359 4666 
z
" transform="scale(0.015625)"/>
      <path id="DejaVuSans-30" d="M 2034 4250 
Q 1547 4250 1301 3770 
Q 1056 3291 1056 2328 
Q 1056 1369 1301 889 
Q 1547 409 2034 409 
Q 2525 409 2770 889 
Q 3016 1369 3016 2328 
Q 3016 3291 2770 3770 
Q 2525 4250 2034 4250 
z
M 2034 4750 
Q 2819 4750 3233 4129 
Q 3647 3509 3647 2328 
Q 3647 1150 3233 529 
Q 2819 -91 2034 -91 
Q 1250 -91 836 529 
Q 422 1150 422 2328 
Q 422 3509 836 4129 
Q 1250 4750 2034 4750 
z
" transform="scale(0.015625)"/>
     </defs>
     <use xlink:href="#DejaVuSans-45"/>
     <use xlink:href="#DejaVuSans-44" x="63.183594"/>
     <use xlink:href="#DejaVuSans-57" x="140.185547"/>
     <use xlink:href="#DejaVuSans-57" x="239.0625"/>
     <use xlink:href="#DejaVuSans-48" x="337.939453"/>
     <use xlink:href="#DejaVuSans-52" x="413.134766"/>
     <use xlink:href="#DejaVuSans-5a" x="482.617188"/>
     <use xlink:href="#DejaVuSans-31" x="551.123047"/>
     <use xlink:href="#DejaVuSans-30" x="614.746094"/>
    </g>
    <!-- 235 -->
    <g style="opacity: 0.5" transform="translate(259.096135 107.570707)scale(0.0579 -0.0579)">
     <use xlink:href="#DejaVuSans-32"/>
     <use xlink:href="#DejaVuSans-33" x="63.623047"/>
     <use xlink:href="#DejaVuSans-35" x="127.246094"/>
    </g>
    <!-- GND -->
    <g style="opacity: 0.5" transform="translate(257.983822 114.054241)scale(0.0579 -0.0579)">
     <use xlink:href="#DejaVuSans-47"/>
     <use xlink:href="#DejaVuSans-4e" x="77.490234"/>
     <use xlink:href="#DejaVuSans-44" x="152.294922"/>
    </g>
   </g>
   <g id="text_8">
    <!-- EDWWHRZ11 -->
    <g style="opacity: 0.5" transform="translate(165.213709 125.313446)scale(0.0579 -0.0579)">
     <use xlink:href="#DejaVuSans-45"/>
     <use xlink:href="#DejaVuSans-44" x="63.183594"/>
     <use xlink:href="#DejaVuSans-57" x="140.185547"/>
     <use xlink:href="#DejaVuSans-57" x="239.0625"/>
     <use xlink:href="#DejaVuSans-48" x="337.939453"/>
     <use xlink:href="#DejaVuSans-52" x="413.134766"/>
     <use xlink:href="#DejaVuSans-5a" x="482.617188"/>
     <use xlink:href="#DejaVuSans-31" x="551.123047"/>
     <use xlink:href="#DejaVuSans-31" x="614.746094"/>
    </g>
    <!-- 105 -->
    <g style="opacity: 0.5" transform="translate(179.326834 131.796979)scale(0.0579 -0.0579)">
     <use xlink:href="#DejaVuSans-31"/>
     <use xlink:href="#DejaVuSans-30" x="63.623047"/>
     <use xlink:href="#DejaVuSans-35" x="127.246094"/>
    </g>
    <!-- 65 -->
    <g style="opacity: 0.5" transform="translate(181.168778 138.280512)scale(0.0579 -0.0579)">
     <defs>
      <path id="DejaVuSans-36" d="M 2113 2584 
Q 1688 2584 1439 2293 
Q 1191 2003 1191 1497 
Q 1191 994 1439 701 
Q 1688 409 2113 409 
Q 2538 409 2786 701 
Q 3034 994 3034 1497 
Q 3034 2003 2786 2293 
Q 2538 2584 2113 2584 
z
M 3366 4563 
L 3366 3988 
Q 3128 4100 2886 4159 
Q 2644 4219 2406 4219 
Q 1781 4219 1451 3797 
Q 1122 3375 1075 2522 
Q 1259 2794 1537 2939 
Q 1816 3084 2150 3084 
Q 2853 3084 3261 2657 
Q 3669 2231 3669 1497 
Q 3669 778 3244 343 
Q 2819 -91 2113 -91 
Q 1303 -91 875 529 
Q 447 1150 447 2328 
Q 447 3434 972 4092 
Q 1497 4750 2381 4750 
Q 2619 4750 2861 4703 
Q 3103 4656 3366 4563 
z
" transform="scale(0.015625)"/>
     </defs>
     <use xlink:href="#DejaVuSans-36"/>
     <use xlink:href="#DejaVuSans-35" x="63.623047"/>
    </g>
   </g>
   <g id="text_9">
    <!-- EDWWHRZ4 -->
    <g style="opacity: 0.5" transform="translate(243.538689 78.056438)scale(0.0579 -0.0579)">
     <use xlink:href="#DejaVuSans-45"/>
     <use xlink:href="#DejaVuSans-44" x="63.183594"/>
     <use xlink:href="#DejaVuSans-57" x="140.185547"/>
     <use xlink:href="#DejaVuSans-57" x="239.0625"/>
     <use xlink:href="#DejaVuSans-48" x="337.939453"/>
     <use xlink:href="#DejaVuSans-52" x="413.134766"/>
     <use xlink:href="#DejaVuSans-5a" x="482.617188"/>
     <use xlink:href="#DejaVuSans-34" x="551.123047"/>
    </g>
    <!-- 245 -->
    <g style="opacity: 0.5" transform="translate(255.80987 84.539971)scale(0.0579 -0.0579)">
     <use xlink:href="#DejaVuSans-32"/>
     <use xlink:href="#DejaVuSans-34" x="63.623047"/>
     <use xlink:href="#DejaVuSans-35" x="127.246094"/>
    </g>
    <!-- GND -->
    <g style="opacity: 0.5" transform="translate(254.697557 91.023504)scale(0.0579 -0.0579)">
     <use xlink:href="#DejaVuSans-47"/>
     <use xlink:href="#DejaVuSans-4e" x="77.490234"/>
     <use xlink:href="#DejaVuSans-44" x="152.294922"/>
    </g>
   </g>
   <g id="text_10">
    <!-- EDWWHRZ6 -->
    <g style="opacity: 0.5" transform="translate(175.602675 82.115365)scale(0.0579 -0.0579)">
     <use xlink:href="#DejaVuSans-45"/>
     <use xlink:href="#DejaVuSans-44" x="63.183594"/>
     <use xlink:href="#DejaVuSans-57" x="140.185547"/>
     <use xlink:href="#DejaVuSans-57" x="239.0625"/>
     <use xlink:href="#DejaVuSans-48" x="337.939453"/>
     <use xlink:href="#DejaVuSans-52" x="413.134766"/>
     <use xlink:href="#DejaVuSans-5a" x="482.617188"/>
     <use xlink:href="#DejaVuSans-36" x="551.123047"/>
    </g>
    <!-- 155 -->
    <g style="opacity: 0.5" transform="translate(187.873857 88.598899)scale(0.0579 -0.0579)">
     <use xlink:href="#DejaVuSans-31"/>
     <use xlink:href="#DejaVuSans-35" x="63.623047"/>
     <use xlink:href="#DejaVuSans-35" x="127.246094"/>
    </g>
    <!-- GND -->
    <g style="opacity: 0.5" transform="translate(186.761543 95.082432)scale(0.0579 -0.0579)">
     <use xlink:href="#DejaVuSans-47"/>
     <use xlink:href="#DejaVuSans-4e" x="77.490234"/>
     <use xlink:href="#DejaVuSans-44" x="152.294922"/>
    </g>
   </g>
   <g id="text_11">
    <!-- EDWWHRZ9 -->
    <g style="opacity: 0.5" transform="translate(187.012898 121.961782)scale(0.0579 -0.0579)">
     <use xlink:href="#DejaVuSans-45"/>
     <use xlink:href="#DejaVuSans-44" x="63.183594"/>
     <use xlink:href="#DejaVuSans-57" x="140.185547"/>
     <use xlink:href="#DejaVuSans-57" x="239.0625"/>
     <use xlink:href="#DejaVuSans-48" x="337.939453"/>
     <use xlink:href="#DejaVuSans-52" x="413.134766"/>
     <use xlink:href="#DejaVuSans-5a" x="482.617188"/>
     <use xlink:href="#DejaVuSans-39" x="551.123047"/>
    </g>
    <!-- 105 -->
    <g style="opacity: 0.5" transform="translate(199.284079 128.445316)scale(0.0579 -0.0579)">
     <use xlink:href="#DejaVuSans-31"/>
     <use xlink:href="#DejaVuSans-30" x="63.623047"/>
     <use xlink:href="#DejaVuSans-35" x="127.246094"/>
    </g>
    <!-- GND -->
    <g style="opacity: 0.5" transform="translate(198.171766 134.928849)scale(0.0579 -0.0579)">
     <use xlink:href="#DejaVuSans-47"/>
     <use xlink:href="#DejaVuSans-4e" x="77.490234"/>
     <use xlink:href="#DejaVuSans-44" x="152.294922"/>
    </g>
   </g>
   <g id="text_12">
    <!-- GED1 -->
    <g style="opacity: 0.5" transform="translate(211.118538 197.700708)scale(0.0579 -0.0579)">
     <use xlink:href="#DejaVuSans-47"/>
     <use xlink:href="#DejaVuSans-45" x="77.490234"/>
     <use xlink:href="#DejaVuSans-44" x="140.673828"/>
     <use xlink:href="#DejaVuSans-31" x="217.675781"/>
    </g>
    <!-- 215 -->
    <g style="opacity: 0.5" transform="translate(213.736251 204.184241)scale(0.0579 -0.0579)">
     <use xlink:href="#DejaVuSans-32"/>
     <use xlink:href="#DejaVuSans-31" x="63.623047"/>
     <use xlink:href="#DejaVuSans-35" x="127.246094"/>
    </g>
    <!-- GND -->
    <g style="opacity: 0.5" transform="translate(212.623938 210.667775)scale(0.0579 -0.0579)">
     <use xlink:href="#DejaVuSans-47"/>
     <use xlink:href="#DejaVuSans-4e" x="77.490234"/>
     <use xlink:href="#DejaVuSans-44" x="152.294922"/>
    </g>
   </g>
   <g id="text_13">
    <!-- GED3 -->
    <g style="opacity: 0.5" transform="translate(191.00839 215.100832)scale(0.0579 -0.0579)">
     <use xlink:href="#DejaVuSans-47"/>
     <use xlink:href="#DejaVuSans-45" x="77.490234"/>
     <use xlink:href="#DejaVuSans-44" x="140.673828"/>
     <use xlink:href="#DejaVuSans-33" x="217.675781"/>
    </g>
    <!-- 215 -->
    <g style="opacity: 0.5" transform="translate(193.626104 221.584365)scale(0.0579 -0.0579)">
     <use xlink:href="#DejaVuSans-32"/>
     <use xlink:href="#DejaVuSans-31" x="63.623047"/>
     <use xlink:href="#DejaVuSans-35" x="127.246094"/>
    </g>
    <!-- 135 -->
    <g style="opacity: 0.5" transform="translate(193.626104 228.067898)scale(0.0579 -0.0579)">
     <use xlink:href="#DejaVuSans-31"/>
     <use xlink:href="#DejaVuSans-33" x="63.623047"/>
     <use xlink:href="#DejaVuSans-35" x="127.246094"/>
    </g>
   </g>
   <g id="text_14">
    <!-- GED4 -->
    <g style="opacity: 0.5" transform="translate(258.826688 172.163476)scale(0.0579 -0.0579)">
     <use xlink:href="#DejaVuSans-47"/>
     <use xlink:href="#DejaVuSans-45" x="77.490234"/>
     <use xlink:href="#DejaVuSans-44" x="140.673828"/>
     <use xlink:href="#DejaVuSans-34" x="217.675781"/>
    </g>
    <!-- 245 -->
    <g style="opacity: 0.5" transform="translate(261.444401 178.64701)scale(0.0579 -0.0579)">
     <use xlink:href="#DejaVuSans-32"/>
     <use xlink:href="#DejaVuSans-34" x="63.623047"/>
     <use xlink:href="#DejaVuSans-35" x="127.246094"/>
    </g>
    <!-- 175 -->
    <g style="opacity: 0.5" transform="translate(261.444401 185.130543)scale(0.0579 -0.0579)">
     <defs>
      <path id="DejaVuSans-37" d="M 525 4666 
L 3525 4666 
L 3525 4397 
L 1831 0 
L 1172 0 
L 2766 4134 
L 525 4134 
L 525 4666 
z
" transform="scale(0.015625)"/>
     </defs>
     <use xlink:href="#DejaVuSans-31"/>
     <use xlink:href="#DejaVuSans-37" x="63.623047"/>
     <use xlink:href="#DejaVuSans-35" x="127.246094"/>
    </g>
   </g>
   <g id="text_15">
    <!-- GED5 -->
    <g style="opacity: 0.5" transform="translate(257.165153 137.098271)scale(0.0579 -0.0579)">
     <use xlink:href="#DejaVuSans-47"/>
     <use xlink:href="#DejaVuSans-45" x="77.490234"/>
     <use xlink:href="#DejaVuSans-44" x="140.673828"/>
     <use xlink:href="#DejaVuSans-35" x="217.675781"/>
    </g>
    <!-- 245 -->
    <g style="opacity: 0.5" transform="translate(259.782866 143.581805)scale(0.0579 -0.0579)">
     <use xlink:href="#DejaVuSans-32"/>
     <use xlink:href="#DejaVuSans-34" x="63.623047"/>
     <use xlink:href="#DejaVuSans-35" x="127.246094"/>
    </g>
    <!-- 215 -->
    <g style="opacity: 0.5" transform="translate(259.782866 150.065338)scale(0.0579 -0.0579)">
     <use xlink:href="#DejaVuSans-32"/>
     <use xlink:href="#DejaVuSans-31" x="63.623047"/>
     <use xlink:href="#DejaVuSans-35" x="127.246094"/>
    </g>
   </g>
   <g id="text_16">
    <!-- GED6 -->
    <g style="opacity: 0.5" transform="translate(256.478422 101.087174)scale(0.0579 -0.0579)">
     <use xlink:href="#DejaVuSans-47"/>
     <use xlink:href="#DejaVuSans-45" x="77.490234"/>
     <use xlink:href="#DejaVuSans-44" x="140.673828"/>
     <use xlink:href="#DejaVuSans-36" x="217.675781"/>
    </g>
    <!-- 245 -->
    <g style="opacity: 0.5" transform="translate(259.096135 107.570707)scale(0.0579 -0.0579)">
     <use xlink:href="#DejaVuSans-32"/>
     <use xlink:href="#DejaVuSans-34" x="63.623047"/>
     <use xlink:href="#DejaVuSans-35" x="127.246094"/>
    </g>
    <!-- 235 -->
    <g style="opacity: 0.5" transform="translate(259.096135 114.054241)scale(0.0579 -0.0579)">
     <use xlink:href="#DejaVuSans-32"/>
     <use xlink:href="#DejaVuSans-33" x="63.623047"/>
     <use xlink:href="#DejaVuSans-35" x="127.246094"/>
    </g>
   </g>
   <g id="text_17">
    <!-- GIN1 -->
    <g style="opacity: 0.5" transform="translate(148.024202 169.637908)scale(0.0579 -0.0579)">
     <defs>
      <path id="DejaVuSans-49" d="M 628 4666 
L 1259 4666 
L 1259 0 
L 628 0 
L 628 4666 
z
" transform="scale(0.015625)"/>
     </defs>
     <use xlink:href="#DejaVuSans-47"/>
     <use xlink:href="#DejaVuSans-49" x="77.490234"/>
     <use xlink:href="#DejaVuSans-4e" x="106.982422"/>
     <use xlink:href="#DejaVuSans-31" x="181.787109"/>
    </g>
    <!-- 205 -->
    <g style="opacity: 0.5" transform="translate(149.603334 176.121442)scale(0.0579 -0.0579)">
     <use xlink:href="#DejaVuSans-32"/>
     <use xlink:href="#DejaVuSans-30" x="63.623047"/>
     <use xlink:href="#DejaVuSans-35" x="127.246094"/>
    </g>
    <!-- GND -->
    <g style="opacity: 0.5" transform="translate(148.491021 182.604975)scale(0.0579 -0.0579)">
     <use xlink:href="#DejaVuSans-47"/>
     <use xlink:href="#DejaVuSans-4e" x="77.490234"/>
     <use xlink:href="#DejaVuSans-44" x="152.294922"/>
    </g>
   </g>
   <g id="text_18">
    <!-- GIN2 -->
    <g style="opacity: 0.5" transform="translate(188.616824 137.759199)scale(0.0579 -0.0579)">
     <use xlink:href="#DejaVuSans-47"/>
     <use xlink:href="#DejaVuSans-49" x="77.490234"/>
     <use xlink:href="#DejaVuSans-4e" x="106.982422"/>
     <use xlink:href="#DejaVuSans-32" x="181.787109"/>
    </g>
    <!-- 245 -->
    <g style="opacity: 0.5" transform="translate(190.195956 144.242733)scale(0.0579 -0.0579)">
     <use xlink:href="#DejaVuSans-32"/>
     <use xlink:href="#DejaVuSans-34" x="63.623047"/>
     <use xlink:href="#DejaVuSans-35" x="127.246094"/>
    </g>
    <!-- 195 -->
    <g style="opacity: 0.5" transform="translate(190.195956 150.726266)scale(0.0579 -0.0579)">
     <use xlink:href="#DejaVuSans-31"/>
     <use xlink:href="#DejaVuSans-39" x="63.623047"/>
     <use xlink:href="#DejaVuSans-35" x="127.246094"/>
    </g>
   </g>
   <g id="text_19">
    <!-- GIN3 -->
    <g style="opacity: 0.5" transform="translate(149.327389 162.537921)scale(0.0579 -0.0579)">
     <use xlink:href="#DejaVuSans-47"/>
     <use xlink:href="#DejaVuSans-49" x="77.490234"/>
     <use xlink:href="#DejaVuSans-4e" x="106.982422"/>
     <use xlink:href="#DejaVuSans-33" x="181.787109"/>
    </g>
    <!-- 245 -->
    <g style="opacity: 0.5" transform="translate(150.906521 169.021454)scale(0.0579 -0.0579)">
     <use xlink:href="#DejaVuSans-32"/>
     <use xlink:href="#DejaVuSans-34" x="63.623047"/>
     <use xlink:href="#DejaVuSans-35" x="127.246094"/>
    </g>
    <!-- 205 -->
    <g style="opacity: 0.5" transform="translate(150.906521 175.504988)scale(0.0579 -0.0579)">
     <use xlink:href="#DejaVuSans-32"/>
     <use xlink:href="#DejaVuSans-30" x="63.623047"/>
     <use xlink:href="#DejaVuSans-35" x="127.246094"/>
    </g>
   </g>
   <g id="text_20">
    <!-- GIN4 -->
    <g style="opacity: 0.5" transform="translate(166.193747 223.060761)scale(0.0579 -0.0579)">
     <use xlink:href="#DejaVuSans-47"/>
     <use xlink:href="#DejaVuSans-49" x="77.490234"/>
     <use xlink:href="#DejaVuSans-4e" x="106.982422"/>
     <use xlink:href="#DejaVuSans-34" x="181.787109"/>
    </g>
    <!-- 245 -->
    <g style="opacity: 0.5" transform="translate(167.772879 229.544295)scale(0.0579 -0.0579)">
     <use xlink:href="#DejaVuSans-32"/>
     <use xlink:href="#DejaVuSans-34" x="63.623047"/>
     <use xlink:href="#DejaVuSans-35" x="127.246094"/>
    </g>
    <!-- 135 -->
    <g style="opacity: 0.5" transform="translate(167.772879 236.027828)scale(0.0579 -0.0579)">
     <use xlink:href="#DejaVuSans-31"/>
     <use xlink:href="#DejaVuSans-33" x="63.623047"/>
     <use xlink:href="#DejaVuSans-35" x="127.246094"/>
    </g>
   </g>
   <g id="text_21">
    <!-- GIN6 -->
    <g style="opacity: 0.5" transform="translate(165.681894 120.674821)scale(0.0579 -0.0579)">
     <use xlink:href="#DejaVuSans-47"/>
     <use xlink:href="#DejaVuSans-49" x="77.490234"/>
     <use xlink:href="#DejaVuSans-4e" x="106.982422"/>
     <use xlink:href="#DejaVuSans-36" x="181.787109"/>
    </g>
    <!-- 205 -->
    <g style="opacity: 0.5" transform="translate(167.261026 127.158354)scale(0.0579 -0.0579)">
     <use xlink:href="#DejaVuSans-32"/>
     <use xlink:href="#DejaVuSans-30" x="63.623047"/>
     <use xlink:href="#DejaVuSans-35" x="127.246094"/>
    </g>
    <!-- 105 -->
    <g style="opacity: 0.5" transform="translate(167.261026 133.641888)scale(0.0579 -0.0579)">
     <use xlink:href="#DejaVuSans-31"/>
     <use xlink:href="#DejaVuSans-30" x="63.623047"/>
     <use xlink:href="#DejaVuSans-35" x="127.246094"/>
    </g>
   </g>
   <g id="text_22">
    <!-- GIN9 -->
    <g style="opacity: 0.5" transform="translate(164.988899 125.313446)scale(0.0579 -0.0579)">
     <use xlink:href="#DejaVuSans-47"/>
     <use xlink:href="#DejaVuSans-49" x="77.490234"/>
     <use xlink:href="#DejaVuSans-4e" x="106.982422"/>
     <use xlink:href="#DejaVuSans-39" x="181.787109"/>
    </g>
    <!-- 65 -->
    <g style="opacity: 0.5" transform="translate(168.409975 131.796979)scale(0.0579 -0.0579)">
     <use xlink:href="#DejaVuSans-36"/>
     <use xlink:href="#DejaVuSans-35" x="63.623047"/>
    </g>
    <!-- GND -->
    <g style="opacity: 0.5" transform="translate(165.455718 138.280512)scale(0.0579 -0.0579)">
     <use xlink:href="#DejaVuSans-47"/>
     <use xlink:href="#DejaVuSans-4e" x="77.490234"/>
     <use xlink:href="#DejaVuSans-44" x="152.294922"/>
    </g>
   </g>
   <g id="text_23">
    <!-- HAB1 -->
    <g style="opacity: 0.5" transform="translate(235.5484 241.352773)scale(0.0579 -0.0579)">
     <use xlink:href="#DejaVuSans-48"/>
     <use xlink:href="#DejaVuSans-41" x="75.195312"/>
     <use xlink:href="#DejaVuSans-42" x="143.603516"/>
     <use xlink:href="#DejaVuSans-31" x="212.207031"/>
    </g>
    <!-- 245 -->
    <g style="opacity: 0.5" transform="translate(238.008246 247.836306)scale(0.0579 -0.0579)">
     <use xlink:href="#DejaVuSans-32"/>
     <use xlink:href="#DejaVuSans-34" x="63.623047"/>
     <use xlink:href="#DejaVuSans-35" x="127.246094"/>
    </g>
    <!-- GND -->
    <g style="opacity: 0.5" transform="translate(236.895932 254.31984)scale(0.0579 -0.0579)">
     <use xlink:href="#DejaVuSans-47"/>
     <use xlink:href="#DejaVuSans-4e" x="77.490234"/>
     <use xlink:href="#DejaVuSans-44" x="152.294922"/>
    </g>
   </g>
   <g id="text_24">
    <!-- HAB3 -->
    <g style="opacity: 0.5" transform="translate(194.232965 242.153483)scale(0.0579 -0.0579)">
     <use xlink:href="#DejaVuSans-48"/>
     <use xlink:href="#DejaVuSans-41" x="75.195312"/>
     <use xlink:href="#DejaVuSans-42" x="143.603516"/>
     <use xlink:href="#DejaVuSans-33" x="212.207031"/>
    </g>
    <!-- 245 -->
    <g style="opacity: 0.5" transform="translate(196.69281 248.637016)scale(0.0579 -0.0579)">
     <use xlink:href="#DejaVuSans-32"/>
     <use xlink:href="#DejaVuSans-34" x="63.623047"/>
     <use xlink:href="#DejaVuSans-35" x="127.246094"/>
    </g>
    <!-- 135 -->
    <g style="opacity: 0.5" transform="translate(196.69281 255.120549)scale(0.0579 -0.0579)">
     <use xlink:href="#DejaVuSans-31"/>
     <use xlink:href="#DejaVuSans-33" x="63.623047"/>
     <use xlink:href="#DejaVuSans-35" x="127.246094"/>
    </g>
   </g>
   <g id="text_25">
    <!-- HEF1 -->
    <g transform="translate(206.482872 158.364114)scale(0.0579 -0.0579)">
     <use xlink:href="#DejaVuSans-48"/>
     <use xlink:href="#DejaVuSans-45" x="75.195312"/>
     <use xlink:href="#DejaVuSans-46" x="138.378906"/>
     <use xlink:href="#DejaVuSans-31" x="195.898438"/>
    </g>
    <!-- 245 -->
    <g transform="translate(208.470471 164.847648)scale(0.0579 -0.0579)">
     <use xlink:href="#DejaVuSans-32"/>
     <use xlink:href="#DejaVuSans-34" x="63.623047"/>
     <use xlink:href="#DejaVuSans-35" x="127.246094"/>
    </g>
    <!-- GND -->
    <g transform="translate(207.358157 171.331181)scale(0.0579 -0.0579)">
     <use xlink:href="#DejaVuSans-47"/>
     <use xlink:href="#DejaVuSans-4e" x="77.490234"/>
     <use xlink:href="#DejaVuSans-44" x="152.294922"/>
    </g>
   </g>
   <g id="text_26">
    <!-- HEF10 -->
    <g transform="translate(269.689582 161.570898)scale(0.0579 -0.0579)">
     <use xlink:href="#DejaVuSans-48"/>
     <use xlink:href="#DejaVuSans-45" x="75.195312"/>
     <use xlink:href="#DejaVuSans-46" x="138.378906"/>
     <use xlink:href="#DejaVuSans-31" x="195.898438"/>
     <use xlink:href="#DejaVuSans-30" x="259.521484"/>
    </g>
    <!-- 175 -->
    <g transform="translate(273.519124 168.054431)scale(0.0579 -0.0579)">
     <use xlink:href="#DejaVuSans-31"/>
     <use xlink:href="#DejaVuSans-37" x="63.623047"/>
     <use xlink:href="#DejaVuSans-35" x="127.246094"/>
    </g>
    <!-- 145 -->
    <g transform="translate(273.519124 174.537965)scale(0.0579 -0.0579)">
     <use xlink:href="#DejaVuSans-31"/>
     <use xlink:href="#DejaVuSans-34" x="63.623047"/>
     <use xlink:href="#DejaVuSans-35" x="127.246094"/>
    </g>
   </g>
   <g id="text_27">
    <!-- HEF11 -->
    <g transform="translate(209.475795 200.094347)scale(0.0579 -0.0579)">
     <use xlink:href="#DejaVuSans-48"/>
     <use xlink:href="#DejaVuSans-45" x="75.195312"/>
     <use xlink:href="#DejaVuSans-46" x="138.378906"/>
     <use xlink:href="#DejaVuSans-31" x="195.898438"/>
     <use xlink:href="#DejaVuSans-31" x="259.521484"/>
    </g>
    <!-- 245 -->
    <g transform="translate(213.305337 206.577881)scale(0.0579 -0.0579)">
     <use xlink:href="#DejaVuSans-32"/>
     <use xlink:href="#DejaVuSans-34" x="63.623047"/>
     <use xlink:href="#DejaVuSans-35" x="127.246094"/>
    </g>
    <!-- 215 -->
    <g transform="translate(213.305337 213.061414)scale(0.0579 -0.0579)">
     <use xlink:href="#DejaVuSans-32"/>
     <use xlink:href="#DejaVuSans-31" x="63.623047"/>
     <use xlink:href="#DejaVuSans-35" x="127.246094"/>
    </g>
   </g>
   <g id="text_28">
    <!-- HEF12 -->
    <g transform="translate(216.454202 124.108971)scale(0.0579 -0.0579)">
     <use xlink:href="#DejaVuSans-48"/>
     <use xlink:href="#DejaVuSans-45" x="75.195312"/>
     <use xlink:href="#DejaVuSans-46" x="138.378906"/>
     <use xlink:href="#DejaVuSans-31" x="195.898438"/>
     <use xlink:href="#DejaVuSans-32" x="259.521484"/>
    </g>
    <!-- 255 -->
    <g transform="translate(220.283744 130.592504)scale(0.0579 -0.0579)">
     <use xlink:href="#DejaVuSans-32"/>
     <use xlink:href="#DejaVuSans-35" x="63.623047"/>
     <use xlink:href="#DejaVuSans-35" x="127.246094"/>
    </g>
    <!-- 245 -->
    <g transform="translate(220.283744 137.076038)scale(0.0579 -0.0579)">
     <use xlink:href="#DejaVuSans-32"/>
     <use xlink:href="#DejaVuSans-34" x="63.623047"/>
     <use xlink:href="#DejaVuSans-35" x="127.246094"/>
    </g>
   </g>
   <g id="text_29">
    <!-- HEF2 -->
    <g transform="translate(186.56383 146.788175)scale(0.0579 -0.0579)">
     <use xlink:href="#DejaVuSans-48"/>
     <use xlink:href="#DejaVuSans-45" x="75.195312"/>
     <use xlink:href="#DejaVuSans-46" x="138.378906"/>
     <use xlink:href="#DejaVuSans-32" x="195.898438"/>
    </g>
    <!-- 195 -->
    <g transform="translate(188.551428 153.271708)scale(0.0579 -0.0579)">
     <use xlink:href="#DejaVuSans-31"/>
     <use xlink:href="#DejaVuSans-39" x="63.623047"/>
     <use xlink:href="#DejaVuSans-35" x="127.246094"/>
    </g>
    <!-- GND -->
    <g transform="translate(187.439115 159.755242)scale(0.0579 -0.0579)">
     <use xlink:href="#DejaVuSans-47"/>
     <use xlink:href="#DejaVuSans-4e" x="77.490234"/>
     <use xlink:href="#DejaVuSans-44" x="152.294922"/>
    </g>
   </g>
   <g id="text_30">
    <!-- HEF3 -->
    <g transform="translate(189.098714 125.532036)scale(0.0579 -0.0579)">
     <use xlink:href="#DejaVuSans-48"/>
     <use xlink:href="#DejaVuSans-45" x="75.195312"/>
     <use xlink:href="#DejaVuSans-46" x="138.378906"/>
     <use xlink:href="#DejaVuSans-33" x="195.898438"/>
    </g>
    <!-- 65 -->
    <g transform="translate(192.928256 132.015569)scale(0.0579 -0.0579)">
     <use xlink:href="#DejaVuSans-36"/>
     <use xlink:href="#DejaVuSans-35" x="63.623047"/>
    </g>
    <!-- GND -->
    <g transform="translate(189.973999 138.499103)scale(0.0579 -0.0579)">
     <use xlink:href="#DejaVuSans-47"/>
     <use xlink:href="#DejaVuSans-4e" x="77.490234"/>
     <use xlink:href="#DejaVuSans-44" x="152.294922"/>
    </g>
   </g>
   <g id="text_31">
    <!-- HEF4 -->
    <g transform="translate(254.141088 137.098271)scale(0.0579 -0.0579)">
     <use xlink:href="#DejaVuSans-48"/>
     <use xlink:href="#DejaVuSans-45" x="75.195312"/>
     <use xlink:href="#DejaVuSans-46" x="138.378906"/>
     <use xlink:href="#DejaVuSans-34" x="195.898438"/>
    </g>
    <!-- 215 -->
    <g transform="translate(256.128686 143.581805)scale(0.0579 -0.0579)">
     <use xlink:href="#DejaVuSans-32"/>
     <use xlink:href="#DejaVuSans-31" x="63.623047"/>
     <use xlink:href="#DejaVuSans-35" x="127.246094"/>
    </g>
    <!-- GND -->
    <g transform="translate(255.016373 150.065338)scale(0.0579 -0.0579)">
     <use xlink:href="#DejaVuSans-47"/>
     <use xlink:href="#DejaVuSans-4e" x="77.490234"/>
     <use xlink:href="#DejaVuSans-44" x="152.294922"/>
    </g>
   </g>
   <g id="text_32">
    <!-- HEF5 -->
    <g transform="translate(259.456802 178.681136)scale(0.0579 -0.0579)">
     <use xlink:href="#DejaVuSans-48"/>
     <use xlink:href="#DejaVuSans-45" x="75.195312"/>
     <use xlink:href="#DejaVuSans-46" x="138.378906"/>
     <use xlink:href="#DejaVuSans-35" x="195.898438"/>
    </g>
    <!-- 175 -->
    <g transform="translate(261.444401 185.16467)scale(0.0579 -0.0579)">
     <use xlink:href="#DejaVuSans-31"/>
     <use xlink:href="#DejaVuSans-37" x="63.623047"/>
     <use xlink:href="#DejaVuSans-35" x="127.246094"/>
    </g>
    <!-- GND -->
    <g transform="translate(260.332088 191.648203)scale(0.0579 -0.0579)">
     <use xlink:href="#DejaVuSans-47"/>
     <use xlink:href="#DejaVuSans-4e" x="77.490234"/>
     <use xlink:href="#DejaVuSans-44" x="152.294922"/>
    </g>
   </g>
   <g id="text_33">
    <!-- HEF6 -->
    <g transform="translate(246.962711 215.58111)scale(0.0579 -0.0579)">
     <use xlink:href="#DejaVuSans-48"/>
     <use xlink:href="#DejaVuSans-45" x="75.195312"/>
     <use xlink:href="#DejaVuSans-46" x="138.378906"/>
     <use xlink:href="#DejaVuSans-36" x="195.898438"/>
    </g>
    <!-- 245 -->
    <g transform="translate(248.95031 222.064643)scale(0.0579 -0.0579)">
     <use xlink:href="#DejaVuSans-32"/>
     <use xlink:href="#DejaVuSans-34" x="63.623047"/>
     <use xlink:href="#DejaVuSans-35" x="127.246094"/>
    </g>
    <!-- GND -->
    <g transform="translate(247.837996 228.548177)scale(0.0579 -0.0579)">
     <use xlink:href="#DejaVuSans-47"/>
     <use xlink:href="#DejaVuSans-4e" x="77.490234"/>
     <use xlink:href="#DejaVuSans-44" x="152.294922"/>
    </g>
   </g>
   <g id="text_34">
    <!-- HEF7 -->
    <g transform="translate(189.010155 120.396469)scale(0.0579 -0.0579)">
     <use xlink:href="#DejaVuSans-48"/>
     <use xlink:href="#DejaVuSans-45" x="75.195312"/>
     <use xlink:href="#DejaVuSans-46" x="138.378906"/>
     <use xlink:href="#DejaVuSans-37" x="195.898438"/>
    </g>
    <!-- 195 -->
    <g transform="translate(190.997753 126.880003)scale(0.0579 -0.0579)">
     <use xlink:href="#DejaVuSans-31"/>
     <use xlink:href="#DejaVuSans-39" x="63.623047"/>
     <use xlink:href="#DejaVuSans-35" x="127.246094"/>
    </g>
    <!-- 105 -->
    <g transform="translate(190.997753 133.363536)scale(0.0579 -0.0579)">
     <use xlink:href="#DejaVuSans-31"/>
     <use xlink:href="#DejaVuSans-30" x="63.623047"/>
     <use xlink:href="#DejaVuSans-35" x="127.246094"/>
    </g>
   </g>
   <g id="text_35">
    <!-- HEF8 -->
    <g transform="translate(219.261914 121.961782)scale(0.0579 -0.0579)">
     <defs>
      <path id="DejaVuSans-38" d="M 2034 2216 
Q 1584 2216 1326 1975 
Q 1069 1734 1069 1313 
Q 1069 891 1326 650 
Q 1584 409 2034 409 
Q 2484 409 2743 651 
Q 3003 894 3003 1313 
Q 3003 1734 2745 1975 
Q 2488 2216 2034 2216 
z
M 1403 2484 
Q 997 2584 770 2862 
Q 544 3141 544 3541 
Q 544 4100 942 4425 
Q 1341 4750 2034 4750 
Q 2731 4750 3128 4425 
Q 3525 4100 3525 3541 
Q 3525 3141 3298 2862 
Q 3072 2584 2669 2484 
Q 3125 2378 3379 2068 
Q 3634 1759 3634 1313 
Q 3634 634 3220 271 
Q 2806 -91 2034 -91 
Q 1263 -91 848 271 
Q 434 634 434 1313 
Q 434 1759 690 2068 
Q 947 2378 1403 2484 
z
M 1172 3481 
Q 1172 3119 1398 2916 
Q 1625 2713 2034 2713 
Q 2441 2713 2670 2916 
Q 2900 3119 2900 3481 
Q 2900 3844 2670 4047 
Q 2441 4250 2034 4250 
Q 1625 4250 1398 4047 
Q 1172 3844 1172 3481 
z
" transform="scale(0.015625)"/>
     </defs>
     <use xlink:href="#DejaVuSans-48"/>
     <use xlink:href="#DejaVuSans-45" x="75.195312"/>
     <use xlink:href="#DejaVuSans-46" x="138.378906"/>
     <use xlink:href="#DejaVuSans-38" x="195.898438"/>
    </g>
    <!-- 245 -->
    <g transform="translate(221.249512 128.445316)scale(0.0579 -0.0579)">
     <use xlink:href="#DejaVuSans-32"/>
     <use xlink:href="#DejaVuSans-34" x="63.623047"/>
     <use xlink:href="#DejaVuSans-35" x="127.246094"/>
    </g>
    <!-- 105 -->
    <g transform="translate(221.249512 134.928849)scale(0.0579 -0.0579)">
     <use xlink:href="#DejaVuSans-31"/>
     <use xlink:href="#DejaVuSans-30" x="63.623047"/>
     <use xlink:href="#DejaVuSans-35" x="127.246094"/>
    </g>
   </g>
   <g id="text_36">
    <!-- HEF9 -->
    <g transform="translate(261.090803 131.396607)scale(0.0579 -0.0579)">
     <use xlink:href="#DejaVuSans-48"/>
     <use xlink:href="#DejaVuSans-45" x="75.195312"/>
     <use xlink:href="#DejaVuSans-46" x="138.378906"/>
     <use xlink:href="#DejaVuSans-39" x="195.898438"/>
    </g>
    <!-- 215 -->
    <g transform="translate(263.078401 137.88014)scale(0.0579 -0.0579)">
     <use xlink:href="#DejaVuSans-32"/>
     <use xlink:href="#DejaVuSans-31" x="63.623047"/>
     <use xlink:href="#DejaVuSans-35" x="127.246094"/>
    </g>
    <!-- 145 -->
    <g transform="translate(263.078401 144.363674)scale(0.0579 -0.0579)">
     <use xlink:href="#DejaVuSans-31"/>
     <use xlink:href="#DejaVuSans-34" x="63.623047"/>
     <use xlink:href="#DejaVuSans-35" x="127.246094"/>
    </g>
   </g>
  </g>
 </g>
 <defs>
  <clipPath id="pbf16c28671">
   <rect x="110.025515" y="41.472" width="252.26897" height="266.112"/>
  </clipPath>
 </defs>
</svg>
