<?xml version="1.0" encoding="utf-8" standalone="no"?>
<!DOCTYPE svg PUBLIC "-//W3C//DTD SVG 1.1//EN"
  "http://www.w3.org/Graphics/SVG/1.1/DTD/svg11.dtd">
<svg xmlns:xlink="http://www.w3.org/1999/xlink" width="460.8pt" height="345.6pt" viewBox="0 0 460.8 345.6" xmlns="http://www.w3.org/2000/svg" version="1.1">
 <metadata>
  <rdf:RDF xmlns:dc="http://purl.org/dc/elements/1.1/" xmlns:cc="http://creativecommons.org/ns#" xmlns:rdf="http://www.w3.org/1999/02/22-rdf-syntax-ns#">
   <cc:Work>
    <dc:type rdf:resource="http://purl.org/dc/dcmitype/StillImage"/>
    <dc:date>2022-04-24T23:37:01.008702</dc:date>
    <dc:format>image/svg+xml</dc:format>
    <dc:creator>
     <cc:Agent>
      <dc:title>Matplotlib v3.5.0, https://matplotlib.org/</dc:title>
     </cc:Agent>
    </dc:creator>
   </cc:Work>
  </rdf:RDF>
 </metadata>
 <defs>
  <style type="text/css">*{stroke-linejoin: round; stroke-linecap: butt}</style>
 </defs>
 <g id="figure_1">
  <g id="patch_1">
   <path d="M 0 345.6 
L 460.8 345.6 
L 460.8 0 
L 0 0 
z
" style="fill: #ffffff"/>
  </g>
  <g id="axes_1">
   <g id="patch_2">
    <path d="M 185.593234 114.995944 
L 216.133255 117.189741 
L 232.047134 118.479344 
L 289.334247 138.084407 
L 289.883202 160.866148 
L 290.466903 185.713181 
L 291.473813 186.280454 
L 324.881949 204.885581 
L 359.093719 223.949772 
L 264.246931 214.112587 
L 230.239307 215.09203 
L 205.865812 222.342181 
L 189.975677 138.21311 
z
" clip-path="url(#p3b0d5e0809)" style="fill: #ffedd9; stroke: #ffedd9; stroke-linejoin: miter"/>
   </g>
   <g id="patch_3">
    <path d="M 289.334247 138.084407 
L 317.599875 130.15565 
L 323.396241 117.33429 
L 334.948561 121.720793 
L 353.046228 121.642572 
L 383.904464 121.545935 
L 390.89524 169.636845 
L 398.487273 220.348785 
L 359.093719 223.949772 
L 324.881949 204.885581 
L 291.473813 186.280454 
L 290.466903 185.713181 
L 289.883202 160.866148 
z
" clip-path="url(#p3b0d5e0809)" style="fill: #ffedd9; stroke: #ffedd9; stroke-linejoin: miter"/>
   </g>
   <g id="patch_4">
    <path d="M 76.811863 115.635885 
L 171.130796 113.784937 
L 185.593234 114.995944 
L 189.975677 138.21311 
L 205.865812 222.342181 
L 126.502586 226.50225 
L 105.236485 227.704439 
L 117.0001 188.821417 
L 93.744372 173.620358 
L 73.832727 159.387625 
L 74.134817 155.200374 
L 75.310561 138.074944 
z
" clip-path="url(#p3b0d5e0809)" style="fill: #ffedd9; stroke: #ffedd9; stroke-linejoin: miter"/>
   </g>
   <g id="patch_5">
    <path d="M 288.555016 104.162192 
L 323.396241 117.33429 
L 317.599875 130.15565 
L 289.334247 138.084407 
z
" clip-path="url(#p3b0d5e0809)" style="fill: #ffedd9; stroke: #ffedd9; stroke-linejoin: miter"/>
   </g>
   <g id="patch_6">
    <path d="M 139.021127 172.77718 
L 151.336931 183.883028 
L 164.492003 202.37323 
L 160.820544 224.723028 
L 129.197837 244.893808 
L 118.627801 192.296676 
L 117.124991 188.636121 
z
" clip-path="url(#p3b0d5e0809)" style="fill: #ffedd9; stroke: #ffedd9; stroke-linejoin: miter"/>
   </g>
   <g id="patch_7">
    <path d="M 185.593234 114.995944 
L 216.133255 117.189741 
L 232.047134 118.479344 
L 289.334247 138.084407 
L 289.883202 160.866148 
L 290.466903 185.713181 
L 291.473813 186.280454 
L 324.881949 204.885581 
L 359.093719 223.949772 
L 264.246931 214.112587 
L 230.239307 215.09203 
L 205.865812 222.342181 
L 189.975677 138.21311 
L 185.593234 114.995944 
z
" clip-path="url(#p3b0d5e0809)" style="fill: #ffedd9; stroke: #ffedd9; stroke-linejoin: miter"/>
   </g>
   <g id="patch_8">
    <path d="M 289.334247 138.084407 
L 317.599875 130.15565 
L 323.396241 117.33429 
L 334.948561 121.720793 
L 353.046228 121.642572 
L 383.904464 121.545935 
L 390.89524 169.636845 
L 398.487273 220.348785 
L 359.093719 223.949772 
L 324.881949 204.885581 
L 291.473813 186.280454 
L 290.466903 185.713181 
L 289.883202 160.866148 
L 289.334247 138.084407 
z
" clip-path="url(#p3b0d5e0809)" style="fill: #ffedd9; stroke: #ffedd9; stroke-linejoin: miter"/>
   </g>
   <g id="patch_9">
    <path d="M 76.811863 115.635885 
L 171.130796 113.784937 
L 185.593234 114.995944 
L 189.975677 138.21311 
L 205.865812 222.342181 
L 126.502586 226.50225 
L 105.236485 227.704439 
L 117.0001 188.821417 
L 93.744372 173.620358 
L 73.832727 159.387625 
L 74.134817 155.200374 
L 75.310561 138.074944 
L 76.811863 115.635885 
z
" clip-path="url(#p3b0d5e0809)" style="fill: #ffedd9; stroke: #ffedd9; stroke-linejoin: miter"/>
   </g>
   <g id="patch_10">
    <path d="M 288.555016 104.162192 
L 323.396241 117.33429 
L 317.599875 130.15565 
L 289.334247 138.084407 
L 288.555016 104.162192 
z
" clip-path="url(#p3b0d5e0809)" style="fill: #ffedd9; stroke: #ffedd9; stroke-linejoin: miter"/>
   </g>
   <g id="patch_11">
    <path d="M 139.021127 172.77718 
L 151.336931 183.883028 
L 164.492003 202.37323 
L 160.820544 224.723028 
L 129.197837 244.893808 
L 118.627801 192.296676 
L 117.124991 188.636121 
L 139.021127 172.77718 
z
" clip-path="url(#p3b0d5e0809)" style="fill: #ffedd9; stroke: #ffedd9; stroke-linejoin: miter"/>
   </g>
   <g id="line2d_1">
    <path d="M 185.593234 114.995944 
L 216.133255 117.189741 
L 232.047134 118.479344 
L 289.334247 138.084407 
L 289.883202 160.866148 
L 290.466903 185.713181 
L 291.473813 186.280454 
L 324.881949 204.885581 
L 359.093719 223.949772 
L 264.246931 214.112587 
L 230.239307 215.09203 
L 205.865812 222.342181 
L 189.975677 138.21311 
L 185.593234 114.995944 
" clip-path="url(#p3b0d5e0809)" style="fill: none; stroke: #ffc380; stroke-width: 0.5; stroke-linecap: square"/>
   </g>
   <g id="line2d_2">
    <path d="M 289.334247 138.084407 
L 317.599875 130.15565 
L 323.396241 117.33429 
L 334.948561 121.720793 
L 353.046228 121.642572 
L 383.904464 121.545935 
L 390.89524 169.636845 
L 398.487273 220.348785 
L 359.093719 223.949772 
L 324.881949 204.885581 
L 291.473813 186.280454 
L 290.466903 185.713181 
L 289.883202 160.866148 
L 289.334247 138.084407 
" clip-path="url(#p3b0d5e0809)" style="fill: none; stroke: #ffc380; stroke-width: 0.5; stroke-linecap: square"/>
   </g>
   <g id="line2d_3">
    <path d="M 76.811863 115.635885 
L 171.130796 113.784937 
L 185.593234 114.995944 
L 189.975677 138.21311 
L 205.865812 222.342181 
L 126.502586 226.50225 
L 105.236485 227.704439 
L 117.0001 188.821417 
L 93.744372 173.620358 
L 73.832727 159.387625 
L 74.134817 155.200374 
L 75.310561 138.074944 
L 76.811863 115.635885 
" clip-path="url(#p3b0d5e0809)" style="fill: none; stroke: #ffc380; stroke-width: 0.5; stroke-linecap: square"/>
   </g>
   <g id="line2d_4">
    <path d="M 288.555016 104.162192 
L 323.396241 117.33429 
L 317.599875 130.15565 
L 289.334247 138.084407 
L 288.555016 104.162192 
" clip-path="url(#p3b0d5e0809)" style="fill: none; stroke: #ffc380; stroke-width: 0.5; stroke-linecap: square"/>
   </g>
   <g id="line2d_5">
    <path d="M 139.021127 172.77718 
L 151.336931 183.883028 
L 164.492003 202.37323 
L 160.820544 224.723028 
L 129.197837 244.893808 
L 118.627801 192.296676 
L 117.124991 188.636121 
L 139.021127 172.77718 
" clip-path="url(#p3b0d5e0809)" style="fill: none; stroke: #ffc380; stroke-width: 0.5; stroke-linecap: square"/>
   </g>
   <g id="line2d_6">
    <path d="M 289.883202 160.866148 
L 331.523385 171.033546 
L 291.473813 186.280454 
L 290.466903 185.713181 
L 289.883202 160.866148 
L 331.523385 171.033546 
L 291.473813 186.280454 
L 290.466903 185.713181 
L 289.883202 160.866148 
" clip-path="url(#p3b0d5e0809)" style="fill: none; stroke: #8f8f8f; stroke-width: 0.2; stroke-linecap: square"/>
   </g>
   <g id="line2d_7">
    <path d="M 288.555016 104.162192 
L 292.726684 102.865041 
L 316.173314 95.608901 
L 363.490757 80.942277 
L 377.784475 76.451134 
L 386.961807 73.656755 
L 412.635636 104.729713 
L 418.702891 137.85299 
L 404.630666 143.21004 
L 331.523385 171.033546 
L 289.883202 160.866148 
L 289.334247 138.084407 
L 288.555016 104.162192 
" clip-path="url(#p3b0d5e0809)" style="fill: none; stroke: #8f8f8f; stroke-width: 0.2; stroke-linecap: square"/>
   </g>
   <g id="line2d_8">
    <path d="M 461.8 121.447719 
L 418.702891 137.85299 
L 412.635636 104.729713 
L 461.8 85.968796 
" clip-path="url(#p3b0d5e0809)" style="fill: none; stroke: #8f8f8f; stroke-width: 0.2; stroke-linecap: square"/>
   </g>
   <g id="line2d_9">
    <path d="M 291.473813 186.280454 
L 331.523385 171.033546 
L 381.481702 183.26159 
L 324.881949 204.885581 
L 291.473813 186.280454 
L 331.523385 171.033546 
L 381.481702 183.26159 
L 324.881949 204.885581 
L 291.473813 186.280454 
" clip-path="url(#p3b0d5e0809)" style="fill: none; stroke: #8f8f8f; stroke-width: 0.2; stroke-linecap: square"/>
   </g>
   <g id="line2d_10">
    <path d="M 331.523385 171.033546 
L 404.630666 143.21004 
L 405.315061 174.246269 
L 381.481702 183.26159 
L 331.523385 171.033546 
" clip-path="url(#p3b0d5e0809)" style="fill: none; stroke: #8f8f8f; stroke-width: 0.2; stroke-linecap: square"/>
   </g>
   <g id="line2d_11">
    <path d="M 386.961807 73.656755 
L 399.163748 69.835419 
L 422.18954 62.72546 
L 440.492592 56.990276 
L 461.8 50.469874 
M 461.8 85.968796 
L 412.635636 104.729713 
L 386.961807 73.656755 
" clip-path="url(#p3b0d5e0809)" style="fill: none; stroke: #8f8f8f; stroke-width: 0.2; stroke-linecap: square"/>
   </g>
   <g id="line2d_12">
    <path d="M 324.881949 204.885581 
L 381.481702 183.26159 
L 405.315061 174.246269 
L 439.667246 161.138878 
L 461.8 173.463848 
M 461.8 213.34127 
L 447.887574 215.818041 
L 406.257673 219.612241 
L 398.487273 220.348785 
L 359.093719 223.949772 
L 324.881949 204.885581 
" clip-path="url(#p3b0d5e0809)" style="fill: none; stroke: #8f8f8f; stroke-width: 0.2; stroke-linecap: square"/>
   </g>
   <g id="line2d_13">
    <path d="M 422.18954 62.72546 
L 440.492592 56.990276 
L 461.8 50.469874 
M 461.8 121.39142 
L 429.077261 133.824667 
L 418.702891 137.85299 
L 417.50964 102.878432 
L 408.967288 78.34582 
L 422.18954 62.72546 
" clip-path="url(#p3b0d5e0809)" style="fill: none; stroke: #8f8f8f; stroke-width: 0.2; stroke-linecap: square"/>
   </g>
   <g id="line2d_14">
    <path clip-path="url(#p3b0d5e0809)" style="fill: none; stroke: #8f8f8f; stroke-width: 0.2; stroke-linecap: square"/>
   </g>
   <g id="line2d_15">
    <path d="M 429.077261 133.824667 
L 461.8 121.39142 
M 461.8 173.463848 
L 439.667246 161.138878 
L 429.077261 133.824667 
" clip-path="url(#p3b0d5e0809)" style="fill: none; stroke: #8f8f8f; stroke-width: 0.2; stroke-linecap: square"/>
   </g>
   <g id="line2d_16">
    <path d="M 292.726684 102.865041 
L 316.173314 95.608901 
L 326.852618 108.012878 
L 304.505693 116.547052 
L 292.726684 102.865041 
" clip-path="url(#p3b0d5e0809)" style="fill: none; stroke: #8f8f8f; stroke-width: 0.2; stroke-linecap: square"/>
   </g>
   <g id="line2d_17">
    <path d="M 363.490757 80.942277 
L 377.784475 76.451134 
L 386.961807 73.656755 
L 399.163748 69.835419 
L 422.18954 62.72546 
L 408.967288 78.34582 
L 417.50964 102.878432 
L 391.922929 112.619817 
L 363.490757 80.942277 
" clip-path="url(#p3b0d5e0809)" style="fill: none; stroke: #8f8f8f; stroke-width: 0.2; stroke-linecap: square"/>
   </g>
   <g id="line2d_18">
    <path d="M 289.883202 160.866148 
L 381.602773 183.261069 
L 405.315061 174.246269 
L 439.667246 161.138878 
L 461.8 173.463848 
M 461.8 213.34127 
L 447.887574 215.818041 
L 406.257673 219.612241 
L 398.487273 220.348785 
L 359.093719 223.949772 
L 324.881949 204.885581 
L 291.473813 186.280454 
L 290.466903 185.713181 
L 289.883202 160.866148 
" clip-path="url(#p3b0d5e0809)" style="fill: none; stroke: #8f8f8f; stroke-width: 0.2; stroke-linecap: square"/>
   </g>
   <g id="line2d_19">
    <path clip-path="url(#p3b0d5e0809)" style="fill: none; stroke: #8f8f8f; stroke-width: 0.2; stroke-linecap: square"/>
   </g>
   <g id="line2d_20">
    <path clip-path="url(#p3b0d5e0809)" style="fill: none; stroke: #8f8f8f; stroke-width: 0.2; stroke-linecap: square"/>
   </g>
   <g id="line2d_21">
    <path clip-path="url(#p3b0d5e0809)" style="fill: none; stroke: #8f8f8f; stroke-width: 0.2; stroke-linecap: square"/>
   </g>
   <g id="line2d_22">
    <path clip-path="url(#p3b0d5e0809)" style="fill: none; stroke: #8f8f8f; stroke-width: 0.2; stroke-linecap: square"/>
   </g>
   <g id="line2d_23">
    <path clip-path="url(#p3b0d5e0809)" style="fill: none; stroke: #8f8f8f; stroke-width: 0.2; stroke-linecap: square"/>
   </g>
   <g id="line2d_24">
    <path clip-path="url(#p3b0d5e0809)" style="fill: none; stroke: #8f8f8f; stroke-width: 0.2; stroke-linecap: square"/>
   </g>
   <g id="line2d_25">
    <path clip-path="url(#p3b0d5e0809)" style="fill: none; stroke: #8f8f8f; stroke-width: 0.2; stroke-linecap: square"/>
   </g>
   <g id="line2d_26">
    <path clip-path="url(#p3b0d5e0809)" style="fill: none; stroke: #8f8f8f; stroke-width: 0.2; stroke-linecap: square"/>
   </g>
   <g id="line2d_27">
    <path d="M 298.215913 -1 
L 294.869705 1.052716 
L 294.193498 1.488244 
L 274.607586 12.598085 
L 254.661196 23.857216 
L 258.26619 31.331114 
L 227.583033 31.4429 
L 179.659748 31.793385 
L 176.893562 25.055653 
L 172.367584 14.034235 
L 166.167835 -1 
" clip-path="url(#p3b0d5e0809)" style="fill: none; stroke: #8f8f8f; stroke-width: 0.2; stroke-linecap: square"/>
   </g>
   <g id="line2d_28">
    <path d="M 166.167835 -1 
L 172.367584 14.034235 
L 176.893562 25.055653 
L 179.659748 31.793385 
L 169.709156 31.769438 
L 164.917858 32.695795 
L 137.477911 39.735709 
L 102.696918 52.559055 
L 66.080732 1.61625 
L 71.147118 -1 
" clip-path="url(#p3b0d5e0809)" style="fill: none; stroke: #8f8f8f; stroke-width: 0.2; stroke-linecap: square"/>
   </g>
   <g id="line2d_29">
    <path clip-path="url(#p3b0d5e0809)" style="fill: none; stroke: #8f8f8f; stroke-width: 0.2; stroke-linecap: square"/>
   </g>
   <g id="line2d_30">
    <path clip-path="url(#p3b0d5e0809)" style="fill: none; stroke: #8f8f8f; stroke-width: 0.2; stroke-linecap: square"/>
   </g>
   <g id="line2d_31">
    <path clip-path="url(#p3b0d5e0809)" style="fill: none; stroke: #8f8f8f; stroke-width: 0.2; stroke-linecap: square"/>
   </g>
   <g id="line2d_32">
    <path clip-path="url(#p3b0d5e0809)" style="fill: none; stroke: #8f8f8f; stroke-width: 0.2; stroke-linecap: square"/>
   </g>
   <g id="line2d_33">
    <path clip-path="url(#p3b0d5e0809)" style="fill: none; stroke: #8f8f8f; stroke-width: 0.2; stroke-linecap: square"/>
   </g>
   <g id="line2d_34">
    <path clip-path="url(#p3b0d5e0809)" style="fill: none; stroke: #8f8f8f; stroke-width: 0.2; stroke-linecap: square"/>
   </g>
   <g id="line2d_35">
    <path clip-path="url(#p3b0d5e0809)" style="fill: none; stroke: #8f8f8f; stroke-width: 0.2; stroke-linecap: square"/>
   </g>
   <g id="line2d_36">
    <path clip-path="url(#p3b0d5e0809)" style="fill: none; stroke: #8f8f8f; stroke-width: 0.2; stroke-linecap: square"/>
   </g>
   <g id="line2d_37">
    <path clip-path="url(#p3b0d5e0809)" style="fill: none; stroke: #8f8f8f; stroke-width: 0.2; stroke-linecap: square"/>
   </g>
   <g id="line2d_38">
    <path clip-path="url(#p3b0d5e0809)" style="fill: none; stroke: #8f8f8f; stroke-width: 0.2; stroke-linecap: square"/>
   </g>
   <g id="line2d_39">
    <path clip-path="url(#p3b0d5e0809)" style="fill: none; stroke: #8f8f8f; stroke-width: 0.2; stroke-linecap: square"/>
   </g>
   <g id="line2d_40">
    <path clip-path="url(#p3b0d5e0809)" style="fill: none; stroke: #8f8f8f; stroke-width: 0.2; stroke-linecap: square"/>
   </g>
   <g id="line2d_41">
    <path clip-path="url(#p3b0d5e0809)" style="fill: none; stroke: #8f8f8f; stroke-width: 0.2; stroke-linecap: square"/>
   </g>
   <g id="line2d_42">
    <path clip-path="url(#p3b0d5e0809)" style="fill: none; stroke: #8f8f8f; stroke-width: 0.2; stroke-linecap: square"/>
   </g>
   <g id="line2d_43">
    <path clip-path="url(#p3b0d5e0809)" style="fill: none; stroke: #8f8f8f; stroke-width: 0.2; stroke-linecap: square"/>
   </g>
   <g id="line2d_44">
    <path clip-path="url(#p3b0d5e0809)" style="fill: none; stroke: #8f8f8f; stroke-width: 0.2; stroke-linecap: square"/>
   </g>
   <g id="line2d_45">
    <path clip-path="url(#p3b0d5e0809)" style="fill: none; stroke: #8f8f8f; stroke-width: 0.2; stroke-linecap: square"/>
   </g>
   <g id="line2d_46">
    <path clip-path="url(#p3b0d5e0809)" style="fill: none; stroke: #8f8f8f; stroke-width: 0.2; stroke-linecap: square"/>
   </g>
   <g id="line2d_47">
    <path d="M 39.272225 18.875683 
L 66.080732 1.61625 
L 102.696918 52.559055 
L 96.363612 70.0736 
L 39.272225 18.875683 
" clip-path="url(#p3b0d5e0809)" style="fill: none; stroke: #8f8f8f; stroke-width: 0.2; stroke-linecap: square"/>
   </g>
   <g id="line2d_48">
    <path d="M 63.853428 -1 
L 66.080732 1.61625 
L 39.272225 18.875683 
L 96.363612 70.0736 
L 78.836555 86.197504 
L 78.78464 86.697104 
L 76.811863 115.635885 
L 65.741728 115.365615 
L 65.757325 114.739939 
L 63.982368 113.506016 
L 62.701608 111.783404 
L 63.595531 109.739881 
L 62.910228 108.282663 
L 63.741765 107.114063 
L 62.332157 105.763782 
L 61.933009 105.691079 
L 58.057182 105.154022 
L 57.72041 107.336659 
L 57.093442 108.322262 
L 55.916476 108.855366 
L 55.034607 108.832526 
L 53.978385 107.803331 
L 51.47794 106.798781 
L 50.7379 105.965383 
L 50.453164 103.07783 
L 49.823727 102.622934 
L 49.060891 102.665344 
L 45.570221 104.262711 
L 42.484973 104.179479 
L 40.691255 105.257694 
L 40.896727 108.018213 
L 41.290739 108.279391 
L 40.458338 109.383715 
L 39.819185 113.686472 
L 33.822835 115.712349 
L 31.986242 116.788024 
L 30.895698 118.447949 
L 30.727771 120.133792 
L 29.480961 123.041473 
L 29.752617 124.802337 
L 29.445085 125.73286 
L 28.498617 126.520061 
L 27.175396 126.419866 
L 25.164977 127.865216 
L 24.643612 129.2278 
L 24.777353 130.17086 
L 26.370608 132.09486 
L 26.427766 132.910479 
L 24.679429 134.989403 
L 24.696304 135.803881 
L 23.506312 138.023859 
L 19.753806 139.793766 
L 19.209307 140.529301 
L 19.501929 142.917236 
L 20.255321 144.692387 
L 21.760161 145.549979 
L 20.841175 148.09063 
L 19.00157 149.039039 
L 18.114559 149.075775 
L 17.532946 149.68493 
L 17.783511 150.756739 
L 16.916417 151.482748 
L 15.239047 150.995119 
L 13.899918 151.331268 
L 12.950157 152.117142 
L 11.670046 154.521162 
L 12.177817 156.414807 
L 11.362464 158.08121 
L 10.293008 158.800696 
L 10.126389 161.676144 
L 9.54556 162.222322 
L 8.059534 163.367452 
L 5.932799 165.68277 
L 8.019663 167.37384 
L 9.866171 167.6797 
L 11.331389 168.600073 
L 12.734291 170.269802 
L 13.144425 171.409062 
L 11.95288 172.125145 
L 9.183816 171.604221 
L 8.479599 172.209285 
L 9.423994 174.366614 
L 8.022695 175.326486 
L 7.977575 176.827975 
L 7.490548 178.253559 
L 6.294111 179.094159 
L 7.644212 181.201256 
L 7.442244 183.887785 
L 7.93882 184.841984 
L 7.285228 187.765421 
L 8.051538 189.166046 
L 13.492464 189.703595 
L -1 198.142669 
L -1 198.142669 
" clip-path="url(#p3b0d5e0809)" style="fill: none; stroke: #8f8f8f; stroke-width: 0.2; stroke-linecap: square"/>
   </g>
   <g id="line2d_49">
    <path d="M 105.236485 227.704439 
L 117.0001 188.821417 
L 93.744372 173.620358 
L 73.832727 159.387625 
L 74.134817 155.200374 
L 75.310561 138.074944 
L 76.811863 115.635885 
L 77.609437 104.073119 
L 78.78464 86.697104 
L 78.836555 86.197504 
L 96.363612 70.0736 
L 102.696918 52.559055 
L 66.080732 1.61625 
L 63.853428 -1 
M -1 246.958762 
L 5.769532 246.33128 
L 15.48267 244.865012 
L 16.618077 246.338196 
L 17.957762 246.376969 
L 19.700181 249.370117 
L 34.3433 260.576521 
L 41.790979 266.762035 
L 49.990084 264.473003 
L 58.746884 262.505044 
L 69.019632 258.250554 
L 75.016544 255.701961 
L 92.967433 265.689952 
L 99.193305 265.637288 
L 100.413261 265.663356 
L 110.172972 265.867022 
L 112.314509 268.602308 
L 122.48351 268.803245 
L 117.48629 256.060865 
L 105.236485 227.704439 
" clip-path="url(#p3b0d5e0809)" style="fill: none; stroke: #8f8f8f; stroke-width: 0.2; stroke-linecap: square"/>
   </g>
   <g id="line2d_50">
    <path clip-path="url(#p3b0d5e0809)" style="fill: none; stroke: #8f8f8f; stroke-width: 0.2; stroke-linecap: square"/>
   </g>
   <g id="line2d_51">
    <path clip-path="url(#p3b0d5e0809)" style="fill: none; stroke: #8f8f8f; stroke-width: 0.2; stroke-linecap: square"/>
   </g>
   <g id="line2d_52">
    <path clip-path="url(#p3b0d5e0809)" style="fill: none; stroke: #8f8f8f; stroke-width: 0.2; stroke-linecap: square"/>
   </g>
   <g id="line2d_53">
    <path clip-path="url(#p3b0d5e0809)" style="fill: none; stroke: #8f8f8f; stroke-width: 0.2; stroke-linecap: square"/>
   </g>
   <g id="line2d_54">
    <path clip-path="url(#p3b0d5e0809)" style="fill: none; stroke: #8f8f8f; stroke-width: 0.2; stroke-linecap: square"/>
   </g>
   <g id="line2d_55">
    <path clip-path="url(#p3b0d5e0809)" style="fill: none; stroke: #8f8f8f; stroke-width: 0.2; stroke-linecap: square"/>
   </g>
   <g id="line2d_56">
    <path clip-path="url(#p3b0d5e0809)" style="fill: none; stroke: #8f8f8f; stroke-width: 0.2; stroke-linecap: square"/>
   </g>
   <g id="line2d_57">
    <path d="M 0 0 
" clip-path="url(#p3b0d5e0809)" style="fill: none; stroke: #8f8f8f; stroke-width: 0.2; stroke-linecap: square"/>
   </g>
   <g id="line2d_58">
    <path clip-path="url(#p3b0d5e0809)" style="fill: none; stroke: #8f8f8f; stroke-width: 0.2; stroke-linecap: square"/>
   </g>
   <g id="line2d_59">
    <path clip-path="url(#p3b0d5e0809)" style="fill: none; stroke: #8f8f8f; stroke-width: 0.2; stroke-linecap: square"/>
   </g>
   <g id="line2d_60">
    <path clip-path="url(#p3b0d5e0809)" style="fill: none; stroke: #8f8f8f; stroke-width: 0.2; stroke-linecap: square"/>
   </g>
   <g id="line2d_61">
    <path clip-path="url(#p3b0d5e0809)" style="fill: none; stroke: #8f8f8f; stroke-width: 0.2; stroke-linecap: square"/>
   </g>
   <g id="line2d_62">
    <path clip-path="url(#p3b0d5e0809)" style="fill: none; stroke: #8f8f8f; stroke-width: 0.2; stroke-linecap: square"/>
   </g>
   <g id="line2d_63">
    <path clip-path="url(#p3b0d5e0809)" style="fill: none; stroke: #8f8f8f; stroke-width: 0.2; stroke-linecap: square"/>
   </g>
   <g id="line2d_64">
    <path clip-path="url(#p3b0d5e0809)" style="fill: none; stroke: #8f8f8f; stroke-width: 0.2; stroke-linecap: square"/>
   </g>
   <g id="line2d_65">
    <path clip-path="url(#p3b0d5e0809)" style="fill: none; stroke: #8f8f8f; stroke-width: 0.2; stroke-linecap: square"/>
   </g>
   <g id="line2d_66">
    <path clip-path="url(#p3b0d5e0809)" style="fill: none; stroke: #8f8f8f; stroke-width: 0.2; stroke-linecap: square"/>
   </g>
   <g id="line2d_67">
    <path clip-path="url(#p3b0d5e0809)" style="fill: none; stroke: #8f8f8f; stroke-width: 0.2; stroke-linecap: square"/>
   </g>
   <g id="line2d_68">
    <path clip-path="url(#p3b0d5e0809)" style="fill: none; stroke: #8f8f8f; stroke-width: 0.2; stroke-linecap: square"/>
   </g>
   <g id="line2d_69">
    <path clip-path="url(#p3b0d5e0809)" style="fill: none; stroke: #8f8f8f; stroke-width: 0.2; stroke-linecap: square"/>
   </g>
   <g id="line2d_70">
    <path clip-path="url(#p3b0d5e0809)" style="fill: none; stroke: #8f8f8f; stroke-width: 0.2; stroke-linecap: square"/>
   </g>
   <g id="line2d_71">
    <path clip-path="url(#p3b0d5e0809)" style="fill: none; stroke: #8f8f8f; stroke-width: 0.2; stroke-linecap: square"/>
   </g>
   <g id="line2d_72">
    <path clip-path="url(#p3b0d5e0809)" style="fill: none; stroke: #8f8f8f; stroke-width: 0.2; stroke-linecap: square"/>
   </g>
   <g id="line2d_73">
    <path clip-path="url(#p3b0d5e0809)" style="fill: none; stroke: #8f8f8f; stroke-width: 0.2; stroke-linecap: square"/>
   </g>
   <g id="line2d_74">
    <path clip-path="url(#p3b0d5e0809)" style="fill: none; stroke: #8f8f8f; stroke-width: 0.2; stroke-linecap: square"/>
   </g>
   <g id="line2d_75">
    <path d="M 192.270513 -1 
L 210.116149 10.66211 
L 173.689049 10.73694 
L 164.917858 32.695795 
L 140.414406 84.419533 
L 129.526189 133.229574 
L 64.349177 118.085511 
L 22.003707 107.987637 
L -1 86.736026 
" clip-path="url(#p3b0d5e0809)" style="fill: none; stroke: #8f8f8f; stroke-width: 0.2; stroke-linecap: square"/>
   </g>
   <g id="line2d_76">
    <path d="M 164.917858 32.695795 
L 173.689049 10.73694 
L 210.116149 10.66211 
L 191.618537 15.624559 
L 164.917858 32.695795 
" clip-path="url(#p3b0d5e0809)" style="fill: none; stroke: #8f8f8f; stroke-width: 0.2; stroke-linecap: square"/>
   </g>
   <g id="line2d_77">
    <path d="M -1 86.736026 
L 22.003707 107.987637 
L 64.349177 118.085511 
L 129.526189 133.229574 
L 117.124991 188.636121 
L 118.627801 192.296676 
L 129.197837 244.893808 
L 144.998931 322.545515 
L 141.277188 322.606307 
L 124.458443 346.6 
M 23.227464 346.6 
L 16.280809 290.348382 
L 15.648582 284.005712 
L 13.974688 271.496136 
L 16.618077 246.338196 
L 15.48267 244.865012 
L 5.769532 246.33128 
L -1 246.958762 
" clip-path="url(#p3b0d5e0809)" style="fill: none; stroke: #8f8f8f; stroke-width: 0.2; stroke-linecap: square"/>
   </g>
   <g id="line2d_78">
    <path clip-path="url(#p3b0d5e0809)" style="fill: none; stroke: #8f8f8f; stroke-width: 0.2; stroke-linecap: square"/>
   </g>
   <g id="line2d_79">
    <path clip-path="url(#p3b0d5e0809)" style="fill: none; stroke: #8f8f8f; stroke-width: 0.2; stroke-linecap: square"/>
   </g>
   <g id="line2d_80">
    <path clip-path="url(#p3b0d5e0809)" style="fill: none; stroke: #8f8f8f; stroke-width: 0.2; stroke-linecap: square"/>
   </g>
   <g id="line2d_81">
    <path clip-path="url(#p3b0d5e0809)" style="fill: none; stroke: #8f8f8f; stroke-width: 0.2; stroke-linecap: square"/>
   </g>
   <g id="line2d_82">
    <path clip-path="url(#p3b0d5e0809)" style="fill: none; stroke: #8f8f8f; stroke-width: 0.2; stroke-linecap: square"/>
   </g>
   <g id="line2d_83">
    <path clip-path="url(#p3b0d5e0809)" style="fill: none; stroke: #8f8f8f; stroke-width: 0.2; stroke-linecap: square"/>
   </g>
   <g id="line2d_84">
    <path d="M 75.310561 138.074944 
L 76.811863 115.635885 
L 77.609437 104.073119 
L 78.78464 86.697104 
L 78.836555 86.197504 
L 96.363612 70.0736 
L 102.696918 52.559055 
L 137.477911 39.735709 
L 164.917858 32.695795 
L 169.709156 31.769438 
L 179.740527 84.119609 
L 185.593234 114.995944 
L 189.975677 138.21311 
L 205.865812 222.342181 
L 126.502586 226.50225 
L 126.57542 224.889907 
L 125.418184 194.307127 
L 125.017761 181.529829 
L 122.517038 179.353064 
L 75.310561 138.074944 
" clip-path="url(#p3b0d5e0809)" style="fill: none; stroke: #8f8f8f; stroke-width: 0.2; stroke-linecap: square"/>
   </g>
   <g id="line2d_85">
    <path d="M 73.832727 159.387625 
L 74.134817 155.200374 
L 75.310561 138.074944 
L 122.517038 179.353064 
L 125.017761 181.529829 
L 125.418184 194.307127 
L 126.57542 224.889907 
L 126.502586 226.50225 
L 105.236485 227.704439 
L 117.0001 188.821417 
L 93.744372 173.620358 
L 73.832727 159.387625 
" clip-path="url(#p3b0d5e0809)" style="fill: none; stroke: #8f8f8f; stroke-width: 0.2; stroke-linecap: square"/>
   </g>
   <g id="line2d_86">
    <path d="M 13.492464 189.703595 
L 68.126359 188.360587 
L 89.903167 175.78818 
L 93.744372 173.620358 
L 117.0001 188.821417 
L 105.236485 227.704439 
L 94.684636 267.16742 
L 93.80907 266.271844 
L 91.137486 265.64956 
L 90.026712 264.372841 
L 89.603167 263.29916 
L 86.440425 262.852549 
L 85.950156 261.151175 
L 84.925398 261.503546 
L 83.740196 259.974053 
L 83.359522 258.838484 
L 83.553564 257.465643 
L 81.121224 257.159332 
L 80.929621 256.654073 
L 79.244896 255.675944 
L 78.314816 255.466452 
L 77.04213 256.000101 
L 76.352889 255.921301 
L 75.135473 255.829983 
L 73.199064 256.910933 
L 72.302134 257.014749 
L 67.933431 256.095606 
L 65.717915 256.918052 
L 65.011773 257.526802 
L 66.025462 259.30464 
L 64.793882 259.775304 
L 63.626505 260.936098 
L 62.369177 259.151993 
L 61.159258 258.746282 
L 60.05566 263.852601 
L 57.83482 264.798617 
L 55.626296 265.243638 
L 54.082623 265.141731 
L 50.666795 265.054 
L 49.877958 265.65969 
L 49.10619 267.234351 
L 48.44801 269.003511 
L 47.320438 268.53583 
L 45.888917 267.246109 
L 43.964064 267.696271 
L 42.786165 267.602453 
L 42.947733 267.219802 
L 42.077342 266.707048 
L 41.272274 266.372533 
L 40.775874 266.672333 
L 39.686156 266.330086 
L 39.101348 265.375193 
L 38.460807 264.982275 
L 37.357715 262.134923 
L 37.718464 260.829816 
L 38.024887 258.521434 
L 36.079236 258.280869 
L 33.356929 256.703794 
L 30.803904 256.382981 
L 29.8815 255.919116 
L 27.13817 256.593992 
L 25.9969 256.687197 
L 25.318454 256.229798 
L 23.115412 256.480583 
L 21.555677 255.559591 
L 20.558372 253.464769 
L 20.22145 252.453263 
L 19.223961 251.798472 
L 18.523508 250.713833 
L 18.460315 250.085847 
L 19.098266 249.102353 
L 18.796835 248.279663 
L 19.358858 247.106124 
L 18.730901 246.336654 
L 17.954149 246.502098 
L 16.834458 247.283723 
L 15.981859 247.258981 
L 15.827978 245.563847 
L 15.503229 245.554399 
L 14.087597 243.947665 
L 13.264838 244.299281 
L 12.213203 244.143165 
L 11.23541 242.862 
L 9.291384 241.301621 
L 7.533456 241.68762 
L 6.71752 243.166094 
L 6.792501 244.733816 
L 6.648272 244.951174 
L 3.69295 234.371037 
L 18.825502 216.346187 
L 19.142075 205.397527 
L 13.492464 189.703595 
" clip-path="url(#p3b0d5e0809)" style="fill: none; stroke: #8f8f8f; stroke-width: 0.2; stroke-linecap: square"/>
   </g>
   <g id="line2d_87">
    <path d="M 13.492464 189.703595 
L 8.051538 189.166046 
L 7.285228 187.765421 
L 7.93882 184.841984 
L 7.442244 183.887785 
L 7.644212 181.201256 
L 6.294111 179.094159 
L 7.490548 178.253559 
L 7.977575 176.827975 
L 8.022695 175.326486 
L 9.423994 174.366614 
L 8.479599 172.209285 
L 9.183816 171.604221 
L 11.95288 172.125145 
L 13.144425 171.409062 
L 12.734291 170.269802 
L 11.331389 168.600073 
L 9.866171 167.6797 
L 8.019663 167.37384 
L 5.932799 165.68277 
L 8.059534 163.367452 
L 9.54556 162.222322 
L 10.126389 161.676144 
L 10.293008 158.800696 
L 11.362464 158.08121 
L 12.177817 156.414807 
L 11.670046 154.521162 
L 12.950157 152.117142 
L 13.899918 151.331268 
L 15.239047 150.995119 
L 16.916417 151.482748 
L 17.783511 150.756739 
L 17.532946 149.68493 
L 18.114559 149.075775 
L 19.00157 149.039039 
L 20.841175 148.09063 
L 21.760161 145.549979 
L 20.255321 144.692387 
L 19.728647 143.424762 
L 19.501929 142.917236 
L 19.209307 140.529301 
L 19.753806 139.793766 
L 23.506312 138.023859 
L 24.696304 135.803881 
L 24.679429 134.989403 
L 26.427766 132.910479 
L 26.370608 132.09486 
L 24.777353 130.17086 
L 24.643612 129.2278 
L 25.164977 127.865216 
L 27.175396 126.419866 
L 28.498617 126.520061 
L 29.445085 125.73286 
L 29.752617 124.802337 
L 29.480961 123.041473 
L 29.996167 121.866358 
L 30.727771 120.133792 
L 30.895698 118.447949 
L 31.986242 116.788024 
L 33.822835 115.712349 
L 39.819185 113.686472 
L 40.458338 109.383715 
L 41.290739 108.279391 
L 40.896727 108.018213 
L 40.691255 105.257694 
L 42.484973 104.179479 
L 45.570221 104.262711 
L 49.060891 102.665344 
L 49.823727 102.622934 
L 49.863789 102.623994 
L 50.453164 103.07783 
L 50.7379 105.965383 
L 51.47794 106.798781 
L 53.978385 107.803331 
L 55.034607 108.832526 
L 55.916476 108.855366 
L 57.093442 108.322262 
L 57.72041 107.336659 
L 58.057182 105.154022 
L 61.933009 105.691079 
L 62.332157 105.763782 
L 63.741765 107.114063 
L 62.910228 108.282663 
L 63.595531 109.739881 
L 62.701608 111.783404 
L 63.982368 113.506016 
L 65.757325 114.739939 
L 65.741728 115.365615 
L 74.134817 155.200374 
L 73.832727 159.387625 
L 89.903167 175.78818 
L 68.126359 188.360587 
L 13.492464 189.703595 
" clip-path="url(#p3b0d5e0809)" style="fill: none; stroke: #8f8f8f; stroke-width: 0.2; stroke-linecap: square"/>
   </g>
   <g id="line2d_88">
    <path d="M 65.741728 115.365615 
L 76.811863 115.635885 
L 75.310561 138.074944 
L 74.134817 155.200374 
L 65.741728 115.365615 
" clip-path="url(#p3b0d5e0809)" style="fill: none; stroke: #8f8f8f; stroke-width: 0.2; stroke-linecap: square"/>
   </g>
   <g id="line2d_89">
    <path d="M 93.744372 173.620358 
L 89.903167 175.78818 
L 73.832727 159.387625 
L 93.744372 173.620358 
" clip-path="url(#p3b0d5e0809)" style="fill: none; stroke: #8f8f8f; stroke-width: 0.2; stroke-linecap: square"/>
   </g>
   <g id="line2d_90">
    <path d="M 105.236485 227.704439 
L 117.48629 256.060865 
L 104.797172 264.190909 
L 103.778052 264.294745 
L 101.13593 266.116939 
L 99.865902 266.52809 
L 98.487209 266.310752 
L 96.63278 267.397578 
L 94.684636 267.16742 
L 105.236485 227.704439 
" clip-path="url(#p3b0d5e0809)" style="fill: none; stroke: #8f8f8f; stroke-width: 0.2; stroke-linecap: square"/>
   </g>
   <g id="line2d_91">
    <path d="M 117.48629 256.060865 
L 122.48351 268.803245 
L 128.330531 282.498008 
L 123.076796 282.398333 
L 122.446877 281.259455 
L 120.821372 280.29843 
L 120.398904 278.145611 
L 121.955362 277.181119 
L 123.435684 276.562369 
L 121.554844 274.73206 
L 120.930417 273.342798 
L 118.334678 272.853876 
L 115.502959 269.918294 
L 113.195514 269.308676 
L 112.314509 268.602308 
L 111.478102 267.708975 
L 109.492843 267.292897 
L 107.078498 265.991185 
L 104.797172 264.190909 
L 117.48629 256.060865 
" clip-path="url(#p3b0d5e0809)" style="fill: none; stroke: #8f8f8f; stroke-width: 0.2; stroke-linecap: square"/>
   </g>
   <g id="line2d_92">
    <path d="M 112.735971 268.587661 
L 111.478102 267.708975 
L 109.492843 267.292897 
L 107.078498 265.991185 
L 104.797172 264.190909 
L 103.778052 264.294745 
L 101.13593 266.116939 
L 99.865902 266.52809 
L 98.487209 266.310752 
L 96.63278 267.397578 
L 94.684636 267.16742 
L 93.80907 266.271844 
L 91.137486 265.64956 
L 90.026712 264.372841 
L 89.603167 263.29916 
L 86.440425 262.852549 
L 85.950156 261.151175 
L 84.925398 261.503546 
L 83.740196 259.974053 
L 83.359522 258.838484 
L 83.553564 257.465643 
L 81.121224 257.159332 
L 80.929621 256.654073 
L 79.244896 255.675944 
L 78.314816 255.466452 
L 77.04213 256.000101 
L 76.352889 255.921301 
L 75.135473 255.829983 
L 73.199064 256.910933 
L 72.302134 257.014749 
L 67.933431 256.095606 
L 65.717915 256.918052 
L 65.011773 257.526802 
L 66.025462 259.30464 
L 64.793882 259.775304 
L 63.626505 260.936098 
L 62.369177 259.151993 
L 61.159258 258.746282 
L 60.05566 263.852601 
L 57.83482 264.798617 
L 55.626296 265.243638 
L 54.082623 265.141731 
L 50.666795 265.054 
L 49.877958 265.65969 
L 48.771811 267.509285 
L 49.10619 267.234351 
L 48.44801 269.003511 
L 112.735971 268.587661 
" clip-path="url(#p3b0d5e0809)" style="fill: none; stroke: #8f8f8f; stroke-width: 0.2; stroke-linecap: square"/>
   </g>
   <g id="line2d_93">
    <path d="M 461.8 211.532185 
L 406.250241 169.296165 
L 321.72128 10.193726 
L 302.30085 -1 
" clip-path="url(#p3b0d5e0809)" style="fill: none; stroke: #8f8f8f; stroke-width: 0.2; stroke-linecap: square"/>
   </g>
   <g id="line2d_94">
    <path clip-path="url(#p3b0d5e0809)" style="fill: none; stroke: #8f8f8f; stroke-width: 0.2; stroke-linecap: square"/>
   </g>
   <g id="line2d_95">
    <path clip-path="url(#p3b0d5e0809)" style="fill: none; stroke: #8f8f8f; stroke-width: 0.2; stroke-linecap: square"/>
   </g>
   <g id="line2d_96">
    <path clip-path="url(#p3b0d5e0809)" style="fill: none; stroke: #8f8f8f; stroke-width: 0.2; stroke-linecap: square"/>
   </g>
   <g id="line2d_97">
    <path clip-path="url(#p3b0d5e0809)" style="fill: none; stroke: #8f8f8f; stroke-width: 0.2; stroke-linecap: square"/>
   </g>
   <g id="line2d_98">
    <path clip-path="url(#p3b0d5e0809)" style="fill: none; stroke: #8f8f8f; stroke-width: 0.2; stroke-linecap: square"/>
   </g>
   <g id="line2d_99">
    <path clip-path="url(#p3b0d5e0809)" style="fill: none; stroke: #8f8f8f; stroke-width: 0.2; stroke-linecap: square"/>
   </g>
   <g id="line2d_100">
    <path clip-path="url(#p3b0d5e0809)" style="fill: none; stroke: #8f8f8f; stroke-width: 0.2; stroke-linecap: square"/>
   </g>
   <g id="line2d_101">
    <path clip-path="url(#p3b0d5e0809)" style="fill: none; stroke: #8f8f8f; stroke-width: 0.2; stroke-linecap: square"/>
   </g>
   <g id="line2d_102">
    <path clip-path="url(#p3b0d5e0809)" style="fill: none; stroke: #8f8f8f; stroke-width: 0.2; stroke-linecap: square"/>
   </g>
   <g id="line2d_103">
    <path clip-path="url(#p3b0d5e0809)" style="fill: none; stroke: #8f8f8f; stroke-width: 0.2; stroke-linecap: square"/>
   </g>
   <g id="line2d_104">
    <path d="M 461.8 50.469874 
L 440.492592 56.990276 
L 437.348151 45.254919 
L 412.135514 -1 
" clip-path="url(#p3b0d5e0809)" style="fill: none; stroke: #8f8f8f; stroke-width: 0.2; stroke-linecap: square"/>
   </g>
   <g id="line2d_105">
    <path clip-path="url(#p3b0d5e0809)" style="fill: none; stroke: #8f8f8f; stroke-width: 0.2; stroke-linecap: square"/>
   </g>
   <g id="line2d_106">
    <path d="M 461.8 50.469874 
L 440.492592 56.990276 
L 437.348151 45.254919 
L 412.135514 -1 
" clip-path="url(#p3b0d5e0809)" style="fill: none; stroke: #8f8f8f; stroke-width: 0.2; stroke-linecap: square"/>
   </g>
   <g id="line2d_107">
    <path d="M 461.8 108.872231 
L 454.523904 109.790048 
L 440.492592 56.990276 
L 461.8 50.469874 
" clip-path="url(#p3b0d5e0809)" style="fill: none; stroke: #8f8f8f; stroke-width: 0.2; stroke-linecap: square"/>
   </g>
   <g id="line2d_108">
    <path d="M 412.135514 -1 
L 437.348151 45.254919 
L 440.492592 56.990276 
L 422.18954 62.72546 
L 399.163748 69.835419 
L 388.292156 52.122006 
L 378.057855 35.521608 
L 393.141391 34.823846 
L 403.440101 -1 
" clip-path="url(#p3b0d5e0809)" style="fill: none; stroke: #8f8f8f; stroke-width: 0.2; stroke-linecap: square"/>
   </g>
   <g id="line2d_109">
    <path clip-path="url(#p3b0d5e0809)" style="fill: none; stroke: #8f8f8f; stroke-width: 0.2; stroke-linecap: square"/>
   </g>
   <g id="line2d_110">
    <path d="M 440.492592 56.990276 
L 454.523904 109.790048 
L 447.788239 117.373028 
L 429.511586 119.238912 
L 399.163748 69.835419 
L 422.18954 62.72546 
L 440.492592 56.990276 
" clip-path="url(#p3b0d5e0809)" style="fill: none; stroke: #8f8f8f; stroke-width: 0.2; stroke-linecap: square"/>
   </g>
   <g id="line2d_111">
    <path d="M 388.292156 52.122006 
L 399.163748 69.835419 
L 386.961807 73.656755 
L 377.784475 76.451134 
L 385.272466 62.775634 
L 388.292156 52.122006 
" clip-path="url(#p3b0d5e0809)" style="fill: none; stroke: #8f8f8f; stroke-width: 0.2; stroke-linecap: square"/>
   </g>
   <g id="line2d_112">
    <path clip-path="url(#p3b0d5e0809)" style="fill: none; stroke: #8f8f8f; stroke-width: 0.2; stroke-linecap: square"/>
   </g>
   <g id="line2d_113">
    <path clip-path="url(#p3b0d5e0809)" style="fill: none; stroke: #8f8f8f; stroke-width: 0.2; stroke-linecap: square"/>
   </g>
   <g id="line2d_114">
    <path clip-path="url(#p3b0d5e0809)" style="fill: none; stroke: #8f8f8f; stroke-width: 0.2; stroke-linecap: square"/>
   </g>
   <g id="line2d_115">
    <path clip-path="url(#p3b0d5e0809)" style="fill: none; stroke: #8f8f8f; stroke-width: 0.2; stroke-linecap: square"/>
   </g>
   <g id="line2d_116">
    <path clip-path="url(#p3b0d5e0809)" style="fill: none; stroke: #8f8f8f; stroke-width: 0.2; stroke-linecap: square"/>
   </g>
   <g id="line2d_117">
    <path clip-path="url(#p3b0d5e0809)" style="fill: none; stroke: #8f8f8f; stroke-width: 0.2; stroke-linecap: square"/>
   </g>
   <g id="line2d_118">
    <path clip-path="url(#p3b0d5e0809)" style="fill: none; stroke: #8f8f8f; stroke-width: 0.2; stroke-linecap: square"/>
   </g>
   <g id="line2d_119">
    <path clip-path="url(#p3b0d5e0809)" style="fill: none; stroke: #8f8f8f; stroke-width: 0.2; stroke-linecap: square"/>
   </g>
   <g id="line2d_120">
    <path clip-path="url(#p3b0d5e0809)" style="fill: none; stroke: #8f8f8f; stroke-width: 0.2; stroke-linecap: square"/>
   </g>
   <g id="line2d_121">
    <path clip-path="url(#p3b0d5e0809)" style="fill: none; stroke: #8f8f8f; stroke-width: 0.2; stroke-linecap: square"/>
   </g>
   <g id="line2d_122">
    <path clip-path="url(#p3b0d5e0809)" style="fill: none; stroke: #8f8f8f; stroke-width: 0.2; stroke-linecap: square"/>
   </g>
   <g id="line2d_123">
    <path clip-path="url(#p3b0d5e0809)" style="fill: none; stroke: #8f8f8f; stroke-width: 0.2; stroke-linecap: square"/>
   </g>
   <g id="line2d_124">
    <path clip-path="url(#p3b0d5e0809)" style="fill: none; stroke: #8f8f8f; stroke-width: 0.2; stroke-linecap: square"/>
   </g>
   <g id="line2d_125">
    <path clip-path="url(#p3b0d5e0809)" style="fill: none; stroke: #8f8f8f; stroke-width: 0.2; stroke-linecap: square"/>
   </g>
   <g id="line2d_126">
    <path clip-path="url(#p3b0d5e0809)" style="fill: none; stroke: #8f8f8f; stroke-width: 0.2; stroke-linecap: square"/>
   </g>
   <g id="line2d_127">
    <path clip-path="url(#p3b0d5e0809)" style="fill: none; stroke: #8f8f8f; stroke-width: 0.2; stroke-linecap: square"/>
   </g>
   <g id="line2d_128">
    <path clip-path="url(#p3b0d5e0809)" style="fill: none; stroke: #8f8f8f; stroke-width: 0.2; stroke-linecap: square"/>
   </g>
   <g id="line2d_129">
    <path clip-path="url(#p3b0d5e0809)" style="fill: none; stroke: #8f8f8f; stroke-width: 0.2; stroke-linecap: square"/>
   </g>
   <g id="line2d_130">
    <path clip-path="url(#p3b0d5e0809)" style="fill: none; stroke: #8f8f8f; stroke-width: 0.2; stroke-linecap: square"/>
   </g>
   <g id="line2d_131">
    <path clip-path="url(#p3b0d5e0809)" style="fill: none; stroke: #8f8f8f; stroke-width: 0.2; stroke-linecap: square"/>
   </g>
   <g id="line2d_132">
    <path clip-path="url(#p3b0d5e0809)" style="fill: none; stroke: #8f8f8f; stroke-width: 0.2; stroke-linecap: square"/>
   </g>
   <g id="line2d_133">
    <path clip-path="url(#p3b0d5e0809)" style="fill: none; stroke: #8f8f8f; stroke-width: 0.2; stroke-linecap: square"/>
   </g>
   <g id="line2d_134">
    <path clip-path="url(#p3b0d5e0809)" style="fill: none; stroke: #8f8f8f; stroke-width: 0.2; stroke-linecap: square"/>
   </g>
   <g id="line2d_135">
    <path clip-path="url(#p3b0d5e0809)" style="fill: none; stroke: #8f8f8f; stroke-width: 0.2; stroke-linecap: square"/>
   </g>
   <g id="line2d_136">
    <path clip-path="url(#p3b0d5e0809)" style="fill: none; stroke: #8f8f8f; stroke-width: 0.2; stroke-linecap: square"/>
   </g>
   <g id="line2d_137">
    <path clip-path="url(#p3b0d5e0809)" style="fill: none; stroke: #8f8f8f; stroke-width: 0.2; stroke-linecap: square"/>
   </g>
   <g id="line2d_138">
    <path clip-path="url(#p3b0d5e0809)" style="fill: none; stroke: #8f8f8f; stroke-width: 0.2; stroke-linecap: square"/>
   </g>
   <g id="line2d_139">
    <path clip-path="url(#p3b0d5e0809)" style="fill: none; stroke: #8f8f8f; stroke-width: 0.2; stroke-linecap: square"/>
   </g>
   <g id="line2d_140">
    <path clip-path="url(#p3b0d5e0809)" style="fill: none; stroke: #8f8f8f; stroke-width: 0.2; stroke-linecap: square"/>
   </g>
   <g id="line2d_141">
    <path clip-path="url(#p3b0d5e0809)" style="fill: none; stroke: #8f8f8f; stroke-width: 0.2; stroke-linecap: square"/>
   </g>
   <g id="line2d_142">
    <path clip-path="url(#p3b0d5e0809)" style="fill: none; stroke: #8f8f8f; stroke-width: 0.2; stroke-linecap: square"/>
   </g>
   <g id="line2d_143">
    <path clip-path="url(#p3b0d5e0809)" style="fill: none; stroke: #8f8f8f; stroke-width: 0.2; stroke-linecap: square"/>
   </g>
   <g id="line2d_144">
    <path clip-path="url(#p3b0d5e0809)" style="fill: none; stroke: #8f8f8f; stroke-width: 0.2; stroke-linecap: square"/>
   </g>
   <g id="line2d_145">
    <path d="M -1 293.456085 
L 15.648582 284.005712 
L 16.280809 290.348382 
L 23.227464 346.6 
M 124.458443 346.6 
L 141.277188 322.606307 
L 144.998931 322.545515 
L 149.95407 334.33461 
L 155.524252 333.385709 
L 162.955551 337.86111 
L 166.558412 332.642824 
L 163.669594 323.940075 
L 178.763881 322.073003 
L 192.69764 328.953901 
L 194.667518 346.498652 
L 200.870353 342.974966 
L 199.60214 338.993896 
L 203.146605 337.484273 
L 210.896926 345.4184 
L 228.492415 346.6 
M 230.802974 346.6 
L 240.763968 340.370728 
L 241.465045 334.216243 
L 253.083092 331.753724 
L 260.028296 335.497097 
L 262.039328 337.79044 
L 259.381414 341.331331 
L 262.884588 346.6 
L 262.884588 346.6 
" clip-path="url(#p3b0d5e0809)" style="fill: none; stroke: #8f8f8f; stroke-width: 0.2; stroke-linecap: square"/>
   </g>
   <g id="line2d_146">
    <path d="M -1 293.456085 
L 15.648582 284.005712 
L 41.790979 266.762035 
L 49.990084 264.473003 
L 58.746884 262.505044 
L 75.016544 255.701961 
L 92.967433 265.689952 
L 100.413261 265.663356 
L 110.172972 265.867022 
L 112.314509 268.602308 
L 113.195514 269.308676 
L 115.502959 269.918294 
L 118.334678 272.853876 
L 120.930417 273.342798 
L 121.554844 274.73206 
L 123.435684 276.562369 
L 121.955362 277.181119 
L 120.398904 278.145611 
L 120.821372 280.29843 
L 122.446877 281.259455 
L 123.076796 282.398333 
L 126.484822 284.229768 
L 126.822651 288.225465 
L 129.820729 288.377992 
L 127.715913 292.191527 
L 125.549337 290.218269 
L 124.111567 292.044421 
L 128.416542 296.702257 
L 127.674542 298.418552 
L 134.60852 304.717813 
L 136.867636 307.657335 
L 139.555906 308.42812 
L 138.030231 313.161516 
L 140.097045 313.110448 
L 142.755649 322.324068 
L 144.998931 322.545515 
L 149.95407 334.33461 
L 155.524252 333.385709 
L 162.955551 337.86111 
L 166.558412 332.642824 
L 163.669594 323.940075 
L 178.763881 322.073003 
L 192.69764 328.953901 
L 194.667518 346.498652 
L 200.870353 342.974966 
L 199.60214 338.993896 
L 203.146605 337.484273 
L 210.896926 345.4184 
L 228.492415 346.6 
M 230.802974 346.6 
L 240.763968 340.370728 
L 241.465045 334.216243 
L 253.083092 331.753724 
L 260.028296 335.497097 
L 262.039328 337.79044 
L 259.381414 341.331331 
L 262.884588 346.6 
L 262.884588 346.6 
" clip-path="url(#p3b0d5e0809)" style="fill: none; stroke: #8f8f8f; stroke-width: 0.2; stroke-linecap: square"/>
   </g>
   <g id="line2d_147">
    <path clip-path="url(#p3b0d5e0809)" style="fill: none; stroke: #8f8f8f; stroke-width: 0.2; stroke-linecap: square"/>
   </g>
   <g id="line2d_148">
    <path clip-path="url(#p3b0d5e0809)" style="fill: none; stroke: #8f8f8f; stroke-width: 0.2; stroke-linecap: square"/>
   </g>
   <g id="line2d_149">
    <path d="M 260.028296 335.497097 
L 253.083092 331.753724 
L 241.465045 334.216243 
L 240.763968 340.370728 
L 230.802974 346.6 
M 228.492415 346.6 
L 210.896926 345.4184 
L 203.146605 337.484273 
L 199.60214 338.993896 
L 200.870353 342.974966 
L 194.667518 346.498652 
L 192.69764 328.953901 
L 178.763881 322.073003 
L 163.669594 323.940075 
L 166.558412 332.642824 
L 162.955551 337.86111 
L 155.524252 333.385709 
L 149.95407 334.33461 
L 144.998931 322.545515 
L 142.755649 322.324068 
L 140.097045 313.110448 
L 138.030231 313.161516 
L 139.555906 308.42812 
L 136.867636 307.657335 
L 134.60852 304.717813 
L 127.674542 298.418552 
L 128.416542 296.702257 
L 124.111567 292.044421 
L 125.549337 290.218269 
L 127.715913 292.191527 
L 129.820729 288.377992 
L 126.822651 288.225465 
L 126.484822 284.229768 
L 123.076796 282.398333 
L 122.446877 281.259455 
L 120.821372 280.29843 
L 120.398904 278.145611 
L 121.955362 277.181119 
L 123.435684 276.562369 
L 121.554844 274.73206 
L 120.930417 273.342798 
L 118.334678 272.853876 
L 115.502959 269.918294 
L 113.195514 269.308676 
L 112.314509 268.602308 
L 48.44801 269.003511 
L -1 294.687058 
M 262.884588 346.6 
L 259.381414 341.331331 
L 262.039328 337.79044 
L 260.028296 335.497097 
L 260.028296 335.497097 
" clip-path="url(#p3b0d5e0809)" style="fill: none; stroke: #8f8f8f; stroke-width: 0.2; stroke-linecap: square"/>
   </g>
   <g id="line2d_150">
    <path d="M 0 0 
" clip-path="url(#p3b0d5e0809)" style="fill: none; stroke: #8f8f8f; stroke-width: 0.2; stroke-linecap: square"/>
   </g>
   <g id="line2d_151">
    <path clip-path="url(#p3b0d5e0809)" style="fill: none; stroke: #8f8f8f; stroke-width: 0.2; stroke-linecap: square"/>
   </g>
   <g id="line2d_152">
    <path d="M 170.445387 346.6 
L 162.955551 337.86111 
L 155.524252 333.385709 
L 149.95407 334.33461 
L 146.688542 326.580448 
L 144.998931 322.545515 
L 142.755649 322.324068 
L 140.097045 313.110448 
L 138.030231 313.161516 
L 139.555906 308.42812 
L 136.867636 307.657335 
L 134.60852 304.717813 
L 127.674542 298.418552 
L 128.416542 296.702257 
L 124.111567 292.044421 
L 125.549337 290.218269 
L 127.715913 292.191527 
L 129.820729 288.377992 
L 126.822651 288.225465 
L 126.484822 284.229768 
L 123.076796 282.398333 
L 122.446877 281.259455 
L 120.821372 280.29843 
L 120.398904 278.145611 
L 121.955362 277.181119 
L 123.435684 276.562369 
L 121.554844 274.73206 
L 120.930417 273.342798 
L 118.334678 272.853876 
L 115.502959 269.918294 
L 113.195514 269.308676 
L 112.314509 268.602308 
L 48.44801 269.003511 
L -1 294.687058 
M 262.884588 346.6 
L 259.381414 341.331331 
L 262.039328 337.79044 
L 260.028296 335.497097 
L 253.672364 346.6 
" clip-path="url(#p3b0d5e0809)" style="fill: none; stroke: #8f8f8f; stroke-width: 0.2; stroke-linecap: square"/>
   </g>
   <g id="line2d_153">
    <path d="M 162.955551 337.86111 
L 166.558412 332.642824 
L 163.669594 323.940075 
L 178.763881 322.073003 
L 192.69764 328.953901 
L 194.667518 346.498652 
L 200.870353 342.974966 
L 199.60214 338.993896 
L 203.146605 337.484273 
L 210.896926 345.4184 
L 228.492415 346.6 
M 230.802974 346.6 
L 240.763968 340.370728 
L 241.465045 334.216243 
L 253.083092 331.753724 
L 260.028296 335.497097 
L 253.672364 346.6 
M 170.445387 346.6 
L 162.955551 337.86111 
" clip-path="url(#p3b0d5e0809)" style="fill: none; stroke: #8f8f8f; stroke-width: 0.2; stroke-linecap: square"/>
   </g>
   <g id="line2d_154">
    <path clip-path="url(#p3b0d5e0809)" style="fill: none; stroke: #8f8f8f; stroke-width: 0.2; stroke-linecap: square"/>
   </g>
   <g id="line2d_155">
    <path d="M 0 0 
" clip-path="url(#p3b0d5e0809)" style="fill: none; stroke: #8f8f8f; stroke-width: 0.2; stroke-linecap: square"/>
   </g>
   <g id="line2d_156">
    <path clip-path="url(#p3b0d5e0809)" style="fill: none; stroke: #8f8f8f; stroke-width: 0.2; stroke-linecap: square"/>
   </g>
   <g id="line2d_157">
    <path clip-path="url(#p3b0d5e0809)" style="fill: none; stroke: #8f8f8f; stroke-width: 0.2; stroke-linecap: square"/>
   </g>
   <g id="line2d_158">
    <path clip-path="url(#p3b0d5e0809)" style="fill: none; stroke: #8f8f8f; stroke-width: 0.2; stroke-linecap: square"/>
   </g>
   <g id="line2d_159">
    <path clip-path="url(#p3b0d5e0809)" style="fill: none; stroke: #8f8f8f; stroke-width: 0.2; stroke-linecap: square"/>
   </g>
   <g id="line2d_160">
    <path clip-path="url(#p3b0d5e0809)" style="fill: none; stroke: #8f8f8f; stroke-width: 0.2; stroke-linecap: square"/>
   </g>
   <g id="line2d_161">
    <path clip-path="url(#p3b0d5e0809)" style="fill: none; stroke: #8f8f8f; stroke-width: 0.2; stroke-linecap: square"/>
   </g>
   <g id="line2d_162">
    <path d="M 461.8 213.34127 
L 447.887574 215.818041 
L 406.257673 219.612241 
L 398.487273 220.348785 
L 390.89524 169.636845 
L 405.315061 174.246269 
L 414.084903 176.876764 
L 446.067971 164.704953 
L 461.8 158.697944 
" clip-path="url(#p3b0d5e0809)" style="fill: none; stroke: #8f8f8f; stroke-width: 0.2; stroke-linecap: square"/>
   </g>
   <g id="line2d_163">
    <path d="M 461.8 158.697944 
L 446.067971 164.704953 
L 414.084903 176.876764 
L 405.315061 174.246269 
L 390.89524 169.636845 
L 383.904464 121.545935 
L 406.89792 121.479159 
L 429.511586 119.238912 
L 447.788239 117.373028 
L 454.523904 109.790048 
L 461.8 108.872231 
" clip-path="url(#p3b0d5e0809)" style="fill: none; stroke: #8f8f8f; stroke-width: 0.2; stroke-linecap: square"/>
   </g>
   <g id="line2d_164">
    <path d="M 461.8 213.34127 
L 447.887574 215.818041 
L 406.257673 219.612241 
L 398.487273 220.348785 
L 390.89524 169.636845 
L 383.904464 121.545935 
L 406.89792 121.479159 
L 429.511586 119.238912 
L 447.788239 117.373028 
L 454.523904 109.790048 
L 461.8 108.872231 
" clip-path="url(#p3b0d5e0809)" style="fill: none; stroke: #8f8f8f; stroke-width: 0.2; stroke-linecap: square"/>
   </g>
   <g id="line2d_165">
    <path d="M 447.887574 215.818041 
L 445.337921 243.944916 
L 438.55547 321.179507 
L 392.612405 320.138583 
L 400.118288 222.216605 
L 398.487273 220.348785 
L 406.257673 219.612241 
L 447.887574 215.818041 
" clip-path="url(#p3b0d5e0809)" style="fill: none; stroke: #8f8f8f; stroke-width: 0.2; stroke-linecap: square"/>
   </g>
   <g id="line2d_166">
    <path d="M 390.60016 346.6 
L 392.612405 320.138583 
L 438.55547 321.179507 
L 461.8 321.719047 
" clip-path="url(#p3b0d5e0809)" style="fill: none; stroke: #8f8f8f; stroke-width: 0.2; stroke-linecap: square"/>
   </g>
   <g id="line2d_167">
    <path clip-path="url(#p3b0d5e0809)" style="fill: none; stroke: #8f8f8f; stroke-width: 0.2; stroke-linecap: square"/>
   </g>
   <g id="line2d_168">
    <path clip-path="url(#p3b0d5e0809)" style="fill: none; stroke: #8f8f8f; stroke-width: 0.2; stroke-linecap: square"/>
   </g>
   <g id="line2d_169">
    <path d="M 461.8 321.719047 
L 438.55547 321.179507 
L 445.337921 243.944916 
L 447.887574 215.818041 
L 461.8 213.34127 
" clip-path="url(#p3b0d5e0809)" style="fill: none; stroke: #8f8f8f; stroke-width: 0.2; stroke-linecap: square"/>
   </g>
   <g id="line2d_170">
    <path d="M 461.8 321.719047 
L 438.55547 321.179507 
L 445.337921 243.944916 
L 447.887574 215.818041 
L 461.8 213.34127 
" clip-path="url(#p3b0d5e0809)" style="fill: none; stroke: #8f8f8f; stroke-width: 0.2; stroke-linecap: square"/>
   </g>
   <g id="line2d_171">
    <path d="M 71.147118 -1 
L 66.080732 1.61625 
L 63.853428 -1 
" clip-path="url(#p3b0d5e0809)" style="fill: none; stroke: #8f8f8f; stroke-width: 0.2; stroke-linecap: square"/>
   </g>
   <g id="line2d_172">
    <path clip-path="url(#p3b0d5e0809)" style="fill: none; stroke: #8f8f8f; stroke-width: 0.2; stroke-linecap: square"/>
   </g>
   <g id="line2d_173">
    <path d="M 265.924824 -1 
L 274.607586 12.598085 
L 254.661196 23.857216 
L 258.26619 31.331114 
L 227.583033 31.4429 
L 179.659748 31.793385 
L 176.893562 25.055653 
L 172.367584 14.034235 
L 166.167835 -1 
" clip-path="url(#p3b0d5e0809)" style="fill: none; stroke: #8f8f8f; stroke-width: 0.2; stroke-linecap: square"/>
   </g>
   <g id="line2d_174">
    <path d="M 274.607586 12.598085 
L 277.286437 16.74334 
L 294.107284 55.621483 
L 272.438839 64.529324 
L 264.111347 44.075734 
L 227.583033 31.4429 
L 258.26619 31.331114 
L 254.661196 23.857216 
L 274.607586 12.598085 
" clip-path="url(#p3b0d5e0809)" style="fill: none; stroke: #8f8f8f; stroke-width: 0.2; stroke-linecap: square"/>
   </g>
   <g id="line2d_175">
    <path d="M 265.935126 -1 
L 274.607586 12.598085 
L 277.286437 16.74334 
L 294.107284 55.621483 
L 272.438839 64.529324 
L 264.111347 44.075734 
L 227.583033 31.4429 
L 179.659748 31.793385 
L 169.709156 31.769438 
L 164.917858 32.695795 
L 191.618537 15.624559 
L 210.116149 10.66211 
L 253.909059 -1 
" clip-path="url(#p3b0d5e0809)" style="fill: none; stroke: #8f8f8f; stroke-width: 0.2; stroke-linecap: square"/>
   </g>
   <g id="line2d_176">
    <path d="M 166.167835 -1 
L 172.367584 14.034235 
L 176.893562 25.055653 
L 179.659748 31.793385 
L 169.709156 31.769438 
L 164.917858 32.695795 
L 137.477911 39.735709 
L 102.696918 52.559055 
L 66.080732 1.61625 
L 71.147118 -1 
" clip-path="url(#p3b0d5e0809)" style="fill: none; stroke: #8f8f8f; stroke-width: 0.2; stroke-linecap: square"/>
   </g>
   <g id="line2d_177">
    <path clip-path="url(#p3b0d5e0809)" style="fill: none; stroke: #8f8f8f; stroke-width: 0.2; stroke-linecap: square"/>
   </g>
   <g id="line2d_178">
    <path d="M 164.917858 32.695795 
L 173.689049 10.73694 
L 210.116149 10.66211 
L 191.618537 15.624559 
L 164.917858 32.695795 
" clip-path="url(#p3b0d5e0809)" style="fill: none; stroke: #8f8f8f; stroke-width: 0.2; stroke-linecap: square"/>
   </g>
   <g id="line2d_179">
    <path d="M 302.30085 -1 
L 321.72128 10.193726 
L 406.250241 169.296165 
L 365.646523 206.347921 
L 316.016182 346.6 
M 262.884588 346.6 
L 259.381414 341.331331 
L 262.039328 337.79044 
L 260.028296 335.497097 
L 253.083092 331.753724 
L 241.465045 334.216243 
L 240.763968 340.370728 
L 230.802974 346.6 
M 228.492415 346.6 
L 210.896926 345.4184 
L 203.146605 337.484273 
L 199.60214 338.993896 
L 200.870353 342.974966 
L 194.667518 346.498652 
L 192.69764 328.953901 
L 178.763881 322.073003 
L 163.669594 323.940075 
L 166.558412 332.642824 
L 162.955551 337.86111 
L 155.524252 333.385709 
L 149.95407 334.33461 
L 146.688542 326.580448 
L 144.998931 322.545515 
L 129.197837 244.893808 
L 160.820544 224.723028 
L 164.492003 202.37323 
L 151.336931 183.883028 
L 139.021127 172.77718 
L 117.124991 188.636121 
L 129.526189 133.229574 
L 140.414406 84.419533 
L 188.871158 89.191851 
L 179.659748 31.793385 
L 227.583033 31.4429 
L 264.111347 44.075734 
L 272.438839 64.529324 
L 294.107284 55.621483 
L 277.286437 16.74334 
L 274.607586 12.598085 
L 265.935126 -1 
" clip-path="url(#p3b0d5e0809)" style="fill: none; stroke: #8f8f8f; stroke-width: 0.2; stroke-linecap: square"/>
   </g>
   <g id="line2d_180">
    <path clip-path="url(#p3b0d5e0809)" style="fill: none; stroke: #8f8f8f; stroke-width: 0.2; stroke-linecap: square"/>
   </g>
   <g id="line2d_181">
    <path clip-path="url(#p3b0d5e0809)" style="fill: none; stroke: #8f8f8f; stroke-width: 0.2; stroke-linecap: square"/>
   </g>
   <g id="line2d_182">
    <path clip-path="url(#p3b0d5e0809)" style="fill: none; stroke: #8f8f8f; stroke-width: 0.2; stroke-linecap: square"/>
   </g>
   <g id="line2d_183">
    <path clip-path="url(#p3b0d5e0809)" style="fill: none; stroke: #8f8f8f; stroke-width: 0.2; stroke-linecap: square"/>
   </g>
   <g id="line2d_184">
    <path d="M 126.502586 226.50225 
L 205.865812 222.342181 
L 230.239307 215.09203 
L 264.246931 214.112587 
L 359.093719 223.949772 
L 362.673203 245.594277 
L 362.863323 288.149422 
L 384.643171 319.989695 
L 371.699637 346.6 
M 262.884588 346.6 
L 259.381414 341.331331 
L 262.039328 337.79044 
L 260.028296 335.497097 
L 253.083092 331.753724 
L 241.465045 334.216243 
L 240.763968 340.370728 
L 230.802974 346.6 
M 228.492415 346.6 
L 210.896926 345.4184 
L 203.146605 337.484273 
L 199.60214 338.993896 
L 200.870353 342.974966 
L 194.667518 346.498652 
L 192.69764 328.953901 
L 178.763881 322.073003 
L 163.669594 323.940075 
L 166.558412 332.642824 
L 162.955551 337.86111 
L 155.524252 333.385709 
L 149.95407 334.33461 
L 146.688542 326.580448 
L 144.998931 322.545515 
L 142.755649 322.324068 
L 140.097045 313.110448 
L 138.030231 313.161516 
L 139.555906 308.42812 
L 136.867636 307.657335 
L 134.60852 304.717813 
L 127.674542 298.418552 
L 128.416542 296.702257 
L 124.111567 292.044421 
L 125.549337 290.218269 
L 127.715913 292.191527 
L 129.820729 288.377992 
L 126.822651 288.225465 
L 126.484822 284.229768 
L 123.354679 282.779253 
L 123.076796 282.398333 
L 128.330531 282.498008 
L 127.266104 250.428509 
L 126.502586 226.50225 
" clip-path="url(#p3b0d5e0809)" style="fill: none; stroke: #8f8f8f; stroke-width: 0.2; stroke-linecap: square"/>
   </g>
   <g id="line2d_185">
    <path d="M 398.487273 220.348785 
L 400.118288 222.216605 
L 392.612405 320.138583 
L 384.643171 319.989695 
L 362.863323 288.149422 
L 362.673203 245.594277 
L 359.093719 223.949772 
L 398.487273 220.348785 
" clip-path="url(#p3b0d5e0809)" style="fill: none; stroke: #8f8f8f; stroke-width: 0.2; stroke-linecap: square"/>
   </g>
   <g id="line2d_186">
    <path d="M 384.643171 319.989695 
L 392.612405 320.138583 
L 390.60016 346.6 
M 371.699637 346.6 
L 384.643171 319.989695 
" clip-path="url(#p3b0d5e0809)" style="fill: none; stroke: #8f8f8f; stroke-width: 0.2; stroke-linecap: square"/>
   </g>
   <g id="line2d_187">
    <path d="M 126.502586 226.50225 
L 127.266104 250.428509 
L 128.330531 282.498008 
L 122.48351 268.803245 
L 117.48629 256.060865 
L 105.236485 227.704439 
L 126.502586 226.50225 
" clip-path="url(#p3b0d5e0809)" style="fill: none; stroke: #8f8f8f; stroke-width: 0.2; stroke-linecap: square"/>
   </g>
   <g id="line2d_188">
    <path d="M 112.314509 268.602308 
L 122.48351 268.803245 
L 128.330531 282.498008 
L 123.076796 282.398333 
L 122.446877 281.259455 
L 120.821372 280.29843 
L 120.398904 278.145611 
L 121.955362 277.181119 
L 123.435684 276.562369 
L 121.554844 274.73206 
L 120.930417 273.342798 
L 118.334678 272.853876 
L 115.502959 269.918294 
L 113.195514 269.308676 
L 112.314509 268.602308 
" clip-path="url(#p3b0d5e0809)" style="fill: none; stroke: #8f8f8f; stroke-width: 0.2; stroke-linecap: square"/>
   </g>
   <g id="line2d_189">
    <path clip-path="url(#p3b0d5e0809)" style="fill: none; stroke: #8f8f8f; stroke-width: 0.2; stroke-linecap: square"/>
   </g>
   <g id="line2d_190">
    <path clip-path="url(#p3b0d5e0809)" style="fill: none; stroke: #8f8f8f; stroke-width: 0.2; stroke-linecap: square"/>
   </g>
   <g id="line2d_191">
    <path clip-path="url(#p3b0d5e0809)" style="fill: none; stroke: #8f8f8f; stroke-width: 0.2; stroke-linecap: square"/>
   </g>
   <g id="line2d_192">
    <path clip-path="url(#p3b0d5e0809)" style="fill: none; stroke: #8f8f8f; stroke-width: 0.2; stroke-linecap: square"/>
   </g>
   <g id="line2d_193">
    <path clip-path="url(#p3b0d5e0809)" style="fill: none; stroke: #8f8f8f; stroke-width: 0.2; stroke-linecap: square"/>
   </g>
   <g id="line2d_194">
    <path d="M 169.709156 31.769438 
L 179.659748 31.793385 
L 227.583033 31.4429 
L 264.111347 44.075734 
L 272.438839 64.529324 
L 282.655854 89.616433 
L 288.555016 104.162192 
L 289.334247 138.084407 
L 232.047134 118.479344 
L 216.133255 117.189741 
L 185.593234 114.995944 
L 179.740527 84.119609 
L 169.709156 31.769438 
" clip-path="url(#p3b0d5e0809)" style="fill: none; stroke: #8f8f8f; stroke-width: 0.2; stroke-linecap: square"/>
   </g>
   <g id="line2d_195">
    <path d="M 227.583033 31.4429 
L 258.26619 31.331114 
L 264.111347 44.075734 
L 227.583033 31.4429 
" clip-path="url(#p3b0d5e0809)" style="fill: none; stroke: #8f8f8f; stroke-width: 0.2; stroke-linecap: square"/>
   </g>
   <g id="line2d_196">
    <path d="M 288.555016 104.162192 
L 323.396241 117.33429 
L 317.599875 130.15565 
L 289.334247 138.084407 
L 288.555016 104.162192 
" clip-path="url(#p3b0d5e0809)" style="fill: none; stroke: #8f8f8f; stroke-width: 0.2; stroke-linecap: square"/>
   </g>
   <g id="line2d_197">
    <path d="M 169.709156 31.769438 
L 179.659748 31.793385 
L 188.871158 89.191851 
L 140.414406 84.419533 
L 164.917858 32.695795 
L 169.709156 31.769438 
" clip-path="url(#p3b0d5e0809)" style="fill: none; stroke: #8f8f8f; stroke-width: 0.2; stroke-linecap: square"/>
   </g>
   <g id="line2d_198">
    <path d="M 96.363612 70.0736 
L 102.696918 52.559055 
L 137.477911 39.735709 
L 164.917858 32.695795 
L 169.709156 31.769438 
L 179.740527 84.119609 
L 185.593234 114.995944 
L 171.130796 113.784937 
L 76.811863 115.635885 
L 77.609437 104.073119 
L 78.78464 86.697104 
L 78.836555 86.197504 
L 96.363612 70.0736 
" clip-path="url(#p3b0d5e0809)" style="fill: none; stroke: #8f8f8f; stroke-width: 0.2; stroke-linecap: square"/>
   </g>
   <g id="line2d_199">
    <path d="M 403.440101 -1 
L 393.141391 34.823846 
L 378.057855 35.521608 
L 369.653333 21.846995 
L 355.654903 -1 
" clip-path="url(#p3b0d5e0809)" style="fill: none; stroke: #8f8f8f; stroke-width: 0.2; stroke-linecap: square"/>
   </g>
   <g id="line2d_200">
    <path clip-path="url(#p3b0d5e0809)" style="fill: none; stroke: #8f8f8f; stroke-width: 0.2; stroke-linecap: square"/>
   </g>
   <g id="line2d_201">
    <path clip-path="url(#p3b0d5e0809)" style="fill: none; stroke: #8f8f8f; stroke-width: 0.2; stroke-linecap: square"/>
   </g>
   <g id="line2d_202">
    <path d="M 412.135514 -1 
L 437.348151 45.254919 
L 440.492592 56.990276 
L 454.523904 109.790048 
L 447.788239 117.373028 
L 429.511586 119.238912 
L 399.163748 69.835419 
L 388.292156 52.122006 
L 378.057855 35.521608 
L 393.141391 34.823846 
L 403.440101 -1 
" clip-path="url(#p3b0d5e0809)" style="fill: none; stroke: #8f8f8f; stroke-width: 0.2; stroke-linecap: square"/>
   </g>
   <g id="line2d_203">
    <path d="M 355.654903 -1 
L 369.653333 21.846995 
L 345.413885 33.789486 
L 318.807617 -1 
" clip-path="url(#p3b0d5e0809)" style="fill: none; stroke: #8f8f8f; stroke-width: 0.2; stroke-linecap: square"/>
   </g>
   <g id="line2d_204">
    <path d="M 406.250241 169.296165 
L 461.8 211.532185 
M 316.016182 346.6 
L 365.646523 206.347921 
L 406.250241 169.296165 
" clip-path="url(#p3b0d5e0809)" style="fill: none; stroke: #8f8f8f; stroke-width: 0.2; stroke-linecap: square"/>
   </g>
   <g id="line2d_205">
    <path clip-path="url(#p3b0d5e0809)" style="fill: none; stroke: #8f8f8f; stroke-width: 0.2; stroke-linecap: square"/>
   </g>
   <g id="line2d_206">
    <path d="M 390.60016 346.6 
L 392.612405 320.138583 
L 438.55547 321.179507 
L 461.8 321.719047 
" clip-path="url(#p3b0d5e0809)" style="fill: none; stroke: #8f8f8f; stroke-width: 0.2; stroke-linecap: square"/>
   </g>
   <g id="line2d_207">
    <path clip-path="url(#p3b0d5e0809)" style="fill: none; stroke: #8f8f8f; stroke-width: 0.2; stroke-linecap: square"/>
   </g>
   <g id="line2d_208">
    <path d="M 318.807617 -1 
L 345.413885 33.789486 
L 369.653333 21.846995 
L 378.057855 35.521608 
L 388.292156 52.122006 
L 385.272466 62.775634 
L 377.784475 76.451134 
L 363.490757 80.942277 
L 316.173314 95.608901 
L 292.726684 102.865041 
L 288.555016 104.162192 
L 282.655854 89.616433 
L 272.438839 64.529324 
L 294.107284 55.621483 
L 277.286437 16.74334 
L 274.607586 12.598085 
L 294.193498 1.488244 
L 294.869705 1.052716 
L 298.215913 -1 
" clip-path="url(#p3b0d5e0809)" style="fill: none; stroke: #8f8f8f; stroke-width: 0.2; stroke-linecap: square"/>
   </g>
   <g id="line2d_209">
    <path d="M 298.215913 -1 
L 294.869705 1.052716 
L 294.193498 1.488244 
L 274.607586 12.598085 
L 265.924824 -1 
" clip-path="url(#p3b0d5e0809)" style="fill: none; stroke: #8f8f8f; stroke-width: 0.2; stroke-linecap: square"/>
   </g>
   <g id="line2d_210">
    <path d="M 355.654903 -1 
L 369.653333 21.846995 
L 345.413885 33.789486 
L 318.807617 -1 
" clip-path="url(#p3b0d5e0809)" style="fill: none; stroke: #8f8f8f; stroke-width: 0.2; stroke-linecap: square"/>
   </g>
   <g id="line2d_211">
    <path d="M 388.292156 52.122006 
L 399.163748 69.835419 
L 377.784475 76.451134 
L 385.272466 62.775634 
L 388.292156 52.122006 
" clip-path="url(#p3b0d5e0809)" style="fill: none; stroke: #8f8f8f; stroke-width: 0.2; stroke-linecap: square"/>
   </g>
   <g id="line2d_212">
    <path d="M 399.163748 69.835419 
L 429.511586 119.238912 
L 406.89792 121.479159 
L 383.904464 121.545935 
L 353.046228 121.642572 
L 334.948561 121.720793 
L 323.396241 117.33429 
L 288.555016 104.162192 
L 292.726684 102.865041 
L 316.173314 95.608901 
L 363.490757 80.942277 
L 377.784475 76.451134 
L 399.163748 69.835419 
" clip-path="url(#p3b0d5e0809)" style="fill: none; stroke: #8f8f8f; stroke-width: 0.2; stroke-linecap: square"/>
   </g>
   <g id="line2d_213">
    <path d="M 274.607586 12.598085 
L 277.286437 16.74334 
L 294.107284 55.621483 
L 272.438839 64.529324 
L 264.111347 44.075734 
L 258.26619 31.331114 
L 254.661196 23.857216 
L 274.607586 12.598085 
" clip-path="url(#p3b0d5e0809)" style="fill: none; stroke: #8f8f8f; stroke-width: 0.2; stroke-linecap: square"/>
   </g>
   <g id="line2d_214">
    <path clip-path="url(#p3b0d5e0809)" style="fill: none; stroke: #8f8f8f; stroke-width: 0.2; stroke-linecap: square"/>
   </g>
   <g id="line2d_215">
    <path clip-path="url(#p3b0d5e0809)" style="fill: none; stroke: #8f8f8f; stroke-width: 0.2; stroke-linecap: square"/>
   </g>
   <g id="line2d_216">
    <path clip-path="url(#p3b0d5e0809)" style="fill: none; stroke: #8f8f8f; stroke-width: 0.2; stroke-linecap: square"/>
   </g>
   <g id="line2d_217">
    <path clip-path="url(#p3b0d5e0809)" style="fill: none; stroke: #8f8f8f; stroke-width: 0.2; stroke-linecap: square"/>
   </g>
   <g id="line2d_218">
    <path clip-path="url(#p3b0d5e0809)" style="fill: none; stroke: #8f8f8f; stroke-width: 0.2; stroke-linecap: square"/>
   </g>
   <g id="line2d_219">
    <path clip-path="url(#p3b0d5e0809)" style="fill: none; stroke: #8f8f8f; stroke-width: 0.2; stroke-linecap: square"/>
   </g>
   <g id="line2d_220">
    <path d="M 253.909059 -1 
L 210.116149 10.66211 
L 192.270513 -1 
" clip-path="url(#p3b0d5e0809)" style="fill: none; stroke: #8f8f8f; stroke-width: 0.2; stroke-linecap: square"/>
   </g>
   <g id="line2d_221">
    <path d="M 185.593234 114.995944 
L 216.133255 117.189741 
L 232.047134 118.479344 
L 289.334247 138.084407 
L 289.883202 160.866148 
L 290.466903 185.713181 
L 291.473813 186.280454 
L 324.881949 204.885581 
L 359.093719 223.949772 
L 264.246931 214.112587 
L 230.239307 215.09203 
L 205.865812 222.342181 
L 189.975677 138.21311 
L 185.593234 114.995944 
L 185.593234 114.995944 
" clip-path="url(#p3b0d5e0809)" style="fill: none; stroke: #ffc380; stroke-width: 0.5; stroke-linecap: square"/>
   </g>
   <g id="line2d_222">
    <path d="M 289.334247 138.084407 
L 317.599875 130.15565 
L 323.396241 117.33429 
L 334.948561 121.720793 
L 353.046228 121.642572 
L 383.904464 121.545935 
L 390.89524 169.636845 
L 398.487273 220.348785 
L 359.093719 223.949772 
L 324.881949 204.885581 
L 291.473813 186.280454 
L 290.466903 185.713181 
L 289.883202 160.866148 
L 289.334247 138.084407 
L 289.334247 138.084407 
" clip-path="url(#p3b0d5e0809)" style="fill: none; stroke: #ffc380; stroke-width: 0.5; stroke-linecap: square"/>
   </g>
   <g id="line2d_223">
    <path d="M 76.811863 115.635885 
L 171.130796 113.784937 
L 185.593234 114.995944 
L 189.975677 138.21311 
L 205.865812 222.342181 
L 126.502586 226.50225 
L 105.236485 227.704439 
L 117.0001 188.821417 
L 93.744372 173.620358 
L 73.832727 159.387625 
L 74.134817 155.200374 
L 75.310561 138.074944 
L 76.811863 115.635885 
L 76.811863 115.635885 
" clip-path="url(#p3b0d5e0809)" style="fill: none; stroke: #ffc380; stroke-width: 0.5; stroke-linecap: square"/>
   </g>
   <g id="line2d_224">
    <path d="M 288.555016 104.162192 
L 323.396241 117.33429 
L 317.599875 130.15565 
L 289.334247 138.084407 
L 288.555016 104.162192 
L 288.555016 104.162192 
" clip-path="url(#p3b0d5e0809)" style="fill: none; stroke: #ffc380; stroke-width: 0.5; stroke-linecap: square"/>
   </g>
   <g id="line2d_225">
    <path d="M 139.021127 172.77718 
L 151.336931 183.883028 
L 164.492003 202.37323 
L 160.820544 224.723028 
L 129.197837 244.893808 
L 118.627801 192.296676 
L 117.124991 188.636121 
L 139.021127 172.77718 
L 139.021127 172.77718 
" clip-path="url(#p3b0d5e0809)" style="fill: none; stroke: #ffc380; stroke-width: 0.5; stroke-linecap: square"/>
   </g>
   <g id="text_1">
    <!-- KIR1 -->
    <g transform="translate(265.737448 164.587002)scale(0.0579 -0.0579)">
     <defs>
      <path id="DejaVuSans-4b" d="M 628 4666 
L 1259 4666 
L 1259 2694 
L 3353 4666 
L 4166 4666 
L 1850 2491 
L 4331 0 
L 3500 0 
L 1259 2247 
L 1259 0 
L 628 0 
L 628 4666 
z
" transform="scale(0.015625)"/>
      <path id="DejaVuSans-49" d="M 628 4666 
L 1259 4666 
L 1259 0 
L 628 0 
L 628 4666 
z
" transform="scale(0.015625)"/>
      <path id="DejaVuSans-52" d="M 2841 2188 
Q 3044 2119 3236 1894 
Q 3428 1669 3622 1275 
L 4263 0 
L 3584 0 
L 2988 1197 
Q 2756 1666 2539 1819 
Q 2322 1972 1947 1972 
L 1259 1972 
L 1259 0 
L 628 0 
L 628 4666 
L 2053 4666 
Q 2853 4666 3247 4331 
Q 3641 3997 3641 3322 
Q 3641 2881 3436 2590 
Q 3231 2300 2841 2188 
z
M 1259 4147 
L 1259 2491 
L 2053 2491 
Q 2509 2491 2742 2702 
Q 2975 2913 2975 3322 
Q 2975 3731 2742 3939 
Q 2509 4147 2053 4147 
L 1259 4147 
z
" transform="scale(0.015625)"/>
      <path id="DejaVuSans-31" d="M 794 531 
L 1825 531 
L 1825 4091 
L 703 3866 
L 703 4441 
L 1819 4666 
L 2450 4666 
L 2450 531 
L 3481 531 
L 3481 0 
L 794 0 
L 794 531 
z
" transform="scale(0.015625)"/>
     </defs>
     <use xlink:href="#DejaVuSans-4b"/>
     <use xlink:href="#DejaVuSans-49" x="65.576172"/>
     <use xlink:href="#DejaVuSans-52" x="95.068359"/>
     <use xlink:href="#DejaVuSans-31" x="164.550781"/>
    </g>
    <!-- 245 -->
    <g transform="translate(266.817645 171.070536)scale(0.0579 -0.0579)">
     <defs>
      <path id="DejaVuSans-32" d="M 1228 531 
L 3431 531 
L 3431 0 
L 469 0 
L 469 531 
Q 828 903 1448 1529 
Q 2069 2156 2228 2338 
Q 2531 2678 2651 2914 
Q 2772 3150 2772 3378 
Q 2772 3750 2511 3984 
Q 2250 4219 1831 4219 
Q 1534 4219 1204 4116 
Q 875 4013 500 3803 
L 500 4441 
Q 881 4594 1212 4672 
Q 1544 4750 1819 4750 
Q 2544 4750 2975 4387 
Q 3406 4025 3406 3419 
Q 3406 3131 3298 2873 
Q 3191 2616 2906 2266 
Q 2828 2175 2409 1742 
Q 1991 1309 1228 531 
z
" transform="scale(0.015625)"/>
      <path id="DejaVuSans-34" d="M 2419 4116 
L 825 1625 
L 2419 1625 
L 2419 4116 
z
M 2253 4666 
L 3047 4666 
L 3047 1625 
L 3713 1625 
L 3713 1100 
L 3047 1100 
L 3047 0 
L 2419 0 
L 2419 1100 
L 313 1100 
L 313 1709 
L 2253 4666 
z
" transform="scale(0.015625)"/>
      <path id="DejaVuSans-35" d="M 691 4666 
L 3169 4666 
L 3169 4134 
L 1269 4134 
L 1269 2991 
Q 1406 3038 1543 3061 
Q 1681 3084 1819 3084 
Q 2600 3084 3056 2656 
Q 3513 2228 3513 1497 
Q 3513 744 3044 326 
Q 2575 -91 1722 -91 
Q 1428 -91 1123 -41 
Q 819 9 494 109 
L 494 744 
Q 775 591 1075 516 
Q 1375 441 1709 441 
Q 2250 441 2565 725 
Q 2881 1009 2881 1497 
Q 2881 1984 2565 2268 
Q 2250 2553 1709 2553 
Q 1456 2553 1204 2497 
Q 953 2441 691 2322 
L 691 4666 
z
" transform="scale(0.015625)"/>
     </defs>
     <use xlink:href="#DejaVuSans-32"/>
     <use xlink:href="#DejaVuSans-34" x="63.623047"/>
     <use xlink:href="#DejaVuSans-35" x="127.246094"/>
    </g>
    <!-- 105 -->
    <g transform="translate(266.817645 177.554069)scale(0.0579 -0.0579)">
     <defs>
      <path id="DejaVuSans-30" d="M 2034 4250 
Q 1547 4250 1301 3770 
Q 1056 3291 1056 2328 
Q 1056 1369 1301 889 
Q 1547 409 2034 409 
Q 2525 409 2770 889 
Q 3016 1369 3016 2328 
Q 3016 3291 2770 3770 
Q 2525 4250 2034 4250 
z
M 2034 4750 
Q 2819 4750 3233 4129 
Q 3647 3509 3647 2328 
Q 3647 1150 3233 529 
Q 2819 -91 2034 -91 
Q 1250 -91 836 529 
Q 422 1150 422 2328 
Q 422 3509 836 4129 
Q 1250 4750 2034 4750 
z
" transform="scale(0.015625)"/>
     </defs>
     <use xlink:href="#DejaVuSans-31"/>
     <use xlink:href="#DejaVuSans-30" x="63.623047"/>
     <use xlink:href="#DejaVuSans-35" x="127.246094"/>
    </g>
   </g>
   <g id="text_2">
    <!-- KIR2 -->
    <g transform="translate(337.304732 165.756176)scale(0.0579 -0.0579)">
     <use xlink:href="#DejaVuSans-4b"/>
     <use xlink:href="#DejaVuSans-49" x="65.576172"/>
     <use xlink:href="#DejaVuSans-52" x="95.068359"/>
     <use xlink:href="#DejaVuSans-32" x="164.550781"/>
    </g>
    <!-- 245 -->
    <g transform="translate(338.384929 172.239709)scale(0.0579 -0.0579)">
     <use xlink:href="#DejaVuSans-32"/>
     <use xlink:href="#DejaVuSans-34" x="63.623047"/>
     <use xlink:href="#DejaVuSans-35" x="127.246094"/>
    </g>
    <!-- 135 -->
    <g transform="translate(338.384929 178.723243)scale(0.0579 -0.0579)">
     <defs>
      <path id="DejaVuSans-33" d="M 2597 2516 
Q 3050 2419 3304 2112 
Q 3559 1806 3559 1356 
Q 3559 666 3084 287 
Q 2609 -91 1734 -91 
Q 1441 -91 1130 -33 
Q 819 25 488 141 
L 488 750 
Q 750 597 1062 519 
Q 1375 441 1716 441 
Q 2309 441 2620 675 
Q 2931 909 2931 1356 
Q 2931 1769 2642 2001 
Q 2353 2234 1838 2234 
L 1294 2234 
L 1294 2753 
L 1863 2753 
Q 2328 2753 2575 2939 
Q 2822 3125 2822 3475 
Q 2822 3834 2567 4026 
Q 2313 4219 1838 4219 
Q 1578 4219 1281 4162 
Q 984 4106 628 3988 
L 628 4550 
Q 988 4650 1302 4700 
Q 1616 4750 1894 4750 
Q 2613 4750 3031 4423 
Q 3450 4097 3450 3541 
Q 3450 3153 3228 2886 
Q 3006 2619 2597 2516 
z
" transform="scale(0.015625)"/>
     </defs>
     <use xlink:href="#DejaVuSans-31"/>
     <use xlink:href="#DejaVuSans-33" x="63.623047"/>
     <use xlink:href="#DejaVuSans-35" x="127.246094"/>
    </g>
   </g>
   <g id="text_3">
    <!-- KIR3 -->
    <g transform="translate(133.243242 165.858833)scale(0.0579 -0.0579)">
     <use xlink:href="#DejaVuSans-4b"/>
     <use xlink:href="#DejaVuSans-49" x="65.576172"/>
     <use xlink:href="#DejaVuSans-52" x="95.068359"/>
     <use xlink:href="#DejaVuSans-33" x="164.550781"/>
    </g>
    <!-- 245 -->
    <g transform="translate(134.323439 172.342366)scale(0.0579 -0.0579)">
     <use xlink:href="#DejaVuSans-32"/>
     <use xlink:href="#DejaVuSans-34" x="63.623047"/>
     <use xlink:href="#DejaVuSans-35" x="127.246094"/>
    </g>
    <!-- 165 -->
    <g transform="translate(134.323439 178.8259)scale(0.0579 -0.0579)">
     <defs>
      <path id="DejaVuSans-36" d="M 2113 2584 
Q 1688 2584 1439 2293 
Q 1191 2003 1191 1497 
Q 1191 994 1439 701 
Q 1688 409 2113 409 
Q 2538 409 2786 701 
Q 3034 994 3034 1497 
Q 3034 2003 2786 2293 
Q 2538 2584 2113 2584 
z
M 3366 4563 
L 3366 3988 
Q 3128 4100 2886 4159 
Q 2644 4219 2406 4219 
Q 1781 4219 1451 3797 
Q 1122 3375 1075 2522 
Q 1259 2794 1537 2939 
Q 1816 3084 2150 3084 
Q 2853 3084 3261 2657 
Q 3669 2231 3669 1497 
Q 3669 778 3244 343 
Q 2819 -91 2113 -91 
Q 1303 -91 875 529 
Q 447 1150 447 2328 
Q 447 3434 972 4092 
Q 1497 4750 2381 4750 
Q 2619 4750 2861 4703 
Q 3103 4656 3366 4563 
z
" transform="scale(0.015625)"/>
     </defs>
     <use xlink:href="#DejaVuSans-31"/>
     <use xlink:href="#DejaVuSans-36" x="63.623047"/>
     <use xlink:href="#DejaVuSans-35" x="127.246094"/>
    </g>
   </g>
   <g id="text_4">
    <!-- KIR4 -->
    <g transform="translate(299.369601 116.237444)scale(0.0579 -0.0579)">
     <use xlink:href="#DejaVuSans-4b"/>
     <use xlink:href="#DejaVuSans-49" x="65.576172"/>
     <use xlink:href="#DejaVuSans-52" x="95.068359"/>
     <use xlink:href="#DejaVuSans-34" x="164.550781"/>
    </g>
    <!-- 245 -->
    <g transform="translate(300.449797 122.720978)scale(0.0579 -0.0579)">
     <use xlink:href="#DejaVuSans-32"/>
     <use xlink:href="#DejaVuSans-34" x="63.623047"/>
     <use xlink:href="#DejaVuSans-35" x="127.246094"/>
    </g>
    <!-- 165 -->
    <g transform="translate(300.449797 129.204511)scale(0.0579 -0.0579)">
     <use xlink:href="#DejaVuSans-31"/>
     <use xlink:href="#DejaVuSans-36" x="63.623047"/>
     <use xlink:href="#DejaVuSans-35" x="127.246094"/>
    </g>
   </g>
   <g id="text_5">
    <!-- KIR5 -->
    <g transform="translate(134.202469 203.949639)scale(0.0579 -0.0579)">
     <use xlink:href="#DejaVuSans-4b"/>
     <use xlink:href="#DejaVuSans-49" x="65.576172"/>
     <use xlink:href="#DejaVuSans-52" x="95.068359"/>
     <use xlink:href="#DejaVuSans-35" x="164.550781"/>
    </g>
    <!-- 265 -->
    <g transform="translate(135.282666 210.433172)scale(0.0579 -0.0579)">
     <use xlink:href="#DejaVuSans-32"/>
     <use xlink:href="#DejaVuSans-36" x="63.623047"/>
     <use xlink:href="#DejaVuSans-35" x="127.246094"/>
    </g>
    <!-- 245 -->
    <g transform="translate(135.282666 216.916706)scale(0.0579 -0.0579)">
     <use xlink:href="#DejaVuSans-32"/>
     <use xlink:href="#DejaVuSans-34" x="63.623047"/>
     <use xlink:href="#DejaVuSans-35" x="127.246094"/>
    </g>
   </g>
  </g>
 </g>
 <defs>
  <clipPath id="p3b0d5e0809">
   <rect x="57.6" y="97.125611" width="357.12" height="154.804779"/>
  </clipPath>
 </defs>
</svg>
