<?xml version="1.0" encoding="utf-8" standalone="no"?>
<!DOCTYPE svg PUBLIC "-//W3C//DTD SVG 1.1//EN"
  "http://www.w3.org/Graphics/SVG/1.1/DTD/svg11.dtd">
<svg xmlns:xlink="http://www.w3.org/1999/xlink" width="460.8pt" height="345.6pt" viewBox="0 0 460.8 345.6" xmlns="http://www.w3.org/2000/svg" version="1.1">
 <metadata>
  <rdf:RDF xmlns:dc="http://purl.org/dc/elements/1.1/" xmlns:cc="http://creativecommons.org/ns#" xmlns:rdf="http://www.w3.org/1999/02/22-rdf-syntax-ns#">
   <cc:Work>
    <dc:type rdf:resource="http://purl.org/dc/dcmitype/StillImage"/>
    <dc:date>2022-04-26T15:55:08.422092</dc:date>
    <dc:format>image/svg+xml</dc:format>
    <dc:creator>
     <cc:Agent>
      <dc:title>Matplotlib v3.5.0, https://matplotlib.org/</dc:title>
     </cc:Agent>
    </dc:creator>
   </cc:Work>
  </rdf:RDF>
 </metadata>
 <defs>
  <style type="text/css">*{stroke-linejoin: round; stroke-linecap: butt}</style>
 </defs>
 <g id="figure_1">
  <g id="patch_1">
   <path d="M 0 345.6 
L 460.8 345.6 
L 460.8 0 
L 0 0 
z
" style="fill: #ffffff"/>
  </g>
  <g id="axes_1">
   <g id="patch_2">
    <path d="M 239.686169 117.147721 
L 238.023415 135.490634 
L 233.600246 185.859095 
L 203.638522 185.180257 
L 208.533477 121.320538 
L 207.469812 120.10244 
L 212.53727 119.622104 
z
" clip-path="url(#pd5b38ab981)" style="fill: #ffedd9; stroke: #ffedd9; stroke-linejoin: miter"/>
   </g>
   <g id="patch_3">
    <path d="M 266.14109 183.520935 
L 263.101638 219.197577 
L 262.36181 228.024527 
L 248.157649 230.933961 
L 228.425664 235.008 
L 207.960294 231.971397 
L 193.983905 224.528775 
L 199.425009 219.118049 
L 201.862504 208.535244 
L 203.638522 185.180257 
L 233.600246 185.859095 
L 260.82381 186.490995 
z
" clip-path="url(#pd5b38ab981)" style="fill: #ffedd9; stroke: #ffedd9; stroke-linejoin: miter"/>
   </g>
   <g id="patch_4">
    <path d="M 257.097803 114.048 
L 271.379066 116.054803 
L 269.260354 142.984875 
L 265.669974 134.464134 
z
" clip-path="url(#pd5b38ab981)" style="fill: #ffedd9; stroke: #ffedd9; stroke-linejoin: miter"/>
   </g>
   <g id="patch_5">
    <path d="M 268.38754 154.222415 
L 278.336095 181.136796 
L 268.70574 182.096977 
L 266.14109 183.520935 
z
" clip-path="url(#pd5b38ab981)" style="fill: #ffedd9; stroke: #ffedd9; stroke-linejoin: miter"/>
   </g>
   <g id="patch_6">
    <path d="M 257.097803 114.048 
L 265.669974 134.464134 
L 269.260354 142.984875 
L 268.38754 154.222415 
L 266.14109 183.520935 
L 260.82381 186.490995 
L 233.600246 185.859095 
L 238.023415 135.490634 
L 239.686169 117.147721 
z
" clip-path="url(#pd5b38ab981)" style="fill: #ffedd9; stroke: #ffedd9; stroke-linejoin: miter"/>
   </g>
   <g id="patch_7">
    <path d="M 239.686169 117.147721 
L 238.023415 135.490634 
L 233.600246 185.859095 
L 203.638522 185.180257 
L 208.533477 121.320538 
L 207.469812 120.10244 
L 212.53727 119.622104 
L 239.686169 117.147721 
z
" clip-path="url(#pd5b38ab981)" style="fill: #ffedd9; stroke: #ffedd9; stroke-linejoin: miter"/>
   </g>
   <g id="patch_8">
    <path d="M 266.14109 183.520935 
L 263.101638 219.197577 
L 262.36181 228.024527 
L 248.157649 230.933961 
L 228.425664 235.008 
L 207.960294 231.971397 
L 193.983905 224.528775 
L 199.425009 219.118049 
L 201.862504 208.535244 
L 203.638522 185.180257 
L 233.600246 185.859095 
L 260.82381 186.490995 
L 266.14109 183.520935 
z
" clip-path="url(#pd5b38ab981)" style="fill: #ffedd9; stroke: #ffedd9; stroke-linejoin: miter"/>
   </g>
   <g id="patch_9">
    <path d="M 257.097803 114.048 
L 271.379066 116.054803 
L 269.260354 142.984875 
L 265.669974 134.464134 
L 257.097803 114.048 
z
" clip-path="url(#pd5b38ab981)" style="fill: #ffedd9; stroke: #ffedd9; stroke-linejoin: miter"/>
   </g>
   <g id="patch_10">
    <path d="M 268.38754 154.222415 
L 278.336095 181.136796 
L 268.70574 182.096977 
L 266.14109 183.520935 
L 268.38754 154.222415 
z
" clip-path="url(#pd5b38ab981)" style="fill: #ffedd9; stroke: #ffedd9; stroke-linejoin: miter"/>
   </g>
   <g id="patch_11">
    <path d="M 257.097803 114.048 
L 265.669974 134.464134 
L 269.260354 142.984875 
L 268.38754 154.222415 
L 266.14109 183.520935 
L 260.82381 186.490995 
L 233.600246 185.859095 
L 238.023415 135.490634 
L 239.686169 117.147721 
L 257.097803 114.048 
z
" clip-path="url(#pd5b38ab981)" style="fill: #ffedd9; stroke: #ffedd9; stroke-linejoin: miter"/>
   </g>
   <g id="line2d_1">
    <path d="M 239.686169 117.147721 
L 238.023415 135.490634 
L 233.600246 185.859095 
L 203.638522 185.180257 
L 208.533477 121.320538 
L 207.469812 120.10244 
L 212.53727 119.622104 
L 239.686169 117.147721 
" clip-path="url(#pd5b38ab981)" style="fill: none; stroke: #ffc380; stroke-width: 0.5; stroke-linecap: square"/>
   </g>
   <g id="line2d_2">
    <path d="M 266.14109 183.520935 
L 263.101638 219.197577 
L 262.36181 228.024527 
L 248.157649 230.933961 
L 228.425664 235.008 
L 207.960294 231.971397 
L 193.983905 224.528775 
L 199.425009 219.118049 
L 201.862504 208.535244 
L 203.638522 185.180257 
L 233.600246 185.859095 
L 260.82381 186.490995 
L 266.14109 183.520935 
" clip-path="url(#pd5b38ab981)" style="fill: none; stroke: #ffc380; stroke-width: 0.5; stroke-linecap: square"/>
   </g>
   <g id="line2d_3">
    <path d="M 257.097803 114.048 
L 271.379066 116.054803 
L 269.260354 142.984875 
L 265.669974 134.464134 
L 257.097803 114.048 
" clip-path="url(#pd5b38ab981)" style="fill: none; stroke: #ffc380; stroke-width: 0.5; stroke-linecap: square"/>
   </g>
   <g id="line2d_4">
    <path d="M 268.38754 154.222415 
L 278.336095 181.136796 
L 268.70574 182.096977 
L 266.14109 183.520935 
L 268.38754 154.222415 
" clip-path="url(#pd5b38ab981)" style="fill: none; stroke: #ffc380; stroke-width: 0.5; stroke-linecap: square"/>
   </g>
   <g id="line2d_5">
    <path d="M 257.097803 114.048 
L 265.669974 134.464134 
L 269.260354 142.984875 
L 268.38754 154.222415 
L 266.14109 183.520935 
L 260.82381 186.490995 
L 233.600246 185.859095 
L 238.023415 135.490634 
L 239.686169 117.147721 
L 257.097803 114.048 
" clip-path="url(#pd5b38ab981)" style="fill: none; stroke: #ffc380; stroke-width: 0.5; stroke-linecap: square"/>
   </g>
   <g id="line2d_6">
    <path d="M 159.468173 110.018127 
L 196.379646 95.916064 
L 211.922547 90.036731 
L 234.32529 81.488759 
L 278.321579 105.98878 
L 273.548462 111.124147 
L 271.575109 111.480284 
L 257.097803 114.048 
L 239.686169 117.147721 
L 212.53727 119.622104 
L 207.469812 120.10244 
L 181.779345 122.450821 
L 159.468173 110.018127 
" clip-path="url(#pd5b38ab981)" style="fill: none; stroke: #8f8f8f; stroke-width: 0.2; stroke-linecap: square"/>
   </g>
   <g id="line2d_7">
    <path d="M 187.900504 224.182437 
L 193.983905 224.528775 
L 207.960294 231.971397 
L 228.425664 235.008 
L 248.157649 230.933961 
L 252.988747 246.919823 
L 260.280434 251.605175 
L 281.313523 265.060607 
L 274.428485 341.509469 
L 252.375867 341.799001 
L 232.552395 341.676802 
L 197.349335 341.746143 
L 186.838244 344.656754 
L 180.504125 346.6 
M 126.678058 346.6 
L 126.911348 345.597633 
L 126.621217 344.002377 
L 127.808465 342.330319 
L 129.795553 339.357318 
L 131.168467 335.958458 
L 133.230457 334.433714 
L 134.173907 331.26676 
L 135.689743 324.950653 
L 135.748154 323.344578 
L 136.149674 321.891746 
L 139.964908 319.865437 
L 141.000954 317.545887 
L 139.703976 310.525625 
L 140.200489 307.605064 
L 143.108941 299.583759 
L 143.293821 295.166881 
L 144.370671 293.930429 
L 146.291809 292.581414 
L 147.071065 289.575925 
L 146.871235 287.814502 
L 147.162739 284.99021 
L 146.551016 281.61909 
L 147.088248 279.460393 
L 149.544899 275.46285 
L 150.497287 272.401547 
L 155.282097 269.233191 
L 162.750041 260.073083 
L 162.802315 256.101247 
L 163.610544 254.866026 
L 164.766185 254.629554 
L 166.65092 255.009183 
L 168.075299 253.979091 
L 168.427923 251.495714 
L 169.340821 250.652072 
L 170.932643 250.527057 
L 172.336509 250.463905 
L 174.4316 248.960934 
L 176.075686 246.167407 
L 177.37398 240.395743 
L 179.824606 234.403808 
L 182.9217 229.842615 
L 184.715489 226.201546 
L 188.399377 224.609466 
L 187.900504 224.182437 
" clip-path="url(#pd5b38ab981)" style="fill: none; stroke: #8f8f8f; stroke-width: 0.2; stroke-linecap: square"/>
   </g>
   <g id="line2d_8">
    <path d="M 309.646262 107.383633 
L 315.275004 111.676571 
L 326.587262 134.700909 
L 305.115392 178.505644 
L 278.336095 181.136796 
L 268.38754 154.222415 
L 269.260354 142.984875 
L 271.379066 116.054803 
L 271.575109 111.480284 
L 273.548462 111.124147 
L 281.30881 109.737063 
L 287.472625 109.226152 
L 309.646262 107.383633 
" clip-path="url(#pd5b38ab981)" style="fill: none; stroke: #8f8f8f; stroke-width: 0.2; stroke-linecap: square"/>
   </g>
   <g id="line2d_9">
    <path d="M 271.575109 111.480284 
L 271.379066 116.054803 
L 257.097803 114.048 
L 271.575109 111.480284 
" clip-path="url(#pd5b38ab981)" style="fill: none; stroke: #8f8f8f; stroke-width: 0.2; stroke-linecap: square"/>
   </g>
   <g id="line2d_10">
    <path d="M 257.097803 114.048 
L 271.379066 116.054803 
L 269.260354 142.984875 
L 265.669974 134.464134 
L 257.097803 114.048 
" clip-path="url(#pd5b38ab981)" style="fill: none; stroke: #8f8f8f; stroke-width: 0.2; stroke-linecap: square"/>
   </g>
   <g id="line2d_11">
    <path d="M 268.38754 154.222415 
L 278.336095 181.136796 
L 268.70574 182.096977 
L 266.14109 183.520935 
L 268.38754 154.222415 
" clip-path="url(#pd5b38ab981)" style="fill: none; stroke: #8f8f8f; stroke-width: 0.2; stroke-linecap: square"/>
   </g>
   <g id="line2d_12">
    <path d="M 305.115392 178.505644 
L 337.341261 200.675275 
L 348.434711 209.264436 
L 368.181993 224.584667 
L 337.733721 245.66123 
L 326.502772 218.071739 
L 285.510934 218.781268 
L 281.313523 265.060607 
L 260.280434 251.605175 
L 252.988747 246.919823 
L 248.157649 230.933961 
L 262.36181 228.024527 
L 263.101638 219.197577 
L 266.14109 183.520935 
L 268.70574 182.096977 
L 278.336095 181.136796 
L 305.115392 178.505644 
" clip-path="url(#pd5b38ab981)" style="fill: none; stroke: #8f8f8f; stroke-width: 0.2; stroke-linecap: square"/>
   </g>
   <g id="line2d_13">
    <path d="M 187.900504 224.182437 
L 193.983905 224.528775 
L 207.960294 231.971397 
L 208.587556 220.049483 
L 201.862504 208.535244 
L 187.502581 207.572008 
L 172.276364 219.845854 
L 174.404772 221.136671 
L 176.039516 221.130481 
L 176.46093 221.591902 
L 177.94119 221.718564 
L 179.097856 222.676514 
L 180.710607 223.142359 
L 181.520734 222.656591 
L 182.366516 223.05593 
L 182.422183 222.679897 
L 184.758456 222.835413 
L 184.953436 224.349958 
L 187.486625 223.037592 
L 187.900504 224.182437 
" clip-path="url(#pd5b38ab981)" style="fill: none; stroke: #8f8f8f; stroke-width: 0.2; stroke-linecap: square"/>
   </g>
   <g id="line2d_14">
    <path d="M 269.440008 72.000268 
L 264.298862 87.176082 
L 253.918712 100.292219 
L 257.097803 114.048 
L 239.686169 117.147721 
L 212.53727 119.622104 
L 207.469812 120.10244 
L 202.518675 87.0307 
L 211.922547 90.036731 
L 217.64179 91.752206 
L 238.499516 83.814372 
L 269.440008 72.000268 
" clip-path="url(#pd5b38ab981)" style="fill: none; stroke: #8f8f8f; stroke-width: 0.2; stroke-linecap: square"/>
   </g>
   <g id="line2d_15">
    <path d="M 264.136679 45.463374 
L 269.440008 72.000268 
L 272.875653 82.316797 
L 272.363091 93.671903 
L 271.575109 111.480284 
L 271.379066 116.054803 
L 257.097803 114.048 
L 239.686169 117.147721 
L 212.53727 119.622104 
L 207.469812 120.10244 
L 202.518675 87.0307 
L 197.959647 55.668261 
L 212.954807 55.624713 
L 227.702286 54.163738 
L 239.621388 52.946904 
L 244.014045 48.001671 
L 264.136679 45.463374 
" clip-path="url(#pd5b38ab981)" style="fill: none; stroke: #8f8f8f; stroke-width: 0.2; stroke-linecap: square"/>
   </g>
   <g id="line2d_16">
    <path d="M 239.686169 117.147721 
L 238.023415 135.490634 
L 233.600246 185.859095 
L 203.638522 185.180257 
L 208.533477 121.320538 
L 207.469812 120.10244 
L 212.53727 119.622104 
L 239.686169 117.147721 
" clip-path="url(#pd5b38ab981)" style="fill: none; stroke: #8f8f8f; stroke-width: 0.2; stroke-linecap: square"/>
   </g>
   <g id="line2d_17">
    <path d="M 257.097803 114.048 
L 265.669974 134.464134 
L 269.260354 142.984875 
L 268.38754 154.222415 
L 266.14109 183.520935 
L 260.82381 186.490995 
L 233.600246 185.859095 
L 238.023415 135.490634 
L 239.686169 117.147721 
L 257.097803 114.048 
" clip-path="url(#pd5b38ab981)" style="fill: none; stroke: #8f8f8f; stroke-width: 0.2; stroke-linecap: square"/>
   </g>
   <g id="line2d_18">
    <path d="M 207.469812 120.10244 
L 208.533477 121.320538 
L 203.638522 185.180257 
L 198.441394 185.08316 
L 184.237689 164.318558 
L 184.113702 136.566263 
L 181.779345 122.450821 
L 207.469812 120.10244 
" clip-path="url(#pd5b38ab981)" style="fill: none; stroke: #8f8f8f; stroke-width: 0.2; stroke-linecap: square"/>
   </g>
   <g id="line2d_19">
    <path d="M 198.441394 185.08316 
L 203.638522 185.180257 
L 201.862504 208.535244 
L 199.425009 219.118049 
L 193.983905 224.528775 
L 187.900504 224.182437 
L 187.486625 223.037592 
L 184.953436 224.349958 
L 184.758456 222.835413 
L 182.422183 222.679897 
L 182.366516 223.05593 
L 181.520734 222.656591 
L 180.710607 223.142359 
L 179.097856 222.676514 
L 177.94119 221.718564 
L 176.46093 221.591902 
L 176.039516 221.130481 
L 174.404772 221.136671 
L 172.276364 219.845854 
L 187.502581 207.572008 
L 198.441394 185.08316 
" clip-path="url(#pd5b38ab981)" style="fill: none; stroke: #8f8f8f; stroke-width: 0.2; stroke-linecap: square"/>
   </g>
   <g id="line2d_20">
    <path d="M 305.115392 178.505644 
L 337.341261 200.675275 
L 348.434711 209.264436 
L 368.181993 224.584667 
L 337.733721 245.66123 
L 331.750842 249.801055 
L 257.030271 273.60824 
L 249.304499 275.128924 
L 243.434699 276.336304 
L 207.790566 249.115343 
L 207.960294 231.971397 
L 208.587556 220.049483 
L 201.862504 208.535244 
L 203.638522 185.180257 
L 233.600246 185.859095 
L 260.82381 186.490995 
L 266.14109 183.520935 
L 268.70574 182.096977 
L 278.336095 181.136796 
L 305.115392 178.505644 
" clip-path="url(#pd5b38ab981)" style="fill: none; stroke: #8f8f8f; stroke-width: 0.2; stroke-linecap: square"/>
   </g>
   <g id="line2d_21">
    <path d="M 201.862504 208.535244 
L 208.587556 220.049483 
L 207.960294 231.971397 
L 193.983905 224.528775 
L 199.425009 219.118049 
L 201.862504 208.535244 
" clip-path="url(#pd5b38ab981)" style="fill: none; stroke: #8f8f8f; stroke-width: 0.2; stroke-linecap: square"/>
   </g>
   <g id="line2d_22">
    <path d="M 239.686169 117.147721 
L 238.023415 135.490634 
L 233.600246 185.859095 
L 203.638522 185.180257 
L 208.533477 121.320538 
L 207.469812 120.10244 
L 212.53727 119.622104 
L 239.686169 117.147721 
L 239.686169 117.147721 
" clip-path="url(#pd5b38ab981)" style="fill: none; stroke: #ffc380; stroke-width: 0.5; stroke-linecap: square"/>
   </g>
   <g id="line2d_23">
    <path d="M 266.14109 183.520935 
L 263.101638 219.197577 
L 262.36181 228.024527 
L 248.157649 230.933961 
L 228.425664 235.008 
L 207.960294 231.971397 
L 193.983905 224.528775 
L 199.425009 219.118049 
L 201.862504 208.535244 
L 203.638522 185.180257 
L 233.600246 185.859095 
L 260.82381 186.490995 
L 266.14109 183.520935 
L 266.14109 183.520935 
" clip-path="url(#pd5b38ab981)" style="fill: none; stroke: #ffc380; stroke-width: 0.5; stroke-linecap: square"/>
   </g>
   <g id="line2d_24">
    <path d="M 257.097803 114.048 
L 271.379066 116.054803 
L 269.260354 142.984875 
L 265.669974 134.464134 
L 257.097803 114.048 
L 257.097803 114.048 
" clip-path="url(#pd5b38ab981)" style="fill: none; stroke: #ffc380; stroke-width: 0.5; stroke-linecap: square"/>
   </g>
   <g id="line2d_25">
    <path d="M 268.38754 154.222415 
L 278.336095 181.136796 
L 268.70574 182.096977 
L 266.14109 183.520935 
L 268.38754 154.222415 
L 268.38754 154.222415 
" clip-path="url(#pd5b38ab981)" style="fill: none; stroke: #ffc380; stroke-width: 0.5; stroke-linecap: square"/>
   </g>
   <g id="line2d_26">
    <path d="M 257.097803 114.048 
L 265.669974 134.464134 
L 269.260354 142.984875 
L 268.38754 154.222415 
L 266.14109 183.520935 
L 260.82381 186.490995 
L 233.600246 185.859095 
L 238.023415 135.490634 
L 239.686169 117.147721 
L 257.097803 114.048 
L 257.097803 114.048 
" clip-path="url(#pd5b38ab981)" style="fill: none; stroke: #ffc380; stroke-width: 0.5; stroke-linecap: square"/>
   </g>
   <g id="text_1">
    <!-- ADF18 -->
    <g style="opacity: 0.5" transform="translate(209.3364 97.083934)scale(0.0579 -0.0579)">
     <defs>
      <path id="DejaVuSans-41" d="M 2188 4044 
L 1331 1722 
L 3047 1722 
L 2188 4044 
z
M 1831 4666 
L 2547 4666 
L 4325 0 
L 3669 0 
L 3244 1197 
L 1141 1197 
L 716 0 
L 50 0 
L 1831 4666 
z
" transform="scale(0.015625)"/>
      <path id="DejaVuSans-44" d="M 1259 4147 
L 1259 519 
L 2022 519 
Q 2988 519 3436 956 
Q 3884 1394 3884 2338 
Q 3884 3275 3436 3711 
Q 2988 4147 2022 4147 
L 1259 4147 
z
M 628 4666 
L 1925 4666 
Q 3281 4666 3915 4102 
Q 4550 3538 4550 2338 
Q 4550 1131 3912 565 
Q 3275 0 1925 0 
L 628 0 
L 628 4666 
z
" transform="scale(0.015625)"/>
      <path id="DejaVuSans-46" d="M 628 4666 
L 3309 4666 
L 3309 4134 
L 1259 4134 
L 1259 2759 
L 3109 2759 
L 3109 2228 
L 1259 2228 
L 1259 0 
L 628 0 
L 628 4666 
z
" transform="scale(0.015625)"/>
      <path id="DejaVuSans-31" d="M 794 531 
L 1825 531 
L 1825 4091 
L 703 3866 
L 703 4441 
L 1819 4666 
L 2450 4666 
L 2450 531 
L 3481 531 
L 3481 0 
L 794 0 
L 794 531 
z
" transform="scale(0.015625)"/>
      <path id="DejaVuSans-38" d="M 2034 2216 
Q 1584 2216 1326 1975 
Q 1069 1734 1069 1313 
Q 1069 891 1326 650 
Q 1584 409 2034 409 
Q 2484 409 2743 651 
Q 3003 894 3003 1313 
Q 3003 1734 2745 1975 
Q 2488 2216 2034 2216 
z
M 1403 2484 
Q 997 2584 770 2862 
Q 544 3141 544 3541 
Q 544 4100 942 4425 
Q 1341 4750 2034 4750 
Q 2731 4750 3128 4425 
Q 3525 4100 3525 3541 
Q 3525 3141 3298 2862 
Q 3072 2584 2669 2484 
Q 3125 2378 3379 2068 
Q 3634 1759 3634 1313 
Q 3634 634 3220 271 
Q 2806 -91 2034 -91 
Q 1263 -91 848 271 
Q 434 634 434 1313 
Q 434 1759 690 2068 
Q 947 2378 1403 2484 
z
M 1172 3481 
Q 1172 3119 1398 2916 
Q 1625 2713 2034 2713 
Q 2441 2713 2670 2916 
Q 2900 3119 2900 3481 
Q 2900 3844 2670 4047 
Q 2441 4250 2034 4250 
Q 1625 4250 1398 4047 
Q 1172 3844 1172 3481 
z
" transform="scale(0.015625)"/>
     </defs>
     <use xlink:href="#DejaVuSans-41"/>
     <use xlink:href="#DejaVuSans-44" x="68.408203"/>
     <use xlink:href="#DejaVuSans-46" x="145.410156"/>
     <use xlink:href="#DejaVuSans-31" x="202.929688"/>
     <use xlink:href="#DejaVuSans-38" x="266.552734"/>
    </g>
    <!-- 135 -->
    <g style="opacity: 0.5" transform="translate(213.369045 103.567468)scale(0.0579 -0.0579)">
     <defs>
      <path id="DejaVuSans-33" d="M 2597 2516 
Q 3050 2419 3304 2112 
Q 3559 1806 3559 1356 
Q 3559 666 3084 287 
Q 2609 -91 1734 -91 
Q 1441 -91 1130 -33 
Q 819 25 488 141 
L 488 750 
Q 750 597 1062 519 
Q 1375 441 1716 441 
Q 2309 441 2620 675 
Q 2931 909 2931 1356 
Q 2931 1769 2642 2001 
Q 2353 2234 1838 2234 
L 1294 2234 
L 1294 2753 
L 1863 2753 
Q 2328 2753 2575 2939 
Q 2822 3125 2822 3475 
Q 2822 3834 2567 4026 
Q 2313 4219 1838 4219 
Q 1578 4219 1281 4162 
Q 984 4106 628 3988 
L 628 4550 
Q 988 4650 1302 4700 
Q 1616 4750 1894 4750 
Q 2613 4750 3031 4423 
Q 3450 4097 3450 3541 
Q 3450 3153 3228 2886 
Q 3006 2619 2597 2516 
z
" transform="scale(0.015625)"/>
      <path id="DejaVuSans-35" d="M 691 4666 
L 3169 4666 
L 3169 4134 
L 1269 4134 
L 1269 2991 
Q 1406 3038 1543 3061 
Q 1681 3084 1819 3084 
Q 2600 3084 3056 2656 
Q 3513 2228 3513 1497 
Q 3513 744 3044 326 
Q 2575 -91 1722 -91 
Q 1428 -91 1123 -41 
Q 819 9 494 109 
L 494 744 
Q 775 591 1075 516 
Q 1375 441 1709 441 
Q 2250 441 2565 725 
Q 2881 1009 2881 1497 
Q 2881 1984 2565 2268 
Q 2250 2553 1709 2553 
Q 1456 2553 1204 2497 
Q 953 2441 691 2322 
L 691 4666 
z
" transform="scale(0.015625)"/>
     </defs>
     <use xlink:href="#DejaVuSans-31"/>
     <use xlink:href="#DejaVuSans-33" x="63.623047"/>
     <use xlink:href="#DejaVuSans-35" x="127.246094"/>
    </g>
    <!-- GND -->
    <g style="opacity: 0.5" transform="translate(212.256731 110.051001)scale(0.0579 -0.0579)">
     <defs>
      <path id="DejaVuSans-47" d="M 3809 666 
L 3809 1919 
L 2778 1919 
L 2778 2438 
L 4434 2438 
L 4434 434 
Q 4069 175 3628 42 
Q 3188 -91 2688 -91 
Q 1594 -91 976 548 
Q 359 1188 359 2328 
Q 359 3472 976 4111 
Q 1594 4750 2688 4750 
Q 3144 4750 3555 4637 
Q 3966 4525 4313 4306 
L 4313 3634 
Q 3963 3931 3569 4081 
Q 3175 4231 2741 4231 
Q 1884 4231 1454 3753 
Q 1025 3275 1025 2328 
Q 1025 1384 1454 906 
Q 1884 428 2741 428 
Q 3075 428 3337 486 
Q 3600 544 3809 666 
z
" transform="scale(0.015625)"/>
      <path id="DejaVuSans-4e" d="M 628 4666 
L 1478 4666 
L 3547 763 
L 3547 4666 
L 4159 4666 
L 4159 0 
L 3309 0 
L 1241 3903 
L 1241 0 
L 628 0 
L 628 4666 
z
" transform="scale(0.015625)"/>
     </defs>
     <use xlink:href="#DejaVuSans-47"/>
     <use xlink:href="#DejaVuSans-4e" x="77.490234"/>
     <use xlink:href="#DejaVuSans-44" x="152.294922"/>
    </g>
   </g>
   <g id="text_2">
    <!-- BAD1 -->
    <g style="opacity: 0.5" transform="translate(194.435618 284.440718)scale(0.0579 -0.0579)">
     <defs>
      <path id="DejaVuSans-42" d="M 1259 2228 
L 1259 519 
L 2272 519 
Q 2781 519 3026 730 
Q 3272 941 3272 1375 
Q 3272 1813 3026 2020 
Q 2781 2228 2272 2228 
L 1259 2228 
z
M 1259 4147 
L 1259 2741 
L 2194 2741 
Q 2656 2741 2882 2914 
Q 3109 3088 3109 3444 
Q 3109 3797 2882 3972 
Q 2656 4147 2194 4147 
L 1259 4147 
z
M 628 4666 
L 2241 4666 
Q 2963 4666 3353 4366 
Q 3744 4066 3744 3513 
Q 3744 3084 3544 2831 
Q 3344 2578 2956 2516 
Q 3422 2416 3680 2098 
Q 3938 1781 3938 1306 
Q 3938 681 3513 340 
Q 3088 0 2303 0 
L 628 0 
L 628 4666 
z
" transform="scale(0.015625)"/>
     </defs>
     <use xlink:href="#DejaVuSans-42"/>
     <use xlink:href="#DejaVuSans-41" x="68.603516"/>
     <use xlink:href="#DejaVuSans-44" x="137.011719"/>
     <use xlink:href="#DejaVuSans-31" x="214.013672"/>
    </g>
    <!-- 245 -->
    <g style="opacity: 0.5" transform="translate(196.947483 290.924252)scale(0.0579 -0.0579)">
     <defs>
      <path id="DejaVuSans-32" d="M 1228 531 
L 3431 531 
L 3431 0 
L 469 0 
L 469 531 
Q 828 903 1448 1529 
Q 2069 2156 2228 2338 
Q 2531 2678 2651 2914 
Q 2772 3150 2772 3378 
Q 2772 3750 2511 3984 
Q 2250 4219 1831 4219 
Q 1534 4219 1204 4116 
Q 875 4013 500 3803 
L 500 4441 
Q 881 4594 1212 4672 
Q 1544 4750 1819 4750 
Q 2544 4750 2975 4387 
Q 3406 4025 3406 3419 
Q 3406 3131 3298 2873 
Q 3191 2616 2906 2266 
Q 2828 2175 2409 1742 
Q 1991 1309 1228 531 
z
" transform="scale(0.015625)"/>
      <path id="DejaVuSans-34" d="M 2419 4116 
L 825 1625 
L 2419 1625 
L 2419 4116 
z
M 2253 4666 
L 3047 4666 
L 3047 1625 
L 3713 1625 
L 3713 1100 
L 3047 1100 
L 3047 0 
L 2419 0 
L 2419 1100 
L 313 1100 
L 313 1709 
L 2253 4666 
z
" transform="scale(0.015625)"/>
     </defs>
     <use xlink:href="#DejaVuSans-32"/>
     <use xlink:href="#DejaVuSans-34" x="63.623047"/>
     <use xlink:href="#DejaVuSans-35" x="127.246094"/>
    </g>
    <!-- 145 -->
    <g style="opacity: 0.5" transform="translate(196.947483 297.407785)scale(0.0579 -0.0579)">
     <use xlink:href="#DejaVuSans-31"/>
     <use xlink:href="#DejaVuSans-34" x="63.623047"/>
     <use xlink:href="#DejaVuSans-35" x="127.246094"/>
    </g>
   </g>
   <g id="text_3">
    <!-- KNG1 -->
    <g style="opacity: 0.5" transform="translate(289.337976 139.374359)scale(0.0579 -0.0579)">
     <defs>
      <path id="DejaVuSans-4b" d="M 628 4666 
L 1259 4666 
L 1259 2694 
L 3353 4666 
L 4166 4666 
L 1850 2491 
L 4331 0 
L 3500 0 
L 1259 2247 
L 1259 0 
L 628 0 
L 628 4666 
z
" transform="scale(0.015625)"/>
     </defs>
     <use xlink:href="#DejaVuSans-4b"/>
     <use xlink:href="#DejaVuSans-4e" x="65.576172"/>
     <use xlink:href="#DejaVuSans-47" x="140.380859"/>
     <use xlink:href="#DejaVuSans-31" x="217.871094"/>
    </g>
    <!-- 245 -->
    <g style="opacity: 0.5" transform="translate(291.96157 145.857893)scale(0.0579 -0.0579)">
     <use xlink:href="#DejaVuSans-32"/>
     <use xlink:href="#DejaVuSans-34" x="63.623047"/>
     <use xlink:href="#DejaVuSans-35" x="127.246094"/>
    </g>
    <!-- GND -->
    <g style="opacity: 0.5" transform="translate(290.849257 152.341426)scale(0.0579 -0.0579)">
     <use xlink:href="#DejaVuSans-47"/>
     <use xlink:href="#DejaVuSans-4e" x="77.490234"/>
     <use xlink:href="#DejaVuSans-44" x="152.294922"/>
    </g>
   </g>
   <g id="text_4">
    <!-- KNG4B -->
    <g style="opacity: 0.5" transform="translate(254.20079 108.881688)scale(0.0579 -0.0579)">
     <use xlink:href="#DejaVuSans-4b"/>
     <use xlink:href="#DejaVuSans-4e" x="65.576172"/>
     <use xlink:href="#DejaVuSans-47" x="140.380859"/>
     <use xlink:href="#DejaVuSans-34" x="217.871094"/>
     <use xlink:href="#DejaVuSans-42" x="281.494141"/>
    </g>
    <!-- 175 -->
    <g style="opacity: 0.5" transform="translate(258.810625 115.365222)scale(0.0579 -0.0579)">
     <defs>
      <path id="DejaVuSans-37" d="M 525 4666 
L 3525 4666 
L 3525 4397 
L 1831 0 
L 1172 0 
L 2766 4134 
L 525 4134 
L 525 4666 
z
" transform="scale(0.015625)"/>
     </defs>
     <use xlink:href="#DejaVuSans-31"/>
     <use xlink:href="#DejaVuSans-37" x="63.623047"/>
     <use xlink:href="#DejaVuSans-35" x="127.246094"/>
    </g>
    <!-- GND -->
    <g style="opacity: 0.5" transform="translate(257.698312 121.848755)scale(0.0579 -0.0579)">
     <use xlink:href="#DejaVuSans-47"/>
     <use xlink:href="#DejaVuSans-4e" x="77.490234"/>
     <use xlink:href="#DejaVuSans-44" x="152.294922"/>
    </g>
   </g>
   <g id="text_5">
    <!-- KNG5 -->
    <g style="opacity: 0.5" transform="translate(256.08901 123.630582)scale(0.0579 -0.0579)">
     <use xlink:href="#DejaVuSans-4b"/>
     <use xlink:href="#DejaVuSans-4e" x="65.576172"/>
     <use xlink:href="#DejaVuSans-47" x="140.380859"/>
     <use xlink:href="#DejaVuSans-35" x="217.871094"/>
    </g>
    <!-- 175 -->
    <g style="opacity: 0.5" transform="translate(258.712604 130.114116)scale(0.0579 -0.0579)">
     <use xlink:href="#DejaVuSans-31"/>
     <use xlink:href="#DejaVuSans-37" x="63.623047"/>
     <use xlink:href="#DejaVuSans-35" x="127.246094"/>
    </g>
    <!-- GND -->
    <g style="opacity: 0.5" transform="translate(257.60029 136.597649)scale(0.0579 -0.0579)">
     <use xlink:href="#DejaVuSans-47"/>
     <use xlink:href="#DejaVuSans-4e" x="77.490234"/>
     <use xlink:href="#DejaVuSans-44" x="152.294922"/>
    </g>
   </g>
   <g id="text_6">
    <!-- KNG7 -->
    <g style="opacity: 0.5" transform="translate(264.089168 163.98582)scale(0.0579 -0.0579)">
     <use xlink:href="#DejaVuSans-4b"/>
     <use xlink:href="#DejaVuSans-4e" x="65.576172"/>
     <use xlink:href="#DejaVuSans-47" x="140.380859"/>
     <use xlink:href="#DejaVuSans-37" x="217.871094"/>
    </g>
    <!-- 215 -->
    <g style="opacity: 0.5" transform="translate(266.712761 170.469353)scale(0.0579 -0.0579)">
     <use xlink:href="#DejaVuSans-32"/>
     <use xlink:href="#DejaVuSans-31" x="63.623047"/>
     <use xlink:href="#DejaVuSans-35" x="127.246094"/>
    </g>
    <!-- GND -->
    <g style="opacity: 0.5" transform="translate(265.600448 176.952886)scale(0.0579 -0.0579)">
     <use xlink:href="#DejaVuSans-47"/>
     <use xlink:href="#DejaVuSans-4e" x="77.490234"/>
     <use xlink:href="#DejaVuSans-44" x="152.294922"/>
    </g>
   </g>
   <g id="text_7">
    <!-- LBU1 -->
    <g style="opacity: 0.5" transform="translate(300.6098 216.89727)scale(0.0579 -0.0579)">
     <defs>
      <path id="DejaVuSans-4c" d="M 628 4666 
L 1259 4666 
L 1259 531 
L 3531 531 
L 3531 0 
L 628 0 
L 628 4666 
z
" transform="scale(0.015625)"/>
      <path id="DejaVuSans-55" d="M 556 4666 
L 1191 4666 
L 1191 1831 
Q 1191 1081 1462 751 
Q 1734 422 2344 422 
Q 2950 422 3222 751 
Q 3494 1081 3494 1831 
L 3494 4666 
L 4128 4666 
L 4128 1753 
Q 4128 841 3676 375 
Q 3225 -91 2344 -91 
Q 1459 -91 1007 375 
Q 556 841 556 1753 
L 556 4666 
z
" transform="scale(0.015625)"/>
     </defs>
     <use xlink:href="#DejaVuSans-4c"/>
     <use xlink:href="#DejaVuSans-42" x="55.712891"/>
     <use xlink:href="#DejaVuSans-55" x="124.316406"/>
     <use xlink:href="#DejaVuSans-31" x="197.509766"/>
    </g>
    <!-- 245 -->
    <g style="opacity: 0.5" transform="translate(302.64399 223.380804)scale(0.0579 -0.0579)">
     <use xlink:href="#DejaVuSans-32"/>
     <use xlink:href="#DejaVuSans-34" x="63.623047"/>
     <use xlink:href="#DejaVuSans-35" x="127.246094"/>
    </g>
    <!-- 145 -->
    <g style="opacity: 0.5" transform="translate(302.64399 229.864337)scale(0.0579 -0.0579)">
     <use xlink:href="#DejaVuSans-31"/>
     <use xlink:href="#DejaVuSans-34" x="63.623047"/>
     <use xlink:href="#DejaVuSans-35" x="127.246094"/>
    </g>
   </g>
   <g id="text_8">
    <!-- LFST_TMA -->
    <g style="opacity: 0.5" transform="translate(175.904488 214.754215)scale(0.0579 -0.0579)">
     <defs>
      <path id="DejaVuSans-53" d="M 3425 4513 
L 3425 3897 
Q 3066 4069 2747 4153 
Q 2428 4238 2131 4238 
Q 1616 4238 1336 4038 
Q 1056 3838 1056 3469 
Q 1056 3159 1242 3001 
Q 1428 2844 1947 2747 
L 2328 2669 
Q 3034 2534 3370 2195 
Q 3706 1856 3706 1288 
Q 3706 609 3251 259 
Q 2797 -91 1919 -91 
Q 1588 -91 1214 -16 
Q 841 59 441 206 
L 441 856 
Q 825 641 1194 531 
Q 1563 422 1919 422 
Q 2459 422 2753 634 
Q 3047 847 3047 1241 
Q 3047 1584 2836 1778 
Q 2625 1972 2144 2069 
L 1759 2144 
Q 1053 2284 737 2584 
Q 422 2884 422 3419 
Q 422 4038 858 4394 
Q 1294 4750 2059 4750 
Q 2388 4750 2728 4690 
Q 3069 4631 3425 4513 
z
" transform="scale(0.015625)"/>
      <path id="DejaVuSans-54" d="M -19 4666 
L 3928 4666 
L 3928 4134 
L 2272 4134 
L 2272 0 
L 1638 0 
L 1638 4134 
L -19 4134 
L -19 4666 
z
" transform="scale(0.015625)"/>
      <path id="DejaVuSans-5f" d="M 3263 -1063 
L 3263 -1509 
L -63 -1509 
L -63 -1063 
L 3263 -1063 
z
" transform="scale(0.015625)"/>
      <path id="DejaVuSans-4d" d="M 628 4666 
L 1569 4666 
L 2759 1491 
L 3956 4666 
L 4897 4666 
L 4897 0 
L 4281 0 
L 4281 4097 
L 3078 897 
L 2444 897 
L 1241 4097 
L 1241 0 
L 628 0 
L 628 4666 
z
" transform="scale(0.015625)"/>
     </defs>
     <use xlink:href="#DejaVuSans-4c"/>
     <use xlink:href="#DejaVuSans-46" x="55.712891"/>
     <use xlink:href="#DejaVuSans-53" x="111.482422"/>
     <use xlink:href="#DejaVuSans-54" x="174.958984"/>
     <use xlink:href="#DejaVuSans-5f" x="236.042969"/>
     <use xlink:href="#DejaVuSans-54" x="286.042969"/>
     <use xlink:href="#DejaVuSans-4d" x="347.126953"/>
     <use xlink:href="#DejaVuSans-41" x="433.40625"/>
    </g>
    <!-- 75 -->
    <g style="opacity: 0.5" transform="translate(186.748072 221.398783)scale(0.0579 -0.0579)">
     <use xlink:href="#DejaVuSans-37"/>
     <use xlink:href="#DejaVuSans-35" x="63.623047"/>
    </g>
    <!-- GND -->
    <g style="opacity: 0.5" transform="translate(183.793815 227.882316)scale(0.0579 -0.0579)">
     <use xlink:href="#DejaVuSans-47"/>
     <use xlink:href="#DejaVuSans-4e" x="77.490234"/>
     <use xlink:href="#DejaVuSans-44" x="152.294922"/>
    </g>
   </g>
   <g id="text_9">
    <!-- MAN1 -->
    <g style="opacity: 0.5" transform="translate(227.493373 91.165499)scale(0.0579 -0.0579)">
     <use xlink:href="#DejaVuSans-4d"/>
     <use xlink:href="#DejaVuSans-41" x="86.279297"/>
     <use xlink:href="#DejaVuSans-4e" x="154.6875"/>
     <use xlink:href="#DejaVuSans-31" x="229.492188"/>
    </g>
    <!-- 175 -->
    <g style="opacity: 0.5" transform="translate(230.45351 97.649033)scale(0.0579 -0.0579)">
     <use xlink:href="#DejaVuSans-31"/>
     <use xlink:href="#DejaVuSans-37" x="63.623047"/>
     <use xlink:href="#DejaVuSans-35" x="127.246094"/>
    </g>
    <!-- 135 -->
    <g style="opacity: 0.5" transform="translate(230.45351 104.132566)scale(0.0579 -0.0579)">
     <use xlink:href="#DejaVuSans-31"/>
     <use xlink:href="#DejaVuSans-33" x="63.623047"/>
     <use xlink:href="#DejaVuSans-35" x="127.246094"/>
    </g>
   </g>
   <g id="text_10">
    <!-- MAN3 -->
    <g style="opacity: 0.5" transform="translate(226.931682 77.897052)scale(0.0579 -0.0579)">
     <use xlink:href="#DejaVuSans-4d"/>
     <use xlink:href="#DejaVuSans-41" x="86.279297"/>
     <use xlink:href="#DejaVuSans-4e" x="154.6875"/>
     <use xlink:href="#DejaVuSans-33" x="229.492188"/>
    </g>
    <!-- 245 -->
    <g style="opacity: 0.5" transform="translate(229.891819 84.380585)scale(0.0579 -0.0579)">
     <use xlink:href="#DejaVuSans-32"/>
     <use xlink:href="#DejaVuSans-34" x="63.623047"/>
     <use xlink:href="#DejaVuSans-35" x="127.246094"/>
    </g>
    <!-- 175 -->
    <g style="opacity: 0.5" transform="translate(229.891819 90.864119)scale(0.0579 -0.0579)">
     <use xlink:href="#DejaVuSans-31"/>
     <use xlink:href="#DejaVuSans-37" x="63.623047"/>
     <use xlink:href="#DejaVuSans-35" x="127.246094"/>
    </g>
   </g>
   <g id="text_11">
    <!-- NKRL1 -->
    <g style="opacity: 0.5" transform="translate(212.131463 146.617552)scale(0.0579 -0.0579)">
     <defs>
      <path id="DejaVuSans-52" d="M 2841 2188 
Q 3044 2119 3236 1894 
Q 3428 1669 3622 1275 
L 4263 0 
L 3584 0 
L 2988 1197 
Q 2756 1666 2539 1819 
Q 2322 1972 1947 1972 
L 1259 1972 
L 1259 0 
L 628 0 
L 628 4666 
L 2053 4666 
Q 2853 4666 3247 4331 
Q 3641 3997 3641 3322 
Q 3641 2881 3436 2590 
Q 3231 2300 2841 2188 
z
M 1259 4147 
L 1259 2491 
L 2053 2491 
Q 2509 2491 2742 2702 
Q 2975 2913 2975 3322 
Q 2975 3731 2742 3939 
Q 2509 4147 2053 4147 
L 1259 4147 
z
" transform="scale(0.015625)"/>
     </defs>
     <use xlink:href="#DejaVuSans-4e"/>
     <use xlink:href="#DejaVuSans-4b" x="74.804688"/>
     <use xlink:href="#DejaVuSans-52" x="140.380859"/>
     <use xlink:href="#DejaVuSans-4c" x="209.863281"/>
     <use xlink:href="#DejaVuSans-31" x="265.576172"/>
    </g>
    <!-- 75 -->
    <g style="opacity: 0.5" transform="translate(217.978458 153.101086)scale(0.0579 -0.0579)">
     <use xlink:href="#DejaVuSans-37"/>
     <use xlink:href="#DejaVuSans-35" x="63.623047"/>
    </g>
    <!-- GND -->
    <g style="opacity: 0.5" transform="translate(215.024201 159.584619)scale(0.0579 -0.0579)">
     <use xlink:href="#DejaVuSans-47"/>
     <use xlink:href="#DejaVuSans-4e" x="77.490234"/>
     <use xlink:href="#DejaVuSans-44" x="152.294922"/>
    </g>
   </g>
   <g id="text_12">
    <!-- NKRL2 -->
    <g style="opacity: 0.5" transform="translate(241.899417 145.383642)scale(0.0579 -0.0579)">
     <use xlink:href="#DejaVuSans-4e"/>
     <use xlink:href="#DejaVuSans-4b" x="74.804688"/>
     <use xlink:href="#DejaVuSans-52" x="140.380859"/>
     <use xlink:href="#DejaVuSans-4c" x="209.863281"/>
     <use xlink:href="#DejaVuSans-32" x="265.576172"/>
    </g>
    <!-- 115 -->
    <g style="opacity: 0.5" transform="translate(245.904469 151.867175)scale(0.0579 -0.0579)">
     <use xlink:href="#DejaVuSans-31"/>
     <use xlink:href="#DejaVuSans-31" x="63.623047"/>
     <use xlink:href="#DejaVuSans-35" x="127.246094"/>
    </g>
    <!-- GND -->
    <g style="opacity: 0.5" transform="translate(244.792156 158.350709)scale(0.0579 -0.0579)">
     <use xlink:href="#DejaVuSans-47"/>
     <use xlink:href="#DejaVuSans-4e" x="77.490234"/>
     <use xlink:href="#DejaVuSans-44" x="152.294922"/>
    </g>
   </g>
   <g id="text_13">
    <!-- PFA3 -->
    <g style="opacity: 0.5" transform="translate(188.187603 147.755494)scale(0.0579 -0.0579)">
     <defs>
      <path id="DejaVuSans-50" d="M 1259 4147 
L 1259 2394 
L 2053 2394 
Q 2494 2394 2734 2622 
Q 2975 2850 2975 3272 
Q 2975 3691 2734 3919 
Q 2494 4147 2053 4147 
L 1259 4147 
z
M 628 4666 
L 2053 4666 
Q 2838 4666 3239 4311 
Q 3641 3956 3641 3272 
Q 3641 2581 3239 2228 
Q 2838 1875 2053 1875 
L 1259 1875 
L 1259 0 
L 628 0 
L 628 4666 
z
" transform="scale(0.015625)"/>
     </defs>
     <use xlink:href="#DejaVuSans-50"/>
     <use xlink:href="#DejaVuSans-46" x="60.302734"/>
     <use xlink:href="#DejaVuSans-41" x="108.697266"/>
     <use xlink:href="#DejaVuSans-33" x="177.105469"/>
    </g>
    <!-- 245 -->
    <g style="opacity: 0.5" transform="translate(189.63058 154.239027)scale(0.0579 -0.0579)">
     <use xlink:href="#DejaVuSans-32"/>
     <use xlink:href="#DejaVuSans-34" x="63.623047"/>
     <use xlink:href="#DejaVuSans-35" x="127.246094"/>
    </g>
    <!-- 55 -->
    <g style="opacity: 0.5" transform="translate(191.472523 160.72256)scale(0.0579 -0.0579)">
     <use xlink:href="#DejaVuSans-35"/>
     <use xlink:href="#DejaVuSans-35" x="63.623047"/>
    </g>
   </g>
   <g id="text_14">
    <!-- PFA4 -->
    <g style="opacity: 0.5" transform="translate(180.988635 199.920112)scale(0.0579 -0.0579)">
     <use xlink:href="#DejaVuSans-50"/>
     <use xlink:href="#DejaVuSans-46" x="60.302734"/>
     <use xlink:href="#DejaVuSans-41" x="108.697266"/>
     <use xlink:href="#DejaVuSans-34" x="177.105469"/>
    </g>
    <!-- 245 -->
    <g style="opacity: 0.5" transform="translate(182.431612 206.403646)scale(0.0579 -0.0579)">
     <use xlink:href="#DejaVuSans-32"/>
     <use xlink:href="#DejaVuSans-34" x="63.623047"/>
     <use xlink:href="#DejaVuSans-35" x="127.246094"/>
    </g>
    <!-- 95 -->
    <g style="opacity: 0.5" transform="translate(184.273556 212.887179)scale(0.0579 -0.0579)">
     <defs>
      <path id="DejaVuSans-39" d="M 703 97 
L 703 672 
Q 941 559 1184 500 
Q 1428 441 1663 441 
Q 2288 441 2617 861 
Q 2947 1281 2994 2138 
Q 2813 1869 2534 1725 
Q 2256 1581 1919 1581 
Q 1219 1581 811 2004 
Q 403 2428 403 3163 
Q 403 3881 828 4315 
Q 1253 4750 1959 4750 
Q 2769 4750 3195 4129 
Q 3622 3509 3622 2328 
Q 3622 1225 3098 567 
Q 2575 -91 1691 -91 
Q 1453 -91 1209 -44 
Q 966 3 703 97 
z
M 1959 2075 
Q 2384 2075 2632 2365 
Q 2881 2656 2881 3163 
Q 2881 3666 2632 3958 
Q 2384 4250 1959 4250 
Q 1534 4250 1286 3958 
Q 1038 3666 1038 3163 
Q 1038 2656 1286 2365 
Q 1534 2075 1959 2075 
z
" transform="scale(0.015625)"/>
     </defs>
     <use xlink:href="#DejaVuSans-39"/>
     <use xlink:href="#DejaVuSans-35" x="63.623047"/>
    </g>
   </g>
   <g id="text_15">
    <!-- STG1 -->
    <g style="opacity: 0.5" transform="translate(277.331048 222.535119)scale(0.0579 -0.0579)">
     <use xlink:href="#DejaVuSans-53"/>
     <use xlink:href="#DejaVuSans-54" x="63.476562"/>
     <use xlink:href="#DejaVuSans-47" x="124.560547"/>
     <use xlink:href="#DejaVuSans-31" x="202.050781"/>
    </g>
    <!-- 145 -->
    <g style="opacity: 0.5" transform="translate(279.496417 229.018652)scale(0.0579 -0.0579)">
     <use xlink:href="#DejaVuSans-31"/>
     <use xlink:href="#DejaVuSans-34" x="63.623047"/>
     <use xlink:href="#DejaVuSans-35" x="127.246094"/>
    </g>
    <!-- GND -->
    <g style="opacity: 0.5" transform="translate(278.384104 235.502186)scale(0.0579 -0.0579)">
     <use xlink:href="#DejaVuSans-47"/>
     <use xlink:href="#DejaVuSans-4e" x="77.490234"/>
     <use xlink:href="#DejaVuSans-44" x="152.294922"/>
    </g>
   </g>
   <g id="text_16">
    <!-- STG3 -->
    <g style="opacity: 0.5" transform="translate(193.594529 215.367465)scale(0.0579 -0.0579)">
     <use xlink:href="#DejaVuSans-53"/>
     <use xlink:href="#DejaVuSans-54" x="63.476562"/>
     <use xlink:href="#DejaVuSans-47" x="124.560547"/>
     <use xlink:href="#DejaVuSans-33" x="202.050781"/>
    </g>
    <!-- 145 -->
    <g style="opacity: 0.5" transform="translate(195.759899 221.850999)scale(0.0579 -0.0579)">
     <use xlink:href="#DejaVuSans-31"/>
     <use xlink:href="#DejaVuSans-34" x="63.623047"/>
     <use xlink:href="#DejaVuSans-35" x="127.246094"/>
    </g>
    <!-- 75 -->
    <g style="opacity: 0.5" transform="translate(197.601843 228.334532)scale(0.0579 -0.0579)">
     <use xlink:href="#DejaVuSans-37"/>
     <use xlink:href="#DejaVuSans-35" x="63.623047"/>
    </g>
   </g>
   <g id="text_17">
    <!-- NKRH1 -->
    <g transform="translate(211.56739 146.617552)scale(0.0579 -0.0579)">
     <defs>
      <path id="DejaVuSans-48" d="M 628 4666 
L 1259 4666 
L 1259 2753 
L 3553 2753 
L 3553 4666 
L 4184 4666 
L 4184 0 
L 3553 0 
L 3553 2222 
L 1259 2222 
L 1259 0 
L 628 0 
L 628 4666 
z
" transform="scale(0.015625)"/>
     </defs>
     <use xlink:href="#DejaVuSans-4e"/>
     <use xlink:href="#DejaVuSans-4b" x="74.804688"/>
     <use xlink:href="#DejaVuSans-52" x="140.380859"/>
     <use xlink:href="#DejaVuSans-48" x="209.863281"/>
     <use xlink:href="#DejaVuSans-31" x="285.058594"/>
    </g>
    <!-- 245 -->
    <g transform="translate(216.136514 153.101086)scale(0.0579 -0.0579)">
     <use xlink:href="#DejaVuSans-32"/>
     <use xlink:href="#DejaVuSans-34" x="63.623047"/>
     <use xlink:href="#DejaVuSans-35" x="127.246094"/>
    </g>
    <!-- 75 -->
    <g transform="translate(217.978458 159.584619)scale(0.0579 -0.0579)">
     <use xlink:href="#DejaVuSans-37"/>
     <use xlink:href="#DejaVuSans-35" x="63.623047"/>
    </g>
   </g>
   <g id="text_18">
    <!-- NKRH2 -->
    <g transform="translate(219.967542 204.378612)scale(0.0579 -0.0579)">
     <use xlink:href="#DejaVuSans-4e"/>
     <use xlink:href="#DejaVuSans-4b" x="74.804688"/>
     <use xlink:href="#DejaVuSans-52" x="140.380859"/>
     <use xlink:href="#DejaVuSans-48" x="209.863281"/>
     <use xlink:href="#DejaVuSans-32" x="285.058594"/>
    </g>
    <!-- 245 -->
    <g transform="translate(224.536666 210.862146)scale(0.0579 -0.0579)">
     <use xlink:href="#DejaVuSans-32"/>
     <use xlink:href="#DejaVuSans-34" x="63.623047"/>
     <use xlink:href="#DejaVuSans-35" x="127.246094"/>
    </g>
    <!-- 145 -->
    <g transform="translate(224.536666 217.345679)scale(0.0579 -0.0579)">
     <use xlink:href="#DejaVuSans-31"/>
     <use xlink:href="#DejaVuSans-34" x="63.623047"/>
     <use xlink:href="#DejaVuSans-35" x="127.246094"/>
    </g>
   </g>
   <g id="text_19">
    <!-- NKRH3 -->
    <g transform="translate(254.143479 123.630582)scale(0.0579 -0.0579)">
     <use xlink:href="#DejaVuSans-4e"/>
     <use xlink:href="#DejaVuSans-4b" x="74.804688"/>
     <use xlink:href="#DejaVuSans-52" x="140.380859"/>
     <use xlink:href="#DejaVuSans-48" x="209.863281"/>
     <use xlink:href="#DejaVuSans-33" x="285.058594"/>
    </g>
    <!-- 245 -->
    <g transform="translate(258.712604 130.114116)scale(0.0579 -0.0579)">
     <use xlink:href="#DejaVuSans-32"/>
     <use xlink:href="#DejaVuSans-34" x="63.623047"/>
     <use xlink:href="#DejaVuSans-35" x="127.246094"/>
    </g>
    <!-- 175 -->
    <g transform="translate(258.712604 136.597649)scale(0.0579 -0.0579)">
     <use xlink:href="#DejaVuSans-31"/>
     <use xlink:href="#DejaVuSans-37" x="63.623047"/>
     <use xlink:href="#DejaVuSans-35" x="127.246094"/>
    </g>
   </g>
   <g id="text_20">
    <!-- NKRH4 -->
    <g transform="translate(262.143637 163.98582)scale(0.0579 -0.0579)">
     <use xlink:href="#DejaVuSans-4e"/>
     <use xlink:href="#DejaVuSans-4b" x="74.804688"/>
     <use xlink:href="#DejaVuSans-52" x="140.380859"/>
     <use xlink:href="#DejaVuSans-48" x="209.863281"/>
     <use xlink:href="#DejaVuSans-34" x="285.058594"/>
    </g>
    <!-- 245 -->
    <g transform="translate(266.712761 170.469353)scale(0.0579 -0.0579)">
     <use xlink:href="#DejaVuSans-32"/>
     <use xlink:href="#DejaVuSans-34" x="63.623047"/>
     <use xlink:href="#DejaVuSans-35" x="127.246094"/>
    </g>
    <!-- 215 -->
    <g transform="translate(266.712761 176.952886)scale(0.0579 -0.0579)">
     <use xlink:href="#DejaVuSans-32"/>
     <use xlink:href="#DejaVuSans-31" x="63.623047"/>
     <use xlink:href="#DejaVuSans-35" x="127.246094"/>
    </g>
   </g>
   <g id="text_21">
    <!-- NKRH5 -->
    <g transform="translate(241.335345 145.383642)scale(0.0579 -0.0579)">
     <use xlink:href="#DejaVuSans-4e"/>
     <use xlink:href="#DejaVuSans-4b" x="74.804688"/>
     <use xlink:href="#DejaVuSans-52" x="140.380859"/>
     <use xlink:href="#DejaVuSans-48" x="209.863281"/>
     <use xlink:href="#DejaVuSans-35" x="285.058594"/>
    </g>
    <!-- 245 -->
    <g transform="translate(245.904469 151.867175)scale(0.0579 -0.0579)">
     <use xlink:href="#DejaVuSans-32"/>
     <use xlink:href="#DejaVuSans-34" x="63.623047"/>
     <use xlink:href="#DejaVuSans-35" x="127.246094"/>
    </g>
    <!-- 115 -->
    <g transform="translate(245.904469 158.350709)scale(0.0579 -0.0579)">
     <use xlink:href="#DejaVuSans-31"/>
     <use xlink:href="#DejaVuSans-31" x="63.623047"/>
     <use xlink:href="#DejaVuSans-35" x="127.246094"/>
    </g>
   </g>
  </g>
 </g>
 <defs>
  <clipPath id="pd5b38ab981">
   <rect x="143.37259" y="41.472" width="185.57482" height="266.112"/>
  </clipPath>
 </defs>
</svg>
