<?xml version="1.0" encoding="utf-8" standalone="no"?>
<!DOCTYPE svg PUBLIC "-//W3C//DTD SVG 1.1//EN"
  "http://www.w3.org/Graphics/SVG/1.1/DTD/svg11.dtd">
<svg xmlns:xlink="http://www.w3.org/1999/xlink" width="460.8pt" height="345.6pt" viewBox="0 0 460.8 345.6" xmlns="http://www.w3.org/2000/svg" version="1.1">
 <metadata>
  <rdf:RDF xmlns:dc="http://purl.org/dc/elements/1.1/" xmlns:cc="http://creativecommons.org/ns#" xmlns:rdf="http://www.w3.org/1999/02/22-rdf-syntax-ns#">
   <cc:Work>
    <dc:type rdf:resource="http://purl.org/dc/dcmitype/StillImage"/>
    <dc:date>2022-04-26T00:23:34.388615</dc:date>
    <dc:format>image/svg+xml</dc:format>
    <dc:creator>
     <cc:Agent>
      <dc:title>Matplotlib v3.5.0, https://matplotlib.org/</dc:title>
     </cc:Agent>
    </dc:creator>
   </cc:Work>
  </rdf:RDF>
 </metadata>
 <defs>
  <style type="text/css">*{stroke-linejoin: round; stroke-linecap: butt}</style>
 </defs>
 <g id="figure_1">
  <g id="patch_1">
   <path d="M 0 345.6 
L 460.8 345.6 
L 460.8 0 
L 0 0 
z
" style="fill: #ffffff"/>
  </g>
  <g id="axes_1">
   <g id="patch_2">
    <path d="M 259.81388 119.223686 
L 257.037536 149.851337 
L 249.652054 233.9529 
L 199.624165 232.819427 
L 207.7974 126.19115 
L 206.02137 124.157261 
L 214.482641 123.35523 
z
" clip-path="url(#p305aac977b)" style="fill: #ffedd9; stroke: #ffedd9; stroke-linejoin: miter"/>
   </g>
   <g id="patch_3">
    <path d="M 288.886551 114.048 
L 303.199734 148.137364 
L 309.194687 162.364673 
L 307.737327 181.128292 
L 303.986368 230.048812 
L 295.107964 235.008 
L 249.652054 233.9529 
L 257.037536 149.851337 
L 259.81388 119.223686 
z
" clip-path="url(#p305aac977b)" style="fill: #ffedd9; stroke: #ffedd9; stroke-linejoin: miter"/>
   </g>
   <g id="patch_4">
    <path d="M 206.02137 124.157261 
L 207.7974 126.19115 
L 199.624165 232.819427 
L 190.946381 232.657301 
L 167.230075 197.986091 
L 167.023051 151.647345 
L 163.125313 128.078414 
z
" clip-path="url(#p305aac977b)" style="fill: #ffedd9; stroke: #ffedd9; stroke-linejoin: miter"/>
   </g>
   <g id="patch_5">
    <path d="M 259.81388 119.223686 
L 257.037536 149.851337 
L 249.652054 233.9529 
L 199.624165 232.819427 
L 207.7974 126.19115 
L 206.02137 124.157261 
L 214.482641 123.35523 
L 259.81388 119.223686 
z
" clip-path="url(#p305aac977b)" style="fill: #ffedd9; stroke: #ffedd9; stroke-linejoin: miter"/>
   </g>
   <g id="patch_6">
    <path d="M 288.886551 114.048 
L 303.199734 148.137364 
L 309.194687 162.364673 
L 307.737327 181.128292 
L 303.986368 230.048812 
L 295.107964 235.008 
L 249.652054 233.9529 
L 257.037536 149.851337 
L 259.81388 119.223686 
L 288.886551 114.048 
z
" clip-path="url(#p305aac977b)" style="fill: #ffedd9; stroke: #ffedd9; stroke-linejoin: miter"/>
   </g>
   <g id="patch_7">
    <path d="M 206.02137 124.157261 
L 207.7974 126.19115 
L 199.624165 232.819427 
L 190.946381 232.657301 
L 167.230075 197.986091 
L 167.023051 151.647345 
L 163.125313 128.078414 
L 206.02137 124.157261 
z
" clip-path="url(#p305aac977b)" style="fill: #ffedd9; stroke: #ffedd9; stroke-linejoin: miter"/>
   </g>
   <g id="line2d_1">
    <path d="M 259.81388 119.223686 
L 257.037536 149.851337 
L 249.652054 233.9529 
L 199.624165 232.819427 
L 207.7974 126.19115 
L 206.02137 124.157261 
L 214.482641 123.35523 
L 259.81388 119.223686 
" clip-path="url(#p305aac977b)" style="fill: none; stroke: #ffc380; stroke-width: 0.5; stroke-linecap: square"/>
   </g>
   <g id="line2d_2">
    <path d="M 288.886551 114.048 
L 303.199734 148.137364 
L 309.194687 162.364673 
L 307.737327 181.128292 
L 303.986368 230.048812 
L 295.107964 235.008 
L 249.652054 233.9529 
L 257.037536 149.851337 
L 259.81388 119.223686 
L 288.886551 114.048 
" clip-path="url(#p305aac977b)" style="fill: none; stroke: #ffc380; stroke-width: 0.5; stroke-linecap: square"/>
   </g>
   <g id="line2d_3">
    <path d="M 206.02137 124.157261 
L 207.7974 126.19115 
L 199.624165 232.819427 
L 190.946381 232.657301 
L 167.230075 197.986091 
L 167.023051 151.647345 
L 163.125313 128.078414 
L 206.02137 124.157261 
" clip-path="url(#p305aac977b)" style="fill: none; stroke: #ffc380; stroke-width: 0.5; stroke-linecap: square"/>
   </g>
   <g id="line2d_4">
    <path d="M 125.871755 107.319214 
L 187.503825 83.772622 
L 213.456221 73.955744 
L 250.862679 59.682967 
L 324.324455 100.591306 
L 316.354655 109.165964 
L 313.059695 109.760617 
L 288.886551 114.048 
L 259.81388 119.223686 
L 214.482641 123.35523 
L 206.02137 124.157261 
L 163.125313 128.078414 
L 125.871755 107.319214 
" clip-path="url(#p305aac977b)" style="fill: none; stroke: #8f8f8f; stroke-width: 0.2; stroke-linecap: square"/>
   </g>
   <g id="line2d_5">
    <path d="M 376.628114 102.920329 
L 386.026575 110.088361 
L 404.914954 148.532713 
L 369.062799 221.674647 
L 324.348694 226.067952 
L 307.737327 181.128292 
L 309.194687 162.364673 
L 312.732357 117.398813 
L 313.059695 109.760617 
L 316.354655 109.165964 
L 329.312315 106.849914 
L 339.604201 105.996831 
L 376.628114 102.920329 
" clip-path="url(#p305aac977b)" style="fill: none; stroke: #8f8f8f; stroke-width: 0.2; stroke-linecap: square"/>
   </g>
   <g id="line2d_6">
    <path d="M 288.886551 114.048 
L 312.732357 117.398813 
L 309.194687 162.364673 
L 303.199734 148.137364 
L 288.886551 114.048 
" clip-path="url(#p305aac977b)" style="fill: none; stroke: #8f8f8f; stroke-width: 0.2; stroke-linecap: square"/>
   </g>
   <g id="line2d_7">
    <path d="M 307.737327 181.128292 
L 324.348694 226.067952 
L 308.268633 227.671191 
L 303.986368 230.048812 
L 307.737327 181.128292 
" clip-path="url(#p305aac977b)" style="fill: none; stroke: #8f8f8f; stroke-width: 0.2; stroke-linecap: square"/>
   </g>
   <g id="line2d_8">
    <path d="M -1 125.516962 
L 22.814381 118.433125 
L 59.845642 117.366599 
L 163.125313 128.078414 
L 167.023051 151.647345 
L 167.230075 197.986091 
L 190.946381 232.657301 
L 172.681552 270.207531 
L 147.257932 290.701499 
L 144.801224 286.931356 
L 140.225791 285.828235 
L 139.82294 285.184341 
L 138.867984 285.504864 
L 138.489261 284.325269 
L 135.793829 283.35837 
L 132.733749 283.969777 
L 128.053146 276.697271 
L 125.897684 276.469998 
L 122.524292 280.295857 
L 115.240062 282.104148 
L 110.039814 279.091921 
L 103.386101 274.699682 
L 93.568462 279.386809 
L 77.372797 276.904664 
L 77.344106 271.995007 
L 60.818937 265.328445 
L 54.547529 255.896434 
L 57.441761 252.040721 
L 55.251926 249.543476 
L 47.68922 245.467277 
L 35.038206 248.148741 
L 34.274796 254.850424 
L 23.184188 261.786118 
L 1.752258 260.346887 
L -1 257.529357 
" clip-path="url(#p305aac977b)" style="fill: none; stroke: #8f8f8f; stroke-width: 0.2; stroke-linecap: square"/>
   </g>
   <g id="line2d_9">
    <path d="M 369.062799 221.674647 
L 422.871193 258.691871 
L 441.394221 273.033423 
L 461.8 288.864525 
M 461.8 307.312861 
L 423.526494 333.80612 
L 413.536721 340.718496 
L 395.077195 346.6 
M 215.757643 346.6 
L 206.556942 339.573544 
L 206.840342 310.94784 
L 207.887697 291.041503 
L 196.6587 271.815872 
L 199.624165 232.819427 
L 249.652054 233.9529 
L 295.107964 235.008 
L 303.986368 230.048812 
L 308.268633 227.671191 
L 324.348694 226.067952 
L 369.062799 221.674647 
" clip-path="url(#p305aac977b)" style="fill: none; stroke: #8f8f8f; stroke-width: 0.2; stroke-linecap: square"/>
   </g>
   <g id="line2d_10">
    <path d="M 190.946381 232.657301 
L 199.624165 232.819427 
L 196.6587 271.815872 
L 172.681552 270.207531 
L 190.946381 232.657301 
" clip-path="url(#p305aac977b)" style="fill: none; stroke: #8f8f8f; stroke-width: 0.2; stroke-linecap: square"/>
   </g>
   <g id="line2d_11">
    <path d="M 259.81388 119.223686 
L 257.037536 149.851337 
L 249.652054 233.9529 
L 199.624165 232.819427 
L 207.7974 126.19115 
L 206.02137 124.157261 
L 214.482641 123.35523 
L 259.81388 119.223686 
L 259.81388 119.223686 
" clip-path="url(#p305aac977b)" style="fill: none; stroke: #ffc380; stroke-width: 0.5; stroke-linecap: square"/>
   </g>
   <g id="line2d_12">
    <path d="M 288.886551 114.048 
L 303.199734 148.137364 
L 309.194687 162.364673 
L 307.737327 181.128292 
L 303.986368 230.048812 
L 295.107964 235.008 
L 249.652054 233.9529 
L 257.037536 149.851337 
L 259.81388 119.223686 
L 288.886551 114.048 
L 288.886551 114.048 
" clip-path="url(#p305aac977b)" style="fill: none; stroke: #ffc380; stroke-width: 0.5; stroke-linecap: square"/>
   </g>
   <g id="line2d_13">
    <path d="M 206.02137 124.157261 
L 207.7974 126.19115 
L 199.624165 232.819427 
L 190.946381 232.657301 
L 167.230075 197.986091 
L 167.023051 151.647345 
L 163.125313 128.078414 
L 206.02137 124.157261 
L 206.02137 124.157261 
" clip-path="url(#p305aac977b)" style="fill: none; stroke: #ffc380; stroke-width: 0.5; stroke-linecap: square"/>
   </g>
   <g id="text_1">
    <!-- ADF18 -->
    <g style="opacity: 0.5" transform="translate(215.539629 88.994835)scale(0.0579 -0.0579)">
     <defs>
      <path id="DejaVuSans-41" d="M 2188 4044 
L 1331 1722 
L 3047 1722 
L 2188 4044 
z
M 1831 4666 
L 2547 4666 
L 4325 0 
L 3669 0 
L 3244 1197 
L 1141 1197 
L 716 0 
L 50 0 
L 1831 4666 
z
" transform="scale(0.015625)"/>
      <path id="DejaVuSans-44" d="M 1259 4147 
L 1259 519 
L 2022 519 
Q 2988 519 3436 956 
Q 3884 1394 3884 2338 
Q 3884 3275 3436 3711 
Q 2988 4147 2022 4147 
L 1259 4147 
z
M 628 4666 
L 1925 4666 
Q 3281 4666 3915 4102 
Q 4550 3538 4550 2338 
Q 4550 1131 3912 565 
Q 3275 0 1925 0 
L 628 0 
L 628 4666 
z
" transform="scale(0.015625)"/>
      <path id="DejaVuSans-46" d="M 628 4666 
L 3309 4666 
L 3309 4134 
L 1259 4134 
L 1259 2759 
L 3109 2759 
L 3109 2228 
L 1259 2228 
L 1259 0 
L 628 0 
L 628 4666 
z
" transform="scale(0.015625)"/>
      <path id="DejaVuSans-31" d="M 794 531 
L 1825 531 
L 1825 4091 
L 703 3866 
L 703 4441 
L 1819 4666 
L 2450 4666 
L 2450 531 
L 3481 531 
L 3481 0 
L 794 0 
L 794 531 
z
" transform="scale(0.015625)"/>
      <path id="DejaVuSans-38" d="M 2034 2216 
Q 1584 2216 1326 1975 
Q 1069 1734 1069 1313 
Q 1069 891 1326 650 
Q 1584 409 2034 409 
Q 2484 409 2743 651 
Q 3003 894 3003 1313 
Q 3003 1734 2745 1975 
Q 2488 2216 2034 2216 
z
M 1403 2484 
Q 997 2584 770 2862 
Q 544 3141 544 3541 
Q 544 4100 942 4425 
Q 1341 4750 2034 4750 
Q 2731 4750 3128 4425 
Q 3525 4100 3525 3541 
Q 3525 3141 3298 2862 
Q 3072 2584 2669 2484 
Q 3125 2378 3379 2068 
Q 3634 1759 3634 1313 
Q 3634 634 3220 271 
Q 2806 -91 2034 -91 
Q 1263 -91 848 271 
Q 434 634 434 1313 
Q 434 1759 690 2068 
Q 947 2378 1403 2484 
z
M 1172 3481 
Q 1172 3119 1398 2916 
Q 1625 2713 2034 2713 
Q 2441 2713 2670 2916 
Q 2900 3119 2900 3481 
Q 2900 3844 2670 4047 
Q 2441 4250 2034 4250 
Q 1625 4250 1398 4047 
Q 1172 3844 1172 3481 
z
" transform="scale(0.015625)"/>
     </defs>
     <use xlink:href="#DejaVuSans-41"/>
     <use xlink:href="#DejaVuSans-44" x="68.408203"/>
     <use xlink:href="#DejaVuSans-46" x="145.410156"/>
     <use xlink:href="#DejaVuSans-31" x="202.929688"/>
     <use xlink:href="#DejaVuSans-38" x="266.552734"/>
    </g>
    <!-- 135 -->
    <g style="opacity: 0.5" transform="translate(219.572274 95.478368)scale(0.0579 -0.0579)">
     <defs>
      <path id="DejaVuSans-33" d="M 2597 2516 
Q 3050 2419 3304 2112 
Q 3559 1806 3559 1356 
Q 3559 666 3084 287 
Q 2609 -91 1734 -91 
Q 1441 -91 1130 -33 
Q 819 25 488 141 
L 488 750 
Q 750 597 1062 519 
Q 1375 441 1716 441 
Q 2309 441 2620 675 
Q 2931 909 2931 1356 
Q 2931 1769 2642 2001 
Q 2353 2234 1838 2234 
L 1294 2234 
L 1294 2753 
L 1863 2753 
Q 2328 2753 2575 2939 
Q 2822 3125 2822 3475 
Q 2822 3834 2567 4026 
Q 2313 4219 1838 4219 
Q 1578 4219 1281 4162 
Q 984 4106 628 3988 
L 628 4550 
Q 988 4650 1302 4700 
Q 1616 4750 1894 4750 
Q 2613 4750 3031 4423 
Q 3450 4097 3450 3541 
Q 3450 3153 3228 2886 
Q 3006 2619 2597 2516 
z
" transform="scale(0.015625)"/>
      <path id="DejaVuSans-35" d="M 691 4666 
L 3169 4666 
L 3169 4134 
L 1269 4134 
L 1269 2991 
Q 1406 3038 1543 3061 
Q 1681 3084 1819 3084 
Q 2600 3084 3056 2656 
Q 3513 2228 3513 1497 
Q 3513 744 3044 326 
Q 2575 -91 1722 -91 
Q 1428 -91 1123 -41 
Q 819 9 494 109 
L 494 744 
Q 775 591 1075 516 
Q 1375 441 1709 441 
Q 2250 441 2565 725 
Q 2881 1009 2881 1497 
Q 2881 1984 2565 2268 
Q 2250 2553 1709 2553 
Q 1456 2553 1204 2497 
Q 953 2441 691 2322 
L 691 4666 
z
" transform="scale(0.015625)"/>
     </defs>
     <use xlink:href="#DejaVuSans-31"/>
     <use xlink:href="#DejaVuSans-33" x="63.623047"/>
     <use xlink:href="#DejaVuSans-35" x="127.246094"/>
    </g>
    <!-- GND -->
    <g style="opacity: 0.5" transform="translate(218.45996 101.961902)scale(0.0579 -0.0579)">
     <defs>
      <path id="DejaVuSans-47" d="M 3809 666 
L 3809 1919 
L 2778 1919 
L 2778 2438 
L 4434 2438 
L 4434 434 
Q 4069 175 3628 42 
Q 3188 -91 2688 -91 
Q 1594 -91 976 548 
Q 359 1188 359 2328 
Q 359 3472 976 4111 
Q 1594 4750 2688 4750 
Q 3144 4750 3555 4637 
Q 3966 4525 4313 4306 
L 4313 3634 
Q 3963 3931 3569 4081 
Q 3175 4231 2741 4231 
Q 1884 4231 1454 3753 
Q 1025 3275 1025 2328 
Q 1025 1384 1454 906 
Q 1884 428 2741 428 
Q 3075 428 3337 486 
Q 3600 544 3809 666 
z
" transform="scale(0.015625)"/>
      <path id="DejaVuSans-4e" d="M 628 4666 
L 1478 4666 
L 3547 763 
L 3547 4666 
L 4159 4666 
L 4159 0 
L 3309 0 
L 1241 3903 
L 1241 0 
L 628 0 
L 628 4666 
z
" transform="scale(0.015625)"/>
     </defs>
     <use xlink:href="#DejaVuSans-47"/>
     <use xlink:href="#DejaVuSans-4e" x="77.490234"/>
     <use xlink:href="#DejaVuSans-44" x="152.294922"/>
    </g>
   </g>
   <g id="text_2">
    <!-- KNG1 -->
    <g style="opacity: 0.5" transform="translate(348.176715 159.608285)scale(0.0579 -0.0579)">
     <defs>
      <path id="DejaVuSans-4b" d="M 628 4666 
L 1259 4666 
L 1259 2694 
L 3353 4666 
L 4166 4666 
L 1850 2491 
L 4331 0 
L 3500 0 
L 1259 2247 
L 1259 0 
L 628 0 
L 628 4666 
z
" transform="scale(0.015625)"/>
     </defs>
     <use xlink:href="#DejaVuSans-4b"/>
     <use xlink:href="#DejaVuSans-4e" x="65.576172"/>
     <use xlink:href="#DejaVuSans-47" x="140.380859"/>
     <use xlink:href="#DejaVuSans-31" x="217.871094"/>
    </g>
    <!-- 245 -->
    <g style="opacity: 0.5" transform="translate(350.800309 166.091819)scale(0.0579 -0.0579)">
     <defs>
      <path id="DejaVuSans-32" d="M 1228 531 
L 3431 531 
L 3431 0 
L 469 0 
L 469 531 
Q 828 903 1448 1529 
Q 2069 2156 2228 2338 
Q 2531 2678 2651 2914 
Q 2772 3150 2772 3378 
Q 2772 3750 2511 3984 
Q 2250 4219 1831 4219 
Q 1534 4219 1204 4116 
Q 875 4013 500 3803 
L 500 4441 
Q 881 4594 1212 4672 
Q 1544 4750 1819 4750 
Q 2544 4750 2975 4387 
Q 3406 4025 3406 3419 
Q 3406 3131 3298 2873 
Q 3191 2616 2906 2266 
Q 2828 2175 2409 1742 
Q 1991 1309 1228 531 
z
" transform="scale(0.015625)"/>
      <path id="DejaVuSans-34" d="M 2419 4116 
L 825 1625 
L 2419 1625 
L 2419 4116 
z
M 2253 4666 
L 3047 4666 
L 3047 1625 
L 3713 1625 
L 3713 1100 
L 3047 1100 
L 3047 0 
L 2419 0 
L 2419 1100 
L 313 1100 
L 313 1709 
L 2253 4666 
z
" transform="scale(0.015625)"/>
     </defs>
     <use xlink:href="#DejaVuSans-32"/>
     <use xlink:href="#DejaVuSans-34" x="63.623047"/>
     <use xlink:href="#DejaVuSans-35" x="127.246094"/>
    </g>
    <!-- GND -->
    <g style="opacity: 0.5" transform="translate(349.687996 172.575352)scale(0.0579 -0.0579)">
     <use xlink:href="#DejaVuSans-47"/>
     <use xlink:href="#DejaVuSans-4e" x="77.490234"/>
     <use xlink:href="#DejaVuSans-44" x="152.294922"/>
    </g>
   </g>
   <g id="text_3">
    <!-- KNG5 -->
    <g style="opacity: 0.5" transform="translate(292.660029 133.320481)scale(0.0579 -0.0579)">
     <use xlink:href="#DejaVuSans-4b"/>
     <use xlink:href="#DejaVuSans-4e" x="65.576172"/>
     <use xlink:href="#DejaVuSans-47" x="140.380859"/>
     <use xlink:href="#DejaVuSans-35" x="217.871094"/>
    </g>
    <!-- 175 -->
    <g style="opacity: 0.5" transform="translate(295.283623 139.804014)scale(0.0579 -0.0579)">
     <defs>
      <path id="DejaVuSans-37" d="M 525 4666 
L 3525 4666 
L 3525 4397 
L 1831 0 
L 1172 0 
L 2766 4134 
L 525 4134 
L 525 4666 
z
" transform="scale(0.015625)"/>
     </defs>
     <use xlink:href="#DejaVuSans-31"/>
     <use xlink:href="#DejaVuSans-37" x="63.623047"/>
     <use xlink:href="#DejaVuSans-35" x="127.246094"/>
    </g>
    <!-- GND -->
    <g style="opacity: 0.5" transform="translate(294.17131 146.287548)scale(0.0579 -0.0579)">
     <use xlink:href="#DejaVuSans-47"/>
     <use xlink:href="#DejaVuSans-4e" x="77.490234"/>
     <use xlink:href="#DejaVuSans-44" x="152.294922"/>
    </g>
   </g>
   <g id="text_4">
    <!-- KNG7 -->
    <g style="opacity: 0.5" transform="translate(306.018106 200.702697)scale(0.0579 -0.0579)">
     <use xlink:href="#DejaVuSans-4b"/>
     <use xlink:href="#DejaVuSans-4e" x="65.576172"/>
     <use xlink:href="#DejaVuSans-47" x="140.380859"/>
     <use xlink:href="#DejaVuSans-37" x="217.871094"/>
    </g>
    <!-- 215 -->
    <g style="opacity: 0.5" transform="translate(308.6417 207.18623)scale(0.0579 -0.0579)">
     <use xlink:href="#DejaVuSans-32"/>
     <use xlink:href="#DejaVuSans-31" x="63.623047"/>
     <use xlink:href="#DejaVuSans-35" x="127.246094"/>
    </g>
    <!-- GND -->
    <g style="opacity: 0.5" transform="translate(307.529387 213.669764)scale(0.0579 -0.0579)">
     <use xlink:href="#DejaVuSans-47"/>
     <use xlink:href="#DejaVuSans-4e" x="77.490234"/>
     <use xlink:href="#DejaVuSans-44" x="152.294922"/>
    </g>
   </g>
   <g id="text_5">
    <!-- PFA1 -->
    <g style="opacity: 0.5" transform="translate(41.566378 199.148193)scale(0.0579 -0.0579)">
     <defs>
      <path id="DejaVuSans-50" d="M 1259 4147 
L 1259 2394 
L 2053 2394 
Q 2494 2394 2734 2622 
Q 2975 2850 2975 3272 
Q 2975 3691 2734 3919 
Q 2494 4147 2053 4147 
L 1259 4147 
z
M 628 4666 
L 2053 4666 
Q 2838 4666 3239 4311 
Q 3641 3956 3641 3272 
Q 3641 2581 3239 2228 
Q 2838 1875 2053 1875 
L 1259 1875 
L 1259 0 
L 628 0 
L 628 4666 
z
" transform="scale(0.015625)"/>
     </defs>
     <use xlink:href="#DejaVuSans-50"/>
     <use xlink:href="#DejaVuSans-46" x="60.302734"/>
     <use xlink:href="#DejaVuSans-41" x="108.697266"/>
     <use xlink:href="#DejaVuSans-31" x="177.105469"/>
    </g>
    <!-- 245 -->
    <g style="opacity: 0.5" transform="translate(43.009354 205.631727)scale(0.0579 -0.0579)">
     <use xlink:href="#DejaVuSans-32"/>
     <use xlink:href="#DejaVuSans-34" x="63.623047"/>
     <use xlink:href="#DejaVuSans-35" x="127.246094"/>
    </g>
    <!-- GND -->
    <g style="opacity: 0.5" transform="translate(41.897041 212.11526)scale(0.0579 -0.0579)">
     <use xlink:href="#DejaVuSans-47"/>
     <use xlink:href="#DejaVuSans-4e" x="77.490234"/>
     <use xlink:href="#DejaVuSans-44" x="152.294922"/>
    </g>
   </g>
   <g id="text_6">
    <!-- STG1 -->
    <g style="opacity: 0.5" transform="translate(327.821542 298.464023)scale(0.0579 -0.0579)">
     <defs>
      <path id="DejaVuSans-53" d="M 3425 4513 
L 3425 3897 
Q 3066 4069 2747 4153 
Q 2428 4238 2131 4238 
Q 1616 4238 1336 4038 
Q 1056 3838 1056 3469 
Q 1056 3159 1242 3001 
Q 1428 2844 1947 2747 
L 2328 2669 
Q 3034 2534 3370 2195 
Q 3706 1856 3706 1288 
Q 3706 609 3251 259 
Q 2797 -91 1919 -91 
Q 1588 -91 1214 -16 
Q 841 59 441 206 
L 441 856 
Q 825 641 1194 531 
Q 1563 422 1919 422 
Q 2459 422 2753 634 
Q 3047 847 3047 1241 
Q 3047 1584 2836 1778 
Q 2625 1972 2144 2069 
L 1759 2144 
Q 1053 2284 737 2584 
Q 422 2884 422 3419 
Q 422 4038 858 4394 
Q 1294 4750 2059 4750 
Q 2388 4750 2728 4690 
Q 3069 4631 3425 4513 
z
" transform="scale(0.015625)"/>
      <path id="DejaVuSans-54" d="M -19 4666 
L 3928 4666 
L 3928 4134 
L 2272 4134 
L 2272 0 
L 1638 0 
L 1638 4134 
L -19 4134 
L -19 4666 
z
" transform="scale(0.015625)"/>
     </defs>
     <use xlink:href="#DejaVuSans-53"/>
     <use xlink:href="#DejaVuSans-54" x="63.476562"/>
     <use xlink:href="#DejaVuSans-47" x="124.560547"/>
     <use xlink:href="#DejaVuSans-31" x="202.050781"/>
    </g>
    <!-- 145 -->
    <g style="opacity: 0.5" transform="translate(329.986911 304.947557)scale(0.0579 -0.0579)">
     <use xlink:href="#DejaVuSans-31"/>
     <use xlink:href="#DejaVuSans-34" x="63.623047"/>
     <use xlink:href="#DejaVuSans-35" x="127.246094"/>
    </g>
    <!-- GND -->
    <g style="opacity: 0.5" transform="translate(328.874598 311.43109)scale(0.0579 -0.0579)">
     <use xlink:href="#DejaVuSans-47"/>
     <use xlink:href="#DejaVuSans-4e" x="77.490234"/>
     <use xlink:href="#DejaVuSans-44" x="152.294922"/>
    </g>
   </g>
   <g id="text_7">
    <!-- STG2 -->
    <g style="opacity: 0.5" transform="translate(178.461658 247.350731)scale(0.0579 -0.0579)">
     <use xlink:href="#DejaVuSans-53"/>
     <use xlink:href="#DejaVuSans-54" x="63.476562"/>
     <use xlink:href="#DejaVuSans-47" x="124.560547"/>
     <use xlink:href="#DejaVuSans-32" x="202.050781"/>
    </g>
    <!-- 95 -->
    <g style="opacity: 0.5" transform="translate(182.468971 253.834265)scale(0.0579 -0.0579)">
     <defs>
      <path id="DejaVuSans-39" d="M 703 97 
L 703 672 
Q 941 559 1184 500 
Q 1428 441 1663 441 
Q 2288 441 2617 861 
Q 2947 1281 2994 2138 
Q 2813 1869 2534 1725 
Q 2256 1581 1919 1581 
Q 1219 1581 811 2004 
Q 403 2428 403 3163 
Q 403 3881 828 4315 
Q 1253 4750 1959 4750 
Q 2769 4750 3195 4129 
Q 3622 3509 3622 2328 
Q 3622 1225 3098 567 
Q 2575 -91 1691 -91 
Q 1453 -91 1209 -44 
Q 966 3 703 97 
z
M 1959 2075 
Q 2384 2075 2632 2365 
Q 2881 2656 2881 3163 
Q 2881 3666 2632 3958 
Q 2384 4250 1959 4250 
Q 1534 4250 1286 3958 
Q 1038 3666 1038 3163 
Q 1038 2656 1286 2365 
Q 1534 2075 1959 2075 
z
" transform="scale(0.015625)"/>
     </defs>
     <use xlink:href="#DejaVuSans-39"/>
     <use xlink:href="#DejaVuSans-35" x="63.623047"/>
    </g>
    <!-- GND -->
    <g style="opacity: 0.5" transform="translate(179.514714 260.317798)scale(0.0579 -0.0579)">
     <use xlink:href="#DejaVuSans-47"/>
     <use xlink:href="#DejaVuSans-4e" x="77.490234"/>
     <use xlink:href="#DejaVuSans-44" x="152.294922"/>
    </g>
   </g>
   <g id="text_8">
    <!-- NKRL1 -->
    <g transform="translate(220.18814 171.702438)scale(0.0579 -0.0579)">
     <defs>
      <path id="DejaVuSans-52" d="M 2841 2188 
Q 3044 2119 3236 1894 
Q 3428 1669 3622 1275 
L 4263 0 
L 3584 0 
L 2988 1197 
Q 2756 1666 2539 1819 
Q 2322 1972 1947 1972 
L 1259 1972 
L 1259 0 
L 628 0 
L 628 4666 
L 2053 4666 
Q 2853 4666 3247 4331 
Q 3641 3997 3641 3322 
Q 3641 2881 3436 2590 
Q 3231 2300 2841 2188 
z
M 1259 4147 
L 1259 2491 
L 2053 2491 
Q 2509 2491 2742 2702 
Q 2975 2913 2975 3322 
Q 2975 3731 2742 3939 
Q 2509 4147 2053 4147 
L 1259 4147 
z
" transform="scale(0.015625)"/>
      <path id="DejaVuSans-4c" d="M 628 4666 
L 1259 4666 
L 1259 531 
L 3531 531 
L 3531 0 
L 628 0 
L 628 4666 
z
" transform="scale(0.015625)"/>
     </defs>
     <use xlink:href="#DejaVuSans-4e"/>
     <use xlink:href="#DejaVuSans-4b" x="74.804688"/>
     <use xlink:href="#DejaVuSans-52" x="140.380859"/>
     <use xlink:href="#DejaVuSans-4c" x="209.863281"/>
     <use xlink:href="#DejaVuSans-31" x="265.576172"/>
    </g>
    <!-- 75 -->
    <g transform="translate(226.035135 178.185971)scale(0.0579 -0.0579)">
     <use xlink:href="#DejaVuSans-37"/>
     <use xlink:href="#DejaVuSans-35" x="63.623047"/>
    </g>
    <!-- GND -->
    <g transform="translate(223.080878 184.669505)scale(0.0579 -0.0579)">
     <use xlink:href="#DejaVuSans-47"/>
     <use xlink:href="#DejaVuSans-4e" x="77.490234"/>
     <use xlink:href="#DejaVuSans-44" x="152.294922"/>
    </g>
   </g>
   <g id="text_9">
    <!-- NKRL2 -->
    <g transform="translate(269.892487 169.642145)scale(0.0579 -0.0579)">
     <use xlink:href="#DejaVuSans-4e"/>
     <use xlink:href="#DejaVuSans-4b" x="74.804688"/>
     <use xlink:href="#DejaVuSans-52" x="140.380859"/>
     <use xlink:href="#DejaVuSans-4c" x="209.863281"/>
     <use xlink:href="#DejaVuSans-32" x="265.576172"/>
    </g>
    <!-- 115 -->
    <g transform="translate(273.897539 176.125678)scale(0.0579 -0.0579)">
     <use xlink:href="#DejaVuSans-31"/>
     <use xlink:href="#DejaVuSans-31" x="63.623047"/>
     <use xlink:href="#DejaVuSans-35" x="127.246094"/>
    </g>
    <!-- GND -->
    <g transform="translate(272.785226 182.609212)scale(0.0579 -0.0579)">
     <use xlink:href="#DejaVuSans-47"/>
     <use xlink:href="#DejaVuSans-4e" x="77.490234"/>
     <use xlink:href="#DejaVuSans-44" x="152.294922"/>
    </g>
   </g>
   <g id="text_10">
    <!-- NKRL3 -->
    <g transform="translate(175.930474 173.602488)scale(0.0579 -0.0579)">
     <use xlink:href="#DejaVuSans-4e"/>
     <use xlink:href="#DejaVuSans-4b" x="74.804688"/>
     <use xlink:href="#DejaVuSans-52" x="140.380859"/>
     <use xlink:href="#DejaVuSans-4c" x="209.863281"/>
     <use xlink:href="#DejaVuSans-33" x="265.576172"/>
    </g>
    <!-- 55 -->
    <g transform="translate(181.777469 180.086022)scale(0.0579 -0.0579)">
     <use xlink:href="#DejaVuSans-35"/>
     <use xlink:href="#DejaVuSans-35" x="63.623047"/>
    </g>
    <!-- GND -->
    <g transform="translate(178.823212 186.569555)scale(0.0579 -0.0579)">
     <use xlink:href="#DejaVuSans-47"/>
     <use xlink:href="#DejaVuSans-4e" x="77.490234"/>
     <use xlink:href="#DejaVuSans-44" x="152.294922"/>
    </g>
   </g>
  </g>
 </g>
 <defs>
  <clipPath id="p305aac977b">
   <rect x="75.483689" y="41.472" width="321.352623" height="266.112"/>
  </clipPath>
 </defs>
</svg>
