<?xml version="1.0" encoding="utf-8" standalone="no"?>
<!DOCTYPE svg PUBLIC "-//W3C//DTD SVG 1.1//EN"
  "http://www.w3.org/Graphics/SVG/1.1/DTD/svg11.dtd">
<svg xmlns:xlink="http://www.w3.org/1999/xlink" width="460.8pt" height="345.6pt" viewBox="0 0 460.8 345.6" xmlns="http://www.w3.org/2000/svg" version="1.1">
 <metadata>
  <rdf:RDF xmlns:dc="http://purl.org/dc/elements/1.1/" xmlns:cc="http://creativecommons.org/ns#" xmlns:rdf="http://www.w3.org/1999/02/22-rdf-syntax-ns#">
   <cc:Work>
    <dc:type rdf:resource="http://purl.org/dc/dcmitype/StillImage"/>
    <dc:date>2022-07-17T12:48:02.831036</dc:date>
    <dc:format>image/svg+xml</dc:format>
    <dc:creator>
     <cc:Agent>
      <dc:title>Matplotlib v3.5.0, https://matplotlib.org/</dc:title>
     </cc:Agent>
    </dc:creator>
   </cc:Work>
  </rdf:RDF>
 </metadata>
 <defs>
  <style type="text/css">*{stroke-linejoin: round; stroke-linecap: butt}</style>
 </defs>
 <g id="figure_1">
  <g id="patch_1">
   <path d="M 0 345.6 
L 460.8 345.6 
L 460.8 0 
L 0 0 
z
" style="fill: #ffffff"/>
  </g>
  <g id="axes_1">
   <g id="patch_2">
    <path d="M 258.618251 102.517514 
L 279.83024 120.289867 
L 260.391906 134.390994 
L 278.126529 154.460111 
L 222.80204 199.573415 
L 207.375881 212.195587 
L 190.992437 214.896199 
L 137.836471 209.449001 
L 120.164837 218.544311 
L 113.671854 221.897247 
L 106.278553 213.212882 
L 107.259075 186.067265 
L 107.966653 165.871914 
L 108.15751 162.06846 
L 107.067934 155.961417 
L 136.777013 116.858001 
L 159.765717 148.210353 
L 198.45823 120.506193 
L 221.897302 104.153167 
z
" clip-path="url(#p9d50c0671a)" style="fill: #ffedd9; stroke: #ffedd9; stroke-linejoin: miter"/>
   </g>
   <g id="patch_3">
    <path d="M 222.608759 53.568 
L 241.184593 78.834467 
L 258.618251 102.517514 
L 221.897302 104.153167 
L 198.45823 120.506193 
L 159.765717 148.210353 
L 136.777013 116.858001 
L 175.073109 88.632849 
z
" clip-path="url(#p9d50c0671a)" style="fill: #ffedd9; stroke: #ffedd9; stroke-linejoin: miter"/>
   </g>
   <g id="patch_4">
    <path d="M 279.83024 120.289867 
L 289.865696 128.679612 
L 357.590126 234.742932 
L 334.258411 247.912975 
L 338.475249 256.655352 
L 302.584512 256.786111 
L 246.527631 257.19608 
L 243.291964 249.314813 
L 237.997833 236.422826 
L 222.80204 199.573415 
L 278.126529 154.460111 
L 260.391906 134.390994 
z
" clip-path="url(#p9d50c0671a)" style="fill: #ffedd9; stroke: #ffedd9; stroke-linejoin: miter"/>
   </g>
   <g id="patch_5">
    <path d="M 357.590126 234.742932 
L 360.723634 239.591724 
L 380.399335 285.06831 
L 355.053297 295.488 
L 345.312453 271.563004 
L 302.584512 256.786111 
L 338.475249 256.655352 
L 334.258411 247.912975 
z
" clip-path="url(#p9d50c0671a)" style="fill: #ffedd9; stroke: #ffedd9; stroke-linejoin: miter"/>
   </g>
   <g id="patch_6">
    <path d="M 345.403474 215.634729 
L 357.590126 234.742932 
L 360.723634 239.591724 
L 380.399335 285.06831 
L 355.053297 295.488 
L 345.312453 271.563004 
L 302.584512 256.786111 
L 246.527631 257.19608 
L 234.888213 257.168069 
L 229.28373 258.251649 
L 260.51608 238.283062 
L 282.153128 232.478381 
z
" clip-path="url(#p9d50c0671a)" style="fill: #ffedd9; stroke: #ffedd9; stroke-linejoin: miter"/>
   </g>
   <g id="patch_7">
    <path d="M 222.80204 199.573415 
L 237.997833 236.422826 
L 243.291964 249.314813 
L 246.527631 257.19608 
L 234.888213 257.168069 
L 229.28373 258.251649 
L 197.186644 266.486385 
L 156.502581 281.486123 
L 113.671854 221.897247 
L 120.164837 218.544311 
L 137.836471 209.449001 
L 190.992437 214.896199 
L 207.375881 212.195587 
z
" clip-path="url(#p9d50c0671a)" style="fill: #ffedd9; stroke: #ffedd9; stroke-linejoin: miter"/>
   </g>
   <g id="patch_8">
    <path d="M 107.966653 165.871914 
L 107.259075 186.067265 
L 97.936997 189.997237 
L 98.593732 186.206254 
L 96.720065 183.519698 
L 93.281253 178.813145 
L 91.920665 176.066387 
L 97.599707 166.185295 
z
" clip-path="url(#p9d50c0671a)" style="fill: #ffedd9; stroke: #ffedd9; stroke-linejoin: miter"/>
   </g>
   <g id="patch_9">
    <path d="M 229.28373 258.251649 
L 239.543579 232.56591 
L 282.153128 232.478381 
L 260.51608 238.283062 
z
" clip-path="url(#p9d50c0671a)" style="fill: #ffedd9; stroke: #ffedd9; stroke-linejoin: miter"/>
   </g>
   <g id="patch_10">
    <path d="M 258.618251 102.517514 
L 279.83024 120.289867 
L 260.391906 134.390994 
L 278.126529 154.460111 
L 222.80204 199.573415 
L 207.375881 212.195587 
L 190.992437 214.896199 
L 137.836471 209.449001 
L 120.164837 218.544311 
L 113.671854 221.897247 
L 106.278553 213.212882 
L 107.259075 186.067265 
L 107.966653 165.871914 
L 108.15751 162.06846 
L 107.067934 155.961417 
L 136.777013 116.858001 
L 159.765717 148.210353 
L 198.45823 120.506193 
L 221.897302 104.153167 
L 258.618251 102.517514 
z
" clip-path="url(#p9d50c0671a)" style="fill: #ffedd9; stroke: #ffedd9; stroke-linejoin: miter"/>
   </g>
   <g id="patch_11">
    <path d="M 222.608759 53.568 
L 241.184593 78.834467 
L 258.618251 102.517514 
L 221.897302 104.153167 
L 198.45823 120.506193 
L 159.765717 148.210353 
L 136.777013 116.858001 
L 175.073109 88.632849 
L 222.608759 53.568 
z
" clip-path="url(#p9d50c0671a)" style="fill: #ffedd9; stroke: #ffedd9; stroke-linejoin: miter"/>
   </g>
   <g id="patch_12">
    <path d="M 279.83024 120.289867 
L 289.865696 128.679612 
L 357.590126 234.742932 
L 334.258411 247.912975 
L 338.475249 256.655352 
L 302.584512 256.786111 
L 246.527631 257.19608 
L 243.291964 249.314813 
L 237.997833 236.422826 
L 222.80204 199.573415 
L 278.126529 154.460111 
L 260.391906 134.390994 
L 279.83024 120.289867 
z
" clip-path="url(#p9d50c0671a)" style="fill: #ffedd9; stroke: #ffedd9; stroke-linejoin: miter"/>
   </g>
   <g id="patch_13">
    <path d="M 357.590126 234.742932 
L 360.723634 239.591724 
L 380.399335 285.06831 
L 355.053297 295.488 
L 345.312453 271.563004 
L 302.584512 256.786111 
L 338.475249 256.655352 
L 334.258411 247.912975 
L 357.590126 234.742932 
z
" clip-path="url(#p9d50c0671a)" style="fill: #ffedd9; stroke: #ffedd9; stroke-linejoin: miter"/>
   </g>
   <g id="patch_14">
    <path d="M 345.403474 215.634729 
L 357.590126 234.742932 
L 360.723634 239.591724 
L 380.399335 285.06831 
L 355.053297 295.488 
L 345.312453 271.563004 
L 302.584512 256.786111 
L 246.527631 257.19608 
L 234.888213 257.168069 
L 229.28373 258.251649 
L 260.51608 238.283062 
L 282.153128 232.478381 
L 345.403474 215.634729 
z
" clip-path="url(#p9d50c0671a)" style="fill: #ffedd9; stroke: #ffedd9; stroke-linejoin: miter"/>
   </g>
   <g id="patch_15">
    <path d="M 222.80204 199.573415 
L 237.997833 236.422826 
L 243.291964 249.314813 
L 246.527631 257.19608 
L 234.888213 257.168069 
L 229.28373 258.251649 
L 197.186644 266.486385 
L 156.502581 281.486123 
L 113.671854 221.897247 
L 120.164837 218.544311 
L 137.836471 209.449001 
L 190.992437 214.896199 
L 207.375881 212.195587 
L 222.80204 199.573415 
z
" clip-path="url(#p9d50c0671a)" style="fill: #ffedd9; stroke: #ffedd9; stroke-linejoin: miter"/>
   </g>
   <g id="patch_16">
    <path d="M 107.966653 165.871914 
L 107.259075 186.067265 
L 97.936997 189.997237 
L 98.593732 186.206254 
L 96.720065 183.519698 
L 93.281253 178.813145 
L 91.920665 176.066387 
L 97.599707 166.185295 
L 107.966653 165.871914 
z
" clip-path="url(#p9d50c0671a)" style="fill: #ffedd9; stroke: #ffedd9; stroke-linejoin: miter"/>
   </g>
   <g id="patch_17">
    <path d="M 229.28373 258.251649 
L 239.543579 232.56591 
L 282.153128 232.478381 
L 260.51608 238.283062 
L 229.28373 258.251649 
z
" clip-path="url(#p9d50c0671a)" style="fill: #ffedd9; stroke: #ffedd9; stroke-linejoin: miter"/>
   </g>
   <g id="line2d_1">
    <path d="M 258.618251 102.517514 
L 279.83024 120.289867 
L 260.391906 134.390994 
L 278.126529 154.460111 
L 222.80204 199.573415 
L 207.375881 212.195587 
L 190.992437 214.896199 
L 137.836471 209.449001 
L 120.164837 218.544311 
L 113.671854 221.897247 
L 106.278553 213.212882 
L 107.259075 186.067265 
L 107.966653 165.871914 
L 108.15751 162.06846 
L 107.067934 155.961417 
L 136.777013 116.858001 
L 159.765717 148.210353 
L 198.45823 120.506193 
L 221.897302 104.153167 
L 258.618251 102.517514 
" clip-path="url(#p9d50c0671a)" style="fill: none; stroke: #ffc380; stroke-width: 0.5; stroke-linecap: square"/>
   </g>
   <g id="line2d_2">
    <path d="M 222.608759 53.568 
L 241.184593 78.834467 
L 258.618251 102.517514 
L 221.897302 104.153167 
L 198.45823 120.506193 
L 159.765717 148.210353 
L 136.777013 116.858001 
L 175.073109 88.632849 
L 222.608759 53.568 
" clip-path="url(#p9d50c0671a)" style="fill: none; stroke: #ffc380; stroke-width: 0.5; stroke-linecap: square"/>
   </g>
   <g id="line2d_3">
    <path d="M 279.83024 120.289867 
L 289.865696 128.679612 
L 357.590126 234.742932 
L 334.258411 247.912975 
L 338.475249 256.655352 
L 302.584512 256.786111 
L 246.527631 257.19608 
L 243.291964 249.314813 
L 237.997833 236.422826 
L 222.80204 199.573415 
L 278.126529 154.460111 
L 260.391906 134.390994 
L 279.83024 120.289867 
" clip-path="url(#p9d50c0671a)" style="fill: none; stroke: #ffc380; stroke-width: 0.5; stroke-linecap: square"/>
   </g>
   <g id="line2d_4">
    <path d="M 357.590126 234.742932 
L 360.723634 239.591724 
L 380.399335 285.06831 
L 355.053297 295.488 
L 345.312453 271.563004 
L 302.584512 256.786111 
L 338.475249 256.655352 
L 334.258411 247.912975 
L 357.590126 234.742932 
" clip-path="url(#p9d50c0671a)" style="fill: none; stroke: #ffc380; stroke-width: 0.5; stroke-linecap: square"/>
   </g>
   <g id="line2d_5">
    <path d="M 345.403474 215.634729 
L 357.590126 234.742932 
L 360.723634 239.591724 
L 380.399335 285.06831 
L 355.053297 295.488 
L 345.312453 271.563004 
L 302.584512 256.786111 
L 246.527631 257.19608 
L 234.888213 257.168069 
L 229.28373 258.251649 
L 260.51608 238.283062 
L 282.153128 232.478381 
L 345.403474 215.634729 
" clip-path="url(#p9d50c0671a)" style="fill: none; stroke: #ffc380; stroke-width: 0.5; stroke-linecap: square"/>
   </g>
   <g id="line2d_6">
    <path d="M 222.80204 199.573415 
L 237.997833 236.422826 
L 243.291964 249.314813 
L 246.527631 257.19608 
L 234.888213 257.168069 
L 229.28373 258.251649 
L 197.186644 266.486385 
L 156.502581 281.486123 
L 113.671854 221.897247 
L 120.164837 218.544311 
L 137.836471 209.449001 
L 190.992437 214.896199 
L 207.375881 212.195587 
L 222.80204 199.573415 
" clip-path="url(#p9d50c0671a)" style="fill: none; stroke: #ffc380; stroke-width: 0.5; stroke-linecap: square"/>
   </g>
   <g id="line2d_7">
    <path d="M 107.966653 165.871914 
L 107.259075 186.067265 
L 97.936997 189.997237 
L 98.593732 186.206254 
L 96.720065 183.519698 
L 93.281253 178.813145 
L 91.920665 176.066387 
L 97.599707 166.185295 
L 107.966653 165.871914 
" clip-path="url(#p9d50c0671a)" style="fill: none; stroke: #ffc380; stroke-width: 0.5; stroke-linecap: square"/>
   </g>
   <g id="line2d_8">
    <path d="M 229.28373 258.251649 
L 239.543579 232.56591 
L 282.153128 232.478381 
L 260.51608 238.283062 
L 229.28373 258.251649 
" clip-path="url(#p9d50c0671a)" style="fill: none; stroke: #ffc380; stroke-width: 0.5; stroke-linecap: square"/>
   </g>
   <g id="line2d_9">
    <path clip-path="url(#p9d50c0671a)" style="fill: none; stroke: #8f8f8f; stroke-width: 0.2; stroke-linecap: square"/>
   </g>
   <g id="line2d_10">
    <path d="M 373.90473 341.847404 
L 378.784417 340.330099 
L 406.210437 331.842439 
L 461.55865 314.686579 
L 461.8 314.610746 
M 374.013902 346.6 
L 373.90473 341.847404 
" clip-path="url(#p9d50c0671a)" style="fill: none; stroke: #8f8f8f; stroke-width: 0.2; stroke-linecap: square"/>
   </g>
   <g id="line2d_11">
    <path clip-path="url(#p9d50c0671a)" style="fill: none; stroke: #8f8f8f; stroke-width: 0.2; stroke-linecap: square"/>
   </g>
   <g id="line2d_12">
    <path clip-path="url(#p9d50c0671a)" style="fill: none; stroke: #8f8f8f; stroke-width: 0.2; stroke-linecap: square"/>
   </g>
   <g id="line2d_13">
    <path clip-path="url(#p9d50c0671a)" style="fill: none; stroke: #8f8f8f; stroke-width: 0.2; stroke-linecap: square"/>
   </g>
   <g id="line2d_14">
    <path clip-path="url(#p9d50c0671a)" style="fill: none; stroke: #8f8f8f; stroke-width: 0.2; stroke-linecap: square"/>
   </g>
   <g id="line2d_15">
    <path clip-path="url(#p9d50c0671a)" style="fill: none; stroke: #8f8f8f; stroke-width: 0.2; stroke-linecap: square"/>
   </g>
   <g id="line2d_16">
    <path clip-path="url(#p9d50c0671a)" style="fill: none; stroke: #8f8f8f; stroke-width: 0.2; stroke-linecap: square"/>
   </g>
   <g id="line2d_17">
    <path clip-path="url(#p9d50c0671a)" style="fill: none; stroke: #8f8f8f; stroke-width: 0.2; stroke-linecap: square"/>
   </g>
   <g id="line2d_18">
    <path clip-path="url(#p9d50c0671a)" style="fill: none; stroke: #8f8f8f; stroke-width: 0.2; stroke-linecap: square"/>
   </g>
   <g id="line2d_19">
    <path d="M 378.784417 340.330099 
L 406.210437 331.842439 
L 418.702245 346.351633 
L 418.051891 346.6 
M 384.182251 346.6 
L 378.784417 340.330099 
" clip-path="url(#p9d50c0671a)" style="fill: none; stroke: #8f8f8f; stroke-width: 0.2; stroke-linecap: square"/>
   </g>
   <g id="line2d_20">
    <path d="M 461.55865 314.686579 
L 461.8 314.610746 
M 461.8 314.955477 
L 461.55865 314.686579 
" clip-path="url(#p9d50c0671a)" style="fill: none; stroke: #8f8f8f; stroke-width: 0.2; stroke-linecap: square"/>
   </g>
   <g id="line2d_21">
    <path clip-path="url(#p9d50c0671a)" style="fill: none; stroke: #8f8f8f; stroke-width: 0.2; stroke-linecap: square"/>
   </g>
   <g id="line2d_22">
    <path clip-path="url(#p9d50c0671a)" style="fill: none; stroke: #8f8f8f; stroke-width: 0.2; stroke-linecap: square"/>
   </g>
   <g id="line2d_23">
    <path clip-path="url(#p9d50c0671a)" style="fill: none; stroke: #8f8f8f; stroke-width: 0.2; stroke-linecap: square"/>
   </g>
   <g id="line2d_24">
    <path d="M 193.35147 -1 
L 165.209685 19.80613 
L 134.604412 42.397416 
L 136.131853 93.627061 
L 136.777013 116.858001 
L 107.067934 155.961417 
L 105.340661 146.029118 
L 102.774479 143.544848 
L 97.704005 137.052818 
L 91.185381 130.123479 
L 81.157597 130.870745 
L 76.157325 118.643251 
L 90.155988 107.169878 
L 97.610555 102.098988 
L 126.264575 83.64777 
L 117.645401 77.573389 
L 109.733576 81.691711 
L 108.853048 62.625722 
L 111.380663 60.640608 
L 135.784191 29.462332 
L 136.024645 19.434194 
L 136.416187 3.11085 
L 134.582047 -1 
" clip-path="url(#p9d50c0671a)" style="fill: none; stroke: #8f8f8f; stroke-width: 0.2; stroke-linecap: square"/>
   </g>
   <g id="line2d_25">
    <path clip-path="url(#p9d50c0671a)" style="fill: none; stroke: #8f8f8f; stroke-width: 0.2; stroke-linecap: square"/>
   </g>
   <g id="line2d_26">
    <path d="M 134.582047 -1 
L 136.416187 3.11085 
L 136.024645 19.434194 
L 135.784191 29.462332 
L 111.380663 60.640608 
L 90.04821 59.41048 
L 104.430221 37.459772 
L 105.510206 -1 
" clip-path="url(#p9d50c0671a)" style="fill: none; stroke: #8f8f8f; stroke-width: 0.2; stroke-linecap: square"/>
   </g>
   <g id="line2d_27">
    <path d="M 90.04821 59.41048 
L 111.380663 60.640608 
L 108.853048 62.625722 
L 109.733576 81.691711 
L 117.645401 77.573389 
L 126.264575 83.64777 
L 97.610555 102.098988 
L 93.193371 76.519425 
L 90.04821 59.41048 
" clip-path="url(#p9d50c0671a)" style="fill: none; stroke: #8f8f8f; stroke-width: 0.2; stroke-linecap: square"/>
   </g>
   <g id="line2d_28">
    <path d="M 134.604412 42.397416 
L 136.131853 93.627061 
L 165.209685 19.80613 
L 134.604412 42.397416 
" clip-path="url(#p9d50c0671a)" style="fill: none; stroke: #8f8f8f; stroke-width: 0.2; stroke-linecap: square"/>
   </g>
   <g id="line2d_29">
    <path d="M 165.209685 19.80613 
L 193.35147 -1 
M 357.772247 -1 
L 359.494718 2.899749 
L 371.269794 29.976203 
L 355.35444 32.015086 
L 337.430126 45.293449 
L 294.630176 76.091277 
L 287.328163 80.750369 
L 280.006009 86.613 
L 258.618251 102.517514 
L 241.184593 78.834467 
L 222.608759 53.568 
L 175.073109 88.632849 
L 136.777013 116.858001 
L 136.131853 93.627061 
L 165.209685 19.80613 
" clip-path="url(#p9d50c0671a)" style="fill: none; stroke: #8f8f8f; stroke-width: 0.2; stroke-linecap: square"/>
   </g>
   <g id="line2d_30">
    <path d="M 399.590465 94.719627 
L 430.979209 140.360023 
L 439.290435 152.507354 
L 450.338847 161.862534 
L 423.774978 173.595211 
L 434.046834 188.894168 
L 401.600172 208.779594 
L 381.291155 221.23807 
L 380.500181 221.747515 
L 357.590126 234.742932 
L 334.258411 247.912975 
L 338.475249 256.655352 
L 302.584512 256.786111 
L 246.527631 257.19608 
L 243.291964 249.314813 
L 237.997833 236.422826 
L 222.80204 199.573415 
L 278.126529 154.460111 
L 260.391906 134.390994 
L 279.83024 120.289867 
L 307.191495 100.308764 
L 321.308157 99.707272 
L 347.744003 98.517247 
L 389.247729 96.66809 
L 399.590465 94.719627 
" clip-path="url(#p9d50c0671a)" style="fill: none; stroke: #8f8f8f; stroke-width: 0.2; stroke-linecap: square"/>
   </g>
   <g id="line2d_31">
    <path d="M 222.80204 199.573415 
L 237.997833 236.422826 
L 243.291964 249.314813 
L 246.527631 257.19608 
L 234.888213 257.168069 
L 229.28373 258.251649 
L 197.186644 266.486385 
L 156.502581 281.486123 
L 113.671854 221.897247 
L 120.164837 218.544311 
L 137.836471 209.449001 
L 190.992437 214.896199 
L 207.375881 212.195587 
L 222.80204 199.573415 
" clip-path="url(#p9d50c0671a)" style="fill: none; stroke: #8f8f8f; stroke-width: 0.2; stroke-linecap: square"/>
   </g>
   <g id="line2d_32">
    <path clip-path="url(#p9d50c0671a)" style="fill: none; stroke: #8f8f8f; stroke-width: 0.2; stroke-linecap: square"/>
   </g>
   <g id="line2d_33">
    <path clip-path="url(#p9d50c0671a)" style="fill: none; stroke: #8f8f8f; stroke-width: 0.2; stroke-linecap: square"/>
   </g>
   <g id="line2d_34">
    <path d="M 296.268272 -1 
L 225.770811 50.691765 
L 236.736046 14.329664 
L 231.727907 6.414776 
L 241.619898 -1 
" clip-path="url(#p9d50c0671a)" style="fill: none; stroke: #8f8f8f; stroke-width: 0.2; stroke-linecap: square"/>
   </g>
   <g id="line2d_35">
    <path d="M 225.770811 50.691765 
L 296.268272 -1 
M 315.433939 -1 
L 319.923202 17.40242 
L 328.80215 31.535323 
L 304.90217 31.02473 
L 269.406208 57.992261 
L 265.148483 50.908002 
L 225.770811 50.691765 
" clip-path="url(#p9d50c0671a)" style="fill: none; stroke: #8f8f8f; stroke-width: 0.2; stroke-linecap: square"/>
   </g>
   <g id="line2d_36">
    <path d="M 226.450008 -1 
L 231.727907 6.414776 
L 236.736046 14.329664 
L 225.770811 50.691765 
L 265.148483 50.908002 
L 269.406208 57.992261 
L 287.328163 80.750369 
L 280.006009 86.613 
L 258.618251 102.517514 
L 221.897302 104.153167 
L 198.45823 120.506193 
L 159.765717 148.210353 
L 136.777013 116.858001 
L 136.131853 93.627061 
L 165.209685 19.80613 
L 193.35147 -1 
" clip-path="url(#p9d50c0671a)" style="fill: none; stroke: #8f8f8f; stroke-width: 0.2; stroke-linecap: square"/>
   </g>
   <g id="line2d_37">
    <path d="M 357.772247 -1 
L 359.494718 2.899749 
L 371.269794 29.976203 
L 355.35444 32.015086 
L 328.80215 31.535323 
L 319.923202 17.40242 
L 315.433939 -1 
" clip-path="url(#p9d50c0671a)" style="fill: none; stroke: #8f8f8f; stroke-width: 0.2; stroke-linecap: square"/>
   </g>
   <g id="line2d_38">
    <path d="M 241.619898 -1 
L 231.727907 6.414776 
L 226.450008 -1 
" clip-path="url(#p9d50c0671a)" style="fill: none; stroke: #8f8f8f; stroke-width: 0.2; stroke-linecap: square"/>
   </g>
   <g id="line2d_39">
    <path d="M 269.406208 57.992261 
L 304.90217 31.02473 
L 328.80215 31.535323 
L 337.430126 45.293449 
L 294.630176 76.091277 
L 287.328163 80.750369 
L 269.406208 57.992261 
" clip-path="url(#p9d50c0671a)" style="fill: none; stroke: #8f8f8f; stroke-width: 0.2; stroke-linecap: square"/>
   </g>
   <g id="line2d_40">
    <path d="M 328.80215 31.535323 
L 355.35444 32.015086 
L 337.430126 45.293449 
L 328.80215 31.535323 
" clip-path="url(#p9d50c0671a)" style="fill: none; stroke: #8f8f8f; stroke-width: 0.2; stroke-linecap: square"/>
   </g>
   <g id="line2d_41">
    <path d="M 296.445714 -1 
L 222.608759 53.568 
L 221.192804 -1 
" clip-path="url(#p9d50c0671a)" style="fill: none; stroke: #8f8f8f; stroke-width: 0.2; stroke-linecap: square"/>
   </g>
   <g id="line2d_42">
    <path d="M 222.608759 53.568 
L 296.445714 -1 
M 315.433939 -1 
L 319.923202 17.40242 
L 328.80215 31.535323 
L 337.430126 45.293449 
L 294.630176 76.091277 
L 239.431227 76.464551 
L 222.608759 53.568 
" clip-path="url(#p9d50c0671a)" style="fill: none; stroke: #8f8f8f; stroke-width: 0.2; stroke-linecap: square"/>
   </g>
   <g id="line2d_43">
    <path d="M 222.608759 53.568 
L 239.431227 76.464551 
L 258.618251 102.517514 
L 221.897302 104.153167 
L 198.45823 120.506193 
L 175.073109 88.632849 
L 222.608759 53.568 
" clip-path="url(#p9d50c0671a)" style="fill: none; stroke: #8f8f8f; stroke-width: 0.2; stroke-linecap: square"/>
   </g>
   <g id="line2d_44">
    <path d="M 357.772247 -1 
L 359.494718 2.899749 
L 371.269794 29.976203 
L 355.35444 32.015086 
L 337.430126 45.293449 
L 328.80215 31.535323 
L 319.923202 17.40242 
L 315.433939 -1 
" clip-path="url(#p9d50c0671a)" style="fill: none; stroke: #8f8f8f; stroke-width: 0.2; stroke-linecap: square"/>
   </g>
   <g id="line2d_45">
    <path d="M 165.209685 19.80613 
L 193.35147 -1 
M 221.192804 -1 
L 222.608759 53.568 
L 175.073109 88.632849 
L 198.45823 120.506193 
L 159.765717 148.210353 
L 136.777013 116.858001 
L 136.131853 93.627061 
L 165.209685 19.80613 
" clip-path="url(#p9d50c0671a)" style="fill: none; stroke: #8f8f8f; stroke-width: 0.2; stroke-linecap: square"/>
   </g>
   <g id="line2d_46">
    <path d="M 239.431227 76.464551 
L 294.630176 76.091277 
L 287.328163 80.750369 
L 280.006009 86.613 
L 258.618251 102.517514 
L 239.431227 76.464551 
" clip-path="url(#p9d50c0671a)" style="fill: none; stroke: #8f8f8f; stroke-width: 0.2; stroke-linecap: square"/>
   </g>
   <g id="line2d_47">
    <path d="M 337.430126 45.293449 
L 355.35444 32.015086 
L 371.269794 29.976203 
L 399.590465 94.719627 
L 337.430126 45.293449 
" clip-path="url(#p9d50c0671a)" style="fill: none; stroke: #8f8f8f; stroke-width: 0.2; stroke-linecap: square"/>
   </g>
   <g id="line2d_48">
    <path d="M 337.430126 45.293449 
L 399.590465 94.719627 
L 389.247729 96.66809 
L 347.744003 98.517247 
L 321.308157 99.707272 
L 307.191495 100.308764 
L 258.618251 102.517514 
L 280.006009 86.613 
L 287.328163 80.750369 
L 294.630176 76.091277 
L 337.430126 45.293449 
" clip-path="url(#p9d50c0671a)" style="fill: none; stroke: #8f8f8f; stroke-width: 0.2; stroke-linecap: square"/>
   </g>
   <g id="line2d_49">
    <path d="M 258.618251 102.517514 
L 307.191495 100.308764 
L 279.83024 120.289867 
L 258.618251 102.517514 
" clip-path="url(#p9d50c0671a)" style="fill: none; stroke: #8f8f8f; stroke-width: 0.2; stroke-linecap: square"/>
   </g>
   <g id="line2d_50">
    <path d="M 82.313375 242.085971 
L 113.671854 221.897247 
L 156.502581 281.486123 
L 149.094379 301.973258 
L 82.313375 242.085971 
" clip-path="url(#p9d50c0671a)" style="fill: none; stroke: #8f8f8f; stroke-width: 0.2; stroke-linecap: square"/>
   </g>
   <g id="line2d_51">
    <path d="M -1 51.535506 
L 2.614123 52.211562 
L 6.103434 48.082958 
L 13.090533 43.413433 
L 18.491419 44.914602 
L 23.442017 51.746697 
L 24.92149 55.532034 
L 24.774253 61.388235 
L 25.061295 63.81537 
L 49.320985 76.018293 
L 59.859497 75.242188 
L 60.663787 75.997401 
L 61.312403 78.873698 
L 68.941381 80.271626 
L 73.705995 85.464519 
L 71.216404 88.908341 
L 58.815847 108.46605 
L 58.677533 111.53847 
L 57.250905 113.033835 
L 57.524525 114.65362 
L 59.42674 117.274553 
L 57.92411 124.332642 
L 54.61121 128.703202 
L 50.283886 132.966461 
L 50.085044 134.938187 
L 51.131876 135.409744 
L 53.450204 135.040877 
L 54.391199 137.486726 
L 52.007065 141.515642 
L 50.701868 146.457664 
L 48.224758 147.246083 
L 43.092026 154.133377 
L 39.986284 155.283745 
L 38.075823 154.923261 
L 37.064699 157.636167 
L 34.839489 162.774022 
L 35.122644 164.051796 
L 36.343962 167.493204 
L 36.543219 169.165314 
L 34.624948 172.012697 
L 27.945313 188.962505 
L 63.574136 201.926562 
L 97.936997 189.997237 
L 107.259075 186.067265 
L 106.278553 213.212882 
L 113.671854 221.897247 
L 82.313375 242.085971 
L 149.094379 301.973258 
L 128.59261 320.833729 
L 128.531883 321.418121 
L 126.822214 346.6 
M 110.01107 346.6 
L 110.935915 345.300271 
L 109.287066 343.720818 
L 108.820174 343.635775 
L 104.286538 343.007569 
L 103.892609 345.560645 
L 103.231448 346.6 
M 100.02192 346.6 
L 99.515482 346.106522 
L 96.590659 344.931478 
L 95.725018 343.956636 
L 95.391957 340.579003 
L 94.655691 340.046902 
L 93.763385 340.09651 
L 89.680275 341.964984 
L 86.071396 341.867625 
L 83.973246 343.128837 
L 84.21359 346.357874 
L 84.578861 346.6 
L 84.578861 346.6 
" clip-path="url(#p9d50c0671a)" style="fill: none; stroke: #8f8f8f; stroke-width: 0.2; stroke-linecap: square"/>
   </g>
   <g id="line2d_52">
    <path d="M 126.822214 346.6 
L 127.157224 341.743213 
L 128.531883 321.418121 
L 128.59261 320.833729 
L 149.094379 301.973258 
L 156.502581 281.486123 
L 113.671854 221.897247 
L 106.278553 213.212882 
L 107.259075 186.067265 
L 97.936997 189.997237 
L 98.593732 186.206254 
L 96.720065 183.519698 
L 93.281253 178.813145 
L 91.920665 176.066387 
L 97.599707 166.185295 
L 107.966653 165.871914 
L 108.15751 162.06846 
L 107.067934 155.961417 
L 105.340661 146.029118 
L 102.774479 143.544848 
L 97.704005 137.052818 
L 91.185381 130.123479 
L 81.157597 130.870745 
L 76.157325 118.643251 
L 90.155988 107.169878 
L 97.610555 102.098988 
L 126.264575 83.64777 
L 117.645401 77.573389 
L 109.733576 81.691711 
L 108.853048 62.625722 
L 111.380663 60.640608 
L 90.04821 59.41048 
L 24.92149 55.532034 
L 23.442017 51.746697 
L 18.491419 44.914602 
L 13.090533 43.413433 
L 6.103434 48.082958 
L 2.614123 52.211562 
L -1 51.535506 
" clip-path="url(#p9d50c0671a)" style="fill: none; stroke: #8f8f8f; stroke-width: 0.2; stroke-linecap: square"/>
   </g>
   <g id="line2d_53">
    <path clip-path="url(#p9d50c0671a)" style="fill: none; stroke: #8f8f8f; stroke-width: 0.2; stroke-linecap: square"/>
   </g>
   <g id="line2d_54">
    <path clip-path="url(#p9d50c0671a)" style="fill: none; stroke: #8f8f8f; stroke-width: 0.2; stroke-linecap: square"/>
   </g>
   <g id="line2d_55">
    <path clip-path="url(#p9d50c0671a)" style="fill: none; stroke: #8f8f8f; stroke-width: 0.2; stroke-linecap: square"/>
   </g>
   <g id="line2d_56">
    <path clip-path="url(#p9d50c0671a)" style="fill: none; stroke: #8f8f8f; stroke-width: 0.2; stroke-linecap: square"/>
   </g>
   <g id="line2d_57">
    <path clip-path="url(#p9d50c0671a)" style="fill: none; stroke: #8f8f8f; stroke-width: 0.2; stroke-linecap: square"/>
   </g>
   <g id="line2d_58">
    <path clip-path="url(#p9d50c0671a)" style="fill: none; stroke: #8f8f8f; stroke-width: 0.2; stroke-linecap: square"/>
   </g>
   <g id="line2d_59">
    <path clip-path="url(#p9d50c0671a)" style="fill: none; stroke: #8f8f8f; stroke-width: 0.2; stroke-linecap: square"/>
   </g>
   <g id="line2d_60">
    <path clip-path="url(#p9d50c0671a)" style="fill: none; stroke: #8f8f8f; stroke-width: 0.2; stroke-linecap: square"/>
   </g>
   <g id="line2d_61">
    <path clip-path="url(#p9d50c0671a)" style="fill: none; stroke: #8f8f8f; stroke-width: 0.2; stroke-linecap: square"/>
   </g>
   <g id="line2d_62">
    <path clip-path="url(#p9d50c0671a)" style="fill: none; stroke: #8f8f8f; stroke-width: 0.2; stroke-linecap: square"/>
   </g>
   <g id="line2d_63">
    <path clip-path="url(#p9d50c0671a)" style="fill: none; stroke: #8f8f8f; stroke-width: 0.2; stroke-linecap: square"/>
   </g>
   <g id="line2d_64">
    <path clip-path="url(#p9d50c0671a)" style="fill: none; stroke: #8f8f8f; stroke-width: 0.2; stroke-linecap: square"/>
   </g>
   <g id="line2d_65">
    <path clip-path="url(#p9d50c0671a)" style="fill: none; stroke: #8f8f8f; stroke-width: 0.2; stroke-linecap: square"/>
   </g>
   <g id="line2d_66">
    <path clip-path="url(#p9d50c0671a)" style="fill: none; stroke: #8f8f8f; stroke-width: 0.2; stroke-linecap: square"/>
   </g>
   <g id="line2d_67">
    <path clip-path="url(#p9d50c0671a)" style="fill: none; stroke: #8f8f8f; stroke-width: 0.2; stroke-linecap: square"/>
   </g>
   <g id="line2d_68">
    <path clip-path="url(#p9d50c0671a)" style="fill: none; stroke: #8f8f8f; stroke-width: 0.2; stroke-linecap: square"/>
   </g>
   <g id="line2d_69">
    <path clip-path="url(#p9d50c0671a)" style="fill: none; stroke: #8f8f8f; stroke-width: 0.2; stroke-linecap: square"/>
   </g>
   <g id="line2d_70">
    <path clip-path="url(#p9d50c0671a)" style="fill: none; stroke: #8f8f8f; stroke-width: 0.2; stroke-linecap: square"/>
   </g>
   <g id="line2d_71">
    <path clip-path="url(#p9d50c0671a)" style="fill: none; stroke: #8f8f8f; stroke-width: 0.2; stroke-linecap: square"/>
   </g>
   <g id="line2d_72">
    <path clip-path="url(#p9d50c0671a)" style="fill: none; stroke: #8f8f8f; stroke-width: 0.2; stroke-linecap: square"/>
   </g>
   <g id="line2d_73">
    <path clip-path="url(#p9d50c0671a)" style="fill: none; stroke: #8f8f8f; stroke-width: 0.2; stroke-linecap: square"/>
   </g>
   <g id="line2d_74">
    <path d="M -1 64.995647 
L 45.440449 81.172206 
L 92.285663 108.400135 
L 97.610555 102.098988 
L 126.264575 83.64777 
L 117.645401 77.573389 
L 109.733576 81.691711 
L 108.853048 62.625722 
L 111.380663 60.640608 
L 135.784191 29.462332 
L 136.024645 19.434194 
L 136.416187 3.11085 
L 134.582047 -1 
" clip-path="url(#p9d50c0671a)" style="fill: none; stroke: #8f8f8f; stroke-width: 0.2; stroke-linecap: square"/>
   </g>
   <g id="line2d_75">
    <path clip-path="url(#p9d50c0671a)" style="fill: none; stroke: #8f8f8f; stroke-width: 0.2; stroke-linecap: square"/>
   </g>
   <g id="line2d_76">
    <path clip-path="url(#p9d50c0671a)" style="fill: none; stroke: #8f8f8f; stroke-width: 0.2; stroke-linecap: square"/>
   </g>
   <g id="line2d_77">
    <path d="M -1 64.995647 
L 45.440449 81.172206 
L 92.285663 108.400135 
L 282.153128 232.478381 
L 239.543579 232.56591 
L 229.28373 258.251649 
L 200.621524 318.753998 
L 194.409825 346.6 
M 63.279365 346.6 
L 62.114026 346.322108 
L -1 288.015214 
" clip-path="url(#p9d50c0671a)" style="fill: none; stroke: #8f8f8f; stroke-width: 0.2; stroke-linecap: square"/>
   </g>
   <g id="line2d_78">
    <path d="M 229.28373 258.251649 
L 239.543579 232.56591 
L 282.153128 232.478381 
L 260.51608 238.283062 
L 229.28373 258.251649 
" clip-path="url(#p9d50c0671a)" style="fill: none; stroke: #8f8f8f; stroke-width: 0.2; stroke-linecap: square"/>
   </g>
   <g id="line2d_79">
    <path d="M -1 288.015214 
L 62.114026 346.322108 
L 63.279365 346.6 
" clip-path="url(#p9d50c0671a)" style="fill: none; stroke: #8f8f8f; stroke-width: 0.2; stroke-linecap: square"/>
   </g>
   <g id="line2d_80">
    <path clip-path="url(#p9d50c0671a)" style="fill: none; stroke: #8f8f8f; stroke-width: 0.2; stroke-linecap: square"/>
   </g>
   <g id="line2d_81">
    <path clip-path="url(#p9d50c0671a)" style="fill: none; stroke: #8f8f8f; stroke-width: 0.2; stroke-linecap: square"/>
   </g>
   <g id="line2d_82">
    <path clip-path="url(#p9d50c0671a)" style="fill: none; stroke: #8f8f8f; stroke-width: 0.2; stroke-linecap: square"/>
   </g>
   <g id="line2d_83">
    <path d="M 24.92149 55.532034 
L 24.774253 61.388235 
L 25.061295 63.81537 
L 40.688096 71.645925 
L 49.320985 76.018293 
L 59.859497 75.242188 
L 60.663787 75.997401 
L 61.312403 78.873698 
L 68.941381 80.271626 
L 73.705995 85.464519 
L 71.216404 88.908341 
L 58.815847 108.46605 
L 58.677533 111.53847 
L 57.250905 113.033835 
L 57.524525 114.65362 
L 59.42674 117.274553 
L 57.92411 124.332642 
L 54.61121 128.703202 
L 50.283886 132.966461 
L 50.085044 134.938187 
L 51.131876 135.409744 
L 53.450204 135.040877 
L 54.391199 137.486726 
L 52.007065 141.515642 
L 50.701868 146.457664 
L 48.224758 147.246083 
L 43.092026 154.133377 
L 39.986284 155.283745 
L 38.075823 154.923261 
L 37.064699 157.636167 
L 34.839489 162.774022 
L 35.122644 164.051796 
L 36.343962 167.493204 
L 36.543219 169.165314 
L 37.336026 170.435687 
L 44.908552 173.968737 
L 45.295345 174.932974 
L 44.481938 175.786832 
L 44.430401 178.93141 
L 44.95232 184.519083 
L 52.223793 184.59442 
L 62.201417 188.701736 
L 65.065502 189.005627 
L 68.275027 186.973541 
L 71.585188 186.269298 
L 80.217023 190.684904 
L 82.778062 188.56283 
L 94.228908 190.044486 
L 94.969843 190.06074 
L 97.936997 189.997237 
L 98.593732 186.206254 
L 96.720065 183.519698 
L 93.281253 178.813145 
L 91.920665 176.066387 
L 99.269466 172.966381 
L 99.124845 171.425969 
L 98.556959 170.165056 
L 97.599707 166.185295 
L 108.15751 162.06846 
L 107.067934 155.961417 
L 105.340661 146.029118 
L 102.774479 143.544848 
L 91.185381 130.123479 
L 81.157597 130.870745 
L 76.157325 118.643251 
L 90.155988 107.169878 
L 97.610555 102.098988 
L 90.04821 59.41048 
L 24.92149 55.532034 
" clip-path="url(#p9d50c0671a)" style="fill: none; stroke: #8f8f8f; stroke-width: 0.2; stroke-linecap: square"/>
   </g>
   <g id="line2d_84">
    <path clip-path="url(#p9d50c0671a)" style="fill: none; stroke: #8f8f8f; stroke-width: 0.2; stroke-linecap: square"/>
   </g>
   <g id="line2d_85">
    <path d="M 105.510206 -1 
L 104.430221 37.459772 
L 90.04821 59.41048 
L 24.92149 55.532034 
L 23.442017 51.746697 
L 18.491419 44.914602 
L 13.090533 43.413433 
L 6.103434 48.082958 
L 2.614123 52.211562 
L -1 51.535506 
M 134.582047 -1 
L 136.416187 3.11085 
L 136.024645 19.434194 
L 135.784191 29.462332 
L 111.380663 60.640608 
L 90.04821 59.41048 
L 104.430221 37.459772 
L 105.510206 -1 
M 134.582047 -1 
L 136.416187 3.11085 
L 136.024645 19.434194 
L 135.784191 29.462332 
L 111.380663 60.640608 
L 90.04821 59.41048 
L 104.430221 37.459772 
L -1 11.049156 
" clip-path="url(#p9d50c0671a)" style="fill: none; stroke: #8f8f8f; stroke-width: 0.2; stroke-linecap: square"/>
   </g>
   <g id="line2d_86">
    <path d="M 126.822214 346.6 
L 127.157224 341.743213 
L 128.531883 321.418121 
L 128.59261 320.833729 
L 149.094379 301.973258 
L 156.502581 281.486123 
L 197.186644 266.486385 
L 229.28373 258.251649 
L 234.888213 257.168069 
L 246.62212 318.403171 
L 251.966918 346.6 
" clip-path="url(#p9d50c0671a)" style="fill: none; stroke: #8f8f8f; stroke-width: 0.2; stroke-linecap: square"/>
   </g>
   <g id="line2d_87">
    <path clip-path="url(#p9d50c0671a)" style="fill: none; stroke: #8f8f8f; stroke-width: 0.2; stroke-linecap: square"/>
   </g>
   <g id="line2d_88">
    <path clip-path="url(#p9d50c0671a)" style="fill: none; stroke: #8f8f8f; stroke-width: 0.2; stroke-linecap: square"/>
   </g>
   <g id="line2d_89">
    <path d="M 84.578861 346.6 
L 84.21359 346.357874 
L 83.973246 343.128837 
L 86.071396 341.867625 
L 89.680275 341.964984 
L 93.763385 340.09651 
L 94.655691 340.046902 
L 94.702553 340.048141 
L 95.391957 340.579003 
L 95.725018 343.956636 
L 96.590659 344.931478 
L 99.515482 346.106522 
L 100.02192 346.6 
M 103.231448 346.6 
L 103.892609 345.560645 
L 104.286538 343.007569 
L 108.820174 343.635775 
L 109.287066 343.720818 
L 110.935915 345.300271 
L 110.01107 346.6 
" clip-path="url(#p9d50c0671a)" style="fill: none; stroke: #8f8f8f; stroke-width: 0.2; stroke-linecap: square"/>
   </g>
   <g id="line2d_90">
    <path clip-path="url(#p9d50c0671a)" style="fill: none; stroke: #8f8f8f; stroke-width: 0.2; stroke-linecap: square"/>
   </g>
   <g id="line2d_91">
    <path clip-path="url(#p9d50c0671a)" style="fill: none; stroke: #8f8f8f; stroke-width: 0.2; stroke-linecap: square"/>
   </g>
   <g id="line2d_92">
    <path clip-path="url(#p9d50c0671a)" style="fill: none; stroke: #8f8f8f; stroke-width: 0.2; stroke-linecap: square"/>
   </g>
   <g id="line2d_93">
    <path clip-path="url(#p9d50c0671a)" style="fill: none; stroke: #8f8f8f; stroke-width: 0.2; stroke-linecap: square"/>
   </g>
   <g id="line2d_94">
    <path clip-path="url(#p9d50c0671a)" style="fill: none; stroke: #8f8f8f; stroke-width: 0.2; stroke-linecap: square"/>
   </g>
   <g id="line2d_95">
    <path d="M 461.8 324.347681 
L 412.70001 231.930502 
L 372.111765 208.535876 
L 369.302037 194.760335 
L 461.8 138.783177 
" clip-path="url(#p9d50c0671a)" style="fill: none; stroke: #8f8f8f; stroke-width: 0.2; stroke-linecap: square"/>
   </g>
   <g id="line2d_96">
    <path d="M 461.8 138.783177 
L 369.302037 194.760335 
L 353.9604 119.420984 
L 439.546672 82.44749 
L 461.8 72.847662 
" clip-path="url(#p9d50c0671a)" style="fill: none; stroke: #8f8f8f; stroke-width: 0.2; stroke-linecap: square"/>
   </g>
   <g id="line2d_97">
    <path clip-path="url(#p9d50c0671a)" style="fill: none; stroke: #8f8f8f; stroke-width: 0.2; stroke-linecap: square"/>
   </g>
   <g id="line2d_98">
    <path clip-path="url(#p9d50c0671a)" style="fill: none; stroke: #8f8f8f; stroke-width: 0.2; stroke-linecap: square"/>
   </g>
   <g id="line2d_99">
    <path clip-path="url(#p9d50c0671a)" style="fill: none; stroke: #8f8f8f; stroke-width: 0.2; stroke-linecap: square"/>
   </g>
   <g id="line2d_100">
    <path clip-path="url(#p9d50c0671a)" style="fill: none; stroke: #8f8f8f; stroke-width: 0.2; stroke-linecap: square"/>
   </g>
   <g id="line2d_101">
    <path clip-path="url(#p9d50c0671a)" style="fill: none; stroke: #8f8f8f; stroke-width: 0.2; stroke-linecap: square"/>
   </g>
   <g id="line2d_102">
    <path clip-path="url(#p9d50c0671a)" style="fill: none; stroke: #8f8f8f; stroke-width: 0.2; stroke-linecap: square"/>
   </g>
   <g id="line2d_103">
    <path clip-path="url(#p9d50c0671a)" style="fill: none; stroke: #8f8f8f; stroke-width: 0.2; stroke-linecap: square"/>
   </g>
   <g id="line2d_104">
    <path clip-path="url(#p9d50c0671a)" style="fill: none; stroke: #8f8f8f; stroke-width: 0.2; stroke-linecap: square"/>
   </g>
   <g id="line2d_105">
    <path clip-path="url(#p9d50c0671a)" style="fill: none; stroke: #8f8f8f; stroke-width: 0.2; stroke-linecap: square"/>
   </g>
   <g id="line2d_106">
    <path clip-path="url(#p9d50c0671a)" style="fill: none; stroke: #8f8f8f; stroke-width: 0.2; stroke-linecap: square"/>
   </g>
   <g id="line2d_107">
    <path clip-path="url(#p9d50c0671a)" style="fill: none; stroke: #8f8f8f; stroke-width: 0.2; stroke-linecap: square"/>
   </g>
   <g id="line2d_108">
    <path clip-path="url(#p9d50c0671a)" style="fill: none; stroke: #8f8f8f; stroke-width: 0.2; stroke-linecap: square"/>
   </g>
   <g id="line2d_109">
    <path clip-path="url(#p9d50c0671a)" style="fill: none; stroke: #8f8f8f; stroke-width: 0.2; stroke-linecap: square"/>
   </g>
   <g id="line2d_110">
    <path clip-path="url(#p9d50c0671a)" style="fill: none; stroke: #8f8f8f; stroke-width: 0.2; stroke-linecap: square"/>
   </g>
   <g id="line2d_111">
    <path clip-path="url(#p9d50c0671a)" style="fill: none; stroke: #8f8f8f; stroke-width: 0.2; stroke-linecap: square"/>
   </g>
   <g id="line2d_112">
    <path clip-path="url(#p9d50c0671a)" style="fill: none; stroke: #8f8f8f; stroke-width: 0.2; stroke-linecap: square"/>
   </g>
   <g id="line2d_113">
    <path clip-path="url(#p9d50c0671a)" style="fill: none; stroke: #8f8f8f; stroke-width: 0.2; stroke-linecap: square"/>
   </g>
   <g id="line2d_114">
    <path clip-path="url(#p9d50c0671a)" style="fill: none; stroke: #8f8f8f; stroke-width: 0.2; stroke-linecap: square"/>
   </g>
   <g id="line2d_115">
    <path clip-path="url(#p9d50c0671a)" style="fill: none; stroke: #8f8f8f; stroke-width: 0.2; stroke-linecap: square"/>
   </g>
   <g id="line2d_116">
    <path clip-path="url(#p9d50c0671a)" style="fill: none; stroke: #8f8f8f; stroke-width: 0.2; stroke-linecap: square"/>
   </g>
   <g id="line2d_117">
    <path clip-path="url(#p9d50c0671a)" style="fill: none; stroke: #8f8f8f; stroke-width: 0.2; stroke-linecap: square"/>
   </g>
   <g id="line2d_118">
    <path clip-path="url(#p9d50c0671a)" style="fill: none; stroke: #8f8f8f; stroke-width: 0.2; stroke-linecap: square"/>
   </g>
   <g id="line2d_119">
    <path clip-path="url(#p9d50c0671a)" style="fill: none; stroke: #8f8f8f; stroke-width: 0.2; stroke-linecap: square"/>
   </g>
   <g id="line2d_120">
    <path clip-path="url(#p9d50c0671a)" style="fill: none; stroke: #8f8f8f; stroke-width: 0.2; stroke-linecap: square"/>
   </g>
   <g id="line2d_121">
    <path clip-path="url(#p9d50c0671a)" style="fill: none; stroke: #8f8f8f; stroke-width: 0.2; stroke-linecap: square"/>
   </g>
   <g id="line2d_122">
    <path clip-path="url(#p9d50c0671a)" style="fill: none; stroke: #8f8f8f; stroke-width: 0.2; stroke-linecap: square"/>
   </g>
   <g id="line2d_123">
    <path clip-path="url(#p9d50c0671a)" style="fill: none; stroke: #8f8f8f; stroke-width: 0.2; stroke-linecap: square"/>
   </g>
   <g id="line2d_124">
    <path clip-path="url(#p9d50c0671a)" style="fill: none; stroke: #8f8f8f; stroke-width: 0.2; stroke-linecap: square"/>
   </g>
   <g id="line2d_125">
    <path clip-path="url(#p9d50c0671a)" style="fill: none; stroke: #8f8f8f; stroke-width: 0.2; stroke-linecap: square"/>
   </g>
   <g id="line2d_126">
    <path clip-path="url(#p9d50c0671a)" style="fill: none; stroke: #8f8f8f; stroke-width: 0.2; stroke-linecap: square"/>
   </g>
   <g id="line2d_127">
    <path clip-path="url(#p9d50c0671a)" style="fill: none; stroke: #8f8f8f; stroke-width: 0.2; stroke-linecap: square"/>
   </g>
   <g id="line2d_128">
    <path clip-path="url(#p9d50c0671a)" style="fill: none; stroke: #8f8f8f; stroke-width: 0.2; stroke-linecap: square"/>
   </g>
   <g id="line2d_129">
    <path clip-path="url(#p9d50c0671a)" style="fill: none; stroke: #8f8f8f; stroke-width: 0.2; stroke-linecap: square"/>
   </g>
   <g id="line2d_130">
    <path clip-path="url(#p9d50c0671a)" style="fill: none; stroke: #8f8f8f; stroke-width: 0.2; stroke-linecap: square"/>
   </g>
   <g id="line2d_131">
    <path d="M 367.08918 -1 
L 359.494718 2.899749 
L 357.772247 -1 
" clip-path="url(#p9d50c0671a)" style="fill: none; stroke: #8f8f8f; stroke-width: 0.2; stroke-linecap: square"/>
   </g>
   <g id="line2d_132">
    <path clip-path="url(#p9d50c0671a)" style="fill: none; stroke: #8f8f8f; stroke-width: 0.2; stroke-linecap: square"/>
   </g>
   <g id="line2d_133">
    <path clip-path="url(#p9d50c0671a)" style="fill: none; stroke: #8f8f8f; stroke-width: 0.2; stroke-linecap: square"/>
   </g>
   <g id="line2d_134">
    <path clip-path="url(#p9d50c0671a)" style="fill: none; stroke: #8f8f8f; stroke-width: 0.2; stroke-linecap: square"/>
   </g>
   <g id="line2d_135">
    <path d="M 373.90473 341.847404 
L 386.475716 346.6 
M 374.013902 346.6 
L 373.90473 341.847404 
" clip-path="url(#p9d50c0671a)" style="fill: none; stroke: #8f8f8f; stroke-width: 0.2; stroke-linecap: square"/>
   </g>
   <g id="line2d_136">
    <path clip-path="url(#p9d50c0671a)" style="fill: none; stroke: #8f8f8f; stroke-width: 0.2; stroke-linecap: square"/>
   </g>
   <g id="line2d_137">
    <path clip-path="url(#p9d50c0671a)" style="fill: none; stroke: #8f8f8f; stroke-width: 0.2; stroke-linecap: square"/>
   </g>
   <g id="line2d_138">
    <path clip-path="url(#p9d50c0671a)" style="fill: none; stroke: #8f8f8f; stroke-width: 0.2; stroke-linecap: square"/>
   </g>
   <g id="line2d_139">
    <path clip-path="url(#p9d50c0671a)" style="fill: none; stroke: #8f8f8f; stroke-width: 0.2; stroke-linecap: square"/>
   </g>
   <g id="line2d_140">
    <path clip-path="url(#p9d50c0671a)" style="fill: none; stroke: #8f8f8f; stroke-width: 0.2; stroke-linecap: square"/>
   </g>
   <g id="line2d_141">
    <path clip-path="url(#p9d50c0671a)" style="fill: none; stroke: #8f8f8f; stroke-width: 0.2; stroke-linecap: square"/>
   </g>
   <g id="line2d_142">
    <path clip-path="url(#p9d50c0671a)" style="fill: none; stroke: #8f8f8f; stroke-width: 0.2; stroke-linecap: square"/>
   </g>
   <g id="line2d_143">
    <path clip-path="url(#p9d50c0671a)" style="fill: none; stroke: #8f8f8f; stroke-width: 0.2; stroke-linecap: square"/>
   </g>
   <g id="line2d_144">
    <path clip-path="url(#p9d50c0671a)" style="fill: none; stroke: #8f8f8f; stroke-width: 0.2; stroke-linecap: square"/>
   </g>
   <g id="line2d_145">
    <path clip-path="url(#p9d50c0671a)" style="fill: none; stroke: #8f8f8f; stroke-width: 0.2; stroke-linecap: square"/>
   </g>
   <g id="line2d_146">
    <path clip-path="url(#p9d50c0671a)" style="fill: none; stroke: #8f8f8f; stroke-width: 0.2; stroke-linecap: square"/>
   </g>
   <g id="line2d_147">
    <path clip-path="url(#p9d50c0671a)" style="fill: none; stroke: #8f8f8f; stroke-width: 0.2; stroke-linecap: square"/>
   </g>
   <g id="line2d_148">
    <path clip-path="url(#p9d50c0671a)" style="fill: none; stroke: #8f8f8f; stroke-width: 0.2; stroke-linecap: square"/>
   </g>
   <g id="line2d_149">
    <path clip-path="url(#p9d50c0671a)" style="fill: none; stroke: #8f8f8f; stroke-width: 0.2; stroke-linecap: square"/>
   </g>
   <g id="line2d_150">
    <path clip-path="url(#p9d50c0671a)" style="fill: none; stroke: #8f8f8f; stroke-width: 0.2; stroke-linecap: square"/>
   </g>
   <g id="line2d_151">
    <path clip-path="url(#p9d50c0671a)" style="fill: none; stroke: #8f8f8f; stroke-width: 0.2; stroke-linecap: square"/>
   </g>
   <g id="line2d_152">
    <path d="M 0 0 
" clip-path="url(#p9d50c0671a)" style="fill: none; stroke: #8f8f8f; stroke-width: 0.2; stroke-linecap: square"/>
   </g>
   <g id="line2d_153">
    <path d="M 0 0 
" clip-path="url(#p9d50c0671a)" style="fill: none; stroke: #8f8f8f; stroke-width: 0.2; stroke-linecap: square"/>
   </g>
   <g id="line2d_154">
    <path clip-path="url(#p9d50c0671a)" style="fill: none; stroke: #8f8f8f; stroke-width: 0.2; stroke-linecap: square"/>
   </g>
   <g id="line2d_155">
    <path clip-path="url(#p9d50c0671a)" style="fill: none; stroke: #8f8f8f; stroke-width: 0.2; stroke-linecap: square"/>
   </g>
   <g id="line2d_156">
    <path d="M 0 0 
" clip-path="url(#p9d50c0671a)" style="fill: none; stroke: #8f8f8f; stroke-width: 0.2; stroke-linecap: square"/>
   </g>
   <g id="line2d_157">
    <path d="M 0 0 
" clip-path="url(#p9d50c0671a)" style="fill: none; stroke: #8f8f8f; stroke-width: 0.2; stroke-linecap: square"/>
   </g>
   <g id="line2d_158">
    <path clip-path="url(#p9d50c0671a)" style="fill: none; stroke: #8f8f8f; stroke-width: 0.2; stroke-linecap: square"/>
   </g>
   <g id="line2d_159">
    <path clip-path="url(#p9d50c0671a)" style="fill: none; stroke: #8f8f8f; stroke-width: 0.2; stroke-linecap: square"/>
   </g>
   <g id="line2d_160">
    <path clip-path="url(#p9d50c0671a)" style="fill: none; stroke: #8f8f8f; stroke-width: 0.2; stroke-linecap: square"/>
   </g>
   <g id="line2d_161">
    <path clip-path="url(#p9d50c0671a)" style="fill: none; stroke: #8f8f8f; stroke-width: 0.2; stroke-linecap: square"/>
   </g>
   <g id="line2d_162">
    <path d="M 0 0 
" clip-path="url(#p9d50c0671a)" style="fill: none; stroke: #8f8f8f; stroke-width: 0.2; stroke-linecap: square"/>
   </g>
   <g id="line2d_163">
    <path clip-path="url(#p9d50c0671a)" style="fill: none; stroke: #8f8f8f; stroke-width: 0.2; stroke-linecap: square"/>
   </g>
   <g id="line2d_164">
    <path clip-path="url(#p9d50c0671a)" style="fill: none; stroke: #8f8f8f; stroke-width: 0.2; stroke-linecap: square"/>
   </g>
   <g id="line2d_165">
    <path clip-path="url(#p9d50c0671a)" style="fill: none; stroke: #8f8f8f; stroke-width: 0.2; stroke-linecap: square"/>
   </g>
   <g id="line2d_166">
    <path clip-path="url(#p9d50c0671a)" style="fill: none; stroke: #8f8f8f; stroke-width: 0.2; stroke-linecap: square"/>
   </g>
   <g id="line2d_167">
    <path clip-path="url(#p9d50c0671a)" style="fill: none; stroke: #8f8f8f; stroke-width: 0.2; stroke-linecap: square"/>
   </g>
   <g id="line2d_168">
    <path clip-path="url(#p9d50c0671a)" style="fill: none; stroke: #8f8f8f; stroke-width: 0.2; stroke-linecap: square"/>
   </g>
   <g id="line2d_169">
    <path clip-path="url(#p9d50c0671a)" style="fill: none; stroke: #8f8f8f; stroke-width: 0.2; stroke-linecap: square"/>
   </g>
   <g id="line2d_170">
    <path clip-path="url(#p9d50c0671a)" style="fill: none; stroke: #8f8f8f; stroke-width: 0.2; stroke-linecap: square"/>
   </g>
   <g id="line2d_171">
    <path clip-path="url(#p9d50c0671a)" style="fill: none; stroke: #8f8f8f; stroke-width: 0.2; stroke-linecap: square"/>
   </g>
   <g id="line2d_172">
    <path clip-path="url(#p9d50c0671a)" style="fill: none; stroke: #8f8f8f; stroke-width: 0.2; stroke-linecap: square"/>
   </g>
   <g id="line2d_173">
    <path clip-path="url(#p9d50c0671a)" style="fill: none; stroke: #8f8f8f; stroke-width: 0.2; stroke-linecap: square"/>
   </g>
   <g id="line2d_174">
    <path clip-path="url(#p9d50c0671a)" style="fill: none; stroke: #8f8f8f; stroke-width: 0.2; stroke-linecap: square"/>
   </g>
   <g id="line2d_175">
    <path clip-path="url(#p9d50c0671a)" style="fill: none; stroke: #8f8f8f; stroke-width: 0.2; stroke-linecap: square"/>
   </g>
   <g id="line2d_176">
    <path clip-path="url(#p9d50c0671a)" style="fill: none; stroke: #8f8f8f; stroke-width: 0.2; stroke-linecap: square"/>
   </g>
   <g id="line2d_177">
    <path clip-path="url(#p9d50c0671a)" style="fill: none; stroke: #8f8f8f; stroke-width: 0.2; stroke-linecap: square"/>
   </g>
   <g id="line2d_178">
    <path d="M 372.111765 208.535876 
L 412.70001 231.930502 
L 461.8 324.347681 
M 194.409825 346.6 
L 200.621524 318.753998 
L 257.302412 324.33628 
L 246.527631 257.19608 
L 302.584512 256.786111 
L 345.312453 271.563004 
L 355.053297 295.488 
L 380.399335 285.06831 
L 360.723634 239.591724 
L 357.590126 234.742932 
L 345.403474 215.634729 
L 372.111765 208.535876 
" clip-path="url(#p9d50c0671a)" style="fill: none; stroke: #8f8f8f; stroke-width: 0.2; stroke-linecap: square"/>
   </g>
   <g id="line2d_179">
    <path d="M 461.8 150.841222 
L 439.290435 152.507354 
L 430.979209 140.360023 
L 461.8 122.338071 
M 461.8 59.141099 
L 399.590465 94.719627 
L 371.269794 29.976203 
L 359.494718 2.899749 
L 367.08918 -1 
" clip-path="url(#p9d50c0671a)" style="fill: none; stroke: #8f8f8f; stroke-width: 0.2; stroke-linecap: square"/>
   </g>
   <g id="line2d_180">
    <path d="M 461.8 122.338071 
L 430.979209 140.360023 
L 399.590465 94.719627 
L 461.8 59.141099 
" clip-path="url(#p9d50c0671a)" style="fill: none; stroke: #8f8f8f; stroke-width: 0.2; stroke-linecap: square"/>
   </g>
   <g id="line2d_181">
    <path d="M 461.8 156.827684 
L 450.338847 161.862534 
L 439.290435 152.507354 
L 430.979209 140.360023 
L 461.8 122.338071 
M 461.8 59.141099 
L 399.590465 94.719627 
L 371.269794 29.976203 
L 359.494718 2.899749 
L 367.08918 -1 
" clip-path="url(#p9d50c0671a)" style="fill: none; stroke: #8f8f8f; stroke-width: 0.2; stroke-linecap: square"/>
   </g>
   <g id="line2d_182">
    <path d="M 461.8 122.338071 
L 430.979209 140.360023 
L 399.590465 94.719627 
L 461.8 59.141099 
" clip-path="url(#p9d50c0671a)" style="fill: none; stroke: #8f8f8f; stroke-width: 0.2; stroke-linecap: square"/>
   </g>
   <g id="line2d_183">
    <path clip-path="url(#p9d50c0671a)" style="fill: none; stroke: #8f8f8f; stroke-width: 0.2; stroke-linecap: square"/>
   </g>
   <g id="line2d_184">
    <path clip-path="url(#p9d50c0671a)" style="fill: none; stroke: #8f8f8f; stroke-width: 0.2; stroke-linecap: square"/>
   </g>
   <g id="line2d_185">
    <path clip-path="url(#p9d50c0671a)" style="fill: none; stroke: #8f8f8f; stroke-width: 0.2; stroke-linecap: square"/>
   </g>
   <g id="line2d_186">
    <path clip-path="url(#p9d50c0671a)" style="fill: none; stroke: #8f8f8f; stroke-width: 0.2; stroke-linecap: square"/>
   </g>
   <g id="line2d_187">
    <path clip-path="url(#p9d50c0671a)" style="fill: none; stroke: #8f8f8f; stroke-width: 0.2; stroke-linecap: square"/>
   </g>
   <g id="line2d_188">
    <path clip-path="url(#p9d50c0671a)" style="fill: none; stroke: #8f8f8f; stroke-width: 0.2; stroke-linecap: square"/>
   </g>
   <g id="line2d_189">
    <path clip-path="url(#p9d50c0671a)" style="fill: none; stroke: #8f8f8f; stroke-width: 0.2; stroke-linecap: square"/>
   </g>
   <g id="line2d_190">
    <path clip-path="url(#p9d50c0671a)" style="fill: none; stroke: #8f8f8f; stroke-width: 0.2; stroke-linecap: square"/>
   </g>
   <g id="line2d_191">
    <path clip-path="url(#p9d50c0671a)" style="fill: none; stroke: #8f8f8f; stroke-width: 0.2; stroke-linecap: square"/>
   </g>
   <g id="line2d_192">
    <path clip-path="url(#p9d50c0671a)" style="fill: none; stroke: #8f8f8f; stroke-width: 0.2; stroke-linecap: square"/>
   </g>
   <g id="line2d_193">
    <path d="M 234.888213 257.168069 
L 246.527631 257.19608 
L 302.584512 256.786111 
L 345.312453 271.563004 
L 355.053297 295.488 
L 367.004354 324.832923 
L 373.90473 341.847404 
L 374.013902 346.6 
M 251.966918 346.6 
L 246.62212 318.403171 
L 234.888213 257.168069 
" clip-path="url(#p9d50c0671a)" style="fill: none; stroke: #8f8f8f; stroke-width: 0.2; stroke-linecap: square"/>
   </g>
   <g id="line2d_194">
    <path d="M 302.584512 256.786111 
L 338.475249 256.655352 
L 345.312453 271.563004 
L 302.584512 256.786111 
" clip-path="url(#p9d50c0671a)" style="fill: none; stroke: #8f8f8f; stroke-width: 0.2; stroke-linecap: square"/>
   </g>
   <g id="line2d_195">
    <path d="M 373.90473 341.847404 
L 386.475716 346.6 
M 374.013902 346.6 
L 373.90473 341.847404 
" clip-path="url(#p9d50c0671a)" style="fill: none; stroke: #8f8f8f; stroke-width: 0.2; stroke-linecap: square"/>
   </g>
   <g id="line2d_196">
    <path d="M 234.888213 257.168069 
L 246.527631 257.19608 
L 257.302412 324.33628 
L 200.621524 318.753998 
L 229.28373 258.251649 
L 234.888213 257.168069 
" clip-path="url(#p9d50c0671a)" style="fill: none; stroke: #8f8f8f; stroke-width: 0.2; stroke-linecap: square"/>
   </g>
   <g id="line2d_197">
    <path d="M 149.094379 301.973258 
L 156.502581 281.486123 
L 197.186644 266.486385 
L 229.28373 258.251649 
L 234.888213 257.168069 
L 246.62212 318.403171 
L 251.966918 346.6 
M 126.822214 346.6 
L 127.157224 341.743213 
L 128.531883 321.418121 
L 128.59261 320.833729 
L 149.094379 301.973258 
" clip-path="url(#p9d50c0671a)" style="fill: none; stroke: #8f8f8f; stroke-width: 0.2; stroke-linecap: square"/>
   </g>
   <g id="line2d_198">
    <path d="M 461.8 234.190419 
L 434.046834 188.894168 
L 423.774978 173.595211 
L 450.338847 161.862534 
L 461.8 156.827684 
" clip-path="url(#p9d50c0671a)" style="fill: none; stroke: #8f8f8f; stroke-width: 0.2; stroke-linecap: square"/>
   </g>
   <g id="line2d_199">
    <path d="M 461.8 156.827684 
L 450.338847 161.862534 
L 439.290435 152.507354 
L 461.8 150.841222 
" clip-path="url(#p9d50c0671a)" style="fill: none; stroke: #8f8f8f; stroke-width: 0.2; stroke-linecap: square"/>
   </g>
   <g id="line2d_200">
    <path d="M 399.590465 94.719627 
L 430.979209 140.360023 
L 439.290435 152.507354 
L 450.338847 161.862534 
L 423.774978 173.595211 
L 434.046834 188.894168 
L 401.600172 208.779594 
L 353.311629 112.535393 
L 321.308157 99.707272 
L 347.744003 98.517247 
L 389.247729 96.66809 
L 399.590465 94.719627 
" clip-path="url(#p9d50c0671a)" style="fill: none; stroke: #8f8f8f; stroke-width: 0.2; stroke-linecap: square"/>
   </g>
   <g id="line2d_201">
    <path clip-path="url(#p9d50c0671a)" style="fill: none; stroke: #8f8f8f; stroke-width: 0.2; stroke-linecap: square"/>
   </g>
   <g id="line2d_202">
    <path d="M 434.046834 188.894168 
L 461.8 234.190419 
M 461.8 248.994208 
L 440.413751 259.530961 
L 401.600172 208.779594 
L 434.046834 188.894168 
" clip-path="url(#p9d50c0671a)" style="fill: none; stroke: #8f8f8f; stroke-width: 0.2; stroke-linecap: square"/>
   </g>
   <g id="line2d_203">
    <path clip-path="url(#p9d50c0671a)" style="fill: none; stroke: #8f8f8f; stroke-width: 0.2; stroke-linecap: square"/>
   </g>
   <g id="line2d_204">
    <path clip-path="url(#p9d50c0671a)" style="fill: none; stroke: #8f8f8f; stroke-width: 0.2; stroke-linecap: square"/>
   </g>
   <g id="line2d_205">
    <path clip-path="url(#p9d50c0671a)" style="fill: none; stroke: #8f8f8f; stroke-width: 0.2; stroke-linecap: square"/>
   </g>
   <g id="line2d_206">
    <path clip-path="url(#p9d50c0671a)" style="fill: none; stroke: #8f8f8f; stroke-width: 0.2; stroke-linecap: square"/>
   </g>
   <g id="line2d_207">
    <path d="M 401.600172 208.779594 
L 440.413751 259.530961 
L 461.8 248.994208 
M 461.8 314.610746 
L 461.55865 314.686579 
L 406.210437 331.842439 
L 378.784417 340.330099 
L 373.90473 341.847404 
L 367.004354 324.832923 
L 355.053297 295.488 
L 380.399335 285.06831 
L 360.723634 239.591724 
L 357.590126 234.742932 
L 380.500181 221.747515 
L 381.291155 221.23807 
L 401.600172 208.779594 
" clip-path="url(#p9d50c0671a)" style="fill: none; stroke: #8f8f8f; stroke-width: 0.2; stroke-linecap: square"/>
   </g>
   <g id="line2d_208">
    <path d="M 321.308157 99.707272 
L 353.311629 112.535393 
L 401.600172 208.779594 
L 381.291155 221.23807 
L 380.500181 221.747515 
L 357.590126 234.742932 
L 289.865696 128.679612 
L 279.83024 120.289867 
L 307.191495 100.308764 
L 321.308157 99.707272 
" clip-path="url(#p9d50c0671a)" style="fill: none; stroke: #8f8f8f; stroke-width: 0.2; stroke-linecap: square"/>
   </g>
   <g id="line2d_209">
    <path d="M 434.046834 188.894168 
L 461.8 234.190419 
M 461.8 248.994208 
L 440.413751 259.530961 
L 401.600172 208.779594 
L 434.046834 188.894168 
" clip-path="url(#p9d50c0671a)" style="fill: none; stroke: #8f8f8f; stroke-width: 0.2; stroke-linecap: square"/>
   </g>
   <g id="line2d_210">
    <path clip-path="url(#p9d50c0671a)" style="fill: none; stroke: #8f8f8f; stroke-width: 0.2; stroke-linecap: square"/>
   </g>
   <g id="line2d_211">
    <path d="M 386.475716 346.6 
L 373.90473 341.847404 
L 378.784417 340.330099 
L 406.210437 331.842439 
L 461.55865 314.686579 
L 461.8 314.610746 
" clip-path="url(#p9d50c0671a)" style="fill: none; stroke: #8f8f8f; stroke-width: 0.2; stroke-linecap: square"/>
   </g>
   <g id="line2d_212">
    <path d="M 357.590126 234.742932 
L 360.723634 239.591724 
L 380.399335 285.06831 
L 355.053297 295.488 
L 345.312453 271.563004 
L 338.475249 256.655352 
L 334.258411 247.912975 
L 357.590126 234.742932 
" clip-path="url(#p9d50c0671a)" style="fill: none; stroke: #8f8f8f; stroke-width: 0.2; stroke-linecap: square"/>
   </g>
   <g id="line2d_213">
    <path clip-path="url(#p9d50c0671a)" style="fill: none; stroke: #8f8f8f; stroke-width: 0.2; stroke-linecap: square"/>
   </g>
   <g id="line2d_214">
    <path clip-path="url(#p9d50c0671a)" style="fill: none; stroke: #8f8f8f; stroke-width: 0.2; stroke-linecap: square"/>
   </g>
   <g id="line2d_215">
    <path clip-path="url(#p9d50c0671a)" style="fill: none; stroke: #8f8f8f; stroke-width: 0.2; stroke-linecap: square"/>
   </g>
   <g id="line2d_216">
    <path d="M 108.15751 162.06846 
L 107.966653 165.871914 
L 107.259075 186.067265 
L 97.936997 189.997237 
L 98.593732 186.206254 
L 96.720065 183.519698 
L 93.281253 178.813145 
L 91.920665 176.066387 
L 99.269466 172.966381 
L 99.124845 171.425969 
L 98.556959 170.165056 
L 97.599707 166.185295 
L 108.15751 162.06846 
" clip-path="url(#p9d50c0671a)" style="fill: none; stroke: #8f8f8f; stroke-width: 0.2; stroke-linecap: square"/>
   </g>
   <g id="line2d_217">
    <path clip-path="url(#p9d50c0671a)" style="fill: none; stroke: #8f8f8f; stroke-width: 0.2; stroke-linecap: square"/>
   </g>
   <g id="line2d_218">
    <path d="M 461.8 72.847662 
L 439.546672 82.44749 
L 410.948456 20.724679 
L 388.152002 -1 
" clip-path="url(#p9d50c0671a)" style="fill: none; stroke: #8f8f8f; stroke-width: 0.2; stroke-linecap: square"/>
   </g>
   <g id="line2d_219">
    <path d="M 345.403474 215.634729 
L 282.153128 232.478381 
L 92.285663 108.400135 
L 97.610555 102.098988 
L 126.264575 83.64777 
L 117.645401 77.573389 
L 109.733576 81.691711 
L 108.853048 62.625722 
L 111.380663 60.640608 
L 135.784191 29.462332 
L 136.024645 19.434194 
L 136.416187 3.11085 
L 134.582047 -1 
M 388.152002 -1 
L 410.948456 20.724679 
L 439.546672 82.44749 
L 353.9604 119.420984 
L 369.302037 194.760335 
L 372.111765 208.535876 
L 345.403474 215.634729 
" clip-path="url(#p9d50c0671a)" style="fill: none; stroke: #8f8f8f; stroke-width: 0.2; stroke-linecap: square"/>
   </g>
   <g id="line2d_220">
    <path d="M 258.618251 102.517514 
L 279.83024 120.289867 
L 260.391906 134.390994 
L 278.126529 154.460111 
L 222.80204 199.573415 
L 207.375881 212.195587 
L 190.992437 214.896199 
L 137.836471 209.449001 
L 120.164837 218.544311 
L 113.671854 221.897247 
L 106.278553 213.212882 
L 107.259075 186.067265 
L 107.966653 165.871914 
L 108.15751 162.06846 
L 107.067934 155.961417 
L 136.777013 116.858001 
L 159.765717 148.210353 
L 198.45823 120.506193 
L 221.897302 104.153167 
L 258.618251 102.517514 
L 258.618251 102.517514 
" clip-path="url(#p9d50c0671a)" style="fill: none; stroke: #ffc380; stroke-width: 0.5; stroke-linecap: square"/>
   </g>
   <g id="line2d_221">
    <path d="M 222.608759 53.568 
L 241.184593 78.834467 
L 258.618251 102.517514 
L 221.897302 104.153167 
L 198.45823 120.506193 
L 159.765717 148.210353 
L 136.777013 116.858001 
L 175.073109 88.632849 
L 222.608759 53.568 
L 222.608759 53.568 
" clip-path="url(#p9d50c0671a)" style="fill: none; stroke: #ffc380; stroke-width: 0.5; stroke-linecap: square"/>
   </g>
   <g id="line2d_222">
    <path d="M 279.83024 120.289867 
L 289.865696 128.679612 
L 357.590126 234.742932 
L 334.258411 247.912975 
L 338.475249 256.655352 
L 302.584512 256.786111 
L 246.527631 257.19608 
L 243.291964 249.314813 
L 237.997833 236.422826 
L 222.80204 199.573415 
L 278.126529 154.460111 
L 260.391906 134.390994 
L 279.83024 120.289867 
L 279.83024 120.289867 
" clip-path="url(#p9d50c0671a)" style="fill: none; stroke: #ffc380; stroke-width: 0.5; stroke-linecap: square"/>
   </g>
   <g id="line2d_223">
    <path d="M 357.590126 234.742932 
L 360.723634 239.591724 
L 380.399335 285.06831 
L 355.053297 295.488 
L 345.312453 271.563004 
L 302.584512 256.786111 
L 338.475249 256.655352 
L 334.258411 247.912975 
L 357.590126 234.742932 
L 357.590126 234.742932 
" clip-path="url(#p9d50c0671a)" style="fill: none; stroke: #ffc380; stroke-width: 0.5; stroke-linecap: square"/>
   </g>
   <g id="line2d_224">
    <path d="M 345.403474 215.634729 
L 357.590126 234.742932 
L 360.723634 239.591724 
L 380.399335 285.06831 
L 355.053297 295.488 
L 345.312453 271.563004 
L 302.584512 256.786111 
L 246.527631 257.19608 
L 234.888213 257.168069 
L 229.28373 258.251649 
L 260.51608 238.283062 
L 282.153128 232.478381 
L 345.403474 215.634729 
L 345.403474 215.634729 
" clip-path="url(#p9d50c0671a)" style="fill: none; stroke: #ffc380; stroke-width: 0.5; stroke-linecap: square"/>
   </g>
   <g id="line2d_225">
    <path d="M 222.80204 199.573415 
L 237.997833 236.422826 
L 243.291964 249.314813 
L 246.527631 257.19608 
L 234.888213 257.168069 
L 229.28373 258.251649 
L 197.186644 266.486385 
L 156.502581 281.486123 
L 113.671854 221.897247 
L 120.164837 218.544311 
L 137.836471 209.449001 
L 190.992437 214.896199 
L 207.375881 212.195587 
L 222.80204 199.573415 
L 222.80204 199.573415 
" clip-path="url(#p9d50c0671a)" style="fill: none; stroke: #ffc380; stroke-width: 0.5; stroke-linecap: square"/>
   </g>
   <g id="line2d_226">
    <path d="M 107.966653 165.871914 
L 107.259075 186.067265 
L 97.936997 189.997237 
L 98.593732 186.206254 
L 96.720065 183.519698 
L 93.281253 178.813145 
L 91.920665 176.066387 
L 97.599707 166.185295 
L 107.966653 165.871914 
L 107.966653 165.871914 
" clip-path="url(#p9d50c0671a)" style="fill: none; stroke: #ffc380; stroke-width: 0.5; stroke-linecap: square"/>
   </g>
   <g id="line2d_227">
    <path d="M 229.28373 258.251649 
L 239.543579 232.56591 
L 282.153128 232.478381 
L 260.51608 238.283062 
L 229.28373 258.251649 
L 229.28373 258.251649 
" clip-path="url(#p9d50c0671a)" style="fill: none; stroke: #ffc380; stroke-width: 0.5; stroke-linecap: square"/>
   </g>
   <g id="text_1">
    <!-- NOR1 -->
    <g transform="translate(184.75615 157.321525)scale(0.0579 -0.0579)">
     <defs>
      <path id="DejaVuSans-4e" d="M 628 4666 
L 1478 4666 
L 3547 763 
L 3547 4666 
L 4159 4666 
L 4159 0 
L 3309 0 
L 1241 3903 
L 1241 0 
L 628 0 
L 628 4666 
z
" transform="scale(0.015625)"/>
      <path id="DejaVuSans-4f" d="M 2522 4238 
Q 1834 4238 1429 3725 
Q 1025 3213 1025 2328 
Q 1025 1447 1429 934 
Q 1834 422 2522 422 
Q 3209 422 3611 934 
Q 4013 1447 4013 2328 
Q 4013 3213 3611 3725 
Q 3209 4238 2522 4238 
z
M 2522 4750 
Q 3503 4750 4090 4092 
Q 4678 3434 4678 2328 
Q 4678 1225 4090 567 
Q 3503 -91 2522 -91 
Q 1538 -91 948 565 
Q 359 1222 359 2328 
Q 359 3434 948 4092 
Q 1538 4750 2522 4750 
z
" transform="scale(0.015625)"/>
      <path id="DejaVuSans-52" d="M 2841 2188 
Q 3044 2119 3236 1894 
Q 3428 1669 3622 1275 
L 4263 0 
L 3584 0 
L 2988 1197 
Q 2756 1666 2539 1819 
Q 2322 1972 1947 1972 
L 1259 1972 
L 1259 0 
L 628 0 
L 628 4666 
L 2053 4666 
Q 2853 4666 3247 4331 
Q 3641 3997 3641 3322 
Q 3641 2881 3436 2590 
Q 3231 2300 2841 2188 
z
M 1259 4147 
L 1259 2491 
L 2053 2491 
Q 2509 2491 2742 2702 
Q 2975 2913 2975 3322 
Q 2975 3731 2742 3939 
Q 2509 4147 2053 4147 
L 1259 4147 
z
" transform="scale(0.015625)"/>
      <path id="DejaVuSans-31" d="M 794 531 
L 1825 531 
L 1825 4091 
L 703 3866 
L 703 4441 
L 1819 4666 
L 2450 4666 
L 2450 531 
L 3481 531 
L 3481 0 
L 794 0 
L 794 531 
z
" transform="scale(0.015625)"/>
     </defs>
     <use xlink:href="#DejaVuSans-4e"/>
     <use xlink:href="#DejaVuSans-4f" x="74.804688"/>
     <use xlink:href="#DejaVuSans-52" x="153.515625"/>
     <use xlink:href="#DejaVuSans-31" x="222.998047"/>
    </g>
    <!-- 245 -->
    <g transform="translate(187.528565 163.805059)scale(0.0579 -0.0579)">
     <defs>
      <path id="DejaVuSans-32" d="M 1228 531 
L 3431 531 
L 3431 0 
L 469 0 
L 469 531 
Q 828 903 1448 1529 
Q 2069 2156 2228 2338 
Q 2531 2678 2651 2914 
Q 2772 3150 2772 3378 
Q 2772 3750 2511 3984 
Q 2250 4219 1831 4219 
Q 1534 4219 1204 4116 
Q 875 4013 500 3803 
L 500 4441 
Q 881 4594 1212 4672 
Q 1544 4750 1819 4750 
Q 2544 4750 2975 4387 
Q 3406 4025 3406 3419 
Q 3406 3131 3298 2873 
Q 3191 2616 2906 2266 
Q 2828 2175 2409 1742 
Q 1991 1309 1228 531 
z
" transform="scale(0.015625)"/>
      <path id="DejaVuSans-34" d="M 2419 4116 
L 825 1625 
L 2419 1625 
L 2419 4116 
z
M 2253 4666 
L 3047 4666 
L 3047 1625 
L 3713 1625 
L 3713 1100 
L 3047 1100 
L 3047 0 
L 2419 0 
L 2419 1100 
L 313 1100 
L 313 1709 
L 2253 4666 
z
" transform="scale(0.015625)"/>
      <path id="DejaVuSans-35" d="M 691 4666 
L 3169 4666 
L 3169 4134 
L 1269 4134 
L 1269 2991 
Q 1406 3038 1543 3061 
Q 1681 3084 1819 3084 
Q 2600 3084 3056 2656 
Q 3513 2228 3513 1497 
Q 3513 744 3044 326 
Q 2575 -91 1722 -91 
Q 1428 -91 1123 -41 
Q 819 9 494 109 
L 494 744 
Q 775 591 1075 516 
Q 1375 441 1709 441 
Q 2250 441 2565 725 
Q 2881 1009 2881 1497 
Q 2881 1984 2565 2268 
Q 2250 2553 1709 2553 
Q 1456 2553 1204 2497 
Q 953 2441 691 2322 
L 691 4666 
z
" transform="scale(0.015625)"/>
     </defs>
     <use xlink:href="#DejaVuSans-32"/>
     <use xlink:href="#DejaVuSans-34" x="63.623047"/>
     <use xlink:href="#DejaVuSans-35" x="127.246094"/>
    </g>
    <!-- 105 -->
    <g transform="translate(187.528565 170.288592)scale(0.0579 -0.0579)">
     <defs>
      <path id="DejaVuSans-30" d="M 2034 4250 
Q 1547 4250 1301 3770 
Q 1056 3291 1056 2328 
Q 1056 1369 1301 889 
Q 1547 409 2034 409 
Q 2525 409 2770 889 
Q 3016 1369 3016 2328 
Q 3016 3291 2770 3770 
Q 2525 4250 2034 4250 
z
M 2034 4750 
Q 2819 4750 3233 4129 
Q 3647 3509 3647 2328 
Q 3647 1150 3233 529 
Q 2819 -91 2034 -91 
Q 1250 -91 836 529 
Q 422 1150 422 2328 
Q 422 3509 836 4129 
Q 1250 4750 2034 4750 
z
" transform="scale(0.015625)"/>
     </defs>
     <use xlink:href="#DejaVuSans-31"/>
     <use xlink:href="#DejaVuSans-30" x="63.623047"/>
     <use xlink:href="#DejaVuSans-35" x="127.246094"/>
    </g>
   </g>
   <g id="text_2">
    <!-- NOR2 -->
    <g transform="translate(189.399386 96.003321)scale(0.0579 -0.0579)">
     <use xlink:href="#DejaVuSans-4e"/>
     <use xlink:href="#DejaVuSans-4f" x="74.804688"/>
     <use xlink:href="#DejaVuSans-52" x="153.515625"/>
     <use xlink:href="#DejaVuSans-32" x="222.998047"/>
    </g>
    <!-- 245 -->
    <g transform="translate(192.171801 102.486855)scale(0.0579 -0.0579)">
     <use xlink:href="#DejaVuSans-32"/>
     <use xlink:href="#DejaVuSans-34" x="63.623047"/>
     <use xlink:href="#DejaVuSans-35" x="127.246094"/>
    </g>
    <!-- 155 -->
    <g transform="translate(192.171801 108.970388)scale(0.0579 -0.0579)">
     <use xlink:href="#DejaVuSans-31"/>
     <use xlink:href="#DejaVuSans-35" x="63.623047"/>
     <use xlink:href="#DejaVuSans-35" x="127.246094"/>
    </g>
   </g>
   <g id="text_3">
    <!-- NOR3 -->
    <g transform="translate(281.897837 183.857118)scale(0.0579 -0.0579)">
     <defs>
      <path id="DejaVuSans-33" d="M 2597 2516 
Q 3050 2419 3304 2112 
Q 3559 1806 3559 1356 
Q 3559 666 3084 287 
Q 2609 -91 1734 -91 
Q 1441 -91 1130 -33 
Q 819 25 488 141 
L 488 750 
Q 750 597 1062 519 
Q 1375 441 1716 441 
Q 2309 441 2620 675 
Q 2931 909 2931 1356 
Q 2931 1769 2642 2001 
Q 2353 2234 1838 2234 
L 1294 2234 
L 1294 2753 
L 1863 2753 
Q 2328 2753 2575 2939 
Q 2822 3125 2822 3475 
Q 2822 3834 2567 4026 
Q 2313 4219 1838 4219 
Q 1578 4219 1281 4162 
Q 984 4106 628 3988 
L 628 4550 
Q 988 4650 1302 4700 
Q 1616 4750 1894 4750 
Q 2613 4750 3031 4423 
Q 3450 4097 3450 3541 
Q 3450 3153 3228 2886 
Q 3006 2619 2597 2516 
z
" transform="scale(0.015625)"/>
     </defs>
     <use xlink:href="#DejaVuSans-4e"/>
     <use xlink:href="#DejaVuSans-4f" x="74.804688"/>
     <use xlink:href="#DejaVuSans-52" x="153.515625"/>
     <use xlink:href="#DejaVuSans-33" x="222.998047"/>
    </g>
    <!-- 245 -->
    <g transform="translate(284.670252 190.340652)scale(0.0579 -0.0579)">
     <use xlink:href="#DejaVuSans-32"/>
     <use xlink:href="#DejaVuSans-34" x="63.623047"/>
     <use xlink:href="#DejaVuSans-35" x="127.246094"/>
    </g>
    <!-- 145 -->
    <g transform="translate(284.670252 196.824185)scale(0.0579 -0.0579)">
     <use xlink:href="#DejaVuSans-31"/>
     <use xlink:href="#DejaVuSans-34" x="63.623047"/>
     <use xlink:href="#DejaVuSans-35" x="127.246094"/>
    </g>
   </g>
   <g id="text_4">
    <!-- NOR4 -->
    <g transform="translate(333.193677 260.22961)scale(0.0579 -0.0579)">
     <use xlink:href="#DejaVuSans-4e"/>
     <use xlink:href="#DejaVuSans-4f" x="74.804688"/>
     <use xlink:href="#DejaVuSans-52" x="153.515625"/>
     <use xlink:href="#DejaVuSans-34" x="222.998047"/>
    </g>
    <!-- 245 -->
    <g transform="translate(335.966092 266.713144)scale(0.0579 -0.0579)">
     <use xlink:href="#DejaVuSans-32"/>
     <use xlink:href="#DejaVuSans-34" x="63.623047"/>
     <use xlink:href="#DejaVuSans-35" x="127.246094"/>
    </g>
    <!-- 205 -->
    <g transform="translate(335.966092 273.196677)scale(0.0579 -0.0579)">
     <use xlink:href="#DejaVuSans-32"/>
     <use xlink:href="#DejaVuSans-30" x="63.623047"/>
     <use xlink:href="#DejaVuSans-35" x="127.246094"/>
    </g>
   </g>
   <g id="text_5">
    <!-- NOR5 -->
    <g transform="translate(296.543286 250.675509)scale(0.0579 -0.0579)">
     <use xlink:href="#DejaVuSans-4e"/>
     <use xlink:href="#DejaVuSans-4f" x="74.804688"/>
     <use xlink:href="#DejaVuSans-52" x="153.515625"/>
     <use xlink:href="#DejaVuSans-35" x="222.998047"/>
    </g>
    <!-- 265 -->
    <g transform="translate(299.315701 257.159043)scale(0.0579 -0.0579)">
     <defs>
      <path id="DejaVuSans-36" d="M 2113 2584 
Q 1688 2584 1439 2293 
Q 1191 2003 1191 1497 
Q 1191 994 1439 701 
Q 1688 409 2113 409 
Q 2538 409 2786 701 
Q 3034 994 3034 1497 
Q 3034 2003 2786 2293 
Q 2538 2584 2113 2584 
z
M 3366 4563 
L 3366 3988 
Q 3128 4100 2886 4159 
Q 2644 4219 2406 4219 
Q 1781 4219 1451 3797 
Q 1122 3375 1075 2522 
Q 1259 2794 1537 2939 
Q 1816 3084 2150 3084 
Q 2853 3084 3261 2657 
Q 3669 2231 3669 1497 
Q 3669 778 3244 343 
Q 2819 -91 2113 -91 
Q 1303 -91 875 529 
Q 447 1150 447 2328 
Q 447 3434 972 4092 
Q 1497 4750 2381 4750 
Q 2619 4750 2861 4703 
Q 3103 4656 3366 4563 
z
" transform="scale(0.015625)"/>
     </defs>
     <use xlink:href="#DejaVuSans-32"/>
     <use xlink:href="#DejaVuSans-36" x="63.623047"/>
     <use xlink:href="#DejaVuSans-35" x="127.246094"/>
    </g>
    <!-- 245 -->
    <g transform="translate(299.315701 263.642576)scale(0.0579 -0.0579)">
     <use xlink:href="#DejaVuSans-32"/>
     <use xlink:href="#DejaVuSans-34" x="63.623047"/>
     <use xlink:href="#DejaVuSans-35" x="127.246094"/>
    </g>
   </g>
   <g id="text_6">
    <!-- NOR6 -->
    <g transform="translate(171.801496 235.643914)scale(0.0579 -0.0579)">
     <use xlink:href="#DejaVuSans-4e"/>
     <use xlink:href="#DejaVuSans-4f" x="74.804688"/>
     <use xlink:href="#DejaVuSans-52" x="153.515625"/>
     <use xlink:href="#DejaVuSans-36" x="222.998047"/>
    </g>
    <!-- 245 -->
    <g transform="translate(174.573911 242.127447)scale(0.0579 -0.0579)">
     <use xlink:href="#DejaVuSans-32"/>
     <use xlink:href="#DejaVuSans-34" x="63.623047"/>
     <use xlink:href="#DejaVuSans-35" x="127.246094"/>
    </g>
    <!-- 195 -->
    <g transform="translate(174.573911 248.61098)scale(0.0579 -0.0579)">
     <defs>
      <path id="DejaVuSans-39" d="M 703 97 
L 703 672 
Q 941 559 1184 500 
Q 1428 441 1663 441 
Q 2288 441 2617 861 
Q 2947 1281 2994 2138 
Q 2813 1869 2534 1725 
Q 2256 1581 1919 1581 
Q 1219 1581 811 2004 
Q 403 2428 403 3163 
Q 403 3881 828 4315 
Q 1253 4750 1959 4750 
Q 2769 4750 3195 4129 
Q 3622 3509 3622 2328 
Q 3622 1225 3098 567 
Q 2575 -91 1691 -91 
Q 1453 -91 1209 -44 
Q 966 3 703 97 
z
M 1959 2075 
Q 2384 2075 2632 2365 
Q 2881 2656 2881 3163 
Q 2881 3666 2632 3958 
Q 2384 4250 1959 4250 
Q 1534 4250 1286 3958 
Q 1038 3666 1038 3163 
Q 1038 2656 1286 2365 
Q 1534 2075 1959 2075 
z
" transform="scale(0.015625)"/>
     </defs>
     <use xlink:href="#DejaVuSans-31"/>
     <use xlink:href="#DejaVuSans-39" x="63.623047"/>
     <use xlink:href="#DejaVuSans-35" x="127.246094"/>
    </g>
   </g>
   <g id="text_7">
    <!-- NOR7 -->
    <g transform="translate(91.645413 173.04872)scale(0.0579 -0.0579)">
     <defs>
      <path id="DejaVuSans-37" d="M 525 4666 
L 3525 4666 
L 3525 4397 
L 1831 0 
L 1172 0 
L 2766 4134 
L 525 4134 
L 525 4666 
z
" transform="scale(0.015625)"/>
     </defs>
     <use xlink:href="#DejaVuSans-4e"/>
     <use xlink:href="#DejaVuSans-4f" x="74.804688"/>
     <use xlink:href="#DejaVuSans-52" x="153.515625"/>
     <use xlink:href="#DejaVuSans-37" x="222.998047"/>
    </g>
    <!-- 245 -->
    <g transform="translate(94.417828 179.532254)scale(0.0579 -0.0579)">
     <use xlink:href="#DejaVuSans-32"/>
     <use xlink:href="#DejaVuSans-34" x="63.623047"/>
     <use xlink:href="#DejaVuSans-35" x="127.246094"/>
    </g>
    <!-- 195 -->
    <g transform="translate(94.417828 186.015787)scale(0.0579 -0.0579)">
     <use xlink:href="#DejaVuSans-31"/>
     <use xlink:href="#DejaVuSans-39" x="63.623047"/>
     <use xlink:href="#DejaVuSans-35" x="127.246094"/>
    </g>
   </g>
   <g id="text_8">
    <!-- NOR8 -->
    <g transform="translate(247.420183 240.479159)scale(0.0579 -0.0579)">
     <defs>
      <path id="DejaVuSans-38" d="M 2034 2216 
Q 1584 2216 1326 1975 
Q 1069 1734 1069 1313 
Q 1069 891 1326 650 
Q 1584 409 2034 409 
Q 2484 409 2743 651 
Q 3003 894 3003 1313 
Q 3003 1734 2745 1975 
Q 2488 2216 2034 2216 
z
M 1403 2484 
Q 997 2584 770 2862 
Q 544 3141 544 3541 
Q 544 4100 942 4425 
Q 1341 4750 2034 4750 
Q 2731 4750 3128 4425 
Q 3525 4100 3525 3541 
Q 3525 3141 3298 2862 
Q 3072 2584 2669 2484 
Q 3125 2378 3379 2068 
Q 3634 1759 3634 1313 
Q 3634 634 3220 271 
Q 2806 -91 2034 -91 
Q 1263 -91 848 271 
Q 434 634 434 1313 
Q 434 1759 690 2068 
Q 947 2378 1403 2484 
z
M 1172 3481 
Q 1172 3119 1398 2916 
Q 1625 2713 2034 2713 
Q 2441 2713 2670 2916 
Q 2900 3119 2900 3481 
Q 2900 3844 2670 4047 
Q 2441 4250 2034 4250 
Q 1625 4250 1398 4047 
Q 1172 3844 1172 3481 
z
" transform="scale(0.015625)"/>
     </defs>
     <use xlink:href="#DejaVuSans-4e"/>
     <use xlink:href="#DejaVuSans-4f" x="74.804688"/>
     <use xlink:href="#DejaVuSans-52" x="153.515625"/>
     <use xlink:href="#DejaVuSans-38" x="222.998047"/>
    </g>
    <!-- 255 -->
    <g transform="translate(250.192598 246.962693)scale(0.0579 -0.0579)">
     <use xlink:href="#DejaVuSans-32"/>
     <use xlink:href="#DejaVuSans-35" x="63.623047"/>
     <use xlink:href="#DejaVuSans-35" x="127.246094"/>
    </g>
    <!-- 245 -->
    <g transform="translate(250.192598 253.446226)scale(0.0579 -0.0579)">
     <use xlink:href="#DejaVuSans-32"/>
     <use xlink:href="#DejaVuSans-34" x="63.623047"/>
     <use xlink:href="#DejaVuSans-35" x="127.246094"/>
    </g>
   </g>
  </g>
 </g>
 <defs>
  <clipPath id="p9d50c0671a">
   <rect x="77.496732" y="41.472" width="317.326537" height="266.112"/>
  </clipPath>
 </defs>
</svg>
