<?xml version="1.0" encoding="utf-8" standalone="no"?>
<!DOCTYPE svg PUBLIC "-//W3C//DTD SVG 1.1//EN"
  "http://www.w3.org/Graphics/SVG/1.1/DTD/svg11.dtd">
<svg xmlns:xlink="http://www.w3.org/1999/xlink" width="460.8pt" height="345.6pt" viewBox="0 0 460.8 345.6" xmlns="http://www.w3.org/2000/svg" version="1.1">
 <metadata>
  <rdf:RDF xmlns:dc="http://purl.org/dc/elements/1.1/" xmlns:cc="http://creativecommons.org/ns#" xmlns:rdf="http://www.w3.org/1999/02/22-rdf-syntax-ns#">
   <cc:Work>
    <dc:type rdf:resource="http://purl.org/dc/dcmitype/StillImage"/>
    <dc:date>2022-07-17T13:14:00.433602</dc:date>
    <dc:format>image/svg+xml</dc:format>
    <dc:creator>
     <cc:Agent>
      <dc:title>Matplotlib v3.5.0, https://matplotlib.org/</dc:title>
     </cc:Agent>
    </dc:creator>
   </cc:Work>
  </rdf:RDF>
 </metadata>
 <defs>
  <style type="text/css">*{stroke-linejoin: round; stroke-linecap: butt}</style>
 </defs>
 <g id="figure_1">
  <g id="patch_1">
   <path d="M 0 345.6 
L 460.8 345.6 
L 460.8 0 
L 0 0 
z
" style="fill: #ffffff"/>
  </g>
  <g id="axes_1">
   <g id="patch_2">
    <path d="M 323.30268 88.750203 
L 349.484303 129.801984 
L 356.216285 140.219059 
L 398.487273 237.920288 
L 344.034217 260.305797 
L 323.10713 208.905687 
L 231.31105 177.159227 
L 110.87927 178.039999 
L 85.873316 177.979819 
L 73.832727 180.307767 
L 140.931848 137.407548 
L 187.416564 124.936857 
z
" clip-path="url(#p1f90040923)" style="fill: #ffedd9; stroke: #ffedd9; stroke-linejoin: miter"/>
   </g>
   <g id="patch_3">
    <path d="M 323.30268 88.750203 
L 349.484303 129.801984 
L 356.216285 140.219059 
L 398.487273 237.920288 
L 344.034217 260.305797 
L 323.10713 208.905687 
L 231.31105 177.159227 
L 110.87927 178.039999 
L 85.873316 177.979819 
L 73.832727 180.307767 
L 140.931848 137.407548 
L 187.416564 124.936857 
L 323.30268 88.750203 
z
" clip-path="url(#p1f90040923)" style="fill: #ffedd9; stroke: #ffedd9; stroke-linejoin: miter"/>
   </g>
   <g id="line2d_1">
    <path d="M 323.30268 88.750203 
L 349.484303 129.801984 
L 356.216285 140.219059 
L 398.487273 237.920288 
L 344.034217 260.305797 
L 323.10713 208.905687 
L 231.31105 177.159227 
L 110.87927 178.039999 
L 85.873316 177.979819 
L 73.832727 180.307767 
L 140.931848 137.407548 
L 187.416564 124.936857 
L 323.30268 88.750203 
" clip-path="url(#p1f90040923)" style="fill: none; stroke: #ffc380; stroke-width: 0.5; stroke-linecap: square"/>
   </g>
   <g id="line2d_2">
    <path d="M 73.832727 180.307767 
L 95.874835 125.124904 
L 187.416564 124.936857 
L 140.931848 137.407548 
L 73.832727 180.307767 
" clip-path="url(#p1f90040923)" style="fill: none; stroke: #8f8f8f; stroke-width: 0.2; stroke-linecap: square"/>
   </g>
   <g id="line2d_3">
    <path clip-path="url(#p1f90040923)" style="fill: none; stroke: #8f8f8f; stroke-width: 0.2; stroke-linecap: square"/>
   </g>
   <g id="line2d_4">
    <path clip-path="url(#p1f90040923)" style="fill: none; stroke: #8f8f8f; stroke-width: 0.2; stroke-linecap: square"/>
   </g>
   <g id="line2d_5">
    <path clip-path="url(#p1f90040923)" style="fill: none; stroke: #8f8f8f; stroke-width: 0.2; stroke-linecap: square"/>
   </g>
   <g id="line2d_6">
    <path clip-path="url(#p1f90040923)" style="fill: none; stroke: #8f8f8f; stroke-width: 0.2; stroke-linecap: square"/>
   </g>
   <g id="line2d_7">
    <path d="M 73.832727 180.307767 
L 95.874835 125.124904 
L 187.416564 124.936857 
L 140.931848 137.407548 
L 73.832727 180.307767 
" clip-path="url(#p1f90040923)" style="fill: none; stroke: #8f8f8f; stroke-width: 0.2; stroke-linecap: square"/>
   </g>
   <g id="line2d_8">
    <path d="M 323.30268 88.750203 
L 349.484303 129.801984 
L 356.216285 140.219059 
L 398.487273 237.920288 
L 344.034217 260.305797 
L 323.10713 208.905687 
L 231.31105 177.159227 
L 110.87927 178.039999 
L 85.873316 177.979819 
L 73.832727 180.307767 
L 140.931848 137.407548 
L 187.416564 124.936857 
L 323.30268 88.750203 
L 323.30268 88.750203 
" clip-path="url(#p1f90040923)" style="fill: none; stroke: #ffc380; stroke-width: 0.5; stroke-linecap: square"/>
   </g>
  </g>
 </g>
 <defs>
  <clipPath id="p1f90040923">
   <rect x="57.6" y="80.172423" width="357.12" height="188.711153"/>
  </clipPath>
 </defs>
</svg>
