<?xml version="1.0" encoding="utf-8" standalone="no"?>
<!DOCTYPE svg PUBLIC "-//W3C//DTD SVG 1.1//EN"
  "http://www.w3.org/Graphics/SVG/1.1/DTD/svg11.dtd">
<svg xmlns:xlink="http://www.w3.org/1999/xlink" width="460.8pt" height="345.6pt" viewBox="0 0 460.8 345.6" xmlns="http://www.w3.org/2000/svg" version="1.1">
 <metadata>
  <rdf:RDF xmlns:dc="http://purl.org/dc/elements/1.1/" xmlns:cc="http://creativecommons.org/ns#" xmlns:rdf="http://www.w3.org/1999/02/22-rdf-syntax-ns#">
   <cc:Work>
    <dc:type rdf:resource="http://purl.org/dc/dcmitype/StillImage"/>
    <dc:date>2022-07-22T19:04:40.234325</dc:date>
    <dc:format>image/svg+xml</dc:format>
    <dc:creator>
     <cc:Agent>
      <dc:title>Matplotlib v3.5.0, https://matplotlib.org/</dc:title>
     </cc:Agent>
    </dc:creator>
   </cc:Work>
  </rdf:RDF>
 </metadata>
 <defs>
  <style type="text/css">*{stroke-linejoin: round; stroke-linecap: butt}</style>
 </defs>
 <g id="figure_1">
  <g id="patch_1">
   <path d="M 0 345.6 
L 460.8 345.6 
L 460.8 0 
L 0 0 
z
" style="fill: #ffffff"/>
  </g>
  <g id="axes_1">
   <g id="patch_2">
    <path d="M 302.113874 53.568 
L 298.939529 70.717019 
L 293.796327 98.449369 
L 298.203843 117.980946 
L 299.7783 124.960744 
L 289.840652 176.364257 
L 258.667898 152.66275 
L 232.805122 103.983211 
L 222.188471 97.863888 
L 221.453532 94.260625 
L 247.495666 78.500661 
L 262.157912 69.628807 
L 268.838556 65.585742 
L 272.093741 63.483229 
L 287.016199 53.841559 
z
" clip-path="url(#p36500248b3)" style="fill: #fcdaff; stroke: #fcdaff; stroke-linejoin: miter"/>
   </g>
   <g id="patch_3">
    <path d="M 254.498024 58.554259 
L 262.157912 69.628807 
L 247.495666 78.500661 
L 221.453532 94.260625 
L 217.440626 74.554141 
L 239.827393 64.882999 
z
" clip-path="url(#p36500248b3)" style="fill: #fcdaff; stroke: #fcdaff; stroke-linejoin: miter"/>
   </g>
   <g id="patch_4">
    <path d="M 302.113874 53.568 
L 298.939529 70.717019 
L 293.796327 98.449369 
L 298.203843 117.980946 
L 299.7783 124.960744 
L 289.840652 176.364257 
L 258.667898 152.66275 
L 232.805122 103.983211 
L 222.188471 97.863888 
L 221.453532 94.260625 
L 247.495666 78.500661 
L 262.157912 69.628807 
L 268.838556 65.585742 
L 272.093741 63.483229 
L 287.016199 53.841559 
z
" clip-path="url(#p36500248b3)" style="fill: #fcdaff; stroke: #fcdaff; stroke-linejoin: miter"/>
   </g>
   <g id="patch_5">
    <path d="M 302.113874 53.568 
L 298.939529 70.717019 
L 293.796327 98.449369 
L 298.203843 117.980946 
L 299.7783 124.960744 
L 289.840652 176.364257 
L 258.667898 152.66275 
L 232.805122 103.983211 
L 222.188471 97.863888 
L 221.453532 94.260625 
L 247.495666 78.500661 
L 262.157912 69.628807 
L 268.838556 65.585742 
L 272.093741 63.483229 
L 287.016199 53.841559 
z
" clip-path="url(#p36500248b3)" style="fill: #fcdaff; stroke: #fcdaff; stroke-linejoin: miter"/>
   </g>
   <g id="patch_6">
    <path d="M 302.113874 53.568 
L 298.939529 70.717019 
L 293.796327 98.449369 
L 298.203843 117.980946 
L 299.7783 124.960744 
L 289.840652 176.364257 
L 258.667898 152.66275 
L 232.805122 103.983211 
L 222.188471 97.863888 
L 221.453532 94.260625 
L 247.495666 78.500661 
L 262.157912 69.628807 
L 268.838556 65.585742 
L 272.093741 63.483229 
L 287.016199 53.841559 
z
" clip-path="url(#p36500248b3)" style="fill: #fcdaff; stroke: #fcdaff; stroke-linejoin: miter"/>
   </g>
   <g id="patch_7">
    <path d="M 222.188471 97.863888 
L 232.805122 103.983211 
L 258.667898 152.66275 
L 246.244643 163.999234 
L 229.323692 211.816728 
L 227.454123 210.582591 
L 224.695551 211.899586 
L 220.144872 211.20215 
L 220.13681 209.822628 
L 215.493547 207.949449 
L 213.731399 205.29923 
L 214.544624 204.215847 
L 213.929321 203.514168 
L 211.804342 202.368832 
L 208.249644 203.122273 
L 208.03514 205.005321 
L 204.918887 206.954121 
L 198.896915 206.549724 
L 196.5256 204.122171 
L 195.441123 204.584061 
L 195.82915 205.802123 
L 193.931309 206.880242 
L 193.328598 201.512189 
L 189.065376 199.406885 
L 184.447076 199.978141 
L 185.330949 202.640865 
L 184.228605 204.237469 
L 181.954898 202.86816 
L 180.250626 203.158489 
L 179.251494 200.785999 
L 178.734535 199.551457 
L 173.899977 175.792869 
L 183.575371 169.621346 
L 184.698703 162.783124 
L 180.673731 157.125797 
L 176.905545 153.727813 
L 170.206126 158.58007 
L 174.00044 141.627689 
L 177.331837 126.693598 
L 192.157834 128.153754 
L 189.339479 110.591919 
L 204.002255 110.484683 
L 215.178586 114.349869 
L 217.726494 120.607921 
L 224.356247 117.882447 
L 219.209682 105.987154 
L 218.390052 104.718857 
L 215.202394 99.720732 
z
" clip-path="url(#p36500248b3)" style="fill: #ffedd9; stroke: #ffedd9; stroke-linejoin: miter"/>
   </g>
   <g id="patch_8">
    <path d="M 222.188471 97.863888 
L 232.805122 103.983211 
L 258.667898 152.66275 
L 246.244643 163.999234 
L 229.323692 211.816728 
L 227.454123 210.582591 
L 224.695551 211.899586 
L 220.144872 211.20215 
L 220.13681 209.822628 
L 215.493547 207.949449 
L 213.731399 205.29923 
L 214.544624 204.215847 
L 213.929321 203.514168 
L 211.804342 202.368832 
L 208.249644 203.122273 
L 208.03514 205.005321 
L 204.918887 206.954121 
L 198.896915 206.549724 
L 196.5256 204.122171 
L 195.441123 204.584061 
L 195.82915 205.802123 
L 193.931309 206.880242 
L 193.328598 201.512189 
L 189.065376 199.406885 
L 184.447076 199.978141 
L 185.330949 202.640865 
L 184.228605 204.237469 
L 181.954898 202.86816 
L 180.250626 203.158489 
L 179.251494 200.785999 
L 178.734535 199.551457 
L 173.899977 175.792869 
L 170.665931 159.700066 
L 170.206126 158.58007 
L 174.00044 141.627689 
L 177.331837 126.693598 
L 184.828999 110.868023 
L 192.998432 105.644848 
L 198.658026 104.12652 
L 215.202394 99.720732 
z
" clip-path="url(#p36500248b3)" style="fill: #ffedd9; stroke: #ffedd9; stroke-linejoin: miter"/>
   </g>
   <g id="patch_9">
    <path d="M 222.188471 97.863888 
L 232.805122 103.983211 
L 258.667898 152.66275 
L 246.244643 163.999234 
L 229.323692 211.816728 
L 227.454123 210.582591 
L 224.695551 211.899586 
L 220.144872 211.20215 
L 220.13681 209.822628 
L 215.493547 207.949449 
L 213.731399 205.29923 
L 214.544624 204.215847 
L 213.929321 203.514168 
L 211.804342 202.368832 
L 208.249644 203.122273 
L 208.03514 205.005321 
L 204.918887 206.954121 
L 198.896915 206.549724 
L 196.5256 204.122171 
L 195.441123 204.584061 
L 195.82915 205.802123 
L 193.931309 206.880242 
L 193.328598 201.512189 
L 189.065376 199.406885 
L 184.447076 199.978141 
L 185.330949 202.640865 
L 184.228605 204.237469 
L 181.954898 202.86816 
L 180.250626 203.158489 
L 179.251494 200.785999 
L 178.734535 199.551457 
L 173.899977 175.792869 
L 170.665931 159.700066 
L 170.206126 158.58007 
L 174.00044 141.627689 
L 177.331837 126.693598 
L 184.828999 110.868023 
L 192.998432 105.644848 
L 198.658026 104.12652 
L 215.202394 99.720732 
z
" clip-path="url(#p36500248b3)" style="fill: #ffedd9; stroke: #ffedd9; stroke-linejoin: miter"/>
   </g>
   <g id="patch_10">
    <path d="M 222.188471 97.863888 
L 232.805122 103.983211 
L 258.667898 152.66275 
L 246.244643 163.999234 
L 229.323692 211.816728 
L 227.454123 210.582591 
L 224.695551 211.899586 
L 220.144872 211.20215 
L 220.13681 209.822628 
L 215.493547 207.949449 
L 213.731399 205.29923 
L 214.544624 204.215847 
L 213.929321 203.514168 
L 211.804342 202.368832 
L 208.249644 203.122273 
L 208.03514 205.005321 
L 204.918887 206.954121 
L 198.896915 206.549724 
L 196.5256 204.122171 
L 195.441123 204.584061 
L 195.82915 205.802123 
L 193.931309 206.880242 
L 193.328598 201.512189 
L 189.065376 199.406885 
L 184.447076 199.978141 
L 185.330949 202.640865 
L 184.228605 204.237469 
L 181.954898 202.86816 
L 180.250626 203.158489 
L 179.251494 200.785999 
L 178.734535 199.551457 
L 173.899977 175.792869 
L 170.665931 159.700066 
L 170.206126 158.58007 
L 174.00044 141.627689 
L 177.331837 126.693598 
L 184.828999 110.868023 
L 192.998432 105.644848 
L 198.658026 104.12652 
L 215.202394 99.720732 
z
" clip-path="url(#p36500248b3)" style="fill: #ffedd9; stroke: #ffedd9; stroke-linejoin: miter"/>
   </g>
   <g id="patch_11">
    <path d="M 222.188471 97.863888 
L 232.805122 103.983211 
L 258.667898 152.66275 
L 246.244643 163.999234 
L 229.323692 211.816728 
L 227.454123 210.582591 
L 224.695551 211.899586 
L 220.144872 211.20215 
L 220.13681 209.822628 
L 215.493547 207.949449 
L 213.731399 205.29923 
L 214.544624 204.215847 
L 213.929321 203.514168 
L 211.804342 202.368832 
L 208.249644 203.122273 
L 208.03514 205.005321 
L 204.918887 206.954121 
L 198.896915 206.549724 
L 196.5256 204.122171 
L 195.441123 204.584061 
L 195.82915 205.802123 
L 193.931309 206.880242 
L 193.328598 201.512189 
L 189.065376 199.406885 
L 184.447076 199.978141 
L 185.330949 202.640865 
L 184.228605 204.237469 
L 181.954898 202.86816 
L 180.250626 203.158489 
L 179.251494 200.785999 
L 178.734535 199.551457 
L 173.899977 175.792869 
L 170.665931 159.700066 
L 170.206126 158.58007 
L 174.00044 141.627689 
L 177.331837 126.693598 
L 184.828999 110.868023 
L 192.998432 105.644848 
L 198.658026 104.12652 
L 215.202394 99.720732 
z
" clip-path="url(#p36500248b3)" style="fill: #ffedd9; stroke: #ffedd9; stroke-linejoin: miter"/>
   </g>
   <g id="patch_12">
    <path d="M 258.667898 152.66275 
L 289.840652 176.364257 
L 286.619343 189.55094 
L 273.924376 237.935092 
L 265.31069 295.398846 
L 250.459934 295.488 
L 217.881218 282.937295 
L 217.384915 282.141633 
L 217.128464 281.823024 
L 217.078675 281.65726 
L 217.055234 281.72608 
L 216.986852 281.58779 
L 216.964385 281.484235 
L 216.941138 281.518579 
L 216.942114 281.346205 
L 217.034513 281.312252 
L 217.012436 281.139747 
L 217.01302 281.036323 
L 217.059895 280.898684 
L 217.129427 280.830123 
L 217.107735 280.588671 
L 217.224315 280.347994 
L 217.201463 280.31339 
L 217.248129 280.210224 
L 217.248706 280.1068 
L 217.20262 280.106542 
L 217.180543 279.93404 
L 217.113162 279.623381 
L 217.094196 278.899287 
L 217.050266 278.519808 
L 217.028207 278.347306 
L 216.959721 278.239662 
L 217.421251 277.014159 
L 217.340786 275.659988 
L 217.92258 274.965442 
L 218.37941 274.585208 
L 218.497748 274.076752 
L 218.361629 273.328318 
L 218.918641 272.543853 
L 219.850907 271.149033 
L 220.495026 269.554418 
L 221.462433 268.839066 
L 221.905064 267.353251 
L 222.616237 264.389974 
L 222.643641 263.636465 
L 222.832019 262.954851 
L 224.621981 262.004184 
L 225.108055 260.91594 
L 224.499562 257.6223 
L 224.732507 256.252084 
L 226.097042 252.488793 
L 226.183781 250.416562 
L 226.688998 249.836466 
L 227.590323 249.203559 
L 227.95592 247.793498 
L 227.862167 246.967105 
L 227.99893 245.642055 
L 227.711933 244.060454 
L 227.963981 243.047675 
L 229.116549 241.17218 
L 229.563373 239.735933 
L 231.808224 238.249461 
L 235.311899 233.951887 
L 235.336424 232.088453 
L 235.715614 231.508934 
L 236.257797 231.39799 
L 237.142043 231.576098 
L 237.810307 231.092818 
L 237.975745 229.927712 
L 238.404042 229.531907 
L 239.150864 229.473255 
L 239.809505 229.443626 
L 240.792442 228.73849 
L 241.563784 227.427873 
L 242.172895 224.720028 
L 243.322635 221.90884 
L 244.775674 219.768902 
L 245.617251 218.060651 
L 247.345591 217.313707 
L 247.111539 217.113362 
L 246.917363 216.576244 
L 245.728887 217.191956 
L 245.63741 216.481389 
L 244.541319 216.408427 
L 244.515202 216.584847 
L 244.118394 216.397493 
L 243.738313 216.625397 
L 242.981672 216.40684 
L 242.439008 215.957406 
L 241.744526 215.897981 
L 241.546815 215.6815 
L 240.779855 215.684404 
L 239.090998 214.019463 
L 237.805387 213.709506 
L 237.692194 213.528584 
L 237.423869 213.618645 
L 237.317455 213.287201 
L 236.560089 213.01552 
L 235.700263 213.187314 
L 234.385102 211.143876 
L 233.779457 211.080017 
L 232.831597 212.155012 
L 230.784865 212.663107 
L 229.323692 211.816728 
L 246.244643 163.999234 
z
" clip-path="url(#p36500248b3)" style="fill: #d9fcfe; stroke: #d9fcfe; stroke-linejoin: miter"/>
   </g>
   <g id="patch_13">
    <path d="M 258.667898 152.66275 
L 289.840652 176.364257 
L 286.619343 189.55094 
L 273.924376 237.935092 
L 265.31069 295.398846 
L 250.459934 295.488 
L 217.881218 282.937295 
L 217.384915 282.141633 
L 217.128464 281.823024 
L 217.078675 281.65726 
L 217.055234 281.72608 
L 216.986852 281.58779 
L 216.964385 281.484235 
L 216.941138 281.518579 
L 216.942114 281.346205 
L 217.034513 281.312252 
L 217.012436 281.139747 
L 217.01302 281.036323 
L 217.059895 280.898684 
L 217.129427 280.830123 
L 217.107735 280.588671 
L 217.224315 280.347994 
L 217.201463 280.31339 
L 217.248129 280.210224 
L 217.248706 280.1068 
L 217.20262 280.106542 
L 217.180543 279.93404 
L 217.113162 279.623381 
L 217.094196 278.899287 
L 217.050266 278.519808 
L 217.028207 278.347306 
L 216.959721 278.239662 
L 217.421251 277.014159 
L 217.340786 275.659988 
L 217.92258 274.965442 
L 218.37941 274.585208 
L 218.497748 274.076752 
L 218.361629 273.328318 
L 218.918641 272.543853 
L 219.850907 271.149033 
L 220.495026 269.554418 
L 221.462433 268.839066 
L 221.905064 267.353251 
L 222.616237 264.389974 
L 222.643641 263.636465 
L 222.832019 262.954851 
L 224.621981 262.004184 
L 225.108055 260.91594 
L 224.499562 257.6223 
L 224.732507 256.252084 
L 226.097042 252.488793 
L 226.183781 250.416562 
L 226.688998 249.836466 
L 227.590323 249.203559 
L 227.95592 247.793498 
L 227.862167 246.967105 
L 227.99893 245.642055 
L 227.711933 244.060454 
L 227.963981 243.047675 
L 229.116549 241.17218 
L 229.563373 239.735933 
L 231.808224 238.249461 
L 235.311899 233.951887 
L 235.336424 232.088453 
L 235.715614 231.508934 
L 236.257797 231.39799 
L 237.142043 231.576098 
L 237.810307 231.092818 
L 237.975745 229.927712 
L 238.404042 229.531907 
L 239.150864 229.473255 
L 239.809505 229.443626 
L 240.792442 228.73849 
L 241.563784 227.427873 
L 242.172895 224.720028 
L 243.322635 221.90884 
L 244.775674 219.768902 
L 245.617251 218.060651 
L 247.345591 217.313707 
L 247.111539 217.113362 
L 246.917363 216.576244 
L 245.728887 217.191956 
L 245.63741 216.481389 
L 244.541319 216.408427 
L 244.515202 216.584847 
L 244.118394 216.397493 
L 243.738313 216.625397 
L 242.981672 216.40684 
L 242.439008 215.957406 
L 241.744526 215.897981 
L 241.546815 215.6815 
L 240.779855 215.684404 
L 239.090998 214.019463 
L 237.805387 213.709506 
L 237.692194 213.528584 
L 237.423869 213.618645 
L 237.317455 213.287201 
L 236.560089 213.01552 
L 235.700263 213.187314 
L 234.385102 211.143876 
L 233.779457 211.080017 
L 232.831597 212.155012 
L 230.784865 212.663107 
L 229.323692 211.816728 
L 246.244643 163.999234 
z
" clip-path="url(#p36500248b3)" style="fill: #d9fcfe; stroke: #d9fcfe; stroke-linejoin: miter"/>
   </g>
   <g id="patch_14">
    <path d="M 258.667898 152.66275 
L 289.840652 176.364257 
L 286.619343 189.55094 
L 273.924376 237.935092 
L 265.31069 295.398846 
L 250.459934 295.488 
L 217.881218 282.937295 
L 217.384915 282.141633 
L 217.128464 281.823024 
L 217.078675 281.65726 
L 217.055234 281.72608 
L 216.986852 281.58779 
L 216.964385 281.484235 
L 216.941138 281.518579 
L 216.942114 281.346205 
L 217.034513 281.312252 
L 217.012436 281.139747 
L 217.01302 281.036323 
L 217.059895 280.898684 
L 217.129427 280.830123 
L 217.107735 280.588671 
L 217.224315 280.347994 
L 217.201463 280.31339 
L 217.248129 280.210224 
L 217.248706 280.1068 
L 217.20262 280.106542 
L 217.180543 279.93404 
L 217.113162 279.623381 
L 217.094196 278.899287 
L 217.050266 278.519808 
L 217.028207 278.347306 
L 216.959721 278.239662 
L 217.421251 277.014159 
L 217.340786 275.659988 
L 217.92258 274.965442 
L 218.37941 274.585208 
L 218.497748 274.076752 
L 218.361629 273.328318 
L 218.918641 272.543853 
L 219.850907 271.149033 
L 220.495026 269.554418 
L 221.462433 268.839066 
L 221.905064 267.353251 
L 222.616237 264.389974 
L 222.643641 263.636465 
L 222.832019 262.954851 
L 224.621981 262.004184 
L 225.108055 260.91594 
L 224.499562 257.6223 
L 224.732507 256.252084 
L 226.097042 252.488793 
L 226.183781 250.416562 
L 226.688998 249.836466 
L 227.590323 249.203559 
L 227.95592 247.793498 
L 227.862167 246.967105 
L 227.99893 245.642055 
L 227.711933 244.060454 
L 227.963981 243.047675 
L 229.116549 241.17218 
L 229.563373 239.735933 
L 231.808224 238.249461 
L 235.311899 233.951887 
L 235.336424 232.088453 
L 235.715614 231.508934 
L 236.257797 231.39799 
L 237.142043 231.576098 
L 237.810307 231.092818 
L 237.975745 229.927712 
L 238.404042 229.531907 
L 239.150864 229.473255 
L 239.809505 229.443626 
L 240.792442 228.73849 
L 241.563784 227.427873 
L 242.172895 224.720028 
L 243.322635 221.90884 
L 244.775674 219.768902 
L 245.617251 218.060651 
L 247.345591 217.313707 
L 247.111539 217.113362 
L 246.917363 216.576244 
L 245.728887 217.191956 
L 245.63741 216.481389 
L 244.541319 216.408427 
L 244.515202 216.584847 
L 244.118394 216.397493 
L 243.738313 216.625397 
L 242.981672 216.40684 
L 242.439008 215.957406 
L 241.744526 215.897981 
L 241.546815 215.6815 
L 240.779855 215.684404 
L 239.090998 214.019463 
L 237.805387 213.709506 
L 237.692194 213.528584 
L 237.423869 213.618645 
L 237.317455 213.287201 
L 236.560089 213.01552 
L 235.700263 213.187314 
L 234.385102 211.143876 
L 233.779457 211.080017 
L 232.831597 212.155012 
L 230.784865 212.663107 
L 229.323692 211.816728 
L 246.244643 163.999234 
z
" clip-path="url(#p36500248b3)" style="fill: #d9fcfe; stroke: #d9fcfe; stroke-linejoin: miter"/>
   </g>
   <g id="patch_15">
    <path d="M 302.113874 53.568 
L 298.939529 70.717019 
L 293.796327 98.449369 
L 298.203843 117.980946 
L 299.7783 124.960744 
L 289.840652 176.364257 
L 258.667898 152.66275 
L 232.805122 103.983211 
L 222.188471 97.863888 
L 221.453532 94.260625 
L 247.495666 78.500661 
L 262.157912 69.628807 
L 268.838556 65.585742 
L 272.093741 63.483229 
L 287.016199 53.841559 
L 302.113874 53.568 
z
" clip-path="url(#p36500248b3)" style="fill: #fcdaff; stroke: #fcdaff; stroke-linejoin: miter"/>
   </g>
   <g id="patch_16">
    <path d="M 254.498024 58.554259 
L 262.157912 69.628807 
L 247.495666 78.500661 
L 221.453532 94.260625 
L 217.440626 74.554141 
L 239.827393 64.882999 
L 254.498024 58.554259 
z
" clip-path="url(#p36500248b3)" style="fill: #fcdaff; stroke: #fcdaff; stroke-linejoin: miter"/>
   </g>
   <g id="patch_17">
    <path d="M 302.113874 53.568 
L 298.939529 70.717019 
L 293.796327 98.449369 
L 298.203843 117.980946 
L 299.7783 124.960744 
L 289.840652 176.364257 
L 258.667898 152.66275 
L 232.805122 103.983211 
L 222.188471 97.863888 
L 221.453532 94.260625 
L 247.495666 78.500661 
L 262.157912 69.628807 
L 268.838556 65.585742 
L 272.093741 63.483229 
L 287.016199 53.841559 
L 302.113874 53.568 
z
" clip-path="url(#p36500248b3)" style="fill: #fcdaff; stroke: #fcdaff; stroke-linejoin: miter"/>
   </g>
   <g id="patch_18">
    <path d="M 302.113874 53.568 
L 298.939529 70.717019 
L 293.796327 98.449369 
L 298.203843 117.980946 
L 299.7783 124.960744 
L 289.840652 176.364257 
L 258.667898 152.66275 
L 232.805122 103.983211 
L 222.188471 97.863888 
L 221.453532 94.260625 
L 247.495666 78.500661 
L 262.157912 69.628807 
L 268.838556 65.585742 
L 272.093741 63.483229 
L 287.016199 53.841559 
L 302.113874 53.568 
z
" clip-path="url(#p36500248b3)" style="fill: #fcdaff; stroke: #fcdaff; stroke-linejoin: miter"/>
   </g>
   <g id="patch_19">
    <path d="M 302.113874 53.568 
L 298.939529 70.717019 
L 293.796327 98.449369 
L 298.203843 117.980946 
L 299.7783 124.960744 
L 289.840652 176.364257 
L 258.667898 152.66275 
L 232.805122 103.983211 
L 222.188471 97.863888 
L 221.453532 94.260625 
L 247.495666 78.500661 
L 262.157912 69.628807 
L 268.838556 65.585742 
L 272.093741 63.483229 
L 287.016199 53.841559 
L 302.113874 53.568 
z
" clip-path="url(#p36500248b3)" style="fill: #fcdaff; stroke: #fcdaff; stroke-linejoin: miter"/>
   </g>
   <g id="patch_20">
    <path d="M 222.188471 97.863888 
L 232.805122 103.983211 
L 258.667898 152.66275 
L 246.244643 163.999234 
L 229.323692 211.816728 
L 227.454123 210.582591 
L 224.695551 211.899586 
L 220.144872 211.20215 
L 220.13681 209.822628 
L 215.493547 207.949449 
L 213.731399 205.29923 
L 214.544624 204.215847 
L 213.929321 203.514168 
L 211.804342 202.368832 
L 208.249644 203.122273 
L 208.03514 205.005321 
L 204.918887 206.954121 
L 198.896915 206.549724 
L 196.5256 204.122171 
L 195.441123 204.584061 
L 195.82915 205.802123 
L 193.931309 206.880242 
L 193.328598 201.512189 
L 189.065376 199.406885 
L 184.447076 199.978141 
L 185.330949 202.640865 
L 184.228605 204.237469 
L 181.954898 202.86816 
L 180.250626 203.158489 
L 179.251494 200.785999 
L 178.734535 199.551457 
L 173.899977 175.792869 
L 183.575371 169.621346 
L 184.698703 162.783124 
L 180.673731 157.125797 
L 176.905545 153.727813 
L 170.206126 158.58007 
L 174.00044 141.627689 
L 177.331837 126.693598 
L 192.157834 128.153754 
L 189.339479 110.591919 
L 204.002255 110.484683 
L 215.178586 114.349869 
L 217.726494 120.607921 
L 224.356247 117.882447 
L 219.209682 105.987154 
L 218.390052 104.718857 
L 215.202394 99.720732 
L 222.188471 97.863888 
z
" clip-path="url(#p36500248b3)" style="fill: #ffedd9; stroke: #ffedd9; stroke-linejoin: miter"/>
   </g>
   <g id="patch_21">
    <path d="M 222.188471 97.863888 
L 232.805122 103.983211 
L 258.667898 152.66275 
L 246.244643 163.999234 
L 229.323692 211.816728 
L 227.454123 210.582591 
L 224.695551 211.899586 
L 220.144872 211.20215 
L 220.13681 209.822628 
L 215.493547 207.949449 
L 213.731399 205.29923 
L 214.544624 204.215847 
L 213.929321 203.514168 
L 211.804342 202.368832 
L 208.249644 203.122273 
L 208.03514 205.005321 
L 204.918887 206.954121 
L 198.896915 206.549724 
L 196.5256 204.122171 
L 195.441123 204.584061 
L 195.82915 205.802123 
L 193.931309 206.880242 
L 193.328598 201.512189 
L 189.065376 199.406885 
L 184.447076 199.978141 
L 185.330949 202.640865 
L 184.228605 204.237469 
L 181.954898 202.86816 
L 180.250626 203.158489 
L 179.251494 200.785999 
L 178.734535 199.551457 
L 173.899977 175.792869 
L 170.665931 159.700066 
L 170.206126 158.58007 
L 174.00044 141.627689 
L 177.331837 126.693598 
L 184.828999 110.868023 
L 192.998432 105.644848 
L 198.658026 104.12652 
L 215.202394 99.720732 
L 222.188471 97.863888 
z
" clip-path="url(#p36500248b3)" style="fill: #ffedd9; stroke: #ffedd9; stroke-linejoin: miter"/>
   </g>
   <g id="patch_22">
    <path d="M 222.188471 97.863888 
L 232.805122 103.983211 
L 258.667898 152.66275 
L 246.244643 163.999234 
L 229.323692 211.816728 
L 227.454123 210.582591 
L 224.695551 211.899586 
L 220.144872 211.20215 
L 220.13681 209.822628 
L 215.493547 207.949449 
L 213.731399 205.29923 
L 214.544624 204.215847 
L 213.929321 203.514168 
L 211.804342 202.368832 
L 208.249644 203.122273 
L 208.03514 205.005321 
L 204.918887 206.954121 
L 198.896915 206.549724 
L 196.5256 204.122171 
L 195.441123 204.584061 
L 195.82915 205.802123 
L 193.931309 206.880242 
L 193.328598 201.512189 
L 189.065376 199.406885 
L 184.447076 199.978141 
L 185.330949 202.640865 
L 184.228605 204.237469 
L 181.954898 202.86816 
L 180.250626 203.158489 
L 179.251494 200.785999 
L 178.734535 199.551457 
L 173.899977 175.792869 
L 170.665931 159.700066 
L 170.206126 158.58007 
L 174.00044 141.627689 
L 177.331837 126.693598 
L 184.828999 110.868023 
L 192.998432 105.644848 
L 198.658026 104.12652 
L 215.202394 99.720732 
L 222.188471 97.863888 
z
" clip-path="url(#p36500248b3)" style="fill: #ffedd9; stroke: #ffedd9; stroke-linejoin: miter"/>
   </g>
   <g id="patch_23">
    <path d="M 222.188471 97.863888 
L 232.805122 103.983211 
L 258.667898 152.66275 
L 246.244643 163.999234 
L 229.323692 211.816728 
L 227.454123 210.582591 
L 224.695551 211.899586 
L 220.144872 211.20215 
L 220.13681 209.822628 
L 215.493547 207.949449 
L 213.731399 205.29923 
L 214.544624 204.215847 
L 213.929321 203.514168 
L 211.804342 202.368832 
L 208.249644 203.122273 
L 208.03514 205.005321 
L 204.918887 206.954121 
L 198.896915 206.549724 
L 196.5256 204.122171 
L 195.441123 204.584061 
L 195.82915 205.802123 
L 193.931309 206.880242 
L 193.328598 201.512189 
L 189.065376 199.406885 
L 184.447076 199.978141 
L 185.330949 202.640865 
L 184.228605 204.237469 
L 181.954898 202.86816 
L 180.250626 203.158489 
L 179.251494 200.785999 
L 178.734535 199.551457 
L 173.899977 175.792869 
L 170.665931 159.700066 
L 170.206126 158.58007 
L 174.00044 141.627689 
L 177.331837 126.693598 
L 184.828999 110.868023 
L 192.998432 105.644848 
L 198.658026 104.12652 
L 215.202394 99.720732 
L 222.188471 97.863888 
z
" clip-path="url(#p36500248b3)" style="fill: #ffedd9; stroke: #ffedd9; stroke-linejoin: miter"/>
   </g>
   <g id="patch_24">
    <path d="M 222.188471 97.863888 
L 232.805122 103.983211 
L 258.667898 152.66275 
L 246.244643 163.999234 
L 229.323692 211.816728 
L 227.454123 210.582591 
L 224.695551 211.899586 
L 220.144872 211.20215 
L 220.13681 209.822628 
L 215.493547 207.949449 
L 213.731399 205.29923 
L 214.544624 204.215847 
L 213.929321 203.514168 
L 211.804342 202.368832 
L 208.249644 203.122273 
L 208.03514 205.005321 
L 204.918887 206.954121 
L 198.896915 206.549724 
L 196.5256 204.122171 
L 195.441123 204.584061 
L 195.82915 205.802123 
L 193.931309 206.880242 
L 193.328598 201.512189 
L 189.065376 199.406885 
L 184.447076 199.978141 
L 185.330949 202.640865 
L 184.228605 204.237469 
L 181.954898 202.86816 
L 180.250626 203.158489 
L 179.251494 200.785999 
L 178.734535 199.551457 
L 173.899977 175.792869 
L 170.665931 159.700066 
L 170.206126 158.58007 
L 174.00044 141.627689 
L 177.331837 126.693598 
L 184.828999 110.868023 
L 192.998432 105.644848 
L 198.658026 104.12652 
L 215.202394 99.720732 
L 222.188471 97.863888 
z
" clip-path="url(#p36500248b3)" style="fill: #ffedd9; stroke: #ffedd9; stroke-linejoin: miter"/>
   </g>
   <g id="patch_25">
    <path d="M 258.667898 152.66275 
L 289.840652 176.364257 
L 286.619343 189.55094 
L 273.924376 237.935092 
L 265.31069 295.398846 
L 250.459934 295.488 
L 217.881218 282.937295 
L 217.384915 282.141633 
L 217.128464 281.823024 
L 217.078675 281.65726 
L 217.055234 281.72608 
L 216.986852 281.58779 
L 216.964385 281.484235 
L 216.941138 281.518579 
L 216.942114 281.346205 
L 217.034513 281.312252 
L 217.012436 281.139747 
L 217.01302 281.036323 
L 217.059895 280.898684 
L 217.129427 280.830123 
L 217.107735 280.588671 
L 217.224315 280.347994 
L 217.201463 280.31339 
L 217.248129 280.210224 
L 217.248706 280.1068 
L 217.20262 280.106542 
L 217.180543 279.93404 
L 217.113162 279.623381 
L 217.094196 278.899287 
L 217.050266 278.519808 
L 217.028207 278.347306 
L 216.959721 278.239662 
L 217.421251 277.014159 
L 217.340786 275.659988 
L 217.92258 274.965442 
L 218.37941 274.585208 
L 218.497748 274.076752 
L 218.361629 273.328318 
L 218.918641 272.543853 
L 219.850907 271.149033 
L 220.495026 269.554418 
L 221.462433 268.839066 
L 221.905064 267.353251 
L 222.616237 264.389974 
L 222.643641 263.636465 
L 222.832019 262.954851 
L 224.621981 262.004184 
L 225.108055 260.91594 
L 224.499562 257.6223 
L 224.732507 256.252084 
L 226.097042 252.488793 
L 226.183781 250.416562 
L 226.688998 249.836466 
L 227.590323 249.203559 
L 227.95592 247.793498 
L 227.862167 246.967105 
L 227.99893 245.642055 
L 227.711933 244.060454 
L 227.963981 243.047675 
L 229.116549 241.17218 
L 229.563373 239.735933 
L 231.808224 238.249461 
L 235.311899 233.951887 
L 235.336424 232.088453 
L 235.715614 231.508934 
L 236.257797 231.39799 
L 237.142043 231.576098 
L 237.810307 231.092818 
L 237.975745 229.927712 
L 238.404042 229.531907 
L 239.150864 229.473255 
L 239.809505 229.443626 
L 240.792442 228.73849 
L 241.563784 227.427873 
L 242.172895 224.720028 
L 243.322635 221.90884 
L 244.775674 219.768902 
L 245.617251 218.060651 
L 247.345591 217.313707 
L 247.111539 217.113362 
L 246.917363 216.576244 
L 245.728887 217.191956 
L 245.63741 216.481389 
L 244.541319 216.408427 
L 244.515202 216.584847 
L 244.118394 216.397493 
L 243.738313 216.625397 
L 242.981672 216.40684 
L 242.439008 215.957406 
L 241.744526 215.897981 
L 241.546815 215.6815 
L 240.779855 215.684404 
L 239.090998 214.019463 
L 237.805387 213.709506 
L 237.692194 213.528584 
L 237.423869 213.618645 
L 237.317455 213.287201 
L 236.560089 213.01552 
L 235.700263 213.187314 
L 234.385102 211.143876 
L 233.779457 211.080017 
L 232.831597 212.155012 
L 230.784865 212.663107 
L 229.323692 211.816728 
L 246.244643 163.999234 
L 258.667898 152.66275 
z
" clip-path="url(#p36500248b3)" style="fill: #d9fcfe; stroke: #d9fcfe; stroke-linejoin: miter"/>
   </g>
   <g id="patch_26">
    <path d="M 258.667898 152.66275 
L 289.840652 176.364257 
L 286.619343 189.55094 
L 273.924376 237.935092 
L 265.31069 295.398846 
L 250.459934 295.488 
L 217.881218 282.937295 
L 217.384915 282.141633 
L 217.128464 281.823024 
L 217.078675 281.65726 
L 217.055234 281.72608 
L 216.986852 281.58779 
L 216.964385 281.484235 
L 216.941138 281.518579 
L 216.942114 281.346205 
L 217.034513 281.312252 
L 217.012436 281.139747 
L 217.01302 281.036323 
L 217.059895 280.898684 
L 217.129427 280.830123 
L 217.107735 280.588671 
L 217.224315 280.347994 
L 217.201463 280.31339 
L 217.248129 280.210224 
L 217.248706 280.1068 
L 217.20262 280.106542 
L 217.180543 279.93404 
L 217.113162 279.623381 
L 217.094196 278.899287 
L 217.050266 278.519808 
L 217.028207 278.347306 
L 216.959721 278.239662 
L 217.421251 277.014159 
L 217.340786 275.659988 
L 217.92258 274.965442 
L 218.37941 274.585208 
L 218.497748 274.076752 
L 218.361629 273.328318 
L 218.918641 272.543853 
L 219.850907 271.149033 
L 220.495026 269.554418 
L 221.462433 268.839066 
L 221.905064 267.353251 
L 222.616237 264.389974 
L 222.643641 263.636465 
L 222.832019 262.954851 
L 224.621981 262.004184 
L 225.108055 260.91594 
L 224.499562 257.6223 
L 224.732507 256.252084 
L 226.097042 252.488793 
L 226.183781 250.416562 
L 226.688998 249.836466 
L 227.590323 249.203559 
L 227.95592 247.793498 
L 227.862167 246.967105 
L 227.99893 245.642055 
L 227.711933 244.060454 
L 227.963981 243.047675 
L 229.116549 241.17218 
L 229.563373 239.735933 
L 231.808224 238.249461 
L 235.311899 233.951887 
L 235.336424 232.088453 
L 235.715614 231.508934 
L 236.257797 231.39799 
L 237.142043 231.576098 
L 237.810307 231.092818 
L 237.975745 229.927712 
L 238.404042 229.531907 
L 239.150864 229.473255 
L 239.809505 229.443626 
L 240.792442 228.73849 
L 241.563784 227.427873 
L 242.172895 224.720028 
L 243.322635 221.90884 
L 244.775674 219.768902 
L 245.617251 218.060651 
L 247.345591 217.313707 
L 247.111539 217.113362 
L 246.917363 216.576244 
L 245.728887 217.191956 
L 245.63741 216.481389 
L 244.541319 216.408427 
L 244.515202 216.584847 
L 244.118394 216.397493 
L 243.738313 216.625397 
L 242.981672 216.40684 
L 242.439008 215.957406 
L 241.744526 215.897981 
L 241.546815 215.6815 
L 240.779855 215.684404 
L 239.090998 214.019463 
L 237.805387 213.709506 
L 237.692194 213.528584 
L 237.423869 213.618645 
L 237.317455 213.287201 
L 236.560089 213.01552 
L 235.700263 213.187314 
L 234.385102 211.143876 
L 233.779457 211.080017 
L 232.831597 212.155012 
L 230.784865 212.663107 
L 229.323692 211.816728 
L 246.244643 163.999234 
L 258.667898 152.66275 
z
" clip-path="url(#p36500248b3)" style="fill: #d9fcfe; stroke: #d9fcfe; stroke-linejoin: miter"/>
   </g>
   <g id="patch_27">
    <path d="M 258.667898 152.66275 
L 289.840652 176.364257 
L 286.619343 189.55094 
L 273.924376 237.935092 
L 265.31069 295.398846 
L 250.459934 295.488 
L 217.881218 282.937295 
L 217.384915 282.141633 
L 217.128464 281.823024 
L 217.078675 281.65726 
L 217.055234 281.72608 
L 216.986852 281.58779 
L 216.964385 281.484235 
L 216.941138 281.518579 
L 216.942114 281.346205 
L 217.034513 281.312252 
L 217.012436 281.139747 
L 217.01302 281.036323 
L 217.059895 280.898684 
L 217.129427 280.830123 
L 217.107735 280.588671 
L 217.224315 280.347994 
L 217.201463 280.31339 
L 217.248129 280.210224 
L 217.248706 280.1068 
L 217.20262 280.106542 
L 217.180543 279.93404 
L 217.113162 279.623381 
L 217.094196 278.899287 
L 217.050266 278.519808 
L 217.028207 278.347306 
L 216.959721 278.239662 
L 217.421251 277.014159 
L 217.340786 275.659988 
L 217.92258 274.965442 
L 218.37941 274.585208 
L 218.497748 274.076752 
L 218.361629 273.328318 
L 218.918641 272.543853 
L 219.850907 271.149033 
L 220.495026 269.554418 
L 221.462433 268.839066 
L 221.905064 267.353251 
L 222.616237 264.389974 
L 222.643641 263.636465 
L 222.832019 262.954851 
L 224.621981 262.004184 
L 225.108055 260.91594 
L 224.499562 257.6223 
L 224.732507 256.252084 
L 226.097042 252.488793 
L 226.183781 250.416562 
L 226.688998 249.836466 
L 227.590323 249.203559 
L 227.95592 247.793498 
L 227.862167 246.967105 
L 227.99893 245.642055 
L 227.711933 244.060454 
L 227.963981 243.047675 
L 229.116549 241.17218 
L 229.563373 239.735933 
L 231.808224 238.249461 
L 235.311899 233.951887 
L 235.336424 232.088453 
L 235.715614 231.508934 
L 236.257797 231.39799 
L 237.142043 231.576098 
L 237.810307 231.092818 
L 237.975745 229.927712 
L 238.404042 229.531907 
L 239.150864 229.473255 
L 239.809505 229.443626 
L 240.792442 228.73849 
L 241.563784 227.427873 
L 242.172895 224.720028 
L 243.322635 221.90884 
L 244.775674 219.768902 
L 245.617251 218.060651 
L 247.345591 217.313707 
L 247.111539 217.113362 
L 246.917363 216.576244 
L 245.728887 217.191956 
L 245.63741 216.481389 
L 244.541319 216.408427 
L 244.515202 216.584847 
L 244.118394 216.397493 
L 243.738313 216.625397 
L 242.981672 216.40684 
L 242.439008 215.957406 
L 241.744526 215.897981 
L 241.546815 215.6815 
L 240.779855 215.684404 
L 239.090998 214.019463 
L 237.805387 213.709506 
L 237.692194 213.528584 
L 237.423869 213.618645 
L 237.317455 213.287201 
L 236.560089 213.01552 
L 235.700263 213.187314 
L 234.385102 211.143876 
L 233.779457 211.080017 
L 232.831597 212.155012 
L 230.784865 212.663107 
L 229.323692 211.816728 
L 246.244643 163.999234 
L 258.667898 152.66275 
z
" clip-path="url(#p36500248b3)" style="fill: #d9fcfe; stroke: #d9fcfe; stroke-linejoin: miter"/>
   </g>
   <g id="line2d_1">
    <path d="M 302.113874 53.568 
L 298.939529 70.717019 
L 293.796327 98.449369 
L 298.203843 117.980946 
L 299.7783 124.960744 
L 289.840652 176.364257 
L 258.667898 152.66275 
L 232.805122 103.983211 
L 222.188471 97.863888 
L 221.453532 94.260625 
L 247.495666 78.500661 
L 262.157912 69.628807 
L 268.838556 65.585742 
L 272.093741 63.483229 
L 287.016199 53.841559 
L 302.113874 53.568 
" clip-path="url(#p36500248b3)" style="fill: none; stroke: #f266ff; stroke-width: 0.5; stroke-linecap: square"/>
   </g>
   <g id="line2d_2">
    <path d="M 254.498024 58.554259 
L 262.157912 69.628807 
L 247.495666 78.500661 
L 221.453532 94.260625 
L 217.440626 74.554141 
L 239.827393 64.882999 
L 254.498024 58.554259 
" clip-path="url(#p36500248b3)" style="fill: none; stroke: #f266ff; stroke-width: 0.5; stroke-linecap: square"/>
   </g>
   <g id="line2d_3">
    <path d="M 302.113874 53.568 
L 298.939529 70.717019 
L 293.796327 98.449369 
L 298.203843 117.980946 
L 299.7783 124.960744 
L 289.840652 176.364257 
L 258.667898 152.66275 
L 232.805122 103.983211 
L 222.188471 97.863888 
L 221.453532 94.260625 
L 247.495666 78.500661 
L 262.157912 69.628807 
L 268.838556 65.585742 
L 272.093741 63.483229 
L 287.016199 53.841559 
L 302.113874 53.568 
" clip-path="url(#p36500248b3)" style="fill: none; stroke: #f266ff; stroke-width: 0.5; stroke-linecap: square"/>
   </g>
   <g id="line2d_4">
    <path d="M 302.113874 53.568 
L 298.939529 70.717019 
L 293.796327 98.449369 
L 298.203843 117.980946 
L 299.7783 124.960744 
L 289.840652 176.364257 
L 258.667898 152.66275 
L 232.805122 103.983211 
L 222.188471 97.863888 
L 221.453532 94.260625 
L 247.495666 78.500661 
L 262.157912 69.628807 
L 268.838556 65.585742 
L 272.093741 63.483229 
L 287.016199 53.841559 
L 302.113874 53.568 
" clip-path="url(#p36500248b3)" style="fill: none; stroke: #f266ff; stroke-width: 0.5; stroke-linecap: square"/>
   </g>
   <g id="line2d_5">
    <path d="M 302.113874 53.568 
L 298.939529 70.717019 
L 293.796327 98.449369 
L 298.203843 117.980946 
L 299.7783 124.960744 
L 289.840652 176.364257 
L 258.667898 152.66275 
L 232.805122 103.983211 
L 222.188471 97.863888 
L 221.453532 94.260625 
L 247.495666 78.500661 
L 262.157912 69.628807 
L 268.838556 65.585742 
L 272.093741 63.483229 
L 287.016199 53.841559 
L 302.113874 53.568 
" clip-path="url(#p36500248b3)" style="fill: none; stroke: #f266ff; stroke-width: 0.5; stroke-linecap: square"/>
   </g>
   <g id="line2d_6">
    <path d="M 222.188471 97.863888 
L 232.805122 103.983211 
L 258.667898 152.66275 
L 246.244643 163.999234 
L 229.323692 211.816728 
L 227.454123 210.582591 
L 224.695551 211.899586 
L 220.144872 211.20215 
L 220.13681 209.822628 
L 215.493547 207.949449 
L 213.731399 205.29923 
L 214.544624 204.215847 
L 213.929321 203.514168 
L 211.804342 202.368832 
L 208.249644 203.122273 
L 208.03514 205.005321 
L 204.918887 206.954121 
L 198.896915 206.549724 
L 196.5256 204.122171 
L 195.441123 204.584061 
L 195.82915 205.802123 
L 193.931309 206.880242 
L 193.328598 201.512189 
L 189.065376 199.406885 
L 184.447076 199.978141 
L 185.330949 202.640865 
L 184.228605 204.237469 
L 181.954898 202.86816 
L 180.250626 203.158489 
L 179.251494 200.785999 
L 178.734535 199.551457 
L 173.899977 175.792869 
L 183.575371 169.621346 
L 184.698703 162.783124 
L 180.673731 157.125797 
L 176.905545 153.727813 
L 170.206126 158.58007 
L 174.00044 141.627689 
L 177.331837 126.693598 
L 192.157834 128.153754 
L 189.339479 110.591919 
L 204.002255 110.484683 
L 215.178586 114.349869 
L 217.726494 120.607921 
L 224.356247 117.882447 
L 219.209682 105.987154 
L 218.390052 104.718857 
L 215.202394 99.720732 
L 222.188471 97.863888 
" clip-path="url(#p36500248b3)" style="fill: none; stroke: #ffc380; stroke-width: 0.5; stroke-linecap: square"/>
   </g>
   <g id="line2d_7">
    <path d="M 222.188471 97.863888 
L 232.805122 103.983211 
L 258.667898 152.66275 
L 246.244643 163.999234 
L 229.323692 211.816728 
L 227.454123 210.582591 
L 224.695551 211.899586 
L 220.144872 211.20215 
L 220.13681 209.822628 
L 215.493547 207.949449 
L 213.731399 205.29923 
L 214.544624 204.215847 
L 213.929321 203.514168 
L 211.804342 202.368832 
L 208.249644 203.122273 
L 208.03514 205.005321 
L 204.918887 206.954121 
L 198.896915 206.549724 
L 196.5256 204.122171 
L 195.441123 204.584061 
L 195.82915 205.802123 
L 193.931309 206.880242 
L 193.328598 201.512189 
L 189.065376 199.406885 
L 184.447076 199.978141 
L 185.330949 202.640865 
L 184.228605 204.237469 
L 181.954898 202.86816 
L 180.250626 203.158489 
L 179.251494 200.785999 
L 178.734535 199.551457 
L 173.899977 175.792869 
L 170.665931 159.700066 
L 170.206126 158.58007 
L 174.00044 141.627689 
L 177.331837 126.693598 
L 184.828999 110.868023 
L 192.998432 105.644848 
L 198.658026 104.12652 
L 215.202394 99.720732 
L 222.188471 97.863888 
" clip-path="url(#p36500248b3)" style="fill: none; stroke: #ffc380; stroke-width: 0.5; stroke-linecap: square"/>
   </g>
   <g id="line2d_8">
    <path d="M 222.188471 97.863888 
L 232.805122 103.983211 
L 258.667898 152.66275 
L 246.244643 163.999234 
L 229.323692 211.816728 
L 227.454123 210.582591 
L 224.695551 211.899586 
L 220.144872 211.20215 
L 220.13681 209.822628 
L 215.493547 207.949449 
L 213.731399 205.29923 
L 214.544624 204.215847 
L 213.929321 203.514168 
L 211.804342 202.368832 
L 208.249644 203.122273 
L 208.03514 205.005321 
L 204.918887 206.954121 
L 198.896915 206.549724 
L 196.5256 204.122171 
L 195.441123 204.584061 
L 195.82915 205.802123 
L 193.931309 206.880242 
L 193.328598 201.512189 
L 189.065376 199.406885 
L 184.447076 199.978141 
L 185.330949 202.640865 
L 184.228605 204.237469 
L 181.954898 202.86816 
L 180.250626 203.158489 
L 179.251494 200.785999 
L 178.734535 199.551457 
L 173.899977 175.792869 
L 170.665931 159.700066 
L 170.206126 158.58007 
L 174.00044 141.627689 
L 177.331837 126.693598 
L 184.828999 110.868023 
L 192.998432 105.644848 
L 198.658026 104.12652 
L 215.202394 99.720732 
L 222.188471 97.863888 
" clip-path="url(#p36500248b3)" style="fill: none; stroke: #ffc380; stroke-width: 0.5; stroke-linecap: square"/>
   </g>
   <g id="line2d_9">
    <path d="M 222.188471 97.863888 
L 232.805122 103.983211 
L 258.667898 152.66275 
L 246.244643 163.999234 
L 229.323692 211.816728 
L 227.454123 210.582591 
L 224.695551 211.899586 
L 220.144872 211.20215 
L 220.13681 209.822628 
L 215.493547 207.949449 
L 213.731399 205.29923 
L 214.544624 204.215847 
L 213.929321 203.514168 
L 211.804342 202.368832 
L 208.249644 203.122273 
L 208.03514 205.005321 
L 204.918887 206.954121 
L 198.896915 206.549724 
L 196.5256 204.122171 
L 195.441123 204.584061 
L 195.82915 205.802123 
L 193.931309 206.880242 
L 193.328598 201.512189 
L 189.065376 199.406885 
L 184.447076 199.978141 
L 185.330949 202.640865 
L 184.228605 204.237469 
L 181.954898 202.86816 
L 180.250626 203.158489 
L 179.251494 200.785999 
L 178.734535 199.551457 
L 173.899977 175.792869 
L 170.665931 159.700066 
L 170.206126 158.58007 
L 174.00044 141.627689 
L 177.331837 126.693598 
L 184.828999 110.868023 
L 192.998432 105.644848 
L 198.658026 104.12652 
L 215.202394 99.720732 
L 222.188471 97.863888 
" clip-path="url(#p36500248b3)" style="fill: none; stroke: #ffc380; stroke-width: 0.5; stroke-linecap: square"/>
   </g>
   <g id="line2d_10">
    <path d="M 222.188471 97.863888 
L 232.805122 103.983211 
L 258.667898 152.66275 
L 246.244643 163.999234 
L 229.323692 211.816728 
L 227.454123 210.582591 
L 224.695551 211.899586 
L 220.144872 211.20215 
L 220.13681 209.822628 
L 215.493547 207.949449 
L 213.731399 205.29923 
L 214.544624 204.215847 
L 213.929321 203.514168 
L 211.804342 202.368832 
L 208.249644 203.122273 
L 208.03514 205.005321 
L 204.918887 206.954121 
L 198.896915 206.549724 
L 196.5256 204.122171 
L 195.441123 204.584061 
L 195.82915 205.802123 
L 193.931309 206.880242 
L 193.328598 201.512189 
L 189.065376 199.406885 
L 184.447076 199.978141 
L 185.330949 202.640865 
L 184.228605 204.237469 
L 181.954898 202.86816 
L 180.250626 203.158489 
L 179.251494 200.785999 
L 178.734535 199.551457 
L 173.899977 175.792869 
L 170.665931 159.700066 
L 170.206126 158.58007 
L 174.00044 141.627689 
L 177.331837 126.693598 
L 184.828999 110.868023 
L 192.998432 105.644848 
L 198.658026 104.12652 
L 215.202394 99.720732 
L 222.188471 97.863888 
" clip-path="url(#p36500248b3)" style="fill: none; stroke: #ffc380; stroke-width: 0.5; stroke-linecap: square"/>
   </g>
   <g id="line2d_11">
    <path d="M 258.667898 152.66275 
L 289.840652 176.364257 
L 286.619343 189.55094 
L 273.924376 237.935092 
L 265.31069 295.398846 
L 250.459934 295.488 
L 217.881218 282.937295 
L 217.384915 282.141633 
L 217.128464 281.823024 
L 217.078675 281.65726 
L 217.055234 281.72608 
L 216.986852 281.58779 
L 216.964385 281.484235 
L 216.941138 281.518579 
L 216.942114 281.346205 
L 217.034513 281.312252 
L 217.012436 281.139747 
L 217.01302 281.036323 
L 217.059895 280.898684 
L 217.129427 280.830123 
L 217.107735 280.588671 
L 217.224315 280.347994 
L 217.201463 280.31339 
L 217.248129 280.210224 
L 217.248706 280.1068 
L 217.20262 280.106542 
L 217.180543 279.93404 
L 217.113162 279.623381 
L 217.094196 278.899287 
L 217.050266 278.519808 
L 217.028207 278.347306 
L 216.959721 278.239662 
L 217.421251 277.014159 
L 217.340786 275.659988 
L 217.92258 274.965442 
L 218.37941 274.585208 
L 218.497748 274.076752 
L 218.361629 273.328318 
L 218.918641 272.543853 
L 219.850907 271.149033 
L 220.495026 269.554418 
L 221.462433 268.839066 
L 221.905064 267.353251 
L 222.616237 264.389974 
L 222.643641 263.636465 
L 222.832019 262.954851 
L 224.621981 262.004184 
L 225.108055 260.91594 
L 224.499562 257.6223 
L 224.732507 256.252084 
L 226.097042 252.488793 
L 226.183781 250.416562 
L 226.688998 249.836466 
L 227.590323 249.203559 
L 227.95592 247.793498 
L 227.862167 246.967105 
L 227.99893 245.642055 
L 227.711933 244.060454 
L 227.963981 243.047675 
L 229.116549 241.17218 
L 229.563373 239.735933 
L 231.808224 238.249461 
L 235.311899 233.951887 
L 235.336424 232.088453 
L 235.715614 231.508934 
L 236.257797 231.39799 
L 237.142043 231.576098 
L 237.810307 231.092818 
L 237.975745 229.927712 
L 238.404042 229.531907 
L 239.150864 229.473255 
L 239.809505 229.443626 
L 240.792442 228.73849 
L 241.563784 227.427873 
L 242.172895 224.720028 
L 243.322635 221.90884 
L 244.775674 219.768902 
L 245.617251 218.060651 
L 247.345591 217.313707 
L 247.111539 217.113362 
L 246.917363 216.576244 
L 245.728887 217.191956 
L 245.63741 216.481389 
L 244.541319 216.408427 
L 244.515202 216.584847 
L 244.118394 216.397493 
L 243.738313 216.625397 
L 242.981672 216.40684 
L 242.439008 215.957406 
L 241.744526 215.897981 
L 241.546815 215.6815 
L 240.779855 215.684404 
L 239.090998 214.019463 
L 237.805387 213.709506 
L 237.692194 213.528584 
L 237.423869 213.618645 
L 237.317455 213.287201 
L 236.560089 213.01552 
L 235.700263 213.187314 
L 234.385102 211.143876 
L 233.779457 211.080017 
L 232.831597 212.155012 
L 230.784865 212.663107 
L 229.323692 211.816728 
L 246.244643 163.999234 
L 258.667898 152.66275 
" clip-path="url(#p36500248b3)" style="fill: none; stroke: #4df6ff; stroke-width: 0.5; stroke-linecap: square"/>
   </g>
   <g id="line2d_12">
    <path d="M 258.667898 152.66275 
L 289.840652 176.364257 
L 286.619343 189.55094 
L 273.924376 237.935092 
L 265.31069 295.398846 
L 250.459934 295.488 
L 217.881218 282.937295 
L 217.384915 282.141633 
L 217.128464 281.823024 
L 217.078675 281.65726 
L 217.055234 281.72608 
L 216.986852 281.58779 
L 216.964385 281.484235 
L 216.941138 281.518579 
L 216.942114 281.346205 
L 217.034513 281.312252 
L 217.012436 281.139747 
L 217.01302 281.036323 
L 217.059895 280.898684 
L 217.129427 280.830123 
L 217.107735 280.588671 
L 217.224315 280.347994 
L 217.201463 280.31339 
L 217.248129 280.210224 
L 217.248706 280.1068 
L 217.20262 280.106542 
L 217.180543 279.93404 
L 217.113162 279.623381 
L 217.094196 278.899287 
L 217.050266 278.519808 
L 217.028207 278.347306 
L 216.959721 278.239662 
L 217.421251 277.014159 
L 217.340786 275.659988 
L 217.92258 274.965442 
L 218.37941 274.585208 
L 218.497748 274.076752 
L 218.361629 273.328318 
L 218.918641 272.543853 
L 219.850907 271.149033 
L 220.495026 269.554418 
L 221.462433 268.839066 
L 221.905064 267.353251 
L 222.616237 264.389974 
L 222.643641 263.636465 
L 222.832019 262.954851 
L 224.621981 262.004184 
L 225.108055 260.91594 
L 224.499562 257.6223 
L 224.732507 256.252084 
L 226.097042 252.488793 
L 226.183781 250.416562 
L 226.688998 249.836466 
L 227.590323 249.203559 
L 227.95592 247.793498 
L 227.862167 246.967105 
L 227.99893 245.642055 
L 227.711933 244.060454 
L 227.963981 243.047675 
L 229.116549 241.17218 
L 229.563373 239.735933 
L 231.808224 238.249461 
L 235.311899 233.951887 
L 235.336424 232.088453 
L 235.715614 231.508934 
L 236.257797 231.39799 
L 237.142043 231.576098 
L 237.810307 231.092818 
L 237.975745 229.927712 
L 238.404042 229.531907 
L 239.150864 229.473255 
L 239.809505 229.443626 
L 240.792442 228.73849 
L 241.563784 227.427873 
L 242.172895 224.720028 
L 243.322635 221.90884 
L 244.775674 219.768902 
L 245.617251 218.060651 
L 247.345591 217.313707 
L 247.111539 217.113362 
L 246.917363 216.576244 
L 245.728887 217.191956 
L 245.63741 216.481389 
L 244.541319 216.408427 
L 244.515202 216.584847 
L 244.118394 216.397493 
L 243.738313 216.625397 
L 242.981672 216.40684 
L 242.439008 215.957406 
L 241.744526 215.897981 
L 241.546815 215.6815 
L 240.779855 215.684404 
L 239.090998 214.019463 
L 237.805387 213.709506 
L 237.692194 213.528584 
L 237.423869 213.618645 
L 237.317455 213.287201 
L 236.560089 213.01552 
L 235.700263 213.187314 
L 234.385102 211.143876 
L 233.779457 211.080017 
L 232.831597 212.155012 
L 230.784865 212.663107 
L 229.323692 211.816728 
L 246.244643 163.999234 
L 258.667898 152.66275 
" clip-path="url(#p36500248b3)" style="fill: none; stroke: #4df6ff; stroke-width: 0.5; stroke-linecap: square"/>
   </g>
   <g id="line2d_13">
    <path d="M 258.667898 152.66275 
L 289.840652 176.364257 
L 286.619343 189.55094 
L 273.924376 237.935092 
L 265.31069 295.398846 
L 250.459934 295.488 
L 217.881218 282.937295 
L 217.384915 282.141633 
L 217.128464 281.823024 
L 217.078675 281.65726 
L 217.055234 281.72608 
L 216.986852 281.58779 
L 216.964385 281.484235 
L 216.941138 281.518579 
L 216.942114 281.346205 
L 217.034513 281.312252 
L 217.012436 281.139747 
L 217.01302 281.036323 
L 217.059895 280.898684 
L 217.129427 280.830123 
L 217.107735 280.588671 
L 217.224315 280.347994 
L 217.201463 280.31339 
L 217.248129 280.210224 
L 217.248706 280.1068 
L 217.20262 280.106542 
L 217.180543 279.93404 
L 217.113162 279.623381 
L 217.094196 278.899287 
L 217.050266 278.519808 
L 217.028207 278.347306 
L 216.959721 278.239662 
L 217.421251 277.014159 
L 217.340786 275.659988 
L 217.92258 274.965442 
L 218.37941 274.585208 
L 218.497748 274.076752 
L 218.361629 273.328318 
L 218.918641 272.543853 
L 219.850907 271.149033 
L 220.495026 269.554418 
L 221.462433 268.839066 
L 221.905064 267.353251 
L 222.616237 264.389974 
L 222.643641 263.636465 
L 222.832019 262.954851 
L 224.621981 262.004184 
L 225.108055 260.91594 
L 224.499562 257.6223 
L 224.732507 256.252084 
L 226.097042 252.488793 
L 226.183781 250.416562 
L 226.688998 249.836466 
L 227.590323 249.203559 
L 227.95592 247.793498 
L 227.862167 246.967105 
L 227.99893 245.642055 
L 227.711933 244.060454 
L 227.963981 243.047675 
L 229.116549 241.17218 
L 229.563373 239.735933 
L 231.808224 238.249461 
L 235.311899 233.951887 
L 235.336424 232.088453 
L 235.715614 231.508934 
L 236.257797 231.39799 
L 237.142043 231.576098 
L 237.810307 231.092818 
L 237.975745 229.927712 
L 238.404042 229.531907 
L 239.150864 229.473255 
L 239.809505 229.443626 
L 240.792442 228.73849 
L 241.563784 227.427873 
L 242.172895 224.720028 
L 243.322635 221.90884 
L 244.775674 219.768902 
L 245.617251 218.060651 
L 247.345591 217.313707 
L 247.111539 217.113362 
L 246.917363 216.576244 
L 245.728887 217.191956 
L 245.63741 216.481389 
L 244.541319 216.408427 
L 244.515202 216.584847 
L 244.118394 216.397493 
L 243.738313 216.625397 
L 242.981672 216.40684 
L 242.439008 215.957406 
L 241.744526 215.897981 
L 241.546815 215.6815 
L 240.779855 215.684404 
L 239.090998 214.019463 
L 237.805387 213.709506 
L 237.692194 213.528584 
L 237.423869 213.618645 
L 237.317455 213.287201 
L 236.560089 213.01552 
L 235.700263 213.187314 
L 234.385102 211.143876 
L 233.779457 211.080017 
L 232.831597 212.155012 
L 230.784865 212.663107 
L 229.323692 211.816728 
L 246.244643 163.999234 
L 258.667898 152.66275 
" clip-path="url(#p36500248b3)" style="fill: none; stroke: #4df6ff; stroke-width: 0.5; stroke-linecap: square"/>
   </g>
   <g id="line2d_14">
    <path d="M 302.113874 53.568 
L 298.939529 70.717019 
L 293.796327 98.449369 
L 298.203843 117.980946 
L 299.7783 124.960744 
L 289.840652 176.364257 
L 258.667898 152.66275 
L 232.805122 103.983211 
L 222.188471 97.863888 
L 221.453532 94.260625 
L 247.495666 78.500661 
L 262.157912 69.628807 
L 268.838556 65.585742 
L 272.093741 63.483229 
L 287.016199 53.841559 
L 302.113874 53.568 
L 302.113874 53.568 
" clip-path="url(#p36500248b3)" style="fill: none; stroke: #f266ff; stroke-width: 0.5; stroke-linecap: square"/>
   </g>
   <g id="line2d_15">
    <path d="M 254.498024 58.554259 
L 262.157912 69.628807 
L 247.495666 78.500661 
L 221.453532 94.260625 
L 217.440626 74.554141 
L 239.827393 64.882999 
L 254.498024 58.554259 
L 254.498024 58.554259 
" clip-path="url(#p36500248b3)" style="fill: none; stroke: #f266ff; stroke-width: 0.5; stroke-linecap: square"/>
   </g>
   <g id="line2d_16">
    <path d="M 302.113874 53.568 
L 298.939529 70.717019 
L 293.796327 98.449369 
L 298.203843 117.980946 
L 299.7783 124.960744 
L 289.840652 176.364257 
L 258.667898 152.66275 
L 232.805122 103.983211 
L 222.188471 97.863888 
L 221.453532 94.260625 
L 247.495666 78.500661 
L 262.157912 69.628807 
L 268.838556 65.585742 
L 272.093741 63.483229 
L 287.016199 53.841559 
L 302.113874 53.568 
L 302.113874 53.568 
" clip-path="url(#p36500248b3)" style="fill: none; stroke: #f266ff; stroke-width: 0.5; stroke-linecap: square"/>
   </g>
   <g id="line2d_17">
    <path d="M 302.113874 53.568 
L 298.939529 70.717019 
L 293.796327 98.449369 
L 298.203843 117.980946 
L 299.7783 124.960744 
L 289.840652 176.364257 
L 258.667898 152.66275 
L 232.805122 103.983211 
L 222.188471 97.863888 
L 221.453532 94.260625 
L 247.495666 78.500661 
L 262.157912 69.628807 
L 268.838556 65.585742 
L 272.093741 63.483229 
L 287.016199 53.841559 
L 302.113874 53.568 
L 302.113874 53.568 
" clip-path="url(#p36500248b3)" style="fill: none; stroke: #f266ff; stroke-width: 0.5; stroke-linecap: square"/>
   </g>
   <g id="line2d_18">
    <path d="M 302.113874 53.568 
L 298.939529 70.717019 
L 293.796327 98.449369 
L 298.203843 117.980946 
L 299.7783 124.960744 
L 289.840652 176.364257 
L 258.667898 152.66275 
L 232.805122 103.983211 
L 222.188471 97.863888 
L 221.453532 94.260625 
L 247.495666 78.500661 
L 262.157912 69.628807 
L 268.838556 65.585742 
L 272.093741 63.483229 
L 287.016199 53.841559 
L 302.113874 53.568 
L 302.113874 53.568 
" clip-path="url(#p36500248b3)" style="fill: none; stroke: #f266ff; stroke-width: 0.5; stroke-linecap: square"/>
   </g>
   <g id="line2d_19">
    <path d="M 222.188471 97.863888 
L 232.805122 103.983211 
L 258.667898 152.66275 
L 246.244643 163.999234 
L 229.323692 211.816728 
L 227.454123 210.582591 
L 224.695551 211.899586 
L 220.144872 211.20215 
L 220.13681 209.822628 
L 215.493547 207.949449 
L 213.731399 205.29923 
L 214.544624 204.215847 
L 213.929321 203.514168 
L 211.804342 202.368832 
L 208.249644 203.122273 
L 208.03514 205.005321 
L 204.918887 206.954121 
L 198.896915 206.549724 
L 196.5256 204.122171 
L 195.441123 204.584061 
L 195.82915 205.802123 
L 193.931309 206.880242 
L 193.328598 201.512189 
L 189.065376 199.406885 
L 184.447076 199.978141 
L 185.330949 202.640865 
L 184.228605 204.237469 
L 181.954898 202.86816 
L 180.250626 203.158489 
L 179.251494 200.785999 
L 178.734535 199.551457 
L 173.899977 175.792869 
L 183.575371 169.621346 
L 184.698703 162.783124 
L 180.673731 157.125797 
L 176.905545 153.727813 
L 170.206126 158.58007 
L 174.00044 141.627689 
L 177.331837 126.693598 
L 192.157834 128.153754 
L 189.339479 110.591919 
L 204.002255 110.484683 
L 215.178586 114.349869 
L 217.726494 120.607921 
L 224.356247 117.882447 
L 219.209682 105.987154 
L 218.390052 104.718857 
L 215.202394 99.720732 
L 222.188471 97.863888 
L 222.188471 97.863888 
" clip-path="url(#p36500248b3)" style="fill: none; stroke: #ffc380; stroke-width: 0.5; stroke-linecap: square"/>
   </g>
   <g id="line2d_20">
    <path d="M 222.188471 97.863888 
L 232.805122 103.983211 
L 258.667898 152.66275 
L 246.244643 163.999234 
L 229.323692 211.816728 
L 227.454123 210.582591 
L 224.695551 211.899586 
L 220.144872 211.20215 
L 220.13681 209.822628 
L 215.493547 207.949449 
L 213.731399 205.29923 
L 214.544624 204.215847 
L 213.929321 203.514168 
L 211.804342 202.368832 
L 208.249644 203.122273 
L 208.03514 205.005321 
L 204.918887 206.954121 
L 198.896915 206.549724 
L 196.5256 204.122171 
L 195.441123 204.584061 
L 195.82915 205.802123 
L 193.931309 206.880242 
L 193.328598 201.512189 
L 189.065376 199.406885 
L 184.447076 199.978141 
L 185.330949 202.640865 
L 184.228605 204.237469 
L 181.954898 202.86816 
L 180.250626 203.158489 
L 179.251494 200.785999 
L 178.734535 199.551457 
L 173.899977 175.792869 
L 170.665931 159.700066 
L 170.206126 158.58007 
L 174.00044 141.627689 
L 177.331837 126.693598 
L 184.828999 110.868023 
L 192.998432 105.644848 
L 198.658026 104.12652 
L 215.202394 99.720732 
L 222.188471 97.863888 
L 222.188471 97.863888 
" clip-path="url(#p36500248b3)" style="fill: none; stroke: #ffc380; stroke-width: 0.5; stroke-linecap: square"/>
   </g>
   <g id="line2d_21">
    <path d="M 222.188471 97.863888 
L 232.805122 103.983211 
L 258.667898 152.66275 
L 246.244643 163.999234 
L 229.323692 211.816728 
L 227.454123 210.582591 
L 224.695551 211.899586 
L 220.144872 211.20215 
L 220.13681 209.822628 
L 215.493547 207.949449 
L 213.731399 205.29923 
L 214.544624 204.215847 
L 213.929321 203.514168 
L 211.804342 202.368832 
L 208.249644 203.122273 
L 208.03514 205.005321 
L 204.918887 206.954121 
L 198.896915 206.549724 
L 196.5256 204.122171 
L 195.441123 204.584061 
L 195.82915 205.802123 
L 193.931309 206.880242 
L 193.328598 201.512189 
L 189.065376 199.406885 
L 184.447076 199.978141 
L 185.330949 202.640865 
L 184.228605 204.237469 
L 181.954898 202.86816 
L 180.250626 203.158489 
L 179.251494 200.785999 
L 178.734535 199.551457 
L 173.899977 175.792869 
L 170.665931 159.700066 
L 170.206126 158.58007 
L 174.00044 141.627689 
L 177.331837 126.693598 
L 184.828999 110.868023 
L 192.998432 105.644848 
L 198.658026 104.12652 
L 215.202394 99.720732 
L 222.188471 97.863888 
L 222.188471 97.863888 
" clip-path="url(#p36500248b3)" style="fill: none; stroke: #ffc380; stroke-width: 0.5; stroke-linecap: square"/>
   </g>
   <g id="line2d_22">
    <path d="M 222.188471 97.863888 
L 232.805122 103.983211 
L 258.667898 152.66275 
L 246.244643 163.999234 
L 229.323692 211.816728 
L 227.454123 210.582591 
L 224.695551 211.899586 
L 220.144872 211.20215 
L 220.13681 209.822628 
L 215.493547 207.949449 
L 213.731399 205.29923 
L 214.544624 204.215847 
L 213.929321 203.514168 
L 211.804342 202.368832 
L 208.249644 203.122273 
L 208.03514 205.005321 
L 204.918887 206.954121 
L 198.896915 206.549724 
L 196.5256 204.122171 
L 195.441123 204.584061 
L 195.82915 205.802123 
L 193.931309 206.880242 
L 193.328598 201.512189 
L 189.065376 199.406885 
L 184.447076 199.978141 
L 185.330949 202.640865 
L 184.228605 204.237469 
L 181.954898 202.86816 
L 180.250626 203.158489 
L 179.251494 200.785999 
L 178.734535 199.551457 
L 173.899977 175.792869 
L 170.665931 159.700066 
L 170.206126 158.58007 
L 174.00044 141.627689 
L 177.331837 126.693598 
L 184.828999 110.868023 
L 192.998432 105.644848 
L 198.658026 104.12652 
L 215.202394 99.720732 
L 222.188471 97.863888 
L 222.188471 97.863888 
" clip-path="url(#p36500248b3)" style="fill: none; stroke: #ffc380; stroke-width: 0.5; stroke-linecap: square"/>
   </g>
   <g id="line2d_23">
    <path d="M 222.188471 97.863888 
L 232.805122 103.983211 
L 258.667898 152.66275 
L 246.244643 163.999234 
L 229.323692 211.816728 
L 227.454123 210.582591 
L 224.695551 211.899586 
L 220.144872 211.20215 
L 220.13681 209.822628 
L 215.493547 207.949449 
L 213.731399 205.29923 
L 214.544624 204.215847 
L 213.929321 203.514168 
L 211.804342 202.368832 
L 208.249644 203.122273 
L 208.03514 205.005321 
L 204.918887 206.954121 
L 198.896915 206.549724 
L 196.5256 204.122171 
L 195.441123 204.584061 
L 195.82915 205.802123 
L 193.931309 206.880242 
L 193.328598 201.512189 
L 189.065376 199.406885 
L 184.447076 199.978141 
L 185.330949 202.640865 
L 184.228605 204.237469 
L 181.954898 202.86816 
L 180.250626 203.158489 
L 179.251494 200.785999 
L 178.734535 199.551457 
L 173.899977 175.792869 
L 170.665931 159.700066 
L 170.206126 158.58007 
L 174.00044 141.627689 
L 177.331837 126.693598 
L 184.828999 110.868023 
L 192.998432 105.644848 
L 198.658026 104.12652 
L 215.202394 99.720732 
L 222.188471 97.863888 
L 222.188471 97.863888 
" clip-path="url(#p36500248b3)" style="fill: none; stroke: #ffc380; stroke-width: 0.5; stroke-linecap: square"/>
   </g>
   <g id="line2d_24">
    <path d="M 258.667898 152.66275 
L 289.840652 176.364257 
L 286.619343 189.55094 
L 273.924376 237.935092 
L 265.31069 295.398846 
L 250.459934 295.488 
L 217.881218 282.937295 
L 217.384915 282.141633 
L 217.128464 281.823024 
L 217.078675 281.65726 
L 217.055234 281.72608 
L 216.986852 281.58779 
L 216.964385 281.484235 
L 216.941138 281.518579 
L 216.942114 281.346205 
L 217.034513 281.312252 
L 217.012436 281.139747 
L 217.01302 281.036323 
L 217.059895 280.898684 
L 217.129427 280.830123 
L 217.107735 280.588671 
L 217.224315 280.347994 
L 217.201463 280.31339 
L 217.248129 280.210224 
L 217.248706 280.1068 
L 217.20262 280.106542 
L 217.180543 279.93404 
L 217.113162 279.623381 
L 217.094196 278.899287 
L 217.050266 278.519808 
L 217.028207 278.347306 
L 216.959721 278.239662 
L 217.421251 277.014159 
L 217.340786 275.659988 
L 217.92258 274.965442 
L 218.37941 274.585208 
L 218.497748 274.076752 
L 218.361629 273.328318 
L 218.918641 272.543853 
L 219.850907 271.149033 
L 220.495026 269.554418 
L 221.462433 268.839066 
L 221.905064 267.353251 
L 222.616237 264.389974 
L 222.643641 263.636465 
L 222.832019 262.954851 
L 224.621981 262.004184 
L 225.108055 260.91594 
L 224.499562 257.6223 
L 224.732507 256.252084 
L 226.097042 252.488793 
L 226.183781 250.416562 
L 226.688998 249.836466 
L 227.590323 249.203559 
L 227.95592 247.793498 
L 227.862167 246.967105 
L 227.99893 245.642055 
L 227.711933 244.060454 
L 227.963981 243.047675 
L 229.116549 241.17218 
L 229.563373 239.735933 
L 231.808224 238.249461 
L 235.311899 233.951887 
L 235.336424 232.088453 
L 235.715614 231.508934 
L 236.257797 231.39799 
L 237.142043 231.576098 
L 237.810307 231.092818 
L 237.975745 229.927712 
L 238.404042 229.531907 
L 239.150864 229.473255 
L 239.809505 229.443626 
L 240.792442 228.73849 
L 241.563784 227.427873 
L 242.172895 224.720028 
L 243.322635 221.90884 
L 244.775674 219.768902 
L 245.617251 218.060651 
L 247.345591 217.313707 
L 247.111539 217.113362 
L 246.917363 216.576244 
L 245.728887 217.191956 
L 245.63741 216.481389 
L 244.541319 216.408427 
L 244.515202 216.584847 
L 244.118394 216.397493 
L 243.738313 216.625397 
L 242.981672 216.40684 
L 242.439008 215.957406 
L 241.744526 215.897981 
L 241.546815 215.6815 
L 240.779855 215.684404 
L 239.090998 214.019463 
L 237.805387 213.709506 
L 237.692194 213.528584 
L 237.423869 213.618645 
L 237.317455 213.287201 
L 236.560089 213.01552 
L 235.700263 213.187314 
L 234.385102 211.143876 
L 233.779457 211.080017 
L 232.831597 212.155012 
L 230.784865 212.663107 
L 229.323692 211.816728 
L 246.244643 163.999234 
L 258.667898 152.66275 
L 258.667898 152.66275 
" clip-path="url(#p36500248b3)" style="fill: none; stroke: #4df6ff; stroke-width: 0.5; stroke-linecap: square"/>
   </g>
   <g id="line2d_25">
    <path d="M 258.667898 152.66275 
L 289.840652 176.364257 
L 286.619343 189.55094 
L 273.924376 237.935092 
L 265.31069 295.398846 
L 250.459934 295.488 
L 217.881218 282.937295 
L 217.384915 282.141633 
L 217.128464 281.823024 
L 217.078675 281.65726 
L 217.055234 281.72608 
L 216.986852 281.58779 
L 216.964385 281.484235 
L 216.941138 281.518579 
L 216.942114 281.346205 
L 217.034513 281.312252 
L 217.012436 281.139747 
L 217.01302 281.036323 
L 217.059895 280.898684 
L 217.129427 280.830123 
L 217.107735 280.588671 
L 217.224315 280.347994 
L 217.201463 280.31339 
L 217.248129 280.210224 
L 217.248706 280.1068 
L 217.20262 280.106542 
L 217.180543 279.93404 
L 217.113162 279.623381 
L 217.094196 278.899287 
L 217.050266 278.519808 
L 217.028207 278.347306 
L 216.959721 278.239662 
L 217.421251 277.014159 
L 217.340786 275.659988 
L 217.92258 274.965442 
L 218.37941 274.585208 
L 218.497748 274.076752 
L 218.361629 273.328318 
L 218.918641 272.543853 
L 219.850907 271.149033 
L 220.495026 269.554418 
L 221.462433 268.839066 
L 221.905064 267.353251 
L 222.616237 264.389974 
L 222.643641 263.636465 
L 222.832019 262.954851 
L 224.621981 262.004184 
L 225.108055 260.91594 
L 224.499562 257.6223 
L 224.732507 256.252084 
L 226.097042 252.488793 
L 226.183781 250.416562 
L 226.688998 249.836466 
L 227.590323 249.203559 
L 227.95592 247.793498 
L 227.862167 246.967105 
L 227.99893 245.642055 
L 227.711933 244.060454 
L 227.963981 243.047675 
L 229.116549 241.17218 
L 229.563373 239.735933 
L 231.808224 238.249461 
L 235.311899 233.951887 
L 235.336424 232.088453 
L 235.715614 231.508934 
L 236.257797 231.39799 
L 237.142043 231.576098 
L 237.810307 231.092818 
L 237.975745 229.927712 
L 238.404042 229.531907 
L 239.150864 229.473255 
L 239.809505 229.443626 
L 240.792442 228.73849 
L 241.563784 227.427873 
L 242.172895 224.720028 
L 243.322635 221.90884 
L 244.775674 219.768902 
L 245.617251 218.060651 
L 247.345591 217.313707 
L 247.111539 217.113362 
L 246.917363 216.576244 
L 245.728887 217.191956 
L 245.63741 216.481389 
L 244.541319 216.408427 
L 244.515202 216.584847 
L 244.118394 216.397493 
L 243.738313 216.625397 
L 242.981672 216.40684 
L 242.439008 215.957406 
L 241.744526 215.897981 
L 241.546815 215.6815 
L 240.779855 215.684404 
L 239.090998 214.019463 
L 237.805387 213.709506 
L 237.692194 213.528584 
L 237.423869 213.618645 
L 237.317455 213.287201 
L 236.560089 213.01552 
L 235.700263 213.187314 
L 234.385102 211.143876 
L 233.779457 211.080017 
L 232.831597 212.155012 
L 230.784865 212.663107 
L 229.323692 211.816728 
L 246.244643 163.999234 
L 258.667898 152.66275 
L 258.667898 152.66275 
" clip-path="url(#p36500248b3)" style="fill: none; stroke: #4df6ff; stroke-width: 0.5; stroke-linecap: square"/>
   </g>
   <g id="line2d_26">
    <path d="M 258.667898 152.66275 
L 289.840652 176.364257 
L 286.619343 189.55094 
L 273.924376 237.935092 
L 265.31069 295.398846 
L 250.459934 295.488 
L 217.881218 282.937295 
L 217.384915 282.141633 
L 217.128464 281.823024 
L 217.078675 281.65726 
L 217.055234 281.72608 
L 216.986852 281.58779 
L 216.964385 281.484235 
L 216.941138 281.518579 
L 216.942114 281.346205 
L 217.034513 281.312252 
L 217.012436 281.139747 
L 217.01302 281.036323 
L 217.059895 280.898684 
L 217.129427 280.830123 
L 217.107735 280.588671 
L 217.224315 280.347994 
L 217.201463 280.31339 
L 217.248129 280.210224 
L 217.248706 280.1068 
L 217.20262 280.106542 
L 217.180543 279.93404 
L 217.113162 279.623381 
L 217.094196 278.899287 
L 217.050266 278.519808 
L 217.028207 278.347306 
L 216.959721 278.239662 
L 217.421251 277.014159 
L 217.340786 275.659988 
L 217.92258 274.965442 
L 218.37941 274.585208 
L 218.497748 274.076752 
L 218.361629 273.328318 
L 218.918641 272.543853 
L 219.850907 271.149033 
L 220.495026 269.554418 
L 221.462433 268.839066 
L 221.905064 267.353251 
L 222.616237 264.389974 
L 222.643641 263.636465 
L 222.832019 262.954851 
L 224.621981 262.004184 
L 225.108055 260.91594 
L 224.499562 257.6223 
L 224.732507 256.252084 
L 226.097042 252.488793 
L 226.183781 250.416562 
L 226.688998 249.836466 
L 227.590323 249.203559 
L 227.95592 247.793498 
L 227.862167 246.967105 
L 227.99893 245.642055 
L 227.711933 244.060454 
L 227.963981 243.047675 
L 229.116549 241.17218 
L 229.563373 239.735933 
L 231.808224 238.249461 
L 235.311899 233.951887 
L 235.336424 232.088453 
L 235.715614 231.508934 
L 236.257797 231.39799 
L 237.142043 231.576098 
L 237.810307 231.092818 
L 237.975745 229.927712 
L 238.404042 229.531907 
L 239.150864 229.473255 
L 239.809505 229.443626 
L 240.792442 228.73849 
L 241.563784 227.427873 
L 242.172895 224.720028 
L 243.322635 221.90884 
L 244.775674 219.768902 
L 245.617251 218.060651 
L 247.345591 217.313707 
L 247.111539 217.113362 
L 246.917363 216.576244 
L 245.728887 217.191956 
L 245.63741 216.481389 
L 244.541319 216.408427 
L 244.515202 216.584847 
L 244.118394 216.397493 
L 243.738313 216.625397 
L 242.981672 216.40684 
L 242.439008 215.957406 
L 241.744526 215.897981 
L 241.546815 215.6815 
L 240.779855 215.684404 
L 239.090998 214.019463 
L 237.805387 213.709506 
L 237.692194 213.528584 
L 237.423869 213.618645 
L 237.317455 213.287201 
L 236.560089 213.01552 
L 235.700263 213.187314 
L 234.385102 211.143876 
L 233.779457 211.080017 
L 232.831597 212.155012 
L 230.784865 212.663107 
L 229.323692 211.816728 
L 246.244643 163.999234 
L 258.667898 152.66275 
L 258.667898 152.66275 
" clip-path="url(#p36500248b3)" style="fill: none; stroke: #4df6ff; stroke-width: 0.5; stroke-linecap: square"/>
   </g>
   <g id="text_1">
    <!-- FFM141 -->
    <g transform="translate(250.429874 110.080273)scale(0.0579 -0.0579)">
     <defs>
      <path id="DejaVuSans-46" d="M 628 4666 
L 3309 4666 
L 3309 4134 
L 1259 4134 
L 1259 2759 
L 3109 2759 
L 3109 2228 
L 1259 2228 
L 1259 0 
L 628 0 
L 628 4666 
z
" transform="scale(0.015625)"/>
      <path id="DejaVuSans-4d" d="M 628 4666 
L 1569 4666 
L 2759 1491 
L 3956 4666 
L 4897 4666 
L 4897 0 
L 4281 0 
L 4281 4097 
L 3078 897 
L 2444 897 
L 1241 4097 
L 1241 0 
L 628 0 
L 628 4666 
z
" transform="scale(0.015625)"/>
      <path id="DejaVuSans-31" d="M 794 531 
L 1825 531 
L 1825 4091 
L 703 3866 
L 703 4441 
L 1819 4666 
L 2450 4666 
L 2450 531 
L 3481 531 
L 3481 0 
L 794 0 
L 794 531 
z
" transform="scale(0.015625)"/>
      <path id="DejaVuSans-34" d="M 2419 4116 
L 825 1625 
L 2419 1625 
L 2419 4116 
z
M 2253 4666 
L 3047 4666 
L 3047 1625 
L 3713 1625 
L 3713 1100 
L 3047 1100 
L 3047 0 
L 2419 0 
L 2419 1100 
L 313 1100 
L 313 1709 
L 2253 4666 
z
" transform="scale(0.015625)"/>
     </defs>
     <use xlink:href="#DejaVuSans-46"/>
     <use xlink:href="#DejaVuSans-46" x="57.519531"/>
     <use xlink:href="#DejaVuSans-4d" x="115.039062"/>
     <use xlink:href="#DejaVuSans-31" x="201.318359"/>
     <use xlink:href="#DejaVuSans-34" x="264.941406"/>
     <use xlink:href="#DejaVuSans-31" x="328.564453"/>
    </g>
    <!-- 325 -->
    <g transform="translate(256.257871 116.563807)scale(0.0579 -0.0579)">
     <defs>
      <path id="DejaVuSans-33" d="M 2597 2516 
Q 3050 2419 3304 2112 
Q 3559 1806 3559 1356 
Q 3559 666 3084 287 
Q 2609 -91 1734 -91 
Q 1441 -91 1130 -33 
Q 819 25 488 141 
L 488 750 
Q 750 597 1062 519 
Q 1375 441 1716 441 
Q 2309 441 2620 675 
Q 2931 909 2931 1356 
Q 2931 1769 2642 2001 
Q 2353 2234 1838 2234 
L 1294 2234 
L 1294 2753 
L 1863 2753 
Q 2328 2753 2575 2939 
Q 2822 3125 2822 3475 
Q 2822 3834 2567 4026 
Q 2313 4219 1838 4219 
Q 1578 4219 1281 4162 
Q 984 4106 628 3988 
L 628 4550 
Q 988 4650 1302 4700 
Q 1616 4750 1894 4750 
Q 2613 4750 3031 4423 
Q 3450 4097 3450 3541 
Q 3450 3153 3228 2886 
Q 3006 2619 2597 2516 
z
" transform="scale(0.015625)"/>
      <path id="DejaVuSans-32" d="M 1228 531 
L 3431 531 
L 3431 0 
L 469 0 
L 469 531 
Q 828 903 1448 1529 
Q 2069 2156 2228 2338 
Q 2531 2678 2651 2914 
Q 2772 3150 2772 3378 
Q 2772 3750 2511 3984 
Q 2250 4219 1831 4219 
Q 1534 4219 1204 4116 
Q 875 4013 500 3803 
L 500 4441 
Q 881 4594 1212 4672 
Q 1544 4750 1819 4750 
Q 2544 4750 2975 4387 
Q 3406 4025 3406 3419 
Q 3406 3131 3298 2873 
Q 3191 2616 2906 2266 
Q 2828 2175 2409 1742 
Q 1991 1309 1228 531 
z
" transform="scale(0.015625)"/>
      <path id="DejaVuSans-35" d="M 691 4666 
L 3169 4666 
L 3169 4134 
L 1269 4134 
L 1269 2991 
Q 1406 3038 1543 3061 
Q 1681 3084 1819 3084 
Q 2600 3084 3056 2656 
Q 3513 2228 3513 1497 
Q 3513 744 3044 326 
Q 2575 -91 1722 -91 
Q 1428 -91 1123 -41 
Q 819 9 494 109 
L 494 744 
Q 775 591 1075 516 
Q 1375 441 1709 441 
Q 2250 441 2565 725 
Q 2881 1009 2881 1497 
Q 2881 1984 2565 2268 
Q 2250 2553 1709 2553 
Q 1456 2553 1204 2497 
Q 953 2441 691 2322 
L 691 4666 
z
" transform="scale(0.015625)"/>
     </defs>
     <use xlink:href="#DejaVuSans-33"/>
     <use xlink:href="#DejaVuSans-32" x="63.623047"/>
     <use xlink:href="#DejaVuSans-35" x="127.246094"/>
    </g>
    <!-- 245 -->
    <g transform="translate(256.257871 123.04734)scale(0.0579 -0.0579)">
     <use xlink:href="#DejaVuSans-32"/>
     <use xlink:href="#DejaVuSans-34" x="63.623047"/>
     <use xlink:href="#DejaVuSans-35" x="127.246094"/>
    </g>
   </g>
   <g id="text_2">
    <!-- FFM142 -->
    <g transform="translate(228.445441 71.521587)scale(0.0579 -0.0579)">
     <use xlink:href="#DejaVuSans-46"/>
     <use xlink:href="#DejaVuSans-46" x="57.519531"/>
     <use xlink:href="#DejaVuSans-4d" x="115.039062"/>
     <use xlink:href="#DejaVuSans-31" x="201.318359"/>
     <use xlink:href="#DejaVuSans-34" x="264.941406"/>
     <use xlink:href="#DejaVuSans-32" x="328.564453"/>
    </g>
    <!-- 295 -->
    <g transform="translate(234.273438 78.00512)scale(0.0579 -0.0579)">
     <defs>
      <path id="DejaVuSans-39" d="M 703 97 
L 703 672 
Q 941 559 1184 500 
Q 1428 441 1663 441 
Q 2288 441 2617 861 
Q 2947 1281 2994 2138 
Q 2813 1869 2534 1725 
Q 2256 1581 1919 1581 
Q 1219 1581 811 2004 
Q 403 2428 403 3163 
Q 403 3881 828 4315 
Q 1253 4750 1959 4750 
Q 2769 4750 3195 4129 
Q 3622 3509 3622 2328 
Q 3622 1225 3098 567 
Q 2575 -91 1691 -91 
Q 1453 -91 1209 -44 
Q 966 3 703 97 
z
M 1959 2075 
Q 2384 2075 2632 2365 
Q 2881 2656 2881 3163 
Q 2881 3666 2632 3958 
Q 2384 4250 1959 4250 
Q 1534 4250 1286 3958 
Q 1038 3666 1038 3163 
Q 1038 2656 1286 2365 
Q 1534 2075 1959 2075 
z
" transform="scale(0.015625)"/>
     </defs>
     <use xlink:href="#DejaVuSans-32"/>
     <use xlink:href="#DejaVuSans-39" x="63.623047"/>
     <use xlink:href="#DejaVuSans-35" x="127.246094"/>
    </g>
    <!-- 245 -->
    <g transform="translate(234.273438 84.488654)scale(0.0579 -0.0579)">
     <use xlink:href="#DejaVuSans-32"/>
     <use xlink:href="#DejaVuSans-34" x="63.623047"/>
     <use xlink:href="#DejaVuSans-35" x="127.246094"/>
    </g>
   </g>
   <g id="text_3">
    <!-- FFM24 -->
    <g transform="translate(252.271818 110.080273)scale(0.0579 -0.0579)">
     <use xlink:href="#DejaVuSans-46"/>
     <use xlink:href="#DejaVuSans-46" x="57.519531"/>
     <use xlink:href="#DejaVuSans-4d" x="115.039062"/>
     <use xlink:href="#DejaVuSans-32" x="201.318359"/>
     <use xlink:href="#DejaVuSans-34" x="264.941406"/>
    </g>
    <!-- 355 -->
    <g transform="translate(256.257871 116.563807)scale(0.0579 -0.0579)">
     <use xlink:href="#DejaVuSans-33"/>
     <use xlink:href="#DejaVuSans-35" x="63.623047"/>
     <use xlink:href="#DejaVuSans-35" x="127.246094"/>
    </g>
    <!-- 325 -->
    <g transform="translate(256.257871 123.04734)scale(0.0579 -0.0579)">
     <use xlink:href="#DejaVuSans-33"/>
     <use xlink:href="#DejaVuSans-32" x="63.623047"/>
     <use xlink:href="#DejaVuSans-35" x="127.246094"/>
    </g>
   </g>
   <g id="text_4">
    <!-- FFM34 -->
    <g transform="translate(252.271818 110.080273)scale(0.0579 -0.0579)">
     <use xlink:href="#DejaVuSans-46"/>
     <use xlink:href="#DejaVuSans-46" x="57.519531"/>
     <use xlink:href="#DejaVuSans-4d" x="115.039062"/>
     <use xlink:href="#DejaVuSans-33" x="201.318359"/>
     <use xlink:href="#DejaVuSans-34" x="264.941406"/>
    </g>
    <!-- 375 -->
    <g transform="translate(256.257871 116.563807)scale(0.0579 -0.0579)">
     <defs>
      <path id="DejaVuSans-37" d="M 525 4666 
L 3525 4666 
L 3525 4397 
L 1831 0 
L 1172 0 
L 2766 4134 
L 525 4134 
L 525 4666 
z
" transform="scale(0.015625)"/>
     </defs>
     <use xlink:href="#DejaVuSans-33"/>
     <use xlink:href="#DejaVuSans-37" x="63.623047"/>
     <use xlink:href="#DejaVuSans-35" x="127.246094"/>
    </g>
    <!-- 355 -->
    <g transform="translate(256.257871 123.04734)scale(0.0579 -0.0579)">
     <use xlink:href="#DejaVuSans-33"/>
     <use xlink:href="#DejaVuSans-35" x="63.623047"/>
     <use xlink:href="#DejaVuSans-35" x="127.246094"/>
    </g>
   </g>
   <g id="text_5">
    <!-- FFM44 -->
    <g transform="translate(252.271818 110.080273)scale(0.0579 -0.0579)">
     <use xlink:href="#DejaVuSans-46"/>
     <use xlink:href="#DejaVuSans-46" x="57.519531"/>
     <use xlink:href="#DejaVuSans-4d" x="115.039062"/>
     <use xlink:href="#DejaVuSans-34" x="201.318359"/>
     <use xlink:href="#DejaVuSans-34" x="264.941406"/>
    </g>
    <!-- 660 -->
    <g transform="translate(256.257871 116.563807)scale(0.0579 -0.0579)">
     <defs>
      <path id="DejaVuSans-36" d="M 2113 2584 
Q 1688 2584 1439 2293 
Q 1191 2003 1191 1497 
Q 1191 994 1439 701 
Q 1688 409 2113 409 
Q 2538 409 2786 701 
Q 3034 994 3034 1497 
Q 3034 2003 2786 2293 
Q 2538 2584 2113 2584 
z
M 3366 4563 
L 3366 3988 
Q 3128 4100 2886 4159 
Q 2644 4219 2406 4219 
Q 1781 4219 1451 3797 
Q 1122 3375 1075 2522 
Q 1259 2794 1537 2939 
Q 1816 3084 2150 3084 
Q 2853 3084 3261 2657 
Q 3669 2231 3669 1497 
Q 3669 778 3244 343 
Q 2819 -91 2113 -91 
Q 1303 -91 875 529 
Q 447 1150 447 2328 
Q 447 3434 972 4092 
Q 1497 4750 2381 4750 
Q 2619 4750 2861 4703 
Q 3103 4656 3366 4563 
z
" transform="scale(0.015625)"/>
      <path id="DejaVuSans-30" d="M 2034 4250 
Q 1547 4250 1301 3770 
Q 1056 3291 1056 2328 
Q 1056 1369 1301 889 
Q 1547 409 2034 409 
Q 2525 409 2770 889 
Q 3016 1369 3016 2328 
Q 3016 3291 2770 3770 
Q 2525 4250 2034 4250 
z
M 2034 4750 
Q 2819 4750 3233 4129 
Q 3647 3509 3647 2328 
Q 3647 1150 3233 529 
Q 2819 -91 2034 -91 
Q 1250 -91 836 529 
Q 422 1150 422 2328 
Q 422 3509 836 4129 
Q 1250 4750 2034 4750 
z
" transform="scale(0.015625)"/>
     </defs>
     <use xlink:href="#DejaVuSans-36"/>
     <use xlink:href="#DejaVuSans-36" x="63.623047"/>
     <use xlink:href="#DejaVuSans-30" x="127.246094"/>
    </g>
    <!-- 375 -->
    <g transform="translate(256.257871 123.04734)scale(0.0579 -0.0579)">
     <use xlink:href="#DejaVuSans-33"/>
     <use xlink:href="#DejaVuSans-37" x="63.623047"/>
     <use xlink:href="#DejaVuSans-35" x="127.246094"/>
    </g>
   </g>
   <g id="text_6">
    <!-- NTM141 -->
    <g transform="translate(202.479305 149.995882)scale(0.0579 -0.0579)">
     <defs>
      <path id="DejaVuSans-4e" d="M 628 4666 
L 1478 4666 
L 3547 763 
L 3547 4666 
L 4159 4666 
L 4159 0 
L 3309 0 
L 1241 3903 
L 1241 0 
L 628 0 
L 628 4666 
z
" transform="scale(0.015625)"/>
      <path id="DejaVuSans-54" d="M -19 4666 
L 3928 4666 
L 3928 4134 
L 2272 4134 
L 2272 0 
L 1638 0 
L 1638 4134 
L -19 4134 
L -19 4666 
z
" transform="scale(0.015625)"/>
     </defs>
     <use xlink:href="#DejaVuSans-4e"/>
     <use xlink:href="#DejaVuSans-54" x="74.804688"/>
     <use xlink:href="#DejaVuSans-4d" x="135.888672"/>
     <use xlink:href="#DejaVuSans-31" x="222.167969"/>
     <use xlink:href="#DejaVuSans-34" x="285.791016"/>
     <use xlink:href="#DejaVuSans-31" x="349.414062"/>
    </g>
    <!-- 265 -->
    <g transform="translate(208.911181 156.479415)scale(0.0579 -0.0579)">
     <use xlink:href="#DejaVuSans-32"/>
     <use xlink:href="#DejaVuSans-36" x="63.623047"/>
     <use xlink:href="#DejaVuSans-35" x="127.246094"/>
    </g>
    <!-- 245 -->
    <g transform="translate(208.911181 162.962949)scale(0.0579 -0.0579)">
     <use xlink:href="#DejaVuSans-32"/>
     <use xlink:href="#DejaVuSans-34" x="63.623047"/>
     <use xlink:href="#DejaVuSans-35" x="127.246094"/>
    </g>
   </g>
   <g id="text_7">
    <!-- NTM142 -->
    <g transform="translate(202.479305 149.995882)scale(0.0579 -0.0579)">
     <use xlink:href="#DejaVuSans-4e"/>
     <use xlink:href="#DejaVuSans-54" x="74.804688"/>
     <use xlink:href="#DejaVuSans-4d" x="135.888672"/>
     <use xlink:href="#DejaVuSans-31" x="222.167969"/>
     <use xlink:href="#DejaVuSans-34" x="285.791016"/>
     <use xlink:href="#DejaVuSans-32" x="349.414062"/>
    </g>
    <!-- 325 -->
    <g transform="translate(208.911181 156.479415)scale(0.0579 -0.0579)">
     <use xlink:href="#DejaVuSans-33"/>
     <use xlink:href="#DejaVuSans-32" x="63.623047"/>
     <use xlink:href="#DejaVuSans-35" x="127.246094"/>
    </g>
    <!-- 265 -->
    <g transform="translate(208.911181 162.962949)scale(0.0579 -0.0579)">
     <use xlink:href="#DejaVuSans-32"/>
     <use xlink:href="#DejaVuSans-36" x="63.623047"/>
     <use xlink:href="#DejaVuSans-35" x="127.246094"/>
    </g>
   </g>
   <g id="text_8">
    <!-- NTM24 -->
    <g transform="translate(204.321249 149.995882)scale(0.0579 -0.0579)">
     <use xlink:href="#DejaVuSans-4e"/>
     <use xlink:href="#DejaVuSans-54" x="74.804688"/>
     <use xlink:href="#DejaVuSans-4d" x="135.888672"/>
     <use xlink:href="#DejaVuSans-32" x="222.167969"/>
     <use xlink:href="#DejaVuSans-34" x="285.791016"/>
    </g>
    <!-- 355 -->
    <g transform="translate(208.911181 156.479415)scale(0.0579 -0.0579)">
     <use xlink:href="#DejaVuSans-33"/>
     <use xlink:href="#DejaVuSans-35" x="63.623047"/>
     <use xlink:href="#DejaVuSans-35" x="127.246094"/>
    </g>
    <!-- 325 -->
    <g transform="translate(208.911181 162.962949)scale(0.0579 -0.0579)">
     <use xlink:href="#DejaVuSans-33"/>
     <use xlink:href="#DejaVuSans-32" x="63.623047"/>
     <use xlink:href="#DejaVuSans-35" x="127.246094"/>
    </g>
   </g>
   <g id="text_9">
    <!-- NTM34 -->
    <g transform="translate(204.321249 149.995882)scale(0.0579 -0.0579)">
     <use xlink:href="#DejaVuSans-4e"/>
     <use xlink:href="#DejaVuSans-54" x="74.804688"/>
     <use xlink:href="#DejaVuSans-4d" x="135.888672"/>
     <use xlink:href="#DejaVuSans-33" x="222.167969"/>
     <use xlink:href="#DejaVuSans-34" x="285.791016"/>
    </g>
    <!-- 375 -->
    <g transform="translate(208.911181 156.479415)scale(0.0579 -0.0579)">
     <use xlink:href="#DejaVuSans-33"/>
     <use xlink:href="#DejaVuSans-37" x="63.623047"/>
     <use xlink:href="#DejaVuSans-35" x="127.246094"/>
    </g>
    <!-- 355 -->
    <g transform="translate(208.911181 162.962949)scale(0.0579 -0.0579)">
     <use xlink:href="#DejaVuSans-33"/>
     <use xlink:href="#DejaVuSans-35" x="63.623047"/>
     <use xlink:href="#DejaVuSans-35" x="127.246094"/>
    </g>
   </g>
   <g id="text_10">
    <!-- NTM44 -->
    <g transform="translate(204.321249 149.995882)scale(0.0579 -0.0579)">
     <use xlink:href="#DejaVuSans-4e"/>
     <use xlink:href="#DejaVuSans-54" x="74.804688"/>
     <use xlink:href="#DejaVuSans-4d" x="135.888672"/>
     <use xlink:href="#DejaVuSans-34" x="222.167969"/>
     <use xlink:href="#DejaVuSans-34" x="285.791016"/>
    </g>
    <!-- 660 -->
    <g transform="translate(208.911181 156.479415)scale(0.0579 -0.0579)">
     <use xlink:href="#DejaVuSans-36"/>
     <use xlink:href="#DejaVuSans-36" x="63.623047"/>
     <use xlink:href="#DejaVuSans-30" x="127.246094"/>
    </g>
    <!-- 375 -->
    <g transform="translate(208.911181 162.962949)scale(0.0579 -0.0579)">
     <use xlink:href="#DejaVuSans-33"/>
     <use xlink:href="#DejaVuSans-37" x="63.623047"/>
     <use xlink:href="#DejaVuSans-35" x="127.246094"/>
    </g>
   </g>
   <g id="text_11">
    <!-- SLN13 -->
    <g transform="translate(244.090255 219.189519)scale(0.0579 -0.0579)">
     <defs>
      <path id="DejaVuSans-53" d="M 3425 4513 
L 3425 3897 
Q 3066 4069 2747 4153 
Q 2428 4238 2131 4238 
Q 1616 4238 1336 4038 
Q 1056 3838 1056 3469 
Q 1056 3159 1242 3001 
Q 1428 2844 1947 2747 
L 2328 2669 
Q 3034 2534 3370 2195 
Q 3706 1856 3706 1288 
Q 3706 609 3251 259 
Q 2797 -91 1919 -91 
Q 1588 -91 1214 -16 
Q 841 59 441 206 
L 441 856 
Q 825 641 1194 531 
Q 1563 422 1919 422 
Q 2459 422 2753 634 
Q 3047 847 3047 1241 
Q 3047 1584 2836 1778 
Q 2625 1972 2144 2069 
L 1759 2144 
Q 1053 2284 737 2584 
Q 422 2884 422 3419 
Q 422 4038 858 4394 
Q 1294 4750 2059 4750 
Q 2388 4750 2728 4690 
Q 3069 4631 3425 4513 
z
" transform="scale(0.015625)"/>
      <path id="DejaVuSans-4c" d="M 628 4666 
L 1259 4666 
L 1259 531 
L 3531 531 
L 3531 0 
L 628 0 
L 628 4666 
z
" transform="scale(0.015625)"/>
     </defs>
     <use xlink:href="#DejaVuSans-53"/>
     <use xlink:href="#DejaVuSans-4c" x="63.476562"/>
     <use xlink:href="#DejaVuSans-4e" x="119.189453"/>
     <use xlink:href="#DejaVuSans-31" x="193.994141"/>
     <use xlink:href="#DejaVuSans-33" x="257.617188"/>
    </g>
    <!-- 355 -->
    <g transform="translate(247.865063 225.673053)scale(0.0579 -0.0579)">
     <use xlink:href="#DejaVuSans-33"/>
     <use xlink:href="#DejaVuSans-35" x="63.623047"/>
     <use xlink:href="#DejaVuSans-35" x="127.246094"/>
    </g>
    <!-- 245 -->
    <g transform="translate(247.865063 232.156586)scale(0.0579 -0.0579)">
     <use xlink:href="#DejaVuSans-32"/>
     <use xlink:href="#DejaVuSans-34" x="63.623047"/>
     <use xlink:href="#DejaVuSans-35" x="127.246094"/>
    </g>
   </g>
   <g id="text_12">
    <!-- SLN23 -->
    <g transform="translate(244.090255 219.189519)scale(0.0579 -0.0579)">
     <use xlink:href="#DejaVuSans-53"/>
     <use xlink:href="#DejaVuSans-4c" x="63.476562"/>
     <use xlink:href="#DejaVuSans-4e" x="119.189453"/>
     <use xlink:href="#DejaVuSans-32" x="193.994141"/>
     <use xlink:href="#DejaVuSans-33" x="257.617188"/>
    </g>
    <!-- 375 -->
    <g transform="translate(247.865063 225.673053)scale(0.0579 -0.0579)">
     <use xlink:href="#DejaVuSans-33"/>
     <use xlink:href="#DejaVuSans-37" x="63.623047"/>
     <use xlink:href="#DejaVuSans-35" x="127.246094"/>
    </g>
    <!-- 355 -->
    <g transform="translate(247.865063 232.156586)scale(0.0579 -0.0579)">
     <use xlink:href="#DejaVuSans-33"/>
     <use xlink:href="#DejaVuSans-35" x="63.623047"/>
     <use xlink:href="#DejaVuSans-35" x="127.246094"/>
    </g>
   </g>
   <g id="text_13">
    <!-- SLN33 -->
    <g transform="translate(244.090255 219.189519)scale(0.0579 -0.0579)">
     <use xlink:href="#DejaVuSans-53"/>
     <use xlink:href="#DejaVuSans-4c" x="63.476562"/>
     <use xlink:href="#DejaVuSans-4e" x="119.189453"/>
     <use xlink:href="#DejaVuSans-33" x="193.994141"/>
     <use xlink:href="#DejaVuSans-33" x="257.617188"/>
    </g>
    <!-- 660 -->
    <g transform="translate(247.865063 225.673053)scale(0.0579 -0.0579)">
     <use xlink:href="#DejaVuSans-36"/>
     <use xlink:href="#DejaVuSans-36" x="63.623047"/>
     <use xlink:href="#DejaVuSans-30" x="127.246094"/>
    </g>
    <!-- 375 -->
    <g transform="translate(247.865063 232.156586)scale(0.0579 -0.0579)">
     <use xlink:href="#DejaVuSans-33"/>
     <use xlink:href="#DejaVuSans-37" x="63.623047"/>
     <use xlink:href="#DejaVuSans-35" x="127.246094"/>
    </g>
   </g>
  </g>
 </g>
 <defs>
  <clipPath id="p36500248b3">
   <rect x="163.610739" y="41.472" width="145.098522" height="266.112"/>
  </clipPath>
 </defs>
</svg>
