<?xml version="1.0" encoding="utf-8" standalone="no"?>
<!DOCTYPE svg PUBLIC "-//W3C//DTD SVG 1.1//EN"
  "http://www.w3.org/Graphics/SVG/1.1/DTD/svg11.dtd">
<svg xmlns:xlink="http://www.w3.org/1999/xlink" width="460.8pt" height="345.6pt" viewBox="0 0 460.8 345.6" xmlns="http://www.w3.org/2000/svg" version="1.1">
 <metadata>
  <rdf:RDF xmlns:dc="http://purl.org/dc/elements/1.1/" xmlns:cc="http://creativecommons.org/ns#" xmlns:rdf="http://www.w3.org/1999/02/22-rdf-syntax-ns#">
   <cc:Work>
    <dc:type rdf:resource="http://purl.org/dc/dcmitype/StillImage"/>
    <dc:date>2022-04-26T00:33:15.230150</dc:date>
    <dc:format>image/svg+xml</dc:format>
    <dc:creator>
     <cc:Agent>
      <dc:title>Matplotlib v3.5.0, https://matplotlib.org/</dc:title>
     </cc:Agent>
    </dc:creator>
   </cc:Work>
  </rdf:RDF>
 </metadata>
 <defs>
  <style type="text/css">*{stroke-linejoin: round; stroke-linecap: butt}</style>
 </defs>
 <g id="figure_1">
  <g id="patch_1">
   <path d="M 0 345.6 
L 460.8 345.6 
L 460.8 0 
L 0 0 
z
" style="fill: #ffffff"/>
  </g>
  <g id="axes_1">
   <g id="patch_2">
    <path d="M 252.604262 53.568 
L 275.12686 66.549782 
L 329.993213 169.820549 
L 303.63801 193.870232 
L 267.741212 295.312222 
L 263.775032 292.694073 
L 257.922883 295.488 
L 248.268887 294.00843 
L 248.251784 291.081856 
L 238.401375 287.108017 
L 234.663082 281.485735 
L 236.388291 279.187401 
L 235.082963 277.69883 
L 230.574945 275.269068 
L 223.033863 276.867449 
L 222.578806 280.862223 
L 215.967858 284.996488 
L 203.192601 284.138584 
L 198.161996 278.988673 
L 195.861342 279.968545 
L 196.684519 282.552591 
L 192.658361 284.839758 
L 191.379745 273.451749 
L 182.335572 268.985473 
L 172.53812 270.197358 
L 174.413204 275.846169 
L 172.074646 279.233272 
L 167.251113 276.328363 
L 163.6356 276.944279 
L 161.515999 271.911181 
L 160.419301 269.292172 
L 150.163072 218.889731 
L 170.688849 205.79721 
L 173.071932 191.290326 
L 164.533192 179.288641 
L 156.539207 172.080018 
L 142.326787 182.373795 
L 150.376199 146.41032 
L 157.443561 114.728528 
L 188.896039 117.826161 
L 182.917065 80.569765 
L 214.023278 80.342271 
L 237.733204 88.542035 
L 243.138442 101.818122 
L 257.203071 96.036189 
L 246.284937 70.801029 
L 244.546139 68.110412 
L 237.783712 57.507185 
z
" clip-path="url(#pfa19412e45)" style="fill: #ffedd9; stroke: #ffedd9; stroke-linejoin: miter"/>
   </g>
   <g id="patch_3">
    <path d="M 252.604262 53.568 
L 275.12686 66.549782 
L 329.993213 169.820549 
L 303.63801 193.870232 
L 267.741212 295.312222 
L 263.775032 292.694073 
L 257.922883 295.488 
L 248.268887 294.00843 
L 248.251784 291.081856 
L 238.401375 287.108017 
L 234.663082 281.485735 
L 236.388291 279.187401 
L 235.082963 277.69883 
L 230.574945 275.269068 
L 223.033863 276.867449 
L 222.578806 280.862223 
L 215.967858 284.996488 
L 203.192601 284.138584 
L 198.161996 278.988673 
L 195.861342 279.968545 
L 196.684519 282.552591 
L 192.658361 284.839758 
L 191.379745 273.451749 
L 182.335572 268.985473 
L 172.53812 270.197358 
L 174.413204 275.846169 
L 172.074646 279.233272 
L 167.251113 276.328363 
L 163.6356 276.944279 
L 161.515999 271.911181 
L 160.419301 269.292172 
L 150.163072 218.889731 
L 143.302236 184.749801 
L 142.326787 182.373795 
L 150.376199 146.41032 
L 157.443561 114.728528 
L 173.348347 81.155504 
L 190.679318 70.074846 
L 202.685812 66.853803 
L 237.783712 57.507185 
z
" clip-path="url(#pfa19412e45)" style="fill: #ffedd9; stroke: #ffedd9; stroke-linejoin: miter"/>
   </g>
   <g id="patch_4">
    <path d="M 252.604262 53.568 
L 275.12686 66.549782 
L 329.993213 169.820549 
L 303.63801 193.870232 
L 267.741212 295.312222 
L 263.775032 292.694073 
L 257.922883 295.488 
L 248.268887 294.00843 
L 248.251784 291.081856 
L 238.401375 287.108017 
L 234.663082 281.485735 
L 236.388291 279.187401 
L 235.082963 277.69883 
L 230.574945 275.269068 
L 223.033863 276.867449 
L 222.578806 280.862223 
L 215.967858 284.996488 
L 203.192601 284.138584 
L 198.161996 278.988673 
L 195.861342 279.968545 
L 196.684519 282.552591 
L 192.658361 284.839758 
L 191.379745 273.451749 
L 182.335572 268.985473 
L 172.53812 270.197358 
L 174.413204 275.846169 
L 172.074646 279.233272 
L 167.251113 276.328363 
L 163.6356 276.944279 
L 161.515999 271.911181 
L 160.419301 269.292172 
L 150.163072 218.889731 
L 143.302236 184.749801 
L 142.326787 182.373795 
L 150.376199 146.41032 
L 157.443561 114.728528 
L 173.348347 81.155504 
L 190.679318 70.074846 
L 202.685812 66.853803 
L 237.783712 57.507185 
z
" clip-path="url(#pfa19412e45)" style="fill: #ffedd9; stroke: #ffedd9; stroke-linejoin: miter"/>
   </g>
   <g id="patch_5">
    <path d="M 252.604262 53.568 
L 275.12686 66.549782 
L 329.993213 169.820549 
L 303.63801 193.870232 
L 267.741212 295.312222 
L 263.775032 292.694073 
L 257.922883 295.488 
L 248.268887 294.00843 
L 248.251784 291.081856 
L 238.401375 287.108017 
L 234.663082 281.485735 
L 236.388291 279.187401 
L 235.082963 277.69883 
L 230.574945 275.269068 
L 223.033863 276.867449 
L 222.578806 280.862223 
L 215.967858 284.996488 
L 203.192601 284.138584 
L 198.161996 278.988673 
L 195.861342 279.968545 
L 196.684519 282.552591 
L 192.658361 284.839758 
L 191.379745 273.451749 
L 182.335572 268.985473 
L 172.53812 270.197358 
L 174.413204 275.846169 
L 172.074646 279.233272 
L 167.251113 276.328363 
L 163.6356 276.944279 
L 161.515999 271.911181 
L 160.419301 269.292172 
L 150.163072 218.889731 
L 143.302236 184.749801 
L 142.326787 182.373795 
L 150.376199 146.41032 
L 157.443561 114.728528 
L 173.348347 81.155504 
L 190.679318 70.074846 
L 202.685812 66.853803 
L 237.783712 57.507185 
z
" clip-path="url(#pfa19412e45)" style="fill: #ffedd9; stroke: #ffedd9; stroke-linejoin: miter"/>
   </g>
   <g id="patch_6">
    <path d="M 252.604262 53.568 
L 275.12686 66.549782 
L 329.993213 169.820549 
L 303.63801 193.870232 
L 267.741212 295.312222 
L 263.775032 292.694073 
L 257.922883 295.488 
L 248.268887 294.00843 
L 248.251784 291.081856 
L 238.401375 287.108017 
L 234.663082 281.485735 
L 236.388291 279.187401 
L 235.082963 277.69883 
L 230.574945 275.269068 
L 223.033863 276.867449 
L 222.578806 280.862223 
L 215.967858 284.996488 
L 203.192601 284.138584 
L 198.161996 278.988673 
L 195.861342 279.968545 
L 196.684519 282.552591 
L 192.658361 284.839758 
L 191.379745 273.451749 
L 182.335572 268.985473 
L 172.53812 270.197358 
L 174.413204 275.846169 
L 172.074646 279.233272 
L 167.251113 276.328363 
L 163.6356 276.944279 
L 161.515999 271.911181 
L 160.419301 269.292172 
L 150.163072 218.889731 
L 143.302236 184.749801 
L 142.326787 182.373795 
L 150.376199 146.41032 
L 157.443561 114.728528 
L 173.348347 81.155504 
L 190.679318 70.074846 
L 202.685812 66.853803 
L 237.783712 57.507185 
z
" clip-path="url(#pfa19412e45)" style="fill: #ffedd9; stroke: #ffedd9; stroke-linejoin: miter"/>
   </g>
   <g id="patch_7">
    <path d="M 252.604262 53.568 
L 275.12686 66.549782 
L 329.993213 169.820549 
L 303.63801 193.870232 
L 267.741212 295.312222 
L 263.775032 292.694073 
L 257.922883 295.488 
L 248.268887 294.00843 
L 248.251784 291.081856 
L 238.401375 287.108017 
L 234.663082 281.485735 
L 236.388291 279.187401 
L 235.082963 277.69883 
L 230.574945 275.269068 
L 223.033863 276.867449 
L 222.578806 280.862223 
L 215.967858 284.996488 
L 203.192601 284.138584 
L 198.161996 278.988673 
L 195.861342 279.968545 
L 196.684519 282.552591 
L 192.658361 284.839758 
L 191.379745 273.451749 
L 182.335572 268.985473 
L 172.53812 270.197358 
L 174.413204 275.846169 
L 172.074646 279.233272 
L 167.251113 276.328363 
L 163.6356 276.944279 
L 161.515999 271.911181 
L 160.419301 269.292172 
L 150.163072 218.889731 
L 170.688849 205.79721 
L 173.071932 191.290326 
L 164.533192 179.288641 
L 156.539207 172.080018 
L 142.326787 182.373795 
L 150.376199 146.41032 
L 157.443561 114.728528 
L 188.896039 117.826161 
L 182.917065 80.569765 
L 214.023278 80.342271 
L 237.733204 88.542035 
L 243.138442 101.818122 
L 257.203071 96.036189 
L 246.284937 70.801029 
L 244.546139 68.110412 
L 237.783712 57.507185 
L 252.604262 53.568 
z
" clip-path="url(#pfa19412e45)" style="fill: #ffedd9; stroke: #ffedd9; stroke-linejoin: miter"/>
   </g>
   <g id="patch_8">
    <path d="M 252.604262 53.568 
L 275.12686 66.549782 
L 329.993213 169.820549 
L 303.63801 193.870232 
L 267.741212 295.312222 
L 263.775032 292.694073 
L 257.922883 295.488 
L 248.268887 294.00843 
L 248.251784 291.081856 
L 238.401375 287.108017 
L 234.663082 281.485735 
L 236.388291 279.187401 
L 235.082963 277.69883 
L 230.574945 275.269068 
L 223.033863 276.867449 
L 222.578806 280.862223 
L 215.967858 284.996488 
L 203.192601 284.138584 
L 198.161996 278.988673 
L 195.861342 279.968545 
L 196.684519 282.552591 
L 192.658361 284.839758 
L 191.379745 273.451749 
L 182.335572 268.985473 
L 172.53812 270.197358 
L 174.413204 275.846169 
L 172.074646 279.233272 
L 167.251113 276.328363 
L 163.6356 276.944279 
L 161.515999 271.911181 
L 160.419301 269.292172 
L 150.163072 218.889731 
L 143.302236 184.749801 
L 142.326787 182.373795 
L 150.376199 146.41032 
L 157.443561 114.728528 
L 173.348347 81.155504 
L 190.679318 70.074846 
L 202.685812 66.853803 
L 237.783712 57.507185 
L 252.604262 53.568 
z
" clip-path="url(#pfa19412e45)" style="fill: #ffedd9; stroke: #ffedd9; stroke-linejoin: miter"/>
   </g>
   <g id="patch_9">
    <path d="M 252.604262 53.568 
L 275.12686 66.549782 
L 329.993213 169.820549 
L 303.63801 193.870232 
L 267.741212 295.312222 
L 263.775032 292.694073 
L 257.922883 295.488 
L 248.268887 294.00843 
L 248.251784 291.081856 
L 238.401375 287.108017 
L 234.663082 281.485735 
L 236.388291 279.187401 
L 235.082963 277.69883 
L 230.574945 275.269068 
L 223.033863 276.867449 
L 222.578806 280.862223 
L 215.967858 284.996488 
L 203.192601 284.138584 
L 198.161996 278.988673 
L 195.861342 279.968545 
L 196.684519 282.552591 
L 192.658361 284.839758 
L 191.379745 273.451749 
L 182.335572 268.985473 
L 172.53812 270.197358 
L 174.413204 275.846169 
L 172.074646 279.233272 
L 167.251113 276.328363 
L 163.6356 276.944279 
L 161.515999 271.911181 
L 160.419301 269.292172 
L 150.163072 218.889731 
L 143.302236 184.749801 
L 142.326787 182.373795 
L 150.376199 146.41032 
L 157.443561 114.728528 
L 173.348347 81.155504 
L 190.679318 70.074846 
L 202.685812 66.853803 
L 237.783712 57.507185 
L 252.604262 53.568 
z
" clip-path="url(#pfa19412e45)" style="fill: #ffedd9; stroke: #ffedd9; stroke-linejoin: miter"/>
   </g>
   <g id="patch_10">
    <path d="M 252.604262 53.568 
L 275.12686 66.549782 
L 329.993213 169.820549 
L 303.63801 193.870232 
L 267.741212 295.312222 
L 263.775032 292.694073 
L 257.922883 295.488 
L 248.268887 294.00843 
L 248.251784 291.081856 
L 238.401375 287.108017 
L 234.663082 281.485735 
L 236.388291 279.187401 
L 235.082963 277.69883 
L 230.574945 275.269068 
L 223.033863 276.867449 
L 222.578806 280.862223 
L 215.967858 284.996488 
L 203.192601 284.138584 
L 198.161996 278.988673 
L 195.861342 279.968545 
L 196.684519 282.552591 
L 192.658361 284.839758 
L 191.379745 273.451749 
L 182.335572 268.985473 
L 172.53812 270.197358 
L 174.413204 275.846169 
L 172.074646 279.233272 
L 167.251113 276.328363 
L 163.6356 276.944279 
L 161.515999 271.911181 
L 160.419301 269.292172 
L 150.163072 218.889731 
L 143.302236 184.749801 
L 142.326787 182.373795 
L 150.376199 146.41032 
L 157.443561 114.728528 
L 173.348347 81.155504 
L 190.679318 70.074846 
L 202.685812 66.853803 
L 237.783712 57.507185 
L 252.604262 53.568 
z
" clip-path="url(#pfa19412e45)" style="fill: #ffedd9; stroke: #ffedd9; stroke-linejoin: miter"/>
   </g>
   <g id="patch_11">
    <path d="M 252.604262 53.568 
L 275.12686 66.549782 
L 329.993213 169.820549 
L 303.63801 193.870232 
L 267.741212 295.312222 
L 263.775032 292.694073 
L 257.922883 295.488 
L 248.268887 294.00843 
L 248.251784 291.081856 
L 238.401375 287.108017 
L 234.663082 281.485735 
L 236.388291 279.187401 
L 235.082963 277.69883 
L 230.574945 275.269068 
L 223.033863 276.867449 
L 222.578806 280.862223 
L 215.967858 284.996488 
L 203.192601 284.138584 
L 198.161996 278.988673 
L 195.861342 279.968545 
L 196.684519 282.552591 
L 192.658361 284.839758 
L 191.379745 273.451749 
L 182.335572 268.985473 
L 172.53812 270.197358 
L 174.413204 275.846169 
L 172.074646 279.233272 
L 167.251113 276.328363 
L 163.6356 276.944279 
L 161.515999 271.911181 
L 160.419301 269.292172 
L 150.163072 218.889731 
L 143.302236 184.749801 
L 142.326787 182.373795 
L 150.376199 146.41032 
L 157.443561 114.728528 
L 173.348347 81.155504 
L 190.679318 70.074846 
L 202.685812 66.853803 
L 237.783712 57.507185 
L 252.604262 53.568 
z
" clip-path="url(#pfa19412e45)" style="fill: #ffedd9; stroke: #ffedd9; stroke-linejoin: miter"/>
   </g>
   <g id="line2d_1">
    <path d="M 252.604262 53.568 
L 275.12686 66.549782 
L 329.993213 169.820549 
L 303.63801 193.870232 
L 267.741212 295.312222 
L 263.775032 292.694073 
L 257.922883 295.488 
L 248.268887 294.00843 
L 248.251784 291.081856 
L 238.401375 287.108017 
L 234.663082 281.485735 
L 236.388291 279.187401 
L 235.082963 277.69883 
L 230.574945 275.269068 
L 223.033863 276.867449 
L 222.578806 280.862223 
L 215.967858 284.996488 
L 203.192601 284.138584 
L 198.161996 278.988673 
L 195.861342 279.968545 
L 196.684519 282.552591 
L 192.658361 284.839758 
L 191.379745 273.451749 
L 182.335572 268.985473 
L 172.53812 270.197358 
L 174.413204 275.846169 
L 172.074646 279.233272 
L 167.251113 276.328363 
L 163.6356 276.944279 
L 161.515999 271.911181 
L 160.419301 269.292172 
L 150.163072 218.889731 
L 170.688849 205.79721 
L 173.071932 191.290326 
L 164.533192 179.288641 
L 156.539207 172.080018 
L 142.326787 182.373795 
L 150.376199 146.41032 
L 157.443561 114.728528 
L 188.896039 117.826161 
L 182.917065 80.569765 
L 214.023278 80.342271 
L 237.733204 88.542035 
L 243.138442 101.818122 
L 257.203071 96.036189 
L 246.284937 70.801029 
L 244.546139 68.110412 
L 237.783712 57.507185 
L 252.604262 53.568 
" clip-path="url(#pfa19412e45)" style="fill: none; stroke: #ffc380; stroke-width: 0.5; stroke-linecap: square"/>
   </g>
   <g id="line2d_2">
    <path d="M 252.604262 53.568 
L 275.12686 66.549782 
L 329.993213 169.820549 
L 303.63801 193.870232 
L 267.741212 295.312222 
L 263.775032 292.694073 
L 257.922883 295.488 
L 248.268887 294.00843 
L 248.251784 291.081856 
L 238.401375 287.108017 
L 234.663082 281.485735 
L 236.388291 279.187401 
L 235.082963 277.69883 
L 230.574945 275.269068 
L 223.033863 276.867449 
L 222.578806 280.862223 
L 215.967858 284.996488 
L 203.192601 284.138584 
L 198.161996 278.988673 
L 195.861342 279.968545 
L 196.684519 282.552591 
L 192.658361 284.839758 
L 191.379745 273.451749 
L 182.335572 268.985473 
L 172.53812 270.197358 
L 174.413204 275.846169 
L 172.074646 279.233272 
L 167.251113 276.328363 
L 163.6356 276.944279 
L 161.515999 271.911181 
L 160.419301 269.292172 
L 150.163072 218.889731 
L 143.302236 184.749801 
L 142.326787 182.373795 
L 150.376199 146.41032 
L 157.443561 114.728528 
L 173.348347 81.155504 
L 190.679318 70.074846 
L 202.685812 66.853803 
L 237.783712 57.507185 
L 252.604262 53.568 
" clip-path="url(#pfa19412e45)" style="fill: none; stroke: #ffc380; stroke-width: 0.5; stroke-linecap: square"/>
   </g>
   <g id="line2d_3">
    <path d="M 252.604262 53.568 
L 275.12686 66.549782 
L 329.993213 169.820549 
L 303.63801 193.870232 
L 267.741212 295.312222 
L 263.775032 292.694073 
L 257.922883 295.488 
L 248.268887 294.00843 
L 248.251784 291.081856 
L 238.401375 287.108017 
L 234.663082 281.485735 
L 236.388291 279.187401 
L 235.082963 277.69883 
L 230.574945 275.269068 
L 223.033863 276.867449 
L 222.578806 280.862223 
L 215.967858 284.996488 
L 203.192601 284.138584 
L 198.161996 278.988673 
L 195.861342 279.968545 
L 196.684519 282.552591 
L 192.658361 284.839758 
L 191.379745 273.451749 
L 182.335572 268.985473 
L 172.53812 270.197358 
L 174.413204 275.846169 
L 172.074646 279.233272 
L 167.251113 276.328363 
L 163.6356 276.944279 
L 161.515999 271.911181 
L 160.419301 269.292172 
L 150.163072 218.889731 
L 143.302236 184.749801 
L 142.326787 182.373795 
L 150.376199 146.41032 
L 157.443561 114.728528 
L 173.348347 81.155504 
L 190.679318 70.074846 
L 202.685812 66.853803 
L 237.783712 57.507185 
L 252.604262 53.568 
" clip-path="url(#pfa19412e45)" style="fill: none; stroke: #ffc380; stroke-width: 0.5; stroke-linecap: square"/>
   </g>
   <g id="line2d_4">
    <path d="M 252.604262 53.568 
L 275.12686 66.549782 
L 329.993213 169.820549 
L 303.63801 193.870232 
L 267.741212 295.312222 
L 263.775032 292.694073 
L 257.922883 295.488 
L 248.268887 294.00843 
L 248.251784 291.081856 
L 238.401375 287.108017 
L 234.663082 281.485735 
L 236.388291 279.187401 
L 235.082963 277.69883 
L 230.574945 275.269068 
L 223.033863 276.867449 
L 222.578806 280.862223 
L 215.967858 284.996488 
L 203.192601 284.138584 
L 198.161996 278.988673 
L 195.861342 279.968545 
L 196.684519 282.552591 
L 192.658361 284.839758 
L 191.379745 273.451749 
L 182.335572 268.985473 
L 172.53812 270.197358 
L 174.413204 275.846169 
L 172.074646 279.233272 
L 167.251113 276.328363 
L 163.6356 276.944279 
L 161.515999 271.911181 
L 160.419301 269.292172 
L 150.163072 218.889731 
L 143.302236 184.749801 
L 142.326787 182.373795 
L 150.376199 146.41032 
L 157.443561 114.728528 
L 173.348347 81.155504 
L 190.679318 70.074846 
L 202.685812 66.853803 
L 237.783712 57.507185 
L 252.604262 53.568 
" clip-path="url(#pfa19412e45)" style="fill: none; stroke: #ffc380; stroke-width: 0.5; stroke-linecap: square"/>
   </g>
   <g id="line2d_5">
    <path d="M 252.604262 53.568 
L 275.12686 66.549782 
L 329.993213 169.820549 
L 303.63801 193.870232 
L 267.741212 295.312222 
L 263.775032 292.694073 
L 257.922883 295.488 
L 248.268887 294.00843 
L 248.251784 291.081856 
L 238.401375 287.108017 
L 234.663082 281.485735 
L 236.388291 279.187401 
L 235.082963 277.69883 
L 230.574945 275.269068 
L 223.033863 276.867449 
L 222.578806 280.862223 
L 215.967858 284.996488 
L 203.192601 284.138584 
L 198.161996 278.988673 
L 195.861342 279.968545 
L 196.684519 282.552591 
L 192.658361 284.839758 
L 191.379745 273.451749 
L 182.335572 268.985473 
L 172.53812 270.197358 
L 174.413204 275.846169 
L 172.074646 279.233272 
L 167.251113 276.328363 
L 163.6356 276.944279 
L 161.515999 271.911181 
L 160.419301 269.292172 
L 150.163072 218.889731 
L 143.302236 184.749801 
L 142.326787 182.373795 
L 150.376199 146.41032 
L 157.443561 114.728528 
L 173.348347 81.155504 
L 190.679318 70.074846 
L 202.685812 66.853803 
L 237.783712 57.507185 
L 252.604262 53.568 
" clip-path="url(#pfa19412e45)" style="fill: none; stroke: #ffc380; stroke-width: 0.5; stroke-linecap: square"/>
   </g>
   <g id="line2d_6">
    <path clip-path="url(#pfa19412e45)" style="fill: none; stroke: #8f8f8f; stroke-width: 0.2; stroke-linecap: square"/>
   </g>
   <g id="line2d_7">
    <path clip-path="url(#pfa19412e45)" style="fill: none; stroke: #8f8f8f; stroke-width: 0.2; stroke-linecap: square"/>
   </g>
   <g id="line2d_8">
    <path clip-path="url(#pfa19412e45)" style="fill: none; stroke: #8f8f8f; stroke-width: 0.2; stroke-linecap: square"/>
   </g>
   <g id="line2d_9">
    <path clip-path="url(#pfa19412e45)" style="fill: none; stroke: #8f8f8f; stroke-width: 0.2; stroke-linecap: square"/>
   </g>
   <g id="line2d_10">
    <path clip-path="url(#pfa19412e45)" style="fill: none; stroke: #8f8f8f; stroke-width: 0.2; stroke-linecap: square"/>
   </g>
   <g id="line2d_11">
    <path d="M 173.348347 81.155504 
L 179.041583 66.902373 
L 202.685812 66.853803 
L 190.679318 70.074846 
L 173.348347 81.155504 
" clip-path="url(#pfa19412e45)" style="fill: none; stroke: #8f8f8f; stroke-width: 0.2; stroke-linecap: square"/>
   </g>
   <g id="line2d_12">
    <path clip-path="url(#pfa19412e45)" style="fill: none; stroke: #8f8f8f; stroke-width: 0.2; stroke-linecap: square"/>
   </g>
   <g id="line2d_13">
    <path d="M 414.866555 -1 
L 404.516099 54.810063 
L 413.866386 96.245151 
L 417.206502 111.05238 
L 396.124369 220.101898 
L 329.993213 169.820549 
L 275.12686 66.549782 
L 252.604262 53.568 
L 251.045131 45.923891 
L 306.291981 12.490056 
L 328.586592 -1 
" clip-path="url(#pfa19412e45)" style="fill: none; stroke: #8f8f8f; stroke-width: 0.2; stroke-linecap: square"/>
   </g>
   <g id="line2d_14">
    <path d="M 328.586592 -1 
L 306.291981 12.490056 
L 251.045131 45.923891 
L 242.531988 4.117748 
L 254.378556 -1 
" clip-path="url(#pfa19412e45)" style="fill: none; stroke: #8f8f8f; stroke-width: 0.2; stroke-linecap: square"/>
   </g>
   <g id="line2d_15">
    <path d="M 414.866555 -1 
L 404.516099 54.810063 
L 413.866386 96.245151 
L 417.206502 111.05238 
L 396.124369 220.101898 
L 329.993213 169.820549 
L 275.12686 66.549782 
L 252.604262 53.568 
L 251.045131 45.923891 
L 306.291981 12.490056 
L 328.586592 -1 
" clip-path="url(#pfa19412e45)" style="fill: none; stroke: #8f8f8f; stroke-width: 0.2; stroke-linecap: square"/>
   </g>
   <g id="line2d_16">
    <path d="M 414.866555 -1 
L 404.516099 54.810063 
L 413.866386 96.245151 
L 417.206502 111.05238 
L 396.124369 220.101898 
L 329.993213 169.820549 
L 275.12686 66.549782 
L 252.604262 53.568 
L 251.045131 45.923891 
L 306.291981 12.490056 
L 328.586592 -1 
" clip-path="url(#pfa19412e45)" style="fill: none; stroke: #8f8f8f; stroke-width: 0.2; stroke-linecap: square"/>
   </g>
   <g id="line2d_17">
    <path d="M 414.866555 -1 
L 404.516099 54.810063 
L 413.866386 96.245151 
L 417.206502 111.05238 
L 396.124369 220.101898 
L 329.993213 169.820549 
L 275.12686 66.549782 
L 252.604262 53.568 
L 251.045131 45.923891 
L 306.291981 12.490056 
L 328.586592 -1 
" clip-path="url(#pfa19412e45)" style="fill: none; stroke: #8f8f8f; stroke-width: 0.2; stroke-linecap: square"/>
   </g>
   <g id="line2d_18">
    <path d="M 461.8 113.590737 
L 413.866386 96.245151 
L 404.516099 54.810063 
L 414.866555 -1 
" clip-path="url(#pfa19412e45)" style="fill: none; stroke: #8f8f8f; stroke-width: 0.2; stroke-linecap: square"/>
   </g>
   <g id="line2d_19">
    <path clip-path="url(#pfa19412e45)" style="fill: none; stroke: #8f8f8f; stroke-width: 0.2; stroke-linecap: square"/>
   </g>
   <g id="line2d_20">
    <path d="M 461.8 113.590737 
L 413.866386 96.245151 
L 404.516099 54.810063 
L 414.866555 -1 
" clip-path="url(#pfa19412e45)" style="fill: none; stroke: #8f8f8f; stroke-width: 0.2; stroke-linecap: square"/>
   </g>
   <g id="line2d_21">
    <path d="M 461.8 113.590737 
L 413.866386 96.245151 
L 404.516099 54.810063 
L 414.866555 -1 
" clip-path="url(#pfa19412e45)" style="fill: none; stroke: #8f8f8f; stroke-width: 0.2; stroke-linecap: square"/>
   </g>
   <g id="line2d_22">
    <path clip-path="url(#pfa19412e45)" style="fill: none; stroke: #8f8f8f; stroke-width: 0.2; stroke-linecap: square"/>
   </g>
   <g id="line2d_23">
    <path clip-path="url(#pfa19412e45)" style="fill: none; stroke: #8f8f8f; stroke-width: 0.2; stroke-linecap: square"/>
   </g>
   <g id="line2d_24">
    <path d="M 156.539207 172.080018 
L 164.533192 179.288641 
L 173.071932 191.290326 
L 170.688849 205.79721 
L 150.163072 218.889731 
L 143.302236 184.749801 
L 142.326787 182.373795 
L 156.539207 172.080018 
" clip-path="url(#pfa19412e45)" style="fill: none; stroke: #8f8f8f; stroke-width: 0.2; stroke-linecap: square"/>
   </g>
   <g id="line2d_25">
    <path d="M 76.870493 248.393545 
L 86.198425 323.927927 
L 117.55972 327.029012 
L 158.003579 269.331631 
L 160.419301 269.292172 
L 163.6356 276.944279 
L 167.251113 276.328363 
L 172.074646 279.233272 
L 174.413204 275.846169 
L 172.53812 270.197358 
L 182.335572 268.985473 
L 191.379745 273.451749 
L 192.658361 284.839758 
L 196.684519 282.552591 
L 195.861342 279.968545 
L 198.161996 278.988673 
L 203.192601 284.138584 
L 215.967858 284.996488 
L 222.578806 280.862223 
L 223.033863 276.867449 
L 230.574945 275.269068 
L 235.082963 277.69883 
L 236.388291 279.187401 
L 234.663082 281.485735 
L 238.401375 287.108017 
L 248.251784 291.081856 
L 248.268887 294.00843 
L 257.922883 295.488 
L 263.775032 292.694073 
L 267.741212 295.312222 
L 270.841004 297.107765 
L 275.183025 296.02987 
L 277.193854 293.749332 
L 278.478693 293.884806 
L 281.268732 298.219839 
L 283.0928 297.855388 
L 284.699507 298.431743 
L 284.925258 299.134882 
L 285.494494 298.943823 
L 285.734627 299.327639 
L 288.461975 299.985193 
L 292.044786 303.517269 
L 293.671846 303.511107 
L 294.091278 303.970359 
L 295.56458 304.096426 
L 296.715809 305.049873 
L 298.320979 305.513528 
L 299.127298 305.030044 
L 299.969104 305.427505 
L 300.024509 305.05324 
L 302.349801 305.208025 
L 302.543864 306.715451 
L 305.065145 305.409253 
L 305.477079 306.548717 
L 305.973607 306.973739 
L 302.307036 308.558335 
L 300.521679 312.182289 
L 297.439143 316.722042 
L 295.000036 322.685811 
L 293.707845 328.430344 
L 292.071487 331.21074 
L 289.986244 332.706645 
L 287.004639 332.893928 
L 286.096031 333.733604 
L 285.745065 336.205308 
L 284.327382 337.230558 
L 282.451506 336.852714 
L 281.301297 337.088074 
L 280.496867 338.317489 
L 280.444839 342.270655 
L 276.915262 346.6 
M 11.963503 346.6 
L -1 330.778326 
M -1 289.530984 
L 49.088371 259.813877 
L 76.460125 244.276622 
L 76.870493 248.393545 
L 76.870493 248.393545 
" clip-path="url(#pfa19412e45)" style="fill: none; stroke: #8f8f8f; stroke-width: 0.2; stroke-linecap: square"/>
   </g>
   <g id="line2d_26">
    <path d="M 49.088371 259.813877 
L 76.460125 244.276622 
L 76.870493 248.393545 
L 86.198425 323.927927 
L 117.55972 327.029012 
L 158.003579 269.331631 
L 160.419301 269.292172 
L 163.6356 276.944279 
L 167.251113 276.328363 
L 172.074646 279.233272 
L 174.413204 275.846169 
L 172.53812 270.197358 
L 182.335572 268.985473 
L 191.379745 273.451749 
L 192.658361 284.839758 
L 196.684519 282.552591 
L 195.861342 279.968545 
L 198.161996 278.988673 
L 203.192601 284.138584 
L 215.967858 284.996488 
L 222.578806 280.862223 
L 223.033863 276.867449 
L 230.574945 275.269068 
L 235.082963 277.69883 
L 236.388291 279.187401 
L 234.663082 281.485735 
L 238.401375 287.108017 
L 248.251784 291.081856 
L 248.268887 294.00843 
L 257.922883 295.488 
L 263.775032 292.694073 
L 267.741212 295.312222 
L 270.841004 297.107765 
L 275.183025 296.02987 
L 277.193854 293.749332 
L 278.478693 293.884806 
L 281.268732 298.219839 
L 283.0928 297.855388 
L 284.699507 298.431743 
L 284.925258 299.134882 
L 285.494494 298.943823 
L 285.734627 299.327639 
L 288.461975 299.985193 
L 292.044786 303.517269 
L 293.671846 303.511107 
L 294.091278 303.970359 
L 295.56458 304.096426 
L 296.715809 305.049873 
L 298.320979 305.513528 
L 299.127298 305.030044 
L 299.969104 305.427505 
L 300.024509 305.05324 
L 302.349801 305.208025 
L 302.543864 306.715451 
L 305.065145 305.409253 
L 305.477079 306.548717 
L 305.973607 306.973739 
L 302.307036 308.558335 
L 300.521679 312.182289 
L 297.439143 316.722042 
L 295.000036 322.685811 
L 293.707845 328.430344 
L 292.071487 331.21074 
L 289.986244 332.706645 
L 287.004639 332.893928 
L 286.096031 333.733604 
L 285.745065 336.205308 
L 284.327382 337.230558 
L 282.451506 336.852714 
L 281.301297 337.088074 
L 280.496867 338.317489 
L 280.444839 342.270655 
L 276.915262 346.6 
M 11.963503 346.6 
L -1 330.778326 
M -1 289.530984 
L 49.088371 259.813877 
L 49.088371 259.813877 
" clip-path="url(#pfa19412e45)" style="fill: none; stroke: #8f8f8f; stroke-width: 0.2; stroke-linecap: square"/>
   </g>
   <g id="line2d_27">
    <path d="M 0 0 
" clip-path="url(#pfa19412e45)" style="fill: none; stroke: #8f8f8f; stroke-width: 0.2; stroke-linecap: square"/>
   </g>
   <g id="line2d_28">
    <path d="M 237.783712 57.507185 
L 244.546139 68.110412 
L 246.284937 70.801029 
L 257.203071 96.036189 
L 243.138442 101.818122 
L 237.733204 88.542035 
L 214.023278 80.342271 
L 182.917065 80.569765 
L 176.4583 80.554221 
L 173.348347 81.155504 
L 190.679318 70.074846 
L 202.685812 66.853803 
L 237.783712 57.507185 
" clip-path="url(#pfa19412e45)" style="fill: none; stroke: #8f8f8f; stroke-width: 0.2; stroke-linecap: square"/>
   </g>
   <g id="line2d_29">
    <path d="M 173.348347 81.155504 
L 179.041583 66.902373 
L 202.685812 66.853803 
L 190.679318 70.074846 
L 173.348347 81.155504 
" clip-path="url(#pfa19412e45)" style="fill: none; stroke: #8f8f8f; stroke-width: 0.2; stroke-linecap: square"/>
   </g>
   <g id="line2d_30">
    <path d="M 176.4583 80.554221 
L 182.917065 80.569765 
L 188.896039 117.826161 
L 157.443561 114.728528 
L 173.348347 81.155504 
L 176.4583 80.554221 
" clip-path="url(#pfa19412e45)" style="fill: none; stroke: #8f8f8f; stroke-width: 0.2; stroke-linecap: square"/>
   </g>
   <g id="line2d_31">
    <path d="M 329.993213 169.820549 
L 396.124369 220.101898 
L 389.290553 248.076666 
L 363.440136 346.6 
M 276.915262 346.6 
L 280.444839 342.270655 
L 280.496867 338.317489 
L 281.301297 337.088074 
L 282.451506 336.852714 
L 284.327382 337.230558 
L 285.745065 336.205308 
L 286.096031 333.733604 
L 287.004639 332.893928 
L 288.588978 332.769501 
L 289.986244 332.706645 
L 292.071487 331.21074 
L 293.707845 328.430344 
L 295.000036 322.685811 
L 297.439143 316.722042 
L 300.521679 312.182289 
L 302.307036 308.558335 
L 305.973607 306.973739 
L 305.477079 306.548717 
L 305.065145 305.409253 
L 302.543864 306.715451 
L 302.349801 305.208025 
L 300.024509 305.05324 
L 299.969104 305.427505 
L 299.127298 305.030044 
L 298.320979 305.513528 
L 296.715809 305.049873 
L 295.56458 304.096426 
L 294.091278 303.970359 
L 293.671846 303.511107 
L 292.044786 303.517269 
L 288.461975 299.985193 
L 285.734627 299.327639 
L 285.494494 298.943823 
L 284.925258 299.134882 
L 284.699507 298.431743 
L 283.0928 297.855388 
L 281.268732 298.219839 
L 278.478693 293.884806 
L 277.193854 293.749332 
L 275.183025 296.02987 
L 270.841004 297.107765 
L 267.741212 295.312222 
L 303.63801 193.870232 
L 329.993213 169.820549 
" clip-path="url(#pfa19412e45)" style="fill: none; stroke: #8f8f8f; stroke-width: 0.2; stroke-linecap: square"/>
   </g>
   <g id="line2d_32">
    <path d="M 329.993213 169.820549 
L 396.124369 220.101898 
L 389.290553 248.076666 
L 363.440136 346.6 
M 276.915262 346.6 
L 280.444839 342.270655 
L 280.496867 338.317489 
L 281.301297 337.088074 
L 282.451506 336.852714 
L 284.327382 337.230558 
L 285.745065 336.205308 
L 286.096031 333.733604 
L 287.004639 332.893928 
L 288.588978 332.769501 
L 289.986244 332.706645 
L 292.071487 331.21074 
L 293.707845 328.430344 
L 295.000036 322.685811 
L 297.439143 316.722042 
L 300.521679 312.182289 
L 302.307036 308.558335 
L 305.973607 306.973739 
L 305.477079 306.548717 
L 305.065145 305.409253 
L 302.543864 306.715451 
L 302.349801 305.208025 
L 300.024509 305.05324 
L 299.969104 305.427505 
L 299.127298 305.030044 
L 298.320979 305.513528 
L 296.715809 305.049873 
L 295.56458 304.096426 
L 294.091278 303.970359 
L 293.671846 303.511107 
L 292.044786 303.517269 
L 288.461975 299.985193 
L 285.734627 299.327639 
L 285.494494 298.943823 
L 284.925258 299.134882 
L 284.699507 298.431743 
L 283.0928 297.855388 
L 281.268732 298.219839 
L 278.478693 293.884806 
L 277.193854 293.749332 
L 275.183025 296.02987 
L 270.841004 297.107765 
L 267.741212 295.312222 
L 303.63801 193.870232 
L 329.993213 169.820549 
" clip-path="url(#pfa19412e45)" style="fill: none; stroke: #8f8f8f; stroke-width: 0.2; stroke-linecap: square"/>
   </g>
   <g id="line2d_33">
    <path d="M 329.993213 169.820549 
L 396.124369 220.101898 
L 389.290553 248.076666 
L 363.440136 346.6 
M 276.915262 346.6 
L 280.444839 342.270655 
L 280.496867 338.317489 
L 281.301297 337.088074 
L 282.451506 336.852714 
L 284.327382 337.230558 
L 285.745065 336.205308 
L 286.096031 333.733604 
L 287.004639 332.893928 
L 288.588978 332.769501 
L 289.986244 332.706645 
L 292.071487 331.21074 
L 293.707845 328.430344 
L 295.000036 322.685811 
L 297.439143 316.722042 
L 300.521679 312.182289 
L 302.307036 308.558335 
L 305.973607 306.973739 
L 305.477079 306.548717 
L 305.065145 305.409253 
L 302.543864 306.715451 
L 302.349801 305.208025 
L 300.024509 305.05324 
L 299.969104 305.427505 
L 299.127298 305.030044 
L 298.320979 305.513528 
L 296.715809 305.049873 
L 295.56458 304.096426 
L 294.091278 303.970359 
L 293.671846 303.511107 
L 292.044786 303.517269 
L 288.461975 299.985193 
L 285.734627 299.327639 
L 285.494494 298.943823 
L 284.925258 299.134882 
L 284.699507 298.431743 
L 283.0928 297.855388 
L 281.268732 298.219839 
L 278.478693 293.884806 
L 277.193854 293.749332 
L 275.183025 296.02987 
L 270.841004 297.107765 
L 267.741212 295.312222 
L 303.63801 193.870232 
L 329.993213 169.820549 
" clip-path="url(#pfa19412e45)" style="fill: none; stroke: #8f8f8f; stroke-width: 0.2; stroke-linecap: square"/>
   </g>
   <g id="line2d_34">
    <path d="M 389.290553 248.076666 
L 461.8 289.715816 
M 461.8 322.946787 
L 454.605987 327.926546 
L 446.30522 344.494577 
L 445.248098 346.6 
M 363.440136 346.6 
L 389.290553 248.076666 
" clip-path="url(#pfa19412e45)" style="fill: none; stroke: #8f8f8f; stroke-width: 0.2; stroke-linecap: square"/>
   </g>
   <g id="line2d_35">
    <path d="M 389.290553 248.076666 
L 461.8 289.715816 
M 461.8 322.946787 
L 454.605987 327.926546 
L 446.30522 344.494577 
L 445.248098 346.6 
M 363.440136 346.6 
L 389.290553 248.076666 
" clip-path="url(#pfa19412e45)" style="fill: none; stroke: #8f8f8f; stroke-width: 0.2; stroke-linecap: square"/>
   </g>
   <g id="line2d_36">
    <path d="M 389.290553 248.076666 
L 461.8 289.715816 
M 461.8 322.946787 
L 454.605987 327.926546 
L 446.30522 344.494577 
L 445.248098 346.6 
M 363.440136 346.6 
L 389.290553 248.076666 
" clip-path="url(#pfa19412e45)" style="fill: none; stroke: #8f8f8f; stroke-width: 0.2; stroke-linecap: square"/>
   </g>
   <g id="line2d_37">
    <path d="M 413.866386 96.245151 
L 461.8 113.590737 
M 461.8 289.715816 
L 389.290553 248.076666 
L 396.124369 220.101898 
L 417.206502 111.05238 
L 413.866386 96.245151 
" clip-path="url(#pfa19412e45)" style="fill: none; stroke: #8f8f8f; stroke-width: 0.2; stroke-linecap: square"/>
   </g>
   <g id="line2d_38">
    <path d="M 413.866386 96.245151 
L 461.8 113.590737 
M 461.8 289.715816 
L 389.290553 248.076666 
L 396.124369 220.101898 
L 417.206502 111.05238 
L 413.866386 96.245151 
" clip-path="url(#pfa19412e45)" style="fill: none; stroke: #8f8f8f; stroke-width: 0.2; stroke-linecap: square"/>
   </g>
   <g id="line2d_39">
    <path d="M 413.866386 96.245151 
L 461.8 113.590737 
M 461.8 289.715816 
L 389.290553 248.076666 
L 396.124369 220.101898 
L 417.206502 111.05238 
L 413.866386 96.245151 
" clip-path="url(#pfa19412e45)" style="fill: none; stroke: #8f8f8f; stroke-width: 0.2; stroke-linecap: square"/>
   </g>
   <g id="line2d_40">
    <path d="M 413.866386 96.245151 
L 461.8 113.590737 
M 461.8 289.715816 
L 389.290553 248.076666 
L 396.124369 220.101898 
L 417.206502 111.05238 
L 413.866386 96.245151 
" clip-path="url(#pfa19412e45)" style="fill: none; stroke: #8f8f8f; stroke-width: 0.2; stroke-linecap: square"/>
   </g>
   <g id="line2d_41">
    <path d="M 413.866386 96.245151 
L 461.8 113.590737 
M 461.8 289.715816 
L 389.290553 248.076666 
L 396.124369 220.101898 
L 417.206502 111.05238 
L 413.866386 96.245151 
" clip-path="url(#pfa19412e45)" style="fill: none; stroke: #8f8f8f; stroke-width: 0.2; stroke-linecap: square"/>
   </g>
   <g id="line2d_42">
    <path d="M 328.586592 -1 
L 306.291981 12.490056 
L 298.695564 -1 
" clip-path="url(#pfa19412e45)" style="fill: none; stroke: #8f8f8f; stroke-width: 0.2; stroke-linecap: square"/>
   </g>
   <g id="line2d_43">
    <path clip-path="url(#pfa19412e45)" style="fill: none; stroke: #8f8f8f; stroke-width: 0.2; stroke-linecap: square"/>
   </g>
   <g id="line2d_44">
    <path d="M 328.586592 -1 
L 306.291981 12.490056 
L 298.695564 -1 
" clip-path="url(#pfa19412e45)" style="fill: none; stroke: #8f8f8f; stroke-width: 0.2; stroke-linecap: square"/>
   </g>
   <g id="line2d_45">
    <path d="M 237.783712 57.507185 
L 202.685812 66.853803 
L 98.854319 -1 
M 298.695564 -1 
L 306.291981 12.490056 
L 251.045131 45.923891 
L 252.604262 53.568 
L 237.783712 57.507185 
" clip-path="url(#pfa19412e45)" style="fill: none; stroke: #8f8f8f; stroke-width: 0.2; stroke-linecap: square"/>
   </g>
   <g id="line2d_46">
    <path d="M 237.783712 57.507185 
L 202.685812 66.853803 
L 98.854319 -1 
M 254.378556 -1 
L 242.531988 4.117748 
L 251.045131 45.923891 
L 252.604262 53.568 
L 237.783712 57.507185 
" clip-path="url(#pfa19412e45)" style="fill: none; stroke: #8f8f8f; stroke-width: 0.2; stroke-linecap: square"/>
   </g>
   <g id="line2d_47">
    <path d="M 237.783712 57.507185 
L 202.685812 66.853803 
L 98.854319 -1 
M 298.695564 -1 
L 306.291981 12.490056 
L 251.045131 45.923891 
L 252.604262 53.568 
L 237.783712 57.507185 
" clip-path="url(#pfa19412e45)" style="fill: none; stroke: #8f8f8f; stroke-width: 0.2; stroke-linecap: square"/>
   </g>
   <g id="line2d_48">
    <path d="M 252.604262 53.568 
L 275.12686 66.549782 
L 329.993213 169.820549 
L 303.63801 193.870232 
L 267.741212 295.312222 
L 263.775032 292.694073 
L 257.922883 295.488 
L 248.268887 294.00843 
L 248.251784 291.081856 
L 238.401375 287.108017 
L 234.663082 281.485735 
L 236.388291 279.187401 
L 235.082963 277.69883 
L 230.574945 275.269068 
L 223.033863 276.867449 
L 222.578806 280.862223 
L 215.967858 284.996488 
L 203.192601 284.138584 
L 198.161996 278.988673 
L 195.861342 279.968545 
L 196.684519 282.552591 
L 192.658361 284.839758 
L 191.379745 273.451749 
L 182.335572 268.985473 
L 172.53812 270.197358 
L 174.413204 275.846169 
L 172.074646 279.233272 
L 167.251113 276.328363 
L 163.6356 276.944279 
L 161.515999 271.911181 
L 160.419301 269.292172 
L 150.163072 218.889731 
L 170.688849 205.79721 
L 173.071932 191.290326 
L 164.533192 179.288641 
L 156.539207 172.080018 
L 142.326787 182.373795 
L 150.376199 146.41032 
L 157.443561 114.728528 
L 188.896039 117.826161 
L 182.917065 80.569765 
L 214.023278 80.342271 
L 237.733204 88.542035 
L 243.138442 101.818122 
L 257.203071 96.036189 
L 246.284937 70.801029 
L 244.546139 68.110412 
L 237.783712 57.507185 
L 252.604262 53.568 
L 252.604262 53.568 
" clip-path="url(#pfa19412e45)" style="fill: none; stroke: #ffc380; stroke-width: 0.5; stroke-linecap: square"/>
   </g>
   <g id="line2d_49">
    <path d="M 252.604262 53.568 
L 275.12686 66.549782 
L 329.993213 169.820549 
L 303.63801 193.870232 
L 267.741212 295.312222 
L 263.775032 292.694073 
L 257.922883 295.488 
L 248.268887 294.00843 
L 248.251784 291.081856 
L 238.401375 287.108017 
L 234.663082 281.485735 
L 236.388291 279.187401 
L 235.082963 277.69883 
L 230.574945 275.269068 
L 223.033863 276.867449 
L 222.578806 280.862223 
L 215.967858 284.996488 
L 203.192601 284.138584 
L 198.161996 278.988673 
L 195.861342 279.968545 
L 196.684519 282.552591 
L 192.658361 284.839758 
L 191.379745 273.451749 
L 182.335572 268.985473 
L 172.53812 270.197358 
L 174.413204 275.846169 
L 172.074646 279.233272 
L 167.251113 276.328363 
L 163.6356 276.944279 
L 161.515999 271.911181 
L 160.419301 269.292172 
L 150.163072 218.889731 
L 143.302236 184.749801 
L 142.326787 182.373795 
L 150.376199 146.41032 
L 157.443561 114.728528 
L 173.348347 81.155504 
L 190.679318 70.074846 
L 202.685812 66.853803 
L 237.783712 57.507185 
L 252.604262 53.568 
L 252.604262 53.568 
" clip-path="url(#pfa19412e45)" style="fill: none; stroke: #ffc380; stroke-width: 0.5; stroke-linecap: square"/>
   </g>
   <g id="line2d_50">
    <path d="M 252.604262 53.568 
L 275.12686 66.549782 
L 329.993213 169.820549 
L 303.63801 193.870232 
L 267.741212 295.312222 
L 263.775032 292.694073 
L 257.922883 295.488 
L 248.268887 294.00843 
L 248.251784 291.081856 
L 238.401375 287.108017 
L 234.663082 281.485735 
L 236.388291 279.187401 
L 235.082963 277.69883 
L 230.574945 275.269068 
L 223.033863 276.867449 
L 222.578806 280.862223 
L 215.967858 284.996488 
L 203.192601 284.138584 
L 198.161996 278.988673 
L 195.861342 279.968545 
L 196.684519 282.552591 
L 192.658361 284.839758 
L 191.379745 273.451749 
L 182.335572 268.985473 
L 172.53812 270.197358 
L 174.413204 275.846169 
L 172.074646 279.233272 
L 167.251113 276.328363 
L 163.6356 276.944279 
L 161.515999 271.911181 
L 160.419301 269.292172 
L 150.163072 218.889731 
L 143.302236 184.749801 
L 142.326787 182.373795 
L 150.376199 146.41032 
L 157.443561 114.728528 
L 173.348347 81.155504 
L 190.679318 70.074846 
L 202.685812 66.853803 
L 237.783712 57.507185 
L 252.604262 53.568 
L 252.604262 53.568 
" clip-path="url(#pfa19412e45)" style="fill: none; stroke: #ffc380; stroke-width: 0.5; stroke-linecap: square"/>
   </g>
   <g id="line2d_51">
    <path d="M 252.604262 53.568 
L 275.12686 66.549782 
L 329.993213 169.820549 
L 303.63801 193.870232 
L 267.741212 295.312222 
L 263.775032 292.694073 
L 257.922883 295.488 
L 248.268887 294.00843 
L 248.251784 291.081856 
L 238.401375 287.108017 
L 234.663082 281.485735 
L 236.388291 279.187401 
L 235.082963 277.69883 
L 230.574945 275.269068 
L 223.033863 276.867449 
L 222.578806 280.862223 
L 215.967858 284.996488 
L 203.192601 284.138584 
L 198.161996 278.988673 
L 195.861342 279.968545 
L 196.684519 282.552591 
L 192.658361 284.839758 
L 191.379745 273.451749 
L 182.335572 268.985473 
L 172.53812 270.197358 
L 174.413204 275.846169 
L 172.074646 279.233272 
L 167.251113 276.328363 
L 163.6356 276.944279 
L 161.515999 271.911181 
L 160.419301 269.292172 
L 150.163072 218.889731 
L 143.302236 184.749801 
L 142.326787 182.373795 
L 150.376199 146.41032 
L 157.443561 114.728528 
L 173.348347 81.155504 
L 190.679318 70.074846 
L 202.685812 66.853803 
L 237.783712 57.507185 
L 252.604262 53.568 
L 252.604262 53.568 
" clip-path="url(#pfa19412e45)" style="fill: none; stroke: #ffc380; stroke-width: 0.5; stroke-linecap: square"/>
   </g>
   <g id="line2d_52">
    <path d="M 252.604262 53.568 
L 275.12686 66.549782 
L 329.993213 169.820549 
L 303.63801 193.870232 
L 267.741212 295.312222 
L 263.775032 292.694073 
L 257.922883 295.488 
L 248.268887 294.00843 
L 248.251784 291.081856 
L 238.401375 287.108017 
L 234.663082 281.485735 
L 236.388291 279.187401 
L 235.082963 277.69883 
L 230.574945 275.269068 
L 223.033863 276.867449 
L 222.578806 280.862223 
L 215.967858 284.996488 
L 203.192601 284.138584 
L 198.161996 278.988673 
L 195.861342 279.968545 
L 196.684519 282.552591 
L 192.658361 284.839758 
L 191.379745 273.451749 
L 182.335572 268.985473 
L 172.53812 270.197358 
L 174.413204 275.846169 
L 172.074646 279.233272 
L 167.251113 276.328363 
L 163.6356 276.944279 
L 161.515999 271.911181 
L 160.419301 269.292172 
L 150.163072 218.889731 
L 143.302236 184.749801 
L 142.326787 182.373795 
L 150.376199 146.41032 
L 157.443561 114.728528 
L 173.348347 81.155504 
L 190.679318 70.074846 
L 202.685812 66.853803 
L 237.783712 57.507185 
L 252.604262 53.568 
L 252.604262 53.568 
" clip-path="url(#pfa19412e45)" style="fill: none; stroke: #ffc380; stroke-width: 0.5; stroke-linecap: square"/>
   </g>
   <g id="text_1">
    <!-- NTM141 -->
    <g transform="translate(224.202293 169.642145)scale(0.0579 -0.0579)">
     <defs>
      <path id="DejaVuSans-4e" d="M 628 4666 
L 1478 4666 
L 3547 763 
L 3547 4666 
L 4159 4666 
L 4159 0 
L 3309 0 
L 1241 3903 
L 1241 0 
L 628 0 
L 628 4666 
z
" transform="scale(0.015625)"/>
      <path id="DejaVuSans-54" d="M -19 4666 
L 3928 4666 
L 3928 4134 
L 2272 4134 
L 2272 0 
L 1638 0 
L 1638 4134 
L -19 4134 
L -19 4666 
z
" transform="scale(0.015625)"/>
      <path id="DejaVuSans-4d" d="M 628 4666 
L 1569 4666 
L 2759 1491 
L 3956 4666 
L 4897 4666 
L 4897 0 
L 4281 0 
L 4281 4097 
L 3078 897 
L 2444 897 
L 1241 4097 
L 1241 0 
L 628 0 
L 628 4666 
z
" transform="scale(0.015625)"/>
      <path id="DejaVuSans-31" d="M 794 531 
L 1825 531 
L 1825 4091 
L 703 3866 
L 703 4441 
L 1819 4666 
L 2450 4666 
L 2450 531 
L 3481 531 
L 3481 0 
L 794 0 
L 794 531 
z
" transform="scale(0.015625)"/>
      <path id="DejaVuSans-34" d="M 2419 4116 
L 825 1625 
L 2419 1625 
L 2419 4116 
z
M 2253 4666 
L 3047 4666 
L 3047 1625 
L 3713 1625 
L 3713 1100 
L 3047 1100 
L 3047 0 
L 2419 0 
L 2419 1100 
L 313 1100 
L 313 1709 
L 2253 4666 
z
" transform="scale(0.015625)"/>
     </defs>
     <use xlink:href="#DejaVuSans-4e"/>
     <use xlink:href="#DejaVuSans-54" x="74.804688"/>
     <use xlink:href="#DejaVuSans-4d" x="135.888672"/>
     <use xlink:href="#DejaVuSans-31" x="222.167969"/>
     <use xlink:href="#DejaVuSans-34" x="285.791016"/>
     <use xlink:href="#DejaVuSans-31" x="349.414062"/>
    </g>
    <!-- 265 -->
    <g transform="translate(230.634169 176.125678)scale(0.0579 -0.0579)">
     <defs>
      <path id="DejaVuSans-32" d="M 1228 531 
L 3431 531 
L 3431 0 
L 469 0 
L 469 531 
Q 828 903 1448 1529 
Q 2069 2156 2228 2338 
Q 2531 2678 2651 2914 
Q 2772 3150 2772 3378 
Q 2772 3750 2511 3984 
Q 2250 4219 1831 4219 
Q 1534 4219 1204 4116 
Q 875 4013 500 3803 
L 500 4441 
Q 881 4594 1212 4672 
Q 1544 4750 1819 4750 
Q 2544 4750 2975 4387 
Q 3406 4025 3406 3419 
Q 3406 3131 3298 2873 
Q 3191 2616 2906 2266 
Q 2828 2175 2409 1742 
Q 1991 1309 1228 531 
z
" transform="scale(0.015625)"/>
      <path id="DejaVuSans-36" d="M 2113 2584 
Q 1688 2584 1439 2293 
Q 1191 2003 1191 1497 
Q 1191 994 1439 701 
Q 1688 409 2113 409 
Q 2538 409 2786 701 
Q 3034 994 3034 1497 
Q 3034 2003 2786 2293 
Q 2538 2584 2113 2584 
z
M 3366 4563 
L 3366 3988 
Q 3128 4100 2886 4159 
Q 2644 4219 2406 4219 
Q 1781 4219 1451 3797 
Q 1122 3375 1075 2522 
Q 1259 2794 1537 2939 
Q 1816 3084 2150 3084 
Q 2853 3084 3261 2657 
Q 3669 2231 3669 1497 
Q 3669 778 3244 343 
Q 2819 -91 2113 -91 
Q 1303 -91 875 529 
Q 447 1150 447 2328 
Q 447 3434 972 4092 
Q 1497 4750 2381 4750 
Q 2619 4750 2861 4703 
Q 3103 4656 3366 4563 
z
" transform="scale(0.015625)"/>
      <path id="DejaVuSans-35" d="M 691 4666 
L 3169 4666 
L 3169 4134 
L 1269 4134 
L 1269 2991 
Q 1406 3038 1543 3061 
Q 1681 3084 1819 3084 
Q 2600 3084 3056 2656 
Q 3513 2228 3513 1497 
Q 3513 744 3044 326 
Q 2575 -91 1722 -91 
Q 1428 -91 1123 -41 
Q 819 9 494 109 
L 494 744 
Q 775 591 1075 516 
Q 1375 441 1709 441 
Q 2250 441 2565 725 
Q 2881 1009 2881 1497 
Q 2881 1984 2565 2268 
Q 2250 2553 1709 2553 
Q 1456 2553 1204 2497 
Q 953 2441 691 2322 
L 691 4666 
z
" transform="scale(0.015625)"/>
     </defs>
     <use xlink:href="#DejaVuSans-32"/>
     <use xlink:href="#DejaVuSans-36" x="63.623047"/>
     <use xlink:href="#DejaVuSans-35" x="127.246094"/>
    </g>
    <!-- 245 -->
    <g transform="translate(230.634169 182.609212)scale(0.0579 -0.0579)">
     <use xlink:href="#DejaVuSans-32"/>
     <use xlink:href="#DejaVuSans-34" x="63.623047"/>
     <use xlink:href="#DejaVuSans-35" x="127.246094"/>
    </g>
   </g>
   <g id="text_2">
    <!-- NTM142 -->
    <g transform="translate(224.202293 169.642145)scale(0.0579 -0.0579)">
     <use xlink:href="#DejaVuSans-4e"/>
     <use xlink:href="#DejaVuSans-54" x="74.804688"/>
     <use xlink:href="#DejaVuSans-4d" x="135.888672"/>
     <use xlink:href="#DejaVuSans-31" x="222.167969"/>
     <use xlink:href="#DejaVuSans-34" x="285.791016"/>
     <use xlink:href="#DejaVuSans-32" x="349.414062"/>
    </g>
    <!-- 325 -->
    <g transform="translate(230.634169 176.125678)scale(0.0579 -0.0579)">
     <defs>
      <path id="DejaVuSans-33" d="M 2597 2516 
Q 3050 2419 3304 2112 
Q 3559 1806 3559 1356 
Q 3559 666 3084 287 
Q 2609 -91 1734 -91 
Q 1441 -91 1130 -33 
Q 819 25 488 141 
L 488 750 
Q 750 597 1062 519 
Q 1375 441 1716 441 
Q 2309 441 2620 675 
Q 2931 909 2931 1356 
Q 2931 1769 2642 2001 
Q 2353 2234 1838 2234 
L 1294 2234 
L 1294 2753 
L 1863 2753 
Q 2328 2753 2575 2939 
Q 2822 3125 2822 3475 
Q 2822 3834 2567 4026 
Q 2313 4219 1838 4219 
Q 1578 4219 1281 4162 
Q 984 4106 628 3988 
L 628 4550 
Q 988 4650 1302 4700 
Q 1616 4750 1894 4750 
Q 2613 4750 3031 4423 
Q 3450 4097 3450 3541 
Q 3450 3153 3228 2886 
Q 3006 2619 2597 2516 
z
" transform="scale(0.015625)"/>
     </defs>
     <use xlink:href="#DejaVuSans-33"/>
     <use xlink:href="#DejaVuSans-32" x="63.623047"/>
     <use xlink:href="#DejaVuSans-35" x="127.246094"/>
    </g>
    <!-- 265 -->
    <g transform="translate(230.634169 182.609212)scale(0.0579 -0.0579)">
     <use xlink:href="#DejaVuSans-32"/>
     <use xlink:href="#DejaVuSans-36" x="63.623047"/>
     <use xlink:href="#DejaVuSans-35" x="127.246094"/>
    </g>
   </g>
   <g id="text_3">
    <!-- NTM24 -->
    <g transform="translate(226.044237 169.642145)scale(0.0579 -0.0579)">
     <use xlink:href="#DejaVuSans-4e"/>
     <use xlink:href="#DejaVuSans-54" x="74.804688"/>
     <use xlink:href="#DejaVuSans-4d" x="135.888672"/>
     <use xlink:href="#DejaVuSans-32" x="222.167969"/>
     <use xlink:href="#DejaVuSans-34" x="285.791016"/>
    </g>
    <!-- 355 -->
    <g transform="translate(230.634169 176.125678)scale(0.0579 -0.0579)">
     <use xlink:href="#DejaVuSans-33"/>
     <use xlink:href="#DejaVuSans-35" x="63.623047"/>
     <use xlink:href="#DejaVuSans-35" x="127.246094"/>
    </g>
    <!-- 325 -->
    <g transform="translate(230.634169 182.609212)scale(0.0579 -0.0579)">
     <use xlink:href="#DejaVuSans-33"/>
     <use xlink:href="#DejaVuSans-32" x="63.623047"/>
     <use xlink:href="#DejaVuSans-35" x="127.246094"/>
    </g>
   </g>
   <g id="text_4">
    <!-- NTM34 -->
    <g transform="translate(226.044237 169.642145)scale(0.0579 -0.0579)">
     <use xlink:href="#DejaVuSans-4e"/>
     <use xlink:href="#DejaVuSans-54" x="74.804688"/>
     <use xlink:href="#DejaVuSans-4d" x="135.888672"/>
     <use xlink:href="#DejaVuSans-33" x="222.167969"/>
     <use xlink:href="#DejaVuSans-34" x="285.791016"/>
    </g>
    <!-- 375 -->
    <g transform="translate(230.634169 176.125678)scale(0.0579 -0.0579)">
     <defs>
      <path id="DejaVuSans-37" d="M 525 4666 
L 3525 4666 
L 3525 4397 
L 1831 0 
L 1172 0 
L 2766 4134 
L 525 4134 
L 525 4666 
z
" transform="scale(0.015625)"/>
     </defs>
     <use xlink:href="#DejaVuSans-33"/>
     <use xlink:href="#DejaVuSans-37" x="63.623047"/>
     <use xlink:href="#DejaVuSans-35" x="127.246094"/>
    </g>
    <!-- 355 -->
    <g transform="translate(230.634169 182.609212)scale(0.0579 -0.0579)">
     <use xlink:href="#DejaVuSans-33"/>
     <use xlink:href="#DejaVuSans-35" x="63.623047"/>
     <use xlink:href="#DejaVuSans-35" x="127.246094"/>
    </g>
   </g>
   <g id="text_5">
    <!-- NTM44 -->
    <g transform="translate(226.044237 169.642145)scale(0.0579 -0.0579)">
     <use xlink:href="#DejaVuSans-4e"/>
     <use xlink:href="#DejaVuSans-54" x="74.804688"/>
     <use xlink:href="#DejaVuSans-4d" x="135.888672"/>
     <use xlink:href="#DejaVuSans-34" x="222.167969"/>
     <use xlink:href="#DejaVuSans-34" x="285.791016"/>
    </g>
    <!-- 660 -->
    <g transform="translate(230.634169 176.125678)scale(0.0579 -0.0579)">
     <defs>
      <path id="DejaVuSans-30" d="M 2034 4250 
Q 1547 4250 1301 3770 
Q 1056 3291 1056 2328 
Q 1056 1369 1301 889 
Q 1547 409 2034 409 
Q 2525 409 2770 889 
Q 3016 1369 3016 2328 
Q 3016 3291 2770 3770 
Q 2525 4250 2034 4250 
z
M 2034 4750 
Q 2819 4750 3233 4129 
Q 3647 3509 3647 2328 
Q 3647 1150 3233 529 
Q 2819 -91 2034 -91 
Q 1250 -91 836 529 
Q 422 1150 422 2328 
Q 422 3509 836 4129 
Q 1250 4750 2034 4750 
z
" transform="scale(0.015625)"/>
     </defs>
     <use xlink:href="#DejaVuSans-36"/>
     <use xlink:href="#DejaVuSans-36" x="63.623047"/>
     <use xlink:href="#DejaVuSans-30" x="127.246094"/>
    </g>
    <!-- 375 -->
    <g transform="translate(230.634169 182.609212)scale(0.0579 -0.0579)">
     <use xlink:href="#DejaVuSans-33"/>
     <use xlink:href="#DejaVuSans-37" x="63.623047"/>
     <use xlink:href="#DejaVuSans-35" x="127.246094"/>
    </g>
   </g>
  </g>
 </g>
 <defs>
  <clipPath id="pfa19412e45">
   <rect x="132.943466" y="41.472" width="206.433069" height="266.112"/>
  </clipPath>
 </defs>
</svg>
