<?xml version="1.0" encoding="utf-8" standalone="no"?>
<!DOCTYPE svg PUBLIC "-//W3C//DTD SVG 1.1//EN"
  "http://www.w3.org/Graphics/SVG/1.1/DTD/svg11.dtd">
<svg xmlns:xlink="http://www.w3.org/1999/xlink" width="460.8pt" height="345.6pt" viewBox="0 0 460.8 345.6" xmlns="http://www.w3.org/2000/svg" version="1.1">
 <metadata>
  <rdf:RDF xmlns:dc="http://purl.org/dc/elements/1.1/" xmlns:cc="http://creativecommons.org/ns#" xmlns:rdf="http://www.w3.org/1999/02/22-rdf-syntax-ns#">
   <cc:Work>
    <dc:type rdf:resource="http://purl.org/dc/dcmitype/StillImage"/>
    <dc:date>2022-04-26T00:33:41.111736</dc:date>
    <dc:format>image/svg+xml</dc:format>
    <dc:creator>
     <cc:Agent>
      <dc:title>Matplotlib v3.5.0, https://matplotlib.org/</dc:title>
     </cc:Agent>
    </dc:creator>
   </cc:Work>
  </rdf:RDF>
 </metadata>
 <defs>
  <style type="text/css">*{stroke-linejoin: round; stroke-linecap: butt}</style>
 </defs>
 <g id="figure_1">
  <g id="patch_1">
   <path d="M 0 345.6 
L 460.8 345.6 
L 460.8 0 
L 0 0 
z
" style="fill: #ffffff"/>
  </g>
  <g id="axes_1">
   <g id="patch_2">
    <path d="M 252.604262 53.568 
L 275.12686 66.549782 
L 329.993213 169.820549 
L 303.63801 193.870232 
L 267.741212 295.312222 
L 263.775032 292.694073 
L 257.922883 295.488 
L 248.268887 294.00843 
L 248.251784 291.081856 
L 238.401375 287.108017 
L 234.663082 281.485735 
L 236.388291 279.187401 
L 235.082963 277.69883 
L 230.574945 275.269068 
L 223.033863 276.867449 
L 222.578806 280.862223 
L 215.967858 284.996488 
L 203.192601 284.138584 
L 198.161996 278.988673 
L 195.861342 279.968545 
L 196.684519 282.552591 
L 192.658361 284.839758 
L 191.379745 273.451749 
L 182.335572 268.985473 
L 172.53812 270.197358 
L 174.413204 275.846169 
L 172.074646 279.233272 
L 167.251113 276.328363 
L 163.6356 276.944279 
L 161.515999 271.911181 
L 160.419301 269.292172 
L 150.163072 218.889731 
L 170.688849 205.79721 
L 173.071932 191.290326 
L 164.533192 179.288641 
L 156.539207 172.080018 
L 142.326787 182.373795 
L 150.376199 146.41032 
L 157.443561 114.728528 
L 188.896039 117.826161 
L 182.917065 80.569765 
L 214.023278 80.342271 
L 237.733204 88.542035 
L 243.138442 101.818122 
L 257.203071 96.036189 
L 246.284937 70.801029 
L 244.546139 68.110412 
L 237.783712 57.507185 
z
" clip-path="url(#p4b620a4472)" style="fill: #ffedd9; stroke: #ffedd9; stroke-linejoin: miter"/>
   </g>
   <g id="patch_3">
    <path d="M 252.604262 53.568 
L 275.12686 66.549782 
L 329.993213 169.820549 
L 303.63801 193.870232 
L 267.741212 295.312222 
L 263.775032 292.694073 
L 257.922883 295.488 
L 248.268887 294.00843 
L 248.251784 291.081856 
L 238.401375 287.108017 
L 234.663082 281.485735 
L 236.388291 279.187401 
L 235.082963 277.69883 
L 230.574945 275.269068 
L 223.033863 276.867449 
L 222.578806 280.862223 
L 215.967858 284.996488 
L 203.192601 284.138584 
L 198.161996 278.988673 
L 195.861342 279.968545 
L 196.684519 282.552591 
L 192.658361 284.839758 
L 191.379745 273.451749 
L 182.335572 268.985473 
L 172.53812 270.197358 
L 174.413204 275.846169 
L 172.074646 279.233272 
L 167.251113 276.328363 
L 163.6356 276.944279 
L 161.515999 271.911181 
L 160.419301 269.292172 
L 150.163072 218.889731 
L 170.688849 205.79721 
L 173.071932 191.290326 
L 164.533192 179.288641 
L 156.539207 172.080018 
L 142.326787 182.373795 
L 150.376199 146.41032 
L 157.443561 114.728528 
L 188.896039 117.826161 
L 182.917065 80.569765 
L 214.023278 80.342271 
L 237.733204 88.542035 
L 243.138442 101.818122 
L 257.203071 96.036189 
L 246.284937 70.801029 
L 244.546139 68.110412 
L 237.783712 57.507185 
L 252.604262 53.568 
z
" clip-path="url(#p4b620a4472)" style="fill: #ffedd9; stroke: #ffedd9; stroke-linejoin: miter"/>
   </g>
   <g id="line2d_1">
    <path d="M 252.604262 53.568 
L 275.12686 66.549782 
L 329.993213 169.820549 
L 303.63801 193.870232 
L 267.741212 295.312222 
L 263.775032 292.694073 
L 257.922883 295.488 
L 248.268887 294.00843 
L 248.251784 291.081856 
L 238.401375 287.108017 
L 234.663082 281.485735 
L 236.388291 279.187401 
L 235.082963 277.69883 
L 230.574945 275.269068 
L 223.033863 276.867449 
L 222.578806 280.862223 
L 215.967858 284.996488 
L 203.192601 284.138584 
L 198.161996 278.988673 
L 195.861342 279.968545 
L 196.684519 282.552591 
L 192.658361 284.839758 
L 191.379745 273.451749 
L 182.335572 268.985473 
L 172.53812 270.197358 
L 174.413204 275.846169 
L 172.074646 279.233272 
L 167.251113 276.328363 
L 163.6356 276.944279 
L 161.515999 271.911181 
L 160.419301 269.292172 
L 150.163072 218.889731 
L 170.688849 205.79721 
L 173.071932 191.290326 
L 164.533192 179.288641 
L 156.539207 172.080018 
L 142.326787 182.373795 
L 150.376199 146.41032 
L 157.443561 114.728528 
L 188.896039 117.826161 
L 182.917065 80.569765 
L 214.023278 80.342271 
L 237.733204 88.542035 
L 243.138442 101.818122 
L 257.203071 96.036189 
L 246.284937 70.801029 
L 244.546139 68.110412 
L 237.783712 57.507185 
L 252.604262 53.568 
" clip-path="url(#p4b620a4472)" style="fill: none; stroke: #ffc380; stroke-width: 0.5; stroke-linecap: square"/>
   </g>
   <g id="line2d_2">
    <path d="M 173.348347 81.155504 
L 179.041583 66.902373 
L 202.685812 66.853803 
L 190.679318 70.074846 
L 173.348347 81.155504 
" clip-path="url(#p4b620a4472)" style="fill: none; stroke: #8f8f8f; stroke-width: 0.2; stroke-linecap: square"/>
   </g>
   <g id="line2d_3">
    <path clip-path="url(#p4b620a4472)" style="fill: none; stroke: #8f8f8f; stroke-width: 0.2; stroke-linecap: square"/>
   </g>
   <g id="line2d_4">
    <path clip-path="url(#p4b620a4472)" style="fill: none; stroke: #8f8f8f; stroke-width: 0.2; stroke-linecap: square"/>
   </g>
   <g id="line2d_5">
    <path clip-path="url(#p4b620a4472)" style="fill: none; stroke: #8f8f8f; stroke-width: 0.2; stroke-linecap: square"/>
   </g>
   <g id="line2d_6">
    <path clip-path="url(#p4b620a4472)" style="fill: none; stroke: #8f8f8f; stroke-width: 0.2; stroke-linecap: square"/>
   </g>
   <g id="line2d_7">
    <path d="M 173.348347 81.155504 
L 179.041583 66.902373 
L 202.685812 66.853803 
L 190.679318 70.074846 
L 173.348347 81.155504 
" clip-path="url(#p4b620a4472)" style="fill: none; stroke: #8f8f8f; stroke-width: 0.2; stroke-linecap: square"/>
   </g>
   <g id="line2d_8">
    <path d="M 252.604262 53.568 
L 275.12686 66.549782 
L 329.993213 169.820549 
L 303.63801 193.870232 
L 267.741212 295.312222 
L 263.775032 292.694073 
L 257.922883 295.488 
L 248.268887 294.00843 
L 248.251784 291.081856 
L 238.401375 287.108017 
L 234.663082 281.485735 
L 236.388291 279.187401 
L 235.082963 277.69883 
L 230.574945 275.269068 
L 223.033863 276.867449 
L 222.578806 280.862223 
L 215.967858 284.996488 
L 203.192601 284.138584 
L 198.161996 278.988673 
L 195.861342 279.968545 
L 196.684519 282.552591 
L 192.658361 284.839758 
L 191.379745 273.451749 
L 182.335572 268.985473 
L 172.53812 270.197358 
L 174.413204 275.846169 
L 172.074646 279.233272 
L 167.251113 276.328363 
L 163.6356 276.944279 
L 161.515999 271.911181 
L 160.419301 269.292172 
L 150.163072 218.889731 
L 170.688849 205.79721 
L 173.071932 191.290326 
L 164.533192 179.288641 
L 156.539207 172.080018 
L 142.326787 182.373795 
L 150.376199 146.41032 
L 157.443561 114.728528 
L 188.896039 117.826161 
L 182.917065 80.569765 
L 214.023278 80.342271 
L 237.733204 88.542035 
L 243.138442 101.818122 
L 257.203071 96.036189 
L 246.284937 70.801029 
L 244.546139 68.110412 
L 237.783712 57.507185 
L 252.604262 53.568 
L 252.604262 53.568 
" clip-path="url(#p4b620a4472)" style="fill: none; stroke: #ffc380; stroke-width: 0.5; stroke-linecap: square"/>
   </g>
  </g>
 </g>
 <defs>
  <clipPath id="p4b620a4472">
   <rect x="132.943466" y="41.472" width="206.433069" height="266.112"/>
  </clipPath>
 </defs>
</svg>
