<?xml version="1.0" encoding="utf-8" standalone="no"?>
<!DOCTYPE svg PUBLIC "-//W3C//DTD SVG 1.1//EN"
  "http://www.w3.org/Graphics/SVG/1.1/DTD/svg11.dtd">
<svg xmlns:xlink="http://www.w3.org/1999/xlink" width="460.8pt" height="345.6pt" viewBox="0 0 460.8 345.6" xmlns="http://www.w3.org/2000/svg" version="1.1">
 <metadata>
  <rdf:RDF xmlns:dc="http://purl.org/dc/elements/1.1/" xmlns:cc="http://creativecommons.org/ns#" xmlns:rdf="http://www.w3.org/1999/02/22-rdf-syntax-ns#">
   <cc:Work>
    <dc:type rdf:resource="http://purl.org/dc/dcmitype/StillImage"/>
    <dc:date>2022-07-25T01:47:11.652837</dc:date>
    <dc:format>image/svg+xml</dc:format>
    <dc:creator>
     <cc:Agent>
      <dc:title>Matplotlib v3.5.0, https://matplotlib.org/</dc:title>
     </cc:Agent>
    </dc:creator>
   </cc:Work>
  </rdf:RDF>
 </metadata>
 <defs>
  <style type="text/css">*{stroke-linejoin: round; stroke-linecap: butt}</style>
 </defs>
 <g id="figure_1">
  <g id="patch_1">
   <path d="M 0 345.6 
L 460.8 345.6 
L 460.8 0 
L 0 0 
z
" style="fill: #ffffff"/>
  </g>
  <g id="axes_1">
   <g id="patch_2">
    <path d="M 278.318001 120.768 
L 278.435284 130.754726 
L 278.597544 144.582099 
L 280.183817 162.417815 
L 281.047825 172.148774 
L 281.738467 180.037824 
L 281.87056 181.419019 
L 276.233773 190.734239 
L 273.341652 195.528405 
L 270.595105 200.012104 
L 265.716807 208.139688 
L 260.61326 216.632892 
L 254.779457 222.760027 
L 251.41489 226.28474 
L 240.264194 227.079623 
L 223.938935 228.288 
L 220.450794 223.189882 
L 255.028591 202.971083 
L 236.584685 187.273697 
L 207.277239 204.035047 
L 195.391326 176.862854 
L 190.44944 165.499126 
L 241.371238 139.350833 
z
" clip-path="url(#p38d1854bef)" style="fill: #ffedd9; stroke: #ffedd9; stroke-linejoin: miter"/>
   </g>
   <g id="patch_3">
    <path d="M 236.584685 187.273697 
L 255.028591 202.971083 
L 220.450794 223.189882 
L 207.277239 204.035047 
z
" clip-path="url(#p38d1854bef)" style="fill: #ffedd9; stroke: #ffedd9; stroke-linejoin: miter"/>
   </g>
   <g id="patch_4">
    <path d="M 278.318001 120.768 
L 278.435284 130.754726 
L 278.597544 144.582099 
L 280.183817 162.417815 
L 281.047825 172.148774 
L 281.738467 180.037824 
L 281.87056 181.419019 
L 276.233773 190.734239 
L 273.341652 195.528405 
L 270.595105 200.012104 
L 265.716807 208.139688 
L 260.61326 216.632892 
L 254.779457 222.760027 
L 251.41489 226.28474 
L 240.264194 227.079623 
L 223.938935 228.288 
L 220.450794 223.189882 
L 255.028591 202.971083 
L 236.584685 187.273697 
L 207.277239 204.035047 
L 195.391326 176.862854 
L 190.44944 165.499126 
L 241.371238 139.350833 
L 278.318001 120.768 
z
" clip-path="url(#p38d1854bef)" style="fill: #ffedd9; stroke: #ffedd9; stroke-linejoin: miter"/>
   </g>
   <g id="patch_5">
    <path d="M 236.584685 187.273697 
L 255.028591 202.971083 
L 220.450794 223.189882 
L 207.277239 204.035047 
L 236.584685 187.273697 
z
" clip-path="url(#p38d1854bef)" style="fill: #ffedd9; stroke: #ffedd9; stroke-linejoin: miter"/>
   </g>
   <g id="line2d_1">
    <path d="M 278.318001 120.768 
L 278.435284 130.754726 
L 278.597544 144.582099 
L 280.183817 162.417815 
L 281.047825 172.148774 
L 281.738467 180.037824 
L 281.87056 181.419019 
L 276.233773 190.734239 
L 273.341652 195.528405 
L 270.595105 200.012104 
L 265.716807 208.139688 
L 260.61326 216.632892 
L 254.779457 222.760027 
L 251.41489 226.28474 
L 240.264194 227.079623 
L 223.938935 228.288 
L 220.450794 223.189882 
L 255.028591 202.971083 
L 236.584685 187.273697 
L 207.277239 204.035047 
L 195.391326 176.862854 
L 190.44944 165.499126 
L 241.371238 139.350833 
L 278.318001 120.768 
" clip-path="url(#p38d1854bef)" style="fill: none; stroke: #ffc380; stroke-width: 0.5; stroke-linecap: square"/>
   </g>
   <g id="line2d_2">
    <path d="M 236.584685 187.273697 
L 255.028591 202.971083 
L 220.450794 223.189882 
L 207.277239 204.035047 
L 236.584685 187.273697 
" clip-path="url(#p38d1854bef)" style="fill: none; stroke: #ffc380; stroke-width: 0.5; stroke-linecap: square"/>
   </g>
   <g id="line2d_3">
    <path d="M 108.909879 172.594572 
L 122.424031 162.603124 
L 124.957914 160.731249 
L 132.033637 155.492689 
L 136.734553 152.006006 
L 162.413038 133.027771 
L 164.694738 134.823001 
L 178.66509 145.783373 
L 183.385632 149.506355 
L 190.44944 165.499126 
L 195.391326 176.862854 
L 188.711805 177.718554 
L 181.189143 183.291355 
L 163.226415 196.216907 
L 160.158896 198.428059 
L 157.088793 200.632773 
L 148.112557 207.307745 
L 140.795818 197.368198 
L 132.999719 186.764104 
L 113.049463 201.480484 
L 96.97696 213.326309 
L 96.706193 203.576507 
L 108.909879 172.594572 
" clip-path="url(#p38d1854bef)" style="fill: none; stroke: #8f8f8f; stroke-width: 0.2; stroke-linecap: square"/>
   </g>
   <g id="line2d_4">
    <path d="M 207.277239 204.035047 
L 220.450794 223.189882 
L 223.938935 228.288 
L 228.575848 232.214279 
L 217.427247 237.138371 
L 221.738246 243.559196 
L 208.120694 251.904919 
L 199.597195 257.133621 
L 199.265231 257.34743 
L 189.650101 262.801482 
L 179.858004 268.328822 
L 181.627771 271.997914 
L 166.564773 272.052792 
L 143.038239 272.224852 
L 141.680261 268.91716 
L 139.458365 263.506517 
L 133.080837 248.041173 
L 156.299993 229.107553 
L 148.856942 220.684738 
L 157.015025 214.766631 
L 168.49828 206.380754 
L 174.422908 206.128313 
L 185.517778 205.628871 
L 202.936493 204.852798 
L 207.277239 204.035047 
" clip-path="url(#p38d1854bef)" style="fill: none; stroke: #8f8f8f; stroke-width: 0.2; stroke-linecap: square"/>
   </g>
   <g id="line2d_5">
    <path d="M 178.66509 145.783373 
L 183.385632 149.506355 
L 190.44944 165.499126 
L 195.391326 176.862854 
L 188.711805 177.718554 
L 181.189143 183.291355 
L 177.568064 177.517202 
L 173.841655 171.585758 
L 171.332319 161.29947 
L 178.66509 145.783373 
L 178.66509 145.783373 
" clip-path="url(#p38d1854bef)" style="fill: none; stroke: #8f8f8f; stroke-width: 0.2; stroke-linecap: square"/>
   </g>
   <g id="line2d_6">
    <path d="M 181.189143 183.291355 
L 188.711805 177.718554 
L 195.391326 176.862854 
L 207.277239 204.035047 
L 181.189143 183.291355 
" clip-path="url(#p38d1854bef)" style="fill: none; stroke: #8f8f8f; stroke-width: 0.2; stroke-linecap: square"/>
   </g>
   <g id="line2d_7">
    <path d="M 331.523613 85.369517 
L 334.425705 114.109221 
L 334.005969 119.805921 
L 333.745142 121.687045 
L 307.718441 144.218341 
L 292.338187 144.402305 
L 278.597544 144.582099 
L 278.435284 130.754726 
L 278.318001 120.768 
L 278.294535 118.770624 
L 269.483473 93.050303 
L 287.037927 92.289503 
L 331.523613 85.369517 
" clip-path="url(#p38d1854bef)" style="fill: none; stroke: #8f8f8f; stroke-width: 0.2; stroke-linecap: square"/>
   </g>
   <g id="line2d_8">
    <path d="M 333.745142 121.687045 
L 328.553893 180.633919 
L 323.985601 180.729547 
L 299.761269 181.168476 
L 281.87056 181.419019 
L 281.738467 180.037824 
L 281.047825 172.148774 
L 280.183817 162.417815 
L 278.597544 144.582099 
L 292.338187 144.402305 
L 307.718441 144.218341 
L 333.745142 121.687045 
" clip-path="url(#p38d1854bef)" style="fill: none; stroke: #8f8f8f; stroke-width: 0.2; stroke-linecap: square"/>
   </g>
   <g id="line2d_9">
    <path d="M 281.87056 181.419019 
L 299.761269 181.168476 
L 285.156585 190.596457 
L 275.58872 196.794771 
L 270.595105 200.012104 
L 273.341652 195.528405 
L 276.233773 190.734239 
L 281.87056 181.419019 
" clip-path="url(#p38d1854bef)" style="fill: none; stroke: #8f8f8f; stroke-width: 0.2; stroke-linecap: square"/>
   </g>
   <g id="line2d_10">
    <path d="M 333.745142 121.687045 
L 328.553893 180.633919 
L 323.985601 180.729547 
L 299.761269 181.168476 
L 281.87056 181.419019 
L 281.738467 180.037824 
L 281.047825 172.148774 
L 292.338187 144.402305 
L 307.718441 144.218341 
L 333.745142 121.687045 
" clip-path="url(#p38d1854bef)" style="fill: none; stroke: #8f8f8f; stroke-width: 0.2; stroke-linecap: square"/>
   </g>
   <g id="line2d_11">
    <path d="M 292.338187 144.402305 
L 281.047825 172.148774 
L 280.183817 162.417815 
L 278.597544 144.582099 
L 292.338187 144.402305 
" clip-path="url(#p38d1854bef)" style="fill: none; stroke: #8f8f8f; stroke-width: 0.2; stroke-linecap: square"/>
   </g>
   <g id="line2d_12">
    <path d="M 297.125536 199.801155 
L 295.503879 234.917777 
L 293.980007 268.064031 
L 293.530312 277.657164 
L 282.228139 281.185007 
L 271.086488 284.594528 
L 269.542817 278.833398 
L 254.370646 250.998645 
L 244.065106 232.132231 
L 240.264194 227.079623 
L 251.41489 226.28474 
L 254.779457 222.760027 
L 260.61326 216.632892 
L 265.716807 208.139688 
L 270.595105 200.012104 
L 273.341652 195.528405 
L 281.249422 199.9252 
L 297.125536 199.801155 
" clip-path="url(#p38d1854bef)" style="fill: none; stroke: #8f8f8f; stroke-width: 0.2; stroke-linecap: square"/>
   </g>
   <g id="line2d_13">
    <path d="M 299.761269 181.168476 
L 298.359667 191.116379 
L 297.125536 199.801155 
L 295.503879 234.917777 
L 293.980007 268.064031 
L 293.530312 277.657164 
L 282.228139 281.185007 
L 271.086488 284.594528 
L 269.542817 278.833398 
L 254.370646 250.998645 
L 244.065106 232.132231 
L 240.264194 227.079623 
L 251.41489 226.28474 
L 254.779457 222.760027 
L 260.61326 216.632892 
L 265.716807 208.139688 
L 270.595105 200.012104 
L 275.58872 196.794771 
L 285.156585 190.596457 
L 299.761269 181.168476 
" clip-path="url(#p38d1854bef)" style="fill: none; stroke: #8f8f8f; stroke-width: 0.2; stroke-linecap: square"/>
   </g>
   <g id="line2d_14">
    <path d="M 299.761269 181.168476 
L 298.359667 191.116379 
L 297.125536 199.801155 
L 281.249422 199.9252 
L 273.341652 195.528405 
L 276.233773 190.734239 
L 281.87056 181.419019 
L 299.761269 181.168476 
" clip-path="url(#p38d1854bef)" style="fill: none; stroke: #8f8f8f; stroke-width: 0.2; stroke-linecap: square"/>
   </g>
   <g id="line2d_15">
    <path d="M 169.439964 80.455427 
L 186.930192 79.093121 
L 219.134838 76.707744 
L 219.134838 95.147691 
L 258.941227 93.483398 
L 269.483473 93.050303 
L 278.294535 118.770624 
L 278.318001 120.768 
L 241.371238 139.350833 
L 205.203425 130.86849 
L 178.66509 145.783373 
L 164.694738 134.823001 
L 162.413038 133.027771 
L 148.692008 122.805262 
L 158.34225 111.098495 
L 169.439964 80.455427 
" clip-path="url(#p38d1854bef)" style="fill: none; stroke: #8f8f8f; stroke-width: 0.2; stroke-linecap: square"/>
   </g>
   <g id="line2d_16">
    <path d="M 178.66509 145.783373 
L 205.203425 130.86849 
L 241.371238 139.350833 
L 190.44944 165.499126 
L 183.385632 149.506355 
L 178.66509 145.783373 
" clip-path="url(#p38d1854bef)" style="fill: none; stroke: #8f8f8f; stroke-width: 0.2; stroke-linecap: square"/>
   </g>
   <g id="line2d_17">
    <path d="M 278.318001 120.768 
L 278.435284 130.754726 
L 278.597544 144.582099 
L 280.183817 162.417815 
L 281.047825 172.148774 
L 281.738467 180.037824 
L 281.87056 181.419019 
L 276.233773 190.734239 
L 273.341652 195.528405 
L 270.595105 200.012104 
L 265.716807 208.139688 
L 260.61326 216.632892 
L 254.779457 222.760027 
L 251.41489 226.28474 
L 240.264194 227.079623 
L 228.575848 232.214279 
L 223.938935 228.288 
L 220.450794 223.189882 
L 255.028591 202.971083 
L 236.584685 187.273697 
L 207.277239 204.035047 
L 195.391326 176.862854 
L 190.44944 165.499126 
L 241.371238 139.350833 
L 278.318001 120.768 
" clip-path="url(#p38d1854bef)" style="fill: none; stroke: #8f8f8f; stroke-width: 0.2; stroke-linecap: square"/>
   </g>
   <g id="line2d_18">
    <path d="M 236.584685 187.273697 
L 255.028591 202.971083 
L 220.450794 223.189882 
L 207.277239 204.035047 
L 236.584685 187.273697 
" clip-path="url(#p38d1854bef)" style="fill: none; stroke: #8f8f8f; stroke-width: 0.2; stroke-linecap: square"/>
   </g>
   <g id="line2d_19">
    <path d="M 240.264194 227.079623 
L 228.575848 232.214279 
L 223.938935 228.288 
L 240.264194 227.079623 
" clip-path="url(#p38d1854bef)" style="fill: none; stroke: #8f8f8f; stroke-width: 0.2; stroke-linecap: square"/>
   </g>
   <g id="line2d_20">
    <path d="M 207.277239 204.035047 
L 220.450794 223.189882 
L 223.938935 228.288 
L 228.575848 232.214279 
L 217.427247 237.138371 
L 221.738246 243.559196 
L 208.120694 251.904919 
L 187.854457 211.512152 
L 174.422908 206.128313 
L 185.517778 205.628871 
L 202.936493 204.852798 
L 207.277239 204.035047 
" clip-path="url(#p38d1854bef)" style="fill: none; stroke: #8f8f8f; stroke-width: 0.2; stroke-linecap: square"/>
   </g>
   <g id="line2d_21">
    <path d="M 278.318001 120.768 
L 278.435284 130.754726 
L 278.597544 144.582099 
L 280.183817 162.417815 
L 281.047825 172.148774 
L 281.738467 180.037824 
L 281.87056 181.419019 
L 276.233773 190.734239 
L 273.341652 195.528405 
L 270.595105 200.012104 
L 265.716807 208.139688 
L 260.61326 216.632892 
L 254.779457 222.760027 
L 251.41489 226.28474 
L 240.264194 227.079623 
L 223.938935 228.288 
L 220.450794 223.189882 
L 255.028591 202.971083 
L 236.584685 187.273697 
L 207.277239 204.035047 
L 195.391326 176.862854 
L 190.44944 165.499126 
L 241.371238 139.350833 
L 278.318001 120.768 
L 278.318001 120.768 
" clip-path="url(#p38d1854bef)" style="fill: none; stroke: #ffc380; stroke-width: 0.5; stroke-linecap: square"/>
   </g>
   <g id="line2d_22">
    <path d="M 236.584685 187.273697 
L 255.028591 202.971083 
L 220.450794 223.189882 
L 207.277239 204.035047 
L 236.584685 187.273697 
L 236.584685 187.273697 
" clip-path="url(#p38d1854bef)" style="fill: none; stroke: #ffc380; stroke-width: 0.5; stroke-linecap: square"/>
   </g>
   <g id="text_1">
    <!-- BOT7 -->
    <g style="opacity: 0.5" transform="translate(138.224117 168.291185)scale(0.0579 -0.0579)">
     <defs>
      <path id="DejaVuSans-42" d="M 1259 2228 
L 1259 519 
L 2272 519 
Q 2781 519 3026 730 
Q 3272 941 3272 1375 
Q 3272 1813 3026 2020 
Q 2781 2228 2272 2228 
L 1259 2228 
z
M 1259 4147 
L 1259 2741 
L 2194 2741 
Q 2656 2741 2882 2914 
Q 3109 3088 3109 3444 
Q 3109 3797 2882 3972 
Q 2656 4147 2194 4147 
L 1259 4147 
z
M 628 4666 
L 2241 4666 
Q 2963 4666 3353 4366 
Q 3744 4066 3744 3513 
Q 3744 3084 3544 2831 
Q 3344 2578 2956 2516 
Q 3422 2416 3680 2098 
Q 3938 1781 3938 1306 
Q 3938 681 3513 340 
Q 3088 0 2303 0 
L 628 0 
L 628 4666 
z
" transform="scale(0.015625)"/>
      <path id="DejaVuSans-4f" d="M 2522 4238 
Q 1834 4238 1429 3725 
Q 1025 3213 1025 2328 
Q 1025 1447 1429 934 
Q 1834 422 2522 422 
Q 3209 422 3611 934 
Q 4013 1447 4013 2328 
Q 4013 3213 3611 3725 
Q 3209 4238 2522 4238 
z
M 2522 4750 
Q 3503 4750 4090 4092 
Q 4678 3434 4678 2328 
Q 4678 1225 4090 567 
Q 3503 -91 2522 -91 
Q 1538 -91 948 565 
Q 359 1222 359 2328 
Q 359 3434 948 4092 
Q 1538 4750 2522 4750 
z
" transform="scale(0.015625)"/>
      <path id="DejaVuSans-54" d="M -19 4666 
L 3928 4666 
L 3928 4134 
L 2272 4134 
L 2272 0 
L 1638 0 
L 1638 4134 
L -19 4134 
L -19 4666 
z
" transform="scale(0.015625)"/>
      <path id="DejaVuSans-37" d="M 525 4666 
L 3525 4666 
L 3525 4397 
L 1831 0 
L 1172 0 
L 2766 4134 
L 525 4134 
L 525 4666 
z
" transform="scale(0.015625)"/>
     </defs>
     <use xlink:href="#DejaVuSans-42"/>
     <use xlink:href="#DejaVuSans-4f" x="66.853516"/>
     <use xlink:href="#DejaVuSans-54" x="145.564453"/>
     <use xlink:href="#DejaVuSans-37" x="206.648438"/>
    </g>
    <!-- 245 -->
    <g style="opacity: 0.5" transform="translate(140.522928 174.774718)scale(0.0579 -0.0579)">
     <defs>
      <path id="DejaVuSans-32" d="M 1228 531 
L 3431 531 
L 3431 0 
L 469 0 
L 469 531 
Q 828 903 1448 1529 
Q 2069 2156 2228 2338 
Q 2531 2678 2651 2914 
Q 2772 3150 2772 3378 
Q 2772 3750 2511 3984 
Q 2250 4219 1831 4219 
Q 1534 4219 1204 4116 
Q 875 4013 500 3803 
L 500 4441 
Q 881 4594 1212 4672 
Q 1544 4750 1819 4750 
Q 2544 4750 2975 4387 
Q 3406 4025 3406 3419 
Q 3406 3131 3298 2873 
Q 3191 2616 2906 2266 
Q 2828 2175 2409 1742 
Q 1991 1309 1228 531 
z
" transform="scale(0.015625)"/>
      <path id="DejaVuSans-34" d="M 2419 4116 
L 825 1625 
L 2419 1625 
L 2419 4116 
z
M 2253 4666 
L 3047 4666 
L 3047 1625 
L 3713 1625 
L 3713 1100 
L 3047 1100 
L 3047 0 
L 2419 0 
L 2419 1100 
L 313 1100 
L 313 1709 
L 2253 4666 
z
" transform="scale(0.015625)"/>
      <path id="DejaVuSans-35" d="M 691 4666 
L 3169 4666 
L 3169 4134 
L 1269 4134 
L 1269 2991 
Q 1406 3038 1543 3061 
Q 1681 3084 1819 3084 
Q 2600 3084 3056 2656 
Q 3513 2228 3513 1497 
Q 3513 744 3044 326 
Q 2575 -91 1722 -91 
Q 1428 -91 1123 -41 
Q 819 9 494 109 
L 494 744 
Q 775 591 1075 516 
Q 1375 441 1709 441 
Q 2250 441 2565 725 
Q 2881 1009 2881 1497 
Q 2881 1984 2565 2268 
Q 2250 2553 1709 2553 
Q 1456 2553 1204 2497 
Q 953 2441 691 2322 
L 691 4666 
z
" transform="scale(0.015625)"/>
     </defs>
     <use xlink:href="#DejaVuSans-32"/>
     <use xlink:href="#DejaVuSans-34" x="63.623047"/>
     <use xlink:href="#DejaVuSans-35" x="127.246094"/>
    </g>
    <!-- 155 -->
    <g style="opacity: 0.5" transform="translate(140.522928 181.258252)scale(0.0579 -0.0579)">
     <defs>
      <path id="DejaVuSans-31" d="M 794 531 
L 1825 531 
L 1825 4091 
L 703 3866 
L 703 4441 
L 1819 4666 
L 2450 4666 
L 2450 531 
L 3481 531 
L 3481 0 
L 794 0 
L 794 531 
z
" transform="scale(0.015625)"/>
     </defs>
     <use xlink:href="#DejaVuSans-31"/>
     <use xlink:href="#DejaVuSans-35" x="63.623047"/>
     <use xlink:href="#DejaVuSans-35" x="127.246094"/>
    </g>
   </g>
   <g id="text_2">
    <!-- DKA1 -->
    <g style="opacity: 0.5" transform="translate(172.929063 233.244094)scale(0.0579 -0.0579)">
     <defs>
      <path id="DejaVuSans-44" d="M 1259 4147 
L 1259 519 
L 2022 519 
Q 2988 519 3436 956 
Q 3884 1394 3884 2338 
Q 3884 3275 3436 3711 
Q 2988 4147 2022 4147 
L 1259 4147 
z
M 628 4666 
L 1925 4666 
Q 3281 4666 3915 4102 
Q 4550 3538 4550 2338 
Q 4550 1131 3912 565 
Q 3275 0 1925 0 
L 628 0 
L 628 4666 
z
" transform="scale(0.015625)"/>
      <path id="DejaVuSans-4b" d="M 628 4666 
L 1259 4666 
L 1259 2694 
L 3353 4666 
L 4166 4666 
L 1850 2491 
L 4331 0 
L 3500 0 
L 1259 2247 
L 1259 0 
L 628 0 
L 628 4666 
z
" transform="scale(0.015625)"/>
      <path id="DejaVuSans-41" d="M 2188 4044 
L 1331 1722 
L 3047 1722 
L 2188 4044 
z
M 1831 4666 
L 2547 4666 
L 4325 0 
L 3669 0 
L 3244 1197 
L 1141 1197 
L 716 0 
L 50 0 
L 1831 4666 
z
" transform="scale(0.015625)"/>
     </defs>
     <use xlink:href="#DejaVuSans-44"/>
     <use xlink:href="#DejaVuSans-4b" x="77.001953"/>
     <use xlink:href="#DejaVuSans-41" x="140.828125"/>
     <use xlink:href="#DejaVuSans-31" x="209.236328"/>
    </g>
    <!-- 145 -->
    <g style="opacity: 0.5" transform="translate(175.302511 239.727628)scale(0.0579 -0.0579)">
     <use xlink:href="#DejaVuSans-31"/>
     <use xlink:href="#DejaVuSans-34" x="63.623047"/>
     <use xlink:href="#DejaVuSans-35" x="127.246094"/>
    </g>
    <!-- GND -->
    <g style="opacity: 0.5" transform="translate(174.190198 246.211161)scale(0.0579 -0.0579)">
     <defs>
      <path id="DejaVuSans-47" d="M 3809 666 
L 3809 1919 
L 2778 1919 
L 2778 2438 
L 4434 2438 
L 4434 434 
Q 4069 175 3628 42 
Q 3188 -91 2688 -91 
Q 1594 -91 976 548 
Q 359 1188 359 2328 
Q 359 3472 976 4111 
Q 1594 4750 2688 4750 
Q 3144 4750 3555 4637 
Q 3966 4525 4313 4306 
L 4313 3634 
Q 3963 3931 3569 4081 
Q 3175 4231 2741 4231 
Q 1884 4231 1454 3753 
Q 1025 3275 1025 2328 
Q 1025 1384 1454 906 
Q 1884 428 2741 428 
Q 3075 428 3337 486 
Q 3600 544 3809 666 
z
" transform="scale(0.015625)"/>
      <path id="DejaVuSans-4e" d="M 628 4666 
L 1478 4666 
L 3547 763 
L 3547 4666 
L 4159 4666 
L 4159 0 
L 3309 0 
L 1241 3903 
L 1241 0 
L 628 0 
L 628 4666 
z
" transform="scale(0.015625)"/>
     </defs>
     <use xlink:href="#DejaVuSans-47"/>
     <use xlink:href="#DejaVuSans-4e" x="77.490234"/>
     <use xlink:href="#DejaVuSans-44" x="152.294922"/>
    </g>
   </g>
   <g id="text_3">
    <!-- DUS3 -->
    <g style="opacity: 0.5" transform="translate(175.334078 159.651508)scale(0.0579 -0.0579)">
     <defs>
      <path id="DejaVuSans-55" d="M 556 4666 
L 1191 4666 
L 1191 1831 
Q 1191 1081 1462 751 
Q 1734 422 2344 422 
Q 2950 422 3222 751 
Q 3494 1081 3494 1831 
L 3494 4666 
L 4128 4666 
L 4128 1753 
Q 4128 841 3676 375 
Q 3225 -91 2344 -91 
Q 1459 -91 1007 375 
Q 556 841 556 1753 
L 556 4666 
z
" transform="scale(0.015625)"/>
      <path id="DejaVuSans-53" d="M 3425 4513 
L 3425 3897 
Q 3066 4069 2747 4153 
Q 2428 4238 2131 4238 
Q 1616 4238 1336 4038 
Q 1056 3838 1056 3469 
Q 1056 3159 1242 3001 
Q 1428 2844 1947 2747 
L 2328 2669 
Q 3034 2534 3370 2195 
Q 3706 1856 3706 1288 
Q 3706 609 3251 259 
Q 2797 -91 1919 -91 
Q 1588 -91 1214 -16 
Q 841 59 441 206 
L 441 856 
Q 825 641 1194 531 
Q 1563 422 1919 422 
Q 2459 422 2753 634 
Q 3047 847 3047 1241 
Q 3047 1584 2836 1778 
Q 2625 1972 2144 2069 
L 1759 2144 
Q 1053 2284 737 2584 
Q 422 2884 422 3419 
Q 422 4038 858 4394 
Q 1294 4750 2059 4750 
Q 2388 4750 2728 4690 
Q 3069 4631 3425 4513 
z
" transform="scale(0.015625)"/>
      <path id="DejaVuSans-33" d="M 2597 2516 
Q 3050 2419 3304 2112 
Q 3559 1806 3559 1356 
Q 3559 666 3084 287 
Q 2609 -91 1734 -91 
Q 1441 -91 1130 -33 
Q 819 25 488 141 
L 488 750 
Q 750 597 1062 519 
Q 1375 441 1716 441 
Q 2309 441 2620 675 
Q 2931 909 2931 1356 
Q 2931 1769 2642 2001 
Q 2353 2234 1838 2234 
L 1294 2234 
L 1294 2753 
L 1863 2753 
Q 2328 2753 2575 2939 
Q 2822 3125 2822 3475 
Q 2822 3834 2567 4026 
Q 2313 4219 1838 4219 
Q 1578 4219 1281 4162 
Q 984 4106 628 3988 
L 628 4550 
Q 988 4650 1302 4700 
Q 1616 4750 1894 4750 
Q 2613 4750 3031 4423 
Q 3450 4097 3450 3541 
Q 3450 3153 3228 2886 
Q 3006 2619 2597 2516 
z
" transform="scale(0.015625)"/>
     </defs>
     <use xlink:href="#DejaVuSans-44"/>
     <use xlink:href="#DejaVuSans-55" x="77.001953"/>
     <use xlink:href="#DejaVuSans-53" x="150.195312"/>
     <use xlink:href="#DejaVuSans-33" x="213.671875"/>
    </g>
    <!-- 155 -->
    <g style="opacity: 0.5" transform="translate(177.835991 166.135042)scale(0.0579 -0.0579)">
     <use xlink:href="#DejaVuSans-31"/>
     <use xlink:href="#DejaVuSans-35" x="63.623047"/>
     <use xlink:href="#DejaVuSans-35" x="127.246094"/>
    </g>
    <!-- 65 -->
    <g style="opacity: 0.5" transform="translate(179.677935 172.618575)scale(0.0579 -0.0579)">
     <defs>
      <path id="DejaVuSans-36" d="M 2113 2584 
Q 1688 2584 1439 2293 
Q 1191 2003 1191 1497 
Q 1191 994 1439 701 
Q 1688 409 2113 409 
Q 2538 409 2786 701 
Q 3034 994 3034 1497 
Q 3034 2003 2786 2293 
Q 2538 2584 2113 2584 
z
M 3366 4563 
L 3366 3988 
Q 3128 4100 2886 4159 
Q 2644 4219 2406 4219 
Q 1781 4219 1451 3797 
Q 1122 3375 1075 2522 
Q 1259 2794 1537 2939 
Q 1816 3084 2150 3084 
Q 2853 3084 3261 2657 
Q 3669 2231 3669 1497 
Q 3669 778 3244 343 
Q 2819 -91 2113 -91 
Q 1303 -91 875 529 
Q 447 1150 447 2328 
Q 447 3434 972 4092 
Q 1497 4750 2381 4750 
Q 2619 4750 2861 4703 
Q 3103 4656 3366 4563 
z
" transform="scale(0.015625)"/>
     </defs>
     <use xlink:href="#DejaVuSans-36"/>
     <use xlink:href="#DejaVuSans-35" x="63.623047"/>
    </g>
   </g>
   <g id="text_4">
    <!-- DUS4 -->
    <g style="opacity: 0.5" transform="translate(186.205447 185.563095)scale(0.0579 -0.0579)">
     <use xlink:href="#DejaVuSans-44"/>
     <use xlink:href="#DejaVuSans-55" x="77.001953"/>
     <use xlink:href="#DejaVuSans-53" x="150.195312"/>
     <use xlink:href="#DejaVuSans-34" x="213.671875"/>
    </g>
    <!-- 245 -->
    <g style="opacity: 0.5" transform="translate(188.70736 192.046628)scale(0.0579 -0.0579)">
     <use xlink:href="#DejaVuSans-32"/>
     <use xlink:href="#DejaVuSans-34" x="63.623047"/>
     <use xlink:href="#DejaVuSans-35" x="127.246094"/>
    </g>
    <!-- 65 -->
    <g style="opacity: 0.5" transform="translate(190.549304 198.530162)scale(0.0579 -0.0579)">
     <use xlink:href="#DejaVuSans-36"/>
     <use xlink:href="#DejaVuSans-35" x="63.623047"/>
    </g>
   </g>
   <g id="text_5">
    <!-- EDWWDST2 -->
    <g style="opacity: 0.5" transform="translate(284.49412 110.089953)scale(0.0579 -0.0579)">
     <defs>
      <path id="DejaVuSans-45" d="M 628 4666 
L 3578 4666 
L 3578 4134 
L 1259 4134 
L 1259 2753 
L 3481 2753 
L 3481 2222 
L 1259 2222 
L 1259 531 
L 3634 531 
L 3634 0 
L 628 0 
L 628 4666 
z
" transform="scale(0.015625)"/>
      <path id="DejaVuSans-57" d="M 213 4666 
L 850 4666 
L 1831 722 
L 2809 4666 
L 3519 4666 
L 4500 722 
L 5478 4666 
L 6119 4666 
L 4947 0 
L 4153 0 
L 3169 4050 
L 2175 0 
L 1381 0 
L 213 4666 
z
" transform="scale(0.015625)"/>
     </defs>
     <use xlink:href="#DejaVuSans-45"/>
     <use xlink:href="#DejaVuSans-44" x="63.183594"/>
     <use xlink:href="#DejaVuSans-57" x="140.185547"/>
     <use xlink:href="#DejaVuSans-57" x="239.0625"/>
     <use xlink:href="#DejaVuSans-44" x="337.939453"/>
     <use xlink:href="#DejaVuSans-53" x="414.941406"/>
     <use xlink:href="#DejaVuSans-54" x="478.417969"/>
     <use xlink:href="#DejaVuSans-32" x="539.501953"/>
    </g>
    <!-- 245 -->
    <g style="opacity: 0.5" transform="translate(296.428757 116.573487)scale(0.0579 -0.0579)">
     <use xlink:href="#DejaVuSans-32"/>
     <use xlink:href="#DejaVuSans-34" x="63.623047"/>
     <use xlink:href="#DejaVuSans-35" x="127.246094"/>
    </g>
    <!-- 105 -->
    <g style="opacity: 0.5" transform="translate(296.428757 123.05702)scale(0.0579 -0.0579)">
     <defs>
      <path id="DejaVuSans-30" d="M 2034 4250 
Q 1547 4250 1301 3770 
Q 1056 3291 1056 2328 
Q 1056 1369 1301 889 
Q 1547 409 2034 409 
Q 2525 409 2770 889 
Q 3016 1369 3016 2328 
Q 3016 3291 2770 3770 
Q 2525 4250 2034 4250 
z
M 2034 4750 
Q 2819 4750 3233 4129 
Q 3647 3509 3647 2328 
Q 3647 1150 3233 529 
Q 2819 -91 2034 -91 
Q 1250 -91 836 529 
Q 422 1150 422 2328 
Q 422 3509 836 4129 
Q 1250 4750 2034 4750 
z
" transform="scale(0.015625)"/>
     </defs>
     <use xlink:href="#DejaVuSans-31"/>
     <use xlink:href="#DejaVuSans-30" x="63.623047"/>
     <use xlink:href="#DejaVuSans-35" x="127.246094"/>
    </g>
   </g>
   <g id="text_6">
    <!-- EDWWDST3 -->
    <g style="opacity: 0.5" transform="translate(288.710874 146.667177)scale(0.0579 -0.0579)">
     <use xlink:href="#DejaVuSans-45"/>
     <use xlink:href="#DejaVuSans-44" x="63.183594"/>
     <use xlink:href="#DejaVuSans-57" x="140.185547"/>
     <use xlink:href="#DejaVuSans-57" x="239.0625"/>
     <use xlink:href="#DejaVuSans-44" x="337.939453"/>
     <use xlink:href="#DejaVuSans-53" x="414.941406"/>
     <use xlink:href="#DejaVuSans-54" x="478.417969"/>
     <use xlink:href="#DejaVuSans-33" x="539.501953"/>
    </g>
    <!-- 245 -->
    <g style="opacity: 0.5" transform="translate(300.645511 153.15071)scale(0.0579 -0.0579)">
     <use xlink:href="#DejaVuSans-32"/>
     <use xlink:href="#DejaVuSans-34" x="63.623047"/>
     <use xlink:href="#DejaVuSans-35" x="127.246094"/>
    </g>
    <!-- 155 -->
    <g style="opacity: 0.5" transform="translate(300.645511 159.634244)scale(0.0579 -0.0579)">
     <use xlink:href="#DejaVuSans-31"/>
     <use xlink:href="#DejaVuSans-35" x="63.623047"/>
     <use xlink:href="#DejaVuSans-35" x="127.246094"/>
    </g>
   </g>
   <g id="text_7">
    <!-- EDWWDST4 -->
    <g style="opacity: 0.5" transform="translate(267.717718 185.704434)scale(0.0579 -0.0579)">
     <use xlink:href="#DejaVuSans-45"/>
     <use xlink:href="#DejaVuSans-44" x="63.183594"/>
     <use xlink:href="#DejaVuSans-57" x="140.185547"/>
     <use xlink:href="#DejaVuSans-57" x="239.0625"/>
     <use xlink:href="#DejaVuSans-44" x="337.939453"/>
     <use xlink:href="#DejaVuSans-53" x="414.941406"/>
     <use xlink:href="#DejaVuSans-54" x="478.417969"/>
     <use xlink:href="#DejaVuSans-34" x="539.501953"/>
    </g>
    <!-- 245 -->
    <g style="opacity: 0.5" transform="translate(279.652356 192.187968)scale(0.0579 -0.0579)">
     <use xlink:href="#DejaVuSans-32"/>
     <use xlink:href="#DejaVuSans-34" x="63.623047"/>
     <use xlink:href="#DejaVuSans-35" x="127.246094"/>
    </g>
    <!-- 205 -->
    <g style="opacity: 0.5" transform="translate(279.652356 198.671501)scale(0.0579 -0.0579)">
     <use xlink:href="#DejaVuSans-32"/>
     <use xlink:href="#DejaVuSans-30" x="63.623047"/>
     <use xlink:href="#DejaVuSans-35" x="127.246094"/>
    </g>
   </g>
   <g id="text_8">
    <!-- EDWWHRZ6 -->
    <g style="opacity: 0.5" transform="translate(289.599471 146.667177)scale(0.0579 -0.0579)">
     <defs>
      <path id="DejaVuSans-48" d="M 628 4666 
L 1259 4666 
L 1259 2753 
L 3553 2753 
L 3553 4666 
L 4184 4666 
L 4184 0 
L 3553 0 
L 3553 2222 
L 1259 2222 
L 1259 0 
L 628 0 
L 628 4666 
z
" transform="scale(0.015625)"/>
      <path id="DejaVuSans-52" d="M 2841 2188 
Q 3044 2119 3236 1894 
Q 3428 1669 3622 1275 
L 4263 0 
L 3584 0 
L 2988 1197 
Q 2756 1666 2539 1819 
Q 2322 1972 1947 1972 
L 1259 1972 
L 1259 0 
L 628 0 
L 628 4666 
L 2053 4666 
Q 2853 4666 3247 4331 
Q 3641 3997 3641 3322 
Q 3641 2881 3436 2590 
Q 3231 2300 2841 2188 
z
M 1259 4147 
L 1259 2491 
L 2053 2491 
Q 2509 2491 2742 2702 
Q 2975 2913 2975 3322 
Q 2975 3731 2742 3939 
Q 2509 4147 2053 4147 
L 1259 4147 
z
" transform="scale(0.015625)"/>
      <path id="DejaVuSans-5a" d="M 359 4666 
L 4025 4666 
L 4025 4184 
L 1075 531 
L 4097 531 
L 4097 0 
L 288 0 
L 288 481 
L 3238 4134 
L 359 4134 
L 359 4666 
z
" transform="scale(0.015625)"/>
     </defs>
     <use xlink:href="#DejaVuSans-45"/>
     <use xlink:href="#DejaVuSans-44" x="63.183594"/>
     <use xlink:href="#DejaVuSans-57" x="140.185547"/>
     <use xlink:href="#DejaVuSans-57" x="239.0625"/>
     <use xlink:href="#DejaVuSans-48" x="337.939453"/>
     <use xlink:href="#DejaVuSans-52" x="413.134766"/>
     <use xlink:href="#DejaVuSans-5a" x="482.617188"/>
     <use xlink:href="#DejaVuSans-36" x="551.123047"/>
    </g>
    <!-- 155 -->
    <g style="opacity: 0.5" transform="translate(301.870652 153.15071)scale(0.0579 -0.0579)">
     <use xlink:href="#DejaVuSans-31"/>
     <use xlink:href="#DejaVuSans-35" x="63.623047"/>
     <use xlink:href="#DejaVuSans-35" x="127.246094"/>
    </g>
    <!-- GND -->
    <g style="opacity: 0.5" transform="translate(300.758339 159.634244)scale(0.0579 -0.0579)">
     <use xlink:href="#DejaVuSans-47"/>
     <use xlink:href="#DejaVuSans-4e" x="77.490234"/>
     <use xlink:href="#DejaVuSans-44" x="152.294922"/>
    </g>
   </g>
   <g id="text_9">
    <!-- EDWWHRZ8 -->
    <g style="opacity: 0.5" transform="translate(267.670853 153.389684)scale(0.0579 -0.0579)">
     <defs>
      <path id="DejaVuSans-38" d="M 2034 2216 
Q 1584 2216 1326 1975 
Q 1069 1734 1069 1313 
Q 1069 891 1326 650 
Q 1584 409 2034 409 
Q 2484 409 2743 651 
Q 3003 894 3003 1313 
Q 3003 1734 2745 1975 
Q 2488 2216 2034 2216 
z
M 1403 2484 
Q 997 2584 770 2862 
Q 544 3141 544 3541 
Q 544 4100 942 4425 
Q 1341 4750 2034 4750 
Q 2731 4750 3128 4425 
Q 3525 4100 3525 3541 
Q 3525 3141 3298 2862 
Q 3072 2584 2669 2484 
Q 3125 2378 3379 2068 
Q 3634 1759 3634 1313 
Q 3634 634 3220 271 
Q 2806 -91 2034 -91 
Q 1263 -91 848 271 
Q 434 634 434 1313 
Q 434 1759 690 2068 
Q 947 2378 1403 2484 
z
M 1172 3481 
Q 1172 3119 1398 2916 
Q 1625 2713 2034 2713 
Q 2441 2713 2670 2916 
Q 2900 3119 2900 3481 
Q 2900 3844 2670 4047 
Q 2441 4250 2034 4250 
Q 1625 4250 1398 4047 
Q 1172 3844 1172 3481 
z
" transform="scale(0.015625)"/>
     </defs>
     <use xlink:href="#DejaVuSans-45"/>
     <use xlink:href="#DejaVuSans-44" x="63.183594"/>
     <use xlink:href="#DejaVuSans-57" x="140.185547"/>
     <use xlink:href="#DejaVuSans-57" x="239.0625"/>
     <use xlink:href="#DejaVuSans-48" x="337.939453"/>
     <use xlink:href="#DejaVuSans-52" x="413.134766"/>
     <use xlink:href="#DejaVuSans-5a" x="482.617188"/>
     <use xlink:href="#DejaVuSans-38" x="551.123047"/>
    </g>
    <!-- 155 -->
    <g style="opacity: 0.5" transform="translate(279.942034 159.873218)scale(0.0579 -0.0579)">
     <use xlink:href="#DejaVuSans-31"/>
     <use xlink:href="#DejaVuSans-35" x="63.623047"/>
     <use xlink:href="#DejaVuSans-35" x="127.246094"/>
    </g>
    <!-- 75 -->
    <g style="opacity: 0.5" transform="translate(281.783978 166.356751)scale(0.0579 -0.0579)">
     <use xlink:href="#DejaVuSans-37"/>
     <use xlink:href="#DejaVuSans-35" x="63.623047"/>
    </g>
   </g>
   <g id="text_10">
    <!-- GIN1 -->
    <g style="opacity: 0.5" transform="translate(261.589902 235.175611)scale(0.0579 -0.0579)">
     <defs>
      <path id="DejaVuSans-49" d="M 628 4666 
L 1259 4666 
L 1259 0 
L 628 0 
L 628 4666 
z
" transform="scale(0.015625)"/>
     </defs>
     <use xlink:href="#DejaVuSans-47"/>
     <use xlink:href="#DejaVuSans-49" x="77.490234"/>
     <use xlink:href="#DejaVuSans-4e" x="106.982422"/>
     <use xlink:href="#DejaVuSans-31" x="181.787109"/>
    </g>
    <!-- 205 -->
    <g style="opacity: 0.5" transform="translate(263.169034 241.659145)scale(0.0579 -0.0579)">
     <use xlink:href="#DejaVuSans-32"/>
     <use xlink:href="#DejaVuSans-30" x="63.623047"/>
     <use xlink:href="#DejaVuSans-35" x="127.246094"/>
    </g>
    <!-- GND -->
    <g style="opacity: 0.5" transform="translate(262.05672 248.142678)scale(0.0579 -0.0579)">
     <use xlink:href="#DejaVuSans-47"/>
     <use xlink:href="#DejaVuSans-4e" x="77.490234"/>
     <use xlink:href="#DejaVuSans-44" x="152.294922"/>
    </g>
   </g>
   <g id="text_11">
    <!-- GIN3 -->
    <g style="opacity: 0.5" transform="translate(262.907768 227.995646)scale(0.0579 -0.0579)">
     <use xlink:href="#DejaVuSans-47"/>
     <use xlink:href="#DejaVuSans-49" x="77.490234"/>
     <use xlink:href="#DejaVuSans-4e" x="106.982422"/>
     <use xlink:href="#DejaVuSans-33" x="181.787109"/>
    </g>
    <!-- 245 -->
    <g style="opacity: 0.5" transform="translate(264.4869 234.47918)scale(0.0579 -0.0579)">
     <use xlink:href="#DejaVuSans-32"/>
     <use xlink:href="#DejaVuSans-34" x="63.623047"/>
     <use xlink:href="#DejaVuSans-35" x="127.246094"/>
    </g>
    <!-- 205 -->
    <g style="opacity: 0.5" transform="translate(264.4869 240.962713)scale(0.0579 -0.0579)">
     <use xlink:href="#DejaVuSans-32"/>
     <use xlink:href="#DejaVuSans-30" x="63.623047"/>
     <use xlink:href="#DejaVuSans-35" x="127.246094"/>
    </g>
   </g>
   <g id="text_12">
    <!-- GIN6 -->
    <g style="opacity: 0.5" transform="translate(279.446497 185.660983)scale(0.0579 -0.0579)">
     <use xlink:href="#DejaVuSans-47"/>
     <use xlink:href="#DejaVuSans-49" x="77.490234"/>
     <use xlink:href="#DejaVuSans-4e" x="106.982422"/>
     <use xlink:href="#DejaVuSans-36" x="181.787109"/>
    </g>
    <!-- 205 -->
    <g style="opacity: 0.5" transform="translate(281.025629 192.144516)scale(0.0579 -0.0579)">
     <use xlink:href="#DejaVuSans-32"/>
     <use xlink:href="#DejaVuSans-30" x="63.623047"/>
     <use xlink:href="#DejaVuSans-35" x="127.246094"/>
    </g>
    <!-- 105 -->
    <g style="opacity: 0.5" transform="translate(281.025629 198.62805)scale(0.0579 -0.0579)">
     <use xlink:href="#DejaVuSans-31"/>
     <use xlink:href="#DejaVuSans-30" x="63.623047"/>
     <use xlink:href="#DejaVuSans-35" x="127.246094"/>
    </g>
   </g>
   <g id="text_13">
    <!-- HMM1 -->
    <g style="opacity: 0.5" transform="translate(204.490246 106.359703)scale(0.0579 -0.0579)">
     <defs>
      <path id="DejaVuSans-4d" d="M 628 4666 
L 1569 4666 
L 2759 1491 
L 3956 4666 
L 4897 4666 
L 4897 0 
L 4281 0 
L 4281 4097 
L 3078 897 
L 2444 897 
L 1241 4097 
L 1241 0 
L 628 0 
L 628 4666 
z
" transform="scale(0.015625)"/>
     </defs>
     <use xlink:href="#DejaVuSans-48"/>
     <use xlink:href="#DejaVuSans-4d" x="75.195312"/>
     <use xlink:href="#DejaVuSans-4d" x="161.474609"/>
     <use xlink:href="#DejaVuSans-31" x="247.753906"/>
    </g>
    <!-- 245 -->
    <g style="opacity: 0.5" transform="translate(207.979174 112.843237)scale(0.0579 -0.0579)">
     <use xlink:href="#DejaVuSans-32"/>
     <use xlink:href="#DejaVuSans-34" x="63.623047"/>
     <use xlink:href="#DejaVuSans-35" x="127.246094"/>
    </g>
    <!-- GND -->
    <g style="opacity: 0.5" transform="translate(206.86686 119.32677)scale(0.0579 -0.0579)">
     <use xlink:href="#DejaVuSans-47"/>
     <use xlink:href="#DejaVuSans-4e" x="77.490234"/>
     <use xlink:href="#DejaVuSans-44" x="152.294922"/>
    </g>
   </g>
   <g id="text_14">
    <!-- HMM3 -->
    <g style="opacity: 0.5" transform="translate(201.003406 143.297953)scale(0.0579 -0.0579)">
     <use xlink:href="#DejaVuSans-48"/>
     <use xlink:href="#DejaVuSans-4d" x="75.195312"/>
     <use xlink:href="#DejaVuSans-4d" x="161.474609"/>
     <use xlink:href="#DejaVuSans-33" x="247.753906"/>
    </g>
    <!-- 245 -->
    <g style="opacity: 0.5" transform="translate(204.492333 149.781486)scale(0.0579 -0.0579)">
     <use xlink:href="#DejaVuSans-32"/>
     <use xlink:href="#DejaVuSans-34" x="63.623047"/>
     <use xlink:href="#DejaVuSans-35" x="127.246094"/>
    </g>
    <!-- 75 -->
    <g style="opacity: 0.5" transform="translate(206.334277 156.26502)scale(0.0579 -0.0579)">
     <use xlink:href="#DejaVuSans-37"/>
     <use xlink:href="#DejaVuSans-35" x="63.623047"/>
    </g>
   </g>
   <g id="text_15">
    <!-- PADL1 -->
    <g style="opacity: 0.5" transform="translate(226.934449 171.605284)scale(0.0579 -0.0579)">
     <defs>
      <path id="DejaVuSans-50" d="M 1259 4147 
L 1259 2394 
L 2053 2394 
Q 2494 2394 2734 2622 
Q 2975 2850 2975 3272 
Q 2975 3691 2734 3919 
Q 2494 4147 2053 4147 
L 1259 4147 
z
M 628 4666 
L 2053 4666 
Q 2838 4666 3239 4311 
Q 3641 3956 3641 3272 
Q 3641 2581 3239 2228 
Q 2838 1875 2053 1875 
L 1259 1875 
L 1259 0 
L 628 0 
L 628 4666 
z
" transform="scale(0.015625)"/>
      <path id="DejaVuSans-4c" d="M 628 4666 
L 1259 4666 
L 1259 531 
L 3531 531 
L 3531 0 
L 628 0 
L 628 4666 
z
" transform="scale(0.015625)"/>
     </defs>
     <use xlink:href="#DejaVuSans-50"/>
     <use xlink:href="#DejaVuSans-41" x="53.927734"/>
     <use xlink:href="#DejaVuSans-44" x="122.335938"/>
     <use xlink:href="#DejaVuSans-4c" x="199.337891"/>
     <use xlink:href="#DejaVuSans-31" x="255.050781"/>
    </g>
    <!-- 135 -->
    <g style="opacity: 0.5" transform="translate(230.634169 178.088818)scale(0.0579 -0.0579)">
     <use xlink:href="#DejaVuSans-31"/>
     <use xlink:href="#DejaVuSans-33" x="63.623047"/>
     <use xlink:href="#DejaVuSans-35" x="127.246094"/>
    </g>
    <!-- GND -->
    <g style="opacity: 0.5" transform="translate(229.521855 184.572351)scale(0.0579 -0.0579)">
     <use xlink:href="#DejaVuSans-47"/>
     <use xlink:href="#DejaVuSans-4e" x="77.490234"/>
     <use xlink:href="#DejaVuSans-44" x="152.294922"/>
    </g>
   </g>
   <g id="text_16">
    <!-- PADL2 -->
    <g style="opacity: 0.5" transform="translate(221.927364 200.345934)scale(0.0579 -0.0579)">
     <use xlink:href="#DejaVuSans-50"/>
     <use xlink:href="#DejaVuSans-41" x="53.927734"/>
     <use xlink:href="#DejaVuSans-44" x="122.335938"/>
     <use xlink:href="#DejaVuSans-4c" x="199.337891"/>
     <use xlink:href="#DejaVuSans-32" x="255.050781"/>
    </g>
    <!-- 115 -->
    <g style="opacity: 0.5" transform="translate(225.627084 206.829467)scale(0.0579 -0.0579)">
     <use xlink:href="#DejaVuSans-31"/>
     <use xlink:href="#DejaVuSans-31" x="63.623047"/>
     <use xlink:href="#DejaVuSans-35" x="127.246094"/>
    </g>
    <!-- GND -->
    <g style="opacity: 0.5" transform="translate(224.51477 213.313001)scale(0.0579 -0.0579)">
     <use xlink:href="#DejaVuSans-47"/>
     <use xlink:href="#DejaVuSans-4e" x="77.490234"/>
     <use xlink:href="#DejaVuSans-44" x="152.294922"/>
    </g>
   </g>
   <g id="text_17">
    <!-- SIG3 -->
    <g style="opacity: 0.5" transform="translate(225.324551 224.761096)scale(0.0579 -0.0579)">
     <use xlink:href="#DejaVuSans-53"/>
     <use xlink:href="#DejaVuSans-49" x="63.476562"/>
     <use xlink:href="#DejaVuSans-47" x="92.96875"/>
     <use xlink:href="#DejaVuSans-33" x="170.458984"/>
    </g>
    <!-- 245 -->
    <g style="opacity: 0.5" transform="translate(226.575734 231.24463)scale(0.0579 -0.0579)">
     <use xlink:href="#DejaVuSans-32"/>
     <use xlink:href="#DejaVuSans-34" x="63.623047"/>
     <use xlink:href="#DejaVuSans-35" x="127.246094"/>
    </g>
    <!-- 135 -->
    <g style="opacity: 0.5" transform="translate(226.575734 237.728163)scale(0.0579 -0.0579)">
     <use xlink:href="#DejaVuSans-31"/>
     <use xlink:href="#DejaVuSans-33" x="63.623047"/>
     <use xlink:href="#DejaVuSans-35" x="127.246094"/>
    </g>
   </g>
   <g id="text_18">
    <!-- SIG4 -->
    <g style="opacity: 0.5" transform="translate(194.722364 223.084127)scale(0.0579 -0.0579)">
     <use xlink:href="#DejaVuSans-53"/>
     <use xlink:href="#DejaVuSans-49" x="63.476562"/>
     <use xlink:href="#DejaVuSans-47" x="92.96875"/>
     <use xlink:href="#DejaVuSans-34" x="170.458984"/>
    </g>
    <!-- 245 -->
    <g style="opacity: 0.5" transform="translate(195.973546 229.567661)scale(0.0579 -0.0579)">
     <use xlink:href="#DejaVuSans-32"/>
     <use xlink:href="#DejaVuSans-34" x="63.623047"/>
     <use xlink:href="#DejaVuSans-35" x="127.246094"/>
    </g>
    <!-- 145 -->
    <g style="opacity: 0.5" transform="translate(195.973546 236.051194)scale(0.0579 -0.0579)">
     <use xlink:href="#DejaVuSans-31"/>
     <use xlink:href="#DejaVuSans-34" x="63.623047"/>
     <use xlink:href="#DejaVuSans-35" x="127.246094"/>
    </g>
   </g>
   <g id="text_19">
    <!-- PADH1 -->
    <g transform="translate(226.370377 169.642145)scale(0.0579 -0.0579)">
     <use xlink:href="#DejaVuSans-50"/>
     <use xlink:href="#DejaVuSans-41" x="53.927734"/>
     <use xlink:href="#DejaVuSans-44" x="122.335938"/>
     <use xlink:href="#DejaVuSans-48" x="199.337891"/>
     <use xlink:href="#DejaVuSans-31" x="274.533203"/>
    </g>
    <!-- 245 -->
    <g transform="translate(230.634169 176.125678)scale(0.0579 -0.0579)">
     <use xlink:href="#DejaVuSans-32"/>
     <use xlink:href="#DejaVuSans-34" x="63.623047"/>
     <use xlink:href="#DejaVuSans-35" x="127.246094"/>
    </g>
    <!-- 135 -->
    <g transform="translate(230.634169 182.609212)scale(0.0579 -0.0579)">
     <use xlink:href="#DejaVuSans-31"/>
     <use xlink:href="#DejaVuSans-33" x="63.623047"/>
     <use xlink:href="#DejaVuSans-35" x="127.246094"/>
    </g>
   </g>
   <g id="text_20">
    <!-- PADH2 -->
    <g transform="translate(221.363292 200.345934)scale(0.0579 -0.0579)">
     <use xlink:href="#DejaVuSans-50"/>
     <use xlink:href="#DejaVuSans-41" x="53.927734"/>
     <use xlink:href="#DejaVuSans-44" x="122.335938"/>
     <use xlink:href="#DejaVuSans-48" x="199.337891"/>
     <use xlink:href="#DejaVuSans-32" x="274.533203"/>
    </g>
    <!-- 245 -->
    <g transform="translate(225.627084 206.829467)scale(0.0579 -0.0579)">
     <use xlink:href="#DejaVuSans-32"/>
     <use xlink:href="#DejaVuSans-34" x="63.623047"/>
     <use xlink:href="#DejaVuSans-35" x="127.246094"/>
    </g>
    <!-- 115 -->
    <g transform="translate(225.627084 213.313001)scale(0.0579 -0.0579)">
     <use xlink:href="#DejaVuSans-31"/>
     <use xlink:href="#DejaVuSans-31" x="63.623047"/>
     <use xlink:href="#DejaVuSans-35" x="127.246094"/>
    </g>
   </g>
  </g>
 </g>
 <defs>
  <clipPath id="p38d1854bef">
   <rect x="123.026364" y="41.472" width="226.267273" height="266.112"/>
  </clipPath>
 </defs>
</svg>
