<?xml version="1.0" encoding="utf-8" standalone="no"?>
<!DOCTYPE svg PUBLIC "-//W3C//DTD SVG 1.1//EN"
  "http://www.w3.org/Graphics/SVG/1.1/DTD/svg11.dtd">
<svg xmlns:xlink="http://www.w3.org/1999/xlink" width="460.8pt" height="345.6pt" viewBox="0 0 460.8 345.6" xmlns="http://www.w3.org/2000/svg" version="1.1">
 <metadata>
  <rdf:RDF xmlns:dc="http://purl.org/dc/elements/1.1/" xmlns:cc="http://creativecommons.org/ns#" xmlns:rdf="http://www.w3.org/1999/02/22-rdf-syntax-ns#">
   <cc:Work>
    <dc:type rdf:resource="http://purl.org/dc/dcmitype/StillImage"/>
    <dc:date>2022-07-22T17:56:19.980877</dc:date>
    <dc:format>image/svg+xml</dc:format>
    <dc:creator>
     <cc:Agent>
      <dc:title>Matplotlib v3.5.0, https://matplotlib.org/</dc:title>
     </cc:Agent>
    </dc:creator>
   </cc:Work>
  </rdf:RDF>
 </metadata>
 <defs>
  <style type="text/css">*{stroke-linejoin: round; stroke-linecap: butt}</style>
 </defs>
 <g id="figure_1">
  <g id="patch_1">
   <path d="M 0 345.6 
L 460.8 345.6 
L 460.8 0 
L 0 0 
z
" style="fill: #ffffff"/>
  </g>
  <g id="axes_1">
   <g id="patch_2">
    <path d="M 337.061588 53.568 
L 337.316176 75.246505 
L 337.668399 105.262026 
L 341.111773 143.978585 
L 342.987302 165.101888 
L 344.486501 182.2269 
L 344.77324 185.225106 
L 332.537287 205.44595 
L 326.259267 215.852801 
L 320.297249 225.585709 
L 309.707773 243.228516 
L 298.62934 261.664985 
L 285.965717 274.965352 
L 278.662144 282.61656 
L 254.456972 284.342038 
L 229.084705 295.488 
L 219.019211 286.9651 
L 211.44739 275.898452 
L 286.506519 232.008858 
L 246.469745 197.934041 
L 182.851135 234.318439 
L 157.050004 175.334892 
L 146.322493 150.667285 
L 256.860068 93.906349 
z
" clip-path="url(#p703b2a42d9)" style="fill: #ffedd9; stroke: #ffedd9; stroke-linejoin: miter"/>
   </g>
   <g id="patch_3">
    <path d="M 246.469745 197.934041 
L 286.506519 232.008858 
L 211.44739 275.898452 
L 182.851135 234.318439 
z
" clip-path="url(#p703b2a42d9)" style="fill: #ffedd9; stroke: #ffedd9; stroke-linejoin: miter"/>
   </g>
   <g id="patch_4">
    <path d="M 178.34944 75.493456 
L 256.860068 93.906349 
L 146.322493 150.667285 
L 130.988859 115.951266 
L 120.741828 107.869669 
z
" clip-path="url(#p703b2a42d9)" style="fill: #ffedd9; stroke: #ffedd9; stroke-linejoin: miter"/>
   </g>
   <g id="patch_5">
    <path d="M 120.741828 107.869669 
L 130.988859 115.951266 
L 146.322493 150.667285 
L 157.050004 175.334892 
L 182.851135 234.318439 
L 126.220871 189.289444 
L 118.360479 176.755306 
L 110.271444 163.879732 
L 104.824348 141.550957 
L 109.351794 131.987069 
z
" clip-path="url(#p703b2a42d9)" style="fill: #ffedd9; stroke: #ffedd9; stroke-linejoin: miter"/>
   </g>
   <g id="patch_6">
    <path d="M 337.316176 75.246505 
L 357.104865 73.92891 
L 367.080145 73.25552 
L 367.495652 104.871742 
L 342.987302 165.101888 
L 341.111773 143.978585 
L 337.668399 105.262026 
z
" clip-path="url(#p703b2a42d9)" style="fill: #ffedd9; stroke: #ffedd9; stroke-linejoin: miter"/>
   </g>
   <g id="patch_7">
    <path d="M 337.061588 53.568 
L 337.316176 75.246505 
L 337.668399 105.262026 
L 341.111773 143.978585 
L 342.987302 165.101888 
L 344.486501 182.2269 
L 344.77324 185.225106 
L 332.537287 205.44595 
L 326.259267 215.852801 
L 320.297249 225.585709 
L 309.707773 243.228516 
L 298.62934 261.664985 
L 285.965717 274.965352 
L 278.662144 282.61656 
L 254.456972 284.342038 
L 229.084705 295.488 
L 219.019211 286.9651 
L 211.44739 275.898452 
L 286.506519 232.008858 
L 246.469745 197.934041 
L 182.851135 234.318439 
L 157.050004 175.334892 
L 146.322493 150.667285 
L 256.860068 93.906349 
L 337.061588 53.568 
z
" clip-path="url(#p703b2a42d9)" style="fill: #ffedd9; stroke: #ffedd9; stroke-linejoin: miter"/>
   </g>
   <g id="patch_8">
    <path d="M 246.469745 197.934041 
L 286.506519 232.008858 
L 211.44739 275.898452 
L 182.851135 234.318439 
L 246.469745 197.934041 
z
" clip-path="url(#p703b2a42d9)" style="fill: #ffedd9; stroke: #ffedd9; stroke-linejoin: miter"/>
   </g>
   <g id="patch_9">
    <path d="M 178.34944 75.493456 
L 256.860068 93.906349 
L 146.322493 150.667285 
L 130.988859 115.951266 
L 120.741828 107.869669 
L 178.34944 75.493456 
z
" clip-path="url(#p703b2a42d9)" style="fill: #ffedd9; stroke: #ffedd9; stroke-linejoin: miter"/>
   </g>
   <g id="patch_10">
    <path d="M 120.741828 107.869669 
L 130.988859 115.951266 
L 146.322493 150.667285 
L 157.050004 175.334892 
L 182.851135 234.318439 
L 126.220871 189.289444 
L 118.360479 176.755306 
L 110.271444 163.879732 
L 104.824348 141.550957 
L 109.351794 131.987069 
L 120.741828 107.869669 
z
" clip-path="url(#p703b2a42d9)" style="fill: #ffedd9; stroke: #ffedd9; stroke-linejoin: miter"/>
   </g>
   <g id="patch_11">
    <path d="M 337.316176 75.246505 
L 357.104865 73.92891 
L 367.080145 73.25552 
L 367.495652 104.871742 
L 342.987302 165.101888 
L 341.111773 143.978585 
L 337.668399 105.262026 
L 337.316176 75.246505 
z
" clip-path="url(#p703b2a42d9)" style="fill: #ffedd9; stroke: #ffedd9; stroke-linejoin: miter"/>
   </g>
   <g id="line2d_1">
    <path d="M 337.061588 53.568 
L 337.316176 75.246505 
L 337.668399 105.262026 
L 341.111773 143.978585 
L 342.987302 165.101888 
L 344.486501 182.2269 
L 344.77324 185.225106 
L 332.537287 205.44595 
L 326.259267 215.852801 
L 320.297249 225.585709 
L 309.707773 243.228516 
L 298.62934 261.664985 
L 285.965717 274.965352 
L 278.662144 282.61656 
L 254.456972 284.342038 
L 229.084705 295.488 
L 219.019211 286.9651 
L 211.44739 275.898452 
L 286.506519 232.008858 
L 246.469745 197.934041 
L 182.851135 234.318439 
L 157.050004 175.334892 
L 146.322493 150.667285 
L 256.860068 93.906349 
L 337.061588 53.568 
" clip-path="url(#p703b2a42d9)" style="fill: none; stroke: #ffc380; stroke-width: 0.5; stroke-linecap: square"/>
   </g>
   <g id="line2d_2">
    <path d="M 246.469745 197.934041 
L 286.506519 232.008858 
L 211.44739 275.898452 
L 182.851135 234.318439 
L 246.469745 197.934041 
" clip-path="url(#p703b2a42d9)" style="fill: none; stroke: #ffc380; stroke-width: 0.5; stroke-linecap: square"/>
   </g>
   <g id="line2d_3">
    <path d="M 178.34944 75.493456 
L 256.860068 93.906349 
L 146.322493 150.667285 
L 130.988859 115.951266 
L 120.741828 107.869669 
L 178.34944 75.493456 
" clip-path="url(#p703b2a42d9)" style="fill: none; stroke: #ffc380; stroke-width: 0.5; stroke-linecap: square"/>
   </g>
   <g id="line2d_4">
    <path d="M 120.741828 107.869669 
L 130.988859 115.951266 
L 146.322493 150.667285 
L 157.050004 175.334892 
L 182.851135 234.318439 
L 126.220871 189.289444 
L 118.360479 176.755306 
L 110.271444 163.879732 
L 104.824348 141.550957 
L 109.351794 131.987069 
L 120.741828 107.869669 
" clip-path="url(#p703b2a42d9)" style="fill: none; stroke: #ffc380; stroke-width: 0.5; stroke-linecap: square"/>
   </g>
   <g id="line2d_5">
    <path d="M 337.316176 75.246505 
L 357.104865 73.92891 
L 367.080145 73.25552 
L 367.495652 104.871742 
L 342.987302 165.101888 
L 341.111773 143.978585 
L 337.668399 105.262026 
L 337.316176 75.246505 
" clip-path="url(#p703b2a42d9)" style="fill: none; stroke: #ffc380; stroke-width: 0.5; stroke-linecap: square"/>
   </g>
   <g id="line2d_6">
    <path d="M 182.851135 234.318439 
L 211.44739 275.898452 
L 219.019211 286.9651 
L 229.084705 295.488 
L 204.884082 306.176883 
L 214.242105 320.114774 
L 184.682049 338.2311 
L 171.039598 346.6 
M 28.700419 346.6 
L 21.790634 329.843945 
L 72.193198 288.744131 
L 56.036329 270.460456 
L 73.745339 257.613831 
L 98.672409 239.41034 
L 111.533187 238.86236 
L 135.617177 237.778205 
L 173.428537 236.093558 
L 182.851135 234.318439 
" clip-path="url(#p703b2a42d9)" style="fill: none; stroke: #8f8f8f; stroke-width: 0.2; stroke-linecap: square"/>
   </g>
   <g id="line2d_7">
    <path d="M -1 144.127262 
L 29.721872 121.377338 
L 85.46298 80.180676 
L 120.741828 107.869669 
L 104.824348 141.550957 
L 110.271444 163.879732 
L 118.360479 176.755306 
L 126.220871 189.289444 
L 87.228603 217.347354 
L 73.905471 226.933015 
L 54.420468 241.42259 
L 20.966385 242.912728 
L -0.387438 257.810912 
L -1 258.249512 
" clip-path="url(#p703b2a42d9)" style="fill: none; stroke: #8f8f8f; stroke-width: 0.2; stroke-linecap: square"/>
   </g>
   <g id="line2d_8">
    <path d="M 120.741828 107.869669 
L 130.988859 115.951266 
L 146.322493 150.667285 
L 157.050004 175.334892 
L 142.550554 177.192387 
L 126.220871 189.289444 
L 118.360479 176.755306 
L 110.271444 163.879732 
L 104.824348 141.550957 
L 120.741828 107.869669 
L 120.741828 107.869669 
" clip-path="url(#p703b2a42d9)" style="fill: none; stroke: #8f8f8f; stroke-width: 0.2; stroke-linecap: square"/>
   </g>
   <g id="line2d_9">
    <path d="M 126.220871 189.289444 
L 142.550554 177.192387 
L 157.050004 175.334892 
L 182.851135 234.318439 
L 126.220871 189.289444 
" clip-path="url(#p703b2a42d9)" style="fill: none; stroke: #8f8f8f; stroke-width: 0.2; stroke-linecap: square"/>
   </g>
   <g id="line2d_10">
    <path d="M 126.220871 189.289444 
L 182.851135 234.318439 
L 173.428537 236.093558 
L 135.617177 237.778205 
L 111.533187 238.86236 
L 98.672409 239.41034 
L 54.420468 241.42259 
L 73.905471 226.933015 
L 80.576211 221.591951 
L 87.228603 217.347354 
L 126.220871 189.289444 
" clip-path="url(#p703b2a42d9)" style="fill: none; stroke: #8f8f8f; stroke-width: 0.2; stroke-linecap: square"/>
   </g>
   <g id="line2d_11">
    <path d="M 454.805764 -1 
L 458.856372 39.113575 
L 457.945239 51.479585 
L 457.379052 55.563001 
L 400.882062 104.472406 
L 367.495652 104.871742 
L 337.668399 105.262026 
L 337.316176 75.246505 
L 337.061588 53.568 
L 337.010649 49.232233 
L 319.802491 -1 
" clip-path="url(#p703b2a42d9)" style="fill: none; stroke: #8f8f8f; stroke-width: 0.2; stroke-linecap: square"/>
   </g>
   <g id="line2d_12">
    <path d="M 457.379052 55.563001 
L 446.110242 183.520863 
L 436.193705 183.728447 
L 383.609174 184.681242 
L 344.77324 185.225106 
L 344.486501 182.2269 
L 342.987302 165.101888 
L 341.111773 143.978585 
L 337.668399 105.262026 
L 367.495652 104.871742 
L 400.882062 104.472406 
L 457.379052 55.563001 
" clip-path="url(#p703b2a42d9)" style="fill: none; stroke: #8f8f8f; stroke-width: 0.2; stroke-linecap: square"/>
   </g>
   <g id="line2d_13">
    <path d="M 359.50387 205.046512 
L 380.566673 206.275474 
L 386.460811 206.649877 
L 429.465737 220.757418 
L 436.582513 223.149443 
L 428.973621 223.368972 
L 377.887703 225.127795 
L 343.424916 225.397064 
L 326.259267 215.852801 
L 332.537287 205.44595 
L 359.50387 205.046512 
" clip-path="url(#p703b2a42d9)" style="fill: none; stroke: #8f8f8f; stroke-width: 0.2; stroke-linecap: square"/>
   </g>
   <g id="line2d_14">
    <path d="M 457.945239 51.479585 
L 457.379052 55.563001 
L 400.882062 104.472406 
L 367.495652 104.871742 
L 367.080145 73.25552 
L 357.104865 73.92891 
L 337.316176 75.246505 
L 337.061588 53.568 
L 356.825566 53.317957 
L 457.945239 51.479585 
" clip-path="url(#p703b2a42d9)" style="fill: none; stroke: #8f8f8f; stroke-width: 0.2; stroke-linecap: square"/>
   </g>
   <g id="line2d_15">
    <path d="M 457.379052 55.563001 
L 446.110242 183.520863 
L 436.193705 183.728447 
L 383.609174 184.681242 
L 344.77324 185.225106 
L 344.486501 182.2269 
L 342.987302 165.101888 
L 367.495652 104.871742 
L 400.882062 104.472406 
L 457.379052 55.563001 
" clip-path="url(#p703b2a42d9)" style="fill: none; stroke: #8f8f8f; stroke-width: 0.2; stroke-linecap: square"/>
   </g>
   <g id="line2d_16">
    <path d="M 367.495652 104.871742 
L 342.987302 165.101888 
L 341.111773 143.978585 
L 337.668399 105.262026 
L 367.495652 104.871742 
" clip-path="url(#p703b2a42d9)" style="fill: none; stroke: #8f8f8f; stroke-width: 0.2; stroke-linecap: square"/>
   </g>
   <g id="line2d_17">
    <path d="M 461.8 231.409504 
L 436.582513 223.149443 
L 429.465737 220.757418 
L 386.460811 206.649877 
L 380.566673 206.275474 
L 359.50387 205.046512 
L 332.537287 205.44595 
L 344.77324 185.225106 
L 383.609174 184.681242 
L 436.193705 183.728447 
L 446.110242 183.520863 
L 461.8 183.148036 
" clip-path="url(#p703b2a42d9)" style="fill: none; stroke: #8f8f8f; stroke-width: 0.2; stroke-linecap: square"/>
   </g>
   <g id="line2d_18">
    <path d="M 377.887703 225.127795 
L 374.367521 301.356569 
L 372.287491 346.6 
M 290.712342 346.6 
L 285.078297 336.263823 
L 262.707732 295.309895 
L 254.456972 284.342038 
L 278.662144 282.61656 
L 285.965717 274.965352 
L 298.62934 261.664985 
L 309.707773 243.228516 
L 320.297249 225.585709 
L 326.259267 215.852801 
L 343.424916 225.397064 
L 377.887703 225.127795 
" clip-path="url(#p703b2a42d9)" style="fill: none; stroke: #8f8f8f; stroke-width: 0.2; stroke-linecap: square"/>
   </g>
   <g id="line2d_19">
    <path d="M 383.609174 184.681242 
L 380.566673 206.275474 
L 377.887703 225.127795 
L 343.424916 225.397064 
L 326.259267 215.852801 
L 332.537287 205.44595 
L 344.77324 185.225106 
L 383.609174 184.681242 
" clip-path="url(#p703b2a42d9)" style="fill: none; stroke: #8f8f8f; stroke-width: 0.2; stroke-linecap: square"/>
   </g>
   <g id="line2d_20">
    <path d="M 359.50387 205.046512 
L 380.566673 206.275474 
L 377.887703 225.127795 
L 343.424916 225.397064 
L 326.259267 215.852801 
L 332.537287 205.44595 
L 359.50387 205.046512 
" clip-path="url(#p703b2a42d9)" style="fill: none; stroke: #8f8f8f; stroke-width: 0.2; stroke-linecap: square"/>
   </g>
   <g id="line2d_21">
    <path d="M 319.802491 -1 
L 337.010649 49.232233 
L 337.061588 53.568 
L 256.860068 93.906349 
L 178.34944 75.493456 
L 120.741828 107.869669 
L 90.418524 83.837511 
L 85.46298 80.180676 
L 55.678301 57.99035 
L 76.626389 32.578096 
L 88.787055 -1 
" clip-path="url(#p703b2a42d9)" style="fill: none; stroke: #8f8f8f; stroke-width: 0.2; stroke-linecap: square"/>
   </g>
   <g id="line2d_22">
    <path d="M 120.741828 107.869669 
L 178.34944 75.493456 
L 256.860068 93.906349 
L 146.322493 150.667285 
L 130.988859 115.951266 
L 120.741828 107.869669 
" clip-path="url(#p703b2a42d9)" style="fill: none; stroke: #8f8f8f; stroke-width: 0.2; stroke-linecap: square"/>
   </g>
   <g id="line2d_23">
    <path d="M 337.061588 53.568 
L 337.316176 75.246505 
L 337.668399 105.262026 
L 341.111773 143.978585 
L 342.987302 165.101888 
L 344.486501 182.2269 
L 344.77324 185.225106 
L 332.537287 205.44595 
L 326.259267 215.852801 
L 320.297249 225.585709 
L 309.707773 243.228516 
L 298.62934 261.664985 
L 285.965717 274.965352 
L 278.662144 282.61656 
L 254.456972 284.342038 
L 219.019211 286.9651 
L 211.44739 275.898452 
L 286.506519 232.008858 
L 246.469745 197.934041 
L 182.851135 234.318439 
L 157.050004 175.334892 
L 146.322493 150.667285 
L 256.860068 93.906349 
L 337.061588 53.568 
" clip-path="url(#p703b2a42d9)" style="fill: none; stroke: #8f8f8f; stroke-width: 0.2; stroke-linecap: square"/>
   </g>
   <g id="line2d_24">
    <path d="M 246.469745 197.934041 
L 286.506519 232.008858 
L 211.44739 275.898452 
L 182.851135 234.318439 
L 246.469745 197.934041 
" clip-path="url(#p703b2a42d9)" style="fill: none; stroke: #8f8f8f; stroke-width: 0.2; stroke-linecap: square"/>
   </g>
   <g id="line2d_25">
    <path d="M 254.456972 284.342038 
L 262.707732 295.309895 
L 285.078297 336.263823 
L 282.106832 346.6 
M 230.469693 346.6 
L 214.242105 320.114774 
L 204.884082 306.176883 
L 229.084705 295.488 
L 254.456972 284.342038 
" clip-path="url(#p703b2a42d9)" style="fill: none; stroke: #8f8f8f; stroke-width: 0.2; stroke-linecap: square"/>
   </g>
   <g id="line2d_26">
    <path d="M 254.456972 284.342038 
L 229.084705 295.488 
L 219.019211 286.9651 
L 254.456972 284.342038 
" clip-path="url(#p703b2a42d9)" style="fill: none; stroke: #8f8f8f; stroke-width: 0.2; stroke-linecap: square"/>
   </g>
   <g id="line2d_27">
    <path d="M 337.061588 53.568 
L 337.316176 75.246505 
L 337.668399 105.262026 
L 341.111773 143.978585 
L 342.987302 165.101888 
L 344.486501 182.2269 
L 344.77324 185.225106 
L 332.537287 205.44595 
L 326.259267 215.852801 
L 320.297249 225.585709 
L 309.707773 243.228516 
L 298.62934 261.664985 
L 285.965717 274.965352 
L 278.662144 282.61656 
L 254.456972 284.342038 
L 229.084705 295.488 
L 219.019211 286.9651 
L 211.44739 275.898452 
L 286.506519 232.008858 
L 246.469745 197.934041 
L 182.851135 234.318439 
L 157.050004 175.334892 
L 146.322493 150.667285 
L 256.860068 93.906349 
L 337.061588 53.568 
L 337.061588 53.568 
" clip-path="url(#p703b2a42d9)" style="fill: none; stroke: #ffc380; stroke-width: 0.5; stroke-linecap: square"/>
   </g>
   <g id="line2d_28">
    <path d="M 246.469745 197.934041 
L 286.506519 232.008858 
L 211.44739 275.898452 
L 182.851135 234.318439 
L 246.469745 197.934041 
L 246.469745 197.934041 
" clip-path="url(#p703b2a42d9)" style="fill: none; stroke: #ffc380; stroke-width: 0.5; stroke-linecap: square"/>
   </g>
   <g id="line2d_29">
    <path d="M 178.34944 75.493456 
L 256.860068 93.906349 
L 146.322493 150.667285 
L 130.988859 115.951266 
L 120.741828 107.869669 
L 178.34944 75.493456 
L 178.34944 75.493456 
" clip-path="url(#p703b2a42d9)" style="fill: none; stroke: #ffc380; stroke-width: 0.5; stroke-linecap: square"/>
   </g>
   <g id="line2d_30">
    <path d="M 120.741828 107.869669 
L 130.988859 115.951266 
L 146.322493 150.667285 
L 157.050004 175.334892 
L 182.851135 234.318439 
L 126.220871 189.289444 
L 118.360479 176.755306 
L 110.271444 163.879732 
L 104.824348 141.550957 
L 109.351794 131.987069 
L 120.741828 107.869669 
L 120.741828 107.869669 
" clip-path="url(#p703b2a42d9)" style="fill: none; stroke: #ffc380; stroke-width: 0.5; stroke-linecap: square"/>
   </g>
   <g id="line2d_31">
    <path d="M 337.316176 75.246505 
L 357.104865 73.92891 
L 367.080145 73.25552 
L 367.495652 104.871742 
L 342.987302 165.101888 
L 341.111773 143.978585 
L 337.668399 105.262026 
L 337.316176 75.246505 
L 337.316176 75.246505 
" clip-path="url(#p703b2a42d9)" style="fill: none; stroke: #ffc380; stroke-width: 0.5; stroke-linecap: square"/>
   </g>
   <g id="text_1">
    <!-- DKA1 -->
    <g style="opacity: 0.5" transform="translate(117.53839 303.443479)scale(0.0579 -0.0579)">
     <defs>
      <path id="DejaVuSans-44" d="M 1259 4147 
L 1259 519 
L 2022 519 
Q 2988 519 3436 956 
Q 3884 1394 3884 2338 
Q 3884 3275 3436 3711 
Q 2988 4147 2022 4147 
L 1259 4147 
z
M 628 4666 
L 1925 4666 
Q 3281 4666 3915 4102 
Q 4550 3538 4550 2338 
Q 4550 1131 3912 565 
Q 3275 0 1925 0 
L 628 0 
L 628 4666 
z
" transform="scale(0.015625)"/>
      <path id="DejaVuSans-4b" d="M 628 4666 
L 1259 4666 
L 1259 2694 
L 3353 4666 
L 4166 4666 
L 1850 2491 
L 4331 0 
L 3500 0 
L 1259 2247 
L 1259 0 
L 628 0 
L 628 4666 
z
" transform="scale(0.015625)"/>
      <path id="DejaVuSans-41" d="M 2188 4044 
L 1331 1722 
L 3047 1722 
L 2188 4044 
z
M 1831 4666 
L 2547 4666 
L 4325 0 
L 3669 0 
L 3244 1197 
L 1141 1197 
L 716 0 
L 50 0 
L 1831 4666 
z
" transform="scale(0.015625)"/>
      <path id="DejaVuSans-31" d="M 794 531 
L 1825 531 
L 1825 4091 
L 703 3866 
L 703 4441 
L 1819 4666 
L 2450 4666 
L 2450 531 
L 3481 531 
L 3481 0 
L 794 0 
L 794 531 
z
" transform="scale(0.015625)"/>
     </defs>
     <use xlink:href="#DejaVuSans-44"/>
     <use xlink:href="#DejaVuSans-4b" x="77.001953"/>
     <use xlink:href="#DejaVuSans-41" x="140.828125"/>
     <use xlink:href="#DejaVuSans-31" x="209.236328"/>
    </g>
    <!-- 145 -->
    <g style="opacity: 0.5" transform="translate(119.911838 309.927012)scale(0.0579 -0.0579)">
     <defs>
      <path id="DejaVuSans-34" d="M 2419 4116 
L 825 1625 
L 2419 1625 
L 2419 4116 
z
M 2253 4666 
L 3047 4666 
L 3047 1625 
L 3713 1625 
L 3713 1100 
L 3047 1100 
L 3047 0 
L 2419 0 
L 2419 1100 
L 313 1100 
L 313 1709 
L 2253 4666 
z
" transform="scale(0.015625)"/>
      <path id="DejaVuSans-35" d="M 691 4666 
L 3169 4666 
L 3169 4134 
L 1269 4134 
L 1269 2991 
Q 1406 3038 1543 3061 
Q 1681 3084 1819 3084 
Q 2600 3084 3056 2656 
Q 3513 2228 3513 1497 
Q 3513 744 3044 326 
Q 2575 -91 1722 -91 
Q 1428 -91 1123 -41 
Q 819 9 494 109 
L 494 744 
Q 775 591 1075 516 
Q 1375 441 1709 441 
Q 2250 441 2565 725 
Q 2881 1009 2881 1497 
Q 2881 1984 2565 2268 
Q 2250 2553 1709 2553 
Q 1456 2553 1204 2497 
Q 953 2441 691 2322 
L 691 4666 
z
" transform="scale(0.015625)"/>
     </defs>
     <use xlink:href="#DejaVuSans-31"/>
     <use xlink:href="#DejaVuSans-34" x="63.623047"/>
     <use xlink:href="#DejaVuSans-35" x="127.246094"/>
    </g>
    <!-- GND -->
    <g style="opacity: 0.5" transform="translate(118.799525 316.410546)scale(0.0579 -0.0579)">
     <defs>
      <path id="DejaVuSans-47" d="M 3809 666 
L 3809 1919 
L 2778 1919 
L 2778 2438 
L 4434 2438 
L 4434 434 
Q 4069 175 3628 42 
Q 3188 -91 2688 -91 
Q 1594 -91 976 548 
Q 359 1188 359 2328 
Q 359 3472 976 4111 
Q 1594 4750 2688 4750 
Q 3144 4750 3555 4637 
Q 3966 4525 4313 4306 
L 4313 3634 
Q 3963 3931 3569 4081 
Q 3175 4231 2741 4231 
Q 1884 4231 1454 3753 
Q 1025 3275 1025 2328 
Q 1025 1384 1454 906 
Q 1884 428 2741 428 
Q 3075 428 3337 486 
Q 3600 544 3809 666 
z
" transform="scale(0.015625)"/>
      <path id="DejaVuSans-4e" d="M 628 4666 
L 1478 4666 
L 3547 763 
L 3547 4666 
L 4159 4666 
L 4159 0 
L 3309 0 
L 1241 3903 
L 1241 0 
L 628 0 
L 628 4666 
z
" transform="scale(0.015625)"/>
     </defs>
     <use xlink:href="#DejaVuSans-47"/>
     <use xlink:href="#DejaVuSans-4e" x="77.490234"/>
     <use xlink:href="#DejaVuSans-44" x="152.294922"/>
    </g>
   </g>
   <g id="text_2">
    <!-- DUS2 -->
    <g style="opacity: 0.5" transform="translate(26.498206 176.729673)scale(0.0579 -0.0579)">
     <defs>
      <path id="DejaVuSans-55" d="M 556 4666 
L 1191 4666 
L 1191 1831 
Q 1191 1081 1462 751 
Q 1734 422 2344 422 
Q 2950 422 3222 751 
Q 3494 1081 3494 1831 
L 3494 4666 
L 4128 4666 
L 4128 1753 
Q 4128 841 3676 375 
Q 3225 -91 2344 -91 
Q 1459 -91 1007 375 
Q 556 841 556 1753 
L 556 4666 
z
" transform="scale(0.015625)"/>
      <path id="DejaVuSans-53" d="M 3425 4513 
L 3425 3897 
Q 3066 4069 2747 4153 
Q 2428 4238 2131 4238 
Q 1616 4238 1336 4038 
Q 1056 3838 1056 3469 
Q 1056 3159 1242 3001 
Q 1428 2844 1947 2747 
L 2328 2669 
Q 3034 2534 3370 2195 
Q 3706 1856 3706 1288 
Q 3706 609 3251 259 
Q 2797 -91 1919 -91 
Q 1588 -91 1214 -16 
Q 841 59 441 206 
L 441 856 
Q 825 641 1194 531 
Q 1563 422 1919 422 
Q 2459 422 2753 634 
Q 3047 847 3047 1241 
Q 3047 1584 2836 1778 
Q 2625 1972 2144 2069 
L 1759 2144 
Q 1053 2284 737 2584 
Q 422 2884 422 3419 
Q 422 4038 858 4394 
Q 1294 4750 2059 4750 
Q 2388 4750 2728 4690 
Q 3069 4631 3425 4513 
z
" transform="scale(0.015625)"/>
      <path id="DejaVuSans-32" d="M 1228 531 
L 3431 531 
L 3431 0 
L 469 0 
L 469 531 
Q 828 903 1448 1529 
Q 2069 2156 2228 2338 
Q 2531 2678 2651 2914 
Q 2772 3150 2772 3378 
Q 2772 3750 2511 3984 
Q 2250 4219 1831 4219 
Q 1534 4219 1204 4116 
Q 875 4013 500 3803 
L 500 4441 
Q 881 4594 1212 4672 
Q 1544 4750 1819 4750 
Q 2544 4750 2975 4387 
Q 3406 4025 3406 3419 
Q 3406 3131 3298 2873 
Q 3191 2616 2906 2266 
Q 2828 2175 2409 1742 
Q 1991 1309 1228 531 
z
" transform="scale(0.015625)"/>
     </defs>
     <use xlink:href="#DejaVuSans-44"/>
     <use xlink:href="#DejaVuSans-55" x="77.001953"/>
     <use xlink:href="#DejaVuSans-53" x="150.195312"/>
     <use xlink:href="#DejaVuSans-32" x="213.671875"/>
    </g>
    <!-- 155 -->
    <g style="opacity: 0.5" transform="translate(29.00012 183.213207)scale(0.0579 -0.0579)">
     <use xlink:href="#DejaVuSans-31"/>
     <use xlink:href="#DejaVuSans-35" x="63.623047"/>
     <use xlink:href="#DejaVuSans-35" x="127.246094"/>
    </g>
    <!-- GND -->
    <g style="opacity: 0.5" transform="translate(27.887806 189.69674)scale(0.0579 -0.0579)">
     <use xlink:href="#DejaVuSans-47"/>
     <use xlink:href="#DejaVuSans-4e" x="77.490234"/>
     <use xlink:href="#DejaVuSans-44" x="152.294922"/>
    </g>
   </g>
   <g id="text_3">
    <!-- DUS3 -->
    <g style="opacity: 0.5" transform="translate(122.909431 143.693701)scale(0.0579 -0.0579)">
     <defs>
      <path id="DejaVuSans-33" d="M 2597 2516 
Q 3050 2419 3304 2112 
Q 3559 1806 3559 1356 
Q 3559 666 3084 287 
Q 2609 -91 1734 -91 
Q 1441 -91 1130 -33 
Q 819 25 488 141 
L 488 750 
Q 750 597 1062 519 
Q 1375 441 1716 441 
Q 2309 441 2620 675 
Q 2931 909 2931 1356 
Q 2931 1769 2642 2001 
Q 2353 2234 1838 2234 
L 1294 2234 
L 1294 2753 
L 1863 2753 
Q 2328 2753 2575 2939 
Q 2822 3125 2822 3475 
Q 2822 3834 2567 4026 
Q 2313 4219 1838 4219 
Q 1578 4219 1281 4162 
Q 984 4106 628 3988 
L 628 4550 
Q 988 4650 1302 4700 
Q 1616 4750 1894 4750 
Q 2613 4750 3031 4423 
Q 3450 4097 3450 3541 
Q 3450 3153 3228 2886 
Q 3006 2619 2597 2516 
z
" transform="scale(0.015625)"/>
     </defs>
     <use xlink:href="#DejaVuSans-44"/>
     <use xlink:href="#DejaVuSans-55" x="77.001953"/>
     <use xlink:href="#DejaVuSans-53" x="150.195312"/>
     <use xlink:href="#DejaVuSans-33" x="213.671875"/>
    </g>
    <!-- 155 -->
    <g style="opacity: 0.5" transform="translate(125.411345 150.177235)scale(0.0579 -0.0579)">
     <use xlink:href="#DejaVuSans-31"/>
     <use xlink:href="#DejaVuSans-35" x="63.623047"/>
     <use xlink:href="#DejaVuSans-35" x="127.246094"/>
    </g>
    <!-- 65 -->
    <g style="opacity: 0.5" transform="translate(127.253289 156.660768)scale(0.0579 -0.0579)">
     <defs>
      <path id="DejaVuSans-36" d="M 2113 2584 
Q 1688 2584 1439 2293 
Q 1191 2003 1191 1497 
Q 1191 994 1439 701 
Q 1688 409 2113 409 
Q 2538 409 2786 701 
Q 3034 994 3034 1497 
Q 3034 2003 2786 2293 
Q 2538 2584 2113 2584 
z
M 3366 4563 
L 3366 3988 
Q 3128 4100 2886 4159 
Q 2644 4219 2406 4219 
Q 1781 4219 1451 3797 
Q 1122 3375 1075 2522 
Q 1259 2794 1537 2939 
Q 1816 3084 2150 3084 
Q 2853 3084 3261 2657 
Q 3669 2231 3669 1497 
Q 3669 778 3244 343 
Q 2819 -91 2113 -91 
Q 1303 -91 875 529 
Q 447 1150 447 2328 
Q 447 3434 972 4092 
Q 1497 4750 2381 4750 
Q 2619 4750 2861 4703 
Q 3103 4656 3366 4563 
z
" transform="scale(0.015625)"/>
     </defs>
     <use xlink:href="#DejaVuSans-36"/>
     <use xlink:href="#DejaVuSans-35" x="63.623047"/>
    </g>
   </g>
   <g id="text_4">
    <!-- DUS4 -->
    <g style="opacity: 0.5" transform="translate(146.508258 199.94081)scale(0.0579 -0.0579)">
     <use xlink:href="#DejaVuSans-44"/>
     <use xlink:href="#DejaVuSans-55" x="77.001953"/>
     <use xlink:href="#DejaVuSans-53" x="150.195312"/>
     <use xlink:href="#DejaVuSans-34" x="213.671875"/>
    </g>
    <!-- 245 -->
    <g style="opacity: 0.5" transform="translate(149.010172 206.424343)scale(0.0579 -0.0579)">
     <use xlink:href="#DejaVuSans-32"/>
     <use xlink:href="#DejaVuSans-34" x="63.623047"/>
     <use xlink:href="#DejaVuSans-35" x="127.246094"/>
    </g>
    <!-- 65 -->
    <g style="opacity: 0.5" transform="translate(150.852115 212.907877)scale(0.0579 -0.0579)">
     <use xlink:href="#DejaVuSans-36"/>
     <use xlink:href="#DejaVuSans-35" x="63.623047"/>
    </g>
   </g>
   <g id="text_5">
    <!-- DUS5 -->
    <g style="opacity: 0.5" transform="translate(110.608057 210.470162)scale(0.0579 -0.0579)">
     <use xlink:href="#DejaVuSans-44"/>
     <use xlink:href="#DejaVuSans-55" x="77.001953"/>
     <use xlink:href="#DejaVuSans-53" x="150.195312"/>
     <use xlink:href="#DejaVuSans-35" x="213.671875"/>
    </g>
    <!-- 245 -->
    <g style="opacity: 0.5" transform="translate(113.10997 216.953695)scale(0.0579 -0.0579)">
     <use xlink:href="#DejaVuSans-32"/>
     <use xlink:href="#DejaVuSans-34" x="63.623047"/>
     <use xlink:href="#DejaVuSans-35" x="127.246094"/>
    </g>
    <!-- GND -->
    <g style="opacity: 0.5" transform="translate(111.997657 223.437229)scale(0.0579 -0.0579)">
     <use xlink:href="#DejaVuSans-47"/>
     <use xlink:href="#DejaVuSans-4e" x="77.490234"/>
     <use xlink:href="#DejaVuSans-44" x="152.294922"/>
    </g>
   </g>
   <g id="text_6">
    <!-- EDWWDST2 -->
    <g style="opacity: 0.5" transform="translate(370.909814 36.108849)scale(0.0579 -0.0579)">
     <defs>
      <path id="DejaVuSans-45" d="M 628 4666 
L 3578 4666 
L 3578 4134 
L 1259 4134 
L 1259 2753 
L 3481 2753 
L 3481 2222 
L 1259 2222 
L 1259 531 
L 3634 531 
L 3634 0 
L 628 0 
L 628 4666 
z
" transform="scale(0.015625)"/>
      <path id="DejaVuSans-57" d="M 213 4666 
L 850 4666 
L 1831 722 
L 2809 4666 
L 3519 4666 
L 4500 722 
L 5478 4666 
L 6119 4666 
L 4947 0 
L 4153 0 
L 3169 4050 
L 2175 0 
L 1381 0 
L 213 4666 
z
" transform="scale(0.015625)"/>
      <path id="DejaVuSans-54" d="M -19 4666 
L 3928 4666 
L 3928 4134 
L 2272 4134 
L 2272 0 
L 1638 0 
L 1638 4134 
L -19 4134 
L -19 4666 
z
" transform="scale(0.015625)"/>
     </defs>
     <use xlink:href="#DejaVuSans-45"/>
     <use xlink:href="#DejaVuSans-44" x="63.183594"/>
     <use xlink:href="#DejaVuSans-57" x="140.185547"/>
     <use xlink:href="#DejaVuSans-57" x="239.0625"/>
     <use xlink:href="#DejaVuSans-44" x="337.939453"/>
     <use xlink:href="#DejaVuSans-53" x="414.941406"/>
     <use xlink:href="#DejaVuSans-54" x="478.417969"/>
     <use xlink:href="#DejaVuSans-32" x="539.501953"/>
    </g>
    <!-- 245 -->
    <g style="opacity: 0.5" transform="translate(382.844451 42.592383)scale(0.0579 -0.0579)">
     <use xlink:href="#DejaVuSans-32"/>
     <use xlink:href="#DejaVuSans-34" x="63.623047"/>
     <use xlink:href="#DejaVuSans-35" x="127.246094"/>
    </g>
    <!-- 105 -->
    <g style="opacity: 0.5" transform="translate(382.844451 49.075916)scale(0.0579 -0.0579)">
     <defs>
      <path id="DejaVuSans-30" d="M 2034 4250 
Q 1547 4250 1301 3770 
Q 1056 3291 1056 2328 
Q 1056 1369 1301 889 
Q 1547 409 2034 409 
Q 2525 409 2770 889 
Q 3016 1369 3016 2328 
Q 3016 3291 2770 3770 
Q 2525 4250 2034 4250 
z
M 2034 4750 
Q 2819 4750 3233 4129 
Q 3647 3509 3647 2328 
Q 3647 1150 3233 529 
Q 2819 -91 2034 -91 
Q 1250 -91 836 529 
Q 422 1150 422 2328 
Q 422 3509 836 4129 
Q 1250 4750 2034 4750 
z
" transform="scale(0.015625)"/>
     </defs>
     <use xlink:href="#DejaVuSans-31"/>
     <use xlink:href="#DejaVuSans-30" x="63.623047"/>
     <use xlink:href="#DejaVuSans-35" x="127.246094"/>
    </g>
   </g>
   <g id="text_7">
    <!-- EDWWDST3 -->
    <g style="opacity: 0.5" transform="translate(380.063257 115.508198)scale(0.0579 -0.0579)">
     <use xlink:href="#DejaVuSans-45"/>
     <use xlink:href="#DejaVuSans-44" x="63.183594"/>
     <use xlink:href="#DejaVuSans-57" x="140.185547"/>
     <use xlink:href="#DejaVuSans-57" x="239.0625"/>
     <use xlink:href="#DejaVuSans-44" x="337.939453"/>
     <use xlink:href="#DejaVuSans-53" x="414.941406"/>
     <use xlink:href="#DejaVuSans-54" x="478.417969"/>
     <use xlink:href="#DejaVuSans-33" x="539.501953"/>
    </g>
    <!-- 245 -->
    <g style="opacity: 0.5" transform="translate(391.997894 121.991732)scale(0.0579 -0.0579)">
     <use xlink:href="#DejaVuSans-32"/>
     <use xlink:href="#DejaVuSans-34" x="63.623047"/>
     <use xlink:href="#DejaVuSans-35" x="127.246094"/>
    </g>
    <!-- 155 -->
    <g style="opacity: 0.5" transform="translate(391.997894 128.475265)scale(0.0579 -0.0579)">
     <use xlink:href="#DejaVuSans-31"/>
     <use xlink:href="#DejaVuSans-35" x="63.623047"/>
     <use xlink:href="#DejaVuSans-35" x="127.246094"/>
    </g>
   </g>
   <g id="text_8">
    <!-- EDWWHRZ11 -->
    <g style="opacity: 0.5" transform="translate(361.781934 210.335933)scale(0.0579 -0.0579)">
     <defs>
      <path id="DejaVuSans-48" d="M 628 4666 
L 1259 4666 
L 1259 2753 
L 3553 2753 
L 3553 4666 
L 4184 4666 
L 4184 0 
L 3553 0 
L 3553 2222 
L 1259 2222 
L 1259 0 
L 628 0 
L 628 4666 
z
" transform="scale(0.015625)"/>
      <path id="DejaVuSans-52" d="M 2841 2188 
Q 3044 2119 3236 1894 
Q 3428 1669 3622 1275 
L 4263 0 
L 3584 0 
L 2988 1197 
Q 2756 1666 2539 1819 
Q 2322 1972 1947 1972 
L 1259 1972 
L 1259 0 
L 628 0 
L 628 4666 
L 2053 4666 
Q 2853 4666 3247 4331 
Q 3641 3997 3641 3322 
Q 3641 2881 3436 2590 
Q 3231 2300 2841 2188 
z
M 1259 4147 
L 1259 2491 
L 2053 2491 
Q 2509 2491 2742 2702 
Q 2975 2913 2975 3322 
Q 2975 3731 2742 3939 
Q 2509 4147 2053 4147 
L 1259 4147 
z
" transform="scale(0.015625)"/>
      <path id="DejaVuSans-5a" d="M 359 4666 
L 4025 4666 
L 4025 4184 
L 1075 531 
L 4097 531 
L 4097 0 
L 288 0 
L 288 481 
L 3238 4134 
L 359 4134 
L 359 4666 
z
" transform="scale(0.015625)"/>
     </defs>
     <use xlink:href="#DejaVuSans-45"/>
     <use xlink:href="#DejaVuSans-44" x="63.183594"/>
     <use xlink:href="#DejaVuSans-57" x="140.185547"/>
     <use xlink:href="#DejaVuSans-57" x="239.0625"/>
     <use xlink:href="#DejaVuSans-48" x="337.939453"/>
     <use xlink:href="#DejaVuSans-52" x="413.134766"/>
     <use xlink:href="#DejaVuSans-5a" x="482.617188"/>
     <use xlink:href="#DejaVuSans-31" x="551.123047"/>
     <use xlink:href="#DejaVuSans-31" x="614.746094"/>
    </g>
    <!-- 105 -->
    <g style="opacity: 0.5" transform="translate(375.895059 216.819467)scale(0.0579 -0.0579)">
     <use xlink:href="#DejaVuSans-31"/>
     <use xlink:href="#DejaVuSans-30" x="63.623047"/>
     <use xlink:href="#DejaVuSans-35" x="127.246094"/>
    </g>
    <!-- 65 -->
    <g style="opacity: 0.5" transform="translate(377.737002 223.303)scale(0.0579 -0.0579)">
     <use xlink:href="#DejaVuSans-36"/>
     <use xlink:href="#DejaVuSans-35" x="63.623047"/>
    </g>
   </g>
   <g id="text_9">
    <!-- EDWWHRZ5 -->
    <g style="opacity: 0.5" transform="translate(379.706401 73.289808)scale(0.0579 -0.0579)">
     <use xlink:href="#DejaVuSans-45"/>
     <use xlink:href="#DejaVuSans-44" x="63.183594"/>
     <use xlink:href="#DejaVuSans-57" x="140.185547"/>
     <use xlink:href="#DejaVuSans-57" x="239.0625"/>
     <use xlink:href="#DejaVuSans-48" x="337.939453"/>
     <use xlink:href="#DejaVuSans-52" x="413.134766"/>
     <use xlink:href="#DejaVuSans-5a" x="482.617188"/>
     <use xlink:href="#DejaVuSans-35" x="551.123047"/>
    </g>
    <!-- 105 -->
    <g style="opacity: 0.5" transform="translate(391.977582 79.773342)scale(0.0579 -0.0579)">
     <use xlink:href="#DejaVuSans-31"/>
     <use xlink:href="#DejaVuSans-30" x="63.623047"/>
     <use xlink:href="#DejaVuSans-35" x="127.246094"/>
    </g>
    <!-- GND -->
    <g style="opacity: 0.5" transform="translate(390.865269 86.256875)scale(0.0579 -0.0579)">
     <use xlink:href="#DejaVuSans-47"/>
     <use xlink:href="#DejaVuSans-4e" x="77.490234"/>
     <use xlink:href="#DejaVuSans-44" x="152.294922"/>
    </g>
   </g>
   <g id="text_10">
    <!-- EDWWHRZ6 -->
    <g style="opacity: 0.5" transform="translate(382.386164 115.508198)scale(0.0579 -0.0579)">
     <use xlink:href="#DejaVuSans-45"/>
     <use xlink:href="#DejaVuSans-44" x="63.183594"/>
     <use xlink:href="#DejaVuSans-57" x="140.185547"/>
     <use xlink:href="#DejaVuSans-57" x="239.0625"/>
     <use xlink:href="#DejaVuSans-48" x="337.939453"/>
     <use xlink:href="#DejaVuSans-52" x="413.134766"/>
     <use xlink:href="#DejaVuSans-5a" x="482.617188"/>
     <use xlink:href="#DejaVuSans-36" x="551.123047"/>
    </g>
    <!-- 155 -->
    <g style="opacity: 0.5" transform="translate(394.657346 121.991732)scale(0.0579 -0.0579)">
     <use xlink:href="#DejaVuSans-31"/>
     <use xlink:href="#DejaVuSans-35" x="63.623047"/>
     <use xlink:href="#DejaVuSans-35" x="127.246094"/>
    </g>
    <!-- GND -->
    <g style="opacity: 0.5" transform="translate(393.545032 128.475265)scale(0.0579 -0.0579)">
     <use xlink:href="#DejaVuSans-47"/>
     <use xlink:href="#DejaVuSans-4e" x="77.490234"/>
     <use xlink:href="#DejaVuSans-44" x="152.294922"/>
    </g>
   </g>
   <g id="text_11">
    <!-- EDWWHRZ8 -->
    <g style="opacity: 0.5" transform="translate(334.785013 130.10096)scale(0.0579 -0.0579)">
     <defs>
      <path id="DejaVuSans-38" d="M 2034 2216 
Q 1584 2216 1326 1975 
Q 1069 1734 1069 1313 
Q 1069 891 1326 650 
Q 1584 409 2034 409 
Q 2484 409 2743 651 
Q 3003 894 3003 1313 
Q 3003 1734 2745 1975 
Q 2488 2216 2034 2216 
z
M 1403 2484 
Q 997 2584 770 2862 
Q 544 3141 544 3541 
Q 544 4100 942 4425 
Q 1341 4750 2034 4750 
Q 2731 4750 3128 4425 
Q 3525 4100 3525 3541 
Q 3525 3141 3298 2862 
Q 3072 2584 2669 2484 
Q 3125 2378 3379 2068 
Q 3634 1759 3634 1313 
Q 3634 634 3220 271 
Q 2806 -91 2034 -91 
Q 1263 -91 848 271 
Q 434 634 434 1313 
Q 434 1759 690 2068 
Q 947 2378 1403 2484 
z
M 1172 3481 
Q 1172 3119 1398 2916 
Q 1625 2713 2034 2713 
Q 2441 2713 2670 2916 
Q 2900 3119 2900 3481 
Q 2900 3844 2670 4047 
Q 2441 4250 2034 4250 
Q 1625 4250 1398 4047 
Q 1172 3844 1172 3481 
z
" transform="scale(0.015625)"/>
     </defs>
     <use xlink:href="#DejaVuSans-45"/>
     <use xlink:href="#DejaVuSans-44" x="63.183594"/>
     <use xlink:href="#DejaVuSans-57" x="140.185547"/>
     <use xlink:href="#DejaVuSans-57" x="239.0625"/>
     <use xlink:href="#DejaVuSans-48" x="337.939453"/>
     <use xlink:href="#DejaVuSans-52" x="413.134766"/>
     <use xlink:href="#DejaVuSans-5a" x="482.617188"/>
     <use xlink:href="#DejaVuSans-38" x="551.123047"/>
    </g>
    <!-- 155 -->
    <g style="opacity: 0.5" transform="translate(347.056194 136.584493)scale(0.0579 -0.0579)">
     <use xlink:href="#DejaVuSans-31"/>
     <use xlink:href="#DejaVuSans-35" x="63.623047"/>
     <use xlink:href="#DejaVuSans-35" x="127.246094"/>
    </g>
    <!-- 75 -->
    <g style="opacity: 0.5" transform="translate(348.898138 143.068027)scale(0.0579 -0.0579)">
     <defs>
      <path id="DejaVuSans-37" d="M 525 4666 
L 3525 4666 
L 3525 4397 
L 1831 0 
L 1172 0 
L 2766 4134 
L 525 4134 
L 525 4666 
z
" transform="scale(0.015625)"/>
     </defs>
     <use xlink:href="#DejaVuSans-37"/>
     <use xlink:href="#DejaVuSans-35" x="63.623047"/>
    </g>
   </g>
   <g id="text_12">
    <!-- EDWWHRZ9 -->
    <g style="opacity: 0.5" transform="translate(407.433703 202.978415)scale(0.0579 -0.0579)">
     <defs>
      <path id="DejaVuSans-39" d="M 703 97 
L 703 672 
Q 941 559 1184 500 
Q 1428 441 1663 441 
Q 2288 441 2617 861 
Q 2947 1281 2994 2138 
Q 2813 1869 2534 1725 
Q 2256 1581 1919 1581 
Q 1219 1581 811 2004 
Q 403 2428 403 3163 
Q 403 3881 828 4315 
Q 1253 4750 1959 4750 
Q 2769 4750 3195 4129 
Q 3622 3509 3622 2328 
Q 3622 1225 3098 567 
Q 2575 -91 1691 -91 
Q 1453 -91 1209 -44 
Q 966 3 703 97 
z
M 1959 2075 
Q 2384 2075 2632 2365 
Q 2881 2656 2881 3163 
Q 2881 3666 2632 3958 
Q 2384 4250 1959 4250 
Q 1534 4250 1286 3958 
Q 1038 3666 1038 3163 
Q 1038 2656 1286 2365 
Q 1534 2075 1959 2075 
z
" transform="scale(0.015625)"/>
     </defs>
     <use xlink:href="#DejaVuSans-45"/>
     <use xlink:href="#DejaVuSans-44" x="63.183594"/>
     <use xlink:href="#DejaVuSans-57" x="140.185547"/>
     <use xlink:href="#DejaVuSans-57" x="239.0625"/>
     <use xlink:href="#DejaVuSans-48" x="337.939453"/>
     <use xlink:href="#DejaVuSans-52" x="413.134766"/>
     <use xlink:href="#DejaVuSans-5a" x="482.617188"/>
     <use xlink:href="#DejaVuSans-39" x="551.123047"/>
    </g>
    <!-- 105 -->
    <g style="opacity: 0.5" transform="translate(419.704884 209.461949)scale(0.0579 -0.0579)">
     <use xlink:href="#DejaVuSans-31"/>
     <use xlink:href="#DejaVuSans-30" x="63.623047"/>
     <use xlink:href="#DejaVuSans-35" x="127.246094"/>
    </g>
    <!-- GND -->
    <g style="opacity: 0.5" transform="translate(418.592571 215.945482)scale(0.0579 -0.0579)">
     <use xlink:href="#DejaVuSans-47"/>
     <use xlink:href="#DejaVuSans-4e" x="77.490234"/>
     <use xlink:href="#DejaVuSans-44" x="152.294922"/>
    </g>
   </g>
   <g id="text_13">
    <!-- GIN1 -->
    <g style="opacity: 0.5" transform="translate(309.067374 307.636285)scale(0.0579 -0.0579)">
     <defs>
      <path id="DejaVuSans-49" d="M 628 4666 
L 1259 4666 
L 1259 0 
L 628 0 
L 628 4666 
z
" transform="scale(0.015625)"/>
     </defs>
     <use xlink:href="#DejaVuSans-47"/>
     <use xlink:href="#DejaVuSans-49" x="77.490234"/>
     <use xlink:href="#DejaVuSans-4e" x="106.982422"/>
     <use xlink:href="#DejaVuSans-31" x="181.787109"/>
    </g>
    <!-- 205 -->
    <g style="opacity: 0.5" transform="translate(310.646506 314.119818)scale(0.0579 -0.0579)">
     <use xlink:href="#DejaVuSans-32"/>
     <use xlink:href="#DejaVuSans-30" x="63.623047"/>
     <use xlink:href="#DejaVuSans-35" x="127.246094"/>
    </g>
    <!-- GND -->
    <g style="opacity: 0.5" transform="translate(309.534193 320.603352)scale(0.0579 -0.0579)">
     <use xlink:href="#DejaVuSans-47"/>
     <use xlink:href="#DejaVuSans-4e" x="77.490234"/>
     <use xlink:href="#DejaVuSans-44" x="152.294922"/>
    </g>
   </g>
   <g id="text_14">
    <!-- GIN6 -->
    <g style="opacity: 0.5" transform="translate(347.829257 200.153298)scale(0.0579 -0.0579)">
     <use xlink:href="#DejaVuSans-47"/>
     <use xlink:href="#DejaVuSans-49" x="77.490234"/>
     <use xlink:href="#DejaVuSans-4e" x="106.982422"/>
     <use xlink:href="#DejaVuSans-36" x="181.787109"/>
    </g>
    <!-- 205 -->
    <g style="opacity: 0.5" transform="translate(349.408389 206.636832)scale(0.0579 -0.0579)">
     <use xlink:href="#DejaVuSans-32"/>
     <use xlink:href="#DejaVuSans-30" x="63.623047"/>
     <use xlink:href="#DejaVuSans-35" x="127.246094"/>
    </g>
    <!-- 105 -->
    <g style="opacity: 0.5" transform="translate(349.408389 213.120365)scale(0.0579 -0.0579)">
     <use xlink:href="#DejaVuSans-31"/>
     <use xlink:href="#DejaVuSans-30" x="63.623047"/>
     <use xlink:href="#DejaVuSans-35" x="127.246094"/>
    </g>
   </g>
   <g id="text_15">
    <!-- GIN9 -->
    <g style="opacity: 0.5" transform="translate(346.308006 210.335933)scale(0.0579 -0.0579)">
     <use xlink:href="#DejaVuSans-47"/>
     <use xlink:href="#DejaVuSans-49" x="77.490234"/>
     <use xlink:href="#DejaVuSans-4e" x="106.982422"/>
     <use xlink:href="#DejaVuSans-39" x="181.787109"/>
    </g>
    <!-- 65 -->
    <g style="opacity: 0.5" transform="translate(349.729082 216.819467)scale(0.0579 -0.0579)">
     <use xlink:href="#DejaVuSans-36"/>
     <use xlink:href="#DejaVuSans-35" x="63.623047"/>
    </g>
    <!-- GND -->
    <g style="opacity: 0.5" transform="translate(346.774825 223.303)scale(0.0579 -0.0579)">
     <use xlink:href="#DejaVuSans-47"/>
     <use xlink:href="#DejaVuSans-4e" x="77.490234"/>
     <use xlink:href="#DejaVuSans-44" x="152.294922"/>
    </g>
   </g>
   <g id="text_16">
    <!-- HMM1 -->
    <g style="opacity: 0.5" transform="translate(187.355186 28.011477)scale(0.0579 -0.0579)">
     <defs>
      <path id="DejaVuSans-4d" d="M 628 4666 
L 1569 4666 
L 2759 1491 
L 3956 4666 
L 4897 4666 
L 4897 0 
L 4281 0 
L 4281 4097 
L 3078 897 
L 2444 897 
L 1241 4097 
L 1241 0 
L 628 0 
L 628 4666 
z
" transform="scale(0.015625)"/>
     </defs>
     <use xlink:href="#DejaVuSans-48"/>
     <use xlink:href="#DejaVuSans-4d" x="75.195312"/>
     <use xlink:href="#DejaVuSans-4d" x="161.474609"/>
     <use xlink:href="#DejaVuSans-31" x="247.753906"/>
    </g>
    <!-- 245 -->
    <g style="opacity: 0.5" transform="translate(190.844113 34.49501)scale(0.0579 -0.0579)">
     <use xlink:href="#DejaVuSans-32"/>
     <use xlink:href="#DejaVuSans-34" x="63.623047"/>
     <use xlink:href="#DejaVuSans-35" x="127.246094"/>
    </g>
    <!-- GND -->
    <g style="opacity: 0.5" transform="translate(189.7318 40.978544)scale(0.0579 -0.0579)">
     <use xlink:href="#DejaVuSans-47"/>
     <use xlink:href="#DejaVuSans-4e" x="77.490234"/>
     <use xlink:href="#DejaVuSans-44" x="152.294922"/>
    </g>
   </g>
   <g id="text_17">
    <!-- HMM3 -->
    <g style="opacity: 0.5" transform="translate(179.78619 108.194515)scale(0.0579 -0.0579)">
     <use xlink:href="#DejaVuSans-48"/>
     <use xlink:href="#DejaVuSans-4d" x="75.195312"/>
     <use xlink:href="#DejaVuSans-4d" x="161.474609"/>
     <use xlink:href="#DejaVuSans-33" x="247.753906"/>
    </g>
    <!-- 245 -->
    <g style="opacity: 0.5" transform="translate(183.275117 114.678049)scale(0.0579 -0.0579)">
     <use xlink:href="#DejaVuSans-32"/>
     <use xlink:href="#DejaVuSans-34" x="63.623047"/>
     <use xlink:href="#DejaVuSans-35" x="127.246094"/>
    </g>
    <!-- 75 -->
    <g style="opacity: 0.5" transform="translate(185.117061 121.161582)scale(0.0579 -0.0579)">
     <use xlink:href="#DejaVuSans-37"/>
     <use xlink:href="#DejaVuSans-35" x="63.623047"/>
    </g>
   </g>
   <g id="text_18">
    <!-- PADH1 -->
    <g style="opacity: 0.5" transform="translate(235.758243 165.380695)scale(0.0579 -0.0579)">
     <defs>
      <path id="DejaVuSans-50" d="M 1259 4147 
L 1259 2394 
L 2053 2394 
Q 2494 2394 2734 2622 
Q 2975 2850 2975 3272 
Q 2975 3691 2734 3919 
Q 2494 4147 2053 4147 
L 1259 4147 
z
M 628 4666 
L 2053 4666 
Q 2838 4666 3239 4311 
Q 3641 3956 3641 3272 
Q 3641 2581 3239 2228 
Q 2838 1875 2053 1875 
L 1259 1875 
L 1259 0 
L 628 0 
L 628 4666 
z
" transform="scale(0.015625)"/>
     </defs>
     <use xlink:href="#DejaVuSans-50"/>
     <use xlink:href="#DejaVuSans-41" x="53.927734"/>
     <use xlink:href="#DejaVuSans-44" x="122.335938"/>
     <use xlink:href="#DejaVuSans-48" x="199.337891"/>
     <use xlink:href="#DejaVuSans-31" x="274.533203"/>
    </g>
    <!-- 245 -->
    <g style="opacity: 0.5" transform="translate(240.022035 171.864228)scale(0.0579 -0.0579)">
     <use xlink:href="#DejaVuSans-32"/>
     <use xlink:href="#DejaVuSans-34" x="63.623047"/>
     <use xlink:href="#DejaVuSans-35" x="127.246094"/>
    </g>
    <!-- 135 -->
    <g style="opacity: 0.5" transform="translate(240.022035 178.347762)scale(0.0579 -0.0579)">
     <use xlink:href="#DejaVuSans-31"/>
     <use xlink:href="#DejaVuSans-33" x="63.623047"/>
     <use xlink:href="#DejaVuSans-35" x="127.246094"/>
    </g>
   </g>
   <g id="text_19">
    <!-- PADH2 -->
    <g style="opacity: 0.5" transform="translate(224.889204 232.030391)scale(0.0579 -0.0579)">
     <use xlink:href="#DejaVuSans-50"/>
     <use xlink:href="#DejaVuSans-41" x="53.927734"/>
     <use xlink:href="#DejaVuSans-44" x="122.335938"/>
     <use xlink:href="#DejaVuSans-48" x="199.337891"/>
     <use xlink:href="#DejaVuSans-32" x="274.533203"/>
    </g>
    <!-- 245 -->
    <g style="opacity: 0.5" transform="translate(229.152996 238.513925)scale(0.0579 -0.0579)">
     <use xlink:href="#DejaVuSans-32"/>
     <use xlink:href="#DejaVuSans-34" x="63.623047"/>
     <use xlink:href="#DejaVuSans-35" x="127.246094"/>
    </g>
    <!-- 115 -->
    <g style="opacity: 0.5" transform="translate(229.152996 244.997458)scale(0.0579 -0.0579)">
     <use xlink:href="#DejaVuSans-31"/>
     <use xlink:href="#DejaVuSans-31" x="63.623047"/>
     <use xlink:href="#DejaVuSans-35" x="127.246094"/>
    </g>
   </g>
   <g id="text_20">
    <!-- SIG1 -->
    <g style="opacity: 0.5" transform="translate(238.204175 330.441782)scale(0.0579 -0.0579)">
     <use xlink:href="#DejaVuSans-53"/>
     <use xlink:href="#DejaVuSans-49" x="63.476562"/>
     <use xlink:href="#DejaVuSans-47" x="92.96875"/>
     <use xlink:href="#DejaVuSans-31" x="170.458984"/>
    </g>
    <!-- 245 -->
    <g style="opacity: 0.5" transform="translate(239.455358 336.925316)scale(0.0579 -0.0579)">
     <use xlink:href="#DejaVuSans-32"/>
     <use xlink:href="#DejaVuSans-34" x="63.623047"/>
     <use xlink:href="#DejaVuSans-35" x="127.246094"/>
    </g>
    <!-- GND -->
    <g style="opacity: 0.5" transform="translate(238.343045 343.408849)scale(0.0579 -0.0579)">
     <use xlink:href="#DejaVuSans-47"/>
     <use xlink:href="#DejaVuSans-4e" x="77.490234"/>
     <use xlink:href="#DejaVuSans-44" x="152.294922"/>
    </g>
   </g>
   <g id="text_21">
    <!-- SIG3 -->
    <g style="opacity: 0.5" transform="translate(229.961078 285.029164)scale(0.0579 -0.0579)">
     <use xlink:href="#DejaVuSans-53"/>
     <use xlink:href="#DejaVuSans-49" x="63.476562"/>
     <use xlink:href="#DejaVuSans-47" x="92.96875"/>
     <use xlink:href="#DejaVuSans-33" x="170.458984"/>
    </g>
    <!-- 245 -->
    <g style="opacity: 0.5" transform="translate(231.21226 291.512697)scale(0.0579 -0.0579)">
     <use xlink:href="#DejaVuSans-32"/>
     <use xlink:href="#DejaVuSans-34" x="63.623047"/>
     <use xlink:href="#DejaVuSans-35" x="127.246094"/>
    </g>
    <!-- 135 -->
    <g style="opacity: 0.5" transform="translate(231.21226 297.996231)scale(0.0579 -0.0579)">
     <use xlink:href="#DejaVuSans-31"/>
     <use xlink:href="#DejaVuSans-33" x="63.623047"/>
     <use xlink:href="#DejaVuSans-35" x="127.246094"/>
    </g>
   </g>
   <g id="text_22">
    <!-- PADL1 -->
    <g transform="translate(236.322316 169.642145)scale(0.0579 -0.0579)">
     <defs>
      <path id="DejaVuSans-4c" d="M 628 4666 
L 1259 4666 
L 1259 531 
L 3531 531 
L 3531 0 
L 628 0 
L 628 4666 
z
" transform="scale(0.015625)"/>
     </defs>
     <use xlink:href="#DejaVuSans-50"/>
     <use xlink:href="#DejaVuSans-41" x="53.927734"/>
     <use xlink:href="#DejaVuSans-44" x="122.335938"/>
     <use xlink:href="#DejaVuSans-4c" x="199.337891"/>
     <use xlink:href="#DejaVuSans-31" x="255.050781"/>
    </g>
    <!-- 135 -->
    <g transform="translate(240.022035 176.125678)scale(0.0579 -0.0579)">
     <use xlink:href="#DejaVuSans-31"/>
     <use xlink:href="#DejaVuSans-33" x="63.623047"/>
     <use xlink:href="#DejaVuSans-35" x="127.246094"/>
    </g>
    <!-- GND -->
    <g transform="translate(238.909722 182.609212)scale(0.0579 -0.0579)">
     <use xlink:href="#DejaVuSans-47"/>
     <use xlink:href="#DejaVuSans-4e" x="77.490234"/>
     <use xlink:href="#DejaVuSans-44" x="152.294922"/>
    </g>
   </g>
   <g id="text_23">
    <!-- PADL2 -->
    <g transform="translate(225.453276 232.030391)scale(0.0579 -0.0579)">
     <use xlink:href="#DejaVuSans-50"/>
     <use xlink:href="#DejaVuSans-41" x="53.927734"/>
     <use xlink:href="#DejaVuSans-44" x="122.335938"/>
     <use xlink:href="#DejaVuSans-4c" x="199.337891"/>
     <use xlink:href="#DejaVuSans-32" x="255.050781"/>
    </g>
    <!-- 115 -->
    <g transform="translate(229.152996 238.513925)scale(0.0579 -0.0579)">
     <use xlink:href="#DejaVuSans-31"/>
     <use xlink:href="#DejaVuSans-31" x="63.623047"/>
     <use xlink:href="#DejaVuSans-35" x="127.246094"/>
    </g>
    <!-- GND -->
    <g transform="translate(228.040683 244.997458)scale(0.0579 -0.0579)">
     <use xlink:href="#DejaVuSans-47"/>
     <use xlink:href="#DejaVuSans-4e" x="77.490234"/>
     <use xlink:href="#DejaVuSans-44" x="152.294922"/>
    </g>
   </g>
   <g id="text_24">
    <!-- PADL3 -->
    <g transform="translate(179.575397 108.194515)scale(0.0579 -0.0579)">
     <use xlink:href="#DejaVuSans-50"/>
     <use xlink:href="#DejaVuSans-41" x="53.927734"/>
     <use xlink:href="#DejaVuSans-44" x="122.335938"/>
     <use xlink:href="#DejaVuSans-4c" x="199.337891"/>
     <use xlink:href="#DejaVuSans-33" x="255.050781"/>
    </g>
    <!-- 75 -->
    <g transform="translate(185.117061 114.678049)scale(0.0579 -0.0579)">
     <use xlink:href="#DejaVuSans-37"/>
     <use xlink:href="#DejaVuSans-35" x="63.623047"/>
    </g>
    <!-- GND -->
    <g transform="translate(182.162804 121.161582)scale(0.0579 -0.0579)">
     <use xlink:href="#DejaVuSans-47"/>
     <use xlink:href="#DejaVuSans-4e" x="77.490234"/>
     <use xlink:href="#DejaVuSans-44" x="152.294922"/>
    </g>
   </g>
   <g id="text_25">
    <!-- PADL4 -->
    <g transform="translate(134.612191 166.208199)scale(0.0579 -0.0579)">
     <use xlink:href="#DejaVuSans-50"/>
     <use xlink:href="#DejaVuSans-41" x="53.927734"/>
     <use xlink:href="#DejaVuSans-44" x="122.335938"/>
     <use xlink:href="#DejaVuSans-4c" x="199.337891"/>
     <use xlink:href="#DejaVuSans-34" x="255.050781"/>
    </g>
    <!-- 65 -->
    <g transform="translate(140.153854 172.691732)scale(0.0579 -0.0579)">
     <use xlink:href="#DejaVuSans-36"/>
     <use xlink:href="#DejaVuSans-35" x="63.623047"/>
    </g>
    <!-- GND -->
    <g transform="translate(137.199597 179.175265)scale(0.0579 -0.0579)">
     <use xlink:href="#DejaVuSans-47"/>
     <use xlink:href="#DejaVuSans-4e" x="77.490234"/>
     <use xlink:href="#DejaVuSans-44" x="152.294922"/>
    </g>
   </g>
   <g id="text_26">
    <!-- PADL5 -->
    <g transform="translate(343.180363 114.292849)scale(0.0579 -0.0579)">
     <use xlink:href="#DejaVuSans-50"/>
     <use xlink:href="#DejaVuSans-41" x="53.927734"/>
     <use xlink:href="#DejaVuSans-44" x="122.335938"/>
     <use xlink:href="#DejaVuSans-4c" x="199.337891"/>
     <use xlink:href="#DejaVuSans-35" x="255.050781"/>
    </g>
    <!-- 75 -->
    <g transform="translate(348.722027 120.776382)scale(0.0579 -0.0579)">
     <use xlink:href="#DejaVuSans-37"/>
     <use xlink:href="#DejaVuSans-35" x="63.623047"/>
    </g>
    <!-- GND -->
    <g transform="translate(345.76777 127.259916)scale(0.0579 -0.0579)">
     <use xlink:href="#DejaVuSans-47"/>
     <use xlink:href="#DejaVuSans-4e" x="77.490234"/>
     <use xlink:href="#DejaVuSans-44" x="152.294922"/>
    </g>
   </g>
  </g>
 </g>
 <defs>
  <clipPath id="p703b2a42d9">
   <rect x="91.690783" y="41.472" width="288.938434" height="266.112"/>
  </clipPath>
 </defs>
</svg>
