<?xml version="1.0" encoding="utf-8" standalone="no"?>
<!DOCTYPE svg PUBLIC "-//W3C//DTD SVG 1.1//EN"
  "http://www.w3.org/Graphics/SVG/1.1/DTD/svg11.dtd">
<svg xmlns:xlink="http://www.w3.org/1999/xlink" width="460.8pt" height="345.6pt" viewBox="0 0 460.8 345.6" xmlns="http://www.w3.org/2000/svg" version="1.1">
 <metadata>
  <rdf:RDF xmlns:dc="http://purl.org/dc/elements/1.1/" xmlns:cc="http://creativecommons.org/ns#" xmlns:rdf="http://www.w3.org/1999/02/22-rdf-syntax-ns#">
   <cc:Work>
    <dc:type rdf:resource="http://purl.org/dc/dcmitype/StillImage"/>
    <dc:date>2022-04-25T23:31:53.069831</dc:date>
    <dc:format>image/svg+xml</dc:format>
    <dc:creator>
     <cc:Agent>
      <dc:title>Matplotlib v3.5.0, https://matplotlib.org/</dc:title>
     </cc:Agent>
    </dc:creator>
   </cc:Work>
  </rdf:RDF>
 </metadata>
 <defs>
  <style type="text/css">*{stroke-linejoin: round; stroke-linecap: butt}</style>
 </defs>
 <g id="figure_1">
  <g id="patch_1">
   <path d="M 0 345.6 
L 460.8 345.6 
L 460.8 0 
L 0 0 
z
" style="fill: #ffffff"/>
  </g>
  <g id="axes_1">
   <g id="patch_2">
    <path d="M 186.769699 202.7739 
L 188.753012 199.901325 
L 187.162768 195.110614 
L 195.471908 194.082824 
L 203.142199 197.870637 
L 204.226582 207.528715 
L 207.641135 205.588988 
L 206.943005 203.397479 
L 208.894171 202.566458 
L 213.160587 206.934056 
L 223.99518 207.661637 
L 229.601872 204.155401 
L 229.987802 200.767465 
L 236.383334 199.411891 
L 240.206547 201.472552 
L 231.270839 217.081954 
L 219.916309 230.036873 
L 208.073495 222.878181 
L 199.417897 217.531394 
z
" clip-path="url(#pcadd71b000)" style="fill: #ffedd9; stroke: #ffedd9; stroke-linejoin: miter"/>
   </g>
   <g id="patch_3">
    <path d="M 166.70298 141.472796 
L 210.391047 139.182751 
L 223.80823 135.191669 
L 242.528831 134.652503 
L 294.740329 140.067701 
L 296.710772 151.982623 
L 296.81543 175.408485 
L 308.804855 192.935999 
L 299.571343 211.918957 
L 286.718811 222.279377 
L 285.476859 220.373438 
L 283.163817 219.815771 
L 282.960162 219.49026 
L 282.477398 219.652296 
L 282.28594 219.055969 
L 280.923305 218.567167 
L 279.376327 218.876255 
L 277.010118 215.199748 
L 275.920456 215.084854 
L 274.215088 217.01896 
L 270.532655 217.933114 
L 267.903746 216.410328 
L 264.540061 214.189897 
L 259.5769 216.559404 
L 251.389423 215.304593 
L 251.374919 212.822589 
L 243.020866 209.452408 
L 239.85045 204.684196 
L 241.313585 202.734997 
L 240.206547 201.472552 
L 236.383334 199.411891 
L 229.987802 200.767465 
L 229.601872 204.155401 
L 223.99518 207.661637 
L 213.160587 206.934056 
L 208.894171 202.566458 
L 206.943005 203.397479 
L 207.641135 205.588988 
L 204.226582 207.528715 
L 203.142199 197.870637 
L 195.471908 194.082824 
L 187.162768 195.110614 
L 188.753012 199.901325 
L 186.769699 202.7739 
L 182.678899 200.31027 
L 179.612612 200.832623 
L 177.814995 196.564093 
L 176.884895 194.342933 
L 175.650007 194.22103 
L 174.186492 189.149094 
L 173.048747 189.177205 
L 173.888604 186.571554 
L 172.408759 186.147251 
L 171.165155 184.529095 
L 167.348121 181.061462 
L 167.75658 180.116672 
L 165.386766 177.552614 
L 166.178233 176.54735 
L 167.370895 177.633593 
L 168.52956 175.534309 
L 166.87917 175.450346 
L 166.693201 173.250785 
L 164.970112 172.452302 
L 164.817143 172.242612 
L 167.709232 172.297481 
L 167.123283 154.643783 
z
" clip-path="url(#pcadd71b000)" style="fill: #ffedd9; stroke: #ffedd9; stroke-linejoin: miter"/>
   </g>
   <g id="patch_4">
    <path d="M 256.962467 119.019127 
L 257.516754 119.331401 
L 275.907348 129.573198 
L 294.740329 140.067701 
L 242.528831 134.652503 
z
" clip-path="url(#pcadd71b000)" style="fill: #ffedd9; stroke: #ffedd9; stroke-linejoin: miter"/>
   </g>
   <g id="patch_5">
    <path d="M 316.425791 138.085421 
L 317.323636 139.113624 
L 313.191779 193.017959 
L 308.804855 192.935999 
L 296.81543 175.408485 
L 296.710772 151.982623 
L 294.740329 140.067701 
z
" clip-path="url(#pcadd71b000)" style="fill: #ffedd9; stroke: #ffedd9; stroke-linejoin: miter"/>
   </g>
   <g id="patch_6">
    <path d="M 308.804855 192.935999 
L 313.191779 193.017959 
L 311.692632 212.73203 
L 309.635129 221.665032 
L 305.042264 226.232256 
L 299.907232 225.93991 
L 299.557875 224.97354 
L 297.419596 226.081315 
L 297.255013 224.802879 
L 295.282952 224.671608 
L 295.235963 224.989019 
L 294.522034 224.651935 
L 293.838201 225.061974 
L 292.476869 224.668752 
L 291.500521 223.860141 
L 290.251026 223.753225 
L 289.895309 223.363737 
L 288.515412 223.368963 
L 286.718811 222.279377 
L 299.571343 211.918957 
z
" clip-path="url(#pcadd71b000)" style="fill: #ffedd9; stroke: #ffedd9; stroke-linejoin: miter"/>
   </g>
   <g id="patch_7">
    <path d="M 240.206547 201.472552 
L 231.270839 217.081954 
L 219.916309 230.036873 
L 199.417897 217.531394 
L 186.769699 202.7739 
L 188.753012 199.901325 
L 187.162768 195.110614 
L 195.471908 194.082824 
L 203.142199 197.870637 
L 204.226582 207.528715 
L 207.641135 205.588988 
L 206.943005 203.397479 
L 208.894171 202.566458 
L 213.160587 206.934056 
L 223.99518 207.661637 
L 229.601872 204.155401 
L 229.987802 200.767465 
L 236.383334 199.411891 
z
" clip-path="url(#pcadd71b000)" style="fill: #ffedd9; stroke: #ffedd9; stroke-linejoin: miter"/>
   </g>
   <g id="patch_8">
    <path d="M 166.70298 141.472796 
L 167.123283 154.643783 
L 167.709232 172.297481 
L 164.490549 164.758753 
L 161.739667 157.744297 
L 154.996364 142.13458 
z
" clip-path="url(#pcadd71b000)" style="fill: #ffedd9; stroke: #ffedd9; stroke-linejoin: miter"/>
   </g>
   <g id="patch_9">
    <path d="M 158.892692 164.648141 
L 164.490549 164.758753 
L 167.709232 172.297481 
L 164.817143 172.242612 
L 164.470383 171.615679 
L 163.575571 171.086652 
L 163.34301 169.901563 
L 164.199813 169.370627 
L 165.014704 169.030016 
L 163.979335 168.022463 
L 163.635599 167.257698 
L 162.20669 166.988555 
L 160.647878 165.372568 
L 159.377669 165.036985 
z
" clip-path="url(#pcadd71b000)" style="fill: #ffedd9; stroke: #ffedd9; stroke-linejoin: miter"/>
   </g>
   <g id="patch_10">
    <path d="M 186.769699 202.7739 
L 188.753012 199.901325 
L 187.162768 195.110614 
L 195.471908 194.082824 
L 203.142199 197.870637 
L 204.226582 207.528715 
L 207.641135 205.588988 
L 206.943005 203.397479 
L 208.894171 202.566458 
L 213.160587 206.934056 
L 223.99518 207.661637 
L 229.601872 204.155401 
L 229.987802 200.767465 
L 236.383334 199.411891 
L 240.206547 201.472552 
L 231.270839 217.081954 
L 219.916309 230.036873 
L 208.073495 222.878181 
L 199.417897 217.531394 
L 186.769699 202.7739 
z
" clip-path="url(#pcadd71b000)" style="fill: #ffedd9; stroke: #ffedd9; stroke-linejoin: miter"/>
   </g>
   <g id="patch_11">
    <path d="M 166.70298 141.472796 
L 210.391047 139.182751 
L 223.80823 135.191669 
L 242.528831 134.652503 
L 294.740329 140.067701 
L 296.710772 151.982623 
L 296.81543 175.408485 
L 308.804855 192.935999 
L 299.571343 211.918957 
L 286.718811 222.279377 
L 285.476859 220.373438 
L 283.163817 219.815771 
L 282.960162 219.49026 
L 282.477398 219.652296 
L 282.28594 219.055969 
L 280.923305 218.567167 
L 279.376327 218.876255 
L 277.010118 215.199748 
L 275.920456 215.084854 
L 274.215088 217.01896 
L 270.532655 217.933114 
L 267.903746 216.410328 
L 264.540061 214.189897 
L 259.5769 216.559404 
L 251.389423 215.304593 
L 251.374919 212.822589 
L 243.020866 209.452408 
L 239.85045 204.684196 
L 241.313585 202.734997 
L 240.206547 201.472552 
L 236.383334 199.411891 
L 229.987802 200.767465 
L 229.601872 204.155401 
L 223.99518 207.661637 
L 213.160587 206.934056 
L 208.894171 202.566458 
L 206.943005 203.397479 
L 207.641135 205.588988 
L 204.226582 207.528715 
L 203.142199 197.870637 
L 195.471908 194.082824 
L 187.162768 195.110614 
L 188.753012 199.901325 
L 186.769699 202.7739 
L 182.678899 200.31027 
L 179.612612 200.832623 
L 177.814995 196.564093 
L 176.884895 194.342933 
L 175.650007 194.22103 
L 174.186492 189.149094 
L 173.048747 189.177205 
L 173.888604 186.571554 
L 172.408759 186.147251 
L 171.165155 184.529095 
L 167.348121 181.061462 
L 167.75658 180.116672 
L 165.386766 177.552614 
L 166.178233 176.54735 
L 167.370895 177.633593 
L 168.52956 175.534309 
L 166.87917 175.450346 
L 166.693201 173.250785 
L 164.970112 172.452302 
L 164.817143 172.242612 
L 167.709232 172.297481 
L 167.123283 154.643783 
L 166.70298 141.472796 
z
" clip-path="url(#pcadd71b000)" style="fill: #ffedd9; stroke: #ffedd9; stroke-linejoin: miter"/>
   </g>
   <g id="patch_12">
    <path d="M 256.962467 119.019127 
L 257.516754 119.331401 
L 275.907348 129.573198 
L 294.740329 140.067701 
L 242.528831 134.652503 
L 256.962467 119.019127 
z
" clip-path="url(#pcadd71b000)" style="fill: #ffedd9; stroke: #ffedd9; stroke-linejoin: miter"/>
   </g>
   <g id="patch_13">
    <path d="M 316.425791 138.085421 
L 317.323636 139.113624 
L 313.191779 193.017959 
L 308.804855 192.935999 
L 296.81543 175.408485 
L 296.710772 151.982623 
L 294.740329 140.067701 
L 316.425791 138.085421 
z
" clip-path="url(#pcadd71b000)" style="fill: #ffedd9; stroke: #ffedd9; stroke-linejoin: miter"/>
   </g>
   <g id="patch_14">
    <path d="M 308.804855 192.935999 
L 313.191779 193.017959 
L 311.692632 212.73203 
L 309.635129 221.665032 
L 305.042264 226.232256 
L 299.907232 225.93991 
L 299.557875 224.97354 
L 297.419596 226.081315 
L 297.255013 224.802879 
L 295.282952 224.671608 
L 295.235963 224.989019 
L 294.522034 224.651935 
L 293.838201 225.061974 
L 292.476869 224.668752 
L 291.500521 223.860141 
L 290.251026 223.753225 
L 289.895309 223.363737 
L 288.515412 223.368963 
L 286.718811 222.279377 
L 299.571343 211.918957 
L 308.804855 192.935999 
z
" clip-path="url(#pcadd71b000)" style="fill: #ffedd9; stroke: #ffedd9; stroke-linejoin: miter"/>
   </g>
   <g id="patch_15">
    <path d="M 240.206547 201.472552 
L 231.270839 217.081954 
L 219.916309 230.036873 
L 199.417897 217.531394 
L 186.769699 202.7739 
L 188.753012 199.901325 
L 187.162768 195.110614 
L 195.471908 194.082824 
L 203.142199 197.870637 
L 204.226582 207.528715 
L 207.641135 205.588988 
L 206.943005 203.397479 
L 208.894171 202.566458 
L 213.160587 206.934056 
L 223.99518 207.661637 
L 229.601872 204.155401 
L 229.987802 200.767465 
L 236.383334 199.411891 
L 240.206547 201.472552 
z
" clip-path="url(#pcadd71b000)" style="fill: #ffedd9; stroke: #ffedd9; stroke-linejoin: miter"/>
   </g>
   <g id="patch_16">
    <path d="M 166.70298 141.472796 
L 167.123283 154.643783 
L 167.709232 172.297481 
L 164.490549 164.758753 
L 161.739667 157.744297 
L 154.996364 142.13458 
L 166.70298 141.472796 
z
" clip-path="url(#pcadd71b000)" style="fill: #ffedd9; stroke: #ffedd9; stroke-linejoin: miter"/>
   </g>
   <g id="patch_17">
    <path d="M 158.892692 164.648141 
L 164.490549 164.758753 
L 167.709232 172.297481 
L 164.817143 172.242612 
L 164.470383 171.615679 
L 163.575571 171.086652 
L 163.34301 169.901563 
L 164.199813 169.370627 
L 165.014704 169.030016 
L 163.979335 168.022463 
L 163.635599 167.257698 
L 162.20669 166.988555 
L 160.647878 165.372568 
L 159.377669 165.036985 
L 158.892692 164.648141 
z
" clip-path="url(#pcadd71b000)" style="fill: #ffedd9; stroke: #ffedd9; stroke-linejoin: miter"/>
   </g>
   <g id="line2d_1">
    <path d="M 186.769699 202.7739 
L 188.753012 199.901325 
L 187.162768 195.110614 
L 195.471908 194.082824 
L 203.142199 197.870637 
L 204.226582 207.528715 
L 207.641135 205.588988 
L 206.943005 203.397479 
L 208.894171 202.566458 
L 213.160587 206.934056 
L 223.99518 207.661637 
L 229.601872 204.155401 
L 229.987802 200.767465 
L 236.383334 199.411891 
L 240.206547 201.472552 
L 231.270839 217.081954 
L 219.916309 230.036873 
L 208.073495 222.878181 
L 199.417897 217.531394 
L 186.769699 202.7739 
" clip-path="url(#pcadd71b000)" style="fill: none; stroke: #ffc380; stroke-width: 0.5; stroke-linecap: square"/>
   </g>
   <g id="line2d_2">
    <path d="M 166.70298 141.472796 
L 210.391047 139.182751 
L 223.80823 135.191669 
L 242.528831 134.652503 
L 294.740329 140.067701 
L 296.710772 151.982623 
L 296.81543 175.408485 
L 308.804855 192.935999 
L 299.571343 211.918957 
L 286.718811 222.279377 
L 285.476859 220.373438 
L 283.163817 219.815771 
L 282.960162 219.49026 
L 282.477398 219.652296 
L 282.28594 219.055969 
L 280.923305 218.567167 
L 279.376327 218.876255 
L 277.010118 215.199748 
L 275.920456 215.084854 
L 274.215088 217.01896 
L 270.532655 217.933114 
L 267.903746 216.410328 
L 264.540061 214.189897 
L 259.5769 216.559404 
L 251.389423 215.304593 
L 251.374919 212.822589 
L 243.020866 209.452408 
L 239.85045 204.684196 
L 241.313585 202.734997 
L 240.206547 201.472552 
L 236.383334 199.411891 
L 229.987802 200.767465 
L 229.601872 204.155401 
L 223.99518 207.661637 
L 213.160587 206.934056 
L 208.894171 202.566458 
L 206.943005 203.397479 
L 207.641135 205.588988 
L 204.226582 207.528715 
L 203.142199 197.870637 
L 195.471908 194.082824 
L 187.162768 195.110614 
L 188.753012 199.901325 
L 186.769699 202.7739 
L 182.678899 200.31027 
L 179.612612 200.832623 
L 177.814995 196.564093 
L 176.884895 194.342933 
L 175.650007 194.22103 
L 174.186492 189.149094 
L 173.048747 189.177205 
L 173.888604 186.571554 
L 172.408759 186.147251 
L 171.165155 184.529095 
L 167.348121 181.061462 
L 167.75658 180.116672 
L 165.386766 177.552614 
L 166.178233 176.54735 
L 167.370895 177.633593 
L 168.52956 175.534309 
L 166.87917 175.450346 
L 166.693201 173.250785 
L 164.970112 172.452302 
L 164.817143 172.242612 
L 167.709232 172.297481 
L 167.123283 154.643783 
L 166.70298 141.472796 
" clip-path="url(#pcadd71b000)" style="fill: none; stroke: #ffc380; stroke-width: 0.5; stroke-linecap: square"/>
   </g>
   <g id="line2d_3">
    <path d="M 256.962467 119.019127 
L 257.516754 119.331401 
L 275.907348 129.573198 
L 294.740329 140.067701 
L 242.528831 134.652503 
L 256.962467 119.019127 
" clip-path="url(#pcadd71b000)" style="fill: none; stroke: #ffc380; stroke-width: 0.5; stroke-linecap: square"/>
   </g>
   <g id="line2d_4">
    <path d="M 316.425791 138.085421 
L 317.323636 139.113624 
L 313.191779 193.017959 
L 308.804855 192.935999 
L 296.81543 175.408485 
L 296.710772 151.982623 
L 294.740329 140.067701 
L 316.425791 138.085421 
" clip-path="url(#pcadd71b000)" style="fill: none; stroke: #ffc380; stroke-width: 0.5; stroke-linecap: square"/>
   </g>
   <g id="line2d_5">
    <path d="M 308.804855 192.935999 
L 313.191779 193.017959 
L 311.692632 212.73203 
L 309.635129 221.665032 
L 305.042264 226.232256 
L 299.907232 225.93991 
L 299.557875 224.97354 
L 297.419596 226.081315 
L 297.255013 224.802879 
L 295.282952 224.671608 
L 295.235963 224.989019 
L 294.522034 224.651935 
L 293.838201 225.061974 
L 292.476869 224.668752 
L 291.500521 223.860141 
L 290.251026 223.753225 
L 289.895309 223.363737 
L 288.515412 223.368963 
L 286.718811 222.279377 
L 299.571343 211.918957 
L 308.804855 192.935999 
" clip-path="url(#pcadd71b000)" style="fill: none; stroke: #ffc380; stroke-width: 0.5; stroke-linecap: square"/>
   </g>
   <g id="line2d_6">
    <path d="M 240.206547 201.472552 
L 231.270839 217.081954 
L 219.916309 230.036873 
L 199.417897 217.531394 
L 186.769699 202.7739 
L 188.753012 199.901325 
L 187.162768 195.110614 
L 195.471908 194.082824 
L 203.142199 197.870637 
L 204.226582 207.528715 
L 207.641135 205.588988 
L 206.943005 203.397479 
L 208.894171 202.566458 
L 213.160587 206.934056 
L 223.99518 207.661637 
L 229.601872 204.155401 
L 229.987802 200.767465 
L 236.383334 199.411891 
L 240.206547 201.472552 
" clip-path="url(#pcadd71b000)" style="fill: none; stroke: #ffc380; stroke-width: 0.5; stroke-linecap: square"/>
   </g>
   <g id="line2d_7">
    <path d="M 166.70298 141.472796 
L 167.123283 154.643783 
L 167.709232 172.297481 
L 164.490549 164.758753 
L 161.739667 157.744297 
L 154.996364 142.13458 
L 166.70298 141.472796 
" clip-path="url(#pcadd71b000)" style="fill: none; stroke: #ffc380; stroke-width: 0.5; stroke-linecap: square"/>
   </g>
   <g id="line2d_8">
    <path d="M 158.892692 164.648141 
L 164.490549 164.758753 
L 167.709232 172.297481 
L 164.817143 172.242612 
L 164.470383 171.615679 
L 163.575571 171.086652 
L 163.34301 169.901563 
L 164.199813 169.370627 
L 165.014704 169.030016 
L 163.979335 168.022463 
L 163.635599 167.257698 
L 162.20669 166.988555 
L 160.647878 165.372568 
L 159.377669 165.036985 
L 158.892692 164.648141 
" clip-path="url(#pcadd71b000)" style="fill: none; stroke: #ffc380; stroke-width: 0.5; stroke-linecap: square"/>
   </g>
   <g id="line2d_9">
    <path d="M 297.160821 61.344578 
L 305.029263 58.872282 
L 310.081224 57.334025 
L 316.798179 55.230447 
L 329.473475 51.316539 
L 322.194856 59.915274 
L 326.897271 73.420047 
L 312.812234 78.782509 
L 297.160821 61.344578 
" clip-path="url(#pcadd71b000)" style="fill: none; stroke: #8f8f8f; stroke-width: 0.2; stroke-linecap: square"/>
   </g>
   <g id="line2d_10">
    <path d="M 299.907232 225.93991 
L 305.042264 226.232256 
L 316.83981 232.514613 
L 334.11474 235.077826 
L 350.770615 231.638908 
L 354.848571 245.13266 
L 361.003524 249.087592 
L 378.757668 260.445395 
L 372.94597 324.976293 
L 354.331235 325.220688 
L 337.598135 325.11754 
L 307.883042 325.176071 
L 299.010573 327.632934 
L 278.53269 333.915348 
L 245.658773 335.916947 
L 246.489147 333.71205 
L 246.344376 331.275656 
L 247.391128 330.026045 
L 248.213045 329.341937 
L 248.425955 328.427134 
L 248.181055 327.08057 
L 249.183217 325.669177 
L 250.860529 323.159651 
L 252.019413 320.290655 
L 253.75995 319.00361 
L 254.556321 316.330367 
L 255.835846 310.998907 
L 255.885152 309.64321 
L 256.224077 308.416866 
L 259.444536 306.706448 
L 260.319068 304.748503 
L 259.224282 298.822663 
L 259.643391 296.357401 
L 262.098431 289.586574 
L 262.25449 285.858263 
L 263.163465 284.814568 
L 264.785108 283.675857 
L 265.442882 281.138907 
L 265.274204 279.652081 
L 265.520264 277.268081 
L 265.003905 274.422499 
L 265.457386 272.600332 
L 267.531059 269.225984 
L 268.334974 266.641922 
L 272.373859 263.967495 
L 278.67759 256.235399 
L 278.721715 252.88275 
L 279.403945 251.840094 
L 280.379428 251.640486 
L 281.970344 251.960933 
L 283.17267 251.091427 
L 283.470321 248.995195 
L 284.240904 248.283072 
L 285.584569 248.177546 
L 286.76958 248.124239 
L 288.538057 246.855573 
L 289.925839 244.497542 
L 291.021736 239.625649 
L 293.090323 234.567825 
L 295.704597 230.717697 
L 297.218744 227.644251 
L 300.328334 226.300367 
L 299.907232 225.93991 
" clip-path="url(#pcadd71b000)" style="fill: none; stroke: #8f8f8f; stroke-width: 0.2; stroke-linecap: square"/>
   </g>
   <g id="line2d_11">
    <path d="M 154.996364 142.13458 
L 161.472028 120.730157 
L 148.670156 112.36224 
L 137.709144 104.527369 
L 137.875439 102.222361 
L 138.522666 92.795111 
L 139.349106 80.442802 
L 139.788157 74.077702 
L 140.435086 64.512509 
L 140.463664 64.237488 
L 150.112002 55.361562 
L 153.598377 45.720111 
L 133.441807 17.676988 
L 129.962445 13.590039 
L 130.423889 0.81504 
L 126.036826 2.664524 
L 126.345892 0.880449 
L 125.464125 -0.383871 
L 125.013955 -1 
M 30.863258 -1 
L 0.731865 97.866653 
L 7.519504 95.077226 
L 31.475357 95.094654 
L 30.134747 110.110679 
L 29.856812 117.790385 
L 40.235194 118.216977 
L 50.086657 126.536598 
L 53.867665 129.09486 
L 61.731242 132.318349 
L 63.932365 134.363726 
L 65.787263 138.016371 
L 70.168607 141.033388 
L 71.068246 142.133686 
L 73.99161 144.165743 
L 75.59151 148.357807 
L 76.352489 150.969471 
L 76.183827 154.618288 
L 100.241546 152.38833 
L 105.588459 151.581175 
L 106.21348 152.392137 
L 106.950954 152.413481 
L 107.910125 154.061157 
L 115.970906 160.230086 
L 120.070723 163.635103 
L 124.584186 162.375031 
L 129.404652 161.291704 
L 135.059619 158.949682 
L 138.360815 157.546726 
L 148.242465 163.04494 
L 151.669699 163.01595 
L 152.341263 163.0303 
L 157.713813 163.142414 
L 158.892692 164.648141 
L 164.490549 164.758753 
L 161.739667 157.744297 
L 154.996364 142.13458 
" clip-path="url(#pcadd71b000)" style="fill: none; stroke: #8f8f8f; stroke-width: 0.2; stroke-linecap: square"/>
   </g>
   <g id="line2d_12">
    <path d="M 138.522666 92.795111 
L 139.349106 80.442802 
L 139.788157 74.077702 
L 140.435086 64.512509 
L 140.463664 64.237488 
L 150.112002 55.361562 
L 153.598377 45.720111 
L 172.744705 38.661084 
L 187.849915 34.785734 
L 190.487441 34.27579 
L 196.009535 63.093644 
L 199.231348 80.090526 
L 201.643806 92.87117 
L 210.391047 139.182751 
L 166.70298 141.472796 
L 166.743074 140.585229 
L 166.106036 123.749944 
L 165.88561 116.716265 
L 164.509006 115.517994 
L 138.522666 92.795111 
" clip-path="url(#pcadd71b000)" style="fill: none; stroke: #8f8f8f; stroke-width: 0.2; stroke-linecap: square"/>
   </g>
   <g id="line2d_13">
    <path d="M 210.391047 139.182751 
L 201.643806 92.87117 
L 199.231348 80.090526 
L 196.009535 63.093644 
L 190.487441 34.27579 
L 195.965068 34.288973 
L 222.345998 34.096037 
L 239.236538 34.034501 
L 242.454195 41.050191 
L 247.038334 52.309534 
L 252.662622 66.119549 
L 255.910007 74.126735 
L 256.33896 92.800321 
L 256.64115 105.34127 
L 256.962467 119.019127 
L 242.528831 134.652503 
L 223.80823 135.191669 
L 210.391047 139.182751 
" clip-path="url(#pcadd71b000)" style="fill: none; stroke: #8f8f8f; stroke-width: 0.2; stroke-linecap: square"/>
   </g>
   <g id="line2d_14">
    <path d="M 104.492885 121.215781 
L 134.567888 120.476478 
L 146.55564 113.555588 
L 148.670156 112.36224 
L 161.472028 120.730157 
L 154.996364 142.13458 
L 149.187755 163.858261 
L 148.705772 163.365262 
L 147.235111 163.022705 
L 146.62365 162.319894 
L 146.390495 161.728851 
L 144.649462 161.483 
L 144.379577 160.546423 
L 143.815466 160.740397 
L 143.163033 159.898438 
L 142.953478 159.273327 
L 143.060295 158.517602 
L 141.721334 158.348983 
L 141.61586 158.070847 
L 140.688449 157.532404 
L 140.176456 157.417082 
L 139.475864 157.710847 
L 139.09645 157.667469 
L 138.426283 157.6172 
L 137.360324 158.212244 
L 136.86658 158.269393 
L 134.461685 157.763421 
L 133.242082 158.216163 
L 132.853364 158.551269 
L 133.411382 159.529938 
L 132.733418 159.78903 
L 132.090798 160.428027 
L 131.39866 159.445908 
L 130.732622 159.222572 
L 130.12511 162.033511 
L 128.902577 162.554276 
L 127.686823 162.799252 
L 126.837058 162.743154 
L 124.956704 162.69486 
L 124.522463 163.028281 
L 124.097618 163.895105 
L 123.735302 164.868997 
L 123.114593 164.611546 
L 122.326566 163.901577 
L 121.266968 164.149384 
L 120.618555 164.097739 
L 120.707496 163.887096 
L 120.228361 163.604834 
L 119.785184 163.420689 
L 119.511925 163.585724 
L 118.912055 163.397323 
L 118.590128 162.871671 
L 118.237522 162.655377 
L 117.630289 161.087959 
L 117.828875 160.36952 
L 117.997555 159.098796 
L 116.926508 158.96637 
L 115.427926 158.098217 
L 114.02253 157.921616 
L 113.514763 157.666266 
L 112.004608 158.037773 
L 111.376358 158.089081 
L 111.002886 157.837291 
L 109.79015 157.975344 
L 108.931543 157.468354 
L 108.382544 156.315191 
L 108.197074 155.758375 
L 107.647974 155.397924 
L 107.262387 154.800849 
L 107.2276 154.455153 
L 107.578781 153.913757 
L 107.412849 153.460881 
L 107.722233 152.814868 
L 107.376553 152.391289 
L 106.948965 152.482362 
L 106.332595 152.912633 
L 105.863254 152.899013 
L 105.778545 151.965872 
L 105.599776 151.960671 
L 104.820495 151.076192 
L 104.367581 151.26975 
L 103.788674 151.183811 
L 103.250417 150.478552 
L 102.180265 149.619591 
L 101.212555 149.832076 
L 100.763397 150.645951 
L 100.804673 151.508954 
L 100.725277 151.628606 
L 99.098424 145.804425 
L 107.42863 135.882061 
L 107.602898 129.855015 
L 104.492885 121.215781 
" clip-path="url(#pcadd71b000)" style="fill: none; stroke: #8f8f8f; stroke-width: 0.2; stroke-linecap: square"/>
   </g>
   <g id="line2d_15">
    <path d="M 161.472028 120.730157 
L 166.106036 123.749944 
L 166.743074 140.585229 
L 166.70298 141.472796 
L 167.123283 154.643783 
L 161.739667 157.744297 
L 154.996364 142.13458 
L 161.472028 120.730157 
" clip-path="url(#pcadd71b000)" style="fill: none; stroke: #8f8f8f; stroke-width: 0.2; stroke-linecap: square"/>
   </g>
   <g id="line2d_16">
    <path d="M 161.739667 157.744297 
L 164.490549 164.758753 
L 167.709232 172.297481 
L 164.817143 172.242612 
L 164.470383 171.615679 
L 163.575571 171.086652 
L 163.34301 169.901563 
L 164.199813 169.370627 
L 165.014704 169.030016 
L 163.979335 168.022463 
L 163.635599 167.257698 
L 162.20669 166.988555 
L 160.647878 165.372568 
L 159.377669 165.036985 
L 158.892692 164.648141 
L 158.432265 164.156377 
L 157.339414 163.927333 
L 156.010359 163.210764 
L 154.754529 162.219743 
L 161.739667 157.744297 
" clip-path="url(#pcadd71b000)" style="fill: none; stroke: #8f8f8f; stroke-width: 0.2; stroke-linecap: square"/>
   </g>
   <g id="line2d_17">
    <path d="M 199.231348 80.090526 
L 216.043095 81.298172 
L 224.803407 82.008077 
L 256.33896 92.800321 
L 256.64115 105.34127 
L 256.962467 119.019127 
L 257.516754 119.331401 
L 275.907348 129.573198 
L 294.740329 140.067701 
L 242.528831 134.652503 
L 223.80823 135.191669 
L 210.391047 139.182751 
L 201.643806 92.87117 
L 199.231348 80.090526 
" clip-path="url(#pcadd71b000)" style="fill: none; stroke: #8f8f8f; stroke-width: 0.2; stroke-linecap: square"/>
   </g>
   <g id="line2d_18">
    <path d="M 256.33896 92.800321 
L 271.898694 88.435679 
L 275.089492 81.377744 
L 281.448842 83.792437 
L 291.411291 83.749378 
L 308.39821 83.696181 
L 312.24651 110.169386 
L 316.425791 138.085421 
L 294.740329 140.067701 
L 275.907348 129.573198 
L 257.516754 119.331401 
L 256.962467 119.019127 
L 256.64115 105.34127 
L 256.33896 92.800321 
" clip-path="url(#pcadd71b000)" style="fill: none; stroke: #8f8f8f; stroke-width: 0.2; stroke-linecap: square"/>
   </g>
   <g id="line2d_19">
    <path d="M 139.349106 80.442802 
L 191.270029 79.423888 
L 199.231348 80.090526 
L 201.643806 92.87117 
L 210.391047 139.182751 
L 166.70298 141.472796 
L 154.996364 142.13458 
L 161.472028 120.730157 
L 148.670156 112.36224 
L 137.709144 104.527369 
L 137.875439 102.222361 
L 138.522666 92.795111 
L 139.349106 80.442802 
" clip-path="url(#pcadd71b000)" style="fill: none; stroke: #8f8f8f; stroke-width: 0.2; stroke-linecap: square"/>
   </g>
   <g id="line2d_20">
    <path d="M 82.466026 186.304467 
L 105.679791 173.127446 
L 120.070723 163.635103 
L 124.584186 162.375031 
L 129.404652 161.291704 
L 138.360815 157.546726 
L 148.242465 163.04494 
L 152.341263 163.0303 
L 157.713813 163.142414 
L 158.892692 164.648141 
L 159.377669 165.036985 
L 160.647878 165.372568 
L 162.20669 166.988555 
L 163.635599 167.257698 
L 163.979335 168.022463 
L 165.014704 169.030016 
L 164.199813 169.370627 
L 163.34301 169.901563 
L 163.575571 171.086652 
L 164.470383 171.615679 
L 164.817143 172.242612 
L 166.693201 173.250785 
L 166.87917 175.450346 
L 168.52956 175.534309 
L 167.370895 177.633593 
L 166.178233 176.54735 
L 165.386766 177.552614 
L 167.75658 180.116672 
L 167.348121 181.061462 
L 171.165155 184.529095 
L 172.408759 186.147251 
L 173.888604 186.571554 
L 173.048747 189.177205 
L 174.186492 189.149094 
L 175.650007 194.22103 
L 176.884895 194.342933 
L 179.612612 200.832623 
L 182.678899 200.31027 
L 186.769699 202.7739 
L 188.753012 199.901325 
L 187.162768 195.110614 
L 195.471908 194.082824 
L 203.142199 197.870637 
L 204.226582 207.528715 
L 207.641135 205.588988 
L 206.943005 203.397479 
L 208.894171 202.566458 
L 213.160587 206.934056 
L 223.99518 207.661637 
L 229.601872 204.155401 
L 229.987802 200.767465 
L 236.383334 199.411891 
L 240.206547 201.472552 
L 241.313585 202.734997 
L 239.85045 204.684196 
L 243.020866 209.452408 
L 251.374919 212.822589 
L 251.389423 215.304593 
L 259.5769 216.559404 
L 264.540061 214.189897 
L 267.903746 216.410328 
L 270.532655 217.933114 
L 274.215088 217.01896 
L 275.920456 215.084854 
L 277.010118 215.199748 
L 279.376327 218.876255 
L 280.923305 218.567167 
L 282.28594 219.055969 
L 282.477398 219.652296 
L 282.960162 219.49026 
L 283.163817 219.815771 
L 285.476859 220.373438 
L 286.718811 222.279377 
L 288.515412 223.368963 
L 289.895309 223.363737 
L 290.251026 223.753225 
L 291.500521 223.860141 
L 292.476869 224.668752 
L 293.838201 225.061974 
L 294.522034 224.651935 
L 295.235963 224.989019 
L 295.282952 224.671608 
L 297.255013 224.802879 
L 297.419596 226.081315 
L 299.557875 224.97354 
L 299.907232 225.93991 
L 300.328334 226.300367 
L 297.218744 227.644251 
L 295.704597 230.717697 
L 293.090323 234.567825 
L 291.021736 239.625649 
L 289.925839 244.497542 
L 288.538057 246.855573 
L 286.76958 248.124239 
L 284.240904 248.283072 
L 283.470321 248.995195 
L 283.17267 251.091427 
L 281.970344 251.960933 
L 280.379428 251.640486 
L 279.403945 251.840094 
L 278.721715 252.88275 
L 278.67759 256.235399 
L 272.373859 263.967495 
L 268.334974 266.641922 
L 267.531059 269.225984 
L 265.457386 272.600332 
L 265.003905 274.422499 
L 265.520264 277.268081 
L 265.274204 279.652081 
L 265.442882 281.138907 
L 264.785108 283.675857 
L 263.163465 284.814568 
L 262.25449 285.858263 
L 262.098431 289.586574 
L 259.643391 296.357401 
L 259.224282 298.822663 
L 260.319068 304.748503 
L 259.444536 306.706448 
L 256.224077 308.416866 
L 255.885152 309.64321 
L 255.835846 310.998907 
L 254.556321 316.330367 
L 253.75995 319.00361 
L 252.019413 320.290655 
L 250.860529 323.159651 
L 248.181055 327.08057 
L 248.425955 328.427134 
L 248.213045 329.341937 
L 247.391128 330.026045 
L 246.344376 331.275656 
L 246.489147 333.71205 
L 245.658773 335.916947 
L 245.781991 336.110618 
L 245.900718 337.103728 
L 246.056071 338.965433 
L 246.134824 339.710209 
L 245.925077 340.14323 
L 245.964104 340.577646 
L 245.839004 340.700998 
L 245.753616 341.134714 
L 245.793338 341.44508 
L 245.627096 341.506168 
L 245.707587 341.940822 
L 245.962371 342.36405 
L 246.423773 342.937284 
L 247.316708 344.368821 
L 248.575632 345.55403 
L 248.996004 346.126863 
L 249.165149 346.6 
M 29.337511 346.6 
L 27.592637 344.971993 
L 46.907872 321.265167 
L 94.084508 312.507874 
L 20.699854 222.949938 
L 82.466026 186.304467 
L 82.466026 186.304467 
" clip-path="url(#pcadd71b000)" style="fill: none; stroke: #8f8f8f; stroke-width: 0.2; stroke-linecap: square"/>
   </g>
   <g id="line2d_21">
    <path d="M 240.206547 201.472552 
L 236.383334 199.411891 
L 229.987802 200.767465 
L 229.601872 204.155401 
L 223.99518 207.661637 
L 213.160587 206.934056 
L 208.894171 202.566458 
L 206.943005 203.397479 
L 207.641135 205.588988 
L 204.226582 207.528715 
L 203.142199 197.870637 
L 195.471908 194.082824 
L 187.162768 195.110614 
L 188.753012 199.901325 
L 186.769699 202.7739 
L 182.678899 200.31027 
L 179.612612 200.832623 
L 176.884895 194.342933 
L 175.650007 194.22103 
L 174.186492 189.149094 
L 173.048747 189.177205 
L 173.888604 186.571554 
L 172.408759 186.147251 
L 171.165155 184.529095 
L 167.348121 181.061462 
L 167.75658 180.116672 
L 165.386766 177.552614 
L 166.178233 176.54735 
L 167.370895 177.633593 
L 168.52956 175.534309 
L 166.87917 175.450346 
L 166.693201 173.250785 
L 164.817143 172.242612 
L 164.470383 171.615679 
L 163.575571 171.086652 
L 163.34301 169.901563 
L 164.199813 169.370627 
L 165.014704 169.030016 
L 163.979335 168.022463 
L 163.635599 167.257698 
L 162.20669 166.988555 
L 160.647878 165.372568 
L 159.377669 165.036985 
L 158.892692 164.648141 
L 123.735302 164.868997 
L 82.466026 186.304467 
L 20.699854 222.949938 
L 94.084508 312.507874 
L 46.907872 321.265167 
L 26.26288 346.6 
M 182.36091 346.6 
L 182.374772 345.717095 
L 219.512933 300.324067 
L 222.763637 300.320958 
L 224.443992 301.818205 
L 226.053709 303.624495 
L 227.75334 305.741262 
L 229.412016 307.409263 
L 231.486374 308.804478 
L 233.726071 309.683384 
L 237.613011 301.338512 
L 255.740935 302.369425 
L 260.319068 304.748503 
L 259.224282 298.822663 
L 259.643391 296.357401 
L 262.098431 289.586574 
L 262.25449 285.858263 
L 263.163465 284.814568 
L 264.785108 283.675857 
L 265.442882 281.138907 
L 265.274204 279.652081 
L 265.520264 277.268081 
L 265.003905 274.422499 
L 265.457386 272.600332 
L 267.531059 269.225984 
L 268.334974 266.641922 
L 272.373859 263.967495 
L 278.67759 256.235399 
L 278.721715 252.88275 
L 279.403945 251.840094 
L 280.379428 251.640486 
L 281.970344 251.960933 
L 283.17267 251.091427 
L 283.470321 248.995195 
L 284.240904 248.283072 
L 286.76958 248.124239 
L 288.538057 246.855573 
L 289.925839 244.497542 
L 291.021736 239.625649 
L 293.090323 234.567825 
L 295.704597 230.717697 
L 297.218744 227.644251 
L 300.328334 226.300367 
L 299.907232 225.93991 
L 299.557875 224.97354 
L 297.419596 226.081315 
L 297.255013 224.802879 
L 295.282952 224.671608 
L 295.235963 224.989019 
L 294.522034 224.651935 
L 293.838201 225.061974 
L 292.476869 224.668752 
L 291.500521 223.860141 
L 290.251026 223.753225 
L 289.895309 223.363737 
L 288.515412 223.368963 
L 286.718811 222.279377 
L 285.476859 220.373438 
L 283.163817 219.815771 
L 282.960162 219.49026 
L 282.477398 219.652296 
L 282.28594 219.055969 
L 280.923305 218.567167 
L 279.376327 218.876255 
L 277.010118 215.199748 
L 275.920456 215.084854 
L 274.215088 217.01896 
L 270.532655 217.933114 
L 267.903746 216.410328 
L 264.540061 214.189897 
L 259.5769 216.559404 
L 251.389423 215.304593 
L 251.374919 212.822589 
L 243.020866 209.452408 
L 239.85045 204.684196 
L 241.313585 202.734997 
L 240.206547 201.472552 
L 240.206547 201.472552 
" clip-path="url(#pcadd71b000)" style="fill: none; stroke: #8f8f8f; stroke-width: 0.2; stroke-linecap: square"/>
   </g>
   <g id="line2d_22">
    <path d="M 199.417897 217.531394 
L 186.769699 202.7739 
L 182.678899 200.31027 
L 179.612612 200.832623 
L 177.814995 196.564093 
L 176.884895 194.342933 
L 175.650007 194.22103 
L 174.186492 189.149094 
L 173.048747 189.177205 
L 173.888604 186.571554 
L 172.408759 186.147251 
L 171.165155 184.529095 
L 167.348121 181.061462 
L 167.75658 180.116672 
L 165.386766 177.552614 
L 166.178233 176.54735 
L 167.370895 177.633593 
L 168.52956 175.534309 
L 166.87917 175.450346 
L 166.693201 173.250785 
L 164.817143 172.242612 
L 164.470383 171.615679 
L 163.575571 171.086652 
L 163.34301 169.901563 
L 164.199813 169.370627 
L 165.014704 169.030016 
L 163.979335 168.022463 
L 163.635599 167.257698 
L 162.20669 166.988555 
L 160.647878 165.372568 
L 159.377669 165.036985 
L 158.892692 164.648141 
L 123.735302 164.868997 
L 82.466026 186.304467 
L 20.699854 222.949938 
L 67.528935 280.103816 
L 94.084508 312.507874 
L 117.04954 320.909605 
L 166.338707 341.033061 
L 185.946242 341.360628 
L 205.359009 317.811548 
L 206.26868 316.616381 
L 210.318672 311.666861 
L 219.512933 300.324067 
L 222.763637 300.320958 
L 224.443992 301.818205 
L 226.053709 303.624495 
L 227.75334 305.741262 
L 229.412016 307.409263 
L 231.486374 308.804478 
L 233.726071 309.683384 
L 237.613011 301.338512 
L 253.886723 302.258187 
L 255.740935 302.369425 
L 260.319068 304.748503 
L 259.224282 298.822663 
L 259.643391 296.357401 
L 262.098431 289.586574 
L 262.25449 285.858263 
L 263.163465 284.814568 
L 264.785108 283.675857 
L 265.442882 281.138907 
L 265.274204 279.652081 
L 265.520264 277.268081 
L 265.003905 274.422499 
L 265.457386 272.600332 
L 267.531059 269.225984 
L 268.334974 266.641922 
L 272.373859 263.967495 
L 278.67759 256.235399 
L 278.721715 252.88275 
L 279.403945 251.840094 
L 280.379428 251.640486 
L 281.970344 251.960933 
L 283.17267 251.091427 
L 283.470321 248.995195 
L 284.240904 248.283072 
L 285.584569 248.177546 
L 286.76958 248.124239 
L 288.538057 246.855573 
L 289.925839 244.497542 
L 291.021736 239.625649 
L 293.090323 234.567825 
L 295.704597 230.717697 
L 297.218744 227.644251 
L 300.328334 226.300367 
L 299.907232 225.93991 
L 299.557875 224.97354 
L 297.419596 226.081315 
L 297.255013 224.802879 
L 295.282952 224.671608 
L 295.235963 224.989019 
L 294.522034 224.651935 
L 293.838201 225.061974 
L 292.476869 224.668752 
L 291.500521 223.860141 
L 290.251026 223.753225 
L 289.895309 223.363737 
L 288.515412 223.368963 
L 286.718811 222.279377 
L 285.476859 220.373438 
L 283.163817 219.815771 
L 282.960162 219.49026 
L 282.477398 219.652296 
L 282.28594 219.055969 
L 280.923305 218.567167 
L 279.376327 218.876255 
L 277.010118 215.199748 
L 275.920456 215.084854 
L 274.215088 217.01896 
L 270.532655 217.933114 
L 267.903746 216.410328 
L 264.540061 214.189897 
L 259.5769 216.559404 
L 251.389423 215.304593 
L 251.374919 212.822589 
L 243.020866 209.452408 
L 239.85045 204.684196 
L 241.313585 202.734997 
L 240.206547 201.472552 
L 231.270839 217.081954 
L 219.916309 230.036873 
L 208.073495 222.878181 
L 199.417897 217.531394 
" clip-path="url(#pcadd71b000)" style="fill: none; stroke: #8f8f8f; stroke-width: 0.2; stroke-linecap: square"/>
   </g>
   <g id="line2d_23">
    <path d="M 299.907232 225.93991 
L 305.042264 226.232256 
L 316.83981 232.514613 
L 317.369285 222.451261 
L 311.692632 212.73203 
L 299.571343 211.918957 
L 286.718811 222.279377 
L 288.515412 223.368963 
L 289.895309 223.363737 
L 290.251026 223.753225 
L 291.500521 223.860141 
L 292.476869 224.668752 
L 293.838201 225.061974 
L 294.522034 224.651935 
L 295.235963 224.989019 
L 295.282952 224.671608 
L 297.255013 224.802879 
L 297.419596 226.081315 
L 299.557875 224.97354 
L 299.907232 225.93991 
" clip-path="url(#pcadd71b000)" style="fill: none; stroke: #8f8f8f; stroke-width: 0.2; stroke-linecap: square"/>
   </g>
   <g id="line2d_24">
    <path d="M 343.619792 135.591326 
L 342.216253 151.074678 
L 338.482632 193.590969 
L 313.191779 193.017959 
L 317.323636 139.113624 
L 316.425791 138.085421 
L 320.70326 137.679966 
L 343.619792 135.591326 
" clip-path="url(#pcadd71b000)" style="fill: none; stroke: #8f8f8f; stroke-width: 0.2; stroke-linecap: square"/>
   </g>
   <g id="line2d_25">
    <path d="M 365.950535 191.617316 
L 363.384917 221.732162 
L 362.760424 229.183039 
L 350.770615 231.638908 
L 334.11474 235.077826 
L 316.83981 232.514613 
L 305.042264 226.232256 
L 309.635129 221.665032 
L 311.692632 212.73203 
L 313.191779 193.017959 
L 338.482632 193.590969 
L 361.46219 194.124359 
L 365.950535 191.617316 
" clip-path="url(#pcadd71b000)" style="fill: none; stroke: #8f8f8f; stroke-width: 0.2; stroke-linecap: square"/>
   </g>
   <g id="line2d_26">
    <path d="M 343.619792 135.591326 
L 342.216253 151.074678 
L 338.482632 193.590969 
L 313.191779 193.017959 
L 317.323636 139.113624 
L 316.425791 138.085421 
L 320.70326 137.679966 
L 343.619792 135.591326 
" clip-path="url(#pcadd71b000)" style="fill: none; stroke: #8f8f8f; stroke-width: 0.2; stroke-linecap: square"/>
   </g>
   <g id="line2d_27">
    <path d="M 316.425791 138.085421 
L 317.323636 139.113624 
L 313.191779 193.017959 
L 308.804855 192.935999 
L 296.81543 175.408485 
L 296.710772 151.982623 
L 294.740329 140.067701 
L 316.425791 138.085421 
" clip-path="url(#pcadd71b000)" style="fill: none; stroke: #8f8f8f; stroke-width: 0.2; stroke-linecap: square"/>
   </g>
   <g id="line2d_28">
    <path d="M 278.53269 333.915348 
L 245.658773 335.916947 
L 246.489147 333.71205 
L 246.344376 331.275656 
L 247.391128 330.026045 
L 248.213045 329.341937 
L 248.425955 328.427134 
L 248.181055 327.08057 
L 249.183217 325.669177 
L 250.860529 323.159651 
L 252.019413 320.290655 
L 253.75995 319.00361 
L 254.556321 316.330367 
L 255.835846 310.998907 
L 255.885152 309.64321 
L 256.224077 308.416866 
L 259.444536 306.706448 
L 260.319068 304.748503 
L 259.224282 298.822663 
L 259.643391 296.357401 
L 262.098431 289.586574 
L 262.25449 285.858263 
L 263.163465 284.814568 
L 264.785108 283.675857 
L 265.442882 281.138907 
L 265.274204 279.652081 
L 265.520264 277.268081 
L 265.003905 274.422499 
L 265.457386 272.600332 
L 267.531059 269.225984 
L 268.334974 266.641922 
L 272.373859 263.967495 
L 278.67759 256.235399 
L 278.721715 252.88275 
L 279.403945 251.840094 
L 280.379428 251.640486 
L 281.970344 251.960933 
L 283.17267 251.091427 
L 283.470321 248.995195 
L 284.240904 248.283072 
L 285.584569 248.177546 
L 286.76958 248.124239 
L 288.538057 246.855573 
L 289.925839 244.497542 
L 291.021736 239.625649 
L 293.090323 234.567825 
L 295.704597 230.717697 
L 297.218744 227.644251 
L 300.328334 226.300367 
L 299.907232 225.93991 
L 305.042264 226.232256 
L 316.83981 232.514613 
L 316.696541 246.98591 
L 278.53269 333.915348 
" clip-path="url(#pcadd71b000)" style="fill: none; stroke: #8f8f8f; stroke-width: 0.2; stroke-linecap: square"/>
   </g>
   <g id="line2d_29">
    <path d="M 398.848954 187.383882 
L 426.050985 206.097387 
L 435.415026 213.347545 
L 452.083814 226.279434 
L 426.382263 244.070275 
L 421.332082 247.564724 
L 358.260043 267.660498 
L 351.738677 268.944115 
L 346.783947 269.963272 
L 316.696541 246.98591 
L 316.83981 232.514613 
L 317.369285 222.451261 
L 311.692632 212.73203 
L 313.191779 193.017959 
L 338.482632 193.590969 
L 361.46219 194.124359 
L 365.950535 191.617316 
L 368.11537 190.415345 
L 376.244405 189.604851 
L 398.848954 187.383882 
" clip-path="url(#pcadd71b000)" style="fill: none; stroke: #8f8f8f; stroke-width: 0.2; stroke-linecap: square"/>
   </g>
   <g id="line2d_30">
    <path d="M 308.804855 192.935999 
L 313.191779 193.017959 
L 311.692632 212.73203 
L 299.571343 211.918957 
L 308.804855 192.935999 
" clip-path="url(#pcadd71b000)" style="fill: none; stroke: #8f8f8f; stroke-width: 0.2; stroke-linecap: square"/>
   </g>
   <g id="line2d_31">
    <path d="M 311.692632 212.73203 
L 309.635129 221.665032 
L 305.042264 226.232256 
L 299.907232 225.93991 
L 299.557875 224.97354 
L 297.419596 226.081315 
L 297.255013 224.802879 
L 295.282952 224.671608 
L 295.235963 224.989019 
L 294.522034 224.651935 
L 293.838201 225.061974 
L 292.476869 224.668752 
L 291.500521 223.860141 
L 290.251026 223.753225 
L 289.895309 223.363737 
L 288.515412 223.368963 
L 286.718811 222.279377 
L 299.571343 211.918957 
L 311.692632 212.73203 
" clip-path="url(#pcadd71b000)" style="fill: none; stroke: #8f8f8f; stroke-width: 0.2; stroke-linecap: square"/>
   </g>
   <g id="line2d_32">
    <path d="M 186.769699 202.7739 
L 188.753012 199.901325 
L 187.162768 195.110614 
L 195.471908 194.082824 
L 203.142199 197.870637 
L 204.226582 207.528715 
L 207.641135 205.588988 
L 206.943005 203.397479 
L 208.894171 202.566458 
L 213.160587 206.934056 
L 223.99518 207.661637 
L 229.601872 204.155401 
L 229.987802 200.767465 
L 236.383334 199.411891 
L 240.206547 201.472552 
L 231.270839 217.081954 
L 219.916309 230.036873 
L 208.073495 222.878181 
L 199.417897 217.531394 
L 186.769699 202.7739 
L 186.769699 202.7739 
" clip-path="url(#pcadd71b000)" style="fill: none; stroke: #ffc380; stroke-width: 0.5; stroke-linecap: square"/>
   </g>
   <g id="line2d_33">
    <path d="M 166.70298 141.472796 
L 210.391047 139.182751 
L 223.80823 135.191669 
L 242.528831 134.652503 
L 294.740329 140.067701 
L 296.710772 151.982623 
L 296.81543 175.408485 
L 308.804855 192.935999 
L 299.571343 211.918957 
L 286.718811 222.279377 
L 285.476859 220.373438 
L 283.163817 219.815771 
L 282.960162 219.49026 
L 282.477398 219.652296 
L 282.28594 219.055969 
L 280.923305 218.567167 
L 279.376327 218.876255 
L 277.010118 215.199748 
L 275.920456 215.084854 
L 274.215088 217.01896 
L 270.532655 217.933114 
L 267.903746 216.410328 
L 264.540061 214.189897 
L 259.5769 216.559404 
L 251.389423 215.304593 
L 251.374919 212.822589 
L 243.020866 209.452408 
L 239.85045 204.684196 
L 241.313585 202.734997 
L 240.206547 201.472552 
L 236.383334 199.411891 
L 229.987802 200.767465 
L 229.601872 204.155401 
L 223.99518 207.661637 
L 213.160587 206.934056 
L 208.894171 202.566458 
L 206.943005 203.397479 
L 207.641135 205.588988 
L 204.226582 207.528715 
L 203.142199 197.870637 
L 195.471908 194.082824 
L 187.162768 195.110614 
L 188.753012 199.901325 
L 186.769699 202.7739 
L 182.678899 200.31027 
L 179.612612 200.832623 
L 177.814995 196.564093 
L 176.884895 194.342933 
L 175.650007 194.22103 
L 174.186492 189.149094 
L 173.048747 189.177205 
L 173.888604 186.571554 
L 172.408759 186.147251 
L 171.165155 184.529095 
L 167.348121 181.061462 
L 167.75658 180.116672 
L 165.386766 177.552614 
L 166.178233 176.54735 
L 167.370895 177.633593 
L 168.52956 175.534309 
L 166.87917 175.450346 
L 166.693201 173.250785 
L 164.970112 172.452302 
L 164.817143 172.242612 
L 167.709232 172.297481 
L 167.123283 154.643783 
L 166.70298 141.472796 
L 166.70298 141.472796 
" clip-path="url(#pcadd71b000)" style="fill: none; stroke: #ffc380; stroke-width: 0.5; stroke-linecap: square"/>
   </g>
   <g id="line2d_34">
    <path d="M 256.962467 119.019127 
L 257.516754 119.331401 
L 275.907348 129.573198 
L 294.740329 140.067701 
L 242.528831 134.652503 
L 256.962467 119.019127 
L 256.962467 119.019127 
" clip-path="url(#pcadd71b000)" style="fill: none; stroke: #ffc380; stroke-width: 0.5; stroke-linecap: square"/>
   </g>
   <g id="line2d_35">
    <path d="M 316.425791 138.085421 
L 317.323636 139.113624 
L 313.191779 193.017959 
L 308.804855 192.935999 
L 296.81543 175.408485 
L 296.710772 151.982623 
L 294.740329 140.067701 
L 316.425791 138.085421 
L 316.425791 138.085421 
" clip-path="url(#pcadd71b000)" style="fill: none; stroke: #ffc380; stroke-width: 0.5; stroke-linecap: square"/>
   </g>
   <g id="line2d_36">
    <path d="M 308.804855 192.935999 
L 313.191779 193.017959 
L 311.692632 212.73203 
L 309.635129 221.665032 
L 305.042264 226.232256 
L 299.907232 225.93991 
L 299.557875 224.97354 
L 297.419596 226.081315 
L 297.255013 224.802879 
L 295.282952 224.671608 
L 295.235963 224.989019 
L 294.522034 224.651935 
L 293.838201 225.061974 
L 292.476869 224.668752 
L 291.500521 223.860141 
L 290.251026 223.753225 
L 289.895309 223.363737 
L 288.515412 223.368963 
L 286.718811 222.279377 
L 299.571343 211.918957 
L 308.804855 192.935999 
L 308.804855 192.935999 
" clip-path="url(#pcadd71b000)" style="fill: none; stroke: #ffc380; stroke-width: 0.5; stroke-linecap: square"/>
   </g>
   <g id="line2d_37">
    <path d="M 240.206547 201.472552 
L 231.270839 217.081954 
L 219.916309 230.036873 
L 199.417897 217.531394 
L 186.769699 202.7739 
L 188.753012 199.901325 
L 187.162768 195.110614 
L 195.471908 194.082824 
L 203.142199 197.870637 
L 204.226582 207.528715 
L 207.641135 205.588988 
L 206.943005 203.397479 
L 208.894171 202.566458 
L 213.160587 206.934056 
L 223.99518 207.661637 
L 229.601872 204.155401 
L 229.987802 200.767465 
L 236.383334 199.411891 
L 240.206547 201.472552 
L 240.206547 201.472552 
" clip-path="url(#pcadd71b000)" style="fill: none; stroke: #ffc380; stroke-width: 0.5; stroke-linecap: square"/>
   </g>
   <g id="line2d_38">
    <path d="M 166.70298 141.472796 
L 167.123283 154.643783 
L 167.709232 172.297481 
L 164.490549 164.758753 
L 161.739667 157.744297 
L 154.996364 142.13458 
L 166.70298 141.472796 
L 166.70298 141.472796 
" clip-path="url(#pcadd71b000)" style="fill: none; stroke: #ffc380; stroke-width: 0.5; stroke-linecap: square"/>
   </g>
   <g id="line2d_39">
    <path d="M 158.892692 164.648141 
L 164.490549 164.758753 
L 167.709232 172.297481 
L 164.817143 172.242612 
L 164.470383 171.615679 
L 163.575571 171.086652 
L 163.34301 169.901563 
L 164.199813 169.370627 
L 165.014704 169.030016 
L 163.979335 168.022463 
L 163.635599 167.257698 
L 162.20669 166.988555 
L 160.647878 165.372568 
L 159.377669 165.036985 
L 158.892692 164.648141 
L 158.892692 164.648141 
" clip-path="url(#pcadd71b000)" style="fill: none; stroke: #ffc380; stroke-width: 0.5; stroke-linecap: square"/>
   </g>
   <g id="text_1">
    <!-- ADF8 -->
    <g style="opacity: 0.5" transform="translate(305.600616 60.163669)scale(0.0579 -0.0579)">
     <defs>
      <path id="DejaVuSans-41" d="M 2188 4044 
L 1331 1722 
L 3047 1722 
L 2188 4044 
z
M 1831 4666 
L 2547 4666 
L 4325 0 
L 3669 0 
L 3244 1197 
L 1141 1197 
L 716 0 
L 50 0 
L 1831 4666 
z
" transform="scale(0.015625)"/>
      <path id="DejaVuSans-44" d="M 1259 4147 
L 1259 519 
L 2022 519 
Q 2988 519 3436 956 
Q 3884 1394 3884 2338 
Q 3884 3275 3436 3711 
Q 2988 4147 2022 4147 
L 1259 4147 
z
M 628 4666 
L 1925 4666 
Q 3281 4666 3915 4102 
Q 4550 3538 4550 2338 
Q 4550 1131 3912 565 
Q 3275 0 1925 0 
L 628 0 
L 628 4666 
z
" transform="scale(0.015625)"/>
      <path id="DejaVuSans-46" d="M 628 4666 
L 3309 4666 
L 3309 4134 
L 1259 4134 
L 1259 2759 
L 3109 2759 
L 3109 2228 
L 1259 2228 
L 1259 0 
L 628 0 
L 628 4666 
z
" transform="scale(0.015625)"/>
      <path id="DejaVuSans-38" d="M 2034 2216 
Q 1584 2216 1326 1975 
Q 1069 1734 1069 1313 
Q 1069 891 1326 650 
Q 1584 409 2034 409 
Q 2484 409 2743 651 
Q 3003 894 3003 1313 
Q 3003 1734 2745 1975 
Q 2488 2216 2034 2216 
z
M 1403 2484 
Q 997 2584 770 2862 
Q 544 3141 544 3541 
Q 544 4100 942 4425 
Q 1341 4750 2034 4750 
Q 2731 4750 3128 4425 
Q 3525 4100 3525 3541 
Q 3525 3141 3298 2862 
Q 3072 2584 2669 2484 
Q 3125 2378 3379 2068 
Q 3634 1759 3634 1313 
Q 3634 634 3220 271 
Q 2806 -91 2034 -91 
Q 1263 -91 848 271 
Q 434 634 434 1313 
Q 434 1759 690 2068 
Q 947 2378 1403 2484 
z
M 1172 3481 
Q 1172 3119 1398 2916 
Q 1625 2713 2034 2713 
Q 2441 2713 2670 2916 
Q 2900 3119 2900 3481 
Q 2900 3844 2670 4047 
Q 2441 4250 2034 4250 
Q 1625 4250 1398 4047 
Q 1172 3844 1172 3481 
z
" transform="scale(0.015625)"/>
     </defs>
     <use xlink:href="#DejaVuSans-41"/>
     <use xlink:href="#DejaVuSans-44" x="68.408203"/>
     <use xlink:href="#DejaVuSans-46" x="145.410156"/>
     <use xlink:href="#DejaVuSans-38" x="202.929688"/>
    </g>
    <!-- 135 -->
    <g style="opacity: 0.5" transform="translate(307.791317 66.647202)scale(0.0579 -0.0579)">
     <defs>
      <path id="DejaVuSans-31" d="M 794 531 
L 1825 531 
L 1825 4091 
L 703 3866 
L 703 4441 
L 1819 4666 
L 2450 4666 
L 2450 531 
L 3481 531 
L 3481 0 
L 794 0 
L 794 531 
z
" transform="scale(0.015625)"/>
      <path id="DejaVuSans-33" d="M 2597 2516 
Q 3050 2419 3304 2112 
Q 3559 1806 3559 1356 
Q 3559 666 3084 287 
Q 2609 -91 1734 -91 
Q 1441 -91 1130 -33 
Q 819 25 488 141 
L 488 750 
Q 750 597 1062 519 
Q 1375 441 1716 441 
Q 2309 441 2620 675 
Q 2931 909 2931 1356 
Q 2931 1769 2642 2001 
Q 2353 2234 1838 2234 
L 1294 2234 
L 1294 2753 
L 1863 2753 
Q 2328 2753 2575 2939 
Q 2822 3125 2822 3475 
Q 2822 3834 2567 4026 
Q 2313 4219 1838 4219 
Q 1578 4219 1281 4162 
Q 984 4106 628 3988 
L 628 4550 
Q 988 4650 1302 4700 
Q 1616 4750 1894 4750 
Q 2613 4750 3031 4423 
Q 3450 4097 3450 3541 
Q 3450 3153 3228 2886 
Q 3006 2619 2597 2516 
z
" transform="scale(0.015625)"/>
      <path id="DejaVuSans-35" d="M 691 4666 
L 3169 4666 
L 3169 4134 
L 1269 4134 
L 1269 2991 
Q 1406 3038 1543 3061 
Q 1681 3084 1819 3084 
Q 2600 3084 3056 2656 
Q 3513 2228 3513 1497 
Q 3513 744 3044 326 
Q 2575 -91 1722 -91 
Q 1428 -91 1123 -41 
Q 819 9 494 109 
L 494 744 
Q 775 591 1075 516 
Q 1375 441 1709 441 
Q 2250 441 2565 725 
Q 2881 1009 2881 1497 
Q 2881 1984 2565 2268 
Q 2250 2553 1709 2553 
Q 1456 2553 1204 2497 
Q 953 2441 691 2322 
L 691 4666 
z
" transform="scale(0.015625)"/>
     </defs>
     <use xlink:href="#DejaVuSans-31"/>
     <use xlink:href="#DejaVuSans-33" x="63.623047"/>
     <use xlink:href="#DejaVuSans-35" x="127.246094"/>
    </g>
    <!-- GND -->
    <g style="opacity: 0.5" transform="translate(306.679003 73.130736)scale(0.0579 -0.0579)">
     <defs>
      <path id="DejaVuSans-47" d="M 3809 666 
L 3809 1919 
L 2778 1919 
L 2778 2438 
L 4434 2438 
L 4434 434 
Q 4069 175 3628 42 
Q 3188 -91 2688 -91 
Q 1594 -91 976 548 
Q 359 1188 359 2328 
Q 359 3472 976 4111 
Q 1594 4750 2688 4750 
Q 3144 4750 3555 4637 
Q 3966 4525 4313 4306 
L 4313 3634 
Q 3963 3931 3569 4081 
Q 3175 4231 2741 4231 
Q 1884 4231 1454 3753 
Q 1025 3275 1025 2328 
Q 1025 1384 1454 906 
Q 1884 428 2741 428 
Q 3075 428 3337 486 
Q 3600 544 3809 666 
z
" transform="scale(0.015625)"/>
      <path id="DejaVuSans-4e" d="M 628 4666 
L 1478 4666 
L 3547 763 
L 3547 4666 
L 4159 4666 
L 4159 0 
L 3309 0 
L 1241 3903 
L 1241 0 
L 628 0 
L 628 4666 
z
" transform="scale(0.015625)"/>
     </defs>
     <use xlink:href="#DejaVuSans-47"/>
     <use xlink:href="#DejaVuSans-4e" x="77.490234"/>
     <use xlink:href="#DejaVuSans-44" x="152.294922"/>
    </g>
   </g>
   <g id="text_2">
    <!-- BAD1 -->
    <g style="opacity: 0.5" transform="translate(304.170524 276.042573)scale(0.0579 -0.0579)">
     <defs>
      <path id="DejaVuSans-42" d="M 1259 2228 
L 1259 519 
L 2272 519 
Q 2781 519 3026 730 
Q 3272 941 3272 1375 
Q 3272 1813 3026 2020 
Q 2781 2228 2272 2228 
L 1259 2228 
z
M 1259 4147 
L 1259 2741 
L 2194 2741 
Q 2656 2741 2882 2914 
Q 3109 3088 3109 3444 
Q 3109 3797 2882 3972 
Q 2656 4147 2194 4147 
L 1259 4147 
z
M 628 4666 
L 2241 4666 
Q 2963 4666 3353 4366 
Q 3744 4066 3744 3513 
Q 3744 3084 3544 2831 
Q 3344 2578 2956 2516 
Q 3422 2416 3680 2098 
Q 3938 1781 3938 1306 
Q 3938 681 3513 340 
Q 3088 0 2303 0 
L 628 0 
L 628 4666 
z
" transform="scale(0.015625)"/>
     </defs>
     <use xlink:href="#DejaVuSans-42"/>
     <use xlink:href="#DejaVuSans-41" x="68.603516"/>
     <use xlink:href="#DejaVuSans-44" x="137.011719"/>
     <use xlink:href="#DejaVuSans-31" x="214.013672"/>
    </g>
    <!-- 245 -->
    <g style="opacity: 0.5" transform="translate(306.682389 282.526106)scale(0.0579 -0.0579)">
     <defs>
      <path id="DejaVuSans-32" d="M 1228 531 
L 3431 531 
L 3431 0 
L 469 0 
L 469 531 
Q 828 903 1448 1529 
Q 2069 2156 2228 2338 
Q 2531 2678 2651 2914 
Q 2772 3150 2772 3378 
Q 2772 3750 2511 3984 
Q 2250 4219 1831 4219 
Q 1534 4219 1204 4116 
Q 875 4013 500 3803 
L 500 4441 
Q 881 4594 1212 4672 
Q 1544 4750 1819 4750 
Q 2544 4750 2975 4387 
Q 3406 4025 3406 3419 
Q 3406 3131 3298 2873 
Q 3191 2616 2906 2266 
Q 2828 2175 2409 1742 
Q 1991 1309 1228 531 
z
" transform="scale(0.015625)"/>
      <path id="DejaVuSans-34" d="M 2419 4116 
L 825 1625 
L 2419 1625 
L 2419 4116 
z
M 2253 4666 
L 3047 4666 
L 3047 1625 
L 3713 1625 
L 3713 1100 
L 3047 1100 
L 3047 0 
L 2419 0 
L 2419 1100 
L 313 1100 
L 313 1709 
L 2253 4666 
z
" transform="scale(0.015625)"/>
     </defs>
     <use xlink:href="#DejaVuSans-32"/>
     <use xlink:href="#DejaVuSans-34" x="63.623047"/>
     <use xlink:href="#DejaVuSans-35" x="127.246094"/>
    </g>
    <!-- 145 -->
    <g style="opacity: 0.5" transform="translate(306.682389 289.00964)scale(0.0579 -0.0579)">
     <use xlink:href="#DejaVuSans-31"/>
     <use xlink:href="#DejaVuSans-34" x="63.623047"/>
     <use xlink:href="#DejaVuSans-35" x="127.246094"/>
    </g>
   </g>
   <g id="text_3">
    <!-- EBBU_E_CTR UPPER -->
    <g style="opacity: 0.5" transform="translate(53.794196 37.830244)scale(0.0579 -0.0579)">
     <defs>
      <path id="DejaVuSans-45" d="M 628 4666 
L 3578 4666 
L 3578 4134 
L 1259 4134 
L 1259 2753 
L 3481 2753 
L 3481 2222 
L 1259 2222 
L 1259 531 
L 3634 531 
L 3634 0 
L 628 0 
L 628 4666 
z
" transform="scale(0.015625)"/>
      <path id="DejaVuSans-55" d="M 556 4666 
L 1191 4666 
L 1191 1831 
Q 1191 1081 1462 751 
Q 1734 422 2344 422 
Q 2950 422 3222 751 
Q 3494 1081 3494 1831 
L 3494 4666 
L 4128 4666 
L 4128 1753 
Q 4128 841 3676 375 
Q 3225 -91 2344 -91 
Q 1459 -91 1007 375 
Q 556 841 556 1753 
L 556 4666 
z
" transform="scale(0.015625)"/>
      <path id="DejaVuSans-5f" d="M 3263 -1063 
L 3263 -1509 
L -63 -1509 
L -63 -1063 
L 3263 -1063 
z
" transform="scale(0.015625)"/>
      <path id="DejaVuSans-43" d="M 4122 4306 
L 4122 3641 
Q 3803 3938 3442 4084 
Q 3081 4231 2675 4231 
Q 1875 4231 1450 3742 
Q 1025 3253 1025 2328 
Q 1025 1406 1450 917 
Q 1875 428 2675 428 
Q 3081 428 3442 575 
Q 3803 722 4122 1019 
L 4122 359 
Q 3791 134 3420 21 
Q 3050 -91 2638 -91 
Q 1578 -91 968 557 
Q 359 1206 359 2328 
Q 359 3453 968 4101 
Q 1578 4750 2638 4750 
Q 3056 4750 3426 4639 
Q 3797 4528 4122 4306 
z
" transform="scale(0.015625)"/>
      <path id="DejaVuSans-54" d="M -19 4666 
L 3928 4666 
L 3928 4134 
L 2272 4134 
L 2272 0 
L 1638 0 
L 1638 4134 
L -19 4134 
L -19 4666 
z
" transform="scale(0.015625)"/>
      <path id="DejaVuSans-52" d="M 2841 2188 
Q 3044 2119 3236 1894 
Q 3428 1669 3622 1275 
L 4263 0 
L 3584 0 
L 2988 1197 
Q 2756 1666 2539 1819 
Q 2322 1972 1947 1972 
L 1259 1972 
L 1259 0 
L 628 0 
L 628 4666 
L 2053 4666 
Q 2853 4666 3247 4331 
Q 3641 3997 3641 3322 
Q 3641 2881 3436 2590 
Q 3231 2300 2841 2188 
z
M 1259 4147 
L 1259 2491 
L 2053 2491 
Q 2509 2491 2742 2702 
Q 2975 2913 2975 3322 
Q 2975 3731 2742 3939 
Q 2509 4147 2053 4147 
L 1259 4147 
z
" transform="scale(0.015625)"/>
      <path id="DejaVuSans-20" transform="scale(0.015625)"/>
      <path id="DejaVuSans-50" d="M 1259 4147 
L 1259 2394 
L 2053 2394 
Q 2494 2394 2734 2622 
Q 2975 2850 2975 3272 
Q 2975 3691 2734 3919 
Q 2494 4147 2053 4147 
L 1259 4147 
z
M 628 4666 
L 2053 4666 
Q 2838 4666 3239 4311 
Q 3641 3956 3641 3272 
Q 3641 2581 3239 2228 
Q 2838 1875 2053 1875 
L 1259 1875 
L 1259 0 
L 628 0 
L 628 4666 
z
" transform="scale(0.015625)"/>
     </defs>
     <use xlink:href="#DejaVuSans-45"/>
     <use xlink:href="#DejaVuSans-42" x="63.183594"/>
     <use xlink:href="#DejaVuSans-42" x="131.787109"/>
     <use xlink:href="#DejaVuSans-55" x="200.390625"/>
     <use xlink:href="#DejaVuSans-5f" x="273.583984"/>
     <use xlink:href="#DejaVuSans-45" x="323.583984"/>
     <use xlink:href="#DejaVuSans-5f" x="386.767578"/>
     <use xlink:href="#DejaVuSans-43" x="436.767578"/>
     <use xlink:href="#DejaVuSans-54" x="506.591797"/>
     <use xlink:href="#DejaVuSans-52" x="567.675781"/>
     <use xlink:href="#DejaVuSans-20" x="637.158203"/>
     <use xlink:href="#DejaVuSans-55" x="668.945312"/>
     <use xlink:href="#DejaVuSans-50" x="742.138672"/>
     <use xlink:href="#DejaVuSans-50" x="802.441406"/>
     <use xlink:href="#DejaVuSans-45" x="862.744141"/>
     <use xlink:href="#DejaVuSans-52" x="925.927734"/>
    </g>
    <!-- 245 -->
    <g style="opacity: 0.5" transform="translate(77.085376 44.474812)scale(0.0579 -0.0579)">
     <use xlink:href="#DejaVuSans-32"/>
     <use xlink:href="#DejaVuSans-34" x="63.623047"/>
     <use xlink:href="#DejaVuSans-35" x="127.246094"/>
    </g>
    <!-- 195 -->
    <g style="opacity: 0.5" transform="translate(77.085376 50.958346)scale(0.0579 -0.0579)">
     <defs>
      <path id="DejaVuSans-39" d="M 703 97 
L 703 672 
Q 941 559 1184 500 
Q 1428 441 1663 441 
Q 2288 441 2617 861 
Q 2947 1281 2994 2138 
Q 2813 1869 2534 1725 
Q 2256 1581 1919 1581 
Q 1219 1581 811 2004 
Q 403 2428 403 3163 
Q 403 3881 828 4315 
Q 1253 4750 1959 4750 
Q 2769 4750 3195 4129 
Q 3622 3509 3622 2328 
Q 3622 1225 3098 567 
Q 2575 -91 1691 -91 
Q 1453 -91 1209 -44 
Q 966 3 703 97 
z
M 1959 2075 
Q 2384 2075 2632 2365 
Q 2881 2656 2881 3163 
Q 2881 3666 2632 3958 
Q 2384 4250 1959 4250 
Q 1534 4250 1286 3958 
Q 1038 3666 1038 3163 
Q 1038 2656 1286 2365 
Q 1534 2075 1959 2075 
z
" transform="scale(0.015625)"/>
     </defs>
     <use xlink:href="#DejaVuSans-31"/>
     <use xlink:href="#DejaVuSans-39" x="63.623047"/>
     <use xlink:href="#DejaVuSans-35" x="127.246094"/>
    </g>
   </g>
   <g id="text_4">
    <!-- EIF1 -->
    <g style="opacity: 0.5" transform="translate(168.266533 82.988438)scale(0.0579 -0.0579)">
     <defs>
      <path id="DejaVuSans-49" d="M 628 4666 
L 1259 4666 
L 1259 0 
L 628 0 
L 628 4666 
z
" transform="scale(0.015625)"/>
     </defs>
     <use xlink:href="#DejaVuSans-45"/>
     <use xlink:href="#DejaVuSans-49" x="63.183594"/>
     <use xlink:href="#DejaVuSans-46" x="92.675781"/>
     <use xlink:href="#DejaVuSans-31" x="150.195312"/>
    </g>
    <!-- 165 -->
    <g style="opacity: 0.5" transform="translate(168.931025 89.471971)scale(0.0579 -0.0579)">
     <defs>
      <path id="DejaVuSans-36" d="M 2113 2584 
Q 1688 2584 1439 2293 
Q 1191 2003 1191 1497 
Q 1191 994 1439 701 
Q 1688 409 2113 409 
Q 2538 409 2786 701 
Q 3034 994 3034 1497 
Q 3034 2003 2786 2293 
Q 2538 2584 2113 2584 
z
M 3366 4563 
L 3366 3988 
Q 3128 4100 2886 4159 
Q 2644 4219 2406 4219 
Q 1781 4219 1451 3797 
Q 1122 3375 1075 2522 
Q 1259 2794 1537 2939 
Q 1816 3084 2150 3084 
Q 2853 3084 3261 2657 
Q 3669 2231 3669 1497 
Q 3669 778 3244 343 
Q 2819 -91 2113 -91 
Q 1303 -91 875 529 
Q 447 1150 447 2328 
Q 447 3434 972 4092 
Q 1497 4750 2381 4750 
Q 2619 4750 2861 4703 
Q 3103 4656 3366 4563 
z
" transform="scale(0.015625)"/>
     </defs>
     <use xlink:href="#DejaVuSans-31"/>
     <use xlink:href="#DejaVuSans-36" x="63.623047"/>
     <use xlink:href="#DejaVuSans-35" x="127.246094"/>
    </g>
    <!-- GND -->
    <g style="opacity: 0.5" transform="translate(167.818712 95.955505)scale(0.0579 -0.0579)">
     <use xlink:href="#DejaVuSans-47"/>
     <use xlink:href="#DejaVuSans-4e" x="77.490234"/>
     <use xlink:href="#DejaVuSans-44" x="152.294922"/>
    </g>
   </g>
   <g id="text_5">
    <!-- EIF2 -->
    <g style="opacity: 0.5" transform="translate(217.53463 81.72277)scale(0.0579 -0.0579)">
     <use xlink:href="#DejaVuSans-45"/>
     <use xlink:href="#DejaVuSans-49" x="63.183594"/>
     <use xlink:href="#DejaVuSans-46" x="92.675781"/>
     <use xlink:href="#DejaVuSans-32" x="150.195312"/>
    </g>
    <!-- 105 -->
    <g style="opacity: 0.5" transform="translate(218.199123 88.206304)scale(0.0579 -0.0579)">
     <defs>
      <path id="DejaVuSans-30" d="M 2034 4250 
Q 1547 4250 1301 3770 
Q 1056 3291 1056 2328 
Q 1056 1369 1301 889 
Q 1547 409 2034 409 
Q 2525 409 2770 889 
Q 3016 1369 3016 2328 
Q 3016 3291 2770 3770 
Q 2525 4250 2034 4250 
z
M 2034 4750 
Q 2819 4750 3233 4129 
Q 3647 3509 3647 2328 
Q 3647 1150 3233 529 
Q 2819 -91 2034 -91 
Q 1250 -91 836 529 
Q 422 1150 422 2328 
Q 422 3509 836 4129 
Q 1250 4750 2034 4750 
z
" transform="scale(0.015625)"/>
     </defs>
     <use xlink:href="#DejaVuSans-31"/>
     <use xlink:href="#DejaVuSans-30" x="63.623047"/>
     <use xlink:href="#DejaVuSans-35" x="127.246094"/>
    </g>
    <!-- GND -->
    <g style="opacity: 0.5" transform="translate(217.08681 94.689837)scale(0.0579 -0.0579)">
     <use xlink:href="#DejaVuSans-47"/>
     <use xlink:href="#DejaVuSans-4e" x="77.490234"/>
     <use xlink:href="#DejaVuSans-44" x="152.294922"/>
    </g>
   </g>
   <g id="text_6">
    <!-- ELLX TMA1A AND 5 -->
    <g style="opacity: 0.5" transform="translate(102.20056 133.729763)scale(0.0579 -0.0579)">
     <defs>
      <path id="DejaVuSans-4c" d="M 628 4666 
L 1259 4666 
L 1259 531 
L 3531 531 
L 3531 0 
L 628 0 
L 628 4666 
z
" transform="scale(0.015625)"/>
      <path id="DejaVuSans-58" d="M 403 4666 
L 1081 4666 
L 2241 2931 
L 3406 4666 
L 4084 4666 
L 2584 2425 
L 4184 0 
L 3506 0 
L 2194 1984 
L 872 0 
L 191 0 
L 1856 2491 
L 403 4666 
z
" transform="scale(0.015625)"/>
      <path id="DejaVuSans-4d" d="M 628 4666 
L 1569 4666 
L 2759 1491 
L 3956 4666 
L 4897 4666 
L 4897 0 
L 4281 0 
L 4281 4097 
L 3078 897 
L 2444 897 
L 1241 4097 
L 1241 0 
L 628 0 
L 628 4666 
z
" transform="scale(0.015625)"/>
     </defs>
     <use xlink:href="#DejaVuSans-45"/>
     <use xlink:href="#DejaVuSans-4c" x="63.183594"/>
     <use xlink:href="#DejaVuSans-4c" x="118.896484"/>
     <use xlink:href="#DejaVuSans-58" x="174.609375"/>
     <use xlink:href="#DejaVuSans-20" x="243.115234"/>
     <use xlink:href="#DejaVuSans-54" x="274.902344"/>
     <use xlink:href="#DejaVuSans-4d" x="335.986328"/>
     <use xlink:href="#DejaVuSans-41" x="422.265625"/>
     <use xlink:href="#DejaVuSans-31" x="490.673828"/>
     <use xlink:href="#DejaVuSans-41" x="554.296875"/>
     <use xlink:href="#DejaVuSans-20" x="622.705078"/>
     <use xlink:href="#DejaVuSans-41" x="654.492188"/>
     <use xlink:href="#DejaVuSans-4e" x="722.900391"/>
     <use xlink:href="#DejaVuSans-44" x="797.705078"/>
     <use xlink:href="#DejaVuSans-20" x="874.707031"/>
     <use xlink:href="#DejaVuSans-35" x="906.494141"/>
    </g>
    <!-- 165 -->
    <g style="opacity: 0.5" transform="translate(124.759395 140.213296)scale(0.0579 -0.0579)">
     <use xlink:href="#DejaVuSans-31"/>
     <use xlink:href="#DejaVuSans-36" x="63.623047"/>
     <use xlink:href="#DejaVuSans-35" x="127.246094"/>
    </g>
    <!-- 25 -->
    <g style="opacity: 0.5" transform="translate(126.601339 146.69683)scale(0.0579 -0.0579)">
     <use xlink:href="#DejaVuSans-32"/>
     <use xlink:href="#DejaVuSans-35" x="63.623047"/>
    </g>
   </g>
   <g id="text_7">
    <!-- ELLX TMA2E1 -->
    <g style="opacity: 0.5" transform="translate(141.341707 134.351371)scale(0.0579 -0.0579)">
     <use xlink:href="#DejaVuSans-45"/>
     <use xlink:href="#DejaVuSans-4c" x="63.183594"/>
     <use xlink:href="#DejaVuSans-4c" x="118.896484"/>
     <use xlink:href="#DejaVuSans-58" x="174.609375"/>
     <use xlink:href="#DejaVuSans-20" x="243.115234"/>
     <use xlink:href="#DejaVuSans-54" x="274.902344"/>
     <use xlink:href="#DejaVuSans-4d" x="335.986328"/>
     <use xlink:href="#DejaVuSans-41" x="422.265625"/>
     <use xlink:href="#DejaVuSans-32" x="490.673828"/>
     <use xlink:href="#DejaVuSans-45" x="554.296875"/>
     <use xlink:href="#DejaVuSans-31" x="617.480469"/>
    </g>
    <!-- 95 -->
    <g style="opacity: 0.5" transform="translate(157.375936 140.834905)scale(0.0579 -0.0579)">
     <use xlink:href="#DejaVuSans-39"/>
     <use xlink:href="#DejaVuSans-35" x="63.623047"/>
    </g>
    <!-- 22 -->
    <g style="opacity: 0.5" transform="translate(157.375936 147.318438)scale(0.0579 -0.0579)">
     <use xlink:href="#DejaVuSans-32"/>
     <use xlink:href="#DejaVuSans-32" x="63.623047"/>
    </g>
   </g>
   <g id="text_8">
    <!-- ELLX TMA2F2 -->
    <g style="opacity: 0.5" transform="translate(141.677965 160.135034)scale(0.0579 -0.0579)">
     <use xlink:href="#DejaVuSans-45"/>
     <use xlink:href="#DejaVuSans-4c" x="63.183594"/>
     <use xlink:href="#DejaVuSans-4c" x="118.896484"/>
     <use xlink:href="#DejaVuSans-58" x="174.609375"/>
     <use xlink:href="#DejaVuSans-20" x="243.115234"/>
     <use xlink:href="#DejaVuSans-54" x="274.902344"/>
     <use xlink:href="#DejaVuSans-4d" x="335.986328"/>
     <use xlink:href="#DejaVuSans-41" x="422.265625"/>
     <use xlink:href="#DejaVuSans-32" x="490.673828"/>
     <use xlink:href="#DejaVuSans-46" x="554.296875"/>
     <use xlink:href="#DejaVuSans-32" x="611.816406"/>
    </g>
    <!-- 165 -->
    <g style="opacity: 0.5" transform="translate(155.706049 166.618567)scale(0.0579 -0.0579)">
     <use xlink:href="#DejaVuSans-31"/>
     <use xlink:href="#DejaVuSans-36" x="63.623047"/>
     <use xlink:href="#DejaVuSans-35" x="127.246094"/>
    </g>
    <!-- 22 -->
    <g style="opacity: 0.5" transform="translate(157.547993 173.1021)scale(0.0579 -0.0579)">
     <use xlink:href="#DejaVuSans-32"/>
     <use xlink:href="#DejaVuSans-32" x="63.623047"/>
    </g>
   </g>
   <g id="text_9">
    <!-- KIR1 -->
    <g style="opacity: 0.5" transform="translate(240.37981 105.193258)scale(0.0579 -0.0579)">
     <defs>
      <path id="DejaVuSans-4b" d="M 628 4666 
L 1259 4666 
L 1259 2694 
L 3353 4666 
L 4166 4666 
L 1850 2491 
L 4331 0 
L 3500 0 
L 1259 2247 
L 1259 0 
L 628 0 
L 628 4666 
z
" transform="scale(0.015625)"/>
     </defs>
     <use xlink:href="#DejaVuSans-4b"/>
     <use xlink:href="#DejaVuSans-49" x="65.576172"/>
     <use xlink:href="#DejaVuSans-52" x="95.068359"/>
     <use xlink:href="#DejaVuSans-31" x="164.550781"/>
    </g>
    <!-- 245 -->
    <g style="opacity: 0.5" transform="translate(241.460007 111.676792)scale(0.0579 -0.0579)">
     <use xlink:href="#DejaVuSans-32"/>
     <use xlink:href="#DejaVuSans-34" x="63.623047"/>
     <use xlink:href="#DejaVuSans-35" x="127.246094"/>
    </g>
    <!-- 105 -->
    <g style="opacity: 0.5" transform="translate(241.460007 118.160325)scale(0.0579 -0.0579)">
     <use xlink:href="#DejaVuSans-31"/>
     <use xlink:href="#DejaVuSans-30" x="63.623047"/>
     <use xlink:href="#DejaVuSans-35" x="127.246094"/>
    </g>
   </g>
   <g id="text_10">
    <!-- KIR2 -->
    <g style="opacity: 0.5" transform="translate(279.776347 105.836868)scale(0.0579 -0.0579)">
     <use xlink:href="#DejaVuSans-4b"/>
     <use xlink:href="#DejaVuSans-49" x="65.576172"/>
     <use xlink:href="#DejaVuSans-52" x="95.068359"/>
     <use xlink:href="#DejaVuSans-32" x="164.550781"/>
    </g>
    <!-- 245 -->
    <g style="opacity: 0.5" transform="translate(280.856544 112.320401)scale(0.0579 -0.0579)">
     <use xlink:href="#DejaVuSans-32"/>
     <use xlink:href="#DejaVuSans-34" x="63.623047"/>
     <use xlink:href="#DejaVuSans-35" x="127.246094"/>
    </g>
    <!-- 135 -->
    <g style="opacity: 0.5" transform="translate(280.856544 118.803935)scale(0.0579 -0.0579)">
     <use xlink:href="#DejaVuSans-31"/>
     <use xlink:href="#DejaVuSans-33" x="63.623047"/>
     <use xlink:href="#DejaVuSans-35" x="127.246094"/>
    </g>
   </g>
   <g id="text_11">
    <!-- KIR3 -->
    <g style="opacity: 0.5" transform="translate(167.444068 105.893379)scale(0.0579 -0.0579)">
     <use xlink:href="#DejaVuSans-4b"/>
     <use xlink:href="#DejaVuSans-49" x="65.576172"/>
     <use xlink:href="#DejaVuSans-52" x="95.068359"/>
     <use xlink:href="#DejaVuSans-33" x="164.550781"/>
    </g>
    <!-- 245 -->
    <g style="opacity: 0.5" transform="translate(168.524265 112.376912)scale(0.0579 -0.0579)">
     <use xlink:href="#DejaVuSans-32"/>
     <use xlink:href="#DejaVuSans-34" x="63.623047"/>
     <use xlink:href="#DejaVuSans-35" x="127.246094"/>
    </g>
    <!-- 165 -->
    <g style="opacity: 0.5" transform="translate(168.524265 118.860445)scale(0.0579 -0.0579)">
     <use xlink:href="#DejaVuSans-31"/>
     <use xlink:href="#DejaVuSans-36" x="63.623047"/>
     <use xlink:href="#DejaVuSans-35" x="127.246094"/>
    </g>
   </g>
   <g id="text_12">
    <!-- LFEE-L_UIR1 -->
    <g style="opacity: 0.5" transform="translate(142.646063 309.832167)scale(0.0579 -0.0579)">
     <defs>
      <path id="DejaVuSans-2d" d="M 313 2009 
L 1997 2009 
L 1997 1497 
L 313 1497 
L 313 2009 
z
" transform="scale(0.015625)"/>
     </defs>
     <use xlink:href="#DejaVuSans-4c"/>
     <use xlink:href="#DejaVuSans-46" x="55.712891"/>
     <use xlink:href="#DejaVuSans-45" x="113.232422"/>
     <use xlink:href="#DejaVuSans-45" x="176.416016"/>
     <use xlink:href="#DejaVuSans-2d" x="239.599609"/>
     <use xlink:href="#DejaVuSans-4c" x="275.683594"/>
     <use xlink:href="#DejaVuSans-5f" x="331.396484"/>
     <use xlink:href="#DejaVuSans-55" x="381.396484"/>
     <use xlink:href="#DejaVuSans-49" x="454.589844"/>
     <use xlink:href="#DejaVuSans-52" x="484.082031"/>
     <use xlink:href="#DejaVuSans-31" x="553.564453"/>
    </g>
    <!-- 245 -->
    <g style="opacity: 0.5" transform="translate(154.988262 316.476735)scale(0.0579 -0.0579)">
     <use xlink:href="#DejaVuSans-32"/>
     <use xlink:href="#DejaVuSans-34" x="63.623047"/>
     <use xlink:href="#DejaVuSans-35" x="127.246094"/>
    </g>
    <!-- 195 -->
    <g style="opacity: 0.5" transform="translate(154.988262 322.960268)scale(0.0579 -0.0579)">
     <use xlink:href="#DejaVuSans-31"/>
     <use xlink:href="#DejaVuSans-39" x="63.623047"/>
     <use xlink:href="#DejaVuSans-35" x="127.246094"/>
    </g>
   </g>
   <g id="text_13">
    <!-- LFEE_FIR_SIV -->
    <g style="opacity: 0.5" transform="translate(136.625938 313.412277)scale(0.0579 -0.0579)">
     <defs>
      <path id="DejaVuSans-53" d="M 3425 4513 
L 3425 3897 
Q 3066 4069 2747 4153 
Q 2428 4238 2131 4238 
Q 1616 4238 1336 4038 
Q 1056 3838 1056 3469 
Q 1056 3159 1242 3001 
Q 1428 2844 1947 2747 
L 2328 2669 
Q 3034 2534 3370 2195 
Q 3706 1856 3706 1288 
Q 3706 609 3251 259 
Q 2797 -91 1919 -91 
Q 1588 -91 1214 -16 
Q 841 59 441 206 
L 441 856 
Q 825 641 1194 531 
Q 1563 422 1919 422 
Q 2459 422 2753 634 
Q 3047 847 3047 1241 
Q 3047 1584 2836 1778 
Q 2625 1972 2144 2069 
L 1759 2144 
Q 1053 2284 737 2584 
Q 422 2884 422 3419 
Q 422 4038 858 4394 
Q 1294 4750 2059 4750 
Q 2388 4750 2728 4690 
Q 3069 4631 3425 4513 
z
" transform="scale(0.015625)"/>
      <path id="DejaVuSans-56" d="M 1831 0 
L 50 4666 
L 709 4666 
L 2188 738 
L 3669 4666 
L 4325 4666 
L 2547 0 
L 1831 0 
z
" transform="scale(0.015625)"/>
     </defs>
     <use xlink:href="#DejaVuSans-4c"/>
     <use xlink:href="#DejaVuSans-46" x="55.712891"/>
     <use xlink:href="#DejaVuSans-45" x="113.232422"/>
     <use xlink:href="#DejaVuSans-45" x="176.416016"/>
     <use xlink:href="#DejaVuSans-5f" x="239.599609"/>
     <use xlink:href="#DejaVuSans-46" x="289.599609"/>
     <use xlink:href="#DejaVuSans-49" x="347.119141"/>
     <use xlink:href="#DejaVuSans-52" x="376.611328"/>
     <use xlink:href="#DejaVuSans-5f" x="446.09375"/>
     <use xlink:href="#DejaVuSans-53" x="496.09375"/>
     <use xlink:href="#DejaVuSans-49" x="559.570312"/>
     <use xlink:href="#DejaVuSans-56" x="589.0625"/>
    </g>
    <!-- 195 -->
    <g style="opacity: 0.5" transform="translate(150.134732 320.056845)scale(0.0579 -0.0579)">
     <use xlink:href="#DejaVuSans-31"/>
     <use xlink:href="#DejaVuSans-39" x="63.623047"/>
     <use xlink:href="#DejaVuSans-35" x="127.246094"/>
    </g>
    <!-- 145 -->
    <g style="opacity: 0.5" transform="translate(150.134732 326.540378)scale(0.0579 -0.0579)">
     <use xlink:href="#DejaVuSans-31"/>
     <use xlink:href="#DejaVuSans-34" x="63.623047"/>
     <use xlink:href="#DejaVuSans-35" x="127.246094"/>
    </g>
   </g>
   <g id="text_14">
    <!-- LFST_SIV -->
    <g style="opacity: 0.5" transform="translate(147.560778 247.986898)scale(0.0579 -0.0579)">
     <use xlink:href="#DejaVuSans-4c"/>
     <use xlink:href="#DejaVuSans-46" x="55.712891"/>
     <use xlink:href="#DejaVuSans-53" x="111.482422"/>
     <use xlink:href="#DejaVuSans-54" x="174.958984"/>
     <use xlink:href="#DejaVuSans-5f" x="236.042969"/>
     <use xlink:href="#DejaVuSans-53" x="286.042969"/>
     <use xlink:href="#DejaVuSans-49" x="349.519531"/>
     <use xlink:href="#DejaVuSans-56" x="379.011719"/>
    </g>
    <!-- 145 -->
    <g style="opacity: 0.5" transform="translate(154.988262 254.631465)scale(0.0579 -0.0579)">
     <use xlink:href="#DejaVuSans-31"/>
     <use xlink:href="#DejaVuSans-34" x="63.623047"/>
     <use xlink:href="#DejaVuSans-35" x="127.246094"/>
    </g>
    <!-- GND -->
    <g style="opacity: 0.5" transform="translate(153.875949 261.114999)scale(0.0579 -0.0579)">
     <use xlink:href="#DejaVuSans-47"/>
     <use xlink:href="#DejaVuSans-4e" x="77.490234"/>
     <use xlink:href="#DejaVuSans-44" x="152.294922"/>
    </g>
   </g>
   <g id="text_15">
    <!-- LFST_TMA -->
    <g style="opacity: 0.5" transform="translate(287.516576 217.199298)scale(0.0579 -0.0579)">
     <use xlink:href="#DejaVuSans-4c"/>
     <use xlink:href="#DejaVuSans-46" x="55.712891"/>
     <use xlink:href="#DejaVuSans-53" x="111.482422"/>
     <use xlink:href="#DejaVuSans-54" x="174.958984"/>
     <use xlink:href="#DejaVuSans-5f" x="236.042969"/>
     <use xlink:href="#DejaVuSans-54" x="286.042969"/>
     <use xlink:href="#DejaVuSans-4d" x="347.126953"/>
     <use xlink:href="#DejaVuSans-41" x="433.40625"/>
    </g>
    <!-- 75 -->
    <g style="opacity: 0.5" transform="translate(298.360161 223.843865)scale(0.0579 -0.0579)">
     <defs>
      <path id="DejaVuSans-37" d="M 525 4666 
L 3525 4666 
L 3525 4397 
L 1831 0 
L 1172 0 
L 2766 4134 
L 525 4134 
L 525 4666 
z
" transform="scale(0.015625)"/>
     </defs>
     <use xlink:href="#DejaVuSans-37"/>
     <use xlink:href="#DejaVuSans-35" x="63.623047"/>
    </g>
    <!-- GND -->
    <g style="opacity: 0.5" transform="translate(295.405904 230.327399)scale(0.0579 -0.0579)">
     <use xlink:href="#DejaVuSans-47"/>
     <use xlink:href="#DejaVuSans-4e" x="77.490234"/>
     <use xlink:href="#DejaVuSans-44" x="152.294922"/>
    </g>
   </g>
   <g id="text_16">
    <!-- NKRH1 -->
    <g style="opacity: 0.5" transform="translate(318.31083 159.705292)scale(0.0579 -0.0579)">
     <defs>
      <path id="DejaVuSans-48" d="M 628 4666 
L 1259 4666 
L 1259 2753 
L 3553 2753 
L 3553 4666 
L 4184 4666 
L 4184 0 
L 3553 0 
L 3553 2222 
L 1259 2222 
L 1259 0 
L 628 0 
L 628 4666 
z
" transform="scale(0.015625)"/>
     </defs>
     <use xlink:href="#DejaVuSans-4e"/>
     <use xlink:href="#DejaVuSans-4b" x="74.804688"/>
     <use xlink:href="#DejaVuSans-52" x="140.380859"/>
     <use xlink:href="#DejaVuSans-48" x="209.863281"/>
     <use xlink:href="#DejaVuSans-31" x="285.058594"/>
    </g>
    <!-- 245 -->
    <g style="opacity: 0.5" transform="translate(322.879954 166.188826)scale(0.0579 -0.0579)">
     <use xlink:href="#DejaVuSans-32"/>
     <use xlink:href="#DejaVuSans-34" x="63.623047"/>
     <use xlink:href="#DejaVuSans-35" x="127.246094"/>
    </g>
    <!-- 75 -->
    <g style="opacity: 0.5" transform="translate(324.721898 172.672359)scale(0.0579 -0.0579)">
     <use xlink:href="#DejaVuSans-37"/>
     <use xlink:href="#DejaVuSans-35" x="63.623047"/>
    </g>
   </g>
   <g id="text_17">
    <!-- NKRH2 -->
    <g style="opacity: 0.5" transform="translate(325.401444 208.461716)scale(0.0579 -0.0579)">
     <use xlink:href="#DejaVuSans-4e"/>
     <use xlink:href="#DejaVuSans-4b" x="74.804688"/>
     <use xlink:href="#DejaVuSans-52" x="140.380859"/>
     <use xlink:href="#DejaVuSans-48" x="209.863281"/>
     <use xlink:href="#DejaVuSans-32" x="285.058594"/>
    </g>
    <!-- 245 -->
    <g style="opacity: 0.5" transform="translate(329.970568 214.945249)scale(0.0579 -0.0579)">
     <use xlink:href="#DejaVuSans-32"/>
     <use xlink:href="#DejaVuSans-34" x="63.623047"/>
     <use xlink:href="#DejaVuSans-35" x="127.246094"/>
    </g>
    <!-- 145 -->
    <g style="opacity: 0.5" transform="translate(329.970568 221.428782)scale(0.0579 -0.0579)">
     <use xlink:href="#DejaVuSans-31"/>
     <use xlink:href="#DejaVuSans-34" x="63.623047"/>
     <use xlink:href="#DejaVuSans-35" x="127.246094"/>
    </g>
   </g>
   <g id="text_18">
    <!-- NKRL1 -->
    <g style="opacity: 0.5" transform="translate(318.874903 159.705292)scale(0.0579 -0.0579)">
     <use xlink:href="#DejaVuSans-4e"/>
     <use xlink:href="#DejaVuSans-4b" x="74.804688"/>
     <use xlink:href="#DejaVuSans-52" x="140.380859"/>
     <use xlink:href="#DejaVuSans-4c" x="209.863281"/>
     <use xlink:href="#DejaVuSans-31" x="265.576172"/>
    </g>
    <!-- 75 -->
    <g style="opacity: 0.5" transform="translate(324.721898 166.188826)scale(0.0579 -0.0579)">
     <use xlink:href="#DejaVuSans-37"/>
     <use xlink:href="#DejaVuSans-35" x="63.623047"/>
    </g>
    <!-- GND -->
    <g style="opacity: 0.5" transform="translate(321.767641 172.672359)scale(0.0579 -0.0579)">
     <use xlink:href="#DejaVuSans-47"/>
     <use xlink:href="#DejaVuSans-4e" x="77.490234"/>
     <use xlink:href="#DejaVuSans-44" x="152.294922"/>
    </g>
   </g>
   <g id="text_19">
    <!-- NKRL3 -->
    <g style="opacity: 0.5" transform="translate(296.5011 160.665835)scale(0.0579 -0.0579)">
     <use xlink:href="#DejaVuSans-4e"/>
     <use xlink:href="#DejaVuSans-4b" x="74.804688"/>
     <use xlink:href="#DejaVuSans-52" x="140.380859"/>
     <use xlink:href="#DejaVuSans-4c" x="209.863281"/>
     <use xlink:href="#DejaVuSans-33" x="265.576172"/>
    </g>
    <!-- 55 -->
    <g style="opacity: 0.5" transform="translate(302.348095 167.149368)scale(0.0579 -0.0579)">
     <use xlink:href="#DejaVuSans-35"/>
     <use xlink:href="#DejaVuSans-35" x="63.623047"/>
    </g>
    <!-- GND -->
    <g style="opacity: 0.5" transform="translate(299.393838 173.632901)scale(0.0579 -0.0579)">
     <use xlink:href="#DejaVuSans-47"/>
     <use xlink:href="#DejaVuSans-4e" x="77.490234"/>
     <use xlink:href="#DejaVuSans-44" x="152.294922"/>
    </g>
   </g>
   <g id="text_20">
    <!-- REU2 -->
    <g style="opacity: 0.5" transform="translate(273.447719 276.042573)scale(0.0579 -0.0579)">
     <use xlink:href="#DejaVuSans-52"/>
     <use xlink:href="#DejaVuSans-45" x="69.482422"/>
     <use xlink:href="#DejaVuSans-55" x="132.666016"/>
     <use xlink:href="#DejaVuSans-32" x="205.859375"/>
    </g>
    <!-- 145 -->
    <g style="opacity: 0.5" transform="translate(275.72346 282.526106)scale(0.0579 -0.0579)">
     <use xlink:href="#DejaVuSans-31"/>
     <use xlink:href="#DejaVuSans-34" x="63.623047"/>
     <use xlink:href="#DejaVuSans-35" x="127.246094"/>
    </g>
    <!-- 95 -->
    <g style="opacity: 0.5" transform="translate(277.565404 289.00964)scale(0.0579 -0.0579)">
     <use xlink:href="#DejaVuSans-39"/>
     <use xlink:href="#DejaVuSans-35" x="63.623047"/>
    </g>
   </g>
   <g id="text_21">
    <!-- STG1 -->
    <g style="opacity: 0.5" transform="translate(374.197022 223.787721)scale(0.0579 -0.0579)">
     <use xlink:href="#DejaVuSans-53"/>
     <use xlink:href="#DejaVuSans-54" x="63.476562"/>
     <use xlink:href="#DejaVuSans-47" x="124.560547"/>
     <use xlink:href="#DejaVuSans-31" x="202.050781"/>
    </g>
    <!-- 145 -->
    <g style="opacity: 0.5" transform="translate(376.362392 230.271255)scale(0.0579 -0.0579)">
     <use xlink:href="#DejaVuSans-31"/>
     <use xlink:href="#DejaVuSans-34" x="63.623047"/>
     <use xlink:href="#DejaVuSans-35" x="127.246094"/>
    </g>
    <!-- GND -->
    <g style="opacity: 0.5" transform="translate(375.250078 236.754788)scale(0.0579 -0.0579)">
     <use xlink:href="#DejaVuSans-47"/>
     <use xlink:href="#DejaVuSans-4e" x="77.490234"/>
     <use xlink:href="#DejaVuSans-44" x="152.294922"/>
    </g>
   </g>
   <g id="text_22">
    <!-- STG2 -->
    <g style="opacity: 0.5" transform="translate(298.69036 197.948159)scale(0.0579 -0.0579)">
     <use xlink:href="#DejaVuSans-53"/>
     <use xlink:href="#DejaVuSans-54" x="63.476562"/>
     <use xlink:href="#DejaVuSans-47" x="124.560547"/>
     <use xlink:href="#DejaVuSans-32" x="202.050781"/>
    </g>
    <!-- 95 -->
    <g style="opacity: 0.5" transform="translate(302.697674 204.431692)scale(0.0579 -0.0579)">
     <use xlink:href="#DejaVuSans-39"/>
     <use xlink:href="#DejaVuSans-35" x="63.623047"/>
    </g>
    <!-- GND -->
    <g style="opacity: 0.5" transform="translate(299.743417 210.915226)scale(0.0579 -0.0579)">
     <use xlink:href="#DejaVuSans-47"/>
     <use xlink:href="#DejaVuSans-4e" x="77.490234"/>
     <use xlink:href="#DejaVuSans-44" x="152.294922"/>
    </g>
   </g>
   <g id="text_23">
    <!-- STG6 -->
    <g style="opacity: 0.5" transform="translate(291.514521 214.189751)scale(0.0579 -0.0579)">
     <use xlink:href="#DejaVuSans-53"/>
     <use xlink:href="#DejaVuSans-54" x="63.476562"/>
     <use xlink:href="#DejaVuSans-47" x="124.560547"/>
     <use xlink:href="#DejaVuSans-36" x="202.050781"/>
    </g>
    <!-- 95 -->
    <g style="opacity: 0.5" transform="translate(295.521834 220.673285)scale(0.0579 -0.0579)">
     <use xlink:href="#DejaVuSans-39"/>
     <use xlink:href="#DejaVuSans-35" x="63.623047"/>
    </g>
    <!-- 75 -->
    <g style="opacity: 0.5" transform="translate(295.521834 227.156818)scale(0.0579 -0.0579)">
     <use xlink:href="#DejaVuSans-37"/>
     <use xlink:href="#DejaVuSans-35" x="63.623047"/>
    </g>
   </g>
   <g id="text_24">
    <!-- LFST_SIV_PFA5 -->
    <g transform="translate(192.1185 207.042361)scale(0.0579 -0.0579)">
     <use xlink:href="#DejaVuSans-4c"/>
     <use xlink:href="#DejaVuSans-46" x="55.712891"/>
     <use xlink:href="#DejaVuSans-53" x="111.482422"/>
     <use xlink:href="#DejaVuSans-54" x="174.958984"/>
     <use xlink:href="#DejaVuSans-5f" x="236.042969"/>
     <use xlink:href="#DejaVuSans-53" x="286.042969"/>
     <use xlink:href="#DejaVuSans-49" x="349.519531"/>
     <use xlink:href="#DejaVuSans-56" x="379.011719"/>
     <use xlink:href="#DejaVuSans-5f" x="447.419922"/>
     <use xlink:href="#DejaVuSans-50" x="497.419922"/>
     <use xlink:href="#DejaVuSans-46" x="557.722656"/>
     <use xlink:href="#DejaVuSans-41" x="606.117188"/>
     <use xlink:href="#DejaVuSans-35" x="674.525391"/>
    </g>
    <!-- 145 -->
    <g transform="translate(207.962292 213.686929)scale(0.0579 -0.0579)">
     <use xlink:href="#DejaVuSans-31"/>
     <use xlink:href="#DejaVuSans-34" x="63.623047"/>
     <use xlink:href="#DejaVuSans-35" x="127.246094"/>
    </g>
    <!-- 75 -->
    <g transform="translate(209.804236 220.170462)scale(0.0579 -0.0579)">
     <use xlink:href="#DejaVuSans-37"/>
     <use xlink:href="#DejaVuSans-35" x="63.623047"/>
    </g>
   </g>
   <g id="text_25">
    <!-- PFA1 -->
    <g transform="translate(229.842191 173.580085)scale(0.0579 -0.0579)">
     <use xlink:href="#DejaVuSans-50"/>
     <use xlink:href="#DejaVuSans-46" x="60.302734"/>
     <use xlink:href="#DejaVuSans-41" x="108.697266"/>
     <use xlink:href="#DejaVuSans-31" x="177.105469"/>
    </g>
    <!-- 245 -->
    <g transform="translate(231.285168 180.063618)scale(0.0579 -0.0579)">
     <use xlink:href="#DejaVuSans-32"/>
     <use xlink:href="#DejaVuSans-34" x="63.623047"/>
     <use xlink:href="#DejaVuSans-35" x="127.246094"/>
    </g>
    <!-- GND -->
    <g transform="translate(230.172854 186.547152)scale(0.0579 -0.0579)">
     <use xlink:href="#DejaVuSans-47"/>
     <use xlink:href="#DejaVuSans-4e" x="77.490234"/>
     <use xlink:href="#DejaVuSans-44" x="152.294922"/>
    </g>
   </g>
   <g id="text_26">
    <!-- PFA2 -->
    <g transform="translate(261.665772 124.657559)scale(0.0579 -0.0579)">
     <use xlink:href="#DejaVuSans-50"/>
     <use xlink:href="#DejaVuSans-46" x="60.302734"/>
     <use xlink:href="#DejaVuSans-41" x="108.697266"/>
     <use xlink:href="#DejaVuSans-32" x="177.105469"/>
    </g>
    <!-- 105 -->
    <g transform="translate(263.108749 131.141093)scale(0.0579 -0.0579)">
     <use xlink:href="#DejaVuSans-31"/>
     <use xlink:href="#DejaVuSans-30" x="63.623047"/>
     <use xlink:href="#DejaVuSans-35" x="127.246094"/>
    </g>
    <!-- GND -->
    <g transform="translate(261.996436 137.624626)scale(0.0579 -0.0579)">
     <use xlink:href="#DejaVuSans-47"/>
     <use xlink:href="#DejaVuSans-4e" x="77.490234"/>
     <use xlink:href="#DejaVuSans-44" x="152.294922"/>
    </g>
   </g>
   <g id="text_27">
    <!-- PFA3 -->
    <g transform="translate(299.063175 160.665835)scale(0.0579 -0.0579)">
     <use xlink:href="#DejaVuSans-50"/>
     <use xlink:href="#DejaVuSans-46" x="60.302734"/>
     <use xlink:href="#DejaVuSans-41" x="108.697266"/>
     <use xlink:href="#DejaVuSans-33" x="177.105469"/>
    </g>
    <!-- 245 -->
    <g transform="translate(300.506151 167.149368)scale(0.0579 -0.0579)">
     <use xlink:href="#DejaVuSans-32"/>
     <use xlink:href="#DejaVuSans-34" x="63.623047"/>
     <use xlink:href="#DejaVuSans-35" x="127.246094"/>
    </g>
    <!-- 55 -->
    <g transform="translate(302.348095 173.632901)scale(0.0579 -0.0579)">
     <use xlink:href="#DejaVuSans-35"/>
     <use xlink:href="#DejaVuSans-35" x="63.623047"/>
    </g>
   </g>
   <g id="text_28">
    <!-- PFA4 -->
    <g transform="translate(292.986487 204.698272)scale(0.0579 -0.0579)">
     <use xlink:href="#DejaVuSans-50"/>
     <use xlink:href="#DejaVuSans-46" x="60.302734"/>
     <use xlink:href="#DejaVuSans-41" x="108.697266"/>
     <use xlink:href="#DejaVuSans-34" x="177.105469"/>
    </g>
    <!-- 245 -->
    <g transform="translate(294.429464 211.181805)scale(0.0579 -0.0579)">
     <use xlink:href="#DejaVuSans-32"/>
     <use xlink:href="#DejaVuSans-34" x="63.623047"/>
     <use xlink:href="#DejaVuSans-35" x="127.246094"/>
    </g>
    <!-- 95 -->
    <g transform="translate(296.271408 217.665339)scale(0.0579 -0.0579)">
     <use xlink:href="#DejaVuSans-39"/>
     <use xlink:href="#DejaVuSans-35" x="63.623047"/>
    </g>
   </g>
   <g id="text_29">
    <!-- PFA5 -->
    <g transform="translate(206.519315 207.173993)scale(0.0579 -0.0579)">
     <use xlink:href="#DejaVuSans-50"/>
     <use xlink:href="#DejaVuSans-46" x="60.302734"/>
     <use xlink:href="#DejaVuSans-41" x="108.697266"/>
     <use xlink:href="#DejaVuSans-35" x="177.105469"/>
    </g>
    <!-- 75 -->
    <g transform="translate(209.804236 213.657526)scale(0.0579 -0.0579)">
     <use xlink:href="#DejaVuSans-37"/>
     <use xlink:href="#DejaVuSans-35" x="63.623047"/>
    </g>
    <!-- GND -->
    <g transform="translate(206.849979 220.14106)scale(0.0579 -0.0579)">
     <use xlink:href="#DejaVuSans-47"/>
     <use xlink:href="#DejaVuSans-4e" x="77.490234"/>
     <use xlink:href="#DejaVuSans-44" x="152.294922"/>
    </g>
   </g>
   <g id="text_30">
    <!-- PFA6 -->
    <g transform="translate(154.38399 151.999283)scale(0.0579 -0.0579)">
     <use xlink:href="#DejaVuSans-50"/>
     <use xlink:href="#DejaVuSans-46" x="60.302734"/>
     <use xlink:href="#DejaVuSans-41" x="108.697266"/>
     <use xlink:href="#DejaVuSans-36" x="177.105469"/>
    </g>
    <!-- 245 -->
    <g transform="translate(155.826966 158.482817)scale(0.0579 -0.0579)">
     <use xlink:href="#DejaVuSans-32"/>
     <use xlink:href="#DejaVuSans-34" x="63.623047"/>
     <use xlink:href="#DejaVuSans-35" x="127.246094"/>
    </g>
    <!-- 95 -->
    <g transform="translate(157.66891 164.96635)scale(0.0579 -0.0579)">
     <use xlink:href="#DejaVuSans-39"/>
     <use xlink:href="#DejaVuSans-35" x="63.623047"/>
    </g>
   </g>
   <g id="text_31">
    <!-- PFA7 -->
    <g transform="translate(156.332154 163.586956)scale(0.0579 -0.0579)">
     <use xlink:href="#DejaVuSans-50"/>
     <use xlink:href="#DejaVuSans-46" x="60.302734"/>
     <use xlink:href="#DejaVuSans-41" x="108.697266"/>
     <use xlink:href="#DejaVuSans-37" x="177.105469"/>
    </g>
    <!-- 245 -->
    <g transform="translate(157.775131 170.070489)scale(0.0579 -0.0579)">
     <use xlink:href="#DejaVuSans-32"/>
     <use xlink:href="#DejaVuSans-34" x="63.623047"/>
     <use xlink:href="#DejaVuSans-35" x="127.246094"/>
    </g>
    <!-- 165 -->
    <g transform="translate(157.775131 176.554023)scale(0.0579 -0.0579)">
     <use xlink:href="#DejaVuSans-31"/>
     <use xlink:href="#DejaVuSans-36" x="63.623047"/>
     <use xlink:href="#DejaVuSans-35" x="127.246094"/>
    </g>
   </g>
  </g>
 </g>
 <defs>
  <clipPath id="pcadd71b000">
   <rect x="57.6" y="52.40848" width="357.12" height="244.239039"/>
  </clipPath>
 </defs>
</svg>
