<?xml version="1.0" encoding="utf-8" standalone="no"?>
<!DOCTYPE svg PUBLIC "-//W3C//DTD SVG 1.1//EN"
  "http://www.w3.org/Graphics/SVG/1.1/DTD/svg11.dtd">
<svg xmlns:xlink="http://www.w3.org/1999/xlink" width="460.8pt" height="345.6pt" viewBox="0 0 460.8 345.6" xmlns="http://www.w3.org/2000/svg" version="1.1">
 <metadata>
  <rdf:RDF xmlns:dc="http://purl.org/dc/elements/1.1/" xmlns:cc="http://creativecommons.org/ns#" xmlns:rdf="http://www.w3.org/1999/02/22-rdf-syntax-ns#">
   <cc:Work>
    <dc:type rdf:resource="http://purl.org/dc/dcmitype/StillImage"/>
    <dc:date>2022-04-26T15:24:26.766841</dc:date>
    <dc:format>image/svg+xml</dc:format>
    <dc:creator>
     <cc:Agent>
      <dc:title>Matplotlib v3.5.0, https://matplotlib.org/</dc:title>
     </cc:Agent>
    </dc:creator>
   </cc:Work>
  </rdf:RDF>
 </metadata>
 <defs>
  <style type="text/css">*{stroke-linejoin: round; stroke-linecap: butt}</style>
 </defs>
 <g id="figure_1">
  <g id="patch_1">
   <path d="M 0 345.6 
L 460.8 345.6 
L 460.8 0 
L 0 0 
z
" style="fill: #ffffff"/>
  </g>
  <g id="axes_1">
   <g id="patch_2">
    <path d="M 345.359798 114.922327 
L 351.902436 120.903195 
L 352.108052 155.71426 
L 347.63123 166.218252 
L 344.805421 172.95151 
L 335.724193 194.362258 
L 332.189645 202.724792 
L 300.804741 220.780599 
L 298.946778 221.871491 
L 259.044129 222.571019 
L 238.741034 222.83758 
L 220.490237 222.725076 
L 188.079976 222.788916 
L 178.402771 225.468617 
L 156.067539 232.320848 
L 197.692862 137.506886 
L 230.509204 162.568301 
L 235.91333 161.456707 
L 243.026185 160.056664 
L 311.818876 138.138199 
L 317.327109 134.326802 
z
" clip-path="url(#p0affe3cc1a)" style="fill: #ffedd9; stroke: #ffedd9; stroke-linejoin: miter"/>
   </g>
   <g id="patch_3">
    <path d="M 156.067539 232.320848 
L 120.211948 234.503992 
L 121.117637 232.099112 
L 120.959736 229.441736 
L 122.101428 228.078785 
L 122.997894 227.332628 
L 123.230115 226.334852 
L 122.963002 224.866154 
L 124.056061 223.326748 
L 125.885505 220.589606 
L 127.1495 217.460392 
L 129.047905 216.056611 
L 129.916507 213.140904 
L 131.312085 207.325879 
L 131.365863 205.847221 
L 131.735528 204.509647 
L 135.248084 202.644094 
L 136.201937 200.508563 
L 135.007853 194.045247 
L 135.464976 191.356385 
L 138.142689 183.971442 
L 138.312901 179.904973 
L 139.304321 178.766613 
L 141.073047 177.524621 
L 141.790482 174.75757 
L 141.606505 173.135887 
L 141.874883 170.535658 
L 141.31169 167.431982 
L 141.806301 165.444543 
L 144.068057 161.764141 
L 144.944888 158.945704 
L 149.3501 156.028706 
L 156.225582 147.595306 
L 156.273709 143.938571 
L 157.017818 142.801346 
L 158.081777 142.583634 
L 159.816989 142.933145 
L 161.128366 141.984775 
L 161.453015 139.698413 
L 162.29349 138.921701 
L 163.759026 138.806604 
L 165.051517 138.748462 
L 166.980396 137.364728 
L 168.49405 134.792822 
L 169.689345 129.479048 
L 171.945553 123.962477 
L 174.796943 119.763142 
L 176.448423 116.410933 
L 179.840054 114.945159 
L 179.380758 114.552008 
L 184.981539 114.87087 
L 197.849126 121.723038 
L 197.692862 137.506886 
z
" clip-path="url(#p0affe3cc1a)" style="fill: #ffedd9; stroke: #ffedd9; stroke-linejoin: miter"/>
   </g>
   <g id="patch_4">
    <path d="M 345.359798 114.922327 
L 351.902436 120.903195 
L 352.108052 155.71426 
L 347.63123 166.218252 
L 344.805421 172.95151 
L 335.724193 194.362258 
L 332.189645 202.724792 
L 300.804741 220.780599 
L 298.946778 221.871491 
L 259.044129 222.571019 
L 238.741034 222.83758 
L 220.490237 222.725076 
L 188.079976 222.788916 
L 178.402771 225.468617 
L 156.067539 232.320848 
L 197.692862 137.506886 
L 230.509204 162.568301 
L 235.91333 161.456707 
L 243.026185 160.056664 
L 311.818876 138.138199 
L 317.327109 134.326802 
L 345.359798 114.922327 
z
" clip-path="url(#p0affe3cc1a)" style="fill: #ffedd9; stroke: #ffedd9; stroke-linejoin: miter"/>
   </g>
   <g id="patch_5">
    <path d="M 156.067539 232.320848 
L 120.211948 234.503992 
L 121.117637 232.099112 
L 120.959736 229.441736 
L 122.101428 228.078785 
L 122.997894 227.332628 
L 123.230115 226.334852 
L 122.963002 224.866154 
L 124.056061 223.326748 
L 125.885505 220.589606 
L 127.1495 217.460392 
L 129.047905 216.056611 
L 129.916507 213.140904 
L 131.312085 207.325879 
L 131.365863 205.847221 
L 131.735528 204.509647 
L 135.248084 202.644094 
L 136.201937 200.508563 
L 135.007853 194.045247 
L 135.464976 191.356385 
L 138.142689 183.971442 
L 138.312901 179.904973 
L 139.304321 178.766613 
L 141.073047 177.524621 
L 141.790482 174.75757 
L 141.606505 173.135887 
L 141.874883 170.535658 
L 141.31169 167.431982 
L 141.806301 165.444543 
L 144.068057 161.764141 
L 144.944888 158.945704 
L 149.3501 156.028706 
L 156.225582 147.595306 
L 156.273709 143.938571 
L 157.017818 142.801346 
L 158.081777 142.583634 
L 159.816989 142.933145 
L 161.128366 141.984775 
L 161.453015 139.698413 
L 162.29349 138.921701 
L 163.759026 138.806604 
L 165.051517 138.748462 
L 166.980396 137.364728 
L 168.49405 134.792822 
L 169.689345 129.479048 
L 171.945553 123.962477 
L 174.796943 119.763142 
L 176.448423 116.410933 
L 179.840054 114.945159 
L 179.380758 114.552008 
L 184.981539 114.87087 
L 197.849126 121.723038 
L 197.692862 137.506886 
L 156.067539 232.320848 
z
" clip-path="url(#p0affe3cc1a)" style="fill: #ffedd9; stroke: #ffedd9; stroke-linejoin: miter"/>
   </g>
   <g id="line2d_1">
    <path d="M 345.359798 114.922327 
L 351.902436 120.903195 
L 352.108052 155.71426 
L 347.63123 166.218252 
L 344.805421 172.95151 
L 335.724193 194.362258 
L 332.189645 202.724792 
L 300.804741 220.780599 
L 298.946778 221.871491 
L 259.044129 222.571019 
L 238.741034 222.83758 
L 220.490237 222.725076 
L 188.079976 222.788916 
L 178.402771 225.468617 
L 156.067539 232.320848 
L 197.692862 137.506886 
L 230.509204 162.568301 
L 235.91333 161.456707 
L 243.026185 160.056664 
L 311.818876 138.138199 
L 317.327109 134.326802 
L 345.359798 114.922327 
" clip-path="url(#p0affe3cc1a)" style="fill: none; stroke: #ffc380; stroke-width: 0.5; stroke-linecap: square"/>
   </g>
   <g id="line2d_2">
    <path d="M 156.067539 232.320848 
L 120.211948 234.503992 
L 121.117637 232.099112 
L 120.959736 229.441736 
L 122.101428 228.078785 
L 122.997894 227.332628 
L 123.230115 226.334852 
L 122.963002 224.866154 
L 124.056061 223.326748 
L 125.885505 220.589606 
L 127.1495 217.460392 
L 129.047905 216.056611 
L 129.916507 213.140904 
L 131.312085 207.325879 
L 131.365863 205.847221 
L 131.735528 204.509647 
L 135.248084 202.644094 
L 136.201937 200.508563 
L 135.007853 194.045247 
L 135.464976 191.356385 
L 138.142689 183.971442 
L 138.312901 179.904973 
L 139.304321 178.766613 
L 141.073047 177.524621 
L 141.790482 174.75757 
L 141.606505 173.135887 
L 141.874883 170.535658 
L 141.31169 167.431982 
L 141.806301 165.444543 
L 144.068057 161.764141 
L 144.944888 158.945704 
L 149.3501 156.028706 
L 156.225582 147.595306 
L 156.273709 143.938571 
L 157.017818 142.801346 
L 158.081777 142.583634 
L 159.816989 142.933145 
L 161.128366 141.984775 
L 161.453015 139.698413 
L 162.29349 138.921701 
L 163.759026 138.806604 
L 165.051517 138.748462 
L 166.980396 137.364728 
L 168.49405 134.792822 
L 169.689345 129.479048 
L 171.945553 123.962477 
L 174.796943 119.763142 
L 176.448423 116.410933 
L 179.840054 114.945159 
L 179.380758 114.552008 
L 184.981539 114.87087 
L 197.849126 121.723038 
L 197.692862 137.506886 
L 156.067539 232.320848 
" clip-path="url(#p0affe3cc1a)" style="fill: none; stroke: #ffc380; stroke-width: 0.5; stroke-linecap: square"/>
   </g>
   <g id="line2d_3">
    <path d="M 368.216114 63.673476 
L 387.883522 82.465549 
L 378.583488 91.916741 
L 359.341928 105.231452 
L 345.359798 114.922327 
L 327.179146 100.817511 
L 316.965785 92.909763 
L 287.296522 72.498937 
L 305.164438 69.799168 
L 321.702814 72.346313 
L 346.634488 64.808397 
L 368.216114 63.673476 
" clip-path="url(#p0affe3cc1a)" style="fill: none; stroke: #8f8f8f; stroke-width: 0.2; stroke-linecap: square"/>
   </g>
   <g id="line2d_4">
    <path d="M 430.486452 236.351867 
L 440.466317 251.49062 
L 454.84385 249.156579 
L 432.875093 296.83879 
L 408.4553 305.885412 
L 397.466933 309.957574 
L 383.255859 313.02533 
L 337.08812 308.866975 
L 317.417135 307.161165 
L 338.242023 289.619784 
L 338.292838 268.145495 
L 332.170295 268.677744 
L 325.590673 257.634118 
L 299.71138 259.301292 
L 299.481237 248.02692 
L 298.946778 221.871491 
L 300.804741 220.780599 
L 332.189645 202.724792 
L 335.724193 194.362258 
L 429.463397 210.506764 
L 429.902232 221.58842 
L 454.84385 249.156579 
L 432.875093 296.83879 
L 408.4553 305.885412 
L 397.466933 309.957574 
L 383.255859 313.02533 
L 337.08812 308.866975 
L 317.417135 307.161165 
L 299.959782 271.477958 
L 299.8678 266.968039 
L 299.71138 259.301292 
L 299.481237 248.02692 
L 298.946778 221.871491 
L 298.251492 187.901618 
L 335.724193 194.362258 
L 429.463397 210.506764 
L 451.456569 214.755446 
L 451.419577 222.697137 
L 452.582919 231.67896 
L 454.84385 249.156579 
L 432.875093 296.83879 
L 408.4553 305.885412 
L 397.466933 309.957574 
L 383.255859 313.02533 
L 337.08812 308.866975 
L 317.417135 307.161165 
L 299.959782 271.477958 
L 299.8678 266.968039 
L 299.71138 259.301292 
L 299.481237 248.02692 
L 298.946778 221.871491 
L 298.251492 187.901618 
L 335.724193 194.362258 
L 429.463397 210.506764 
L 451.456569 214.755446 
L 451.419577 222.697137 
L 452.582919 231.67896 
L 430.486452 236.351867 
L 440.466317 251.49062 
L 454.84385 249.156579 
L 432.875093 296.83879 
L 408.4553 305.885412 
L 397.466933 309.957574 
L 383.255859 313.02533 
L 337.08812 308.866975 
L 317.417135 307.161165 
L 338.242023 289.619784 
L 338.292838 268.145495 
L 332.170295 268.677744 
L 325.590673 257.634118 
L 299.71138 259.301292 
L 299.481237 248.02692 
L 298.946778 221.871491 
L 298.251492 187.901618 
L 335.724193 194.362258 
L 429.463397 210.506764 
L 429.902232 221.58842 
L 454.84385 249.156579 
L 432.875093 296.83879 
L 408.4553 305.885412 
L 397.466933 309.957574 
L 383.255859 313.02533 
L 337.08812 308.866975 
L 317.417135 307.161165 
L 338.242023 289.619784 
L 338.292838 268.145495 
L 332.170295 268.677744 
L 325.590673 257.634118 
L 299.71138 259.301292 
L 299.481237 248.02692 
L 298.946778 221.871491 
L 298.251492 187.901618 
L 335.724193 194.362258 
L 429.463397 210.506764 
L 451.456569 214.755446 
L 451.419577 222.697137 
L 452.582919 231.67896 
L 454.84385 249.156579 
L 432.875093 296.83879 
L 408.4553 305.885412 
L 397.466933 309.957574 
L 383.255859 313.02533 
L 337.08812 308.866975 
L 317.417135 307.161165 
L 299.959782 271.477958 
L 299.8678 266.968039 
L 299.71138 259.301292 
L 299.481237 248.02692 
L 298.946778 221.871491 
L 298.251492 187.901618 
L 335.724193 194.362258 
L 429.463397 210.506764 
L 451.456569 214.755446 
L 451.419577 222.697137 
L 452.582919 231.67896 
L 430.486452 236.351867 
" clip-path="url(#p0affe3cc1a)" style="fill: none; stroke: #8f8f8f; stroke-width: 0.2; stroke-linecap: square"/>
   </g>
   <g id="line2d_5">
    <path d="M 359.341928 105.231452 
L 418.761964 156.375116 
L 414.096912 161.894423 
L 408.902379 172.846311 
L 428.701147 191.274132 
L 430.486452 236.351867 
L 416.608311 243.320073 
L 377.887542 210.323787 
L 332.189645 202.724792 
L 352.108052 155.71426 
L 351.902436 120.903195 
L 345.359798 114.922327 
L 359.341928 105.231452 
L 418.761964 156.375116 
L 414.096912 161.894423 
L 408.902379 172.846311 
L 428.701147 191.274132 
L 429.463397 210.506764 
L 335.724193 194.362258 
L 352.108052 155.71426 
L 351.902436 120.903195 
L 345.359798 114.922327 
L 359.341928 105.231452 
L 418.761964 156.375116 
L 414.096912 161.894423 
L 408.902379 172.846311 
L 428.701147 191.274132 
L 429.463397 210.506764 
L 298.251492 187.901618 
L 297.946526 173.021689 
L 317.327109 134.326802 
L 359.341928 105.231452 
L 418.761964 156.375116 
L 424.099039 150.449664 
L 443.431564 149.285871 
L 455.718805 148.982199 
L 461.8 148.706926 
M 461.8 247.742636 
L 454.84385 249.156579 
L 451.419577 222.697137 
L 451.456569 214.755446 
L 429.463397 210.506764 
L 298.251492 187.901618 
L 297.946526 173.021689 
L 317.327109 134.326802 
L 359.341928 105.231452 
L 418.761964 156.375116 
L 424.099039 150.449664 
L 443.431564 149.285871 
L 455.718805 148.982199 
L 461.8 148.706926 
M 461.8 247.742636 
L 454.84385 249.156579 
L 451.419577 222.697137 
L 451.456569 214.755446 
L 429.463397 210.506764 
L 298.251492 187.901618 
L 297.946526 173.021689 
L 317.327109 134.326802 
L 359.341928 105.231452 
L 418.761964 156.375116 
L 424.099039 150.449664 
L 443.431564 149.285871 
L 455.718805 148.982199 
L 461.8 148.706926 
M 461.8 247.742636 
L 454.84385 249.156579 
L 451.419577 222.697137 
L 451.456569 214.755446 
L 429.463397 210.506764 
L 298.251492 187.901618 
L 297.946526 173.021689 
L 317.327109 134.326802 
L 359.341928 105.231452 
L 359.341928 105.231452 
" clip-path="url(#p0affe3cc1a)" style="fill: none; stroke: #8f8f8f; stroke-width: 0.2; stroke-linecap: square"/>
   </g>
   <g id="line2d_6">
    <path d="M 102.489431 215.738267 
L 129.047905 216.056611 
L 127.1495 217.460392 
L 125.885505 220.589606 
L 122.963002 224.866154 
L 123.230115 226.334852 
L 122.997894 227.332628 
L 122.101428 228.078785 
L 120.959736 229.441736 
L 121.117637 232.099112 
L 120.211948 234.503992 
L 120.346343 234.71523 
L 120.475838 235.798416 
L 120.513055 237.219352 
L 120.77791 238.37095 
L 120.502407 239.113601 
L 120.544973 239.587418 
L 120.408526 239.721959 
L 120.315394 240.195013 
L 120.358718 240.533529 
L 120.177398 240.600158 
L 120.26519 241.074235 
L 120.543083 241.53585 
L 121.046334 242.161076 
L 122.020259 243.722454 
L 123.393367 245.015162 
L 123.851867 245.639951 
L 124.57536 247.605613 
L 124.991945 249.434379 
L 124.516276 250.352118 
L 123.801635 251.904569 
L 123.15549 252.428941 
L 121.915171 253.870194 
L 121.245512 255.314392 
L 121.231538 256.207381 
L 121.232876 259.265477 
L 121.194284 259.684739 
L 120.682704 260.317886 
L 119.297219 261.419611 
L 118.986408 261.810224 
L 118.8255 262.945937 
L 118.954719 264.13747 
L 119.349551 264.93812 
L 119.480844 265.791368 
L 119.390874 267.225209 
L 119.104944 267.981335 
L 117.834196 270.869664 
L 117.571879 272.180684 
L 116.372395 275.082746 
L 116.491353 276.436683 
L 116.687194 277.128021 
L 117.814851 280.20663 
L 118.189499 281.480879 
L 118.01241 282.183506 
L 117.633246 283.182632 
L 117.193192 283.694211 
L 115.940004 284.647312 
L 114.645099 286.371273 
L 114.769658 286.832173 
L 115.026809 287.772063 
L 113.484047 295.355394 
L 105.725847 302.818454 
L 102.74462 322.405146 
L 98.867629 330.582039 
L 71.435587 331.314546 
L 73.25996 333.93143 
L 72.679937 335.24699 
L 71.69902 336.158597 
L 68.299152 336.475887 
L 69.023104 337.73051 
L 68.236766 339.752197 
L 67.023857 340.392088 
L 64.046322 340.986246 
L 30.976504 334.894178 
L 6.806004 307.334125 
L 15.451817 257.885984 
L 29.928363 261.725362 
L 50.837187 267.555154 
L 51.188071 245.193017 
L 77.249163 213.452861 
L 119.449112 266.748928 
L 140.776271 274.386427 
L 136.259519 286.822001 
L 136.74282 301.746825 
L 137.243573 305.134235 
L 102.74462 322.405146 
L 105.725847 302.818454 
L 113.484047 295.355394 
L 115.026809 287.772063 
L 114.645099 286.371273 
L 114.921507 285.872341 
L 115.940004 284.647312 
L 117.193192 283.694211 
L 117.633246 283.182632 
L 118.189499 281.480879 
L 116.491353 276.436683 
L 116.372395 275.082746 
L 116.677507 274.259172 
L 117.571879 272.180684 
L 117.834196 270.869664 
L 119.390874 267.225209 
L 102.489431 215.738267 
L 102.489431 215.738267 
" clip-path="url(#p0affe3cc1a)" style="fill: none; stroke: #8f8f8f; stroke-width: 0.2; stroke-linecap: square"/>
   </g>
   <g id="line2d_7">
    <path d="M 69.777012 105.380837 
L 55.981619 89.284834 
L 51.519783 86.597752 
L 48.175382 87.167483 
L 46.214721 82.511796 
L 45.20026 80.089176 
L 43.853368 79.956217 
L 42.257112 74.424254 
L 41.016173 74.454916 
L 41.932205 71.612931 
L 40.318138 71.150143 
L 38.961738 69.38522 
L 34.798499 65.603072 
L 35.244004 64.572589 
L 32.659248 61.775971 
L 33.522501 60.679529 
L 34.823339 61.864295 
L 36.087094 59.574605 
L 34.287014 59.483026 
L 34.084177 57.083964 
L 32.03796 55.98435 
L 31.659749 55.300554 
L 30.683778 54.723544 
L 30.430123 53.430967 
L 31.364638 52.851875 
L 32.25344 52.48037 
L 31.124163 51.381432 
L 30.749249 50.547303 
L 29.190738 50.253749 
L 27.490542 48.491191 
L 26.105125 48.12517 
L 25.57616 47.701059 
L -1 47.868008 
M -1 225.918061 
L 33.69753 240.08414 
L 55.083475 240.441418 
L 76.256984 214.756429 
L 77.249163 213.452861 
L 81.666491 208.054417 
L 91.694674 195.682829 
L 95.240217 195.679437 
L 97.072981 197.312486 
L 98.8287 199.282607 
L 100.682487 201.591365 
L 102.491606 203.410654 
L 104.754109 204.932416 
L 107.196947 205.891039 
L 111.436434 196.789284 
L 129.186176 197.792374 
L 131.208566 197.913702 
L 136.201937 200.508563 
L 135.007853 194.045247 
L 135.464976 191.356385 
L 138.142689 183.971442 
L 138.312901 179.904973 
L 139.304321 178.766613 
L 141.073047 177.524621 
L 141.790482 174.75757 
L 141.606505 173.135887 
L 141.874883 170.535658 
L 141.31169 167.431982 
L 141.806301 165.444543 
L 144.068057 161.764141 
L 144.944888 158.945704 
L 149.3501 156.028706 
L 156.225582 147.595306 
L 156.273709 143.938571 
L 157.017818 142.801346 
L 158.081777 142.583634 
L 159.816989 142.933145 
L 161.128366 141.984775 
L 161.453015 139.698413 
L 162.29349 138.921701 
L 163.759026 138.806604 
L 165.051517 138.748462 
L 166.980396 137.364728 
L 168.49405 134.792822 
L 169.689345 129.479048 
L 171.945553 123.962477 
L 174.796943 119.763142 
L 176.448423 116.410933 
L 179.840054 114.945159 
L 179.380758 114.552008 
L 178.999714 113.497988 
L 176.667493 114.706239 
L 176.487982 113.311848 
L 174.337054 113.16867 
L 174.285803 113.514871 
L 173.507121 113.147214 
L 172.761264 113.594443 
L 171.276459 113.165555 
L 170.211556 112.283604 
L 168.848732 112.16699 
L 168.46075 111.742176 
L 166.955697 111.747875 
L 164.996144 110.559463 
L 163.641546 108.480655 
L 161.118711 107.872408 
L 160.896584 107.517373 
L 160.370033 107.694105 
L 160.16121 107.043692 
L 158.674983 106.510556 
L 156.987694 106.847678 
L 154.406869 102.837711 
L 153.218375 102.712395 
L 151.358329 104.821925 
L 147.341898 105.818994 
L 144.474547 104.15809 
L 140.805775 101.736266 
L 135.392454 104.320688 
L 126.46237 102.952065 
L 126.446551 100.244942 
L 117.334783 96.569085 
L 113.876809 91.368394 
L 115.472651 89.242403 
L 114.265204 87.865454 
L 104.519025 104.890633 
L 92.134636 119.020566 
L 79.217675 111.21258 
L 69.777012 105.380837 
" clip-path="url(#p0affe3cc1a)" style="fill: none; stroke: #8f8f8f; stroke-width: 0.2; stroke-linecap: square"/>
   </g>
   <g id="line2d_8">
    <path d="M 156.067539 232.320848 
L 120.211948 234.503992 
L 121.117637 232.099112 
L 120.959736 229.441736 
L 122.101428 228.078785 
L 122.997894 227.332628 
L 123.230115 226.334852 
L 122.963002 224.866154 
L 124.056061 223.326748 
L 125.885505 220.589606 
L 127.1495 217.460392 
L 129.047905 216.056611 
L 129.916507 213.140904 
L 131.312085 207.325879 
L 131.365863 205.847221 
L 131.735528 204.509647 
L 135.248084 202.644094 
L 136.201937 200.508563 
L 135.007853 194.045247 
L 135.464976 191.356385 
L 138.142689 183.971442 
L 138.312901 179.904973 
L 139.304321 178.766613 
L 141.073047 177.524621 
L 141.790482 174.75757 
L 141.606505 173.135887 
L 141.874883 170.535658 
L 141.31169 167.431982 
L 141.31169 167.431982 
L 141.806301 165.444543 
L 144.068057 161.764141 
L 144.944888 158.945704 
L 149.3501 156.028706 
L 156.225582 147.595306 
L 156.273709 143.938571 
L 157.017818 142.801346 
L 158.081777 142.583634 
L 159.816989 142.933145 
L 161.128366 141.984775 
L 161.453015 139.698413 
L 162.29349 138.921701 
L 163.759026 138.806604 
L 165.051517 138.748462 
L 166.980396 137.364728 
L 168.49405 134.792822 
L 169.689345 129.479048 
L 171.945553 123.962477 
L 174.796943 119.763142 
L 176.448423 116.410933 
L 179.840054 114.945159 
L 179.380758 114.552008 
L 184.981539 114.87087 
L 197.849126 121.723038 
L 197.692862 137.506886 
L 156.067539 232.320848 
" clip-path="url(#p0affe3cc1a)" style="fill: none; stroke: #8f8f8f; stroke-width: 0.2; stroke-linecap: square"/>
   </g>
   <g id="line2d_9">
    <path d="M 238.741034 222.83758 
L 259.044129 222.571019 
L 298.946778 221.871491 
L 299.481237 248.02692 
L 299.71138 259.301292 
L 299.8678 266.968039 
L 299.959782 271.477958 
L 317.417135 307.161165 
L 335.599279 333.388663 
L 341.10847 341.371697 
L 344.705342 346.6 
M 247.952159 346.6 
L 248.413978 346.061965 
L 255.091181 343.529694 
L 258.214889 333.522254 
L 260.469771 332.66274 
L 267.29649 329.924662 
L 276.441661 326.584764 
L 279.42112 316.640626 
L 281.124623 310.595783 
L 282.635684 305.136383 
L 283.812263 300.437674 
L 283.449438 281.645218 
L 271.398459 280.277499 
L 250.888871 278.095088 
L 249.396059 257.249827 
L 238.741034 222.83758 
L 259.044129 222.571019 
L 298.946778 221.871491 
L 299.481237 248.02692 
L 299.71138 259.301292 
L 299.8678 266.968039 
L 299.959782 271.477958 
L 317.417135 307.161165 
L 335.599279 333.388663 
L 341.10847 341.371697 
L 344.705342 346.6 
M 243.524008 346.6 
L 242.829684 340.03989 
L 228.9784 323.78139 
L 223.904416 309.918175 
L 216.487604 306.647291 
L 220.835692 302.224088 
L 299.71138 259.301292 
L 325.590673 257.634118 
L 332.170295 268.677744 
L 338.292838 268.145495 
L 338.242023 289.619784 
L 317.417135 307.161165 
L 299.959782 271.477958 
L 299.8678 266.968039 
L 238.741034 222.83758 
" clip-path="url(#p0affe3cc1a)" style="fill: none; stroke: #8f8f8f; stroke-width: 0.2; stroke-linecap: square"/>
   </g>
   <g id="line2d_10">
    <path d="M 178.402771 225.468617 
L 177.060517 250.301191 
L 176.712658 256.466968 
L 160.730053 264.59226 
L 140.776271 274.386427 
L 156.067539 232.320848 
L 136.259519 286.822001 
L 119.449112 266.748928 
L 140.776271 274.386427 
L 119.449112 266.748928 
L 119.480844 265.791368 
L 119.349551 264.93812 
L 118.954719 264.13747 
L 118.876093 263.60928 
L 118.8255 262.945937 
L 118.873328 262.526738 
L 118.986408 261.810224 
L 119.297219 261.419611 
L 119.689272 261.097106 
L 120.682704 260.317886 
L 121.194284 259.684739 
L 121.232876 259.265477 
L 121.287368 258.151691 
L 121.231538 256.207381 
L 121.270556 255.706937 
L 121.245512 255.314392 
L 121.365005 255.017359 
L 121.640074 254.450547 
L 121.915171 253.870194 
L 123.15549 252.428941 
L 123.801635 251.904569 
L 124.14029 251.243272 
L 124.516276 250.352118 
L 124.79097 249.771657 
L 124.991945 249.434379 
L 124.886001 248.879081 
L 124.57536 247.605613 
L 124.191095 246.588849 
L 123.851867 245.639951 
L 123.393367 245.015162 
L 122.020259 243.722454 
L 121.046334 242.161076 
L 120.543083 241.53585 
L 120.44538 241.21056 
L 120.399379 241.34561 
L 120.26519 241.074235 
L 120.221101 240.871022 
L 120.175481 240.938418 
L 120.177398 240.600158 
L 120.358718 240.533529 
L 120.315394 240.195013 
L 120.31654 239.992057 
L 120.408526 239.721959 
L 120.544973 239.587418 
L 120.502407 239.113601 
L 120.731178 238.641305 
L 120.686334 238.5734 
L 120.77791 238.37095 
L 120.779043 238.167995 
L 120.688605 238.16749 
L 120.645281 237.828978 
L 120.513055 237.219352 
L 120.475838 235.798416 
L 120.38963 235.053742 
L 120.346343 234.71523 
L 120.211948 234.503992 
L 156.067539 232.320848 
L 140.776271 274.386427 
L 188.079976 222.788916 
L 220.490237 222.725076 
L 238.741034 222.83758 
L 220.835692 302.224088 
L 216.487604 306.647291 
L 188.782306 306.537693 
L 183.251692 306.288828 
L 176.514386 288.266036 
L 174.915474 286.202467 
L 167.43696 283.736537 
L 139.434386 297.718484 
L 136.618043 296.584866 
L 136.259519 286.822001 
L 119.449112 266.748928 
L 140.776271 274.386427 
L 156.067539 232.320848 
L 178.402771 225.468617 
L 176.712658 256.466968 
L 175.234699 280.555885 
L 174.915474 286.202467 
L 167.43696 283.736537 
L 139.434386 297.718484 
L 136.618043 296.584866 
L 136.259519 286.822001 
L 140.776271 274.386427 
L 160.730053 264.59226 
L 178.402771 225.468617 
" clip-path="url(#p0affe3cc1a)" style="fill: none; stroke: #8f8f8f; stroke-width: 0.2; stroke-linecap: square"/>
   </g>
   <g id="line2d_11">
    <path d="M 188.079976 222.788916 
L 220.490237 222.725076 
L 238.741034 222.83758 
L 249.396059 257.249827 
L 250.888871 278.095088 
L 250.438136 307.761388 
L 243.120141 307.064129 
L 233.702483 300.637718 
L 212.564441 298.683455 
L 209.306287 298.241646 
L 206.282955 298.728987 
L 203.124343 299.410215 
L 200.526637 300.606567 
L 177.060517 250.301191 
L 178.402771 225.468617 
L 188.079976 222.788916 
" clip-path="url(#p0affe3cc1a)" style="fill: none; stroke: #8f8f8f; stroke-width: 0.2; stroke-linecap: square"/>
   </g>
   <g id="line2d_12">
    <path d="M 238.741034 222.83758 
L 259.044129 222.571019 
L 298.946778 221.871491 
L 299.481237 248.02692 
L 299.71138 259.301292 
L 325.590673 257.634118 
L 332.170295 268.677744 
L 338.292838 268.145495 
L 338.242023 289.619784 
L 337.08812 308.866975 
L 335.599279 333.388663 
L 310.569256 324.11267 
L 312.327228 326.265587 
L 276.441661 326.584764 
L 279.42112 316.640626 
L 281.124623 310.595783 
L 282.635684 305.136383 
L 283.812263 300.437674 
L 283.449438 281.645218 
L 271.398459 280.277499 
L 250.888871 278.095088 
L 249.396059 257.249827 
L 238.741034 222.83758 
" clip-path="url(#p0affe3cc1a)" style="fill: none; stroke: #8f8f8f; stroke-width: 0.2; stroke-linecap: square"/>
   </g>
   <g id="line2d_13">
    <path d="M 189.085398 78.554633 
L 193.870217 78.644026 
L 192.235097 100.146169 
L 189.990978 109.889397 
L 184.981539 114.87087 
L 179.380758 114.552008 
L 178.999714 113.497988 
L 176.667493 114.706239 
L 176.487982 113.311848 
L 174.337054 113.16867 
L 174.285803 113.514871 
L 173.507121 113.147214 
L 172.761264 113.594443 
L 171.276459 113.165555 
L 170.211556 112.283604 
L 168.848732 112.16699 
L 168.46075 111.742176 
L 166.955697 111.747875 
L 164.996144 110.559463 
L 179.014404 99.25935 
L 189.085398 78.554633 
" clip-path="url(#p0affe3cc1a)" style="fill: none; stroke: #8f8f8f; stroke-width: 0.2; stroke-linecap: square"/>
   </g>
   <g id="line2d_14">
    <path d="M 287.296522 72.498937 
L 316.965785 92.909763 
L 327.179146 100.817511 
L 345.359798 114.922327 
L 317.327109 134.326802 
L 311.818876 138.138199 
L 243.026185 160.056664 
L 235.91333 161.456707 
L 230.509204 162.568301 
L 197.692862 137.506886 
L 197.849126 121.723038 
L 198.426624 110.746938 
L 192.235097 100.146169 
L 193.870217 78.644026 
L 221.454958 79.269009 
L 246.518768 79.850778 
L 251.414207 77.116345 
L 253.775393 75.805355 
L 262.641734 74.921349 
L 287.296522 72.498937 
" clip-path="url(#p0affe3cc1a)" style="fill: none; stroke: #8f8f8f; stroke-width: 0.2; stroke-linecap: square"/>
   </g>
   <g id="line2d_15">
    <path d="M 192.235097 100.146169 
L 198.426624 110.746938 
L 197.849126 121.723038 
L 184.981539 114.87087 
L 189.990978 109.889397 
L 192.235097 100.146169 
" clip-path="url(#p0affe3cc1a)" style="fill: none; stroke: #8f8f8f; stroke-width: 0.2; stroke-linecap: square"/>
   </g>
   <g id="line2d_16">
    <path d="M 368.216114 63.673476 
L 370.240768 73.385568 
L 378.583488 91.916741 
L 359.341928 105.231452 
L 345.359798 114.922327 
L 327.179146 100.817511 
L 316.965785 92.909763 
L 287.296522 72.498937 
L 305.164438 69.799168 
L 321.702814 72.346313 
L 346.634488 64.808397 
L 368.216114 63.673476 
" clip-path="url(#p0affe3cc1a)" style="fill: none; stroke: #8f8f8f; stroke-width: 0.2; stroke-linecap: square"/>
   </g>
   <g id="line2d_17">
    <path d="M 345.359798 114.922327 
L 351.902436 120.903195 
L 352.108052 155.71426 
L 347.63123 166.218252 
L 344.805421 172.95151 
L 335.724193 194.362258 
L 332.189645 202.724792 
L 300.804741 220.780599 
L 298.946778 221.871491 
L 259.044129 222.571019 
L 238.741034 222.83758 
L 220.490237 222.725076 
L 188.079976 222.788916 
L 178.402771 225.468617 
L 156.067539 232.320848 
L 197.692862 137.506886 
L 230.509204 162.568301 
L 235.91333 161.456707 
L 243.026185 160.056664 
L 311.818876 138.138199 
L 317.327109 134.326802 
L 345.359798 114.922327 
L 345.359798 114.922327 
" clip-path="url(#p0affe3cc1a)" style="fill: none; stroke: #ffc380; stroke-width: 0.5; stroke-linecap: square"/>
   </g>
   <g id="line2d_18">
    <path d="M 156.067539 232.320848 
L 120.211948 234.503992 
L 121.117637 232.099112 
L 120.959736 229.441736 
L 122.101428 228.078785 
L 122.997894 227.332628 
L 123.230115 226.334852 
L 122.963002 224.866154 
L 124.056061 223.326748 
L 125.885505 220.589606 
L 127.1495 217.460392 
L 129.047905 216.056611 
L 129.916507 213.140904 
L 131.312085 207.325879 
L 131.365863 205.847221 
L 131.735528 204.509647 
L 135.248084 202.644094 
L 136.201937 200.508563 
L 135.007853 194.045247 
L 135.464976 191.356385 
L 138.142689 183.971442 
L 138.312901 179.904973 
L 139.304321 178.766613 
L 141.073047 177.524621 
L 141.790482 174.75757 
L 141.606505 173.135887 
L 141.874883 170.535658 
L 141.31169 167.431982 
L 141.806301 165.444543 
L 144.068057 161.764141 
L 144.944888 158.945704 
L 149.3501 156.028706 
L 156.225582 147.595306 
L 156.273709 143.938571 
L 157.017818 142.801346 
L 158.081777 142.583634 
L 159.816989 142.933145 
L 161.128366 141.984775 
L 161.453015 139.698413 
L 162.29349 138.921701 
L 163.759026 138.806604 
L 165.051517 138.748462 
L 166.980396 137.364728 
L 168.49405 134.792822 
L 169.689345 129.479048 
L 171.945553 123.962477 
L 174.796943 119.763142 
L 176.448423 116.410933 
L 179.840054 114.945159 
L 179.380758 114.552008 
L 184.981539 114.87087 
L 197.849126 121.723038 
L 197.692862 137.506886 
L 156.067539 232.320848 
L 156.067539 232.320848 
" clip-path="url(#p0affe3cc1a)" style="fill: none; stroke: #ffc380; stroke-width: 0.5; stroke-linecap: square"/>
   </g>
   <g id="text_1">
    <!-- DKB2 -->
    <g style="opacity: 0.5" transform="translate(329.6342 84.412046)scale(0.0579 -0.0579)">
     <defs>
      <path id="DejaVuSans-44" d="M 1259 4147 
L 1259 519 
L 2022 519 
Q 2988 519 3436 956 
Q 3884 1394 3884 2338 
Q 3884 3275 3436 3711 
Q 2988 4147 2022 4147 
L 1259 4147 
z
M 628 4666 
L 1925 4666 
Q 3281 4666 3915 4102 
Q 4550 3538 4550 2338 
Q 4550 1131 3912 565 
Q 3275 0 1925 0 
L 628 0 
L 628 4666 
z
" transform="scale(0.015625)"/>
      <path id="DejaVuSans-4b" d="M 628 4666 
L 1259 4666 
L 1259 2694 
L 3353 4666 
L 4166 4666 
L 1850 2491 
L 4331 0 
L 3500 0 
L 1259 2247 
L 1259 0 
L 628 0 
L 628 4666 
z
" transform="scale(0.015625)"/>
      <path id="DejaVuSans-42" d="M 1259 2228 
L 1259 519 
L 2272 519 
Q 2781 519 3026 730 
Q 3272 941 3272 1375 
Q 3272 1813 3026 2020 
Q 2781 2228 2272 2228 
L 1259 2228 
z
M 1259 4147 
L 1259 2741 
L 2194 2741 
Q 2656 2741 2882 2914 
Q 3109 3088 3109 3444 
Q 3109 3797 2882 3972 
Q 2656 4147 2194 4147 
L 1259 4147 
z
M 628 4666 
L 2241 4666 
Q 2963 4666 3353 4366 
Q 3744 4066 3744 3513 
Q 3744 3084 3544 2831 
Q 3344 2578 2956 2516 
Q 3422 2416 3680 2098 
Q 3938 1781 3938 1306 
Q 3938 681 3513 340 
Q 3088 0 2303 0 
L 628 0 
L 628 4666 
z
" transform="scale(0.015625)"/>
      <path id="DejaVuSans-32" d="M 1228 531 
L 3431 531 
L 3431 0 
L 469 0 
L 469 531 
Q 828 903 1448 1529 
Q 2069 2156 2228 2338 
Q 2531 2678 2651 2914 
Q 2772 3150 2772 3378 
Q 2772 3750 2511 3984 
Q 2250 4219 1831 4219 
Q 1534 4219 1204 4116 
Q 875 4013 500 3803 
L 500 4441 
Q 881 4594 1212 4672 
Q 1544 4750 1819 4750 
Q 2544 4750 2975 4387 
Q 3406 4025 3406 3419 
Q 3406 3131 3298 2873 
Q 3191 2616 2906 2266 
Q 2828 2175 2409 1742 
Q 1991 1309 1228 531 
z
" transform="scale(0.015625)"/>
     </defs>
     <use xlink:href="#DejaVuSans-44"/>
     <use xlink:href="#DejaVuSans-4b" x="77.001953"/>
     <use xlink:href="#DejaVuSans-42" x="142.578125"/>
     <use xlink:href="#DejaVuSans-32" x="211.181641"/>
    </g>
    <!-- 245 -->
    <g style="opacity: 0.5" transform="translate(332.06419 90.89558)scale(0.0579 -0.0579)">
     <defs>
      <path id="DejaVuSans-34" d="M 2419 4116 
L 825 1625 
L 2419 1625 
L 2419 4116 
z
M 2253 4666 
L 3047 4666 
L 3047 1625 
L 3713 1625 
L 3713 1100 
L 3047 1100 
L 3047 0 
L 2419 0 
L 2419 1100 
L 313 1100 
L 313 1709 
L 2253 4666 
z
" transform="scale(0.015625)"/>
      <path id="DejaVuSans-35" d="M 691 4666 
L 3169 4666 
L 3169 4134 
L 1269 4134 
L 1269 2991 
Q 1406 3038 1543 3061 
Q 1681 3084 1819 3084 
Q 2600 3084 3056 2656 
Q 3513 2228 3513 1497 
Q 3513 744 3044 326 
Q 2575 -91 1722 -91 
Q 1428 -91 1123 -41 
Q 819 9 494 109 
L 494 744 
Q 775 591 1075 516 
Q 1375 441 1709 441 
Q 2250 441 2565 725 
Q 2881 1009 2881 1497 
Q 2881 1984 2565 2268 
Q 2250 2553 1709 2553 
Q 1456 2553 1204 2497 
Q 953 2441 691 2322 
L 691 4666 
z
" transform="scale(0.015625)"/>
     </defs>
     <use xlink:href="#DejaVuSans-32"/>
     <use xlink:href="#DejaVuSans-34" x="63.623047"/>
     <use xlink:href="#DejaVuSans-35" x="127.246094"/>
    </g>
    <!-- 105 -->
    <g style="opacity: 0.5" transform="translate(332.06419 97.379113)scale(0.0579 -0.0579)">
     <defs>
      <path id="DejaVuSans-31" d="M 794 531 
L 1825 531 
L 1825 4091 
L 703 3866 
L 703 4441 
L 1819 4666 
L 2450 4666 
L 2450 531 
L 3481 531 
L 3481 0 
L 794 0 
L 794 531 
z
" transform="scale(0.015625)"/>
      <path id="DejaVuSans-30" d="M 2034 4250 
Q 1547 4250 1301 3770 
Q 1056 3291 1056 2328 
Q 1056 1369 1301 889 
Q 1547 409 2034 409 
Q 2525 409 2770 889 
Q 3016 1369 3016 2328 
Q 3016 3291 2770 3770 
Q 2525 4250 2034 4250 
z
M 2034 4750 
Q 2819 4750 3233 4129 
Q 3647 3509 3647 2328 
Q 3647 1150 3233 529 
Q 2819 -91 2034 -91 
Q 1250 -91 836 529 
Q 422 1150 422 2328 
Q 422 3509 836 4129 
Q 1250 4750 2034 4750 
z
" transform="scale(0.015625)"/>
     </defs>
     <use xlink:href="#DejaVuSans-31"/>
     <use xlink:href="#DejaVuSans-30" x="63.623047"/>
     <use xlink:href="#DejaVuSans-35" x="127.246094"/>
    </g>
   </g>
   <g id="text_2">
    <!-- EDMMFUE -->
    <g style="opacity: 0.5" transform="translate(361.880425 245.577619)scale(0.0579 -0.0579)">
     <defs>
      <path id="DejaVuSans-45" d="M 628 4666 
L 3578 4666 
L 3578 4134 
L 1259 4134 
L 1259 2753 
L 3481 2753 
L 3481 2222 
L 1259 2222 
L 1259 531 
L 3634 531 
L 3634 0 
L 628 0 
L 628 4666 
z
" transform="scale(0.015625)"/>
      <path id="DejaVuSans-4d" d="M 628 4666 
L 1569 4666 
L 2759 1491 
L 3956 4666 
L 4897 4666 
L 4897 0 
L 4281 0 
L 4281 4097 
L 3078 897 
L 2444 897 
L 1241 4097 
L 1241 0 
L 628 0 
L 628 4666 
z
" transform="scale(0.015625)"/>
      <path id="DejaVuSans-46" d="M 628 4666 
L 3309 4666 
L 3309 4134 
L 1259 4134 
L 1259 2759 
L 3109 2759 
L 3109 2228 
L 1259 2228 
L 1259 0 
L 628 0 
L 628 4666 
z
" transform="scale(0.015625)"/>
      <path id="DejaVuSans-55" d="M 556 4666 
L 1191 4666 
L 1191 1831 
Q 1191 1081 1462 751 
Q 1734 422 2344 422 
Q 2950 422 3222 751 
Q 3494 1081 3494 1831 
L 3494 4666 
L 4128 4666 
L 4128 1753 
Q 4128 841 3676 375 
Q 3225 -91 2344 -91 
Q 1459 -91 1007 375 
Q 556 841 556 1753 
L 556 4666 
z
" transform="scale(0.015625)"/>
     </defs>
     <use xlink:href="#DejaVuSans-45"/>
     <use xlink:href="#DejaVuSans-44" x="63.183594"/>
     <use xlink:href="#DejaVuSans-4d" x="140.185547"/>
     <use xlink:href="#DejaVuSans-4d" x="226.464844"/>
     <use xlink:href="#DejaVuSans-46" x="312.744141"/>
     <use xlink:href="#DejaVuSans-55" x="370.263672"/>
     <use xlink:href="#DejaVuSans-45" x="443.457031"/>
    </g>
    <!-- 145 -->
    <g style="opacity: 0.5" transform="translate(371.02184 252.061152)scale(0.0579 -0.0579)">
     <use xlink:href="#DejaVuSans-31"/>
     <use xlink:href="#DejaVuSans-34" x="63.623047"/>
     <use xlink:href="#DejaVuSans-35" x="127.246094"/>
    </g>
    <!-- 105 -->
    <g style="opacity: 0.5" transform="translate(371.02184 258.544686)scale(0.0579 -0.0579)">
     <use xlink:href="#DejaVuSans-31"/>
     <use xlink:href="#DejaVuSans-30" x="63.623047"/>
     <use xlink:href="#DejaVuSans-35" x="127.246094"/>
    </g>
   </g>
   <g id="text_3">
    <!-- EDMMNDG -->
    <g style="opacity: 0.5" transform="translate(397.919115 172.30816)scale(0.0579 -0.0579)">
     <defs>
      <path id="DejaVuSans-4e" d="M 628 4666 
L 1478 4666 
L 3547 763 
L 3547 4666 
L 4159 4666 
L 4159 0 
L 3309 0 
L 1241 3903 
L 1241 0 
L 628 0 
L 628 4666 
z
" transform="scale(0.015625)"/>
      <path id="DejaVuSans-47" d="M 3809 666 
L 3809 1919 
L 2778 1919 
L 2778 2438 
L 4434 2438 
L 4434 434 
Q 4069 175 3628 42 
Q 3188 -91 2688 -91 
Q 1594 -91 976 548 
Q 359 1188 359 2328 
Q 359 3472 976 4111 
Q 1594 4750 2688 4750 
Q 3144 4750 3555 4637 
Q 3966 4525 4313 4306 
L 4313 3634 
Q 3963 3931 3569 4081 
Q 3175 4231 2741 4231 
Q 1884 4231 1454 3753 
Q 1025 3275 1025 2328 
Q 1025 1384 1454 906 
Q 1884 428 2741 428 
Q 3075 428 3337 486 
Q 3600 544 3809 666 
z
" transform="scale(0.015625)"/>
     </defs>
     <use xlink:href="#DejaVuSans-45"/>
     <use xlink:href="#DejaVuSans-44" x="63.183594"/>
     <use xlink:href="#DejaVuSans-4d" x="140.185547"/>
     <use xlink:href="#DejaVuSans-4d" x="226.464844"/>
     <use xlink:href="#DejaVuSans-4e" x="312.744141"/>
     <use xlink:href="#DejaVuSans-44" x="387.548828"/>
     <use xlink:href="#DejaVuSans-47" x="464.550781"/>
    </g>
    <!-- 105 -->
    <g style="opacity: 0.5" transform="translate(408.085541 178.791693)scale(0.0579 -0.0579)">
     <use xlink:href="#DejaVuSans-31"/>
     <use xlink:href="#DejaVuSans-30" x="63.623047"/>
     <use xlink:href="#DejaVuSans-35" x="127.246094"/>
    </g>
    <!-- GND -->
    <g style="opacity: 0.5" transform="translate(406.973227 185.275227)scale(0.0579 -0.0579)">
     <use xlink:href="#DejaVuSans-47"/>
     <use xlink:href="#DejaVuSans-4e" x="77.490234"/>
     <use xlink:href="#DejaVuSans-44" x="152.294922"/>
    </g>
   </g>
   <g id="text_4">
    <!-- LFSB-APP -->
    <g style="opacity: 0.5" transform="translate(60.288677 272.333698)scale(0.0579 -0.0579)">
     <defs>
      <path id="DejaVuSans-4c" d="M 628 4666 
L 1259 4666 
L 1259 531 
L 3531 531 
L 3531 0 
L 628 0 
L 628 4666 
z
" transform="scale(0.015625)"/>
      <path id="DejaVuSans-53" d="M 3425 4513 
L 3425 3897 
Q 3066 4069 2747 4153 
Q 2428 4238 2131 4238 
Q 1616 4238 1336 4038 
Q 1056 3838 1056 3469 
Q 1056 3159 1242 3001 
Q 1428 2844 1947 2747 
L 2328 2669 
Q 3034 2534 3370 2195 
Q 3706 1856 3706 1288 
Q 3706 609 3251 259 
Q 2797 -91 1919 -91 
Q 1588 -91 1214 -16 
Q 841 59 441 206 
L 441 856 
Q 825 641 1194 531 
Q 1563 422 1919 422 
Q 2459 422 2753 634 
Q 3047 847 3047 1241 
Q 3047 1584 2836 1778 
Q 2625 1972 2144 2069 
L 1759 2144 
Q 1053 2284 737 2584 
Q 422 2884 422 3419 
Q 422 4038 858 4394 
Q 1294 4750 2059 4750 
Q 2388 4750 2728 4690 
Q 3069 4631 3425 4513 
z
" transform="scale(0.015625)"/>
      <path id="DejaVuSans-2d" d="M 313 2009 
L 1997 2009 
L 1997 1497 
L 313 1497 
L 313 2009 
z
" transform="scale(0.015625)"/>
      <path id="DejaVuSans-41" d="M 2188 4044 
L 1331 1722 
L 3047 1722 
L 2188 4044 
z
M 1831 4666 
L 2547 4666 
L 4325 0 
L 3669 0 
L 3244 1197 
L 1141 1197 
L 716 0 
L 50 0 
L 1831 4666 
z
" transform="scale(0.015625)"/>
      <path id="DejaVuSans-50" d="M 1259 4147 
L 1259 2394 
L 2053 2394 
Q 2494 2394 2734 2622 
Q 2975 2850 2975 3272 
Q 2975 3691 2734 3919 
Q 2494 4147 2053 4147 
L 1259 4147 
z
M 628 4666 
L 2053 4666 
Q 2838 4666 3239 4311 
Q 3641 3956 3641 3272 
Q 3641 2581 3239 2228 
Q 2838 1875 2053 1875 
L 1259 1875 
L 1259 0 
L 628 0 
L 628 4666 
z
" transform="scale(0.015625)"/>
     </defs>
     <use xlink:href="#DejaVuSans-4c"/>
     <use xlink:href="#DejaVuSans-46" x="55.712891"/>
     <use xlink:href="#DejaVuSans-53" x="111.482422"/>
     <use xlink:href="#DejaVuSans-42" x="174.958984"/>
     <use xlink:href="#DejaVuSans-2d" x="243.5625"/>
     <use xlink:href="#DejaVuSans-41" x="277.396484"/>
     <use xlink:href="#DejaVuSans-50" x="345.804688"/>
     <use xlink:href="#DejaVuSans-50" x="406.107422"/>
    </g>
    <!-- 145 -->
    <g style="opacity: 0.5" transform="translate(68.265306 278.817231)scale(0.0579 -0.0579)">
     <use xlink:href="#DejaVuSans-31"/>
     <use xlink:href="#DejaVuSans-34" x="63.623047"/>
     <use xlink:href="#DejaVuSans-35" x="127.246094"/>
    </g>
    <!-- 20 -->
    <g style="opacity: 0.5" transform="translate(70.10725 285.300765)scale(0.0579 -0.0579)">
     <use xlink:href="#DejaVuSans-32"/>
     <use xlink:href="#DejaVuSans-30" x="63.623047"/>
    </g>
   </g>
   <g id="text_5">
    <!-- LFST_SIV -->
    <g style="opacity: 0.5" transform="translate(14.391307 139.053751)scale(0.0579 -0.0579)">
     <defs>
      <path id="DejaVuSans-54" d="M -19 4666 
L 3928 4666 
L 3928 4134 
L 2272 4134 
L 2272 0 
L 1638 0 
L 1638 4134 
L -19 4134 
L -19 4666 
z
" transform="scale(0.015625)"/>
      <path id="DejaVuSans-5f" d="M 3263 -1063 
L 3263 -1509 
L -63 -1509 
L -63 -1063 
L 3263 -1063 
z
" transform="scale(0.015625)"/>
      <path id="DejaVuSans-49" d="M 628 4666 
L 1259 4666 
L 1259 0 
L 628 0 
L 628 4666 
z
" transform="scale(0.015625)"/>
      <path id="DejaVuSans-56" d="M 1831 0 
L 50 4666 
L 709 4666 
L 2188 738 
L 3669 4666 
L 4325 4666 
L 2547 0 
L 1831 0 
z
" transform="scale(0.015625)"/>
     </defs>
     <use xlink:href="#DejaVuSans-4c"/>
     <use xlink:href="#DejaVuSans-46" x="55.712891"/>
     <use xlink:href="#DejaVuSans-53" x="111.482422"/>
     <use xlink:href="#DejaVuSans-54" x="174.958984"/>
     <use xlink:href="#DejaVuSans-5f" x="236.042969"/>
     <use xlink:href="#DejaVuSans-53" x="286.042969"/>
     <use xlink:href="#DejaVuSans-49" x="349.519531"/>
     <use xlink:href="#DejaVuSans-56" x="379.011719"/>
    </g>
    <!-- 145 -->
    <g style="opacity: 0.5" transform="translate(21.818792 145.698319)scale(0.0579 -0.0579)">
     <use xlink:href="#DejaVuSans-31"/>
     <use xlink:href="#DejaVuSans-34" x="63.623047"/>
     <use xlink:href="#DejaVuSans-35" x="127.246094"/>
    </g>
    <!-- GND -->
    <g style="opacity: 0.5" transform="translate(20.706478 152.181852)scale(0.0579 -0.0579)">
     <use xlink:href="#DejaVuSans-47"/>
     <use xlink:href="#DejaVuSans-4e" x="77.490234"/>
     <use xlink:href="#DejaVuSans-44" x="152.294922"/>
    </g>
   </g>
   <g id="text_6">
    <!-- LFST_TMA_0.2 -->
    <g style="opacity: 0.5" transform="translate(138.45161 169.510513)scale(0.0579 -0.0579)">
     <defs>
      <path id="DejaVuSans-2e" d="M 684 794 
L 1344 794 
L 1344 0 
L 684 0 
L 684 794 
z
" transform="scale(0.015625)"/>
     </defs>
     <use xlink:href="#DejaVuSans-4c"/>
     <use xlink:href="#DejaVuSans-46" x="55.712891"/>
     <use xlink:href="#DejaVuSans-53" x="111.482422"/>
     <use xlink:href="#DejaVuSans-54" x="174.958984"/>
     <use xlink:href="#DejaVuSans-5f" x="236.042969"/>
     <use xlink:href="#DejaVuSans-54" x="286.042969"/>
     <use xlink:href="#DejaVuSans-4d" x="347.126953"/>
     <use xlink:href="#DejaVuSans-41" x="433.40625"/>
     <use xlink:href="#DejaVuSans-5f" x="501.814453"/>
     <use xlink:href="#DejaVuSans-30" x="551.814453"/>
     <use xlink:href="#DejaVuSans-2e" x="615.4375"/>
     <use xlink:href="#DejaVuSans-32" x="647.224609"/>
    </g>
    <!-- 95 -->
    <g style="opacity: 0.5" transform="translate(155.346649 176.15508)scale(0.0579 -0.0579)">
     <defs>
      <path id="DejaVuSans-39" d="M 703 97 
L 703 672 
Q 941 559 1184 500 
Q 1428 441 1663 441 
Q 2288 441 2617 861 
Q 2947 1281 2994 2138 
Q 2813 1869 2534 1725 
Q 2256 1581 1919 1581 
Q 1219 1581 811 2004 
Q 403 2428 403 3163 
Q 403 3881 828 4315 
Q 1253 4750 1959 4750 
Q 2769 4750 3195 4129 
Q 3622 3509 3622 2328 
Q 3622 1225 3098 567 
Q 2575 -91 1691 -91 
Q 1453 -91 1209 -44 
Q 966 3 703 97 
z
M 1959 2075 
Q 2384 2075 2632 2365 
Q 2881 2656 2881 3163 
Q 2881 3666 2632 3958 
Q 2384 4250 1959 4250 
Q 1534 4250 1286 3958 
Q 1038 3666 1038 3163 
Q 1038 2656 1286 2365 
Q 1534 2075 1959 2075 
z
" transform="scale(0.015625)"/>
     </defs>
     <use xlink:href="#DejaVuSans-39"/>
     <use xlink:href="#DejaVuSans-35" x="63.623047"/>
    </g>
    <!-- GND -->
    <g style="opacity: 0.5" transform="translate(152.392392 182.638614)scale(0.0579 -0.0579)">
     <use xlink:href="#DejaVuSans-47"/>
     <use xlink:href="#DejaVuSans-4e" x="77.490234"/>
     <use xlink:href="#DejaVuSans-44" x="152.294922"/>
    </g>
   </g>
   <g id="text_7">
    <!-- LSASZE -->
    <g style="opacity: 0.5" transform="translate(275.271306 287.796045)scale(0.0579 -0.0579)">
     <defs>
      <path id="DejaVuSans-5a" d="M 359 4666 
L 4025 4666 
L 4025 4184 
L 1075 531 
L 4097 531 
L 4097 0 
L 288 0 
L 288 481 
L 3238 4134 
L 359 4134 
L 359 4666 
z
" transform="scale(0.015625)"/>
     </defs>
     <use xlink:href="#DejaVuSans-4c"/>
     <use xlink:href="#DejaVuSans-53" x="55.712891"/>
     <use xlink:href="#DejaVuSans-41" x="121.064453"/>
     <use xlink:href="#DejaVuSans-53" x="189.472656"/>
     <use xlink:href="#DejaVuSans-5a" x="252.949219"/>
     <use xlink:href="#DejaVuSans-45" x="321.455078"/>
    </g>
    <!-- 125 -->
    <g style="opacity: 0.5" transform="translate(280.881273 294.279579)scale(0.0579 -0.0579)">
     <use xlink:href="#DejaVuSans-31"/>
     <use xlink:href="#DejaVuSans-32" x="63.623047"/>
     <use xlink:href="#DejaVuSans-35" x="127.246094"/>
    </g>
    <!-- 105 -->
    <g style="opacity: 0.5" transform="translate(280.881273 300.763112)scale(0.0579 -0.0579)">
     <use xlink:href="#DejaVuSans-31"/>
     <use xlink:href="#DejaVuSans-30" x="63.623047"/>
     <use xlink:href="#DejaVuSans-35" x="127.246094"/>
    </g>
   </g>
   <g id="text_8">
    <!-- LSASZN -->
    <g style="opacity: 0.5" transform="translate(167.310925 259.800328)scale(0.0579 -0.0579)">
     <use xlink:href="#DejaVuSans-4c"/>
     <use xlink:href="#DejaVuSans-53" x="55.712891"/>
     <use xlink:href="#DejaVuSans-41" x="121.064453"/>
     <use xlink:href="#DejaVuSans-53" x="189.472656"/>
     <use xlink:href="#DejaVuSans-5a" x="252.949219"/>
     <use xlink:href="#DejaVuSans-4e" x="321.455078"/>
    </g>
    <!-- 125 -->
    <g style="opacity: 0.5" transform="translate(173.257436 266.283862)scale(0.0579 -0.0579)">
     <use xlink:href="#DejaVuSans-31"/>
     <use xlink:href="#DejaVuSans-32" x="63.623047"/>
     <use xlink:href="#DejaVuSans-35" x="127.246094"/>
    </g>
    <!-- GND -->
    <g style="opacity: 0.5" transform="translate(172.145122 272.767395)scale(0.0579 -0.0579)">
     <use xlink:href="#DejaVuSans-47"/>
     <use xlink:href="#DejaVuSans-4e" x="77.490234"/>
     <use xlink:href="#DejaVuSans-44" x="152.294922"/>
    </g>
   </g>
   <g id="text_9">
    <!-- LSZH-APE-LDG34 -->
    <g style="opacity: 0.5" transform="translate(189.015271 260.357377)scale(0.0579 -0.0579)">
     <defs>
      <path id="DejaVuSans-48" d="M 628 4666 
L 1259 4666 
L 1259 2753 
L 3553 2753 
L 3553 4666 
L 4184 4666 
L 4184 0 
L 3553 0 
L 3553 2222 
L 1259 2222 
L 1259 0 
L 628 0 
L 628 4666 
z
" transform="scale(0.015625)"/>
      <path id="DejaVuSans-33" d="M 2597 2516 
Q 3050 2419 3304 2112 
Q 3559 1806 3559 1356 
Q 3559 666 3084 287 
Q 2609 -91 1734 -91 
Q 1441 -91 1130 -33 
Q 819 25 488 141 
L 488 750 
Q 750 597 1062 519 
Q 1375 441 1716 441 
Q 2309 441 2620 675 
Q 2931 909 2931 1356 
Q 2931 1769 2642 2001 
Q 2353 2234 1838 2234 
L 1294 2234 
L 1294 2753 
L 1863 2753 
Q 2328 2753 2575 2939 
Q 2822 3125 2822 3475 
Q 2822 3834 2567 4026 
Q 2313 4219 1838 4219 
Q 1578 4219 1281 4162 
Q 984 4106 628 3988 
L 628 4550 
Q 988 4650 1302 4700 
Q 1616 4750 1894 4750 
Q 2613 4750 3031 4423 
Q 3450 4097 3450 3541 
Q 3450 3153 3228 2886 
Q 3006 2619 2597 2516 
z
" transform="scale(0.015625)"/>
     </defs>
     <use xlink:href="#DejaVuSans-4c"/>
     <use xlink:href="#DejaVuSans-53" x="55.712891"/>
     <use xlink:href="#DejaVuSans-5a" x="119.189453"/>
     <use xlink:href="#DejaVuSans-48" x="187.695312"/>
     <use xlink:href="#DejaVuSans-2d" x="262.890625"/>
     <use xlink:href="#DejaVuSans-41" x="296.724609"/>
     <use xlink:href="#DejaVuSans-50" x="365.132812"/>
     <use xlink:href="#DejaVuSans-45" x="425.435547"/>
     <use xlink:href="#DejaVuSans-2d" x="488.619141"/>
     <use xlink:href="#DejaVuSans-4c" x="524.703125"/>
     <use xlink:href="#DejaVuSans-44" x="580.416016"/>
     <use xlink:href="#DejaVuSans-47" x="657.417969"/>
     <use xlink:href="#DejaVuSans-33" x="734.908203"/>
     <use xlink:href="#DejaVuSans-34" x="798.53125"/>
    </g>
    <!-- 125 -->
    <g style="opacity: 0.5" transform="translate(208.448863 266.84091)scale(0.0579 -0.0579)">
     <use xlink:href="#DejaVuSans-31"/>
     <use xlink:href="#DejaVuSans-32" x="63.623047"/>
     <use xlink:href="#DejaVuSans-35" x="127.246094"/>
    </g>
    <!-- GND -->
    <g style="opacity: 0.5" transform="translate(207.33655 273.324444)scale(0.0579 -0.0579)">
     <use xlink:href="#DejaVuSans-47"/>
     <use xlink:href="#DejaVuSans-4e" x="77.490234"/>
     <use xlink:href="#DejaVuSans-44" x="152.294922"/>
    </g>
   </g>
   <g id="text_10">
    <!-- LSZH-ARFA -->
    <g style="opacity: 0.5" transform="translate(272.553272 272.744221)scale(0.0579 -0.0579)">
     <defs>
      <path id="DejaVuSans-52" d="M 2841 2188 
Q 3044 2119 3236 1894 
Q 3428 1669 3622 1275 
L 4263 0 
L 3584 0 
L 2988 1197 
Q 2756 1666 2539 1819 
Q 2322 1972 1947 1972 
L 1259 1972 
L 1259 0 
L 628 0 
L 628 4666 
L 2053 4666 
Q 2853 4666 3247 4331 
Q 3641 3997 3641 3322 
Q 3641 2881 3436 2590 
Q 3231 2300 2841 2188 
z
M 1259 4147 
L 1259 2491 
L 2053 2491 
Q 2509 2491 2742 2702 
Q 2975 2913 2975 3322 
Q 2975 3731 2742 3939 
Q 2509 4147 2053 4147 
L 1259 4147 
z
" transform="scale(0.015625)"/>
     </defs>
     <use xlink:href="#DejaVuSans-4c"/>
     <use xlink:href="#DejaVuSans-53" x="55.712891"/>
     <use xlink:href="#DejaVuSans-5a" x="119.189453"/>
     <use xlink:href="#DejaVuSans-48" x="187.695312"/>
     <use xlink:href="#DejaVuSans-2d" x="262.890625"/>
     <use xlink:href="#DejaVuSans-41" x="296.724609"/>
     <use xlink:href="#DejaVuSans-52" x="365.132812"/>
     <use xlink:href="#DejaVuSans-46" x="434.615234"/>
     <use xlink:href="#DejaVuSans-41" x="483.009766"/>
    </g>
    <!-- 105 -->
    <g style="opacity: 0.5" transform="translate(282.991104 279.227755)scale(0.0579 -0.0579)">
     <use xlink:href="#DejaVuSans-31"/>
     <use xlink:href="#DejaVuSans-30" x="63.623047"/>
     <use xlink:href="#DejaVuSans-35" x="127.246094"/>
    </g>
    <!-- GND -->
    <g style="opacity: 0.5" transform="translate(281.878791 285.711288)scale(0.0579 -0.0579)">
     <use xlink:href="#DejaVuSans-47"/>
     <use xlink:href="#DejaVuSans-4e" x="77.490234"/>
     <use xlink:href="#DejaVuSans-44" x="152.294922"/>
    </g>
   </g>
   <g id="text_11">
    <!-- PFA4 -->
    <g style="opacity: 0.5" transform="translate(172.464373 91.826896)scale(0.0579 -0.0579)">
     <use xlink:href="#DejaVuSans-50"/>
     <use xlink:href="#DejaVuSans-46" x="60.302734"/>
     <use xlink:href="#DejaVuSans-41" x="108.697266"/>
     <use xlink:href="#DejaVuSans-34" x="177.105469"/>
    </g>
    <!-- 245 -->
    <g style="opacity: 0.5" transform="translate(173.907349 98.310429)scale(0.0579 -0.0579)">
     <use xlink:href="#DejaVuSans-32"/>
     <use xlink:href="#DejaVuSans-34" x="63.623047"/>
     <use xlink:href="#DejaVuSans-35" x="127.246094"/>
    </g>
    <!-- 95 -->
    <g style="opacity: 0.5" transform="translate(175.749293 104.793963)scale(0.0579 -0.0579)">
     <use xlink:href="#DejaVuSans-39"/>
     <use xlink:href="#DejaVuSans-35" x="63.623047"/>
    </g>
   </g>
   <g id="text_12">
    <!-- STG1 -->
    <g style="opacity: 0.5" transform="translate(261.106247 112.647764)scale(0.0579 -0.0579)">
     <use xlink:href="#DejaVuSans-53"/>
     <use xlink:href="#DejaVuSans-54" x="63.476562"/>
     <use xlink:href="#DejaVuSans-47" x="124.560547"/>
     <use xlink:href="#DejaVuSans-31" x="202.050781"/>
    </g>
    <!-- 145 -->
    <g style="opacity: 0.5" transform="translate(263.271616 119.131297)scale(0.0579 -0.0579)">
     <use xlink:href="#DejaVuSans-31"/>
     <use xlink:href="#DejaVuSans-34" x="63.623047"/>
     <use xlink:href="#DejaVuSans-35" x="127.246094"/>
    </g>
    <!-- GND -->
    <g style="opacity: 0.5" transform="translate(262.159303 125.614831)scale(0.0579 -0.0579)">
     <use xlink:href="#DejaVuSans-47"/>
     <use xlink:href="#DejaVuSans-4e" x="77.490234"/>
     <use xlink:href="#DejaVuSans-44" x="152.294922"/>
    </g>
   </g>
   <g id="text_13">
    <!-- STG3 -->
    <g style="opacity: 0.5" transform="translate(184.01288 106.048748)scale(0.0579 -0.0579)">
     <use xlink:href="#DejaVuSans-53"/>
     <use xlink:href="#DejaVuSans-54" x="63.476562"/>
     <use xlink:href="#DejaVuSans-47" x="124.560547"/>
     <use xlink:href="#DejaVuSans-33" x="202.050781"/>
    </g>
    <!-- 145 -->
    <g style="opacity: 0.5" transform="translate(186.17825 112.532282)scale(0.0579 -0.0579)">
     <use xlink:href="#DejaVuSans-31"/>
     <use xlink:href="#DejaVuSans-34" x="63.623047"/>
     <use xlink:href="#DejaVuSans-35" x="127.246094"/>
    </g>
    <!-- 75 -->
    <g style="opacity: 0.5" transform="translate(188.020194 119.015815)scale(0.0579 -0.0579)">
     <defs>
      <path id="DejaVuSans-37" d="M 525 4666 
L 3525 4666 
L 3525 4397 
L 1831 0 
L 1172 0 
L 2766 4134 
L 525 4134 
L 525 4666 
z
" transform="scale(0.015625)"/>
     </defs>
     <use xlink:href="#DejaVuSans-37"/>
     <use xlink:href="#DejaVuSans-35" x="63.623047"/>
    </g>
   </g>
   <g id="text_14">
    <!-- STG5 -->
    <g style="opacity: 0.5" transform="translate(325.248804 84.412046)scale(0.0579 -0.0579)">
     <use xlink:href="#DejaVuSans-53"/>
     <use xlink:href="#DejaVuSans-54" x="63.476562"/>
     <use xlink:href="#DejaVuSans-47" x="124.560547"/>
     <use xlink:href="#DejaVuSans-35" x="202.050781"/>
    </g>
    <!-- 105 -->
    <g style="opacity: 0.5" transform="translate(327.414174 90.89558)scale(0.0579 -0.0579)">
     <use xlink:href="#DejaVuSans-31"/>
     <use xlink:href="#DejaVuSans-30" x="63.623047"/>
     <use xlink:href="#DejaVuSans-35" x="127.246094"/>
    </g>
    <!-- GND -->
    <g style="opacity: 0.5" transform="translate(326.30186 97.379113)scale(0.0579 -0.0579)">
     <use xlink:href="#DejaVuSans-47"/>
     <use xlink:href="#DejaVuSans-4e" x="77.490234"/>
     <use xlink:href="#DejaVuSans-44" x="152.294922"/>
    </g>
   </g>
   <g id="text_15">
    <!-- REU1 -->
    <g transform="translate(246.286223 168.735732)scale(0.0579 -0.0579)">
     <use xlink:href="#DejaVuSans-52"/>
     <use xlink:href="#DejaVuSans-45" x="69.482422"/>
     <use xlink:href="#DejaVuSans-55" x="132.666016"/>
     <use xlink:href="#DejaVuSans-31" x="205.859375"/>
    </g>
    <!-- 145 -->
    <g transform="translate(248.561964 175.219266)scale(0.0579 -0.0579)">
     <use xlink:href="#DejaVuSans-31"/>
     <use xlink:href="#DejaVuSans-34" x="63.623047"/>
     <use xlink:href="#DejaVuSans-35" x="127.246094"/>
    </g>
    <!-- GND -->
    <g transform="translate(247.449651 181.702799)scale(0.0579 -0.0579)">
     <use xlink:href="#DejaVuSans-47"/>
     <use xlink:href="#DejaVuSans-4e" x="77.490234"/>
     <use xlink:href="#DejaVuSans-44" x="152.294922"/>
    </g>
   </g>
   <g id="text_16">
    <!-- REU2 -->
    <g transform="translate(151.228964 169.642145)scale(0.0579 -0.0579)">
     <use xlink:href="#DejaVuSans-52"/>
     <use xlink:href="#DejaVuSans-45" x="69.482422"/>
     <use xlink:href="#DejaVuSans-55" x="132.666016"/>
     <use xlink:href="#DejaVuSans-32" x="205.859375"/>
    </g>
    <!-- 145 -->
    <g transform="translate(153.504706 176.125678)scale(0.0579 -0.0579)">
     <use xlink:href="#DejaVuSans-31"/>
     <use xlink:href="#DejaVuSans-34" x="63.623047"/>
     <use xlink:href="#DejaVuSans-35" x="127.246094"/>
    </g>
    <!-- 95 -->
    <g transform="translate(155.346649 182.609212)scale(0.0579 -0.0579)">
     <use xlink:href="#DejaVuSans-39"/>
     <use xlink:href="#DejaVuSans-35" x="63.623047"/>
    </g>
   </g>
  </g>
 </g>
 <defs>
  <clipPath id="p0affe3cc1a">
   <rect x="57.6" y="82.164972" width="357.12" height="184.726057"/>
  </clipPath>
 </defs>
</svg>
