<?xml version="1.0" encoding="utf-8" standalone="no"?>
<!DOCTYPE svg PUBLIC "-//W3C//DTD SVG 1.1//EN"
  "http://www.w3.org/Graphics/SVG/1.1/DTD/svg11.dtd">
<svg xmlns:xlink="http://www.w3.org/1999/xlink" width="460.8pt" height="345.6pt" viewBox="0 0 460.8 345.6" xmlns="http://www.w3.org/2000/svg" version="1.1">
 <metadata>
  <rdf:RDF xmlns:dc="http://purl.org/dc/elements/1.1/" xmlns:cc="http://creativecommons.org/ns#" xmlns:rdf="http://www.w3.org/1999/02/22-rdf-syntax-ns#">
   <cc:Work>
    <dc:type rdf:resource="http://purl.org/dc/dcmitype/StillImage"/>
    <dc:date>2022-07-24T18:24:14.223440</dc:date>
    <dc:format>image/svg+xml</dc:format>
    <dc:creator>
     <cc:Agent>
      <dc:title>Matplotlib v3.5.0, https://matplotlib.org/</dc:title>
     </cc:Agent>
    </dc:creator>
   </cc:Work>
  </rdf:RDF>
 </metadata>
 <defs>
  <style type="text/css">*{stroke-linejoin: round; stroke-linecap: butt}</style>
 </defs>
 <g id="figure_1">
  <g id="patch_1">
   <path d="M 0 345.6 
L 460.8 345.6 
L 460.8 0 
L 0 0 
z
" style="fill: #ffffff"/>
  </g>
  <g id="axes_1">
   <g id="patch_2">
    <path d="M 338.079811 118.896039 
L 344.186273 124.478182 
L 344.378182 156.968509 
L 340.199814 166.772235 
L 337.562393 173.05661 
L 329.08658 193.039974 
L 325.787669 200.845006 
L 296.495092 217.697092 
L 294.760992 218.715258 
L 257.518521 219.368151 
L 238.568965 219.616942 
L 221.534888 219.511938 
L 191.285311 219.571522 
L 182.135554 222.313158 
L 161.407037 228.467992 
L 200.257338 139.974961 
L 230.885924 163.365614 
L 235.929775 162.328126 
L 242.568439 161.02142 
L 306.774951 140.564185 
L 311.915969 137.006882 
z
" clip-path="url(#p3c70811eec)" style="fill: #ffedd9; stroke: #ffedd9; stroke-linejoin: miter"/>
   </g>
   <g id="patch_3">
    <path d="M 161.407037 228.467992 
L 127.941818 230.505593 
L 128.711946 228.359123 
L 128.562126 225.868787 
L 129.643624 224.736658 
L 130.448243 223.818454 
L 130.558519 222.904951 
L 130.434105 221.662366 
L 131.32273 220.102111 
L 133.104704 217.613215 
L 134.307988 214.800719 
L 135.984821 213.350593 
L 136.812142 210.745541 
L 138.140538 205.156689 
L 138.150605 203.787494 
L 138.672225 202.654411 
L 141.819374 200.944032 
L 142.859144 198.948554 
L 141.67545 192.97491 
L 141.999316 190.262597 
L 144.531444 183.551355 
L 144.72571 179.636768 
L 145.595456 178.491129 
L 147.269078 177.495561 
L 148.052825 175.029454 
L 147.746981 173.33055 
L 147.986489 170.973411 
L 147.543691 168.125779 
L 147.949457 166.173472 
L 150.06736 162.772586 
L 150.863835 160.08046 
L 155.053807 157.415915 
L 161.453061 149.563441 
L 161.562991 146.09717 
L 162.111382 145.202067 
L 163.251156 145.024175 
L 164.828099 145.277798 
L 166.011512 144.305242 
L 166.394868 142.229363 
L 167.159313 141.367452 
L 168.502274 141.356017 
L 169.641946 141.38137 
L 171.400942 139.893322 
L 172.911425 137.47353 
L 174.013929 132.714799 
L 176.147175 127.619643 
L 178.729116 123.655974 
L 180.368936 120.467058 
L 183.58315 118.996296 
L 183.166041 118.550407 
L 188.393436 118.848012 
L 200.403184 125.243369 
L 200.257338 139.974961 
z
" clip-path="url(#p3c70811eec)" style="fill: #ffedd9; stroke: #ffedd9; stroke-linejoin: miter"/>
   </g>
   <g id="patch_4">
    <path d="M 338.079811 118.896039 
L 344.186273 124.478182 
L 344.378182 156.968509 
L 340.199814 166.772235 
L 337.562393 173.05661 
L 329.08658 193.039974 
L 325.787669 200.845006 
L 296.495092 217.697092 
L 294.760992 218.715258 
L 257.518521 219.368151 
L 238.568965 219.616942 
L 221.534888 219.511938 
L 191.285311 219.571522 
L 182.135554 222.313158 
L 161.407037 228.467992 
L 200.257338 139.974961 
L 230.885924 163.365614 
L 235.929775 162.328126 
L 242.568439 161.02142 
L 306.774951 140.564185 
L 311.915969 137.006882 
L 338.079811 118.896039 
z
" clip-path="url(#p3c70811eec)" style="fill: #ffedd9; stroke: #ffedd9; stroke-linejoin: miter"/>
   </g>
   <g id="patch_5">
    <path d="M 161.407037 228.467992 
L 127.941818 230.505593 
L 128.711946 228.359123 
L 128.562126 225.868787 
L 129.643624 224.736658 
L 130.448243 223.818454 
L 130.558519 222.904951 
L 130.434105 221.662366 
L 131.32273 220.102111 
L 133.104704 217.613215 
L 134.307988 214.800719 
L 135.984821 213.350593 
L 136.812142 210.745541 
L 138.140538 205.156689 
L 138.150605 203.787494 
L 138.672225 202.654411 
L 141.819374 200.944032 
L 142.859144 198.948554 
L 141.67545 192.97491 
L 141.999316 190.262597 
L 144.531444 183.551355 
L 144.72571 179.636768 
L 145.595456 178.491129 
L 147.269078 177.495561 
L 148.052825 175.029454 
L 147.746981 173.33055 
L 147.986489 170.973411 
L 147.543691 168.125779 
L 147.949457 166.173472 
L 150.06736 162.772586 
L 150.863835 160.08046 
L 155.053807 157.415915 
L 161.453061 149.563441 
L 161.562991 146.09717 
L 162.111382 145.202067 
L 163.251156 145.024175 
L 164.828099 145.277798 
L 166.011512 144.305242 
L 166.394868 142.229363 
L 167.159313 141.367452 
L 168.502274 141.356017 
L 169.641946 141.38137 
L 171.400942 139.893322 
L 172.911425 137.47353 
L 174.013929 132.714799 
L 176.147175 127.619643 
L 178.729116 123.655974 
L 180.368936 120.467058 
L 183.58315 118.996296 
L 183.166041 118.550407 
L 188.393436 118.848012 
L 200.403184 125.243369 
L 200.257338 139.974961 
L 161.407037 228.467992 
z
" clip-path="url(#p3c70811eec)" style="fill: #ffedd9; stroke: #ffedd9; stroke-linejoin: miter"/>
   </g>
   <g id="line2d_1">
    <path d="M 338.079811 118.896039 
L 344.186273 124.478182 
L 344.378182 156.968509 
L 340.199814 166.772235 
L 337.562393 173.05661 
L 329.08658 193.039974 
L 325.787669 200.845006 
L 296.495092 217.697092 
L 294.760992 218.715258 
L 257.518521 219.368151 
L 238.568965 219.616942 
L 221.534888 219.511938 
L 191.285311 219.571522 
L 182.135554 222.313158 
L 161.407037 228.467992 
L 200.257338 139.974961 
L 230.885924 163.365614 
L 235.929775 162.328126 
L 242.568439 161.02142 
L 306.774951 140.564185 
L 311.915969 137.006882 
L 338.079811 118.896039 
" clip-path="url(#p3c70811eec)" style="fill: none; stroke: #ffc380; stroke-width: 0.5; stroke-linecap: square"/>
   </g>
   <g id="line2d_2">
    <path d="M 161.407037 228.467992 
L 127.941818 230.505593 
L 128.711946 228.359123 
L 128.562126 225.868787 
L 129.643624 224.736658 
L 130.448243 223.818454 
L 130.558519 222.904951 
L 130.434105 221.662366 
L 131.32273 220.102111 
L 133.104704 217.613215 
L 134.307988 214.800719 
L 135.984821 213.350593 
L 136.812142 210.745541 
L 138.140538 205.156689 
L 138.150605 203.787494 
L 138.672225 202.654411 
L 141.819374 200.944032 
L 142.859144 198.948554 
L 141.67545 192.97491 
L 141.999316 190.262597 
L 144.531444 183.551355 
L 144.72571 179.636768 
L 145.595456 178.491129 
L 147.269078 177.495561 
L 148.052825 175.029454 
L 147.746981 173.33055 
L 147.986489 170.973411 
L 147.543691 168.125779 
L 147.949457 166.173472 
L 150.06736 162.772586 
L 150.863835 160.08046 
L 155.053807 157.415915 
L 161.453061 149.563441 
L 161.562991 146.09717 
L 162.111382 145.202067 
L 163.251156 145.024175 
L 164.828099 145.277798 
L 166.011512 144.305242 
L 166.394868 142.229363 
L 167.159313 141.367452 
L 168.502274 141.356017 
L 169.641946 141.38137 
L 171.400942 139.893322 
L 172.911425 137.47353 
L 174.013929 132.714799 
L 176.147175 127.619643 
L 178.729116 123.655974 
L 180.368936 120.467058 
L 183.58315 118.996296 
L 183.166041 118.550407 
L 188.393436 118.848012 
L 200.403184 125.243369 
L 200.257338 139.974961 
L 161.407037 228.467992 
" clip-path="url(#p3c70811eec)" style="fill: none; stroke: #ffc380; stroke-width: 0.5; stroke-linecap: square"/>
   </g>
   <g id="line2d_3">
    <path d="M 359.412373 71.063777 
L 377.76862 88.603046 
L 369.088589 97.424158 
L 351.1298 109.851222 
L 338.079811 118.896039 
L 321.111203 105.731544 
L 311.578732 98.350978 
L 283.88742 79.300875 
L 300.564142 76.781091 
L 315.99996 79.158425 
L 339.269522 72.123037 
L 359.412373 71.063777 
" clip-path="url(#p3c70811eec)" style="fill: none; stroke: #8f8f8f; stroke-width: 0.2; stroke-linecap: square"/>
   </g>
   <g id="line2d_4">
    <path d="M 417.531355 232.230275 
L 426.845896 246.359779 
L 440.264926 244.18134 
L 419.760753 288.684737 
L 396.968947 297.128252 
L 386.713137 300.928936 
L 373.449468 303.792175 
L 330.359578 299.911043 
L 311.999993 298.318954 
L 331.436555 281.946998 
L 331.483982 261.904328 
L 325.769608 262.401095 
L 319.628628 252.09371 
L 295.474622 253.649739 
L 295.259821 243.126992 
L 294.760992 218.715258 
L 296.495092 217.697092 
L 325.787669 200.845006 
L 329.08658 193.039974 
L 416.576504 208.10818 
L 416.986083 218.451059 
L 440.264926 244.18134 
L 419.760753 288.684737 
L 396.968947 297.128252 
L 386.713137 300.928936 
L 373.449468 303.792175 
L 330.359578 299.911043 
L 311.999993 298.318954 
L 295.706463 265.014628 
L 295.620613 260.80537 
L 295.474622 253.649739 
L 295.259821 243.126992 
L 294.760992 218.715258 
L 294.112059 187.010043 
L 329.08658 193.039974 
L 416.576504 208.10818 
L 437.103464 212.073616 
L 437.068939 219.485861 
L 438.154724 227.868896 
L 440.264926 244.18134 
L 419.760753 288.684737 
L 396.968947 297.128252 
L 386.713137 300.928936 
L 373.449468 303.792175 
L 330.359578 299.911043 
L 311.999993 298.318954 
L 295.706463 265.014628 
L 295.620613 260.80537 
L 295.474622 253.649739 
L 295.259821 243.126992 
L 294.760992 218.715258 
L 294.112059 187.010043 
L 329.08658 193.039974 
L 416.576504 208.10818 
L 437.103464 212.073616 
L 437.068939 219.485861 
L 438.154724 227.868896 
L 417.531355 232.230275 
L 426.845896 246.359779 
L 440.264926 244.18134 
L 419.760753 288.684737 
L 396.968947 297.128252 
L 386.713137 300.928936 
L 373.449468 303.792175 
L 330.359578 299.911043 
L 311.999993 298.318954 
L 331.436555 281.946998 
L 331.483982 261.904328 
L 325.769608 262.401095 
L 319.628628 252.09371 
L 295.474622 253.649739 
L 295.259821 243.126992 
L 294.760992 218.715258 
L 294.112059 187.010043 
L 329.08658 193.039974 
L 416.576504 208.10818 
L 416.986083 218.451059 
L 440.264926 244.18134 
L 419.760753 288.684737 
L 396.968947 297.128252 
L 386.713137 300.928936 
L 373.449468 303.792175 
L 330.359578 299.911043 
L 311.999993 298.318954 
L 331.436555 281.946998 
L 331.483982 261.904328 
L 325.769608 262.401095 
L 319.628628 252.09371 
L 295.474622 253.649739 
L 295.259821 243.126992 
L 294.760992 218.715258 
L 294.112059 187.010043 
L 329.08658 193.039974 
L 416.576504 208.10818 
L 437.103464 212.073616 
L 437.068939 219.485861 
L 438.154724 227.868896 
L 440.264926 244.18134 
L 419.760753 288.684737 
L 396.968947 297.128252 
L 386.713137 300.928936 
L 373.449468 303.792175 
L 330.359578 299.911043 
L 311.999993 298.318954 
L 295.706463 265.014628 
L 295.620613 260.80537 
L 295.474622 253.649739 
L 295.259821 243.126992 
L 294.760992 218.715258 
L 294.112059 187.010043 
L 329.08658 193.039974 
L 416.576504 208.10818 
L 437.103464 212.073616 
L 437.068939 219.485861 
L 438.154724 227.868896 
L 417.531355 232.230275 
" clip-path="url(#p3c70811eec)" style="fill: none; stroke: #8f8f8f; stroke-width: 0.2; stroke-linecap: square"/>
   </g>
   <g id="line2d_5">
    <path d="M 325.787669 200.845006 
L 368.439039 207.937402 
L 404.578424 238.733935 
L 373.177837 254.438022 
L 366.222191 257.924934 
L 331.483982 261.904328 
L 325.769608 262.401095 
L 319.628628 252.09371 
L 311.922895 226.096378 
L 296.495092 217.697092 
L 325.787669 200.845006 
L 368.439039 207.937402 
L 404.578424 238.733935 
L 373.177837 254.438022 
L 366.222191 257.924934 
L 331.483982 261.904328 
L 325.769608 262.401095 
L 319.628628 252.09371 
L 295.474622 253.649739 
L 295.259821 243.126992 
L 294.760992 218.715258 
L 296.495092 217.697092 
L 325.787669 200.845006 
" clip-path="url(#p3c70811eec)" style="fill: none; stroke: #8f8f8f; stroke-width: 0.2; stroke-linecap: square"/>
   </g>
   <g id="line2d_6">
    <path d="M 351.1298 109.851222 
L 406.5885 157.585308 
L 402.234451 162.736661 
L 397.386221 172.958423 
L 415.865071 190.157723 
L 417.531355 232.230275 
L 404.578424 238.733935 
L 368.439039 207.937402 
L 325.787669 200.845006 
L 344.378182 156.968509 
L 344.186273 124.478182 
L 338.079811 118.896039 
L 351.1298 109.851222 
L 406.5885 157.585308 
L 402.234451 162.736661 
L 397.386221 172.958423 
L 415.865071 190.157723 
L 416.576504 208.10818 
L 329.08658 193.039974 
L 344.378182 156.968509 
L 344.186273 124.478182 
L 338.079811 118.896039 
L 351.1298 109.851222 
L 406.5885 157.585308 
L 402.234451 162.736661 
L 397.386221 172.958423 
L 415.865071 190.157723 
L 416.576504 208.10818 
L 294.112059 187.010043 
L 293.827424 173.12211 
L 311.915969 137.006882 
L 351.1298 109.851222 
L 406.5885 157.585308 
L 411.56977 152.054886 
L 429.61346 150.96868 
L 441.081551 150.685252 
L 461.8 149.739464 
M 461.8 239.804011 
L 440.264926 244.18134 
L 437.068939 219.485861 
L 437.103464 212.073616 
L 416.576504 208.10818 
L 294.112059 187.010043 
L 293.827424 173.12211 
L 311.915969 137.006882 
L 351.1298 109.851222 
L 406.5885 157.585308 
L 411.56977 152.054886 
L 429.61346 150.96868 
L 441.081551 150.685252 
L 461.8 149.739464 
M 461.8 239.804011 
L 440.264926 244.18134 
L 437.068939 219.485861 
L 437.103464 212.073616 
L 416.576504 208.10818 
L 294.112059 187.010043 
L 293.827424 173.12211 
L 311.915969 137.006882 
L 351.1298 109.851222 
L 406.5885 157.585308 
L 411.56977 152.054886 
L 429.61346 150.96868 
L 441.081551 150.685252 
L 461.8 149.739464 
M 461.8 239.804011 
L 440.264926 244.18134 
L 437.068939 219.485861 
L 437.103464 212.073616 
L 416.576504 208.10818 
L 294.112059 187.010043 
L 293.827424 173.12211 
L 311.915969 137.006882 
L 351.1298 109.851222 
L 351.1298 109.851222 
" clip-path="url(#p3c70811eec)" style="fill: none; stroke: #8f8f8f; stroke-width: 0.2; stroke-linecap: square"/>
   </g>
   <g id="line2d_7">
    <path d="M 111.400802 212.990916 
L 135.984821 213.350593 
L 134.307988 214.800719 
L 133.104704 217.613215 
L 131.32273 220.102111 
L 130.434105 221.662366 
L 130.558519 222.904951 
L 130.448243 223.818454 
L 128.562126 225.868787 
L 128.711946 228.359123 
L 127.888938 230.903797 
L 128.001481 231.88947 
L 128.282078 234.517821 
L 127.972908 236.940806 
L 128.149146 237.28783 
L 131.143516 240.968871 
L 131.635924 241.8491 
L 131.984429 242.798029 
L 132.269496 244.453849 
L 132.18528 244.895444 
L 131.483963 246.292465 
L 131.153591 246.889391 
L 130.667419 247.504432 
L 129.164138 249.232912 
L 128.762667 250.227153 
L 128.757529 251.005085 
L 128.945544 252.576778 
L 128.870547 253.848559 
L 128.716679 254.265742 
L 128.306412 254.796424 
L 127.257737 255.432058 
L 126.658573 256.221716 
L 126.574118 257.337666 
L 126.708837 258.207362 
L 127.215783 259.785196 
L 127.229838 260.600866 
L 126.852267 261.818986 
L 126.055631 263.346294 
L 125.288639 265.801979 
L 124.334971 268.435787 
L 124.339243 269.667228 
L 125.146763 272.003656 
L 125.838648 273.88715 
L 125.872736 274.440549 
L 125.788932 275.105656 
L 125.451101 276.049632 
L 125.046257 276.53724 
L 123.77608 277.597931 
L 122.889874 278.496651 
L 122.712091 279.047454 
L 122.763586 279.501211 
L 123.102355 280.222459 
L 121.619681 287.33153 
L 114.421457 294.265757 
L 111.624106 312.589497 
L 108.020454 320.178436 
L 82.352733 320.886567 
L 83.904721 323.579814 
L 83.452933 324.708331 
L 82.494277 325.666937 
L 79.434359 325.882666 
L 79.980394 327.079777 
L 79.288264 328.744864 
L 78.203525 329.391964 
L 75.520568 329.889029 
L 44.655403 324.203099 
L 22.096271 298.480384 
L 30.165696 252.328785 
L 63.192042 261.353343 
L 63.519533 240.482016 
L 87.843219 210.85787 
L 127.229838 260.600866 
L 147.130291 267.735185 
L 142.919551 279.335734 
L 143.370632 293.26557 
L 143.684834 296.550765 
L 111.624106 312.589497 
L 114.421457 294.265757 
L 121.619681 287.33153 
L 123.102355 280.222459 
L 122.700513 279.262094 
L 122.751962 278.795105 
L 122.889874 278.496651 
L 123.77608 277.597931 
L 125.046257 276.53724 
L 125.451101 276.049632 
L 125.788932 275.105656 
L 125.838648 273.88715 
L 124.339243 269.667228 
L 124.334971 268.435787 
L 124.451233 267.885842 
L 125.701074 264.639993 
L 126.055631 263.346294 
L 127.050875 261.338947 
L 111.400802 212.990916 
L 111.400802 212.990916 
" clip-path="url(#p3c70811eec)" style="fill: none; stroke: #8f8f8f; stroke-width: 0.2; stroke-linecap: square"/>
   </g>
   <g id="line2d_8">
    <path d="M 127.229838 260.600866 
L 127.215783 259.785196 
L 126.996038 258.946592 
L 126.708837 258.207362 
L 126.618431 257.873415 
L 126.574118 257.337666 
L 126.559805 256.887973 
L 126.658573 256.221716 
L 126.880179 255.839071 
L 127.257737 255.432058 
L 128.306412 254.796424 
L 128.716679 254.265742 
L 128.870547 253.848559 
L 128.945544 252.576778 
L 128.757529 251.005085 
L 128.720948 250.579278 
L 128.762667 250.227153 
L 128.902663 249.852836 
L 129.164138 249.232912 
L 129.487997 248.80149 
L 130.667419 247.504432 
L 131.153591 246.889391 
L 131.483963 246.292465 
L 131.860365 245.611142 
L 132.18528 244.895444 
L 132.269496 244.453849 
L 132.261023 244.117876 
L 131.984429 242.798029 
L 131.635924 241.8491 
L 131.143516 240.968871 
L 130.849355 240.498815 
L 129.629575 239.109491 
L 128.615574 237.853683 
L 128.149146 237.28783 
L 127.972908 236.940806 
L 127.947859 236.890149 
L 127.914581 236.801558 
L 127.889892 236.687759 
L 127.865418 236.536075 
L 127.866134 236.409791 
L 127.883954 236.245717 
L 127.901557 236.119529 
L 127.987708 235.816926 
L 128.03958 235.60253 
L 128.117062 235.337762 
L 128.177653 235.0729 
L 128.264628 234.618753 
L 128.282078 234.517821 
L 128.291157 234.404213 
L 128.292149 234.227417 
L 128.285125 233.974803 
L 128.26122 233.722094 
L 128.18824 233.191278 
L 128.001481 231.88947 
L 127.912458 231.219646 
L 127.888938 230.903797 
L 127.941818 230.505593 
L 161.407037 228.467992 
L 147.130291 267.735185 
L 127.229838 260.600866 
" clip-path="url(#p3c70811eec)" style="fill: none; stroke: #8f8f8f; stroke-width: 0.2; stroke-linecap: square"/>
   </g>
   <g id="line2d_9">
    <path d="M 80.869211 109.990648 
L 67.993512 94.967712 
L 63.623642 92.760141 
L 60.70769 92.991518 
L 58.87774 88.64621 
L 57.930909 86.385098 
L 56.543864 86.571922 
L 55.0959 81.360528 
L 53.989679 81.440567 
L 54.720535 78.471736 
L 53.294532 78.342699 
L 51.943543 76.419534 
L 48.090614 73.06652 
L 48.562501 71.968145 
L 46.143435 69.392855 
L 46.960328 68.42056 
L 48.069968 69.560068 
L 49.27285 67.409283 
L 47.710884 67.185193 
L 47.542776 65.064226 
L 45.646096 63.88726 
L 45.293099 63.24905 
L 44.323163 62.957194 
L 44.075168 61.695633 
L 45.017662 60.963616 
L 45.699642 60.751062 
L 44.793218 59.591203 
L 44.4433 58.812683 
L 42.988689 58.538699 
L 41.401839 56.893645 
L 40.108783 56.552026 
L 39.615083 56.156188 
L 3.825319 56.381016 
L -1 58.887311 
M -1 216.036982 
L 47.195028 235.713731 
L 67.155243 236.04719 
L 86.917185 212.074534 
L 87.843219 210.85787 
L 91.966058 205.819323 
L 101.325696 194.272507 
L 104.591148 194.458353 
L 106.281944 195.856082 
L 107.834722 197.915109 
L 109.546133 199.817267 
L 111.402308 201.54828 
L 113.386989 203.093859 
L 115.794484 203.80017 
L 119.751338 195.305198 
L 136.317764 196.241415 
L 138.205328 196.354655 
L 142.859144 198.948554 
L 141.67545 192.97491 
L 141.999316 190.262597 
L 144.531444 183.551355 
L 144.72571 179.636768 
L 145.595456 178.491129 
L 147.269078 177.495561 
L 148.052825 175.029454 
L 147.746981 173.33055 
L 147.986489 170.973411 
L 147.543691 168.125779 
L 147.949457 166.173472 
L 150.06736 162.772586 
L 150.863835 160.08046 
L 155.053807 157.415915 
L 161.453061 149.563441 
L 161.562991 146.09717 
L 162.111382 145.202067 
L 163.251156 145.024175 
L 164.828099 145.277798 
L 166.011512 144.305242 
L 166.394868 142.229363 
L 167.159313 141.367452 
L 168.502274 141.356017 
L 169.641946 141.38137 
L 171.400942 139.893322 
L 172.911425 137.47353 
L 174.013929 132.714799 
L 176.147175 127.619643 
L 178.729116 123.655974 
L 180.368936 120.467058 
L 183.58315 118.996296 
L 183.166041 118.550407 
L 182.672855 117.853671 
L 180.592847 118.855444 
L 180.283315 117.684425 
L 178.321054 117.454358 
L 178.296335 117.833926 
L 177.518634 117.517074 
L 176.827759 117.686361 
L 175.507872 117.427636 
L 174.474929 116.557815 
L 173.166992 116.517179 
L 172.881821 116.193799 
L 171.477722 116.069682 
L 169.740401 114.824032 
L 168.329011 113.021215 
L 166.023199 112.523521 
L 165.795383 112.174797 
L 165.394347 112.191369 
L 165.167801 111.720362 
L 163.745854 111.197185 
L 162.139558 111.480866 
L 159.748545 107.822785 
L 158.562259 107.526135 
L 156.979948 109.615418 
L 153.230906 110.587345 
L 150.586911 108.849418 
L 147.1261 106.595576 
L 142.062543 109.221326 
L 133.703917 107.862328 
L 133.609879 105.399683 
L 125.252592 101.88974 
L 122.02428 97.124136 
L 123.485531 95.198403 
L 122.391524 93.642957 
L 113.29509 109.533124 
L 101.736327 122.721062 
L 89.680497 115.433608 
L 80.869211 109.990648 
" clip-path="url(#p3c70811eec)" style="fill: none; stroke: #8f8f8f; stroke-width: 0.2; stroke-linecap: square"/>
   </g>
   <g id="line2d_10">
    <path d="M 183.166041 118.550407 
L 188.393436 118.848012 
L 200.403184 125.243369 
L 200.942182 114.999008 
L 195.163424 105.104958 
L 182.82411 104.27726 
L 169.740401 114.824032 
L 171.477722 116.069682 
L 172.881821 116.193799 
L 173.166992 116.517179 
L 174.474929 116.557815 
L 175.507872 117.427636 
L 176.827759 117.686361 
L 177.518634 117.517074 
L 178.296335 117.833926 
L 178.321054 117.454358 
L 180.283315 117.684425 
L 180.592847 118.855444 
L 182.672855 117.853671 
L 183.166041 118.550407 
" clip-path="url(#p3c70811eec)" style="fill: none; stroke: #8f8f8f; stroke-width: 0.2; stroke-linecap: square"/>
   </g>
   <g id="line2d_11">
    <path d="M 161.407037 228.467992 
L 127.941818 230.505593 
L 128.711946 228.359123 
L 128.562126 225.868787 
L 129.643624 224.736658 
L 130.448243 223.818454 
L 130.558519 222.904951 
L 130.434105 221.662366 
L 131.32273 220.102111 
L 133.104704 217.613215 
L 134.307988 214.800719 
L 135.984821 213.350593 
L 136.812142 210.745541 
L 138.140538 205.156689 
L 138.150605 203.787494 
L 138.672225 202.654411 
L 141.819374 200.944032 
L 142.859144 198.948554 
L 141.67545 192.97491 
L 141.999316 190.262597 
L 144.531444 183.551355 
L 144.72571 179.636768 
L 145.595456 178.491129 
L 147.269078 177.495561 
L 148.052825 175.029454 
L 147.746981 173.33055 
L 147.986489 170.973411 
L 147.543691 168.125779 
L 147.543691 168.125779 
L 147.949457 166.173472 
L 150.06736 162.772586 
L 150.863835 160.08046 
L 155.053807 157.415915 
L 161.453061 149.563441 
L 161.562991 146.09717 
L 162.111382 145.202067 
L 163.251156 145.024175 
L 164.828099 145.277798 
L 166.011512 144.305242 
L 166.394868 142.229363 
L 167.159313 141.367452 
L 168.502274 141.356017 
L 169.641946 141.38137 
L 171.400942 139.893322 
L 172.911425 137.47353 
L 174.013929 132.714799 
L 176.147175 127.619643 
L 178.729116 123.655974 
L 180.368936 120.467058 
L 183.58315 118.996296 
L 183.166041 118.550407 
L 188.393436 118.848012 
L 200.403184 125.243369 
L 200.257338 139.974961 
L 161.407037 228.467992 
" clip-path="url(#p3c70811eec)" style="fill: none; stroke: #8f8f8f; stroke-width: 0.2; stroke-linecap: square"/>
   </g>
   <g id="line2d_12">
    <path d="M 238.568965 219.616942 
L 257.518521 219.368151 
L 294.760992 218.715258 
L 295.259821 243.126992 
L 295.474622 253.649739 
L 295.620613 260.80537 
L 295.706463 265.014628 
L 311.999993 298.318954 
L 328.969994 322.797952 
L 334.111905 330.248784 
L 345.360916 346.6 
M 308.909277 346.6 
L 301.65665 345.809572 
L 292.114139 344.757965 
L 243.486755 339.414992 
L 242.385039 329.005764 
L 229.433818 313.910033 
L 224.578703 300.974017 
L 217.65891 297.975963 
L 221.760884 293.742186 
L 238.568965 219.616942 
L 257.518521 219.368151 
L 294.760992 218.715258 
L 295.259821 243.126992 
L 295.474622 253.649739 
L 295.620613 260.80537 
L 295.706463 265.014628 
L 311.999993 298.318954 
L 328.969994 322.797952 
L 334.111905 330.248784 
L 345.360916 346.6 
M 308.909277 346.6 
L 301.65665 345.809572 
L 292.114139 344.757965 
L 243.486755 339.414992 
L 247.597046 334.626368 
L 253.829102 332.262915 
L 256.744563 322.922637 
L 258.84912 322.120424 
L 265.059897 319.760034 
L 273.756217 316.447646 
L 276.329572 307.268571 
L 277.980183 301.656662 
L 279.446915 296.512563 
L 280.635446 292.043696 
L 280.296809 274.50407 
L 268.87289 273.289131 
L 249.881443 271.284425 
L 248.513655 251.735039 
L 295.474622 253.649739 
L 319.628628 252.09371 
L 325.769608 262.401095 
L 331.483982 261.904328 
L 331.436555 281.946998 
L 311.999993 298.318954 
L 295.706463 265.014628 
L 295.620613 260.80537 
L 238.568965 219.616942 
" clip-path="url(#p3c70811eec)" style="fill: none; stroke: #8f8f8f; stroke-width: 0.2; stroke-linecap: square"/>
   </g>
   <g id="line2d_13">
    <path d="M 127.229838 260.600866 
L 127.215783 259.785196 
L 126.996038 258.946592 
L 126.708837 258.207362 
L 126.618431 257.873415 
L 126.574118 257.337666 
L 126.559805 256.887973 
L 126.658573 256.221716 
L 126.880179 255.839071 
L 127.257737 255.432058 
L 128.306412 254.796424 
L 128.716679 254.265742 
L 128.870547 253.848559 
L 128.945544 252.576778 
L 128.757529 251.005085 
L 128.720948 250.579278 
L 128.762667 250.227153 
L 128.902663 249.852836 
L 129.164138 249.232912 
L 129.487997 248.80149 
L 130.667419 247.504432 
L 131.153591 246.889391 
L 131.483963 246.292465 
L 131.860365 245.611142 
L 132.18528 244.895444 
L 132.269496 244.453849 
L 132.261023 244.117876 
L 131.984429 242.798029 
L 131.635924 241.8491 
L 131.143516 240.968871 
L 130.849355 240.498815 
L 129.629575 239.109491 
L 128.615574 237.853683 
L 128.149146 237.28783 
L 127.972908 236.940806 
L 127.947859 236.890149 
L 127.914581 236.801558 
L 127.889892 236.687759 
L 127.865418 236.536075 
L 127.866134 236.409791 
L 127.883954 236.245717 
L 127.901557 236.119529 
L 127.987708 235.816926 
L 128.03958 235.60253 
L 128.117062 235.337762 
L 128.177653 235.0729 
L 128.264628 234.618753 
L 128.282078 234.517821 
L 128.291157 234.404213 
L 128.292149 234.227417 
L 128.285125 233.974803 
L 128.26122 233.722094 
L 128.18824 233.191278 
L 128.001481 231.88947 
L 127.912458 231.219646 
L 127.888938 230.903797 
L 127.941818 230.505593 
L 161.407037 228.467992 
L 147.130291 267.735185 
L 182.135554 222.313158 
L 180.863159 245.281575 
L 180.527288 251.256698 
L 165.579734 258.663792 
L 147.130291 267.735185 
L 161.407037 228.467992 
L 142.919551 279.335734 
L 127.229838 260.600866 
L 147.130291 267.735185 
L 191.285311 219.571522 
L 221.534888 219.511938 
L 238.568965 219.616942 
L 221.760884 293.742186 
L 217.65891 297.975963 
L 191.840472 297.794944 
L 186.635509 297.758199 
L 180.490761 280.6835 
L 178.998443 278.757502 
L 171.880709 276.517703 
L 145.782205 289.612226 
L 143.223104 288.710036 
L 142.919551 279.335734 
L 127.229838 260.600866 
L 147.130291 267.735185 
L 161.407037 228.467992 
L 182.135554 222.313158 
L 180.527288 251.256698 
L 179.293428 273.493681 
L 178.998443 278.757502 
L 171.880709 276.517703 
L 145.782205 289.612226 
L 143.223104 288.710036 
L 142.919551 279.335734 
L 147.130291 267.735185 
L 165.579734 258.663792 
L 127.229838 260.600866 
" clip-path="url(#p3c70811eec)" style="fill: none; stroke: #8f8f8f; stroke-width: 0.2; stroke-linecap: square"/>
   </g>
   <g id="line2d_14">
    <path d="M 191.285311 219.571522 
L 221.534888 219.511938 
L 238.568965 219.616942 
L 248.513655 251.735039 
L 249.881443 271.284425 
L 249.48626 298.879162 
L 242.656132 298.228387 
L 225.250491 296.522294 
L 208.05839 303.101198 
L 207.248548 303.428179 
L 179.293428 273.493681 
L 180.527288 251.256698 
L 180.863159 245.281575 
L 182.135554 222.313158 
L 191.285311 219.571522 
" clip-path="url(#p3c70811eec)" style="fill: none; stroke: #8f8f8f; stroke-width: 0.2; stroke-linecap: square"/>
   </g>
   <g id="line2d_15">
    <path d="M 238.568965 219.616942 
L 257.518521 219.368151 
L 294.760992 218.715258 
L 295.259821 243.126992 
L 295.474622 253.649739 
L 319.628628 252.09371 
L 325.769608 262.401095 
L 331.483982 261.904328 
L 331.436555 281.946998 
L 330.359578 299.911043 
L 328.969994 322.797952 
L 305.423953 314.279247 
L 307.249412 316.149748 
L 273.756217 316.447646 
L 276.329572 307.268571 
L 277.980183 301.656662 
L 279.446915 296.512563 
L 280.635446 292.043696 
L 280.296809 274.50407 
L 268.87289 273.289131 
L 249.881443 271.284425 
L 248.513655 251.735039 
L 238.568965 219.616942 
" clip-path="url(#p3c70811eec)" style="fill: none; stroke: #8f8f8f; stroke-width: 0.2; stroke-linecap: square"/>
   </g>
   <g id="line2d_16">
    <path d="M 296.495092 217.697092 
L 311.922895 226.096378 
L 319.628628 252.09371 
L 295.474622 253.649739 
L 295.259821 243.126992 
L 294.760992 218.715258 
L 296.495092 217.697092 
" clip-path="url(#p3c70811eec)" style="fill: none; stroke: #8f8f8f; stroke-width: 0.2; stroke-linecap: square"/>
   </g>
   <g id="line2d_17">
    <path d="M 192.223705 84.952857 
L 196.689536 85.036291 
L 195.163424 105.104958 
L 193.068913 114.198638 
L 188.393436 118.848012 
L 183.166041 118.550407 
L 182.672855 117.853671 
L 180.592847 118.855444 
L 180.283315 117.684425 
L 178.321054 117.454358 
L 178.296335 117.833926 
L 177.518634 117.517074 
L 176.827759 117.686361 
L 175.507872 117.427636 
L 174.474929 116.557815 
L 173.166992 116.517179 
L 172.881821 116.193799 
L 171.477722 116.069682 
L 169.740401 114.824032 
L 182.82411 104.27726 
L 192.223705 84.952857 
" clip-path="url(#p3c70811eec)" style="fill: none; stroke: #8f8f8f; stroke-width: 0.2; stroke-linecap: square"/>
   </g>
   <g id="line2d_18">
    <path d="M 283.88742 79.300875 
L 311.578732 98.350978 
L 321.111203 105.731544 
L 338.079811 118.896039 
L 311.915969 137.006882 
L 306.774951 140.564185 
L 242.568439 161.02142 
L 235.929775 162.328126 
L 230.885924 163.365614 
L 200.257338 139.974961 
L 200.403184 125.243369 
L 200.942182 114.999008 
L 195.163424 105.104958 
L 196.689536 85.036291 
L 222.435294 85.619608 
L 245.828183 86.162593 
L 250.39726 83.610455 
L 252.601033 82.386865 
L 260.876285 81.561793 
L 283.88742 79.300875 
" clip-path="url(#p3c70811eec)" style="fill: none; stroke: #8f8f8f; stroke-width: 0.2; stroke-linecap: square"/>
   </g>
   <g id="line2d_19">
    <path d="M 195.163424 105.104958 
L 200.942182 114.999008 
L 200.403184 125.243369 
L 188.393436 118.848012 
L 193.068913 114.198638 
L 195.163424 105.104958 
" clip-path="url(#p3c70811eec)" style="fill: none; stroke: #8f8f8f; stroke-width: 0.2; stroke-linecap: square"/>
   </g>
   <g id="line2d_20">
    <path d="M 359.412373 71.063777 
L 361.30205 80.128397 
L 369.088589 97.424158 
L 351.1298 109.851222 
L 338.079811 118.896039 
L 321.111203 105.731544 
L 311.578732 98.350978 
L 283.88742 79.300875 
L 300.564142 76.781091 
L 315.99996 79.158425 
L 339.269522 72.123037 
L 359.412373 71.063777 
" clip-path="url(#p3c70811eec)" style="fill: none; stroke: #8f8f8f; stroke-width: 0.2; stroke-linecap: square"/>
   </g>
   <g id="line2d_21">
    <path d="M 338.079811 118.896039 
L 344.186273 124.478182 
L 344.378182 156.968509 
L 340.199814 166.772235 
L 337.562393 173.05661 
L 329.08658 193.039974 
L 325.787669 200.845006 
L 296.495092 217.697092 
L 294.760992 218.715258 
L 257.518521 219.368151 
L 238.568965 219.616942 
L 221.534888 219.511938 
L 191.285311 219.571522 
L 182.135554 222.313158 
L 161.407037 228.467992 
L 200.257338 139.974961 
L 230.885924 163.365614 
L 235.929775 162.328126 
L 242.568439 161.02142 
L 306.774951 140.564185 
L 311.915969 137.006882 
L 338.079811 118.896039 
L 338.079811 118.896039 
" clip-path="url(#p3c70811eec)" style="fill: none; stroke: #ffc380; stroke-width: 0.5; stroke-linecap: square"/>
   </g>
   <g id="line2d_22">
    <path d="M 161.407037 228.467992 
L 127.941818 230.505593 
L 128.711946 228.359123 
L 128.562126 225.868787 
L 129.643624 224.736658 
L 130.448243 223.818454 
L 130.558519 222.904951 
L 130.434105 221.662366 
L 131.32273 220.102111 
L 133.104704 217.613215 
L 134.307988 214.800719 
L 135.984821 213.350593 
L 136.812142 210.745541 
L 138.140538 205.156689 
L 138.150605 203.787494 
L 138.672225 202.654411 
L 141.819374 200.944032 
L 142.859144 198.948554 
L 141.67545 192.97491 
L 141.999316 190.262597 
L 144.531444 183.551355 
L 144.72571 179.636768 
L 145.595456 178.491129 
L 147.269078 177.495561 
L 148.052825 175.029454 
L 147.746981 173.33055 
L 147.986489 170.973411 
L 147.543691 168.125779 
L 147.949457 166.173472 
L 150.06736 162.772586 
L 150.863835 160.08046 
L 155.053807 157.415915 
L 161.453061 149.563441 
L 161.562991 146.09717 
L 162.111382 145.202067 
L 163.251156 145.024175 
L 164.828099 145.277798 
L 166.011512 144.305242 
L 166.394868 142.229363 
L 167.159313 141.367452 
L 168.502274 141.356017 
L 169.641946 141.38137 
L 171.400942 139.893322 
L 172.911425 137.47353 
L 174.013929 132.714799 
L 176.147175 127.619643 
L 178.729116 123.655974 
L 180.368936 120.467058 
L 183.58315 118.996296 
L 183.166041 118.550407 
L 188.393436 118.848012 
L 200.403184 125.243369 
L 200.257338 139.974961 
L 161.407037 228.467992 
L 161.407037 228.467992 
" clip-path="url(#p3c70811eec)" style="fill: none; stroke: #ffc380; stroke-width: 0.5; stroke-linecap: square"/>
   </g>
   <g id="text_1">
    <!-- DKB2 -->
    <g style="opacity: 0.5" transform="translate(322.872198 90.094053)scale(0.0579 -0.0579)">
     <defs>
      <path id="DejaVuSans-44" d="M 1259 4147 
L 1259 519 
L 2022 519 
Q 2988 519 3436 956 
Q 3884 1394 3884 2338 
Q 3884 3275 3436 3711 
Q 2988 4147 2022 4147 
L 1259 4147 
z
M 628 4666 
L 1925 4666 
Q 3281 4666 3915 4102 
Q 4550 3538 4550 2338 
Q 4550 1131 3912 565 
Q 3275 0 1925 0 
L 628 0 
L 628 4666 
z
" transform="scale(0.015625)"/>
      <path id="DejaVuSans-4b" d="M 628 4666 
L 1259 4666 
L 1259 2694 
L 3353 4666 
L 4166 4666 
L 1850 2491 
L 4331 0 
L 3500 0 
L 1259 2247 
L 1259 0 
L 628 0 
L 628 4666 
z
" transform="scale(0.015625)"/>
      <path id="DejaVuSans-42" d="M 1259 2228 
L 1259 519 
L 2272 519 
Q 2781 519 3026 730 
Q 3272 941 3272 1375 
Q 3272 1813 3026 2020 
Q 2781 2228 2272 2228 
L 1259 2228 
z
M 1259 4147 
L 1259 2741 
L 2194 2741 
Q 2656 2741 2882 2914 
Q 3109 3088 3109 3444 
Q 3109 3797 2882 3972 
Q 2656 4147 2194 4147 
L 1259 4147 
z
M 628 4666 
L 2241 4666 
Q 2963 4666 3353 4366 
Q 3744 4066 3744 3513 
Q 3744 3084 3544 2831 
Q 3344 2578 2956 2516 
Q 3422 2416 3680 2098 
Q 3938 1781 3938 1306 
Q 3938 681 3513 340 
Q 3088 0 2303 0 
L 628 0 
L 628 4666 
z
" transform="scale(0.015625)"/>
      <path id="DejaVuSans-32" d="M 1228 531 
L 3431 531 
L 3431 0 
L 469 0 
L 469 531 
Q 828 903 1448 1529 
Q 2069 2156 2228 2338 
Q 2531 2678 2651 2914 
Q 2772 3150 2772 3378 
Q 2772 3750 2511 3984 
Q 2250 4219 1831 4219 
Q 1534 4219 1204 4116 
Q 875 4013 500 3803 
L 500 4441 
Q 881 4594 1212 4672 
Q 1544 4750 1819 4750 
Q 2544 4750 2975 4387 
Q 3406 4025 3406 3419 
Q 3406 3131 3298 2873 
Q 3191 2616 2906 2266 
Q 2828 2175 2409 1742 
Q 1991 1309 1228 531 
z
" transform="scale(0.015625)"/>
     </defs>
     <use xlink:href="#DejaVuSans-44"/>
     <use xlink:href="#DejaVuSans-4b" x="77.001953"/>
     <use xlink:href="#DejaVuSans-42" x="142.578125"/>
     <use xlink:href="#DejaVuSans-32" x="211.181641"/>
    </g>
    <!-- 245 -->
    <g style="opacity: 0.5" transform="translate(325.302189 96.577586)scale(0.0579 -0.0579)">
     <defs>
      <path id="DejaVuSans-34" d="M 2419 4116 
L 825 1625 
L 2419 1625 
L 2419 4116 
z
M 2253 4666 
L 3047 4666 
L 3047 1625 
L 3713 1625 
L 3713 1100 
L 3047 1100 
L 3047 0 
L 2419 0 
L 2419 1100 
L 313 1100 
L 313 1709 
L 2253 4666 
z
" transform="scale(0.015625)"/>
      <path id="DejaVuSans-35" d="M 691 4666 
L 3169 4666 
L 3169 4134 
L 1269 4134 
L 1269 2991 
Q 1406 3038 1543 3061 
Q 1681 3084 1819 3084 
Q 2600 3084 3056 2656 
Q 3513 2228 3513 1497 
Q 3513 744 3044 326 
Q 2575 -91 1722 -91 
Q 1428 -91 1123 -41 
Q 819 9 494 109 
L 494 744 
Q 775 591 1075 516 
Q 1375 441 1709 441 
Q 2250 441 2565 725 
Q 2881 1009 2881 1497 
Q 2881 1984 2565 2268 
Q 2250 2553 1709 2553 
Q 1456 2553 1204 2497 
Q 953 2441 691 2322 
L 691 4666 
z
" transform="scale(0.015625)"/>
     </defs>
     <use xlink:href="#DejaVuSans-32"/>
     <use xlink:href="#DejaVuSans-34" x="63.623047"/>
     <use xlink:href="#DejaVuSans-35" x="127.246094"/>
    </g>
    <!-- 105 -->
    <g style="opacity: 0.5" transform="translate(325.302189 103.06112)scale(0.0579 -0.0579)">
     <defs>
      <path id="DejaVuSans-31" d="M 794 531 
L 1825 531 
L 1825 4091 
L 703 3866 
L 703 4441 
L 1819 4666 
L 2450 4666 
L 2450 531 
L 3481 531 
L 3481 0 
L 794 0 
L 794 531 
z
" transform="scale(0.015625)"/>
      <path id="DejaVuSans-30" d="M 2034 4250 
Q 1547 4250 1301 3770 
Q 1056 3291 1056 2328 
Q 1056 1369 1301 889 
Q 1547 409 2034 409 
Q 2525 409 2770 889 
Q 3016 1369 3016 2328 
Q 3016 3291 2770 3770 
Q 2525 4250 2034 4250 
z
M 2034 4750 
Q 2819 4750 3233 4129 
Q 3647 3509 3647 2328 
Q 3647 1150 3233 529 
Q 2819 -91 2034 -91 
Q 1250 -91 836 529 
Q 422 1150 422 2328 
Q 422 3509 836 4129 
Q 1250 4750 2034 4750 
z
" transform="scale(0.015625)"/>
     </defs>
     <use xlink:href="#DejaVuSans-31"/>
     <use xlink:href="#DejaVuSans-30" x="63.623047"/>
     <use xlink:href="#DejaVuSans-35" x="127.246094"/>
    </g>
   </g>
   <g id="text_2">
    <!-- EDMMFUE -->
    <g style="opacity: 0.5" transform="translate(352.521247 240.515254)scale(0.0579 -0.0579)">
     <defs>
      <path id="DejaVuSans-45" d="M 628 4666 
L 3578 4666 
L 3578 4134 
L 1259 4134 
L 1259 2753 
L 3481 2753 
L 3481 2222 
L 1259 2222 
L 1259 531 
L 3634 531 
L 3634 0 
L 628 0 
L 628 4666 
z
" transform="scale(0.015625)"/>
      <path id="DejaVuSans-4d" d="M 628 4666 
L 1569 4666 
L 2759 1491 
L 3956 4666 
L 4897 4666 
L 4897 0 
L 4281 0 
L 4281 4097 
L 3078 897 
L 2444 897 
L 1241 4097 
L 1241 0 
L 628 0 
L 628 4666 
z
" transform="scale(0.015625)"/>
      <path id="DejaVuSans-46" d="M 628 4666 
L 3309 4666 
L 3309 4134 
L 1259 4134 
L 1259 2759 
L 3109 2759 
L 3109 2228 
L 1259 2228 
L 1259 0 
L 628 0 
L 628 4666 
z
" transform="scale(0.015625)"/>
      <path id="DejaVuSans-55" d="M 556 4666 
L 1191 4666 
L 1191 1831 
Q 1191 1081 1462 751 
Q 1734 422 2344 422 
Q 2950 422 3222 751 
Q 3494 1081 3494 1831 
L 3494 4666 
L 4128 4666 
L 4128 1753 
Q 4128 841 3676 375 
Q 3225 -91 2344 -91 
Q 1459 -91 1007 375 
Q 556 841 556 1753 
L 556 4666 
z
" transform="scale(0.015625)"/>
     </defs>
     <use xlink:href="#DejaVuSans-45"/>
     <use xlink:href="#DejaVuSans-44" x="63.183594"/>
     <use xlink:href="#DejaVuSans-4d" x="140.185547"/>
     <use xlink:href="#DejaVuSans-4d" x="226.464844"/>
     <use xlink:href="#DejaVuSans-46" x="312.744141"/>
     <use xlink:href="#DejaVuSans-55" x="370.263672"/>
     <use xlink:href="#DejaVuSans-45" x="443.457031"/>
    </g>
    <!-- 145 -->
    <g style="opacity: 0.5" transform="translate(361.662662 246.998787)scale(0.0579 -0.0579)">
     <use xlink:href="#DejaVuSans-31"/>
     <use xlink:href="#DejaVuSans-34" x="63.623047"/>
     <use xlink:href="#DejaVuSans-35" x="127.246094"/>
    </g>
    <!-- 105 -->
    <g style="opacity: 0.5" transform="translate(361.662662 253.482321)scale(0.0579 -0.0579)">
     <use xlink:href="#DejaVuSans-31"/>
     <use xlink:href="#DejaVuSans-30" x="63.623047"/>
     <use xlink:href="#DejaVuSans-35" x="127.246094"/>
    </g>
   </g>
   <g id="text_3">
    <!-- EDMMILR -->
    <g style="opacity: 0.5" transform="translate(336.13694 226.737195)scale(0.0579 -0.0579)">
     <defs>
      <path id="DejaVuSans-49" d="M 628 4666 
L 1259 4666 
L 1259 0 
L 628 0 
L 628 4666 
z
" transform="scale(0.015625)"/>
      <path id="DejaVuSans-4c" d="M 628 4666 
L 1259 4666 
L 1259 531 
L 3531 531 
L 3531 0 
L 628 0 
L 628 4666 
z
" transform="scale(0.015625)"/>
      <path id="DejaVuSans-52" d="M 2841 2188 
Q 3044 2119 3236 1894 
Q 3428 1669 3622 1275 
L 4263 0 
L 3584 0 
L 2988 1197 
Q 2756 1666 2539 1819 
Q 2322 1972 1947 1972 
L 1259 1972 
L 1259 0 
L 628 0 
L 628 4666 
L 2053 4666 
Q 2853 4666 3247 4331 
Q 3641 3997 3641 3322 
Q 3641 2881 3436 2590 
Q 3231 2300 2841 2188 
z
M 1259 4147 
L 1259 2491 
L 2053 2491 
Q 2509 2491 2742 2702 
Q 2975 2913 2975 3322 
Q 2975 3731 2742 3939 
Q 2509 4147 2053 4147 
L 1259 4147 
z
" transform="scale(0.015625)"/>
     </defs>
     <use xlink:href="#DejaVuSans-45"/>
     <use xlink:href="#DejaVuSans-44" x="63.183594"/>
     <use xlink:href="#DejaVuSans-4d" x="140.185547"/>
     <use xlink:href="#DejaVuSans-4d" x="226.464844"/>
     <use xlink:href="#DejaVuSans-49" x="312.744141"/>
     <use xlink:href="#DejaVuSans-4c" x="342.236328"/>
     <use xlink:href="#DejaVuSans-52" x="397.949219"/>
    </g>
    <!-- 95 -->
    <g style="opacity: 0.5" transform="translate(345.985821 233.220728)scale(0.0579 -0.0579)">
     <defs>
      <path id="DejaVuSans-39" d="M 703 97 
L 703 672 
Q 941 559 1184 500 
Q 1428 441 1663 441 
Q 2288 441 2617 861 
Q 2947 1281 2994 2138 
Q 2813 1869 2534 1725 
Q 2256 1581 1919 1581 
Q 1219 1581 811 2004 
Q 403 2428 403 3163 
Q 403 3881 828 4315 
Q 1253 4750 1959 4750 
Q 2769 4750 3195 4129 
Q 3622 3509 3622 2328 
Q 3622 1225 3098 567 
Q 2575 -91 1691 -91 
Q 1453 -91 1209 -44 
Q 966 3 703 97 
z
M 1959 2075 
Q 2384 2075 2632 2365 
Q 2881 2656 2881 3163 
Q 2881 3666 2632 3958 
Q 2384 4250 1959 4250 
Q 1534 4250 1286 3958 
Q 1038 3666 1038 3163 
Q 1038 2656 1286 2365 
Q 1534 2075 1959 2075 
z
" transform="scale(0.015625)"/>
     </defs>
     <use xlink:href="#DejaVuSans-39"/>
     <use xlink:href="#DejaVuSans-35" x="63.623047"/>
    </g>
    <!-- GND -->
    <g style="opacity: 0.5" transform="translate(343.031564 239.704262)scale(0.0579 -0.0579)">
     <defs>
      <path id="DejaVuSans-47" d="M 3809 666 
L 3809 1919 
L 2778 1919 
L 2778 2438 
L 4434 2438 
L 4434 434 
Q 4069 175 3628 42 
Q 3188 -91 2688 -91 
Q 1594 -91 976 548 
Q 359 1188 359 2328 
Q 359 3472 976 4111 
Q 1594 4750 2688 4750 
Q 3144 4750 3555 4637 
Q 3966 4525 4313 4306 
L 4313 3634 
Q 3963 3931 3569 4081 
Q 3175 4231 2741 4231 
Q 1884 4231 1454 3753 
Q 1025 3275 1025 2328 
Q 1025 1384 1454 906 
Q 1884 428 2741 428 
Q 3075 428 3337 486 
Q 3600 544 3809 666 
z
" transform="scale(0.015625)"/>
      <path id="DejaVuSans-4e" d="M 628 4666 
L 1478 4666 
L 3547 763 
L 3547 4666 
L 4159 4666 
L 4159 0 
L 3309 0 
L 1241 3903 
L 1241 0 
L 628 0 
L 628 4666 
z
" transform="scale(0.015625)"/>
     </defs>
     <use xlink:href="#DejaVuSans-47"/>
     <use xlink:href="#DejaVuSans-4e" x="77.490234"/>
     <use xlink:href="#DejaVuSans-44" x="152.294922"/>
    </g>
   </g>
   <g id="text_4">
    <!-- EDMMNDG -->
    <g style="opacity: 0.5" transform="translate(386.089023 172.130426)scale(0.0579 -0.0579)">
     <use xlink:href="#DejaVuSans-45"/>
     <use xlink:href="#DejaVuSans-44" x="63.183594"/>
     <use xlink:href="#DejaVuSans-4d" x="140.185547"/>
     <use xlink:href="#DejaVuSans-4d" x="226.464844"/>
     <use xlink:href="#DejaVuSans-4e" x="312.744141"/>
     <use xlink:href="#DejaVuSans-44" x="387.548828"/>
     <use xlink:href="#DejaVuSans-47" x="464.550781"/>
    </g>
    <!-- 105 -->
    <g style="opacity: 0.5" transform="translate(396.255449 178.613959)scale(0.0579 -0.0579)">
     <use xlink:href="#DejaVuSans-31"/>
     <use xlink:href="#DejaVuSans-30" x="63.623047"/>
     <use xlink:href="#DejaVuSans-35" x="127.246094"/>
    </g>
    <!-- GND -->
    <g style="opacity: 0.5" transform="translate(395.143136 185.097493)scale(0.0579 -0.0579)">
     <use xlink:href="#DejaVuSans-47"/>
     <use xlink:href="#DejaVuSans-4e" x="77.490234"/>
     <use xlink:href="#DejaVuSans-44" x="152.294922"/>
    </g>
   </g>
   <g id="text_5">
    <!-- LFSB-APP -->
    <g style="opacity: 0.5" transform="translate(71.11082 265.487594)scale(0.0579 -0.0579)">
     <defs>
      <path id="DejaVuSans-53" d="M 3425 4513 
L 3425 3897 
Q 3066 4069 2747 4153 
Q 2428 4238 2131 4238 
Q 1616 4238 1336 4038 
Q 1056 3838 1056 3469 
Q 1056 3159 1242 3001 
Q 1428 2844 1947 2747 
L 2328 2669 
Q 3034 2534 3370 2195 
Q 3706 1856 3706 1288 
Q 3706 609 3251 259 
Q 2797 -91 1919 -91 
Q 1588 -91 1214 -16 
Q 841 59 441 206 
L 441 856 
Q 825 641 1194 531 
Q 1563 422 1919 422 
Q 2459 422 2753 634 
Q 3047 847 3047 1241 
Q 3047 1584 2836 1778 
Q 2625 1972 2144 2069 
L 1759 2144 
Q 1053 2284 737 2584 
Q 422 2884 422 3419 
Q 422 4038 858 4394 
Q 1294 4750 2059 4750 
Q 2388 4750 2728 4690 
Q 3069 4631 3425 4513 
z
" transform="scale(0.015625)"/>
      <path id="DejaVuSans-2d" d="M 313 2009 
L 1997 2009 
L 1997 1497 
L 313 1497 
L 313 2009 
z
" transform="scale(0.015625)"/>
      <path id="DejaVuSans-41" d="M 2188 4044 
L 1331 1722 
L 3047 1722 
L 2188 4044 
z
M 1831 4666 
L 2547 4666 
L 4325 0 
L 3669 0 
L 3244 1197 
L 1141 1197 
L 716 0 
L 50 0 
L 1831 4666 
z
" transform="scale(0.015625)"/>
      <path id="DejaVuSans-50" d="M 1259 4147 
L 1259 2394 
L 2053 2394 
Q 2494 2394 2734 2622 
Q 2975 2850 2975 3272 
Q 2975 3691 2734 3919 
Q 2494 4147 2053 4147 
L 1259 4147 
z
M 628 4666 
L 2053 4666 
Q 2838 4666 3239 4311 
Q 3641 3956 3641 3272 
Q 3641 2581 3239 2228 
Q 2838 1875 2053 1875 
L 1259 1875 
L 1259 0 
L 628 0 
L 628 4666 
z
" transform="scale(0.015625)"/>
     </defs>
     <use xlink:href="#DejaVuSans-4c"/>
     <use xlink:href="#DejaVuSans-46" x="55.712891"/>
     <use xlink:href="#DejaVuSans-53" x="111.482422"/>
     <use xlink:href="#DejaVuSans-42" x="174.958984"/>
     <use xlink:href="#DejaVuSans-2d" x="243.5625"/>
     <use xlink:href="#DejaVuSans-41" x="277.396484"/>
     <use xlink:href="#DejaVuSans-50" x="345.804688"/>
     <use xlink:href="#DejaVuSans-50" x="406.107422"/>
    </g>
    <!-- 145 -->
    <g style="opacity: 0.5" transform="translate(79.08745 271.971128)scale(0.0579 -0.0579)">
     <use xlink:href="#DejaVuSans-31"/>
     <use xlink:href="#DejaVuSans-34" x="63.623047"/>
     <use xlink:href="#DejaVuSans-35" x="127.246094"/>
    </g>
    <!-- 20 -->
    <g style="opacity: 0.5" transform="translate(80.929393 278.454661)scale(0.0579 -0.0579)">
     <use xlink:href="#DejaVuSans-32"/>
     <use xlink:href="#DejaVuSans-30" x="63.623047"/>
    </g>
   </g>
   <g id="text_6">
    <!-- LFSB-APP-DE -->
    <g style="opacity: 0.5" transform="translate(125.443207 243.215733)scale(0.0579 -0.0579)">
     <use xlink:href="#DejaVuSans-4c"/>
     <use xlink:href="#DejaVuSans-46" x="55.712891"/>
     <use xlink:href="#DejaVuSans-53" x="111.482422"/>
     <use xlink:href="#DejaVuSans-42" x="174.958984"/>
     <use xlink:href="#DejaVuSans-2d" x="243.5625"/>
     <use xlink:href="#DejaVuSans-41" x="277.396484"/>
     <use xlink:href="#DejaVuSans-50" x="345.804688"/>
     <use xlink:href="#DejaVuSans-50" x="406.107422"/>
     <use xlink:href="#DejaVuSans-2d" x="464.160156"/>
     <use xlink:href="#DejaVuSans-44" x="500.244141"/>
     <use xlink:href="#DejaVuSans-45" x="577.246094"/>
    </g>
    <!-- 145 -->
    <g style="opacity: 0.5" transform="translate(138.457589 249.699266)scale(0.0579 -0.0579)">
     <use xlink:href="#DejaVuSans-31"/>
     <use xlink:href="#DejaVuSans-34" x="63.623047"/>
     <use xlink:href="#DejaVuSans-35" x="127.246094"/>
    </g>
    <!-- GND -->
    <g style="opacity: 0.5" transform="translate(137.345276 256.1828)scale(0.0579 -0.0579)">
     <use xlink:href="#DejaVuSans-47"/>
     <use xlink:href="#DejaVuSans-4e" x="77.490234"/>
     <use xlink:href="#DejaVuSans-44" x="152.294922"/>
    </g>
   </g>
   <g id="text_7">
    <!-- LFST_SIV -->
    <g style="opacity: 0.5" transform="translate(28.306549 141.084202)scale(0.0579 -0.0579)">
     <defs>
      <path id="DejaVuSans-54" d="M -19 4666 
L 3928 4666 
L 3928 4134 
L 2272 4134 
L 2272 0 
L 1638 0 
L 1638 4134 
L -19 4134 
L -19 4666 
z
" transform="scale(0.015625)"/>
      <path id="DejaVuSans-5f" d="M 3263 -1063 
L 3263 -1509 
L -63 -1509 
L -63 -1063 
L 3263 -1063 
z
" transform="scale(0.015625)"/>
      <path id="DejaVuSans-56" d="M 1831 0 
L 50 4666 
L 709 4666 
L 2188 738 
L 3669 4666 
L 4325 4666 
L 2547 0 
L 1831 0 
z
" transform="scale(0.015625)"/>
     </defs>
     <use xlink:href="#DejaVuSans-4c"/>
     <use xlink:href="#DejaVuSans-46" x="55.712891"/>
     <use xlink:href="#DejaVuSans-53" x="111.482422"/>
     <use xlink:href="#DejaVuSans-54" x="174.958984"/>
     <use xlink:href="#DejaVuSans-5f" x="236.042969"/>
     <use xlink:href="#DejaVuSans-53" x="286.042969"/>
     <use xlink:href="#DejaVuSans-49" x="349.519531"/>
     <use xlink:href="#DejaVuSans-56" x="379.011719"/>
    </g>
    <!-- 145 -->
    <g style="opacity: 0.5" transform="translate(35.734033 147.728769)scale(0.0579 -0.0579)">
     <use xlink:href="#DejaVuSans-31"/>
     <use xlink:href="#DejaVuSans-34" x="63.623047"/>
     <use xlink:href="#DejaVuSans-35" x="127.246094"/>
    </g>
    <!-- GND -->
    <g style="opacity: 0.5" transform="translate(34.62172 154.212303)scale(0.0579 -0.0579)">
     <use xlink:href="#DejaVuSans-47"/>
     <use xlink:href="#DejaVuSans-4e" x="77.490234"/>
     <use xlink:href="#DejaVuSans-44" x="152.294922"/>
    </g>
   </g>
   <g id="text_8">
    <!-- LFST_TMA -->
    <g style="opacity: 0.5" transform="translate(170.81382 109.742827)scale(0.0579 -0.0579)">
     <use xlink:href="#DejaVuSans-4c"/>
     <use xlink:href="#DejaVuSans-46" x="55.712891"/>
     <use xlink:href="#DejaVuSans-53" x="111.482422"/>
     <use xlink:href="#DejaVuSans-54" x="174.958984"/>
     <use xlink:href="#DejaVuSans-5f" x="236.042969"/>
     <use xlink:href="#DejaVuSans-54" x="286.042969"/>
     <use xlink:href="#DejaVuSans-4d" x="347.126953"/>
     <use xlink:href="#DejaVuSans-41" x="433.40625"/>
    </g>
    <!-- 75 -->
    <g style="opacity: 0.5" transform="translate(181.657404 116.387395)scale(0.0579 -0.0579)">
     <defs>
      <path id="DejaVuSans-37" d="M 525 4666 
L 3525 4666 
L 3525 4397 
L 1831 0 
L 1172 0 
L 2766 4134 
L 525 4134 
L 525 4666 
z
" transform="scale(0.015625)"/>
     </defs>
     <use xlink:href="#DejaVuSans-37"/>
     <use xlink:href="#DejaVuSans-35" x="63.623047"/>
    </g>
    <!-- GND -->
    <g style="opacity: 0.5" transform="translate(178.703147 122.870929)scale(0.0579 -0.0579)">
     <use xlink:href="#DejaVuSans-47"/>
     <use xlink:href="#DejaVuSans-4e" x="77.490234"/>
     <use xlink:href="#DejaVuSans-44" x="152.294922"/>
    </g>
   </g>
   <g id="text_9">
    <!-- LFST_TMA_0.2 -->
    <g style="opacity: 0.5" transform="translate(143.593575 169.510513)scale(0.0579 -0.0579)">
     <defs>
      <path id="DejaVuSans-2e" d="M 684 794 
L 1344 794 
L 1344 0 
L 684 0 
L 684 794 
z
" transform="scale(0.015625)"/>
     </defs>
     <use xlink:href="#DejaVuSans-4c"/>
     <use xlink:href="#DejaVuSans-46" x="55.712891"/>
     <use xlink:href="#DejaVuSans-53" x="111.482422"/>
     <use xlink:href="#DejaVuSans-54" x="174.958984"/>
     <use xlink:href="#DejaVuSans-5f" x="236.042969"/>
     <use xlink:href="#DejaVuSans-54" x="286.042969"/>
     <use xlink:href="#DejaVuSans-4d" x="347.126953"/>
     <use xlink:href="#DejaVuSans-41" x="433.40625"/>
     <use xlink:href="#DejaVuSans-5f" x="501.814453"/>
     <use xlink:href="#DejaVuSans-30" x="551.814453"/>
     <use xlink:href="#DejaVuSans-2e" x="615.4375"/>
     <use xlink:href="#DejaVuSans-32" x="647.224609"/>
    </g>
    <!-- 95 -->
    <g style="opacity: 0.5" transform="translate(160.488614 176.15508)scale(0.0579 -0.0579)">
     <use xlink:href="#DejaVuSans-39"/>
     <use xlink:href="#DejaVuSans-35" x="63.623047"/>
    </g>
    <!-- GND -->
    <g style="opacity: 0.5" transform="translate(157.534357 182.638614)scale(0.0579 -0.0579)">
     <use xlink:href="#DejaVuSans-47"/>
     <use xlink:href="#DejaVuSans-4e" x="77.490234"/>
     <use xlink:href="#DejaVuSans-44" x="152.294922"/>
    </g>
   </g>
   <g id="text_10">
    <!-- LSASZE -->
    <g style="opacity: 0.5" transform="translate(271.851406 279.919119)scale(0.0579 -0.0579)">
     <defs>
      <path id="DejaVuSans-5a" d="M 359 4666 
L 4025 4666 
L 4025 4184 
L 1075 531 
L 4097 531 
L 4097 0 
L 288 0 
L 288 481 
L 3238 4134 
L 359 4134 
L 359 4666 
z
" transform="scale(0.015625)"/>
     </defs>
     <use xlink:href="#DejaVuSans-4c"/>
     <use xlink:href="#DejaVuSans-53" x="55.712891"/>
     <use xlink:href="#DejaVuSans-41" x="121.064453"/>
     <use xlink:href="#DejaVuSans-53" x="189.472656"/>
     <use xlink:href="#DejaVuSans-5a" x="252.949219"/>
     <use xlink:href="#DejaVuSans-45" x="321.455078"/>
    </g>
    <!-- 245 -->
    <g style="opacity: 0.5" transform="translate(277.461373 286.402652)scale(0.0579 -0.0579)">
     <use xlink:href="#DejaVuSans-32"/>
     <use xlink:href="#DejaVuSans-34" x="63.623047"/>
     <use xlink:href="#DejaVuSans-35" x="127.246094"/>
    </g>
    <!-- 125 -->
    <g style="opacity: 0.5" transform="translate(277.461373 292.886186)scale(0.0579 -0.0579)">
     <use xlink:href="#DejaVuSans-31"/>
     <use xlink:href="#DejaVuSans-32" x="63.623047"/>
     <use xlink:href="#DejaVuSans-35" x="127.246094"/>
    </g>
   </g>
   <g id="text_11">
    <!-- LSASZN -->
    <g style="opacity: 0.5" transform="translate(171.092043 253.858095)scale(0.0579 -0.0579)">
     <use xlink:href="#DejaVuSans-4c"/>
     <use xlink:href="#DejaVuSans-53" x="55.712891"/>
     <use xlink:href="#DejaVuSans-41" x="121.064453"/>
     <use xlink:href="#DejaVuSans-53" x="189.472656"/>
     <use xlink:href="#DejaVuSans-5a" x="252.949219"/>
     <use xlink:href="#DejaVuSans-4e" x="321.455078"/>
    </g>
    <!-- 245 -->
    <g style="opacity: 0.5" transform="translate(177.038554 260.341629)scale(0.0579 -0.0579)">
     <use xlink:href="#DejaVuSans-32"/>
     <use xlink:href="#DejaVuSans-34" x="63.623047"/>
     <use xlink:href="#DejaVuSans-35" x="127.246094"/>
    </g>
    <!-- 145 -->
    <g style="opacity: 0.5" transform="translate(177.038554 266.825162)scale(0.0579 -0.0579)">
     <use xlink:href="#DejaVuSans-31"/>
     <use xlink:href="#DejaVuSans-34" x="63.623047"/>
     <use xlink:href="#DejaVuSans-35" x="127.246094"/>
    </g>
   </g>
   <g id="text_12">
    <!-- LSZH-APE-LDG14 -->
    <g style="opacity: 0.5" transform="translate(189.628012 256.584203)scale(0.0579 -0.0579)">
     <defs>
      <path id="DejaVuSans-48" d="M 628 4666 
L 1259 4666 
L 1259 2753 
L 3553 2753 
L 3553 4666 
L 4184 4666 
L 4184 0 
L 3553 0 
L 3553 2222 
L 1259 2222 
L 1259 0 
L 628 0 
L 628 4666 
z
" transform="scale(0.015625)"/>
     </defs>
     <use xlink:href="#DejaVuSans-4c"/>
     <use xlink:href="#DejaVuSans-53" x="55.712891"/>
     <use xlink:href="#DejaVuSans-5a" x="119.189453"/>
     <use xlink:href="#DejaVuSans-48" x="187.695312"/>
     <use xlink:href="#DejaVuSans-2d" x="262.890625"/>
     <use xlink:href="#DejaVuSans-41" x="296.724609"/>
     <use xlink:href="#DejaVuSans-50" x="365.132812"/>
     <use xlink:href="#DejaVuSans-45" x="425.435547"/>
     <use xlink:href="#DejaVuSans-2d" x="488.619141"/>
     <use xlink:href="#DejaVuSans-4c" x="524.703125"/>
     <use xlink:href="#DejaVuSans-44" x="580.416016"/>
     <use xlink:href="#DejaVuSans-47" x="657.417969"/>
     <use xlink:href="#DejaVuSans-31" x="734.908203"/>
     <use xlink:href="#DejaVuSans-34" x="798.53125"/>
    </g>
    <!-- 125 -->
    <g style="opacity: 0.5" transform="translate(209.061604 263.067736)scale(0.0579 -0.0579)">
     <use xlink:href="#DejaVuSans-31"/>
     <use xlink:href="#DejaVuSans-32" x="63.623047"/>
     <use xlink:href="#DejaVuSans-35" x="127.246094"/>
    </g>
    <!-- GND -->
    <g style="opacity: 0.5" transform="translate(207.949291 269.55127)scale(0.0579 -0.0579)">
     <use xlink:href="#DejaVuSans-47"/>
     <use xlink:href="#DejaVuSans-4e" x="77.490234"/>
     <use xlink:href="#DejaVuSans-44" x="152.294922"/>
    </g>
   </g>
   <g id="text_13">
    <!-- LSZH-ARFA -->
    <g style="opacity: 0.5" transform="translate(269.06281 265.87075)scale(0.0579 -0.0579)">
     <use xlink:href="#DejaVuSans-4c"/>
     <use xlink:href="#DejaVuSans-53" x="55.712891"/>
     <use xlink:href="#DejaVuSans-5a" x="119.189453"/>
     <use xlink:href="#DejaVuSans-48" x="187.695312"/>
     <use xlink:href="#DejaVuSans-2d" x="262.890625"/>
     <use xlink:href="#DejaVuSans-41" x="296.724609"/>
     <use xlink:href="#DejaVuSans-52" x="365.132812"/>
     <use xlink:href="#DejaVuSans-46" x="434.615234"/>
     <use xlink:href="#DejaVuSans-41" x="483.009766"/>
    </g>
    <!-- 105 -->
    <g style="opacity: 0.5" transform="translate(279.500642 272.354283)scale(0.0579 -0.0579)">
     <use xlink:href="#DejaVuSans-31"/>
     <use xlink:href="#DejaVuSans-30" x="63.623047"/>
     <use xlink:href="#DejaVuSans-35" x="127.246094"/>
    </g>
    <!-- GND -->
    <g style="opacity: 0.5" transform="translate(278.388329 278.837817)scale(0.0579 -0.0579)">
     <use xlink:href="#DejaVuSans-47"/>
     <use xlink:href="#DejaVuSans-4e" x="77.490234"/>
     <use xlink:href="#DejaVuSans-44" x="152.294922"/>
    </g>
   </g>
   <g id="text_14">
    <!-- LSZH-ARFA-ROREM -->
    <g style="opacity: 0.5" transform="translate(279.622649 230.78756)scale(0.0579 -0.0579)">
     <defs>
      <path id="DejaVuSans-4f" d="M 2522 4238 
Q 1834 4238 1429 3725 
Q 1025 3213 1025 2328 
Q 1025 1447 1429 934 
Q 1834 422 2522 422 
Q 3209 422 3611 934 
Q 4013 1447 4013 2328 
Q 4013 3213 3611 3725 
Q 3209 4238 2522 4238 
z
M 2522 4750 
Q 3503 4750 4090 4092 
Q 4678 3434 4678 2328 
Q 4678 1225 4090 567 
Q 3503 -91 2522 -91 
Q 1538 -91 948 565 
Q 359 1222 359 2328 
Q 359 3434 948 4092 
Q 1538 4750 2522 4750 
z
" transform="scale(0.015625)"/>
     </defs>
     <use xlink:href="#DejaVuSans-4c"/>
     <use xlink:href="#DejaVuSans-53" x="55.712891"/>
     <use xlink:href="#DejaVuSans-5a" x="119.189453"/>
     <use xlink:href="#DejaVuSans-48" x="187.695312"/>
     <use xlink:href="#DejaVuSans-2d" x="262.890625"/>
     <use xlink:href="#DejaVuSans-41" x="296.724609"/>
     <use xlink:href="#DejaVuSans-52" x="365.132812"/>
     <use xlink:href="#DejaVuSans-46" x="434.615234"/>
     <use xlink:href="#DejaVuSans-41" x="483.009766"/>
     <use xlink:href="#DejaVuSans-2d" x="549.167969"/>
     <use xlink:href="#DejaVuSans-52" x="585.251953"/>
     <use xlink:href="#DejaVuSans-4f" x="654.734375"/>
     <use xlink:href="#DejaVuSans-52" x="733.445312"/>
     <use xlink:href="#DejaVuSans-45" x="802.927734"/>
     <use xlink:href="#DejaVuSans-4d" x="866.111328"/>
    </g>
    <!-- 95 -->
    <g style="opacity: 0.5" transform="translate(303.510923 237.271094)scale(0.0579 -0.0579)">
     <use xlink:href="#DejaVuSans-39"/>
     <use xlink:href="#DejaVuSans-35" x="63.623047"/>
    </g>
    <!-- GND -->
    <g style="opacity: 0.5" transform="translate(300.556666 243.754627)scale(0.0579 -0.0579)">
     <use xlink:href="#DejaVuSans-47"/>
     <use xlink:href="#DejaVuSans-4e" x="77.490234"/>
     <use xlink:href="#DejaVuSans-44" x="152.294922"/>
    </g>
   </g>
   <g id="text_15">
    <!-- PFA4 -->
    <g style="opacity: 0.5" transform="translate(176.246161 97.018295)scale(0.0579 -0.0579)">
     <use xlink:href="#DejaVuSans-50"/>
     <use xlink:href="#DejaVuSans-46" x="60.302734"/>
     <use xlink:href="#DejaVuSans-41" x="108.697266"/>
     <use xlink:href="#DejaVuSans-34" x="177.105469"/>
    </g>
    <!-- 245 -->
    <g style="opacity: 0.5" transform="translate(177.689137 103.501828)scale(0.0579 -0.0579)">
     <use xlink:href="#DejaVuSans-32"/>
     <use xlink:href="#DejaVuSans-34" x="63.623047"/>
     <use xlink:href="#DejaVuSans-35" x="127.246094"/>
    </g>
    <!-- 95 -->
    <g style="opacity: 0.5" transform="translate(179.531081 109.985362)scale(0.0579 -0.0579)">
     <use xlink:href="#DejaVuSans-39"/>
     <use xlink:href="#DejaVuSans-35" x="63.623047"/>
    </g>
   </g>
   <g id="text_16">
    <!-- STG1 -->
    <g style="opacity: 0.5" transform="translate(258.930417 116.447389)scale(0.0579 -0.0579)">
     <use xlink:href="#DejaVuSans-53"/>
     <use xlink:href="#DejaVuSans-54" x="63.476562"/>
     <use xlink:href="#DejaVuSans-47" x="124.560547"/>
     <use xlink:href="#DejaVuSans-31" x="202.050781"/>
    </g>
    <!-- 145 -->
    <g style="opacity: 0.5" transform="translate(261.095787 122.930922)scale(0.0579 -0.0579)">
     <use xlink:href="#DejaVuSans-31"/>
     <use xlink:href="#DejaVuSans-34" x="63.623047"/>
     <use xlink:href="#DejaVuSans-35" x="127.246094"/>
    </g>
    <!-- GND -->
    <g style="opacity: 0.5" transform="translate(259.983473 129.414456)scale(0.0579 -0.0579)">
     <use xlink:href="#DejaVuSans-47"/>
     <use xlink:href="#DejaVuSans-4e" x="77.490234"/>
     <use xlink:href="#DejaVuSans-44" x="152.294922"/>
    </g>
   </g>
   <g id="text_17">
    <!-- STG3 -->
    <g style="opacity: 0.5" transform="translate(186.976608 110.288308)scale(0.0579 -0.0579)">
     <defs>
      <path id="DejaVuSans-33" d="M 2597 2516 
Q 3050 2419 3304 2112 
Q 3559 1806 3559 1356 
Q 3559 666 3084 287 
Q 2609 -91 1734 -91 
Q 1441 -91 1130 -33 
Q 819 25 488 141 
L 488 750 
Q 750 597 1062 519 
Q 1375 441 1716 441 
Q 2309 441 2620 675 
Q 2931 909 2931 1356 
Q 2931 1769 2642 2001 
Q 2353 2234 1838 2234 
L 1294 2234 
L 1294 2753 
L 1863 2753 
Q 2328 2753 2575 2939 
Q 2822 3125 2822 3475 
Q 2822 3834 2567 4026 
Q 2313 4219 1838 4219 
Q 1578 4219 1281 4162 
Q 984 4106 628 3988 
L 628 4550 
Q 988 4650 1302 4700 
Q 1616 4750 1894 4750 
Q 2613 4750 3031 4423 
Q 3450 4097 3450 3541 
Q 3450 3153 3228 2886 
Q 3006 2619 2597 2516 
z
" transform="scale(0.015625)"/>
     </defs>
     <use xlink:href="#DejaVuSans-53"/>
     <use xlink:href="#DejaVuSans-54" x="63.476562"/>
     <use xlink:href="#DejaVuSans-47" x="124.560547"/>
     <use xlink:href="#DejaVuSans-33" x="202.050781"/>
    </g>
    <!-- 145 -->
    <g style="opacity: 0.5" transform="translate(189.141978 116.771842)scale(0.0579 -0.0579)">
     <use xlink:href="#DejaVuSans-31"/>
     <use xlink:href="#DejaVuSans-34" x="63.623047"/>
     <use xlink:href="#DejaVuSans-35" x="127.246094"/>
    </g>
    <!-- 75 -->
    <g style="opacity: 0.5" transform="translate(190.983922 123.255375)scale(0.0579 -0.0579)">
     <use xlink:href="#DejaVuSans-37"/>
     <use xlink:href="#DejaVuSans-35" x="63.623047"/>
    </g>
   </g>
   <g id="text_18">
    <!-- STG5 -->
    <g style="opacity: 0.5" transform="translate(318.796804 90.094053)scale(0.0579 -0.0579)">
     <use xlink:href="#DejaVuSans-53"/>
     <use xlink:href="#DejaVuSans-54" x="63.476562"/>
     <use xlink:href="#DejaVuSans-47" x="124.560547"/>
     <use xlink:href="#DejaVuSans-35" x="202.050781"/>
    </g>
    <!-- 105 -->
    <g style="opacity: 0.5" transform="translate(320.962173 96.577586)scale(0.0579 -0.0579)">
     <use xlink:href="#DejaVuSans-31"/>
     <use xlink:href="#DejaVuSans-30" x="63.623047"/>
     <use xlink:href="#DejaVuSans-35" x="127.246094"/>
    </g>
    <!-- GND -->
    <g style="opacity: 0.5" transform="translate(319.84986 103.06112)scale(0.0579 -0.0579)">
     <use xlink:href="#DejaVuSans-47"/>
     <use xlink:href="#DejaVuSans-4e" x="77.490234"/>
     <use xlink:href="#DejaVuSans-44" x="152.294922"/>
    </g>
   </g>
   <g id="text_19">
    <!-- REU1 -->
    <g transform="translate(245.091037 168.79616)scale(0.0579 -0.0579)">
     <use xlink:href="#DejaVuSans-52"/>
     <use xlink:href="#DejaVuSans-45" x="69.482422"/>
     <use xlink:href="#DejaVuSans-55" x="132.666016"/>
     <use xlink:href="#DejaVuSans-31" x="205.859375"/>
    </g>
    <!-- 145 -->
    <g transform="translate(247.366778 175.279693)scale(0.0579 -0.0579)">
     <use xlink:href="#DejaVuSans-31"/>
     <use xlink:href="#DejaVuSans-34" x="63.623047"/>
     <use xlink:href="#DejaVuSans-35" x="127.246094"/>
    </g>
    <!-- GND -->
    <g transform="translate(246.254465 181.763227)scale(0.0579 -0.0579)">
     <use xlink:href="#DejaVuSans-47"/>
     <use xlink:href="#DejaVuSans-4e" x="77.490234"/>
     <use xlink:href="#DejaVuSans-44" x="152.294922"/>
    </g>
   </g>
   <g id="text_20">
    <!-- REU2 -->
    <g transform="translate(156.370928 169.642145)scale(0.0579 -0.0579)">
     <use xlink:href="#DejaVuSans-52"/>
     <use xlink:href="#DejaVuSans-45" x="69.482422"/>
     <use xlink:href="#DejaVuSans-55" x="132.666016"/>
     <use xlink:href="#DejaVuSans-32" x="205.859375"/>
    </g>
    <!-- 145 -->
    <g transform="translate(158.64667 176.125678)scale(0.0579 -0.0579)">
     <use xlink:href="#DejaVuSans-31"/>
     <use xlink:href="#DejaVuSans-34" x="63.623047"/>
     <use xlink:href="#DejaVuSans-35" x="127.246094"/>
    </g>
    <!-- 95 -->
    <g transform="translate(160.488614 182.609212)scale(0.0579 -0.0579)">
     <use xlink:href="#DejaVuSans-39"/>
     <use xlink:href="#DejaVuSans-35" x="63.623047"/>
    </g>
   </g>
  </g>
 </g>
 <defs>
  <clipPath id="p3c70811eec">
   <rect x="57.6" y="82.164972" width="357.12" height="184.726057"/>
  </clipPath>
 </defs>
</svg>
