<?xml version="1.0" encoding="utf-8" standalone="no"?>
<!DOCTYPE svg PUBLIC "-//W3C//DTD SVG 1.1//EN"
  "http://www.w3.org/Graphics/SVG/1.1/DTD/svg11.dtd">
<svg xmlns:xlink="http://www.w3.org/1999/xlink" width="460.8pt" height="345.6pt" viewBox="0 0 460.8 345.6" xmlns="http://www.w3.org/2000/svg" version="1.1">
 <metadata>
  <rdf:RDF xmlns:dc="http://purl.org/dc/elements/1.1/" xmlns:cc="http://creativecommons.org/ns#" xmlns:rdf="http://www.w3.org/1999/02/22-rdf-syntax-ns#">
   <cc:Work>
    <dc:type rdf:resource="http://purl.org/dc/dcmitype/StillImage"/>
    <dc:date>2022-04-26T15:42:21.929850</dc:date>
    <dc:format>image/svg+xml</dc:format>
    <dc:creator>
     <cc:Agent>
      <dc:title>Matplotlib v3.5.0, https://matplotlib.org/</dc:title>
     </cc:Agent>
    </dc:creator>
   </cc:Work>
  </rdf:RDF>
 </metadata>
 <defs>
  <style type="text/css">*{stroke-linejoin: round; stroke-linecap: butt}</style>
 </defs>
 <g id="figure_1">
  <g id="patch_1">
   <path d="M 0 345.6 
L 460.8 345.6 
L 460.8 0 
L 0 0 
z
" style="fill: #ffffff"/>
  </g>
  <g id="axes_1">
   <g id="patch_2">
    <path d="M 216.150944 139.678535 
L 222.70145 139.6943 
L 254.2495 139.463575 
L 278.296204 147.779809 
L 283.778219 161.244471 
L 290.504111 177.759395 
L 294.387549 187.334913 
L 294.900518 209.666015 
L 257.188232 196.75994 
L 246.712075 195.91099 
L 226.607483 194.466806 
L 222.754628 174.140818 
z
" clip-path="url(#p947cae2002)" style="fill: #ffedd9; stroke: #ffedd9; stroke-linejoin: miter"/>
   </g>
   <g id="patch_3">
    <path d="M 254.2495 139.463575 
L 274.448319 139.389985 
L 278.296204 147.779809 
z
" clip-path="url(#p947cae2002)" style="fill: #ffedd9; stroke: #ffedd9; stroke-linejoin: miter"/>
   </g>
   <g id="patch_4">
    <path d="M 294.387549 187.334913 
L 317.323636 196.006147 
L 313.507871 204.446489 
L 294.900518 209.666015 
z
" clip-path="url(#p947cae2002)" style="fill: #ffedd9; stroke: #ffedd9; stroke-linejoin: miter"/>
   </g>
   <g id="patch_5">
    <path d="M 216.150944 139.678535 
L 222.70145 139.6943 
L 228.765351 177.479891 
L 196.866118 174.338259 
L 212.996818 140.28836 
z
" clip-path="url(#p947cae2002)" style="fill: #ffedd9; stroke: #ffedd9; stroke-linejoin: miter"/>
   </g>
   <g id="patch_6">
    <path d="M 167.867342 164.894286 
L 172.036577 153.364406 
L 194.933014 144.922757 
L 212.996818 140.28836 
L 216.150944 139.678535 
L 222.754628 174.140818 
L 226.607483 194.466806 
L 217.086815 193.669597 
L 154.996364 194.888082 
L 155.521409 187.276276 
L 156.295049 175.837591 
L 156.329225 175.508703 
z
" clip-path="url(#p947cae2002)" style="fill: #ffedd9; stroke: #ffedd9; stroke-linejoin: miter"/>
   </g>
   <g id="patch_7">
    <path d="M 216.150944 139.678535 
L 222.70145 139.6943 
L 254.2495 139.463575 
L 278.296204 147.779809 
L 283.778219 161.244471 
L 290.504111 177.759395 
L 294.387549 187.334913 
L 294.900518 209.666015 
L 257.188232 196.75994 
L 246.712075 195.91099 
L 226.607483 194.466806 
L 222.754628 174.140818 
L 216.150944 139.678535 
z
" clip-path="url(#p947cae2002)" style="fill: #ffedd9; stroke: #ffedd9; stroke-linejoin: miter"/>
   </g>
   <g id="patch_8">
    <path d="M 254.2495 139.463575 
L 274.448319 139.389985 
L 278.296204 147.779809 
L 254.2495 139.463575 
z
" clip-path="url(#p947cae2002)" style="fill: #ffedd9; stroke: #ffedd9; stroke-linejoin: miter"/>
   </g>
   <g id="patch_9">
    <path d="M 294.387549 187.334913 
L 317.323636 196.006147 
L 313.507871 204.446489 
L 294.900518 209.666015 
L 294.387549 187.334913 
z
" clip-path="url(#p947cae2002)" style="fill: #ffedd9; stroke: #ffedd9; stroke-linejoin: miter"/>
   </g>
   <g id="patch_10">
    <path d="M 216.150944 139.678535 
L 222.70145 139.6943 
L 228.765351 177.479891 
L 196.866118 174.338259 
L 212.996818 140.28836 
L 216.150944 139.678535 
z
" clip-path="url(#p947cae2002)" style="fill: #ffedd9; stroke: #ffedd9; stroke-linejoin: miter"/>
   </g>
   <g id="patch_11">
    <path d="M 167.867342 164.894286 
L 172.036577 153.364406 
L 194.933014 144.922757 
L 212.996818 140.28836 
L 216.150944 139.678535 
L 222.754628 174.140818 
L 226.607483 194.466806 
L 217.086815 193.669597 
L 154.996364 194.888082 
L 155.521409 187.276276 
L 156.295049 175.837591 
L 156.329225 175.508703 
L 167.867342 164.894286 
z
" clip-path="url(#p947cae2002)" style="fill: #ffedd9; stroke: #ffedd9; stroke-linejoin: miter"/>
   </g>
   <g id="line2d_1">
    <path d="M 216.150944 139.678535 
L 222.70145 139.6943 
L 254.2495 139.463575 
L 278.296204 147.779809 
L 283.778219 161.244471 
L 290.504111 177.759395 
L 294.387549 187.334913 
L 294.900518 209.666015 
L 257.188232 196.75994 
L 246.712075 195.91099 
L 226.607483 194.466806 
L 222.754628 174.140818 
L 216.150944 139.678535 
" clip-path="url(#p947cae2002)" style="fill: none; stroke: #ffc380; stroke-width: 0.5; stroke-linecap: square"/>
   </g>
   <g id="line2d_2">
    <path d="M 254.2495 139.463575 
L 274.448319 139.389985 
L 278.296204 147.779809 
L 254.2495 139.463575 
" clip-path="url(#p947cae2002)" style="fill: none; stroke: #ffc380; stroke-width: 0.5; stroke-linecap: square"/>
   </g>
   <g id="line2d_3">
    <path d="M 294.387549 187.334913 
L 317.323636 196.006147 
L 313.507871 204.446489 
L 294.900518 209.666015 
L 294.387549 187.334913 
" clip-path="url(#p947cae2002)" style="fill: none; stroke: #ffc380; stroke-width: 0.5; stroke-linecap: square"/>
   </g>
   <g id="line2d_4">
    <path d="M 216.150944 139.678535 
L 222.70145 139.6943 
L 228.765351 177.479891 
L 196.866118 174.338259 
L 212.996818 140.28836 
L 216.150944 139.678535 
" clip-path="url(#p947cae2002)" style="fill: none; stroke: #ffc380; stroke-width: 0.5; stroke-linecap: square"/>
   </g>
   <g id="line2d_5">
    <path d="M 167.867342 164.894286 
L 172.036577 153.364406 
L 194.933014 144.922757 
L 212.996818 140.28836 
L 216.150944 139.678535 
L 222.754628 174.140818 
L 226.607483 194.466806 
L 217.086815 193.669597 
L 154.996364 194.888082 
L 155.521409 187.276276 
L 156.295049 175.837591 
L 156.329225 175.508703 
L 167.867342 164.894286 
" clip-path="url(#p947cae2002)" style="fill: none; stroke: #ffc380; stroke-width: 0.5; stroke-linecap: square"/>
   </g>
   <g id="line2d_6">
    <path d="M 294.387549 187.334913 
L 297.13377 186.480995 
L 312.568761 181.704255 
L 343.717982 172.04917 
L 353.127582 169.092637 
L 359.169049 167.253088 
L 376.070212 187.708514 
L 380.064304 209.513672 
L 370.800514 213.040235 
L 322.673761 231.356536 
L 295.261897 224.663306 
L 294.900518 209.666015 
L 294.387549 187.334913 
" clip-path="url(#p947cae2002)" style="fill: none; stroke: #8f8f8f; stroke-width: 0.2; stroke-linecap: square"/>
   </g>
   <g id="line2d_7">
    <path d="M 308.843131 48.254763 
L 326.508289 73.940556 
L 331.185734 80.776909 
L 337.40363 86.041877 
L 322.453846 92.644868 
L 328.234706 101.254913 
L 309.974166 112.44616 
L 298.544528 119.457621 
L 298.099379 119.74433 
L 285.205911 127.057973 
L 272.07514 134.469895 
L 274.448319 139.389985 
L 254.2495 139.463575 
L 222.70145 139.6943 
L 220.880461 135.25883 
L 217.900996 128.003395 
L 209.349011 107.265048 
L 240.48488 81.875894 
L 230.504075 70.581268 
L 241.443706 62.645346 
L 256.842247 51.400253 
L 264.786913 51.061742 
L 279.664648 50.392011 
L 303.022379 49.351331 
L 308.843131 48.254763 
" clip-path="url(#p947cae2002)" style="fill: none; stroke: #8f8f8f; stroke-width: 0.2; stroke-linecap: square"/>
   </g>
   <g id="line2d_8">
    <path d="M 53.712929 4.140215 
L 59.046531 11.278242 
L 59.735742 14.109467 
L 59.123623 15.941749 
L 61.719113 16.825322 
L 62.092123 16.509666 
L 65.262962 15.145578 
L 69.054104 17.844795 
L 67.329882 23.265359 
L 68.399465 24.336338 
L 72.306016 24.068522 
L 82.174909 23.722861 
L 85.430246 24.331802 
L 87.393984 22.00828 
L 91.326228 19.380335 
L 94.365773 20.225172 
L 97.151902 24.070182 
L 97.984529 26.200518 
L 97.901666 29.496309 
L 98.06321 30.862267 
L 111.716233 37.729906 
L 117.647164 37.293125 
L 118.099808 37.718149 
L 118.46484 39.33689 
L 122.758325 40.123624 
L 125.439785 43.046114 
L 124.038677 44.98425 
L 117.059812 55.991063 
L 116.981971 57.720179 
L 116.179084 58.561749 
L 116.333074 59.473343 
L 117.403614 60.948368 
L 116.557955 64.920564 
L 114.6935 67.380256 
L 112.25814 69.77956 
L 112.146235 70.889221 
L 112.735378 71.154607 
L 114.040102 70.947014 
L 114.569681 72.323504 
L 113.227922 74.590923 
L 112.493375 77.372226 
L 111.099292 77.815938 
L 108.21066 81.692013 
L 106.462791 82.339425 
L 105.387609 82.136549 
L 104.818562 83.663335 
L 103.566244 86.55485 
L 103.7256 87.273964 
L 104.412941 89.210742 
L 104.52508 90.151782 
L 103.445503 91.754251 
L 99.686296 101.293372 
L 119.737712 108.589367 
L 139.076663 101.875705 
L 144.323002 99.663971 
L 143.771177 114.941155 
L 147.932027 119.828597 
L 130.283902 131.190536 
L 167.867342 164.894286 
L 156.329225 175.508703 
L 156.295049 175.837591 
L 154.996364 194.888082 
L 147.708859 194.710162 
L 147.719127 194.298278 
L 146.550667 193.485982 
L 145.707538 192.351981 
L 146.296011 191.006724 
L 145.844874 190.047433 
L 146.392277 189.27814 
L 145.464328 188.389245 
L 142.650098 187.987838 
L 142.4284 189.424675 
L 142.015665 190.073501 
L 141.240865 190.424445 
L 140.660328 190.409409 
L 139.965013 189.731887 
L 138.318963 189.070588 
L 137.831792 188.52196 
L 137.644349 186.621074 
L 137.229989 186.321615 
L 136.727811 186.349534 
L 134.429892 187.401086 
L 132.398864 187.346294 
L 131.218054 188.056086 
L 131.353317 189.873344 
L 131.612696 190.045279 
L 131.064724 190.772259 
L 130.643967 193.604777 
L 126.696551 194.938418 
L 125.487516 195.646538 
L 124.769608 196.739272 
L 124.659061 197.849068 
L 123.838282 199.763204 
L 124.017114 200.922386 
L 123.814664 201.534952 
L 123.191602 202.053169 
L 122.320521 201.987211 
L 120.997056 202.938689 
L 120.65384 203.835682 
L 120.741882 204.456501 
L 121.790727 205.723077 
L 121.828354 206.260001 
L 120.677418 207.628564 
L 120.688527 208.164737 
L 119.905151 209.626156 
L 117.434865 210.791291 
L 117.076419 211.275496 
L 117.418303 213.181587 
L 117.765014 214.016068 
L 118.755655 214.580624 
L 118.150683 216.253143 
L 116.939666 216.877483 
L 116.355744 216.901666 
L 115.972866 217.302675 
L 116.137814 218.008251 
L 115.567003 218.486184 
L 114.462785 218.165177 
L 113.581232 218.386465 
L 112.956001 218.903808 
L 112.1133 220.486382 
L 112.447568 221.732974 
L 111.910818 222.829973 
L 111.206792 223.303613 
L 111.097106 225.19653 
L 110.714745 225.55608 
L 109.736489 226.309923 
L 108.336453 227.834104 
L 109.710242 228.947341 
L 110.925804 229.148689 
L 111.890361 229.754574 
L 112.813896 230.853762 
L 113.083889 231.60374 
L 112.299491 232.07514 
L 110.476607 231.732213 
L 110.013019 232.130529 
L 110.634717 233.550706 
L 109.712237 234.182593 
L 109.682535 235.171027 
L 109.361924 236.109494 
L 108.574305 236.662863 
L 109.463081 238.049972 
L 109.330125 239.818522 
L 109.657023 240.446675 
L 109.226761 242.371182 
L 109.731225 243.293218 
L 113.313004 243.647089 
L 86.90943 259.022093 
L 64.808068 259.370265 
L 62.175821 256.92427 
L 52.772038 253.06941 
L 48.250461 250.010072 
L 36.469434 240.060922 
L 24.058283 239.550776 
L 24.390656 230.366878 
L 25.993846 212.409729 
L -1 212.390091 
M -1 183.663419 
L 53.712929 4.140215 
L 53.712929 4.140215 
" clip-path="url(#p947cae2002)" style="fill: none; stroke: #8f8f8f; stroke-width: 0.2; stroke-linecap: square"/>
   </g>
   <g id="line2d_9">
    <path d="M 173.708382 268.663164 
L 181.452407 243.066348 
L 166.143088 233.059443 
L 153.035189 223.68999 
L 153.234056 220.933509 
L 154.008052 209.659785 
L 154.996364 194.888082 
L 155.521409 187.276276 
L 156.295049 175.837591 
L 156.329225 175.508703 
L 167.867342 164.894286 
L 172.036577 153.364406 
L 147.932027 119.828597 
L 143.771177 114.941155 
L 144.323002 99.663971 
L 139.076663 101.875705 
L 139.446265 99.742192 
L 138.391791 98.230234 
L 136.456474 95.581451 
L 135.690753 94.035612 
L 138.886841 88.474669 
L 144.721217 88.298301 
L 144.828629 86.157769 
L 144.21543 82.720809 
L 143.243344 77.131046 
L 141.799132 75.732933 
L 138.945538 72.079307 
L 135.276946 68.179569 
L 129.633445 68.60012 
L 126.81936 61.718653 
L 134.697617 55.261594 
L 138.892946 52.407767 
L 155.019038 42.023672 
L 150.168285 38.605094 
L 145.715617 40.922829 
L 145.220068 30.192749 
L 146.642576 29.075555 
L 134.636961 28.383255 
L 97.984529 26.200518 
L 97.151902 24.070182 
L 94.365773 20.225172 
L 91.326228 19.380335 
L 87.393984 22.00828 
L 85.430246 24.331802 
L 82.174909 23.722861 
L 72.306016 24.068522 
L 68.399465 24.336338 
L 67.329882 23.265359 
L 69.054104 17.844795 
L 65.262962 15.145578 
L 62.092123 16.509666 
L 61.719113 16.825322 
L 59.123623 15.941749 
L 59.735742 14.109467 
L 59.046531 11.278242 
L 53.712929 4.140215 
L -1 183.663419 
M -1 212.390091 
L 25.993846 212.409729 
L 24.390656 230.366878 
L 24.058283 239.550776 
L 36.469434 240.060922 
L 48.250461 250.010072 
L 52.772038 253.06941 
L 62.175821 256.92427 
L 64.808068 259.370265 
L 67.026277 263.738339 
L 72.265776 267.346286 
L 73.341624 268.662095 
L 76.837575 271.092162 
L 78.75084 276.105307 
L 79.660868 279.228507 
L 79.459171 283.592002 
L 108.228973 280.925272 
L 114.623163 279.960023 
L 115.370605 280.929825 
L 116.252524 280.955349 
L 117.399563 282.925748 
L 127.039175 290.302959 
L 131.942005 294.374902 
L 137.339502 292.868025 
L 143.104131 291.572512 
L 149.866713 288.771768 
L 153.8145 287.094021 
L 165.631626 293.669146 
L 169.730138 293.634478 
L 170.533238 293.651638 
L 176.958087 293.785713 
L 178.367868 295.58636 
L 185.062153 295.718637 
L 181.772467 287.330289 
L 173.708382 268.663164 
" clip-path="url(#p947cae2002)" style="fill: none; stroke: #8f8f8f; stroke-width: 0.2; stroke-linecap: square"/>
   </g>
   <g id="line2d_10">
    <path d="M 154.008052 209.659785 
L 154.996364 194.888082 
L 155.521409 187.276276 
L 156.295049 175.837591 
L 156.329225 175.508703 
L 167.867342 164.894286 
L 172.036577 153.364406 
L 194.933014 144.922757 
L 212.996818 140.28836 
L 216.150944 139.678535 
L 222.754628 174.140818 
L 226.607483 194.466806 
L 229.492459 209.75074 
L 239.952985 265.133172 
L 187.707923 267.871759 
L 187.75587 266.810349 
L 186.994058 246.677608 
L 186.730458 238.266273 
L 185.084225 236.833301 
L 154.008052 209.659785 
" clip-path="url(#p947cae2002)" style="fill: none; stroke: #8f8f8f; stroke-width: 0.2; stroke-linecap: square"/>
   </g>
   <g id="line2d_11">
    <path d="M 239.952985 265.133172 
L 229.492459 209.75074 
L 226.607483 194.466806 
L 222.754628 174.140818 
L 216.150944 139.678535 
L 222.70145 139.6943 
L 254.2495 139.463575 
L 274.448319 139.389985 
L 278.296204 147.779809 
L 283.778219 161.244471 
L 290.504111 177.759395 
L 294.387549 187.334913 
L 294.900518 209.666015 
L 295.261897 224.663306 
L 295.646149 241.020187 
L 278.385459 259.715605 
L 255.998133 260.360375 
L 239.952985 265.133172 
" clip-path="url(#p947cae2002)" style="fill: none; stroke: #8f8f8f; stroke-width: 0.2; stroke-linecap: square"/>
   </g>
   <g id="line2d_12">
    <path d="M 226.607483 194.466806 
L 246.712075 195.91099 
L 257.188232 196.75994 
L 294.900518 209.666015 
L 295.261897 224.663306 
L 295.646149 241.020187 
L 296.309002 241.393624 
L 318.301683 253.641437 
L 340.823399 266.191455 
L 278.385459 259.715605 
L 255.998133 260.360375 
L 239.952985 265.133172 
L 229.492459 209.75074 
L 226.607483 194.466806 
" clip-path="url(#p947cae2002)" style="fill: none; stroke: #8f8f8f; stroke-width: 0.2; stroke-linecap: square"/>
   </g>
   <g id="line2d_13">
    <path d="M 294.900518 209.666015 
L 313.507871 204.446489 
L 317.323636 196.006147 
L 324.928565 198.893796 
L 336.842316 198.842303 
L 357.15639 198.778686 
L 361.75844 230.437084 
L 366.756299 263.820913 
L 340.823399 266.191455 
L 318.301683 253.641437 
L 296.309002 241.393624 
L 295.646149 241.020187 
L 295.261897 224.663306 
L 294.900518 209.666015 
" clip-path="url(#p947cae2002)" style="fill: none; stroke: #8f8f8f; stroke-width: 0.2; stroke-linecap: square"/>
   </g>
   <g id="line2d_14">
    <path d="M 154.996364 194.888082 
L 217.086815 193.669597 
L 226.607483 194.466806 
L 229.492459 209.75074 
L 239.952985 265.133172 
L 187.707923 267.871759 
L 173.708382 268.663164 
L 181.452407 243.066348 
L 166.143088 233.059443 
L 153.035189 223.68999 
L 153.234056 220.933509 
L 154.008052 209.659785 
L 154.996364 194.888082 
" clip-path="url(#p947cae2002)" style="fill: none; stroke: #8f8f8f; stroke-width: 0.2; stroke-linecap: square"/>
   </g>
   <g id="line2d_15">
    <path d="M 294.387549 187.334913 
L 317.323636 196.006147 
L 313.507871 204.446489 
L 294.900518 209.666015 
L 294.387549 187.334913 
" clip-path="url(#p947cae2002)" style="fill: none; stroke: #8f8f8f; stroke-width: 0.2; stroke-linecap: square"/>
   </g>
   <g id="line2d_16">
    <path d="M 241.443706 62.645346 
L 247.091524 67.36698 
L 285.205911 127.057973 
L 272.07514 134.469895 
L 274.448319 139.389985 
L 254.2495 139.463575 
L 222.70145 139.6943 
L 220.880461 135.25883 
L 217.900996 128.003395 
L 209.349011 107.265048 
L 240.48488 81.875894 
L 230.504075 70.581268 
L 241.443706 62.645346 
" clip-path="url(#p947cae2002)" style="fill: none; stroke: #8f8f8f; stroke-width: 0.2; stroke-linecap: square"/>
   </g>
   <g id="line2d_17">
    <path d="M 285.205911 127.057973 
L 286.969407 129.786808 
L 298.042624 155.380412 
L 283.778219 161.244471 
L 278.296204 147.779809 
L 254.2495 139.463575 
L 274.448319 139.389985 
L 272.07514 134.469895 
L 285.205911 127.057973 
" clip-path="url(#p947cae2002)" style="fill: none; stroke: #8f8f8f; stroke-width: 0.2; stroke-linecap: square"/>
   </g>
   <g id="line2d_18">
    <path d="M 278.34743 116.304137 
L 285.205911 127.057973 
L 286.969407 129.786808 
L 298.042624 155.380412 
L 283.778219 161.244471 
L 278.296204 147.779809 
L 254.2495 139.463575 
L 222.70145 139.6943 
L 216.150944 139.678535 
L 212.996818 140.28836 
L 230.573959 129.050311 
L 242.750995 125.783515 
L 278.34743 116.304137 
" clip-path="url(#p947cae2002)" style="fill: none; stroke: #8f8f8f; stroke-width: 0.2; stroke-linecap: square"/>
   </g>
   <g id="line2d_19">
    <path d="M 209.349011 107.265048 
L 217.900996 128.003395 
L 220.880461 135.25883 
L 222.70145 139.6943 
L 216.150944 139.678535 
L 212.996818 140.28836 
L 194.933014 144.922757 
L 172.036577 153.364406 
L 147.932027 119.828597 
L 151.586189 117.94161 
L 161.531544 112.822893 
L 191.446999 115.888502 
L 200.667378 114.368635 
L 209.349011 107.265048 
" clip-path="url(#p947cae2002)" style="fill: none; stroke: #8f8f8f; stroke-width: 0.2; stroke-linecap: square"/>
   </g>
   <g id="line2d_20">
    <path d="M 309.974166 112.44616 
L 331.817921 141.008339 
L 347.774826 133.14656 
L 353.307549 142.148601 
L 360.044821 153.076695 
L 358.05695 160.090012 
L 353.127582 169.092637 
L 343.717982 172.04917 
L 312.568761 181.704255 
L 297.13377 186.480995 
L 294.387549 187.334913 
L 290.504111 177.759395 
L 283.778219 161.244471 
L 298.042624 155.380412 
L 286.969407 129.786808 
L 285.205911 127.057973 
L 298.099379 119.74433 
L 298.544528 119.457621 
L 309.974166 112.44616 
" clip-path="url(#p947cae2002)" style="fill: none; stroke: #8f8f8f; stroke-width: 0.2; stroke-linecap: square"/>
   </g>
   <g id="line2d_21">
    <path d="M 367.201625 164.73749 
L 387.179702 197.259966 
L 372.293055 198.734727 
L 357.15639 198.778686 
L 336.842316 198.842303 
L 324.928565 198.893796 
L 317.323636 196.006147 
L 294.387549 187.334913 
L 297.13377 186.480995 
L 312.568761 181.704255 
L 343.717982 172.04917 
L 353.127582 169.092637 
L 367.201625 164.73749 
" clip-path="url(#p947cae2002)" style="fill: none; stroke: #8f8f8f; stroke-width: 0.2; stroke-linecap: square"/>
   </g>
   <g id="line2d_22">
    <path d="M 285.205911 127.057973 
L 286.969407 129.786808 
L 298.042624 155.380412 
L 283.778219 161.244471 
L 278.296204 147.779809 
L 274.448319 139.389985 
L 272.07514 134.469895 
L 285.205911 127.057973 
" clip-path="url(#p947cae2002)" style="fill: none; stroke: #8f8f8f; stroke-width: 0.2; stroke-linecap: square"/>
   </g>
   <g id="line2d_23">
    <path d="M 216.150944 139.678535 
L 222.70145 139.6943 
L 254.2495 139.463575 
L 278.296204 147.779809 
L 283.778219 161.244471 
L 290.504111 177.759395 
L 294.387549 187.334913 
L 294.900518 209.666015 
L 257.188232 196.75994 
L 246.712075 195.91099 
L 226.607483 194.466806 
L 222.754628 174.140818 
L 216.150944 139.678535 
L 216.150944 139.678535 
" clip-path="url(#p947cae2002)" style="fill: none; stroke: #ffc380; stroke-width: 0.5; stroke-linecap: square"/>
   </g>
   <g id="line2d_24">
    <path d="M 254.2495 139.463575 
L 274.448319 139.389985 
L 278.296204 147.779809 
L 254.2495 139.463575 
L 254.2495 139.463575 
" clip-path="url(#p947cae2002)" style="fill: none; stroke: #ffc380; stroke-width: 0.5; stroke-linecap: square"/>
   </g>
   <g id="line2d_25">
    <path d="M 294.387549 187.334913 
L 317.323636 196.006147 
L 313.507871 204.446489 
L 294.900518 209.666015 
L 294.387549 187.334913 
L 294.387549 187.334913 
" clip-path="url(#p947cae2002)" style="fill: none; stroke: #ffc380; stroke-width: 0.5; stroke-linecap: square"/>
   </g>
   <g id="line2d_26">
    <path d="M 216.150944 139.678535 
L 222.70145 139.6943 
L 228.765351 177.479891 
L 196.866118 174.338259 
L 212.996818 140.28836 
L 216.150944 139.678535 
L 216.150944 139.678535 
" clip-path="url(#p947cae2002)" style="fill: none; stroke: #ffc380; stroke-width: 0.5; stroke-linecap: square"/>
   </g>
   <g id="line2d_27">
    <path d="M 167.867342 164.894286 
L 172.036577 153.364406 
L 194.933014 144.922757 
L 212.996818 140.28836 
L 216.150944 139.678535 
L 222.754628 174.140818 
L 226.607483 194.466806 
L 217.086815 193.669597 
L 154.996364 194.888082 
L 155.521409 187.276276 
L 156.295049 175.837591 
L 156.329225 175.508703 
L 167.867342 164.894286 
L 167.867342 164.894286 
" clip-path="url(#p947cae2002)" style="fill: none; stroke: #ffc380; stroke-width: 0.5; stroke-linecap: square"/>
   </g>
   <g id="text_1">
    <!-- ADF11 -->
    <g style="opacity: 0.5" transform="translate(327.667451 194.418957)scale(0.0579 -0.0579)">
     <defs>
      <path id="DejaVuSans-41" d="M 2188 4044 
L 1331 1722 
L 3047 1722 
L 2188 4044 
z
M 1831 4666 
L 2547 4666 
L 4325 0 
L 3669 0 
L 3244 1197 
L 1141 1197 
L 716 0 
L 50 0 
L 1831 4666 
z
" transform="scale(0.015625)"/>
      <path id="DejaVuSans-44" d="M 1259 4147 
L 1259 519 
L 2022 519 
Q 2988 519 3436 956 
Q 3884 1394 3884 2338 
Q 3884 3275 3436 3711 
Q 2988 4147 2022 4147 
L 1259 4147 
z
M 628 4666 
L 1925 4666 
Q 3281 4666 3915 4102 
Q 4550 3538 4550 2338 
Q 4550 1131 3912 565 
Q 3275 0 1925 0 
L 628 0 
L 628 4666 
z
" transform="scale(0.015625)"/>
      <path id="DejaVuSans-46" d="M 628 4666 
L 3309 4666 
L 3309 4134 
L 1259 4134 
L 1259 2759 
L 3109 2759 
L 3109 2228 
L 1259 2228 
L 1259 0 
L 628 0 
L 628 4666 
z
" transform="scale(0.015625)"/>
      <path id="DejaVuSans-31" d="M 794 531 
L 1825 531 
L 1825 4091 
L 703 3866 
L 703 4441 
L 1819 4666 
L 2450 4666 
L 2450 531 
L 3481 531 
L 3481 0 
L 794 0 
L 794 531 
z
" transform="scale(0.015625)"/>
     </defs>
     <use xlink:href="#DejaVuSans-41"/>
     <use xlink:href="#DejaVuSans-44" x="68.408203"/>
     <use xlink:href="#DejaVuSans-46" x="145.410156"/>
     <use xlink:href="#DejaVuSans-31" x="202.929688"/>
     <use xlink:href="#DejaVuSans-31" x="266.552734"/>
    </g>
    <!-- 135 -->
    <g style="opacity: 0.5" transform="translate(331.700095 200.90249)scale(0.0579 -0.0579)">
     <defs>
      <path id="DejaVuSans-33" d="M 2597 2516 
Q 3050 2419 3304 2112 
Q 3559 1806 3559 1356 
Q 3559 666 3084 287 
Q 2609 -91 1734 -91 
Q 1441 -91 1130 -33 
Q 819 25 488 141 
L 488 750 
Q 750 597 1062 519 
Q 1375 441 1716 441 
Q 2309 441 2620 675 
Q 2931 909 2931 1356 
Q 2931 1769 2642 2001 
Q 2353 2234 1838 2234 
L 1294 2234 
L 1294 2753 
L 1863 2753 
Q 2328 2753 2575 2939 
Q 2822 3125 2822 3475 
Q 2822 3834 2567 4026 
Q 2313 4219 1838 4219 
Q 1578 4219 1281 4162 
Q 984 4106 628 3988 
L 628 4550 
Q 988 4650 1302 4700 
Q 1616 4750 1894 4750 
Q 2613 4750 3031 4423 
Q 3450 4097 3450 3541 
Q 3450 3153 3228 2886 
Q 3006 2619 2597 2516 
z
" transform="scale(0.015625)"/>
      <path id="DejaVuSans-35" d="M 691 4666 
L 3169 4666 
L 3169 4134 
L 1269 4134 
L 1269 2991 
Q 1406 3038 1543 3061 
Q 1681 3084 1819 3084 
Q 2600 3084 3056 2656 
Q 3513 2228 3513 1497 
Q 3513 744 3044 326 
Q 2575 -91 1722 -91 
Q 1428 -91 1123 -41 
Q 819 9 494 109 
L 494 744 
Q 775 591 1075 516 
Q 1375 441 1709 441 
Q 2250 441 2565 725 
Q 2881 1009 2881 1497 
Q 2881 1984 2565 2268 
Q 2250 2553 1709 2553 
Q 1456 2553 1204 2497 
Q 953 2441 691 2322 
L 691 4666 
z
" transform="scale(0.015625)"/>
     </defs>
     <use xlink:href="#DejaVuSans-31"/>
     <use xlink:href="#DejaVuSans-33" x="63.623047"/>
     <use xlink:href="#DejaVuSans-35" x="127.246094"/>
    </g>
    <!-- GND -->
    <g style="opacity: 0.5" transform="translate(330.587782 207.386024)scale(0.0579 -0.0579)">
     <defs>
      <path id="DejaVuSans-47" d="M 3809 666 
L 3809 1919 
L 2778 1919 
L 2778 2438 
L 4434 2438 
L 4434 434 
Q 4069 175 3628 42 
Q 3188 -91 2688 -91 
Q 1594 -91 976 548 
Q 359 1188 359 2328 
Q 359 3472 976 4111 
Q 1594 4750 2688 4750 
Q 3144 4750 3555 4637 
Q 3966 4525 4313 4306 
L 4313 3634 
Q 3963 3931 3569 4081 
Q 3175 4231 2741 4231 
Q 1884 4231 1454 3753 
Q 1025 3275 1025 2328 
Q 1025 1384 1454 906 
Q 1884 428 2741 428 
Q 3075 428 3337 486 
Q 3600 544 3809 666 
z
" transform="scale(0.015625)"/>
      <path id="DejaVuSans-4e" d="M 628 4666 
L 1478 4666 
L 3547 763 
L 3547 4666 
L 4159 4666 
L 4159 0 
L 3309 0 
L 1241 3903 
L 1241 0 
L 628 0 
L 628 4666 
z
" transform="scale(0.015625)"/>
     </defs>
     <use xlink:href="#DejaVuSans-47"/>
     <use xlink:href="#DejaVuSans-4e" x="77.490234"/>
     <use xlink:href="#DejaVuSans-44" x="152.294922"/>
    </g>
   </g>
   <g id="text_2">
    <!-- DKA1 -->
    <g style="opacity: 0.5" transform="translate(265.477041 89.088676)scale(0.0579 -0.0579)">
     <defs>
      <path id="DejaVuSans-4b" d="M 628 4666 
L 1259 4666 
L 1259 2694 
L 3353 4666 
L 4166 4666 
L 1850 2491 
L 4331 0 
L 3500 0 
L 1259 2247 
L 1259 0 
L 628 0 
L 628 4666 
z
" transform="scale(0.015625)"/>
     </defs>
     <use xlink:href="#DejaVuSans-44"/>
     <use xlink:href="#DejaVuSans-4b" x="77.001953"/>
     <use xlink:href="#DejaVuSans-41" x="140.828125"/>
     <use xlink:href="#DejaVuSans-31" x="209.236328"/>
    </g>
    <!-- 145 -->
    <g style="opacity: 0.5" transform="translate(267.850489 95.57221)scale(0.0579 -0.0579)">
     <defs>
      <path id="DejaVuSans-34" d="M 2419 4116 
L 825 1625 
L 2419 1625 
L 2419 4116 
z
M 2253 4666 
L 3047 4666 
L 3047 1625 
L 3713 1625 
L 3713 1100 
L 3047 1100 
L 3047 0 
L 2419 0 
L 2419 1100 
L 313 1100 
L 313 1709 
L 2253 4666 
z
" transform="scale(0.015625)"/>
     </defs>
     <use xlink:href="#DejaVuSans-31"/>
     <use xlink:href="#DejaVuSans-34" x="63.623047"/>
     <use xlink:href="#DejaVuSans-35" x="127.246094"/>
    </g>
    <!-- GND -->
    <g style="opacity: 0.5" transform="translate(266.738176 102.055743)scale(0.0579 -0.0579)">
     <use xlink:href="#DejaVuSans-47"/>
     <use xlink:href="#DejaVuSans-4e" x="77.490234"/>
     <use xlink:href="#DejaVuSans-44" x="152.294922"/>
    </g>
   </g>
   <g id="text_3">
    <!-- EBBU_E_CTR MEDIUM -->
    <g style="opacity: 0.5" transform="translate(47.154941 126.74401)scale(0.0579 -0.0579)">
     <defs>
      <path id="DejaVuSans-45" d="M 628 4666 
L 3578 4666 
L 3578 4134 
L 1259 4134 
L 1259 2753 
L 3481 2753 
L 3481 2222 
L 1259 2222 
L 1259 531 
L 3634 531 
L 3634 0 
L 628 0 
L 628 4666 
z
" transform="scale(0.015625)"/>
      <path id="DejaVuSans-42" d="M 1259 2228 
L 1259 519 
L 2272 519 
Q 2781 519 3026 730 
Q 3272 941 3272 1375 
Q 3272 1813 3026 2020 
Q 2781 2228 2272 2228 
L 1259 2228 
z
M 1259 4147 
L 1259 2741 
L 2194 2741 
Q 2656 2741 2882 2914 
Q 3109 3088 3109 3444 
Q 3109 3797 2882 3972 
Q 2656 4147 2194 4147 
L 1259 4147 
z
M 628 4666 
L 2241 4666 
Q 2963 4666 3353 4366 
Q 3744 4066 3744 3513 
Q 3744 3084 3544 2831 
Q 3344 2578 2956 2516 
Q 3422 2416 3680 2098 
Q 3938 1781 3938 1306 
Q 3938 681 3513 340 
Q 3088 0 2303 0 
L 628 0 
L 628 4666 
z
" transform="scale(0.015625)"/>
      <path id="DejaVuSans-55" d="M 556 4666 
L 1191 4666 
L 1191 1831 
Q 1191 1081 1462 751 
Q 1734 422 2344 422 
Q 2950 422 3222 751 
Q 3494 1081 3494 1831 
L 3494 4666 
L 4128 4666 
L 4128 1753 
Q 4128 841 3676 375 
Q 3225 -91 2344 -91 
Q 1459 -91 1007 375 
Q 556 841 556 1753 
L 556 4666 
z
" transform="scale(0.015625)"/>
      <path id="DejaVuSans-5f" d="M 3263 -1063 
L 3263 -1509 
L -63 -1509 
L -63 -1063 
L 3263 -1063 
z
" transform="scale(0.015625)"/>
      <path id="DejaVuSans-43" d="M 4122 4306 
L 4122 3641 
Q 3803 3938 3442 4084 
Q 3081 4231 2675 4231 
Q 1875 4231 1450 3742 
Q 1025 3253 1025 2328 
Q 1025 1406 1450 917 
Q 1875 428 2675 428 
Q 3081 428 3442 575 
Q 3803 722 4122 1019 
L 4122 359 
Q 3791 134 3420 21 
Q 3050 -91 2638 -91 
Q 1578 -91 968 557 
Q 359 1206 359 2328 
Q 359 3453 968 4101 
Q 1578 4750 2638 4750 
Q 3056 4750 3426 4639 
Q 3797 4528 4122 4306 
z
" transform="scale(0.015625)"/>
      <path id="DejaVuSans-54" d="M -19 4666 
L 3928 4666 
L 3928 4134 
L 2272 4134 
L 2272 0 
L 1638 0 
L 1638 4134 
L -19 4134 
L -19 4666 
z
" transform="scale(0.015625)"/>
      <path id="DejaVuSans-52" d="M 2841 2188 
Q 3044 2119 3236 1894 
Q 3428 1669 3622 1275 
L 4263 0 
L 3584 0 
L 2988 1197 
Q 2756 1666 2539 1819 
Q 2322 1972 1947 1972 
L 1259 1972 
L 1259 0 
L 628 0 
L 628 4666 
L 2053 4666 
Q 2853 4666 3247 4331 
Q 3641 3997 3641 3322 
Q 3641 2881 3436 2590 
Q 3231 2300 2841 2188 
z
M 1259 4147 
L 1259 2491 
L 2053 2491 
Q 2509 2491 2742 2702 
Q 2975 2913 2975 3322 
Q 2975 3731 2742 3939 
Q 2509 4147 2053 4147 
L 1259 4147 
z
" transform="scale(0.015625)"/>
      <path id="DejaVuSans-20" transform="scale(0.015625)"/>
      <path id="DejaVuSans-4d" d="M 628 4666 
L 1569 4666 
L 2759 1491 
L 3956 4666 
L 4897 4666 
L 4897 0 
L 4281 0 
L 4281 4097 
L 3078 897 
L 2444 897 
L 1241 4097 
L 1241 0 
L 628 0 
L 628 4666 
z
" transform="scale(0.015625)"/>
      <path id="DejaVuSans-49" d="M 628 4666 
L 1259 4666 
L 1259 0 
L 628 0 
L 628 4666 
z
" transform="scale(0.015625)"/>
     </defs>
     <use xlink:href="#DejaVuSans-45"/>
     <use xlink:href="#DejaVuSans-42" x="63.183594"/>
     <use xlink:href="#DejaVuSans-42" x="131.787109"/>
     <use xlink:href="#DejaVuSans-55" x="200.390625"/>
     <use xlink:href="#DejaVuSans-5f" x="273.583984"/>
     <use xlink:href="#DejaVuSans-45" x="323.583984"/>
     <use xlink:href="#DejaVuSans-5f" x="386.767578"/>
     <use xlink:href="#DejaVuSans-43" x="436.767578"/>
     <use xlink:href="#DejaVuSans-54" x="506.591797"/>
     <use xlink:href="#DejaVuSans-52" x="567.675781"/>
     <use xlink:href="#DejaVuSans-20" x="637.158203"/>
     <use xlink:href="#DejaVuSans-4d" x="668.945312"/>
     <use xlink:href="#DejaVuSans-45" x="755.224609"/>
     <use xlink:href="#DejaVuSans-44" x="818.408203"/>
     <use xlink:href="#DejaVuSans-49" x="895.410156"/>
     <use xlink:href="#DejaVuSans-55" x="924.902344"/>
     <use xlink:href="#DejaVuSans-4d" x="998.095703"/>
    </g>
    <!-- 195 -->
    <g style="opacity: 0.5" transform="translate(73.022218 133.388578)scale(0.0579 -0.0579)">
     <defs>
      <path id="DejaVuSans-39" d="M 703 97 
L 703 672 
Q 941 559 1184 500 
Q 1428 441 1663 441 
Q 2288 441 2617 861 
Q 2947 1281 2994 2138 
Q 2813 1869 2534 1725 
Q 2256 1581 1919 1581 
Q 1219 1581 811 2004 
Q 403 2428 403 3163 
Q 403 3881 828 4315 
Q 1253 4750 1959 4750 
Q 2769 4750 3195 4129 
Q 3622 3509 3622 2328 
Q 3622 1225 3098 567 
Q 2575 -91 1691 -91 
Q 1453 -91 1209 -44 
Q 966 3 703 97 
z
M 1959 2075 
Q 2384 2075 2632 2365 
Q 2881 2656 2881 3163 
Q 2881 3666 2632 3958 
Q 2384 4250 1959 4250 
Q 1534 4250 1286 3958 
Q 1038 3666 1038 3163 
Q 1038 2656 1286 2365 
Q 1534 2075 1959 2075 
z
" transform="scale(0.015625)"/>
     </defs>
     <use xlink:href="#DejaVuSans-31"/>
     <use xlink:href="#DejaVuSans-39" x="63.623047"/>
     <use xlink:href="#DejaVuSans-35" x="127.246094"/>
    </g>
    <!-- 95 -->
    <g style="opacity: 0.5" transform="translate(74.864162 139.872112)scale(0.0579 -0.0579)">
     <use xlink:href="#DejaVuSans-39"/>
     <use xlink:href="#DejaVuSans-35" x="63.623047"/>
    </g>
   </g>
   <g id="text_4">
    <!-- EBBU_E_CTR UPPER -->
    <g style="opacity: 0.5" transform="translate(58.328444 144.911939)scale(0.0579 -0.0579)">
     <defs>
      <path id="DejaVuSans-50" d="M 1259 4147 
L 1259 2394 
L 2053 2394 
Q 2494 2394 2734 2622 
Q 2975 2850 2975 3272 
Q 2975 3691 2734 3919 
Q 2494 4147 2053 4147 
L 1259 4147 
z
M 628 4666 
L 2053 4666 
Q 2838 4666 3239 4311 
Q 3641 3956 3641 3272 
Q 3641 2581 3239 2228 
Q 2838 1875 2053 1875 
L 1259 1875 
L 1259 0 
L 628 0 
L 628 4666 
z
" transform="scale(0.015625)"/>
     </defs>
     <use xlink:href="#DejaVuSans-45"/>
     <use xlink:href="#DejaVuSans-42" x="63.183594"/>
     <use xlink:href="#DejaVuSans-42" x="131.787109"/>
     <use xlink:href="#DejaVuSans-55" x="200.390625"/>
     <use xlink:href="#DejaVuSans-5f" x="273.583984"/>
     <use xlink:href="#DejaVuSans-45" x="323.583984"/>
     <use xlink:href="#DejaVuSans-5f" x="386.767578"/>
     <use xlink:href="#DejaVuSans-43" x="436.767578"/>
     <use xlink:href="#DejaVuSans-54" x="506.591797"/>
     <use xlink:href="#DejaVuSans-52" x="567.675781"/>
     <use xlink:href="#DejaVuSans-20" x="637.158203"/>
     <use xlink:href="#DejaVuSans-55" x="668.945312"/>
     <use xlink:href="#DejaVuSans-50" x="742.138672"/>
     <use xlink:href="#DejaVuSans-50" x="802.441406"/>
     <use xlink:href="#DejaVuSans-45" x="862.744141"/>
     <use xlink:href="#DejaVuSans-52" x="925.927734"/>
    </g>
    <!-- 245 -->
    <g style="opacity: 0.5" transform="translate(81.619624 151.556507)scale(0.0579 -0.0579)">
     <defs>
      <path id="DejaVuSans-32" d="M 1228 531 
L 3431 531 
L 3431 0 
L 469 0 
L 469 531 
Q 828 903 1448 1529 
Q 2069 2156 2228 2338 
Q 2531 2678 2651 2914 
Q 2772 3150 2772 3378 
Q 2772 3750 2511 3984 
Q 2250 4219 1831 4219 
Q 1534 4219 1204 4116 
Q 875 4013 500 3803 
L 500 4441 
Q 881 4594 1212 4672 
Q 1544 4750 1819 4750 
Q 2544 4750 2975 4387 
Q 3406 4025 3406 3419 
Q 3406 3131 3298 2873 
Q 3191 2616 2906 2266 
Q 2828 2175 2409 1742 
Q 1991 1309 1228 531 
z
" transform="scale(0.015625)"/>
     </defs>
     <use xlink:href="#DejaVuSans-32"/>
     <use xlink:href="#DejaVuSans-34" x="63.623047"/>
     <use xlink:href="#DejaVuSans-35" x="127.246094"/>
    </g>
    <!-- 195 -->
    <g style="opacity: 0.5" transform="translate(81.619624 158.04004)scale(0.0579 -0.0579)">
     <use xlink:href="#DejaVuSans-31"/>
     <use xlink:href="#DejaVuSans-39" x="63.623047"/>
     <use xlink:href="#DejaVuSans-35" x="127.246094"/>
    </g>
   </g>
   <g id="text_5">
    <!-- EIF1 -->
    <g style="opacity: 0.5" transform="translate(190.790194 198.889292)scale(0.0579 -0.0579)">
     <use xlink:href="#DejaVuSans-45"/>
     <use xlink:href="#DejaVuSans-49" x="63.183594"/>
     <use xlink:href="#DejaVuSans-46" x="92.675781"/>
     <use xlink:href="#DejaVuSans-31" x="150.195312"/>
    </g>
    <!-- 165 -->
    <g style="opacity: 0.5" transform="translate(191.454687 205.372825)scale(0.0579 -0.0579)">
     <defs>
      <path id="DejaVuSans-36" d="M 2113 2584 
Q 1688 2584 1439 2293 
Q 1191 2003 1191 1497 
Q 1191 994 1439 701 
Q 1688 409 2113 409 
Q 2538 409 2786 701 
Q 3034 994 3034 1497 
Q 3034 2003 2786 2293 
Q 2538 2584 2113 2584 
z
M 3366 4563 
L 3366 3988 
Q 3128 4100 2886 4159 
Q 2644 4219 2406 4219 
Q 1781 4219 1451 3797 
Q 1122 3375 1075 2522 
Q 1259 2794 1537 2939 
Q 1816 3084 2150 3084 
Q 2853 3084 3261 2657 
Q 3669 2231 3669 1497 
Q 3669 778 3244 343 
Q 2819 -91 2113 -91 
Q 1303 -91 875 529 
Q 447 1150 447 2328 
Q 447 3434 972 4092 
Q 1497 4750 2381 4750 
Q 2619 4750 2861 4703 
Q 3103 4656 3366 4563 
z
" transform="scale(0.015625)"/>
     </defs>
     <use xlink:href="#DejaVuSans-31"/>
     <use xlink:href="#DejaVuSans-36" x="63.623047"/>
     <use xlink:href="#DejaVuSans-35" x="127.246094"/>
    </g>
    <!-- GND -->
    <g style="opacity: 0.5" transform="translate(190.342374 211.856359)scale(0.0579 -0.0579)">
     <use xlink:href="#DejaVuSans-47"/>
     <use xlink:href="#DejaVuSans-4e" x="77.490234"/>
     <use xlink:href="#DejaVuSans-44" x="152.294922"/>
    </g>
   </g>
   <g id="text_6">
    <!-- EIF2 -->
    <g style="opacity: 0.5" transform="translate(249.708223 197.375724)scale(0.0579 -0.0579)">
     <use xlink:href="#DejaVuSans-45"/>
     <use xlink:href="#DejaVuSans-49" x="63.183594"/>
     <use xlink:href="#DejaVuSans-46" x="92.675781"/>
     <use xlink:href="#DejaVuSans-32" x="150.195312"/>
    </g>
    <!-- 105 -->
    <g style="opacity: 0.5" transform="translate(250.372716 203.859257)scale(0.0579 -0.0579)">
     <defs>
      <path id="DejaVuSans-30" d="M 2034 4250 
Q 1547 4250 1301 3770 
Q 1056 3291 1056 2328 
Q 1056 1369 1301 889 
Q 1547 409 2034 409 
Q 2525 409 2770 889 
Q 3016 1369 3016 2328 
Q 3016 3291 2770 3770 
Q 2525 4250 2034 4250 
z
M 2034 4750 
Q 2819 4750 3233 4129 
Q 3647 3509 3647 2328 
Q 3647 1150 3233 529 
Q 2819 -91 2034 -91 
Q 1250 -91 836 529 
Q 422 1150 422 2328 
Q 422 3509 836 4129 
Q 1250 4750 2034 4750 
z
" transform="scale(0.015625)"/>
     </defs>
     <use xlink:href="#DejaVuSans-31"/>
     <use xlink:href="#DejaVuSans-30" x="63.623047"/>
     <use xlink:href="#DejaVuSans-35" x="127.246094"/>
    </g>
    <!-- GND -->
    <g style="opacity: 0.5" transform="translate(249.260402 210.34279)scale(0.0579 -0.0579)">
     <use xlink:href="#DejaVuSans-47"/>
     <use xlink:href="#DejaVuSans-4e" x="77.490234"/>
     <use xlink:href="#DejaVuSans-44" x="152.294922"/>
    </g>
   </g>
   <g id="text_7">
    <!-- KIR1 -->
    <g style="opacity: 0.5" transform="translate(277.109413 225.443275)scale(0.0579 -0.0579)">
     <use xlink:href="#DejaVuSans-4b"/>
     <use xlink:href="#DejaVuSans-49" x="65.576172"/>
     <use xlink:href="#DejaVuSans-52" x="95.068359"/>
     <use xlink:href="#DejaVuSans-31" x="164.550781"/>
    </g>
    <!-- 245 -->
    <g style="opacity: 0.5" transform="translate(278.18961 231.926809)scale(0.0579 -0.0579)">
     <use xlink:href="#DejaVuSans-32"/>
     <use xlink:href="#DejaVuSans-34" x="63.623047"/>
     <use xlink:href="#DejaVuSans-35" x="127.246094"/>
    </g>
    <!-- 105 -->
    <g style="opacity: 0.5" transform="translate(278.18961 238.410342)scale(0.0579 -0.0579)">
     <use xlink:href="#DejaVuSans-31"/>
     <use xlink:href="#DejaVuSans-30" x="63.623047"/>
     <use xlink:href="#DejaVuSans-35" x="127.246094"/>
    </g>
   </g>
   <g id="text_8">
    <!-- KIR2 -->
    <g style="opacity: 0.5" transform="translate(324.222381 226.212946)scale(0.0579 -0.0579)">
     <use xlink:href="#DejaVuSans-4b"/>
     <use xlink:href="#DejaVuSans-49" x="65.576172"/>
     <use xlink:href="#DejaVuSans-52" x="95.068359"/>
     <use xlink:href="#DejaVuSans-32" x="164.550781"/>
    </g>
    <!-- 245 -->
    <g style="opacity: 0.5" transform="translate(325.302578 232.696479)scale(0.0579 -0.0579)">
     <use xlink:href="#DejaVuSans-32"/>
     <use xlink:href="#DejaVuSans-34" x="63.623047"/>
     <use xlink:href="#DejaVuSans-35" x="127.246094"/>
    </g>
    <!-- 135 -->
    <g style="opacity: 0.5" transform="translate(325.302578 239.180012)scale(0.0579 -0.0579)">
     <use xlink:href="#DejaVuSans-31"/>
     <use xlink:href="#DejaVuSans-33" x="63.623047"/>
     <use xlink:href="#DejaVuSans-35" x="127.246094"/>
    </g>
   </g>
   <g id="text_9">
    <!-- KIR3 -->
    <g style="opacity: 0.5" transform="translate(189.888059 226.280525)scale(0.0579 -0.0579)">
     <use xlink:href="#DejaVuSans-4b"/>
     <use xlink:href="#DejaVuSans-49" x="65.576172"/>
     <use xlink:href="#DejaVuSans-52" x="95.068359"/>
     <use xlink:href="#DejaVuSans-33" x="164.550781"/>
    </g>
    <!-- 245 -->
    <g style="opacity: 0.5" transform="translate(190.968256 232.764058)scale(0.0579 -0.0579)">
     <use xlink:href="#DejaVuSans-32"/>
     <use xlink:href="#DejaVuSans-34" x="63.623047"/>
     <use xlink:href="#DejaVuSans-35" x="127.246094"/>
    </g>
    <!-- 165 -->
    <g style="opacity: 0.5" transform="translate(190.968256 239.247592)scale(0.0579 -0.0579)">
     <use xlink:href="#DejaVuSans-31"/>
     <use xlink:href="#DejaVuSans-36" x="63.623047"/>
     <use xlink:href="#DejaVuSans-35" x="127.246094"/>
    </g>
   </g>
   <g id="text_10">
    <!-- KIR4 -->
    <g style="opacity: 0.5" transform="translate(299.249564 193.614609)scale(0.0579 -0.0579)">
     <use xlink:href="#DejaVuSans-4b"/>
     <use xlink:href="#DejaVuSans-49" x="65.576172"/>
     <use xlink:href="#DejaVuSans-52" x="95.068359"/>
     <use xlink:href="#DejaVuSans-34" x="164.550781"/>
    </g>
    <!-- 245 -->
    <g style="opacity: 0.5" transform="translate(300.329761 200.098142)scale(0.0579 -0.0579)">
     <use xlink:href="#DejaVuSans-32"/>
     <use xlink:href="#DejaVuSans-34" x="63.623047"/>
     <use xlink:href="#DejaVuSans-35" x="127.246094"/>
    </g>
    <!-- 165 -->
    <g style="opacity: 0.5" transform="translate(300.329761 206.581676)scale(0.0579 -0.0579)">
     <use xlink:href="#DejaVuSans-31"/>
     <use xlink:href="#DejaVuSans-36" x="63.623047"/>
     <use xlink:href="#DejaVuSans-35" x="127.246094"/>
    </g>
   </g>
   <g id="text_11">
    <!-- NOR3 -->
    <g style="opacity: 0.5" transform="translate(238.979215 96.283968)scale(0.0579 -0.0579)">
     <defs>
      <path id="DejaVuSans-4f" d="M 2522 4238 
Q 1834 4238 1429 3725 
Q 1025 3213 1025 2328 
Q 1025 1447 1429 934 
Q 1834 422 2522 422 
Q 3209 422 3611 934 
Q 4013 1447 4013 2328 
Q 4013 3213 3611 3725 
Q 3209 4238 2522 4238 
z
M 2522 4750 
Q 3503 4750 4090 4092 
Q 4678 3434 4678 2328 
Q 4678 1225 4090 567 
Q 3503 -91 2522 -91 
Q 1538 -91 948 565 
Q 359 1222 359 2328 
Q 359 3434 948 4092 
Q 1538 4750 2522 4750 
z
" transform="scale(0.015625)"/>
     </defs>
     <use xlink:href="#DejaVuSans-4e"/>
     <use xlink:href="#DejaVuSans-4f" x="74.804688"/>
     <use xlink:href="#DejaVuSans-52" x="153.515625"/>
     <use xlink:href="#DejaVuSans-33" x="222.998047"/>
    </g>
    <!-- 245 -->
    <g style="opacity: 0.5" transform="translate(241.75163 102.767501)scale(0.0579 -0.0579)">
     <use xlink:href="#DejaVuSans-32"/>
     <use xlink:href="#DejaVuSans-34" x="63.623047"/>
     <use xlink:href="#DejaVuSans-35" x="127.246094"/>
    </g>
    <!-- 145 -->
    <g style="opacity: 0.5" transform="translate(241.75163 109.251035)scale(0.0579 -0.0579)">
     <use xlink:href="#DejaVuSans-31"/>
     <use xlink:href="#DejaVuSans-34" x="63.623047"/>
     <use xlink:href="#DejaVuSans-35" x="127.246094"/>
    </g>
   </g>
   <g id="text_12">
    <!-- NOR4 -->
    <g style="opacity: 0.5" transform="translate(267.847816 139.265367)scale(0.0579 -0.0579)">
     <use xlink:href="#DejaVuSans-4e"/>
     <use xlink:href="#DejaVuSans-4f" x="74.804688"/>
     <use xlink:href="#DejaVuSans-52" x="153.515625"/>
     <use xlink:href="#DejaVuSans-34" x="222.998047"/>
    </g>
    <!-- 245 -->
    <g style="opacity: 0.5" transform="translate(270.620231 145.748901)scale(0.0579 -0.0579)">
     <use xlink:href="#DejaVuSans-32"/>
     <use xlink:href="#DejaVuSans-34" x="63.623047"/>
     <use xlink:href="#DejaVuSans-35" x="127.246094"/>
    </g>
    <!-- 205 -->
    <g style="opacity: 0.5" transform="translate(270.620231 152.232434)scale(0.0579 -0.0579)">
     <use xlink:href="#DejaVuSans-32"/>
     <use xlink:href="#DejaVuSans-30" x="63.623047"/>
     <use xlink:href="#DejaVuSans-35" x="127.246094"/>
    </g>
   </g>
   <g id="text_13">
    <!-- NOR5 -->
    <g style="opacity: 0.5" transform="translate(247.221475 133.888449)scale(0.0579 -0.0579)">
     <use xlink:href="#DejaVuSans-4e"/>
     <use xlink:href="#DejaVuSans-4f" x="74.804688"/>
     <use xlink:href="#DejaVuSans-52" x="153.515625"/>
     <use xlink:href="#DejaVuSans-35" x="222.998047"/>
    </g>
    <!-- 265 -->
    <g style="opacity: 0.5" transform="translate(249.993889 140.371982)scale(0.0579 -0.0579)">
     <use xlink:href="#DejaVuSans-32"/>
     <use xlink:href="#DejaVuSans-36" x="63.623047"/>
     <use xlink:href="#DejaVuSans-35" x="127.246094"/>
    </g>
    <!-- 245 -->
    <g style="opacity: 0.5" transform="translate(249.993889 146.855516)scale(0.0579 -0.0579)">
     <use xlink:href="#DejaVuSans-32"/>
     <use xlink:href="#DejaVuSans-34" x="63.623047"/>
     <use xlink:href="#DejaVuSans-35" x="127.246094"/>
    </g>
   </g>
   <g id="text_14">
    <!-- NOR6 -->
    <g style="opacity: 0.5" transform="translate(177.018492 125.428871)scale(0.0579 -0.0579)">
     <use xlink:href="#DejaVuSans-4e"/>
     <use xlink:href="#DejaVuSans-4f" x="74.804688"/>
     <use xlink:href="#DejaVuSans-52" x="153.515625"/>
     <use xlink:href="#DejaVuSans-36" x="222.998047"/>
    </g>
    <!-- 245 -->
    <g style="opacity: 0.5" transform="translate(179.790907 131.912405)scale(0.0579 -0.0579)">
     <use xlink:href="#DejaVuSans-32"/>
     <use xlink:href="#DejaVuSans-34" x="63.623047"/>
     <use xlink:href="#DejaVuSans-35" x="127.246094"/>
    </g>
    <!-- 195 -->
    <g style="opacity: 0.5" transform="translate(179.790907 138.395938)scale(0.0579 -0.0579)">
     <use xlink:href="#DejaVuSans-31"/>
     <use xlink:href="#DejaVuSans-39" x="63.623047"/>
     <use xlink:href="#DejaVuSans-35" x="127.246094"/>
    </g>
   </g>
   <g id="text_15">
    <!-- TAU1 -->
    <g style="opacity: 0.5" transform="translate(314.426588 145.004682)scale(0.0579 -0.0579)">
     <use xlink:href="#DejaVuSans-54"/>
     <use xlink:href="#DejaVuSans-41" x="53.333984"/>
     <use xlink:href="#DejaVuSans-55" x="121.742188"/>
     <use xlink:href="#DejaVuSans-31" x="194.935547"/>
    </g>
    <!-- 245 -->
    <g style="opacity: 0.5" transform="translate(316.385689 151.488215)scale(0.0579 -0.0579)">
     <use xlink:href="#DejaVuSans-32"/>
     <use xlink:href="#DejaVuSans-34" x="63.623047"/>
     <use xlink:href="#DejaVuSans-35" x="127.246094"/>
    </g>
    <!-- GND -->
    <g style="opacity: 0.5" transform="translate(315.273375 157.971748)scale(0.0579 -0.0579)">
     <use xlink:href="#DejaVuSans-47"/>
     <use xlink:href="#DejaVuSans-4e" x="77.490234"/>
     <use xlink:href="#DejaVuSans-44" x="152.294922"/>
    </g>
   </g>
   <g id="text_16">
    <!-- TAU5 -->
    <g style="opacity: 0.5" transform="translate(333.298693 176.929788)scale(0.0579 -0.0579)">
     <use xlink:href="#DejaVuSans-54"/>
     <use xlink:href="#DejaVuSans-41" x="53.333984"/>
     <use xlink:href="#DejaVuSans-55" x="121.742188"/>
     <use xlink:href="#DejaVuSans-35" x="194.935547"/>
    </g>
    <!-- 245 -->
    <g style="opacity: 0.5" transform="translate(335.257794 183.413321)scale(0.0579 -0.0579)">
     <use xlink:href="#DejaVuSans-32"/>
     <use xlink:href="#DejaVuSans-34" x="63.623047"/>
     <use xlink:href="#DejaVuSans-35" x="127.246094"/>
    </g>
    <!-- 135 -->
    <g style="opacity: 0.5" transform="translate(335.257794 189.896855)scale(0.0579 -0.0579)">
     <use xlink:href="#DejaVuSans-31"/>
     <use xlink:href="#DejaVuSans-33" x="63.623047"/>
     <use xlink:href="#DejaVuSans-35" x="127.246094"/>
    </g>
   </g>
   <g id="text_17">
    <!-- TAU6 -->
    <g style="opacity: 0.5" transform="translate(277.57395 139.265367)scale(0.0579 -0.0579)">
     <use xlink:href="#DejaVuSans-54"/>
     <use xlink:href="#DejaVuSans-41" x="53.333984"/>
     <use xlink:href="#DejaVuSans-55" x="121.742188"/>
     <use xlink:href="#DejaVuSans-36" x="194.935547"/>
    </g>
    <!-- 205 -->
    <g style="opacity: 0.5" transform="translate(279.53305 145.748901)scale(0.0579 -0.0579)">
     <use xlink:href="#DejaVuSans-32"/>
     <use xlink:href="#DejaVuSans-30" x="63.623047"/>
     <use xlink:href="#DejaVuSans-35" x="127.246094"/>
    </g>
    <!-- GND -->
    <g style="opacity: 0.5" transform="translate(278.420737 152.232434)scale(0.0579 -0.0579)">
     <use xlink:href="#DejaVuSans-47"/>
     <use xlink:href="#DejaVuSans-4e" x="77.490234"/>
     <use xlink:href="#DejaVuSans-44" x="152.294922"/>
    </g>
   </g>
   <g id="text_18">
    <!-- RUD1 -->
    <g transform="translate(247.324287 169.678939)scale(0.0579 -0.0579)">
     <use xlink:href="#DejaVuSans-52"/>
     <use xlink:href="#DejaVuSans-55" x="69.482422"/>
     <use xlink:href="#DejaVuSans-44" x="142.675781"/>
     <use xlink:href="#DejaVuSans-31" x="219.677734"/>
    </g>
    <!-- 245 -->
    <g transform="translate(249.9999 176.162473)scale(0.0579 -0.0579)">
     <use xlink:href="#DejaVuSans-32"/>
     <use xlink:href="#DejaVuSans-34" x="63.623047"/>
     <use xlink:href="#DejaVuSans-35" x="127.246094"/>
    </g>
    <!-- 105 -->
    <g transform="translate(249.9999 182.646006)scale(0.0579 -0.0579)">
     <use xlink:href="#DejaVuSans-31"/>
     <use xlink:href="#DejaVuSans-30" x="63.623047"/>
     <use xlink:href="#DejaVuSans-35" x="127.246094"/>
    </g>
   </g>
   <g id="text_19">
    <!-- RUD2 -->
    <g transform="translate(258.071407 138.699042)scale(0.0579 -0.0579)">
     <use xlink:href="#DejaVuSans-52"/>
     <use xlink:href="#DejaVuSans-55" x="69.482422"/>
     <use xlink:href="#DejaVuSans-44" x="142.675781"/>
     <use xlink:href="#DejaVuSans-32" x="219.677734"/>
    </g>
    <!-- 205 -->
    <g transform="translate(260.747021 145.182575)scale(0.0579 -0.0579)">
     <use xlink:href="#DejaVuSans-32"/>
     <use xlink:href="#DejaVuSans-30" x="63.623047"/>
     <use xlink:href="#DejaVuSans-35" x="127.246094"/>
    </g>
    <!-- 105 -->
    <g transform="translate(260.747021 151.666109)scale(0.0579 -0.0579)">
     <use xlink:href="#DejaVuSans-31"/>
     <use xlink:href="#DejaVuSans-30" x="63.623047"/>
     <use xlink:href="#DejaVuSans-35" x="127.246094"/>
    </g>
   </g>
   <g id="text_20">
    <!-- RUD3 -->
    <g transform="translate(297.654148 193.614609)scale(0.0579 -0.0579)">
     <use xlink:href="#DejaVuSans-52"/>
     <use xlink:href="#DejaVuSans-55" x="69.482422"/>
     <use xlink:href="#DejaVuSans-44" x="142.675781"/>
     <use xlink:href="#DejaVuSans-33" x="219.677734"/>
    </g>
    <!-- 165 -->
    <g transform="translate(300.329761 200.098142)scale(0.0579 -0.0579)">
     <use xlink:href="#DejaVuSans-31"/>
     <use xlink:href="#DejaVuSans-36" x="63.623047"/>
     <use xlink:href="#DejaVuSans-35" x="127.246094"/>
    </g>
    <!-- 135 -->
    <g transform="translate(300.329761 206.581676)scale(0.0579 -0.0579)">
     <use xlink:href="#DejaVuSans-31"/>
     <use xlink:href="#DejaVuSans-33" x="63.623047"/>
     <use xlink:href="#DejaVuSans-35" x="127.246094"/>
    </g>
   </g>
   <g id="text_21">
    <!-- RUD4 -->
    <g transform="translate(204.61429 153.693358)scale(0.0579 -0.0579)">
     <use xlink:href="#DejaVuSans-52"/>
     <use xlink:href="#DejaVuSans-55" x="69.482422"/>
     <use xlink:href="#DejaVuSans-44" x="142.675781"/>
     <use xlink:href="#DejaVuSans-34" x="219.677734"/>
    </g>
    <!-- 265 -->
    <g transform="translate(207.289903 160.176891)scale(0.0579 -0.0579)">
     <use xlink:href="#DejaVuSans-32"/>
     <use xlink:href="#DejaVuSans-36" x="63.623047"/>
     <use xlink:href="#DejaVuSans-35" x="127.246094"/>
    </g>
    <!-- 245 -->
    <g transform="translate(207.289903 166.660425)scale(0.0579 -0.0579)">
     <use xlink:href="#DejaVuSans-32"/>
     <use xlink:href="#DejaVuSans-34" x="63.623047"/>
     <use xlink:href="#DejaVuSans-35" x="127.246094"/>
    </g>
   </g>
   <g id="text_22">
    <!-- RUD5 -->
    <g transform="translate(182.600479 162.397453)scale(0.0579 -0.0579)">
     <use xlink:href="#DejaVuSans-52"/>
     <use xlink:href="#DejaVuSans-55" x="69.482422"/>
     <use xlink:href="#DejaVuSans-44" x="142.675781"/>
     <use xlink:href="#DejaVuSans-35" x="219.677734"/>
    </g>
    <!-- 245 -->
    <g transform="translate(185.276092 168.880987)scale(0.0579 -0.0579)">
     <use xlink:href="#DejaVuSans-32"/>
     <use xlink:href="#DejaVuSans-34" x="63.623047"/>
     <use xlink:href="#DejaVuSans-35" x="127.246094"/>
    </g>
    <!-- 165 -->
    <g transform="translate(185.276092 175.36452)scale(0.0579 -0.0579)">
     <use xlink:href="#DejaVuSans-31"/>
     <use xlink:href="#DejaVuSans-36" x="63.623047"/>
     <use xlink:href="#DejaVuSans-35" x="127.246094"/>
    </g>
   </g>
  </g>
 </g>
 <defs>
  <clipPath id="p947cae2002">
   <rect x="57.6" y="97.224368" width="357.12" height="154.607265"/>
  </clipPath>
 </defs>
</svg>
