<?xml version="1.0" encoding="utf-8" standalone="no"?>
<!DOCTYPE svg PUBLIC "-//W3C//DTD SVG 1.1//EN"
  "http://www.w3.org/Graphics/SVG/1.1/DTD/svg11.dtd">
<svg xmlns:xlink="http://www.w3.org/1999/xlink" width="460.8pt" height="345.6pt" viewBox="0 0 460.8 345.6" xmlns="http://www.w3.org/2000/svg" version="1.1">
 <metadata>
  <rdf:RDF xmlns:dc="http://purl.org/dc/elements/1.1/" xmlns:cc="http://creativecommons.org/ns#" xmlns:rdf="http://www.w3.org/1999/02/22-rdf-syntax-ns#">
   <cc:Work>
    <dc:type rdf:resource="http://purl.org/dc/dcmitype/StillImage"/>
    <dc:date>2022-04-24T22:21:59.950268</dc:date>
    <dc:format>image/svg+xml</dc:format>
    <dc:creator>
     <cc:Agent>
      <dc:title>Matplotlib v3.5.0, https://matplotlib.org/</dc:title>
     </cc:Agent>
    </dc:creator>
   </cc:Work>
  </rdf:RDF>
 </metadata>
 <defs>
  <style type="text/css">*{stroke-linejoin: round; stroke-linecap: butt}</style>
 </defs>
 <g id="figure_1">
  <g id="patch_1">
   <path d="M 0 345.6 
L 460.8 345.6 
L 460.8 0 
L 0 0 
z
" style="fill: #ffffff"/>
  </g>
  <g id="axes_1">
   <g id="patch_2">
    <path d="M 251.471084 139.133551 
L 255.608628 144.63365 
L 266.826892 165.170994 
L 259.718724 189.896606 
L 251.658086 190.26949 
L 247.166711 182.96178 
L 231.30436 157.07266 
L 226.611551 150.083166 
L 238.747543 144.722965 
z
" clip-path="url(#p1ca1de540d)" style="fill: #ffedd9; stroke: #ffedd9; stroke-linejoin: miter"/>
   </g>
   <g id="patch_3">
    <path d="M 231.30436 157.07266 
L 247.166711 182.96178 
L 234.213155 189.343844 
L 216.480751 166.157533 
z
" clip-path="url(#p1ca1de540d)" style="fill: #ffedd9; stroke: #ffedd9; stroke-linejoin: miter"/>
   </g>
   <g id="patch_4">
    <path d="M 251.471084 139.133551 
L 238.747543 144.722965 
L 233.699956 140.448949 
z
" clip-path="url(#p1ca1de540d)" style="fill: #ffedd9; stroke: #ffedd9; stroke-linejoin: miter"/>
   </g>
   <g id="patch_5">
    <path d="M 215.562594 114.048 
L 229.902882 134.89931 
L 233.699956 140.448949 
L 238.747543 144.722965 
L 226.611551 150.083166 
L 231.30436 157.07266 
L 216.480751 166.157533 
L 194.419606 122.187326 
L 179.798474 116.32666 
L 191.875976 115.782984 
L 210.837403 114.938176 
z
" clip-path="url(#p1ca1de540d)" style="fill: #ffedd9; stroke: #ffedd9; stroke-linejoin: miter"/>
   </g>
   <g id="patch_6">
    <path d="M 266.826892 165.170994 
L 283.342808 195.47097 
L 285.023196 201.742342 
L 292.521526 229.958529 
L 288.921988 234.010872 
L 279.154949 235.008 
L 262.937071 208.606784 
L 257.127294 199.14074 
L 251.658086 190.26949 
L 259.718724 189.896606 
z
" clip-path="url(#p1ca1de540d)" style="fill: #ffedd9; stroke: #ffedd9; stroke-linejoin: miter"/>
   </g>
   <g id="patch_7">
    <path d="M 231.30436 157.07266 
L 247.166711 182.96178 
L 234.213155 189.343844 
L 216.480751 166.157533 
z
" clip-path="url(#p1ca1de540d)" style="fill: #ffedd9; stroke: #ffedd9; stroke-linejoin: miter"/>
   </g>
   <g id="patch_8">
    <path d="M 251.471084 139.133551 
L 255.608628 144.63365 
L 266.826892 165.170994 
L 259.718724 189.896606 
L 251.658086 190.26949 
L 247.166711 182.96178 
L 231.30436 157.07266 
L 226.611551 150.083166 
L 238.747543 144.722965 
L 251.471084 139.133551 
z
" clip-path="url(#p1ca1de540d)" style="fill: #ffedd9; stroke: #ffedd9; stroke-linejoin: miter"/>
   </g>
   <g id="patch_9">
    <path d="M 231.30436 157.07266 
L 247.166711 182.96178 
L 234.213155 189.343844 
L 216.480751 166.157533 
L 231.30436 157.07266 
z
" clip-path="url(#p1ca1de540d)" style="fill: #ffedd9; stroke: #ffedd9; stroke-linejoin: miter"/>
   </g>
   <g id="patch_10">
    <path d="M 251.471084 139.133551 
L 238.747543 144.722965 
L 233.699956 140.448949 
L 251.471084 139.133551 
z
" clip-path="url(#p1ca1de540d)" style="fill: #ffedd9; stroke: #ffedd9; stroke-linejoin: miter"/>
   </g>
   <g id="patch_11">
    <path d="M 215.562594 114.048 
L 229.902882 134.89931 
L 233.699956 140.448949 
L 238.747543 144.722965 
L 226.611551 150.083166 
L 231.30436 157.07266 
L 216.480751 166.157533 
L 194.419606 122.187326 
L 179.798474 116.32666 
L 191.875976 115.782984 
L 210.837403 114.938176 
L 215.562594 114.048 
z
" clip-path="url(#p1ca1de540d)" style="fill: #ffedd9; stroke: #ffedd9; stroke-linejoin: miter"/>
   </g>
   <g id="patch_12">
    <path d="M 266.826892 165.170994 
L 283.342808 195.47097 
L 285.023196 201.742342 
L 292.521526 229.958529 
L 288.921988 234.010872 
L 279.154949 235.008 
L 262.937071 208.606784 
L 257.127294 199.14074 
L 251.658086 190.26949 
L 259.718724 189.896606 
L 266.826892 165.170994 
z
" clip-path="url(#p1ca1de540d)" style="fill: #ffedd9; stroke: #ffedd9; stroke-linejoin: miter"/>
   </g>
   <g id="patch_13">
    <path d="M 231.30436 157.07266 
L 247.166711 182.96178 
L 234.213155 189.343844 
L 216.480751 166.157533 
L 231.30436 157.07266 
z
" clip-path="url(#p1ca1de540d)" style="fill: #ffedd9; stroke: #ffedd9; stroke-linejoin: miter"/>
   </g>
   <g id="line2d_1">
    <path d="M 251.471084 139.133551 
L 255.608628 144.63365 
L 266.826892 165.170994 
L 259.718724 189.896606 
L 251.658086 190.26949 
L 247.166711 182.96178 
L 231.30436 157.07266 
L 226.611551 150.083166 
L 238.747543 144.722965 
L 251.471084 139.133551 
" clip-path="url(#p1ca1de540d)" style="fill: none; stroke: #ffc380; stroke-width: 0.5; stroke-linecap: square"/>
   </g>
   <g id="line2d_2">
    <path d="M 231.30436 157.07266 
L 247.166711 182.96178 
L 234.213155 189.343844 
L 216.480751 166.157533 
L 231.30436 157.07266 
" clip-path="url(#p1ca1de540d)" style="fill: none; stroke: #ffc380; stroke-width: 0.5; stroke-linecap: square"/>
   </g>
   <g id="line2d_3">
    <path d="M 251.471084 139.133551 
L 238.747543 144.722965 
L 233.699956 140.448949 
L 251.471084 139.133551 
" clip-path="url(#p1ca1de540d)" style="fill: none; stroke: #ffc380; stroke-width: 0.5; stroke-linecap: square"/>
   </g>
   <g id="line2d_4">
    <path d="M 215.562594 114.048 
L 229.902882 134.89931 
L 233.699956 140.448949 
L 238.747543 144.722965 
L 226.611551 150.083166 
L 231.30436 157.07266 
L 216.480751 166.157533 
L 194.419606 122.187326 
L 179.798474 116.32666 
L 191.875976 115.782984 
L 210.837403 114.938176 
L 215.562594 114.048 
" clip-path="url(#p1ca1de540d)" style="fill: none; stroke: #ffc380; stroke-width: 0.5; stroke-linecap: square"/>
   </g>
   <g id="line2d_5">
    <path d="M 266.826892 165.170994 
L 283.342808 195.47097 
L 285.023196 201.742342 
L 292.521526 229.958529 
L 288.921988 234.010872 
L 279.154949 235.008 
L 262.937071 208.606784 
L 257.127294 199.14074 
L 251.658086 190.26949 
L 259.718724 189.896606 
L 266.826892 165.170994 
" clip-path="url(#p1ca1de540d)" style="fill: none; stroke: #ffc380; stroke-width: 0.5; stroke-linecap: square"/>
   </g>
   <g id="line2d_6">
    <path d="M 231.30436 157.07266 
L 247.166711 182.96178 
L 234.213155 189.343844 
L 216.480751 166.157533 
L 231.30436 157.07266 
" clip-path="url(#p1ca1de540d)" style="fill: none; stroke: #ffc380; stroke-width: 0.5; stroke-linecap: square"/>
   </g>
   <g id="line2d_7">
    <path d="M 215.562594 114.048 
L 229.902882 134.89931 
L 233.699956 140.448949 
L 238.747543 144.722965 
L 226.611551 150.083166 
L 231.30436 157.07266 
L 216.480751 166.157533 
L 207.202356 171.849322 
L 206.840991 172.082068 
L 196.374284 178.019165 
L 185.714937 184.036042 
L 187.641445 188.030091 
L 171.244373 188.08983 
L 145.634179 188.277129 
L 144.15593 184.676486 
L 141.737249 178.786643 
L 134.794886 161.95159 
L 160.070478 141.341088 
L 151.968224 132.172294 
L 160.848838 125.730041 
L 173.349123 116.601458 
L 179.798474 116.32666 
L 191.875976 115.782984 
L 210.837403 114.938176 
L 215.562594 114.048 
" clip-path="url(#p1ca1de540d)" style="fill: none; stroke: #8f8f8f; stroke-width: 0.2; stroke-linecap: square"/>
   </g>
   <g id="line2d_8">
    <path d="M 187.16397 91.467115 
L 215.562594 114.048 
L 210.837403 114.938176 
L 191.875976 115.782984 
L 179.798474 116.32666 
L 173.349123 116.601458 
L 151.15791 117.610549 
L 160.929139 110.3444 
L 164.274345 107.665993 
L 167.610349 105.537437 
L 187.16397 91.467115 
" clip-path="url(#p1ca1de540d)" style="fill: none; stroke: #8f8f8f; stroke-width: 0.2; stroke-linecap: square"/>
   </g>
   <g id="line2d_9">
    <path d="M 313.368428 109.439128 
L 311.603147 147.665902 
L 309.94431 183.747799 
L 309.454788 194.190561 
L 297.151623 198.030853 
L 285.023196 201.742342 
L 283.342808 195.47097 
L 266.826892 165.170994 
L 255.608628 144.63365 
L 251.471084 139.133551 
L 263.609356 138.268268 
L 267.271911 134.431384 
L 273.622393 127.761591 
L 279.177942 118.516175 
L 284.488293 109.66876 
L 287.478092 104.787956 
L 296.086224 109.57416 
L 313.368428 109.439128 
" clip-path="url(#p1ca1de540d)" style="fill: none; stroke: #8f8f8f; stroke-width: 0.2; stroke-linecap: square"/>
   </g>
   <g id="line2d_10">
    <path d="M 316.237598 89.15622 
L 314.711862 99.985173 
L 313.368428 109.439128 
L 311.603147 147.665902 
L 309.94431 183.747799 
L 309.454788 194.190561 
L 297.151623 198.030853 
L 285.023196 201.742342 
L 283.342808 195.47097 
L 266.826892 165.170994 
L 255.608628 144.63365 
L 251.471084 139.133551 
L 263.609356 138.268268 
L 267.271911 134.431384 
L 273.622393 127.761591 
L 279.177942 118.516175 
L 284.488293 109.66876 
L 289.924175 106.166479 
L 300.33943 99.419204 
L 316.237598 89.15622 
" clip-path="url(#p1ca1de540d)" style="fill: none; stroke: #8f8f8f; stroke-width: 0.2; stroke-linecap: square"/>
   </g>
   <g id="line2d_11">
    <path d="M 309.454788 194.190561 
L 308.506063 214.707316 
L 319.819419 217.950195 
L 315.635837 222.664494 
L 309.010905 227.878536 
L 292.521526 229.958529 
L 285.023196 201.742342 
L 297.151623 198.030853 
L 309.454788 194.190561 
" clip-path="url(#p1ca1de540d)" style="fill: none; stroke: #8f8f8f; stroke-width: 0.2; stroke-linecap: square"/>
   </g>
   <g id="line2d_12">
    <path d="M 266.826892 165.170994 
L 283.342808 195.47097 
L 285.023196 201.742342 
L 275.242049 204.807223 
L 262.937071 208.606784 
L 257.127294 199.14074 
L 251.658086 190.26949 
L 259.718724 189.896606 
L 266.826892 165.170994 
" clip-path="url(#p1ca1de540d)" style="fill: none; stroke: #8f8f8f; stroke-width: 0.2; stroke-linecap: square"/>
   </g>
   <g id="line2d_13">
    <path d="M 285.023196 201.742342 
L 292.521526 229.958529 
L 288.921988 234.010872 
L 279.154949 235.008 
L 262.937071 208.606784 
L 275.242049 204.807223 
L 285.023196 201.742342 
" clip-path="url(#p1ca1de540d)" style="fill: none; stroke: #8f8f8f; stroke-width: 0.2; stroke-linecap: square"/>
   </g>
   <g id="line2d_14">
    <path d="M 309.010905 227.878536 
L 313.356688 249.624043 
L 288.002677 259.305043 
L 270.910933 265.809656 
L 266.224331 264.40392 
L 258.518382 261.940645 
L 254.782512 236.240873 
L 267.07021 236.205187 
L 279.154949 235.008 
L 288.921988 234.010872 
L 292.521526 229.958529 
L 309.010905 227.878536 
" clip-path="url(#p1ca1de540d)" style="fill: none; stroke: #8f8f8f; stroke-width: 0.2; stroke-linecap: square"/>
   </g>
   <g id="line2d_15">
    <path d="M 309.010905 227.878536 
L 313.356688 249.624043 
L 316.172007 258.077864 
L 315.751991 267.382741 
L 315.106284 281.975718 
L 314.945638 285.724281 
L 303.242938 284.079818 
L 288.975073 286.619866 
L 266.728063 288.647485 
L 262.575562 289.041094 
L 258.518382 261.940645 
L 254.782512 236.240873 
L 267.07021 236.205187 
L 279.154949 235.008 
L 288.921988 234.010872 
L 292.521526 229.958529 
L 309.010905 227.878536 
" clip-path="url(#p1ca1de540d)" style="fill: none; stroke: #8f8f8f; stroke-width: 0.2; stroke-linecap: square"/>
   </g>
   <g id="line2d_16">
    <path d="M 292.895178 23.406294 
L 293.022848 34.277508 
L 293.199479 49.329521 
L 294.926242 68.744882 
L 295.866772 79.337676 
L 296.618582 87.92543 
L 296.762374 89.428953 
L 290.626358 99.569188 
L 287.478092 104.787956 
L 284.488293 109.66876 
L 279.177942 118.516175 
L 273.622393 127.761591 
L 267.271911 134.431384 
L 263.609356 138.268268 
L 251.471084 139.133551 
L 233.699956 140.448949 
L 229.902882 134.89931 
L 267.543109 112.889805 
L 247.465694 95.802158 
L 215.562594 114.048 
L 202.623989 84.469265 
L 197.244418 72.099093 
L 252.676175 43.634941 
L 292.895178 23.406294 
" clip-path="url(#p1ca1de540d)" style="fill: none; stroke: #8f8f8f; stroke-width: 0.2; stroke-linecap: square"/>
   </g>
   <g id="line2d_17">
    <path d="M 247.465694 95.802158 
L 267.543109 112.889805 
L 229.902882 134.89931 
L 215.562594 114.048 
L 247.465694 95.802158 
" clip-path="url(#p1ca1de540d)" style="fill: none; stroke: #8f8f8f; stroke-width: 0.2; stroke-linecap: square"/>
   </g>
   <g id="line2d_18">
    <path d="M 292.895178 23.406294 
L 293.022848 34.277508 
L 293.199479 49.329521 
L 294.926242 68.744882 
L 295.866772 79.337676 
L 296.618582 87.92543 
L 296.762374 89.428953 
L 290.626358 99.569188 
L 287.478092 104.787956 
L 284.488293 109.66876 
L 279.177942 118.516175 
L 273.622393 127.761591 
L 267.271911 134.431384 
L 263.609356 138.268268 
L 251.471084 139.133551 
L 238.747543 144.722965 
L 233.699956 140.448949 
L 229.902882 134.89931 
L 267.543109 112.889805 
L 247.465694 95.802158 
L 215.562594 114.048 
L 202.623989 84.469265 
L 197.244418 72.099093 
L 252.676175 43.634941 
L 292.895178 23.406294 
" clip-path="url(#p1ca1de540d)" style="fill: none; stroke: #8f8f8f; stroke-width: 0.2; stroke-linecap: square"/>
   </g>
   <g id="line2d_19">
    <path d="M 247.465694 95.802158 
L 267.543109 112.889805 
L 229.902882 134.89931 
L 215.562594 114.048 
L 247.465694 95.802158 
" clip-path="url(#p1ca1de540d)" style="fill: none; stroke: #8f8f8f; stroke-width: 0.2; stroke-linecap: square"/>
   </g>
   <g id="line2d_20">
    <path d="M 216.480751 166.157533 
L 234.213155 189.343844 
L 247.166711 182.96178 
L 251.658086 190.26949 
L 257.127294 199.14074 
L 255.513572 204.834036 
L 251.511991 212.14222 
L 243.873432 214.542286 
L 218.587 222.380127 
L 206.057126 226.257806 
L 203.827788 226.951004 
L 200.675277 219.177754 
L 195.215306 205.771208 
L 206.794918 201.010859 
L 197.805861 180.234388 
L 196.374284 178.019165 
L 206.840991 172.082068 
L 207.202356 171.849322 
L 216.480751 166.157533 
" clip-path="url(#p1ca1de540d)" style="fill: none; stroke: #8f8f8f; stroke-width: 0.2; stroke-linecap: square"/>
   </g>
   <g id="line2d_21">
    <path d="M 179.798474 116.32666 
L 194.419606 122.187326 
L 216.480751 166.157533 
L 207.202356 171.849322 
L 206.840991 172.082068 
L 196.374284 178.019165 
L 165.433644 129.562987 
L 160.848838 125.730041 
L 173.349123 116.601458 
L 179.798474 116.32666 
" clip-path="url(#p1ca1de540d)" style="fill: none; stroke: #8f8f8f; stroke-width: 0.2; stroke-linecap: square"/>
   </g>
   <g id="line2d_22">
    <path d="M 231.30436 157.07266 
L 247.166711 182.96178 
L 234.213155 189.343844 
L 216.480751 166.157533 
L 231.30436 157.07266 
" clip-path="url(#p1ca1de540d)" style="fill: none; stroke: #8f8f8f; stroke-width: 0.2; stroke-linecap: square"/>
   </g>
   <g id="line2d_23">
    <path d="M 262.937071 208.606784 
L 279.154949 235.008 
L 267.07021 236.205187 
L 254.782512 236.240873 
L 238.291878 236.292515 
L 228.620488 236.334316 
L 222.446931 233.990171 
L 203.827788 226.951004 
L 206.057126 226.257806 
L 218.587 222.380127 
L 243.873432 214.542286 
L 251.511991 212.14222 
L 262.937071 208.606784 
" clip-path="url(#p1ca1de540d)" style="fill: none; stroke: #8f8f8f; stroke-width: 0.2; stroke-linecap: square"/>
   </g>
   <g id="line2d_24">
    <path d="M 251.471084 139.133551 
L 255.608628 144.63365 
L 266.826892 165.170994 
L 259.718724 189.896606 
L 251.658086 190.26949 
L 247.166711 182.96178 
L 231.30436 157.07266 
L 226.611551 150.083166 
L 238.747543 144.722965 
L 251.471084 139.133551 
L 251.471084 139.133551 
" clip-path="url(#p1ca1de540d)" style="fill: none; stroke: #ffc380; stroke-width: 0.5; stroke-linecap: square"/>
   </g>
   <g id="line2d_25">
    <path d="M 231.30436 157.07266 
L 247.166711 182.96178 
L 234.213155 189.343844 
L 216.480751 166.157533 
L 231.30436 157.07266 
L 231.30436 157.07266 
" clip-path="url(#p1ca1de540d)" style="fill: none; stroke: #ffc380; stroke-width: 0.5; stroke-linecap: square"/>
   </g>
   <g id="line2d_26">
    <path d="M 251.471084 139.133551 
L 238.747543 144.722965 
L 233.699956 140.448949 
L 251.471084 139.133551 
L 251.471084 139.133551 
" clip-path="url(#p1ca1de540d)" style="fill: none; stroke: #ffc380; stroke-width: 0.5; stroke-linecap: square"/>
   </g>
   <g id="line2d_27">
    <path d="M 215.562594 114.048 
L 229.902882 134.89931 
L 233.699956 140.448949 
L 238.747543 144.722965 
L 226.611551 150.083166 
L 231.30436 157.07266 
L 216.480751 166.157533 
L 194.419606 122.187326 
L 179.798474 116.32666 
L 191.875976 115.782984 
L 210.837403 114.938176 
L 215.562594 114.048 
L 215.562594 114.048 
" clip-path="url(#p1ca1de540d)" style="fill: none; stroke: #ffc380; stroke-width: 0.5; stroke-linecap: square"/>
   </g>
   <g id="line2d_28">
    <path d="M 266.826892 165.170994 
L 283.342808 195.47097 
L 285.023196 201.742342 
L 292.521526 229.958529 
L 288.921988 234.010872 
L 279.154949 235.008 
L 262.937071 208.606784 
L 257.127294 199.14074 
L 251.658086 190.26949 
L 259.718724 189.896606 
L 266.826892 165.170994 
L 266.826892 165.170994 
" clip-path="url(#p1ca1de540d)" style="fill: none; stroke: #ffc380; stroke-width: 0.5; stroke-linecap: square"/>
   </g>
   <g id="line2d_29">
    <path d="M 231.30436 157.07266 
L 247.166711 182.96178 
L 234.213155 189.343844 
L 216.480751 166.157533 
L 231.30436 157.07266 
L 231.30436 157.07266 
" clip-path="url(#p1ca1de540d)" style="fill: none; stroke: #ffc380; stroke-width: 0.5; stroke-linecap: square"/>
   </g>
   <g id="text_1">
    <!-- DKA1 -->
    <g style="opacity: 0.5" transform="translate(178.871936 146.276709)scale(0.0579 -0.0579)">
     <defs>
      <path id="DejaVuSans-44" d="M 1259 4147 
L 1259 519 
L 2022 519 
Q 2988 519 3436 956 
Q 3884 1394 3884 2338 
Q 3884 3275 3436 3711 
Q 2988 4147 2022 4147 
L 1259 4147 
z
M 628 4666 
L 1925 4666 
Q 3281 4666 3915 4102 
Q 4550 3538 4550 2338 
Q 4550 1131 3912 565 
Q 3275 0 1925 0 
L 628 0 
L 628 4666 
z
" transform="scale(0.015625)"/>
      <path id="DejaVuSans-4b" d="M 628 4666 
L 1259 4666 
L 1259 2694 
L 3353 4666 
L 4166 4666 
L 1850 2491 
L 4331 0 
L 3500 0 
L 1259 2247 
L 1259 0 
L 628 0 
L 628 4666 
z
" transform="scale(0.015625)"/>
      <path id="DejaVuSans-41" d="M 2188 4044 
L 1331 1722 
L 3047 1722 
L 2188 4044 
z
M 1831 4666 
L 2547 4666 
L 4325 0 
L 3669 0 
L 3244 1197 
L 1141 1197 
L 716 0 
L 50 0 
L 1831 4666 
z
" transform="scale(0.015625)"/>
      <path id="DejaVuSans-31" d="M 794 531 
L 1825 531 
L 1825 4091 
L 703 3866 
L 703 4441 
L 1819 4666 
L 2450 4666 
L 2450 531 
L 3481 531 
L 3481 0 
L 794 0 
L 794 531 
z
" transform="scale(0.015625)"/>
     </defs>
     <use xlink:href="#DejaVuSans-44"/>
     <use xlink:href="#DejaVuSans-4b" x="77.001953"/>
     <use xlink:href="#DejaVuSans-41" x="140.828125"/>
     <use xlink:href="#DejaVuSans-31" x="209.236328"/>
    </g>
    <!-- 145 -->
    <g style="opacity: 0.5" transform="translate(181.245383 152.760243)scale(0.0579 -0.0579)">
     <defs>
      <path id="DejaVuSans-34" d="M 2419 4116 
L 825 1625 
L 2419 1625 
L 2419 4116 
z
M 2253 4666 
L 3047 4666 
L 3047 1625 
L 3713 1625 
L 3713 1100 
L 3047 1100 
L 3047 0 
L 2419 0 
L 2419 1100 
L 313 1100 
L 313 1709 
L 2253 4666 
z
" transform="scale(0.015625)"/>
      <path id="DejaVuSans-35" d="M 691 4666 
L 3169 4666 
L 3169 4134 
L 1269 4134 
L 1269 2991 
Q 1406 3038 1543 3061 
Q 1681 3084 1819 3084 
Q 2600 3084 3056 2656 
Q 3513 2228 3513 1497 
Q 3513 744 3044 326 
Q 2575 -91 1722 -91 
Q 1428 -91 1123 -41 
Q 819 9 494 109 
L 494 744 
Q 775 591 1075 516 
Q 1375 441 1709 441 
Q 2250 441 2565 725 
Q 2881 1009 2881 1497 
Q 2881 1984 2565 2268 
Q 2250 2553 1709 2553 
Q 1456 2553 1204 2497 
Q 953 2441 691 2322 
L 691 4666 
z
" transform="scale(0.015625)"/>
     </defs>
     <use xlink:href="#DejaVuSans-31"/>
     <use xlink:href="#DejaVuSans-34" x="63.623047"/>
     <use xlink:href="#DejaVuSans-35" x="127.246094"/>
    </g>
    <!-- GND -->
    <g style="opacity: 0.5" transform="translate(180.13307 159.243776)scale(0.0579 -0.0579)">
     <defs>
      <path id="DejaVuSans-47" d="M 3809 666 
L 3809 1919 
L 2778 1919 
L 2778 2438 
L 4434 2438 
L 4434 434 
Q 4069 175 3628 42 
Q 3188 -91 2688 -91 
Q 1594 -91 976 548 
Q 359 1188 359 2328 
Q 359 3472 976 4111 
Q 1594 4750 2688 4750 
Q 3144 4750 3555 4637 
Q 3966 4525 4313 4306 
L 4313 3634 
Q 3963 3931 3569 4081 
Q 3175 4231 2741 4231 
Q 1884 4231 1454 3753 
Q 1025 3275 1025 2328 
Q 1025 1384 1454 906 
Q 1884 428 2741 428 
Q 3075 428 3337 486 
Q 3600 544 3809 666 
z
" transform="scale(0.015625)"/>
      <path id="DejaVuSans-4e" d="M 628 4666 
L 1478 4666 
L 3547 763 
L 3547 4666 
L 4159 4666 
L 4159 0 
L 3309 0 
L 1241 3903 
L 1241 0 
L 628 0 
L 628 4666 
z
" transform="scale(0.015625)"/>
     </defs>
     <use xlink:href="#DejaVuSans-47"/>
     <use xlink:href="#DejaVuSans-4e" x="77.490234"/>
     <use xlink:href="#DejaVuSans-44" x="152.294922"/>
    </g>
   </g>
   <g id="text_2">
    <!-- DUS5 -->
    <g style="opacity: 0.5" transform="translate(175.332508 99.652977)scale(0.0579 -0.0579)">
     <defs>
      <path id="DejaVuSans-55" d="M 556 4666 
L 1191 4666 
L 1191 1831 
Q 1191 1081 1462 751 
Q 1734 422 2344 422 
Q 2950 422 3222 751 
Q 3494 1081 3494 1831 
L 3494 4666 
L 4128 4666 
L 4128 1753 
Q 4128 841 3676 375 
Q 3225 -91 2344 -91 
Q 1459 -91 1007 375 
Q 556 841 556 1753 
L 556 4666 
z
" transform="scale(0.015625)"/>
      <path id="DejaVuSans-53" d="M 3425 4513 
L 3425 3897 
Q 3066 4069 2747 4153 
Q 2428 4238 2131 4238 
Q 1616 4238 1336 4038 
Q 1056 3838 1056 3469 
Q 1056 3159 1242 3001 
Q 1428 2844 1947 2747 
L 2328 2669 
Q 3034 2534 3370 2195 
Q 3706 1856 3706 1288 
Q 3706 609 3251 259 
Q 2797 -91 1919 -91 
Q 1588 -91 1214 -16 
Q 841 59 441 206 
L 441 856 
Q 825 641 1194 531 
Q 1563 422 1919 422 
Q 2459 422 2753 634 
Q 3047 847 3047 1241 
Q 3047 1584 2836 1778 
Q 2625 1972 2144 2069 
L 1759 2144 
Q 1053 2284 737 2584 
Q 422 2884 422 3419 
Q 422 4038 858 4394 
Q 1294 4750 2059 4750 
Q 2388 4750 2728 4690 
Q 3069 4631 3425 4513 
z
" transform="scale(0.015625)"/>
     </defs>
     <use xlink:href="#DejaVuSans-44"/>
     <use xlink:href="#DejaVuSans-55" x="77.001953"/>
     <use xlink:href="#DejaVuSans-53" x="150.195312"/>
     <use xlink:href="#DejaVuSans-35" x="213.671875"/>
    </g>
    <!-- 245 -->
    <g style="opacity: 0.5" transform="translate(177.834421 106.13651)scale(0.0579 -0.0579)">
     <defs>
      <path id="DejaVuSans-32" d="M 1228 531 
L 3431 531 
L 3431 0 
L 469 0 
L 469 531 
Q 828 903 1448 1529 
Q 2069 2156 2228 2338 
Q 2531 2678 2651 2914 
Q 2772 3150 2772 3378 
Q 2772 3750 2511 3984 
Q 2250 4219 1831 4219 
Q 1534 4219 1204 4116 
Q 875 4013 500 3803 
L 500 4441 
Q 881 4594 1212 4672 
Q 1544 4750 1819 4750 
Q 2544 4750 2975 4387 
Q 3406 4025 3406 3419 
Q 3406 3131 3298 2873 
Q 3191 2616 2906 2266 
Q 2828 2175 2409 1742 
Q 1991 1309 1228 531 
z
" transform="scale(0.015625)"/>
     </defs>
     <use xlink:href="#DejaVuSans-32"/>
     <use xlink:href="#DejaVuSans-34" x="63.623047"/>
     <use xlink:href="#DejaVuSans-35" x="127.246094"/>
    </g>
    <!-- GND -->
    <g style="opacity: 0.5" transform="translate(176.722108 112.620044)scale(0.0579 -0.0579)">
     <use xlink:href="#DejaVuSans-47"/>
     <use xlink:href="#DejaVuSans-4e" x="77.490234"/>
     <use xlink:href="#DejaVuSans-44" x="152.294922"/>
    </g>
   </g>
   <g id="text_3">
    <!-- GIN1 -->
    <g style="opacity: 0.5" transform="translate(275.314792 148.379294)scale(0.0579 -0.0579)">
     <defs>
      <path id="DejaVuSans-49" d="M 628 4666 
L 1259 4666 
L 1259 0 
L 628 0 
L 628 4666 
z
" transform="scale(0.015625)"/>
     </defs>
     <use xlink:href="#DejaVuSans-47"/>
     <use xlink:href="#DejaVuSans-49" x="77.490234"/>
     <use xlink:href="#DejaVuSans-4e" x="106.982422"/>
     <use xlink:href="#DejaVuSans-31" x="181.787109"/>
    </g>
    <!-- 205 -->
    <g style="opacity: 0.5" transform="translate(276.893924 154.862827)scale(0.0579 -0.0579)">
     <defs>
      <path id="DejaVuSans-30" d="M 2034 4250 
Q 1547 4250 1301 3770 
Q 1056 3291 1056 2328 
Q 1056 1369 1301 889 
Q 1547 409 2034 409 
Q 2525 409 2770 889 
Q 3016 1369 3016 2328 
Q 3016 3291 2770 3770 
Q 2525 4250 2034 4250 
z
M 2034 4750 
Q 2819 4750 3233 4129 
Q 3647 3509 3647 2328 
Q 3647 1150 3233 529 
Q 2819 -91 2034 -91 
Q 1250 -91 836 529 
Q 422 1150 422 2328 
Q 422 3509 836 4129 
Q 1250 4750 2034 4750 
z
" transform="scale(0.015625)"/>
     </defs>
     <use xlink:href="#DejaVuSans-32"/>
     <use xlink:href="#DejaVuSans-30" x="63.623047"/>
     <use xlink:href="#DejaVuSans-35" x="127.246094"/>
    </g>
    <!-- GND -->
    <g style="opacity: 0.5" transform="translate(275.781611 161.346361)scale(0.0579 -0.0579)">
     <use xlink:href="#DejaVuSans-47"/>
     <use xlink:href="#DejaVuSans-4e" x="77.490234"/>
     <use xlink:href="#DejaVuSans-44" x="152.294922"/>
    </g>
   </g>
   <g id="text_4">
    <!-- GIN3 -->
    <g style="opacity: 0.5" transform="translate(276.749378 140.563425)scale(0.0579 -0.0579)">
     <defs>
      <path id="DejaVuSans-33" d="M 2597 2516 
Q 3050 2419 3304 2112 
Q 3559 1806 3559 1356 
Q 3559 666 3084 287 
Q 2609 -91 1734 -91 
Q 1441 -91 1130 -33 
Q 819 25 488 141 
L 488 750 
Q 750 597 1062 519 
Q 1375 441 1716 441 
Q 2309 441 2620 675 
Q 2931 909 2931 1356 
Q 2931 1769 2642 2001 
Q 2353 2234 1838 2234 
L 1294 2234 
L 1294 2753 
L 1863 2753 
Q 2328 2753 2575 2939 
Q 2822 3125 2822 3475 
Q 2822 3834 2567 4026 
Q 2313 4219 1838 4219 
Q 1578 4219 1281 4162 
Q 984 4106 628 3988 
L 628 4550 
Q 988 4650 1302 4700 
Q 1616 4750 1894 4750 
Q 2613 4750 3031 4423 
Q 3450 4097 3450 3541 
Q 3450 3153 3228 2886 
Q 3006 2619 2597 2516 
z
" transform="scale(0.015625)"/>
     </defs>
     <use xlink:href="#DejaVuSans-47"/>
     <use xlink:href="#DejaVuSans-49" x="77.490234"/>
     <use xlink:href="#DejaVuSans-4e" x="106.982422"/>
     <use xlink:href="#DejaVuSans-33" x="181.787109"/>
    </g>
    <!-- 245 -->
    <g style="opacity: 0.5" transform="translate(278.32851 147.046959)scale(0.0579 -0.0579)">
     <use xlink:href="#DejaVuSans-32"/>
     <use xlink:href="#DejaVuSans-34" x="63.623047"/>
     <use xlink:href="#DejaVuSans-35" x="127.246094"/>
    </g>
    <!-- 205 -->
    <g style="opacity: 0.5" transform="translate(278.32851 153.530492)scale(0.0579 -0.0579)">
     <use xlink:href="#DejaVuSans-32"/>
     <use xlink:href="#DejaVuSans-30" x="63.623047"/>
     <use xlink:href="#DejaVuSans-35" x="127.246094"/>
    </g>
   </g>
   <g id="text_5">
    <!-- GIN4 -->
    <g style="opacity: 0.5" transform="translate(295.316344 207.18869)scale(0.0579 -0.0579)">
     <use xlink:href="#DejaVuSans-47"/>
     <use xlink:href="#DejaVuSans-49" x="77.490234"/>
     <use xlink:href="#DejaVuSans-4e" x="106.982422"/>
     <use xlink:href="#DejaVuSans-34" x="181.787109"/>
    </g>
    <!-- 245 -->
    <g style="opacity: 0.5" transform="translate(296.895476 213.672223)scale(0.0579 -0.0579)">
     <use xlink:href="#DejaVuSans-32"/>
     <use xlink:href="#DejaVuSans-34" x="63.623047"/>
     <use xlink:href="#DejaVuSans-35" x="127.246094"/>
    </g>
    <!-- 135 -->
    <g style="opacity: 0.5" transform="translate(296.895476 220.155757)scale(0.0579 -0.0579)">
     <use xlink:href="#DejaVuSans-31"/>
     <use xlink:href="#DejaVuSans-33" x="63.623047"/>
     <use xlink:href="#DejaVuSans-35" x="127.246094"/>
    </g>
   </g>
   <g id="text_6">
    <!-- GIN5 -->
    <g style="opacity: 0.5" transform="translate(261.235678 182.003033)scale(0.0579 -0.0579)">
     <use xlink:href="#DejaVuSans-47"/>
     <use xlink:href="#DejaVuSans-49" x="77.490234"/>
     <use xlink:href="#DejaVuSans-4e" x="106.982422"/>
     <use xlink:href="#DejaVuSans-35" x="181.787109"/>
    </g>
    <!-- 175 -->
    <g style="opacity: 0.5" transform="translate(262.81481 188.486567)scale(0.0579 -0.0579)">
     <defs>
      <path id="DejaVuSans-37" d="M 525 4666 
L 3525 4666 
L 3525 4397 
L 1831 0 
L 1172 0 
L 2766 4134 
L 525 4134 
L 525 4666 
z
" transform="scale(0.015625)"/>
     </defs>
     <use xlink:href="#DejaVuSans-31"/>
     <use xlink:href="#DejaVuSans-37" x="63.623047"/>
     <use xlink:href="#DejaVuSans-35" x="127.246094"/>
    </g>
    <!-- GND -->
    <g style="opacity: 0.5" transform="translate(261.702496 194.9701)scale(0.0579 -0.0579)">
     <use xlink:href="#DejaVuSans-47"/>
     <use xlink:href="#DejaVuSans-4e" x="77.490234"/>
     <use xlink:href="#DejaVuSans-44" x="152.294922"/>
    </g>
   </g>
   <g id="text_7">
    <!-- GIN7 -->
    <g style="opacity: 0.5" transform="translate(270.624335 213.489316)scale(0.0579 -0.0579)">
     <use xlink:href="#DejaVuSans-47"/>
     <use xlink:href="#DejaVuSans-49" x="77.490234"/>
     <use xlink:href="#DejaVuSans-4e" x="106.982422"/>
     <use xlink:href="#DejaVuSans-37" x="181.787109"/>
    </g>
    <!-- 175 -->
    <g style="opacity: 0.5" transform="translate(272.203467 219.972849)scale(0.0579 -0.0579)">
     <use xlink:href="#DejaVuSans-31"/>
     <use xlink:href="#DejaVuSans-37" x="63.623047"/>
     <use xlink:href="#DejaVuSans-35" x="127.246094"/>
    </g>
    <!-- 135 -->
    <g style="opacity: 0.5" transform="translate(272.203467 226.456382)scale(0.0579 -0.0579)">
     <use xlink:href="#DejaVuSans-31"/>
     <use xlink:href="#DejaVuSans-33" x="63.623047"/>
     <use xlink:href="#DejaVuSans-35" x="127.246094"/>
    </g>
   </g>
   <g id="text_8">
    <!-- MAN2 -->
    <g style="opacity: 0.5" transform="translate(275.583631 241.958241)scale(0.0579 -0.0579)">
     <defs>
      <path id="DejaVuSans-4d" d="M 628 4666 
L 1569 4666 
L 2759 1491 
L 3956 4666 
L 4897 4666 
L 4897 0 
L 4281 0 
L 4281 4097 
L 3078 897 
L 2444 897 
L 1241 4097 
L 1241 0 
L 628 0 
L 628 4666 
z
" transform="scale(0.015625)"/>
     </defs>
     <use xlink:href="#DejaVuSans-4d"/>
     <use xlink:href="#DejaVuSans-41" x="86.279297"/>
     <use xlink:href="#DejaVuSans-4e" x="154.6875"/>
     <use xlink:href="#DejaVuSans-32" x="229.492188"/>
    </g>
    <!-- 175 -->
    <g style="opacity: 0.5" transform="translate(278.543769 248.441774)scale(0.0579 -0.0579)">
     <use xlink:href="#DejaVuSans-31"/>
     <use xlink:href="#DejaVuSans-37" x="63.623047"/>
     <use xlink:href="#DejaVuSans-35" x="127.246094"/>
    </g>
    <!-- 135 -->
    <g style="opacity: 0.5" transform="translate(278.543769 254.925307)scale(0.0579 -0.0579)">
     <use xlink:href="#DejaVuSans-31"/>
     <use xlink:href="#DejaVuSans-33" x="63.623047"/>
     <use xlink:href="#DejaVuSans-35" x="127.246094"/>
    </g>
   </g>
   <g id="text_9">
    <!-- MAN3 -->
    <g style="opacity: 0.5" transform="translate(276.991291 253.57396)scale(0.0579 -0.0579)">
     <use xlink:href="#DejaVuSans-4d"/>
     <use xlink:href="#DejaVuSans-41" x="86.279297"/>
     <use xlink:href="#DejaVuSans-4e" x="154.6875"/>
     <use xlink:href="#DejaVuSans-33" x="229.492188"/>
    </g>
    <!-- 245 -->
    <g style="opacity: 0.5" transform="translate(279.951429 260.057493)scale(0.0579 -0.0579)">
     <use xlink:href="#DejaVuSans-32"/>
     <use xlink:href="#DejaVuSans-34" x="63.623047"/>
     <use xlink:href="#DejaVuSans-35" x="127.246094"/>
    </g>
    <!-- 175 -->
    <g style="opacity: 0.5" transform="translate(279.951429 266.541027)scale(0.0579 -0.0579)">
     <use xlink:href="#DejaVuSans-31"/>
     <use xlink:href="#DejaVuSans-37" x="63.623047"/>
     <use xlink:href="#DejaVuSans-35" x="127.246094"/>
    </g>
   </g>
   <g id="text_10">
    <!-- PADH1 -->
    <g style="opacity: 0.5" transform="translate(237.213772 77.041766)scale(0.0579 -0.0579)">
     <defs>
      <path id="DejaVuSans-50" d="M 1259 4147 
L 1259 2394 
L 2053 2394 
Q 2494 2394 2734 2622 
Q 2975 2850 2975 3272 
Q 2975 3691 2734 3919 
Q 2494 4147 2053 4147 
L 1259 4147 
z
M 628 4666 
L 2053 4666 
Q 2838 4666 3239 4311 
Q 3641 3956 3641 3272 
Q 3641 2581 3239 2228 
Q 2838 1875 2053 1875 
L 1259 1875 
L 1259 0 
L 628 0 
L 628 4666 
z
" transform="scale(0.015625)"/>
      <path id="DejaVuSans-48" d="M 628 4666 
L 1259 4666 
L 1259 2753 
L 3553 2753 
L 3553 4666 
L 4184 4666 
L 4184 0 
L 3553 0 
L 3553 2222 
L 1259 2222 
L 1259 0 
L 628 0 
L 628 4666 
z
" transform="scale(0.015625)"/>
     </defs>
     <use xlink:href="#DejaVuSans-50"/>
     <use xlink:href="#DejaVuSans-41" x="53.927734"/>
     <use xlink:href="#DejaVuSans-44" x="122.335938"/>
     <use xlink:href="#DejaVuSans-48" x="199.337891"/>
     <use xlink:href="#DejaVuSans-31" x="274.533203"/>
    </g>
    <!-- 245 -->
    <g style="opacity: 0.5" transform="translate(241.477565 83.5253)scale(0.0579 -0.0579)">
     <use xlink:href="#DejaVuSans-32"/>
     <use xlink:href="#DejaVuSans-34" x="63.623047"/>
     <use xlink:href="#DejaVuSans-35" x="127.246094"/>
    </g>
    <!-- 135 -->
    <g style="opacity: 0.5" transform="translate(241.477565 90.008833)scale(0.0579 -0.0579)">
     <use xlink:href="#DejaVuSans-31"/>
     <use xlink:href="#DejaVuSans-33" x="63.623047"/>
     <use xlink:href="#DejaVuSans-35" x="127.246094"/>
    </g>
   </g>
   <g id="text_11">
    <!-- PADH2 -->
    <g style="opacity: 0.5" transform="translate(231.763228 110.464878)scale(0.0579 -0.0579)">
     <use xlink:href="#DejaVuSans-50"/>
     <use xlink:href="#DejaVuSans-41" x="53.927734"/>
     <use xlink:href="#DejaVuSans-44" x="122.335938"/>
     <use xlink:href="#DejaVuSans-48" x="199.337891"/>
     <use xlink:href="#DejaVuSans-32" x="274.533203"/>
    </g>
    <!-- 245 -->
    <g style="opacity: 0.5" transform="translate(236.02702 116.948412)scale(0.0579 -0.0579)">
     <use xlink:href="#DejaVuSans-32"/>
     <use xlink:href="#DejaVuSans-34" x="63.623047"/>
     <use xlink:href="#DejaVuSans-35" x="127.246094"/>
    </g>
    <!-- 115 -->
    <g style="opacity: 0.5" transform="translate(236.02702 123.431945)scale(0.0579 -0.0579)">
     <use xlink:href="#DejaVuSans-31"/>
     <use xlink:href="#DejaVuSans-31" x="63.623047"/>
     <use xlink:href="#DejaVuSans-35" x="127.246094"/>
    </g>
   </g>
   <g id="text_12">
    <!-- PADL1 -->
    <g style="opacity: 0.5" transform="translate(237.777845 79.178774)scale(0.0579 -0.0579)">
     <defs>
      <path id="DejaVuSans-4c" d="M 628 4666 
L 1259 4666 
L 1259 531 
L 3531 531 
L 3531 0 
L 628 0 
L 628 4666 
z
" transform="scale(0.015625)"/>
     </defs>
     <use xlink:href="#DejaVuSans-50"/>
     <use xlink:href="#DejaVuSans-41" x="53.927734"/>
     <use xlink:href="#DejaVuSans-44" x="122.335938"/>
     <use xlink:href="#DejaVuSans-4c" x="199.337891"/>
     <use xlink:href="#DejaVuSans-31" x="255.050781"/>
    </g>
    <!-- 135 -->
    <g style="opacity: 0.5" transform="translate(241.477565 85.662307)scale(0.0579 -0.0579)">
     <use xlink:href="#DejaVuSans-31"/>
     <use xlink:href="#DejaVuSans-33" x="63.623047"/>
     <use xlink:href="#DejaVuSans-35" x="127.246094"/>
    </g>
    <!-- GND -->
    <g style="opacity: 0.5" transform="translate(240.365251 92.145841)scale(0.0579 -0.0579)">
     <use xlink:href="#DejaVuSans-47"/>
     <use xlink:href="#DejaVuSans-4e" x="77.490234"/>
     <use xlink:href="#DejaVuSans-44" x="152.294922"/>
    </g>
   </g>
   <g id="text_13">
    <!-- PADL2 -->
    <g style="opacity: 0.5" transform="translate(232.327301 110.464878)scale(0.0579 -0.0579)">
     <use xlink:href="#DejaVuSans-50"/>
     <use xlink:href="#DejaVuSans-41" x="53.927734"/>
     <use xlink:href="#DejaVuSans-44" x="122.335938"/>
     <use xlink:href="#DejaVuSans-4c" x="199.337891"/>
     <use xlink:href="#DejaVuSans-32" x="255.050781"/>
    </g>
    <!-- 115 -->
    <g style="opacity: 0.5" transform="translate(236.02702 116.948412)scale(0.0579 -0.0579)">
     <use xlink:href="#DejaVuSans-31"/>
     <use xlink:href="#DejaVuSans-31" x="63.623047"/>
     <use xlink:href="#DejaVuSans-35" x="127.246094"/>
    </g>
    <!-- GND -->
    <g style="opacity: 0.5" transform="translate(234.914707 123.431945)scale(0.0579 -0.0579)">
     <use xlink:href="#DejaVuSans-47"/>
     <use xlink:href="#DejaVuSans-4e" x="77.490234"/>
     <use xlink:href="#DejaVuSans-44" x="152.294922"/>
    </g>
   </g>
   <g id="text_14">
    <!-- TAU1 -->
    <g style="opacity: 0.5" transform="translate(218.686368 191.668413)scale(0.0579 -0.0579)">
     <defs>
      <path id="DejaVuSans-54" d="M -19 4666 
L 3928 4666 
L 3928 4134 
L 2272 4134 
L 2272 0 
L 1638 0 
L 1638 4134 
L -19 4134 
L -19 4666 
z
" transform="scale(0.015625)"/>
     </defs>
     <use xlink:href="#DejaVuSans-54"/>
     <use xlink:href="#DejaVuSans-41" x="53.333984"/>
     <use xlink:href="#DejaVuSans-55" x="121.742188"/>
     <use xlink:href="#DejaVuSans-31" x="194.935547"/>
    </g>
    <!-- 245 -->
    <g style="opacity: 0.5" transform="translate(220.645469 198.151946)scale(0.0579 -0.0579)">
     <use xlink:href="#DejaVuSans-32"/>
     <use xlink:href="#DejaVuSans-34" x="63.623047"/>
     <use xlink:href="#DejaVuSans-35" x="127.246094"/>
    </g>
    <!-- GND -->
    <g style="opacity: 0.5" transform="translate(219.533156 204.63548)scale(0.0579 -0.0579)">
     <use xlink:href="#DejaVuSans-47"/>
     <use xlink:href="#DejaVuSans-4e" x="77.490234"/>
     <use xlink:href="#DejaVuSans-44" x="152.294922"/>
    </g>
   </g>
   <g id="text_15">
    <!-- TAU2 -->
    <g style="opacity: 0.5" transform="translate(181.179862 142.287057)scale(0.0579 -0.0579)">
     <use xlink:href="#DejaVuSans-54"/>
     <use xlink:href="#DejaVuSans-41" x="53.333984"/>
     <use xlink:href="#DejaVuSans-55" x="121.742188"/>
     <use xlink:href="#DejaVuSans-32" x="194.935547"/>
    </g>
    <!-- 245 -->
    <g style="opacity: 0.5" transform="translate(183.138963 148.77059)scale(0.0579 -0.0579)">
     <use xlink:href="#DejaVuSans-32"/>
     <use xlink:href="#DejaVuSans-34" x="63.623047"/>
     <use xlink:href="#DejaVuSans-35" x="127.246094"/>
    </g>
    <!-- 145 -->
    <g style="opacity: 0.5" transform="translate(183.138963 155.254124)scale(0.0579 -0.0579)">
     <use xlink:href="#DejaVuSans-31"/>
     <use xlink:href="#DejaVuSans-34" x="63.623047"/>
     <use xlink:href="#DejaVuSans-35" x="127.246094"/>
    </g>
   </g>
   <g id="text_16">
    <!-- TAU3 -->
    <g style="opacity: 0.5" transform="translate(224.338799 168.322397)scale(0.0579 -0.0579)">
     <use xlink:href="#DejaVuSans-54"/>
     <use xlink:href="#DejaVuSans-41" x="53.333984"/>
     <use xlink:href="#DejaVuSans-55" x="121.742188"/>
     <use xlink:href="#DejaVuSans-33" x="194.935547"/>
    </g>
    <!-- 225 -->
    <g style="opacity: 0.5" transform="translate(226.2979 174.80593)scale(0.0579 -0.0579)">
     <use xlink:href="#DejaVuSans-32"/>
     <use xlink:href="#DejaVuSans-32" x="63.623047"/>
     <use xlink:href="#DejaVuSans-35" x="127.246094"/>
    </g>
    <!-- 75 -->
    <g style="opacity: 0.5" transform="translate(228.139843 181.289464)scale(0.0579 -0.0579)">
     <use xlink:href="#DejaVuSans-37"/>
     <use xlink:href="#DejaVuSans-35" x="63.623047"/>
    </g>
   </g>
   <g id="text_17">
    <!-- TAU5 -->
    <g style="opacity: 0.5" transform="translate(234.006436 217.584695)scale(0.0579 -0.0579)">
     <use xlink:href="#DejaVuSans-54"/>
     <use xlink:href="#DejaVuSans-41" x="53.333984"/>
     <use xlink:href="#DejaVuSans-55" x="121.742188"/>
     <use xlink:href="#DejaVuSans-35" x="194.935547"/>
    </g>
    <!-- 245 -->
    <g style="opacity: 0.5" transform="translate(235.965537 224.068228)scale(0.0579 -0.0579)">
     <use xlink:href="#DejaVuSans-32"/>
     <use xlink:href="#DejaVuSans-34" x="63.623047"/>
     <use xlink:href="#DejaVuSans-35" x="127.246094"/>
    </g>
    <!-- 135 -->
    <g style="opacity: 0.5" transform="translate(235.965537 230.551762)scale(0.0579 -0.0579)">
     <use xlink:href="#DejaVuSans-31"/>
     <use xlink:href="#DejaVuSans-33" x="63.623047"/>
     <use xlink:href="#DejaVuSans-35" x="127.246094"/>
    </g>
   </g>
   <g id="text_18">
    <!-- SIG1 -->
    <g transform="translate(239.942208 159.815666)scale(0.0579 -0.0579)">
     <use xlink:href="#DejaVuSans-53"/>
     <use xlink:href="#DejaVuSans-49" x="63.476562"/>
     <use xlink:href="#DejaVuSans-47" x="92.96875"/>
     <use xlink:href="#DejaVuSans-31" x="170.458984"/>
    </g>
    <!-- 245 -->
    <g transform="translate(241.193391 166.299199)scale(0.0579 -0.0579)">
     <use xlink:href="#DejaVuSans-32"/>
     <use xlink:href="#DejaVuSans-34" x="63.623047"/>
     <use xlink:href="#DejaVuSans-35" x="127.246094"/>
    </g>
    <!-- GND -->
    <g transform="translate(240.081077 172.782732)scale(0.0579 -0.0579)">
     <use xlink:href="#DejaVuSans-47"/>
     <use xlink:href="#DejaVuSans-4e" x="77.490234"/>
     <use xlink:href="#DejaVuSans-44" x="152.294922"/>
    </g>
   </g>
   <g id="text_19">
    <!-- SIG2 -->
    <g transform="translate(225.046717 168.322397)scale(0.0579 -0.0579)">
     <use xlink:href="#DejaVuSans-53"/>
     <use xlink:href="#DejaVuSans-49" x="63.476562"/>
     <use xlink:href="#DejaVuSans-47" x="92.96875"/>
     <use xlink:href="#DejaVuSans-32" x="170.458984"/>
    </g>
    <!-- 75 -->
    <g transform="translate(228.139843 174.80593)scale(0.0579 -0.0579)">
     <use xlink:href="#DejaVuSans-37"/>
     <use xlink:href="#DejaVuSans-35" x="63.623047"/>
    </g>
    <!-- GND -->
    <g transform="translate(225.185586 181.289464)scale(0.0579 -0.0579)">
     <use xlink:href="#DejaVuSans-47"/>
     <use xlink:href="#DejaVuSans-4e" x="77.490234"/>
     <use xlink:href="#DejaVuSans-44" x="152.294922"/>
    </g>
   </g>
   <g id="text_20">
    <!-- SIG3 -->
    <g transform="translate(235.808506 137.042403)scale(0.0579 -0.0579)">
     <use xlink:href="#DejaVuSans-53"/>
     <use xlink:href="#DejaVuSans-49" x="63.476562"/>
     <use xlink:href="#DejaVuSans-47" x="92.96875"/>
     <use xlink:href="#DejaVuSans-33" x="170.458984"/>
    </g>
    <!-- 245 -->
    <g transform="translate(237.059689 143.525936)scale(0.0579 -0.0579)">
     <use xlink:href="#DejaVuSans-32"/>
     <use xlink:href="#DejaVuSans-34" x="63.623047"/>
     <use xlink:href="#DejaVuSans-35" x="127.246094"/>
    </g>
    <!-- 135 -->
    <g transform="translate(237.059689 150.00947)scale(0.0579 -0.0579)">
     <use xlink:href="#DejaVuSans-31"/>
     <use xlink:href="#DejaVuSans-33" x="63.623047"/>
     <use xlink:href="#DejaVuSans-35" x="127.246094"/>
    </g>
   </g>
   <g id="text_21">
    <!-- SIG4 -->
    <g transform="translate(202.495994 135.216911)scale(0.0579 -0.0579)">
     <use xlink:href="#DejaVuSans-53"/>
     <use xlink:href="#DejaVuSans-49" x="63.476562"/>
     <use xlink:href="#DejaVuSans-47" x="92.96875"/>
     <use xlink:href="#DejaVuSans-34" x="170.458984"/>
    </g>
    <!-- 245 -->
    <g transform="translate(203.747177 141.700444)scale(0.0579 -0.0579)">
     <use xlink:href="#DejaVuSans-32"/>
     <use xlink:href="#DejaVuSans-34" x="63.623047"/>
     <use xlink:href="#DejaVuSans-35" x="127.246094"/>
    </g>
    <!-- 145 -->
    <g transform="translate(203.747177 148.183978)scale(0.0579 -0.0579)">
     <use xlink:href="#DejaVuSans-31"/>
     <use xlink:href="#DejaVuSans-34" x="63.623047"/>
     <use xlink:href="#DejaVuSans-35" x="127.246094"/>
    </g>
   </g>
   <g id="text_22">
    <!-- SIG5 -->
    <g transform="translate(265.312792 195.203641)scale(0.0579 -0.0579)">
     <use xlink:href="#DejaVuSans-53"/>
     <use xlink:href="#DejaVuSans-49" x="63.476562"/>
     <use xlink:href="#DejaVuSans-47" x="92.96875"/>
     <use xlink:href="#DejaVuSans-35" x="170.458984"/>
    </g>
    <!-- 245 -->
    <g transform="translate(266.563975 201.687175)scale(0.0579 -0.0579)">
     <use xlink:href="#DejaVuSans-32"/>
     <use xlink:href="#DejaVuSans-34" x="63.623047"/>
     <use xlink:href="#DejaVuSans-35" x="127.246094"/>
    </g>
    <!-- 175 -->
    <g transform="translate(266.563975 208.170708)scale(0.0579 -0.0579)">
     <use xlink:href="#DejaVuSans-31"/>
     <use xlink:href="#DejaVuSans-37" x="63.623047"/>
     <use xlink:href="#DejaVuSans-35" x="127.246094"/>
    </g>
   </g>
   <g id="text_23">
    <!-- SIG6 -->
    <g transform="translate(225.046717 168.322397)scale(0.0579 -0.0579)">
     <defs>
      <path id="DejaVuSans-36" d="M 2113 2584 
Q 1688 2584 1439 2293 
Q 1191 2003 1191 1497 
Q 1191 994 1439 701 
Q 1688 409 2113 409 
Q 2538 409 2786 701 
Q 3034 994 3034 1497 
Q 3034 2003 2786 2293 
Q 2538 2584 2113 2584 
z
M 3366 4563 
L 3366 3988 
Q 3128 4100 2886 4159 
Q 2644 4219 2406 4219 
Q 1781 4219 1451 3797 
Q 1122 3375 1075 2522 
Q 1259 2794 1537 2939 
Q 1816 3084 2150 3084 
Q 2853 3084 3261 2657 
Q 3669 2231 3669 1497 
Q 3669 778 3244 343 
Q 2819 -91 2113 -91 
Q 1303 -91 875 529 
Q 447 1150 447 2328 
Q 447 3434 972 4092 
Q 1497 4750 2381 4750 
Q 2619 4750 2861 4703 
Q 3103 4656 3366 4563 
z
" transform="scale(0.015625)"/>
     </defs>
     <use xlink:href="#DejaVuSans-53"/>
     <use xlink:href="#DejaVuSans-49" x="63.476562"/>
     <use xlink:href="#DejaVuSans-47" x="92.96875"/>
     <use xlink:href="#DejaVuSans-36" x="170.458984"/>
    </g>
    <!-- 245 -->
    <g transform="translate(226.2979 174.80593)scale(0.0579 -0.0579)">
     <use xlink:href="#DejaVuSans-32"/>
     <use xlink:href="#DejaVuSans-34" x="63.623047"/>
     <use xlink:href="#DejaVuSans-35" x="127.246094"/>
    </g>
    <!-- 225 -->
    <g transform="translate(226.2979 181.289464)scale(0.0579 -0.0579)">
     <use xlink:href="#DejaVuSans-32"/>
     <use xlink:href="#DejaVuSans-32" x="63.623047"/>
     <use xlink:href="#DejaVuSans-35" x="127.246094"/>
    </g>
   </g>
  </g>
 </g>
 <defs>
  <clipPath id="p1ca1de540d">
   <rect x="112.164642" y="41.472" width="247.990716" height="266.112"/>
  </clipPath>
 </defs>
</svg>
