<?xml version="1.0" encoding="utf-8" standalone="no"?>
<!DOCTYPE svg PUBLIC "-//W3C//DTD SVG 1.1//EN"
  "http://www.w3.org/Graphics/SVG/1.1/DTD/svg11.dtd">
<svg xmlns:xlink="http://www.w3.org/1999/xlink" width="460.8pt" height="345.6pt" viewBox="0 0 460.8 345.6" xmlns="http://www.w3.org/2000/svg" version="1.1">
 <metadata>
  <rdf:RDF xmlns:dc="http://purl.org/dc/elements/1.1/" xmlns:cc="http://creativecommons.org/ns#" xmlns:rdf="http://www.w3.org/1999/02/22-rdf-syntax-ns#">
   <cc:Work>
    <dc:type rdf:resource="http://purl.org/dc/dcmitype/StillImage"/>
    <dc:date>2022-04-26T15:11:57.399116</dc:date>
    <dc:format>image/svg+xml</dc:format>
    <dc:creator>
     <cc:Agent>
      <dc:title>Matplotlib v3.5.0, https://matplotlib.org/</dc:title>
     </cc:Agent>
    </dc:creator>
   </cc:Work>
  </rdf:RDF>
 </metadata>
 <defs>
  <style type="text/css">*{stroke-linejoin: round; stroke-linecap: butt}</style>
 </defs>
 <g id="figure_1">
  <g id="patch_1">
   <path d="M 0 345.6 
L 460.8 345.6 
L 460.8 0 
L 0 0 
z
" style="fill: #ffffff"/>
  </g>
  <g id="axes_1">
   <g id="patch_2">
    <path d="M 244.066848 144.943325 
L 265.674759 159.808383 
L 273.113077 165.567539 
L 286.353914 175.839975 
L 265.937909 189.972115 
L 261.926302 192.747927 
L 211.825081 208.710988 
L 206.64484 209.730629 
L 202.709054 210.540195 
L 178.809148 192.288147 
L 178.922954 180.792884 
L 179.343542 172.799069 
L 174.834297 165.078606 
L 176.025143 149.41875 
L 196.114911 149.87392 
L 214.368704 150.297618 
L 217.934017 148.30615 
L 219.653652 147.351366 
L 226.110944 146.707551 
z
" clip-path="url(#pd0064c1576)" style="fill: #ffedd9; stroke: #ffedd9; stroke-linejoin: miter"/>
   </g>
   <g id="patch_3">
    <path d="M 172.540394 149.353645 
L 176.025143 149.41875 
L 174.834297 165.078606 
L 165.205762 164.432742 
z
" clip-path="url(#pd0064c1576)" style="fill: #ffedd9; stroke: #ffedd9; stroke-linejoin: miter"/>
   </g>
   <g id="patch_4">
    <path d="M 174.834297 165.078606 
L 179.343542 172.799069 
L 178.922954 180.792884 
L 169.551583 175.802499 
L 173.199922 172.174529 
z
" clip-path="url(#pd0064c1576)" style="fill: #ffedd9; stroke: #ffedd9; stroke-linejoin: miter"/>
   </g>
   <g id="patch_5">
    <path d="M 303.000005 138.515805 
L 304.474546 145.589052 
L 310.550489 159.085172 
L 296.536999 168.78218 
L 286.353914 175.839975 
L 273.113077 165.567539 
L 265.674759 159.808383 
L 244.066848 144.943325 
L 257.079923 142.977103 
L 269.124704 144.83217 
L 287.282262 139.34236 
z
" clip-path="url(#pd0064c1576)" style="fill: #ffedd9; stroke: #ffedd9; stroke-linejoin: miter"/>
   </g>
   <g id="patch_6">
    <path d="M 174.834297 165.078606 
L 173.199922 172.174529 
L 169.551583 175.802499 
L 165.472575 175.570274 
L 165.195063 174.802639 
L 163.496523 175.682599 
L 163.365787 174.667075 
L 161.799281 174.562799 
L 161.761956 174.814935 
L 161.194847 174.547173 
L 160.651645 174.872887 
L 159.570272 174.560531 
L 158.794711 173.918212 
L 157.802175 173.833283 
L 157.519612 173.523894 
L 156.423492 173.528044 
L 154.996364 172.662533 
L 165.205762 164.432742 
z
" clip-path="url(#pd0064c1576)" style="fill: #ffedd9; stroke: #ffedd9; stroke-linejoin: miter"/>
   </g>
   <g id="patch_7">
    <path d="M 303.000005 138.515805 
L 317.323636 152.201937 
L 310.550489 159.085172 
L 304.474546 145.589052 
z
" clip-path="url(#pd0064c1576)" style="fill: #ffedd9; stroke: #ffedd9; stroke-linejoin: miter"/>
   </g>
   <g id="patch_8">
    <path d="M 244.066848 144.943325 
L 265.674759 159.808383 
L 273.113077 165.567539 
L 286.353914 175.839975 
L 265.937909 189.972115 
L 261.926302 192.747927 
L 211.825081 208.710988 
L 206.64484 209.730629 
L 202.709054 210.540195 
L 178.809148 192.288147 
L 178.922954 180.792884 
L 179.343542 172.799069 
L 174.834297 165.078606 
L 176.025143 149.41875 
L 196.114911 149.87392 
L 214.368704 150.297618 
L 217.934017 148.30615 
L 219.653652 147.351366 
L 226.110944 146.707551 
L 244.066848 144.943325 
z
" clip-path="url(#pd0064c1576)" style="fill: #ffedd9; stroke: #ffedd9; stroke-linejoin: miter"/>
   </g>
   <g id="patch_9">
    <path d="M 172.540394 149.353645 
L 176.025143 149.41875 
L 174.834297 165.078606 
L 165.205762 164.432742 
L 172.540394 149.353645 
z
" clip-path="url(#pd0064c1576)" style="fill: #ffedd9; stroke: #ffedd9; stroke-linejoin: miter"/>
   </g>
   <g id="patch_10">
    <path d="M 174.834297 165.078606 
L 179.343542 172.799069 
L 178.922954 180.792884 
L 169.551583 175.802499 
L 173.199922 172.174529 
L 174.834297 165.078606 
z
" clip-path="url(#pd0064c1576)" style="fill: #ffedd9; stroke: #ffedd9; stroke-linejoin: miter"/>
   </g>
   <g id="patch_11">
    <path d="M 303.000005 138.515805 
L 304.474546 145.589052 
L 310.550489 159.085172 
L 296.536999 168.78218 
L 286.353914 175.839975 
L 273.113077 165.567539 
L 265.674759 159.808383 
L 244.066848 144.943325 
L 257.079923 142.977103 
L 269.124704 144.83217 
L 287.282262 139.34236 
L 303.000005 138.515805 
z
" clip-path="url(#pd0064c1576)" style="fill: #ffedd9; stroke: #ffedd9; stroke-linejoin: miter"/>
   </g>
   <g id="patch_12">
    <path d="M 174.834297 165.078606 
L 173.199922 172.174529 
L 169.551583 175.802499 
L 165.472575 175.570274 
L 165.195063 174.802639 
L 163.496523 175.682599 
L 163.365787 174.667075 
L 161.799281 174.562799 
L 161.761956 174.814935 
L 161.194847 174.547173 
L 160.651645 174.872887 
L 159.570272 174.560531 
L 158.794711 173.918212 
L 157.802175 173.833283 
L 157.519612 173.523894 
L 156.423492 173.528044 
L 154.996364 172.662533 
L 165.205762 164.432742 
L 174.834297 165.078606 
z
" clip-path="url(#pd0064c1576)" style="fill: #ffedd9; stroke: #ffedd9; stroke-linejoin: miter"/>
   </g>
   <g id="patch_13">
    <path d="M 303.000005 138.515805 
L 317.323636 152.201937 
L 310.550489 159.085172 
L 304.474546 145.589052 
L 303.000005 138.515805 
z
" clip-path="url(#pd0064c1576)" style="fill: #ffedd9; stroke: #ffedd9; stroke-linejoin: miter"/>
   </g>
   <g id="line2d_1">
    <path d="M 244.066848 144.943325 
L 265.674759 159.808383 
L 273.113077 165.567539 
L 286.353914 175.839975 
L 265.937909 189.972115 
L 261.926302 192.747927 
L 211.825081 208.710988 
L 206.64484 209.730629 
L 202.709054 210.540195 
L 178.809148 192.288147 
L 178.922954 180.792884 
L 179.343542 172.799069 
L 174.834297 165.078606 
L 176.025143 149.41875 
L 196.114911 149.87392 
L 214.368704 150.297618 
L 217.934017 148.30615 
L 219.653652 147.351366 
L 226.110944 146.707551 
L 244.066848 144.943325 
" clip-path="url(#pd0064c1576)" style="fill: none; stroke: #ffc380; stroke-width: 0.5; stroke-linecap: square"/>
   </g>
   <g id="line2d_2">
    <path d="M 172.540394 149.353645 
L 176.025143 149.41875 
L 174.834297 165.078606 
L 165.205762 164.432742 
L 172.540394 149.353645 
" clip-path="url(#pd0064c1576)" style="fill: none; stroke: #ffc380; stroke-width: 0.5; stroke-linecap: square"/>
   </g>
   <g id="line2d_3">
    <path d="M 174.834297 165.078606 
L 179.343542 172.799069 
L 178.922954 180.792884 
L 169.551583 175.802499 
L 173.199922 172.174529 
L 174.834297 165.078606 
" clip-path="url(#pd0064c1576)" style="fill: none; stroke: #ffc380; stroke-width: 0.5; stroke-linecap: square"/>
   </g>
   <g id="line2d_4">
    <path d="M 303.000005 138.515805 
L 304.474546 145.589052 
L 310.550489 159.085172 
L 296.536999 168.78218 
L 286.353914 175.839975 
L 273.113077 165.567539 
L 265.674759 159.808383 
L 244.066848 144.943325 
L 257.079923 142.977103 
L 269.124704 144.83217 
L 287.282262 139.34236 
L 303.000005 138.515805 
" clip-path="url(#pd0064c1576)" style="fill: none; stroke: #ffc380; stroke-width: 0.5; stroke-linecap: square"/>
   </g>
   <g id="line2d_5">
    <path d="M 174.834297 165.078606 
L 173.199922 172.174529 
L 169.551583 175.802499 
L 165.472575 175.570274 
L 165.195063 174.802639 
L 163.496523 175.682599 
L 163.365787 174.667075 
L 161.799281 174.562799 
L 161.761956 174.814935 
L 161.194847 174.547173 
L 160.651645 174.872887 
L 159.570272 174.560531 
L 158.794711 173.918212 
L 157.802175 173.833283 
L 157.519612 173.523894 
L 156.423492 173.528044 
L 154.996364 172.662533 
L 165.205762 164.432742 
L 174.834297 165.078606 
" clip-path="url(#pd0064c1576)" style="fill: none; stroke: #ffc380; stroke-width: 0.5; stroke-linecap: square"/>
   </g>
   <g id="line2d_6">
    <path d="M 303.000005 138.515805 
L 317.323636 152.201937 
L 310.550489 159.085172 
L 304.474546 145.589052 
L 303.000005 138.515805 
" clip-path="url(#pd0064c1576)" style="fill: none; stroke: #ffc380; stroke-width: 0.5; stroke-linecap: square"/>
   </g>
   <g id="line2d_7">
    <path d="M 296.126425 73.777156 
L 296.298506 77.660147 
L 296.820102 88.32321 
L 297.573763 103.634196 
L 297.762378 107.461955 
L 303.000005 138.515805 
L 287.282262 139.34236 
L 269.124704 144.83217 
L 257.079923 142.977103 
L 244.066848 144.943325 
L 258.464047 115.571618 
L 250.879015 100.133467 
L 257.071998 97.72736 
L 258.683267 94.679956 
L 258.799724 80.38788 
L 257.905831 75.152308 
L 262.039355 75.002214 
L 296.126425 73.777156 
" clip-path="url(#pd0064c1576)" style="fill: none; stroke: #8f8f8f; stroke-width: 0.2; stroke-linecap: square"/>
   </g>
   <g id="line2d_8">
    <path d="M 303.000005 138.515805 
L 317.323636 152.201937 
L 310.550489 159.085172 
L 296.536999 168.78218 
L 286.353914 175.839975 
L 273.113077 165.567539 
L 265.674759 159.808383 
L 244.066848 144.943325 
L 257.079923 142.977103 
L 269.124704 144.83217 
L 287.282262 139.34236 
L 303.000005 138.515805 
" clip-path="url(#pd0064c1576)" style="fill: none; stroke: #8f8f8f; stroke-width: 0.2; stroke-linecap: square"/>
   </g>
   <g id="line2d_9">
    <path d="M 261.887623 108.567503 
L 272.491611 116.303344 
L 303.000005 138.515805 
L 287.282262 139.34236 
L 269.124704 144.83217 
L 257.079923 142.977103 
L 244.066848 144.943325 
L 258.464047 115.571618 
L 261.887623 108.567503 
" clip-path="url(#pd0064c1576)" style="fill: none; stroke: #8f8f8f; stroke-width: 0.2; stroke-linecap: square"/>
   </g>
   <g id="line2d_10">
    <path d="M 319.464848 6.310898 
L 359.182115 2.998994 
L 393.241076 0.165088 
L 407.295974 -1 
M 407.400843 -1 
L 420.316359 6.212684 
L 431.918185 12.684963 
L 448.664661 22.043192 
L 441.67105 26.377493 
L 432.755623 31.897312 
L 429.828045 33.767964 
L 425.706412 36.343158 
L 424.768632 42.487057 
L 424.231607 47.427867 
L 424.793798 49.241004 
L 425.617059 53.08223 
L 435.536399 94.871979 
L 442.817577 101.070489 
L 409.984287 141.078843 
L 409.176553 146.057615 
L 406.133917 149.509448 
L 352.554777 154.861625 
L 323.056379 157.835336 
L 317.323636 152.201937 
L 303.000005 138.515805 
L 297.762378 107.461955 
L 297.573763 103.634196 
L 296.820102 88.32321 
L 296.298506 77.660147 
L 296.126425 73.777156 
L 295.304049 57.290931 
L 294.927314 49.580701 
L 296.132116 47.188703 
L 304.628526 30.268113 
L 307.100144 25.393606 
L 308.683515 22.218278 
L 309.462214 21.041613 
L 319.464848 6.310898 
L 359.182115 2.998994 
L 393.241076 0.165088 
L 407.295974 -1 
M 407.400843 -1 
L 420.316359 6.212684 
L 431.918185 12.684963 
L 448.664661 22.043192 
L 441.67105 26.377493 
L 432.755623 31.897312 
L 429.828045 33.767964 
L 425.706412 36.343158 
L 424.768632 42.487057 
L 424.231607 47.427867 
L 424.793798 49.241004 
L 425.617059 53.08223 
L 435.536399 94.871979 
L 442.817577 101.070489 
L 435.040507 99.948859 
L 429.254028 99.38486 
L 408.522132 114.204283 
L 395.282282 123.643114 
L 340.69126 125.398764 
L 307.235361 69.972493 
L 294.927314 49.580701 
L 296.132116 47.188703 
L 304.628526 30.268113 
L 307.100144 25.393606 
L 308.683515 22.218278 
L 309.462214 21.041613 
L 319.464848 6.310898 
" clip-path="url(#pd0064c1576)" style="fill: none; stroke: #8f8f8f; stroke-width: 0.2; stroke-linecap: square"/>
   </g>
   <g id="line2d_11">
    <path d="M 296.536999 168.78218 
L 339.812183 206.029743 
L 336.41466 210.049414 
L 332.631519 218.025595 
L 347.050819 231.446445 
L 347.60596 245.453432 
L 279.336373 233.695505 
L 291.268619 205.548446 
L 291.11887 180.195798 
L 286.353914 175.839975 
L 296.536999 168.78218 
L 339.812183 206.029743 
L 336.41466 210.049414 
L 332.631519 218.025595 
L 347.050819 231.446445 
L 347.60596 245.453432 
L 252.045274 228.990267 
L 251.82317 218.153322 
L 265.937909 189.972115 
L 296.536999 168.78218 
L 339.812183 206.029743 
L 343.699137 201.714279 
L 357.778876 200.866697 
L 366.727584 200.645534 
L 397.506806 199.221979 
L 420.298919 198.050283 
L 408.935921 221.420555 
L 408.411595 228.467743 
L 406.78295 248.843913 
L 400.843359 255.863786 
L 387.941649 269.160209 
L 366.090361 273.601814 
L 363.596488 254.331593 
L 363.623429 248.547717 
L 347.60596 245.453432 
L 252.045274 228.990267 
L 251.82317 218.153322 
L 265.937909 189.972115 
L 296.536999 168.78218 
L 339.812183 206.029743 
L 343.699137 201.714279 
L 357.778876 200.866697 
L 366.727584 200.645534 
L 397.506806 199.221979 
L 420.298919 198.050283 
L 408.935921 221.420555 
L 408.411595 228.467743 
L 406.78295 248.843913 
L 400.843359 255.863786 
L 387.941649 269.160209 
L 366.090361 273.601814 
L 363.596488 254.331593 
L 363.623429 248.547717 
L 347.60596 245.453432 
L 252.045274 228.990267 
L 251.82317 218.153322 
L 265.937909 189.972115 
L 296.536999 168.78218 
L 339.812183 206.029743 
L 336.41466 210.049414 
L 332.631519 218.025595 
L 347.050819 231.446445 
L 348.351044 264.276234 
L 338.243694 269.351129 
L 310.043636 245.320172 
L 276.762187 239.785878 
L 291.268619 205.548446 
L 291.11887 180.195798 
L 286.353914 175.839975 
L 296.536999 168.78218 
L 339.812183 206.029743 
L 343.699137 201.714279 
L 357.778876 200.866697 
L 366.727584 200.645534 
L 397.506806 199.221979 
L 420.298919 198.050283 
L 408.935921 221.420555 
L 408.411595 228.467743 
L 406.78295 248.843913 
L 400.843359 255.863786 
L 387.941649 269.160209 
L 366.090361 273.601814 
L 363.596488 254.331593 
L 363.623429 248.547717 
L 347.60596 245.453432 
L 252.045274 228.990267 
L 251.82317 218.153322 
L 265.937909 189.972115 
L 296.536999 168.78218 
L 296.536999 168.78218 
" clip-path="url(#pd0064c1576)" style="fill: none; stroke: #8f8f8f; stroke-width: 0.2; stroke-linecap: square"/>
   </g>
   <g id="line2d_12">
    <path d="M 317.323636 152.201937 
L 323.056379 157.835336 
L 366.727584 200.645534 
L 357.778876 200.866697 
L 343.699137 201.714279 
L 339.812183 206.029743 
L 296.536999 168.78218 
L 310.550489 159.085172 
L 317.323636 152.201937 
L 323.056379 157.835336 
L 366.727584 200.645534 
L 357.778876 200.866697 
L 343.699137 201.714279 
L 339.812183 206.029743 
L 296.536999 168.78218 
L 310.550489 159.085172 
L 317.323636 152.201937 
L 323.056379 157.835336 
L 366.727584 200.645534 
L 357.778876 200.866697 
L 343.699137 201.714279 
L 339.812183 206.029743 
L 296.536999 168.78218 
L 310.550489 159.085172 
L 317.323636 152.201937 
L 323.056379 157.835336 
L 366.727584 200.645534 
L 357.778876 200.866697 
L 343.699137 201.714279 
L 339.812183 206.029743 
L 296.536999 168.78218 
L 310.550489 159.085172 
L 317.323636 152.201937 
" clip-path="url(#pd0064c1576)" style="fill: none; stroke: #8f8f8f; stroke-width: 0.2; stroke-linecap: square"/>
   </g>
   <g id="line2d_13">
    <path d="M 247.104862 97.254991 
L 250.879015 100.133467 
L 258.464047 115.571618 
L 244.066848 144.943325 
L 226.110944 146.707551 
L 219.440294 128.66107 
L 220.025528 121.126137 
L 221.446155 103.069135 
L 221.577605 100.001855 
L 222.900767 99.763059 
L 228.104192 98.833 
L 232.237118 98.490426 
L 247.104862 97.254991 
" clip-path="url(#pd0064c1576)" style="fill: none; stroke: #8f8f8f; stroke-width: 0.2; stroke-linecap: square"/>
   </g>
   <g id="line2d_14">
    <path d="M 219.440294 128.66107 
L 226.110944 146.707551 
L 219.653652 147.351366 
L 217.934017 148.30615 
L 219.440294 128.66107 
" clip-path="url(#pd0064c1576)" style="fill: none; stroke: #8f8f8f; stroke-width: 0.2; stroke-linecap: square"/>
   </g>
   <g id="line2d_15">
    <path d="M 85.648955 168.890976 
L 75.60187 157.168373 
L 72.352347 155.211391 
L 69.916644 155.626322 
L 68.488709 152.235619 
L 67.749884 150.471242 
L 66.768952 150.374408 
L 65.60641 146.34552 
L 64.702643 146.367851 
L 65.369783 144.298053 
L 64.194269 143.961008 
L 63.206413 142.675628 
L 60.174356 139.921117 
L 60.498815 139.170623 
L 58.616355 137.133867 
L 59.245056 136.335335 
L 60.192447 137.198192 
L 61.112831 135.530627 
L 59.801845 135.463931 
L 59.654121 133.716712 
L 58.163875 132.91587 
L 57.888428 132.417867 
L 57.177634 131.997635 
L 56.992899 131.05626 
L 57.6735 130.634511 
L 58.320808 130.363947 
L 57.498364 129.563599 
L 57.225317 128.956108 
L 56.090264 128.742315 
L 54.852024 127.458657 
L 53.843034 127.192086 
L 53.457793 126.883209 
L 25.530549 127.058645 
L -1 140.838747 
M -1 240.702253 
L 1.977466 244.335464 
L 20.21972 251.009372 
L 59.372528 266.994422 
L 74.947758 267.254625 
L 90.368273 248.548433 
L 91.090869 247.599053 
L 94.307977 243.667406 
L 101.611431 234.657267 
L 104.193624 234.654797 
L 105.528413 235.844134 
L 106.807091 237.278959 
L 108.157191 238.960412 
L 109.474759 240.285386 
L 111.122523 241.393675 
L 112.901625 242.091833 
L 115.989212 235.46309 
L 128.916222 236.193633 
L 130.389114 236.281996 
L 134.02575 238.171814 
L 133.156107 233.464628 
L 133.489026 231.506349 
L 135.439186 226.127948 
L 135.56315 223.166368 
L 136.285194 222.337309 
L 137.573345 221.432775 
L 138.095847 219.417551 
L 137.961858 218.236492 
L 138.157316 216.342763 
L 137.747146 214.082378 
L 138.107368 212.634941 
L 139.754588 209.954531 
L 140.393178 207.901883 
L 143.601463 205.777454 
L 148.608827 199.63547 
L 148.643877 196.972297 
L 149.185806 196.144063 
L 149.96068 195.985505 
L 151.224422 196.240052 
L 152.179489 195.549361 
L 152.415928 193.88422 
L 153.02804 193.318546 
L 154.095379 193.234722 
L 155.036691 193.192377 
L 156.44148 192.184614 
L 157.543864 190.311514 
L 158.414389 186.44153 
L 160.057569 182.423851 
L 162.134215 179.365505 
L 163.336976 176.924116 
L 165.807076 175.856603 
L 165.472575 175.570274 
L 165.195063 174.802639 
L 163.496523 175.682599 
L 163.365787 174.667075 
L 161.799281 174.562799 
L 161.761956 174.814935 
L 161.194847 174.547173 
L 160.651645 174.872887 
L 159.570272 174.560531 
L 158.794711 173.918212 
L 157.802175 173.833283 
L 157.519612 173.523894 
L 156.423492 173.528044 
L 154.996364 172.662533 
L 154.00982 171.148551 
L 152.172457 170.70557 
L 152.010684 170.447 
L 151.6272 170.575713 
L 151.475116 170.102022 
L 150.392708 169.713742 
L 149.163867 169.959266 
L 147.284271 167.038836 
L 146.418699 166.947569 
L 145.064042 168.483925 
L 142.138904 169.210083 
L 140.050633 168.000459 
L 137.378692 166.236661 
L 133.436209 168.118877 
L 126.932494 167.122119 
L 126.920972 165.150541 
L 120.284938 162.473441 
L 117.76652 158.685815 
L 118.92876 157.137471 
L 118.049385 156.134649 
L 110.951314 168.533964 
L 101.931852 178.824693 
L 92.524522 173.138193 
L 85.648955 168.890976 
" clip-path="url(#pd0064c1576)" style="fill: none; stroke: #8f8f8f; stroke-width: 0.2; stroke-linecap: square"/>
   </g>
   <g id="line2d_16">
    <path d="M 165.472575 175.570274 
L 169.551583 175.802499 
L 178.922954 180.792884 
L 179.343542 172.799069 
L 174.834297 165.078606 
L 165.205762 164.432742 
L 154.996364 172.662533 
L 156.423492 173.528044 
L 157.519612 173.523894 
L 157.802175 173.833283 
L 158.794711 173.918212 
L 159.570272 174.560531 
L 160.651645 174.872887 
L 161.194847 174.547173 
L 161.761956 174.814935 
L 161.799281 174.562799 
L 163.365787 174.667075 
L 163.496523 175.682599 
L 165.195063 174.802639 
L 165.472575 175.570274 
" clip-path="url(#pd0064c1576)" style="fill: none; stroke: #8f8f8f; stroke-width: 0.2; stroke-linecap: square"/>
   </g>
   <g id="line2d_17">
    <path d="M 148.493725 261.340473 
L 122.380356 262.930441 
L 123.039963 261.178983 
L 122.924965 259.243636 
L 123.756451 258.251009 
L 124.40934 257.707588 
L 124.578466 256.980915 
L 124.383929 255.911272 
L 125.179996 254.790134 
L 126.512367 252.796694 
L 127.432925 250.517709 
L 128.81552 249.495346 
L 129.448116 247.371858 
L 130.464506 243.136817 
L 130.503672 242.05992 
L 130.772897 241.085775 
L 133.331066 239.727106 
L 134.02575 238.171814 
L 133.156107 233.464628 
L 133.489026 231.506349 
L 135.439186 226.127948 
L 135.56315 223.166368 
L 136.285194 222.337309 
L 137.573345 221.432775 
L 138.095847 219.417551 
L 137.961858 218.236492 
L 138.157316 216.342763 
L 137.747146 214.082378 
L 137.747146 214.082378 
L 138.107368 212.634941 
L 139.754588 209.954531 
L 140.393178 207.901883 
L 143.601463 205.777454 
L 148.608827 199.63547 
L 148.643877 196.972297 
L 149.185806 196.144063 
L 149.96068 195.985505 
L 151.224422 196.240052 
L 152.179489 195.549361 
L 152.415928 193.88422 
L 153.02804 193.318546 
L 154.095379 193.234722 
L 155.036691 193.192377 
L 156.44148 192.184614 
L 157.543864 190.311514 
L 158.414389 186.44153 
L 160.057569 182.423851 
L 162.134215 179.365505 
L 163.336976 176.924116 
L 165.807076 175.856603 
L 165.472575 175.570274 
L 169.551583 175.802499 
L 178.922954 180.792884 
L 178.809148 192.288147 
L 148.493725 261.340473 
" clip-path="url(#pd0064c1576)" style="fill: none; stroke: #8f8f8f; stroke-width: 0.2; stroke-linecap: square"/>
   </g>
   <g id="line2d_18">
    <path d="M 200.19561 103.801952 
L 199.08071 116.10114 
L 196.114911 149.87392 
L 176.025143 149.41875 
L 179.307281 106.599886 
L 178.594078 105.783135 
L 181.991882 105.461062 
L 200.19561 103.801952 
" clip-path="url(#pd0064c1576)" style="fill: none; stroke: #8f8f8f; stroke-width: 0.2; stroke-linecap: square"/>
   </g>
   <g id="line2d_19">
    <path d="M 211.870362 101.723545 
L 217.618127 115.412858 
L 220.025528 121.126137 
L 219.440294 128.66107 
L 217.934017 148.30615 
L 214.368704 150.297618 
L 196.114911 149.87392 
L 199.08071 116.10114 
L 200.19561 103.801952 
L 211.870362 101.723545 
" clip-path="url(#pd0064c1576)" style="fill: none; stroke: #8f8f8f; stroke-width: 0.2; stroke-linecap: square"/>
   </g>
   <g id="line2d_20">
    <path d="M 200.19561 103.801952 
L 199.08071 116.10114 
L 196.114911 149.87392 
L 176.025143 149.41875 
L 179.307281 106.599886 
L 178.594078 105.783135 
L 181.991882 105.461062 
L 200.19561 103.801952 
" clip-path="url(#pd0064c1576)" style="fill: none; stroke: #8f8f8f; stroke-width: 0.2; stroke-linecap: square"/>
   </g>
   <g id="line2d_21">
    <path d="M 211.870362 101.723545 
L 217.618127 115.412858 
L 220.025528 121.126137 
L 219.440294 128.66107 
L 217.934017 148.30615 
L 214.368704 150.297618 
L 196.114911 149.87392 
L 199.08071 116.10114 
L 200.19561 103.801952 
L 211.870362 101.723545 
" clip-path="url(#pd0064c1576)" style="fill: none; stroke: #8f8f8f; stroke-width: 0.2; stroke-linecap: square"/>
   </g>
   <g id="line2d_22">
    <path d="M 178.594078 105.783135 
L 179.307281 106.599886 
L 176.025143 149.41875 
L 172.540394 149.353645 
L 163.016604 135.430679 
L 162.933469 116.822365 
L 161.368249 107.357757 
L 178.594078 105.783135 
" clip-path="url(#pd0064c1576)" style="fill: none; stroke: #8f8f8f; stroke-width: 0.2; stroke-linecap: square"/>
   </g>
   <g id="line2d_23">
    <path d="M 59.661889 108.473893 
L 94.365468 106.654798 
L 105.023396 103.484485 
L 119.89409 103.056199 
L 161.368249 107.357757 
L 162.933469 116.822365 
L 163.016604 135.430679 
L 172.540394 149.353645 
L 165.205762 164.432742 
L 154.996364 172.662533 
L 154.00982 171.148551 
L 152.172457 170.70557 
L 152.010684 170.447 
L 151.6272 170.575713 
L 151.475116 170.102022 
L 150.392708 169.713742 
L 149.163867 169.959266 
L 147.284271 167.038836 
L 146.418699 166.947569 
L 145.064042 168.483925 
L 142.138904 169.210083 
L 140.050633 168.000459 
L 137.378692 166.236661 
L 133.436209 168.118877 
L 126.932494 167.122119 
L 126.920972 165.150541 
L 120.284938 162.473441 
L 117.76652 158.685815 
L 118.92876 157.137471 
L 118.049385 156.134649 
L 115.012419 154.497764 
L 109.932134 155.574563 
L 109.62557 158.265767 
L 105.1719 161.050944 
L 96.56545 160.47299 
L 93.176426 157.003592 
L 91.626519 157.663713 
L 92.181078 159.404536 
L 89.468731 160.945357 
L 88.607352 153.273471 
L 82.514463 150.264624 
L 75.914104 151.081049 
L 77.177313 154.886546 
L 75.60187 157.168373 
L 72.352347 155.211391 
L 69.916644 155.626322 
L 68.488709 152.235619 
L 67.749884 150.471242 
L 66.768952 150.374408 
L 65.60641 146.34552 
L 64.702643 146.367851 
L 65.369783 144.298053 
L 64.194269 143.961008 
L 63.206413 142.675628 
L 60.174356 139.921117 
L 60.498815 139.170623 
L 58.616355 137.133867 
L 59.245056 136.335335 
L 60.192447 137.198192 
L 61.112831 135.530627 
L 59.801845 135.463931 
L 59.654121 133.716712 
L 58.285387 133.082437 
L 58.163875 132.91587 
L 60.461204 132.959456 
L 59.995756 118.936256 
L 59.661889 108.473893 
" clip-path="url(#pd0064c1576)" style="fill: none; stroke: #8f8f8f; stroke-width: 0.2; stroke-linecap: square"/>
   </g>
   <g id="line2d_24">
    <path d="M 178.594078 105.783135 
L 179.307281 106.599886 
L 176.025143 149.41875 
L 172.540394 149.353645 
L 163.016604 135.430679 
L 162.933469 116.822365 
L 161.368249 107.357757 
L 178.594078 105.783135 
" clip-path="url(#pd0064c1576)" style="fill: none; stroke: #8f8f8f; stroke-width: 0.2; stroke-linecap: square"/>
   </g>
   <g id="line2d_25">
    <path d="M 172.540394 149.353645 
L 176.025143 149.41875 
L 174.834297 165.078606 
L 173.199922 172.174529 
L 169.551583 175.802499 
L 165.472575 175.570274 
L 165.195063 174.802639 
L 163.496523 175.682599 
L 163.365787 174.667075 
L 161.799281 174.562799 
L 161.761956 174.814935 
L 161.194847 174.547173 
L 160.651645 174.872887 
L 159.570272 174.560531 
L 158.794711 173.918212 
L 157.802175 173.833283 
L 157.519612 173.523894 
L 156.423492 173.528044 
L 154.996364 172.662533 
L 165.205762 164.432742 
L 172.540394 149.353645 
" clip-path="url(#pd0064c1576)" style="fill: none; stroke: #8f8f8f; stroke-width: 0.2; stroke-linecap: square"/>
   </g>
   <g id="line2d_26">
    <path d="M 286.353914 175.839975 
L 291.11887 180.195798 
L 291.268619 205.548446 
L 288.008182 213.198427 
L 285.950166 218.102211 
L 279.336373 233.695505 
L 276.762187 239.785878 
L 253.904787 252.935792 
L 252.551646 253.730281 
L 223.490834 254.239742 
L 208.704236 254.433877 
L 195.412312 254.351941 
L 171.808153 254.398435 
L 164.760314 256.350042 
L 148.493725 261.340473 
L 178.809148 192.288147 
L 202.709054 210.540195 
L 206.64484 209.730629 
L 211.825081 208.710988 
L 261.926302 192.747927 
L 265.937909 189.972115 
L 286.353914 175.839975 
" clip-path="url(#pd0064c1576)" style="fill: none; stroke: #8f8f8f; stroke-width: 0.2; stroke-linecap: square"/>
   </g>
   <g id="line2d_27">
    <path d="M 148.493725 261.340473 
L 122.380356 262.930441 
L 123.039963 261.178983 
L 122.924965 259.243636 
L 123.756451 258.251009 
L 124.40934 257.707588 
L 124.578466 256.980915 
L 124.383929 255.911272 
L 125.179996 254.790134 
L 126.512367 252.796694 
L 127.432925 250.517709 
L 128.81552 249.495346 
L 129.448116 247.371858 
L 130.464506 243.136817 
L 130.503672 242.05992 
L 130.772897 241.085775 
L 133.331066 239.727106 
L 134.02575 238.171814 
L 133.156107 233.464628 
L 133.489026 231.506349 
L 135.439186 226.127948 
L 135.56315 223.166368 
L 136.285194 222.337309 
L 137.573345 221.432775 
L 138.095847 219.417551 
L 137.961858 218.236492 
L 138.157316 216.342763 
L 137.747146 214.082378 
L 138.107368 212.634941 
L 139.754588 209.954531 
L 140.393178 207.901883 
L 143.601463 205.777454 
L 148.608827 199.63547 
L 148.643877 196.972297 
L 149.185806 196.144063 
L 149.96068 195.985505 
L 151.224422 196.240052 
L 152.179489 195.549361 
L 152.415928 193.88422 
L 153.02804 193.318546 
L 154.095379 193.234722 
L 155.036691 193.192377 
L 156.44148 192.184614 
L 157.543864 190.311514 
L 158.414389 186.44153 
L 160.057569 182.423851 
L 162.134215 179.365505 
L 163.336976 176.924116 
L 165.807076 175.856603 
L 165.472575 175.570274 
L 169.551583 175.802499 
L 178.922954 180.792884 
L 178.809148 192.288147 
L 148.493725 261.340473 
" clip-path="url(#pd0064c1576)" style="fill: none; stroke: #8f8f8f; stroke-width: 0.2; stroke-linecap: square"/>
   </g>
   <g id="line2d_28">
    <path d="M 244.066848 144.943325 
L 265.674759 159.808383 
L 273.113077 165.567539 
L 286.353914 175.839975 
L 265.937909 189.972115 
L 261.926302 192.747927 
L 211.825081 208.710988 
L 206.64484 209.730629 
L 202.709054 210.540195 
L 178.809148 192.288147 
L 178.922954 180.792884 
L 179.343542 172.799069 
L 174.834297 165.078606 
L 176.025143 149.41875 
L 196.114911 149.87392 
L 214.368704 150.297618 
L 217.934017 148.30615 
L 219.653652 147.351366 
L 226.110944 146.707551 
L 244.066848 144.943325 
L 244.066848 144.943325 
" clip-path="url(#pd0064c1576)" style="fill: none; stroke: #ffc380; stroke-width: 0.5; stroke-linecap: square"/>
   </g>
   <g id="line2d_29">
    <path d="M 172.540394 149.353645 
L 176.025143 149.41875 
L 174.834297 165.078606 
L 165.205762 164.432742 
L 172.540394 149.353645 
L 172.540394 149.353645 
" clip-path="url(#pd0064c1576)" style="fill: none; stroke: #ffc380; stroke-width: 0.5; stroke-linecap: square"/>
   </g>
   <g id="line2d_30">
    <path d="M 174.834297 165.078606 
L 179.343542 172.799069 
L 178.922954 180.792884 
L 169.551583 175.802499 
L 173.199922 172.174529 
L 174.834297 165.078606 
L 174.834297 165.078606 
" clip-path="url(#pd0064c1576)" style="fill: none; stroke: #ffc380; stroke-width: 0.5; stroke-linecap: square"/>
   </g>
   <g id="line2d_31">
    <path d="M 303.000005 138.515805 
L 304.474546 145.589052 
L 310.550489 159.085172 
L 296.536999 168.78218 
L 286.353914 175.839975 
L 273.113077 165.567539 
L 265.674759 159.808383 
L 244.066848 144.943325 
L 257.079923 142.977103 
L 269.124704 144.83217 
L 287.282262 139.34236 
L 303.000005 138.515805 
L 303.000005 138.515805 
" clip-path="url(#pd0064c1576)" style="fill: none; stroke: #ffc380; stroke-width: 0.5; stroke-linecap: square"/>
   </g>
   <g id="line2d_32">
    <path d="M 174.834297 165.078606 
L 173.199922 172.174529 
L 169.551583 175.802499 
L 165.472575 175.570274 
L 165.195063 174.802639 
L 163.496523 175.682599 
L 163.365787 174.667075 
L 161.799281 174.562799 
L 161.761956 174.814935 
L 161.194847 174.547173 
L 160.651645 174.872887 
L 159.570272 174.560531 
L 158.794711 173.918212 
L 157.802175 173.833283 
L 157.519612 173.523894 
L 156.423492 173.528044 
L 154.996364 172.662533 
L 165.205762 164.432742 
L 174.834297 165.078606 
L 174.834297 165.078606 
" clip-path="url(#pd0064c1576)" style="fill: none; stroke: #ffc380; stroke-width: 0.5; stroke-linecap: square"/>
   </g>
   <g id="line2d_33">
    <path d="M 303.000005 138.515805 
L 317.323636 152.201937 
L 310.550489 159.085172 
L 304.474546 145.589052 
L 303.000005 138.515805 
L 303.000005 138.515805 
" clip-path="url(#pd0064c1576)" style="fill: none; stroke: #ffc380; stroke-width: 0.5; stroke-linecap: square"/>
   </g>
   <g id="text_1">
    <!-- DKB1 -->
    <g style="opacity: 0.5" transform="translate(265.577605 104.474385)scale(0.0579 -0.0579)">
     <defs>
      <path id="DejaVuSans-44" d="M 1259 4147 
L 1259 519 
L 2022 519 
Q 2988 519 3436 956 
Q 3884 1394 3884 2338 
Q 3884 3275 3436 3711 
Q 2988 4147 2022 4147 
L 1259 4147 
z
M 628 4666 
L 1925 4666 
Q 3281 4666 3915 4102 
Q 4550 3538 4550 2338 
Q 4550 1131 3912 565 
Q 3275 0 1925 0 
L 628 0 
L 628 4666 
z
" transform="scale(0.015625)"/>
      <path id="DejaVuSans-4b" d="M 628 4666 
L 1259 4666 
L 1259 2694 
L 3353 4666 
L 4166 4666 
L 1850 2491 
L 4331 0 
L 3500 0 
L 1259 2247 
L 1259 0 
L 628 0 
L 628 4666 
z
" transform="scale(0.015625)"/>
      <path id="DejaVuSans-42" d="M 1259 2228 
L 1259 519 
L 2272 519 
Q 2781 519 3026 730 
Q 3272 941 3272 1375 
Q 3272 1813 3026 2020 
Q 2781 2228 2272 2228 
L 1259 2228 
z
M 1259 4147 
L 1259 2741 
L 2194 2741 
Q 2656 2741 2882 2914 
Q 3109 3088 3109 3444 
Q 3109 3797 2882 3972 
Q 2656 4147 2194 4147 
L 1259 4147 
z
M 628 4666 
L 2241 4666 
Q 2963 4666 3353 4366 
Q 3744 4066 3744 3513 
Q 3744 3084 3544 2831 
Q 3344 2578 2956 2516 
Q 3422 2416 3680 2098 
Q 3938 1781 3938 1306 
Q 3938 681 3513 340 
Q 3088 0 2303 0 
L 628 0 
L 628 4666 
z
" transform="scale(0.015625)"/>
      <path id="DejaVuSans-31" d="M 794 531 
L 1825 531 
L 1825 4091 
L 703 3866 
L 703 4441 
L 1819 4666 
L 2450 4666 
L 2450 531 
L 3481 531 
L 3481 0 
L 794 0 
L 794 531 
z
" transform="scale(0.015625)"/>
     </defs>
     <use xlink:href="#DejaVuSans-44"/>
     <use xlink:href="#DejaVuSans-4b" x="77.001953"/>
     <use xlink:href="#DejaVuSans-42" x="142.578125"/>
     <use xlink:href="#DejaVuSans-31" x="211.181641"/>
    </g>
    <!-- 85 -->
    <g style="opacity: 0.5" transform="translate(269.849539 110.957919)scale(0.0579 -0.0579)">
     <defs>
      <path id="DejaVuSans-38" d="M 2034 2216 
Q 1584 2216 1326 1975 
Q 1069 1734 1069 1313 
Q 1069 891 1326 650 
Q 1584 409 2034 409 
Q 2484 409 2743 651 
Q 3003 894 3003 1313 
Q 3003 1734 2745 1975 
Q 2488 2216 2034 2216 
z
M 1403 2484 
Q 997 2584 770 2862 
Q 544 3141 544 3541 
Q 544 4100 942 4425 
Q 1341 4750 2034 4750 
Q 2731 4750 3128 4425 
Q 3525 4100 3525 3541 
Q 3525 3141 3298 2862 
Q 3072 2584 2669 2484 
Q 3125 2378 3379 2068 
Q 3634 1759 3634 1313 
Q 3634 634 3220 271 
Q 2806 -91 2034 -91 
Q 1263 -91 848 271 
Q 434 634 434 1313 
Q 434 1759 690 2068 
Q 947 2378 1403 2484 
z
M 1172 3481 
Q 1172 3119 1398 2916 
Q 1625 2713 2034 2713 
Q 2441 2713 2670 2916 
Q 2900 3119 2900 3481 
Q 2900 3844 2670 4047 
Q 2441 4250 2034 4250 
Q 1625 4250 1398 4047 
Q 1172 3844 1172 3481 
z
" transform="scale(0.015625)"/>
      <path id="DejaVuSans-35" d="M 691 4666 
L 3169 4666 
L 3169 4134 
L 1269 4134 
L 1269 2991 
Q 1406 3038 1543 3061 
Q 1681 3084 1819 3084 
Q 2600 3084 3056 2656 
Q 3513 2228 3513 1497 
Q 3513 744 3044 326 
Q 2575 -91 1722 -91 
Q 1428 -91 1123 -41 
Q 819 9 494 109 
L 494 744 
Q 775 591 1075 516 
Q 1375 441 1709 441 
Q 2250 441 2565 725 
Q 2881 1009 2881 1497 
Q 2881 1984 2565 2268 
Q 2250 2553 1709 2553 
Q 1456 2553 1204 2497 
Q 953 2441 691 2322 
L 691 4666 
z
" transform="scale(0.015625)"/>
     </defs>
     <use xlink:href="#DejaVuSans-38"/>
     <use xlink:href="#DejaVuSans-35" x="63.623047"/>
    </g>
    <!-- GND -->
    <g style="opacity: 0.5" transform="translate(266.895282 117.441452)scale(0.0579 -0.0579)">
     <defs>
      <path id="DejaVuSans-47" d="M 3809 666 
L 3809 1919 
L 2778 1919 
L 2778 2438 
L 4434 2438 
L 4434 434 
Q 4069 175 3628 42 
Q 3188 -91 2688 -91 
Q 1594 -91 976 548 
Q 359 1188 359 2328 
Q 359 3472 976 4111 
Q 1594 4750 2688 4750 
Q 3144 4750 3555 4637 
Q 3966 4525 4313 4306 
L 4313 3634 
Q 3963 3931 3569 4081 
Q 3175 4231 2741 4231 
Q 1884 4231 1454 3753 
Q 1025 3275 1025 2328 
Q 1025 1384 1454 906 
Q 1884 428 2741 428 
Q 3075 428 3337 486 
Q 3600 544 3809 666 
z
" transform="scale(0.015625)"/>
      <path id="DejaVuSans-4e" d="M 628 4666 
L 1478 4666 
L 3547 763 
L 3547 4666 
L 4159 4666 
L 4159 0 
L 3309 0 
L 1241 3903 
L 1241 0 
L 628 0 
L 628 4666 
z
" transform="scale(0.015625)"/>
     </defs>
     <use xlink:href="#DejaVuSans-47"/>
     <use xlink:href="#DejaVuSans-4e" x="77.490234"/>
     <use xlink:href="#DejaVuSans-44" x="152.294922"/>
    </g>
   </g>
   <g id="text_2">
    <!-- DKB2 -->
    <g style="opacity: 0.5" transform="translate(272.73942 152.292035)scale(0.0579 -0.0579)">
     <defs>
      <path id="DejaVuSans-32" d="M 1228 531 
L 3431 531 
L 3431 0 
L 469 0 
L 469 531 
Q 828 903 1448 1529 
Q 2069 2156 2228 2338 
Q 2531 2678 2651 2914 
Q 2772 3150 2772 3378 
Q 2772 3750 2511 3984 
Q 2250 4219 1831 4219 
Q 1534 4219 1204 4116 
Q 875 4013 500 3803 
L 500 4441 
Q 881 4594 1212 4672 
Q 1544 4750 1819 4750 
Q 2544 4750 2975 4387 
Q 3406 4025 3406 3419 
Q 3406 3131 3298 2873 
Q 3191 2616 2906 2266 
Q 2828 2175 2409 1742 
Q 1991 1309 1228 531 
z
" transform="scale(0.015625)"/>
     </defs>
     <use xlink:href="#DejaVuSans-44"/>
     <use xlink:href="#DejaVuSans-4b" x="77.001953"/>
     <use xlink:href="#DejaVuSans-42" x="142.578125"/>
     <use xlink:href="#DejaVuSans-32" x="211.181641"/>
    </g>
    <!-- 245 -->
    <g style="opacity: 0.5" transform="translate(275.169411 158.775568)scale(0.0579 -0.0579)">
     <defs>
      <path id="DejaVuSans-34" d="M 2419 4116 
L 825 1625 
L 2419 1625 
L 2419 4116 
z
M 2253 4666 
L 3047 4666 
L 3047 1625 
L 3713 1625 
L 3713 1100 
L 3047 1100 
L 3047 0 
L 2419 0 
L 2419 1100 
L 313 1100 
L 313 1709 
L 2253 4666 
z
" transform="scale(0.015625)"/>
     </defs>
     <use xlink:href="#DejaVuSans-32"/>
     <use xlink:href="#DejaVuSans-34" x="63.623047"/>
     <use xlink:href="#DejaVuSans-35" x="127.246094"/>
    </g>
    <!-- 105 -->
    <g style="opacity: 0.5" transform="translate(275.169411 165.259102)scale(0.0579 -0.0579)">
     <defs>
      <path id="DejaVuSans-30" d="M 2034 4250 
Q 1547 4250 1301 3770 
Q 1056 3291 1056 2328 
Q 1056 1369 1301 889 
Q 1547 409 2034 409 
Q 2525 409 2770 889 
Q 3016 1369 3016 2328 
Q 3016 3291 2770 3770 
Q 2525 4250 2034 4250 
z
M 2034 4750 
Q 2819 4750 3233 4129 
Q 3647 3509 3647 2328 
Q 3647 1150 3233 529 
Q 2819 -91 2034 -91 
Q 1250 -91 836 529 
Q 422 1150 422 2328 
Q 422 3509 836 4129 
Q 1250 4750 2034 4750 
z
" transform="scale(0.015625)"/>
     </defs>
     <use xlink:href="#DejaVuSans-31"/>
     <use xlink:href="#DejaVuSans-30" x="63.623047"/>
     <use xlink:href="#DejaVuSans-35" x="127.246094"/>
    </g>
   </g>
   <g id="text_3">
    <!-- DKB3 -->
    <g style="opacity: 0.5" transform="translate(265.577605 121.869559)scale(0.0579 -0.0579)">
     <defs>
      <path id="DejaVuSans-33" d="M 2597 2516 
Q 3050 2419 3304 2112 
Q 3559 1806 3559 1356 
Q 3559 666 3084 287 
Q 2609 -91 1734 -91 
Q 1441 -91 1130 -33 
Q 819 25 488 141 
L 488 750 
Q 750 597 1062 519 
Q 1375 441 1716 441 
Q 2309 441 2620 675 
Q 2931 909 2931 1356 
Q 2931 1769 2642 2001 
Q 2353 2234 1838 2234 
L 1294 2234 
L 1294 2753 
L 1863 2753 
Q 2328 2753 2575 2939 
Q 2822 3125 2822 3475 
Q 2822 3834 2567 4026 
Q 2313 4219 1838 4219 
Q 1578 4219 1281 4162 
Q 984 4106 628 3988 
L 628 4550 
Q 988 4650 1302 4700 
Q 1616 4750 1894 4750 
Q 2613 4750 3031 4423 
Q 3450 4097 3450 3541 
Q 3450 3153 3228 2886 
Q 3006 2619 2597 2516 
z
" transform="scale(0.015625)"/>
     </defs>
     <use xlink:href="#DejaVuSans-44"/>
     <use xlink:href="#DejaVuSans-4b" x="77.001953"/>
     <use xlink:href="#DejaVuSans-42" x="142.578125"/>
     <use xlink:href="#DejaVuSans-33" x="211.181641"/>
    </g>
    <!-- 245 -->
    <g style="opacity: 0.5" transform="translate(268.007595 128.353092)scale(0.0579 -0.0579)">
     <use xlink:href="#DejaVuSans-32"/>
     <use xlink:href="#DejaVuSans-34" x="63.623047"/>
     <use xlink:href="#DejaVuSans-35" x="127.246094"/>
    </g>
    <!-- 85 -->
    <g style="opacity: 0.5" transform="translate(269.849539 134.836626)scale(0.0579 -0.0579)">
     <use xlink:href="#DejaVuSans-38"/>
     <use xlink:href="#DejaVuSans-35" x="63.623047"/>
    </g>
   </g>
   <g id="text_4">
    <!-- EDMMFRKL -->
    <g style="opacity: 0.5" transform="translate(355.55368 73.528028)scale(0.0579 -0.0579)">
     <defs>
      <path id="DejaVuSans-45" d="M 628 4666 
L 3578 4666 
L 3578 4134 
L 1259 4134 
L 1259 2753 
L 3481 2753 
L 3481 2222 
L 1259 2222 
L 1259 531 
L 3634 531 
L 3634 0 
L 628 0 
L 628 4666 
z
" transform="scale(0.015625)"/>
      <path id="DejaVuSans-4d" d="M 628 4666 
L 1569 4666 
L 2759 1491 
L 3956 4666 
L 4897 4666 
L 4897 0 
L 4281 0 
L 4281 4097 
L 3078 897 
L 2444 897 
L 1241 4097 
L 1241 0 
L 628 0 
L 628 4666 
z
" transform="scale(0.015625)"/>
      <path id="DejaVuSans-46" d="M 628 4666 
L 3309 4666 
L 3309 4134 
L 1259 4134 
L 1259 2759 
L 3109 2759 
L 3109 2228 
L 1259 2228 
L 1259 0 
L 628 0 
L 628 4666 
z
" transform="scale(0.015625)"/>
      <path id="DejaVuSans-52" d="M 2841 2188 
Q 3044 2119 3236 1894 
Q 3428 1669 3622 1275 
L 4263 0 
L 3584 0 
L 2988 1197 
Q 2756 1666 2539 1819 
Q 2322 1972 1947 1972 
L 1259 1972 
L 1259 0 
L 628 0 
L 628 4666 
L 2053 4666 
Q 2853 4666 3247 4331 
Q 3641 3997 3641 3322 
Q 3641 2881 3436 2590 
Q 3231 2300 2841 2188 
z
M 1259 4147 
L 1259 2491 
L 2053 2491 
Q 2509 2491 2742 2702 
Q 2975 2913 2975 3322 
Q 2975 3731 2742 3939 
Q 2509 4147 2053 4147 
L 1259 4147 
z
" transform="scale(0.015625)"/>
      <path id="DejaVuSans-4c" d="M 628 4666 
L 1259 4666 
L 1259 531 
L 3531 531 
L 3531 0 
L 628 0 
L 628 4666 
z
" transform="scale(0.015625)"/>
     </defs>
     <use xlink:href="#DejaVuSans-45"/>
     <use xlink:href="#DejaVuSans-44" x="63.183594"/>
     <use xlink:href="#DejaVuSans-4d" x="140.185547"/>
     <use xlink:href="#DejaVuSans-4d" x="226.464844"/>
     <use xlink:href="#DejaVuSans-46" x="312.744141"/>
     <use xlink:href="#DejaVuSans-52" x="370.263672"/>
     <use xlink:href="#DejaVuSans-4b" x="439.746094"/>
     <use xlink:href="#DejaVuSans-4c" x="505.322266"/>
    </g>
    <!-- 135 -->
    <g style="opacity: 0.5" transform="translate(366.270156 80.011561)scale(0.0579 -0.0579)">
     <use xlink:href="#DejaVuSans-31"/>
     <use xlink:href="#DejaVuSans-33" x="63.623047"/>
     <use xlink:href="#DejaVuSans-35" x="127.246094"/>
    </g>
    <!-- GND -->
    <g style="opacity: 0.5" transform="translate(365.157843 86.495095)scale(0.0579 -0.0579)">
     <use xlink:href="#DejaVuSans-47"/>
     <use xlink:href="#DejaVuSans-4e" x="77.490234"/>
     <use xlink:href="#DejaVuSans-44" x="152.294922"/>
    </g>
   </g>
   <g id="text_5">
    <!-- EDMMNDG -->
    <g style="opacity: 0.5" transform="translate(320.368787 216.306142)scale(0.0579 -0.0579)">
     <use xlink:href="#DejaVuSans-45"/>
     <use xlink:href="#DejaVuSans-44" x="63.183594"/>
     <use xlink:href="#DejaVuSans-4d" x="140.185547"/>
     <use xlink:href="#DejaVuSans-4d" x="226.464844"/>
     <use xlink:href="#DejaVuSans-4e" x="312.744141"/>
     <use xlink:href="#DejaVuSans-44" x="387.548828"/>
     <use xlink:href="#DejaVuSans-47" x="464.550781"/>
    </g>
    <!-- 145 -->
    <g style="opacity: 0.5" transform="translate(330.535213 222.789675)scale(0.0579 -0.0579)">
     <use xlink:href="#DejaVuSans-31"/>
     <use xlink:href="#DejaVuSans-34" x="63.623047"/>
     <use xlink:href="#DejaVuSans-35" x="127.246094"/>
    </g>
    <!-- 105 -->
    <g style="opacity: 0.5" transform="translate(330.535213 229.273209)scale(0.0579 -0.0579)">
     <use xlink:href="#DejaVuSans-31"/>
     <use xlink:href="#DejaVuSans-30" x="63.623047"/>
     <use xlink:href="#DejaVuSans-35" x="127.246094"/>
    </g>
   </g>
   <g id="text_6">
    <!-- EDMMWLD -->
    <g style="opacity: 0.5" transform="translate(315.87354 174.229985)scale(0.0579 -0.0579)">
     <defs>
      <path id="DejaVuSans-57" d="M 213 4666 
L 850 4666 
L 1831 722 
L 2809 4666 
L 3519 4666 
L 4500 722 
L 5478 4666 
L 6119 4666 
L 4947 0 
L 4153 0 
L 3169 4050 
L 2175 0 
L 1381 0 
L 213 4666 
z
" transform="scale(0.015625)"/>
     </defs>
     <use xlink:href="#DejaVuSans-45"/>
     <use xlink:href="#DejaVuSans-44" x="63.183594"/>
     <use xlink:href="#DejaVuSans-4d" x="140.185547"/>
     <use xlink:href="#DejaVuSans-4d" x="226.464844"/>
     <use xlink:href="#DejaVuSans-57" x="312.744141"/>
     <use xlink:href="#DejaVuSans-4c" x="411.621094"/>
     <use xlink:href="#DejaVuSans-44" x="467.333984"/>
    </g>
    <!-- 105 -->
    <g style="opacity: 0.5" transform="translate(326.106461 180.713518)scale(0.0579 -0.0579)">
     <use xlink:href="#DejaVuSans-31"/>
     <use xlink:href="#DejaVuSans-30" x="63.623047"/>
     <use xlink:href="#DejaVuSans-35" x="127.246094"/>
    </g>
    <!-- GND -->
    <g style="opacity: 0.5" transform="translate(324.994147 187.197051)scale(0.0579 -0.0579)">
     <use xlink:href="#DejaVuSans-47"/>
     <use xlink:href="#DejaVuSans-4e" x="77.490234"/>
     <use xlink:href="#DejaVuSans-44" x="152.294922"/>
    </g>
   </g>
   <g id="text_7">
    <!-- KNG1 -->
    <g style="opacity: 0.5" transform="translate(230.802746 117.095415)scale(0.0579 -0.0579)">
     <use xlink:href="#DejaVuSans-4b"/>
     <use xlink:href="#DejaVuSans-4e" x="65.576172"/>
     <use xlink:href="#DejaVuSans-47" x="140.380859"/>
     <use xlink:href="#DejaVuSans-31" x="217.871094"/>
    </g>
    <!-- 245 -->
    <g style="opacity: 0.5" transform="translate(233.42634 123.578949)scale(0.0579 -0.0579)">
     <use xlink:href="#DejaVuSans-32"/>
     <use xlink:href="#DejaVuSans-34" x="63.623047"/>
     <use xlink:href="#DejaVuSans-35" x="127.246094"/>
    </g>
    <!-- GND -->
    <g style="opacity: 0.5" transform="translate(232.314026 130.062482)scale(0.0579 -0.0579)">
     <use xlink:href="#DejaVuSans-47"/>
     <use xlink:href="#DejaVuSans-4e" x="77.490234"/>
     <use xlink:href="#DejaVuSans-44" x="152.294922"/>
    </g>
   </g>
   <g id="text_8">
    <!-- KNG7 -->
    <g style="opacity: 0.5" transform="translate(213.873055 133.597755)scale(0.0579 -0.0579)">
     <defs>
      <path id="DejaVuSans-37" d="M 525 4666 
L 3525 4666 
L 3525 4397 
L 1831 0 
L 1172 0 
L 2766 4134 
L 525 4134 
L 525 4666 
z
" transform="scale(0.015625)"/>
     </defs>
     <use xlink:href="#DejaVuSans-4b"/>
     <use xlink:href="#DejaVuSans-4e" x="65.576172"/>
     <use xlink:href="#DejaVuSans-47" x="140.380859"/>
     <use xlink:href="#DejaVuSans-37" x="217.871094"/>
    </g>
    <!-- 215 -->
    <g style="opacity: 0.5" transform="translate(216.496649 140.081288)scale(0.0579 -0.0579)">
     <use xlink:href="#DejaVuSans-32"/>
     <use xlink:href="#DejaVuSans-31" x="63.623047"/>
     <use xlink:href="#DejaVuSans-35" x="127.246094"/>
    </g>
    <!-- GND -->
    <g style="opacity: 0.5" transform="translate(215.384336 146.564822)scale(0.0579 -0.0579)">
     <use xlink:href="#DejaVuSans-47"/>
     <use xlink:href="#DejaVuSans-4e" x="77.490234"/>
     <use xlink:href="#DejaVuSans-44" x="152.294922"/>
    </g>
   </g>
   <g id="text_9">
    <!-- LFST_SIV -->
    <g style="opacity: 0.5" transform="translate(41.792436 192.05143)scale(0.0579 -0.0579)">
     <defs>
      <path id="DejaVuSans-53" d="M 3425 4513 
L 3425 3897 
Q 3066 4069 2747 4153 
Q 2428 4238 2131 4238 
Q 1616 4238 1336 4038 
Q 1056 3838 1056 3469 
Q 1056 3159 1242 3001 
Q 1428 2844 1947 2747 
L 2328 2669 
Q 3034 2534 3370 2195 
Q 3706 1856 3706 1288 
Q 3706 609 3251 259 
Q 2797 -91 1919 -91 
Q 1588 -91 1214 -16 
Q 841 59 441 206 
L 441 856 
Q 825 641 1194 531 
Q 1563 422 1919 422 
Q 2459 422 2753 634 
Q 3047 847 3047 1241 
Q 3047 1584 2836 1778 
Q 2625 1972 2144 2069 
L 1759 2144 
Q 1053 2284 737 2584 
Q 422 2884 422 3419 
Q 422 4038 858 4394 
Q 1294 4750 2059 4750 
Q 2388 4750 2728 4690 
Q 3069 4631 3425 4513 
z
" transform="scale(0.015625)"/>
      <path id="DejaVuSans-54" d="M -19 4666 
L 3928 4666 
L 3928 4134 
L 2272 4134 
L 2272 0 
L 1638 0 
L 1638 4134 
L -19 4134 
L -19 4666 
z
" transform="scale(0.015625)"/>
      <path id="DejaVuSans-5f" d="M 3263 -1063 
L 3263 -1509 
L -63 -1509 
L -63 -1063 
L 3263 -1063 
z
" transform="scale(0.015625)"/>
      <path id="DejaVuSans-49" d="M 628 4666 
L 1259 4666 
L 1259 0 
L 628 0 
L 628 4666 
z
" transform="scale(0.015625)"/>
      <path id="DejaVuSans-56" d="M 1831 0 
L 50 4666 
L 709 4666 
L 2188 738 
L 3669 4666 
L 4325 4666 
L 2547 0 
L 1831 0 
z
" transform="scale(0.015625)"/>
     </defs>
     <use xlink:href="#DejaVuSans-4c"/>
     <use xlink:href="#DejaVuSans-46" x="55.712891"/>
     <use xlink:href="#DejaVuSans-53" x="111.482422"/>
     <use xlink:href="#DejaVuSans-54" x="174.958984"/>
     <use xlink:href="#DejaVuSans-5f" x="236.042969"/>
     <use xlink:href="#DejaVuSans-53" x="286.042969"/>
     <use xlink:href="#DejaVuSans-49" x="349.519531"/>
     <use xlink:href="#DejaVuSans-56" x="379.011719"/>
    </g>
    <!-- 145 -->
    <g style="opacity: 0.5" transform="translate(49.219921 198.695998)scale(0.0579 -0.0579)">
     <use xlink:href="#DejaVuSans-31"/>
     <use xlink:href="#DejaVuSans-34" x="63.623047"/>
     <use xlink:href="#DejaVuSans-35" x="127.246094"/>
    </g>
    <!-- GND -->
    <g style="opacity: 0.5" transform="translate(48.107607 205.179531)scale(0.0579 -0.0579)">
     <use xlink:href="#DejaVuSans-47"/>
     <use xlink:href="#DejaVuSans-4e" x="77.490234"/>
     <use xlink:href="#DejaVuSans-44" x="152.294922"/>
    </g>
   </g>
   <g id="text_10">
    <!-- LFST_TMA -->
    <g style="opacity: 0.5" transform="translate(152.642481 167.595326)scale(0.0579 -0.0579)">
     <defs>
      <path id="DejaVuSans-41" d="M 2188 4044 
L 1331 1722 
L 3047 1722 
L 2188 4044 
z
M 1831 4666 
L 2547 4666 
L 4325 0 
L 3669 0 
L 3244 1197 
L 1141 1197 
L 716 0 
L 50 0 
L 1831 4666 
z
" transform="scale(0.015625)"/>
     </defs>
     <use xlink:href="#DejaVuSans-4c"/>
     <use xlink:href="#DejaVuSans-46" x="55.712891"/>
     <use xlink:href="#DejaVuSans-53" x="111.482422"/>
     <use xlink:href="#DejaVuSans-54" x="174.958984"/>
     <use xlink:href="#DejaVuSans-5f" x="236.042969"/>
     <use xlink:href="#DejaVuSans-54" x="286.042969"/>
     <use xlink:href="#DejaVuSans-4d" x="347.126953"/>
     <use xlink:href="#DejaVuSans-41" x="433.40625"/>
    </g>
    <!-- 75 -->
    <g style="opacity: 0.5" transform="translate(163.486065 174.239893)scale(0.0579 -0.0579)">
     <use xlink:href="#DejaVuSans-37"/>
     <use xlink:href="#DejaVuSans-35" x="63.623047"/>
    </g>
    <!-- GND -->
    <g style="opacity: 0.5" transform="translate(160.531808 180.723427)scale(0.0579 -0.0579)">
     <use xlink:href="#DejaVuSans-47"/>
     <use xlink:href="#DejaVuSans-4e" x="77.490234"/>
     <use xlink:href="#DejaVuSans-44" x="152.294922"/>
    </g>
   </g>
   <g id="text_11">
    <!-- LFST_TMA_0.2 -->
    <g style="opacity: 0.5" transform="translate(130.072728 214.23287)scale(0.0579 -0.0579)">
     <defs>
      <path id="DejaVuSans-2e" d="M 684 794 
L 1344 794 
L 1344 0 
L 684 0 
L 684 794 
z
" transform="scale(0.015625)"/>
     </defs>
     <use xlink:href="#DejaVuSans-4c"/>
     <use xlink:href="#DejaVuSans-46" x="55.712891"/>
     <use xlink:href="#DejaVuSans-53" x="111.482422"/>
     <use xlink:href="#DejaVuSans-54" x="174.958984"/>
     <use xlink:href="#DejaVuSans-5f" x="236.042969"/>
     <use xlink:href="#DejaVuSans-54" x="286.042969"/>
     <use xlink:href="#DejaVuSans-4d" x="347.126953"/>
     <use xlink:href="#DejaVuSans-41" x="433.40625"/>
     <use xlink:href="#DejaVuSans-5f" x="501.814453"/>
     <use xlink:href="#DejaVuSans-30" x="551.814453"/>
     <use xlink:href="#DejaVuSans-2e" x="615.4375"/>
     <use xlink:href="#DejaVuSans-32" x="647.224609"/>
    </g>
    <!-- 95 -->
    <g style="opacity: 0.5" transform="translate(146.967768 220.877438)scale(0.0579 -0.0579)">
     <defs>
      <path id="DejaVuSans-39" d="M 703 97 
L 703 672 
Q 941 559 1184 500 
Q 1428 441 1663 441 
Q 2288 441 2617 861 
Q 2947 1281 2994 2138 
Q 2813 1869 2534 1725 
Q 2256 1581 1919 1581 
Q 1219 1581 811 2004 
Q 403 2428 403 3163 
Q 403 3881 828 4315 
Q 1253 4750 1959 4750 
Q 2769 4750 3195 4129 
Q 3622 3509 3622 2328 
Q 3622 1225 3098 567 
Q 2575 -91 1691 -91 
Q 1453 -91 1209 -44 
Q 966 3 703 97 
z
M 1959 2075 
Q 2384 2075 2632 2365 
Q 2881 2656 2881 3163 
Q 2881 3666 2632 3958 
Q 2384 4250 1959 4250 
Q 1534 4250 1286 3958 
Q 1038 3666 1038 3163 
Q 1038 2656 1286 2365 
Q 1534 2075 1959 2075 
z
" transform="scale(0.015625)"/>
     </defs>
     <use xlink:href="#DejaVuSans-39"/>
     <use xlink:href="#DejaVuSans-35" x="63.623047"/>
    </g>
    <!-- GND -->
    <g style="opacity: 0.5" transform="translate(144.01351 227.360971)scale(0.0579 -0.0579)">
     <use xlink:href="#DejaVuSans-47"/>
     <use xlink:href="#DejaVuSans-4e" x="77.490234"/>
     <use xlink:href="#DejaVuSans-44" x="152.294922"/>
    </g>
   </g>
   <g id="text_12">
    <!-- NKRH1 -->
    <g style="opacity: 0.5" transform="translate(178.015421 121.952081)scale(0.0579 -0.0579)">
     <defs>
      <path id="DejaVuSans-48" d="M 628 4666 
L 1259 4666 
L 1259 2753 
L 3553 2753 
L 3553 4666 
L 4184 4666 
L 4184 0 
L 3553 0 
L 3553 2222 
L 1259 2222 
L 1259 0 
L 628 0 
L 628 4666 
z
" transform="scale(0.015625)"/>
     </defs>
     <use xlink:href="#DejaVuSans-4e"/>
     <use xlink:href="#DejaVuSans-4b" x="74.804688"/>
     <use xlink:href="#DejaVuSans-52" x="140.380859"/>
     <use xlink:href="#DejaVuSans-48" x="209.863281"/>
     <use xlink:href="#DejaVuSans-31" x="285.058594"/>
    </g>
    <!-- 245 -->
    <g style="opacity: 0.5" transform="translate(182.584545 128.435614)scale(0.0579 -0.0579)">
     <use xlink:href="#DejaVuSans-32"/>
     <use xlink:href="#DejaVuSans-34" x="63.623047"/>
     <use xlink:href="#DejaVuSans-35" x="127.246094"/>
    </g>
    <!-- 75 -->
    <g style="opacity: 0.5" transform="translate(184.426489 134.919148)scale(0.0579 -0.0579)">
     <use xlink:href="#DejaVuSans-37"/>
     <use xlink:href="#DejaVuSans-35" x="63.623047"/>
    </g>
   </g>
   <g id="text_13">
    <!-- NKRH5 -->
    <g style="opacity: 0.5" transform="translate(197.975264 121.124726)scale(0.0579 -0.0579)">
     <use xlink:href="#DejaVuSans-4e"/>
     <use xlink:href="#DejaVuSans-4b" x="74.804688"/>
     <use xlink:href="#DejaVuSans-52" x="140.380859"/>
     <use xlink:href="#DejaVuSans-48" x="209.863281"/>
     <use xlink:href="#DejaVuSans-35" x="285.058594"/>
    </g>
    <!-- 245 -->
    <g style="opacity: 0.5" transform="translate(202.544389 127.60826)scale(0.0579 -0.0579)">
     <use xlink:href="#DejaVuSans-32"/>
     <use xlink:href="#DejaVuSans-34" x="63.623047"/>
     <use xlink:href="#DejaVuSans-35" x="127.246094"/>
    </g>
    <!-- 115 -->
    <g style="opacity: 0.5" transform="translate(202.544389 134.091793)scale(0.0579 -0.0579)">
     <use xlink:href="#DejaVuSans-31"/>
     <use xlink:href="#DejaVuSans-31" x="63.623047"/>
     <use xlink:href="#DejaVuSans-35" x="127.246094"/>
    </g>
   </g>
   <g id="text_14">
    <!-- NKRL1 -->
    <g style="opacity: 0.5" transform="translate(178.579494 121.952081)scale(0.0579 -0.0579)">
     <use xlink:href="#DejaVuSans-4e"/>
     <use xlink:href="#DejaVuSans-4b" x="74.804688"/>
     <use xlink:href="#DejaVuSans-52" x="140.380859"/>
     <use xlink:href="#DejaVuSans-4c" x="209.863281"/>
     <use xlink:href="#DejaVuSans-31" x="265.576172"/>
    </g>
    <!-- 75 -->
    <g style="opacity: 0.5" transform="translate(184.426489 128.435614)scale(0.0579 -0.0579)">
     <use xlink:href="#DejaVuSans-37"/>
     <use xlink:href="#DejaVuSans-35" x="63.623047"/>
    </g>
    <!-- GND -->
    <g style="opacity: 0.5" transform="translate(181.472232 134.919148)scale(0.0579 -0.0579)">
     <use xlink:href="#DejaVuSans-47"/>
     <use xlink:href="#DejaVuSans-4e" x="77.490234"/>
     <use xlink:href="#DejaVuSans-44" x="152.294922"/>
    </g>
   </g>
   <g id="text_15">
    <!-- NKRL2 -->
    <g style="opacity: 0.5" transform="translate(198.539337 121.124726)scale(0.0579 -0.0579)">
     <use xlink:href="#DejaVuSans-4e"/>
     <use xlink:href="#DejaVuSans-4b" x="74.804688"/>
     <use xlink:href="#DejaVuSans-52" x="140.380859"/>
     <use xlink:href="#DejaVuSans-4c" x="209.863281"/>
     <use xlink:href="#DejaVuSans-32" x="265.576172"/>
    </g>
    <!-- 115 -->
    <g style="opacity: 0.5" transform="translate(202.544389 127.60826)scale(0.0579 -0.0579)">
     <use xlink:href="#DejaVuSans-31"/>
     <use xlink:href="#DejaVuSans-31" x="63.623047"/>
     <use xlink:href="#DejaVuSans-35" x="127.246094"/>
    </g>
    <!-- GND -->
    <g style="opacity: 0.5" transform="translate(201.432075 134.091793)scale(0.0579 -0.0579)">
     <use xlink:href="#DejaVuSans-47"/>
     <use xlink:href="#DejaVuSans-4e" x="77.490234"/>
     <use xlink:href="#DejaVuSans-44" x="152.294922"/>
    </g>
   </g>
   <g id="text_16">
    <!-- NKRL3 -->
    <g style="opacity: 0.5" transform="translate(160.806882 122.715087)scale(0.0579 -0.0579)">
     <use xlink:href="#DejaVuSans-4e"/>
     <use xlink:href="#DejaVuSans-4b" x="74.804688"/>
     <use xlink:href="#DejaVuSans-52" x="140.380859"/>
     <use xlink:href="#DejaVuSans-4c" x="209.863281"/>
     <use xlink:href="#DejaVuSans-33" x="265.576172"/>
    </g>
    <!-- 55 -->
    <g style="opacity: 0.5" transform="translate(166.653878 129.19862)scale(0.0579 -0.0579)">
     <use xlink:href="#DejaVuSans-35"/>
     <use xlink:href="#DejaVuSans-35" x="63.623047"/>
    </g>
    <!-- GND -->
    <g style="opacity: 0.5" transform="translate(163.699621 135.682154)scale(0.0579 -0.0579)">
     <use xlink:href="#DejaVuSans-47"/>
     <use xlink:href="#DejaVuSans-4e" x="77.490234"/>
     <use xlink:href="#DejaVuSans-44" x="152.294922"/>
    </g>
   </g>
   <g id="text_17">
    <!-- PFA1 -->
    <g style="opacity: 0.5" transform="translate(108.383327 132.973511)scale(0.0579 -0.0579)">
     <defs>
      <path id="DejaVuSans-50" d="M 1259 4147 
L 1259 2394 
L 2053 2394 
Q 2494 2394 2734 2622 
Q 2975 2850 2975 3272 
Q 2975 3691 2734 3919 
Q 2494 4147 2053 4147 
L 1259 4147 
z
M 628 4666 
L 2053 4666 
Q 2838 4666 3239 4311 
Q 3641 3956 3641 3272 
Q 3641 2581 3239 2228 
Q 2838 1875 2053 1875 
L 1259 1875 
L 1259 0 
L 628 0 
L 628 4666 
z
" transform="scale(0.015625)"/>
     </defs>
     <use xlink:href="#DejaVuSans-50"/>
     <use xlink:href="#DejaVuSans-46" x="60.302734"/>
     <use xlink:href="#DejaVuSans-41" x="108.697266"/>
     <use xlink:href="#DejaVuSans-31" x="177.105469"/>
    </g>
    <!-- 245 -->
    <g style="opacity: 0.5" transform="translate(109.826303 139.457044)scale(0.0579 -0.0579)">
     <use xlink:href="#DejaVuSans-32"/>
     <use xlink:href="#DejaVuSans-34" x="63.623047"/>
     <use xlink:href="#DejaVuSans-35" x="127.246094"/>
    </g>
    <!-- GND -->
    <g style="opacity: 0.5" transform="translate(108.71399 145.940577)scale(0.0579 -0.0579)">
     <use xlink:href="#DejaVuSans-47"/>
     <use xlink:href="#DejaVuSans-4e" x="77.490234"/>
     <use xlink:href="#DejaVuSans-44" x="152.294922"/>
    </g>
   </g>
   <g id="text_18">
    <!-- PFA3 -->
    <g style="opacity: 0.5" transform="translate(163.368957 122.715087)scale(0.0579 -0.0579)">
     <use xlink:href="#DejaVuSans-50"/>
     <use xlink:href="#DejaVuSans-46" x="60.302734"/>
     <use xlink:href="#DejaVuSans-41" x="108.697266"/>
     <use xlink:href="#DejaVuSans-33" x="177.105469"/>
    </g>
    <!-- 245 -->
    <g style="opacity: 0.5" transform="translate(164.811934 129.19862)scale(0.0579 -0.0579)">
     <use xlink:href="#DejaVuSans-32"/>
     <use xlink:href="#DejaVuSans-34" x="63.623047"/>
     <use xlink:href="#DejaVuSans-35" x="127.246094"/>
    </g>
    <!-- 55 -->
    <g style="opacity: 0.5" transform="translate(166.653878 135.682154)scale(0.0579 -0.0579)">
     <use xlink:href="#DejaVuSans-35"/>
     <use xlink:href="#DejaVuSans-35" x="63.623047"/>
    </g>
   </g>
   <g id="text_19">
    <!-- PFA4 -->
    <g style="opacity: 0.5" transform="translate(158.541946 157.692217)scale(0.0579 -0.0579)">
     <use xlink:href="#DejaVuSans-50"/>
     <use xlink:href="#DejaVuSans-46" x="60.302734"/>
     <use xlink:href="#DejaVuSans-41" x="108.697266"/>
     <use xlink:href="#DejaVuSans-34" x="177.105469"/>
    </g>
    <!-- 245 -->
    <g style="opacity: 0.5" transform="translate(159.984922 164.17575)scale(0.0579 -0.0579)">
     <use xlink:href="#DejaVuSans-32"/>
     <use xlink:href="#DejaVuSans-34" x="63.623047"/>
     <use xlink:href="#DejaVuSans-35" x="127.246094"/>
    </g>
    <!-- 95 -->
    <g style="opacity: 0.5" transform="translate(161.826866 170.659283)scale(0.0579 -0.0579)">
     <use xlink:href="#DejaVuSans-39"/>
     <use xlink:href="#DejaVuSans-35" x="63.623047"/>
    </g>
   </g>
   <g id="text_20">
    <!-- REU1 -->
    <g style="opacity: 0.5" transform="translate(212.0796 213.704369)scale(0.0579 -0.0579)">
     <defs>
      <path id="DejaVuSans-55" d="M 556 4666 
L 1191 4666 
L 1191 1831 
Q 1191 1081 1462 751 
Q 1734 422 2344 422 
Q 2950 422 3222 751 
Q 3494 1081 3494 1831 
L 3494 4666 
L 4128 4666 
L 4128 1753 
Q 4128 841 3676 375 
Q 3225 -91 2344 -91 
Q 1459 -91 1007 375 
Q 556 841 556 1753 
L 556 4666 
z
" transform="scale(0.015625)"/>
     </defs>
     <use xlink:href="#DejaVuSans-52"/>
     <use xlink:href="#DejaVuSans-45" x="69.482422"/>
     <use xlink:href="#DejaVuSans-55" x="132.666016"/>
     <use xlink:href="#DejaVuSans-31" x="205.859375"/>
    </g>
    <!-- 145 -->
    <g style="opacity: 0.5" transform="translate(214.355341 220.187902)scale(0.0579 -0.0579)">
     <use xlink:href="#DejaVuSans-31"/>
     <use xlink:href="#DejaVuSans-34" x="63.623047"/>
     <use xlink:href="#DejaVuSans-35" x="127.246094"/>
    </g>
    <!-- GND -->
    <g style="opacity: 0.5" transform="translate(213.243028 226.671435)scale(0.0579 -0.0579)">
     <use xlink:href="#DejaVuSans-47"/>
     <use xlink:href="#DejaVuSans-4e" x="77.490234"/>
     <use xlink:href="#DejaVuSans-44" x="152.294922"/>
    </g>
   </g>
   <g id="text_21">
    <!-- REU2 -->
    <g style="opacity: 0.5" transform="translate(142.850082 214.364502)scale(0.0579 -0.0579)">
     <use xlink:href="#DejaVuSans-52"/>
     <use xlink:href="#DejaVuSans-45" x="69.482422"/>
     <use xlink:href="#DejaVuSans-55" x="132.666016"/>
     <use xlink:href="#DejaVuSans-32" x="205.859375"/>
    </g>
    <!-- 145 -->
    <g style="opacity: 0.5" transform="translate(145.125824 220.848036)scale(0.0579 -0.0579)">
     <use xlink:href="#DejaVuSans-31"/>
     <use xlink:href="#DejaVuSans-34" x="63.623047"/>
     <use xlink:href="#DejaVuSans-35" x="127.246094"/>
    </g>
    <!-- 95 -->
    <g style="opacity: 0.5" transform="translate(146.967768 227.331569)scale(0.0579 -0.0579)">
     <use xlink:href="#DejaVuSans-39"/>
     <use xlink:href="#DejaVuSans-35" x="63.623047"/>
    </g>
   </g>
   <g id="text_22">
    <!-- STG1 -->
    <g transform="translate(222.902905 172.855905)scale(0.0579 -0.0579)">
     <use xlink:href="#DejaVuSans-53"/>
     <use xlink:href="#DejaVuSans-54" x="63.476562"/>
     <use xlink:href="#DejaVuSans-47" x="124.560547"/>
     <use xlink:href="#DejaVuSans-31" x="202.050781"/>
    </g>
    <!-- 145 -->
    <g transform="translate(225.068275 179.339438)scale(0.0579 -0.0579)">
     <use xlink:href="#DejaVuSans-31"/>
     <use xlink:href="#DejaVuSans-34" x="63.623047"/>
     <use xlink:href="#DejaVuSans-35" x="127.246094"/>
    </g>
    <!-- GND -->
    <g transform="translate(223.955961 185.822972)scale(0.0579 -0.0579)">
     <use xlink:href="#DejaVuSans-47"/>
     <use xlink:href="#DejaVuSans-4e" x="77.490234"/>
     <use xlink:href="#DejaVuSans-44" x="152.294922"/>
    </g>
   </g>
   <g id="text_23">
    <!-- STG2 -->
    <g transform="translate(162.924252 152.33027)scale(0.0579 -0.0579)">
     <use xlink:href="#DejaVuSans-53"/>
     <use xlink:href="#DejaVuSans-54" x="63.476562"/>
     <use xlink:href="#DejaVuSans-47" x="124.560547"/>
     <use xlink:href="#DejaVuSans-32" x="202.050781"/>
    </g>
    <!-- 95 -->
    <g transform="translate(166.931565 158.813803)scale(0.0579 -0.0579)">
     <use xlink:href="#DejaVuSans-39"/>
     <use xlink:href="#DejaVuSans-35" x="63.623047"/>
    </g>
    <!-- GND -->
    <g transform="translate(163.977308 165.297337)scale(0.0579 -0.0579)">
     <use xlink:href="#DejaVuSans-47"/>
     <use xlink:href="#DejaVuSans-4e" x="77.490234"/>
     <use xlink:href="#DejaVuSans-44" x="152.294922"/>
    </g>
   </g>
   <g id="text_24">
    <!-- STG3 -->
    <g transform="translate(166.756361 168.049889)scale(0.0579 -0.0579)">
     <use xlink:href="#DejaVuSans-53"/>
     <use xlink:href="#DejaVuSans-54" x="63.476562"/>
     <use xlink:href="#DejaVuSans-47" x="124.560547"/>
     <use xlink:href="#DejaVuSans-33" x="202.050781"/>
    </g>
    <!-- 145 -->
    <g transform="translate(168.921731 174.533423)scale(0.0579 -0.0579)">
     <use xlink:href="#DejaVuSans-31"/>
     <use xlink:href="#DejaVuSans-34" x="63.623047"/>
     <use xlink:href="#DejaVuSans-35" x="127.246094"/>
    </g>
    <!-- 75 -->
    <g transform="translate(170.763675 181.016956)scale(0.0579 -0.0579)">
     <use xlink:href="#DejaVuSans-37"/>
     <use xlink:href="#DejaVuSans-35" x="63.623047"/>
    </g>
   </g>
   <g id="text_25">
    <!-- STG5 -->
    <g transform="translate(269.617468 152.292035)scale(0.0579 -0.0579)">
     <use xlink:href="#DejaVuSans-53"/>
     <use xlink:href="#DejaVuSans-54" x="63.476562"/>
     <use xlink:href="#DejaVuSans-47" x="124.560547"/>
     <use xlink:href="#DejaVuSans-35" x="202.050781"/>
    </g>
    <!-- 105 -->
    <g transform="translate(271.782837 158.775568)scale(0.0579 -0.0579)">
     <use xlink:href="#DejaVuSans-31"/>
     <use xlink:href="#DejaVuSans-30" x="63.623047"/>
     <use xlink:href="#DejaVuSans-35" x="127.246094"/>
    </g>
    <!-- GND -->
    <g transform="translate(270.670524 165.259102)scale(0.0579 -0.0579)">
     <use xlink:href="#DejaVuSans-47"/>
     <use xlink:href="#DejaVuSans-4e" x="77.490234"/>
     <use xlink:href="#DejaVuSans-44" x="152.294922"/>
    </g>
   </g>
   <g id="text_26">
    <!-- STG6 -->
    <g transform="translate(157.22413 165.231765)scale(0.0579 -0.0579)">
     <defs>
      <path id="DejaVuSans-36" d="M 2113 2584 
Q 1688 2584 1439 2293 
Q 1191 2003 1191 1497 
Q 1191 994 1439 701 
Q 1688 409 2113 409 
Q 2538 409 2786 701 
Q 3034 994 3034 1497 
Q 3034 2003 2786 2293 
Q 2538 2584 2113 2584 
z
M 3366 4563 
L 3366 3988 
Q 3128 4100 2886 4159 
Q 2644 4219 2406 4219 
Q 1781 4219 1451 3797 
Q 1122 3375 1075 2522 
Q 1259 2794 1537 2939 
Q 1816 3084 2150 3084 
Q 2853 3084 3261 2657 
Q 3669 2231 3669 1497 
Q 3669 778 3244 343 
Q 2819 -91 2113 -91 
Q 1303 -91 875 529 
Q 447 1150 447 2328 
Q 447 3434 972 4092 
Q 1497 4750 2381 4750 
Q 2619 4750 2861 4703 
Q 3103 4656 3366 4563 
z
" transform="scale(0.015625)"/>
     </defs>
     <use xlink:href="#DejaVuSans-53"/>
     <use xlink:href="#DejaVuSans-54" x="63.476562"/>
     <use xlink:href="#DejaVuSans-47" x="124.560547"/>
     <use xlink:href="#DejaVuSans-36" x="202.050781"/>
    </g>
    <!-- 95 -->
    <g transform="translate(161.231443 171.715298)scale(0.0579 -0.0579)">
     <use xlink:href="#DejaVuSans-39"/>
     <use xlink:href="#DejaVuSans-35" x="63.623047"/>
    </g>
    <!-- 75 -->
    <g transform="translate(161.231443 178.198832)scale(0.0579 -0.0579)">
     <use xlink:href="#DejaVuSans-37"/>
     <use xlink:href="#DejaVuSans-35" x="63.623047"/>
    </g>
   </g>
   <g id="text_27">
    <!-- STG7 -->
    <g transform="translate(302.47062 143.914633)scale(0.0579 -0.0579)">
     <use xlink:href="#DejaVuSans-53"/>
     <use xlink:href="#DejaVuSans-54" x="63.476562"/>
     <use xlink:href="#DejaVuSans-47" x="124.560547"/>
     <use xlink:href="#DejaVuSans-37" x="202.050781"/>
    </g>
    <!-- 105 -->
    <g transform="translate(304.635989 150.398167)scale(0.0579 -0.0579)">
     <use xlink:href="#DejaVuSans-31"/>
     <use xlink:href="#DejaVuSans-30" x="63.623047"/>
     <use xlink:href="#DejaVuSans-35" x="127.246094"/>
    </g>
    <!-- GND -->
    <g transform="translate(303.523676 156.8817)scale(0.0579 -0.0579)">
     <use xlink:href="#DejaVuSans-47"/>
     <use xlink:href="#DejaVuSans-4e" x="77.490234"/>
     <use xlink:href="#DejaVuSans-44" x="152.294922"/>
    </g>
   </g>
  </g>
 </g>
 <defs>
  <clipPath id="pd0064c1576">
   <rect x="57.6" y="95.301172" width="357.12" height="158.453657"/>
  </clipPath>
 </defs>
</svg>
