<?xml version="1.0" encoding="utf-8" standalone="no"?>
<!DOCTYPE svg PUBLIC "-//W3C//DTD SVG 1.1//EN"
  "http://www.w3.org/Graphics/SVG/1.1/DTD/svg11.dtd">
<svg xmlns:xlink="http://www.w3.org/1999/xlink" width="460.8pt" height="345.6pt" viewBox="0 0 460.8 345.6" xmlns="http://www.w3.org/2000/svg" version="1.1">
 <metadata>
  <rdf:RDF xmlns:dc="http://purl.org/dc/elements/1.1/" xmlns:cc="http://creativecommons.org/ns#" xmlns:rdf="http://www.w3.org/1999/02/22-rdf-syntax-ns#">
   <cc:Work>
    <dc:type rdf:resource="http://purl.org/dc/dcmitype/StillImage"/>
    <dc:date>2022-04-26T15:57:25.517780</dc:date>
    <dc:format>image/svg+xml</dc:format>
    <dc:creator>
     <cc:Agent>
      <dc:title>Matplotlib v3.5.0, https://matplotlib.org/</dc:title>
     </cc:Agent>
    </dc:creator>
   </cc:Work>
  </rdf:RDF>
 </metadata>
 <defs>
  <style type="text/css">*{stroke-linejoin: round; stroke-linecap: butt}</style>
 </defs>
 <g id="figure_1">
  <g id="patch_1">
   <path d="M 0 345.6 
L 460.8 345.6 
L 460.8 0 
L 0 0 
z
" style="fill: #ffffff"/>
  </g>
  <g id="axes_1">
   <g id="patch_2">
    <path d="M 209.002306 53.568 
L 290.844735 100.566692 
L 312.01955 116.994424 
L 279.370171 139.594613 
L 270.427303 157.444252 
L 264.248062 169.751169 
L 262.139617 174.043064 
L 256.797808 184.662142 
L 257.152999 201.99264 
L 257.962791 241.556996 
L 258.58527 272.01995 
L 258.853315 285.151093 
L 215.206421 285.879286 
L 185.866732 295.239898 
L 160.30045 295.488 
L 179.987406 164.152087 
z
" clip-path="url(#pdc8949aca8)" style="fill: #ffedd9; stroke: #ffedd9; stroke-linejoin: miter"/>
   </g>
   <g id="patch_3">
    <path d="M 267.327335 110.010675 
L 279.370171 139.594613 
L 270.427303 157.444252 
L 264.248062 169.751169 
L 262.139617 174.043064 
L 256.797808 184.662142 
L 257.152999 201.99264 
L 257.962791 241.556996 
L 211.488594 242.371728 
L 218.871352 160.396372 
L 223.372194 110.771496 
z
" clip-path="url(#pdc8949aca8)" style="fill: #ffedd9; stroke: #ffedd9; stroke-linejoin: miter"/>
   </g>
   <g id="patch_4">
    <path d="M 209.002306 53.568 
L 290.844735 100.566692 
L 312.01955 116.994424 
L 279.370171 139.594613 
L 270.427303 157.444252 
L 264.248062 169.751169 
L 262.139617 174.043064 
L 256.797808 184.662142 
L 257.152999 201.99264 
L 257.962791 241.556996 
L 258.58527 272.01995 
L 258.853315 285.151093 
L 215.206421 285.879286 
L 185.866732 295.239898 
L 160.30045 295.488 
L 179.987406 164.152087 
z
" clip-path="url(#pdc8949aca8)" style="fill: #ffedd9; stroke: #ffedd9; stroke-linejoin: miter"/>
   </g>
   <g id="patch_5">
    <path d="M 209.002306 53.568 
L 290.844735 100.566692 
L 312.01955 116.994424 
L 279.370171 139.594613 
L 270.427303 157.444252 
L 264.248062 169.751169 
L 262.139617 174.043064 
L 256.797808 184.662142 
L 257.152999 201.99264 
L 257.962791 241.556996 
L 258.58527 272.01995 
L 258.853315 285.151093 
L 215.206421 285.879286 
L 185.866732 295.239898 
L 160.30045 295.488 
L 179.987406 164.152087 
z
" clip-path="url(#pdc8949aca8)" style="fill: #ffedd9; stroke: #ffedd9; stroke-linejoin: miter"/>
   </g>
   <g id="patch_6">
    <path d="M 209.002306 53.568 
L 290.844735 100.566692 
L 312.01955 116.994424 
L 279.370171 139.594613 
L 270.427303 157.444252 
L 264.248062 169.751169 
L 262.139617 174.043064 
L 256.797808 184.662142 
L 257.152999 201.99264 
L 257.962791 241.556996 
L 258.58527 272.01995 
L 258.853315 285.151093 
L 215.206421 285.879286 
L 185.866732 295.239898 
L 160.30045 295.488 
L 179.987406 164.152087 
L 209.002306 53.568 
z
" clip-path="url(#pdc8949aca8)" style="fill: #ffedd9; stroke: #ffedd9; stroke-linejoin: miter"/>
   </g>
   <g id="patch_7">
    <path d="M 267.327335 110.010675 
L 279.370171 139.594613 
L 270.427303 157.444252 
L 264.248062 169.751169 
L 262.139617 174.043064 
L 256.797808 184.662142 
L 257.152999 201.99264 
L 257.962791 241.556996 
L 211.488594 242.371728 
L 218.871352 160.396372 
L 223.372194 110.771496 
L 267.327335 110.010675 
z
" clip-path="url(#pdc8949aca8)" style="fill: #ffedd9; stroke: #ffedd9; stroke-linejoin: miter"/>
   </g>
   <g id="patch_8">
    <path d="M 209.002306 53.568 
L 290.844735 100.566692 
L 312.01955 116.994424 
L 279.370171 139.594613 
L 270.427303 157.444252 
L 264.248062 169.751169 
L 262.139617 174.043064 
L 256.797808 184.662142 
L 257.152999 201.99264 
L 257.962791 241.556996 
L 258.58527 272.01995 
L 258.853315 285.151093 
L 215.206421 285.879286 
L 185.866732 295.239898 
L 160.30045 295.488 
L 179.987406 164.152087 
L 209.002306 53.568 
z
" clip-path="url(#pdc8949aca8)" style="fill: #ffedd9; stroke: #ffedd9; stroke-linejoin: miter"/>
   </g>
   <g id="patch_9">
    <path d="M 209.002306 53.568 
L 290.844735 100.566692 
L 312.01955 116.994424 
L 279.370171 139.594613 
L 270.427303 157.444252 
L 264.248062 169.751169 
L 262.139617 174.043064 
L 256.797808 184.662142 
L 257.152999 201.99264 
L 257.962791 241.556996 
L 258.58527 272.01995 
L 258.853315 285.151093 
L 215.206421 285.879286 
L 185.866732 295.239898 
L 160.30045 295.488 
L 179.987406 164.152087 
L 209.002306 53.568 
z
" clip-path="url(#pdc8949aca8)" style="fill: #ffedd9; stroke: #ffedd9; stroke-linejoin: miter"/>
   </g>
   <g id="line2d_1">
    <path d="M 209.002306 53.568 
L 290.844735 100.566692 
L 312.01955 116.994424 
L 279.370171 139.594613 
L 270.427303 157.444252 
L 264.248062 169.751169 
L 262.139617 174.043064 
L 256.797808 184.662142 
L 257.152999 201.99264 
L 257.962791 241.556996 
L 258.58527 272.01995 
L 258.853315 285.151093 
L 215.206421 285.879286 
L 185.866732 295.239898 
L 160.30045 295.488 
L 179.987406 164.152087 
L 209.002306 53.568 
" clip-path="url(#pdc8949aca8)" style="fill: none; stroke: #ffc380; stroke-width: 0.5; stroke-linecap: square"/>
   </g>
   <g id="line2d_2">
    <path d="M 267.327335 110.010675 
L 279.370171 139.594613 
L 270.427303 157.444252 
L 264.248062 169.751169 
L 262.139617 174.043064 
L 256.797808 184.662142 
L 257.152999 201.99264 
L 257.962791 241.556996 
L 211.488594 242.371728 
L 218.871352 160.396372 
L 223.372194 110.771496 
L 267.327335 110.010675 
" clip-path="url(#pdc8949aca8)" style="fill: none; stroke: #ffc380; stroke-width: 0.5; stroke-linecap: square"/>
   </g>
   <g id="line2d_3">
    <path d="M 209.002306 53.568 
L 290.844735 100.566692 
L 312.01955 116.994424 
L 279.370171 139.594613 
L 270.427303 157.444252 
L 264.248062 169.751169 
L 262.139617 174.043064 
L 256.797808 184.662142 
L 257.152999 201.99264 
L 257.962791 241.556996 
L 258.58527 272.01995 
L 258.853315 285.151093 
L 215.206421 285.879286 
L 185.866732 295.239898 
L 160.30045 295.488 
L 179.987406 164.152087 
L 209.002306 53.568 
" clip-path="url(#pdc8949aca8)" style="fill: none; stroke: #ffc380; stroke-width: 0.5; stroke-linecap: square"/>
   </g>
   <g id="line2d_4">
    <path d="M 209.002306 53.568 
L 290.844735 100.566692 
L 312.01955 116.994424 
L 279.370171 139.594613 
L 270.427303 157.444252 
L 264.248062 169.751169 
L 262.139617 174.043064 
L 256.797808 184.662142 
L 257.152999 201.99264 
L 257.962791 241.556996 
L 258.58527 272.01995 
L 258.853315 285.151093 
L 215.206421 285.879286 
L 185.866732 295.239898 
L 160.30045 295.488 
L 179.987406 164.152087 
L 209.002306 53.568 
" clip-path="url(#pdc8949aca8)" style="fill: none; stroke: #ffc380; stroke-width: 0.5; stroke-linecap: square"/>
   </g>
   <g id="line2d_5">
    <path d="M 118.705498 116.563116 
L 125.228669 116.934491 
L 140.215413 124.91514 
L 162.160226 128.17126 
L 183.318637 123.802708 
L 188.498975 140.944189 
L 196.31778 145.968246 
L 218.871352 160.396372 
L 211.488594 242.371728 
L 187.84179 242.68219 
L 166.585278 242.551158 
L 128.837387 242.625511 
L 117.566448 245.746531 
L 91.552836 253.727253 
L 49.792204 256.269938 
L 50.847051 253.468998 
L 50.663146 250.373981 
L 51.992862 248.786566 
L 53.036966 247.917524 
L 53.307432 246.755426 
L 52.996328 245.044848 
L 54.269402 243.251918 
L 56.400137 240.063998 
L 57.872298 236.419434 
L 60.08335 234.784466 
L 61.095002 231.388573 
L 62.720418 224.615874 
L 62.783052 222.893695 
L 63.213598 221.335838 
L 67.304635 219.163047 
L 68.415577 216.675816 
L 67.02484 209.14806 
L 67.557246 206.016371 
L 70.67595 197.415205 
L 70.874195 192.679031 
L 72.028891 191.353196 
L 74.088908 189.90666 
L 74.924497 186.683904 
L 74.71022 184.795148 
L 75.022798 181.766688 
L 74.366853 178.151869 
L 74.942921 175.837119 
L 77.577164 171.550594 
L 78.5984 168.26799 
L 83.729105 164.870592 
L 91.736907 155.0483 
L 91.79296 150.789339 
L 92.659615 149.464824 
L 93.898798 149.211258 
L 95.919781 149.61833 
L 97.447129 148.513773 
L 97.825244 145.850872 
L 98.804135 144.946243 
L 100.51103 144.812191 
L 102.016381 144.744473 
L 104.262926 143.132853 
L 106.025863 140.137381 
L 107.418011 133.948483 
L 110.045793 127.523391 
L 113.366777 122.632469 
L 115.290239 118.728187 
L 119.240435 117.021015 
L 118.705498 116.563116 
" clip-path="url(#pdc8949aca8)" style="fill: none; stroke: #8f8f8f; stroke-width: 0.2; stroke-linecap: square"/>
   </g>
   <g id="line2d_6">
    <path clip-path="url(#pdc8949aca8)" style="fill: none; stroke: #8f8f8f; stroke-width: 0.2; stroke-linecap: square"/>
   </g>
   <g id="line2d_7">
    <path clip-path="url(#pdc8949aca8)" style="fill: none; stroke: #8f8f8f; stroke-width: 0.2; stroke-linecap: square"/>
   </g>
   <g id="line2d_8">
    <path clip-path="url(#pdc8949aca8)" style="fill: none; stroke: #8f8f8f; stroke-width: 0.2; stroke-linecap: square"/>
   </g>
   <g id="line2d_9">
    <path d="M 338.640062 57.305422 
L 361.546486 79.192353 
L 350.714834 90.200058 
L 328.304391 105.707562 
L 312.01955 116.994424 
L 290.844735 100.566692 
L 278.94934 91.35662 
L 244.393859 67.584345 
L 265.204435 64.439952 
L 284.466508 67.406585 
L 313.504168 58.627253 
L 338.640062 57.305422 
" clip-path="url(#pdc8949aca8)" style="fill: none; stroke: #8f8f8f; stroke-width: 0.2; stroke-linecap: square"/>
   </g>
   <g id="line2d_10">
    <path d="M 272.892933 9.411945 
L 289.850884 21.783141 
L 338.640062 57.305422 
L 313.504168 58.627253 
L 284.466508 67.406585 
L 265.204435 64.439952 
L 244.393859 67.584345 
L 267.417933 20.612962 
L 272.892933 9.411945 
" clip-path="url(#pdc8949aca8)" style="fill: none; stroke: #8f8f8f; stroke-width: 0.2; stroke-linecap: square"/>
   </g>
   <g id="line2d_11">
    <path clip-path="url(#pdc8949aca8)" style="fill: none; stroke: #8f8f8f; stroke-width: 0.2; stroke-linecap: square"/>
   </g>
   <g id="line2d_12">
    <path clip-path="url(#pdc8949aca8)" style="fill: none; stroke: #8f8f8f; stroke-width: 0.2; stroke-linecap: square"/>
   </g>
   <g id="line2d_13">
    <path clip-path="url(#pdc8949aca8)" style="fill: none; stroke: #8f8f8f; stroke-width: 0.2; stroke-linecap: square"/>
   </g>
   <g id="line2d_14">
    <path clip-path="url(#pdc8949aca8)" style="fill: none; stroke: #8f8f8f; stroke-width: 0.2; stroke-linecap: square"/>
   </g>
   <g id="line2d_15">
    <path d="M 361.546486 79.192353 
L 398.916108 36.328583 
L 461.8 34.306234 
M 461.8 155.699541 
L 460.398645 155.765286 
L 440.55353 156.6636 
L 370.714317 88.201313 
L 361.546486 79.192353 
L 398.916108 36.328583 
L 461.8 34.306234 
M 461.8 155.699541 
L 460.398645 155.765286 
L 440.55353 156.6636 
L 370.714317 88.201313 
L 361.546486 79.192353 
L 398.916108 36.328583 
L 461.8 34.306234 
M 461.8 155.699541 
L 460.398645 155.765286 
L 440.55353 156.6636 
L 370.714317 88.201313 
L 361.546486 79.192353 
L 347.680314 63.146059 
L 336.610132 45.370105 
L 351.107576 27.120469 
L 377.086742 3.563652 
L 398.916108 36.328583 
L 361.546486 79.192353 
" clip-path="url(#pdc8949aca8)" style="fill: none; stroke: #8f8f8f; stroke-width: 0.2; stroke-linecap: square"/>
   </g>
   <g id="line2d_16">
    <path d="M 461.8 34.306234 
L 398.916108 36.328583 
L 376.38417 -1 
M 461.8 34.306234 
L 398.916108 36.328583 
L 377.086742 3.563652 
L 374.04424 -1 
" clip-path="url(#pdc8949aca8)" style="fill: none; stroke: #8f8f8f; stroke-width: 0.2; stroke-linecap: square"/>
   </g>
   <g id="line2d_17">
    <path clip-path="url(#pdc8949aca8)" style="fill: none; stroke: #8f8f8f; stroke-width: 0.2; stroke-linecap: square"/>
   </g>
   <g id="line2d_18">
    <path clip-path="url(#pdc8949aca8)" style="fill: none; stroke: #8f8f8f; stroke-width: 0.2; stroke-linecap: square"/>
   </g>
   <g id="line2d_19">
    <path clip-path="url(#pdc8949aca8)" style="fill: none; stroke: #8f8f8f; stroke-width: 0.2; stroke-linecap: square"/>
   </g>
   <g id="line2d_20">
    <path d="M 461.8 34.306234 
L 398.916108 36.328583 
L 377.086742 3.563652 
L 374.04424 -1 
" clip-path="url(#pdc8949aca8)" style="fill: none; stroke: #8f8f8f; stroke-width: 0.2; stroke-linecap: square"/>
   </g>
   <g id="line2d_21">
    <path clip-path="url(#pdc8949aca8)" style="fill: none; stroke: #8f8f8f; stroke-width: 0.2; stroke-linecap: square"/>
   </g>
   <g id="line2d_22">
    <path clip-path="url(#pdc8949aca8)" style="fill: none; stroke: #8f8f8f; stroke-width: 0.2; stroke-linecap: square"/>
   </g>
   <g id="line2d_23">
    <path clip-path="url(#pdc8949aca8)" style="fill: none; stroke: #8f8f8f; stroke-width: 0.2; stroke-linecap: square"/>
   </g>
   <g id="line2d_24">
    <path clip-path="url(#pdc8949aca8)" style="fill: none; stroke: #8f8f8f; stroke-width: 0.2; stroke-linecap: square"/>
   </g>
   <g id="line2d_25">
    <path clip-path="url(#pdc8949aca8)" style="fill: none; stroke: #8f8f8f; stroke-width: 0.2; stroke-linecap: square"/>
   </g>
   <g id="line2d_26">
    <path clip-path="url(#pdc8949aca8)" style="fill: none; stroke: #8f8f8f; stroke-width: 0.2; stroke-linecap: square"/>
   </g>
   <g id="line2d_27">
    <path clip-path="url(#pdc8949aca8)" style="fill: none; stroke: #8f8f8f; stroke-width: 0.2; stroke-linecap: square"/>
   </g>
   <g id="line2d_28">
    <path clip-path="url(#pdc8949aca8)" style="fill: none; stroke: #8f8f8f; stroke-width: 0.2; stroke-linecap: square"/>
   </g>
   <g id="line2d_29">
    <path clip-path="url(#pdc8949aca8)" style="fill: none; stroke: #8f8f8f; stroke-width: 0.2; stroke-linecap: square"/>
   </g>
   <g id="line2d_30">
    <path clip-path="url(#pdc8949aca8)" style="fill: none; stroke: #8f8f8f; stroke-width: 0.2; stroke-linecap: square"/>
   </g>
   <g id="line2d_31">
    <path clip-path="url(#pdc8949aca8)" style="fill: none; stroke: #8f8f8f; stroke-width: 0.2; stroke-linecap: square"/>
   </g>
   <g id="line2d_32">
    <path clip-path="url(#pdc8949aca8)" style="fill: none; stroke: #8f8f8f; stroke-width: 0.2; stroke-linecap: square"/>
   </g>
   <g id="line2d_33">
    <path clip-path="url(#pdc8949aca8)" style="fill: none; stroke: #8f8f8f; stroke-width: 0.2; stroke-linecap: square"/>
   </g>
   <g id="line2d_34">
    <path clip-path="url(#pdc8949aca8)" style="fill: none; stroke: #8f8f8f; stroke-width: 0.2; stroke-linecap: square"/>
   </g>
   <g id="line2d_35">
    <path clip-path="url(#pdc8949aca8)" style="fill: none; stroke: #8f8f8f; stroke-width: 0.2; stroke-linecap: square"/>
   </g>
   <g id="line2d_36">
    <path clip-path="url(#pdc8949aca8)" style="fill: none; stroke: #8f8f8f; stroke-width: 0.2; stroke-linecap: square"/>
   </g>
   <g id="line2d_37">
    <path clip-path="url(#pdc8949aca8)" style="fill: none; stroke: #8f8f8f; stroke-width: 0.2; stroke-linecap: square"/>
   </g>
   <g id="line2d_38">
    <path clip-path="url(#pdc8949aca8)" style="fill: none; stroke: #8f8f8f; stroke-width: 0.2; stroke-linecap: square"/>
   </g>
   <g id="line2d_39">
    <path clip-path="url(#pdc8949aca8)" style="fill: none; stroke: #8f8f8f; stroke-width: 0.2; stroke-linecap: square"/>
   </g>
   <g id="line2d_40">
    <path clip-path="url(#pdc8949aca8)" style="fill: none; stroke: #8f8f8f; stroke-width: 0.2; stroke-linecap: square"/>
   </g>
   <g id="line2d_41">
    <path clip-path="url(#pdc8949aca8)" style="fill: none; stroke: #8f8f8f; stroke-width: 0.2; stroke-linecap: square"/>
   </g>
   <g id="line2d_42">
    <path d="M 221.087565 -1 
L 216.364747 23.429263 
L 184.234834 -1 
" clip-path="url(#pdc8949aca8)" style="fill: none; stroke: #8f8f8f; stroke-width: 0.2; stroke-linecap: square"/>
   </g>
   <g id="line2d_43">
    <path clip-path="url(#pdc8949aca8)" style="fill: none; stroke: #8f8f8f; stroke-width: 0.2; stroke-linecap: square"/>
   </g>
   <g id="line2d_44">
    <path d="M 221.087565 -1 
L 216.364747 23.429263 
L 184.234834 -1 
" clip-path="url(#pdc8949aca8)" style="fill: none; stroke: #8f8f8f; stroke-width: 0.2; stroke-linecap: square"/>
   </g>
   <g id="line2d_45">
    <path d="M 221.087565 -1 
L 216.364747 23.429263 
L 184.234834 -1 
" clip-path="url(#pdc8949aca8)" style="fill: none; stroke: #8f8f8f; stroke-width: 0.2; stroke-linecap: square"/>
   </g>
   <g id="line2d_46">
    <path d="M 221.087565 -1 
L 216.364747 23.429263 
L 184.234834 -1 
" clip-path="url(#pdc8949aca8)" style="fill: none; stroke: #8f8f8f; stroke-width: 0.2; stroke-linecap: square"/>
   </g>
   <g id="line2d_47">
    <path clip-path="url(#pdc8949aca8)" style="fill: none; stroke: #8f8f8f; stroke-width: 0.2; stroke-linecap: square"/>
   </g>
   <g id="line2d_48">
    <path clip-path="url(#pdc8949aca8)" style="fill: none; stroke: #8f8f8f; stroke-width: 0.2; stroke-linecap: square"/>
   </g>
   <g id="line2d_49">
    <path clip-path="url(#pdc8949aca8)" style="fill: none; stroke: #8f8f8f; stroke-width: 0.2; stroke-linecap: square"/>
   </g>
   <g id="line2d_50">
    <path clip-path="url(#pdc8949aca8)" style="fill: none; stroke: #8f8f8f; stroke-width: 0.2; stroke-linecap: square"/>
   </g>
   <g id="line2d_51">
    <path clip-path="url(#pdc8949aca8)" style="fill: none; stroke: #8f8f8f; stroke-width: 0.2; stroke-linecap: square"/>
   </g>
   <g id="line2d_52">
    <path clip-path="url(#pdc8949aca8)" style="fill: none; stroke: #8f8f8f; stroke-width: 0.2; stroke-linecap: square"/>
   </g>
   <g id="line2d_53">
    <path clip-path="url(#pdc8949aca8)" style="fill: none; stroke: #8f8f8f; stroke-width: 0.2; stroke-linecap: square"/>
   </g>
   <g id="line2d_54">
    <path clip-path="url(#pdc8949aca8)" style="fill: none; stroke: #8f8f8f; stroke-width: 0.2; stroke-linecap: square"/>
   </g>
   <g id="line2d_55">
    <path clip-path="url(#pdc8949aca8)" style="fill: none; stroke: #8f8f8f; stroke-width: 0.2; stroke-linecap: square"/>
   </g>
   <g id="line2d_56">
    <path clip-path="url(#pdc8949aca8)" style="fill: none; stroke: #8f8f8f; stroke-width: 0.2; stroke-linecap: square"/>
   </g>
   <g id="line2d_57">
    <path clip-path="url(#pdc8949aca8)" style="fill: none; stroke: #8f8f8f; stroke-width: 0.2; stroke-linecap: square"/>
   </g>
   <g id="line2d_58">
    <path clip-path="url(#pdc8949aca8)" style="fill: none; stroke: #8f8f8f; stroke-width: 0.2; stroke-linecap: square"/>
   </g>
   <g id="line2d_59">
    <path d="M 292.055984 -1 
L 288.406019 9.560937 
L 289.850884 21.783141 
L 272.892933 9.411945 
L 259.302638 -1 
" clip-path="url(#pdc8949aca8)" style="fill: none; stroke: #8f8f8f; stroke-width: 0.2; stroke-linecap: square"/>
   </g>
   <g id="line2d_60">
    <path clip-path="url(#pdc8949aca8)" style="fill: none; stroke: #8f8f8f; stroke-width: 0.2; stroke-linecap: square"/>
   </g>
   <g id="line2d_61">
    <path clip-path="url(#pdc8949aca8)" style="fill: none; stroke: #8f8f8f; stroke-width: 0.2; stroke-linecap: square"/>
   </g>
   <g id="line2d_62">
    <path clip-path="url(#pdc8949aca8)" style="fill: none; stroke: #8f8f8f; stroke-width: 0.2; stroke-linecap: square"/>
   </g>
   <g id="line2d_63">
    <path clip-path="url(#pdc8949aca8)" style="fill: none; stroke: #8f8f8f; stroke-width: 0.2; stroke-linecap: square"/>
   </g>
   <g id="line2d_64">
    <path clip-path="url(#pdc8949aca8)" style="fill: none; stroke: #8f8f8f; stroke-width: 0.2; stroke-linecap: square"/>
   </g>
   <g id="line2d_65">
    <path clip-path="url(#pdc8949aca8)" style="fill: none; stroke: #8f8f8f; stroke-width: 0.2; stroke-linecap: square"/>
   </g>
   <g id="line2d_66">
    <path clip-path="url(#pdc8949aca8)" style="fill: none; stroke: #8f8f8f; stroke-width: 0.2; stroke-linecap: square"/>
   </g>
   <g id="line2d_67">
    <path clip-path="url(#pdc8949aca8)" style="fill: none; stroke: #8f8f8f; stroke-width: 0.2; stroke-linecap: square"/>
   </g>
   <g id="line2d_68">
    <path clip-path="url(#pdc8949aca8)" style="fill: none; stroke: #8f8f8f; stroke-width: 0.2; stroke-linecap: square"/>
   </g>
   <g id="line2d_69">
    <path d="M 96.928821 -1 
L 112.141841 7.477314 
L 45.816155 0.59824 
L 22.034865 1.283158 
L 4.990654 6.353137 
L 3.601807 -1 
" clip-path="url(#pdc8949aca8)" style="fill: none; stroke: #8f8f8f; stroke-width: 0.2; stroke-linecap: square"/>
   </g>
   <g id="line2d_70">
    <path d="M 138.797332 -1 
L 139.689473 4.959169 
L 112.141841 7.477314 
L 96.928821 -1 
" clip-path="url(#pdc8949aca8)" style="fill: none; stroke: #8f8f8f; stroke-width: 0.2; stroke-linecap: square"/>
   </g>
   <g id="line2d_71">
    <path d="M 3.601807 -1 
L 4.990654 6.353137 
L -1 6.667155 
" clip-path="url(#pdc8949aca8)" style="fill: none; stroke: #8f8f8f; stroke-width: 0.2; stroke-linecap: square"/>
   </g>
   <g id="line2d_72">
    <path clip-path="url(#pdc8949aca8)" style="fill: none; stroke: #8f8f8f; stroke-width: 0.2; stroke-linecap: square"/>
   </g>
   <g id="line2d_73">
    <path clip-path="url(#pdc8949aca8)" style="fill: none; stroke: #8f8f8f; stroke-width: 0.2; stroke-linecap: square"/>
   </g>
   <g id="line2d_74">
    <path d="M 256.799108 -1 
L 267.417933 20.612962 
L 244.393859 67.584345 
L 215.678686 70.405703 
L 205.010949 41.545679 
L 205.946859 29.495777 
L 208.218732 0.618928 
L 208.288112 -1 
" clip-path="url(#pdc8949aca8)" style="fill: none; stroke: #8f8f8f; stroke-width: 0.2; stroke-linecap: square"/>
   </g>
   <g id="line2d_75">
    <path d="M 259.302638 -1 
L 272.892933 9.411945 
L 267.417933 20.612962 
L 256.799108 -1 
" clip-path="url(#pdc8949aca8)" style="fill: none; stroke: #8f8f8f; stroke-width: 0.2; stroke-linecap: square"/>
   </g>
   <g id="line2d_76">
    <path clip-path="url(#pdc8949aca8)" style="fill: none; stroke: #8f8f8f; stroke-width: 0.2; stroke-linecap: square"/>
   </g>
   <g id="line2d_77">
    <path d="M 376.38417 -1 
L 398.916108 36.328583 
L 361.546486 79.192353 
L 338.640062 57.305422 
L 289.850884 21.783141 
L 288.406019 9.560937 
L 292.055984 -1 
" clip-path="url(#pdc8949aca8)" style="fill: none; stroke: #8f8f8f; stroke-width: 0.2; stroke-linecap: square"/>
   </g>
   <g id="line2d_78">
    <path d="M 244.393859 67.584345 
L 278.94934 91.35662 
L 290.844735 100.566692 
L 312.01955 116.994424 
L 279.370171 139.594613 
L 267.327335 110.010675 
L 223.372194 110.771496 
L 218.871352 160.396372 
L 196.31778 145.968246 
L 188.498975 140.944189 
L 183.318637 123.802708 
L 198.549618 120.682951 
L 199.342928 111.2179 
L 202.602102 72.962191 
L 205.352151 71.435295 
L 215.678686 70.405703 
L 244.393859 67.584345 
" clip-path="url(#pdc8949aca8)" style="fill: none; stroke: #8f8f8f; stroke-width: 0.2; stroke-linecap: square"/>
   </g>
   <g id="line2d_79">
    <path d="M -1 92.129481 
L 1.497365 90.710787 
L 0.610512 87.926853 
L 3.089131 86.871184 
L 8.508876 92.419463 
L 22.272354 93.34373 
L 29.394686 88.889661 
L 29.884944 84.585874 
L 38.009362 82.863852 
L 42.866094 85.481566 
L 44.272395 87.085285 
L 42.413734 89.561404 
L 46.4412 95.618594 
L 57.053581 99.899827 
L 57.072006 103.052784 
L 67.472781 104.646805 
L 73.777619 101.636755 
L 78.0506 104.457429 
L 81.390173 106.391866 
L 86.068069 105.230591 
L 88.234444 102.773643 
L 89.618672 102.919597 
L 92.624531 107.589964 
L 94.589699 107.197321 
L 96.320692 107.818259 
L 96.563906 108.575789 
L 97.177174 108.369951 
L 97.435883 108.783456 
L 100.374203 109.491875 
L 104.23416 113.297172 
L 105.987079 113.290534 
L 106.438957 113.785311 
L 108.026225 113.92113 
L 109.266507 114.94833 
L 110.995843 115.447851 
L 111.864535 114.926967 
L 112.771458 115.355174 
L 112.831149 114.951957 
L 115.336312 115.118716 
L 115.545387 116.742748 
L 118.2617 115.33551 
L 118.705498 116.563116 
L 119.240435 117.021015 
L 115.290239 118.728187 
L 113.366777 122.632469 
L 110.045793 127.523391 
L 107.418011 133.948483 
L 106.025863 140.137381 
L 104.262926 143.132853 
L 102.016381 144.744473 
L 98.804135 144.946243 
L 97.825244 145.850872 
L 97.447129 148.513773 
L 95.919781 149.61833 
L 93.898798 149.211258 
L 92.659615 149.464824 
L 91.79296 150.789339 
L 91.736907 155.0483 
L 83.729105 164.870592 
L 78.5984 168.26799 
L 77.577164 171.550594 
L 74.942921 175.837119 
L 74.366853 178.151869 
L 75.022798 181.766688 
L 74.71022 184.795148 
L 74.924497 186.683904 
L 74.088908 189.90666 
L 72.028891 191.353196 
L 70.874195 192.679031 
L 70.67595 197.415205 
L 67.557246 206.016371 
L 67.02484 209.14806 
L 68.415577 216.675816 
L 67.304635 219.163047 
L 63.213598 221.335838 
L 62.783052 222.893695 
L 62.720418 224.615874 
L 61.095002 231.388573 
L 60.08335 234.784466 
L 57.872298 236.419434 
L 56.400137 240.063998 
L 52.996328 245.044848 
L 53.307432 246.755426 
L 53.036966 247.917524 
L 51.992862 248.786566 
L 50.663146 250.373981 
L 50.847051 253.468998 
L 49.792204 256.269938 
L 49.948733 256.515964 
L 50.099554 257.777539 
L 50.1429 259.432488 
L 50.451374 260.773743 
L 50.130498 261.6387 
L 50.180075 262.190551 
L 50.021157 262.347249 
L 49.912687 262.89821 
L 49.963146 263.292476 
L 49.751964 263.370078 
L 49.854215 263.922231 
L 50.010504 264.238298 
L 50.06408 264.081007 
L 50.177874 264.459869 
L 50.764005 265.188063 
L 51.898325 267.006584 
L 53.49757 268.512187 
L 54.03158 269.239873 
L 54.874224 271.529258 
L 55.359417 273.659203 
L 54.80541 274.728084 
L 53.973075 276.536208 
L 53.220517 277.146938 
L 51.77593 278.825551 
L 50.995985 280.507592 
L 50.97971 281.547647 
L 50.981268 285.10938 
L 50.936321 285.59769 
L 50.340489 286.335109 
L 48.726829 287.618277 
L 48.364831 288.07322 
L 48.177423 289.395973 
L 48.327923 290.783739 
L 48.787779 291.716248 
L 48.940694 292.710018 
L 48.835908 294.379997 
L 48.502888 295.260649 
L 47.022861 298.624655 
L 46.717344 300.151587 
L 45.320317 303.531587 
L 45.458867 305.108504 
L 45.68696 305.913698 
L 47.000331 309.499322 
L 47.436679 310.983426 
L 47.230425 311.801768 
L 46.788817 312.965441 
L 46.27629 313.561271 
L 44.816715 314.671338 
L 43.523212 316.286564 
L 43.308554 316.679217 
L 43.453626 317.216023 
L 43.753127 318.310702 
L 41.956289 327.142929 
L 32.920394 335.835077 
L 31.2819 346.6 
L 31.2819 346.6 
" clip-path="url(#pdc8949aca8)" style="fill: none; stroke: #8f8f8f; stroke-width: 0.2; stroke-linecap: square"/>
   </g>
   <g id="line2d_80">
    <path d="M -1 92.129481 
L 1.497365 90.710787 
L 0.610512 87.926853 
L 3.089131 86.871184 
L 8.508876 92.419463 
L 22.272354 93.34373 
L 29.394686 88.889661 
L 29.884944 84.585874 
L 38.009362 82.863852 
L 42.866094 85.481566 
L 44.272395 87.085285 
L 42.413734 89.561404 
L 46.4412 95.618594 
L 57.053581 99.899827 
L 57.072006 103.052784 
L 67.472781 104.646805 
L 73.777619 101.636755 
L 78.0506 104.457429 
L 81.390173 106.391866 
L 86.068069 105.230591 
L 88.234444 102.773643 
L 89.618672 102.919597 
L 92.624531 107.589964 
L 94.589699 107.197321 
L 96.320692 107.818259 
L 96.563906 108.575789 
L 97.177174 108.369951 
L 97.435883 108.783456 
L 100.374203 109.491875 
L 104.23416 113.297172 
L 105.987079 113.290534 
L 106.438957 113.785311 
L 108.026225 113.92113 
L 109.266507 114.94833 
L 110.995843 115.447851 
L 111.864535 114.926967 
L 112.771458 115.355174 
L 112.831149 114.951957 
L 115.336312 115.118716 
L 115.545387 116.742748 
L 118.2617 115.33551 
L 118.705498 116.563116 
L 119.240435 117.021015 
L 115.290239 118.728187 
L 113.366777 122.632469 
L 110.045793 127.523391 
L 107.418011 133.948483 
L 106.025863 140.137381 
L 104.262926 143.132853 
L 102.016381 144.744473 
L 98.804135 144.946243 
L 97.825244 145.850872 
L 97.447129 148.513773 
L 95.919781 149.61833 
L 93.898798 149.211258 
L 92.659615 149.464824 
L 91.79296 150.789339 
L 91.736907 155.0483 
L 83.729105 164.870592 
L 78.5984 168.26799 
L 77.577164 171.550594 
L 74.942921 175.837119 
L 74.366853 178.151869 
L 75.022798 181.766688 
L 74.71022 184.795148 
L 74.924497 186.683904 
L 74.088908 189.90666 
L 72.028891 191.353196 
L 70.874195 192.679031 
L 70.67595 197.415205 
L 67.557246 206.016371 
L 67.02484 209.14806 
L 68.415577 216.675816 
L 67.304635 219.163047 
L 63.213598 221.335838 
L 62.783052 222.893695 
L 62.720418 224.615874 
L 61.095002 231.388573 
L 60.08335 234.784466 
L 57.872298 236.419434 
L 56.400137 240.063998 
L 52.996328 245.044848 
L 53.307432 246.755426 
L 53.036966 247.917524 
L 51.992862 248.786566 
L 50.663146 250.373981 
L 50.847051 253.468998 
L 49.792204 256.269938 
L 49.948733 256.515964 
L 50.099554 257.777539 
L 50.1429 259.432488 
L 50.451374 260.773743 
L 50.130498 261.6387 
L 50.180075 262.190551 
L 50.021157 262.347249 
L 49.912687 262.89821 
L 49.963146 263.292476 
L 49.751964 263.370078 
L 49.854215 263.922231 
L 50.010504 264.238298 
L 50.06408 264.081007 
L 50.177874 264.459869 
L 50.764005 265.188063 
L 51.898325 267.006584 
L 53.49757 268.512187 
L 54.03158 269.239873 
L 54.874224 271.529258 
L 55.359417 273.659203 
L 54.80541 274.728084 
L 53.973075 276.536208 
L 53.220517 277.146938 
L 51.77593 278.825551 
L 50.995985 280.507592 
L 50.97971 281.547647 
L 50.981268 285.10938 
L 50.936321 285.59769 
L 50.340489 286.335109 
L 48.726829 287.618277 
L 48.364831 288.07322 
L 48.177423 289.395973 
L 48.327923 290.783739 
L 48.787779 291.716248 
L 48.940694 292.710018 
L 48.835908 294.379997 
L 48.502888 295.260649 
L 47.022861 298.624655 
L 46.717344 300.151587 
L 45.320317 303.531587 
L 45.458867 305.108504 
L 45.68696 305.913698 
L 47.000331 309.499322 
L 47.436679 310.983426 
L 47.230425 311.801768 
L 46.788817 312.965441 
L 46.27629 313.561271 
L 44.816715 314.671338 
L 43.523212 316.286564 
L 43.308554 316.679217 
L 43.453626 317.216023 
L 43.753127 318.310702 
L 41.956289 327.142929 
L 32.920394 335.835077 
L 31.2819 346.6 
L 31.2819 346.6 
" clip-path="url(#pdc8949aca8)" style="fill: none; stroke: #8f8f8f; stroke-width: 0.2; stroke-linecap: square"/>
   </g>
   <g id="line2d_81">
    <path d="M -1 92.129481 
L 1.497365 90.710787 
L 0.610512 87.926853 
L 3.089131 86.871184 
L 8.508876 92.419463 
L 22.272354 93.34373 
L 29.394686 88.889661 
L 29.884944 84.585874 
L 38.009362 82.863852 
L 42.866094 85.481566 
L 44.272395 87.085285 
L 42.413734 89.561404 
L 46.4412 95.618594 
L 57.053581 99.899827 
L 57.072006 103.052784 
L 67.472781 104.646805 
L 73.777619 101.636755 
L 78.0506 104.457429 
L 81.390173 106.391866 
L 86.068069 105.230591 
L 88.234444 102.773643 
L 89.618672 102.919597 
L 92.624531 107.589964 
L 94.589699 107.197321 
L 96.320692 107.818259 
L 96.563906 108.575789 
L 97.177174 108.369951 
L 97.435883 108.783456 
L 100.374203 109.491875 
L 101.951889 111.913042 
L 104.23416 113.297172 
L 105.987079 113.290534 
L 106.438957 113.785311 
L 108.026225 113.92113 
L 109.266507 114.94833 
L 110.995843 115.447851 
L 111.864535 114.926967 
L 112.771458 115.355174 
L 112.831149 114.951957 
L 115.336312 115.118716 
L 115.545387 116.742748 
L 118.2617 115.33551 
L 118.705498 116.563116 
L 119.240435 117.021015 
L 115.290239 118.728187 
L 113.366777 122.632469 
L 110.045793 127.523391 
L 107.418011 133.948483 
L 106.025863 140.137381 
L 104.262926 143.132853 
L 102.016381 144.744473 
L 98.804135 144.946243 
L 97.825244 145.850872 
L 97.447129 148.513773 
L 95.919781 149.61833 
L 93.898798 149.211258 
L 92.659615 149.464824 
L 91.79296 150.789339 
L 91.736907 155.0483 
L 83.729105 164.870592 
L 78.5984 168.26799 
L 77.577164 171.550594 
L 74.942921 175.837119 
L 74.366853 178.151869 
L 75.022798 181.766688 
L 74.71022 184.795148 
L 74.924497 186.683904 
L 74.088908 189.90666 
L 72.028891 191.353196 
L 70.874195 192.679031 
L 70.67595 197.415205 
L 67.557246 206.016371 
L 67.02484 209.14806 
L 68.415577 216.675816 
L 67.304635 219.163047 
L 63.213598 221.335838 
L 62.783052 222.893695 
L 62.720418 224.615874 
L 61.095002 231.388573 
L 60.08335 234.784466 
L 57.872298 236.419434 
L 56.400137 240.063998 
L 52.996328 245.044848 
L 53.307432 246.755426 
L 53.036966 247.917524 
L 51.992862 248.786566 
L 50.663146 250.373981 
L 50.847051 253.468998 
L 49.792204 256.269938 
L 49.948733 256.515964 
L 50.099554 257.777539 
L 50.1429 259.432488 
L 50.451374 260.773743 
L 50.130498 261.6387 
L 50.180075 262.190551 
L 50.021157 262.347249 
L 49.912687 262.89821 
L 49.963146 263.292476 
L 49.751964 263.370078 
L 49.854215 263.922231 
L 50.010504 264.238298 
L 50.06408 264.081007 
L 50.177874 264.459869 
L 50.764005 265.188063 
L 51.898325 267.006584 
L 53.49757 268.512187 
L 54.03158 269.239873 
L 54.874224 271.529258 
L 55.359417 273.659203 
L 54.80541 274.728084 
L 53.973075 276.536208 
L 53.220517 277.146938 
L 51.77593 278.825551 
L 50.995985 280.507592 
L 50.97971 281.547647 
L 50.981268 285.10938 
L 50.936321 285.59769 
L 50.340489 286.335109 
L 48.726829 287.618277 
L 48.364831 288.07322 
L 48.177423 289.395973 
L 48.327923 290.783739 
L 48.787779 291.716248 
L 48.940694 292.710018 
L 48.835908 294.379997 
L 48.502888 295.260649 
L 47.022861 298.624655 
L 46.717344 300.151587 
L 45.320317 303.531587 
L 45.458867 305.108504 
L 45.68696 305.913698 
L 47.000331 309.499322 
L 47.436679 310.983426 
L 47.230425 311.801768 
L 46.788817 312.965441 
L 46.27629 313.561271 
L 44.816715 314.671338 
L 43.523212 316.286564 
L 43.308554 316.679217 
L 43.453626 317.216023 
L 43.753127 318.310702 
L 41.956289 327.142929 
L 32.920394 335.835077 
L 31.2819 346.6 
L 31.2819 346.6 
" clip-path="url(#pdc8949aca8)" style="fill: none; stroke: #8f8f8f; stroke-width: 0.2; stroke-linecap: square"/>
   </g>
   <g id="line2d_82">
    <path d="M 51.898325 267.006584 
L 126.358402 295.691766 
L 185.866732 295.239898 
L 215.206421 285.879286 
L 258.853315 285.151093 
L 259.142626 299.333129 
L 279.475023 340.892987 
L 283.431395 346.6 
M 31.2819 346.6 
L 32.920394 335.835077 
L 41.956289 327.142929 
L 43.753127 318.310702 
L 43.308554 316.679217 
L 43.630483 316.098116 
L 44.816715 314.671338 
L 46.27629 313.561271 
L 46.788817 312.965441 
L 47.436679 310.983426 
L 45.458867 305.108504 
L 45.320317 303.531587 
L 45.675677 302.57238 
L 46.717344 300.151587 
L 47.022861 298.624655 
L 47.656659 297.036619 
L 48.835908 294.379997 
L 48.940694 292.710018 
L 48.787779 291.716248 
L 48.327923 290.783739 
L 48.177423 289.395973 
L 48.364831 288.07322 
L 48.726829 287.618277 
L 50.340489 286.335109 
L 50.936321 285.59769 
L 51.044735 283.812165 
L 50.995985 280.507592 
L 51.77593 278.825551 
L 53.220517 277.146938 
L 53.973075 276.536208 
L 55.359417 273.659203 
L 54.874224 271.529258 
L 54.03158 269.239873 
L 53.49757 268.512187 
L 51.898325 267.006584 
L 126.358402 295.691766 
L 185.866732 295.239898 
L 215.206421 285.879286 
L 258.853315 285.151093 
L 259.142626 299.333129 
L 279.475023 340.892987 
L 283.431395 346.6 
M 31.2819 346.6 
L 32.920394 335.835077 
L 41.956289 327.142929 
L 43.753127 318.310702 
L 43.308554 316.679217 
L 43.630483 316.098116 
L 44.816715 314.671338 
L 46.27629 313.561271 
L 46.788817 312.965441 
L 47.436679 310.983426 
L 45.458867 305.108504 
L 45.320317 303.531587 
L 45.675677 302.57238 
L 46.717344 300.151587 
L 47.022861 298.624655 
L 47.656659 297.036619 
L 48.835908 294.379997 
L 48.940694 292.710018 
L 48.787779 291.716248 
L 48.327923 290.783739 
L 48.177423 289.395973 
L 48.364831 288.07322 
L 48.726829 287.618277 
L 50.340489 286.335109 
L 50.936321 285.59769 
L 51.044735 283.812165 
L 50.995985 280.507592 
L 51.77593 278.825551 
L 53.220517 277.146938 
L 53.973075 276.536208 
L 55.359417 273.659203 
L 54.874224 271.529258 
L 54.03158 269.239873 
L 53.49757 268.512187 
L 51.898325 267.006584 
L 51.898325 267.006584 
" clip-path="url(#pdc8949aca8)" style="fill: none; stroke: #8f8f8f; stroke-width: 0.2; stroke-linecap: square"/>
   </g>
   <g id="line2d_83">
    <path d="M 208.288112 -1 
L 208.218732 0.618928 
L 196.697756 -1 
M 189.911424 -1 
L 174.234753 1.790852 
L 145.123259 4.444109 
L 139.689473 4.959169 
L 138.797332 -1 
" clip-path="url(#pdc8949aca8)" style="fill: none; stroke: #8f8f8f; stroke-width: 0.2; stroke-linecap: square"/>
   </g>
   <g id="line2d_84">
    <path d="M 174.234753 1.790852 
L 172.451798 21.459776 
L 167.708879 75.469377 
L 135.58122 74.741466 
L 140.83003 6.265323 
L 139.689473 4.959169 
L 145.123259 4.444109 
L 174.234753 1.790852 
" clip-path="url(#pdc8949aca8)" style="fill: none; stroke: #8f8f8f; stroke-width: 0.2; stroke-linecap: square"/>
   </g>
   <g id="line2d_85">
    <path d="M 202.602102 72.962191 
L 199.342928 111.2179 
L 198.549618 120.682951 
L 183.318637 123.802708 
L 162.160226 128.17126 
L 140.215413 124.91514 
L 125.228669 116.934491 
L 131.063111 111.132623 
L 133.676813 99.784787 
L 135.58122 74.741466 
L 167.708879 75.469377 
L 196.900436 76.146957 
L 202.602102 72.962191 
" clip-path="url(#pdc8949aca8)" style="fill: none; stroke: #8f8f8f; stroke-width: 0.2; stroke-linecap: square"/>
   </g>
   <g id="line2d_86">
    <path d="M 196.697756 -1 
L 208.218732 0.618928 
L 205.946859 29.495777 
L 202.09693 20.359071 
L 193.128846 -1 
" clip-path="url(#pdc8949aca8)" style="fill: none; stroke: #8f8f8f; stroke-width: 0.2; stroke-linecap: square"/>
   </g>
   <g id="line2d_87">
    <path d="M 205.010949 41.545679 
L 215.678686 70.405703 
L 205.352151 71.435295 
L 202.602102 72.962191 
L 205.010949 41.545679 
" clip-path="url(#pdc8949aca8)" style="fill: none; stroke: #8f8f8f; stroke-width: 0.2; stroke-linecap: square"/>
   </g>
   <g id="line2d_88">
    <path d="M 193.128846 -1 
L 202.09693 20.359071 
L 205.946859 29.495777 
L 205.010949 41.545679 
L 202.602102 72.962191 
L 196.900436 76.146957 
L 167.708879 75.469377 
L 172.451798 21.459776 
L 174.234753 1.790852 
L 189.911424 -1 
" clip-path="url(#pdc8949aca8)" style="fill: none; stroke: #8f8f8f; stroke-width: 0.2; stroke-linecap: square"/>
   </g>
   <g id="line2d_89">
    <path clip-path="url(#pdc8949aca8)" style="fill: none; stroke: #8f8f8f; stroke-width: 0.2; stroke-linecap: square"/>
   </g>
   <g id="line2d_90">
    <path clip-path="url(#pdc8949aca8)" style="fill: none; stroke: #8f8f8f; stroke-width: 0.2; stroke-linecap: square"/>
   </g>
   <g id="line2d_91">
    <path clip-path="url(#pdc8949aca8)" style="fill: none; stroke: #8f8f8f; stroke-width: 0.2; stroke-linecap: square"/>
   </g>
   <g id="line2d_92">
    <path clip-path="url(#pdc8949aca8)" style="fill: none; stroke: #8f8f8f; stroke-width: 0.2; stroke-linecap: square"/>
   </g>
   <g id="line2d_93">
    <path clip-path="url(#pdc8949aca8)" style="fill: none; stroke: #8f8f8f; stroke-width: 0.2; stroke-linecap: square"/>
   </g>
   <g id="line2d_94">
    <path clip-path="url(#pdc8949aca8)" style="fill: none; stroke: #8f8f8f; stroke-width: 0.2; stroke-linecap: square"/>
   </g>
   <g id="line2d_95">
    <path clip-path="url(#pdc8949aca8)" style="fill: none; stroke: #8f8f8f; stroke-width: 0.2; stroke-linecap: square"/>
   </g>
   <g id="line2d_96">
    <path clip-path="url(#pdc8949aca8)" style="fill: none; stroke: #8f8f8f; stroke-width: 0.2; stroke-linecap: square"/>
   </g>
   <g id="line2d_97">
    <path d="M 115.368322 -1 
L 78.0506 104.457429 
L 73.777619 101.636755 
L 67.472781 104.646805 
L 57.072006 103.052784 
L 57.053581 99.899827 
L 46.4412 95.618594 
L 42.413734 89.561404 
L 44.272395 87.085285 
L 42.866094 85.481566 
L 38.009362 82.863852 
L 29.884944 84.585874 
L 29.394686 88.889661 
L 22.272354 93.34373 
L 8.508876 92.419463 
L 3.089131 86.871184 
L 0.610512 87.926853 
L 1.497365 90.710787 
L -1 92.129481 
" clip-path="url(#pdc8949aca8)" style="fill: none; stroke: #8f8f8f; stroke-width: 0.2; stroke-linecap: square"/>
   </g>
   <g id="line2d_98">
    <path d="M 115.368322 -1 
L 78.0506 104.457429 
L 73.777619 101.636755 
L 67.472781 104.646805 
L 57.072006 103.052784 
L 57.053581 99.899827 
L 46.4412 95.618594 
L 42.413734 89.561404 
L 44.272395 87.085285 
L 42.866094 85.481566 
L 38.009362 82.863852 
L 29.884944 84.585874 
L 29.394686 88.889661 
L 22.272354 93.34373 
L 8.508876 92.419463 
L 3.089131 86.871184 
L 0.610512 87.926853 
L 1.497365 90.710787 
L -1 92.129481 
" clip-path="url(#pdc8949aca8)" style="fill: none; stroke: #8f8f8f; stroke-width: 0.2; stroke-linecap: square"/>
   </g>
   <g id="line2d_99">
    <path d="M 115.368322 -1 
L 78.0506 104.457429 
L 73.777619 101.636755 
L 67.472781 104.646805 
L 57.072006 103.052784 
L 57.053581 99.899827 
L 46.4412 95.618594 
L 42.413734 89.561404 
L 44.272395 87.085285 
L 42.866094 85.481566 
L 38.009362 82.863852 
L 29.884944 84.585874 
L 29.394686 88.889661 
L 22.272354 93.34373 
L 8.508876 92.419463 
L 3.089131 86.871184 
L 0.610512 87.926853 
L 1.497365 90.710787 
L -1 92.129481 
" clip-path="url(#pdc8949aca8)" style="fill: none; stroke: #8f8f8f; stroke-width: 0.2; stroke-linecap: square"/>
   </g>
   <g id="line2d_100">
    <path d="M 115.368322 -1 
L 78.0506 104.457429 
L 73.777619 101.636755 
L 67.472781 104.646805 
L 57.072006 103.052784 
L 57.053581 99.899827 
L 46.4412 95.618594 
L 42.413734 89.561404 
L 44.272395 87.085285 
L 42.866094 85.481566 
L 38.009362 82.863852 
L 29.884944 84.585874 
L 29.394686 88.889661 
L 22.272354 93.34373 
L 8.508876 92.419463 
L 3.089131 86.871184 
L 0.610512 87.926853 
L 1.497365 90.710787 
L -1 92.129481 
" clip-path="url(#pdc8949aca8)" style="fill: none; stroke: #8f8f8f; stroke-width: 0.2; stroke-linecap: square"/>
   </g>
   <g id="line2d_101">
    <path d="M 115.368322 -1 
L 78.0506 104.457429 
L 73.777619 101.636755 
L 67.472781 104.646805 
L 57.072006 103.052784 
L 57.053581 99.899827 
L 46.4412 95.618594 
L 42.413734 89.561404 
L 44.272395 87.085285 
L 42.866094 85.481566 
L 38.009362 82.863852 
L 29.884944 84.585874 
L 29.394686 88.889661 
L 22.272354 93.34373 
L 8.508876 92.419463 
L 3.089131 86.871184 
L 0.610512 87.926853 
L 1.497365 90.710787 
L -1 92.129481 
" clip-path="url(#pdc8949aca8)" style="fill: none; stroke: #8f8f8f; stroke-width: 0.2; stroke-linecap: square"/>
   </g>
   <g id="line2d_102">
    <path clip-path="url(#pdc8949aca8)" style="fill: none; stroke: #8f8f8f; stroke-width: 0.2; stroke-linecap: square"/>
   </g>
   <g id="line2d_103">
    <path clip-path="url(#pdc8949aca8)" style="fill: none; stroke: #8f8f8f; stroke-width: 0.2; stroke-linecap: square"/>
   </g>
   <g id="line2d_104">
    <path d="M -1 6.667155 
L 4.990654 6.353137 
L 22.034865 1.283158 
L 45.816155 0.59824 
L 112.141841 7.477314 
L 114.644948 22.613163 
L 114.777898 52.371673 
L 130.008391 74.63735 
L 118.278809 98.751918 
L 101.951889 111.913042 
L 100.374203 109.491875 
L 97.435883 108.783456 
L 97.177174 108.369951 
L 96.563906 108.575789 
L 96.320692 107.818259 
L 94.589699 107.197321 
L 92.624531 107.589964 
L 89.618672 102.919597 
L 88.234444 102.773643 
L 86.068069 105.230591 
L 81.390173 106.391866 
L 78.0506 104.457429 
L 73.777619 101.636755 
L 67.472781 104.646805 
L 57.072006 103.052784 
L 57.053581 99.899827 
L 46.4412 95.618594 
L 42.413734 89.561404 
L 44.272395 87.085285 
L 42.866094 85.481566 
L 38.009362 82.863852 
L 29.884944 84.585874 
L 29.394686 88.889661 
L 22.272354 93.34373 
L 8.508876 92.419463 
L 3.089131 86.871184 
L 0.610512 87.926853 
L 1.497365 90.710787 
L -1 92.129481 
" clip-path="url(#pdc8949aca8)" style="fill: none; stroke: #8f8f8f; stroke-width: 0.2; stroke-linecap: square"/>
   </g>
   <g id="line2d_105">
    <path d="M 139.689473 4.959169 
L 140.83003 6.265323 
L 135.58122 74.741466 
L 130.008391 74.63735 
L 114.777898 52.371673 
L 114.644948 22.613163 
L 112.141841 7.477314 
L 139.689473 4.959169 
" clip-path="url(#pdc8949aca8)" style="fill: none; stroke: #8f8f8f; stroke-width: 0.2; stroke-linecap: square"/>
   </g>
   <g id="line2d_106">
    <path d="M 130.008391 74.63735 
L 135.58122 74.741466 
L 133.676813 99.784787 
L 131.063111 111.132623 
L 125.228669 116.934491 
L 118.705498 116.563116 
L 118.2617 115.33551 
L 115.545387 116.742748 
L 115.336312 115.118716 
L 112.831149 114.951957 
L 112.771458 115.355174 
L 111.864535 114.926967 
L 110.995843 115.447851 
L 109.266507 114.94833 
L 108.026225 113.92113 
L 106.438957 113.785311 
L 105.987079 113.290534 
L 104.23416 113.297172 
L 101.951889 111.913042 
L 118.278809 98.751918 
L 130.008391 74.63735 
" clip-path="url(#pdc8949aca8)" style="fill: none; stroke: #8f8f8f; stroke-width: 0.2; stroke-linecap: square"/>
   </g>
   <g id="line2d_107">
    <path clip-path="url(#pdc8949aca8)" style="fill: none; stroke: #8f8f8f; stroke-width: 0.2; stroke-linecap: square"/>
   </g>
   <g id="line2d_108">
    <path clip-path="url(#pdc8949aca8)" style="fill: none; stroke: #8f8f8f; stroke-width: 0.2; stroke-linecap: square"/>
   </g>
   <g id="line2d_109">
    <path clip-path="url(#pdc8949aca8)" style="fill: none; stroke: #8f8f8f; stroke-width: 0.2; stroke-linecap: square"/>
   </g>
   <g id="line2d_110">
    <path clip-path="url(#pdc8949aca8)" style="fill: none; stroke: #8f8f8f; stroke-width: 0.2; stroke-linecap: square"/>
   </g>
   <g id="line2d_111">
    <path clip-path="url(#pdc8949aca8)" style="fill: none; stroke: #8f8f8f; stroke-width: 0.2; stroke-linecap: square"/>
   </g>
   <g id="line2d_112">
    <path clip-path="url(#pdc8949aca8)" style="fill: none; stroke: #8f8f8f; stroke-width: 0.2; stroke-linecap: square"/>
   </g>
   <g id="line2d_113">
    <path clip-path="url(#pdc8949aca8)" style="fill: none; stroke: #8f8f8f; stroke-width: 0.2; stroke-linecap: square"/>
   </g>
   <g id="line2d_114">
    <path clip-path="url(#pdc8949aca8)" style="fill: none; stroke: #8f8f8f; stroke-width: 0.2; stroke-linecap: square"/>
   </g>
   <g id="line2d_115">
    <path clip-path="url(#pdc8949aca8)" style="fill: none; stroke: #8f8f8f; stroke-width: 0.2; stroke-linecap: square"/>
   </g>
   <g id="line2d_116">
    <path clip-path="url(#pdc8949aca8)" style="fill: none; stroke: #8f8f8f; stroke-width: 0.2; stroke-linecap: square"/>
   </g>
   <g id="line2d_117">
    <path d="M 184.234834 -1 
L 216.364747 23.429263 
L 209.002306 53.568 
L 179.987406 164.152087 
L 160.30045 295.488 
L 126.358402 295.691766 
L 51.898325 267.006584 
L 50.764005 265.188063 
L 50.177874 264.459869 
L 50.06408 264.081007 
L 50.010504 264.238298 
L 49.854215 263.922231 
L 49.802865 263.685551 
L 49.749732 263.764047 
L 49.751964 263.370078 
L 49.963146 263.292476 
L 49.912687 262.89821 
L 49.914022 262.661829 
L 50.021157 262.347249 
L 50.180075 262.190551 
L 50.130498 261.6387 
L 50.396946 261.088623 
L 50.344717 261.009535 
L 50.451374 260.773743 
L 50.452693 260.537363 
L 50.347362 260.536775 
L 50.296903 260.142514 
L 50.1429 259.432488 
L 50.099554 257.777539 
L 49.999149 256.910225 
L 49.948733 256.515964 
L 49.792204 256.269938 
L 50.847051 253.468998 
L 50.663146 250.373981 
L 51.992862 248.786566 
L 53.036966 247.917524 
L 53.307432 246.755426 
L 52.996328 245.044848 
L 54.269402 243.251918 
L 56.400137 240.063998 
L 57.872298 236.419434 
L 60.08335 234.784466 
L 61.095002 231.388573 
L 62.720418 224.615874 
L 62.783052 222.893695 
L 63.213598 221.335838 
L 67.304635 219.163047 
L 68.415577 216.675816 
L 67.02484 209.14806 
L 67.557246 206.016371 
L 70.67595 197.415205 
L 70.874195 192.679031 
L 72.028891 191.353196 
L 74.088908 189.90666 
L 74.924497 186.683904 
L 74.71022 184.795148 
L 75.022798 181.766688 
L 74.366853 178.151869 
L 74.942921 175.837119 
L 77.577164 171.550594 
L 78.5984 168.26799 
L 83.729105 164.870592 
L 91.736907 155.0483 
L 91.79296 150.789339 
L 92.659615 149.464824 
L 93.898798 149.211258 
L 95.919781 149.61833 
L 97.447129 148.513773 
L 97.825244 145.850872 
L 98.804135 144.946243 
L 100.51103 144.812191 
L 102.016381 144.744473 
L 104.262926 143.132853 
L 106.025863 140.137381 
L 107.418011 133.948483 
L 110.045793 127.523391 
L 113.366777 122.632469 
L 115.290239 118.728187 
L 119.240435 117.021015 
L 118.705498 116.563116 
L 118.2617 115.33551 
L 115.545387 116.742748 
L 115.336312 115.118716 
L 112.831149 114.951957 
L 112.771458 115.355174 
L 111.864535 114.926967 
L 110.995843 115.447851 
L 109.266507 114.94833 
L 108.026225 113.92113 
L 106.438957 113.785311 
L 105.987079 113.290534 
L 104.23416 113.297172 
L 100.374203 109.491875 
L 97.435883 108.783456 
L 97.177174 108.369951 
L 96.563906 108.575789 
L 96.320692 107.818259 
L 94.589699 107.197321 
L 92.624531 107.589964 
L 89.618672 102.919597 
L 88.234444 102.773643 
L 86.068069 105.230591 
L 81.390173 106.391866 
L 78.0506 104.457429 
L 115.368322 -1 
" clip-path="url(#pdc8949aca8)" style="fill: none; stroke: #8f8f8f; stroke-width: 0.2; stroke-linecap: square"/>
   </g>
   <g id="line2d_118">
    <path d="M 184.234834 -1 
L 216.364747 23.429263 
L 209.002306 53.568 
L 179.987406 164.152087 
L 160.30045 295.488 
L 126.358402 295.691766 
L 51.898325 267.006584 
L 50.764005 265.188063 
L 50.177874 264.459869 
L 50.06408 264.081007 
L 50.010504 264.238298 
L 49.854215 263.922231 
L 49.802865 263.685551 
L 49.749732 263.764047 
L 49.751964 263.370078 
L 49.963146 263.292476 
L 49.912687 262.89821 
L 49.914022 262.661829 
L 50.021157 262.347249 
L 50.180075 262.190551 
L 50.130498 261.6387 
L 50.396946 261.088623 
L 50.344717 261.009535 
L 50.451374 260.773743 
L 50.452693 260.537363 
L 50.347362 260.536775 
L 50.296903 260.142514 
L 50.1429 259.432488 
L 50.099554 257.777539 
L 49.999149 256.910225 
L 49.948733 256.515964 
L 49.792204 256.269938 
L 50.847051 253.468998 
L 50.663146 250.373981 
L 51.992862 248.786566 
L 53.036966 247.917524 
L 53.307432 246.755426 
L 52.996328 245.044848 
L 54.269402 243.251918 
L 56.400137 240.063998 
L 57.872298 236.419434 
L 60.08335 234.784466 
L 61.095002 231.388573 
L 62.720418 224.615874 
L 62.783052 222.893695 
L 63.213598 221.335838 
L 67.304635 219.163047 
L 68.415577 216.675816 
L 67.02484 209.14806 
L 67.557246 206.016371 
L 70.67595 197.415205 
L 70.874195 192.679031 
L 72.028891 191.353196 
L 74.088908 189.90666 
L 74.924497 186.683904 
L 74.71022 184.795148 
L 75.022798 181.766688 
L 74.366853 178.151869 
L 74.942921 175.837119 
L 77.577164 171.550594 
L 78.5984 168.26799 
L 83.729105 164.870592 
L 91.736907 155.0483 
L 91.79296 150.789339 
L 92.659615 149.464824 
L 93.898798 149.211258 
L 95.919781 149.61833 
L 97.447129 148.513773 
L 97.825244 145.850872 
L 98.804135 144.946243 
L 100.51103 144.812191 
L 102.016381 144.744473 
L 104.262926 143.132853 
L 106.025863 140.137381 
L 107.418011 133.948483 
L 110.045793 127.523391 
L 113.366777 122.632469 
L 115.290239 118.728187 
L 119.240435 117.021015 
L 118.705498 116.563116 
L 118.2617 115.33551 
L 115.545387 116.742748 
L 115.336312 115.118716 
L 112.831149 114.951957 
L 112.771458 115.355174 
L 111.864535 114.926967 
L 110.995843 115.447851 
L 109.266507 114.94833 
L 108.026225 113.92113 
L 106.438957 113.785311 
L 105.987079 113.290534 
L 104.23416 113.297172 
L 100.374203 109.491875 
L 97.435883 108.783456 
L 97.177174 108.369951 
L 96.563906 108.575789 
L 96.320692 107.818259 
L 94.589699 107.197321 
L 92.624531 107.589964 
L 89.618672 102.919597 
L 88.234444 102.773643 
L 86.068069 105.230591 
L 81.390173 106.391866 
L 78.0506 104.457429 
L 115.368322 -1 
" clip-path="url(#pdc8949aca8)" style="fill: none; stroke: #8f8f8f; stroke-width: 0.2; stroke-linecap: square"/>
   </g>
   <g id="line2d_119">
    <path d="M 184.234834 -1 
L 216.364747 23.429263 
L 209.002306 53.568 
L 179.987406 164.152087 
L 160.30045 295.488 
L 126.358402 295.691766 
L 51.898325 267.006584 
L 50.764005 265.188063 
L 50.177874 264.459869 
L 50.06408 264.081007 
L 50.010504 264.238298 
L 49.854215 263.922231 
L 49.802865 263.685551 
L 49.749732 263.764047 
L 49.751964 263.370078 
L 49.963146 263.292476 
L 49.912687 262.89821 
L 49.914022 262.661829 
L 50.021157 262.347249 
L 50.180075 262.190551 
L 50.130498 261.6387 
L 50.396946 261.088623 
L 50.344717 261.009535 
L 50.451374 260.773743 
L 50.452693 260.537363 
L 50.347362 260.536775 
L 50.296903 260.142514 
L 50.1429 259.432488 
L 50.099554 257.777539 
L 49.999149 256.910225 
L 49.948733 256.515964 
L 49.792204 256.269938 
L 50.847051 253.468998 
L 50.663146 250.373981 
L 51.992862 248.786566 
L 53.036966 247.917524 
L 53.307432 246.755426 
L 52.996328 245.044848 
L 54.269402 243.251918 
L 56.400137 240.063998 
L 57.872298 236.419434 
L 60.08335 234.784466 
L 61.095002 231.388573 
L 62.720418 224.615874 
L 62.783052 222.893695 
L 63.213598 221.335838 
L 67.304635 219.163047 
L 68.415577 216.675816 
L 67.02484 209.14806 
L 67.557246 206.016371 
L 70.67595 197.415205 
L 70.874195 192.679031 
L 72.028891 191.353196 
L 74.088908 189.90666 
L 74.924497 186.683904 
L 74.71022 184.795148 
L 75.022798 181.766688 
L 74.366853 178.151869 
L 74.942921 175.837119 
L 77.577164 171.550594 
L 78.5984 168.26799 
L 83.729105 164.870592 
L 91.736907 155.0483 
L 91.79296 150.789339 
L 92.659615 149.464824 
L 93.898798 149.211258 
L 95.919781 149.61833 
L 97.447129 148.513773 
L 97.825244 145.850872 
L 98.804135 144.946243 
L 100.51103 144.812191 
L 102.016381 144.744473 
L 104.262926 143.132853 
L 106.025863 140.137381 
L 107.418011 133.948483 
L 110.045793 127.523391 
L 113.366777 122.632469 
L 115.290239 118.728187 
L 119.240435 117.021015 
L 118.705498 116.563116 
L 118.2617 115.33551 
L 115.545387 116.742748 
L 115.336312 115.118716 
L 112.831149 114.951957 
L 112.771458 115.355174 
L 111.864535 114.926967 
L 110.995843 115.447851 
L 109.266507 114.94833 
L 108.026225 113.92113 
L 106.438957 113.785311 
L 105.987079 113.290534 
L 104.23416 113.297172 
L 100.374203 109.491875 
L 97.435883 108.783456 
L 97.177174 108.369951 
L 96.563906 108.575789 
L 96.320692 107.818259 
L 94.589699 107.197321 
L 92.624531 107.589964 
L 89.618672 102.919597 
L 88.234444 102.773643 
L 86.068069 105.230591 
L 81.390173 106.391866 
L 78.0506 104.457429 
L 115.368322 -1 
" clip-path="url(#pdc8949aca8)" style="fill: none; stroke: #8f8f8f; stroke-width: 0.2; stroke-linecap: square"/>
   </g>
   <g id="line2d_120">
    <path clip-path="url(#pdc8949aca8)" style="fill: none; stroke: #8f8f8f; stroke-width: 0.2; stroke-linecap: square"/>
   </g>
   <g id="line2d_121">
    <path clip-path="url(#pdc8949aca8)" style="fill: none; stroke: #8f8f8f; stroke-width: 0.2; stroke-linecap: square"/>
   </g>
   <g id="line2d_122">
    <path clip-path="url(#pdc8949aca8)" style="fill: none; stroke: #8f8f8f; stroke-width: 0.2; stroke-linecap: square"/>
   </g>
   <g id="line2d_123">
    <path clip-path="url(#pdc8949aca8)" style="fill: none; stroke: #8f8f8f; stroke-width: 0.2; stroke-linecap: square"/>
   </g>
   <g id="line2d_124">
    <path clip-path="url(#pdc8949aca8)" style="fill: none; stroke: #8f8f8f; stroke-width: 0.2; stroke-linecap: square"/>
   </g>
   <g id="line2d_125">
    <path d="M 374.04424 -1 
L 377.086742 3.563652 
L 398.916108 36.328583 
L 361.546486 79.192353 
L 350.714834 90.200058 
L 328.304391 105.707562 
L 312.01955 116.994424 
L 290.844735 100.566692 
L 209.002306 53.568 
L 216.364747 23.429263 
L 221.087565 -1 
" clip-path="url(#pdc8949aca8)" style="fill: none; stroke: #8f8f8f; stroke-width: 0.2; stroke-linecap: square"/>
   </g>
   <g id="line2d_126">
    <path d="M 374.04424 -1 
L 377.086742 3.563652 
L 351.107576 27.120469 
L 336.610132 45.370105 
L 347.680314 63.146059 
L 361.546486 79.192353 
L 350.714834 90.200058 
L 328.304391 105.707562 
L 312.01955 116.994424 
L 290.844735 100.566692 
L 209.002306 53.568 
L 216.364747 23.429263 
L 221.087565 -1 
" clip-path="url(#pdc8949aca8)" style="fill: none; stroke: #8f8f8f; stroke-width: 0.2; stroke-linecap: square"/>
   </g>
   <g id="line2d_127">
    <path d="M 374.04424 -1 
L 377.086742 3.563652 
L 398.916108 36.328583 
L 361.546486 79.192353 
L 350.714834 90.200058 
L 328.304391 105.707562 
L 312.01955 116.994424 
L 290.844735 100.566692 
L 209.002306 53.568 
L 216.364747 23.429263 
L 221.087565 -1 
" clip-path="url(#pdc8949aca8)" style="fill: none; stroke: #8f8f8f; stroke-width: 0.2; stroke-linecap: square"/>
   </g>
   <g id="line2d_128">
    <path d="M 374.04424 -1 
L 377.086742 3.563652 
L 398.916108 36.328583 
L 361.546486 79.192353 
L 350.714834 90.200058 
L 328.304391 105.707562 
L 312.01955 116.994424 
L 290.844735 100.566692 
L 209.002306 53.568 
L 216.364747 23.429263 
L 221.087565 -1 
" clip-path="url(#pdc8949aca8)" style="fill: none; stroke: #8f8f8f; stroke-width: 0.2; stroke-linecap: square"/>
   </g>
   <g id="line2d_129">
    <path d="M 374.04424 -1 
L 377.086742 3.563652 
L 398.916108 36.328583 
L 361.546486 79.192353 
L 350.714834 90.200058 
L 328.304391 105.707562 
L 312.01955 116.994424 
L 290.844735 100.566692 
L 209.002306 53.568 
L 216.364747 23.429263 
L 221.087565 -1 
" clip-path="url(#pdc8949aca8)" style="fill: none; stroke: #8f8f8f; stroke-width: 0.2; stroke-linecap: square"/>
   </g>
   <g id="line2d_130">
    <path clip-path="url(#pdc8949aca8)" style="fill: none; stroke: #8f8f8f; stroke-width: 0.2; stroke-linecap: square"/>
   </g>
   <g id="line2d_131">
    <path clip-path="url(#pdc8949aca8)" style="fill: none; stroke: #8f8f8f; stroke-width: 0.2; stroke-linecap: square"/>
   </g>
   <g id="line2d_132">
    <path clip-path="url(#pdc8949aca8)" style="fill: none; stroke: #8f8f8f; stroke-width: 0.2; stroke-linecap: square"/>
   </g>
   <g id="line2d_133">
    <path clip-path="url(#pdc8949aca8)" style="fill: none; stroke: #8f8f8f; stroke-width: 0.2; stroke-linecap: square"/>
   </g>
   <g id="line2d_134">
    <path clip-path="url(#pdc8949aca8)" style="fill: none; stroke: #8f8f8f; stroke-width: 0.2; stroke-linecap: square"/>
   </g>
   <g id="line2d_135">
    <path clip-path="url(#pdc8949aca8)" style="fill: none; stroke: #8f8f8f; stroke-width: 0.2; stroke-linecap: square"/>
   </g>
   <g id="line2d_136">
    <path d="M 209.002306 53.568 
L 290.844735 100.566692 
L 312.01955 116.994424 
L 279.370171 139.594613 
L 270.427303 157.444252 
L 264.248062 169.751169 
L 262.139617 174.043064 
L 256.797808 184.662142 
L 257.152999 201.99264 
L 257.962791 241.556996 
L 258.58527 272.01995 
L 258.853315 285.151093 
L 215.206421 285.879286 
L 185.866732 295.239898 
L 160.30045 295.488 
L 179.987406 164.152087 
L 209.002306 53.568 
L 209.002306 53.568 
" clip-path="url(#pdc8949aca8)" style="fill: none; stroke: #ffc380; stroke-width: 0.5; stroke-linecap: square"/>
   </g>
   <g id="line2d_137">
    <path d="M 267.327335 110.010675 
L 279.370171 139.594613 
L 270.427303 157.444252 
L 264.248062 169.751169 
L 262.139617 174.043064 
L 256.797808 184.662142 
L 257.152999 201.99264 
L 257.962791 241.556996 
L 211.488594 242.371728 
L 218.871352 160.396372 
L 223.372194 110.771496 
L 267.327335 110.010675 
L 267.327335 110.010675 
" clip-path="url(#pdc8949aca8)" style="fill: none; stroke: #ffc380; stroke-width: 0.5; stroke-linecap: square"/>
   </g>
   <g id="line2d_138">
    <path d="M 209.002306 53.568 
L 290.844735 100.566692 
L 312.01955 116.994424 
L 279.370171 139.594613 
L 270.427303 157.444252 
L 264.248062 169.751169 
L 262.139617 174.043064 
L 256.797808 184.662142 
L 257.152999 201.99264 
L 257.962791 241.556996 
L 258.58527 272.01995 
L 258.853315 285.151093 
L 215.206421 285.879286 
L 185.866732 295.239898 
L 160.30045 295.488 
L 179.987406 164.152087 
L 209.002306 53.568 
L 209.002306 53.568 
" clip-path="url(#pdc8949aca8)" style="fill: none; stroke: #ffc380; stroke-width: 0.5; stroke-linecap: square"/>
   </g>
   <g id="line2d_139">
    <path d="M 209.002306 53.568 
L 290.844735 100.566692 
L 312.01955 116.994424 
L 279.370171 139.594613 
L 270.427303 157.444252 
L 264.248062 169.751169 
L 262.139617 174.043064 
L 256.797808 184.662142 
L 257.152999 201.99264 
L 257.962791 241.556996 
L 258.58527 272.01995 
L 258.853315 285.151093 
L 215.206421 285.879286 
L 185.866732 295.239898 
L 160.30045 295.488 
L 179.987406 164.152087 
L 209.002306 53.568 
L 209.002306 53.568 
" clip-path="url(#pdc8949aca8)" style="fill: none; stroke: #ffc380; stroke-width: 0.5; stroke-linecap: square"/>
   </g>
   <g id="text_1">
    <!-- TGO131 -->
    <g transform="translate(224.343877 169.642145)scale(0.0579 -0.0579)">
     <defs>
      <path id="DejaVuSans-54" d="M -19 4666 
L 3928 4666 
L 3928 4134 
L 2272 4134 
L 2272 0 
L 1638 0 
L 1638 4134 
L -19 4134 
L -19 4666 
z
" transform="scale(0.015625)"/>
      <path id="DejaVuSans-47" d="M 3809 666 
L 3809 1919 
L 2778 1919 
L 2778 2438 
L 4434 2438 
L 4434 434 
Q 4069 175 3628 42 
Q 3188 -91 2688 -91 
Q 1594 -91 976 548 
Q 359 1188 359 2328 
Q 359 3472 976 4111 
Q 1594 4750 2688 4750 
Q 3144 4750 3555 4637 
Q 3966 4525 4313 4306 
L 4313 3634 
Q 3963 3931 3569 4081 
Q 3175 4231 2741 4231 
Q 1884 4231 1454 3753 
Q 1025 3275 1025 2328 
Q 1025 1384 1454 906 
Q 1884 428 2741 428 
Q 3075 428 3337 486 
Q 3600 544 3809 666 
z
" transform="scale(0.015625)"/>
      <path id="DejaVuSans-4f" d="M 2522 4238 
Q 1834 4238 1429 3725 
Q 1025 3213 1025 2328 
Q 1025 1447 1429 934 
Q 1834 422 2522 422 
Q 3209 422 3611 934 
Q 4013 1447 4013 2328 
Q 4013 3213 3611 3725 
Q 3209 4238 2522 4238 
z
M 2522 4750 
Q 3503 4750 4090 4092 
Q 4678 3434 4678 2328 
Q 4678 1225 4090 567 
Q 3503 -91 2522 -91 
Q 1538 -91 948 565 
Q 359 1222 359 2328 
Q 359 3434 948 4092 
Q 1538 4750 2522 4750 
z
" transform="scale(0.015625)"/>
      <path id="DejaVuSans-31" d="M 794 531 
L 1825 531 
L 1825 4091 
L 703 3866 
L 703 4441 
L 1819 4666 
L 2450 4666 
L 2450 531 
L 3481 531 
L 3481 0 
L 794 0 
L 794 531 
z
" transform="scale(0.015625)"/>
      <path id="DejaVuSans-33" d="M 2597 2516 
Q 3050 2419 3304 2112 
Q 3559 1806 3559 1356 
Q 3559 666 3084 287 
Q 2609 -91 1734 -91 
Q 1441 -91 1130 -33 
Q 819 25 488 141 
L 488 750 
Q 750 597 1062 519 
Q 1375 441 1716 441 
Q 2309 441 2620 675 
Q 2931 909 2931 1356 
Q 2931 1769 2642 2001 
Q 2353 2234 1838 2234 
L 1294 2234 
L 1294 2753 
L 1863 2753 
Q 2328 2753 2575 2939 
Q 2822 3125 2822 3475 
Q 2822 3834 2567 4026 
Q 2313 4219 1838 4219 
Q 1578 4219 1281 4162 
Q 984 4106 628 3988 
L 628 4550 
Q 988 4650 1302 4700 
Q 1616 4750 1894 4750 
Q 2613 4750 3031 4423 
Q 3450 4097 3450 3541 
Q 3450 3153 3228 2886 
Q 3006 2619 2597 2516 
z
" transform="scale(0.015625)"/>
     </defs>
     <use xlink:href="#DejaVuSans-54"/>
     <use xlink:href="#DejaVuSans-47" x="61.083984"/>
     <use xlink:href="#DejaVuSans-4f" x="138.574219"/>
     <use xlink:href="#DejaVuSans-31" x="217.285156"/>
     <use xlink:href="#DejaVuSans-33" x="280.908203"/>
     <use xlink:href="#DejaVuSans-31" x="344.53125"/>
    </g>
    <!-- 355 -->
    <g transform="translate(230.634169 176.125678)scale(0.0579 -0.0579)">
     <defs>
      <path id="DejaVuSans-35" d="M 691 4666 
L 3169 4666 
L 3169 4134 
L 1269 4134 
L 1269 2991 
Q 1406 3038 1543 3061 
Q 1681 3084 1819 3084 
Q 2600 3084 3056 2656 
Q 3513 2228 3513 1497 
Q 3513 744 3044 326 
Q 2575 -91 1722 -91 
Q 1428 -91 1123 -41 
Q 819 9 494 109 
L 494 744 
Q 775 591 1075 516 
Q 1375 441 1709 441 
Q 2250 441 2565 725 
Q 2881 1009 2881 1497 
Q 2881 1984 2565 2268 
Q 2250 2553 1709 2553 
Q 1456 2553 1204 2497 
Q 953 2441 691 2322 
L 691 4666 
z
" transform="scale(0.015625)"/>
     </defs>
     <use xlink:href="#DejaVuSans-33"/>
     <use xlink:href="#DejaVuSans-35" x="63.623047"/>
     <use xlink:href="#DejaVuSans-35" x="127.246094"/>
    </g>
    <!-- 245 -->
    <g transform="translate(230.634169 182.609212)scale(0.0579 -0.0579)">
     <defs>
      <path id="DejaVuSans-32" d="M 1228 531 
L 3431 531 
L 3431 0 
L 469 0 
L 469 531 
Q 828 903 1448 1529 
Q 2069 2156 2228 2338 
Q 2531 2678 2651 2914 
Q 2772 3150 2772 3378 
Q 2772 3750 2511 3984 
Q 2250 4219 1831 4219 
Q 1534 4219 1204 4116 
Q 875 4013 500 3803 
L 500 4441 
Q 881 4594 1212 4672 
Q 1544 4750 1819 4750 
Q 2544 4750 2975 4387 
Q 3406 4025 3406 3419 
Q 3406 3131 3298 2873 
Q 3191 2616 2906 2266 
Q 2828 2175 2409 1742 
Q 1991 1309 1228 531 
z
" transform="scale(0.015625)"/>
      <path id="DejaVuSans-34" d="M 2419 4116 
L 825 1625 
L 2419 1625 
L 2419 4116 
z
M 2253 4666 
L 3047 4666 
L 3047 1625 
L 3713 1625 
L 3713 1100 
L 3047 1100 
L 3047 0 
L 2419 0 
L 2419 1100 
L 313 1100 
L 313 1709 
L 2253 4666 
z
" transform="scale(0.015625)"/>
     </defs>
     <use xlink:href="#DejaVuSans-32"/>
     <use xlink:href="#DejaVuSans-34" x="63.623047"/>
     <use xlink:href="#DejaVuSans-35" x="127.246094"/>
    </g>
   </g>
   <g id="text_2">
    <!-- TGO133 -->
    <g transform="translate(233.613259 171.305347)scale(0.0579 -0.0579)">
     <use xlink:href="#DejaVuSans-54"/>
     <use xlink:href="#DejaVuSans-47" x="61.083984"/>
     <use xlink:href="#DejaVuSans-4f" x="138.574219"/>
     <use xlink:href="#DejaVuSans-31" x="217.285156"/>
     <use xlink:href="#DejaVuSans-33" x="280.908203"/>
     <use xlink:href="#DejaVuSans-33" x="344.53125"/>
    </g>
    <!-- 245 -->
    <g transform="translate(239.903551 177.78888)scale(0.0579 -0.0579)">
     <use xlink:href="#DejaVuSans-32"/>
     <use xlink:href="#DejaVuSans-34" x="63.623047"/>
     <use xlink:href="#DejaVuSans-35" x="127.246094"/>
    </g>
    <!-- 235 -->
    <g transform="translate(239.903551 184.272413)scale(0.0579 -0.0579)">
     <use xlink:href="#DejaVuSans-32"/>
     <use xlink:href="#DejaVuSans-33" x="63.623047"/>
     <use xlink:href="#DejaVuSans-35" x="127.246094"/>
    </g>
   </g>
   <g id="text_3">
    <!-- TGO23 -->
    <g transform="translate(226.18582 169.642145)scale(0.0579 -0.0579)">
     <use xlink:href="#DejaVuSans-54"/>
     <use xlink:href="#DejaVuSans-47" x="61.083984"/>
     <use xlink:href="#DejaVuSans-4f" x="138.574219"/>
     <use xlink:href="#DejaVuSans-32" x="217.285156"/>
     <use xlink:href="#DejaVuSans-33" x="280.908203"/>
    </g>
    <!-- 375 -->
    <g transform="translate(230.634169 176.125678)scale(0.0579 -0.0579)">
     <defs>
      <path id="DejaVuSans-37" d="M 525 4666 
L 3525 4666 
L 3525 4397 
L 1831 0 
L 1172 0 
L 2766 4134 
L 525 4134 
L 525 4666 
z
" transform="scale(0.015625)"/>
     </defs>
     <use xlink:href="#DejaVuSans-33"/>
     <use xlink:href="#DejaVuSans-37" x="63.623047"/>
     <use xlink:href="#DejaVuSans-35" x="127.246094"/>
    </g>
    <!-- 355 -->
    <g transform="translate(230.634169 182.609212)scale(0.0579 -0.0579)">
     <use xlink:href="#DejaVuSans-33"/>
     <use xlink:href="#DejaVuSans-35" x="63.623047"/>
     <use xlink:href="#DejaVuSans-35" x="127.246094"/>
    </g>
   </g>
   <g id="text_4">
    <!-- TGO33 -->
    <g transform="translate(226.18582 169.642145)scale(0.0579 -0.0579)">
     <use xlink:href="#DejaVuSans-54"/>
     <use xlink:href="#DejaVuSans-47" x="61.083984"/>
     <use xlink:href="#DejaVuSans-4f" x="138.574219"/>
     <use xlink:href="#DejaVuSans-33" x="217.285156"/>
     <use xlink:href="#DejaVuSans-33" x="280.908203"/>
    </g>
    <!-- 660 -->
    <g transform="translate(230.634169 176.125678)scale(0.0579 -0.0579)">
     <defs>
      <path id="DejaVuSans-36" d="M 2113 2584 
Q 1688 2584 1439 2293 
Q 1191 2003 1191 1497 
Q 1191 994 1439 701 
Q 1688 409 2113 409 
Q 2538 409 2786 701 
Q 3034 994 3034 1497 
Q 3034 2003 2786 2293 
Q 2538 2584 2113 2584 
z
M 3366 4563 
L 3366 3988 
Q 3128 4100 2886 4159 
Q 2644 4219 2406 4219 
Q 1781 4219 1451 3797 
Q 1122 3375 1075 2522 
Q 1259 2794 1537 2939 
Q 1816 3084 2150 3084 
Q 2853 3084 3261 2657 
Q 3669 2231 3669 1497 
Q 3669 778 3244 343 
Q 2819 -91 2113 -91 
Q 1303 -91 875 529 
Q 447 1150 447 2328 
Q 447 3434 972 4092 
Q 1497 4750 2381 4750 
Q 2619 4750 2861 4703 
Q 3103 4656 3366 4563 
z
" transform="scale(0.015625)"/>
      <path id="DejaVuSans-30" d="M 2034 4250 
Q 1547 4250 1301 3770 
Q 1056 3291 1056 2328 
Q 1056 1369 1301 889 
Q 1547 409 2034 409 
Q 2525 409 2770 889 
Q 3016 1369 3016 2328 
Q 3016 3291 2770 3770 
Q 2525 4250 2034 4250 
z
M 2034 4750 
Q 2819 4750 3233 4129 
Q 3647 3509 3647 2328 
Q 3647 1150 3233 529 
Q 2819 -91 2034 -91 
Q 1250 -91 836 529 
Q 422 1150 422 2328 
Q 422 3509 836 4129 
Q 1250 4750 2034 4750 
z
" transform="scale(0.015625)"/>
     </defs>
     <use xlink:href="#DejaVuSans-36"/>
     <use xlink:href="#DejaVuSans-36" x="63.623047"/>
     <use xlink:href="#DejaVuSans-30" x="127.246094"/>
    </g>
    <!-- 375 -->
    <g transform="translate(230.634169 182.609212)scale(0.0579 -0.0579)">
     <use xlink:href="#DejaVuSans-33"/>
     <use xlink:href="#DejaVuSans-37" x="63.623047"/>
     <use xlink:href="#DejaVuSans-35" x="127.246094"/>
    </g>
   </g>
  </g>
 </g>
 <defs>
  <clipPath id="pdc8949aca8">
   <rect x="152.714495" y="41.472" width="166.891009" height="266.112"/>
  </clipPath>
 </defs>
</svg>
